<?xml version="1.0" encoding="utf-8" standalone="no"?>
<!DOCTYPE svg PUBLIC "-//W3C//DTD SVG 1.1//EN"
  "http://www.w3.org/Graphics/SVG/1.1/DTD/svg11.dtd">
<svg xmlns:xlink="http://www.w3.org/1999/xlink" width="460.8pt" height="345.6pt" viewBox="0 0 460.8 345.6" xmlns="http://www.w3.org/2000/svg" version="1.1">
 <metadata>
  <rdf:RDF xmlns:dc="http://purl.org/dc/elements/1.1/" xmlns:cc="http://creativecommons.org/ns#" xmlns:rdf="http://www.w3.org/1999/02/22-rdf-syntax-ns#">
   <cc:Work>
    <dc:type rdf:resource="http://purl.org/dc/dcmitype/StillImage"/>
    <dc:date>2025-05-07T11:19:46.081807</dc:date>
    <dc:format>image/svg+xml</dc:format>
    <dc:creator>
     <cc:Agent>
      <dc:title>Matplotlib v3.10.1, https://matplotlib.org/</dc:title>
     </cc:Agent>
    </dc:creator>
   </cc:Work>
  </rdf:RDF>
 </metadata>
 <defs>
  <style type="text/css">*{stroke-linejoin: round; stroke-linecap: butt}</style>
 </defs>
 <g id="figure_1">
  <g id="patch_1">
   <path d="M 0 345.6 
L 460.8 345.6 
L 460.8 0 
L 0 0 
z
" style="fill: #ffffff"/>
  </g>
  <g id="axes_1">
   <g id="patch_2">
    <path d="M 57.6 307.584 
L 414.72 307.584 
L 414.72 41.472 
L 57.6 41.472 
z
" style="fill: #ffffff"/>
   </g>
   <g id="matplotlib.axis_1">
    <g id="xtick_1">
     <g id="line2d_1">
      <defs>
       <path id="m82a5bc5e4d" d="M 0 0 
L 0 3.5 
" style="stroke: #000000; stroke-width: 0.8"/>
      </defs>
      <g>
       <use xlink:href="#m82a5bc5e4d" x="75.363769" y="307.584" style="stroke: #000000; stroke-width: 0.8"/>
      </g>
     </g>
     <g id="text_1">
      <!-- −0.2 -->
      <g transform="translate(63.222362 322.182437) scale(0.1 -0.1)">
       <defs>
        <path id="DejaVuSans-2212" d="M 678 2272 
L 4684 2272 
L 4684 1741 
L 678 1741 
L 678 2272 
z
" transform="scale(0.015625)"/>
        <path id="DejaVuSans-30" d="M 2034 4250 
Q 1547 4250 1301 3770 
Q 1056 3291 1056 2328 
Q 1056 1369 1301 889 
Q 1547 409 2034 409 
Q 2525 409 2770 889 
Q 3016 1369 3016 2328 
Q 3016 3291 2770 3770 
Q 2525 4250 2034 4250 
z
M 2034 4750 
Q 2819 4750 3233 4129 
Q 3647 3509 3647 2328 
Q 3647 1150 3233 529 
Q 2819 -91 2034 -91 
Q 1250 -91 836 529 
Q 422 1150 422 2328 
Q 422 3509 836 4129 
Q 1250 4750 2034 4750 
z
" transform="scale(0.015625)"/>
        <path id="DejaVuSans-2e" d="M 684 794 
L 1344 794 
L 1344 0 
L 684 0 
L 684 794 
z
" transform="scale(0.015625)"/>
        <path id="DejaVuSans-32" d="M 1228 531 
L 3431 531 
L 3431 0 
L 469 0 
L 469 531 
Q 828 903 1448 1529 
Q 2069 2156 2228 2338 
Q 2531 2678 2651 2914 
Q 2772 3150 2772 3378 
Q 2772 3750 2511 3984 
Q 2250 4219 1831 4219 
Q 1534 4219 1204 4116 
Q 875 4013 500 3803 
L 500 4441 
Q 881 4594 1212 4672 
Q 1544 4750 1819 4750 
Q 2544 4750 2975 4387 
Q 3406 4025 3406 3419 
Q 3406 3131 3298 2873 
Q 3191 2616 2906 2266 
Q 2828 2175 2409 1742 
Q 1991 1309 1228 531 
z
" transform="scale(0.015625)"/>
       </defs>
       <use xlink:href="#DejaVuSans-2212"/>
       <use xlink:href="#DejaVuSans-30" transform="translate(83.789062 0)"/>
       <use xlink:href="#DejaVuSans-2e" transform="translate(147.412109 0)"/>
       <use xlink:href="#DejaVuSans-32" transform="translate(179.199219 0)"/>
      </g>
     </g>
    </g>
    <g id="xtick_2">
     <g id="line2d_2">
      <g>
       <use xlink:href="#m82a5bc5e4d" x="134.391868" y="307.584" style="stroke: #000000; stroke-width: 0.8"/>
      </g>
     </g>
     <g id="text_2">
      <!-- 0.0 -->
      <g transform="translate(126.440305 322.182437) scale(0.1 -0.1)">
       <use xlink:href="#DejaVuSans-30"/>
       <use xlink:href="#DejaVuSans-2e" transform="translate(63.623047 0)"/>
       <use xlink:href="#DejaVuSans-30" transform="translate(95.410156 0)"/>
      </g>
     </g>
    </g>
    <g id="xtick_3">
     <g id="line2d_3">
      <g>
       <use xlink:href="#m82a5bc5e4d" x="193.419967" y="307.584" style="stroke: #000000; stroke-width: 0.8"/>
      </g>
     </g>
     <g id="text_3">
      <!-- 0.2 -->
      <g transform="translate(185.468404 322.182437) scale(0.1 -0.1)">
       <use xlink:href="#DejaVuSans-30"/>
       <use xlink:href="#DejaVuSans-2e" transform="translate(63.623047 0)"/>
       <use xlink:href="#DejaVuSans-32" transform="translate(95.410156 0)"/>
      </g>
     </g>
    </g>
    <g id="xtick_4">
     <g id="line2d_4">
      <g>
       <use xlink:href="#m82a5bc5e4d" x="252.448066" y="307.584" style="stroke: #000000; stroke-width: 0.8"/>
      </g>
     </g>
     <g id="text_4">
      <!-- 0.4 -->
      <g transform="translate(244.496504 322.182437) scale(0.1 -0.1)">
       <defs>
        <path id="DejaVuSans-34" d="M 2419 4116 
L 825 1625 
L 2419 1625 
L 2419 4116 
z
M 2253 4666 
L 3047 4666 
L 3047 1625 
L 3713 1625 
L 3713 1100 
L 3047 1100 
L 3047 0 
L 2419 0 
L 2419 1100 
L 313 1100 
L 313 1709 
L 2253 4666 
z
" transform="scale(0.015625)"/>
       </defs>
       <use xlink:href="#DejaVuSans-30"/>
       <use xlink:href="#DejaVuSans-2e" transform="translate(63.623047 0)"/>
       <use xlink:href="#DejaVuSans-34" transform="translate(95.410156 0)"/>
      </g>
     </g>
    </g>
    <g id="xtick_5">
     <g id="line2d_5">
      <g>
       <use xlink:href="#m82a5bc5e4d" x="311.476165" y="307.584" style="stroke: #000000; stroke-width: 0.8"/>
      </g>
     </g>
     <g id="text_5">
      <!-- 0.6 -->
      <g transform="translate(303.524603 322.182437) scale(0.1 -0.1)">
       <defs>
        <path id="DejaVuSans-36" d="M 2113 2584 
Q 1688 2584 1439 2293 
Q 1191 2003 1191 1497 
Q 1191 994 1439 701 
Q 1688 409 2113 409 
Q 2538 409 2786 701 
Q 3034 994 3034 1497 
Q 3034 2003 2786 2293 
Q 2538 2584 2113 2584 
z
M 3366 4563 
L 3366 3988 
Q 3128 4100 2886 4159 
Q 2644 4219 2406 4219 
Q 1781 4219 1451 3797 
Q 1122 3375 1075 2522 
Q 1259 2794 1537 2939 
Q 1816 3084 2150 3084 
Q 2853 3084 3261 2657 
Q 3669 2231 3669 1497 
Q 3669 778 3244 343 
Q 2819 -91 2113 -91 
Q 1303 -91 875 529 
Q 447 1150 447 2328 
Q 447 3434 972 4092 
Q 1497 4750 2381 4750 
Q 2619 4750 2861 4703 
Q 3103 4656 3366 4563 
z
" transform="scale(0.015625)"/>
       </defs>
       <use xlink:href="#DejaVuSans-30"/>
       <use xlink:href="#DejaVuSans-2e" transform="translate(63.623047 0)"/>
       <use xlink:href="#DejaVuSans-36" transform="translate(95.410156 0)"/>
      </g>
     </g>
    </g>
    <g id="xtick_6">
     <g id="line2d_6">
      <g>
       <use xlink:href="#m82a5bc5e4d" x="370.504264" y="307.584" style="stroke: #000000; stroke-width: 0.8"/>
      </g>
     </g>
     <g id="text_6">
      <!-- 0.8 -->
      <g transform="translate(362.552702 322.182437) scale(0.1 -0.1)">
       <defs>
        <path id="DejaVuSans-38" d="M 2034 2216 
Q 1584 2216 1326 1975 
Q 1069 1734 1069 1313 
Q 1069 891 1326 650 
Q 1584 409 2034 409 
Q 2484 409 2743 651 
Q 3003 894 3003 1313 
Q 3003 1734 2745 1975 
Q 2488 2216 2034 2216 
z
M 1403 2484 
Q 997 2584 770 2862 
Q 544 3141 544 3541 
Q 544 4100 942 4425 
Q 1341 4750 2034 4750 
Q 2731 4750 3128 4425 
Q 3525 4100 3525 3541 
Q 3525 3141 3298 2862 
Q 3072 2584 2669 2484 
Q 3125 2378 3379 2068 
Q 3634 1759 3634 1313 
Q 3634 634 3220 271 
Q 2806 -91 2034 -91 
Q 1263 -91 848 271 
Q 434 634 434 1313 
Q 434 1759 690 2068 
Q 947 2378 1403 2484 
z
M 1172 3481 
Q 1172 3119 1398 2916 
Q 1625 2713 2034 2713 
Q 2441 2713 2670 2916 
Q 2900 3119 2900 3481 
Q 2900 3844 2670 4047 
Q 2441 4250 2034 4250 
Q 1625 4250 1398 4047 
Q 1172 3844 1172 3481 
z
" transform="scale(0.015625)"/>
       </defs>
       <use xlink:href="#DejaVuSans-30"/>
       <use xlink:href="#DejaVuSans-2e" transform="translate(63.623047 0)"/>
       <use xlink:href="#DejaVuSans-38" transform="translate(95.410156 0)"/>
      </g>
     </g>
    </g>
   </g>
   <g id="matplotlib.axis_2">
    <g id="ytick_1">
     <g id="line2d_7">
      <defs>
       <path id="m07cf87e2d5" d="M 0 0 
L -3.5 0 
" style="stroke: #000000; stroke-width: 0.8"/>
      </defs>
      <g>
       <use xlink:href="#m07cf87e2d5" x="57.6" y="288.775434" style="stroke: #000000; stroke-width: 0.8"/>
      </g>
     </g>
     <g id="text_7">
      <!-- −175 -->
      <g transform="translate(23.132812 292.574653) scale(0.1 -0.1)">
       <defs>
        <path id="DejaVuSans-31" d="M 794 531 
L 1825 531 
L 1825 4091 
L 703 3866 
L 703 4441 
L 1819 4666 
L 2450 4666 
L 2450 531 
L 3481 531 
L 3481 0 
L 794 0 
L 794 531 
z
" transform="scale(0.015625)"/>
        <path id="DejaVuSans-37" d="M 525 4666 
L 3525 4666 
L 3525 4397 
L 1831 0 
L 1172 0 
L 2766 4134 
L 525 4134 
L 525 4666 
z
" transform="scale(0.015625)"/>
        <path id="DejaVuSans-35" d="M 691 4666 
L 3169 4666 
L 3169 4134 
L 1269 4134 
L 1269 2991 
Q 1406 3038 1543 3061 
Q 1681 3084 1819 3084 
Q 2600 3084 3056 2656 
Q 3513 2228 3513 1497 
Q 3513 744 3044 326 
Q 2575 -91 1722 -91 
Q 1428 -91 1123 -41 
Q 819 9 494 109 
L 494 744 
Q 775 591 1075 516 
Q 1375 441 1709 441 
Q 2250 441 2565 725 
Q 2881 1009 2881 1497 
Q 2881 1984 2565 2268 
Q 2250 2553 1709 2553 
Q 1456 2553 1204 2497 
Q 953 2441 691 2322 
L 691 4666 
z
" transform="scale(0.015625)"/>
       </defs>
       <use xlink:href="#DejaVuSans-2212"/>
       <use xlink:href="#DejaVuSans-31" transform="translate(83.789062 0)"/>
       <use xlink:href="#DejaVuSans-37" transform="translate(147.412109 0)"/>
       <use xlink:href="#DejaVuSans-35" transform="translate(211.035156 0)"/>
      </g>
     </g>
    </g>
    <g id="ytick_2">
     <g id="line2d_8">
      <g>
       <use xlink:href="#m07cf87e2d5" x="57.6" y="255.174372" style="stroke: #000000; stroke-width: 0.8"/>
      </g>
     </g>
     <g id="text_8">
      <!-- −150 -->
      <g transform="translate(23.132812 258.973591) scale(0.1 -0.1)">
       <use xlink:href="#DejaVuSans-2212"/>
       <use xlink:href="#DejaVuSans-31" transform="translate(83.789062 0)"/>
       <use xlink:href="#DejaVuSans-35" transform="translate(147.412109 0)"/>
       <use xlink:href="#DejaVuSans-30" transform="translate(211.035156 0)"/>
      </g>
     </g>
    </g>
    <g id="ytick_3">
     <g id="line2d_9">
      <g>
       <use xlink:href="#m07cf87e2d5" x="57.6" y="221.57331" style="stroke: #000000; stroke-width: 0.8"/>
      </g>
     </g>
     <g id="text_9">
      <!-- −125 -->
      <g transform="translate(23.132812 225.372529) scale(0.1 -0.1)">
       <use xlink:href="#DejaVuSans-2212"/>
       <use xlink:href="#DejaVuSans-31" transform="translate(83.789062 0)"/>
       <use xlink:href="#DejaVuSans-32" transform="translate(147.412109 0)"/>
       <use xlink:href="#DejaVuSans-35" transform="translate(211.035156 0)"/>
      </g>
     </g>
    </g>
    <g id="ytick_4">
     <g id="line2d_10">
      <g>
       <use xlink:href="#m07cf87e2d5" x="57.6" y="187.972248" style="stroke: #000000; stroke-width: 0.8"/>
      </g>
     </g>
     <g id="text_10">
      <!-- −100 -->
      <g transform="translate(23.132812 191.771467) scale(0.1 -0.1)">
       <use xlink:href="#DejaVuSans-2212"/>
       <use xlink:href="#DejaVuSans-31" transform="translate(83.789062 0)"/>
       <use xlink:href="#DejaVuSans-30" transform="translate(147.412109 0)"/>
       <use xlink:href="#DejaVuSans-30" transform="translate(211.035156 0)"/>
      </g>
     </g>
    </g>
    <g id="ytick_5">
     <g id="line2d_11">
      <g>
       <use xlink:href="#m07cf87e2d5" x="57.6" y="154.371186" style="stroke: #000000; stroke-width: 0.8"/>
      </g>
     </g>
     <g id="text_11">
      <!-- −75 -->
      <g transform="translate(29.495313 158.170405) scale(0.1 -0.1)">
       <use xlink:href="#DejaVuSans-2212"/>
       <use xlink:href="#DejaVuSans-37" transform="translate(83.789062 0)"/>
       <use xlink:href="#DejaVuSans-35" transform="translate(147.412109 0)"/>
      </g>
     </g>
    </g>
    <g id="ytick_6">
     <g id="line2d_12">
      <g>
       <use xlink:href="#m07cf87e2d5" x="57.6" y="120.770124" style="stroke: #000000; stroke-width: 0.8"/>
      </g>
     </g>
     <g id="text_12">
      <!-- −50 -->
      <g transform="translate(29.495313 124.569343) scale(0.1 -0.1)">
       <use xlink:href="#DejaVuSans-2212"/>
       <use xlink:href="#DejaVuSans-35" transform="translate(83.789062 0)"/>
       <use xlink:href="#DejaVuSans-30" transform="translate(147.412109 0)"/>
      </g>
     </g>
    </g>
    <g id="ytick_7">
     <g id="line2d_13">
      <g>
       <use xlink:href="#m07cf87e2d5" x="57.6" y="87.169062" style="stroke: #000000; stroke-width: 0.8"/>
      </g>
     </g>
     <g id="text_13">
      <!-- −25 -->
      <g transform="translate(29.495313 90.968281) scale(0.1 -0.1)">
       <use xlink:href="#DejaVuSans-2212"/>
       <use xlink:href="#DejaVuSans-32" transform="translate(83.789062 0)"/>
       <use xlink:href="#DejaVuSans-35" transform="translate(147.412109 0)"/>
      </g>
     </g>
    </g>
    <g id="ytick_8">
     <g id="line2d_14">
      <g>
       <use xlink:href="#m07cf87e2d5" x="57.6" y="53.568" style="stroke: #000000; stroke-width: 0.8"/>
      </g>
     </g>
     <g id="text_14">
      <!-- 0 -->
      <g transform="translate(44.2375 57.367219) scale(0.1 -0.1)">
       <use xlink:href="#DejaVuSans-30"/>
      </g>
     </g>
    </g>
   </g>
   <g id="line2d_15">
    <path d="M 73.832727 53.568 
L 122.112793 53.67796 
L 122.27881 53.869478 
L 122.97362 53.989975 
L 123.127339 54.116041 
L 123.643835 54.273024 
L 124.018909 54.621942 
L 124.523107 54.874462 
L 124.904331 55.068315 
L 125.279405 55.160718 
L 125.426975 55.267054 
L 125.580694 55.313963 
L 125.703669 55.423064 
L 125.931174 55.514868 
L 126.109488 55.653426 
L 126.287802 55.889747 
L 126.478413 55.99949 
L 126.632132 56.078248 
L 126.785851 56.205003 
L 127.751207 56.792391 
L 127.947967 56.913922 
L 128.489058 57.104756 
L 128.802645 57.278486 
L 129.435967 57.436508 
L 129.958612 57.751595 
L 131.317488 58.348595 
L 132.860826 59.46823 
L 133.057587 59.558478 
L 133.518744 59.719415 
L 133.764694 59.918211 
L 133.906116 60.024019 
L 134.078281 60.209956 
L 134.293488 60.269222 
L 134.791537 60.408532 
L 135.092826 60.780422 
L 135.486347 60.891402 
L 135.799934 61.011861 
L 135.935207 61.124307 
L 136.402512 61.421148 
L 136.630017 61.502555 
L 136.777587 61.610436 
L 136.949752 61.799096 
L 137.041983 61.911273 
L 137.214149 62.017676 
L 138.179504 62.284977 
L 138.333223 62.431137 
L 139.950347 62.785139 
L 140.325421 62.935195 
L 140.700496 63.078377 
L 140.909554 63.142873 
L 141.665851 63.516099 
L 142.348364 63.629021 
L 142.56357 63.84849 
L 142.729587 64.028909 
L 143.11081 64.136587 
L 143.498182 64.248028 
L 143.934744 64.392579 
L 144.414347 64.770631 
L 144.807868 64.895457 
L 145.023074 65.101711 
L 145.478083 65.228504 
L 145.699438 65.392848 
L 145.89005 65.598438 
L 146.111405 65.7576 
L 146.468033 65.864071 
L 146.689388 66.035058 
L 147.660893 66.554815 
L 147.949884 66.767598 
L 148.189686 66.887513 
L 148.718479 67.102077 
L 148.939835 67.28233 
L 149.155041 67.401584 
L 149.351802 67.549201 
L 149.745322 67.677514 
L 149.997421 67.869793 
L 150.520066 68.154398 
L 152.198678 68.935893 
L 152.395438 69.099367 
L 152.832 69.205703 
L 153.102545 69.486143 
L 153.391537 69.7007 
L 153.655934 69.868752 
L 153.760463 69.991933 
L 153.901884 70.120094 
L 154.067901 70.227342 
L 154.350744 70.361676 
L 154.676628 70.496657 
L 155.248463 70.820085 
L 156.45362 71.562219 
L 156.619636 71.58329 
L 156.970116 71.783789 
L 157.123835 71.857837 
L 157.523504 71.966871 
L 157.714116 72.247293 
L 158.003107 72.5473 
L 158.162975 72.789163 
L 158.53805 72.90855 
L 158.747107 73.060054 
L 159.263603 73.386824 
L 159.571041 73.779541 
L 159.964562 73.887508 
L 160.247405 73.964116 
L 161.077488 74.318897 
L 161.292694 74.434931 
L 162.897521 75.213001 
L 163.038942 75.251544 
L 163.500099 75.365012 
L 164.274843 75.766736 
L 164.631471 75.878712 
L 164.742149 75.994854 
L 166.033388 76.635774 
L 166.27319 76.771031 
L 166.46995 76.898064 
L 166.851174 77.020388 
L 167.127868 77.228469 
L 167.379967 77.344244 
L 167.582876 77.448353 
L 167.945653 77.556184 
L 168.394512 77.875976 
L 169.058579 78.123566 
L 169.384463 78.249685 
L 170.134612 78.445025 
L 170.331372 78.520527 
L 171.468893 78.815941 
L 171.837818 79.217126 
L 172.003835 79.308202 
L 172.385058 79.424704 
L 173.122909 79.644512 
L 173.270479 79.768404 
L 173.768529 79.993984 
L 173.922248 80.084018 
L 174.334215 80.197725 
L 174.629355 80.385305 
L 175.096661 80.530302 
L 175.336463 80.646402 
L 176.529322 81.247141 
L 176.707636 81.304509 
L 176.892099 81.411411 
L 177.316364 81.722958 
L 177.58076 81.838941 
L 177.771372 81.909106 
L 178.109554 82.018872 
L 178.294017 82.135242 
L 178.601455 82.245041 
L 178.853554 82.501525 
L 178.958083 82.608801 
L 179.111802 82.683275 
L 179.314711 82.755166 
L 179.720529 82.905271 
L 179.917289 82.996176 
L 180.335405 83.122557 
L 180.544463 83.205675 
L 180.698182 83.312861 
L 180.845752 83.411185 
L 181.208529 83.520643 
L 181.442182 83.626069 
L 182.303008 84.053293 
L 182.536661 84.26341 
L 182.727273 84.375202 
L 183.016264 84.458253 
L 183.502017 84.565 
L 183.797157 84.705638 
L 183.93243 84.816573 
L 184.270612 84.984315 
L 184.504264 85.105533 
L 184.670281 85.35185 
L 185.026909 85.467332 
L 185.260562 85.595005 
L 185.408132 85.675779 
L 185.875438 85.802588 
L 186.152132 85.894995 
L 188.052099 86.450603 
L 188.230413 86.563689 
L 188.476364 86.674578 
L 188.949818 86.862992 
L 189.134281 86.997225 
L 189.294149 87.067423 
L 189.540099 87.166327 
L 189.699967 87.274627 
L 190.204165 87.48786 
L 190.487008 87.616548 
L 191.397025 87.861143 
L 191.642975 87.95628 
L 192.694413 88.515064 
L 193.038744 88.630412 
L 193.266248 88.742283 
L 193.45686 88.984637 
L 193.85038 89.199372 
L 194.477554 89.31004 
L 195.504397 89.758325 
L 195.68886 89.931121 
L 195.897917 89.970728 
L 196.414413 90.16444 
L 198.96 91.36389 
L 199.101421 91.455253 
L 199.956099 91.735593 
L 200.331174 91.848199 
L 200.816926 92.0166 
L 200.958347 92.141695 
L 201.364165 92.328574 
L 201.548628 92.44429 
L 201.917554 92.570704 
L 202.151207 92.628959 
L 202.427901 92.752949 
L 203.436298 93.081268 
L 203.62076 93.14937 
L 203.712992 93.252917 
L 203.940496 93.509118 
L 204.530777 93.83054 
L 204.825917 93.94159 
L 205.563769 94.264297 
L 205.877355 94.390453 
L 206.436893 94.741169 
L 206.590612 94.888788 
L 206.84886 94.998054 
L 207.19319 95.16298 
L 207.359207 95.397157 
L 207.537521 95.492101 
L 208.03557 95.6431 
L 208.299967 95.76153 
L 209.566612 96.516465 
L 209.751074 96.597269 
L 210.396694 96.826388 
L 211.15914 97.375551 
L 212.284364 97.694429 
L 212.536463 97.90554 
L 212.886942 98.012964 
L 213.089851 98.171795 
L 213.409587 98.316559 
L 213.557157 98.349793 
L 213.710876 98.46834 
L 213.913785 98.569098 
L 214.073653 98.687501 
L 214.381091 98.785008 
L 214.842248 98.946955 
L 215.137388 98.992513 
L 215.604694 99.104581 
L 215.97362 99.19374 
L 216.293355 99.315921 
L 216.748364 99.502626 
L 217.301752 99.676062 
L 217.627636 99.79034 
L 218.85124 100.381347 
L 219.004959 100.467822 
L 219.361587 100.577271 
L 219.625983 100.840469 
L 220.03795 101.043093 
L 220.658975 101.176784 
L 221.390678 101.350154 
L 221.612033 101.484727 
L 221.765752 101.602722 
L 221.901025 101.728762 
L 222.257653 102.059932 
L 222.534347 102.178751 
L 222.712661 102.266734 
L 222.940165 102.301591 
L 223.155372 102.412832 
L 223.389025 102.586008 
L 223.530446 102.657179 
L 224.176066 102.788089 
L 225.854678 103.567469 
L 226.469554 103.685412 
L 226.949157 103.902078 
L 227.096727 104.040107 
L 227.637818 104.171794 
L 227.982149 104.278774 
L 228.443306 104.559789 
L 228.695405 104.700757 
L 228.935207 104.806038 
L 229.113521 104.953985 
L 229.752992 105.137626 
L 230.072727 105.409516 
L 230.226446 105.488013 
L 230.613818 105.601612 
L 230.829025 105.763386 
L 232.077223 106.19618 
L 232.39081 106.29901 
L 232.753587 106.413806 
L 233.442248 106.612695 
L 233.743537 106.73222 
L 233.903405 106.842651 
L 234.413752 107.023955 
L 234.825719 107.277843 
L 235.31762 107.40994 
L 235.932496 107.768027 
L 236.147702 107.891602 
L 236.369058 108.022882 
L 236.541223 108.073083 
L 236.676496 108.210608 
L 236.996231 108.401275 
L 239.701686 109.417273 
L 240.113653 109.527303 
L 240.77157 109.804465 
L 241.060562 110.062456 
L 241.767669 110.387368 
L 241.945983 110.468068 
L 242.21038 110.57712 
L 242.597752 110.743258 
L 242.702281 110.870821 
L 242.837554 110.946747 
L 243.237223 111.057214 
L 243.397091 111.160209 
L 243.987372 111.323437 
L 244.270215 111.376211 
L 244.965025 111.586167 
L 245.174083 111.669096 
L 245.370843 111.788849 
L 246.170182 112.341298 
L 246.391537 112.44808 
L 246.692826 112.552974 
L 247.32 112.664118 
L 247.399934 112.77735 
L 247.529058 112.838026 
L 248.715769 113.00271 
L 249.687273 113.217389 
L 249.822545 113.330345 
L 251.126083 113.868983 
L 251.28595 113.98035 
L 252.546446 114.263948 
L 253.044496 114.529142 
L 253.985256 114.678688 
L 254.680066 114.915919 
L 254.864529 115.031386 
L 255.024397 115.070222 
L 255.20886 115.195829 
L 255.626975 115.335993 
L 255.928264 115.458558 
L 256.217256 115.610738 
L 258.910413 116.618384 
L 259.057983 116.680129 
L 259.740496 116.806181 
L 260.324628 116.892284 
L 260.435306 117.005732 
L 260.66281 117.15948 
L 263.220694 117.636808 
L 263.386711 117.747059 
L 263.663405 117.827117 
L 265.182149 118.321102 
L 265.403504 118.46374 
L 266.547174 118.863586 
L 266.725488 118.902846 
L 266.90995 119.015304 
L 268.859107 119.599529 
L 269.424793 119.714712 
L 269.719934 119.777194 
L 270.556165 119.992501 
L 270.759074 120.010221 
L 271.865851 120.260821 
L 272.050314 120.340818 
L 272.308562 120.443942 
L 272.591405 120.554794 
L 272.818909 120.618926 
L 273.31081 120.83598 
L 273.679736 120.954748 
L 273.894942 121.156469 
L 274.737322 121.404425 
L 275.04476 121.5277 
L 275.278413 121.6167 
L 275.628893 121.740184 
L 275.825653 121.820202 
L 277.147636 122.111399 
L 277.787107 122.244918 
L 278.11914 122.351827 
L 278.438876 122.478916 
L 278.727868 122.620048 
L 279.404231 122.742338 
L 279.60714 122.794977 
L 280.529455 122.987193 
L 281.187372 123.096831 
L 281.513256 123.174702 
L 282.158876 123.29857 
L 282.902876 123.493968 
L 283.609983 123.632795 
L 285.16562 123.966597 
L 285.356231 124.028087 
L 286.112529 124.16561 
L 286.549091 124.233635 
L 287.133223 124.342552 
L 287.416066 124.415626 
L 287.926413 124.549813 
L 289.691107 125.023879 
L 289.930909 125.087954 
L 290.244496 125.205121 
L 291.148364 125.385175 
L 292.279736 125.660426 
L 292.60562 125.719403 
L 293.177455 125.827008 
L 293.380364 125.914947 
L 293.952198 126.043514 
L 294.235041 126.204372 
L 296.430149 126.726707 
L 296.614612 126.755905 
L 297.026579 126.875874 
L 297.912 127.058338 
L 298.274777 127.192382 
L 298.477686 127.262694 
L 299.024926 127.37334 
L 299.891901 127.587075 
L 301.010975 127.712199 
L 301.441388 127.796293 
L 303.41514 128.080987 
L 303.61805 128.111347 
L 303.925488 128.222109 
L 304.220628 128.26885 
L 306.225124 128.642593 
L 306.495669 128.854237 
L 307.952926 129.072854 
L 308.684628 129.204845 
L 310.307901 129.542872 
L 311.463868 129.709759 
L 311.636033 129.759983 
L 312.398479 129.871316 
L 313.320793 130.064546 
L 314.095537 130.182801 
L 315.380628 130.440628 
L 316.241455 130.560995 
L 316.942413 130.649767 
L 317.778645 130.778347 
L 319.992198 131.1003 
L 321.633917 131.269726 
L 321.922909 131.316772 
L 322.322579 131.491688 
L 322.716099 131.646443 
L 328.932496 132.532487 
L 329.596562 132.685161 
L 329.848661 132.884492 
L 331.53957 133.147188 
L 333.949884 133.639683 
L 334.61395 133.81073 
L 337.454678 134.256916 
L 337.632992 134.295843 
L 338.745917 134.479374 
L 339.102545 134.563602 
L 340.166281 134.760496 
L 340.455273 134.782721 
L 340.928727 134.892896 
L 341.500562 135.095275 
L 342.035504 135.183061 
L 342.840992 135.293886 
L 343.314446 135.41614 
L 343.837091 135.536451 
L 343.984661 135.612521 
L 344.986909 135.733652 
L 345.245157 135.797002 
L 346.394975 135.90848 
L 346.671669 136.026997 
L 348.337983 136.296138 
L 348.903669 136.410577 
L 350.207207 136.731668 
L 350.711405 136.844005 
L 351.732099 137.042353 
L 352.365421 137.155878 
L 352.605223 137.272227 
L 353.21395 137.491766 
L 353.459901 137.626224 
L 354.271537 137.85935 
L 355.027835 138.117199 
L 355.777983 138.265275 
L 356.134612 138.364673 
L 356.675702 138.489374 
L 357.444298 138.80874 
L 357.966942 138.957706 
L 358.237488 138.989847 
L 358.67405 139.095683 
L 358.833917 139.166977 
L 359.282777 139.262315 
L 359.725488 139.367926 
L 359.903802 139.410624 
L 360.401851 139.521837 
L 360.783074 139.624095 
L 361.428694 139.753858 
L 362.713785 140.163073 
L 362.855207 140.275107 
L 363.506975 140.600271 
L 363.648397 140.657672 
L 364.681388 140.880665 
L 365.271669 141.142007 
L 365.825058 141.250235 
L 366.027967 141.467137 
L 366.200132 141.646816 
L 366.40919 141.810896 
L 366.765818 142.032013 
L 366.944132 142.124204 
L 367.110149 142.234813 
L 367.294612 142.321302 
L 367.614347 142.443885 
L 368.14314 142.904537 
L 368.44443 143.013582 
L 369.182281 143.642684 
L 369.78486 143.943253 
L 369.944727 144.18025 
L 370.166083 144.228009 
L 370.467372 144.347772 
L 371.746314 145.035711 
L 372.109091 145.183239 
L 372.324298 145.488203 
L 372.656331 145.636451 
L 373.111339 146.023965 
L 373.394182 146.168021 
L 373.8 146.417406 
L 374.015207 146.52454 
L 374.205818 146.591703 
L 374.316496 146.702249 
L 374.580893 146.875407 
L 374.728463 147.019999 
L 374.912926 147.301203 
L 375.656926 147.871667 
L 375.792198 148.058393 
L 376.154975 148.231687 
L 376.345587 148.547039 
L 376.468562 148.658779 
L 376.603835 148.718758 
L 376.794446 148.832842 
L 377.028099 149.153071 
L 377.144926 149.26777 
L 377.37243 149.435325 
L 377.526149 149.55245 
L 377.686017 149.828826 
L 378.276298 150.628915 
L 378.430017 150.974871 
L 378.897322 151.697035 
L 379.026446 151.815743 
L 379.149421 151.95568 
L 379.389223 152.827879 
L 379.65362 153.451363 
L 380.366876 154.187735 
L 380.502149 154.337919 
L 380.99405 154.703167 
L 381.178512 155.126103 
L 381.233851 155.318574 
L 381.369124 155.528138 
L 381.418314 155.615679 
L 381.602777 156.171472 
L 381.861025 156.361215 
L 382.303736 156.899654 
L 382.488198 157.024309 
L 382.783339 157.265298 
L 382.97395 157.361683 
L 383.152264 157.729241 
L 383.465851 157.907085 
L 383.760992 158.388247 
L 383.97005 158.549999 
L 384.160661 158.705435 
L 384.289785 158.839102 
L 384.437355 159.06851 
L 384.603372 159.83213 
L 384.621818 159.888492 
L 384.769388 160.329242 
L 384.886215 160.749742 
L 385.070678 161.270036 
L 385.162909 161.378778 
L 385.285884 161.573865 
L 386.097521 163.972324 
L 386.171306 164.071586 
L 386.306579 164.229303 
L 386.570975 164.734408 
L 386.74314 165.130317 
L 386.903008 165.589134 
L 387.04443 165.883104 
L 387.204298 165.977827 
L 387.462545 166.654984 
L 387.972893 167.355676 
L 388.169653 168.624798 
L 388.323372 169.189022 
L 388.489388 169.755139 
L 388.575471 169.878635 
L 388.882909 170.260327 
L 389.147306 171.681336 
L 389.344066 171.790421 
L 389.688397 172.565557 
L 389.762182 172.685049 
L 389.842116 173.544563 
L 389.97124 174.149631 
L 390.192595 174.878728 
L 390.426248 175.902343 
L 390.573818 176.459405 
L 391.10876 177.902201 
L 391.200992 178.019924 
L 391.514579 179.000649 
L 391.680595 180.444506 
L 391.797421 180.690246 
L 392.031074 181.881604 
L 392.190942 182.93819 
L 392.59676 184.547173 
L 392.977983 185.278279 
L 393.131702 185.852351 
L 393.365355 186.66621 
L 393.801917 190.037863 
L 393.826512 190.144346 
L 394.017124 191.003416 
L 394.029421 191.083749 
L 394.189289 192.845455 
L 395.093157 200.181269 
L 395.283769 203.294392 
L 395.554314 204.285366 
L 395.855603 207.00483 
L 395.892496 207.063915 
L 396.076959 207.79394 
L 396.132298 207.973328 
L 396.249124 210.004616 
L 396.378248 211.181519 
L 396.470479 211.865686 
L 396.71643 217.622445 
L 396.771769 217.737657 
L 397.355901 228.017104 
L 397.503471 231.069925 
L 397.620298 231.771796 
L 397.718678 239.525563 
L 397.847802 242.755083 
L 397.860099 242.782131 
L 397.995372 247.959675 
L 398.192132 264.69366 
L 398.370446 278.601577 
L 398.456529 285.729245 
L 398.481124 295.488 
L 398.481124 295.488 
" clip-path="url(#pc55ac419e0)" style="fill: none; stroke: #1f77b4; stroke-width: 1.5; stroke-linecap: square"/>
   </g>
   <g id="line2d_16">
    <path d="M 134.391868 60.290598 
L 364.77362 140.930761 
" clip-path="url(#pc55ac419e0)" style="fill: none; stroke-dasharray: 5.55,2.4; stroke-dashoffset: 0; stroke: #ff7f0e; stroke-width: 1.5"/>
   </g>
   <g id="line2d_17">
    <path d="M 73.832727 134.210549 
L 398.487273 134.210549 
L 398.487273 134.210549 
" clip-path="url(#pc55ac419e0)" style="fill: none; stroke-dasharray: 5.55,2.4; stroke-dashoffset: 0; stroke: #2ca02c; stroke-width: 1.5"/>
   </g>
   <g id="LineCollection_1">
    <path d="M 364.77362 295.488 
L 364.77362 53.568 
" clip-path="url(#pc55ac419e0)" style="fill: none; stroke-dasharray: 5.55,2.4; stroke-dashoffset: 0; stroke: #1f77b4; stroke-width: 1.5"/>
   </g>
   <g id="patch_3">
    <path d="M 57.6 307.584 
L 57.6 41.472 
" style="fill: none; stroke: #000000; stroke-width: 0.8; stroke-linejoin: miter; stroke-linecap: square"/>
   </g>
   <g id="patch_4">
    <path d="M 414.72 307.584 
L 414.72 41.472 
" style="fill: none; stroke: #000000; stroke-width: 0.8; stroke-linejoin: miter; stroke-linecap: square"/>
   </g>
   <g id="patch_5">
    <path d="M 57.6 307.584 
L 414.72 307.584 
" style="fill: none; stroke: #000000; stroke-width: 0.8; stroke-linejoin: miter; stroke-linecap: square"/>
   </g>
   <g id="patch_6">
    <path d="M 57.6 41.472 
L 414.72 41.472 
" style="fill: none; stroke: #000000; stroke-width: 0.8; stroke-linejoin: miter; stroke-linecap: square"/>
   </g>
   <g id="text_15">
    <!-- Energy Decay - 4000 Hz -->
    <g transform="translate(163.59 35.472) scale(0.12 -0.12)">
     <defs>
      <path id="DejaVuSans-45" d="M 628 4666 
L 3578 4666 
L 3578 4134 
L 1259 4134 
L 1259 2753 
L 3481 2753 
L 3481 2222 
L 1259 2222 
L 1259 531 
L 3634 531 
L 3634 0 
L 628 0 
L 628 4666 
z
" transform="scale(0.015625)"/>
      <path id="DejaVuSans-6e" d="M 3513 2113 
L 3513 0 
L 2938 0 
L 2938 2094 
Q 2938 2591 2744 2837 
Q 2550 3084 2163 3084 
Q 1697 3084 1428 2787 
Q 1159 2491 1159 1978 
L 1159 0 
L 581 0 
L 581 3500 
L 1159 3500 
L 1159 2956 
Q 1366 3272 1645 3428 
Q 1925 3584 2291 3584 
Q 2894 3584 3203 3211 
Q 3513 2838 3513 2113 
z
" transform="scale(0.015625)"/>
      <path id="DejaVuSans-65" d="M 3597 1894 
L 3597 1613 
L 953 1613 
Q 991 1019 1311 708 
Q 1631 397 2203 397 
Q 2534 397 2845 478 
Q 3156 559 3463 722 
L 3463 178 
Q 3153 47 2828 -22 
Q 2503 -91 2169 -91 
Q 1331 -91 842 396 
Q 353 884 353 1716 
Q 353 2575 817 3079 
Q 1281 3584 2069 3584 
Q 2775 3584 3186 3129 
Q 3597 2675 3597 1894 
z
M 3022 2063 
Q 3016 2534 2758 2815 
Q 2500 3097 2075 3097 
Q 1594 3097 1305 2825 
Q 1016 2553 972 2059 
L 3022 2063 
z
" transform="scale(0.015625)"/>
      <path id="DejaVuSans-72" d="M 2631 2963 
Q 2534 3019 2420 3045 
Q 2306 3072 2169 3072 
Q 1681 3072 1420 2755 
Q 1159 2438 1159 1844 
L 1159 0 
L 581 0 
L 581 3500 
L 1159 3500 
L 1159 2956 
Q 1341 3275 1631 3429 
Q 1922 3584 2338 3584 
Q 2397 3584 2469 3576 
Q 2541 3569 2628 3553 
L 2631 2963 
z
" transform="scale(0.015625)"/>
      <path id="DejaVuSans-67" d="M 2906 1791 
Q 2906 2416 2648 2759 
Q 2391 3103 1925 3103 
Q 1463 3103 1205 2759 
Q 947 2416 947 1791 
Q 947 1169 1205 825 
Q 1463 481 1925 481 
Q 2391 481 2648 825 
Q 2906 1169 2906 1791 
z
M 3481 434 
Q 3481 -459 3084 -895 
Q 2688 -1331 1869 -1331 
Q 1566 -1331 1297 -1286 
Q 1028 -1241 775 -1147 
L 775 -588 
Q 1028 -725 1275 -790 
Q 1522 -856 1778 -856 
Q 2344 -856 2625 -561 
Q 2906 -266 2906 331 
L 2906 616 
Q 2728 306 2450 153 
Q 2172 0 1784 0 
Q 1141 0 747 490 
Q 353 981 353 1791 
Q 353 2603 747 3093 
Q 1141 3584 1784 3584 
Q 2172 3584 2450 3431 
Q 2728 3278 2906 2969 
L 2906 3500 
L 3481 3500 
L 3481 434 
z
" transform="scale(0.015625)"/>
      <path id="DejaVuSans-79" d="M 2059 -325 
Q 1816 -950 1584 -1140 
Q 1353 -1331 966 -1331 
L 506 -1331 
L 506 -850 
L 844 -850 
Q 1081 -850 1212 -737 
Q 1344 -625 1503 -206 
L 1606 56 
L 191 3500 
L 800 3500 
L 1894 763 
L 2988 3500 
L 3597 3500 
L 2059 -325 
z
" transform="scale(0.015625)"/>
      <path id="DejaVuSans-20" transform="scale(0.015625)"/>
      <path id="DejaVuSans-44" d="M 1259 4147 
L 1259 519 
L 2022 519 
Q 2988 519 3436 956 
Q 3884 1394 3884 2338 
Q 3884 3275 3436 3711 
Q 2988 4147 2022 4147 
L 1259 4147 
z
M 628 4666 
L 1925 4666 
Q 3281 4666 3915 4102 
Q 4550 3538 4550 2338 
Q 4550 1131 3912 565 
Q 3275 0 1925 0 
L 628 0 
L 628 4666 
z
" transform="scale(0.015625)"/>
      <path id="DejaVuSans-63" d="M 3122 3366 
L 3122 2828 
Q 2878 2963 2633 3030 
Q 2388 3097 2138 3097 
Q 1578 3097 1268 2742 
Q 959 2388 959 1747 
Q 959 1106 1268 751 
Q 1578 397 2138 397 
Q 2388 397 2633 464 
Q 2878 531 3122 666 
L 3122 134 
Q 2881 22 2623 -34 
Q 2366 -91 2075 -91 
Q 1284 -91 818 406 
Q 353 903 353 1747 
Q 353 2603 823 3093 
Q 1294 3584 2113 3584 
Q 2378 3584 2631 3529 
Q 2884 3475 3122 3366 
z
" transform="scale(0.015625)"/>
      <path id="DejaVuSans-61" d="M 2194 1759 
Q 1497 1759 1228 1600 
Q 959 1441 959 1056 
Q 959 750 1161 570 
Q 1363 391 1709 391 
Q 2188 391 2477 730 
Q 2766 1069 2766 1631 
L 2766 1759 
L 2194 1759 
z
M 3341 1997 
L 3341 0 
L 2766 0 
L 2766 531 
Q 2569 213 2275 61 
Q 1981 -91 1556 -91 
Q 1019 -91 701 211 
Q 384 513 384 1019 
Q 384 1609 779 1909 
Q 1175 2209 1959 2209 
L 2766 2209 
L 2766 2266 
Q 2766 2663 2505 2880 
Q 2244 3097 1772 3097 
Q 1472 3097 1187 3025 
Q 903 2953 641 2809 
L 641 3341 
Q 956 3463 1253 3523 
Q 1550 3584 1831 3584 
Q 2591 3584 2966 3190 
Q 3341 2797 3341 1997 
z
" transform="scale(0.015625)"/>
      <path id="DejaVuSans-2d" d="M 313 2009 
L 1997 2009 
L 1997 1497 
L 313 1497 
L 313 2009 
z
" transform="scale(0.015625)"/>
      <path id="DejaVuSans-48" d="M 628 4666 
L 1259 4666 
L 1259 2753 
L 3553 2753 
L 3553 4666 
L 4184 4666 
L 4184 0 
L 3553 0 
L 3553 2222 
L 1259 2222 
L 1259 0 
L 628 0 
L 628 4666 
z
" transform="scale(0.015625)"/>
      <path id="DejaVuSans-7a" d="M 353 3500 
L 3084 3500 
L 3084 2975 
L 922 459 
L 3084 459 
L 3084 0 
L 275 0 
L 275 525 
L 2438 3041 
L 353 3041 
L 353 3500 
z
" transform="scale(0.015625)"/>
     </defs>
     <use xlink:href="#DejaVuSans-45"/>
     <use xlink:href="#DejaVuSans-6e" transform="translate(63.183594 0)"/>
     <use xlink:href="#DejaVuSans-65" transform="translate(126.5625 0)"/>
     <use xlink:href="#DejaVuSans-72" transform="translate(188.085938 0)"/>
     <use xlink:href="#DejaVuSans-67" transform="translate(227.449219 0)"/>
     <use xlink:href="#DejaVuSans-79" transform="translate(290.925781 0)"/>
     <use xlink:href="#DejaVuSans-20" transform="translate(350.105469 0)"/>
     <use xlink:href="#DejaVuSans-44" transform="translate(381.892578 0)"/>
     <use xlink:href="#DejaVuSans-65" transform="translate(458.894531 0)"/>
     <use xlink:href="#DejaVuSans-63" transform="translate(520.417969 0)"/>
     <use xlink:href="#DejaVuSans-61" transform="translate(575.398438 0)"/>
     <use xlink:href="#DejaVuSans-79" transform="translate(636.677734 0)"/>
     <use xlink:href="#DejaVuSans-20" transform="translate(695.857422 0)"/>
     <use xlink:href="#DejaVuSans-2d" transform="translate(727.644531 0)"/>
     <use xlink:href="#DejaVuSans-20" transform="translate(763.728516 0)"/>
     <use xlink:href="#DejaVuSans-34" transform="translate(795.515625 0)"/>
     <use xlink:href="#DejaVuSans-30" transform="translate(859.138672 0)"/>
     <use xlink:href="#DejaVuSans-30" transform="translate(922.761719 0)"/>
     <use xlink:href="#DejaVuSans-30" transform="translate(986.384766 0)"/>
     <use xlink:href="#DejaVuSans-20" transform="translate(1050.007812 0)"/>
     <use xlink:href="#DejaVuSans-48" transform="translate(1081.794922 0)"/>
     <use xlink:href="#DejaVuSans-7a" transform="translate(1156.990234 0)"/>
    </g>
   </g>
   <g id="legend_1">
    <g id="patch_7">
     <path d="M 296.968437 108.1845 
L 407.72 108.1845 
Q 409.72 108.1845 409.72 106.1845 
L 409.72 48.472 
Q 409.72 46.472 407.72 46.472 
L 296.968437 46.472 
Q 294.968437 46.472 294.968437 48.472 
L 294.968437 106.1845 
Q 294.968437 108.1845 296.968437 108.1845 
z
" style="fill: #ffffff; opacity: 0.8; stroke: #cccccc; stroke-linejoin: miter"/>
    </g>
    <g id="line2d_18">
     <path d="M 298.968437 54.570438 
L 308.968437 54.570438 
L 318.968437 54.570438 
" style="fill: none; stroke: #1f77b4; stroke-width: 1.5; stroke-linecap: square"/>
    </g>
    <g id="text_16">
     <!-- Energy -->
     <g transform="translate(326.968437 58.070438) scale(0.1 -0.1)">
      <use xlink:href="#DejaVuSans-45"/>
      <use xlink:href="#DejaVuSans-6e" transform="translate(63.183594 0)"/>
      <use xlink:href="#DejaVuSans-65" transform="translate(126.5625 0)"/>
      <use xlink:href="#DejaVuSans-72" transform="translate(188.085938 0)"/>
      <use xlink:href="#DejaVuSans-67" transform="translate(227.449219 0)"/>
      <use xlink:href="#DejaVuSans-79" transform="translate(290.925781 0)"/>
     </g>
    </g>
    <g id="line2d_19">
     <path d="M 298.968437 69.248563 
L 308.968437 69.248563 
L 318.968437 69.248563 
" style="fill: none; stroke-dasharray: 5.55,2.4; stroke-dashoffset: 0; stroke: #ff7f0e; stroke-width: 1.5"/>
    </g>
    <g id="text_17">
     <!-- Linear Fit -->
     <g transform="translate(326.968437 72.748563) scale(0.1 -0.1)">
      <defs>
       <path id="DejaVuSans-4c" d="M 628 4666 
L 1259 4666 
L 1259 531 
L 3531 531 
L 3531 0 
L 628 0 
L 628 4666 
z
" transform="scale(0.015625)"/>
       <path id="DejaVuSans-69" d="M 603 3500 
L 1178 3500 
L 1178 0 
L 603 0 
L 603 3500 
z
M 603 4863 
L 1178 4863 
L 1178 4134 
L 603 4134 
L 603 4863 
z
" transform="scale(0.015625)"/>
       <path id="DejaVuSans-46" d="M 628 4666 
L 3309 4666 
L 3309 4134 
L 1259 4134 
L 1259 2759 
L 3109 2759 
L 3109 2228 
L 1259 2228 
L 1259 0 
L 628 0 
L 628 4666 
z
" transform="scale(0.015625)"/>
       <path id="DejaVuSans-74" d="M 1172 4494 
L 1172 3500 
L 2356 3500 
L 2356 3053 
L 1172 3053 
L 1172 1153 
Q 1172 725 1289 603 
Q 1406 481 1766 481 
L 2356 481 
L 2356 0 
L 1766 0 
Q 1100 0 847 248 
Q 594 497 594 1153 
L 594 3053 
L 172 3053 
L 172 3500 
L 594 3500 
L 594 4494 
L 1172 4494 
z
" transform="scale(0.015625)"/>
      </defs>
      <use xlink:href="#DejaVuSans-4c"/>
      <use xlink:href="#DejaVuSans-69" transform="translate(55.712891 0)"/>
      <use xlink:href="#DejaVuSans-6e" transform="translate(83.496094 0)"/>
      <use xlink:href="#DejaVuSans-65" transform="translate(146.875 0)"/>
      <use xlink:href="#DejaVuSans-61" transform="translate(208.398438 0)"/>
      <use xlink:href="#DejaVuSans-72" transform="translate(269.677734 0)"/>
      <use xlink:href="#DejaVuSans-20" transform="translate(310.791016 0)"/>
      <use xlink:href="#DejaVuSans-46" transform="translate(342.578125 0)"/>
      <use xlink:href="#DejaVuSans-69" transform="translate(392.847656 0)"/>
      <use xlink:href="#DejaVuSans-74" transform="translate(420.630859 0)"/>
     </g>
    </g>
    <g id="line2d_20">
     <path d="M 298.968437 83.926688 
L 308.968437 83.926688 
L 318.968437 83.926688 
" style="fill: none; stroke-dasharray: 5.55,2.4; stroke-dashoffset: 0; stroke: #2ca02c; stroke-width: 1.5"/>
    </g>
    <g id="text_18">
     <!-- -60 dB -->
     <g transform="translate(326.968437 87.426688) scale(0.1 -0.1)">
      <defs>
       <path id="DejaVuSans-64" d="M 2906 2969 
L 2906 4863 
L 3481 4863 
L 3481 0 
L 2906 0 
L 2906 525 
Q 2725 213 2448 61 
Q 2172 -91 1784 -91 
Q 1150 -91 751 415 
Q 353 922 353 1747 
Q 353 2572 751 3078 
Q 1150 3584 1784 3584 
Q 2172 3584 2448 3432 
Q 2725 3281 2906 2969 
z
M 947 1747 
Q 947 1113 1208 752 
Q 1469 391 1925 391 
Q 2381 391 2643 752 
Q 2906 1113 2906 1747 
Q 2906 2381 2643 2742 
Q 2381 3103 1925 3103 
Q 1469 3103 1208 2742 
Q 947 2381 947 1747 
z
" transform="scale(0.015625)"/>
       <path id="DejaVuSans-42" d="M 1259 2228 
L 1259 519 
L 2272 519 
Q 2781 519 3026 730 
Q 3272 941 3272 1375 
Q 3272 1813 3026 2020 
Q 2781 2228 2272 2228 
L 1259 2228 
z
M 1259 4147 
L 1259 2741 
L 2194 2741 
Q 2656 2741 2882 2914 
Q 3109 3088 3109 3444 
Q 3109 3797 2882 3972 
Q 2656 4147 2194 4147 
L 1259 4147 
z
M 628 4666 
L 2241 4666 
Q 2963 4666 3353 4366 
Q 3744 4066 3744 3513 
Q 3744 3084 3544 2831 
Q 3344 2578 2956 2516 
Q 3422 2416 3680 2098 
Q 3938 1781 3938 1306 
Q 3938 681 3513 340 
Q 3088 0 2303 0 
L 628 0 
L 628 4666 
z
" transform="scale(0.015625)"/>
      </defs>
      <use xlink:href="#DejaVuSans-2d"/>
      <use xlink:href="#DejaVuSans-36" transform="translate(36.083984 0)"/>
      <use xlink:href="#DejaVuSans-30" transform="translate(99.707031 0)"/>
      <use xlink:href="#DejaVuSans-20" transform="translate(163.330078 0)"/>
      <use xlink:href="#DejaVuSans-64" transform="translate(195.117188 0)"/>
      <use xlink:href="#DejaVuSans-42" transform="translate(258.59375 0)"/>
     </g>
    </g>
    <g id="line2d_21">
     <path d="M 298.968437 98.604813 
L 318.968437 98.604813 
" style="fill: none; stroke-dasharray: 5.55,2.4; stroke-dashoffset: 0; stroke: #1f77b4; stroke-width: 1.5"/>
    </g>
    <g id="text_19">
     <!-- Estimated RT60 -->
     <g transform="translate(326.968437 102.104813) scale(0.1 -0.1)">
      <defs>
       <path id="DejaVuSans-73" d="M 2834 3397 
L 2834 2853 
Q 2591 2978 2328 3040 
Q 2066 3103 1784 3103 
Q 1356 3103 1142 2972 
Q 928 2841 928 2578 
Q 928 2378 1081 2264 
Q 1234 2150 1697 2047 
L 1894 2003 
Q 2506 1872 2764 1633 
Q 3022 1394 3022 966 
Q 3022 478 2636 193 
Q 2250 -91 1575 -91 
Q 1294 -91 989 -36 
Q 684 19 347 128 
L 347 722 
Q 666 556 975 473 
Q 1284 391 1588 391 
Q 1994 391 2212 530 
Q 2431 669 2431 922 
Q 2431 1156 2273 1281 
Q 2116 1406 1581 1522 
L 1381 1569 
Q 847 1681 609 1914 
Q 372 2147 372 2553 
Q 372 3047 722 3315 
Q 1072 3584 1716 3584 
Q 2034 3584 2315 3537 
Q 2597 3491 2834 3397 
z
" transform="scale(0.015625)"/>
       <path id="DejaVuSans-6d" d="M 3328 2828 
Q 3544 3216 3844 3400 
Q 4144 3584 4550 3584 
Q 5097 3584 5394 3201 
Q 5691 2819 5691 2113 
L 5691 0 
L 5113 0 
L 5113 2094 
Q 5113 2597 4934 2840 
Q 4756 3084 4391 3084 
Q 3944 3084 3684 2787 
Q 3425 2491 3425 1978 
L 3425 0 
L 2847 0 
L 2847 2094 
Q 2847 2600 2669 2842 
Q 2491 3084 2119 3084 
Q 1678 3084 1418 2786 
Q 1159 2488 1159 1978 
L 1159 0 
L 581 0 
L 581 3500 
L 1159 3500 
L 1159 2956 
Q 1356 3278 1631 3431 
Q 1906 3584 2284 3584 
Q 2666 3584 2933 3390 
Q 3200 3197 3328 2828 
z
" transform="scale(0.015625)"/>
       <path id="DejaVuSans-52" d="M 2841 2188 
Q 3044 2119 3236 1894 
Q 3428 1669 3622 1275 
L 4263 0 
L 3584 0 
L 2988 1197 
Q 2756 1666 2539 1819 
Q 2322 1972 1947 1972 
L 1259 1972 
L 1259 0 
L 628 0 
L 628 4666 
L 2053 4666 
Q 2853 4666 3247 4331 
Q 3641 3997 3641 3322 
Q 3641 2881 3436 2590 
Q 3231 2300 2841 2188 
z
M 1259 4147 
L 1259 2491 
L 2053 2491 
Q 2509 2491 2742 2702 
Q 2975 2913 2975 3322 
Q 2975 3731 2742 3939 
Q 2509 4147 2053 4147 
L 1259 4147 
z
" transform="scale(0.015625)"/>
       <path id="DejaVuSans-54" d="M -19 4666 
L 3928 4666 
L 3928 4134 
L 2272 4134 
L 2272 0 
L 1638 0 
L 1638 4134 
L -19 4134 
L -19 4666 
z
" transform="scale(0.015625)"/>
      </defs>
      <use xlink:href="#DejaVuSans-45"/>
      <use xlink:href="#DejaVuSans-73" transform="translate(63.183594 0)"/>
      <use xlink:href="#DejaVuSans-74" transform="translate(115.283203 0)"/>
      <use xlink:href="#DejaVuSans-69" transform="translate(154.492188 0)"/>
      <use xlink:href="#DejaVuSans-6d" transform="translate(182.275391 0)"/>
      <use xlink:href="#DejaVuSans-61" transform="translate(279.6875 0)"/>
      <use xlink:href="#DejaVuSans-74" transform="translate(340.966797 0)"/>
      <use xlink:href="#DejaVuSans-65" transform="translate(380.175781 0)"/>
      <use xlink:href="#DejaVuSans-64" transform="translate(441.699219 0)"/>
      <use xlink:href="#DejaVuSans-20" transform="translate(505.175781 0)"/>
      <use xlink:href="#DejaVuSans-52" transform="translate(536.962891 0)"/>
      <use xlink:href="#DejaVuSans-54" transform="translate(599.195312 0)"/>
      <use xlink:href="#DejaVuSans-36" transform="translate(660.279297 0)"/>
      <use xlink:href="#DejaVuSans-30" transform="translate(723.902344 0)"/>
     </g>
    </g>
   </g>
  </g>
 </g>
 <defs>
  <clipPath id="pc55ac419e0">
   <rect x="57.6" y="41.472" width="357.12" height="266.112"/>
  </clipPath>
 </defs>
</svg>
