<?xml version="1.0" encoding="utf-8" standalone="no"?>
<!DOCTYPE svg PUBLIC "-//W3C//DTD SVG 1.1//EN"
  "http://www.w3.org/Graphics/SVG/1.1/DTD/svg11.dtd">
<svg xmlns:xlink="http://www.w3.org/1999/xlink" width="460.8pt" height="345.6pt" viewBox="0 0 460.8 345.6" xmlns="http://www.w3.org/2000/svg" version="1.1">
 <metadata>
  <rdf:RDF xmlns:dc="http://purl.org/dc/elements/1.1/" xmlns:cc="http://creativecommons.org/ns#" xmlns:rdf="http://www.w3.org/1999/02/22-rdf-syntax-ns#">
   <cc:Work>
    <dc:type rdf:resource="http://purl.org/dc/dcmitype/StillImage"/>
    <dc:date>2025-05-07T11:30:02.736924</dc:date>
    <dc:format>image/svg+xml</dc:format>
    <dc:creator>
     <cc:Agent>
      <dc:title>Matplotlib v3.10.1, https://matplotlib.org/</dc:title>
     </cc:Agent>
    </dc:creator>
   </cc:Work>
  </rdf:RDF>
 </metadata>
 <defs>
  <style type="text/css">*{stroke-linejoin: round; stroke-linecap: butt}</style>
 </defs>
 <g id="figure_1">
  <g id="patch_1">
   <path d="M 0 345.6 
L 460.8 345.6 
L 460.8 0 
L 0 0 
z
" style="fill: #ffffff"/>
  </g>
  <g id="axes_1">
   <g id="patch_2">
    <path d="M 57.6 307.584 
L 414.72 307.584 
L 414.72 41.472 
L 57.6 41.472 
z
" style="fill: #ffffff"/>
   </g>
   <g id="matplotlib.axis_1">
    <g id="xtick_1">
     <g id="line2d_1">
      <defs>
       <path id="mabafe98a71" d="M 0 0 
L 0 3.5 
" style="stroke: #000000; stroke-width: 0.8"/>
      </defs>
      <g>
       <use xlink:href="#mabafe98a71" x="74.773488" y="307.584" style="stroke: #000000; stroke-width: 0.8"/>
      </g>
     </g>
     <g id="text_1">
      <!-- −0.2 -->
      <g transform="translate(62.632081 322.182437) scale(0.1 -0.1)">
       <defs>
        <path id="DejaVuSans-2212" d="M 678 2272 
L 4684 2272 
L 4684 1741 
L 678 1741 
L 678 2272 
z
" transform="scale(0.015625)"/>
        <path id="DejaVuSans-30" d="M 2034 4250 
Q 1547 4250 1301 3770 
Q 1056 3291 1056 2328 
Q 1056 1369 1301 889 
Q 1547 409 2034 409 
Q 2525 409 2770 889 
Q 3016 1369 3016 2328 
Q 3016 3291 2770 3770 
Q 2525 4250 2034 4250 
z
M 2034 4750 
Q 2819 4750 3233 4129 
Q 3647 3509 3647 2328 
Q 3647 1150 3233 529 
Q 2819 -91 2034 -91 
Q 1250 -91 836 529 
Q 422 1150 422 2328 
Q 422 3509 836 4129 
Q 1250 4750 2034 4750 
z
" transform="scale(0.015625)"/>
        <path id="DejaVuSans-2e" d="M 684 794 
L 1344 794 
L 1344 0 
L 684 0 
L 684 794 
z
" transform="scale(0.015625)"/>
        <path id="DejaVuSans-32" d="M 1228 531 
L 3431 531 
L 3431 0 
L 469 0 
L 469 531 
Q 828 903 1448 1529 
Q 2069 2156 2228 2338 
Q 2531 2678 2651 2914 
Q 2772 3150 2772 3378 
Q 2772 3750 2511 3984 
Q 2250 4219 1831 4219 
Q 1534 4219 1204 4116 
Q 875 4013 500 3803 
L 500 4441 
Q 881 4594 1212 4672 
Q 1544 4750 1819 4750 
Q 2544 4750 2975 4387 
Q 3406 4025 3406 3419 
Q 3406 3131 3298 2873 
Q 3191 2616 2906 2266 
Q 2828 2175 2409 1742 
Q 1991 1309 1228 531 
z
" transform="scale(0.015625)"/>
       </defs>
       <use xlink:href="#DejaVuSans-2212"/>
       <use xlink:href="#DejaVuSans-30" transform="translate(83.789062 0)"/>
       <use xlink:href="#DejaVuSans-2e" transform="translate(147.412109 0)"/>
       <use xlink:href="#DejaVuSans-32" transform="translate(179.199219 0)"/>
      </g>
     </g>
    </g>
    <g id="xtick_2">
     <g id="line2d_2">
      <g>
       <use xlink:href="#mabafe98a71" x="133.801587" y="307.584" style="stroke: #000000; stroke-width: 0.8"/>
      </g>
     </g>
     <g id="text_2">
      <!-- 0.0 -->
      <g transform="translate(125.850024 322.182437) scale(0.1 -0.1)">
       <use xlink:href="#DejaVuSans-30"/>
       <use xlink:href="#DejaVuSans-2e" transform="translate(63.623047 0)"/>
       <use xlink:href="#DejaVuSans-30" transform="translate(95.410156 0)"/>
      </g>
     </g>
    </g>
    <g id="xtick_3">
     <g id="line2d_3">
      <g>
       <use xlink:href="#mabafe98a71" x="192.829686" y="307.584" style="stroke: #000000; stroke-width: 0.8"/>
      </g>
     </g>
     <g id="text_3">
      <!-- 0.2 -->
      <g transform="translate(184.878123 322.182437) scale(0.1 -0.1)">
       <use xlink:href="#DejaVuSans-30"/>
       <use xlink:href="#DejaVuSans-2e" transform="translate(63.623047 0)"/>
       <use xlink:href="#DejaVuSans-32" transform="translate(95.410156 0)"/>
      </g>
     </g>
    </g>
    <g id="xtick_4">
     <g id="line2d_4">
      <g>
       <use xlink:href="#mabafe98a71" x="251.857785" y="307.584" style="stroke: #000000; stroke-width: 0.8"/>
      </g>
     </g>
     <g id="text_4">
      <!-- 0.4 -->
      <g transform="translate(243.906223 322.182437) scale(0.1 -0.1)">
       <defs>
        <path id="DejaVuSans-34" d="M 2419 4116 
L 825 1625 
L 2419 1625 
L 2419 4116 
z
M 2253 4666 
L 3047 4666 
L 3047 1625 
L 3713 1625 
L 3713 1100 
L 3047 1100 
L 3047 0 
L 2419 0 
L 2419 1100 
L 313 1100 
L 313 1709 
L 2253 4666 
z
" transform="scale(0.015625)"/>
       </defs>
       <use xlink:href="#DejaVuSans-30"/>
       <use xlink:href="#DejaVuSans-2e" transform="translate(63.623047 0)"/>
       <use xlink:href="#DejaVuSans-34" transform="translate(95.410156 0)"/>
      </g>
     </g>
    </g>
    <g id="xtick_5">
     <g id="line2d_5">
      <g>
       <use xlink:href="#mabafe98a71" x="310.885884" y="307.584" style="stroke: #000000; stroke-width: 0.8"/>
      </g>
     </g>
     <g id="text_5">
      <!-- 0.6 -->
      <g transform="translate(302.934322 322.182437) scale(0.1 -0.1)">
       <defs>
        <path id="DejaVuSans-36" d="M 2113 2584 
Q 1688 2584 1439 2293 
Q 1191 2003 1191 1497 
Q 1191 994 1439 701 
Q 1688 409 2113 409 
Q 2538 409 2786 701 
Q 3034 994 3034 1497 
Q 3034 2003 2786 2293 
Q 2538 2584 2113 2584 
z
M 3366 4563 
L 3366 3988 
Q 3128 4100 2886 4159 
Q 2644 4219 2406 4219 
Q 1781 4219 1451 3797 
Q 1122 3375 1075 2522 
Q 1259 2794 1537 2939 
Q 1816 3084 2150 3084 
Q 2853 3084 3261 2657 
Q 3669 2231 3669 1497 
Q 3669 778 3244 343 
Q 2819 -91 2113 -91 
Q 1303 -91 875 529 
Q 447 1150 447 2328 
Q 447 3434 972 4092 
Q 1497 4750 2381 4750 
Q 2619 4750 2861 4703 
Q 3103 4656 3366 4563 
z
" transform="scale(0.015625)"/>
       </defs>
       <use xlink:href="#DejaVuSans-30"/>
       <use xlink:href="#DejaVuSans-2e" transform="translate(63.623047 0)"/>
       <use xlink:href="#DejaVuSans-36" transform="translate(95.410156 0)"/>
      </g>
     </g>
    </g>
    <g id="xtick_6">
     <g id="line2d_6">
      <g>
       <use xlink:href="#mabafe98a71" x="369.913983" y="307.584" style="stroke: #000000; stroke-width: 0.8"/>
      </g>
     </g>
     <g id="text_6">
      <!-- 0.8 -->
      <g transform="translate(361.962421 322.182437) scale(0.1 -0.1)">
       <defs>
        <path id="DejaVuSans-38" d="M 2034 2216 
Q 1584 2216 1326 1975 
Q 1069 1734 1069 1313 
Q 1069 891 1326 650 
Q 1584 409 2034 409 
Q 2484 409 2743 651 
Q 3003 894 3003 1313 
Q 3003 1734 2745 1975 
Q 2488 2216 2034 2216 
z
M 1403 2484 
Q 997 2584 770 2862 
Q 544 3141 544 3541 
Q 544 4100 942 4425 
Q 1341 4750 2034 4750 
Q 2731 4750 3128 4425 
Q 3525 4100 3525 3541 
Q 3525 3141 3298 2862 
Q 3072 2584 2669 2484 
Q 3125 2378 3379 2068 
Q 3634 1759 3634 1313 
Q 3634 634 3220 271 
Q 2806 -91 2034 -91 
Q 1263 -91 848 271 
Q 434 634 434 1313 
Q 434 1759 690 2068 
Q 947 2378 1403 2484 
z
M 1172 3481 
Q 1172 3119 1398 2916 
Q 1625 2713 2034 2713 
Q 2441 2713 2670 2916 
Q 2900 3119 2900 3481 
Q 2900 3844 2670 4047 
Q 2441 4250 2034 4250 
Q 1625 4250 1398 4047 
Q 1172 3844 1172 3481 
z
" transform="scale(0.015625)"/>
       </defs>
       <use xlink:href="#DejaVuSans-30"/>
       <use xlink:href="#DejaVuSans-2e" transform="translate(63.623047 0)"/>
       <use xlink:href="#DejaVuSans-38" transform="translate(95.410156 0)"/>
      </g>
     </g>
    </g>
   </g>
   <g id="matplotlib.axis_2">
    <g id="ytick_1">
     <g id="line2d_7">
      <defs>
       <path id="m3dfcf32635" d="M 0 0 
L -3.5 0 
" style="stroke: #000000; stroke-width: 0.8"/>
      </defs>
      <g>
       <use xlink:href="#m3dfcf32635" x="57.6" y="280.863139" style="stroke: #000000; stroke-width: 0.8"/>
      </g>
     </g>
     <g id="text_7">
      <!-- −175 -->
      <g transform="translate(23.132812 284.662358) scale(0.1 -0.1)">
       <defs>
        <path id="DejaVuSans-31" d="M 794 531 
L 1825 531 
L 1825 4091 
L 703 3866 
L 703 4441 
L 1819 4666 
L 2450 4666 
L 2450 531 
L 3481 531 
L 3481 0 
L 794 0 
L 794 531 
z
" transform="scale(0.015625)"/>
        <path id="DejaVuSans-37" d="M 525 4666 
L 3525 4666 
L 3525 4397 
L 1831 0 
L 1172 0 
L 2766 4134 
L 525 4134 
L 525 4666 
z
" transform="scale(0.015625)"/>
        <path id="DejaVuSans-35" d="M 691 4666 
L 3169 4666 
L 3169 4134 
L 1269 4134 
L 1269 2991 
Q 1406 3038 1543 3061 
Q 1681 3084 1819 3084 
Q 2600 3084 3056 2656 
Q 3513 2228 3513 1497 
Q 3513 744 3044 326 
Q 2575 -91 1722 -91 
Q 1428 -91 1123 -41 
Q 819 9 494 109 
L 494 744 
Q 775 591 1075 516 
Q 1375 441 1709 441 
Q 2250 441 2565 725 
Q 2881 1009 2881 1497 
Q 2881 1984 2565 2268 
Q 2250 2553 1709 2553 
Q 1456 2553 1204 2497 
Q 953 2441 691 2322 
L 691 4666 
z
" transform="scale(0.015625)"/>
       </defs>
       <use xlink:href="#DejaVuSans-2212"/>
       <use xlink:href="#DejaVuSans-31" transform="translate(83.789062 0)"/>
       <use xlink:href="#DejaVuSans-37" transform="translate(147.412109 0)"/>
       <use xlink:href="#DejaVuSans-35" transform="translate(211.035156 0)"/>
      </g>
     </g>
    </g>
    <g id="ytick_2">
     <g id="line2d_8">
      <g>
       <use xlink:href="#m3dfcf32635" x="57.6" y="248.392405" style="stroke: #000000; stroke-width: 0.8"/>
      </g>
     </g>
     <g id="text_8">
      <!-- −150 -->
      <g transform="translate(23.132812 252.191624) scale(0.1 -0.1)">
       <use xlink:href="#DejaVuSans-2212"/>
       <use xlink:href="#DejaVuSans-31" transform="translate(83.789062 0)"/>
       <use xlink:href="#DejaVuSans-35" transform="translate(147.412109 0)"/>
       <use xlink:href="#DejaVuSans-30" transform="translate(211.035156 0)"/>
      </g>
     </g>
    </g>
    <g id="ytick_3">
     <g id="line2d_9">
      <g>
       <use xlink:href="#m3dfcf32635" x="57.6" y="215.921671" style="stroke: #000000; stroke-width: 0.8"/>
      </g>
     </g>
     <g id="text_9">
      <!-- −125 -->
      <g transform="translate(23.132812 219.72089) scale(0.1 -0.1)">
       <use xlink:href="#DejaVuSans-2212"/>
       <use xlink:href="#DejaVuSans-31" transform="translate(83.789062 0)"/>
       <use xlink:href="#DejaVuSans-32" transform="translate(147.412109 0)"/>
       <use xlink:href="#DejaVuSans-35" transform="translate(211.035156 0)"/>
      </g>
     </g>
    </g>
    <g id="ytick_4">
     <g id="line2d_10">
      <g>
       <use xlink:href="#m3dfcf32635" x="57.6" y="183.450937" style="stroke: #000000; stroke-width: 0.8"/>
      </g>
     </g>
     <g id="text_10">
      <!-- −100 -->
      <g transform="translate(23.132812 187.250155) scale(0.1 -0.1)">
       <use xlink:href="#DejaVuSans-2212"/>
       <use xlink:href="#DejaVuSans-31" transform="translate(83.789062 0)"/>
       <use xlink:href="#DejaVuSans-30" transform="translate(147.412109 0)"/>
       <use xlink:href="#DejaVuSans-30" transform="translate(211.035156 0)"/>
      </g>
     </g>
    </g>
    <g id="ytick_5">
     <g id="line2d_11">
      <g>
       <use xlink:href="#m3dfcf32635" x="57.6" y="150.980202" style="stroke: #000000; stroke-width: 0.8"/>
      </g>
     </g>
     <g id="text_11">
      <!-- −75 -->
      <g transform="translate(29.495313 154.779421) scale(0.1 -0.1)">
       <use xlink:href="#DejaVuSans-2212"/>
       <use xlink:href="#DejaVuSans-37" transform="translate(83.789062 0)"/>
       <use xlink:href="#DejaVuSans-35" transform="translate(147.412109 0)"/>
      </g>
     </g>
    </g>
    <g id="ytick_6">
     <g id="line2d_12">
      <g>
       <use xlink:href="#m3dfcf32635" x="57.6" y="118.509468" style="stroke: #000000; stroke-width: 0.8"/>
      </g>
     </g>
     <g id="text_12">
      <!-- −50 -->
      <g transform="translate(29.495313 122.308687) scale(0.1 -0.1)">
       <use xlink:href="#DejaVuSans-2212"/>
       <use xlink:href="#DejaVuSans-35" transform="translate(83.789062 0)"/>
       <use xlink:href="#DejaVuSans-30" transform="translate(147.412109 0)"/>
      </g>
     </g>
    </g>
    <g id="ytick_7">
     <g id="line2d_13">
      <g>
       <use xlink:href="#m3dfcf32635" x="57.6" y="86.038734" style="stroke: #000000; stroke-width: 0.8"/>
      </g>
     </g>
     <g id="text_13">
      <!-- −25 -->
      <g transform="translate(29.495313 89.837953) scale(0.1 -0.1)">
       <use xlink:href="#DejaVuSans-2212"/>
       <use xlink:href="#DejaVuSans-32" transform="translate(83.789062 0)"/>
       <use xlink:href="#DejaVuSans-35" transform="translate(147.412109 0)"/>
      </g>
     </g>
    </g>
    <g id="ytick_8">
     <g id="line2d_14">
      <g>
       <use xlink:href="#m3dfcf32635" x="57.6" y="53.568" style="stroke: #000000; stroke-width: 0.8"/>
      </g>
     </g>
     <g id="text_14">
      <!-- 0 -->
      <g transform="translate(44.2375 57.367219) scale(0.1 -0.1)">
       <use xlink:href="#DejaVuSans-30"/>
      </g>
     </g>
    </g>
   </g>
   <g id="line2d_15">
    <path d="M 73.832727 53.568 
L 122.856793 53.673412 
L 123.12119 54.089142 
L 123.945124 54.331732 
L 124.178777 54.393746 
L 125.260959 54.686274 
L 125.488463 54.852472 
L 125.734413 55.073671 
L 125.931174 55.52302 
L 126.459967 55.696832 
L 126.656727 55.828727 
L 126.853488 55.972432 
L 126.982612 56.131737 
L 127.08714 56.229322 
L 127.253157 56.453311 
L 127.63438 56.56071 
L 127.794248 56.643999 
L 128.126281 56.850957 
L 128.273851 57.358302 
L 128.402975 57.445937 
L 128.612033 57.560252 
L 128.913322 57.687149 
L 129.392926 57.851716 
L 130.296793 58.328422 
L 130.512 58.478264 
L 130.874777 58.616658 
L 131.034645 58.765383 
L 131.938512 59.025101 
L 132.854678 59.747327 
L 133.285091 59.867171 
L 134.385719 60.245231 
L 134.742347 60.474451 
L 134.951405 60.590917 
L 135.185058 60.633228 
L 135.658512 60.768774 
L 135.86757 60.860131 
L 136.033587 60.96986 
L 136.16886 61.03746 
L 136.531636 61.159903 
L 136.703802 61.388855 
L 136.820628 61.513937 
L 137.029686 61.797728 
L 137.214149 61.91104 
L 137.478545 62.117041 
L 137.718347 62.284123 
L 137.884364 62.465485 
L 138.167207 62.636216 
L 138.351669 62.71993 
L 138.560727 62.880812 
L 138.732893 63.061431 
L 138.935802 63.176951 
L 139.181752 63.718749 
L 139.347769 63.933712 
L 139.796628 64.158751 
L 139.993388 64.284276 
L 140.165554 64.411088 
L 140.337719 64.602378 
L 141.186248 64.977874 
L 141.346116 65.01148 
L 142.618909 65.476179 
L 143.055471 65.587983 
L 143.239934 65.708353 
L 143.621157 66.059823 
L 143.80562 66.172578 
L 144.070017 66.2475 
L 144.420496 66.363462 
L 144.641851 66.574197 
L 144.887802 66.685584 
L 145.219835 66.796868 
L 145.447339 66.833708 
L 145.859306 67.007919 
L 147.384198 67.717417 
L 147.537917 67.76869 
L 147.691636 67.870231 
L 147.839207 67.956105 
L 148.079008 68.068338 
L 148.195835 68.194735 
L 148.343405 68.251448 
L 148.472529 68.478866 
L 148.61395 68.547173 
L 148.712331 68.646242 
L 148.884496 68.79309 
L 149.179636 68.902932 
L 149.505521 69.025581 
L 149.677686 69.117941 
L 149.825256 69.220468 
L 150.618446 69.486881 
L 150.913587 69.718345 
L 151.251769 69.891378 
L 151.430083 70.092045 
L 151.928132 70.438247 
L 152.069554 70.553151 
L 152.432331 70.683874 
L 153.293157 71.28913 
L 153.42843 71.401399 
L 154.885686 71.976138 
L 155.082446 72.118534 
L 155.574347 72.303615 
L 155.75881 72.356879 
L 156.170777 72.48114 
L 156.644231 72.683807 
L 157.142281 73.070432 
L 157.289851 73.150313 
L 158.968463 73.658936 
L 159.177521 73.823705 
L 159.571041 74.04179 
L 159.927669 74.142135 
L 160.401124 74.276478 
L 161.16357 74.544251 
L 161.292694 74.647283 
L 161.544793 74.850574 
L 162.036694 74.932446 
L 162.190413 75.045133 
L 162.350281 75.329112 
L 162.497851 75.495255 
L 162.848331 75.60628 
L 163.340231 75.882934 
L 163.549289 76.198616 
L 163.721455 76.309884 
L 164.18876 76.463066 
L 164.643769 76.588905 
L 165.129521 76.674658 
L 165.455405 76.779997 
L 165.633719 76.980258 
L 166.17481 77.095192 
L 168.744992 78.716768 
L 168.929455 78.939296 
L 169.021686 79.059058 
L 169.163107 79.214214 
L 169.759537 79.492126 
L 169.931702 79.580216 
L 170.866314 79.774375 
L 171.001587 79.875607 
L 171.155306 80.066805 
L 171.296727 80.201241 
L 171.48119 80.446058 
L 171.542678 80.550457 
L 171.72714 80.740316 
L 172.67405 81.412846 
L 172.889256 81.529486 
L 173.331967 81.72782 
L 174.155901 81.942264 
L 174.65395 82.29827 
L 175.10281 82.470925 
L 175.256529 82.521113 
L 175.643901 82.631797 
L 175.908298 82.86209 
L 176.14195 82.984023 
L 177.359405 83.604429 
L 177.556165 83.697925 
L 178.097256 83.878019 
L 178.201785 83.986105 
L 178.355504 84.143078 
L 178.632198 84.206687 
L 179.013421 84.324378 
L 179.376198 84.561066 
L 179.560661 84.737821 
L 181.085554 85.027614 
L 181.571306 85.227308 
L 181.983273 85.383931 
L 182.167736 85.502005 
L 182.438281 85.632351 
L 182.616595 85.800106 
L 183.034711 85.970201 
L 183.18843 86.16598 
L 183.354446 86.229021 
L 184.688727 87.034506 
L 184.750215 87.148814 
L 184.891636 87.239242 
L 185.137587 87.347134 
L 185.37124 87.550674 
L 185.979967 87.898451 
L 186.693223 88.416779 
L 186.939174 88.532367 
L 187.55405 88.652538 
L 187.738512 88.69879 
L 188.101289 88.812956 
L 188.341091 89.070302 
L 188.537851 89.144775 
L 188.74076 89.268639 
L 189.023603 89.514762 
L 189.638479 89.825614 
L 189.902876 89.875239 
L 190.191868 89.998064 
L 190.62843 90.28849 
L 190.776 90.402424 
L 192.466909 91.300086 
L 192.626777 91.354393 
L 193.044893 91.469543 
L 193.25395 91.777842 
L 193.512198 91.905527 
L 193.665917 91.991255 
L 193.868826 92.096561 
L 194.034843 92.206651 
L 194.29924 92.305302 
L 195.990149 92.782947 
L 196.199207 92.871633 
L 197.121521 93.23308 
L 197.27524 93.312681 
L 197.760992 93.470352 
L 198.049983 93.739971 
L 198.31438 93.856822 
L 198.529587 93.996048 
L 199.126017 94.14636 
L 200.30043 94.354559 
L 200.823074 94.500574 
L 204.561521 95.548053 
L 204.733686 95.753635 
L 204.973488 96.01039 
L 205.188694 96.158046 
L 205.299372 96.2889 
L 205.45924 96.422479 
L 205.723636 96.574794 
L 205.883504 96.672208 
L 206.092562 96.773827 
L 206.264727 96.88511 
L 206.652099 97.071209 
L 206.855008 97.179497 
L 207.365355 97.28877 
L 207.531372 97.361436 
L 207.752727 97.482665 
L 207.924893 97.531639 
L 208.502876 97.68368 
L 209.222281 97.833301 
L 209.917091 98.087327 
L 210.07081 98.176307 
L 210.255273 98.287138 
L 210.396694 98.369992 
L 210.734876 98.509253 
L 210.919339 98.738411 
L 212.284364 99.252917 
L 212.665587 99.368257 
L 212.837752 99.500632 
L 213.673983 99.643159 
L 214.301157 99.940045 
L 214.559405 100.215461 
L 214.719273 100.333062 
L 214.87914 100.454399 
L 215.352595 100.700339 
L 215.567802 100.83083 
L 215.979769 100.948133 
L 216.490116 101.14627 
L 216.840595 101.258204 
L 217.043504 101.344748 
L 217.141884 101.451177 
L 217.455471 101.575734 
L 217.65838 101.68077 
L 217.812099 101.890914 
L 219.847339 102.396718 
L 220.105587 102.498833 
L 220.597488 102.601474 
L 220.769653 102.693024 
L 221.187769 102.856014 
L 221.987107 103.086621 
L 222.429818 103.207157 
L 222.737256 103.259772 
L 222.927868 103.371949 
L 223.278347 103.477331 
L 227.760793 105.064643 
L 228.584727 105.264049 
L 228.763041 105.329227 
L 229.476298 105.529144 
L 229.630017 105.599885 
L 230.558479 105.835174 
L 230.736793 105.946606 
L 231.782083 106.644401 
L 232.378512 106.826386 
L 232.519934 106.895596 
L 232.88886 107.00579 
L 235.36681 108.003401 
L 235.61276 108.112969 
L 237.076165 108.634597 
L 237.59881 108.745999 
L 237.998479 108.939364 
L 238.312066 109.247721 
L 238.754777 109.416956 
L 238.902347 109.461499 
L 239.566413 109.784649 
L 239.97838 109.902877 
L 241.730777 110.474365 
L 241.890645 110.569432 
L 242.278017 110.682502 
L 242.474777 110.77518 
L 242.856 110.949246 
L 243.028165 111.140269 
L 243.925884 111.290335 
L 244.854347 111.405261 
L 245.124893 111.534281 
L 245.936529 111.685146 
L 246.157884 111.755382 
L 247.449124 112.089754 
L 247.652033 112.300291 
L 247.922579 112.412369 
L 248.107041 112.448185 
L 249.072397 112.560317 
L 250.412826 112.823925 
L 250.621884 113.007339 
L 251.353587 113.142837 
L 251.820893 113.297092 
L 252.239008 113.412279 
L 253.843835 113.787948 
L 254.003702 113.871205 
L 254.993653 114.195989 
L 255.264198 114.289738 
L 256.143471 114.404054 
L 257.465455 114.729782 
L 257.63762 114.810015 
L 258.535339 115.23494 
L 258.707504 115.29049 
L 259.752793 115.517394 
L 259.937256 115.561263 
L 260.281587 115.676437 
L 263.251438 116.397657 
L 263.417455 116.490404 
L 265.102215 116.800048 
L 265.950744 117.016326 
L 266.76238 117.149323 
L 268.225785 117.572969 
L 268.607008 117.718718 
L 268.908298 117.763302 
L 270.322512 117.999169 
L 270.53157 118.102536 
L 271.583008 118.25145 
L 272.11795 118.352714 
L 273.06486 118.49444 
L 273.648992 118.662292 
L 273.95643 118.723387 
L 275.49362 119.034091 
L 276.163835 119.143326 
L 276.717223 119.254458 
L 276.963174 119.300073 
L 278.235967 119.4921 
L 279.004562 119.660344 
L 279.207471 119.735161 
L 280.529455 119.905844 
L 280.787702 119.961779 
L 281.919074 120.100391 
L 282.78605 120.32105 
L 283.560793 120.432887 
L 283.929719 120.503985 
L 284.686017 120.614757 
L 285.946512 120.797017 
L 286.973355 120.92428 
L 287.649719 121.138981 
L 288.701157 121.252193 
L 289.236099 121.341581 
L 290.053884 121.45476 
L 290.699504 121.553183 
L 291.726347 121.681049 
L 292.064529 121.744031 
L 293.847669 121.928874 
L 294.075174 121.990711 
L 294.720793 122.100652 
L 295.089719 122.140829 
L 295.569322 122.26241 
L 296.251835 122.335437 
L 301.884099 122.899552 
L 302.056264 122.95002 
L 303.538116 123.059855 
L 303.820959 123.125104 
L 304.663339 123.243908 
L 306.034512 123.370326 
L 307.024463 123.506406 
L 307.38724 123.574159 
L 309.305653 123.874683 
L 309.508562 123.900159 
L 310.904331 124.067401 
L 312.632132 124.212718 
L 313.763504 124.322134 
L 314.157025 124.378168 
L 315.153124 124.490711 
L 315.528198 124.571283 
L 316.130777 124.622802 
L 317.176066 124.733825 
L 317.674116 124.758081 
L 319.383471 124.938824 
L 320.03524 125.044919 
L 321.07438 125.153543 
L 321.301884 125.227476 
L 324.388562 125.579255 
L 325.396959 125.713446 
L 327.143207 125.864334 
L 327.505983 125.970911 
L 327.659702 125.994219 
L 328.66195 126.171899 
L 329.092364 126.25828 
L 343.837091 128.224137 
L 344.08919 128.248505 
L 344.863934 128.449144 
L 345.072992 128.518065 
L 347.329587 128.805348 
L 347.938314 128.92646 
L 349.278744 129.262807 
L 350.170314 129.439324 
L 350.625322 129.51351 
L 351.67676 129.636416 
L 351.965752 129.688884 
L 352.949554 129.838858 
L 357.099967 130.810951 
L 357.622612 130.997841 
L 357.764033 131.061014 
L 358.37276 131.176156 
L 358.96919 131.366098 
L 363.113455 132.614131 
L 363.316364 132.68192 
L 364.244826 132.887682 
L 364.410843 133.107459 
L 364.951934 133.222636 
L 365.160992 133.323412 
L 365.290116 133.433804 
L 365.462281 133.687821 
L 366.126347 133.854172 
L 366.40919 134.009099 
L 367.325355 134.222998 
L 367.595901 134.380016 
L 367.79881 134.487891 
L 371.002314 136.631211 
L 371.143736 136.735154 
L 371.346645 137.073181 
L 371.783207 137.189545 
L 372.238215 137.363658 
L 372.391934 137.470216 
L 372.533355 137.584304 
L 372.705521 137.62972 
L 372.853091 137.74455 
L 373.00681 137.846782 
L 373.148231 138.000427 
L 373.320397 138.254612 
L 373.449521 138.395852 
L 373.707769 138.761471 
L 374.058248 138.914462 
L 374.390281 139.208947 
L 374.820694 139.319365 
L 375.121983 139.432174 
L 375.380231 139.557622 
L 376.032 139.923208 
L 376.247207 140.065761 
L 376.400926 140.229476 
L 376.493157 140.338859 
L 376.646876 140.463036 
L 376.800595 140.566387 
L 376.97276 140.741168 
L 377.231008 140.87369 
L 377.513851 141.550222 
L 377.870479 141.678806 
L 378.202512 141.998303 
L 378.288595 142.094223 
L 378.645223 142.852236 
L 378.940364 143.161418 
L 379.174017 143.589258 
L 379.444562 143.767607 
L 379.579835 143.879008 
L 379.831934 144.01532 
L 380.120926 144.208606 
L 380.262347 144.33656 
L 380.477554 144.662636 
L 380.631273 144.7735 
L 380.821884 145.011527 
L 381.153917 145.372154 
L 381.33838 145.704613 
L 381.750347 146.317031 
L 381.916364 146.854288 
L 382.113124 147.346375 
L 382.174612 147.437774 
L 382.328331 147.561516 
L 382.402116 147.666979 
L 382.537388 147.743132 
L 382.586579 147.846905 
L 382.721851 148.063247 
L 382.795636 148.176879 
L 382.949355 148.63335 
L 383.404364 149.039876 
L 383.662612 149.158761 
L 383.988496 149.707988 
L 384.136066 149.848829 
L 384.369719 150.432499 
L 384.523438 150.951301 
L 384.603372 151.124025 
L 384.744793 151.309174 
L 385.113719 151.614857 
L 385.162909 151.707719 
L 385.310479 151.950082 
L 385.75319 152.595399 
L 385.937653 153.163033 
L 385.986843 153.264208 
L 386.146711 153.509537 
L 386.94605 154.771084 
L 386.989091 154.854207 
L 387.198149 155.694519 
L 387.314975 155.812925 
L 387.474843 155.978723 
L 387.622413 156.086328 
L 387.929851 156.837524 
L 388.114314 157.478928 
L 388.13276 157.569738 
L 388.286479 158.101397 
L 388.495537 158.250895 
L 388.766083 158.937902 
L 389.165752 159.804542 
L 389.233388 160.114967 
L 389.510083 160.881179 
L 389.57157 161.088753 
L 389.737587 161.643494 
L 390.155702 163.137232 
L 390.21719 163.248555 
L 390.586116 164.417429 
L 390.819769 164.731025 
L 391.41005 168.968205 
L 391.465388 169.146675 
L 391.637554 169.608503 
L 391.766678 169.685395 
L 391.963438 170.401353 
L 392.037223 170.524806 
L 392.326215 171.747026 
L 392.455339 171.8559 
L 392.799669 172.585069 
L 392.971835 172.718337 
L 393.211636 173.432917 
L 393.24238 173.543621 
L 393.34076 174.42136 
L 393.488331 175.938869 
L 393.525223 176.066153 
L 393.734281 177.505634 
L 393.955636 177.917467 
L 394.306116 180.46698 
L 394.43524 180.778312 
L 394.638149 182.036815 
L 394.785719 183.90154 
L 394.951736 185.667578 
L 395.185388 189.480858 
L 395.363702 191.147175 
L 395.406744 191.353768 
L 395.578909 192.989524 
L 395.738777 194.395077 
L 395.800264 194.542103 
L 396.163041 199.141739 
L 396.335207 200.454198 
L 396.531967 201.728659 
L 396.802512 207.313123 
L 396.81481 207.368999 
L 396.96238 208.368483 
L 397.01157 209.023413 
L 397.208331 214.428877 
L 397.220628 214.502016 
L 397.331306 222.086309 
L 397.466579 224.391388 
L 397.485025 224.48359 
L 398.284364 253.885062 
L 398.481124 295.488 
L 398.481124 295.488 
" clip-path="url(#p3d6ecb7ff9)" style="fill: none; stroke: #1f77b4; stroke-width: 1.5; stroke-linecap: square"/>
   </g>
   <g id="line2d_16">
    <path d="M 133.801587 60.064908 
L 373.148231 137.991909 
" clip-path="url(#p3d6ecb7ff9)" style="fill: none; stroke-dasharray: 5.55,2.4; stroke-dashoffset: 0; stroke: #ff7f0e; stroke-width: 1.5"/>
   </g>
   <g id="line2d_17">
    <path d="M 73.832727 131.497762 
L 398.487273 131.497762 
L 398.487273 131.497762 
" clip-path="url(#p3d6ecb7ff9)" style="fill: none; stroke-dasharray: 5.55,2.4; stroke-dashoffset: 0; stroke: #2ca02c; stroke-width: 1.5"/>
   </g>
   <g id="LineCollection_1">
    <path d="M 373.148231 295.488 
L 373.148231 53.568 
" clip-path="url(#p3d6ecb7ff9)" style="fill: none; stroke-dasharray: 5.55,2.4; stroke-dashoffset: 0; stroke: #1f77b4; stroke-width: 1.5"/>
   </g>
   <g id="patch_3">
    <path d="M 57.6 307.584 
L 57.6 41.472 
" style="fill: none; stroke: #000000; stroke-width: 0.8; stroke-linejoin: miter; stroke-linecap: square"/>
   </g>
   <g id="patch_4">
    <path d="M 414.72 307.584 
L 414.72 41.472 
" style="fill: none; stroke: #000000; stroke-width: 0.8; stroke-linejoin: miter; stroke-linecap: square"/>
   </g>
   <g id="patch_5">
    <path d="M 57.6 307.584 
L 414.72 307.584 
" style="fill: none; stroke: #000000; stroke-width: 0.8; stroke-linejoin: miter; stroke-linecap: square"/>
   </g>
   <g id="patch_6">
    <path d="M 57.6 41.472 
L 414.72 41.472 
" style="fill: none; stroke: #000000; stroke-width: 0.8; stroke-linejoin: miter; stroke-linecap: square"/>
   </g>
   <g id="text_15">
    <!-- Energy Decay - 4000 Hz -->
    <g transform="translate(163.59 35.472) scale(0.12 -0.12)">
     <defs>
      <path id="DejaVuSans-45" d="M 628 4666 
L 3578 4666 
L 3578 4134 
L 1259 4134 
L 1259 2753 
L 3481 2753 
L 3481 2222 
L 1259 2222 
L 1259 531 
L 3634 531 
L 3634 0 
L 628 0 
L 628 4666 
z
" transform="scale(0.015625)"/>
      <path id="DejaVuSans-6e" d="M 3513 2113 
L 3513 0 
L 2938 0 
L 2938 2094 
Q 2938 2591 2744 2837 
Q 2550 3084 2163 3084 
Q 1697 3084 1428 2787 
Q 1159 2491 1159 1978 
L 1159 0 
L 581 0 
L 581 3500 
L 1159 3500 
L 1159 2956 
Q 1366 3272 1645 3428 
Q 1925 3584 2291 3584 
Q 2894 3584 3203 3211 
Q 3513 2838 3513 2113 
z
" transform="scale(0.015625)"/>
      <path id="DejaVuSans-65" d="M 3597 1894 
L 3597 1613 
L 953 1613 
Q 991 1019 1311 708 
Q 1631 397 2203 397 
Q 2534 397 2845 478 
Q 3156 559 3463 722 
L 3463 178 
Q 3153 47 2828 -22 
Q 2503 -91 2169 -91 
Q 1331 -91 842 396 
Q 353 884 353 1716 
Q 353 2575 817 3079 
Q 1281 3584 2069 3584 
Q 2775 3584 3186 3129 
Q 3597 2675 3597 1894 
z
M 3022 2063 
Q 3016 2534 2758 2815 
Q 2500 3097 2075 3097 
Q 1594 3097 1305 2825 
Q 1016 2553 972 2059 
L 3022 2063 
z
" transform="scale(0.015625)"/>
      <path id="DejaVuSans-72" d="M 2631 2963 
Q 2534 3019 2420 3045 
Q 2306 3072 2169 3072 
Q 1681 3072 1420 2755 
Q 1159 2438 1159 1844 
L 1159 0 
L 581 0 
L 581 3500 
L 1159 3500 
L 1159 2956 
Q 1341 3275 1631 3429 
Q 1922 3584 2338 3584 
Q 2397 3584 2469 3576 
Q 2541 3569 2628 3553 
L 2631 2963 
z
" transform="scale(0.015625)"/>
      <path id="DejaVuSans-67" d="M 2906 1791 
Q 2906 2416 2648 2759 
Q 2391 3103 1925 3103 
Q 1463 3103 1205 2759 
Q 947 2416 947 1791 
Q 947 1169 1205 825 
Q 1463 481 1925 481 
Q 2391 481 2648 825 
Q 2906 1169 2906 1791 
z
M 3481 434 
Q 3481 -459 3084 -895 
Q 2688 -1331 1869 -1331 
Q 1566 -1331 1297 -1286 
Q 1028 -1241 775 -1147 
L 775 -588 
Q 1028 -725 1275 -790 
Q 1522 -856 1778 -856 
Q 2344 -856 2625 -561 
Q 2906 -266 2906 331 
L 2906 616 
Q 2728 306 2450 153 
Q 2172 0 1784 0 
Q 1141 0 747 490 
Q 353 981 353 1791 
Q 353 2603 747 3093 
Q 1141 3584 1784 3584 
Q 2172 3584 2450 3431 
Q 2728 3278 2906 2969 
L 2906 3500 
L 3481 3500 
L 3481 434 
z
" transform="scale(0.015625)"/>
      <path id="DejaVuSans-79" d="M 2059 -325 
Q 1816 -950 1584 -1140 
Q 1353 -1331 966 -1331 
L 506 -1331 
L 506 -850 
L 844 -850 
Q 1081 -850 1212 -737 
Q 1344 -625 1503 -206 
L 1606 56 
L 191 3500 
L 800 3500 
L 1894 763 
L 2988 3500 
L 3597 3500 
L 2059 -325 
z
" transform="scale(0.015625)"/>
      <path id="DejaVuSans-20" transform="scale(0.015625)"/>
      <path id="DejaVuSans-44" d="M 1259 4147 
L 1259 519 
L 2022 519 
Q 2988 519 3436 956 
Q 3884 1394 3884 2338 
Q 3884 3275 3436 3711 
Q 2988 4147 2022 4147 
L 1259 4147 
z
M 628 4666 
L 1925 4666 
Q 3281 4666 3915 4102 
Q 4550 3538 4550 2338 
Q 4550 1131 3912 565 
Q 3275 0 1925 0 
L 628 0 
L 628 4666 
z
" transform="scale(0.015625)"/>
      <path id="DejaVuSans-63" d="M 3122 3366 
L 3122 2828 
Q 2878 2963 2633 3030 
Q 2388 3097 2138 3097 
Q 1578 3097 1268 2742 
Q 959 2388 959 1747 
Q 959 1106 1268 751 
Q 1578 397 2138 397 
Q 2388 397 2633 464 
Q 2878 531 3122 666 
L 3122 134 
Q 2881 22 2623 -34 
Q 2366 -91 2075 -91 
Q 1284 -91 818 406 
Q 353 903 353 1747 
Q 353 2603 823 3093 
Q 1294 3584 2113 3584 
Q 2378 3584 2631 3529 
Q 2884 3475 3122 3366 
z
" transform="scale(0.015625)"/>
      <path id="DejaVuSans-61" d="M 2194 1759 
Q 1497 1759 1228 1600 
Q 959 1441 959 1056 
Q 959 750 1161 570 
Q 1363 391 1709 391 
Q 2188 391 2477 730 
Q 2766 1069 2766 1631 
L 2766 1759 
L 2194 1759 
z
M 3341 1997 
L 3341 0 
L 2766 0 
L 2766 531 
Q 2569 213 2275 61 
Q 1981 -91 1556 -91 
Q 1019 -91 701 211 
Q 384 513 384 1019 
Q 384 1609 779 1909 
Q 1175 2209 1959 2209 
L 2766 2209 
L 2766 2266 
Q 2766 2663 2505 2880 
Q 2244 3097 1772 3097 
Q 1472 3097 1187 3025 
Q 903 2953 641 2809 
L 641 3341 
Q 956 3463 1253 3523 
Q 1550 3584 1831 3584 
Q 2591 3584 2966 3190 
Q 3341 2797 3341 1997 
z
" transform="scale(0.015625)"/>
      <path id="DejaVuSans-2d" d="M 313 2009 
L 1997 2009 
L 1997 1497 
L 313 1497 
L 313 2009 
z
" transform="scale(0.015625)"/>
      <path id="DejaVuSans-48" d="M 628 4666 
L 1259 4666 
L 1259 2753 
L 3553 2753 
L 3553 4666 
L 4184 4666 
L 4184 0 
L 3553 0 
L 3553 2222 
L 1259 2222 
L 1259 0 
L 628 0 
L 628 4666 
z
" transform="scale(0.015625)"/>
      <path id="DejaVuSans-7a" d="M 353 3500 
L 3084 3500 
L 3084 2975 
L 922 459 
L 3084 459 
L 3084 0 
L 275 0 
L 275 525 
L 2438 3041 
L 353 3041 
L 353 3500 
z
" transform="scale(0.015625)"/>
     </defs>
     <use xlink:href="#DejaVuSans-45"/>
     <use xlink:href="#DejaVuSans-6e" transform="translate(63.183594 0)"/>
     <use xlink:href="#DejaVuSans-65" transform="translate(126.5625 0)"/>
     <use xlink:href="#DejaVuSans-72" transform="translate(188.085938 0)"/>
     <use xlink:href="#DejaVuSans-67" transform="translate(227.449219 0)"/>
     <use xlink:href="#DejaVuSans-79" transform="translate(290.925781 0)"/>
     <use xlink:href="#DejaVuSans-20" transform="translate(350.105469 0)"/>
     <use xlink:href="#DejaVuSans-44" transform="translate(381.892578 0)"/>
     <use xlink:href="#DejaVuSans-65" transform="translate(458.894531 0)"/>
     <use xlink:href="#DejaVuSans-63" transform="translate(520.417969 0)"/>
     <use xlink:href="#DejaVuSans-61" transform="translate(575.398438 0)"/>
     <use xlink:href="#DejaVuSans-79" transform="translate(636.677734 0)"/>
     <use xlink:href="#DejaVuSans-20" transform="translate(695.857422 0)"/>
     <use xlink:href="#DejaVuSans-2d" transform="translate(727.644531 0)"/>
     <use xlink:href="#DejaVuSans-20" transform="translate(763.728516 0)"/>
     <use xlink:href="#DejaVuSans-34" transform="translate(795.515625 0)"/>
     <use xlink:href="#DejaVuSans-30" transform="translate(859.138672 0)"/>
     <use xlink:href="#DejaVuSans-30" transform="translate(922.761719 0)"/>
     <use xlink:href="#DejaVuSans-30" transform="translate(986.384766 0)"/>
     <use xlink:href="#DejaVuSans-20" transform="translate(1050.007812 0)"/>
     <use xlink:href="#DejaVuSans-48" transform="translate(1081.794922 0)"/>
     <use xlink:href="#DejaVuSans-7a" transform="translate(1156.990234 0)"/>
    </g>
   </g>
   <g id="legend_1">
    <g id="patch_7">
     <path d="M 296.968437 108.1845 
L 407.72 108.1845 
Q 409.72 108.1845 409.72 106.1845 
L 409.72 48.472 
Q 409.72 46.472 407.72 46.472 
L 296.968437 46.472 
Q 294.968437 46.472 294.968437 48.472 
L 294.968437 106.1845 
Q 294.968437 108.1845 296.968437 108.1845 
z
" style="fill: #ffffff; opacity: 0.8; stroke: #cccccc; stroke-linejoin: miter"/>
    </g>
    <g id="line2d_18">
     <path d="M 298.968437 54.570438 
L 308.968437 54.570438 
L 318.968437 54.570438 
" style="fill: none; stroke: #1f77b4; stroke-width: 1.5; stroke-linecap: square"/>
    </g>
    <g id="text_16">
     <!-- Energy -->
     <g transform="translate(326.968437 58.070438) scale(0.1 -0.1)">
      <use xlink:href="#DejaVuSans-45"/>
      <use xlink:href="#DejaVuSans-6e" transform="translate(63.183594 0)"/>
      <use xlink:href="#DejaVuSans-65" transform="translate(126.5625 0)"/>
      <use xlink:href="#DejaVuSans-72" transform="translate(188.085938 0)"/>
      <use xlink:href="#DejaVuSans-67" transform="translate(227.449219 0)"/>
      <use xlink:href="#DejaVuSans-79" transform="translate(290.925781 0)"/>
     </g>
    </g>
    <g id="line2d_19">
     <path d="M 298.968437 69.248563 
L 308.968437 69.248563 
L 318.968437 69.248563 
" style="fill: none; stroke-dasharray: 5.55,2.4; stroke-dashoffset: 0; stroke: #ff7f0e; stroke-width: 1.5"/>
    </g>
    <g id="text_17">
     <!-- Linear Fit -->
     <g transform="translate(326.968437 72.748563) scale(0.1 -0.1)">
      <defs>
       <path id="DejaVuSans-4c" d="M 628 4666 
L 1259 4666 
L 1259 531 
L 3531 531 
L 3531 0 
L 628 0 
L 628 4666 
z
" transform="scale(0.015625)"/>
       <path id="DejaVuSans-69" d="M 603 3500 
L 1178 3500 
L 1178 0 
L 603 0 
L 603 3500 
z
M 603 4863 
L 1178 4863 
L 1178 4134 
L 603 4134 
L 603 4863 
z
" transform="scale(0.015625)"/>
       <path id="DejaVuSans-46" d="M 628 4666 
L 3309 4666 
L 3309 4134 
L 1259 4134 
L 1259 2759 
L 3109 2759 
L 3109 2228 
L 1259 2228 
L 1259 0 
L 628 0 
L 628 4666 
z
" transform="scale(0.015625)"/>
       <path id="DejaVuSans-74" d="M 1172 4494 
L 1172 3500 
L 2356 3500 
L 2356 3053 
L 1172 3053 
L 1172 1153 
Q 1172 725 1289 603 
Q 1406 481 1766 481 
L 2356 481 
L 2356 0 
L 1766 0 
Q 1100 0 847 248 
Q 594 497 594 1153 
L 594 3053 
L 172 3053 
L 172 3500 
L 594 3500 
L 594 4494 
L 1172 4494 
z
" transform="scale(0.015625)"/>
      </defs>
      <use xlink:href="#DejaVuSans-4c"/>
      <use xlink:href="#DejaVuSans-69" transform="translate(55.712891 0)"/>
      <use xlink:href="#DejaVuSans-6e" transform="translate(83.496094 0)"/>
      <use xlink:href="#DejaVuSans-65" transform="translate(146.875 0)"/>
      <use xlink:href="#DejaVuSans-61" transform="translate(208.398438 0)"/>
      <use xlink:href="#DejaVuSans-72" transform="translate(269.677734 0)"/>
      <use xlink:href="#DejaVuSans-20" transform="translate(310.791016 0)"/>
      <use xlink:href="#DejaVuSans-46" transform="translate(342.578125 0)"/>
      <use xlink:href="#DejaVuSans-69" transform="translate(392.847656 0)"/>
      <use xlink:href="#DejaVuSans-74" transform="translate(420.630859 0)"/>
     </g>
    </g>
    <g id="line2d_20">
     <path d="M 298.968437 83.926688 
L 308.968437 83.926688 
L 318.968437 83.926688 
" style="fill: none; stroke-dasharray: 5.55,2.4; stroke-dashoffset: 0; stroke: #2ca02c; stroke-width: 1.5"/>
    </g>
    <g id="text_18">
     <!-- -60 dB -->
     <g transform="translate(326.968437 87.426688) scale(0.1 -0.1)">
      <defs>
       <path id="DejaVuSans-64" d="M 2906 2969 
L 2906 4863 
L 3481 4863 
L 3481 0 
L 2906 0 
L 2906 525 
Q 2725 213 2448 61 
Q 2172 -91 1784 -91 
Q 1150 -91 751 415 
Q 353 922 353 1747 
Q 353 2572 751 3078 
Q 1150 3584 1784 3584 
Q 2172 3584 2448 3432 
Q 2725 3281 2906 2969 
z
M 947 1747 
Q 947 1113 1208 752 
Q 1469 391 1925 391 
Q 2381 391 2643 752 
Q 2906 1113 2906 1747 
Q 2906 2381 2643 2742 
Q 2381 3103 1925 3103 
Q 1469 3103 1208 2742 
Q 947 2381 947 1747 
z
" transform="scale(0.015625)"/>
       <path id="DejaVuSans-42" d="M 1259 2228 
L 1259 519 
L 2272 519 
Q 2781 519 3026 730 
Q 3272 941 3272 1375 
Q 3272 1813 3026 2020 
Q 2781 2228 2272 2228 
L 1259 2228 
z
M 1259 4147 
L 1259 2741 
L 2194 2741 
Q 2656 2741 2882 2914 
Q 3109 3088 3109 3444 
Q 3109 3797 2882 3972 
Q 2656 4147 2194 4147 
L 1259 4147 
z
M 628 4666 
L 2241 4666 
Q 2963 4666 3353 4366 
Q 3744 4066 3744 3513 
Q 3744 3084 3544 2831 
Q 3344 2578 2956 2516 
Q 3422 2416 3680 2098 
Q 3938 1781 3938 1306 
Q 3938 681 3513 340 
Q 3088 0 2303 0 
L 628 0 
L 628 4666 
z
" transform="scale(0.015625)"/>
      </defs>
      <use xlink:href="#DejaVuSans-2d"/>
      <use xlink:href="#DejaVuSans-36" transform="translate(36.083984 0)"/>
      <use xlink:href="#DejaVuSans-30" transform="translate(99.707031 0)"/>
      <use xlink:href="#DejaVuSans-20" transform="translate(163.330078 0)"/>
      <use xlink:href="#DejaVuSans-64" transform="translate(195.117188 0)"/>
      <use xlink:href="#DejaVuSans-42" transform="translate(258.59375 0)"/>
     </g>
    </g>
    <g id="line2d_21">
     <path d="M 298.968437 98.604813 
L 318.968437 98.604813 
" style="fill: none; stroke-dasharray: 5.55,2.4; stroke-dashoffset: 0; stroke: #1f77b4; stroke-width: 1.5"/>
    </g>
    <g id="text_19">
     <!-- Estimated RT60 -->
     <g transform="translate(326.968437 102.104813) scale(0.1 -0.1)">
      <defs>
       <path id="DejaVuSans-73" d="M 2834 3397 
L 2834 2853 
Q 2591 2978 2328 3040 
Q 2066 3103 1784 3103 
Q 1356 3103 1142 2972 
Q 928 2841 928 2578 
Q 928 2378 1081 2264 
Q 1234 2150 1697 2047 
L 1894 2003 
Q 2506 1872 2764 1633 
Q 3022 1394 3022 966 
Q 3022 478 2636 193 
Q 2250 -91 1575 -91 
Q 1294 -91 989 -36 
Q 684 19 347 128 
L 347 722 
Q 666 556 975 473 
Q 1284 391 1588 391 
Q 1994 391 2212 530 
Q 2431 669 2431 922 
Q 2431 1156 2273 1281 
Q 2116 1406 1581 1522 
L 1381 1569 
Q 847 1681 609 1914 
Q 372 2147 372 2553 
Q 372 3047 722 3315 
Q 1072 3584 1716 3584 
Q 2034 3584 2315 3537 
Q 2597 3491 2834 3397 
z
" transform="scale(0.015625)"/>
       <path id="DejaVuSans-6d" d="M 3328 2828 
Q 3544 3216 3844 3400 
Q 4144 3584 4550 3584 
Q 5097 3584 5394 3201 
Q 5691 2819 5691 2113 
L 5691 0 
L 5113 0 
L 5113 2094 
Q 5113 2597 4934 2840 
Q 4756 3084 4391 3084 
Q 3944 3084 3684 2787 
Q 3425 2491 3425 1978 
L 3425 0 
L 2847 0 
L 2847 2094 
Q 2847 2600 2669 2842 
Q 2491 3084 2119 3084 
Q 1678 3084 1418 2786 
Q 1159 2488 1159 1978 
L 1159 0 
L 581 0 
L 581 3500 
L 1159 3500 
L 1159 2956 
Q 1356 3278 1631 3431 
Q 1906 3584 2284 3584 
Q 2666 3584 2933 3390 
Q 3200 3197 3328 2828 
z
" transform="scale(0.015625)"/>
       <path id="DejaVuSans-52" d="M 2841 2188 
Q 3044 2119 3236 1894 
Q 3428 1669 3622 1275 
L 4263 0 
L 3584 0 
L 2988 1197 
Q 2756 1666 2539 1819 
Q 2322 1972 1947 1972 
L 1259 1972 
L 1259 0 
L 628 0 
L 628 4666 
L 2053 4666 
Q 2853 4666 3247 4331 
Q 3641 3997 3641 3322 
Q 3641 2881 3436 2590 
Q 3231 2300 2841 2188 
z
M 1259 4147 
L 1259 2491 
L 2053 2491 
Q 2509 2491 2742 2702 
Q 2975 2913 2975 3322 
Q 2975 3731 2742 3939 
Q 2509 4147 2053 4147 
L 1259 4147 
z
" transform="scale(0.015625)"/>
       <path id="DejaVuSans-54" d="M -19 4666 
L 3928 4666 
L 3928 4134 
L 2272 4134 
L 2272 0 
L 1638 0 
L 1638 4134 
L -19 4134 
L -19 4666 
z
" transform="scale(0.015625)"/>
      </defs>
      <use xlink:href="#DejaVuSans-45"/>
      <use xlink:href="#DejaVuSans-73" transform="translate(63.183594 0)"/>
      <use xlink:href="#DejaVuSans-74" transform="translate(115.283203 0)"/>
      <use xlink:href="#DejaVuSans-69" transform="translate(154.492188 0)"/>
      <use xlink:href="#DejaVuSans-6d" transform="translate(182.275391 0)"/>
      <use xlink:href="#DejaVuSans-61" transform="translate(279.6875 0)"/>
      <use xlink:href="#DejaVuSans-74" transform="translate(340.966797 0)"/>
      <use xlink:href="#DejaVuSans-65" transform="translate(380.175781 0)"/>
      <use xlink:href="#DejaVuSans-64" transform="translate(441.699219 0)"/>
      <use xlink:href="#DejaVuSans-20" transform="translate(505.175781 0)"/>
      <use xlink:href="#DejaVuSans-52" transform="translate(536.962891 0)"/>
      <use xlink:href="#DejaVuSans-54" transform="translate(599.195312 0)"/>
      <use xlink:href="#DejaVuSans-36" transform="translate(660.279297 0)"/>
      <use xlink:href="#DejaVuSans-30" transform="translate(723.902344 0)"/>
     </g>
    </g>
   </g>
  </g>
 </g>
 <defs>
  <clipPath id="p3d6ecb7ff9">
   <rect x="57.6" y="41.472" width="357.12" height="266.112"/>
  </clipPath>
 </defs>
</svg>
