<?xml version="1.0" encoding="utf-8" standalone="no"?>
<!DOCTYPE svg PUBLIC "-//W3C//DTD SVG 1.1//EN"
  "http://www.w3.org/Graphics/SVG/1.1/DTD/svg11.dtd">
<svg xmlns:xlink="http://www.w3.org/1999/xlink" width="460.8pt" height="345.6pt" viewBox="0 0 460.8 345.6" xmlns="http://www.w3.org/2000/svg" version="1.1">
 <metadata>
  <rdf:RDF xmlns:dc="http://purl.org/dc/elements/1.1/" xmlns:cc="http://creativecommons.org/ns#" xmlns:rdf="http://www.w3.org/1999/02/22-rdf-syntax-ns#">
   <cc:Work>
    <dc:type rdf:resource="http://purl.org/dc/dcmitype/StillImage"/>
    <dc:date>2025-05-07T14:23:04.055450</dc:date>
    <dc:format>image/svg+xml</dc:format>
    <dc:creator>
     <cc:Agent>
      <dc:title>Matplotlib v3.10.1, https://matplotlib.org/</dc:title>
     </cc:Agent>
    </dc:creator>
   </cc:Work>
  </rdf:RDF>
 </metadata>
 <defs>
  <style type="text/css">*{stroke-linejoin: round; stroke-linecap: butt}</style>
 </defs>
 <g id="figure_1">
  <g id="patch_1">
   <path d="M 0 345.6 
L 460.8 345.6 
L 460.8 0 
L 0 0 
z
" style="fill: #ffffff"/>
  </g>
  <g id="axes_1">
   <g id="patch_2">
    <path d="M 57.6 307.584 
L 414.72 307.584 
L 414.72 41.472 
L 57.6 41.472 
z
" style="fill: #ffffff"/>
   </g>
   <g id="matplotlib.axis_1">
    <g id="xtick_1">
     <g id="line2d_1">
      <defs>
       <path id="m092b29d543" d="M 0 0 
L 0 3.5 
" style="stroke: #000000; stroke-width: 0.8"/>
      </defs>
      <g>
       <use xlink:href="#m092b29d543" x="75.239564" y="307.584" style="stroke: #000000; stroke-width: 0.8"/>
      </g>
     </g>
     <g id="text_1">
      <!-- −0.2 -->
      <g transform="translate(63.098157 322.182437) scale(0.1 -0.1)">
       <defs>
        <path id="DejaVuSans-2212" d="M 678 2272 
L 4684 2272 
L 4684 1741 
L 678 1741 
L 678 2272 
z
" transform="scale(0.015625)"/>
        <path id="DejaVuSans-30" d="M 2034 4250 
Q 1547 4250 1301 3770 
Q 1056 3291 1056 2328 
Q 1056 1369 1301 889 
Q 1547 409 2034 409 
Q 2525 409 2770 889 
Q 3016 1369 3016 2328 
Q 3016 3291 2770 3770 
Q 2525 4250 2034 4250 
z
M 2034 4750 
Q 2819 4750 3233 4129 
Q 3647 3509 3647 2328 
Q 3647 1150 3233 529 
Q 2819 -91 2034 -91 
Q 1250 -91 836 529 
Q 422 1150 422 2328 
Q 422 3509 836 4129 
Q 1250 4750 2034 4750 
z
" transform="scale(0.015625)"/>
        <path id="DejaVuSans-2e" d="M 684 794 
L 1344 794 
L 1344 0 
L 684 0 
L 684 794 
z
" transform="scale(0.015625)"/>
        <path id="DejaVuSans-32" d="M 1228 531 
L 3431 531 
L 3431 0 
L 469 0 
L 469 531 
Q 828 903 1448 1529 
Q 2069 2156 2228 2338 
Q 2531 2678 2651 2914 
Q 2772 3150 2772 3378 
Q 2772 3750 2511 3984 
Q 2250 4219 1831 4219 
Q 1534 4219 1204 4116 
Q 875 4013 500 3803 
L 500 4441 
Q 881 4594 1212 4672 
Q 1544 4750 1819 4750 
Q 2544 4750 2975 4387 
Q 3406 4025 3406 3419 
Q 3406 3131 3298 2873 
Q 3191 2616 2906 2266 
Q 2828 2175 2409 1742 
Q 1991 1309 1228 531 
z
" transform="scale(0.015625)"/>
       </defs>
       <use xlink:href="#DejaVuSans-2212"/>
       <use xlink:href="#DejaVuSans-30" transform="translate(83.789062 0)"/>
       <use xlink:href="#DejaVuSans-2e" transform="translate(147.412109 0)"/>
       <use xlink:href="#DejaVuSans-32" transform="translate(179.199219 0)"/>
      </g>
     </g>
    </g>
    <g id="xtick_2">
     <g id="line2d_2">
      <g>
       <use xlink:href="#m092b29d543" x="140.170473" y="307.584" style="stroke: #000000; stroke-width: 0.8"/>
      </g>
     </g>
     <g id="text_2">
      <!-- 0.0 -->
      <g transform="translate(132.21891 322.182437) scale(0.1 -0.1)">
       <use xlink:href="#DejaVuSans-30"/>
       <use xlink:href="#DejaVuSans-2e" transform="translate(63.623047 0)"/>
       <use xlink:href="#DejaVuSans-30" transform="translate(95.410156 0)"/>
      </g>
     </g>
    </g>
    <g id="xtick_3">
     <g id="line2d_3">
      <g>
       <use xlink:href="#m092b29d543" x="205.101382" y="307.584" style="stroke: #000000; stroke-width: 0.8"/>
      </g>
     </g>
     <g id="text_3">
      <!-- 0.2 -->
      <g transform="translate(197.149819 322.182437) scale(0.1 -0.1)">
       <use xlink:href="#DejaVuSans-30"/>
       <use xlink:href="#DejaVuSans-2e" transform="translate(63.623047 0)"/>
       <use xlink:href="#DejaVuSans-32" transform="translate(95.410156 0)"/>
      </g>
     </g>
    </g>
    <g id="xtick_4">
     <g id="line2d_4">
      <g>
       <use xlink:href="#m092b29d543" x="270.032291" y="307.584" style="stroke: #000000; stroke-width: 0.8"/>
      </g>
     </g>
     <g id="text_4">
      <!-- 0.4 -->
      <g transform="translate(262.080728 322.182437) scale(0.1 -0.1)">
       <defs>
        <path id="DejaVuSans-34" d="M 2419 4116 
L 825 1625 
L 2419 1625 
L 2419 4116 
z
M 2253 4666 
L 3047 4666 
L 3047 1625 
L 3713 1625 
L 3713 1100 
L 3047 1100 
L 3047 0 
L 2419 0 
L 2419 1100 
L 313 1100 
L 313 1709 
L 2253 4666 
z
" transform="scale(0.015625)"/>
       </defs>
       <use xlink:href="#DejaVuSans-30"/>
       <use xlink:href="#DejaVuSans-2e" transform="translate(63.623047 0)"/>
       <use xlink:href="#DejaVuSans-34" transform="translate(95.410156 0)"/>
      </g>
     </g>
    </g>
    <g id="xtick_5">
     <g id="line2d_5">
      <g>
       <use xlink:href="#m092b29d543" x="334.9632" y="307.584" style="stroke: #000000; stroke-width: 0.8"/>
      </g>
     </g>
     <g id="text_5">
      <!-- 0.6 -->
      <g transform="translate(327.011638 322.182437) scale(0.1 -0.1)">
       <defs>
        <path id="DejaVuSans-36" d="M 2113 2584 
Q 1688 2584 1439 2293 
Q 1191 2003 1191 1497 
Q 1191 994 1439 701 
Q 1688 409 2113 409 
Q 2538 409 2786 701 
Q 3034 994 3034 1497 
Q 3034 2003 2786 2293 
Q 2538 2584 2113 2584 
z
M 3366 4563 
L 3366 3988 
Q 3128 4100 2886 4159 
Q 2644 4219 2406 4219 
Q 1781 4219 1451 3797 
Q 1122 3375 1075 2522 
Q 1259 2794 1537 2939 
Q 1816 3084 2150 3084 
Q 2853 3084 3261 2657 
Q 3669 2231 3669 1497 
Q 3669 778 3244 343 
Q 2819 -91 2113 -91 
Q 1303 -91 875 529 
Q 447 1150 447 2328 
Q 447 3434 972 4092 
Q 1497 4750 2381 4750 
Q 2619 4750 2861 4703 
Q 3103 4656 3366 4563 
z
" transform="scale(0.015625)"/>
       </defs>
       <use xlink:href="#DejaVuSans-30"/>
       <use xlink:href="#DejaVuSans-2e" transform="translate(63.623047 0)"/>
       <use xlink:href="#DejaVuSans-36" transform="translate(95.410156 0)"/>
      </g>
     </g>
    </g>
    <g id="xtick_6">
     <g id="line2d_6">
      <g>
       <use xlink:href="#m092b29d543" x="399.894109" y="307.584" style="stroke: #000000; stroke-width: 0.8"/>
      </g>
     </g>
     <g id="text_6">
      <!-- 0.8 -->
      <g transform="translate(391.942547 322.182437) scale(0.1 -0.1)">
       <defs>
        <path id="DejaVuSans-38" d="M 2034 2216 
Q 1584 2216 1326 1975 
Q 1069 1734 1069 1313 
Q 1069 891 1326 650 
Q 1584 409 2034 409 
Q 2484 409 2743 651 
Q 3003 894 3003 1313 
Q 3003 1734 2745 1975 
Q 2488 2216 2034 2216 
z
M 1403 2484 
Q 997 2584 770 2862 
Q 544 3141 544 3541 
Q 544 4100 942 4425 
Q 1341 4750 2034 4750 
Q 2731 4750 3128 4425 
Q 3525 4100 3525 3541 
Q 3525 3141 3298 2862 
Q 3072 2584 2669 2484 
Q 3125 2378 3379 2068 
Q 3634 1759 3634 1313 
Q 3634 634 3220 271 
Q 2806 -91 2034 -91 
Q 1263 -91 848 271 
Q 434 634 434 1313 
Q 434 1759 690 2068 
Q 947 2378 1403 2484 
z
M 1172 3481 
Q 1172 3119 1398 2916 
Q 1625 2713 2034 2713 
Q 2441 2713 2670 2916 
Q 2900 3119 2900 3481 
Q 2900 3844 2670 4047 
Q 2441 4250 2034 4250 
Q 1625 4250 1398 4047 
Q 1172 3844 1172 3481 
z
" transform="scale(0.015625)"/>
       </defs>
       <use xlink:href="#DejaVuSans-30"/>
       <use xlink:href="#DejaVuSans-2e" transform="translate(63.623047 0)"/>
       <use xlink:href="#DejaVuSans-38" transform="translate(95.410156 0)"/>
      </g>
     </g>
    </g>
   </g>
   <g id="matplotlib.axis_2">
    <g id="ytick_1">
     <g id="line2d_7">
      <defs>
       <path id="m0dc1dd11ca" d="M 0 0 
L -3.5 0 
" style="stroke: #000000; stroke-width: 0.8"/>
      </defs>
      <g>
       <use xlink:href="#m0dc1dd11ca" x="57.6" y="278.535135" style="stroke: #000000; stroke-width: 0.8"/>
      </g>
     </g>
     <g id="text_7">
      <!-- −140 -->
      <g transform="translate(23.132812 282.334354) scale(0.1 -0.1)">
       <defs>
        <path id="DejaVuSans-31" d="M 794 531 
L 1825 531 
L 1825 4091 
L 703 3866 
L 703 4441 
L 1819 4666 
L 2450 4666 
L 2450 531 
L 3481 531 
L 3481 0 
L 794 0 
L 794 531 
z
" transform="scale(0.015625)"/>
       </defs>
       <use xlink:href="#DejaVuSans-2212"/>
       <use xlink:href="#DejaVuSans-31" transform="translate(83.789062 0)"/>
       <use xlink:href="#DejaVuSans-34" transform="translate(147.412109 0)"/>
       <use xlink:href="#DejaVuSans-30" transform="translate(211.035156 0)"/>
      </g>
     </g>
    </g>
    <g id="ytick_2">
     <g id="line2d_8">
      <g>
       <use xlink:href="#m0dc1dd11ca" x="57.6" y="246.396973" style="stroke: #000000; stroke-width: 0.8"/>
      </g>
     </g>
     <g id="text_8">
      <!-- −120 -->
      <g transform="translate(23.132812 250.196192) scale(0.1 -0.1)">
       <use xlink:href="#DejaVuSans-2212"/>
       <use xlink:href="#DejaVuSans-31" transform="translate(83.789062 0)"/>
       <use xlink:href="#DejaVuSans-32" transform="translate(147.412109 0)"/>
       <use xlink:href="#DejaVuSans-30" transform="translate(211.035156 0)"/>
      </g>
     </g>
    </g>
    <g id="ytick_3">
     <g id="line2d_9">
      <g>
       <use xlink:href="#m0dc1dd11ca" x="57.6" y="214.258811" style="stroke: #000000; stroke-width: 0.8"/>
      </g>
     </g>
     <g id="text_9">
      <!-- −100 -->
      <g transform="translate(23.132812 218.058029) scale(0.1 -0.1)">
       <use xlink:href="#DejaVuSans-2212"/>
       <use xlink:href="#DejaVuSans-31" transform="translate(83.789062 0)"/>
       <use xlink:href="#DejaVuSans-30" transform="translate(147.412109 0)"/>
       <use xlink:href="#DejaVuSans-30" transform="translate(211.035156 0)"/>
      </g>
     </g>
    </g>
    <g id="ytick_4">
     <g id="line2d_10">
      <g>
       <use xlink:href="#m0dc1dd11ca" x="57.6" y="182.120649" style="stroke: #000000; stroke-width: 0.8"/>
      </g>
     </g>
     <g id="text_10">
      <!-- −80 -->
      <g transform="translate(29.495313 185.919867) scale(0.1 -0.1)">
       <use xlink:href="#DejaVuSans-2212"/>
       <use xlink:href="#DejaVuSans-38" transform="translate(83.789062 0)"/>
       <use xlink:href="#DejaVuSans-30" transform="translate(147.412109 0)"/>
      </g>
     </g>
    </g>
    <g id="ytick_5">
     <g id="line2d_11">
      <g>
       <use xlink:href="#m0dc1dd11ca" x="57.6" y="149.982486" style="stroke: #000000; stroke-width: 0.8"/>
      </g>
     </g>
     <g id="text_11">
      <!-- −60 -->
      <g transform="translate(29.495313 153.781705) scale(0.1 -0.1)">
       <use xlink:href="#DejaVuSans-2212"/>
       <use xlink:href="#DejaVuSans-36" transform="translate(83.789062 0)"/>
       <use xlink:href="#DejaVuSans-30" transform="translate(147.412109 0)"/>
      </g>
     </g>
    </g>
    <g id="ytick_6">
     <g id="line2d_12">
      <g>
       <use xlink:href="#m0dc1dd11ca" x="57.6" y="117.844324" style="stroke: #000000; stroke-width: 0.8"/>
      </g>
     </g>
     <g id="text_12">
      <!-- −40 -->
      <g transform="translate(29.495313 121.643543) scale(0.1 -0.1)">
       <use xlink:href="#DejaVuSans-2212"/>
       <use xlink:href="#DejaVuSans-34" transform="translate(83.789062 0)"/>
       <use xlink:href="#DejaVuSans-30" transform="translate(147.412109 0)"/>
      </g>
     </g>
    </g>
    <g id="ytick_7">
     <g id="line2d_13">
      <g>
       <use xlink:href="#m0dc1dd11ca" x="57.6" y="85.706162" style="stroke: #000000; stroke-width: 0.8"/>
      </g>
     </g>
     <g id="text_13">
      <!-- −20 -->
      <g transform="translate(29.495313 89.505381) scale(0.1 -0.1)">
       <use xlink:href="#DejaVuSans-2212"/>
       <use xlink:href="#DejaVuSans-32" transform="translate(83.789062 0)"/>
       <use xlink:href="#DejaVuSans-30" transform="translate(147.412109 0)"/>
      </g>
     </g>
    </g>
    <g id="ytick_8">
     <g id="line2d_14">
      <g>
       <use xlink:href="#m0dc1dd11ca" x="57.6" y="53.568" style="stroke: #000000; stroke-width: 0.8"/>
      </g>
     </g>
     <g id="text_14">
      <!-- 0 -->
      <g transform="translate(44.2375 57.367219) scale(0.1 -0.1)">
       <use xlink:href="#DejaVuSans-30"/>
      </g>
     </g>
    </g>
   </g>
   <g id="line2d_15">
    <path d="M 73.832727 53.568 
L 128.854909 53.676355 
L 129.828873 54.374867 
L 130.207636 54.947447 
L 130.356436 55.068144 
L 130.843418 55.735191 
L 130.992218 55.922794 
L 131.316873 56.33477 
L 131.661818 56.452414 
L 132.054109 56.516663 
L 132.676364 56.671894 
L 133.075418 56.97353 
L 133.278327 57.085671 
L 133.812655 57.622274 
L 134.002036 57.743884 
L 134.489018 58.239594 
L 134.691927 58.374265 
L 134.976 58.520613 
L 135.828218 58.63168 
L 136.037891 58.753182 
L 136.362545 58.947822 
L 136.714255 59.058594 
L 137.410909 59.161374 
L 137.722036 59.315785 
L 138.114327 59.795135 
L 138.303709 59.917698 
L 138.648655 60.169154 
L 139.372364 60.355587 
L 139.805236 60.894369 
L 139.940509 61.030798 
L 140.420727 61.743744 
L 140.650691 61.876275 
L 140.982109 62.009457 
L 142.659491 62.180624 
L 143.214109 62.293273 
L 144.390982 62.704367 
L 144.654764 62.826943 
L 144.837382 62.934585 
L 145.703127 64.082909 
L 145.939855 64.188851 
L 147.718691 64.32197 
L 148.543855 64.55981 
L 148.929382 64.731903 
L 149.206691 64.844119 
L 149.551636 64.962363 
L 150.498545 65.074 
L 150.660873 65.238383 
L 151.005818 65.621596 
L 151.147855 65.738267 
L 151.316945 66.350944 
L 151.580727 67.041279 
L 151.776873 67.179624 
L 151.952727 67.891996 
L 152.209745 68.600442 
L 152.46 68.767556 
L 152.872582 69.352599 
L 153.143127 69.464102 
L 153.657164 69.63299 
L 154.090036 69.886123 
L 154.347055 70.051645 
L 154.610836 70.158311 
L 155.036945 70.419016 
L 155.605091 70.541196 
L 156.200291 70.595127 
L 157.410982 70.8058 
L 157.607127 71.054005 
L 157.8912 71.326284 
L 158.154982 71.44291 
L 158.621673 71.856458 
L 159.0816 71.97361 
L 159.927055 72.6618 
L 160.190836 73.019962 
L 160.373455 73.128674 
L 160.5696 73.745467 
L 160.786036 74.114338 
L 160.961891 74.224509 
L 161.1648 74.890762 
L 161.367709 75.180296 
L 161.5368 75.291187 
L 162.037309 76.000468 
L 162.192873 76.201554 
L 162.531055 76.650506 
L 162.733964 76.756736 
L 163.532073 78.223172 
L 163.782327 78.80431 
L 164.005527 78.94644 
L 164.228727 79.686268 
L 164.458691 80.097736 
L 164.722473 80.248522 
L 165.162109 80.798461 
L 166.278109 80.925736 
L 167.475273 81.127337 
L 168.713018 81.493388 
L 170.701527 81.605475 
L 171.317018 81.778558 
L 171.607855 81.888055 
L 171.824291 82.001824 
L 172.209818 82.277125 
L 172.6224 82.387119 
L 173.204073 82.407642 
L 174.976145 82.518007 
L 176.822618 82.791879 
L 177.593673 82.903397 
L 179.237236 83.548166 
L 179.4672 83.67968 
L 179.933891 84.061208 
L 180.082691 84.202033 
L 180.623782 85.022672 
L 180.779345 85.258561 
L 181.131055 85.783713 
L 181.577455 85.956438 
L 181.942691 86.100859 
L 182.835491 86.218199 
L 183.694473 86.443783 
L 183.890618 86.703319 
L 184.167927 86.967247 
L 184.465527 87.09046 
L 184.993091 87.560627 
L 185.324509 87.671717 
L 186.027927 88.030104 
L 186.197018 88.154517 
L 186.399927 88.723044 
L 186.656945 89.204634 
L 186.859855 89.339073 
L 187.022182 89.999449 
L 187.333309 91.114167 
L 187.563273 91.293619 
L 187.745891 92.127314 
L 188.0232 93.054049 
L 188.286982 93.262972 
L 188.794255 94.255401 
L 189.0648 94.363067 
L 189.504436 94.605601 
L 190.9992 94.778215 
L 192.1152 95.31141 
L 192.899782 95.441543 
L 194.753018 95.581082 
L 195.578182 95.730796 
L 196.234255 96.138932 
L 196.545382 96.423875 
L 196.734764 96.533287 
L 197.167636 96.967557 
L 197.3976 97.082629 
L 197.803418 97.321724 
L 198.263345 97.449659 
L 198.648873 97.579937 
L 198.953236 97.695609 
L 199.318473 97.803375 
L 199.893382 97.912983 
L 201.259636 98.390282 
L 201.591055 98.577159 
L 201.949527 98.693678 
L 202.348582 98.859092 
L 202.7544 98.968898 
L 203.187273 99.017578 
L 205.121673 99.395001 
L 205.473382 99.714891 
L 205.716873 99.819981 
L 206.2512 100.274157 
L 206.481164 100.383093 
L 207.015491 100.821088 
L 207.177818 100.977407 
L 207.549818 101.393489 
L 207.773018 101.497703 
L 208.205891 101.835444 
L 208.544073 101.942897 
L 209.037818 102.172433 
L 209.274545 102.279144 
L 209.775055 102.683957 
L 209.9712 102.824482 
L 210.3432 103.113501 
L 210.884291 103.245528 
L 211.371273 103.317818 
L 212.142327 103.606614 
L 212.534618 103.7749 
L 212.852509 103.887939 
L 213.238036 103.988719 
L 213.677673 104.098809 
L 214.144364 104.159807 
L 215.098036 104.245419 
L 216.538691 104.373542 
L 218.554255 105.633412 
L 218.831564 105.860862 
L 219.054764 105.966714 
L 220.136945 107.368207 
L 220.3872 107.484207 
L 220.894473 107.975498 
L 221.124436 108.088119 
L 221.584364 108.436398 
L 221.8752 108.54673 
L 222.274255 108.737813 
L 222.6936 108.849246 
L 223.119709 108.900359 
L 224.046327 109.066398 
L 224.939127 109.73058 
L 225.169091 109.805928 
L 225.365236 109.923851 
L 225.858982 110.390784 
L 226.061891 110.507218 
L 226.508291 110.878929 
L 226.745018 110.993227 
L 227.130545 111.238227 
L 227.394327 111.349195 
L 227.800145 111.597984 
L 228.016582 111.709143 
L 228.530618 112.189142 
L 228.679418 112.348796 
L 229.159636 113.040968 
L 229.335491 113.156732 
L 229.957745 113.884459 
L 230.126836 114.059156 
L 230.566473 114.614607 
L 230.816727 114.723151 
L 231.357818 115.18214 
L 231.601309 115.288292 
L 232.176218 115.760375 
L 232.358836 115.936394 
L 232.744364 116.342985 
L 233.055491 116.458148 
L 233.454545 116.672844 
L 235.598618 116.865243 
L 236.471127 117.154391 
L 236.8296 117.206557 
L 237.181309 117.350349 
L 237.560073 117.422689 
L 238.026764 117.549689 
L 240.806618 118.228569 
L 241.280073 118.401419 
L 241.510036 118.521382 
L 241.949673 118.842901 
L 242.152582 118.959711 
L 242.612509 119.384583 
L 242.815418 119.505798 
L 243.234764 119.862373 
L 243.471491 119.971822 
L 243.884073 120.257988 
L 244.134327 120.367329 
L 244.513091 120.569408 
L 244.8648 120.678723 
L 245.243564 120.741591 
L 248.172218 120.947904 
L 249.017673 121.300351 
L 249.484364 121.630932 
L 249.707564 121.743994 
L 250.248655 122.243962 
L 250.424509 122.393396 
L 250.864145 122.874901 
L 251.107636 122.980801 
L 251.662255 123.467727 
L 251.844873 123.61169 
L 252.291273 124.077946 
L 252.514473 124.188185 
L 252.967636 124.5504 
L 253.373455 124.661872 
L 253.826618 124.733077 
L 255.0576 124.843693 
L 259.494545 125.307882 
L 261.084 126.048462 
L 261.347782 126.131095 
L 261.631855 126.240653 
L 262.118836 126.508618 
L 262.396145 126.61565 
L 262.8696 126.928135 
L 263.106327 127.040254 
L 263.559491 127.354767 
L 263.8368 127.465681 
L 264.276436 127.717463 
L 264.587564 127.824248 
L 265.000145 128.006211 
L 265.365382 128.115482 
L 265.750909 128.187431 
L 267.157745 128.337241 
L 268.496945 128.819371 
L 268.835127 129.00295 
L 269.200364 129.115764 
L 269.626473 129.277245 
L 269.998473 129.38499 
L 270.438109 129.552024 
L 270.688364 129.666406 
L 271.107709 129.934306 
L 271.344436 130.041842 
L 271.817891 130.39022 
L 272.047855 130.500701 
L 272.568655 130.923179 
L 272.751273 131.047507 
L 273.265309 131.590621 
L 273.441164 131.726153 
L 273.928145 132.279718 
L 274.131055 132.390314 
L 274.665382 132.89749 
L 274.854764 133.021691 
L 275.328218 133.467116 
L 275.537891 133.582628 
L 275.977527 133.945844 
L 276.241309 134.052808 
L 276.6336 134.249793 
L 276.998836 134.357617 
L 277.3776 134.420868 
L 278.229818 134.618148 
L 278.682982 134.682086 
L 280.509164 135.219725 
L 280.779709 135.297509 
L 281.016436 135.412555 
L 281.422255 135.658791 
L 281.794255 135.767933 
L 282.281236 135.964177 
L 282.517964 136.073255 
L 283.032 136.493351 
L 283.201091 136.649705 
L 283.633964 137.158276 
L 283.890982 137.264495 
L 284.391491 137.623928 
L 284.763491 137.736031 
L 285.216655 137.942871 
L 285.4872 138.053319 
L 285.845673 138.21716 
L 286.177091 138.328033 
L 286.542327 138.382683 
L 287.509527 138.597453 
L 287.908582 138.672056 
L 288.152073 138.840541 
L 288.456436 138.986837 
L 288.720218 139.096883 
L 289.1328 139.357336 
L 289.4304 139.46804 
L 289.849745 139.690243 
L 290.106764 139.798278 
L 290.532873 140.068094 
L 290.756073 140.180331 
L 291.182182 140.489133 
L 291.445964 140.597163 
L 291.872073 140.837296 
L 292.230545 140.946932 
L 292.636364 141.078522 
L 293.069236 141.186598 
L 293.508873 141.281573 
L 293.779418 141.417434 
L 294.131127 141.571187 
L 294.401673 141.682198 
L 294.827782 141.948795 
L 295.071273 142.05573 
L 295.504145 142.337947 
L 295.794982 142.446082 
L 296.194036 142.618738 
L 296.579564 142.72704 
L 296.971855 142.789458 
L 298.338109 143.014898 
L 301.530545 144.309463 
L 301.821382 144.418378 
L 302.240727 144.618426 
L 302.585673 144.729786 
L 303.032073 144.884035 
L 303.471709 144.998302 
L 303.9384 145.204775 
L 304.175127 145.320088 
L 304.668873 145.712578 
L 304.865018 145.836462 
L 305.318182 146.252417 
L 305.561673 146.362221 
L 305.981018 146.634402 
L 306.359782 146.744797 
L 306.772364 146.867599 
L 307.110545 146.977555 
L 307.482545 147.074251 
L 307.8816 147.193334 
L 308.449745 147.266487 
L 309.193745 147.327571 
L 310.952291 147.541812 
L 311.391927 147.604322 
L 312.900218 147.731802 
L 313.326327 147.844937 
L 313.6848 147.918934 
L 313.914764 148.101584 
L 314.2056 148.253684 
L 314.455855 148.357828 
L 314.922545 148.704632 
L 315.152509 148.815798 
L 315.6192 149.16069 
L 315.882982 149.269239 
L 316.329382 149.546029 
L 316.647273 149.655152 
L 317.039564 149.806898 
L 317.560364 149.918215 
L 318.588436 150.05966 
L 319.427127 150.183619 
L 320.428145 150.277668 
L 321.388582 150.388128 
L 322.545164 150.742546 
L 322.896873 150.849362 
L 323.3568 151.038964 
L 323.634109 151.151839 
L 324.066982 151.407995 
L 324.344291 151.520579 
L 324.716291 151.685292 
L 325.297964 151.796957 
L 327.442036 152.035954 
L 328.023709 152.272079 
L 328.301018 152.371715 
L 328.524218 152.485173 
L 328.9368 152.791088 
L 329.200582 152.898529 
L 329.613164 153.119843 
L 329.985164 153.231477 
L 330.397745 153.364226 
L 330.7224 153.474657 
L 331.0944 153.588577 
L 331.520509 153.705474 
L 332.393018 153.774849 
L 333.218182 153.920121 
L 333.6984 154.089203 
L 333.914836 154.233564 
L 334.354473 154.599806 
L 334.557382 154.705232 
L 335.1864 155.377799 
L 335.382545 155.593607 
L 335.747782 155.959048 
L 336.214473 156.123764 
L 336.6 156.290141 
L 337.1208 156.416747 
L 337.519855 156.507384 
L 337.830982 156.636334 
L 338.169164 156.707579 
L 338.480291 156.843043 
L 338.838764 156.905328 
L 339.697745 157.259234 
L 340.042691 157.368856 
L 340.347055 157.477481 
L 340.752873 157.66941 
L 341.003127 157.783612 
L 341.381891 158.006841 
L 341.693018 158.116731 
L 342.058255 158.231019 
L 342.639927 158.342304 
L 343.668 158.504925 
L 344.134691 158.64705 
L 344.351127 158.832444 
L 344.641964 159.01562 
L 344.905745 159.12698 
L 345.338618 159.424429 
L 345.764727 159.540145 
L 346.285527 159.755032 
L 346.556073 159.867066 
L 347.0904 160.254716 
L 347.306836 160.376111 
L 347.827636 160.838158 
L 348.064364 160.950977 
L 348.537818 161.290455 
L 348.842182 161.400453 
L 349.200655 161.507996 
L 351.317673 161.619668 
L 352.731273 161.883129 
L 353.2656 162.01282 
L 353.515855 162.197073 
L 353.799927 162.330332 
L 353.996073 162.437631 
L 354.550691 163.035547 
L 354.706255 163.33895 
L 355.044436 163.9643 
L 355.2744 164.089257 
L 355.930473 165.015393 
L 356.126618 165.326135 
L 356.437745 165.714851 
L 356.924727 165.935663 
L 357.330545 166.253845 
L 357.6552 166.373336 
L 358.196291 166.834061 
L 358.3992 166.960341 
L 358.798255 167.269694 
L 361.152 167.394097 
L 362.470909 167.66018 
L 362.998473 167.915883 
L 363.194618 168.059582 
L 363.627491 168.459396 
L 363.8304 168.568665 
L 364.310618 169.025372 
L 364.506764 169.157168 
L 364.878764 169.451296 
L 365.115491 169.559939 
L 365.494255 169.80706 
L 365.812145 169.918858 
L 366.231491 170.030272 
L 366.704945 170.160097 
L 367.191927 170.593601 
L 367.3272 170.788168 
L 367.780364 171.618981 
L 367.976509 171.72713 
L 368.646109 172.448042 
L 368.849018 172.583255 
L 369.498327 173.29076 
L 369.653891 173.541202 
L 369.998836 174.094364 
L 370.330255 174.225585 
L 370.654909 174.312728 
L 372.230836 174.460036 
L 372.853091 174.856305 
L 373.225091 175.401517 
L 373.373891 175.503785 
L 373.549745 176.06703 
L 373.813527 176.673261 
L 374.077309 176.842629 
L 374.6184 177.683191 
L 374.882182 177.794128 
L 375.4368 178.271858 
L 375.869673 178.387254 
L 376.640727 179.305018 
L 377.019491 180.233064 
L 377.188582 180.343108 
L 377.350909 180.908285 
L 377.648509 181.776487 
L 377.844655 181.919943 
L 378.013745 182.667221 
L 378.257236 183.392674 
L 378.426327 183.51513 
L 378.602182 184.244628 
L 378.832145 184.808135 
L 379.028291 184.932855 
L 379.643782 185.954272 
L 380.191636 186.477858 
L 381.043855 186.66105 
L 381.327927 186.777123 
L 381.510545 186.896157 
L 381.997527 187.429964 
L 382.173382 187.559677 
L 382.585964 187.95011 
L 382.842982 188.056255 
L 383.194691 188.234155 
L 383.472 188.345944 
L 383.830473 188.490829 
L 384.053673 188.598709 
L 384.8112 189.734028 
L 385.149382 190.725643 
L 385.359055 190.868207 
L 385.514618 191.528316 
L 385.879855 193.031166 
L 386.082764 193.175206 
L 386.245091 193.864639 
L 386.617091 195.372561 
L 386.921455 195.673621 
L 387.097309 196.745716 
L 387.394909 198.290798 
L 387.536945 198.42383 
L 387.645164 199.1924 
L 388.125382 203.364018 
L 388.2336 204.363251 
L 388.666473 209.046133 
L 388.747636 209.265275 
L 388.9032 210.618867 
L 389.180509 212.453879 
L 389.505164 212.824575 
L 389.768945 213.217723 
L 390.438545 213.401698 
L 390.709091 213.528942 
L 390.830836 213.659724 
L 391.013455 214.353422 
L 391.243418 214.869085 
L 391.412509 214.980313 
L 391.561309 215.592357 
L 391.913018 217.000458 
L 392.115927 217.159887 
L 392.271491 217.928905 
L 392.582618 219.278109 
L 392.758473 219.410936 
L 392.927564 220.16998 
L 393.157527 220.820865 
L 393.340145 220.953582 
L 393.793309 221.726797 
L 393.928582 222.153793 
L 394.205891 222.88798 
L 394.347927 222.997505 
L 394.489964 223.620968 
L 394.801091 224.82053 
L 395.071636 225.0162 
L 395.315127 225.841126 
L 395.646545 226.708837 
L 395.883273 226.912863 
L 396.018545 227.77958 
L 396.437891 230.781119 
L 396.519055 230.901125 
L 396.620509 231.654161 
L 396.796364 235.068302 
L 397.060145 238.950859 
L 397.175127 239.099744 
L 397.276582 240.168355 
L 397.438909 244.84684 
L 397.770327 253.828943 
L 397.837964 253.926683 
L 397.925891 254.772763 
L 398.081455 259.004614 
L 398.324945 272.608125 
L 398.473745 292.442555 
L 398.480509 295.488 
L 398.480509 295.488 
" clip-path="url(#pb53cc881ab)" style="fill: none; stroke: #1f77b4; stroke-width: 1.5; stroke-linecap: square"/>
   </g>
   <g id="line2d_16">
    <path d="M 140.170473 61.604988 
L 341.503636 158.017027 
" clip-path="url(#pb53cc881ab)" style="fill: none; stroke-dasharray: 5.55,2.4; stroke-dashoffset: 0; stroke: #ff7f0e; stroke-width: 1.5"/>
   </g>
   <g id="line2d_17">
    <path d="M 73.832727 149.982486 
L 398.487273 149.982486 
L 398.487273 149.982486 
" clip-path="url(#pb53cc881ab)" style="fill: none; stroke-dasharray: 5.55,2.4; stroke-dashoffset: 0; stroke: #2ca02c; stroke-width: 1.5"/>
   </g>
   <g id="LineCollection_1">
    <path d="M 341.503636 295.488 
L 341.503636 53.568 
" clip-path="url(#pb53cc881ab)" style="fill: none; stroke-dasharray: 5.55,2.4; stroke-dashoffset: 0; stroke: #1f77b4; stroke-width: 1.5"/>
   </g>
   <g id="patch_3">
    <path d="M 57.6 307.584 
L 57.6 41.472 
" style="fill: none; stroke: #000000; stroke-width: 0.8; stroke-linejoin: miter; stroke-linecap: square"/>
   </g>
   <g id="patch_4">
    <path d="M 414.72 307.584 
L 414.72 41.472 
" style="fill: none; stroke: #000000; stroke-width: 0.8; stroke-linejoin: miter; stroke-linecap: square"/>
   </g>
   <g id="patch_5">
    <path d="M 57.6 307.584 
L 414.72 307.584 
" style="fill: none; stroke: #000000; stroke-width: 0.8; stroke-linejoin: miter; stroke-linecap: square"/>
   </g>
   <g id="patch_6">
    <path d="M 57.6 41.472 
L 414.72 41.472 
" style="fill: none; stroke: #000000; stroke-width: 0.8; stroke-linejoin: miter; stroke-linecap: square"/>
   </g>
   <g id="text_15">
    <!-- Energy Decay - 250 Hz -->
    <g transform="translate(167.4075 35.472) scale(0.12 -0.12)">
     <defs>
      <path id="DejaVuSans-45" d="M 628 4666 
L 3578 4666 
L 3578 4134 
L 1259 4134 
L 1259 2753 
L 3481 2753 
L 3481 2222 
L 1259 2222 
L 1259 531 
L 3634 531 
L 3634 0 
L 628 0 
L 628 4666 
z
" transform="scale(0.015625)"/>
      <path id="DejaVuSans-6e" d="M 3513 2113 
L 3513 0 
L 2938 0 
L 2938 2094 
Q 2938 2591 2744 2837 
Q 2550 3084 2163 3084 
Q 1697 3084 1428 2787 
Q 1159 2491 1159 1978 
L 1159 0 
L 581 0 
L 581 3500 
L 1159 3500 
L 1159 2956 
Q 1366 3272 1645 3428 
Q 1925 3584 2291 3584 
Q 2894 3584 3203 3211 
Q 3513 2838 3513 2113 
z
" transform="scale(0.015625)"/>
      <path id="DejaVuSans-65" d="M 3597 1894 
L 3597 1613 
L 953 1613 
Q 991 1019 1311 708 
Q 1631 397 2203 397 
Q 2534 397 2845 478 
Q 3156 559 3463 722 
L 3463 178 
Q 3153 47 2828 -22 
Q 2503 -91 2169 -91 
Q 1331 -91 842 396 
Q 353 884 353 1716 
Q 353 2575 817 3079 
Q 1281 3584 2069 3584 
Q 2775 3584 3186 3129 
Q 3597 2675 3597 1894 
z
M 3022 2063 
Q 3016 2534 2758 2815 
Q 2500 3097 2075 3097 
Q 1594 3097 1305 2825 
Q 1016 2553 972 2059 
L 3022 2063 
z
" transform="scale(0.015625)"/>
      <path id="DejaVuSans-72" d="M 2631 2963 
Q 2534 3019 2420 3045 
Q 2306 3072 2169 3072 
Q 1681 3072 1420 2755 
Q 1159 2438 1159 1844 
L 1159 0 
L 581 0 
L 581 3500 
L 1159 3500 
L 1159 2956 
Q 1341 3275 1631 3429 
Q 1922 3584 2338 3584 
Q 2397 3584 2469 3576 
Q 2541 3569 2628 3553 
L 2631 2963 
z
" transform="scale(0.015625)"/>
      <path id="DejaVuSans-67" d="M 2906 1791 
Q 2906 2416 2648 2759 
Q 2391 3103 1925 3103 
Q 1463 3103 1205 2759 
Q 947 2416 947 1791 
Q 947 1169 1205 825 
Q 1463 481 1925 481 
Q 2391 481 2648 825 
Q 2906 1169 2906 1791 
z
M 3481 434 
Q 3481 -459 3084 -895 
Q 2688 -1331 1869 -1331 
Q 1566 -1331 1297 -1286 
Q 1028 -1241 775 -1147 
L 775 -588 
Q 1028 -725 1275 -790 
Q 1522 -856 1778 -856 
Q 2344 -856 2625 -561 
Q 2906 -266 2906 331 
L 2906 616 
Q 2728 306 2450 153 
Q 2172 0 1784 0 
Q 1141 0 747 490 
Q 353 981 353 1791 
Q 353 2603 747 3093 
Q 1141 3584 1784 3584 
Q 2172 3584 2450 3431 
Q 2728 3278 2906 2969 
L 2906 3500 
L 3481 3500 
L 3481 434 
z
" transform="scale(0.015625)"/>
      <path id="DejaVuSans-79" d="M 2059 -325 
Q 1816 -950 1584 -1140 
Q 1353 -1331 966 -1331 
L 506 -1331 
L 506 -850 
L 844 -850 
Q 1081 -850 1212 -737 
Q 1344 -625 1503 -206 
L 1606 56 
L 191 3500 
L 800 3500 
L 1894 763 
L 2988 3500 
L 3597 3500 
L 2059 -325 
z
" transform="scale(0.015625)"/>
      <path id="DejaVuSans-20" transform="scale(0.015625)"/>
      <path id="DejaVuSans-44" d="M 1259 4147 
L 1259 519 
L 2022 519 
Q 2988 519 3436 956 
Q 3884 1394 3884 2338 
Q 3884 3275 3436 3711 
Q 2988 4147 2022 4147 
L 1259 4147 
z
M 628 4666 
L 1925 4666 
Q 3281 4666 3915 4102 
Q 4550 3538 4550 2338 
Q 4550 1131 3912 565 
Q 3275 0 1925 0 
L 628 0 
L 628 4666 
z
" transform="scale(0.015625)"/>
      <path id="DejaVuSans-63" d="M 3122 3366 
L 3122 2828 
Q 2878 2963 2633 3030 
Q 2388 3097 2138 3097 
Q 1578 3097 1268 2742 
Q 959 2388 959 1747 
Q 959 1106 1268 751 
Q 1578 397 2138 397 
Q 2388 397 2633 464 
Q 2878 531 3122 666 
L 3122 134 
Q 2881 22 2623 -34 
Q 2366 -91 2075 -91 
Q 1284 -91 818 406 
Q 353 903 353 1747 
Q 353 2603 823 3093 
Q 1294 3584 2113 3584 
Q 2378 3584 2631 3529 
Q 2884 3475 3122 3366 
z
" transform="scale(0.015625)"/>
      <path id="DejaVuSans-61" d="M 2194 1759 
Q 1497 1759 1228 1600 
Q 959 1441 959 1056 
Q 959 750 1161 570 
Q 1363 391 1709 391 
Q 2188 391 2477 730 
Q 2766 1069 2766 1631 
L 2766 1759 
L 2194 1759 
z
M 3341 1997 
L 3341 0 
L 2766 0 
L 2766 531 
Q 2569 213 2275 61 
Q 1981 -91 1556 -91 
Q 1019 -91 701 211 
Q 384 513 384 1019 
Q 384 1609 779 1909 
Q 1175 2209 1959 2209 
L 2766 2209 
L 2766 2266 
Q 2766 2663 2505 2880 
Q 2244 3097 1772 3097 
Q 1472 3097 1187 3025 
Q 903 2953 641 2809 
L 641 3341 
Q 956 3463 1253 3523 
Q 1550 3584 1831 3584 
Q 2591 3584 2966 3190 
Q 3341 2797 3341 1997 
z
" transform="scale(0.015625)"/>
      <path id="DejaVuSans-2d" d="M 313 2009 
L 1997 2009 
L 1997 1497 
L 313 1497 
L 313 2009 
z
" transform="scale(0.015625)"/>
      <path id="DejaVuSans-35" d="M 691 4666 
L 3169 4666 
L 3169 4134 
L 1269 4134 
L 1269 2991 
Q 1406 3038 1543 3061 
Q 1681 3084 1819 3084 
Q 2600 3084 3056 2656 
Q 3513 2228 3513 1497 
Q 3513 744 3044 326 
Q 2575 -91 1722 -91 
Q 1428 -91 1123 -41 
Q 819 9 494 109 
L 494 744 
Q 775 591 1075 516 
Q 1375 441 1709 441 
Q 2250 441 2565 725 
Q 2881 1009 2881 1497 
Q 2881 1984 2565 2268 
Q 2250 2553 1709 2553 
Q 1456 2553 1204 2497 
Q 953 2441 691 2322 
L 691 4666 
z
" transform="scale(0.015625)"/>
      <path id="DejaVuSans-48" d="M 628 4666 
L 1259 4666 
L 1259 2753 
L 3553 2753 
L 3553 4666 
L 4184 4666 
L 4184 0 
L 3553 0 
L 3553 2222 
L 1259 2222 
L 1259 0 
L 628 0 
L 628 4666 
z
" transform="scale(0.015625)"/>
      <path id="DejaVuSans-7a" d="M 353 3500 
L 3084 3500 
L 3084 2975 
L 922 459 
L 3084 459 
L 3084 0 
L 275 0 
L 275 525 
L 2438 3041 
L 353 3041 
L 353 3500 
z
" transform="scale(0.015625)"/>
     </defs>
     <use xlink:href="#DejaVuSans-45"/>
     <use xlink:href="#DejaVuSans-6e" transform="translate(63.183594 0)"/>
     <use xlink:href="#DejaVuSans-65" transform="translate(126.5625 0)"/>
     <use xlink:href="#DejaVuSans-72" transform="translate(188.085938 0)"/>
     <use xlink:href="#DejaVuSans-67" transform="translate(227.449219 0)"/>
     <use xlink:href="#DejaVuSans-79" transform="translate(290.925781 0)"/>
     <use xlink:href="#DejaVuSans-20" transform="translate(350.105469 0)"/>
     <use xlink:href="#DejaVuSans-44" transform="translate(381.892578 0)"/>
     <use xlink:href="#DejaVuSans-65" transform="translate(458.894531 0)"/>
     <use xlink:href="#DejaVuSans-63" transform="translate(520.417969 0)"/>
     <use xlink:href="#DejaVuSans-61" transform="translate(575.398438 0)"/>
     <use xlink:href="#DejaVuSans-79" transform="translate(636.677734 0)"/>
     <use xlink:href="#DejaVuSans-20" transform="translate(695.857422 0)"/>
     <use xlink:href="#DejaVuSans-2d" transform="translate(727.644531 0)"/>
     <use xlink:href="#DejaVuSans-20" transform="translate(763.728516 0)"/>
     <use xlink:href="#DejaVuSans-32" transform="translate(795.515625 0)"/>
     <use xlink:href="#DejaVuSans-35" transform="translate(859.138672 0)"/>
     <use xlink:href="#DejaVuSans-30" transform="translate(922.761719 0)"/>
     <use xlink:href="#DejaVuSans-20" transform="translate(986.384766 0)"/>
     <use xlink:href="#DejaVuSans-48" transform="translate(1018.171875 0)"/>
     <use xlink:href="#DejaVuSans-7a" transform="translate(1093.367188 0)"/>
    </g>
   </g>
   <g id="legend_1">
    <g id="patch_7">
     <path d="M 296.968437 108.1845 
L 407.72 108.1845 
Q 409.72 108.1845 409.72 106.1845 
L 409.72 48.472 
Q 409.72 46.472 407.72 46.472 
L 296.968437 46.472 
Q 294.968437 46.472 294.968437 48.472 
L 294.968437 106.1845 
Q 294.968437 108.1845 296.968437 108.1845 
z
" style="fill: #ffffff; opacity: 0.8; stroke: #cccccc; stroke-linejoin: miter"/>
    </g>
    <g id="line2d_18">
     <path d="M 298.968437 54.570438 
L 308.968437 54.570438 
L 318.968437 54.570438 
" style="fill: none; stroke: #1f77b4; stroke-width: 1.5; stroke-linecap: square"/>
    </g>
    <g id="text_16">
     <!-- Energy -->
     <g transform="translate(326.968437 58.070438) scale(0.1 -0.1)">
      <use xlink:href="#DejaVuSans-45"/>
      <use xlink:href="#DejaVuSans-6e" transform="translate(63.183594 0)"/>
      <use xlink:href="#DejaVuSans-65" transform="translate(126.5625 0)"/>
      <use xlink:href="#DejaVuSans-72" transform="translate(188.085938 0)"/>
      <use xlink:href="#DejaVuSans-67" transform="translate(227.449219 0)"/>
      <use xlink:href="#DejaVuSans-79" transform="translate(290.925781 0)"/>
     </g>
    </g>
    <g id="line2d_19">
     <path d="M 298.968437 69.248563 
L 308.968437 69.248563 
L 318.968437 69.248563 
" style="fill: none; stroke-dasharray: 5.55,2.4; stroke-dashoffset: 0; stroke: #ff7f0e; stroke-width: 1.5"/>
    </g>
    <g id="text_17">
     <!-- Linear Fit -->
     <g transform="translate(326.968437 72.748563) scale(0.1 -0.1)">
      <defs>
       <path id="DejaVuSans-4c" d="M 628 4666 
L 1259 4666 
L 1259 531 
L 3531 531 
L 3531 0 
L 628 0 
L 628 4666 
z
" transform="scale(0.015625)"/>
       <path id="DejaVuSans-69" d="M 603 3500 
L 1178 3500 
L 1178 0 
L 603 0 
L 603 3500 
z
M 603 4863 
L 1178 4863 
L 1178 4134 
L 603 4134 
L 603 4863 
z
" transform="scale(0.015625)"/>
       <path id="DejaVuSans-46" d="M 628 4666 
L 3309 4666 
L 3309 4134 
L 1259 4134 
L 1259 2759 
L 3109 2759 
L 3109 2228 
L 1259 2228 
L 1259 0 
L 628 0 
L 628 4666 
z
" transform="scale(0.015625)"/>
       <path id="DejaVuSans-74" d="M 1172 4494 
L 1172 3500 
L 2356 3500 
L 2356 3053 
L 1172 3053 
L 1172 1153 
Q 1172 725 1289 603 
Q 1406 481 1766 481 
L 2356 481 
L 2356 0 
L 1766 0 
Q 1100 0 847 248 
Q 594 497 594 1153 
L 594 3053 
L 172 3053 
L 172 3500 
L 594 3500 
L 594 4494 
L 1172 4494 
z
" transform="scale(0.015625)"/>
      </defs>
      <use xlink:href="#DejaVuSans-4c"/>
      <use xlink:href="#DejaVuSans-69" transform="translate(55.712891 0)"/>
      <use xlink:href="#DejaVuSans-6e" transform="translate(83.496094 0)"/>
      <use xlink:href="#DejaVuSans-65" transform="translate(146.875 0)"/>
      <use xlink:href="#DejaVuSans-61" transform="translate(208.398438 0)"/>
      <use xlink:href="#DejaVuSans-72" transform="translate(269.677734 0)"/>
      <use xlink:href="#DejaVuSans-20" transform="translate(310.791016 0)"/>
      <use xlink:href="#DejaVuSans-46" transform="translate(342.578125 0)"/>
      <use xlink:href="#DejaVuSans-69" transform="translate(392.847656 0)"/>
      <use xlink:href="#DejaVuSans-74" transform="translate(420.630859 0)"/>
     </g>
    </g>
    <g id="line2d_20">
     <path d="M 298.968437 83.926688 
L 308.968437 83.926688 
L 318.968437 83.926688 
" style="fill: none; stroke-dasharray: 5.55,2.4; stroke-dashoffset: 0; stroke: #2ca02c; stroke-width: 1.5"/>
    </g>
    <g id="text_18">
     <!-- -60 dB -->
     <g transform="translate(326.968437 87.426688) scale(0.1 -0.1)">
      <defs>
       <path id="DejaVuSans-64" d="M 2906 2969 
L 2906 4863 
L 3481 4863 
L 3481 0 
L 2906 0 
L 2906 525 
Q 2725 213 2448 61 
Q 2172 -91 1784 -91 
Q 1150 -91 751 415 
Q 353 922 353 1747 
Q 353 2572 751 3078 
Q 1150 3584 1784 3584 
Q 2172 3584 2448 3432 
Q 2725 3281 2906 2969 
z
M 947 1747 
Q 947 1113 1208 752 
Q 1469 391 1925 391 
Q 2381 391 2643 752 
Q 2906 1113 2906 1747 
Q 2906 2381 2643 2742 
Q 2381 3103 1925 3103 
Q 1469 3103 1208 2742 
Q 947 2381 947 1747 
z
" transform="scale(0.015625)"/>
       <path id="DejaVuSans-42" d="M 1259 2228 
L 1259 519 
L 2272 519 
Q 2781 519 3026 730 
Q 3272 941 3272 1375 
Q 3272 1813 3026 2020 
Q 2781 2228 2272 2228 
L 1259 2228 
z
M 1259 4147 
L 1259 2741 
L 2194 2741 
Q 2656 2741 2882 2914 
Q 3109 3088 3109 3444 
Q 3109 3797 2882 3972 
Q 2656 4147 2194 4147 
L 1259 4147 
z
M 628 4666 
L 2241 4666 
Q 2963 4666 3353 4366 
Q 3744 4066 3744 3513 
Q 3744 3084 3544 2831 
Q 3344 2578 2956 2516 
Q 3422 2416 3680 2098 
Q 3938 1781 3938 1306 
Q 3938 681 3513 340 
Q 3088 0 2303 0 
L 628 0 
L 628 4666 
z
" transform="scale(0.015625)"/>
      </defs>
      <use xlink:href="#DejaVuSans-2d"/>
      <use xlink:href="#DejaVuSans-36" transform="translate(36.083984 0)"/>
      <use xlink:href="#DejaVuSans-30" transform="translate(99.707031 0)"/>
      <use xlink:href="#DejaVuSans-20" transform="translate(163.330078 0)"/>
      <use xlink:href="#DejaVuSans-64" transform="translate(195.117188 0)"/>
      <use xlink:href="#DejaVuSans-42" transform="translate(258.59375 0)"/>
     </g>
    </g>
    <g id="line2d_21">
     <path d="M 298.968437 98.604813 
L 318.968437 98.604813 
" style="fill: none; stroke-dasharray: 5.55,2.4; stroke-dashoffset: 0; stroke: #1f77b4; stroke-width: 1.5"/>
    </g>
    <g id="text_19">
     <!-- Estimated RT60 -->
     <g transform="translate(326.968437 102.104813) scale(0.1 -0.1)">
      <defs>
       <path id="DejaVuSans-73" d="M 2834 3397 
L 2834 2853 
Q 2591 2978 2328 3040 
Q 2066 3103 1784 3103 
Q 1356 3103 1142 2972 
Q 928 2841 928 2578 
Q 928 2378 1081 2264 
Q 1234 2150 1697 2047 
L 1894 2003 
Q 2506 1872 2764 1633 
Q 3022 1394 3022 966 
Q 3022 478 2636 193 
Q 2250 -91 1575 -91 
Q 1294 -91 989 -36 
Q 684 19 347 128 
L 347 722 
Q 666 556 975 473 
Q 1284 391 1588 391 
Q 1994 391 2212 530 
Q 2431 669 2431 922 
Q 2431 1156 2273 1281 
Q 2116 1406 1581 1522 
L 1381 1569 
Q 847 1681 609 1914 
Q 372 2147 372 2553 
Q 372 3047 722 3315 
Q 1072 3584 1716 3584 
Q 2034 3584 2315 3537 
Q 2597 3491 2834 3397 
z
" transform="scale(0.015625)"/>
       <path id="DejaVuSans-6d" d="M 3328 2828 
Q 3544 3216 3844 3400 
Q 4144 3584 4550 3584 
Q 5097 3584 5394 3201 
Q 5691 2819 5691 2113 
L 5691 0 
L 5113 0 
L 5113 2094 
Q 5113 2597 4934 2840 
Q 4756 3084 4391 3084 
Q 3944 3084 3684 2787 
Q 3425 2491 3425 1978 
L 3425 0 
L 2847 0 
L 2847 2094 
Q 2847 2600 2669 2842 
Q 2491 3084 2119 3084 
Q 1678 3084 1418 2786 
Q 1159 2488 1159 1978 
L 1159 0 
L 581 0 
L 581 3500 
L 1159 3500 
L 1159 2956 
Q 1356 3278 1631 3431 
Q 1906 3584 2284 3584 
Q 2666 3584 2933 3390 
Q 3200 3197 3328 2828 
z
" transform="scale(0.015625)"/>
       <path id="DejaVuSans-52" d="M 2841 2188 
Q 3044 2119 3236 1894 
Q 3428 1669 3622 1275 
L 4263 0 
L 3584 0 
L 2988 1197 
Q 2756 1666 2539 1819 
Q 2322 1972 1947 1972 
L 1259 1972 
L 1259 0 
L 628 0 
L 628 4666 
L 2053 4666 
Q 2853 4666 3247 4331 
Q 3641 3997 3641 3322 
Q 3641 2881 3436 2590 
Q 3231 2300 2841 2188 
z
M 1259 4147 
L 1259 2491 
L 2053 2491 
Q 2509 2491 2742 2702 
Q 2975 2913 2975 3322 
Q 2975 3731 2742 3939 
Q 2509 4147 2053 4147 
L 1259 4147 
z
" transform="scale(0.015625)"/>
       <path id="DejaVuSans-54" d="M -19 4666 
L 3928 4666 
L 3928 4134 
L 2272 4134 
L 2272 0 
L 1638 0 
L 1638 4134 
L -19 4134 
L -19 4666 
z
" transform="scale(0.015625)"/>
      </defs>
      <use xlink:href="#DejaVuSans-45"/>
      <use xlink:href="#DejaVuSans-73" transform="translate(63.183594 0)"/>
      <use xlink:href="#DejaVuSans-74" transform="translate(115.283203 0)"/>
      <use xlink:href="#DejaVuSans-69" transform="translate(154.492188 0)"/>
      <use xlink:href="#DejaVuSans-6d" transform="translate(182.275391 0)"/>
      <use xlink:href="#DejaVuSans-61" transform="translate(279.6875 0)"/>
      <use xlink:href="#DejaVuSans-74" transform="translate(340.966797 0)"/>
      <use xlink:href="#DejaVuSans-65" transform="translate(380.175781 0)"/>
      <use xlink:href="#DejaVuSans-64" transform="translate(441.699219 0)"/>
      <use xlink:href="#DejaVuSans-20" transform="translate(505.175781 0)"/>
      <use xlink:href="#DejaVuSans-52" transform="translate(536.962891 0)"/>
      <use xlink:href="#DejaVuSans-54" transform="translate(599.195312 0)"/>
      <use xlink:href="#DejaVuSans-36" transform="translate(660.279297 0)"/>
      <use xlink:href="#DejaVuSans-30" transform="translate(723.902344 0)"/>
     </g>
    </g>
   </g>
  </g>
 </g>
 <defs>
  <clipPath id="pb53cc881ab">
   <rect x="57.6" y="41.472" width="357.12" height="266.112"/>
  </clipPath>
 </defs>
</svg>
