<?xml version="1.0" encoding="utf-8" standalone="no"?>
<!DOCTYPE svg PUBLIC "-//W3C//DTD SVG 1.1//EN"
  "http://www.w3.org/Graphics/SVG/1.1/DTD/svg11.dtd">
<svg xmlns:xlink="http://www.w3.org/1999/xlink" width="460.8pt" height="345.6pt" viewBox="0 0 460.8 345.6" xmlns="http://www.w3.org/2000/svg" version="1.1">
 <metadata>
  <rdf:RDF xmlns:dc="http://purl.org/dc/elements/1.1/" xmlns:cc="http://creativecommons.org/ns#" xmlns:rdf="http://www.w3.org/1999/02/22-rdf-syntax-ns#">
   <cc:Work>
    <dc:type rdf:resource="http://purl.org/dc/dcmitype/StillImage"/>
    <dc:date>2025-05-07T11:00:40.279402</dc:date>
    <dc:format>image/svg+xml</dc:format>
    <dc:creator>
     <cc:Agent>
      <dc:title>Matplotlib v3.10.1, https://matplotlib.org/</dc:title>
     </cc:Agent>
    </dc:creator>
   </cc:Work>
  </rdf:RDF>
 </metadata>
 <defs>
  <style type="text/css">*{stroke-linejoin: round; stroke-linecap: butt}</style>
 </defs>
 <g id="figure_1">
  <g id="patch_1">
   <path d="M 0 345.6 
L 460.8 345.6 
L 460.8 0 
L 0 0 
z
" style="fill: #ffffff"/>
  </g>
  <g id="axes_1">
   <g id="patch_2">
    <path d="M 57.6 307.584 
L 414.72 307.584 
L 414.72 41.472 
L 57.6 41.472 
z
" style="fill: #ffffff"/>
   </g>
   <g id="matplotlib.axis_1">
    <g id="xtick_1">
     <g id="line2d_1">
      <defs>
       <path id="mbd6dc5ddcd" d="M 0 0 
L 0 3.5 
" style="stroke: #000000; stroke-width: 0.8"/>
      </defs>
      <g>
       <use xlink:href="#mbd6dc5ddcd" x="80.46724" y="307.584" style="stroke: #000000; stroke-width: 0.8"/>
      </g>
     </g>
     <g id="text_1">
      <!-- −0.2 -->
      <g transform="translate(68.325833 322.182437) scale(0.1 -0.1)">
       <defs>
        <path id="DejaVuSans-2212" d="M 678 2272 
L 4684 2272 
L 4684 1741 
L 678 1741 
L 678 2272 
z
" transform="scale(0.015625)"/>
        <path id="DejaVuSans-30" d="M 2034 4250 
Q 1547 4250 1301 3770 
Q 1056 3291 1056 2328 
Q 1056 1369 1301 889 
Q 1547 409 2034 409 
Q 2525 409 2770 889 
Q 3016 1369 3016 2328 
Q 3016 3291 2770 3770 
Q 2525 4250 2034 4250 
z
M 2034 4750 
Q 2819 4750 3233 4129 
Q 3647 3509 3647 2328 
Q 3647 1150 3233 529 
Q 2819 -91 2034 -91 
Q 1250 -91 836 529 
Q 422 1150 422 2328 
Q 422 3509 836 4129 
Q 1250 4750 2034 4750 
z
" transform="scale(0.015625)"/>
        <path id="DejaVuSans-2e" d="M 684 794 
L 1344 794 
L 1344 0 
L 684 0 
L 684 794 
z
" transform="scale(0.015625)"/>
        <path id="DejaVuSans-32" d="M 1228 531 
L 3431 531 
L 3431 0 
L 469 0 
L 469 531 
Q 828 903 1448 1529 
Q 2069 2156 2228 2338 
Q 2531 2678 2651 2914 
Q 2772 3150 2772 3378 
Q 2772 3750 2511 3984 
Q 2250 4219 1831 4219 
Q 1534 4219 1204 4116 
Q 875 4013 500 3803 
L 500 4441 
Q 881 4594 1212 4672 
Q 1544 4750 1819 4750 
Q 2544 4750 2975 4387 
Q 3406 4025 3406 3419 
Q 3406 3131 3298 2873 
Q 3191 2616 2906 2266 
Q 2828 2175 2409 1742 
Q 1991 1309 1228 531 
z
" transform="scale(0.015625)"/>
       </defs>
       <use xlink:href="#DejaVuSans-2212"/>
       <use xlink:href="#DejaVuSans-30" transform="translate(83.789062 0)"/>
       <use xlink:href="#DejaVuSans-2e" transform="translate(147.412109 0)"/>
       <use xlink:href="#DejaVuSans-32" transform="translate(179.199219 0)"/>
      </g>
     </g>
    </g>
    <g id="xtick_2">
     <g id="line2d_2">
      <g>
       <use xlink:href="#mbd6dc5ddcd" x="139.495339" y="307.584" style="stroke: #000000; stroke-width: 0.8"/>
      </g>
     </g>
     <g id="text_2">
      <!-- 0.0 -->
      <g transform="translate(131.543776 322.182437) scale(0.1 -0.1)">
       <use xlink:href="#DejaVuSans-30"/>
       <use xlink:href="#DejaVuSans-2e" transform="translate(63.623047 0)"/>
       <use xlink:href="#DejaVuSans-30" transform="translate(95.410156 0)"/>
      </g>
     </g>
    </g>
    <g id="xtick_3">
     <g id="line2d_3">
      <g>
       <use xlink:href="#mbd6dc5ddcd" x="198.523438" y="307.584" style="stroke: #000000; stroke-width: 0.8"/>
      </g>
     </g>
     <g id="text_3">
      <!-- 0.2 -->
      <g transform="translate(190.571876 322.182437) scale(0.1 -0.1)">
       <use xlink:href="#DejaVuSans-30"/>
       <use xlink:href="#DejaVuSans-2e" transform="translate(63.623047 0)"/>
       <use xlink:href="#DejaVuSans-32" transform="translate(95.410156 0)"/>
      </g>
     </g>
    </g>
    <g id="xtick_4">
     <g id="line2d_4">
      <g>
       <use xlink:href="#mbd6dc5ddcd" x="257.551537" y="307.584" style="stroke: #000000; stroke-width: 0.8"/>
      </g>
     </g>
     <g id="text_4">
      <!-- 0.4 -->
      <g transform="translate(249.599975 322.182437) scale(0.1 -0.1)">
       <defs>
        <path id="DejaVuSans-34" d="M 2419 4116 
L 825 1625 
L 2419 1625 
L 2419 4116 
z
M 2253 4666 
L 3047 4666 
L 3047 1625 
L 3713 1625 
L 3713 1100 
L 3047 1100 
L 3047 0 
L 2419 0 
L 2419 1100 
L 313 1100 
L 313 1709 
L 2253 4666 
z
" transform="scale(0.015625)"/>
       </defs>
       <use xlink:href="#DejaVuSans-30"/>
       <use xlink:href="#DejaVuSans-2e" transform="translate(63.623047 0)"/>
       <use xlink:href="#DejaVuSans-34" transform="translate(95.410156 0)"/>
      </g>
     </g>
    </g>
    <g id="xtick_5">
     <g id="line2d_5">
      <g>
       <use xlink:href="#mbd6dc5ddcd" x="316.579636" y="307.584" style="stroke: #000000; stroke-width: 0.8"/>
      </g>
     </g>
     <g id="text_5">
      <!-- 0.6 -->
      <g transform="translate(308.628074 322.182437) scale(0.1 -0.1)">
       <defs>
        <path id="DejaVuSans-36" d="M 2113 2584 
Q 1688 2584 1439 2293 
Q 1191 2003 1191 1497 
Q 1191 994 1439 701 
Q 1688 409 2113 409 
Q 2538 409 2786 701 
Q 3034 994 3034 1497 
Q 3034 2003 2786 2293 
Q 2538 2584 2113 2584 
z
M 3366 4563 
L 3366 3988 
Q 3128 4100 2886 4159 
Q 2644 4219 2406 4219 
Q 1781 4219 1451 3797 
Q 1122 3375 1075 2522 
Q 1259 2794 1537 2939 
Q 1816 3084 2150 3084 
Q 2853 3084 3261 2657 
Q 3669 2231 3669 1497 
Q 3669 778 3244 343 
Q 2819 -91 2113 -91 
Q 1303 -91 875 529 
Q 447 1150 447 2328 
Q 447 3434 972 4092 
Q 1497 4750 2381 4750 
Q 2619 4750 2861 4703 
Q 3103 4656 3366 4563 
z
" transform="scale(0.015625)"/>
       </defs>
       <use xlink:href="#DejaVuSans-30"/>
       <use xlink:href="#DejaVuSans-2e" transform="translate(63.623047 0)"/>
       <use xlink:href="#DejaVuSans-36" transform="translate(95.410156 0)"/>
      </g>
     </g>
    </g>
    <g id="xtick_6">
     <g id="line2d_6">
      <g>
       <use xlink:href="#mbd6dc5ddcd" x="375.607736" y="307.584" style="stroke: #000000; stroke-width: 0.8"/>
      </g>
     </g>
     <g id="text_6">
      <!-- 0.8 -->
      <g transform="translate(367.656173 322.182437) scale(0.1 -0.1)">
       <defs>
        <path id="DejaVuSans-38" d="M 2034 2216 
Q 1584 2216 1326 1975 
Q 1069 1734 1069 1313 
Q 1069 891 1326 650 
Q 1584 409 2034 409 
Q 2484 409 2743 651 
Q 3003 894 3003 1313 
Q 3003 1734 2745 1975 
Q 2488 2216 2034 2216 
z
M 1403 2484 
Q 997 2584 770 2862 
Q 544 3141 544 3541 
Q 544 4100 942 4425 
Q 1341 4750 2034 4750 
Q 2731 4750 3128 4425 
Q 3525 4100 3525 3541 
Q 3525 3141 3298 2862 
Q 3072 2584 2669 2484 
Q 3125 2378 3379 2068 
Q 3634 1759 3634 1313 
Q 3634 634 3220 271 
Q 2806 -91 2034 -91 
Q 1263 -91 848 271 
Q 434 634 434 1313 
Q 434 1759 690 2068 
Q 947 2378 1403 2484 
z
M 1172 3481 
Q 1172 3119 1398 2916 
Q 1625 2713 2034 2713 
Q 2441 2713 2670 2916 
Q 2900 3119 2900 3481 
Q 2900 3844 2670 4047 
Q 2441 4250 2034 4250 
Q 1625 4250 1398 4047 
Q 1172 3844 1172 3481 
z
" transform="scale(0.015625)"/>
       </defs>
       <use xlink:href="#DejaVuSans-30"/>
       <use xlink:href="#DejaVuSans-2e" transform="translate(63.623047 0)"/>
       <use xlink:href="#DejaVuSans-38" transform="translate(95.410156 0)"/>
      </g>
     </g>
    </g>
   </g>
   <g id="matplotlib.axis_2">
    <g id="ytick_1">
     <g id="line2d_7">
      <defs>
       <path id="mb90595de5e" d="M 0 0 
L -3.5 0 
" style="stroke: #000000; stroke-width: 0.8"/>
      </defs>
      <g>
       <use xlink:href="#mb90595de5e" x="57.6" y="290.306863" style="stroke: #000000; stroke-width: 0.8"/>
      </g>
     </g>
     <g id="text_7">
      <!-- −175 -->
      <g transform="translate(23.132812 294.106082) scale(0.1 -0.1)">
       <defs>
        <path id="DejaVuSans-31" d="M 794 531 
L 1825 531 
L 1825 4091 
L 703 3866 
L 703 4441 
L 1819 4666 
L 2450 4666 
L 2450 531 
L 3481 531 
L 3481 0 
L 794 0 
L 794 531 
z
" transform="scale(0.015625)"/>
        <path id="DejaVuSans-37" d="M 525 4666 
L 3525 4666 
L 3525 4397 
L 1831 0 
L 1172 0 
L 2766 4134 
L 525 4134 
L 525 4666 
z
" transform="scale(0.015625)"/>
        <path id="DejaVuSans-35" d="M 691 4666 
L 3169 4666 
L 3169 4134 
L 1269 4134 
L 1269 2991 
Q 1406 3038 1543 3061 
Q 1681 3084 1819 3084 
Q 2600 3084 3056 2656 
Q 3513 2228 3513 1497 
Q 3513 744 3044 326 
Q 2575 -91 1722 -91 
Q 1428 -91 1123 -41 
Q 819 9 494 109 
L 494 744 
Q 775 591 1075 516 
Q 1375 441 1709 441 
Q 2250 441 2565 725 
Q 2881 1009 2881 1497 
Q 2881 1984 2565 2268 
Q 2250 2553 1709 2553 
Q 1456 2553 1204 2497 
Q 953 2441 691 2322 
L 691 4666 
z
" transform="scale(0.015625)"/>
       </defs>
       <use xlink:href="#DejaVuSans-2212"/>
       <use xlink:href="#DejaVuSans-31" transform="translate(83.789062 0)"/>
       <use xlink:href="#DejaVuSans-37" transform="translate(147.412109 0)"/>
       <use xlink:href="#DejaVuSans-35" transform="translate(211.035156 0)"/>
      </g>
     </g>
    </g>
    <g id="ytick_2">
     <g id="line2d_8">
      <g>
       <use xlink:href="#mb90595de5e" x="57.6" y="256.487025" style="stroke: #000000; stroke-width: 0.8"/>
      </g>
     </g>
     <g id="text_8">
      <!-- −150 -->
      <g transform="translate(23.132812 260.286244) scale(0.1 -0.1)">
       <use xlink:href="#DejaVuSans-2212"/>
       <use xlink:href="#DejaVuSans-31" transform="translate(83.789062 0)"/>
       <use xlink:href="#DejaVuSans-35" transform="translate(147.412109 0)"/>
       <use xlink:href="#DejaVuSans-30" transform="translate(211.035156 0)"/>
      </g>
     </g>
    </g>
    <g id="ytick_3">
     <g id="line2d_9">
      <g>
       <use xlink:href="#mb90595de5e" x="57.6" y="222.667188" style="stroke: #000000; stroke-width: 0.8"/>
      </g>
     </g>
     <g id="text_9">
      <!-- −125 -->
      <g transform="translate(23.132812 226.466406) scale(0.1 -0.1)">
       <use xlink:href="#DejaVuSans-2212"/>
       <use xlink:href="#DejaVuSans-31" transform="translate(83.789062 0)"/>
       <use xlink:href="#DejaVuSans-32" transform="translate(147.412109 0)"/>
       <use xlink:href="#DejaVuSans-35" transform="translate(211.035156 0)"/>
      </g>
     </g>
    </g>
    <g id="ytick_4">
     <g id="line2d_10">
      <g>
       <use xlink:href="#mb90595de5e" x="57.6" y="188.84735" style="stroke: #000000; stroke-width: 0.8"/>
      </g>
     </g>
     <g id="text_10">
      <!-- −100 -->
      <g transform="translate(23.132812 192.646569) scale(0.1 -0.1)">
       <use xlink:href="#DejaVuSans-2212"/>
       <use xlink:href="#DejaVuSans-31" transform="translate(83.789062 0)"/>
       <use xlink:href="#DejaVuSans-30" transform="translate(147.412109 0)"/>
       <use xlink:href="#DejaVuSans-30" transform="translate(211.035156 0)"/>
      </g>
     </g>
    </g>
    <g id="ytick_5">
     <g id="line2d_11">
      <g>
       <use xlink:href="#mb90595de5e" x="57.6" y="155.027513" style="stroke: #000000; stroke-width: 0.8"/>
      </g>
     </g>
     <g id="text_11">
      <!-- −75 -->
      <g transform="translate(29.495313 158.826731) scale(0.1 -0.1)">
       <use xlink:href="#DejaVuSans-2212"/>
       <use xlink:href="#DejaVuSans-37" transform="translate(83.789062 0)"/>
       <use xlink:href="#DejaVuSans-35" transform="translate(147.412109 0)"/>
      </g>
     </g>
    </g>
    <g id="ytick_6">
     <g id="line2d_12">
      <g>
       <use xlink:href="#mb90595de5e" x="57.6" y="121.207675" style="stroke: #000000; stroke-width: 0.8"/>
      </g>
     </g>
     <g id="text_12">
      <!-- −50 -->
      <g transform="translate(29.495313 125.006894) scale(0.1 -0.1)">
       <use xlink:href="#DejaVuSans-2212"/>
       <use xlink:href="#DejaVuSans-35" transform="translate(83.789062 0)"/>
       <use xlink:href="#DejaVuSans-30" transform="translate(147.412109 0)"/>
      </g>
     </g>
    </g>
    <g id="ytick_7">
     <g id="line2d_13">
      <g>
       <use xlink:href="#mb90595de5e" x="57.6" y="87.387838" style="stroke: #000000; stroke-width: 0.8"/>
      </g>
     </g>
     <g id="text_13">
      <!-- −25 -->
      <g transform="translate(29.495313 91.187056) scale(0.1 -0.1)">
       <use xlink:href="#DejaVuSans-2212"/>
       <use xlink:href="#DejaVuSans-32" transform="translate(83.789062 0)"/>
       <use xlink:href="#DejaVuSans-35" transform="translate(147.412109 0)"/>
      </g>
     </g>
    </g>
    <g id="ytick_8">
     <g id="line2d_14">
      <g>
       <use xlink:href="#mb90595de5e" x="57.6" y="53.568" style="stroke: #000000; stroke-width: 0.8"/>
      </g>
     </g>
     <g id="text_14">
      <!-- 0 -->
      <g transform="translate(44.2375 57.367219) scale(0.1 -0.1)">
       <use xlink:href="#DejaVuSans-30"/>
      </g>
     </g>
    </g>
   </g>
   <g id="line2d_15">
    <path d="M 73.832727 53.568 
L 122.905983 53.678723 
L 123.213421 53.812651 
L 123.373289 53.94517 
L 123.908231 54.027021 
L 124.516959 54.145728 
L 125.088793 54.353528 
L 125.556099 54.470289 
L 125.795901 54.53937 
L 126.761256 54.986099 
L 126.933421 55.053256 
L 127.843438 55.295644 
L 128.218512 55.469893 
L 128.366083 55.599578 
L 128.722711 55.985283 
L 128.919471 56.166061 
L 129.103934 56.364643 
L 130.210711 56.591067 
L 130.419769 56.675227 
L 130.850182 56.83633 
L 131.643372 57.121783 
L 131.944661 57.316705 
L 132.135273 57.421417 
L 135.42486 58.774855 
L 135.707702 59.147909 
L 136.002843 59.258569 
L 136.261091 59.388089 
L 136.845223 59.531297 
L 137.638413 59.733819 
L 137.859769 59.821341 
L 138.056529 59.934293 
L 138.259438 59.990504 
L 138.775934 60.100909 
L 138.972694 60.265579 
L 139.581421 60.379312 
L 139.845818 60.522691 
L 140.067174 60.645862 
L 140.823471 60.861634 
L 141.100165 61.221113 
L 141.339967 61.415698 
L 141.733488 61.616635 
L 142.010182 61.733676 
L 142.200793 61.769552 
L 142.575868 61.928196 
L 142.680397 62.146677 
L 142.858711 62.359368 
L 143.080066 62.466387 
L 143.252231 62.582955 
L 143.793322 62.793819 
L 145.213686 63.196096 
L 145.779372 63.54663 
L 146.529521 63.660973 
L 147.624 63.877065 
L 147.82076 64.003448 
L 148.374149 64.134479 
L 148.730777 64.331488 
L 149.025917 64.592808 
L 149.302612 64.632803 
L 149.714579 64.761981 
L 149.923636 64.902567 
L 150.212628 65.026429 
L 151.577653 65.324227 
L 152.106446 65.769891 
L 152.272463 65.859061 
L 152.73362 66.128075 
L 152.875041 66.168276 
L 153.951074 66.43804 
L 154.129388 66.520913 
L 154.529058 66.647875 
L 154.879537 66.830192 
L 155.721917 67.016125 
L 155.986314 67.468066 
L 156.779504 67.999877 
L 156.963967 68.110055 
L 157.117686 68.165405 
L 157.39438 68.283928 
L 157.628033 68.525175 
L 157.837091 68.706511 
L 157.99081 68.77575 
L 159.42962 69.199891 
L 159.607934 69.374951 
L 160.17362 69.491005 
L 160.591736 69.732415 
L 160.763901 69.930819 
L 161.335736 70.040577 
L 161.876826 70.434063 
L 162.042843 70.479613 
L 162.288793 70.586042 
L 162.460959 70.632459 
L 162.891372 70.765488 
L 165.086479 72.271906 
L 165.449256 72.531057 
L 165.615273 72.659069 
L 166.46995 72.88677 
L 166.943405 72.999681 
L 167.11557 73.103287 
L 167.95795 73.212514 
L 168.185455 73.350145 
L 168.744992 73.530048 
L 168.941752 73.734813 
L 169.212298 73.855019 
L 169.390612 73.986587 
L 169.599669 74.096761 
L 169.753388 74.193208 
L 170.066975 74.330188 
L 170.343669 74.459451 
L 170.626512 74.643043 
L 170.792529 74.753637 
L 171.622612 75.123929 
L 172.108364 75.394437 
L 173.11676 75.56838 
L 173.977587 75.738335 
L 174.217388 75.810037 
L 174.580165 75.916027 
L 174.875306 76.2285 
L 175.410248 76.339175 
L 176.129653 76.629738 
L 176.307967 76.818428 
L 176.996628 76.970571 
L 177.390149 77.130293 
L 178.091107 77.338992 
L 178.343207 77.453005 
L 178.558413 77.534494 
L 178.878149 77.633877 
L 180.85805 78.289049 
L 181.030215 78.482845 
L 181.270017 78.601267 
L 182.733421 79.50936 
L 183.809455 79.66988 
L 184.03081 79.770519 
L 185.039207 80.047385 
L 185.315901 80.174156 
L 186.268959 80.51715 
L 186.705521 80.66267 
L 186.902281 80.739715 
L 187.388033 80.920537 
L 187.584793 81.2763 
L 189.177322 81.749222 
L 189.374083 81.854619 
L 189.816793 81.996147 
L 190.099636 82.196697 
L 190.474711 82.318562 
L 190.62843 82.385197 
L 190.751405 82.493594 
L 190.898975 82.552249 
L 191.151074 82.707217 
L 191.310942 82.794369 
L 191.642975 82.90253 
L 191.821289 82.971691 
L 192.079537 83.072845 
L 192.282446 83.202621 
L 192.651372 83.321495 
L 192.885025 83.384978 
L 193.272397 83.506697 
L 193.616727 83.775962 
L 193.985653 83.914752 
L 194.188562 83.99103 
L 194.575934 84.116608 
L 194.74195 84.173913 
L 195.09243 84.283666 
L 195.295339 84.513387 
L 197.601124 85.303797 
L 197.834777 85.43919 
L 197.927008 85.537772 
L 198.105322 85.668928 
L 198.935405 85.827207 
L 199.162909 85.967166 
L 200.036033 86.164602 
L 200.325025 86.277189 
L 201.862215 86.972374 
L 202.907504 87.252106 
L 203.331769 87.600178 
L 203.516231 87.716282 
L 203.700694 87.752569 
L 203.891306 87.85602 
L 204.112661 88.150915 
L 204.346314 88.264202 
L 204.549223 88.4091 
L 204.702942 88.577497 
L 205.354711 88.819227 
L 205.563769 89.086289 
L 205.926545 89.351068 
L 206.418446 89.604892 
L 207.076364 89.730029 
L 207.334612 89.811958 
L 207.599008 89.920263 
L 208.041719 90.093493 
L 208.810314 90.334196 
L 209.068562 90.476381 
L 209.892496 90.600028 
L 210.384397 90.76059 
L 210.61805 90.944743 
L 210.820959 90.991354 
L 211.952331 91.199496 
L 212.684033 91.900744 
L 212.868496 92.037547 
L 213.163636 92.168591 
L 214.516364 92.496127 
L 214.916033 92.745049 
L 215.198876 92.857011 
L 215.389488 92.900534 
L 216.852893 93.558607 
L 217.018909 93.635525 
L 217.812099 93.886596 
L 217.984264 93.996516 
L 218.150281 94.040837 
L 218.340893 94.157066 
L 218.636033 94.433239 
L 218.875835 94.451522 
L 219.453818 94.588016 
L 220.29005 95.002559 
L 220.929521 95.113621 
L 221.23081 95.238377 
L 222.681917 95.831045 
L 222.835636 95.949762 
L 223.075438 96.061569 
L 223.327537 96.133786 
L 224.077686 96.336527 
L 224.544992 96.454993 
L 226.162116 96.848207 
L 226.426512 96.910622 
L 226.844628 97.02376 
L 227.065983 97.129057 
L 227.859174 97.577849 
L 228.246545 97.702517 
L 228.344926 97.847039 
L 228.566281 97.984635 
L 229.636165 98.236143 
L 229.845223 98.285819 
L 230.380165 98.476363 
L 230.699901 98.594118 
L 231.388562 98.711137 
L 232.046479 99.225413 
L 232.200198 99.391959 
L 232.704397 99.669495 
L 233.220893 99.890903 
L 233.552926 100.011151 
L 234.948694 100.267171 
L 236.436694 100.545901 
L 236.80562 100.909794 
L 237.070017 101.086141 
L 237.488132 101.351094 
L 237.789421 101.782696 
L 238.035372 102.308055 
L 238.201388 102.395231 
L 238.865455 102.533506 
L 239.068364 102.610939 
L 239.529521 102.831474 
L 239.701686 102.916903 
L 240.17514 103.028051 
L 240.47643 103.052791 
L 241.300364 103.258922 
L 241.478678 103.354628 
L 242.388694 103.594584 
L 242.61005 103.664898 
L 243.040463 103.817059 
L 243.440132 104.12349 
L 243.741421 104.217161 
L 244.214876 104.460895 
L 244.405488 104.649592 
L 244.872793 104.889877 
L 245.118744 105.009278 
L 245.702876 105.248998 
L 246.02876 105.847163 
L 246.37924 106.005689 
L 246.551405 106.173065 
L 247.203174 106.31417 
L 247.479868 106.356711 
L 248.61124 106.632405 
L 248.814149 106.675739 
L 249.545851 106.790415 
L 250.769455 107.207462 
L 250.910876 107.271823 
L 251.242909 107.38568 
L 253.622479 108.249703 
L 253.923769 108.359757 
L 254.157421 108.390169 
L 255.25805 108.501176 
L 255.399471 108.622531 
L 255.596231 108.801768 
L 256.038942 108.93439 
L 256.241851 109.102893 
L 256.955107 109.223501 
L 257.244099 109.288344 
L 257.526942 109.399478 
L 257.729851 109.549073 
L 257.926612 109.580194 
L 258.787438 109.688561 
L 259.180959 109.841022 
L 259.734347 110.213785 
L 259.943405 110.378048 
L 260.090975 110.512586 
L 261.794182 110.887603 
L 262.070876 111.021432 
L 263.841719 111.816075 
L 264.290579 111.948866 
L 265.262083 112.84144 
L 266.436496 113.279579 
L 266.620959 113.379061 
L 267.297322 113.465508 
L 267.764628 113.576416 
L 268.520926 114.010019 
L 268.729983 114.23756 
L 269.166545 114.410026 
L 269.338711 114.51726 
L 270.617653 114.821352 
L 270.734479 114.96644 
L 270.998876 115.429646 
L 271.214083 115.464219 
L 271.386248 115.56897 
L 271.539967 115.660842 
L 271.908893 115.789174 
L 272.06876 115.860672 
L 272.191736 115.98674 
L 272.376198 116.218938 
L 273.144793 116.341379 
L 273.501421 116.416601 
L 274.030215 116.656989 
L 274.226975 116.895692 
L 274.817256 117.037517 
L 275.050909 117.299124 
L 276.668033 117.663429 
L 277.350545 117.781287 
L 278.506512 118.426372 
L 279.090645 118.556809 
L 279.514909 118.731511 
L 279.951471 118.996017 
L 280.166678 119.425727 
L 280.756959 119.581742 
L 280.886083 119.711539 
L 281.039802 119.843437 
L 281.199669 119.97062 
L 281.525554 120.142613 
L 282.152727 120.31628 
L 282.398678 120.416402 
L 283.062744 120.722204 
L 283.57924 121.050079 
L 283.92357 121.289699 
L 284.077289 121.380292 
L 285.061091 121.630234 
L 285.264 121.699987 
L 285.552992 121.791394 
L 285.952661 121.900757 
L 286.198612 122.125318 
L 286.629025 122.244039 
L 286.813488 122.311221 
L 286.99795 122.441224 
L 287.213157 122.510596 
L 287.514446 122.647421 
L 287.889521 122.786078 
L 288.086281 122.983269 
L 288.276893 123.204593 
L 289.08238 123.402 
L 289.451306 123.642281 
L 289.684959 123.761955 
L 290.170711 124.12391 
L 290.582678 124.593423 
L 291.326678 124.764266 
L 291.51114 124.854402 
L 291.855471 124.979752 
L 293.238942 125.459581 
L 294.683901 125.749179 
L 294.948298 125.995095 
L 295.372562 126.111615 
L 295.63081 126.245128 
L 296.055074 126.374208 
L 296.301025 126.545231 
L 296.940496 126.726068 
L 297.543074 127.038625 
L 297.782876 127.078654 
L 298.662149 127.200915 
L 298.865058 127.304657 
L 299.559868 127.419779 
L 299.971835 127.661485 
L 300.125554 127.710829 
L 300.820364 127.935706 
L 301.447537 128.05876 
L 301.650446 128.178079 
L 302.314512 128.395489 
L 302.505124 128.478114 
L 302.990876 128.587631 
L 303.445884 128.652763 
L 303.624198 128.757787 
L 303.790215 128.798103 
L 304.097653 128.911777 
L 304.275967 129.015939 
L 304.55881 129.133563 
L 304.687934 129.26837 
L 305.112198 129.589905 
L 305.893091 129.89195 
L 306.089851 129.952749 
L 306.286612 130.097381 
L 306.950678 130.555534 
L 307.891438 131.046464 
L 308.955174 131.272159 
L 309.139636 131.364194 
L 310.793653 131.764752 
L 310.990413 131.90127 
L 312.669025 132.055307 
L 313.160926 132.190837 
L 313.406876 132.30128 
L 313.615934 132.357964 
L 314.052496 132.490931 
L 314.396826 132.785317 
L 315.546645 133.014989 
L 315.804893 133.073639 
L 317.588033 133.348775 
L 317.858579 133.421522 
L 318.614876 133.634078 
L 318.965355 133.736908 
L 319.746248 133.859884 
L 320.072132 133.970527 
L 320.87762 134.081593 
L 322.863669 134.587145 
L 323.048132 134.62263 
L 324.019636 134.797917 
L 324.234843 134.87443 
L 325.107967 135.010417 
L 325.864264 135.136251 
L 327.192397 135.493035 
L 327.389157 135.639421 
L 328.471339 135.773243 
L 330.414347 136.178841 
L 331.090711 136.313198 
L 331.514975 136.482393 
L 331.711736 136.638636 
L 332.849256 136.830133 
L 333.150545 136.940651 
L 333.390347 137.026912 
L 333.974479 137.139354 
L 334.165091 137.235008 
L 334.945983 137.355925 
L 335.185785 137.400032 
L 335.339504 137.515424 
L 335.677686 137.6837 
L 336.839802 137.87309 
L 337.663736 138.048651 
L 338.456926 138.232741 
L 338.727471 138.415162 
L 339.459174 138.68357 
L 339.668231 138.727895 
L 340.701223 138.850553 
L 341.930975 139.205522 
L 342.976264 139.391395 
L 344.341289 139.973633 
L 344.507306 140.021582 
L 345.214413 140.155705 
L 345.417322 140.196099 
L 346.640926 140.603688 
L 346.825388 140.760421 
L 347.477157 140.871865 
L 347.698512 140.899356 
L 347.870678 141.053833 
L 348.473256 141.213035 
L 349.549289 141.327462 
L 349.659967 141.468137 
L 349.813686 141.590418 
L 350.649917 141.701403 
L 351.03114 141.744182 
L 354.000992 142.323686 
L 354.179306 142.432479 
L 354.480595 142.594938 
L 355.218446 143.12935 
L 355.390612 143.226617 
L 356.005488 143.366102 
L 356.300628 143.538497 
L 357.376661 144.007656 
L 357.62876 144.113759 
L 357.850116 144.228774 
L 359.491835 144.56161 
L 359.670149 144.618741 
L 360.340364 144.816463 
L 360.586314 144.896571 
L 360.90605 145.006053 
L 361.779174 145.327914 
L 362.430942 145.440124 
L 363.045818 145.687417 
L 364.380099 146.184914 
L 364.927339 146.333852 
L 365.659041 146.530182 
L 366.267769 146.786884 
L 366.433785 146.865839 
L 367.177785 146.984435 
L 367.380694 147.066866 
L 367.761917 147.219119 
L 368.382942 147.568499 
L 369.047008 147.670779 
L 369.311405 147.87481 
L 369.618843 148.065813 
L 369.88324 148.368393 
L 370.024661 148.53003 
L 370.209124 148.684448 
L 370.368992 148.78839 
L 370.52886 148.873762 
L 371.002314 148.996097 
L 373.369587 150.059185 
L 373.720066 150.245563 
L 374.334942 150.360402 
L 374.931372 151.010559 
L 375.712264 151.593799 
L 375.939769 152.329935 
L 376.044298 152.44356 
L 376.093488 152.5681 
L 376.265653 152.890846 
L 376.868231 153.384383 
L 377.200264 153.526442 
L 377.366281 153.598879 
L 377.476959 153.716468 
L 377.636826 153.776484 
L 377.759802 153.890524 
L 378.239405 154.674005 
L 378.386975 154.783682 
L 378.626777 155.021896 
L 378.786645 155.127849 
L 380.176264 158.943247 
L 380.465256 159.62924 
L 380.668165 161.047204 
L 381.012496 161.44295 
L 381.147769 161.579807 
L 381.264595 161.970493 
L 381.479802 162.591419 
L 381.522843 162.685038 
L 381.658116 162.770288 
L 381.811835 162.909859 
L 382.143868 163.580383 
L 382.611174 163.850944 
L 382.77719 164.121788 
L 382.881719 164.225993 
L 383.029289 164.299084 
L 383.349025 164.416862 
L 383.502744 164.537019 
L 383.650314 164.731297 
L 383.840926 165.45709 
L 383.994645 165.667461 
L 384.142215 165.776474 
L 384.31438 165.957784 
L 384.345124 166.061413 
L 384.591074 167.574182 
L 384.775537 167.689963 
L 384.947702 167.863816 
L 385.464198 168.224091 
L 385.667107 168.810201 
L 385.716298 168.925629 
L 385.863868 169.119005 
L 385.925355 169.231128 
L 386.423405 170.21462 
L 386.663207 170.367351 
L 387.124364 171.858957 
L 387.155107 171.940009 
L 387.321124 172.38508 
L 387.616264 172.714455 
L 387.776132 173.05838 
L 387.892959 173.295403 
L 388.089719 174.028925 
L 388.126612 174.134253 
L 388.323372 174.852618 
L 388.38486 174.941909 
L 388.716893 176.397955 
L 388.82757 176.686657 
L 389.005884 177.296843 
L 389.417851 178.079673 
L 389.983537 181.594547 
L 390.032727 181.782093 
L 390.180298 182.110622 
L 390.229488 182.212822 
L 390.530777 183.605508 
L 390.81362 183.843149 
L 391.004231 184.072009 
L 391.477686 185.735408 
L 391.699041 186.108431 
L 391.981884 190.029901 
L 392.024926 190.12136 
L 392.233983 191.447279 
L 392.430744 192.903537 
L 392.492231 193.007036 
L 392.639802 193.251147 
L 393.008727 194.350916 
L 393.144 194.519946 
L 393.408397 195.458162 
L 393.568264 195.919961 
L 393.967934 198.653621 
L 394.330711 199.045938 
L 394.521322 199.115572 
L 394.613554 200.629553 
L 394.816463 204.578183 
L 395.32681 206.018107 
L 395.357554 206.098399 
L 395.57276 207.509911 
L 395.726479 208.991084 
L 395.929388 213.379693 
L 395.966281 213.476701 
L 396.273719 215.562115 
L 396.421289 216.960331 
L 396.71643 218.521971 
L 396.864 218.722081 
L 396.956231 220.162388 
L 397.288264 230.32987 
L 397.355901 230.831777 
L 397.644893 235.670497 
L 397.712529 236.40633 
L 397.872397 246.685071 
L 398.038413 254.752434 
L 398.10605 257.889098 
L 398.327405 272.490123 
L 398.345851 272.549673 
L 398.382744 275.991773 
L 398.481124 295.488 
L 398.481124 295.488 
" clip-path="url(#p5ded45c6f3)" style="fill: none; stroke: #1f77b4; stroke-width: 1.5; stroke-linecap: square"/>
   </g>
   <g id="line2d_16">
    <path d="M 139.495339 60.333381 
L 349.672264 141.499578 
" clip-path="url(#p5ded45c6f3)" style="fill: none; stroke-dasharray: 5.55,2.4; stroke-dashoffset: 0; stroke: #ff7f0e; stroke-width: 1.5"/>
   </g>
   <g id="line2d_17">
    <path d="M 73.832727 134.73561 
L 398.487273 134.73561 
L 398.487273 134.73561 
" clip-path="url(#p5ded45c6f3)" style="fill: none; stroke-dasharray: 5.55,2.4; stroke-dashoffset: 0; stroke: #2ca02c; stroke-width: 1.5"/>
   </g>
   <g id="LineCollection_1">
    <path d="M 349.672264 295.488 
L 349.672264 53.568 
" clip-path="url(#p5ded45c6f3)" style="fill: none; stroke-dasharray: 5.55,2.4; stroke-dashoffset: 0; stroke: #1f77b4; stroke-width: 1.5"/>
   </g>
   <g id="patch_3">
    <path d="M 57.6 307.584 
L 57.6 41.472 
" style="fill: none; stroke: #000000; stroke-width: 0.8; stroke-linejoin: miter; stroke-linecap: square"/>
   </g>
   <g id="patch_4">
    <path d="M 414.72 307.584 
L 414.72 41.472 
" style="fill: none; stroke: #000000; stroke-width: 0.8; stroke-linejoin: miter; stroke-linecap: square"/>
   </g>
   <g id="patch_5">
    <path d="M 57.6 307.584 
L 414.72 307.584 
" style="fill: none; stroke: #000000; stroke-width: 0.8; stroke-linejoin: miter; stroke-linecap: square"/>
   </g>
   <g id="patch_6">
    <path d="M 57.6 41.472 
L 414.72 41.472 
" style="fill: none; stroke: #000000; stroke-width: 0.8; stroke-linejoin: miter; stroke-linecap: square"/>
   </g>
   <g id="text_15">
    <!-- Energy Decay - 2000 Hz -->
    <g transform="translate(163.59 35.472) scale(0.12 -0.12)">
     <defs>
      <path id="DejaVuSans-45" d="M 628 4666 
L 3578 4666 
L 3578 4134 
L 1259 4134 
L 1259 2753 
L 3481 2753 
L 3481 2222 
L 1259 2222 
L 1259 531 
L 3634 531 
L 3634 0 
L 628 0 
L 628 4666 
z
" transform="scale(0.015625)"/>
      <path id="DejaVuSans-6e" d="M 3513 2113 
L 3513 0 
L 2938 0 
L 2938 2094 
Q 2938 2591 2744 2837 
Q 2550 3084 2163 3084 
Q 1697 3084 1428 2787 
Q 1159 2491 1159 1978 
L 1159 0 
L 581 0 
L 581 3500 
L 1159 3500 
L 1159 2956 
Q 1366 3272 1645 3428 
Q 1925 3584 2291 3584 
Q 2894 3584 3203 3211 
Q 3513 2838 3513 2113 
z
" transform="scale(0.015625)"/>
      <path id="DejaVuSans-65" d="M 3597 1894 
L 3597 1613 
L 953 1613 
Q 991 1019 1311 708 
Q 1631 397 2203 397 
Q 2534 397 2845 478 
Q 3156 559 3463 722 
L 3463 178 
Q 3153 47 2828 -22 
Q 2503 -91 2169 -91 
Q 1331 -91 842 396 
Q 353 884 353 1716 
Q 353 2575 817 3079 
Q 1281 3584 2069 3584 
Q 2775 3584 3186 3129 
Q 3597 2675 3597 1894 
z
M 3022 2063 
Q 3016 2534 2758 2815 
Q 2500 3097 2075 3097 
Q 1594 3097 1305 2825 
Q 1016 2553 972 2059 
L 3022 2063 
z
" transform="scale(0.015625)"/>
      <path id="DejaVuSans-72" d="M 2631 2963 
Q 2534 3019 2420 3045 
Q 2306 3072 2169 3072 
Q 1681 3072 1420 2755 
Q 1159 2438 1159 1844 
L 1159 0 
L 581 0 
L 581 3500 
L 1159 3500 
L 1159 2956 
Q 1341 3275 1631 3429 
Q 1922 3584 2338 3584 
Q 2397 3584 2469 3576 
Q 2541 3569 2628 3553 
L 2631 2963 
z
" transform="scale(0.015625)"/>
      <path id="DejaVuSans-67" d="M 2906 1791 
Q 2906 2416 2648 2759 
Q 2391 3103 1925 3103 
Q 1463 3103 1205 2759 
Q 947 2416 947 1791 
Q 947 1169 1205 825 
Q 1463 481 1925 481 
Q 2391 481 2648 825 
Q 2906 1169 2906 1791 
z
M 3481 434 
Q 3481 -459 3084 -895 
Q 2688 -1331 1869 -1331 
Q 1566 -1331 1297 -1286 
Q 1028 -1241 775 -1147 
L 775 -588 
Q 1028 -725 1275 -790 
Q 1522 -856 1778 -856 
Q 2344 -856 2625 -561 
Q 2906 -266 2906 331 
L 2906 616 
Q 2728 306 2450 153 
Q 2172 0 1784 0 
Q 1141 0 747 490 
Q 353 981 353 1791 
Q 353 2603 747 3093 
Q 1141 3584 1784 3584 
Q 2172 3584 2450 3431 
Q 2728 3278 2906 2969 
L 2906 3500 
L 3481 3500 
L 3481 434 
z
" transform="scale(0.015625)"/>
      <path id="DejaVuSans-79" d="M 2059 -325 
Q 1816 -950 1584 -1140 
Q 1353 -1331 966 -1331 
L 506 -1331 
L 506 -850 
L 844 -850 
Q 1081 -850 1212 -737 
Q 1344 -625 1503 -206 
L 1606 56 
L 191 3500 
L 800 3500 
L 1894 763 
L 2988 3500 
L 3597 3500 
L 2059 -325 
z
" transform="scale(0.015625)"/>
      <path id="DejaVuSans-20" transform="scale(0.015625)"/>
      <path id="DejaVuSans-44" d="M 1259 4147 
L 1259 519 
L 2022 519 
Q 2988 519 3436 956 
Q 3884 1394 3884 2338 
Q 3884 3275 3436 3711 
Q 2988 4147 2022 4147 
L 1259 4147 
z
M 628 4666 
L 1925 4666 
Q 3281 4666 3915 4102 
Q 4550 3538 4550 2338 
Q 4550 1131 3912 565 
Q 3275 0 1925 0 
L 628 0 
L 628 4666 
z
" transform="scale(0.015625)"/>
      <path id="DejaVuSans-63" d="M 3122 3366 
L 3122 2828 
Q 2878 2963 2633 3030 
Q 2388 3097 2138 3097 
Q 1578 3097 1268 2742 
Q 959 2388 959 1747 
Q 959 1106 1268 751 
Q 1578 397 2138 397 
Q 2388 397 2633 464 
Q 2878 531 3122 666 
L 3122 134 
Q 2881 22 2623 -34 
Q 2366 -91 2075 -91 
Q 1284 -91 818 406 
Q 353 903 353 1747 
Q 353 2603 823 3093 
Q 1294 3584 2113 3584 
Q 2378 3584 2631 3529 
Q 2884 3475 3122 3366 
z
" transform="scale(0.015625)"/>
      <path id="DejaVuSans-61" d="M 2194 1759 
Q 1497 1759 1228 1600 
Q 959 1441 959 1056 
Q 959 750 1161 570 
Q 1363 391 1709 391 
Q 2188 391 2477 730 
Q 2766 1069 2766 1631 
L 2766 1759 
L 2194 1759 
z
M 3341 1997 
L 3341 0 
L 2766 0 
L 2766 531 
Q 2569 213 2275 61 
Q 1981 -91 1556 -91 
Q 1019 -91 701 211 
Q 384 513 384 1019 
Q 384 1609 779 1909 
Q 1175 2209 1959 2209 
L 2766 2209 
L 2766 2266 
Q 2766 2663 2505 2880 
Q 2244 3097 1772 3097 
Q 1472 3097 1187 3025 
Q 903 2953 641 2809 
L 641 3341 
Q 956 3463 1253 3523 
Q 1550 3584 1831 3584 
Q 2591 3584 2966 3190 
Q 3341 2797 3341 1997 
z
" transform="scale(0.015625)"/>
      <path id="DejaVuSans-2d" d="M 313 2009 
L 1997 2009 
L 1997 1497 
L 313 1497 
L 313 2009 
z
" transform="scale(0.015625)"/>
      <path id="DejaVuSans-48" d="M 628 4666 
L 1259 4666 
L 1259 2753 
L 3553 2753 
L 3553 4666 
L 4184 4666 
L 4184 0 
L 3553 0 
L 3553 2222 
L 1259 2222 
L 1259 0 
L 628 0 
L 628 4666 
z
" transform="scale(0.015625)"/>
      <path id="DejaVuSans-7a" d="M 353 3500 
L 3084 3500 
L 3084 2975 
L 922 459 
L 3084 459 
L 3084 0 
L 275 0 
L 275 525 
L 2438 3041 
L 353 3041 
L 353 3500 
z
" transform="scale(0.015625)"/>
     </defs>
     <use xlink:href="#DejaVuSans-45"/>
     <use xlink:href="#DejaVuSans-6e" transform="translate(63.183594 0)"/>
     <use xlink:href="#DejaVuSans-65" transform="translate(126.5625 0)"/>
     <use xlink:href="#DejaVuSans-72" transform="translate(188.085938 0)"/>
     <use xlink:href="#DejaVuSans-67" transform="translate(227.449219 0)"/>
     <use xlink:href="#DejaVuSans-79" transform="translate(290.925781 0)"/>
     <use xlink:href="#DejaVuSans-20" transform="translate(350.105469 0)"/>
     <use xlink:href="#DejaVuSans-44" transform="translate(381.892578 0)"/>
     <use xlink:href="#DejaVuSans-65" transform="translate(458.894531 0)"/>
     <use xlink:href="#DejaVuSans-63" transform="translate(520.417969 0)"/>
     <use xlink:href="#DejaVuSans-61" transform="translate(575.398438 0)"/>
     <use xlink:href="#DejaVuSans-79" transform="translate(636.677734 0)"/>
     <use xlink:href="#DejaVuSans-20" transform="translate(695.857422 0)"/>
     <use xlink:href="#DejaVuSans-2d" transform="translate(727.644531 0)"/>
     <use xlink:href="#DejaVuSans-20" transform="translate(763.728516 0)"/>
     <use xlink:href="#DejaVuSans-32" transform="translate(795.515625 0)"/>
     <use xlink:href="#DejaVuSans-30" transform="translate(859.138672 0)"/>
     <use xlink:href="#DejaVuSans-30" transform="translate(922.761719 0)"/>
     <use xlink:href="#DejaVuSans-30" transform="translate(986.384766 0)"/>
     <use xlink:href="#DejaVuSans-20" transform="translate(1050.007812 0)"/>
     <use xlink:href="#DejaVuSans-48" transform="translate(1081.794922 0)"/>
     <use xlink:href="#DejaVuSans-7a" transform="translate(1156.990234 0)"/>
    </g>
   </g>
   <g id="legend_1">
    <g id="patch_7">
     <path d="M 296.968437 108.1845 
L 407.72 108.1845 
Q 409.72 108.1845 409.72 106.1845 
L 409.72 48.472 
Q 409.72 46.472 407.72 46.472 
L 296.968437 46.472 
Q 294.968437 46.472 294.968437 48.472 
L 294.968437 106.1845 
Q 294.968437 108.1845 296.968437 108.1845 
z
" style="fill: #ffffff; opacity: 0.8; stroke: #cccccc; stroke-linejoin: miter"/>
    </g>
    <g id="line2d_18">
     <path d="M 298.968437 54.570438 
L 308.968437 54.570438 
L 318.968437 54.570438 
" style="fill: none; stroke: #1f77b4; stroke-width: 1.5; stroke-linecap: square"/>
    </g>
    <g id="text_16">
     <!-- Energy -->
     <g transform="translate(326.968437 58.070438) scale(0.1 -0.1)">
      <use xlink:href="#DejaVuSans-45"/>
      <use xlink:href="#DejaVuSans-6e" transform="translate(63.183594 0)"/>
      <use xlink:href="#DejaVuSans-65" transform="translate(126.5625 0)"/>
      <use xlink:href="#DejaVuSans-72" transform="translate(188.085938 0)"/>
      <use xlink:href="#DejaVuSans-67" transform="translate(227.449219 0)"/>
      <use xlink:href="#DejaVuSans-79" transform="translate(290.925781 0)"/>
     </g>
    </g>
    <g id="line2d_19">
     <path d="M 298.968437 69.248563 
L 308.968437 69.248563 
L 318.968437 69.248563 
" style="fill: none; stroke-dasharray: 5.55,2.4; stroke-dashoffset: 0; stroke: #ff7f0e; stroke-width: 1.5"/>
    </g>
    <g id="text_17">
     <!-- Linear Fit -->
     <g transform="translate(326.968437 72.748563) scale(0.1 -0.1)">
      <defs>
       <path id="DejaVuSans-4c" d="M 628 4666 
L 1259 4666 
L 1259 531 
L 3531 531 
L 3531 0 
L 628 0 
L 628 4666 
z
" transform="scale(0.015625)"/>
       <path id="DejaVuSans-69" d="M 603 3500 
L 1178 3500 
L 1178 0 
L 603 0 
L 603 3500 
z
M 603 4863 
L 1178 4863 
L 1178 4134 
L 603 4134 
L 603 4863 
z
" transform="scale(0.015625)"/>
       <path id="DejaVuSans-46" d="M 628 4666 
L 3309 4666 
L 3309 4134 
L 1259 4134 
L 1259 2759 
L 3109 2759 
L 3109 2228 
L 1259 2228 
L 1259 0 
L 628 0 
L 628 4666 
z
" transform="scale(0.015625)"/>
       <path id="DejaVuSans-74" d="M 1172 4494 
L 1172 3500 
L 2356 3500 
L 2356 3053 
L 1172 3053 
L 1172 1153 
Q 1172 725 1289 603 
Q 1406 481 1766 481 
L 2356 481 
L 2356 0 
L 1766 0 
Q 1100 0 847 248 
Q 594 497 594 1153 
L 594 3053 
L 172 3053 
L 172 3500 
L 594 3500 
L 594 4494 
L 1172 4494 
z
" transform="scale(0.015625)"/>
      </defs>
      <use xlink:href="#DejaVuSans-4c"/>
      <use xlink:href="#DejaVuSans-69" transform="translate(55.712891 0)"/>
      <use xlink:href="#DejaVuSans-6e" transform="translate(83.496094 0)"/>
      <use xlink:href="#DejaVuSans-65" transform="translate(146.875 0)"/>
      <use xlink:href="#DejaVuSans-61" transform="translate(208.398438 0)"/>
      <use xlink:href="#DejaVuSans-72" transform="translate(269.677734 0)"/>
      <use xlink:href="#DejaVuSans-20" transform="translate(310.791016 0)"/>
      <use xlink:href="#DejaVuSans-46" transform="translate(342.578125 0)"/>
      <use xlink:href="#DejaVuSans-69" transform="translate(392.847656 0)"/>
      <use xlink:href="#DejaVuSans-74" transform="translate(420.630859 0)"/>
     </g>
    </g>
    <g id="line2d_20">
     <path d="M 298.968437 83.926688 
L 308.968437 83.926688 
L 318.968437 83.926688 
" style="fill: none; stroke-dasharray: 5.55,2.4; stroke-dashoffset: 0; stroke: #2ca02c; stroke-width: 1.5"/>
    </g>
    <g id="text_18">
     <!-- -60 dB -->
     <g transform="translate(326.968437 87.426688) scale(0.1 -0.1)">
      <defs>
       <path id="DejaVuSans-64" d="M 2906 2969 
L 2906 4863 
L 3481 4863 
L 3481 0 
L 2906 0 
L 2906 525 
Q 2725 213 2448 61 
Q 2172 -91 1784 -91 
Q 1150 -91 751 415 
Q 353 922 353 1747 
Q 353 2572 751 3078 
Q 1150 3584 1784 3584 
Q 2172 3584 2448 3432 
Q 2725 3281 2906 2969 
z
M 947 1747 
Q 947 1113 1208 752 
Q 1469 391 1925 391 
Q 2381 391 2643 752 
Q 2906 1113 2906 1747 
Q 2906 2381 2643 2742 
Q 2381 3103 1925 3103 
Q 1469 3103 1208 2742 
Q 947 2381 947 1747 
z
" transform="scale(0.015625)"/>
       <path id="DejaVuSans-42" d="M 1259 2228 
L 1259 519 
L 2272 519 
Q 2781 519 3026 730 
Q 3272 941 3272 1375 
Q 3272 1813 3026 2020 
Q 2781 2228 2272 2228 
L 1259 2228 
z
M 1259 4147 
L 1259 2741 
L 2194 2741 
Q 2656 2741 2882 2914 
Q 3109 3088 3109 3444 
Q 3109 3797 2882 3972 
Q 2656 4147 2194 4147 
L 1259 4147 
z
M 628 4666 
L 2241 4666 
Q 2963 4666 3353 4366 
Q 3744 4066 3744 3513 
Q 3744 3084 3544 2831 
Q 3344 2578 2956 2516 
Q 3422 2416 3680 2098 
Q 3938 1781 3938 1306 
Q 3938 681 3513 340 
Q 3088 0 2303 0 
L 628 0 
L 628 4666 
z
" transform="scale(0.015625)"/>
      </defs>
      <use xlink:href="#DejaVuSans-2d"/>
      <use xlink:href="#DejaVuSans-36" transform="translate(36.083984 0)"/>
      <use xlink:href="#DejaVuSans-30" transform="translate(99.707031 0)"/>
      <use xlink:href="#DejaVuSans-20" transform="translate(163.330078 0)"/>
      <use xlink:href="#DejaVuSans-64" transform="translate(195.117188 0)"/>
      <use xlink:href="#DejaVuSans-42" transform="translate(258.59375 0)"/>
     </g>
    </g>
    <g id="line2d_21">
     <path d="M 298.968437 98.604813 
L 318.968437 98.604813 
" style="fill: none; stroke-dasharray: 5.55,2.4; stroke-dashoffset: 0; stroke: #1f77b4; stroke-width: 1.5"/>
    </g>
    <g id="text_19">
     <!-- Estimated RT60 -->
     <g transform="translate(326.968437 102.104813) scale(0.1 -0.1)">
      <defs>
       <path id="DejaVuSans-73" d="M 2834 3397 
L 2834 2853 
Q 2591 2978 2328 3040 
Q 2066 3103 1784 3103 
Q 1356 3103 1142 2972 
Q 928 2841 928 2578 
Q 928 2378 1081 2264 
Q 1234 2150 1697 2047 
L 1894 2003 
Q 2506 1872 2764 1633 
Q 3022 1394 3022 966 
Q 3022 478 2636 193 
Q 2250 -91 1575 -91 
Q 1294 -91 989 -36 
Q 684 19 347 128 
L 347 722 
Q 666 556 975 473 
Q 1284 391 1588 391 
Q 1994 391 2212 530 
Q 2431 669 2431 922 
Q 2431 1156 2273 1281 
Q 2116 1406 1581 1522 
L 1381 1569 
Q 847 1681 609 1914 
Q 372 2147 372 2553 
Q 372 3047 722 3315 
Q 1072 3584 1716 3584 
Q 2034 3584 2315 3537 
Q 2597 3491 2834 3397 
z
" transform="scale(0.015625)"/>
       <path id="DejaVuSans-6d" d="M 3328 2828 
Q 3544 3216 3844 3400 
Q 4144 3584 4550 3584 
Q 5097 3584 5394 3201 
Q 5691 2819 5691 2113 
L 5691 0 
L 5113 0 
L 5113 2094 
Q 5113 2597 4934 2840 
Q 4756 3084 4391 3084 
Q 3944 3084 3684 2787 
Q 3425 2491 3425 1978 
L 3425 0 
L 2847 0 
L 2847 2094 
Q 2847 2600 2669 2842 
Q 2491 3084 2119 3084 
Q 1678 3084 1418 2786 
Q 1159 2488 1159 1978 
L 1159 0 
L 581 0 
L 581 3500 
L 1159 3500 
L 1159 2956 
Q 1356 3278 1631 3431 
Q 1906 3584 2284 3584 
Q 2666 3584 2933 3390 
Q 3200 3197 3328 2828 
z
" transform="scale(0.015625)"/>
       <path id="DejaVuSans-52" d="M 2841 2188 
Q 3044 2119 3236 1894 
Q 3428 1669 3622 1275 
L 4263 0 
L 3584 0 
L 2988 1197 
Q 2756 1666 2539 1819 
Q 2322 1972 1947 1972 
L 1259 1972 
L 1259 0 
L 628 0 
L 628 4666 
L 2053 4666 
Q 2853 4666 3247 4331 
Q 3641 3997 3641 3322 
Q 3641 2881 3436 2590 
Q 3231 2300 2841 2188 
z
M 1259 4147 
L 1259 2491 
L 2053 2491 
Q 2509 2491 2742 2702 
Q 2975 2913 2975 3322 
Q 2975 3731 2742 3939 
Q 2509 4147 2053 4147 
L 1259 4147 
z
" transform="scale(0.015625)"/>
       <path id="DejaVuSans-54" d="M -19 4666 
L 3928 4666 
L 3928 4134 
L 2272 4134 
L 2272 0 
L 1638 0 
L 1638 4134 
L -19 4134 
L -19 4666 
z
" transform="scale(0.015625)"/>
      </defs>
      <use xlink:href="#DejaVuSans-45"/>
      <use xlink:href="#DejaVuSans-73" transform="translate(63.183594 0)"/>
      <use xlink:href="#DejaVuSans-74" transform="translate(115.283203 0)"/>
      <use xlink:href="#DejaVuSans-69" transform="translate(154.492188 0)"/>
      <use xlink:href="#DejaVuSans-6d" transform="translate(182.275391 0)"/>
      <use xlink:href="#DejaVuSans-61" transform="translate(279.6875 0)"/>
      <use xlink:href="#DejaVuSans-74" transform="translate(340.966797 0)"/>
      <use xlink:href="#DejaVuSans-65" transform="translate(380.175781 0)"/>
      <use xlink:href="#DejaVuSans-64" transform="translate(441.699219 0)"/>
      <use xlink:href="#DejaVuSans-20" transform="translate(505.175781 0)"/>
      <use xlink:href="#DejaVuSans-52" transform="translate(536.962891 0)"/>
      <use xlink:href="#DejaVuSans-54" transform="translate(599.195312 0)"/>
      <use xlink:href="#DejaVuSans-36" transform="translate(660.279297 0)"/>
      <use xlink:href="#DejaVuSans-30" transform="translate(723.902344 0)"/>
     </g>
    </g>
   </g>
  </g>
 </g>
 <defs>
  <clipPath id="p5ded45c6f3">
   <rect x="57.6" y="41.472" width="357.12" height="266.112"/>
  </clipPath>
 </defs>
</svg>
