<?xml version="1.0" encoding="utf-8" standalone="no"?>
<!DOCTYPE svg PUBLIC "-//W3C//DTD SVG 1.1//EN"
  "http://www.w3.org/Graphics/SVG/1.1/DTD/svg11.dtd">
<svg xmlns:xlink="http://www.w3.org/1999/xlink" width="460.8pt" height="345.6pt" viewBox="0 0 460.8 345.6" xmlns="http://www.w3.org/2000/svg" version="1.1">
 <metadata>
  <rdf:RDF xmlns:dc="http://purl.org/dc/elements/1.1/" xmlns:cc="http://creativecommons.org/ns#" xmlns:rdf="http://www.w3.org/1999/02/22-rdf-syntax-ns#">
   <cc:Work>
    <dc:type rdf:resource="http://purl.org/dc/dcmitype/StillImage"/>
    <dc:date>2025-05-07T14:12:06.582300</dc:date>
    <dc:format>image/svg+xml</dc:format>
    <dc:creator>
     <cc:Agent>
      <dc:title>Matplotlib v3.10.1, https://matplotlib.org/</dc:title>
     </cc:Agent>
    </dc:creator>
   </cc:Work>
  </rdf:RDF>
 </metadata>
 <defs>
  <style type="text/css">*{stroke-linejoin: round; stroke-linecap: butt}</style>
 </defs>
 <g id="figure_1">
  <g id="patch_1">
   <path d="M 0 345.6 
L 460.8 345.6 
L 460.8 0 
L 0 0 
z
" style="fill: #ffffff"/>
  </g>
  <g id="axes_1">
   <g id="patch_2">
    <path d="M 57.6 307.584 
L 414.72 307.584 
L 414.72 41.472 
L 57.6 41.472 
z
" style="fill: #ffffff"/>
   </g>
   <g id="matplotlib.axis_1">
    <g id="xtick_1">
     <g id="line2d_1">
      <defs>
       <path id="mbc719fc7c2" d="M 0 0 
L 0 3.5 
" style="stroke: #000000; stroke-width: 0.8"/>
      </defs>
      <g>
       <use xlink:href="#mbc719fc7c2" x="69.556606" y="307.584" style="stroke: #000000; stroke-width: 0.8"/>
      </g>
     </g>
     <g id="text_1">
      <!-- −0.2 -->
      <g transform="translate(57.4152 322.182437) scale(0.1 -0.1)">
       <defs>
        <path id="DejaVuSans-2212" d="M 678 2272 
L 4684 2272 
L 4684 1741 
L 678 1741 
L 678 2272 
z
" transform="scale(0.015625)"/>
        <path id="DejaVuSans-30" d="M 2034 4250 
Q 1547 4250 1301 3770 
Q 1056 3291 1056 2328 
Q 1056 1369 1301 889 
Q 1547 409 2034 409 
Q 2525 409 2770 889 
Q 3016 1369 3016 2328 
Q 3016 3291 2770 3770 
Q 2525 4250 2034 4250 
z
M 2034 4750 
Q 2819 4750 3233 4129 
Q 3647 3509 3647 2328 
Q 3647 1150 3233 529 
Q 2819 -91 2034 -91 
Q 1250 -91 836 529 
Q 422 1150 422 2328 
Q 422 3509 836 4129 
Q 1250 4750 2034 4750 
z
" transform="scale(0.015625)"/>
        <path id="DejaVuSans-2e" d="M 684 794 
L 1344 794 
L 1344 0 
L 684 0 
L 684 794 
z
" transform="scale(0.015625)"/>
        <path id="DejaVuSans-32" d="M 1228 531 
L 3431 531 
L 3431 0 
L 469 0 
L 469 531 
Q 828 903 1448 1529 
Q 2069 2156 2228 2338 
Q 2531 2678 2651 2914 
Q 2772 3150 2772 3378 
Q 2772 3750 2511 3984 
Q 2250 4219 1831 4219 
Q 1534 4219 1204 4116 
Q 875 4013 500 3803 
L 500 4441 
Q 881 4594 1212 4672 
Q 1544 4750 1819 4750 
Q 2544 4750 2975 4387 
Q 3406 4025 3406 3419 
Q 3406 3131 3298 2873 
Q 3191 2616 2906 2266 
Q 2828 2175 2409 1742 
Q 1991 1309 1228 531 
z
" transform="scale(0.015625)"/>
       </defs>
       <use xlink:href="#DejaVuSans-2212"/>
       <use xlink:href="#DejaVuSans-30" transform="translate(83.789062 0)"/>
       <use xlink:href="#DejaVuSans-2e" transform="translate(147.412109 0)"/>
       <use xlink:href="#DejaVuSans-32" transform="translate(179.199219 0)"/>
      </g>
     </g>
    </g>
    <g id="xtick_2">
     <g id="line2d_2">
      <g>
       <use xlink:href="#mbc719fc7c2" x="141.702061" y="307.584" style="stroke: #000000; stroke-width: 0.8"/>
      </g>
     </g>
     <g id="text_2">
      <!-- 0.0 -->
      <g transform="translate(133.750498 322.182437) scale(0.1 -0.1)">
       <use xlink:href="#DejaVuSans-30"/>
       <use xlink:href="#DejaVuSans-2e" transform="translate(63.623047 0)"/>
       <use xlink:href="#DejaVuSans-30" transform="translate(95.410156 0)"/>
      </g>
     </g>
    </g>
    <g id="xtick_3">
     <g id="line2d_3">
      <g>
       <use xlink:href="#mbc719fc7c2" x="213.847515" y="307.584" style="stroke: #000000; stroke-width: 0.8"/>
      </g>
     </g>
     <g id="text_3">
      <!-- 0.2 -->
      <g transform="translate(205.895953 322.182437) scale(0.1 -0.1)">
       <use xlink:href="#DejaVuSans-30"/>
       <use xlink:href="#DejaVuSans-2e" transform="translate(63.623047 0)"/>
       <use xlink:href="#DejaVuSans-32" transform="translate(95.410156 0)"/>
      </g>
     </g>
    </g>
    <g id="xtick_4">
     <g id="line2d_4">
      <g>
       <use xlink:href="#mbc719fc7c2" x="285.99297" y="307.584" style="stroke: #000000; stroke-width: 0.8"/>
      </g>
     </g>
     <g id="text_4">
      <!-- 0.4 -->
      <g transform="translate(278.041407 322.182437) scale(0.1 -0.1)">
       <defs>
        <path id="DejaVuSans-34" d="M 2419 4116 
L 825 1625 
L 2419 1625 
L 2419 4116 
z
M 2253 4666 
L 3047 4666 
L 3047 1625 
L 3713 1625 
L 3713 1100 
L 3047 1100 
L 3047 0 
L 2419 0 
L 2419 1100 
L 313 1100 
L 313 1709 
L 2253 4666 
z
" transform="scale(0.015625)"/>
       </defs>
       <use xlink:href="#DejaVuSans-30"/>
       <use xlink:href="#DejaVuSans-2e" transform="translate(63.623047 0)"/>
       <use xlink:href="#DejaVuSans-34" transform="translate(95.410156 0)"/>
      </g>
     </g>
    </g>
    <g id="xtick_5">
     <g id="line2d_5">
      <g>
       <use xlink:href="#mbc719fc7c2" x="358.138424" y="307.584" style="stroke: #000000; stroke-width: 0.8"/>
      </g>
     </g>
     <g id="text_5">
      <!-- 0.6 -->
      <g transform="translate(350.186862 322.182437) scale(0.1 -0.1)">
       <defs>
        <path id="DejaVuSans-36" d="M 2113 2584 
Q 1688 2584 1439 2293 
Q 1191 2003 1191 1497 
Q 1191 994 1439 701 
Q 1688 409 2113 409 
Q 2538 409 2786 701 
Q 3034 994 3034 1497 
Q 3034 2003 2786 2293 
Q 2538 2584 2113 2584 
z
M 3366 4563 
L 3366 3988 
Q 3128 4100 2886 4159 
Q 2644 4219 2406 4219 
Q 1781 4219 1451 3797 
Q 1122 3375 1075 2522 
Q 1259 2794 1537 2939 
Q 1816 3084 2150 3084 
Q 2853 3084 3261 2657 
Q 3669 2231 3669 1497 
Q 3669 778 3244 343 
Q 2819 -91 2113 -91 
Q 1303 -91 875 529 
Q 447 1150 447 2328 
Q 447 3434 972 4092 
Q 1497 4750 2381 4750 
Q 2619 4750 2861 4703 
Q 3103 4656 3366 4563 
z
" transform="scale(0.015625)"/>
       </defs>
       <use xlink:href="#DejaVuSans-30"/>
       <use xlink:href="#DejaVuSans-2e" transform="translate(63.623047 0)"/>
       <use xlink:href="#DejaVuSans-36" transform="translate(95.410156 0)"/>
      </g>
     </g>
    </g>
   </g>
   <g id="matplotlib.axis_2">
    <g id="ytick_1">
     <g id="line2d_6">
      <defs>
       <path id="m7faba0dcb9" d="M 0 0 
L -3.5 0 
" style="stroke: #000000; stroke-width: 0.8"/>
      </defs>
      <g>
       <use xlink:href="#m7faba0dcb9" x="57.6" y="281.199673" style="stroke: #000000; stroke-width: 0.8"/>
      </g>
     </g>
     <g id="text_6">
      <!-- −200 -->
      <g transform="translate(23.132812 284.998892) scale(0.1 -0.1)">
       <use xlink:href="#DejaVuSans-2212"/>
       <use xlink:href="#DejaVuSans-32" transform="translate(83.789062 0)"/>
       <use xlink:href="#DejaVuSans-30" transform="translate(147.412109 0)"/>
       <use xlink:href="#DejaVuSans-30" transform="translate(211.035156 0)"/>
      </g>
     </g>
    </g>
    <g id="ytick_2">
     <g id="line2d_7">
      <g>
       <use xlink:href="#m7faba0dcb9" x="57.6" y="224.291755" style="stroke: #000000; stroke-width: 0.8"/>
      </g>
     </g>
     <g id="text_7">
      <!-- −150 -->
      <g transform="translate(23.132812 228.090974) scale(0.1 -0.1)">
       <defs>
        <path id="DejaVuSans-31" d="M 794 531 
L 1825 531 
L 1825 4091 
L 703 3866 
L 703 4441 
L 1819 4666 
L 2450 4666 
L 2450 531 
L 3481 531 
L 3481 0 
L 794 0 
L 794 531 
z
" transform="scale(0.015625)"/>
        <path id="DejaVuSans-35" d="M 691 4666 
L 3169 4666 
L 3169 4134 
L 1269 4134 
L 1269 2991 
Q 1406 3038 1543 3061 
Q 1681 3084 1819 3084 
Q 2600 3084 3056 2656 
Q 3513 2228 3513 1497 
Q 3513 744 3044 326 
Q 2575 -91 1722 -91 
Q 1428 -91 1123 -41 
Q 819 9 494 109 
L 494 744 
Q 775 591 1075 516 
Q 1375 441 1709 441 
Q 2250 441 2565 725 
Q 2881 1009 2881 1497 
Q 2881 1984 2565 2268 
Q 2250 2553 1709 2553 
Q 1456 2553 1204 2497 
Q 953 2441 691 2322 
L 691 4666 
z
" transform="scale(0.015625)"/>
       </defs>
       <use xlink:href="#DejaVuSans-2212"/>
       <use xlink:href="#DejaVuSans-31" transform="translate(83.789062 0)"/>
       <use xlink:href="#DejaVuSans-35" transform="translate(147.412109 0)"/>
       <use xlink:href="#DejaVuSans-30" transform="translate(211.035156 0)"/>
      </g>
     </g>
    </g>
    <g id="ytick_3">
     <g id="line2d_8">
      <g>
       <use xlink:href="#m7faba0dcb9" x="57.6" y="167.383837" style="stroke: #000000; stroke-width: 0.8"/>
      </g>
     </g>
     <g id="text_8">
      <!-- −100 -->
      <g transform="translate(23.132812 171.183055) scale(0.1 -0.1)">
       <use xlink:href="#DejaVuSans-2212"/>
       <use xlink:href="#DejaVuSans-31" transform="translate(83.789062 0)"/>
       <use xlink:href="#DejaVuSans-30" transform="translate(147.412109 0)"/>
       <use xlink:href="#DejaVuSans-30" transform="translate(211.035156 0)"/>
      </g>
     </g>
    </g>
    <g id="ytick_4">
     <g id="line2d_9">
      <g>
       <use xlink:href="#m7faba0dcb9" x="57.6" y="110.475918" style="stroke: #000000; stroke-width: 0.8"/>
      </g>
     </g>
     <g id="text_9">
      <!-- −50 -->
      <g transform="translate(29.495313 114.275137) scale(0.1 -0.1)">
       <use xlink:href="#DejaVuSans-2212"/>
       <use xlink:href="#DejaVuSans-35" transform="translate(83.789062 0)"/>
       <use xlink:href="#DejaVuSans-30" transform="translate(147.412109 0)"/>
      </g>
     </g>
    </g>
    <g id="ytick_5">
     <g id="line2d_10">
      <g>
       <use xlink:href="#m7faba0dcb9" x="57.6" y="53.568" style="stroke: #000000; stroke-width: 0.8"/>
      </g>
     </g>
     <g id="text_10">
      <!-- 0 -->
      <g transform="translate(44.2375 57.367219) scale(0.1 -0.1)">
       <use xlink:href="#DejaVuSans-30"/>
      </g>
     </g>
    </g>
   </g>
   <g id="line2d_11">
    <path d="M 73.832727 53.568 
L 132.097697 53.650764 
L 132.383273 54.422123 
L 132.781576 54.571738 
L 132.916848 54.719911 
L 133.345212 54.931386 
L 133.638303 55.175614 
L 134.299636 55.280352 
L 134.457455 55.345268 
L 134.735515 55.438783 
L 134.885818 55.640425 
L 135.72 56.389152 
L 137.343273 56.919469 
L 138.147394 57.40159 
L 138.282667 57.679326 
L 138.485576 57.726979 
L 139.70303 58.438023 
L 139.875879 58.598975 
L 140.19903 58.680069 
L 140.852848 58.88653 
L 141.078303 59.035037 
L 141.596848 59.159888 
L 141.814788 59.307616 
L 141.987636 59.471876 
L 142.122909 59.645531 
L 142.461091 59.768657 
L 142.603879 59.836425 
L 142.799273 59.944878 
L 143.122424 60.250878 
L 143.347879 60.330662 
L 143.783758 60.480319 
L 144.227152 60.633776 
L 144.38497 60.724605 
L 144.66303 60.830161 
L 144.896 60.973986 
L 145.189091 61.144065 
L 145.534788 61.283902 
L 145.722667 61.392995 
L 145.955636 61.470987 
L 146.301333 61.501679 
L 146.677091 61.696157 
L 147.593939 62.361268 
L 147.736727 62.475972 
L 148.074909 62.674016 
L 148.435636 62.919796 
L 148.773818 63.09103 
L 149.149576 63.293662 
L 149.405091 63.405482 
L 149.765818 63.606805 
L 149.968727 63.671408 
L 150.126545 63.784808 
L 150.291879 63.831773 
L 150.86303 63.977821 
L 151.050909 64.01452 
L 151.298909 64.11661 
L 151.471758 64.185287 
L 151.719758 64.29517 
L 151.997818 64.394771 
L 152.208242 64.494531 
L 152.411152 64.765679 
L 152.486303 64.885742 
L 153.012364 65.02658 
L 153.328 65.157248 
L 153.673697 65.301653 
L 154.019394 65.41138 
L 154.33503 65.541441 
L 155.214303 66.098143 
L 155.605091 66.223635 
L 155.973333 66.356116 
L 156.131152 66.402118 
L 156.424242 66.621217 
L 156.612121 66.753442 
L 157.145697 66.990789 
L 157.694303 67.149293 
L 157.852121 67.329051 
L 158.423273 67.640472 
L 158.566061 67.74237 
L 159.159758 67.982782 
L 159.565576 68.244703 
L 159.821091 68.353946 
L 160.159273 68.496228 
L 160.497455 68.603525 
L 160.865697 68.7906 
L 162.150788 69.386115 
L 162.383758 69.500011 
L 162.834667 69.663374 
L 163.105212 69.850434 
L 163.450909 70.100874 
L 163.676364 70.276497 
L 163.939394 70.382515 
L 164.127273 70.511807 
L 164.315152 70.640671 
L 164.525576 70.695469 
L 164.766061 70.81154 
L 165.021576 70.955617 
L 165.382303 71.067453 
L 165.667879 71.178429 
L 166.366788 71.516678 
L 166.524606 71.556998 
L 166.930424 71.726057 
L 168.313212 72.642222 
L 168.448485 72.737735 
L 168.756606 72.850119 
L 168.944485 73.018448 
L 169.192485 73.137871 
L 169.448 73.236421 
L 170.763152 73.566213 
L 170.943515 73.734895 
L 171.138909 73.800462 
L 174.39297 75.139531 
L 174.550788 75.330353 
L 174.798788 75.438064 
L 175.076848 75.535947 
L 175.467636 75.664171 
L 175.730667 75.890857 
L 175.948606 76.005062 
L 176.189091 76.111584 
L 176.534788 76.265247 
L 177.737212 76.947908 
L 177.917576 77.061116 
L 178.120485 77.180737 
L 178.789333 77.656503 
L 178.932121 77.740972 
L 179.285333 77.856926 
L 181.938182 79.160036 
L 182.396606 79.283306 
L 182.779879 79.570432 
L 183.005333 79.704213 
L 184.929212 80.51372 
L 185.124606 80.644831 
L 185.447758 80.762626 
L 185.598061 80.838197 
L 185.981333 80.950784 
L 186.131636 81.015609 
L 186.808 81.178912 
L 187.191273 81.415461 
L 187.867636 81.583386 
L 189.505939 82.488647 
L 189.671273 82.665331 
L 190.249939 82.938168 
L 190.528 83.096489 
L 191.640242 83.728259 
L 191.858182 83.836556 
L 192.038545 83.941067 
L 192.226424 84.030807 
L 192.677333 84.212589 
L 193.398788 84.508317 
L 194.105212 84.796853 
L 194.571152 85.073817 
L 194.999515 85.180602 
L 195.22497 85.329862 
L 195.705939 85.464885 
L 197.426909 86.480501 
L 197.810182 86.649175 
L 198.20097 86.740762 
L 198.734545 86.852741 
L 199.020121 86.935982 
L 199.365818 87.08277 
L 199.606303 87.239051 
L 200.064727 87.355442 
L 200.853818 87.760915 
L 201.237091 88.051963 
L 202.552242 88.604493 
L 202.897939 88.721574 
L 204.137939 89.416333 
L 205.062303 89.919378 
L 205.340364 90.036197 
L 205.701091 90.14165 
L 206.031758 90.297681 
L 206.197091 90.389581 
L 206.783273 90.628203 
L 207.204121 90.873808 
L 207.474667 90.987988 
L 207.963152 91.139317 
L 208.384 91.263378 
L 208.564364 91.333504 
L 208.789818 91.473636 
L 209.082909 91.844455 
L 209.563879 92.034353 
L 210.059879 92.275779 
L 211.352485 92.694393 
L 211.585455 92.826839 
L 211.833455 92.921506 
L 212.321939 93.037897 
L 212.953212 93.503725 
L 213.238788 93.771848 
L 213.471758 93.877071 
L 213.622061 93.957577 
L 214.433697 94.27511 
L 215.125091 94.682586 
L 215.34303 94.946235 
L 215.583515 94.991547 
L 216.064485 95.113918 
L 216.365091 95.209289 
L 216.560485 95.38212 
L 216.718303 95.576063 
L 216.951273 95.68764 
L 217.499879 96.271071 
L 218.897697 96.647973 
L 219.078061 96.744744 
L 219.386182 96.895751 
L 219.551515 97.077861 
L 219.694303 97.178215 
L 219.942303 97.269713 
L 220.235394 97.38186 
L 220.400727 97.4546 
L 220.536 97.568563 
L 220.731394 97.701734 
L 220.844121 97.806988 
L 221.137212 98.006092 
L 221.234909 98.110369 
L 221.385212 98.141389 
L 221.896242 98.315666 
L 222.692848 98.55862 
L 222.858182 98.681918 
L 222.993455 98.756086 
L 224.165818 99.143217 
L 224.549091 99.249676 
L 224.691879 99.28654 
L 224.872242 99.402232 
L 225.060121 99.466549 
L 225.338182 99.615158 
L 225.571152 99.724573 
L 226.352727 99.888756 
L 226.743515 100.302358 
L 228.990545 101.114673 
L 229.516606 101.267592 
L 229.764606 101.347836 
L 229.907394 101.470493 
L 230.035152 101.542629 
L 232.92097 102.38114 
L 233.131394 102.417208 
L 233.386909 102.555108 
L 233.597333 102.645603 
L 234.243636 102.843072 
L 234.469091 102.924958 
L 234.957576 103.038331 
L 235.355879 103.214593 
L 235.791758 103.325199 
L 236.813818 103.743115 
L 236.986667 103.869209 
L 237.227152 104.225352 
L 237.369939 104.32305 
L 237.527758 104.40645 
L 238.670061 104.673293 
L 238.820364 104.780772 
L 238.970667 104.829991 
L 239.812364 105.063822 
L 240.398545 105.365482 
L 240.661576 105.550621 
L 240.917091 105.705431 
L 241.052364 105.769545 
L 242.269818 106.318687 
L 242.442667 106.377569 
L 242.946182 106.617366 
L 243.224242 106.723548 
L 243.532364 106.833356 
L 244.742303 107.203703 
L 245.07297 107.324671 
L 245.328485 107.683268 
L 246.072485 107.837891 
L 246.222788 107.892595 
L 247.154667 108.124286 
L 247.748364 108.34744 
L 247.988848 108.568383 
L 248.349576 108.744077 
L 248.537455 108.959512 
L 249.972848 109.556253 
L 250.130667 109.677668 
L 250.265939 109.773522 
L 250.468848 109.972143 
L 250.964848 110.082413 
L 251.160242 110.114575 
L 251.581091 110.279732 
L 251.76897 110.437201 
L 252.460364 110.546663 
L 252.903758 110.772706 
L 253.324606 110.888518 
L 253.572606 111.003589 
L 254.857697 111.335146 
L 255.015515 111.480952 
L 255.812121 111.715694 
L 257.194909 112.128567 
L 257.345212 112.282795 
L 257.578182 112.370259 
L 257.766061 112.490229 
L 257.908848 112.625539 
L 258.209455 112.747605 
L 258.637818 112.974864 
L 259.509576 113.189788 
L 259.70497 113.2299 
L 259.825212 113.383949 
L 259.960485 113.461802 
L 260.246061 113.571269 
L 261.065212 113.897901 
L 261.177939 114.011163 
L 261.456 114.193672 
L 262.132364 114.494089 
L 262.665939 114.707251 
L 262.989091 114.820388 
L 263.770667 115.199336 
L 265.40897 115.924825 
L 265.634424 116.055602 
L 266.220606 116.247253 
L 267.280242 116.46915 
L 267.558303 116.782109 
L 268.212121 116.986552 
L 268.407515 117.083954 
L 269.527273 117.316452 
L 269.993212 117.471643 
L 270.662061 117.6017 
L 271.308364 117.743345 
L 271.714182 117.855172 
L 272.488242 118.054917 
L 273.209697 118.19577 
L 274.058909 118.655685 
L 274.306909 118.764126 
L 274.83297 118.866915 
L 275.569455 119.049526 
L 275.802424 119.100216 
L 276.343515 119.30199 
L 276.508848 119.427474 
L 276.711758 119.555315 
L 276.854545 119.631736 
L 277.162667 119.740697 
L 278.109576 120.2246 
L 280.033455 120.868345 
L 280.183758 120.964855 
L 281.235879 121.180425 
L 281.882182 121.545194 
L 282.505939 121.771225 
L 282.979394 121.906548 
L 283.144727 121.977585 
L 284.091636 122.200389 
L 284.309576 122.269548 
L 284.873212 122.37989 
L 287.435879 123.260794 
L 287.789091 123.368475 
L 287.984485 123.425432 
L 288.209939 123.478252 
L 288.675879 123.652419 
L 288.818667 123.754725 
L 289.21697 123.92846 
L 289.419879 124.070215 
L 290.216485 124.383158 
L 291.651879 124.742644 
L 292.110303 124.883278 
L 292.538667 125.052553 
L 293.95903 125.315759 
L 294.222061 125.382803 
L 298.347879 126.286 
L 298.565818 126.364714 
L 299.354909 126.483344 
L 300.061333 126.698183 
L 300.692606 126.810949 
L 301.263758 126.928602 
L 301.662061 127.04507 
L 301.842424 127.089616 
L 302.789333 127.330286 
L 303.60097 127.486737 
L 303.954182 127.549408 
L 306.171152 127.977747 
L 306.381576 128.04902 
L 308.771394 128.370507 
L 309.222303 128.466127 
L 309.83103 128.577254 
L 310.409697 128.769337 
L 311.236364 128.915672 
L 311.401697 128.96073 
L 311.942788 129.105534 
L 312.296 129.151092 
L 312.80703 129.263791 
L 313.062545 129.304625 
L 314.858667 129.587101 
L 315.106667 129.718631 
L 315.993455 129.830371 
L 316.27903 129.9332 
L 317.158303 130.058374 
L 317.398788 130.123924 
L 318.067636 130.242699 
L 319.638303 130.55763 
L 320.765576 130.669424 
L 321.081212 130.71577 
L 321.825212 130.827637 
L 323.824242 131.200902 
L 324.087273 131.29202 
L 324.590788 131.403943 
L 331.422061 132.348123 
L 331.579879 132.370764 
L 332.421576 132.483593 
L 333.421091 132.614532 
L 335.728242 132.964257 
L 335.953697 133.020117 
L 336.58497 133.166396 
L 336.742788 133.205162 
L 338.358545 133.399037 
L 338.614061 133.462707 
L 339.034909 133.507954 
L 339.673697 133.623407 
L 341.620121 134.070963 
L 342.341576 134.265788 
L 343.258424 134.371205 
L 343.814545 134.4812 
L 343.957333 134.539035 
L 345.302545 134.733148 
L 346.031515 134.963894 
L 351.697939 136.08269 
L 351.878303 136.120733 
L 352.48703 136.233476 
L 352.637333 136.272037 
L 353.328727 136.537742 
L 353.907394 136.654731 
L 354.042667 136.702115 
L 355.282667 136.91576 
L 355.485576 136.948931 
L 355.951515 137.072149 
L 356.17697 137.1456 
L 356.793212 137.258572 
L 358.303758 137.670483 
L 358.521697 137.783533 
L 358.822303 137.865636 
L 359.318303 137.990975 
L 359.641455 138.098572 
L 360.438061 138.232689 
L 360.663515 138.313618 
L 361.091879 138.439706 
L 361.272242 138.526646 
L 361.850909 138.767261 
L 362.196606 138.916366 
L 365.781333 140.385992 
L 366.37503 140.60351 
L 366.608 140.786496 
L 367.134061 140.933504 
L 367.735273 141.422934 
L 367.975758 141.54606 
L 369.275879 142.355274 
L 369.441212 142.478746 
L 369.779394 142.584163 
L 370.380606 142.848234 
L 370.576 143.10828 
L 370.741333 143.225016 
L 371.079515 143.444679 
L 371.259879 143.568137 
L 371.455273 143.674422 
L 371.598061 143.76325 
L 371.861091 143.974373 
L 372.071515 144.085243 
L 372.244364 144.288989 
L 372.492364 144.39904 
L 372.665212 144.468973 
L 372.905697 144.601006 
L 372.973333 144.722626 
L 373.364121 145.023178 
L 373.514424 145.107471 
L 373.747394 145.307836 
L 374.363636 145.959321 
L 374.498909 146.166957 
L 374.874667 146.542707 
L 375.017455 146.657324 
L 375.062545 146.769112 
L 375.190303 146.920835 
L 375.505939 147.055876 
L 376.039515 147.608773 
L 376.227394 147.762647 
L 376.392727 147.909913 
L 376.54303 148.008946 
L 376.798545 148.536546 
L 377.407273 148.844072 
L 377.647758 149.148374 
L 377.813091 149.249992 
L 378.068606 149.601184 
L 378.196364 149.712426 
L 378.339152 149.805317 
L 378.399273 149.891817 
L 378.542061 150.070431 
L 378.812606 150.372236 
L 379.105697 150.598317 
L 379.24097 150.738528 
L 379.661818 151.236437 
L 379.812121 151.346852 
L 380.090182 151.482542 
L 380.270545 151.622157 
L 380.616242 151.946619 
L 380.75903 152.091949 
L 380.984485 152.274594 
L 381.044606 152.374446 
L 381.25503 152.636675 
L 381.457939 152.851991 
L 381.638303 153.054914 
L 381.788606 153.19888 
L 382.262061 154.072858 
L 382.74303 154.503894 
L 382.863273 154.612108 
L 383.043636 154.781617 
L 383.915394 156.079803 
L 384.170909 156.427028 
L 384.23103 156.688053 
L 384.509091 157.639578 
L 384.591758 157.823741 
L 384.734545 158.237853 
L 384.907394 158.566484 
L 384.967515 158.715491 
L 385.568727 159.815755 
L 385.71903 160.159015 
L 385.906909 160.289786 
L 386.019636 160.634444 
L 386.169939 161.09867 
L 386.260121 161.271434 
L 386.508121 161.885735 
L 386.635879 162.310156 
L 386.771152 162.481993 
L 386.891394 162.607492 
L 387.041697 163.040563 
L 387.199515 163.161501 
L 387.394909 163.568284 
L 387.44 163.667105 
L 387.853333 164.152057 
L 387.883394 164.229199 
L 388.041212 164.91684 
L 388.131394 165.239005 
L 388.259152 165.551747 
L 388.439515 165.774229 
L 388.589818 165.903414 
L 388.762667 166.800341 
L 389.348848 167.328165 
L 389.641939 168.222034 
L 389.754667 168.438937 
L 390.15297 169.259264 
L 390.280727 169.502978 
L 390.408485 169.981226 
L 390.912 172.146302 
L 390.972121 172.246905 
L 391.137455 172.635083 
L 392.069333 176.044887 
L 392.264727 176.160446 
L 392.753212 177.859054 
L 393.001212 179.573344 
L 393.046303 179.881996 
L 393.452121 181.919432 
L 393.519758 182.060713 
L 394.053333 184.353433 
L 394.211152 185.964439 
L 394.241212 186.02809 
L 394.609455 191.120953 
L 394.759758 191.661491 
L 394.955152 192.587236 
L 395.233212 194.020796 
L 395.368485 194.400515 
L 395.511273 195.058232 
L 395.751758 197.759703 
L 395.879515 198.287788 
L 395.977212 198.861393 
L 396.292848 203.645395 
L 396.330424 204.086101 
L 396.518303 206.260915 
L 396.533333 206.475042 
L 396.916606 210.402637 
L 397.187152 215.654864 
L 397.577939 220.957142 
L 397.758303 225.516106 
L 397.878545 229.672243 
L 398.021333 240.304391 
L 398.329455 258.534575 
L 398.479758 295.488 
L 398.479758 295.488 
" clip-path="url(#p34599ce9fd)" style="fill: none; stroke: #1f77b4; stroke-width: 1.5; stroke-linecap: square"/>
   </g>
   <g id="line2d_12">
    <path d="M 141.702061 59.260237 
L 303.946667 127.548294 
" clip-path="url(#p34599ce9fd)" style="fill: none; stroke-dasharray: 5.55,2.4; stroke-dashoffset: 0; stroke: #ff7f0e; stroke-width: 1.5"/>
   </g>
   <g id="line2d_13">
    <path d="M 73.832727 121.857502 
L 398.487273 121.857502 
L 398.487273 121.857502 
" clip-path="url(#p34599ce9fd)" style="fill: none; stroke-dasharray: 5.55,2.4; stroke-dashoffset: 0; stroke: #2ca02c; stroke-width: 1.5"/>
   </g>
   <g id="LineCollection_1">
    <path d="M 303.946667 295.488 
L 303.946667 53.568 
" clip-path="url(#p34599ce9fd)" style="fill: none; stroke-dasharray: 5.55,2.4; stroke-dashoffset: 0; stroke: #1f77b4; stroke-width: 1.5"/>
   </g>
   <g id="patch_3">
    <path d="M 57.6 307.584 
L 57.6 41.472 
" style="fill: none; stroke: #000000; stroke-width: 0.8; stroke-linejoin: miter; stroke-linecap: square"/>
   </g>
   <g id="patch_4">
    <path d="M 414.72 307.584 
L 414.72 41.472 
" style="fill: none; stroke: #000000; stroke-width: 0.8; stroke-linejoin: miter; stroke-linecap: square"/>
   </g>
   <g id="patch_5">
    <path d="M 57.6 307.584 
L 414.72 307.584 
" style="fill: none; stroke: #000000; stroke-width: 0.8; stroke-linejoin: miter; stroke-linecap: square"/>
   </g>
   <g id="patch_6">
    <path d="M 57.6 41.472 
L 414.72 41.472 
" style="fill: none; stroke: #000000; stroke-width: 0.8; stroke-linejoin: miter; stroke-linecap: square"/>
   </g>
   <g id="text_11">
    <!-- Energy Decay - 8000 Hz -->
    <g transform="translate(163.59 35.472) scale(0.12 -0.12)">
     <defs>
      <path id="DejaVuSans-45" d="M 628 4666 
L 3578 4666 
L 3578 4134 
L 1259 4134 
L 1259 2753 
L 3481 2753 
L 3481 2222 
L 1259 2222 
L 1259 531 
L 3634 531 
L 3634 0 
L 628 0 
L 628 4666 
z
" transform="scale(0.015625)"/>
      <path id="DejaVuSans-6e" d="M 3513 2113 
L 3513 0 
L 2938 0 
L 2938 2094 
Q 2938 2591 2744 2837 
Q 2550 3084 2163 3084 
Q 1697 3084 1428 2787 
Q 1159 2491 1159 1978 
L 1159 0 
L 581 0 
L 581 3500 
L 1159 3500 
L 1159 2956 
Q 1366 3272 1645 3428 
Q 1925 3584 2291 3584 
Q 2894 3584 3203 3211 
Q 3513 2838 3513 2113 
z
" transform="scale(0.015625)"/>
      <path id="DejaVuSans-65" d="M 3597 1894 
L 3597 1613 
L 953 1613 
Q 991 1019 1311 708 
Q 1631 397 2203 397 
Q 2534 397 2845 478 
Q 3156 559 3463 722 
L 3463 178 
Q 3153 47 2828 -22 
Q 2503 -91 2169 -91 
Q 1331 -91 842 396 
Q 353 884 353 1716 
Q 353 2575 817 3079 
Q 1281 3584 2069 3584 
Q 2775 3584 3186 3129 
Q 3597 2675 3597 1894 
z
M 3022 2063 
Q 3016 2534 2758 2815 
Q 2500 3097 2075 3097 
Q 1594 3097 1305 2825 
Q 1016 2553 972 2059 
L 3022 2063 
z
" transform="scale(0.015625)"/>
      <path id="DejaVuSans-72" d="M 2631 2963 
Q 2534 3019 2420 3045 
Q 2306 3072 2169 3072 
Q 1681 3072 1420 2755 
Q 1159 2438 1159 1844 
L 1159 0 
L 581 0 
L 581 3500 
L 1159 3500 
L 1159 2956 
Q 1341 3275 1631 3429 
Q 1922 3584 2338 3584 
Q 2397 3584 2469 3576 
Q 2541 3569 2628 3553 
L 2631 2963 
z
" transform="scale(0.015625)"/>
      <path id="DejaVuSans-67" d="M 2906 1791 
Q 2906 2416 2648 2759 
Q 2391 3103 1925 3103 
Q 1463 3103 1205 2759 
Q 947 2416 947 1791 
Q 947 1169 1205 825 
Q 1463 481 1925 481 
Q 2391 481 2648 825 
Q 2906 1169 2906 1791 
z
M 3481 434 
Q 3481 -459 3084 -895 
Q 2688 -1331 1869 -1331 
Q 1566 -1331 1297 -1286 
Q 1028 -1241 775 -1147 
L 775 -588 
Q 1028 -725 1275 -790 
Q 1522 -856 1778 -856 
Q 2344 -856 2625 -561 
Q 2906 -266 2906 331 
L 2906 616 
Q 2728 306 2450 153 
Q 2172 0 1784 0 
Q 1141 0 747 490 
Q 353 981 353 1791 
Q 353 2603 747 3093 
Q 1141 3584 1784 3584 
Q 2172 3584 2450 3431 
Q 2728 3278 2906 2969 
L 2906 3500 
L 3481 3500 
L 3481 434 
z
" transform="scale(0.015625)"/>
      <path id="DejaVuSans-79" d="M 2059 -325 
Q 1816 -950 1584 -1140 
Q 1353 -1331 966 -1331 
L 506 -1331 
L 506 -850 
L 844 -850 
Q 1081 -850 1212 -737 
Q 1344 -625 1503 -206 
L 1606 56 
L 191 3500 
L 800 3500 
L 1894 763 
L 2988 3500 
L 3597 3500 
L 2059 -325 
z
" transform="scale(0.015625)"/>
      <path id="DejaVuSans-20" transform="scale(0.015625)"/>
      <path id="DejaVuSans-44" d="M 1259 4147 
L 1259 519 
L 2022 519 
Q 2988 519 3436 956 
Q 3884 1394 3884 2338 
Q 3884 3275 3436 3711 
Q 2988 4147 2022 4147 
L 1259 4147 
z
M 628 4666 
L 1925 4666 
Q 3281 4666 3915 4102 
Q 4550 3538 4550 2338 
Q 4550 1131 3912 565 
Q 3275 0 1925 0 
L 628 0 
L 628 4666 
z
" transform="scale(0.015625)"/>
      <path id="DejaVuSans-63" d="M 3122 3366 
L 3122 2828 
Q 2878 2963 2633 3030 
Q 2388 3097 2138 3097 
Q 1578 3097 1268 2742 
Q 959 2388 959 1747 
Q 959 1106 1268 751 
Q 1578 397 2138 397 
Q 2388 397 2633 464 
Q 2878 531 3122 666 
L 3122 134 
Q 2881 22 2623 -34 
Q 2366 -91 2075 -91 
Q 1284 -91 818 406 
Q 353 903 353 1747 
Q 353 2603 823 3093 
Q 1294 3584 2113 3584 
Q 2378 3584 2631 3529 
Q 2884 3475 3122 3366 
z
" transform="scale(0.015625)"/>
      <path id="DejaVuSans-61" d="M 2194 1759 
Q 1497 1759 1228 1600 
Q 959 1441 959 1056 
Q 959 750 1161 570 
Q 1363 391 1709 391 
Q 2188 391 2477 730 
Q 2766 1069 2766 1631 
L 2766 1759 
L 2194 1759 
z
M 3341 1997 
L 3341 0 
L 2766 0 
L 2766 531 
Q 2569 213 2275 61 
Q 1981 -91 1556 -91 
Q 1019 -91 701 211 
Q 384 513 384 1019 
Q 384 1609 779 1909 
Q 1175 2209 1959 2209 
L 2766 2209 
L 2766 2266 
Q 2766 2663 2505 2880 
Q 2244 3097 1772 3097 
Q 1472 3097 1187 3025 
Q 903 2953 641 2809 
L 641 3341 
Q 956 3463 1253 3523 
Q 1550 3584 1831 3584 
Q 2591 3584 2966 3190 
Q 3341 2797 3341 1997 
z
" transform="scale(0.015625)"/>
      <path id="DejaVuSans-2d" d="M 313 2009 
L 1997 2009 
L 1997 1497 
L 313 1497 
L 313 2009 
z
" transform="scale(0.015625)"/>
      <path id="DejaVuSans-38" d="M 2034 2216 
Q 1584 2216 1326 1975 
Q 1069 1734 1069 1313 
Q 1069 891 1326 650 
Q 1584 409 2034 409 
Q 2484 409 2743 651 
Q 3003 894 3003 1313 
Q 3003 1734 2745 1975 
Q 2488 2216 2034 2216 
z
M 1403 2484 
Q 997 2584 770 2862 
Q 544 3141 544 3541 
Q 544 4100 942 4425 
Q 1341 4750 2034 4750 
Q 2731 4750 3128 4425 
Q 3525 4100 3525 3541 
Q 3525 3141 3298 2862 
Q 3072 2584 2669 2484 
Q 3125 2378 3379 2068 
Q 3634 1759 3634 1313 
Q 3634 634 3220 271 
Q 2806 -91 2034 -91 
Q 1263 -91 848 271 
Q 434 634 434 1313 
Q 434 1759 690 2068 
Q 947 2378 1403 2484 
z
M 1172 3481 
Q 1172 3119 1398 2916 
Q 1625 2713 2034 2713 
Q 2441 2713 2670 2916 
Q 2900 3119 2900 3481 
Q 2900 3844 2670 4047 
Q 2441 4250 2034 4250 
Q 1625 4250 1398 4047 
Q 1172 3844 1172 3481 
z
" transform="scale(0.015625)"/>
      <path id="DejaVuSans-48" d="M 628 4666 
L 1259 4666 
L 1259 2753 
L 3553 2753 
L 3553 4666 
L 4184 4666 
L 4184 0 
L 3553 0 
L 3553 2222 
L 1259 2222 
L 1259 0 
L 628 0 
L 628 4666 
z
" transform="scale(0.015625)"/>
      <path id="DejaVuSans-7a" d="M 353 3500 
L 3084 3500 
L 3084 2975 
L 922 459 
L 3084 459 
L 3084 0 
L 275 0 
L 275 525 
L 2438 3041 
L 353 3041 
L 353 3500 
z
" transform="scale(0.015625)"/>
     </defs>
     <use xlink:href="#DejaVuSans-45"/>
     <use xlink:href="#DejaVuSans-6e" transform="translate(63.183594 0)"/>
     <use xlink:href="#DejaVuSans-65" transform="translate(126.5625 0)"/>
     <use xlink:href="#DejaVuSans-72" transform="translate(188.085938 0)"/>
     <use xlink:href="#DejaVuSans-67" transform="translate(227.449219 0)"/>
     <use xlink:href="#DejaVuSans-79" transform="translate(290.925781 0)"/>
     <use xlink:href="#DejaVuSans-20" transform="translate(350.105469 0)"/>
     <use xlink:href="#DejaVuSans-44" transform="translate(381.892578 0)"/>
     <use xlink:href="#DejaVuSans-65" transform="translate(458.894531 0)"/>
     <use xlink:href="#DejaVuSans-63" transform="translate(520.417969 0)"/>
     <use xlink:href="#DejaVuSans-61" transform="translate(575.398438 0)"/>
     <use xlink:href="#DejaVuSans-79" transform="translate(636.677734 0)"/>
     <use xlink:href="#DejaVuSans-20" transform="translate(695.857422 0)"/>
     <use xlink:href="#DejaVuSans-2d" transform="translate(727.644531 0)"/>
     <use xlink:href="#DejaVuSans-20" transform="translate(763.728516 0)"/>
     <use xlink:href="#DejaVuSans-38" transform="translate(795.515625 0)"/>
     <use xlink:href="#DejaVuSans-30" transform="translate(859.138672 0)"/>
     <use xlink:href="#DejaVuSans-30" transform="translate(922.761719 0)"/>
     <use xlink:href="#DejaVuSans-30" transform="translate(986.384766 0)"/>
     <use xlink:href="#DejaVuSans-20" transform="translate(1050.007812 0)"/>
     <use xlink:href="#DejaVuSans-48" transform="translate(1081.794922 0)"/>
     <use xlink:href="#DejaVuSans-7a" transform="translate(1156.990234 0)"/>
    </g>
   </g>
   <g id="legend_1">
    <g id="patch_7">
     <path d="M 296.968437 108.1845 
L 407.72 108.1845 
Q 409.72 108.1845 409.72 106.1845 
L 409.72 48.472 
Q 409.72 46.472 407.72 46.472 
L 296.968437 46.472 
Q 294.968437 46.472 294.968437 48.472 
L 294.968437 106.1845 
Q 294.968437 108.1845 296.968437 108.1845 
z
" style="fill: #ffffff; opacity: 0.8; stroke: #cccccc; stroke-linejoin: miter"/>
    </g>
    <g id="line2d_14">
     <path d="M 298.968437 54.570438 
L 308.968437 54.570438 
L 318.968437 54.570438 
" style="fill: none; stroke: #1f77b4; stroke-width: 1.5; stroke-linecap: square"/>
    </g>
    <g id="text_12">
     <!-- Energy -->
     <g transform="translate(326.968437 58.070438) scale(0.1 -0.1)">
      <use xlink:href="#DejaVuSans-45"/>
      <use xlink:href="#DejaVuSans-6e" transform="translate(63.183594 0)"/>
      <use xlink:href="#DejaVuSans-65" transform="translate(126.5625 0)"/>
      <use xlink:href="#DejaVuSans-72" transform="translate(188.085938 0)"/>
      <use xlink:href="#DejaVuSans-67" transform="translate(227.449219 0)"/>
      <use xlink:href="#DejaVuSans-79" transform="translate(290.925781 0)"/>
     </g>
    </g>
    <g id="line2d_15">
     <path d="M 298.968437 69.248563 
L 308.968437 69.248563 
L 318.968437 69.248563 
" style="fill: none; stroke-dasharray: 5.55,2.4; stroke-dashoffset: 0; stroke: #ff7f0e; stroke-width: 1.5"/>
    </g>
    <g id="text_13">
     <!-- Linear Fit -->
     <g transform="translate(326.968437 72.748563) scale(0.1 -0.1)">
      <defs>
       <path id="DejaVuSans-4c" d="M 628 4666 
L 1259 4666 
L 1259 531 
L 3531 531 
L 3531 0 
L 628 0 
L 628 4666 
z
" transform="scale(0.015625)"/>
       <path id="DejaVuSans-69" d="M 603 3500 
L 1178 3500 
L 1178 0 
L 603 0 
L 603 3500 
z
M 603 4863 
L 1178 4863 
L 1178 4134 
L 603 4134 
L 603 4863 
z
" transform="scale(0.015625)"/>
       <path id="DejaVuSans-46" d="M 628 4666 
L 3309 4666 
L 3309 4134 
L 1259 4134 
L 1259 2759 
L 3109 2759 
L 3109 2228 
L 1259 2228 
L 1259 0 
L 628 0 
L 628 4666 
z
" transform="scale(0.015625)"/>
       <path id="DejaVuSans-74" d="M 1172 4494 
L 1172 3500 
L 2356 3500 
L 2356 3053 
L 1172 3053 
L 1172 1153 
Q 1172 725 1289 603 
Q 1406 481 1766 481 
L 2356 481 
L 2356 0 
L 1766 0 
Q 1100 0 847 248 
Q 594 497 594 1153 
L 594 3053 
L 172 3053 
L 172 3500 
L 594 3500 
L 594 4494 
L 1172 4494 
z
" transform="scale(0.015625)"/>
      </defs>
      <use xlink:href="#DejaVuSans-4c"/>
      <use xlink:href="#DejaVuSans-69" transform="translate(55.712891 0)"/>
      <use xlink:href="#DejaVuSans-6e" transform="translate(83.496094 0)"/>
      <use xlink:href="#DejaVuSans-65" transform="translate(146.875 0)"/>
      <use xlink:href="#DejaVuSans-61" transform="translate(208.398438 0)"/>
      <use xlink:href="#DejaVuSans-72" transform="translate(269.677734 0)"/>
      <use xlink:href="#DejaVuSans-20" transform="translate(310.791016 0)"/>
      <use xlink:href="#DejaVuSans-46" transform="translate(342.578125 0)"/>
      <use xlink:href="#DejaVuSans-69" transform="translate(392.847656 0)"/>
      <use xlink:href="#DejaVuSans-74" transform="translate(420.630859 0)"/>
     </g>
    </g>
    <g id="line2d_16">
     <path d="M 298.968437 83.926688 
L 308.968437 83.926688 
L 318.968437 83.926688 
" style="fill: none; stroke-dasharray: 5.55,2.4; stroke-dashoffset: 0; stroke: #2ca02c; stroke-width: 1.5"/>
    </g>
    <g id="text_14">
     <!-- -60 dB -->
     <g transform="translate(326.968437 87.426688) scale(0.1 -0.1)">
      <defs>
       <path id="DejaVuSans-64" d="M 2906 2969 
L 2906 4863 
L 3481 4863 
L 3481 0 
L 2906 0 
L 2906 525 
Q 2725 213 2448 61 
Q 2172 -91 1784 -91 
Q 1150 -91 751 415 
Q 353 922 353 1747 
Q 353 2572 751 3078 
Q 1150 3584 1784 3584 
Q 2172 3584 2448 3432 
Q 2725 3281 2906 2969 
z
M 947 1747 
Q 947 1113 1208 752 
Q 1469 391 1925 391 
Q 2381 391 2643 752 
Q 2906 1113 2906 1747 
Q 2906 2381 2643 2742 
Q 2381 3103 1925 3103 
Q 1469 3103 1208 2742 
Q 947 2381 947 1747 
z
" transform="scale(0.015625)"/>
       <path id="DejaVuSans-42" d="M 1259 2228 
L 1259 519 
L 2272 519 
Q 2781 519 3026 730 
Q 3272 941 3272 1375 
Q 3272 1813 3026 2020 
Q 2781 2228 2272 2228 
L 1259 2228 
z
M 1259 4147 
L 1259 2741 
L 2194 2741 
Q 2656 2741 2882 2914 
Q 3109 3088 3109 3444 
Q 3109 3797 2882 3972 
Q 2656 4147 2194 4147 
L 1259 4147 
z
M 628 4666 
L 2241 4666 
Q 2963 4666 3353 4366 
Q 3744 4066 3744 3513 
Q 3744 3084 3544 2831 
Q 3344 2578 2956 2516 
Q 3422 2416 3680 2098 
Q 3938 1781 3938 1306 
Q 3938 681 3513 340 
Q 3088 0 2303 0 
L 628 0 
L 628 4666 
z
" transform="scale(0.015625)"/>
      </defs>
      <use xlink:href="#DejaVuSans-2d"/>
      <use xlink:href="#DejaVuSans-36" transform="translate(36.083984 0)"/>
      <use xlink:href="#DejaVuSans-30" transform="translate(99.707031 0)"/>
      <use xlink:href="#DejaVuSans-20" transform="translate(163.330078 0)"/>
      <use xlink:href="#DejaVuSans-64" transform="translate(195.117188 0)"/>
      <use xlink:href="#DejaVuSans-42" transform="translate(258.59375 0)"/>
     </g>
    </g>
    <g id="line2d_17">
     <path d="M 298.968437 98.604813 
L 318.968437 98.604813 
" style="fill: none; stroke-dasharray: 5.55,2.4; stroke-dashoffset: 0; stroke: #1f77b4; stroke-width: 1.5"/>
    </g>
    <g id="text_15">
     <!-- Estimated RT60 -->
     <g transform="translate(326.968437 102.104813) scale(0.1 -0.1)">
      <defs>
       <path id="DejaVuSans-73" d="M 2834 3397 
L 2834 2853 
Q 2591 2978 2328 3040 
Q 2066 3103 1784 3103 
Q 1356 3103 1142 2972 
Q 928 2841 928 2578 
Q 928 2378 1081 2264 
Q 1234 2150 1697 2047 
L 1894 2003 
Q 2506 1872 2764 1633 
Q 3022 1394 3022 966 
Q 3022 478 2636 193 
Q 2250 -91 1575 -91 
Q 1294 -91 989 -36 
Q 684 19 347 128 
L 347 722 
Q 666 556 975 473 
Q 1284 391 1588 391 
Q 1994 391 2212 530 
Q 2431 669 2431 922 
Q 2431 1156 2273 1281 
Q 2116 1406 1581 1522 
L 1381 1569 
Q 847 1681 609 1914 
Q 372 2147 372 2553 
Q 372 3047 722 3315 
Q 1072 3584 1716 3584 
Q 2034 3584 2315 3537 
Q 2597 3491 2834 3397 
z
" transform="scale(0.015625)"/>
       <path id="DejaVuSans-6d" d="M 3328 2828 
Q 3544 3216 3844 3400 
Q 4144 3584 4550 3584 
Q 5097 3584 5394 3201 
Q 5691 2819 5691 2113 
L 5691 0 
L 5113 0 
L 5113 2094 
Q 5113 2597 4934 2840 
Q 4756 3084 4391 3084 
Q 3944 3084 3684 2787 
Q 3425 2491 3425 1978 
L 3425 0 
L 2847 0 
L 2847 2094 
Q 2847 2600 2669 2842 
Q 2491 3084 2119 3084 
Q 1678 3084 1418 2786 
Q 1159 2488 1159 1978 
L 1159 0 
L 581 0 
L 581 3500 
L 1159 3500 
L 1159 2956 
Q 1356 3278 1631 3431 
Q 1906 3584 2284 3584 
Q 2666 3584 2933 3390 
Q 3200 3197 3328 2828 
z
" transform="scale(0.015625)"/>
       <path id="DejaVuSans-52" d="M 2841 2188 
Q 3044 2119 3236 1894 
Q 3428 1669 3622 1275 
L 4263 0 
L 3584 0 
L 2988 1197 
Q 2756 1666 2539 1819 
Q 2322 1972 1947 1972 
L 1259 1972 
L 1259 0 
L 628 0 
L 628 4666 
L 2053 4666 
Q 2853 4666 3247 4331 
Q 3641 3997 3641 3322 
Q 3641 2881 3436 2590 
Q 3231 2300 2841 2188 
z
M 1259 4147 
L 1259 2491 
L 2053 2491 
Q 2509 2491 2742 2702 
Q 2975 2913 2975 3322 
Q 2975 3731 2742 3939 
Q 2509 4147 2053 4147 
L 1259 4147 
z
" transform="scale(0.015625)"/>
       <path id="DejaVuSans-54" d="M -19 4666 
L 3928 4666 
L 3928 4134 
L 2272 4134 
L 2272 0 
L 1638 0 
L 1638 4134 
L -19 4134 
L -19 4666 
z
" transform="scale(0.015625)"/>
      </defs>
      <use xlink:href="#DejaVuSans-45"/>
      <use xlink:href="#DejaVuSans-73" transform="translate(63.183594 0)"/>
      <use xlink:href="#DejaVuSans-74" transform="translate(115.283203 0)"/>
      <use xlink:href="#DejaVuSans-69" transform="translate(154.492188 0)"/>
      <use xlink:href="#DejaVuSans-6d" transform="translate(182.275391 0)"/>
      <use xlink:href="#DejaVuSans-61" transform="translate(279.6875 0)"/>
      <use xlink:href="#DejaVuSans-74" transform="translate(340.966797 0)"/>
      <use xlink:href="#DejaVuSans-65" transform="translate(380.175781 0)"/>
      <use xlink:href="#DejaVuSans-64" transform="translate(441.699219 0)"/>
      <use xlink:href="#DejaVuSans-20" transform="translate(505.175781 0)"/>
      <use xlink:href="#DejaVuSans-52" transform="translate(536.962891 0)"/>
      <use xlink:href="#DejaVuSans-54" transform="translate(599.195312 0)"/>
      <use xlink:href="#DejaVuSans-36" transform="translate(660.279297 0)"/>
      <use xlink:href="#DejaVuSans-30" transform="translate(723.902344 0)"/>
     </g>
    </g>
   </g>
  </g>
 </g>
 <defs>
  <clipPath id="p34599ce9fd">
   <rect x="57.6" y="41.472" width="357.12" height="266.112"/>
  </clipPath>
 </defs>
</svg>
