<?xml version="1.0" encoding="utf-8" standalone="no"?>
<!DOCTYPE svg PUBLIC "-//W3C//DTD SVG 1.1//EN"
  "http://www.w3.org/Graphics/SVG/1.1/DTD/svg11.dtd">
<svg xmlns:xlink="http://www.w3.org/1999/xlink" width="460.8pt" height="345.6pt" viewBox="0 0 460.8 345.6" xmlns="http://www.w3.org/2000/svg" version="1.1">
 <metadata>
  <rdf:RDF xmlns:dc="http://purl.org/dc/elements/1.1/" xmlns:cc="http://creativecommons.org/ns#" xmlns:rdf="http://www.w3.org/1999/02/22-rdf-syntax-ns#">
   <cc:Work>
    <dc:type rdf:resource="http://purl.org/dc/dcmitype/StillImage"/>
    <dc:date>2025-05-06T14:18:15.079312</dc:date>
    <dc:format>image/svg+xml</dc:format>
    <dc:creator>
     <cc:Agent>
      <dc:title>Matplotlib v3.10.1, https://matplotlib.org/</dc:title>
     </cc:Agent>
    </dc:creator>
   </cc:Work>
  </rdf:RDF>
 </metadata>
 <defs>
  <style type="text/css">*{stroke-linejoin: round; stroke-linecap: butt}</style>
 </defs>
 <g id="figure_1">
  <g id="patch_1">
   <path d="M 0 345.6 
L 460.8 345.6 
L 460.8 0 
L 0 0 
z
" style="fill: #ffffff"/>
  </g>
  <g id="axes_1">
   <g id="patch_2">
    <path d="M 57.6 307.584 
L 414.72 307.584 
L 414.72 41.472 
L 57.6 41.472 
z
" style="fill: #ffffff"/>
   </g>
   <g id="matplotlib.axis_1">
    <g id="xtick_1">
     <g id="line2d_1">
      <defs>
       <path id="m4eb801e40e" d="M 0 0 
L 0 3.5 
" style="stroke: #000000; stroke-width: 0.8"/>
      </defs>
      <g>
       <use xlink:href="#m4eb801e40e" x="65.881697" y="307.584" style="stroke: #000000; stroke-width: 0.8"/>
      </g>
     </g>
     <g id="text_1">
      <!-- −0.2 -->
      <g transform="translate(53.740291 322.182437) scale(0.1 -0.1)">
       <defs>
        <path id="DejaVuSans-2212" d="M 678 2272 
L 4684 2272 
L 4684 1741 
L 678 1741 
L 678 2272 
z
" transform="scale(0.015625)"/>
        <path id="DejaVuSans-30" d="M 2034 4250 
Q 1547 4250 1301 3770 
Q 1056 3291 1056 2328 
Q 1056 1369 1301 889 
Q 1547 409 2034 409 
Q 2525 409 2770 889 
Q 3016 1369 3016 2328 
Q 3016 3291 2770 3770 
Q 2525 4250 2034 4250 
z
M 2034 4750 
Q 2819 4750 3233 4129 
Q 3647 3509 3647 2328 
Q 3647 1150 3233 529 
Q 2819 -91 2034 -91 
Q 1250 -91 836 529 
Q 422 1150 422 2328 
Q 422 3509 836 4129 
Q 1250 4750 2034 4750 
z
" transform="scale(0.015625)"/>
        <path id="DejaVuSans-2e" d="M 684 794 
L 1344 794 
L 1344 0 
L 684 0 
L 684 794 
z
" transform="scale(0.015625)"/>
        <path id="DejaVuSans-32" d="M 1228 531 
L 3431 531 
L 3431 0 
L 469 0 
L 469 531 
Q 828 903 1448 1529 
Q 2069 2156 2228 2338 
Q 2531 2678 2651 2914 
Q 2772 3150 2772 3378 
Q 2772 3750 2511 3984 
Q 2250 4219 1831 4219 
Q 1534 4219 1204 4116 
Q 875 4013 500 3803 
L 500 4441 
Q 881 4594 1212 4672 
Q 1544 4750 1819 4750 
Q 2544 4750 2975 4387 
Q 3406 4025 3406 3419 
Q 3406 3131 3298 2873 
Q 3191 2616 2906 2266 
Q 2828 2175 2409 1742 
Q 1991 1309 1228 531 
z
" transform="scale(0.015625)"/>
       </defs>
       <use xlink:href="#DejaVuSans-2212"/>
       <use xlink:href="#DejaVuSans-30" transform="translate(83.789062 0)"/>
       <use xlink:href="#DejaVuSans-2e" transform="translate(147.412109 0)"/>
       <use xlink:href="#DejaVuSans-32" transform="translate(179.199219 0)"/>
      </g>
     </g>
    </g>
    <g id="xtick_2">
     <g id="line2d_2">
      <g>
       <use xlink:href="#m4eb801e40e" x="138.027152" y="307.584" style="stroke: #000000; stroke-width: 0.8"/>
      </g>
     </g>
     <g id="text_2">
      <!-- 0.0 -->
      <g transform="translate(130.075589 322.182437) scale(0.1 -0.1)">
       <use xlink:href="#DejaVuSans-30"/>
       <use xlink:href="#DejaVuSans-2e" transform="translate(63.623047 0)"/>
       <use xlink:href="#DejaVuSans-30" transform="translate(95.410156 0)"/>
      </g>
     </g>
    </g>
    <g id="xtick_3">
     <g id="line2d_3">
      <g>
       <use xlink:href="#m4eb801e40e" x="210.172606" y="307.584" style="stroke: #000000; stroke-width: 0.8"/>
      </g>
     </g>
     <g id="text_3">
      <!-- 0.2 -->
      <g transform="translate(202.221044 322.182437) scale(0.1 -0.1)">
       <use xlink:href="#DejaVuSans-30"/>
       <use xlink:href="#DejaVuSans-2e" transform="translate(63.623047 0)"/>
       <use xlink:href="#DejaVuSans-32" transform="translate(95.410156 0)"/>
      </g>
     </g>
    </g>
    <g id="xtick_4">
     <g id="line2d_4">
      <g>
       <use xlink:href="#m4eb801e40e" x="282.318061" y="307.584" style="stroke: #000000; stroke-width: 0.8"/>
      </g>
     </g>
     <g id="text_4">
      <!-- 0.4 -->
      <g transform="translate(274.366498 322.182437) scale(0.1 -0.1)">
       <defs>
        <path id="DejaVuSans-34" d="M 2419 4116 
L 825 1625 
L 2419 1625 
L 2419 4116 
z
M 2253 4666 
L 3047 4666 
L 3047 1625 
L 3713 1625 
L 3713 1100 
L 3047 1100 
L 3047 0 
L 2419 0 
L 2419 1100 
L 313 1100 
L 313 1709 
L 2253 4666 
z
" transform="scale(0.015625)"/>
       </defs>
       <use xlink:href="#DejaVuSans-30"/>
       <use xlink:href="#DejaVuSans-2e" transform="translate(63.623047 0)"/>
       <use xlink:href="#DejaVuSans-34" transform="translate(95.410156 0)"/>
      </g>
     </g>
    </g>
    <g id="xtick_5">
     <g id="line2d_5">
      <g>
       <use xlink:href="#m4eb801e40e" x="354.463515" y="307.584" style="stroke: #000000; stroke-width: 0.8"/>
      </g>
     </g>
     <g id="text_5">
      <!-- 0.6 -->
      <g transform="translate(346.511953 322.182437) scale(0.1 -0.1)">
       <defs>
        <path id="DejaVuSans-36" d="M 2113 2584 
Q 1688 2584 1439 2293 
Q 1191 2003 1191 1497 
Q 1191 994 1439 701 
Q 1688 409 2113 409 
Q 2538 409 2786 701 
Q 3034 994 3034 1497 
Q 3034 2003 2786 2293 
Q 2538 2584 2113 2584 
z
M 3366 4563 
L 3366 3988 
Q 3128 4100 2886 4159 
Q 2644 4219 2406 4219 
Q 1781 4219 1451 3797 
Q 1122 3375 1075 2522 
Q 1259 2794 1537 2939 
Q 1816 3084 2150 3084 
Q 2853 3084 3261 2657 
Q 3669 2231 3669 1497 
Q 3669 778 3244 343 
Q 2819 -91 2113 -91 
Q 1303 -91 875 529 
Q 447 1150 447 2328 
Q 447 3434 972 4092 
Q 1497 4750 2381 4750 
Q 2619 4750 2861 4703 
Q 3103 4656 3366 4563 
z
" transform="scale(0.015625)"/>
       </defs>
       <use xlink:href="#DejaVuSans-30"/>
       <use xlink:href="#DejaVuSans-2e" transform="translate(63.623047 0)"/>
       <use xlink:href="#DejaVuSans-36" transform="translate(95.410156 0)"/>
      </g>
     </g>
    </g>
   </g>
   <g id="matplotlib.axis_2">
    <g id="ytick_1">
     <g id="line2d_6">
      <defs>
       <path id="m1dbf3a0425" d="M 0 0 
L -3.5 0 
" style="stroke: #000000; stroke-width: 0.8"/>
      </defs>
      <g>
       <use xlink:href="#m1dbf3a0425" x="57.6" y="286.31336" style="stroke: #000000; stroke-width: 0.8"/>
      </g>
     </g>
     <g id="text_6">
      <!-- −200 -->
      <g transform="translate(23.132812 290.112579) scale(0.1 -0.1)">
       <use xlink:href="#DejaVuSans-2212"/>
       <use xlink:href="#DejaVuSans-32" transform="translate(83.789062 0)"/>
       <use xlink:href="#DejaVuSans-30" transform="translate(147.412109 0)"/>
       <use xlink:href="#DejaVuSans-30" transform="translate(211.035156 0)"/>
      </g>
     </g>
    </g>
    <g id="ytick_2">
     <g id="line2d_7">
      <g>
       <use xlink:href="#m1dbf3a0425" x="57.6" y="228.12702" style="stroke: #000000; stroke-width: 0.8"/>
      </g>
     </g>
     <g id="text_7">
      <!-- −150 -->
      <g transform="translate(23.132812 231.926239) scale(0.1 -0.1)">
       <defs>
        <path id="DejaVuSans-31" d="M 794 531 
L 1825 531 
L 1825 4091 
L 703 3866 
L 703 4441 
L 1819 4666 
L 2450 4666 
L 2450 531 
L 3481 531 
L 3481 0 
L 794 0 
L 794 531 
z
" transform="scale(0.015625)"/>
        <path id="DejaVuSans-35" d="M 691 4666 
L 3169 4666 
L 3169 4134 
L 1269 4134 
L 1269 2991 
Q 1406 3038 1543 3061 
Q 1681 3084 1819 3084 
Q 2600 3084 3056 2656 
Q 3513 2228 3513 1497 
Q 3513 744 3044 326 
Q 2575 -91 1722 -91 
Q 1428 -91 1123 -41 
Q 819 9 494 109 
L 494 744 
Q 775 591 1075 516 
Q 1375 441 1709 441 
Q 2250 441 2565 725 
Q 2881 1009 2881 1497 
Q 2881 1984 2565 2268 
Q 2250 2553 1709 2553 
Q 1456 2553 1204 2497 
Q 953 2441 691 2322 
L 691 4666 
z
" transform="scale(0.015625)"/>
       </defs>
       <use xlink:href="#DejaVuSans-2212"/>
       <use xlink:href="#DejaVuSans-31" transform="translate(83.789062 0)"/>
       <use xlink:href="#DejaVuSans-35" transform="translate(147.412109 0)"/>
       <use xlink:href="#DejaVuSans-30" transform="translate(211.035156 0)"/>
      </g>
     </g>
    </g>
    <g id="ytick_3">
     <g id="line2d_8">
      <g>
       <use xlink:href="#m1dbf3a0425" x="57.6" y="169.94068" style="stroke: #000000; stroke-width: 0.8"/>
      </g>
     </g>
     <g id="text_8">
      <!-- −100 -->
      <g transform="translate(23.132812 173.739899) scale(0.1 -0.1)">
       <use xlink:href="#DejaVuSans-2212"/>
       <use xlink:href="#DejaVuSans-31" transform="translate(83.789062 0)"/>
       <use xlink:href="#DejaVuSans-30" transform="translate(147.412109 0)"/>
       <use xlink:href="#DejaVuSans-30" transform="translate(211.035156 0)"/>
      </g>
     </g>
    </g>
    <g id="ytick_4">
     <g id="line2d_9">
      <g>
       <use xlink:href="#m1dbf3a0425" x="57.6" y="111.75434" style="stroke: #000000; stroke-width: 0.8"/>
      </g>
     </g>
     <g id="text_9">
      <!-- −50 -->
      <g transform="translate(29.495313 115.553559) scale(0.1 -0.1)">
       <use xlink:href="#DejaVuSans-2212"/>
       <use xlink:href="#DejaVuSans-35" transform="translate(83.789062 0)"/>
       <use xlink:href="#DejaVuSans-30" transform="translate(147.412109 0)"/>
      </g>
     </g>
    </g>
    <g id="ytick_5">
     <g id="line2d_10">
      <g>
       <use xlink:href="#m1dbf3a0425" x="57.6" y="53.568" style="stroke: #000000; stroke-width: 0.8"/>
      </g>
     </g>
     <g id="text_10">
      <!-- 0 -->
      <g transform="translate(44.2375 57.367219) scale(0.1 -0.1)">
       <use xlink:href="#DejaVuSans-30"/>
      </g>
     </g>
    </g>
   </g>
   <g id="line2d_11">
    <path d="M 73.832727 53.568 
L 132.052606 53.645072 
L 132.270545 54.913453 
L 132.428364 54.993134 
L 132.75903 55.027962 
L 133.360242 55.133116 
L 133.540606 55.532598 
L 133.668364 55.639633 
L 133.886303 55.729467 
L 134.540121 55.899505 
L 134.705455 56.061493 
L 134.870788 56.587164 
L 135.133818 56.803932 
L 135.299152 56.933803 
L 135.667394 57.083038 
L 135.907879 57.263104 
L 136.358788 57.720369 
L 136.494061 57.938851 
L 136.599273 58.023103 
L 136.734545 58.128426 
L 136.892364 58.23337 
L 137.132848 58.65402 
L 137.230545 58.814118 
L 137.463515 58.962951 
L 137.606303 59.07186 
L 137.779152 59.184993 
L 137.96703 59.287481 
L 138.162424 59.532864 
L 139.131879 60.03848 
L 139.282182 60.191936 
L 139.492606 60.322445 
L 139.718061 60.730702 
L 139.988606 60.953972 
L 140.131394 61.058446 
L 140.469576 61.397165 
L 141.341333 61.931917 
L 141.499152 62.042885 
L 141.784727 62.358152 
L 142.062788 62.464587 
L 144.024242 63.591947 
L 144.234667 63.794665 
L 145.271758 64.768386 
L 145.399515 64.923468 
L 145.62497 65.019164 
L 145.775273 65.0927 
L 145.940606 65.141341 
L 146.196121 65.257606 
L 146.414061 65.388019 
L 146.662061 65.588542 
L 147.090424 65.980595 
L 147.255758 66.092721 
L 147.586424 66.446168 
L 147.714182 66.574474 
L 147.85697 66.629912 
L 148.150061 66.743946 
L 148.390545 66.871377 
L 148.578424 66.981276 
L 148.833939 67.229129 
L 148.991758 67.267131 
L 149.149576 67.378505 
L 149.765818 67.954476 
L 150.419636 68.433797 
L 150.547394 68.542825 
L 150.690182 68.65885 
L 150.855515 68.790835 
L 151.569455 69.24357 
L 151.712242 69.420412 
L 152.005333 69.54305 
L 152.065455 69.66842 
L 152.238303 69.797958 
L 152.794424 70.212061 
L 153.08 70.50815 
L 153.185212 70.608194 
L 153.335515 70.743556 
L 153.403152 70.851441 
L 153.59103 71.044605 
L 153.801455 71.140389 
L 154.004364 71.366587 
L 154.08703 71.465566 
L 154.229818 71.601455 
L 154.492848 71.71145 
L 154.846061 71.954186 
L 154.966303 72.063834 
L 155.582545 72.443086 
L 155.725333 72.548506 
L 155.808 72.638157 
L 155.935758 72.800248 
L 156.07103 72.903839 
L 156.221333 72.959836 
L 156.552 73.114135 
L 156.694788 73.450571 
L 156.957818 73.692117 
L 157.123152 73.84648 
L 157.31103 73.980098 
L 157.476364 74.158752 
L 157.844606 74.333741 
L 158.145212 74.439352 
L 158.227879 74.549926 
L 159.077091 75.207755 
L 159.212364 75.313226 
L 159.422788 75.433233 
L 159.873697 76.047665 
L 161.812606 77.359592 
L 162.233455 77.728027 
L 162.436364 78.002177 
L 162.789576 78.244078 
L 163.172848 78.558271 
L 163.465939 78.671623 
L 164.307636 79.53926 
L 164.450424 79.673518 
L 166.096242 80.362037 
L 166.254061 80.459478 
L 166.426909 80.857529 
L 167.268606 81.37061 
L 167.411394 81.467745 
L 167.757091 81.598972 
L 167.937455 81.834114 
L 168.102788 81.944846 
L 168.298182 82.111321 
L 168.395879 82.229688 
L 168.531152 82.329482 
L 169.252606 82.76849 
L 169.493091 82.896444 
L 169.635879 83.051735 
L 169.981576 83.251605 
L 170.199515 83.367948 
L 170.42497 83.49025 
L 170.620364 83.626411 
L 170.763152 83.717998 
L 171.379394 84.063972 
L 171.589818 84.202216 
L 171.875394 84.346165 
L 172.093333 84.474741 
L 172.266182 84.674691 
L 173.070303 85.055823 
L 173.295758 85.166107 
L 173.498667 85.30301 
L 173.581333 85.439066 
L 173.716606 85.695788 
L 173.889455 85.809888 
L 174.851394 86.366026 
L 175.016727 86.511731 
L 175.377455 86.754796 
L 175.512727 86.854838 
L 175.715636 86.976444 
L 175.986182 87.351293 
L 176.331879 87.646811 
L 176.827879 87.828132 
L 178.007758 88.689746 
L 178.646545 88.911414 
L 178.924606 89.279048 
L 179.833939 89.737832 
L 179.976727 89.865639 
L 180.187152 89.97665 
L 180.269818 90.063742 
L 180.412606 90.238388 
L 180.62303 90.370569 
L 180.923636 90.494282 
L 181.359515 90.77615 
L 181.509818 90.868673 
L 181.772848 90.996701 
L 185.184727 92.803118 
L 185.33503 92.966354 
L 185.515394 93.078131 
L 185.673212 93.19345 
L 185.921212 93.29552 
L 186.109091 93.403381 
L 186.342061 93.460175 
L 186.82303 93.600467 
L 187.116121 93.971255 
L 187.198788 94.083539 
L 187.995394 94.44216 
L 188.250909 94.555917 
L 188.446303 94.667613 
L 189.167758 94.999955 
L 189.355636 95.161956 
L 189.746424 95.346155 
L 190.001939 95.604552 
L 190.407758 95.896431 
L 190.595636 96.113595 
L 191.046545 96.230338 
L 191.241939 96.3406 
L 191.707879 96.465528 
L 191.903273 96.657411 
L 192.542061 97.131723 
L 192.752485 97.24197 
L 193.02303 97.46662 
L 193.188364 97.659628 
L 193.421333 97.867875 
L 193.549091 98.02482 
L 193.962424 98.147385 
L 194.180364 98.265049 
L 194.473455 98.30624 
L 194.608727 98.409095 
L 194.751515 98.500294 
L 194.999515 98.610225 
L 195.360242 98.718429 
L 195.781091 99.144974 
L 196.029091 99.253631 
L 197.193939 100.276443 
L 197.449455 100.443104 
L 197.855273 100.568303 
L 198.306182 100.956344 
L 198.606788 101.111642 
L 198.757091 101.288753 
L 199.68897 101.77778 
L 200.012121 101.888789 
L 200.350303 102.001429 
L 200.515636 102.150307 
L 201.049212 102.495901 
L 201.304727 102.613132 
L 201.612848 102.72464 
L 201.785697 102.807036 
L 202.131394 102.944959 
L 202.424485 103.15662 
L 206.084364 104.765175 
L 209.188121 105.907687 
L 209.39103 106.021529 
L 209.977212 106.355477 
L 210.10497 106.455808 
L 210.240242 106.506285 
L 210.518303 106.636637 
L 210.661091 106.696476 
L 211.172121 106.806963 
L 211.390061 106.934691 
L 211.788364 107.068543 
L 212.156606 107.284064 
L 212.404606 107.39549 
L 212.539879 107.524709 
L 212.697697 107.582104 
L 212.923152 107.704815 
L 213.096 107.77787 
L 213.381576 107.900396 
L 213.697212 108.088592 
L 213.84 108.184743 
L 214.133091 108.312327 
L 214.689212 108.563361 
L 215.177697 108.693732 
L 220.115152 110.06391 
L 220.295515 110.090352 
L 221.377697 110.324117 
L 221.588121 110.365336 
L 221.933818 110.505081 
L 222.091636 110.556177 
L 222.692848 110.684713 
L 222.955879 110.78063 
L 223.857697 110.922742 
L 224.27103 111.033364 
L 224.586667 111.130935 
L 225.345697 111.276537 
L 225.608727 111.345101 
L 238.534788 113.064494 
L 239.39903 113.173966 
L 239.947636 113.242135 
L 242.472727 113.44256 
L 243.742788 113.566088 
L 244.088485 113.601615 
L 248.785455 113.909758 
L 249.732364 114.015096 
L 254.617212 114.350786 
L 267.077333 115.042636 
L 267.377939 115.061209 
L 269.519758 115.185747 
L 270.910061 115.253019 
L 272.931636 115.364444 
L 274.938182 115.462847 
L 277.042424 115.573736 
L 290.622303 116.352663 
L 291.253576 116.382192 
L 297.160485 116.720607 
L 298.17503 116.779108 
L 300.008727 116.903254 
L 301.301333 116.999352 
L 302.969697 117.110416 
L 303.480727 117.160788 
L 306.637091 117.359644 
L 307.538909 117.414036 
L 309.05697 117.542805 
L 315.948364 118.038015 
L 316.947879 118.112423 
L 319.585697 118.404813 
L 321.193939 118.51659 
L 323.358303 118.701996 
L 323.576242 118.728338 
L 324.583273 118.840868 
L 327.529212 119.122241 
L 327.995152 119.175909 
L 329.858909 119.377469 
L 330.302303 119.446733 
L 331.181576 119.56499 
L 332.136 119.685202 
L 332.910061 119.81115 
L 334.525818 120.019293 
L 334.916606 120.101009 
L 335.472727 120.229312 
L 335.961212 120.312181 
L 337.291394 120.442318 
L 339.884121 120.768781 
L 340.58303 120.882233 
L 340.861091 120.936391 
L 341.980848 121.071235 
L 352.98303 123.148967 
L 353.238545 123.192198 
L 353.817212 123.306025 
L 354.253091 123.401699 
L 354.824242 123.534505 
L 355.072242 123.609747 
L 355.620848 123.727132 
L 355.823758 123.771191 
L 356.725576 123.986041 
L 356.883394 124.039419 
L 357.732606 124.16078 
L 357.973091 124.219919 
L 358.341333 124.346321 
L 358.747152 124.440594 
L 359.385939 124.548274 
L 359.64897 124.671249 
L 360.107394 124.782338 
L 365.052364 126.760567 
L 365.232727 126.903397 
L 366.773333 127.473955 
L 367.073939 127.590555 
L 367.276848 127.689956 
L 368.411636 128.288361 
L 368.554424 128.358596 
L 368.930182 128.566395 
L 369.185697 128.794688 
L 369.576485 128.897629 
L 369.779394 129.036186 
L 370.117576 129.214447 
L 370.252848 129.311762 
L 370.989333 129.773008 
L 371.124606 129.816206 
L 371.33503 129.944713 
L 371.748364 130.23904 
L 371.83103 130.414591 
L 371.966303 130.55972 
L 372.214303 130.782353 
L 372.357091 130.91066 
L 372.642667 131.135466 
L 372.82303 131.339145 
L 372.980848 131.444657 
L 373.191273 131.705036 
L 373.544485 132.034482 
L 373.657212 132.135062 
L 373.792485 132.217582 
L 373.965333 132.371578 
L 374.055515 132.489737 
L 374.31103 132.951679 
L 374.453818 133.113603 
L 375.02497 133.725895 
L 375.415758 134.07054 
L 375.543515 134.179085 
L 375.784 134.481779 
L 375.964364 134.585536 
L 376.129697 134.788328 
L 376.28 134.918488 
L 376.558061 135.146524 
L 376.700848 135.281275 
L 377.136727 135.74303 
L 377.362182 135.916599 
L 377.497455 136.071306 
L 377.587636 136.209851 
L 377.745455 136.351149 
L 378.850182 137.735314 
L 379.113212 138.061181 
L 379.406303 138.195076 
L 379.564121 138.323743 
L 380 138.774589 
L 380.420848 139.240916 
L 380.691394 139.396465 
L 380.796606 139.704459 
L 380.954424 140.163197 
L 381.052121 140.244875 
L 381.209939 140.550024 
L 381.510545 140.901891 
L 381.841212 141.138533 
L 382.021576 141.597052 
L 382.449939 141.816285 
L 383.126303 143.173291 
L 383.178909 143.270507 
L 383.314182 143.398486 
L 383.411879 143.494097 
L 383.554667 143.57986 
L 383.73503 143.754389 
L 384.388848 144.802164 
L 384.824727 145.350271 
L 384.97503 145.55718 
L 385.057697 145.666597 
L 385.305697 146.048956 
L 385.448485 146.234516 
L 386.057212 146.900128 
L 386.245091 147.305333 
L 386.350303 147.640823 
L 386.553212 148.264222 
L 386.673455 148.518889 
L 386.801212 148.721676 
L 386.898909 148.821158 
L 387.094303 149.305038 
L 387.45503 150.142164 
L 387.590303 150.777139 
L 387.657939 150.88337 
L 387.763152 151.132829 
L 387.913455 151.865516 
L 387.996121 151.980254 
L 388.973091 153.946352 
L 389.115879 154.373206 
L 389.206061 154.850737 
L 389.333818 155.112909 
L 389.424 155.321925 
L 389.566788 155.738436 
L 389.649455 155.847412 
L 390.107879 156.969101 
L 390.243152 157.298946 
L 390.303273 157.35594 
L 390.521212 158.268658 
L 390.626424 158.585299 
L 390.791758 159.081111 
L 390.949576 159.405074 
L 391.190061 160.170898 
L 391.505697 160.931759 
L 391.648485 161.371162 
L 391.813818 161.708707 
L 392.031758 162.842304 
L 392.069333 162.958664 
L 392.249697 164.040741 
L 393.241697 168.799812 
L 393.392 169.709247 
L 393.594909 170.411436 
L 393.752727 171.154999 
L 393.797818 171.249502 
L 393.948121 172.067666 
L 394.075879 172.574946 
L 394.421576 173.912859 
L 394.526788 174.145562 
L 394.714667 176.530162 
L 394.759758 176.629085 
L 395.030303 178.808007 
L 395.158061 181.058826 
L 395.338424 182.889095 
L 395.406061 182.992718 
L 395.496242 183.525047 
L 395.714182 184.726165 
L 395.744242 185.349645 
L 395.872 186.254342 
L 395.88703 186.259977 
L 396.089939 188.145421 
L 396.428121 191.476054 
L 396.548364 193.495097 
L 397.089455 199.864794 
L 397.277333 204.892595 
L 397.34497 205.176748 
L 397.547879 209.191062 
L 397.976242 223.928845 
L 398.457212 277.821388 
L 398.479758 295.488 
L 398.479758 295.488 
" clip-path="url(#pe068483032)" style="fill: none; stroke: #1f77b4; stroke-width: 1.5; stroke-linecap: square"/>
   </g>
   <g id="line2d_12">
    <path d="M 138.027152 59.394678 
L 370.117576 129.210242 
" clip-path="url(#pe068483032)" style="fill: none; stroke-dasharray: 5.55,2.4; stroke-dashoffset: 0; stroke: #ff7f0e; stroke-width: 1.5"/>
   </g>
   <g id="line2d_13">
    <path d="M 73.832727 123.391608 
L 398.487273 123.391608 
L 398.487273 123.391608 
" clip-path="url(#pe068483032)" style="fill: none; stroke-dasharray: 5.55,2.4; stroke-dashoffset: 0; stroke: #2ca02c; stroke-width: 1.5"/>
   </g>
   <g id="LineCollection_1">
    <path d="M 370.117576 295.488 
L 370.117576 53.568 
" clip-path="url(#pe068483032)" style="fill: none; stroke-dasharray: 5.55,2.4; stroke-dashoffset: 0; stroke: #1f77b4; stroke-width: 1.5"/>
   </g>
   <g id="patch_3">
    <path d="M 57.6 307.584 
L 57.6 41.472 
" style="fill: none; stroke: #000000; stroke-width: 0.8; stroke-linejoin: miter; stroke-linecap: square"/>
   </g>
   <g id="patch_4">
    <path d="M 414.72 307.584 
L 414.72 41.472 
" style="fill: none; stroke: #000000; stroke-width: 0.8; stroke-linejoin: miter; stroke-linecap: square"/>
   </g>
   <g id="patch_5">
    <path d="M 57.6 307.584 
L 414.72 307.584 
" style="fill: none; stroke: #000000; stroke-width: 0.8; stroke-linejoin: miter; stroke-linecap: square"/>
   </g>
   <g id="patch_6">
    <path d="M 57.6 41.472 
L 414.72 41.472 
" style="fill: none; stroke: #000000; stroke-width: 0.8; stroke-linejoin: miter; stroke-linecap: square"/>
   </g>
   <g id="text_11">
    <!-- Energy Decay - 16000 Hz -->
    <g transform="translate(159.7725 35.472) scale(0.12 -0.12)">
     <defs>
      <path id="DejaVuSans-45" d="M 628 4666 
L 3578 4666 
L 3578 4134 
L 1259 4134 
L 1259 2753 
L 3481 2753 
L 3481 2222 
L 1259 2222 
L 1259 531 
L 3634 531 
L 3634 0 
L 628 0 
L 628 4666 
z
" transform="scale(0.015625)"/>
      <path id="DejaVuSans-6e" d="M 3513 2113 
L 3513 0 
L 2938 0 
L 2938 2094 
Q 2938 2591 2744 2837 
Q 2550 3084 2163 3084 
Q 1697 3084 1428 2787 
Q 1159 2491 1159 1978 
L 1159 0 
L 581 0 
L 581 3500 
L 1159 3500 
L 1159 2956 
Q 1366 3272 1645 3428 
Q 1925 3584 2291 3584 
Q 2894 3584 3203 3211 
Q 3513 2838 3513 2113 
z
" transform="scale(0.015625)"/>
      <path id="DejaVuSans-65" d="M 3597 1894 
L 3597 1613 
L 953 1613 
Q 991 1019 1311 708 
Q 1631 397 2203 397 
Q 2534 397 2845 478 
Q 3156 559 3463 722 
L 3463 178 
Q 3153 47 2828 -22 
Q 2503 -91 2169 -91 
Q 1331 -91 842 396 
Q 353 884 353 1716 
Q 353 2575 817 3079 
Q 1281 3584 2069 3584 
Q 2775 3584 3186 3129 
Q 3597 2675 3597 1894 
z
M 3022 2063 
Q 3016 2534 2758 2815 
Q 2500 3097 2075 3097 
Q 1594 3097 1305 2825 
Q 1016 2553 972 2059 
L 3022 2063 
z
" transform="scale(0.015625)"/>
      <path id="DejaVuSans-72" d="M 2631 2963 
Q 2534 3019 2420 3045 
Q 2306 3072 2169 3072 
Q 1681 3072 1420 2755 
Q 1159 2438 1159 1844 
L 1159 0 
L 581 0 
L 581 3500 
L 1159 3500 
L 1159 2956 
Q 1341 3275 1631 3429 
Q 1922 3584 2338 3584 
Q 2397 3584 2469 3576 
Q 2541 3569 2628 3553 
L 2631 2963 
z
" transform="scale(0.015625)"/>
      <path id="DejaVuSans-67" d="M 2906 1791 
Q 2906 2416 2648 2759 
Q 2391 3103 1925 3103 
Q 1463 3103 1205 2759 
Q 947 2416 947 1791 
Q 947 1169 1205 825 
Q 1463 481 1925 481 
Q 2391 481 2648 825 
Q 2906 1169 2906 1791 
z
M 3481 434 
Q 3481 -459 3084 -895 
Q 2688 -1331 1869 -1331 
Q 1566 -1331 1297 -1286 
Q 1028 -1241 775 -1147 
L 775 -588 
Q 1028 -725 1275 -790 
Q 1522 -856 1778 -856 
Q 2344 -856 2625 -561 
Q 2906 -266 2906 331 
L 2906 616 
Q 2728 306 2450 153 
Q 2172 0 1784 0 
Q 1141 0 747 490 
Q 353 981 353 1791 
Q 353 2603 747 3093 
Q 1141 3584 1784 3584 
Q 2172 3584 2450 3431 
Q 2728 3278 2906 2969 
L 2906 3500 
L 3481 3500 
L 3481 434 
z
" transform="scale(0.015625)"/>
      <path id="DejaVuSans-79" d="M 2059 -325 
Q 1816 -950 1584 -1140 
Q 1353 -1331 966 -1331 
L 506 -1331 
L 506 -850 
L 844 -850 
Q 1081 -850 1212 -737 
Q 1344 -625 1503 -206 
L 1606 56 
L 191 3500 
L 800 3500 
L 1894 763 
L 2988 3500 
L 3597 3500 
L 2059 -325 
z
" transform="scale(0.015625)"/>
      <path id="DejaVuSans-20" transform="scale(0.015625)"/>
      <path id="DejaVuSans-44" d="M 1259 4147 
L 1259 519 
L 2022 519 
Q 2988 519 3436 956 
Q 3884 1394 3884 2338 
Q 3884 3275 3436 3711 
Q 2988 4147 2022 4147 
L 1259 4147 
z
M 628 4666 
L 1925 4666 
Q 3281 4666 3915 4102 
Q 4550 3538 4550 2338 
Q 4550 1131 3912 565 
Q 3275 0 1925 0 
L 628 0 
L 628 4666 
z
" transform="scale(0.015625)"/>
      <path id="DejaVuSans-63" d="M 3122 3366 
L 3122 2828 
Q 2878 2963 2633 3030 
Q 2388 3097 2138 3097 
Q 1578 3097 1268 2742 
Q 959 2388 959 1747 
Q 959 1106 1268 751 
Q 1578 397 2138 397 
Q 2388 397 2633 464 
Q 2878 531 3122 666 
L 3122 134 
Q 2881 22 2623 -34 
Q 2366 -91 2075 -91 
Q 1284 -91 818 406 
Q 353 903 353 1747 
Q 353 2603 823 3093 
Q 1294 3584 2113 3584 
Q 2378 3584 2631 3529 
Q 2884 3475 3122 3366 
z
" transform="scale(0.015625)"/>
      <path id="DejaVuSans-61" d="M 2194 1759 
Q 1497 1759 1228 1600 
Q 959 1441 959 1056 
Q 959 750 1161 570 
Q 1363 391 1709 391 
Q 2188 391 2477 730 
Q 2766 1069 2766 1631 
L 2766 1759 
L 2194 1759 
z
M 3341 1997 
L 3341 0 
L 2766 0 
L 2766 531 
Q 2569 213 2275 61 
Q 1981 -91 1556 -91 
Q 1019 -91 701 211 
Q 384 513 384 1019 
Q 384 1609 779 1909 
Q 1175 2209 1959 2209 
L 2766 2209 
L 2766 2266 
Q 2766 2663 2505 2880 
Q 2244 3097 1772 3097 
Q 1472 3097 1187 3025 
Q 903 2953 641 2809 
L 641 3341 
Q 956 3463 1253 3523 
Q 1550 3584 1831 3584 
Q 2591 3584 2966 3190 
Q 3341 2797 3341 1997 
z
" transform="scale(0.015625)"/>
      <path id="DejaVuSans-2d" d="M 313 2009 
L 1997 2009 
L 1997 1497 
L 313 1497 
L 313 2009 
z
" transform="scale(0.015625)"/>
      <path id="DejaVuSans-48" d="M 628 4666 
L 1259 4666 
L 1259 2753 
L 3553 2753 
L 3553 4666 
L 4184 4666 
L 4184 0 
L 3553 0 
L 3553 2222 
L 1259 2222 
L 1259 0 
L 628 0 
L 628 4666 
z
" transform="scale(0.015625)"/>
      <path id="DejaVuSans-7a" d="M 353 3500 
L 3084 3500 
L 3084 2975 
L 922 459 
L 3084 459 
L 3084 0 
L 275 0 
L 275 525 
L 2438 3041 
L 353 3041 
L 353 3500 
z
" transform="scale(0.015625)"/>
     </defs>
     <use xlink:href="#DejaVuSans-45"/>
     <use xlink:href="#DejaVuSans-6e" transform="translate(63.183594 0)"/>
     <use xlink:href="#DejaVuSans-65" transform="translate(126.5625 0)"/>
     <use xlink:href="#DejaVuSans-72" transform="translate(188.085938 0)"/>
     <use xlink:href="#DejaVuSans-67" transform="translate(227.449219 0)"/>
     <use xlink:href="#DejaVuSans-79" transform="translate(290.925781 0)"/>
     <use xlink:href="#DejaVuSans-20" transform="translate(350.105469 0)"/>
     <use xlink:href="#DejaVuSans-44" transform="translate(381.892578 0)"/>
     <use xlink:href="#DejaVuSans-65" transform="translate(458.894531 0)"/>
     <use xlink:href="#DejaVuSans-63" transform="translate(520.417969 0)"/>
     <use xlink:href="#DejaVuSans-61" transform="translate(575.398438 0)"/>
     <use xlink:href="#DejaVuSans-79" transform="translate(636.677734 0)"/>
     <use xlink:href="#DejaVuSans-20" transform="translate(695.857422 0)"/>
     <use xlink:href="#DejaVuSans-2d" transform="translate(727.644531 0)"/>
     <use xlink:href="#DejaVuSans-20" transform="translate(763.728516 0)"/>
     <use xlink:href="#DejaVuSans-31" transform="translate(795.515625 0)"/>
     <use xlink:href="#DejaVuSans-36" transform="translate(859.138672 0)"/>
     <use xlink:href="#DejaVuSans-30" transform="translate(922.761719 0)"/>
     <use xlink:href="#DejaVuSans-30" transform="translate(986.384766 0)"/>
     <use xlink:href="#DejaVuSans-30" transform="translate(1050.007812 0)"/>
     <use xlink:href="#DejaVuSans-20" transform="translate(1113.630859 0)"/>
     <use xlink:href="#DejaVuSans-48" transform="translate(1145.417969 0)"/>
     <use xlink:href="#DejaVuSans-7a" transform="translate(1220.613281 0)"/>
    </g>
   </g>
   <g id="legend_1">
    <g id="patch_7">
     <path d="M 64.6 302.584 
L 175.351562 302.584 
Q 177.351562 302.584 177.351562 300.584 
L 177.351562 242.8715 
Q 177.351562 240.8715 175.351562 240.8715 
L 64.6 240.8715 
Q 62.6 240.8715 62.6 242.8715 
L 62.6 300.584 
Q 62.6 302.584 64.6 302.584 
z
" style="fill: #ffffff; opacity: 0.8; stroke: #cccccc; stroke-linejoin: miter"/>
    </g>
    <g id="line2d_14">
     <path d="M 66.6 248.969937 
L 76.6 248.969937 
L 86.6 248.969937 
" style="fill: none; stroke: #1f77b4; stroke-width: 1.5; stroke-linecap: square"/>
    </g>
    <g id="text_12">
     <!-- Energy -->
     <g transform="translate(94.6 252.469937) scale(0.1 -0.1)">
      <use xlink:href="#DejaVuSans-45"/>
      <use xlink:href="#DejaVuSans-6e" transform="translate(63.183594 0)"/>
      <use xlink:href="#DejaVuSans-65" transform="translate(126.5625 0)"/>
      <use xlink:href="#DejaVuSans-72" transform="translate(188.085938 0)"/>
      <use xlink:href="#DejaVuSans-67" transform="translate(227.449219 0)"/>
      <use xlink:href="#DejaVuSans-79" transform="translate(290.925781 0)"/>
     </g>
    </g>
    <g id="line2d_15">
     <path d="M 66.6 263.648062 
L 76.6 263.648062 
L 86.6 263.648062 
" style="fill: none; stroke-dasharray: 5.55,2.4; stroke-dashoffset: 0; stroke: #ff7f0e; stroke-width: 1.5"/>
    </g>
    <g id="text_13">
     <!-- Linear Fit -->
     <g transform="translate(94.6 267.148062) scale(0.1 -0.1)">
      <defs>
       <path id="DejaVuSans-4c" d="M 628 4666 
L 1259 4666 
L 1259 531 
L 3531 531 
L 3531 0 
L 628 0 
L 628 4666 
z
" transform="scale(0.015625)"/>
       <path id="DejaVuSans-69" d="M 603 3500 
L 1178 3500 
L 1178 0 
L 603 0 
L 603 3500 
z
M 603 4863 
L 1178 4863 
L 1178 4134 
L 603 4134 
L 603 4863 
z
" transform="scale(0.015625)"/>
       <path id="DejaVuSans-46" d="M 628 4666 
L 3309 4666 
L 3309 4134 
L 1259 4134 
L 1259 2759 
L 3109 2759 
L 3109 2228 
L 1259 2228 
L 1259 0 
L 628 0 
L 628 4666 
z
" transform="scale(0.015625)"/>
       <path id="DejaVuSans-74" d="M 1172 4494 
L 1172 3500 
L 2356 3500 
L 2356 3053 
L 1172 3053 
L 1172 1153 
Q 1172 725 1289 603 
Q 1406 481 1766 481 
L 2356 481 
L 2356 0 
L 1766 0 
Q 1100 0 847 248 
Q 594 497 594 1153 
L 594 3053 
L 172 3053 
L 172 3500 
L 594 3500 
L 594 4494 
L 1172 4494 
z
" transform="scale(0.015625)"/>
      </defs>
      <use xlink:href="#DejaVuSans-4c"/>
      <use xlink:href="#DejaVuSans-69" transform="translate(55.712891 0)"/>
      <use xlink:href="#DejaVuSans-6e" transform="translate(83.496094 0)"/>
      <use xlink:href="#DejaVuSans-65" transform="translate(146.875 0)"/>
      <use xlink:href="#DejaVuSans-61" transform="translate(208.398438 0)"/>
      <use xlink:href="#DejaVuSans-72" transform="translate(269.677734 0)"/>
      <use xlink:href="#DejaVuSans-20" transform="translate(310.791016 0)"/>
      <use xlink:href="#DejaVuSans-46" transform="translate(342.578125 0)"/>
      <use xlink:href="#DejaVuSans-69" transform="translate(392.847656 0)"/>
      <use xlink:href="#DejaVuSans-74" transform="translate(420.630859 0)"/>
     </g>
    </g>
    <g id="line2d_16">
     <path d="M 66.6 278.326187 
L 76.6 278.326187 
L 86.6 278.326187 
" style="fill: none; stroke-dasharray: 5.55,2.4; stroke-dashoffset: 0; stroke: #2ca02c; stroke-width: 1.5"/>
    </g>
    <g id="text_14">
     <!-- -60 dB -->
     <g transform="translate(94.6 281.826187) scale(0.1 -0.1)">
      <defs>
       <path id="DejaVuSans-64" d="M 2906 2969 
L 2906 4863 
L 3481 4863 
L 3481 0 
L 2906 0 
L 2906 525 
Q 2725 213 2448 61 
Q 2172 -91 1784 -91 
Q 1150 -91 751 415 
Q 353 922 353 1747 
Q 353 2572 751 3078 
Q 1150 3584 1784 3584 
Q 2172 3584 2448 3432 
Q 2725 3281 2906 2969 
z
M 947 1747 
Q 947 1113 1208 752 
Q 1469 391 1925 391 
Q 2381 391 2643 752 
Q 2906 1113 2906 1747 
Q 2906 2381 2643 2742 
Q 2381 3103 1925 3103 
Q 1469 3103 1208 2742 
Q 947 2381 947 1747 
z
" transform="scale(0.015625)"/>
       <path id="DejaVuSans-42" d="M 1259 2228 
L 1259 519 
L 2272 519 
Q 2781 519 3026 730 
Q 3272 941 3272 1375 
Q 3272 1813 3026 2020 
Q 2781 2228 2272 2228 
L 1259 2228 
z
M 1259 4147 
L 1259 2741 
L 2194 2741 
Q 2656 2741 2882 2914 
Q 3109 3088 3109 3444 
Q 3109 3797 2882 3972 
Q 2656 4147 2194 4147 
L 1259 4147 
z
M 628 4666 
L 2241 4666 
Q 2963 4666 3353 4366 
Q 3744 4066 3744 3513 
Q 3744 3084 3544 2831 
Q 3344 2578 2956 2516 
Q 3422 2416 3680 2098 
Q 3938 1781 3938 1306 
Q 3938 681 3513 340 
Q 3088 0 2303 0 
L 628 0 
L 628 4666 
z
" transform="scale(0.015625)"/>
      </defs>
      <use xlink:href="#DejaVuSans-2d"/>
      <use xlink:href="#DejaVuSans-36" transform="translate(36.083984 0)"/>
      <use xlink:href="#DejaVuSans-30" transform="translate(99.707031 0)"/>
      <use xlink:href="#DejaVuSans-20" transform="translate(163.330078 0)"/>
      <use xlink:href="#DejaVuSans-64" transform="translate(195.117188 0)"/>
      <use xlink:href="#DejaVuSans-42" transform="translate(258.59375 0)"/>
     </g>
    </g>
    <g id="line2d_17">
     <path d="M 66.6 293.004312 
L 86.6 293.004312 
" style="fill: none; stroke-dasharray: 5.55,2.4; stroke-dashoffset: 0; stroke: #1f77b4; stroke-width: 1.5"/>
    </g>
    <g id="text_15">
     <!-- Estimated RT60 -->
     <g transform="translate(94.6 296.504312) scale(0.1 -0.1)">
      <defs>
       <path id="DejaVuSans-73" d="M 2834 3397 
L 2834 2853 
Q 2591 2978 2328 3040 
Q 2066 3103 1784 3103 
Q 1356 3103 1142 2972 
Q 928 2841 928 2578 
Q 928 2378 1081 2264 
Q 1234 2150 1697 2047 
L 1894 2003 
Q 2506 1872 2764 1633 
Q 3022 1394 3022 966 
Q 3022 478 2636 193 
Q 2250 -91 1575 -91 
Q 1294 -91 989 -36 
Q 684 19 347 128 
L 347 722 
Q 666 556 975 473 
Q 1284 391 1588 391 
Q 1994 391 2212 530 
Q 2431 669 2431 922 
Q 2431 1156 2273 1281 
Q 2116 1406 1581 1522 
L 1381 1569 
Q 847 1681 609 1914 
Q 372 2147 372 2553 
Q 372 3047 722 3315 
Q 1072 3584 1716 3584 
Q 2034 3584 2315 3537 
Q 2597 3491 2834 3397 
z
" transform="scale(0.015625)"/>
       <path id="DejaVuSans-6d" d="M 3328 2828 
Q 3544 3216 3844 3400 
Q 4144 3584 4550 3584 
Q 5097 3584 5394 3201 
Q 5691 2819 5691 2113 
L 5691 0 
L 5113 0 
L 5113 2094 
Q 5113 2597 4934 2840 
Q 4756 3084 4391 3084 
Q 3944 3084 3684 2787 
Q 3425 2491 3425 1978 
L 3425 0 
L 2847 0 
L 2847 2094 
Q 2847 2600 2669 2842 
Q 2491 3084 2119 3084 
Q 1678 3084 1418 2786 
Q 1159 2488 1159 1978 
L 1159 0 
L 581 0 
L 581 3500 
L 1159 3500 
L 1159 2956 
Q 1356 3278 1631 3431 
Q 1906 3584 2284 3584 
Q 2666 3584 2933 3390 
Q 3200 3197 3328 2828 
z
" transform="scale(0.015625)"/>
       <path id="DejaVuSans-52" d="M 2841 2188 
Q 3044 2119 3236 1894 
Q 3428 1669 3622 1275 
L 4263 0 
L 3584 0 
L 2988 1197 
Q 2756 1666 2539 1819 
Q 2322 1972 1947 1972 
L 1259 1972 
L 1259 0 
L 628 0 
L 628 4666 
L 2053 4666 
Q 2853 4666 3247 4331 
Q 3641 3997 3641 3322 
Q 3641 2881 3436 2590 
Q 3231 2300 2841 2188 
z
M 1259 4147 
L 1259 2491 
L 2053 2491 
Q 2509 2491 2742 2702 
Q 2975 2913 2975 3322 
Q 2975 3731 2742 3939 
Q 2509 4147 2053 4147 
L 1259 4147 
z
" transform="scale(0.015625)"/>
       <path id="DejaVuSans-54" d="M -19 4666 
L 3928 4666 
L 3928 4134 
L 2272 4134 
L 2272 0 
L 1638 0 
L 1638 4134 
L -19 4134 
L -19 4666 
z
" transform="scale(0.015625)"/>
      </defs>
      <use xlink:href="#DejaVuSans-45"/>
      <use xlink:href="#DejaVuSans-73" transform="translate(63.183594 0)"/>
      <use xlink:href="#DejaVuSans-74" transform="translate(115.283203 0)"/>
      <use xlink:href="#DejaVuSans-69" transform="translate(154.492188 0)"/>
      <use xlink:href="#DejaVuSans-6d" transform="translate(182.275391 0)"/>
      <use xlink:href="#DejaVuSans-61" transform="translate(279.6875 0)"/>
      <use xlink:href="#DejaVuSans-74" transform="translate(340.966797 0)"/>
      <use xlink:href="#DejaVuSans-65" transform="translate(380.175781 0)"/>
      <use xlink:href="#DejaVuSans-64" transform="translate(441.699219 0)"/>
      <use xlink:href="#DejaVuSans-20" transform="translate(505.175781 0)"/>
      <use xlink:href="#DejaVuSans-52" transform="translate(536.962891 0)"/>
      <use xlink:href="#DejaVuSans-54" transform="translate(599.195312 0)"/>
      <use xlink:href="#DejaVuSans-36" transform="translate(660.279297 0)"/>
      <use xlink:href="#DejaVuSans-30" transform="translate(723.902344 0)"/>
     </g>
    </g>
   </g>
  </g>
 </g>
 <defs>
  <clipPath id="pe068483032">
   <rect x="57.6" y="41.472" width="357.12" height="266.112"/>
  </clipPath>
 </defs>
</svg>
