<?xml version="1.0" encoding="utf-8" standalone="no"?>
<!DOCTYPE svg PUBLIC "-//W3C//DTD SVG 1.1//EN"
  "http://www.w3.org/Graphics/SVG/1.1/DTD/svg11.dtd">
<svg xmlns:xlink="http://www.w3.org/1999/xlink" width="460.8pt" height="345.6pt" viewBox="0 0 460.8 345.6" xmlns="http://www.w3.org/2000/svg" version="1.1">
 <metadata>
  <rdf:RDF xmlns:dc="http://purl.org/dc/elements/1.1/" xmlns:cc="http://creativecommons.org/ns#" xmlns:rdf="http://www.w3.org/1999/02/22-rdf-syntax-ns#">
   <cc:Work>
    <dc:type rdf:resource="http://purl.org/dc/dcmitype/StillImage"/>
    <dc:date>2025-04-30T17:40:27.927738</dc:date>
    <dc:format>image/svg+xml</dc:format>
    <dc:creator>
     <cc:Agent>
      <dc:title>Matplotlib v3.10.1, https://matplotlib.org/</dc:title>
     </cc:Agent>
    </dc:creator>
   </cc:Work>
  </rdf:RDF>
 </metadata>
 <defs>
  <style type="text/css">*{stroke-linejoin: round; stroke-linecap: butt}</style>
 </defs>
 <g id="figure_1">
  <g id="patch_1">
   <path d="M 0 345.6 
L 460.8 345.6 
L 460.8 0 
L 0 0 
z
" style="fill: #ffffff"/>
  </g>
  <g id="axes_1">
   <g id="patch_2">
    <path d="M 57.6 307.584 
L 414.72 307.584 
L 414.72 41.472 
L 57.6 41.472 
z
" style="fill: #ffffff"/>
   </g>
   <g id="matplotlib.axis_1">
    <g id="xtick_1">
     <g id="line2d_1">
      <defs>
       <path id="mfa58ff3c4e" d="M 0 0 
L 0 3.5 
" style="stroke: #000000; stroke-width: 0.8"/>
      </defs>
      <g>
       <use xlink:href="#mfa58ff3c4e" x="81.218618" y="307.584" style="stroke: #000000; stroke-width: 0.8"/>
      </g>
     </g>
     <g id="text_1">
      <!-- −0.2 -->
      <g transform="translate(69.077212 322.182437) scale(0.1 -0.1)">
       <defs>
        <path id="DejaVuSans-2212" d="M 678 2272 
L 4684 2272 
L 4684 1741 
L 678 1741 
L 678 2272 
z
" transform="scale(0.015625)"/>
        <path id="DejaVuSans-30" d="M 2034 4250 
Q 1547 4250 1301 3770 
Q 1056 3291 1056 2328 
Q 1056 1369 1301 889 
Q 1547 409 2034 409 
Q 2525 409 2770 889 
Q 3016 1369 3016 2328 
Q 3016 3291 2770 3770 
Q 2525 4250 2034 4250 
z
M 2034 4750 
Q 2819 4750 3233 4129 
Q 3647 3509 3647 2328 
Q 3647 1150 3233 529 
Q 2819 -91 2034 -91 
Q 1250 -91 836 529 
Q 422 1150 422 2328 
Q 422 3509 836 4129 
Q 1250 4750 2034 4750 
z
" transform="scale(0.015625)"/>
        <path id="DejaVuSans-2e" d="M 684 794 
L 1344 794 
L 1344 0 
L 684 0 
L 684 794 
z
" transform="scale(0.015625)"/>
        <path id="DejaVuSans-32" d="M 1228 531 
L 3431 531 
L 3431 0 
L 469 0 
L 469 531 
Q 828 903 1448 1529 
Q 2069 2156 2228 2338 
Q 2531 2678 2651 2914 
Q 2772 3150 2772 3378 
Q 2772 3750 2511 3984 
Q 2250 4219 1831 4219 
Q 1534 4219 1204 4116 
Q 875 4013 500 3803 
L 500 4441 
Q 881 4594 1212 4672 
Q 1544 4750 1819 4750 
Q 2544 4750 2975 4387 
Q 3406 4025 3406 3419 
Q 3406 3131 3298 2873 
Q 3191 2616 2906 2266 
Q 2828 2175 2409 1742 
Q 1991 1309 1228 531 
z
" transform="scale(0.015625)"/>
       </defs>
       <use xlink:href="#DejaVuSans-2212"/>
       <use xlink:href="#DejaVuSans-30" transform="translate(83.789062 0)"/>
       <use xlink:href="#DejaVuSans-2e" transform="translate(147.412109 0)"/>
       <use xlink:href="#DejaVuSans-32" transform="translate(179.199219 0)"/>
      </g>
     </g>
    </g>
    <g id="xtick_2">
     <g id="line2d_2">
      <g>
       <use xlink:href="#mfa58ff3c4e" x="146.149527" y="307.584" style="stroke: #000000; stroke-width: 0.8"/>
      </g>
     </g>
     <g id="text_2">
      <!-- 0.0 -->
      <g transform="translate(138.197965 322.182437) scale(0.1 -0.1)">
       <use xlink:href="#DejaVuSans-30"/>
       <use xlink:href="#DejaVuSans-2e" transform="translate(63.623047 0)"/>
       <use xlink:href="#DejaVuSans-30" transform="translate(95.410156 0)"/>
      </g>
     </g>
    </g>
    <g id="xtick_3">
     <g id="line2d_3">
      <g>
       <use xlink:href="#mfa58ff3c4e" x="211.080436" y="307.584" style="stroke: #000000; stroke-width: 0.8"/>
      </g>
     </g>
     <g id="text_3">
      <!-- 0.2 -->
      <g transform="translate(203.128874 322.182437) scale(0.1 -0.1)">
       <use xlink:href="#DejaVuSans-30"/>
       <use xlink:href="#DejaVuSans-2e" transform="translate(63.623047 0)"/>
       <use xlink:href="#DejaVuSans-32" transform="translate(95.410156 0)"/>
      </g>
     </g>
    </g>
    <g id="xtick_4">
     <g id="line2d_4">
      <g>
       <use xlink:href="#mfa58ff3c4e" x="276.011345" y="307.584" style="stroke: #000000; stroke-width: 0.8"/>
      </g>
     </g>
     <g id="text_4">
      <!-- 0.4 -->
      <g transform="translate(268.059783 322.182437) scale(0.1 -0.1)">
       <defs>
        <path id="DejaVuSans-34" d="M 2419 4116 
L 825 1625 
L 2419 1625 
L 2419 4116 
z
M 2253 4666 
L 3047 4666 
L 3047 1625 
L 3713 1625 
L 3713 1100 
L 3047 1100 
L 3047 0 
L 2419 0 
L 2419 1100 
L 313 1100 
L 313 1709 
L 2253 4666 
z
" transform="scale(0.015625)"/>
       </defs>
       <use xlink:href="#DejaVuSans-30"/>
       <use xlink:href="#DejaVuSans-2e" transform="translate(63.623047 0)"/>
       <use xlink:href="#DejaVuSans-34" transform="translate(95.410156 0)"/>
      </g>
     </g>
    </g>
    <g id="xtick_5">
     <g id="line2d_5">
      <g>
       <use xlink:href="#mfa58ff3c4e" x="340.942255" y="307.584" style="stroke: #000000; stroke-width: 0.8"/>
      </g>
     </g>
     <g id="text_5">
      <!-- 0.6 -->
      <g transform="translate(332.990692 322.182437) scale(0.1 -0.1)">
       <defs>
        <path id="DejaVuSans-36" d="M 2113 2584 
Q 1688 2584 1439 2293 
Q 1191 2003 1191 1497 
Q 1191 994 1439 701 
Q 1688 409 2113 409 
Q 2538 409 2786 701 
Q 3034 994 3034 1497 
Q 3034 2003 2786 2293 
Q 2538 2584 2113 2584 
z
M 3366 4563 
L 3366 3988 
Q 3128 4100 2886 4159 
Q 2644 4219 2406 4219 
Q 1781 4219 1451 3797 
Q 1122 3375 1075 2522 
Q 1259 2794 1537 2939 
Q 1816 3084 2150 3084 
Q 2853 3084 3261 2657 
Q 3669 2231 3669 1497 
Q 3669 778 3244 343 
Q 2819 -91 2113 -91 
Q 1303 -91 875 529 
Q 447 1150 447 2328 
Q 447 3434 972 4092 
Q 1497 4750 2381 4750 
Q 2619 4750 2861 4703 
Q 3103 4656 3366 4563 
z
" transform="scale(0.015625)"/>
       </defs>
       <use xlink:href="#DejaVuSans-30"/>
       <use xlink:href="#DejaVuSans-2e" transform="translate(63.623047 0)"/>
       <use xlink:href="#DejaVuSans-36" transform="translate(95.410156 0)"/>
      </g>
     </g>
    </g>
    <g id="xtick_6">
     <g id="line2d_6">
      <g>
       <use xlink:href="#mfa58ff3c4e" x="405.873164" y="307.584" style="stroke: #000000; stroke-width: 0.8"/>
      </g>
     </g>
     <g id="text_6">
      <!-- 0.8 -->
      <g transform="translate(397.921601 322.182437) scale(0.1 -0.1)">
       <defs>
        <path id="DejaVuSans-38" d="M 2034 2216 
Q 1584 2216 1326 1975 
Q 1069 1734 1069 1313 
Q 1069 891 1326 650 
Q 1584 409 2034 409 
Q 2484 409 2743 651 
Q 3003 894 3003 1313 
Q 3003 1734 2745 1975 
Q 2488 2216 2034 2216 
z
M 1403 2484 
Q 997 2584 770 2862 
Q 544 3141 544 3541 
Q 544 4100 942 4425 
Q 1341 4750 2034 4750 
Q 2731 4750 3128 4425 
Q 3525 4100 3525 3541 
Q 3525 3141 3298 2862 
Q 3072 2584 2669 2484 
Q 3125 2378 3379 2068 
Q 3634 1759 3634 1313 
Q 3634 634 3220 271 
Q 2806 -91 2034 -91 
Q 1263 -91 848 271 
Q 434 634 434 1313 
Q 434 1759 690 2068 
Q 947 2378 1403 2484 
z
M 1172 3481 
Q 1172 3119 1398 2916 
Q 1625 2713 2034 2713 
Q 2441 2713 2670 2916 
Q 2900 3119 2900 3481 
Q 2900 3844 2670 4047 
Q 2441 4250 2034 4250 
Q 1625 4250 1398 4047 
Q 1172 3844 1172 3481 
z
" transform="scale(0.015625)"/>
       </defs>
       <use xlink:href="#DejaVuSans-30"/>
       <use xlink:href="#DejaVuSans-2e" transform="translate(63.623047 0)"/>
       <use xlink:href="#DejaVuSans-38" transform="translate(95.410156 0)"/>
      </g>
     </g>
    </g>
   </g>
   <g id="matplotlib.axis_2">
    <g id="ytick_1">
     <g id="line2d_7">
      <defs>
       <path id="m1875ee07b2" d="M 0 0 
L -3.5 0 
" style="stroke: #000000; stroke-width: 0.8"/>
      </defs>
      <g>
       <use xlink:href="#m1875ee07b2" x="57.6" y="297.215673" style="stroke: #000000; stroke-width: 0.8"/>
      </g>
     </g>
     <g id="text_7">
      <!-- −120 -->
      <g transform="translate(23.132812 301.014891) scale(0.1 -0.1)">
       <defs>
        <path id="DejaVuSans-31" d="M 794 531 
L 1825 531 
L 1825 4091 
L 703 3866 
L 703 4441 
L 1819 4666 
L 2450 4666 
L 2450 531 
L 3481 531 
L 3481 0 
L 794 0 
L 794 531 
z
" transform="scale(0.015625)"/>
       </defs>
       <use xlink:href="#DejaVuSans-2212"/>
       <use xlink:href="#DejaVuSans-31" transform="translate(83.789062 0)"/>
       <use xlink:href="#DejaVuSans-32" transform="translate(147.412109 0)"/>
       <use xlink:href="#DejaVuSans-30" transform="translate(211.035156 0)"/>
      </g>
     </g>
    </g>
    <g id="ytick_2">
     <g id="line2d_8">
      <g>
       <use xlink:href="#m1875ee07b2" x="57.6" y="256.607727" style="stroke: #000000; stroke-width: 0.8"/>
      </g>
     </g>
     <g id="text_8">
      <!-- −100 -->
      <g transform="translate(23.132812 260.406946) scale(0.1 -0.1)">
       <use xlink:href="#DejaVuSans-2212"/>
       <use xlink:href="#DejaVuSans-31" transform="translate(83.789062 0)"/>
       <use xlink:href="#DejaVuSans-30" transform="translate(147.412109 0)"/>
       <use xlink:href="#DejaVuSans-30" transform="translate(211.035156 0)"/>
      </g>
     </g>
    </g>
    <g id="ytick_3">
     <g id="line2d_9">
      <g>
       <use xlink:href="#m1875ee07b2" x="57.6" y="215.999782" style="stroke: #000000; stroke-width: 0.8"/>
      </g>
     </g>
     <g id="text_9">
      <!-- −80 -->
      <g transform="translate(29.495313 219.799001) scale(0.1 -0.1)">
       <use xlink:href="#DejaVuSans-2212"/>
       <use xlink:href="#DejaVuSans-38" transform="translate(83.789062 0)"/>
       <use xlink:href="#DejaVuSans-30" transform="translate(147.412109 0)"/>
      </g>
     </g>
    </g>
    <g id="ytick_4">
     <g id="line2d_10">
      <g>
       <use xlink:href="#m1875ee07b2" x="57.6" y="175.391836" style="stroke: #000000; stroke-width: 0.8"/>
      </g>
     </g>
     <g id="text_10">
      <!-- −60 -->
      <g transform="translate(29.495313 179.191055) scale(0.1 -0.1)">
       <use xlink:href="#DejaVuSans-2212"/>
       <use xlink:href="#DejaVuSans-36" transform="translate(83.789062 0)"/>
       <use xlink:href="#DejaVuSans-30" transform="translate(147.412109 0)"/>
      </g>
     </g>
    </g>
    <g id="ytick_5">
     <g id="line2d_11">
      <g>
       <use xlink:href="#m1875ee07b2" x="57.6" y="134.783891" style="stroke: #000000; stroke-width: 0.8"/>
      </g>
     </g>
     <g id="text_11">
      <!-- −40 -->
      <g transform="translate(29.495313 138.58311) scale(0.1 -0.1)">
       <use xlink:href="#DejaVuSans-2212"/>
       <use xlink:href="#DejaVuSans-34" transform="translate(83.789062 0)"/>
       <use xlink:href="#DejaVuSans-30" transform="translate(147.412109 0)"/>
      </g>
     </g>
    </g>
    <g id="ytick_6">
     <g id="line2d_12">
      <g>
       <use xlink:href="#m1875ee07b2" x="57.6" y="94.175945" style="stroke: #000000; stroke-width: 0.8"/>
      </g>
     </g>
     <g id="text_12">
      <!-- −20 -->
      <g transform="translate(29.495313 97.975164) scale(0.1 -0.1)">
       <use xlink:href="#DejaVuSans-2212"/>
       <use xlink:href="#DejaVuSans-32" transform="translate(83.789062 0)"/>
       <use xlink:href="#DejaVuSans-30" transform="translate(147.412109 0)"/>
      </g>
     </g>
    </g>
    <g id="ytick_7">
     <g id="line2d_13">
      <g>
       <use xlink:href="#m1875ee07b2" x="57.6" y="53.568" style="stroke: #000000; stroke-width: 0.8"/>
      </g>
     </g>
     <g id="text_13">
      <!-- 0 -->
      <g transform="translate(44.2375 57.367219) scale(0.1 -0.1)">
       <use xlink:href="#DejaVuSans-30"/>
      </g>
     </g>
    </g>
   </g>
   <g id="line2d_14">
    <path d="M 73.832727 53.568 
L 129.747709 53.677276 
L 130.417309 53.756753 
L 132.676364 54.0233 
L 133.325673 54.485021 
L 133.602982 54.599561 
L 134.448436 55.288506 
L 134.746036 55.446007 
L 135.165382 55.63953 
L 136.863055 55.853268 
L 137.309455 56.035973 
L 137.735564 56.152839 
L 138.594545 56.731321 
L 138.980073 56.851858 
L 139.649673 57.119932 
L 140.968582 57.378752 
L 141.5976 57.854572 
L 142.131927 58.012082 
L 142.422764 58.478719 
L 142.889455 59.181367 
L 143.4576 59.538144 
L 144.255709 61.043867 
L 144.512727 61.152741 
L 144.749455 61.583407 
L 145.263491 62.536346 
L 145.8384 62.92527 
L 146.467418 64.072022 
L 146.819127 64.215763 
L 147.049091 64.722342 
L 147.536073 65.787836 
L 148.138036 66.250944 
L 148.861745 67.776033 
L 149.199927 67.913996 
L 149.416364 68.41656 
L 149.970982 69.801018 
L 150.4512 70.131513 
L 150.735273 71.123059 
L 151.053164 71.928114 
L 151.519855 72.381635 
L 152.169164 74.165927 
L 152.419418 74.277299 
L 152.649382 74.76399 
L 153.075491 75.600678 
L 153.3528 75.653813 
L 153.704509 75.768769 
L 154.786691 76.380975 
L 155.1384 76.487772 
L 155.476582 76.916926 
L 155.801236 77.172602 
L 156.362618 77.379188 
L 156.896945 77.771569 
L 157.566545 77.956953 
L 158.094109 78.203881 
L 158.594618 78.332213 
L 159.257455 78.697191 
L 159.805309 78.810785 
L 160.616945 79.048116 
L 161.252727 79.174941 
L 161.942618 79.504416 
L 162.260509 79.61722 
L 162.990982 80.11088 
L 163.234473 80.241366 
L 163.870255 80.756864 
L 164.188145 80.866692 
L 164.803636 81.247418 
L 165.486764 81.363544 
L 166.345745 81.388699 
L 168.936218 81.523321 
L 170.7624 81.917713 
L 171.398182 82.210486 
L 171.871636 82.319407 
L 172.466836 82.502386 
L 174.739418 82.648199 
L 175.936582 83.102269 
L 176.525018 83.652459 
L 176.903782 83.78104 
L 177.201382 84.280936 
L 177.546327 84.69633 
L 178.249745 85.044691 
L 178.689382 85.375751 
L 180.840218 86.005448 
L 181.273091 86.300223 
L 181.733018 86.450842 
L 182.389091 86.970227 
L 182.727273 87.078338 
L 183.505091 87.635429 
L 183.748582 87.780233 
L 184.391127 88.335802 
L 184.668436 88.442005 
L 184.932218 88.876858 
L 185.290691 89.349276 
L 185.764145 89.612718 
L 186.082036 90.484491 
L 186.3864 91.016653 
L 186.9072 91.390313 
L 187.218327 92.457929 
L 187.549745 93.273563 
L 187.793236 93.325139 
L 187.969091 93.472893 
L 188.172 94.045737 
L 188.740145 95.802767 
L 189.227127 96.1454 
L 189.944073 97.50238 
L 190.404 97.652211 
L 191.357673 98.42939 
L 191.601164 98.550412 
L 191.831127 98.983464 
L 192.291055 99.847917 
L 192.690109 100.084903 
L 192.920073 100.847581 
L 193.346182 102.162405 
L 193.582909 102.213874 
L 193.752 102.368405 
L 193.954909 102.955806 
L 194.468945 104.497958 
L 194.732727 104.542995 
L 194.962691 104.692902 
L 195.875782 105.628471 
L 196.5048 105.751637 
L 197.357018 106.035713 
L 197.7696 106.147369 
L 198.344509 106.38902 
L 198.777382 106.49834 
L 199.291418 106.670004 
L 199.751345 106.781308 
L 200.251855 106.913845 
L 201.002618 107.025711 
L 201.895418 107.070246 
L 203.971855 107.314754 
L 204.425018 107.436383 
L 204.817309 107.547332 
L 205.689818 108.103528 
L 205.940073 108.241147 
L 206.271491 108.764773 
L 206.616436 109.137736 
L 207.144 109.403396 
L 207.448364 110.183172 
L 207.773018 110.7722 
L 208.239709 111.124442 
L 208.5576 112.295319 
L 208.828145 112.875664 
L 209.308364 113.26793 
L 209.883273 114.434887 
L 210.431127 114.65664 
L 211.0128 115.067574 
L 211.790618 115.380053 
L 212.304655 115.933037 
L 212.663127 116.072215 
L 212.899855 116.579394 
L 213.298909 117.345518 
L 213.799418 117.70094 
L 214.475782 119.035986 
L 214.766618 119.146157 
L 215.010109 119.603569 
L 215.436218 120.341896 
L 216.105818 120.796297 
L 216.491345 121.242157 
L 217.844073 121.562947 
L 218.939782 121.694673 
L 220.278982 121.917301 
L 221.827855 122.401812 
L 222.585382 122.565428 
L 223.112945 122.722659 
L 223.566109 122.834229 
L 224.228945 123.153461 
L 224.648291 123.26222 
L 225.304364 123.572618 
L 225.723709 123.683109 
L 226.278327 123.878961 
L 226.880291 123.993981 
L 227.414618 124.066144 
L 227.955709 124.193183 
L 229.227273 124.375045 
L 229.903636 124.485624 
L 230.58 124.548093 
L 230.999345 124.678593 
L 231.608073 124.93777 
L 231.905673 125.046361 
L 232.189745 125.477536 
L 232.541455 125.879892 
L 232.994618 126.104466 
L 233.285455 126.8431 
L 233.610109 127.421457 
L 234.110618 127.786236 
L 234.888436 129.443049 
L 235.104873 129.556018 
L 235.314545 130.011725 
L 235.848873 131.247481 
L 236.180291 131.295997 
L 236.430545 131.488746 
L 237.167782 132.208707 
L 237.905018 132.451627 
L 238.378473 132.761109 
L 238.966909 132.918221 
L 239.393018 133.025111 
L 241.388291 133.141689 
L 243.863782 133.733933 
L 244.573964 134.076177 
L 245.189455 134.20521 
L 245.872582 134.457374 
L 246.670691 134.584167 
L 247.387636 134.616986 
L 249.606109 134.743735 
L 250.8168 134.810977 
L 252.250691 134.943456 
L 253.576364 135.921927 
L 253.907782 136.243747 
L 254.469164 136.488627 
L 254.9832 136.971949 
L 255.5784 137.160539 
L 256.018036 137.352634 
L 257.817164 137.559768 
L 259.027855 137.987804 
L 259.359273 138.128644 
L 259.724509 138.24309 
L 260.4888 138.830245 
L 260.745818 138.971498 
L 261.293673 139.372721 
L 261.6792 139.487157 
L 262.328509 139.886164 
L 262.686982 139.995345 
L 263.627127 140.642937 
L 263.877382 140.795136 
L 264.276436 141.417597 
L 264.574036 141.658011 
L 265.081309 141.860447 
L 265.926764 142.817271 
L 266.156727 142.945089 
L 266.406982 143.434119 
L 266.792509 144.088906 
L 267.320073 144.43933 
L 267.881455 145.356493 
L 268.442836 145.582029 
L 269.017745 146.021543 
L 270.248727 146.430927 
L 270.600436 146.517858 
L 270.938618 146.625391 
L 271.567636 146.990374 
L 271.878764 147.10186 
L 272.406327 147.381264 
L 272.744509 147.491042 
L 273.353236 147.859866 
L 273.664364 147.966943 
L 274.489527 148.546397 
L 274.780364 148.670753 
L 275.639345 149.295467 
L 276.085745 149.40407 
L 276.965018 149.759882 
L 277.445236 149.872432 
L 278.067491 150.150013 
L 278.385382 150.258475 
L 279.082036 150.698241 
L 279.372873 150.81285 
L 280.184509 151.393706 
L 280.685018 151.504806 
L 281.422255 151.726725 
L 284.066836 151.934934 
L 286.752 152.37821 
L 289.362764 152.661058 
L 289.626545 152.98167 
L 290.032364 153.417764 
L 290.519345 153.635245 
L 291.202473 154.428385 
L 291.642109 154.550876 
L 292.244073 154.861393 
L 292.913673 154.987448 
L 293.515636 155.033204 
L 298.338109 155.298085 
L 301.571127 155.410482 
L 305.324945 155.745092 
L 308.436218 155.809818 
L 309.728073 155.918962 
L 310.323273 156.016959 
L 310.647927 156.155258 
L 311.256655 156.491211 
L 311.676 156.607927 
L 312.460582 157.109924 
L 312.751418 157.230469 
L 313.563055 157.83765 
L 313.806545 157.973696 
L 314.171782 158.553945 
L 314.476145 158.822237 
L 315.017236 159.050927 
L 315.835636 160.002819 
L 316.153527 160.11335 
L 316.464655 160.567977 
L 316.829891 160.96124 
L 317.661818 161.336603 
L 318 161.419265 
L 318.4464 161.529575 
L 318.940145 161.653706 
L 319.379782 161.76485 
L 320.042618 162.040359 
L 320.468727 162.149468 
L 321.172145 162.501892 
L 321.550909 162.610862 
L 322.098764 162.835268 
L 322.511345 162.945267 
L 323.174182 163.259325 
L 323.647636 163.373793 
L 324.094036 163.830421 
L 324.452509 164.038175 
L 324.966545 164.204618 
L 325.318255 164.772286 
L 325.669964 165.163355 
L 326.522182 165.599806 
L 326.921236 165.87275 
L 328.125164 165.997734 
L 329.464364 166.110164 
L 331.906036 166.355635 
L 333.123491 166.46766 
L 335.504291 167.08861 
L 335.991273 167.328085 
L 336.4512 167.46384 
L 336.728509 167.917106 
L 337.154618 168.535689 
L 337.783636 168.915373 
L 338.453236 169.954973 
L 339.136364 170.242756 
L 339.731564 170.794622 
L 341.706545 171.019599 
L 347.428582 171.337403 
L 348.138764 171.605804 
L 348.591927 171.716665 
L 349.105964 171.848091 
L 349.667345 171.959126 
L 350.309891 172.020619 
L 350.742764 172.229245 
L 351.270327 172.448978 
L 351.7032 172.569218 
L 351.987273 172.997434 
L 352.406618 173.549267 
L 353.001818 173.880476 
L 353.6376 174.791008 
L 354.286909 175.017161 
L 355.057964 175.600572 
L 355.937236 175.830986 
L 356.748873 176.352906 
L 357.215564 176.472487 
L 358.209818 177.114697 
L 358.561527 177.265845 
L 359.251418 177.606716 
L 360.083345 177.845598 
L 360.752945 178.40483 
L 361.172291 178.528566 
L 361.977164 179.09703 
L 363.478691 179.234106 
L 364.168582 179.374805 
L 364.973455 179.485981 
L 365.717455 179.563051 
L 366.846982 179.681264 
L 367.557164 179.835587 
L 367.949455 180.288971 
L 368.497309 180.861521 
L 369.2616 181.274618 
L 370.073236 182.585711 
L 370.580509 182.62268 
L 371.168945 182.729637 
L 371.412436 183.055438 
L 372.210545 184.397159 
L 372.548727 184.513166 
L 372.900436 185.024287 
L 373.2792 185.402712 
L 373.698545 185.466626 
L 375.0648 185.607348 
L 375.355636 185.979983 
L 375.815564 186.525173 
L 376.343127 186.782855 
L 377.046545 187.747142 
L 377.357673 187.861206 
L 377.614691 188.309038 
L 378.0408 188.96964 
L 378.642764 189.352445 
L 379.021527 190.453792 
L 379.325891 190.995025 
L 379.609964 191.039565 
L 379.839927 191.184158 
L 380.732727 192.079368 
L 382.673891 192.240613 
L 382.910618 192.518219 
L 383.201455 193.282863 
L 383.661382 194.402755 
L 383.911636 194.454661 
L 384.073964 194.589413 
L 384.243055 195.115863 
L 384.479782 196.750818 
L 385.115564 201.52343 
L 385.311709 201.586844 
L 385.460509 201.714191 
L 385.622836 202.247644 
L 385.879855 204.043711 
L 386.427709 207.852568 
L 386.650909 208.131509 
L 387.7872 208.305536 
L 388.341818 208.416202 
L 388.598836 208.784217 
L 389.133164 209.575929 
L 389.714836 209.881115 
L 390.350618 210.786782 
L 390.594109 210.895889 
L 390.769964 211.343612 
L 391.466618 213.533405 
L 391.656 213.637611 
L 391.8048 214.097278 
L 392.014473 215.614546 
L 392.758473 221.828008 
L 393.029018 222.02979 
L 393.184582 222.78307 
L 393.414545 225.255159 
L 394.057091 232.856044 
L 394.239709 232.921809 
L 394.388509 233.058091 
L 394.604945 233.687616 
L 394.949891 234.507753 
L 395.463927 234.939143 
L 395.930618 235.828528 
L 396.221455 235.992768 
L 396.377018 236.605974 
L 396.593455 238.592418 
L 397.364509 246.879507 
L 397.520073 246.988929 
L 397.648582 247.561181 
L 397.824436 249.564004 
L 398.0544 255.070212 
L 398.297891 266.674115 
L 398.453455 284.926423 
L 398.480509 295.488 
L 398.480509 295.488 
" clip-path="url(#p1c201789a4)" style="fill: none; stroke: #1f77b4; stroke-width: 1.5; stroke-linecap: square"/>
   </g>
   <g id="line2d_15">
    <path d="M 146.149527 63.726903 
L 374.963345 185.543823 
" clip-path="url(#p1c201789a4)" style="fill: none; stroke-dasharray: 5.55,2.4; stroke-dashoffset: 0; stroke: #ff7f0e; stroke-width: 1.5"/>
   </g>
   <g id="line2d_16">
    <path d="M 73.832727 175.391836 
L 398.487273 175.391836 
L 398.487273 175.391836 
" clip-path="url(#p1c201789a4)" style="fill: none; stroke-dasharray: 5.55,2.4; stroke-dashoffset: 0; stroke: #2ca02c; stroke-width: 1.5"/>
   </g>
   <g id="LineCollection_1">
    <path d="M 374.963345 295.488 
L 374.963345 53.568 
" clip-path="url(#p1c201789a4)" style="fill: none; stroke-dasharray: 5.55,2.4; stroke-dashoffset: 0; stroke: #1f77b4; stroke-width: 1.5"/>
   </g>
   <g id="patch_3">
    <path d="M 57.6 307.584 
L 57.6 41.472 
" style="fill: none; stroke: #000000; stroke-width: 0.8; stroke-linejoin: miter; stroke-linecap: square"/>
   </g>
   <g id="patch_4">
    <path d="M 414.72 307.584 
L 414.72 41.472 
" style="fill: none; stroke: #000000; stroke-width: 0.8; stroke-linejoin: miter; stroke-linecap: square"/>
   </g>
   <g id="patch_5">
    <path d="M 57.6 307.584 
L 414.72 307.584 
" style="fill: none; stroke: #000000; stroke-width: 0.8; stroke-linejoin: miter; stroke-linecap: square"/>
   </g>
   <g id="patch_6">
    <path d="M 57.6 41.472 
L 414.72 41.472 
" style="fill: none; stroke: #000000; stroke-width: 0.8; stroke-linejoin: miter; stroke-linecap: square"/>
   </g>
   <g id="text_14">
    <!-- Energy Decay - 100 Hz -->
    <g transform="translate(167.4075 35.472) scale(0.12 -0.12)">
     <defs>
      <path id="DejaVuSans-45" d="M 628 4666 
L 3578 4666 
L 3578 4134 
L 1259 4134 
L 1259 2753 
L 3481 2753 
L 3481 2222 
L 1259 2222 
L 1259 531 
L 3634 531 
L 3634 0 
L 628 0 
L 628 4666 
z
" transform="scale(0.015625)"/>
      <path id="DejaVuSans-6e" d="M 3513 2113 
L 3513 0 
L 2938 0 
L 2938 2094 
Q 2938 2591 2744 2837 
Q 2550 3084 2163 3084 
Q 1697 3084 1428 2787 
Q 1159 2491 1159 1978 
L 1159 0 
L 581 0 
L 581 3500 
L 1159 3500 
L 1159 2956 
Q 1366 3272 1645 3428 
Q 1925 3584 2291 3584 
Q 2894 3584 3203 3211 
Q 3513 2838 3513 2113 
z
" transform="scale(0.015625)"/>
      <path id="DejaVuSans-65" d="M 3597 1894 
L 3597 1613 
L 953 1613 
Q 991 1019 1311 708 
Q 1631 397 2203 397 
Q 2534 397 2845 478 
Q 3156 559 3463 722 
L 3463 178 
Q 3153 47 2828 -22 
Q 2503 -91 2169 -91 
Q 1331 -91 842 396 
Q 353 884 353 1716 
Q 353 2575 817 3079 
Q 1281 3584 2069 3584 
Q 2775 3584 3186 3129 
Q 3597 2675 3597 1894 
z
M 3022 2063 
Q 3016 2534 2758 2815 
Q 2500 3097 2075 3097 
Q 1594 3097 1305 2825 
Q 1016 2553 972 2059 
L 3022 2063 
z
" transform="scale(0.015625)"/>
      <path id="DejaVuSans-72" d="M 2631 2963 
Q 2534 3019 2420 3045 
Q 2306 3072 2169 3072 
Q 1681 3072 1420 2755 
Q 1159 2438 1159 1844 
L 1159 0 
L 581 0 
L 581 3500 
L 1159 3500 
L 1159 2956 
Q 1341 3275 1631 3429 
Q 1922 3584 2338 3584 
Q 2397 3584 2469 3576 
Q 2541 3569 2628 3553 
L 2631 2963 
z
" transform="scale(0.015625)"/>
      <path id="DejaVuSans-67" d="M 2906 1791 
Q 2906 2416 2648 2759 
Q 2391 3103 1925 3103 
Q 1463 3103 1205 2759 
Q 947 2416 947 1791 
Q 947 1169 1205 825 
Q 1463 481 1925 481 
Q 2391 481 2648 825 
Q 2906 1169 2906 1791 
z
M 3481 434 
Q 3481 -459 3084 -895 
Q 2688 -1331 1869 -1331 
Q 1566 -1331 1297 -1286 
Q 1028 -1241 775 -1147 
L 775 -588 
Q 1028 -725 1275 -790 
Q 1522 -856 1778 -856 
Q 2344 -856 2625 -561 
Q 2906 -266 2906 331 
L 2906 616 
Q 2728 306 2450 153 
Q 2172 0 1784 0 
Q 1141 0 747 490 
Q 353 981 353 1791 
Q 353 2603 747 3093 
Q 1141 3584 1784 3584 
Q 2172 3584 2450 3431 
Q 2728 3278 2906 2969 
L 2906 3500 
L 3481 3500 
L 3481 434 
z
" transform="scale(0.015625)"/>
      <path id="DejaVuSans-79" d="M 2059 -325 
Q 1816 -950 1584 -1140 
Q 1353 -1331 966 -1331 
L 506 -1331 
L 506 -850 
L 844 -850 
Q 1081 -850 1212 -737 
Q 1344 -625 1503 -206 
L 1606 56 
L 191 3500 
L 800 3500 
L 1894 763 
L 2988 3500 
L 3597 3500 
L 2059 -325 
z
" transform="scale(0.015625)"/>
      <path id="DejaVuSans-20" transform="scale(0.015625)"/>
      <path id="DejaVuSans-44" d="M 1259 4147 
L 1259 519 
L 2022 519 
Q 2988 519 3436 956 
Q 3884 1394 3884 2338 
Q 3884 3275 3436 3711 
Q 2988 4147 2022 4147 
L 1259 4147 
z
M 628 4666 
L 1925 4666 
Q 3281 4666 3915 4102 
Q 4550 3538 4550 2338 
Q 4550 1131 3912 565 
Q 3275 0 1925 0 
L 628 0 
L 628 4666 
z
" transform="scale(0.015625)"/>
      <path id="DejaVuSans-63" d="M 3122 3366 
L 3122 2828 
Q 2878 2963 2633 3030 
Q 2388 3097 2138 3097 
Q 1578 3097 1268 2742 
Q 959 2388 959 1747 
Q 959 1106 1268 751 
Q 1578 397 2138 397 
Q 2388 397 2633 464 
Q 2878 531 3122 666 
L 3122 134 
Q 2881 22 2623 -34 
Q 2366 -91 2075 -91 
Q 1284 -91 818 406 
Q 353 903 353 1747 
Q 353 2603 823 3093 
Q 1294 3584 2113 3584 
Q 2378 3584 2631 3529 
Q 2884 3475 3122 3366 
z
" transform="scale(0.015625)"/>
      <path id="DejaVuSans-61" d="M 2194 1759 
Q 1497 1759 1228 1600 
Q 959 1441 959 1056 
Q 959 750 1161 570 
Q 1363 391 1709 391 
Q 2188 391 2477 730 
Q 2766 1069 2766 1631 
L 2766 1759 
L 2194 1759 
z
M 3341 1997 
L 3341 0 
L 2766 0 
L 2766 531 
Q 2569 213 2275 61 
Q 1981 -91 1556 -91 
Q 1019 -91 701 211 
Q 384 513 384 1019 
Q 384 1609 779 1909 
Q 1175 2209 1959 2209 
L 2766 2209 
L 2766 2266 
Q 2766 2663 2505 2880 
Q 2244 3097 1772 3097 
Q 1472 3097 1187 3025 
Q 903 2953 641 2809 
L 641 3341 
Q 956 3463 1253 3523 
Q 1550 3584 1831 3584 
Q 2591 3584 2966 3190 
Q 3341 2797 3341 1997 
z
" transform="scale(0.015625)"/>
      <path id="DejaVuSans-2d" d="M 313 2009 
L 1997 2009 
L 1997 1497 
L 313 1497 
L 313 2009 
z
" transform="scale(0.015625)"/>
      <path id="DejaVuSans-48" d="M 628 4666 
L 1259 4666 
L 1259 2753 
L 3553 2753 
L 3553 4666 
L 4184 4666 
L 4184 0 
L 3553 0 
L 3553 2222 
L 1259 2222 
L 1259 0 
L 628 0 
L 628 4666 
z
" transform="scale(0.015625)"/>
      <path id="DejaVuSans-7a" d="M 353 3500 
L 3084 3500 
L 3084 2975 
L 922 459 
L 3084 459 
L 3084 0 
L 275 0 
L 275 525 
L 2438 3041 
L 353 3041 
L 353 3500 
z
" transform="scale(0.015625)"/>
     </defs>
     <use xlink:href="#DejaVuSans-45"/>
     <use xlink:href="#DejaVuSans-6e" transform="translate(63.183594 0)"/>
     <use xlink:href="#DejaVuSans-65" transform="translate(126.5625 0)"/>
     <use xlink:href="#DejaVuSans-72" transform="translate(188.085938 0)"/>
     <use xlink:href="#DejaVuSans-67" transform="translate(227.449219 0)"/>
     <use xlink:href="#DejaVuSans-79" transform="translate(290.925781 0)"/>
     <use xlink:href="#DejaVuSans-20" transform="translate(350.105469 0)"/>
     <use xlink:href="#DejaVuSans-44" transform="translate(381.892578 0)"/>
     <use xlink:href="#DejaVuSans-65" transform="translate(458.894531 0)"/>
     <use xlink:href="#DejaVuSans-63" transform="translate(520.417969 0)"/>
     <use xlink:href="#DejaVuSans-61" transform="translate(575.398438 0)"/>
     <use xlink:href="#DejaVuSans-79" transform="translate(636.677734 0)"/>
     <use xlink:href="#DejaVuSans-20" transform="translate(695.857422 0)"/>
     <use xlink:href="#DejaVuSans-2d" transform="translate(727.644531 0)"/>
     <use xlink:href="#DejaVuSans-20" transform="translate(763.728516 0)"/>
     <use xlink:href="#DejaVuSans-31" transform="translate(795.515625 0)"/>
     <use xlink:href="#DejaVuSans-30" transform="translate(859.138672 0)"/>
     <use xlink:href="#DejaVuSans-30" transform="translate(922.761719 0)"/>
     <use xlink:href="#DejaVuSans-20" transform="translate(986.384766 0)"/>
     <use xlink:href="#DejaVuSans-48" transform="translate(1018.171875 0)"/>
     <use xlink:href="#DejaVuSans-7a" transform="translate(1093.367188 0)"/>
    </g>
   </g>
   <g id="legend_1">
    <g id="patch_7">
     <path d="M 296.968437 108.1845 
L 407.72 108.1845 
Q 409.72 108.1845 409.72 106.1845 
L 409.72 48.472 
Q 409.72 46.472 407.72 46.472 
L 296.968437 46.472 
Q 294.968437 46.472 294.968437 48.472 
L 294.968437 106.1845 
Q 294.968437 108.1845 296.968437 108.1845 
z
" style="fill: #ffffff; opacity: 0.8; stroke: #cccccc; stroke-linejoin: miter"/>
    </g>
    <g id="line2d_17">
     <path d="M 298.968437 54.570438 
L 308.968437 54.570438 
L 318.968437 54.570438 
" style="fill: none; stroke: #1f77b4; stroke-width: 1.5; stroke-linecap: square"/>
    </g>
    <g id="text_15">
     <!-- Energy -->
     <g transform="translate(326.968437 58.070438) scale(0.1 -0.1)">
      <use xlink:href="#DejaVuSans-45"/>
      <use xlink:href="#DejaVuSans-6e" transform="translate(63.183594 0)"/>
      <use xlink:href="#DejaVuSans-65" transform="translate(126.5625 0)"/>
      <use xlink:href="#DejaVuSans-72" transform="translate(188.085938 0)"/>
      <use xlink:href="#DejaVuSans-67" transform="translate(227.449219 0)"/>
      <use xlink:href="#DejaVuSans-79" transform="translate(290.925781 0)"/>
     </g>
    </g>
    <g id="line2d_18">
     <path d="M 298.968437 69.248563 
L 308.968437 69.248563 
L 318.968437 69.248563 
" style="fill: none; stroke-dasharray: 5.55,2.4; stroke-dashoffset: 0; stroke: #ff7f0e; stroke-width: 1.5"/>
    </g>
    <g id="text_16">
     <!-- Linear Fit -->
     <g transform="translate(326.968437 72.748563) scale(0.1 -0.1)">
      <defs>
       <path id="DejaVuSans-4c" d="M 628 4666 
L 1259 4666 
L 1259 531 
L 3531 531 
L 3531 0 
L 628 0 
L 628 4666 
z
" transform="scale(0.015625)"/>
       <path id="DejaVuSans-69" d="M 603 3500 
L 1178 3500 
L 1178 0 
L 603 0 
L 603 3500 
z
M 603 4863 
L 1178 4863 
L 1178 4134 
L 603 4134 
L 603 4863 
z
" transform="scale(0.015625)"/>
       <path id="DejaVuSans-46" d="M 628 4666 
L 3309 4666 
L 3309 4134 
L 1259 4134 
L 1259 2759 
L 3109 2759 
L 3109 2228 
L 1259 2228 
L 1259 0 
L 628 0 
L 628 4666 
z
" transform="scale(0.015625)"/>
       <path id="DejaVuSans-74" d="M 1172 4494 
L 1172 3500 
L 2356 3500 
L 2356 3053 
L 1172 3053 
L 1172 1153 
Q 1172 725 1289 603 
Q 1406 481 1766 481 
L 2356 481 
L 2356 0 
L 1766 0 
Q 1100 0 847 248 
Q 594 497 594 1153 
L 594 3053 
L 172 3053 
L 172 3500 
L 594 3500 
L 594 4494 
L 1172 4494 
z
" transform="scale(0.015625)"/>
      </defs>
      <use xlink:href="#DejaVuSans-4c"/>
      <use xlink:href="#DejaVuSans-69" transform="translate(55.712891 0)"/>
      <use xlink:href="#DejaVuSans-6e" transform="translate(83.496094 0)"/>
      <use xlink:href="#DejaVuSans-65" transform="translate(146.875 0)"/>
      <use xlink:href="#DejaVuSans-61" transform="translate(208.398438 0)"/>
      <use xlink:href="#DejaVuSans-72" transform="translate(269.677734 0)"/>
      <use xlink:href="#DejaVuSans-20" transform="translate(310.791016 0)"/>
      <use xlink:href="#DejaVuSans-46" transform="translate(342.578125 0)"/>
      <use xlink:href="#DejaVuSans-69" transform="translate(392.847656 0)"/>
      <use xlink:href="#DejaVuSans-74" transform="translate(420.630859 0)"/>
     </g>
    </g>
    <g id="line2d_19">
     <path d="M 298.968437 83.926688 
L 308.968437 83.926688 
L 318.968437 83.926688 
" style="fill: none; stroke-dasharray: 5.55,2.4; stroke-dashoffset: 0; stroke: #2ca02c; stroke-width: 1.5"/>
    </g>
    <g id="text_17">
     <!-- -60 dB -->
     <g transform="translate(326.968437 87.426688) scale(0.1 -0.1)">
      <defs>
       <path id="DejaVuSans-64" d="M 2906 2969 
L 2906 4863 
L 3481 4863 
L 3481 0 
L 2906 0 
L 2906 525 
Q 2725 213 2448 61 
Q 2172 -91 1784 -91 
Q 1150 -91 751 415 
Q 353 922 353 1747 
Q 353 2572 751 3078 
Q 1150 3584 1784 3584 
Q 2172 3584 2448 3432 
Q 2725 3281 2906 2969 
z
M 947 1747 
Q 947 1113 1208 752 
Q 1469 391 1925 391 
Q 2381 391 2643 752 
Q 2906 1113 2906 1747 
Q 2906 2381 2643 2742 
Q 2381 3103 1925 3103 
Q 1469 3103 1208 2742 
Q 947 2381 947 1747 
z
" transform="scale(0.015625)"/>
       <path id="DejaVuSans-42" d="M 1259 2228 
L 1259 519 
L 2272 519 
Q 2781 519 3026 730 
Q 3272 941 3272 1375 
Q 3272 1813 3026 2020 
Q 2781 2228 2272 2228 
L 1259 2228 
z
M 1259 4147 
L 1259 2741 
L 2194 2741 
Q 2656 2741 2882 2914 
Q 3109 3088 3109 3444 
Q 3109 3797 2882 3972 
Q 2656 4147 2194 4147 
L 1259 4147 
z
M 628 4666 
L 2241 4666 
Q 2963 4666 3353 4366 
Q 3744 4066 3744 3513 
Q 3744 3084 3544 2831 
Q 3344 2578 2956 2516 
Q 3422 2416 3680 2098 
Q 3938 1781 3938 1306 
Q 3938 681 3513 340 
Q 3088 0 2303 0 
L 628 0 
L 628 4666 
z
" transform="scale(0.015625)"/>
      </defs>
      <use xlink:href="#DejaVuSans-2d"/>
      <use xlink:href="#DejaVuSans-36" transform="translate(36.083984 0)"/>
      <use xlink:href="#DejaVuSans-30" transform="translate(99.707031 0)"/>
      <use xlink:href="#DejaVuSans-20" transform="translate(163.330078 0)"/>
      <use xlink:href="#DejaVuSans-64" transform="translate(195.117188 0)"/>
      <use xlink:href="#DejaVuSans-42" transform="translate(258.59375 0)"/>
     </g>
    </g>
    <g id="line2d_20">
     <path d="M 298.968437 98.604813 
L 318.968437 98.604813 
" style="fill: none; stroke-dasharray: 5.55,2.4; stroke-dashoffset: 0; stroke: #1f77b4; stroke-width: 1.5"/>
    </g>
    <g id="text_18">
     <!-- Estimated RT60 -->
     <g transform="translate(326.968437 102.104813) scale(0.1 -0.1)">
      <defs>
       <path id="DejaVuSans-73" d="M 2834 3397 
L 2834 2853 
Q 2591 2978 2328 3040 
Q 2066 3103 1784 3103 
Q 1356 3103 1142 2972 
Q 928 2841 928 2578 
Q 928 2378 1081 2264 
Q 1234 2150 1697 2047 
L 1894 2003 
Q 2506 1872 2764 1633 
Q 3022 1394 3022 966 
Q 3022 478 2636 193 
Q 2250 -91 1575 -91 
Q 1294 -91 989 -36 
Q 684 19 347 128 
L 347 722 
Q 666 556 975 473 
Q 1284 391 1588 391 
Q 1994 391 2212 530 
Q 2431 669 2431 922 
Q 2431 1156 2273 1281 
Q 2116 1406 1581 1522 
L 1381 1569 
Q 847 1681 609 1914 
Q 372 2147 372 2553 
Q 372 3047 722 3315 
Q 1072 3584 1716 3584 
Q 2034 3584 2315 3537 
Q 2597 3491 2834 3397 
z
" transform="scale(0.015625)"/>
       <path id="DejaVuSans-6d" d="M 3328 2828 
Q 3544 3216 3844 3400 
Q 4144 3584 4550 3584 
Q 5097 3584 5394 3201 
Q 5691 2819 5691 2113 
L 5691 0 
L 5113 0 
L 5113 2094 
Q 5113 2597 4934 2840 
Q 4756 3084 4391 3084 
Q 3944 3084 3684 2787 
Q 3425 2491 3425 1978 
L 3425 0 
L 2847 0 
L 2847 2094 
Q 2847 2600 2669 2842 
Q 2491 3084 2119 3084 
Q 1678 3084 1418 2786 
Q 1159 2488 1159 1978 
L 1159 0 
L 581 0 
L 581 3500 
L 1159 3500 
L 1159 2956 
Q 1356 3278 1631 3431 
Q 1906 3584 2284 3584 
Q 2666 3584 2933 3390 
Q 3200 3197 3328 2828 
z
" transform="scale(0.015625)"/>
       <path id="DejaVuSans-52" d="M 2841 2188 
Q 3044 2119 3236 1894 
Q 3428 1669 3622 1275 
L 4263 0 
L 3584 0 
L 2988 1197 
Q 2756 1666 2539 1819 
Q 2322 1972 1947 1972 
L 1259 1972 
L 1259 0 
L 628 0 
L 628 4666 
L 2053 4666 
Q 2853 4666 3247 4331 
Q 3641 3997 3641 3322 
Q 3641 2881 3436 2590 
Q 3231 2300 2841 2188 
z
M 1259 4147 
L 1259 2491 
L 2053 2491 
Q 2509 2491 2742 2702 
Q 2975 2913 2975 3322 
Q 2975 3731 2742 3939 
Q 2509 4147 2053 4147 
L 1259 4147 
z
" transform="scale(0.015625)"/>
       <path id="DejaVuSans-54" d="M -19 4666 
L 3928 4666 
L 3928 4134 
L 2272 4134 
L 2272 0 
L 1638 0 
L 1638 4134 
L -19 4134 
L -19 4666 
z
" transform="scale(0.015625)"/>
      </defs>
      <use xlink:href="#DejaVuSans-45"/>
      <use xlink:href="#DejaVuSans-73" transform="translate(63.183594 0)"/>
      <use xlink:href="#DejaVuSans-74" transform="translate(115.283203 0)"/>
      <use xlink:href="#DejaVuSans-69" transform="translate(154.492188 0)"/>
      <use xlink:href="#DejaVuSans-6d" transform="translate(182.275391 0)"/>
      <use xlink:href="#DejaVuSans-61" transform="translate(279.6875 0)"/>
      <use xlink:href="#DejaVuSans-74" transform="translate(340.966797 0)"/>
      <use xlink:href="#DejaVuSans-65" transform="translate(380.175781 0)"/>
      <use xlink:href="#DejaVuSans-64" transform="translate(441.699219 0)"/>
      <use xlink:href="#DejaVuSans-20" transform="translate(505.175781 0)"/>
      <use xlink:href="#DejaVuSans-52" transform="translate(536.962891 0)"/>
      <use xlink:href="#DejaVuSans-54" transform="translate(599.195312 0)"/>
      <use xlink:href="#DejaVuSans-36" transform="translate(660.279297 0)"/>
      <use xlink:href="#DejaVuSans-30" transform="translate(723.902344 0)"/>
     </g>
    </g>
   </g>
  </g>
 </g>
 <defs>
  <clipPath id="p1c201789a4">
   <rect x="57.6" y="41.472" width="357.12" height="266.112"/>
  </clipPath>
 </defs>
</svg>
