<?xml version="1.0" encoding="utf-8" standalone="no"?>
<!DOCTYPE svg PUBLIC "-//W3C//DTD SVG 1.1//EN"
  "http://www.w3.org/Graphics/SVG/1.1/DTD/svg11.dtd">
<svg xmlns:xlink="http://www.w3.org/1999/xlink" width="460.8pt" height="345.6pt" viewBox="0 0 460.8 345.6" xmlns="http://www.w3.org/2000/svg" version="1.1">
 <metadata>
  <rdf:RDF xmlns:dc="http://purl.org/dc/elements/1.1/" xmlns:cc="http://creativecommons.org/ns#" xmlns:rdf="http://www.w3.org/1999/02/22-rdf-syntax-ns#">
   <cc:Work>
    <dc:type rdf:resource="http://purl.org/dc/dcmitype/StillImage"/>
    <dc:date>2025-05-07T10:13:24.646577</dc:date>
    <dc:format>image/svg+xml</dc:format>
    <dc:creator>
     <cc:Agent>
      <dc:title>Matplotlib v3.10.1, https://matplotlib.org/</dc:title>
     </cc:Agent>
    </dc:creator>
   </cc:Work>
  </rdf:RDF>
 </metadata>
 <defs>
  <style type="text/css">*{stroke-linejoin: round; stroke-linecap: butt}</style>
 </defs>
 <g id="figure_1">
  <g id="patch_1">
   <path d="M 0 345.6 
L 460.8 345.6 
L 460.8 0 
L 0 0 
z
" style="fill: #ffffff"/>
  </g>
  <g id="axes_1">
   <g id="patch_2">
    <path d="M 57.6 307.584 
L 414.72 307.584 
L 414.72 41.472 
L 57.6 41.472 
z
" style="fill: #ffffff"/>
   </g>
   <g id="matplotlib.axis_1">
    <g id="xtick_1">
     <g id="line2d_1">
      <defs>
       <path id="m88df1119ac" d="M 0 0 
L 0 3.5 
" style="stroke: #000000; stroke-width: 0.8"/>
      </defs>
      <g>
       <use xlink:href="#m88df1119ac" x="83.34486" y="307.584" style="stroke: #000000; stroke-width: 0.8"/>
      </g>
     </g>
     <g id="text_1">
      <!-- −0.2 -->
      <g transform="translate(71.203453 322.182437) scale(0.1 -0.1)">
       <defs>
        <path id="DejaVuSans-2212" d="M 678 2272 
L 4684 2272 
L 4684 1741 
L 678 1741 
L 678 2272 
z
" transform="scale(0.015625)"/>
        <path id="DejaVuSans-30" d="M 2034 4250 
Q 1547 4250 1301 3770 
Q 1056 3291 1056 2328 
Q 1056 1369 1301 889 
Q 1547 409 2034 409 
Q 2525 409 2770 889 
Q 3016 1369 3016 2328 
Q 3016 3291 2770 3770 
Q 2525 4250 2034 4250 
z
M 2034 4750 
Q 2819 4750 3233 4129 
Q 3647 3509 3647 2328 
Q 3647 1150 3233 529 
Q 2819 -91 2034 -91 
Q 1250 -91 836 529 
Q 422 1150 422 2328 
Q 422 3509 836 4129 
Q 1250 4750 2034 4750 
z
" transform="scale(0.015625)"/>
        <path id="DejaVuSans-2e" d="M 684 794 
L 1344 794 
L 1344 0 
L 684 0 
L 684 794 
z
" transform="scale(0.015625)"/>
        <path id="DejaVuSans-32" d="M 1228 531 
L 3431 531 
L 3431 0 
L 469 0 
L 469 531 
Q 828 903 1448 1529 
Q 2069 2156 2228 2338 
Q 2531 2678 2651 2914 
Q 2772 3150 2772 3378 
Q 2772 3750 2511 3984 
Q 2250 4219 1831 4219 
Q 1534 4219 1204 4116 
Q 875 4013 500 3803 
L 500 4441 
Q 881 4594 1212 4672 
Q 1544 4750 1819 4750 
Q 2544 4750 2975 4387 
Q 3406 4025 3406 3419 
Q 3406 3131 3298 2873 
Q 3191 2616 2906 2266 
Q 2828 2175 2409 1742 
Q 1991 1309 1228 531 
z
" transform="scale(0.015625)"/>
       </defs>
       <use xlink:href="#DejaVuSans-2212"/>
       <use xlink:href="#DejaVuSans-30" transform="translate(83.789062 0)"/>
       <use xlink:href="#DejaVuSans-2e" transform="translate(147.412109 0)"/>
       <use xlink:href="#DejaVuSans-32" transform="translate(179.199219 0)"/>
      </g>
     </g>
    </g>
    <g id="xtick_2">
     <g id="line2d_2">
      <g>
       <use xlink:href="#m88df1119ac" x="142.372959" y="307.584" style="stroke: #000000; stroke-width: 0.8"/>
      </g>
     </g>
     <g id="text_2">
      <!-- 0.0 -->
      <g transform="translate(134.421396 322.182437) scale(0.1 -0.1)">
       <use xlink:href="#DejaVuSans-30"/>
       <use xlink:href="#DejaVuSans-2e" transform="translate(63.623047 0)"/>
       <use xlink:href="#DejaVuSans-30" transform="translate(95.410156 0)"/>
      </g>
     </g>
    </g>
    <g id="xtick_3">
     <g id="line2d_3">
      <g>
       <use xlink:href="#m88df1119ac" x="201.401058" y="307.584" style="stroke: #000000; stroke-width: 0.8"/>
      </g>
     </g>
     <g id="text_3">
      <!-- 0.2 -->
      <g transform="translate(193.449495 322.182437) scale(0.1 -0.1)">
       <use xlink:href="#DejaVuSans-30"/>
       <use xlink:href="#DejaVuSans-2e" transform="translate(63.623047 0)"/>
       <use xlink:href="#DejaVuSans-32" transform="translate(95.410156 0)"/>
      </g>
     </g>
    </g>
    <g id="xtick_4">
     <g id="line2d_4">
      <g>
       <use xlink:href="#m88df1119ac" x="260.429157" y="307.584" style="stroke: #000000; stroke-width: 0.8"/>
      </g>
     </g>
     <g id="text_4">
      <!-- 0.4 -->
      <g transform="translate(252.477595 322.182437) scale(0.1 -0.1)">
       <defs>
        <path id="DejaVuSans-34" d="M 2419 4116 
L 825 1625 
L 2419 1625 
L 2419 4116 
z
M 2253 4666 
L 3047 4666 
L 3047 1625 
L 3713 1625 
L 3713 1100 
L 3047 1100 
L 3047 0 
L 2419 0 
L 2419 1100 
L 313 1100 
L 313 1709 
L 2253 4666 
z
" transform="scale(0.015625)"/>
       </defs>
       <use xlink:href="#DejaVuSans-30"/>
       <use xlink:href="#DejaVuSans-2e" transform="translate(63.623047 0)"/>
       <use xlink:href="#DejaVuSans-34" transform="translate(95.410156 0)"/>
      </g>
     </g>
    </g>
    <g id="xtick_5">
     <g id="line2d_5">
      <g>
       <use xlink:href="#m88df1119ac" x="319.457256" y="307.584" style="stroke: #000000; stroke-width: 0.8"/>
      </g>
     </g>
     <g id="text_5">
      <!-- 0.6 -->
      <g transform="translate(311.505694 322.182437) scale(0.1 -0.1)">
       <defs>
        <path id="DejaVuSans-36" d="M 2113 2584 
Q 1688 2584 1439 2293 
Q 1191 2003 1191 1497 
Q 1191 994 1439 701 
Q 1688 409 2113 409 
Q 2538 409 2786 701 
Q 3034 994 3034 1497 
Q 3034 2003 2786 2293 
Q 2538 2584 2113 2584 
z
M 3366 4563 
L 3366 3988 
Q 3128 4100 2886 4159 
Q 2644 4219 2406 4219 
Q 1781 4219 1451 3797 
Q 1122 3375 1075 2522 
Q 1259 2794 1537 2939 
Q 1816 3084 2150 3084 
Q 2853 3084 3261 2657 
Q 3669 2231 3669 1497 
Q 3669 778 3244 343 
Q 2819 -91 2113 -91 
Q 1303 -91 875 529 
Q 447 1150 447 2328 
Q 447 3434 972 4092 
Q 1497 4750 2381 4750 
Q 2619 4750 2861 4703 
Q 3103 4656 3366 4563 
z
" transform="scale(0.015625)"/>
       </defs>
       <use xlink:href="#DejaVuSans-30"/>
       <use xlink:href="#DejaVuSans-2e" transform="translate(63.623047 0)"/>
       <use xlink:href="#DejaVuSans-36" transform="translate(95.410156 0)"/>
      </g>
     </g>
    </g>
    <g id="xtick_6">
     <g id="line2d_6">
      <g>
       <use xlink:href="#m88df1119ac" x="378.485355" y="307.584" style="stroke: #000000; stroke-width: 0.8"/>
      </g>
     </g>
     <g id="text_6">
      <!-- 0.8 -->
      <g transform="translate(370.533793 322.182437) scale(0.1 -0.1)">
       <defs>
        <path id="DejaVuSans-38" d="M 2034 2216 
Q 1584 2216 1326 1975 
Q 1069 1734 1069 1313 
Q 1069 891 1326 650 
Q 1584 409 2034 409 
Q 2484 409 2743 651 
Q 3003 894 3003 1313 
Q 3003 1734 2745 1975 
Q 2488 2216 2034 2216 
z
M 1403 2484 
Q 997 2584 770 2862 
Q 544 3141 544 3541 
Q 544 4100 942 4425 
Q 1341 4750 2034 4750 
Q 2731 4750 3128 4425 
Q 3525 4100 3525 3541 
Q 3525 3141 3298 2862 
Q 3072 2584 2669 2484 
Q 3125 2378 3379 2068 
Q 3634 1759 3634 1313 
Q 3634 634 3220 271 
Q 2806 -91 2034 -91 
Q 1263 -91 848 271 
Q 434 634 434 1313 
Q 434 1759 690 2068 
Q 947 2378 1403 2484 
z
M 1172 3481 
Q 1172 3119 1398 2916 
Q 1625 2713 2034 2713 
Q 2441 2713 2670 2916 
Q 2900 3119 2900 3481 
Q 2900 3844 2670 4047 
Q 2441 4250 2034 4250 
Q 1625 4250 1398 4047 
Q 1172 3844 1172 3481 
z
" transform="scale(0.015625)"/>
       </defs>
       <use xlink:href="#DejaVuSans-30"/>
       <use xlink:href="#DejaVuSans-2e" transform="translate(63.623047 0)"/>
       <use xlink:href="#DejaVuSans-38" transform="translate(95.410156 0)"/>
      </g>
     </g>
    </g>
   </g>
   <g id="matplotlib.axis_2">
    <g id="ytick_1">
     <g id="line2d_7">
      <defs>
       <path id="m4938b74e92" d="M 0 0 
L -3.5 0 
" style="stroke: #000000; stroke-width: 0.8"/>
      </defs>
      <g>
       <use xlink:href="#m4938b74e92" x="57.6" y="282.176642" style="stroke: #000000; stroke-width: 0.8"/>
      </g>
     </g>
     <g id="text_7">
      <!-- −80 -->
      <g transform="translate(29.495313 285.97586) scale(0.1 -0.1)">
       <use xlink:href="#DejaVuSans-2212"/>
       <use xlink:href="#DejaVuSans-38" transform="translate(83.789062 0)"/>
       <use xlink:href="#DejaVuSans-30" transform="translate(147.412109 0)"/>
      </g>
     </g>
    </g>
    <g id="ytick_2">
     <g id="line2d_8">
      <g>
       <use xlink:href="#m4938b74e92" x="57.6" y="225.024481" style="stroke: #000000; stroke-width: 0.8"/>
      </g>
     </g>
     <g id="text_8">
      <!-- −60 -->
      <g transform="translate(29.495313 228.8237) scale(0.1 -0.1)">
       <use xlink:href="#DejaVuSans-2212"/>
       <use xlink:href="#DejaVuSans-36" transform="translate(83.789062 0)"/>
       <use xlink:href="#DejaVuSans-30" transform="translate(147.412109 0)"/>
      </g>
     </g>
    </g>
    <g id="ytick_3">
     <g id="line2d_9">
      <g>
       <use xlink:href="#m4938b74e92" x="57.6" y="167.872321" style="stroke: #000000; stroke-width: 0.8"/>
      </g>
     </g>
     <g id="text_9">
      <!-- −40 -->
      <g transform="translate(29.495313 171.67154) scale(0.1 -0.1)">
       <use xlink:href="#DejaVuSans-2212"/>
       <use xlink:href="#DejaVuSans-34" transform="translate(83.789062 0)"/>
       <use xlink:href="#DejaVuSans-30" transform="translate(147.412109 0)"/>
      </g>
     </g>
    </g>
    <g id="ytick_4">
     <g id="line2d_10">
      <g>
       <use xlink:href="#m4938b74e92" x="57.6" y="110.72016" style="stroke: #000000; stroke-width: 0.8"/>
      </g>
     </g>
     <g id="text_10">
      <!-- −20 -->
      <g transform="translate(29.495313 114.519379) scale(0.1 -0.1)">
       <use xlink:href="#DejaVuSans-2212"/>
       <use xlink:href="#DejaVuSans-32" transform="translate(83.789062 0)"/>
       <use xlink:href="#DejaVuSans-30" transform="translate(147.412109 0)"/>
      </g>
     </g>
    </g>
    <g id="ytick_5">
     <g id="line2d_11">
      <g>
       <use xlink:href="#m4938b74e92" x="57.6" y="53.568" style="stroke: #000000; stroke-width: 0.8"/>
      </g>
     </g>
     <g id="text_11">
      <!-- 0 -->
      <g transform="translate(44.2375 57.367219) scale(0.1 -0.1)">
       <use xlink:href="#DejaVuSans-30"/>
      </g>
     </g>
    </g>
   </g>
   <g id="line2d_12">
    <path d="M 73.832727 53.568 
L 125.974215 53.67842 
L 127.247008 54.0597 
L 127.646678 54.202297 
L 128.347636 54.33808 
L 129.116231 54.519571 
L 130.253752 54.756896 
L 130.800992 55.03017 
L 131.70486 55.221859 
L 132.762446 55.69093 
L 133.076033 55.814527 
L 133.38962 56.242739 
L 133.961455 57.00413 
L 134.311934 57.06487 
L 134.754645 57.173068 
L 135.117421 57.532184 
L 135.984397 58.485423 
L 136.420959 58.569856 
L 136.943603 58.684996 
L 137.201851 59.033017 
L 137.564628 59.990377 
L 138.05038 61.108626 
L 138.320926 61.241857 
L 138.763636 61.376721 
L 139.015736 61.802446 
L 139.396959 62.985752 
L 139.907306 64.402212 
L 140.159405 64.549649 
L 140.516033 64.67854 
L 140.743537 65.126662 
L 141.696595 67.375262 
L 142.31762 67.733375 
L 142.618909 68.616861 
L 143.20919 70.318468 
L 143.461289 70.446726 
L 143.799471 70.565186 
L 144.008529 70.99039 
L 144.377455 72.400615 
L 144.857058 73.919681 
L 145.182942 74.306007 
L 145.527273 74.371867 
L 145.847008 74.480355 
L 146.062215 74.841058 
L 146.33276 75.803308 
L 147.353455 80.016758 
L 147.986777 80.443753 
L 148.22043 81.370066 
L 149.167339 85.884633 
L 150.126545 86.365836 
L 150.79676 86.906585 
L 151.288661 86.948607 
L 153.932628 87.245145 
L 154.424529 87.523197 
L 155.045554 87.917529 
L 155.537455 88.057818 
L 155.771107 88.463133 
L 156.090843 89.544442 
L 156.736463 91.752639 
L 156.982413 91.893791 
L 157.480463 92.038713 
L 157.812496 92.483728 
L 159.122182 94.537089 
L 159.595636 94.595762 
L 160.155174 94.706196 
L 161.667769 95.329919 
L 162.165818 95.440678 
L 162.928264 95.784705 
L 163.260298 95.89501 
L 163.586182 96.306001 
L 164.274843 97.180612 
L 164.625322 97.24322 
L 164.957355 97.351447 
L 165.197157 97.714283 
L 166.180959 99.565252 
L 166.666711 99.628969 
L 167.632066 99.765598 
L 168.044033 100.124534 
L 168.462149 100.832962 
L 168.911008 101.453949 
L 169.230744 101.512385 
L 169.605818 101.624631 
L 169.944 102.011424 
L 170.601917 102.801125 
L 171.013884 102.841703 
L 171.425851 102.971031 
L 172.501884 103.545646 
L 172.840066 103.699812 
L 173.295074 104.218514 
L 173.786975 104.66896 
L 174.217388 104.708952 
L 174.684694 104.854414 
L 175.225785 105.263682 
L 175.988231 105.864577 
L 176.547769 105.936624 
L 177.217983 106.052516 
L 177.513124 106.392837 
L 178.410843 107.623123 
L 179.210182 107.92736 
L 180.06486 108.86603 
L 180.839603 109.051778 
L 181.60205 109.334135 
L 182.628893 109.528212 
L 183.43438 109.8917 
L 185.106843 110.145789 
L 186.26281 110.517724 
L 186.730116 110.628963 
L 187.99676 111.262786 
L 188.685421 111.372839 
L 189.410975 111.535639 
L 190.339438 111.64656 
L 192.552992 111.739178 
L 193.936463 111.910706 
L 194.606678 111.964344 
L 195.153917 112.130931 
L 195.830281 112.275012 
L 199.55643 112.660291 
L 200.564826 112.82422 
L 201.413355 112.934089 
L 202.13276 113.049829 
L 202.593917 113.167784 
L 203.540826 113.566659 
L 204.272529 113.683448 
L 205.237884 113.935385 
L 208.48443 114.160902 
L 210.697983 114.793548 
L 211.257521 114.979052 
L 217.492364 115.36344 
L 222.96476 115.517365 
L 224.85243 115.904654 
L 225.64562 116.250579 
L 226.93686 116.54329 
L 227.643967 116.762017 
L 229.408661 117.050339 
L 230.171107 117.10195 
L 230.699901 117.275347 
L 231.425455 117.503949 
L 232.19405 117.648596 
L 233.350017 118.237911 
L 233.915702 118.346734 
L 234.462942 118.761592 
L 234.954843 119.011257 
L 239.179041 119.652591 
L 239.818512 119.788237 
L 240.679339 119.984122 
L 241.368 120.098807 
L 242.646942 120.605823 
L 243.243372 120.71622 
L 244.325554 121.060298 
L 250.535802 121.373575 
L 251.550347 121.472791 
L 255.590083 121.58527 
L 258.178711 121.90486 
L 259.12562 122.01966 
L 259.875769 122.131377 
L 260.933355 122.340282 
L 261.75114 122.451308 
L 262.722645 122.66393 
L 263.552727 122.776967 
L 264.395107 122.917637 
L 265.268231 123.030294 
L 266.147504 123.176677 
L 266.897653 123.287143 
L 267.930645 123.547585 
L 268.773025 123.665219 
L 269.824463 123.936756 
L 270.765223 124.056744 
L 271.67524 124.207234 
L 272.917289 124.323389 
L 274.915636 124.423183 
L 277.688727 124.554827 
L 284.581488 125.48992 
L 291.320529 125.734713 
L 300.949488 125.89764 
L 303.722579 126.183364 
L 304.835504 126.295568 
L 305.831603 126.357432 
L 306.649388 126.505656 
L 307.461025 126.568963 
L 308.27881 126.685885 
L 309.330248 126.873223 
L 310.104992 126.984718 
L 311.365488 127.376798 
L 311.925025 127.490861 
L 313.253157 128.013187 
L 313.837289 128.123625 
L 315.282248 128.701047 
L 315.823339 128.826201 
L 316.942413 129.211825 
L 320.840727 129.433163 
L 323.939702 129.706068 
L 328.86486 129.840212 
L 331.078413 129.920866 
L 335.105851 130.071097 
L 337.49157 130.716673 
L 338.100298 130.908493 
L 339.065653 131.08229 
L 339.834248 131.341217 
L 340.633587 131.48869 
L 341.801851 132.053457 
L 342.226116 132.162576 
L 342.545851 132.522269 
L 343.462017 133.715225 
L 344.298248 134.0676 
L 344.630281 134.780706 
L 345.361983 136.416653 
L 345.650975 136.534306 
L 346.136727 136.664759 
L 346.425719 137.072847 
L 347.427967 138.746989 
L 347.846083 138.789156 
L 348.331835 138.912779 
L 349.315636 139.27656 
L 351.48 139.476311 
L 352.414612 139.757571 
L 353.11557 139.874587 
L 353.699702 140.291501 
L 354.240793 140.568157 
L 356.681851 140.919768 
L 359.245884 141.081062 
L 359.81157 141.267956 
L 360.586314 141.523517 
L 361.619306 141.691389 
L 362.369455 141.882172 
L 363.543868 142.02698 
L 365.757421 142.264664 
L 366.273917 142.398869 
L 367.110149 142.67519 
L 367.761917 142.794989 
L 368.253818 143.212264 
L 368.721124 143.492314 
L 369.53276 143.759979 
L 369.889388 144.361956 
L 370.510413 145.383182 
L 370.817851 145.465773 
L 371.180628 145.572436 
L 371.414281 145.939139 
L 371.734017 146.94694 
L 372.428826 149.198635 
L 372.687074 149.36038 
L 373.111339 149.506903 
L 373.326545 149.949956 
L 373.627835 151.173832 
L 374.384132 154.430008 
L 374.623934 154.599315 
L 375.005157 154.739959 
L 375.214215 155.201022 
L 375.521653 156.539923 
L 376.13038 159.177003 
L 376.370182 159.389276 
L 376.794446 159.564331 
L 377.015802 160.083888 
L 377.403174 161.715534 
L 377.833587 163.169012 
L 378.079537 163.360342 
L 378.491504 163.52285 
L 378.706711 164.015603 
L 379.038744 165.4512 
L 379.616727 167.829768 
L 379.868826 168.089498 
L 380.403769 168.346038 
L 380.649719 168.989195 
L 381.695008 172.235001 
L 382.070083 172.271778 
L 382.512793 172.419579 
L 383.152264 172.616086 
L 384.640264 172.811791 
L 384.953851 173.258441 
L 385.845421 174.716975 
L 386.478744 175.021351 
L 386.706248 175.696006 
L 387.013686 177.429746 
L 387.856066 182.602193 
L 388.071273 182.752329 
L 388.366413 182.877461 
L 388.544727 183.341817 
L 388.77838 184.706061 
L 389.110413 188.188356 
L 389.799074 195.544301 
L 390.02043 195.989242 
L 390.438545 196.288348 
L 390.641455 197.119698 
L 390.948893 199.525449 
L 391.600661 204.725014 
L 391.822017 205.060831 
L 392.246281 205.302872 
L 392.479934 206.011347 
L 393.19319 208.401251 
L 393.445289 208.455611 
L 393.660496 208.572388 
L 393.844959 208.988823 
L 394.097058 210.209349 
L 395.007074 215.256716 
L 395.505124 215.705194 
L 395.708033 216.806317 
L 395.97243 219.665767 
L 396.347504 226.555171 
L 396.919339 236.672475 
L 397.128397 237.347531 
L 397.435835 237.614692 
L 397.595702 238.504596 
L 397.810909 241.20993 
L 398.069157 247.681401 
L 398.30281 259.396682 
L 398.444231 277.808804 
L 398.481124 295.488 
L 398.481124 295.488 
" clip-path="url(#p6edff727dd)" style="fill: none; stroke: #1f77b4; stroke-width: 1.5; stroke-linecap: square"/>
   </g>
   <g id="line2d_13">
    <path d="M 142.372959 67.857774 
L 397.681785 239.312521 
" clip-path="url(#p6edff727dd)" style="fill: none; stroke-dasharray: 5.55,2.4; stroke-dashoffset: 0; stroke: #ff7f0e; stroke-width: 1.5"/>
   </g>
   <g id="line2d_14">
    <path d="M 73.832727 225.024481 
L 398.487273 225.024481 
L 398.487273 225.024481 
" clip-path="url(#p6edff727dd)" style="fill: none; stroke-dasharray: 5.55,2.4; stroke-dashoffset: 0; stroke: #2ca02c; stroke-width: 1.5"/>
   </g>
   <g id="LineCollection_1">
    <path d="M 397.681785 295.488 
L 397.681785 53.568 
" clip-path="url(#p6edff727dd)" style="fill: none; stroke-dasharray: 5.55,2.4; stroke-dashoffset: 0; stroke: #1f77b4; stroke-width: 1.5"/>
   </g>
   <g id="patch_3">
    <path d="M 57.6 307.584 
L 57.6 41.472 
" style="fill: none; stroke: #000000; stroke-width: 0.8; stroke-linejoin: miter; stroke-linecap: square"/>
   </g>
   <g id="patch_4">
    <path d="M 414.72 307.584 
L 414.72 41.472 
" style="fill: none; stroke: #000000; stroke-width: 0.8; stroke-linejoin: miter; stroke-linecap: square"/>
   </g>
   <g id="patch_5">
    <path d="M 57.6 307.584 
L 414.72 307.584 
" style="fill: none; stroke: #000000; stroke-width: 0.8; stroke-linejoin: miter; stroke-linecap: square"/>
   </g>
   <g id="patch_6">
    <path d="M 57.6 41.472 
L 414.72 41.472 
" style="fill: none; stroke: #000000; stroke-width: 0.8; stroke-linejoin: miter; stroke-linecap: square"/>
   </g>
   <g id="text_12">
    <!-- Energy Decay - 63 Hz -->
    <g transform="translate(171.225 35.472) scale(0.12 -0.12)">
     <defs>
      <path id="DejaVuSans-45" d="M 628 4666 
L 3578 4666 
L 3578 4134 
L 1259 4134 
L 1259 2753 
L 3481 2753 
L 3481 2222 
L 1259 2222 
L 1259 531 
L 3634 531 
L 3634 0 
L 628 0 
L 628 4666 
z
" transform="scale(0.015625)"/>
      <path id="DejaVuSans-6e" d="M 3513 2113 
L 3513 0 
L 2938 0 
L 2938 2094 
Q 2938 2591 2744 2837 
Q 2550 3084 2163 3084 
Q 1697 3084 1428 2787 
Q 1159 2491 1159 1978 
L 1159 0 
L 581 0 
L 581 3500 
L 1159 3500 
L 1159 2956 
Q 1366 3272 1645 3428 
Q 1925 3584 2291 3584 
Q 2894 3584 3203 3211 
Q 3513 2838 3513 2113 
z
" transform="scale(0.015625)"/>
      <path id="DejaVuSans-65" d="M 3597 1894 
L 3597 1613 
L 953 1613 
Q 991 1019 1311 708 
Q 1631 397 2203 397 
Q 2534 397 2845 478 
Q 3156 559 3463 722 
L 3463 178 
Q 3153 47 2828 -22 
Q 2503 -91 2169 -91 
Q 1331 -91 842 396 
Q 353 884 353 1716 
Q 353 2575 817 3079 
Q 1281 3584 2069 3584 
Q 2775 3584 3186 3129 
Q 3597 2675 3597 1894 
z
M 3022 2063 
Q 3016 2534 2758 2815 
Q 2500 3097 2075 3097 
Q 1594 3097 1305 2825 
Q 1016 2553 972 2059 
L 3022 2063 
z
" transform="scale(0.015625)"/>
      <path id="DejaVuSans-72" d="M 2631 2963 
Q 2534 3019 2420 3045 
Q 2306 3072 2169 3072 
Q 1681 3072 1420 2755 
Q 1159 2438 1159 1844 
L 1159 0 
L 581 0 
L 581 3500 
L 1159 3500 
L 1159 2956 
Q 1341 3275 1631 3429 
Q 1922 3584 2338 3584 
Q 2397 3584 2469 3576 
Q 2541 3569 2628 3553 
L 2631 2963 
z
" transform="scale(0.015625)"/>
      <path id="DejaVuSans-67" d="M 2906 1791 
Q 2906 2416 2648 2759 
Q 2391 3103 1925 3103 
Q 1463 3103 1205 2759 
Q 947 2416 947 1791 
Q 947 1169 1205 825 
Q 1463 481 1925 481 
Q 2391 481 2648 825 
Q 2906 1169 2906 1791 
z
M 3481 434 
Q 3481 -459 3084 -895 
Q 2688 -1331 1869 -1331 
Q 1566 -1331 1297 -1286 
Q 1028 -1241 775 -1147 
L 775 -588 
Q 1028 -725 1275 -790 
Q 1522 -856 1778 -856 
Q 2344 -856 2625 -561 
Q 2906 -266 2906 331 
L 2906 616 
Q 2728 306 2450 153 
Q 2172 0 1784 0 
Q 1141 0 747 490 
Q 353 981 353 1791 
Q 353 2603 747 3093 
Q 1141 3584 1784 3584 
Q 2172 3584 2450 3431 
Q 2728 3278 2906 2969 
L 2906 3500 
L 3481 3500 
L 3481 434 
z
" transform="scale(0.015625)"/>
      <path id="DejaVuSans-79" d="M 2059 -325 
Q 1816 -950 1584 -1140 
Q 1353 -1331 966 -1331 
L 506 -1331 
L 506 -850 
L 844 -850 
Q 1081 -850 1212 -737 
Q 1344 -625 1503 -206 
L 1606 56 
L 191 3500 
L 800 3500 
L 1894 763 
L 2988 3500 
L 3597 3500 
L 2059 -325 
z
" transform="scale(0.015625)"/>
      <path id="DejaVuSans-20" transform="scale(0.015625)"/>
      <path id="DejaVuSans-44" d="M 1259 4147 
L 1259 519 
L 2022 519 
Q 2988 519 3436 956 
Q 3884 1394 3884 2338 
Q 3884 3275 3436 3711 
Q 2988 4147 2022 4147 
L 1259 4147 
z
M 628 4666 
L 1925 4666 
Q 3281 4666 3915 4102 
Q 4550 3538 4550 2338 
Q 4550 1131 3912 565 
Q 3275 0 1925 0 
L 628 0 
L 628 4666 
z
" transform="scale(0.015625)"/>
      <path id="DejaVuSans-63" d="M 3122 3366 
L 3122 2828 
Q 2878 2963 2633 3030 
Q 2388 3097 2138 3097 
Q 1578 3097 1268 2742 
Q 959 2388 959 1747 
Q 959 1106 1268 751 
Q 1578 397 2138 397 
Q 2388 397 2633 464 
Q 2878 531 3122 666 
L 3122 134 
Q 2881 22 2623 -34 
Q 2366 -91 2075 -91 
Q 1284 -91 818 406 
Q 353 903 353 1747 
Q 353 2603 823 3093 
Q 1294 3584 2113 3584 
Q 2378 3584 2631 3529 
Q 2884 3475 3122 3366 
z
" transform="scale(0.015625)"/>
      <path id="DejaVuSans-61" d="M 2194 1759 
Q 1497 1759 1228 1600 
Q 959 1441 959 1056 
Q 959 750 1161 570 
Q 1363 391 1709 391 
Q 2188 391 2477 730 
Q 2766 1069 2766 1631 
L 2766 1759 
L 2194 1759 
z
M 3341 1997 
L 3341 0 
L 2766 0 
L 2766 531 
Q 2569 213 2275 61 
Q 1981 -91 1556 -91 
Q 1019 -91 701 211 
Q 384 513 384 1019 
Q 384 1609 779 1909 
Q 1175 2209 1959 2209 
L 2766 2209 
L 2766 2266 
Q 2766 2663 2505 2880 
Q 2244 3097 1772 3097 
Q 1472 3097 1187 3025 
Q 903 2953 641 2809 
L 641 3341 
Q 956 3463 1253 3523 
Q 1550 3584 1831 3584 
Q 2591 3584 2966 3190 
Q 3341 2797 3341 1997 
z
" transform="scale(0.015625)"/>
      <path id="DejaVuSans-2d" d="M 313 2009 
L 1997 2009 
L 1997 1497 
L 313 1497 
L 313 2009 
z
" transform="scale(0.015625)"/>
      <path id="DejaVuSans-33" d="M 2597 2516 
Q 3050 2419 3304 2112 
Q 3559 1806 3559 1356 
Q 3559 666 3084 287 
Q 2609 -91 1734 -91 
Q 1441 -91 1130 -33 
Q 819 25 488 141 
L 488 750 
Q 750 597 1062 519 
Q 1375 441 1716 441 
Q 2309 441 2620 675 
Q 2931 909 2931 1356 
Q 2931 1769 2642 2001 
Q 2353 2234 1838 2234 
L 1294 2234 
L 1294 2753 
L 1863 2753 
Q 2328 2753 2575 2939 
Q 2822 3125 2822 3475 
Q 2822 3834 2567 4026 
Q 2313 4219 1838 4219 
Q 1578 4219 1281 4162 
Q 984 4106 628 3988 
L 628 4550 
Q 988 4650 1302 4700 
Q 1616 4750 1894 4750 
Q 2613 4750 3031 4423 
Q 3450 4097 3450 3541 
Q 3450 3153 3228 2886 
Q 3006 2619 2597 2516 
z
" transform="scale(0.015625)"/>
      <path id="DejaVuSans-48" d="M 628 4666 
L 1259 4666 
L 1259 2753 
L 3553 2753 
L 3553 4666 
L 4184 4666 
L 4184 0 
L 3553 0 
L 3553 2222 
L 1259 2222 
L 1259 0 
L 628 0 
L 628 4666 
z
" transform="scale(0.015625)"/>
      <path id="DejaVuSans-7a" d="M 353 3500 
L 3084 3500 
L 3084 2975 
L 922 459 
L 3084 459 
L 3084 0 
L 275 0 
L 275 525 
L 2438 3041 
L 353 3041 
L 353 3500 
z
" transform="scale(0.015625)"/>
     </defs>
     <use xlink:href="#DejaVuSans-45"/>
     <use xlink:href="#DejaVuSans-6e" transform="translate(63.183594 0)"/>
     <use xlink:href="#DejaVuSans-65" transform="translate(126.5625 0)"/>
     <use xlink:href="#DejaVuSans-72" transform="translate(188.085938 0)"/>
     <use xlink:href="#DejaVuSans-67" transform="translate(227.449219 0)"/>
     <use xlink:href="#DejaVuSans-79" transform="translate(290.925781 0)"/>
     <use xlink:href="#DejaVuSans-20" transform="translate(350.105469 0)"/>
     <use xlink:href="#DejaVuSans-44" transform="translate(381.892578 0)"/>
     <use xlink:href="#DejaVuSans-65" transform="translate(458.894531 0)"/>
     <use xlink:href="#DejaVuSans-63" transform="translate(520.417969 0)"/>
     <use xlink:href="#DejaVuSans-61" transform="translate(575.398438 0)"/>
     <use xlink:href="#DejaVuSans-79" transform="translate(636.677734 0)"/>
     <use xlink:href="#DejaVuSans-20" transform="translate(695.857422 0)"/>
     <use xlink:href="#DejaVuSans-2d" transform="translate(727.644531 0)"/>
     <use xlink:href="#DejaVuSans-20" transform="translate(763.728516 0)"/>
     <use xlink:href="#DejaVuSans-36" transform="translate(795.515625 0)"/>
     <use xlink:href="#DejaVuSans-33" transform="translate(859.138672 0)"/>
     <use xlink:href="#DejaVuSans-20" transform="translate(922.761719 0)"/>
     <use xlink:href="#DejaVuSans-48" transform="translate(954.548828 0)"/>
     <use xlink:href="#DejaVuSans-7a" transform="translate(1029.744141 0)"/>
    </g>
   </g>
   <g id="legend_1">
    <g id="patch_7">
     <path d="M 296.968437 108.1845 
L 407.72 108.1845 
Q 409.72 108.1845 409.72 106.1845 
L 409.72 48.472 
Q 409.72 46.472 407.72 46.472 
L 296.968437 46.472 
Q 294.968437 46.472 294.968437 48.472 
L 294.968437 106.1845 
Q 294.968437 108.1845 296.968437 108.1845 
z
" style="fill: #ffffff; opacity: 0.8; stroke: #cccccc; stroke-linejoin: miter"/>
    </g>
    <g id="line2d_15">
     <path d="M 298.968437 54.570438 
L 308.968437 54.570438 
L 318.968437 54.570438 
" style="fill: none; stroke: #1f77b4; stroke-width: 1.5; stroke-linecap: square"/>
    </g>
    <g id="text_13">
     <!-- Energy -->
     <g transform="translate(326.968437 58.070438) scale(0.1 -0.1)">
      <use xlink:href="#DejaVuSans-45"/>
      <use xlink:href="#DejaVuSans-6e" transform="translate(63.183594 0)"/>
      <use xlink:href="#DejaVuSans-65" transform="translate(126.5625 0)"/>
      <use xlink:href="#DejaVuSans-72" transform="translate(188.085938 0)"/>
      <use xlink:href="#DejaVuSans-67" transform="translate(227.449219 0)"/>
      <use xlink:href="#DejaVuSans-79" transform="translate(290.925781 0)"/>
     </g>
    </g>
    <g id="line2d_16">
     <path d="M 298.968437 69.248563 
L 308.968437 69.248563 
L 318.968437 69.248563 
" style="fill: none; stroke-dasharray: 5.55,2.4; stroke-dashoffset: 0; stroke: #ff7f0e; stroke-width: 1.5"/>
    </g>
    <g id="text_14">
     <!-- Linear Fit -->
     <g transform="translate(326.968437 72.748563) scale(0.1 -0.1)">
      <defs>
       <path id="DejaVuSans-4c" d="M 628 4666 
L 1259 4666 
L 1259 531 
L 3531 531 
L 3531 0 
L 628 0 
L 628 4666 
z
" transform="scale(0.015625)"/>
       <path id="DejaVuSans-69" d="M 603 3500 
L 1178 3500 
L 1178 0 
L 603 0 
L 603 3500 
z
M 603 4863 
L 1178 4863 
L 1178 4134 
L 603 4134 
L 603 4863 
z
" transform="scale(0.015625)"/>
       <path id="DejaVuSans-46" d="M 628 4666 
L 3309 4666 
L 3309 4134 
L 1259 4134 
L 1259 2759 
L 3109 2759 
L 3109 2228 
L 1259 2228 
L 1259 0 
L 628 0 
L 628 4666 
z
" transform="scale(0.015625)"/>
       <path id="DejaVuSans-74" d="M 1172 4494 
L 1172 3500 
L 2356 3500 
L 2356 3053 
L 1172 3053 
L 1172 1153 
Q 1172 725 1289 603 
Q 1406 481 1766 481 
L 2356 481 
L 2356 0 
L 1766 0 
Q 1100 0 847 248 
Q 594 497 594 1153 
L 594 3053 
L 172 3053 
L 172 3500 
L 594 3500 
L 594 4494 
L 1172 4494 
z
" transform="scale(0.015625)"/>
      </defs>
      <use xlink:href="#DejaVuSans-4c"/>
      <use xlink:href="#DejaVuSans-69" transform="translate(55.712891 0)"/>
      <use xlink:href="#DejaVuSans-6e" transform="translate(83.496094 0)"/>
      <use xlink:href="#DejaVuSans-65" transform="translate(146.875 0)"/>
      <use xlink:href="#DejaVuSans-61" transform="translate(208.398438 0)"/>
      <use xlink:href="#DejaVuSans-72" transform="translate(269.677734 0)"/>
      <use xlink:href="#DejaVuSans-20" transform="translate(310.791016 0)"/>
      <use xlink:href="#DejaVuSans-46" transform="translate(342.578125 0)"/>
      <use xlink:href="#DejaVuSans-69" transform="translate(392.847656 0)"/>
      <use xlink:href="#DejaVuSans-74" transform="translate(420.630859 0)"/>
     </g>
    </g>
    <g id="line2d_17">
     <path d="M 298.968437 83.926688 
L 308.968437 83.926688 
L 318.968437 83.926688 
" style="fill: none; stroke-dasharray: 5.55,2.4; stroke-dashoffset: 0; stroke: #2ca02c; stroke-width: 1.5"/>
    </g>
    <g id="text_15">
     <!-- -60 dB -->
     <g transform="translate(326.968437 87.426688) scale(0.1 -0.1)">
      <defs>
       <path id="DejaVuSans-64" d="M 2906 2969 
L 2906 4863 
L 3481 4863 
L 3481 0 
L 2906 0 
L 2906 525 
Q 2725 213 2448 61 
Q 2172 -91 1784 -91 
Q 1150 -91 751 415 
Q 353 922 353 1747 
Q 353 2572 751 3078 
Q 1150 3584 1784 3584 
Q 2172 3584 2448 3432 
Q 2725 3281 2906 2969 
z
M 947 1747 
Q 947 1113 1208 752 
Q 1469 391 1925 391 
Q 2381 391 2643 752 
Q 2906 1113 2906 1747 
Q 2906 2381 2643 2742 
Q 2381 3103 1925 3103 
Q 1469 3103 1208 2742 
Q 947 2381 947 1747 
z
" transform="scale(0.015625)"/>
       <path id="DejaVuSans-42" d="M 1259 2228 
L 1259 519 
L 2272 519 
Q 2781 519 3026 730 
Q 3272 941 3272 1375 
Q 3272 1813 3026 2020 
Q 2781 2228 2272 2228 
L 1259 2228 
z
M 1259 4147 
L 1259 2741 
L 2194 2741 
Q 2656 2741 2882 2914 
Q 3109 3088 3109 3444 
Q 3109 3797 2882 3972 
Q 2656 4147 2194 4147 
L 1259 4147 
z
M 628 4666 
L 2241 4666 
Q 2963 4666 3353 4366 
Q 3744 4066 3744 3513 
Q 3744 3084 3544 2831 
Q 3344 2578 2956 2516 
Q 3422 2416 3680 2098 
Q 3938 1781 3938 1306 
Q 3938 681 3513 340 
Q 3088 0 2303 0 
L 628 0 
L 628 4666 
z
" transform="scale(0.015625)"/>
      </defs>
      <use xlink:href="#DejaVuSans-2d"/>
      <use xlink:href="#DejaVuSans-36" transform="translate(36.083984 0)"/>
      <use xlink:href="#DejaVuSans-30" transform="translate(99.707031 0)"/>
      <use xlink:href="#DejaVuSans-20" transform="translate(163.330078 0)"/>
      <use xlink:href="#DejaVuSans-64" transform="translate(195.117188 0)"/>
      <use xlink:href="#DejaVuSans-42" transform="translate(258.59375 0)"/>
     </g>
    </g>
    <g id="line2d_18">
     <path d="M 298.968437 98.604813 
L 318.968437 98.604813 
" style="fill: none; stroke-dasharray: 5.55,2.4; stroke-dashoffset: 0; stroke: #1f77b4; stroke-width: 1.5"/>
    </g>
    <g id="text_16">
     <!-- Estimated RT60 -->
     <g transform="translate(326.968437 102.104813) scale(0.1 -0.1)">
      <defs>
       <path id="DejaVuSans-73" d="M 2834 3397 
L 2834 2853 
Q 2591 2978 2328 3040 
Q 2066 3103 1784 3103 
Q 1356 3103 1142 2972 
Q 928 2841 928 2578 
Q 928 2378 1081 2264 
Q 1234 2150 1697 2047 
L 1894 2003 
Q 2506 1872 2764 1633 
Q 3022 1394 3022 966 
Q 3022 478 2636 193 
Q 2250 -91 1575 -91 
Q 1294 -91 989 -36 
Q 684 19 347 128 
L 347 722 
Q 666 556 975 473 
Q 1284 391 1588 391 
Q 1994 391 2212 530 
Q 2431 669 2431 922 
Q 2431 1156 2273 1281 
Q 2116 1406 1581 1522 
L 1381 1569 
Q 847 1681 609 1914 
Q 372 2147 372 2553 
Q 372 3047 722 3315 
Q 1072 3584 1716 3584 
Q 2034 3584 2315 3537 
Q 2597 3491 2834 3397 
z
" transform="scale(0.015625)"/>
       <path id="DejaVuSans-6d" d="M 3328 2828 
Q 3544 3216 3844 3400 
Q 4144 3584 4550 3584 
Q 5097 3584 5394 3201 
Q 5691 2819 5691 2113 
L 5691 0 
L 5113 0 
L 5113 2094 
Q 5113 2597 4934 2840 
Q 4756 3084 4391 3084 
Q 3944 3084 3684 2787 
Q 3425 2491 3425 1978 
L 3425 0 
L 2847 0 
L 2847 2094 
Q 2847 2600 2669 2842 
Q 2491 3084 2119 3084 
Q 1678 3084 1418 2786 
Q 1159 2488 1159 1978 
L 1159 0 
L 581 0 
L 581 3500 
L 1159 3500 
L 1159 2956 
Q 1356 3278 1631 3431 
Q 1906 3584 2284 3584 
Q 2666 3584 2933 3390 
Q 3200 3197 3328 2828 
z
" transform="scale(0.015625)"/>
       <path id="DejaVuSans-52" d="M 2841 2188 
Q 3044 2119 3236 1894 
Q 3428 1669 3622 1275 
L 4263 0 
L 3584 0 
L 2988 1197 
Q 2756 1666 2539 1819 
Q 2322 1972 1947 1972 
L 1259 1972 
L 1259 0 
L 628 0 
L 628 4666 
L 2053 4666 
Q 2853 4666 3247 4331 
Q 3641 3997 3641 3322 
Q 3641 2881 3436 2590 
Q 3231 2300 2841 2188 
z
M 1259 4147 
L 1259 2491 
L 2053 2491 
Q 2509 2491 2742 2702 
Q 2975 2913 2975 3322 
Q 2975 3731 2742 3939 
Q 2509 4147 2053 4147 
L 1259 4147 
z
" transform="scale(0.015625)"/>
       <path id="DejaVuSans-54" d="M -19 4666 
L 3928 4666 
L 3928 4134 
L 2272 4134 
L 2272 0 
L 1638 0 
L 1638 4134 
L -19 4134 
L -19 4666 
z
" transform="scale(0.015625)"/>
      </defs>
      <use xlink:href="#DejaVuSans-45"/>
      <use xlink:href="#DejaVuSans-73" transform="translate(63.183594 0)"/>
      <use xlink:href="#DejaVuSans-74" transform="translate(115.283203 0)"/>
      <use xlink:href="#DejaVuSans-69" transform="translate(154.492188 0)"/>
      <use xlink:href="#DejaVuSans-6d" transform="translate(182.275391 0)"/>
      <use xlink:href="#DejaVuSans-61" transform="translate(279.6875 0)"/>
      <use xlink:href="#DejaVuSans-74" transform="translate(340.966797 0)"/>
      <use xlink:href="#DejaVuSans-65" transform="translate(380.175781 0)"/>
      <use xlink:href="#DejaVuSans-64" transform="translate(441.699219 0)"/>
      <use xlink:href="#DejaVuSans-20" transform="translate(505.175781 0)"/>
      <use xlink:href="#DejaVuSans-52" transform="translate(536.962891 0)"/>
      <use xlink:href="#DejaVuSans-54" transform="translate(599.195312 0)"/>
      <use xlink:href="#DejaVuSans-36" transform="translate(660.279297 0)"/>
      <use xlink:href="#DejaVuSans-30" transform="translate(723.902344 0)"/>
     </g>
    </g>
   </g>
  </g>
 </g>
 <defs>
  <clipPath id="p6edff727dd">
   <rect x="57.6" y="41.472" width="357.12" height="266.112"/>
  </clipPath>
 </defs>
</svg>
