<?xml version="1.0" encoding="utf-8" standalone="no"?>
<!DOCTYPE svg PUBLIC "-//W3C//DTD SVG 1.1//EN"
  "http://www.w3.org/Graphics/SVG/1.1/DTD/svg11.dtd">
<svg xmlns:xlink="http://www.w3.org/1999/xlink" width="460.8pt" height="345.6pt" viewBox="0 0 460.8 345.6" xmlns="http://www.w3.org/2000/svg" version="1.1">
 <metadata>
  <rdf:RDF xmlns:dc="http://purl.org/dc/elements/1.1/" xmlns:cc="http://creativecommons.org/ns#" xmlns:rdf="http://www.w3.org/1999/02/22-rdf-syntax-ns#">
   <cc:Work>
    <dc:type rdf:resource="http://purl.org/dc/dcmitype/StillImage"/>
    <dc:date>2025-05-07T13:50:21.315516</dc:date>
    <dc:format>image/svg+xml</dc:format>
    <dc:creator>
     <cc:Agent>
      <dc:title>Matplotlib v3.10.1, https://matplotlib.org/</dc:title>
     </cc:Agent>
    </dc:creator>
   </cc:Work>
  </rdf:RDF>
 </metadata>
 <defs>
  <style type="text/css">*{stroke-linejoin: round; stroke-linecap: butt}</style>
 </defs>
 <g id="figure_1">
  <g id="patch_1">
   <path d="M 0 345.6 
L 460.8 345.6 
L 460.8 0 
L 0 0 
z
" style="fill: #ffffff"/>
  </g>
  <g id="axes_1">
   <g id="patch_2">
    <path d="M 57.6 307.584 
L 414.72 307.584 
L 414.72 41.472 
L 57.6 41.472 
z
" style="fill: #ffffff"/>
   </g>
   <g id="matplotlib.axis_1">
    <g id="xtick_1">
     <g id="line2d_1">
      <defs>
       <path id="m8daa7e969b" d="M 0 0 
L 0 3.5 
" style="stroke: #000000; stroke-width: 0.8"/>
      </defs>
      <g>
       <use xlink:href="#m8daa7e969b" x="72.186909" y="307.584" style="stroke: #000000; stroke-width: 0.8"/>
      </g>
     </g>
     <g id="text_1">
      <!-- −0.2 -->
      <g transform="translate(60.045503 322.182437) scale(0.1 -0.1)">
       <defs>
        <path id="DejaVuSans-2212" d="M 678 2272 
L 4684 2272 
L 4684 1741 
L 678 1741 
L 678 2272 
z
" transform="scale(0.015625)"/>
        <path id="DejaVuSans-30" d="M 2034 4250 
Q 1547 4250 1301 3770 
Q 1056 3291 1056 2328 
Q 1056 1369 1301 889 
Q 1547 409 2034 409 
Q 2525 409 2770 889 
Q 3016 1369 3016 2328 
Q 3016 3291 2770 3770 
Q 2525 4250 2034 4250 
z
M 2034 4750 
Q 2819 4750 3233 4129 
Q 3647 3509 3647 2328 
Q 3647 1150 3233 529 
Q 2819 -91 2034 -91 
Q 1250 -91 836 529 
Q 422 1150 422 2328 
Q 422 3509 836 4129 
Q 1250 4750 2034 4750 
z
" transform="scale(0.015625)"/>
        <path id="DejaVuSans-2e" d="M 684 794 
L 1344 794 
L 1344 0 
L 684 0 
L 684 794 
z
" transform="scale(0.015625)"/>
        <path id="DejaVuSans-32" d="M 1228 531 
L 3431 531 
L 3431 0 
L 469 0 
L 469 531 
Q 828 903 1448 1529 
Q 2069 2156 2228 2338 
Q 2531 2678 2651 2914 
Q 2772 3150 2772 3378 
Q 2772 3750 2511 3984 
Q 2250 4219 1831 4219 
Q 1534 4219 1204 4116 
Q 875 4013 500 3803 
L 500 4441 
Q 881 4594 1212 4672 
Q 1544 4750 1819 4750 
Q 2544 4750 2975 4387 
Q 3406 4025 3406 3419 
Q 3406 3131 3298 2873 
Q 3191 2616 2906 2266 
Q 2828 2175 2409 1742 
Q 1991 1309 1228 531 
z
" transform="scale(0.015625)"/>
       </defs>
       <use xlink:href="#DejaVuSans-2212"/>
       <use xlink:href="#DejaVuSans-30" transform="translate(83.789062 0)"/>
       <use xlink:href="#DejaVuSans-2e" transform="translate(147.412109 0)"/>
       <use xlink:href="#DejaVuSans-32" transform="translate(179.199219 0)"/>
      </g>
     </g>
    </g>
    <g id="xtick_2">
     <g id="line2d_2">
      <g>
       <use xlink:href="#m8daa7e969b" x="144.332364" y="307.584" style="stroke: #000000; stroke-width: 0.8"/>
      </g>
     </g>
     <g id="text_2">
      <!-- 0.0 -->
      <g transform="translate(136.380801 322.182437) scale(0.1 -0.1)">
       <use xlink:href="#DejaVuSans-30"/>
       <use xlink:href="#DejaVuSans-2e" transform="translate(63.623047 0)"/>
       <use xlink:href="#DejaVuSans-30" transform="translate(95.410156 0)"/>
      </g>
     </g>
    </g>
    <g id="xtick_3">
     <g id="line2d_3">
      <g>
       <use xlink:href="#m8daa7e969b" x="216.477818" y="307.584" style="stroke: #000000; stroke-width: 0.8"/>
      </g>
     </g>
     <g id="text_3">
      <!-- 0.2 -->
      <g transform="translate(208.526256 322.182437) scale(0.1 -0.1)">
       <use xlink:href="#DejaVuSans-30"/>
       <use xlink:href="#DejaVuSans-2e" transform="translate(63.623047 0)"/>
       <use xlink:href="#DejaVuSans-32" transform="translate(95.410156 0)"/>
      </g>
     </g>
    </g>
    <g id="xtick_4">
     <g id="line2d_4">
      <g>
       <use xlink:href="#m8daa7e969b" x="288.623273" y="307.584" style="stroke: #000000; stroke-width: 0.8"/>
      </g>
     </g>
     <g id="text_4">
      <!-- 0.4 -->
      <g transform="translate(280.67171 322.182437) scale(0.1 -0.1)">
       <defs>
        <path id="DejaVuSans-34" d="M 2419 4116 
L 825 1625 
L 2419 1625 
L 2419 4116 
z
M 2253 4666 
L 3047 4666 
L 3047 1625 
L 3713 1625 
L 3713 1100 
L 3047 1100 
L 3047 0 
L 2419 0 
L 2419 1100 
L 313 1100 
L 313 1709 
L 2253 4666 
z
" transform="scale(0.015625)"/>
       </defs>
       <use xlink:href="#DejaVuSans-30"/>
       <use xlink:href="#DejaVuSans-2e" transform="translate(63.623047 0)"/>
       <use xlink:href="#DejaVuSans-34" transform="translate(95.410156 0)"/>
      </g>
     </g>
    </g>
    <g id="xtick_5">
     <g id="line2d_5">
      <g>
       <use xlink:href="#m8daa7e969b" x="360.768727" y="307.584" style="stroke: #000000; stroke-width: 0.8"/>
      </g>
     </g>
     <g id="text_5">
      <!-- 0.6 -->
      <g transform="translate(352.817165 322.182437) scale(0.1 -0.1)">
       <defs>
        <path id="DejaVuSans-36" d="M 2113 2584 
Q 1688 2584 1439 2293 
Q 1191 2003 1191 1497 
Q 1191 994 1439 701 
Q 1688 409 2113 409 
Q 2538 409 2786 701 
Q 3034 994 3034 1497 
Q 3034 2003 2786 2293 
Q 2538 2584 2113 2584 
z
M 3366 4563 
L 3366 3988 
Q 3128 4100 2886 4159 
Q 2644 4219 2406 4219 
Q 1781 4219 1451 3797 
Q 1122 3375 1075 2522 
Q 1259 2794 1537 2939 
Q 1816 3084 2150 3084 
Q 2853 3084 3261 2657 
Q 3669 2231 3669 1497 
Q 3669 778 3244 343 
Q 2819 -91 2113 -91 
Q 1303 -91 875 529 
Q 447 1150 447 2328 
Q 447 3434 972 4092 
Q 1497 4750 2381 4750 
Q 2619 4750 2861 4703 
Q 3103 4656 3366 4563 
z
" transform="scale(0.015625)"/>
       </defs>
       <use xlink:href="#DejaVuSans-30"/>
       <use xlink:href="#DejaVuSans-2e" transform="translate(63.623047 0)"/>
       <use xlink:href="#DejaVuSans-36" transform="translate(95.410156 0)"/>
      </g>
     </g>
    </g>
   </g>
   <g id="matplotlib.axis_2">
    <g id="ytick_1">
     <g id="line2d_6">
      <defs>
       <path id="m80340ed0fb" d="M 0 0 
L -3.5 0 
" style="stroke: #000000; stroke-width: 0.8"/>
      </defs>
      <g>
       <use xlink:href="#m80340ed0fb" x="57.6" y="306.914841" style="stroke: #000000; stroke-width: 0.8"/>
      </g>
     </g>
     <g id="text_6">
      <!-- −200 -->
      <g transform="translate(23.132812 310.714059) scale(0.1 -0.1)">
       <use xlink:href="#DejaVuSans-2212"/>
       <use xlink:href="#DejaVuSans-32" transform="translate(83.789062 0)"/>
       <use xlink:href="#DejaVuSans-30" transform="translate(147.412109 0)"/>
       <use xlink:href="#DejaVuSans-30" transform="translate(211.035156 0)"/>
      </g>
     </g>
    </g>
    <g id="ytick_2">
     <g id="line2d_7">
      <g>
       <use xlink:href="#m80340ed0fb" x="57.6" y="275.246486" style="stroke: #000000; stroke-width: 0.8"/>
      </g>
     </g>
     <g id="text_7">
      <!-- −175 -->
      <g transform="translate(23.132812 279.045704) scale(0.1 -0.1)">
       <defs>
        <path id="DejaVuSans-31" d="M 794 531 
L 1825 531 
L 1825 4091 
L 703 3866 
L 703 4441 
L 1819 4666 
L 2450 4666 
L 2450 531 
L 3481 531 
L 3481 0 
L 794 0 
L 794 531 
z
" transform="scale(0.015625)"/>
        <path id="DejaVuSans-37" d="M 525 4666 
L 3525 4666 
L 3525 4397 
L 1831 0 
L 1172 0 
L 2766 4134 
L 525 4134 
L 525 4666 
z
" transform="scale(0.015625)"/>
        <path id="DejaVuSans-35" d="M 691 4666 
L 3169 4666 
L 3169 4134 
L 1269 4134 
L 1269 2991 
Q 1406 3038 1543 3061 
Q 1681 3084 1819 3084 
Q 2600 3084 3056 2656 
Q 3513 2228 3513 1497 
Q 3513 744 3044 326 
Q 2575 -91 1722 -91 
Q 1428 -91 1123 -41 
Q 819 9 494 109 
L 494 744 
Q 775 591 1075 516 
Q 1375 441 1709 441 
Q 2250 441 2565 725 
Q 2881 1009 2881 1497 
Q 2881 1984 2565 2268 
Q 2250 2553 1709 2553 
Q 1456 2553 1204 2497 
Q 953 2441 691 2322 
L 691 4666 
z
" transform="scale(0.015625)"/>
       </defs>
       <use xlink:href="#DejaVuSans-2212"/>
       <use xlink:href="#DejaVuSans-31" transform="translate(83.789062 0)"/>
       <use xlink:href="#DejaVuSans-37" transform="translate(147.412109 0)"/>
       <use xlink:href="#DejaVuSans-35" transform="translate(211.035156 0)"/>
      </g>
     </g>
    </g>
    <g id="ytick_3">
     <g id="line2d_8">
      <g>
       <use xlink:href="#m80340ed0fb" x="57.6" y="243.57813" style="stroke: #000000; stroke-width: 0.8"/>
      </g>
     </g>
     <g id="text_8">
      <!-- −150 -->
      <g transform="translate(23.132812 247.377349) scale(0.1 -0.1)">
       <use xlink:href="#DejaVuSans-2212"/>
       <use xlink:href="#DejaVuSans-31" transform="translate(83.789062 0)"/>
       <use xlink:href="#DejaVuSans-35" transform="translate(147.412109 0)"/>
       <use xlink:href="#DejaVuSans-30" transform="translate(211.035156 0)"/>
      </g>
     </g>
    </g>
    <g id="ytick_4">
     <g id="line2d_9">
      <g>
       <use xlink:href="#m80340ed0fb" x="57.6" y="211.909775" style="stroke: #000000; stroke-width: 0.8"/>
      </g>
     </g>
     <g id="text_9">
      <!-- −125 -->
      <g transform="translate(23.132812 215.708994) scale(0.1 -0.1)">
       <use xlink:href="#DejaVuSans-2212"/>
       <use xlink:href="#DejaVuSans-31" transform="translate(83.789062 0)"/>
       <use xlink:href="#DejaVuSans-32" transform="translate(147.412109 0)"/>
       <use xlink:href="#DejaVuSans-35" transform="translate(211.035156 0)"/>
      </g>
     </g>
    </g>
    <g id="ytick_5">
     <g id="line2d_10">
      <g>
       <use xlink:href="#m80340ed0fb" x="57.6" y="180.24142" style="stroke: #000000; stroke-width: 0.8"/>
      </g>
     </g>
     <g id="text_10">
      <!-- −100 -->
      <g transform="translate(23.132812 184.040639) scale(0.1 -0.1)">
       <use xlink:href="#DejaVuSans-2212"/>
       <use xlink:href="#DejaVuSans-31" transform="translate(83.789062 0)"/>
       <use xlink:href="#DejaVuSans-30" transform="translate(147.412109 0)"/>
       <use xlink:href="#DejaVuSans-30" transform="translate(211.035156 0)"/>
      </g>
     </g>
    </g>
    <g id="ytick_6">
     <g id="line2d_11">
      <g>
       <use xlink:href="#m80340ed0fb" x="57.6" y="148.573065" style="stroke: #000000; stroke-width: 0.8"/>
      </g>
     </g>
     <g id="text_11">
      <!-- −75 -->
      <g transform="translate(29.495313 152.372284) scale(0.1 -0.1)">
       <use xlink:href="#DejaVuSans-2212"/>
       <use xlink:href="#DejaVuSans-37" transform="translate(83.789062 0)"/>
       <use xlink:href="#DejaVuSans-35" transform="translate(147.412109 0)"/>
      </g>
     </g>
    </g>
    <g id="ytick_7">
     <g id="line2d_12">
      <g>
       <use xlink:href="#m80340ed0fb" x="57.6" y="116.90471" style="stroke: #000000; stroke-width: 0.8"/>
      </g>
     </g>
     <g id="text_12">
      <!-- −50 -->
      <g transform="translate(29.495313 120.703929) scale(0.1 -0.1)">
       <use xlink:href="#DejaVuSans-2212"/>
       <use xlink:href="#DejaVuSans-35" transform="translate(83.789062 0)"/>
       <use xlink:href="#DejaVuSans-30" transform="translate(147.412109 0)"/>
      </g>
     </g>
    </g>
    <g id="ytick_8">
     <g id="line2d_13">
      <g>
       <use xlink:href="#m80340ed0fb" x="57.6" y="85.236355" style="stroke: #000000; stroke-width: 0.8"/>
      </g>
     </g>
     <g id="text_13">
      <!-- −25 -->
      <g transform="translate(29.495313 89.035574) scale(0.1 -0.1)">
       <use xlink:href="#DejaVuSans-2212"/>
       <use xlink:href="#DejaVuSans-32" transform="translate(83.789062 0)"/>
       <use xlink:href="#DejaVuSans-35" transform="translate(147.412109 0)"/>
      </g>
     </g>
    </g>
    <g id="ytick_9">
     <g id="line2d_14">
      <g>
       <use xlink:href="#m80340ed0fb" x="57.6" y="53.568" style="stroke: #000000; stroke-width: 0.8"/>
      </g>
     </g>
     <g id="text_14">
      <!-- 0 -->
      <g transform="translate(44.2375 57.367219) scale(0.1 -0.1)">
       <use xlink:href="#DejaVuSans-30"/>
      </g>
     </g>
    </g>
   </g>
   <g id="line2d_15">
    <path d="M 73.832727 53.568 
L 132.879273 53.672435 
L 133.037091 53.813451 
L 133.412848 53.954004 
L 134.096727 54.063136 
L 135.892848 54.794742 
L 136.050667 54.907918 
L 136.306182 55.018785 
L 136.599273 55.174369 
L 136.787152 55.279446 
L 137.020121 55.389435 
L 137.260606 55.516014 
L 137.658909 55.626451 
L 137.959515 55.735192 
L 138.147394 55.895649 
L 138.305212 56.102503 
L 139.289697 56.759717 
L 139.605333 56.824397 
L 139.943515 56.941319 
L 140.68 57.431192 
L 140.837818 57.530327 
L 141.130909 57.678014 
L 141.288727 57.994327 
L 141.867394 58.470859 
L 142.055273 58.719096 
L 142.408485 58.815345 
L 142.64897 58.9486 
L 142.874424 59.075523 
L 143.084848 59.18049 
L 143.265212 59.257084 
L 143.408 59.36529 
L 143.603394 59.504568 
L 143.896485 59.669524 
L 144.324848 59.901487 
L 144.542788 60.030512 
L 144.693091 60.14024 
L 144.933576 60.253678 
L 145.098909 60.360406 
L 145.309333 60.469285 
L 145.632485 60.688049 
L 145.963152 60.793941 
L 146.211152 60.910302 
L 146.316364 61.017314 
L 146.466667 61.143426 
L 146.684606 61.202713 
L 148.976727 62.494101 
L 149.172121 62.678545 
L 149.84097 63.002747 
L 150.021333 63.233503 
L 150.231758 63.477171 
L 150.464727 63.743564 
L 150.592485 63.879093 
L 150.750303 64.010404 
L 151.058424 64.127652 
L 151.471758 64.410933 
L 152.125576 64.849253 
L 152.268364 64.976237 
L 152.456242 65.106068 
L 153.125091 66.003624 
L 153.267879 66.191831 
L 153.681212 66.353832 
L 154.004364 66.566931 
L 154.33503 66.6811 
L 154.808485 67.013262 
L 155.943273 67.356742 
L 156.521939 67.648735 
L 156.950303 67.766925 
L 157.228364 67.934963 
L 157.393697 68.306914 
L 157.799515 68.369973 
L 157.957333 68.485944 
L 158.160242 68.547792 
L 158.310545 68.644943 
L 158.453333 68.723936 
L 158.956848 68.931248 
L 159.099636 69.049358 
L 159.355152 69.131775 
L 159.948848 69.488838 
L 160.114182 69.594279 
L 160.572606 69.911174 
L 160.775515 70.041134 
L 160.843152 70.148349 
L 161.00097 70.204993 
L 161.331636 70.314433 
L 161.504485 70.364408 
L 161.947879 70.652283 
L 162.090667 70.780998 
L 162.428848 70.897261 
L 162.579152 70.989058 
L 162.759515 71.105653 
L 163.556121 71.327874 
L 163.811636 71.393645 
L 164.427879 71.541522 
L 164.593212 71.628503 
L 164.758545 71.751391 
L 164.938909 72.015974 
L 165.201939 72.124571 
L 165.382303 72.383486 
L 165.600242 72.489664 
L 165.74303 72.565047 
L 168.155394 73.426482 
L 168.290667 73.477268 
L 169.117333 73.603721 
L 169.508121 73.921339 
L 171.123879 74.37302 
L 171.364364 74.566474 
L 172.859879 75.033072 
L 173.476121 75.145824 
L 175.031758 75.818228 
L 175.497697 75.967407 
L 175.678061 76.028447 
L 176.151515 76.148714 
L 176.842909 76.472152 
L 177.586909 76.587827 
L 178.082909 76.7659 
L 178.285818 76.799345 
L 178.578909 76.909528 
L 178.804364 76.936905 
L 179.405576 77.059449 
L 180.34497 77.309635 
L 181.096485 77.561027 
L 182.171152 78.327715 
L 184.072485 79.057603 
L 184.666182 79.895171 
L 185.05697 80.00689 
L 185.372606 80.080672 
L 185.740848 80.191983 
L 185.996364 80.335091 
L 186.334545 80.387398 
L 189.009939 81.20694 
L 189.160242 81.27196 
L 189.543515 81.384819 
L 189.964364 81.539146 
L 190.219879 81.640675 
L 190.362667 81.727697 
L 191.249455 82.154707 
L 191.399758 82.212927 
L 191.835636 82.311031 
L 191.978424 82.354452 
L 192.632242 82.460269 
L 192.977939 82.635121 
L 193.473939 82.745292 
L 194.022545 82.967879 
L 194.202909 83.11015 
L 194.315636 83.218806 
L 194.97697 83.694002 
L 195.127273 83.795583 
L 195.713455 84.006463 
L 196.239515 84.336259 
L 196.810667 84.463213 
L 197.013576 84.567747 
L 197.70497 84.722679 
L 197.922909 84.760328 
L 198.787152 84.953626 
L 199.080242 85.115493 
L 199.313212 85.25319 
L 199.628848 85.309823 
L 200.18497 85.491679 
L 200.733576 85.606887 
L 202.634909 86.244148 
L 202.94303 86.452405 
L 203.634424 86.643615 
L 203.837333 86.738706 
L 204.521212 86.873181 
L 205.190061 87.282658 
L 205.483152 87.393333 
L 207.091394 88.070649 
L 207.444606 88.188406 
L 207.918061 88.388227 
L 208.496727 88.548418 
L 208.677091 88.633308 
L 208.789818 88.813626 
L 208.932606 88.896266 
L 209.338424 89.025617 
L 209.902061 89.148504 
L 210.450667 89.285793 
L 215.162667 90.80152 
L 215.854061 91.075912 
L 216.064485 91.144243 
L 216.132121 91.271911 
L 216.289939 91.617377 
L 216.883636 91.853615 
L 217.071515 91.879037 
L 217.507394 91.989351 
L 218.296485 92.317322 
L 218.875152 92.433247 
L 219.130667 92.67594 
L 219.596606 92.732143 
L 220.05503 92.83529 
L 220.227879 92.890771 
L 220.438303 92.975758 
L 220.76897 93.110087 
L 221.227394 93.448486 
L 221.550545 93.561004 
L 221.670788 93.690345 
L 221.828606 93.717794 
L 222.512485 93.986967 
L 222.670303 94.053335 
L 223.429333 94.161939 
L 224.008 94.29312 
L 224.301091 94.402715 
L 224.564121 94.5274 
L 225.308121 94.666131 
L 225.811636 94.788416 
L 226.292606 94.9011 
L 226.766061 94.969222 
L 227.119273 95.085117 
L 228.118788 95.348721 
L 228.396848 95.495628 
L 228.72 95.655075 
L 228.975515 95.781806 
L 229.749576 95.933578 
L 229.96 96.00099 
L 230.68897 96.234955 
L 230.861818 96.413435 
L 231.402909 96.630417 
L 231.823758 96.753764 
L 232.830788 97.097762 
L 233.244121 97.290956 
L 235.746667 98.334573 
L 235.912 98.427502 
L 236.355394 98.5482 
L 237.039273 98.862204 
L 237.798303 98.983632 
L 238.038788 99.095446 
L 239.504242 99.452574 
L 239.722182 99.57706 
L 241.13503 99.904184 
L 241.398061 99.976593 
L 241.736242 100.091294 
L 245.486303 101.455422 
L 245.801939 101.568852 
L 246.034909 101.671767 
L 246.636121 101.774578 
L 246.959273 102.008844 
L 247.350061 102.131341 
L 247.838545 102.271409 
L 248.424727 102.43766 
L 248.582545 102.553582 
L 249.010909 102.719982 
L 249.461818 102.955509 
L 249.649697 103.054548 
L 249.792485 103.199456 
L 251.062545 103.51263 
L 251.445818 103.598629 
L 251.701333 103.700639 
L 251.874182 103.778196 
L 252.204848 103.929023 
L 254.985455 104.541184 
L 255.511515 104.694729 
L 255.992485 104.802532 
L 256.698909 104.912009 
L 256.916848 104.953171 
L 257.300121 105.069448 
L 257.99903 105.265073 
L 258.269576 105.468166 
L 258.637818 105.612999 
L 258.855758 105.71187 
L 259.006061 105.85198 
L 260.20097 106.182561 
L 260.358788 106.230677 
L 261.373333 106.361609 
L 262.252606 106.669466 
L 262.771152 106.782357 
L 263.507636 107.074639 
L 263.642909 107.178023 
L 263.785697 107.286715 
L 264.296727 107.477817 
L 264.657455 107.596226 
L 265.679515 108.033679 
L 265.829818 108.118274 
L 266.889455 108.450066 
L 267.069818 108.511147 
L 267.272727 108.631115 
L 267.483152 108.708847 
L 267.693576 108.841552 
L 267.851394 108.918499 
L 268.069333 109.049568 
L 270.060848 109.701259 
L 273.119515 110.76507 
L 273.645576 110.874658 
L 273.886061 110.95462 
L 274.306909 111.068504 
L 274.690182 111.117779 
L 277.297939 111.820488 
L 277.651152 112.094698 
L 278.034424 112.274149 
L 278.177212 112.341731 
L 278.635636 112.461226 
L 279.808 112.937454 
L 280.379152 113.243705 
L 281.03297 113.355902 
L 281.318545 113.384966 
L 281.52897 113.517288 
L 281.694303 113.641181 
L 282.460848 113.750721 
L 282.859152 113.938792 
L 283.28 114.061897 
L 284.151758 114.323818 
L 284.324606 114.431794 
L 286.774545 115.307742 
L 286.977455 115.43122 
L 287.465939 115.549264 
L 287.698909 115.680415 
L 288.878788 116.024829 
L 289.434909 116.146378 
L 289.71297 116.346601 
L 290.72 116.736891 
L 291.343758 116.901109 
L 292.283152 117.279192 
L 292.741576 117.391455 
L 293.267636 117.548887 
L 294.109333 117.661091 
L 294.552727 117.840562 
L 294.815758 117.960424 
L 295.642424 118.307055 
L 296.070788 118.429129 
L 296.243636 118.536669 
L 296.92 118.728349 
L 297.18303 118.770871 
L 298.460606 119.22939 
L 298.618424 119.288267 
L 300.023758 119.785973 
L 300.497212 119.945169 
L 300.782788 120.131603 
L 301.015758 120.242945 
L 301.474182 120.476259 
L 301.639515 120.567567 
L 302.473697 120.83936 
L 302.669091 120.919105 
L 303.668606 121.159218 
L 304.074424 121.438198 
L 304.36 121.54839 
L 304.600485 121.645645 
L 305.261818 121.758143 
L 305.412121 121.797906 
L 305.524848 121.912008 
L 305.675152 122.017453 
L 306.088485 122.130436 
L 306.246303 122.187311 
L 307.426182 122.601873 
L 307.56897 122.667694 
L 309.011879 122.890894 
L 309.372606 123.138618 
L 309.733333 123.255625 
L 310.086545 123.443026 
L 310.236848 123.567542 
L 310.394667 123.669631 
L 312.123152 124.130957 
L 312.258424 124.229553 
L 313.092606 124.362081 
L 313.844121 124.548289 
L 314.099636 124.654879 
L 314.29503 124.694168 
L 314.588121 124.771743 
L 315.580121 125.111826 
L 315.820606 125.236451 
L 316.564606 125.363828 
L 319.179879 125.934756 
L 319.352727 125.983058 
L 320.487515 126.223491 
L 320.953455 126.338842 
L 321.449455 126.47597 
L 321.712485 126.622428 
L 322.268606 126.767345 
L 322.854788 126.883615 
L 323.410909 127.004753 
L 323.786667 127.115149 
L 324.387879 127.249159 
L 324.485576 127.360585 
L 324.635879 127.452673 
L 325.597818 127.611974 
L 325.845818 127.688234 
L 326.184 127.846331 
L 326.672485 128.136334 
L 326.950545 128.203357 
L 327.664485 128.30967 
L 328.010182 128.528408 
L 328.446061 128.697369 
L 328.694061 128.823181 
L 329.280242 128.938984 
L 329.610909 129.02312 
L 330.4 129.175665 
L 335.142061 130.585718 
L 335.405091 130.70298 
L 335.698182 130.82993 
L 335.946182 130.857495 
L 336.08897 130.957785 
L 336.261818 131.116471 
L 338.313455 131.580667 
L 338.666667 131.759537 
L 339.230303 131.880951 
L 339.388121 132.003867 
L 339.861576 132.113701 
L 340.177212 132.226486 
L 340.703273 132.337525 
L 340.876121 132.400255 
L 342.04097 132.697613 
L 342.273939 132.765389 
L 342.724848 132.8765 
L 343.363636 133.112657 
L 343.521455 133.214112 
L 343.731879 133.380324 
L 344.490909 133.723108 
L 344.693818 133.840443 
L 345.340121 134.064975 
L 345.490424 134.13731 
L 345.963879 134.283356 
L 346.136727 134.34502 
L 346.715394 134.46498 
L 347.917818 134.874717 
L 348.188364 135.021281 
L 349.240485 135.568992 
L 349.390788 135.646313 
L 350.187394 135.813704 
L 351.389818 136.153034 
L 351.728 136.263641 
L 351.976 136.405218 
L 353.261091 136.875132 
L 353.471515 137.027021 
L 354.493576 137.304093 
L 354.756606 137.666944 
L 355.21503 137.885318 
L 356.064242 138.777279 
L 356.665455 138.919176 
L 357.041212 139.232609 
L 358.138424 139.614065 
L 358.341333 139.690015 
L 358.461576 139.799425 
L 358.611879 139.894822 
L 358.732121 140.017524 
L 358.889939 140.082204 
L 359.010182 140.193639 
L 359.175515 140.324049 
L 359.626424 140.588432 
L 359.994667 140.778258 
L 360.190061 141.030864 
L 360.866424 141.149932 
L 361.061818 141.41588 
L 361.279758 141.632991 
L 363.248727 142.612184 
L 363.511758 142.709378 
L 363.677091 142.87262 
L 364.165576 143.032375 
L 364.368485 143.151021 
L 364.781818 143.303682 
L 365.180121 143.434531 
L 365.390545 143.655737 
L 365.63103 143.751699 
L 365.796364 143.858216 
L 365.976727 144.090989 
L 366.119515 144.203679 
L 366.269818 144.349813 
L 366.675636 144.485093 
L 366.87103 144.56492 
L 367.096485 144.685658 
L 367.630061 144.935956 
L 367.825455 145.083675 
L 369.456242 145.854778 
L 369.606545 146.03902 
L 369.84703 146.157992 
L 370.027394 146.454164 
L 370.583515 146.991661 
L 370.756364 147.108706 
L 370.959273 147.383808 
L 371.147152 147.439022 
L 371.327515 147.547412 
L 371.477818 147.633558 
L 371.575515 147.813749 
L 371.770909 148.018258 
L 372.266909 148.162762 
L 372.432242 148.232835 
L 373.454303 149.155512 
L 373.702303 149.262551 
L 373.867636 149.421367 
L 374.160727 149.629637 
L 374.694303 150.543364 
L 375.536 151.269509 
L 375.671273 151.331198 
L 375.836606 151.433721 
L 376.152242 151.780768 
L 376.227394 152.031648 
L 376.437818 152.2749 
L 376.505455 152.376697 
L 376.79103 152.84031 
L 377.407273 153.396979 
L 377.670303 153.787301 
L 378.594667 154.473078 
L 378.782545 154.609247 
L 378.925333 154.76869 
L 379.068121 154.921936 
L 379.188364 155.029864 
L 379.353697 155.1031 
L 379.511515 155.216361 
L 379.706909 155.465815 
L 379.849697 155.580326 
L 380 155.842214 
L 380.022545 155.938421 
L 380.202909 156.559186 
L 380.285576 156.670102 
L 380.75903 157.450357 
L 380.811636 157.583888 
L 380.946909 157.801359 
L 381.119758 157.917348 
L 381.50303 158.289408 
L 381.638303 158.393467 
L 382.006545 158.705547 
L 382.307152 158.88156 
L 382.46497 159.144165 
L 382.540121 159.259303 
L 382.720485 159.489622 
L 382.780606 159.589002 
L 383.103758 160.441041 
L 383.329212 160.687156 
L 383.494545 161.123993 
L 383.517091 161.182905 
L 383.652364 161.425964 
L 383.780121 161.528187 
L 383.922909 161.803336 
L 383.98303 161.896521 
L 384.163394 162.33854 
L 384.313697 162.85304 
L 384.47903 163.456641 
L 384.772121 163.757177 
L 385.072727 164.965404 
L 385.230545 165.47603 
L 385.478545 166.491785 
L 385.666424 166.83512 
L 385.824242 167.282101 
L 386.342788 168.231914 
L 386.906424 169.003415 
L 387.327273 170.523731 
L 388.026182 171.760385 
L 388.236606 172.908841 
L 388.522182 173.218915 
L 388.657455 173.499954 
L 388.890424 173.625416 
L 389.581818 175.819542 
L 389.739636 176.618226 
L 389.897455 176.71277 
L 390.641455 178.578572 
L 390.769212 178.706284 
L 390.972121 179.291234 
L 391.129939 180.220373 
L 391.265212 180.34703 
L 391.332848 180.440708 
L 391.949091 182.331514 
L 392.091879 183.057031 
L 392.264727 183.170116 
L 392.407515 183.697263 
L 392.550303 183.865202 
L 392.805818 184.426092 
L 393.151515 186.675143 
L 393.489697 190.14798 
L 393.527273 190.259048 
L 393.722667 190.89296 
L 393.90303 193.647663 
L 394.090909 193.987888 
L 394.421576 196.940128 
L 395.030303 199.768284 
L 395.511273 207.642126 
L 395.684121 208.250995 
L 395.902061 210.032898 
L 395.984727 210.503238 
L 396.127515 211.44007 
L 396.345455 213.54474 
L 396.525818 214.866412 
L 396.87903 218.367426 
L 396.901576 218.608601 
L 397.036848 228.541585 
L 397.179636 234.173704 
L 397.502788 236.9415 
L 397.645576 239.011321 
L 397.848485 241.481031 
L 398.164121 253.42517 
L 398.427152 283.338593 
L 398.479758 295.488 
L 398.479758 295.488 
" clip-path="url(#p364b90cd62)" style="fill: none; stroke: #1f77b4; stroke-width: 1.5; stroke-linecap: square"/>
   </g>
   <g id="line2d_16">
    <path d="M 144.332364 59.902767 
L 350.653333 135.905723 
" clip-path="url(#p364b90cd62)" style="fill: none; stroke-dasharray: 5.55,2.4; stroke-dashoffset: 0; stroke: #ff7f0e; stroke-width: 1.5"/>
   </g>
   <g id="line2d_17">
    <path d="M 73.832727 129.572052 
L 398.487273 129.572052 
L 398.487273 129.572052 
" clip-path="url(#p364b90cd62)" style="fill: none; stroke-dasharray: 5.55,2.4; stroke-dashoffset: 0; stroke: #2ca02c; stroke-width: 1.5"/>
   </g>
   <g id="LineCollection_1">
    <path d="M 350.653333 295.488 
L 350.653333 53.568 
" clip-path="url(#p364b90cd62)" style="fill: none; stroke-dasharray: 5.55,2.4; stroke-dashoffset: 0; stroke: #1f77b4; stroke-width: 1.5"/>
   </g>
   <g id="patch_3">
    <path d="M 57.6 307.584 
L 57.6 41.472 
" style="fill: none; stroke: #000000; stroke-width: 0.8; stroke-linejoin: miter; stroke-linecap: square"/>
   </g>
   <g id="patch_4">
    <path d="M 414.72 307.584 
L 414.72 41.472 
" style="fill: none; stroke: #000000; stroke-width: 0.8; stroke-linejoin: miter; stroke-linecap: square"/>
   </g>
   <g id="patch_5">
    <path d="M 57.6 307.584 
L 414.72 307.584 
" style="fill: none; stroke: #000000; stroke-width: 0.8; stroke-linejoin: miter; stroke-linecap: square"/>
   </g>
   <g id="patch_6">
    <path d="M 57.6 41.472 
L 414.72 41.472 
" style="fill: none; stroke: #000000; stroke-width: 0.8; stroke-linejoin: miter; stroke-linecap: square"/>
   </g>
   <g id="text_15">
    <!-- Energy Decay - 4000 Hz -->
    <g transform="translate(163.59 35.472) scale(0.12 -0.12)">
     <defs>
      <path id="DejaVuSans-45" d="M 628 4666 
L 3578 4666 
L 3578 4134 
L 1259 4134 
L 1259 2753 
L 3481 2753 
L 3481 2222 
L 1259 2222 
L 1259 531 
L 3634 531 
L 3634 0 
L 628 0 
L 628 4666 
z
" transform="scale(0.015625)"/>
      <path id="DejaVuSans-6e" d="M 3513 2113 
L 3513 0 
L 2938 0 
L 2938 2094 
Q 2938 2591 2744 2837 
Q 2550 3084 2163 3084 
Q 1697 3084 1428 2787 
Q 1159 2491 1159 1978 
L 1159 0 
L 581 0 
L 581 3500 
L 1159 3500 
L 1159 2956 
Q 1366 3272 1645 3428 
Q 1925 3584 2291 3584 
Q 2894 3584 3203 3211 
Q 3513 2838 3513 2113 
z
" transform="scale(0.015625)"/>
      <path id="DejaVuSans-65" d="M 3597 1894 
L 3597 1613 
L 953 1613 
Q 991 1019 1311 708 
Q 1631 397 2203 397 
Q 2534 397 2845 478 
Q 3156 559 3463 722 
L 3463 178 
Q 3153 47 2828 -22 
Q 2503 -91 2169 -91 
Q 1331 -91 842 396 
Q 353 884 353 1716 
Q 353 2575 817 3079 
Q 1281 3584 2069 3584 
Q 2775 3584 3186 3129 
Q 3597 2675 3597 1894 
z
M 3022 2063 
Q 3016 2534 2758 2815 
Q 2500 3097 2075 3097 
Q 1594 3097 1305 2825 
Q 1016 2553 972 2059 
L 3022 2063 
z
" transform="scale(0.015625)"/>
      <path id="DejaVuSans-72" d="M 2631 2963 
Q 2534 3019 2420 3045 
Q 2306 3072 2169 3072 
Q 1681 3072 1420 2755 
Q 1159 2438 1159 1844 
L 1159 0 
L 581 0 
L 581 3500 
L 1159 3500 
L 1159 2956 
Q 1341 3275 1631 3429 
Q 1922 3584 2338 3584 
Q 2397 3584 2469 3576 
Q 2541 3569 2628 3553 
L 2631 2963 
z
" transform="scale(0.015625)"/>
      <path id="DejaVuSans-67" d="M 2906 1791 
Q 2906 2416 2648 2759 
Q 2391 3103 1925 3103 
Q 1463 3103 1205 2759 
Q 947 2416 947 1791 
Q 947 1169 1205 825 
Q 1463 481 1925 481 
Q 2391 481 2648 825 
Q 2906 1169 2906 1791 
z
M 3481 434 
Q 3481 -459 3084 -895 
Q 2688 -1331 1869 -1331 
Q 1566 -1331 1297 -1286 
Q 1028 -1241 775 -1147 
L 775 -588 
Q 1028 -725 1275 -790 
Q 1522 -856 1778 -856 
Q 2344 -856 2625 -561 
Q 2906 -266 2906 331 
L 2906 616 
Q 2728 306 2450 153 
Q 2172 0 1784 0 
Q 1141 0 747 490 
Q 353 981 353 1791 
Q 353 2603 747 3093 
Q 1141 3584 1784 3584 
Q 2172 3584 2450 3431 
Q 2728 3278 2906 2969 
L 2906 3500 
L 3481 3500 
L 3481 434 
z
" transform="scale(0.015625)"/>
      <path id="DejaVuSans-79" d="M 2059 -325 
Q 1816 -950 1584 -1140 
Q 1353 -1331 966 -1331 
L 506 -1331 
L 506 -850 
L 844 -850 
Q 1081 -850 1212 -737 
Q 1344 -625 1503 -206 
L 1606 56 
L 191 3500 
L 800 3500 
L 1894 763 
L 2988 3500 
L 3597 3500 
L 2059 -325 
z
" transform="scale(0.015625)"/>
      <path id="DejaVuSans-20" transform="scale(0.015625)"/>
      <path id="DejaVuSans-44" d="M 1259 4147 
L 1259 519 
L 2022 519 
Q 2988 519 3436 956 
Q 3884 1394 3884 2338 
Q 3884 3275 3436 3711 
Q 2988 4147 2022 4147 
L 1259 4147 
z
M 628 4666 
L 1925 4666 
Q 3281 4666 3915 4102 
Q 4550 3538 4550 2338 
Q 4550 1131 3912 565 
Q 3275 0 1925 0 
L 628 0 
L 628 4666 
z
" transform="scale(0.015625)"/>
      <path id="DejaVuSans-63" d="M 3122 3366 
L 3122 2828 
Q 2878 2963 2633 3030 
Q 2388 3097 2138 3097 
Q 1578 3097 1268 2742 
Q 959 2388 959 1747 
Q 959 1106 1268 751 
Q 1578 397 2138 397 
Q 2388 397 2633 464 
Q 2878 531 3122 666 
L 3122 134 
Q 2881 22 2623 -34 
Q 2366 -91 2075 -91 
Q 1284 -91 818 406 
Q 353 903 353 1747 
Q 353 2603 823 3093 
Q 1294 3584 2113 3584 
Q 2378 3584 2631 3529 
Q 2884 3475 3122 3366 
z
" transform="scale(0.015625)"/>
      <path id="DejaVuSans-61" d="M 2194 1759 
Q 1497 1759 1228 1600 
Q 959 1441 959 1056 
Q 959 750 1161 570 
Q 1363 391 1709 391 
Q 2188 391 2477 730 
Q 2766 1069 2766 1631 
L 2766 1759 
L 2194 1759 
z
M 3341 1997 
L 3341 0 
L 2766 0 
L 2766 531 
Q 2569 213 2275 61 
Q 1981 -91 1556 -91 
Q 1019 -91 701 211 
Q 384 513 384 1019 
Q 384 1609 779 1909 
Q 1175 2209 1959 2209 
L 2766 2209 
L 2766 2266 
Q 2766 2663 2505 2880 
Q 2244 3097 1772 3097 
Q 1472 3097 1187 3025 
Q 903 2953 641 2809 
L 641 3341 
Q 956 3463 1253 3523 
Q 1550 3584 1831 3584 
Q 2591 3584 2966 3190 
Q 3341 2797 3341 1997 
z
" transform="scale(0.015625)"/>
      <path id="DejaVuSans-2d" d="M 313 2009 
L 1997 2009 
L 1997 1497 
L 313 1497 
L 313 2009 
z
" transform="scale(0.015625)"/>
      <path id="DejaVuSans-48" d="M 628 4666 
L 1259 4666 
L 1259 2753 
L 3553 2753 
L 3553 4666 
L 4184 4666 
L 4184 0 
L 3553 0 
L 3553 2222 
L 1259 2222 
L 1259 0 
L 628 0 
L 628 4666 
z
" transform="scale(0.015625)"/>
      <path id="DejaVuSans-7a" d="M 353 3500 
L 3084 3500 
L 3084 2975 
L 922 459 
L 3084 459 
L 3084 0 
L 275 0 
L 275 525 
L 2438 3041 
L 353 3041 
L 353 3500 
z
" transform="scale(0.015625)"/>
     </defs>
     <use xlink:href="#DejaVuSans-45"/>
     <use xlink:href="#DejaVuSans-6e" transform="translate(63.183594 0)"/>
     <use xlink:href="#DejaVuSans-65" transform="translate(126.5625 0)"/>
     <use xlink:href="#DejaVuSans-72" transform="translate(188.085938 0)"/>
     <use xlink:href="#DejaVuSans-67" transform="translate(227.449219 0)"/>
     <use xlink:href="#DejaVuSans-79" transform="translate(290.925781 0)"/>
     <use xlink:href="#DejaVuSans-20" transform="translate(350.105469 0)"/>
     <use xlink:href="#DejaVuSans-44" transform="translate(381.892578 0)"/>
     <use xlink:href="#DejaVuSans-65" transform="translate(458.894531 0)"/>
     <use xlink:href="#DejaVuSans-63" transform="translate(520.417969 0)"/>
     <use xlink:href="#DejaVuSans-61" transform="translate(575.398438 0)"/>
     <use xlink:href="#DejaVuSans-79" transform="translate(636.677734 0)"/>
     <use xlink:href="#DejaVuSans-20" transform="translate(695.857422 0)"/>
     <use xlink:href="#DejaVuSans-2d" transform="translate(727.644531 0)"/>
     <use xlink:href="#DejaVuSans-20" transform="translate(763.728516 0)"/>
     <use xlink:href="#DejaVuSans-34" transform="translate(795.515625 0)"/>
     <use xlink:href="#DejaVuSans-30" transform="translate(859.138672 0)"/>
     <use xlink:href="#DejaVuSans-30" transform="translate(922.761719 0)"/>
     <use xlink:href="#DejaVuSans-30" transform="translate(986.384766 0)"/>
     <use xlink:href="#DejaVuSans-20" transform="translate(1050.007812 0)"/>
     <use xlink:href="#DejaVuSans-48" transform="translate(1081.794922 0)"/>
     <use xlink:href="#DejaVuSans-7a" transform="translate(1156.990234 0)"/>
    </g>
   </g>
   <g id="legend_1">
    <g id="patch_7">
     <path d="M 296.968437 108.1845 
L 407.72 108.1845 
Q 409.72 108.1845 409.72 106.1845 
L 409.72 48.472 
Q 409.72 46.472 407.72 46.472 
L 296.968437 46.472 
Q 294.968437 46.472 294.968437 48.472 
L 294.968437 106.1845 
Q 294.968437 108.1845 296.968437 108.1845 
z
" style="fill: #ffffff; opacity: 0.8; stroke: #cccccc; stroke-linejoin: miter"/>
    </g>
    <g id="line2d_18">
     <path d="M 298.968437 54.570438 
L 308.968437 54.570438 
L 318.968437 54.570438 
" style="fill: none; stroke: #1f77b4; stroke-width: 1.5; stroke-linecap: square"/>
    </g>
    <g id="text_16">
     <!-- Energy -->
     <g transform="translate(326.968437 58.070438) scale(0.1 -0.1)">
      <use xlink:href="#DejaVuSans-45"/>
      <use xlink:href="#DejaVuSans-6e" transform="translate(63.183594 0)"/>
      <use xlink:href="#DejaVuSans-65" transform="translate(126.5625 0)"/>
      <use xlink:href="#DejaVuSans-72" transform="translate(188.085938 0)"/>
      <use xlink:href="#DejaVuSans-67" transform="translate(227.449219 0)"/>
      <use xlink:href="#DejaVuSans-79" transform="translate(290.925781 0)"/>
     </g>
    </g>
    <g id="line2d_19">
     <path d="M 298.968437 69.248563 
L 308.968437 69.248563 
L 318.968437 69.248563 
" style="fill: none; stroke-dasharray: 5.55,2.4; stroke-dashoffset: 0; stroke: #ff7f0e; stroke-width: 1.5"/>
    </g>
    <g id="text_17">
     <!-- Linear Fit -->
     <g transform="translate(326.968437 72.748563) scale(0.1 -0.1)">
      <defs>
       <path id="DejaVuSans-4c" d="M 628 4666 
L 1259 4666 
L 1259 531 
L 3531 531 
L 3531 0 
L 628 0 
L 628 4666 
z
" transform="scale(0.015625)"/>
       <path id="DejaVuSans-69" d="M 603 3500 
L 1178 3500 
L 1178 0 
L 603 0 
L 603 3500 
z
M 603 4863 
L 1178 4863 
L 1178 4134 
L 603 4134 
L 603 4863 
z
" transform="scale(0.015625)"/>
       <path id="DejaVuSans-46" d="M 628 4666 
L 3309 4666 
L 3309 4134 
L 1259 4134 
L 1259 2759 
L 3109 2759 
L 3109 2228 
L 1259 2228 
L 1259 0 
L 628 0 
L 628 4666 
z
" transform="scale(0.015625)"/>
       <path id="DejaVuSans-74" d="M 1172 4494 
L 1172 3500 
L 2356 3500 
L 2356 3053 
L 1172 3053 
L 1172 1153 
Q 1172 725 1289 603 
Q 1406 481 1766 481 
L 2356 481 
L 2356 0 
L 1766 0 
Q 1100 0 847 248 
Q 594 497 594 1153 
L 594 3053 
L 172 3053 
L 172 3500 
L 594 3500 
L 594 4494 
L 1172 4494 
z
" transform="scale(0.015625)"/>
      </defs>
      <use xlink:href="#DejaVuSans-4c"/>
      <use xlink:href="#DejaVuSans-69" transform="translate(55.712891 0)"/>
      <use xlink:href="#DejaVuSans-6e" transform="translate(83.496094 0)"/>
      <use xlink:href="#DejaVuSans-65" transform="translate(146.875 0)"/>
      <use xlink:href="#DejaVuSans-61" transform="translate(208.398438 0)"/>
      <use xlink:href="#DejaVuSans-72" transform="translate(269.677734 0)"/>
      <use xlink:href="#DejaVuSans-20" transform="translate(310.791016 0)"/>
      <use xlink:href="#DejaVuSans-46" transform="translate(342.578125 0)"/>
      <use xlink:href="#DejaVuSans-69" transform="translate(392.847656 0)"/>
      <use xlink:href="#DejaVuSans-74" transform="translate(420.630859 0)"/>
     </g>
    </g>
    <g id="line2d_20">
     <path d="M 298.968437 83.926688 
L 308.968437 83.926688 
L 318.968437 83.926688 
" style="fill: none; stroke-dasharray: 5.55,2.4; stroke-dashoffset: 0; stroke: #2ca02c; stroke-width: 1.5"/>
    </g>
    <g id="text_18">
     <!-- -60 dB -->
     <g transform="translate(326.968437 87.426688) scale(0.1 -0.1)">
      <defs>
       <path id="DejaVuSans-64" d="M 2906 2969 
L 2906 4863 
L 3481 4863 
L 3481 0 
L 2906 0 
L 2906 525 
Q 2725 213 2448 61 
Q 2172 -91 1784 -91 
Q 1150 -91 751 415 
Q 353 922 353 1747 
Q 353 2572 751 3078 
Q 1150 3584 1784 3584 
Q 2172 3584 2448 3432 
Q 2725 3281 2906 2969 
z
M 947 1747 
Q 947 1113 1208 752 
Q 1469 391 1925 391 
Q 2381 391 2643 752 
Q 2906 1113 2906 1747 
Q 2906 2381 2643 2742 
Q 2381 3103 1925 3103 
Q 1469 3103 1208 2742 
Q 947 2381 947 1747 
z
" transform="scale(0.015625)"/>
       <path id="DejaVuSans-42" d="M 1259 2228 
L 1259 519 
L 2272 519 
Q 2781 519 3026 730 
Q 3272 941 3272 1375 
Q 3272 1813 3026 2020 
Q 2781 2228 2272 2228 
L 1259 2228 
z
M 1259 4147 
L 1259 2741 
L 2194 2741 
Q 2656 2741 2882 2914 
Q 3109 3088 3109 3444 
Q 3109 3797 2882 3972 
Q 2656 4147 2194 4147 
L 1259 4147 
z
M 628 4666 
L 2241 4666 
Q 2963 4666 3353 4366 
Q 3744 4066 3744 3513 
Q 3744 3084 3544 2831 
Q 3344 2578 2956 2516 
Q 3422 2416 3680 2098 
Q 3938 1781 3938 1306 
Q 3938 681 3513 340 
Q 3088 0 2303 0 
L 628 0 
L 628 4666 
z
" transform="scale(0.015625)"/>
      </defs>
      <use xlink:href="#DejaVuSans-2d"/>
      <use xlink:href="#DejaVuSans-36" transform="translate(36.083984 0)"/>
      <use xlink:href="#DejaVuSans-30" transform="translate(99.707031 0)"/>
      <use xlink:href="#DejaVuSans-20" transform="translate(163.330078 0)"/>
      <use xlink:href="#DejaVuSans-64" transform="translate(195.117188 0)"/>
      <use xlink:href="#DejaVuSans-42" transform="translate(258.59375 0)"/>
     </g>
    </g>
    <g id="line2d_21">
     <path d="M 298.968437 98.604813 
L 318.968437 98.604813 
" style="fill: none; stroke-dasharray: 5.55,2.4; stroke-dashoffset: 0; stroke: #1f77b4; stroke-width: 1.5"/>
    </g>
    <g id="text_19">
     <!-- Estimated RT60 -->
     <g transform="translate(326.968437 102.104813) scale(0.1 -0.1)">
      <defs>
       <path id="DejaVuSans-73" d="M 2834 3397 
L 2834 2853 
Q 2591 2978 2328 3040 
Q 2066 3103 1784 3103 
Q 1356 3103 1142 2972 
Q 928 2841 928 2578 
Q 928 2378 1081 2264 
Q 1234 2150 1697 2047 
L 1894 2003 
Q 2506 1872 2764 1633 
Q 3022 1394 3022 966 
Q 3022 478 2636 193 
Q 2250 -91 1575 -91 
Q 1294 -91 989 -36 
Q 684 19 347 128 
L 347 722 
Q 666 556 975 473 
Q 1284 391 1588 391 
Q 1994 391 2212 530 
Q 2431 669 2431 922 
Q 2431 1156 2273 1281 
Q 2116 1406 1581 1522 
L 1381 1569 
Q 847 1681 609 1914 
Q 372 2147 372 2553 
Q 372 3047 722 3315 
Q 1072 3584 1716 3584 
Q 2034 3584 2315 3537 
Q 2597 3491 2834 3397 
z
" transform="scale(0.015625)"/>
       <path id="DejaVuSans-6d" d="M 3328 2828 
Q 3544 3216 3844 3400 
Q 4144 3584 4550 3584 
Q 5097 3584 5394 3201 
Q 5691 2819 5691 2113 
L 5691 0 
L 5113 0 
L 5113 2094 
Q 5113 2597 4934 2840 
Q 4756 3084 4391 3084 
Q 3944 3084 3684 2787 
Q 3425 2491 3425 1978 
L 3425 0 
L 2847 0 
L 2847 2094 
Q 2847 2600 2669 2842 
Q 2491 3084 2119 3084 
Q 1678 3084 1418 2786 
Q 1159 2488 1159 1978 
L 1159 0 
L 581 0 
L 581 3500 
L 1159 3500 
L 1159 2956 
Q 1356 3278 1631 3431 
Q 1906 3584 2284 3584 
Q 2666 3584 2933 3390 
Q 3200 3197 3328 2828 
z
" transform="scale(0.015625)"/>
       <path id="DejaVuSans-52" d="M 2841 2188 
Q 3044 2119 3236 1894 
Q 3428 1669 3622 1275 
L 4263 0 
L 3584 0 
L 2988 1197 
Q 2756 1666 2539 1819 
Q 2322 1972 1947 1972 
L 1259 1972 
L 1259 0 
L 628 0 
L 628 4666 
L 2053 4666 
Q 2853 4666 3247 4331 
Q 3641 3997 3641 3322 
Q 3641 2881 3436 2590 
Q 3231 2300 2841 2188 
z
M 1259 4147 
L 1259 2491 
L 2053 2491 
Q 2509 2491 2742 2702 
Q 2975 2913 2975 3322 
Q 2975 3731 2742 3939 
Q 2509 4147 2053 4147 
L 1259 4147 
z
" transform="scale(0.015625)"/>
       <path id="DejaVuSans-54" d="M -19 4666 
L 3928 4666 
L 3928 4134 
L 2272 4134 
L 2272 0 
L 1638 0 
L 1638 4134 
L -19 4134 
L -19 4666 
z
" transform="scale(0.015625)"/>
      </defs>
      <use xlink:href="#DejaVuSans-45"/>
      <use xlink:href="#DejaVuSans-73" transform="translate(63.183594 0)"/>
      <use xlink:href="#DejaVuSans-74" transform="translate(115.283203 0)"/>
      <use xlink:href="#DejaVuSans-69" transform="translate(154.492188 0)"/>
      <use xlink:href="#DejaVuSans-6d" transform="translate(182.275391 0)"/>
      <use xlink:href="#DejaVuSans-61" transform="translate(279.6875 0)"/>
      <use xlink:href="#DejaVuSans-74" transform="translate(340.966797 0)"/>
      <use xlink:href="#DejaVuSans-65" transform="translate(380.175781 0)"/>
      <use xlink:href="#DejaVuSans-64" transform="translate(441.699219 0)"/>
      <use xlink:href="#DejaVuSans-20" transform="translate(505.175781 0)"/>
      <use xlink:href="#DejaVuSans-52" transform="translate(536.962891 0)"/>
      <use xlink:href="#DejaVuSans-54" transform="translate(599.195312 0)"/>
      <use xlink:href="#DejaVuSans-36" transform="translate(660.279297 0)"/>
      <use xlink:href="#DejaVuSans-30" transform="translate(723.902344 0)"/>
     </g>
    </g>
   </g>
  </g>
 </g>
 <defs>
  <clipPath id="p364b90cd62">
   <rect x="57.6" y="41.472" width="357.12" height="266.112"/>
  </clipPath>
 </defs>
</svg>
