<?xml version="1.0" encoding="utf-8" standalone="no"?>
<!DOCTYPE svg PUBLIC "-//W3C//DTD SVG 1.1//EN"
  "http://www.w3.org/Graphics/SVG/1.1/DTD/svg11.dtd">
<svg xmlns:xlink="http://www.w3.org/1999/xlink" width="460.8pt" height="345.6pt" viewBox="0 0 460.8 345.6" xmlns="http://www.w3.org/2000/svg" version="1.1">
 <metadata>
  <rdf:RDF xmlns:dc="http://purl.org/dc/elements/1.1/" xmlns:cc="http://creativecommons.org/ns#" xmlns:rdf="http://www.w3.org/1999/02/22-rdf-syntax-ns#">
   <cc:Work>
    <dc:type rdf:resource="http://purl.org/dc/dcmitype/StillImage"/>
    <dc:date>2025-05-07T10:07:54.149591</dc:date>
    <dc:format>image/svg+xml</dc:format>
    <dc:creator>
     <cc:Agent>
      <dc:title>Matplotlib v3.10.1, https://matplotlib.org/</dc:title>
     </cc:Agent>
    </dc:creator>
   </cc:Work>
  </rdf:RDF>
 </metadata>
 <defs>
  <style type="text/css">*{stroke-linejoin: round; stroke-linecap: butt}</style>
 </defs>
 <g id="figure_1">
  <g id="patch_1">
   <path d="M 0 345.6 
L 460.8 345.6 
L 460.8 0 
L 0 0 
z
" style="fill: #ffffff"/>
  </g>
  <g id="axes_1">
   <g id="patch_2">
    <path d="M 57.6 307.584 
L 414.72 307.584 
L 414.72 41.472 
L 57.6 41.472 
z
" style="fill: #ffffff"/>
   </g>
   <g id="matplotlib.axis_1">
    <g id="xtick_1">
     <g id="line2d_1">
      <defs>
       <path id="mc7a70c1ab3" d="M 0 0 
L 0 3.5 
" style="stroke: #000000; stroke-width: 0.8"/>
      </defs>
      <g>
       <use xlink:href="#mc7a70c1ab3" x="68.211394" y="307.584" style="stroke: #000000; stroke-width: 0.8"/>
      </g>
     </g>
     <g id="text_1">
      <!-- −0.2 -->
      <g transform="translate(56.069988 322.182437) scale(0.1 -0.1)">
       <defs>
        <path id="DejaVuSans-2212" d="M 678 2272 
L 4684 2272 
L 4684 1741 
L 678 1741 
L 678 2272 
z
" transform="scale(0.015625)"/>
        <path id="DejaVuSans-30" d="M 2034 4250 
Q 1547 4250 1301 3770 
Q 1056 3291 1056 2328 
Q 1056 1369 1301 889 
Q 1547 409 2034 409 
Q 2525 409 2770 889 
Q 3016 1369 3016 2328 
Q 3016 3291 2770 3770 
Q 2525 4250 2034 4250 
z
M 2034 4750 
Q 2819 4750 3233 4129 
Q 3647 3509 3647 2328 
Q 3647 1150 3233 529 
Q 2819 -91 2034 -91 
Q 1250 -91 836 529 
Q 422 1150 422 2328 
Q 422 3509 836 4129 
Q 1250 4750 2034 4750 
z
" transform="scale(0.015625)"/>
        <path id="DejaVuSans-2e" d="M 684 794 
L 1344 794 
L 1344 0 
L 684 0 
L 684 794 
z
" transform="scale(0.015625)"/>
        <path id="DejaVuSans-32" d="M 1228 531 
L 3431 531 
L 3431 0 
L 469 0 
L 469 531 
Q 828 903 1448 1529 
Q 2069 2156 2228 2338 
Q 2531 2678 2651 2914 
Q 2772 3150 2772 3378 
Q 2772 3750 2511 3984 
Q 2250 4219 1831 4219 
Q 1534 4219 1204 4116 
Q 875 4013 500 3803 
L 500 4441 
Q 881 4594 1212 4672 
Q 1544 4750 1819 4750 
Q 2544 4750 2975 4387 
Q 3406 4025 3406 3419 
Q 3406 3131 3298 2873 
Q 3191 2616 2906 2266 
Q 2828 2175 2409 1742 
Q 1991 1309 1228 531 
z
" transform="scale(0.015625)"/>
       </defs>
       <use xlink:href="#DejaVuSans-2212"/>
       <use xlink:href="#DejaVuSans-30" transform="translate(83.789062 0)"/>
       <use xlink:href="#DejaVuSans-2e" transform="translate(147.412109 0)"/>
       <use xlink:href="#DejaVuSans-32" transform="translate(179.199219 0)"/>
      </g>
     </g>
    </g>
    <g id="xtick_2">
     <g id="line2d_2">
      <g>
       <use xlink:href="#mc7a70c1ab3" x="140.356848" y="307.584" style="stroke: #000000; stroke-width: 0.8"/>
      </g>
     </g>
     <g id="text_2">
      <!-- 0.0 -->
      <g transform="translate(132.405286 322.182437) scale(0.1 -0.1)">
       <use xlink:href="#DejaVuSans-30"/>
       <use xlink:href="#DejaVuSans-2e" transform="translate(63.623047 0)"/>
       <use xlink:href="#DejaVuSans-30" transform="translate(95.410156 0)"/>
      </g>
     </g>
    </g>
    <g id="xtick_3">
     <g id="line2d_3">
      <g>
       <use xlink:href="#mc7a70c1ab3" x="212.502303" y="307.584" style="stroke: #000000; stroke-width: 0.8"/>
      </g>
     </g>
     <g id="text_3">
      <!-- 0.2 -->
      <g transform="translate(204.550741 322.182437) scale(0.1 -0.1)">
       <use xlink:href="#DejaVuSans-30"/>
       <use xlink:href="#DejaVuSans-2e" transform="translate(63.623047 0)"/>
       <use xlink:href="#DejaVuSans-32" transform="translate(95.410156 0)"/>
      </g>
     </g>
    </g>
    <g id="xtick_4">
     <g id="line2d_4">
      <g>
       <use xlink:href="#mc7a70c1ab3" x="284.647758" y="307.584" style="stroke: #000000; stroke-width: 0.8"/>
      </g>
     </g>
     <g id="text_4">
      <!-- 0.4 -->
      <g transform="translate(276.696195 322.182437) scale(0.1 -0.1)">
       <defs>
        <path id="DejaVuSans-34" d="M 2419 4116 
L 825 1625 
L 2419 1625 
L 2419 4116 
z
M 2253 4666 
L 3047 4666 
L 3047 1625 
L 3713 1625 
L 3713 1100 
L 3047 1100 
L 3047 0 
L 2419 0 
L 2419 1100 
L 313 1100 
L 313 1709 
L 2253 4666 
z
" transform="scale(0.015625)"/>
       </defs>
       <use xlink:href="#DejaVuSans-30"/>
       <use xlink:href="#DejaVuSans-2e" transform="translate(63.623047 0)"/>
       <use xlink:href="#DejaVuSans-34" transform="translate(95.410156 0)"/>
      </g>
     </g>
    </g>
    <g id="xtick_5">
     <g id="line2d_5">
      <g>
       <use xlink:href="#mc7a70c1ab3" x="356.793212" y="307.584" style="stroke: #000000; stroke-width: 0.8"/>
      </g>
     </g>
     <g id="text_5">
      <!-- 0.6 -->
      <g transform="translate(348.84165 322.182437) scale(0.1 -0.1)">
       <defs>
        <path id="DejaVuSans-36" d="M 2113 2584 
Q 1688 2584 1439 2293 
Q 1191 2003 1191 1497 
Q 1191 994 1439 701 
Q 1688 409 2113 409 
Q 2538 409 2786 701 
Q 3034 994 3034 1497 
Q 3034 2003 2786 2293 
Q 2538 2584 2113 2584 
z
M 3366 4563 
L 3366 3988 
Q 3128 4100 2886 4159 
Q 2644 4219 2406 4219 
Q 1781 4219 1451 3797 
Q 1122 3375 1075 2522 
Q 1259 2794 1537 2939 
Q 1816 3084 2150 3084 
Q 2853 3084 3261 2657 
Q 3669 2231 3669 1497 
Q 3669 778 3244 343 
Q 2819 -91 2113 -91 
Q 1303 -91 875 529 
Q 447 1150 447 2328 
Q 447 3434 972 4092 
Q 1497 4750 2381 4750 
Q 2619 4750 2861 4703 
Q 3103 4656 3366 4563 
z
" transform="scale(0.015625)"/>
       </defs>
       <use xlink:href="#DejaVuSans-30"/>
       <use xlink:href="#DejaVuSans-2e" transform="translate(63.623047 0)"/>
       <use xlink:href="#DejaVuSans-36" transform="translate(95.410156 0)"/>
      </g>
     </g>
    </g>
   </g>
   <g id="matplotlib.axis_2">
    <g id="ytick_1">
     <g id="line2d_6">
      <defs>
       <path id="m9a3719a4d5" d="M 0 0 
L -3.5 0 
" style="stroke: #000000; stroke-width: 0.8"/>
      </defs>
      <g>
       <use xlink:href="#m9a3719a4d5" x="57.6" y="300.564483" style="stroke: #000000; stroke-width: 0.8"/>
      </g>
     </g>
     <g id="text_6">
      <!-- −160 -->
      <g transform="translate(23.132812 304.363702) scale(0.1 -0.1)">
       <defs>
        <path id="DejaVuSans-31" d="M 794 531 
L 1825 531 
L 1825 4091 
L 703 3866 
L 703 4441 
L 1819 4666 
L 2450 4666 
L 2450 531 
L 3481 531 
L 3481 0 
L 794 0 
L 794 531 
z
" transform="scale(0.015625)"/>
       </defs>
       <use xlink:href="#DejaVuSans-2212"/>
       <use xlink:href="#DejaVuSans-31" transform="translate(83.789062 0)"/>
       <use xlink:href="#DejaVuSans-36" transform="translate(147.412109 0)"/>
       <use xlink:href="#DejaVuSans-30" transform="translate(211.035156 0)"/>
      </g>
     </g>
    </g>
    <g id="ytick_2">
     <g id="line2d_7">
      <g>
       <use xlink:href="#m9a3719a4d5" x="57.6" y="269.689923" style="stroke: #000000; stroke-width: 0.8"/>
      </g>
     </g>
     <g id="text_7">
      <!-- −140 -->
      <g transform="translate(23.132812 273.489141) scale(0.1 -0.1)">
       <use xlink:href="#DejaVuSans-2212"/>
       <use xlink:href="#DejaVuSans-31" transform="translate(83.789062 0)"/>
       <use xlink:href="#DejaVuSans-34" transform="translate(147.412109 0)"/>
       <use xlink:href="#DejaVuSans-30" transform="translate(211.035156 0)"/>
      </g>
     </g>
    </g>
    <g id="ytick_3">
     <g id="line2d_8">
      <g>
       <use xlink:href="#m9a3719a4d5" x="57.6" y="238.815362" style="stroke: #000000; stroke-width: 0.8"/>
      </g>
     </g>
     <g id="text_8">
      <!-- −120 -->
      <g transform="translate(23.132812 242.614581) scale(0.1 -0.1)">
       <use xlink:href="#DejaVuSans-2212"/>
       <use xlink:href="#DejaVuSans-31" transform="translate(83.789062 0)"/>
       <use xlink:href="#DejaVuSans-32" transform="translate(147.412109 0)"/>
       <use xlink:href="#DejaVuSans-30" transform="translate(211.035156 0)"/>
      </g>
     </g>
    </g>
    <g id="ytick_4">
     <g id="line2d_9">
      <g>
       <use xlink:href="#m9a3719a4d5" x="57.6" y="207.940802" style="stroke: #000000; stroke-width: 0.8"/>
      </g>
     </g>
     <g id="text_9">
      <!-- −100 -->
      <g transform="translate(23.132812 211.740021) scale(0.1 -0.1)">
       <use xlink:href="#DejaVuSans-2212"/>
       <use xlink:href="#DejaVuSans-31" transform="translate(83.789062 0)"/>
       <use xlink:href="#DejaVuSans-30" transform="translate(147.412109 0)"/>
       <use xlink:href="#DejaVuSans-30" transform="translate(211.035156 0)"/>
      </g>
     </g>
    </g>
    <g id="ytick_5">
     <g id="line2d_10">
      <g>
       <use xlink:href="#m9a3719a4d5" x="57.6" y="177.066242" style="stroke: #000000; stroke-width: 0.8"/>
      </g>
     </g>
     <g id="text_10">
      <!-- −80 -->
      <g transform="translate(29.495313 180.86546) scale(0.1 -0.1)">
       <defs>
        <path id="DejaVuSans-38" d="M 2034 2216 
Q 1584 2216 1326 1975 
Q 1069 1734 1069 1313 
Q 1069 891 1326 650 
Q 1584 409 2034 409 
Q 2484 409 2743 651 
Q 3003 894 3003 1313 
Q 3003 1734 2745 1975 
Q 2488 2216 2034 2216 
z
M 1403 2484 
Q 997 2584 770 2862 
Q 544 3141 544 3541 
Q 544 4100 942 4425 
Q 1341 4750 2034 4750 
Q 2731 4750 3128 4425 
Q 3525 4100 3525 3541 
Q 3525 3141 3298 2862 
Q 3072 2584 2669 2484 
Q 3125 2378 3379 2068 
Q 3634 1759 3634 1313 
Q 3634 634 3220 271 
Q 2806 -91 2034 -91 
Q 1263 -91 848 271 
Q 434 634 434 1313 
Q 434 1759 690 2068 
Q 947 2378 1403 2484 
z
M 1172 3481 
Q 1172 3119 1398 2916 
Q 1625 2713 2034 2713 
Q 2441 2713 2670 2916 
Q 2900 3119 2900 3481 
Q 2900 3844 2670 4047 
Q 2441 4250 2034 4250 
Q 1625 4250 1398 4047 
Q 1172 3844 1172 3481 
z
" transform="scale(0.015625)"/>
       </defs>
       <use xlink:href="#DejaVuSans-2212"/>
       <use xlink:href="#DejaVuSans-38" transform="translate(83.789062 0)"/>
       <use xlink:href="#DejaVuSans-30" transform="translate(147.412109 0)"/>
      </g>
     </g>
    </g>
    <g id="ytick_6">
     <g id="line2d_11">
      <g>
       <use xlink:href="#m9a3719a4d5" x="57.6" y="146.191681" style="stroke: #000000; stroke-width: 0.8"/>
      </g>
     </g>
     <g id="text_11">
      <!-- −60 -->
      <g transform="translate(29.495313 149.9909) scale(0.1 -0.1)">
       <use xlink:href="#DejaVuSans-2212"/>
       <use xlink:href="#DejaVuSans-36" transform="translate(83.789062 0)"/>
       <use xlink:href="#DejaVuSans-30" transform="translate(147.412109 0)"/>
      </g>
     </g>
    </g>
    <g id="ytick_7">
     <g id="line2d_12">
      <g>
       <use xlink:href="#m9a3719a4d5" x="57.6" y="115.317121" style="stroke: #000000; stroke-width: 0.8"/>
      </g>
     </g>
     <g id="text_12">
      <!-- −40 -->
      <g transform="translate(29.495313 119.11634) scale(0.1 -0.1)">
       <use xlink:href="#DejaVuSans-2212"/>
       <use xlink:href="#DejaVuSans-34" transform="translate(83.789062 0)"/>
       <use xlink:href="#DejaVuSans-30" transform="translate(147.412109 0)"/>
      </g>
     </g>
    </g>
    <g id="ytick_8">
     <g id="line2d_13">
      <g>
       <use xlink:href="#m9a3719a4d5" x="57.6" y="84.44256" style="stroke: #000000; stroke-width: 0.8"/>
      </g>
     </g>
     <g id="text_13">
      <!-- −20 -->
      <g transform="translate(29.495313 88.241779) scale(0.1 -0.1)">
       <use xlink:href="#DejaVuSans-2212"/>
       <use xlink:href="#DejaVuSans-32" transform="translate(83.789062 0)"/>
       <use xlink:href="#DejaVuSans-30" transform="translate(147.412109 0)"/>
      </g>
     </g>
    </g>
    <g id="ytick_9">
     <g id="line2d_14">
      <g>
       <use xlink:href="#m9a3719a4d5" x="57.6" y="53.568" style="stroke: #000000; stroke-width: 0.8"/>
      </g>
     </g>
     <g id="text_14">
      <!-- 0 -->
      <g transform="translate(44.2375 57.367219) scale(0.1 -0.1)">
       <use xlink:href="#DejaVuSans-30"/>
      </g>
     </g>
    </g>
   </g>
   <g id="line2d_15">
    <path d="M 73.832727 53.568 
L 132.721455 53.677595 
L 133.127273 54.675617 
L 133.578182 54.759752 
L 133.908848 54.880105 
L 134.201939 55.114316 
L 134.510061 55.37825 
L 134.983515 56.665901 
L 135.299152 56.770342 
L 135.599758 56.966345 
L 136.035636 57.495992 
L 136.298667 57.603405 
L 136.591758 57.71954 
L 136.832242 58.057355 
L 137.012606 58.273068 
L 137.380848 58.295521 
L 137.952 58.404856 
L 138.147394 58.529236 
L 138.395394 58.756 
L 138.628364 59.169112 
L 138.733576 59.294284 
L 139.45503 60.118128 
L 139.988606 60.257369 
L 140.477091 61.415847 
L 140.66497 61.550258 
L 140.920485 62.04354 
L 141.153455 62.196974 
L 141.454061 62.806277 
L 142.228121 63.856944 
L 142.536242 63.961795 
L 142.769212 64.058262 
L 143.024727 64.168208 
L 144.4 64.519403 
L 144.753212 64.640728 
L 145.001212 64.820746 
L 145.557333 65.0263 
L 145.752727 65.109999 
L 146.353939 65.493306 
L 146.632 65.893129 
L 146.89503 65.999689 
L 147.308364 66.12478 
L 148.142545 66.40889 
L 148.255273 66.543463 
L 148.788848 67.029601 
L 150.532364 67.453945 
L 150.780364 67.54909 
L 151.231273 67.733922 
L 151.531879 67.939979 
L 151.817455 67.980197 
L 152.553939 68.090802 
L 152.884606 68.157403 
L 153.155152 68.258028 
L 153.83903 69.149189 
L 154.598061 69.411136 
L 154.936242 69.655853 
L 155.29697 69.775943 
L 155.755394 70.128065 
L 155.905697 70.240854 
L 157.220848 71.651831 
L 157.55903 71.96623 
L 157.80703 72.221174 
L 158.02497 72.248032 
L 158.671273 72.400119 
L 158.971879 72.594004 
L 159.287515 72.705187 
L 159.362667 72.837845 
L 159.806061 73.858646 
L 160.354667 74.105253 
L 160.925818 74.21545 
L 161.361697 74.392943 
L 161.782545 74.786517 
L 162.188364 75.050937 
L 162.361212 75.226638 
L 162.616727 75.289682 
L 162.819636 75.393804 
L 163.112727 75.575528 
L 163.683879 75.687342 
L 164.00703 75.91496 
L 164.307636 76.054007 
L 165.389818 76.705666 
L 165.630303 77.03302 
L 167.629333 78.514805 
L 168.320727 78.720341 
L 168.666424 78.938689 
L 168.891879 79.138561 
L 169.064727 79.275653 
L 169.320242 79.796876 
L 169.703515 79.91976 
L 170.116848 80.154377 
L 170.492606 80.555047 
L 170.898424 80.680717 
L 171.184 81.48739 
L 171.371879 82.073174 
L 171.537212 82.162796 
L 171.725091 82.266829 
L 171.988121 82.503679 
L 172.732121 82.711465 
L 173.025212 82.790657 
L 173.40097 82.912201 
L 173.844364 83.305709 
L 173.934545 83.42063 
L 174.190061 83.856148 
L 174.310303 84.040284 
L 174.483152 84.284721 
L 174.701091 84.344733 
L 174.986667 84.606384 
L 175.159515 84.667884 
L 175.354909 84.772618 
L 175.648 85.05125 
L 175.745697 85.147938 
L 176.008727 85.569426 
L 177.038303 86.167834 
L 177.301333 86.836819 
L 177.722182 87.654277 
L 178.022788 87.76089 
L 178.285818 87.914123 
L 178.518788 88.018328 
L 178.872 88.358288 
L 179.533333 88.589421 
L 179.728727 88.662112 
L 180.34497 88.779162 
L 180.848485 88.868725 
L 181.209212 89.012685 
L 182.832485 89.928797 
L 183.238303 90.067967 
L 183.523879 90.397313 
L 184.711273 91.052087 
L 184.899152 91.19787 
L 185.252364 91.751202 
L 185.32 91.850896 
L 185.560485 92.293624 
L 185.628121 92.394549 
L 185.83103 92.649648 
L 187.123636 93.132193 
L 187.860121 93.268518 
L 188.258424 93.708641 
L 188.498909 93.934406 
L 189.573576 94.422133 
L 190.174788 95.265952 
L 190.422788 95.410447 
L 190.648242 95.670361 
L 191.00897 95.863718 
L 191.076606 95.9794 
L 191.294545 96.311146 
L 191.805576 96.535498 
L 191.955879 96.695558 
L 192.466909 97.371219 
L 192.887758 97.492953 
L 193.308606 97.851099 
L 193.661818 97.92721 
L 194.172848 98.218068 
L 194.488485 98.649146 
L 194.706424 98.71953 
L 194.909333 98.841914 
L 195.149818 99.01476 
L 196.164364 99.974576 
L 196.359758 100.131403 
L 196.585212 100.283667 
L 197.584727 100.609378 
L 198.366303 101.171148 
L 198.576727 101.331603 
L 198.772121 101.390556 
L 199.425939 101.59074 
L 199.884364 102.163221 
L 200.861333 102.664347 
L 201.064242 102.808401 
L 202.138909 103.162239 
L 202.394424 103.243918 
L 202.770182 103.357707 
L 203.341333 103.70588 
L 203.709576 103.75769 
L 203.987636 103.865933 
L 204.453576 104.183758 
L 204.934545 104.311563 
L 205.235152 104.401603 
L 205.490667 104.528949 
L 205.746182 105.030341 
L 205.979152 105.930307 
L 206.63297 106.148868 
L 206.926061 106.780223 
L 207.12897 107.081383 
L 207.602424 107.60869 
L 208.361455 107.746725 
L 208.451636 107.994951 
L 209.165576 109.122081 
L 209.60897 109.239219 
L 210.638545 110.081777 
L 211.014303 110.207935 
L 211.337455 110.404399 
L 211.525333 110.578278 
L 211.758303 110.730112 
L 212.983273 111.199159 
L 213.426667 111.666556 
L 213.509333 111.766392 
L 213.689697 111.952792 
L 214.185697 112.261021 
L 214.56897 112.373435 
L 214.786909 112.75631 
L 214.922182 113.130028 
L 215.245333 113.614438 
L 216.102061 113.729029 
L 217.838061 114.206547 
L 218.552 114.908515 
L 218.972848 115.048783 
L 219.250909 115.110587 
L 219.859636 115.21835 
L 220.445818 115.856949 
L 221.633212 116.011635 
L 222.031515 116.135769 
L 222.347152 116.247071 
L 223.226424 116.8783 
L 223.451879 117.09801 
L 223.865212 117.215131 
L 224.601697 117.427372 
L 225.360727 117.569251 
L 225.774061 117.826259 
L 226.089697 117.940098 
L 226.397818 118.869927 
L 226.570667 119.341389 
L 227.487515 120.423574 
L 229.028121 120.788188 
L 229.787152 120.905172 
L 230.350788 121.169027 
L 230.71903 121.280721 
L 230.929455 121.344594 
L 231.733576 121.464231 
L 232.192 121.771478 
L 232.364848 121.85675 
L 232.650424 121.961612 
L 232.853333 122.048981 
L 233.319273 122.160653 
L 233.702545 122.328413 
L 234.19103 122.665601 
L 234.874909 122.876789 
L 235.363394 123.493208 
L 235.934545 123.636354 
L 236.362909 123.744353 
L 237.219636 124.699121 
L 237.678061 124.807596 
L 237.941091 125.050892 
L 238.670061 125.237832 
L 238.90303 125.410205 
L 239.203636 125.782067 
L 239.609455 126.115861 
L 239.677091 126.215178 
L 239.89503 126.548895 
L 240.218182 126.670106 
L 240.789333 127.119498 
L 241.022303 127.261532 
L 241.292848 127.397541 
L 242.397576 128.081956 
L 242.968727 128.17687 
L 243.201697 128.292081 
L 244.193697 128.818688 
L 245.005333 128.962587 
L 245.373576 129.442468 
L 245.538909 129.684995 
L 245.929697 130.637482 
L 246.388121 130.77883 
L 246.628606 130.953501 
L 246.959273 131.431971 
L 247.162182 131.508675 
L 247.613091 131.735104 
L 249.093576 131.998573 
L 249.905212 132.111585 
L 250.822061 132.67613 
L 253.332121 133.029108 
L 254.068606 133.189871 
L 255.549091 133.767722 
L 255.759515 133.849161 
L 256.548606 134.125702 
L 256.841697 134.698316 
L 257.134788 134.924947 
L 257.427879 135.218794 
L 257.645818 135.340764 
L 258.457455 135.50473 
L 258.818182 135.704337 
L 259.351758 135.989188 
L 259.554667 136.16527 
L 259.990545 136.372581 
L 260.494061 137.206598 
L 260.576727 137.306505 
L 260.764606 137.48067 
L 261.283152 137.769422 
L 261.651394 137.874482 
L 262.169939 138.169955 
L 263.267152 138.279815 
L 263.590303 138.314421 
L 264.011152 138.423899 
L 264.289212 138.452113 
L 265.138424 138.602293 
L 265.619394 138.9003 
L 266.122909 139.039413 
L 266.701576 139.46075 
L 267.325333 139.59832 
L 267.949091 139.779018 
L 268.182061 139.801898 
L 268.88097 139.913062 
L 269.384485 140.001553 
L 269.985697 140.119081 
L 270.293818 140.196316 
L 270.64703 140.328751 
L 271.015273 140.425975 
L 271.932121 140.673382 
L 272.202667 140.828926 
L 273.224727 140.964286 
L 273.555394 141.048346 
L 273.743273 141.196443 
L 273.931152 141.315949 
L 274.306909 141.343955 
L 275.178667 141.508111 
L 275.599515 141.664911 
L 276.546424 141.865694 
L 277.433212 142.093055 
L 277.733818 142.278465 
L 278.492848 142.524145 
L 278.785939 142.668433 
L 279.018909 142.71873 
L 282.836606 143.008664 
L 283.062061 143.071925 
L 284.640242 143.19689 
L 285.173818 143.331286 
L 285.421818 143.451236 
L 285.729939 143.599762 
L 290.163879 144.573131 
L 291.877333 144.685613 
L 293.177455 144.854213 
L 295.41697 145.238094 
L 295.642424 145.389303 
L 299.144485 145.699597 
L 299.820848 145.827844 
L 300.053818 145.911502 
L 301.962667 146.179974 
L 302.308364 146.370307 
L 302.60897 146.404516 
L 303.833939 146.55032 
L 304.502788 146.583172 
L 305.660121 146.692653 
L 306.005818 146.857122 
L 307.403636 147.159513 
L 307.584 147.253702 
L 308.824 147.508121 
L 310.905697 147.621116 
L 311.762424 147.839914 
L 317.699394 148.465397 
L 318 148.570738 
L 319.841212 148.794525 
L 322.907394 149.226579 
L 328.205576 149.698701 
L 329.039758 149.935121 
L 330.835879 150.107947 
L 331.482182 150.204447 
L 332.015758 150.343983 
L 332.331394 150.404201 
L 334.195152 150.526724 
L 334.803879 150.683928 
L 335.698182 150.809693 
L 337.344 151.000349 
L 338.914667 151.118434 
L 339.275394 151.285066 
L 339.485818 151.389628 
L 339.854061 151.685161 
L 340.410182 151.797832 
L 341.101576 151.937992 
L 342.627152 152.11908 
L 343.03297 152.168694 
L 344.092606 152.30738 
L 345.069576 152.62252 
L 346.467394 153.193933 
L 346.677818 153.327464 
L 347.181333 153.602053 
L 347.376727 153.76592 
L 347.752485 153.943703 
L 348.421333 154.509821 
L 349.23297 154.645438 
L 349.563636 155.001928 
L 349.744 155.193022 
L 349.946909 155.242069 
L 350.22497 155.356068 
L 350.457939 155.45254 
L 351.24703 155.563356 
L 351.622788 155.580562 
L 352.201455 155.685721 
L 352.411879 155.7709 
L 354.989576 156.186469 
L 355.553212 156.291464 
L 356.004121 156.401318 
L 357.093818 156.922155 
L 357.296727 157.00997 
L 358.19103 157.228453 
L 360.535758 157.858417 
L 360.934061 158.348189 
L 361.302303 158.477865 
L 361.625455 158.594978 
L 361.850909 158.753577 
L 362.113939 159.115918 
L 362.286788 159.285362 
L 362.782788 159.582143 
L 362.993212 159.661734 
L 363.624485 159.770522 
L 364.075394 160.004771 
L 364.383515 160.114125 
L 364.879515 160.3998 
L 365.292848 160.549399 
L 365.525818 160.654497 
L 365.909091 160.840133 
L 366.292364 161.023562 
L 366.502788 161.135865 
L 367.457212 161.546151 
L 367.727758 161.699922 
L 367.840485 161.800667 
L 368.118545 162.019666 
L 369.674182 163.520451 
L 369.877091 163.687994 
L 370.463273 163.840678 
L 371.673212 164.193912 
L 371.861091 164.350473 
L 373.221333 165.08344 
L 373.544485 165.559757 
L 373.792485 165.667952 
L 373.980364 165.775253 
L 374.273455 166.305192 
L 374.611636 167.712964 
L 374.679273 167.843213 
L 374.889697 168.473132 
L 374.957333 168.585661 
L 375.190303 169.125117 
L 375.27297 169.232799 
L 375.438303 169.314264 
L 376.836121 169.75437 
L 377.437333 171.313064 
L 377.482424 171.451404 
L 377.722909 172.221745 
L 377.805576 172.608216 
L 378.046061 173.395665 
L 378.271515 174.412213 
L 378.49697 174.773561 
L 378.805091 175.208832 
L 378.977939 175.396015 
L 379.263515 175.426028 
L 379.383758 175.533999 
L 379.939879 176.133507 
L 380.443394 176.357753 
L 380.51103 176.565846 
L 380.781576 177.124382 
L 380.961939 177.278676 
L 381.052121 177.381918 
L 381.412848 178.006256 
L 381.788606 178.169559 
L 382.059152 178.541851 
L 382.277091 178.796668 
L 382.915879 179.94224 
L 383.216485 181.675959 
L 383.922909 184.930891 
L 384.103273 185.008533 
L 384.373818 185.21925 
L 384.621818 185.789016 
L 384.69697 185.912272 
L 384.877333 186.092333 
L 385.335758 186.76521 
L 385.666424 188.775315 
L 385.899394 189.21751 
L 386.034667 189.310841 
L 386.380364 189.868482 
L 386.68097 190.151933 
L 387.154424 192.33755 
L 387.252121 192.521859 
L 387.432485 192.732346 
L 387.725576 192.843135 
L 387.823273 193.062863 
L 388.176485 193.957411 
L 388.341818 194.254803 
L 388.69503 195.09882 
L 388.920485 195.865951 
L 389.093333 195.963182 
L 389.228606 196.0552 
L 389.401455 197.149838 
L 389.611879 198.643496 
L 389.747152 198.720671 
L 390.107879 198.86753 
L 390.168 199.027944 
L 390.543758 201.275841 
L 390.761697 203.649549 
L 390.89697 203.728305 
L 391.002182 203.838942 
L 391.220121 204.304619 
L 391.362909 204.415854 
L 391.558303 205.778128 
L 392.204606 213.532816 
L 392.377455 213.608814 
L 392.708121 213.767564 
L 393.046303 214.332194 
L 393.444606 214.620942 
L 393.722667 215.380769 
L 393.782788 215.542952 
L 394.083394 217.37484 
L 394.346424 221.656958 
L 394.384 221.822568 
L 394.654545 223.639836 
L 394.699636 223.820685 
L 395.819394 233.731776 
L 396.330424 251.083148 
L 396.488242 254.120885 
L 396.623515 254.215788 
L 396.713697 254.384198 
L 396.984242 255.258117 
L 397.036848 255.409354 
L 397.254788 257.786307 
L 397.510303 262.22988 
L 397.638061 262.308905 
L 397.705697 262.458941 
L 397.84097 263.458805 
L 398.36703 286.439047 
L 398.479758 295.488 
L 398.479758 295.488 
" clip-path="url(#p7ac291793a)" style="fill: none; stroke: #1f77b4; stroke-width: 1.5; stroke-linecap: square"/>
   </g>
   <g id="line2d_16">
    <path d="M 140.356848 61.313602 
L 347.729939 153.910321 
" clip-path="url(#p7ac291793a)" style="fill: none; stroke-dasharray: 5.55,2.4; stroke-dashoffset: 0; stroke: #ff7f0e; stroke-width: 1.5"/>
   </g>
   <g id="line2d_17">
    <path d="M 73.832727 146.191681 
L 398.487273 146.191681 
L 398.487273 146.191681 
" clip-path="url(#p7ac291793a)" style="fill: none; stroke-dasharray: 5.55,2.4; stroke-dashoffset: 0; stroke: #2ca02c; stroke-width: 1.5"/>
   </g>
   <g id="LineCollection_1">
    <path d="M 347.729939 295.488 
L 347.729939 53.568 
" clip-path="url(#p7ac291793a)" style="fill: none; stroke-dasharray: 5.55,2.4; stroke-dashoffset: 0; stroke: #1f77b4; stroke-width: 1.5"/>
   </g>
   <g id="patch_3">
    <path d="M 57.6 307.584 
L 57.6 41.472 
" style="fill: none; stroke: #000000; stroke-width: 0.8; stroke-linejoin: miter; stroke-linecap: square"/>
   </g>
   <g id="patch_4">
    <path d="M 414.72 307.584 
L 414.72 41.472 
" style="fill: none; stroke: #000000; stroke-width: 0.8; stroke-linejoin: miter; stroke-linecap: square"/>
   </g>
   <g id="patch_5">
    <path d="M 57.6 307.584 
L 414.72 307.584 
" style="fill: none; stroke: #000000; stroke-width: 0.8; stroke-linejoin: miter; stroke-linecap: square"/>
   </g>
   <g id="patch_6">
    <path d="M 57.6 41.472 
L 414.72 41.472 
" style="fill: none; stroke: #000000; stroke-width: 0.8; stroke-linejoin: miter; stroke-linecap: square"/>
   </g>
   <g id="text_15">
    <!-- Energy Decay - 1000 Hz -->
    <g transform="translate(163.59 35.472) scale(0.12 -0.12)">
     <defs>
      <path id="DejaVuSans-45" d="M 628 4666 
L 3578 4666 
L 3578 4134 
L 1259 4134 
L 1259 2753 
L 3481 2753 
L 3481 2222 
L 1259 2222 
L 1259 531 
L 3634 531 
L 3634 0 
L 628 0 
L 628 4666 
z
" transform="scale(0.015625)"/>
      <path id="DejaVuSans-6e" d="M 3513 2113 
L 3513 0 
L 2938 0 
L 2938 2094 
Q 2938 2591 2744 2837 
Q 2550 3084 2163 3084 
Q 1697 3084 1428 2787 
Q 1159 2491 1159 1978 
L 1159 0 
L 581 0 
L 581 3500 
L 1159 3500 
L 1159 2956 
Q 1366 3272 1645 3428 
Q 1925 3584 2291 3584 
Q 2894 3584 3203 3211 
Q 3513 2838 3513 2113 
z
" transform="scale(0.015625)"/>
      <path id="DejaVuSans-65" d="M 3597 1894 
L 3597 1613 
L 953 1613 
Q 991 1019 1311 708 
Q 1631 397 2203 397 
Q 2534 397 2845 478 
Q 3156 559 3463 722 
L 3463 178 
Q 3153 47 2828 -22 
Q 2503 -91 2169 -91 
Q 1331 -91 842 396 
Q 353 884 353 1716 
Q 353 2575 817 3079 
Q 1281 3584 2069 3584 
Q 2775 3584 3186 3129 
Q 3597 2675 3597 1894 
z
M 3022 2063 
Q 3016 2534 2758 2815 
Q 2500 3097 2075 3097 
Q 1594 3097 1305 2825 
Q 1016 2553 972 2059 
L 3022 2063 
z
" transform="scale(0.015625)"/>
      <path id="DejaVuSans-72" d="M 2631 2963 
Q 2534 3019 2420 3045 
Q 2306 3072 2169 3072 
Q 1681 3072 1420 2755 
Q 1159 2438 1159 1844 
L 1159 0 
L 581 0 
L 581 3500 
L 1159 3500 
L 1159 2956 
Q 1341 3275 1631 3429 
Q 1922 3584 2338 3584 
Q 2397 3584 2469 3576 
Q 2541 3569 2628 3553 
L 2631 2963 
z
" transform="scale(0.015625)"/>
      <path id="DejaVuSans-67" d="M 2906 1791 
Q 2906 2416 2648 2759 
Q 2391 3103 1925 3103 
Q 1463 3103 1205 2759 
Q 947 2416 947 1791 
Q 947 1169 1205 825 
Q 1463 481 1925 481 
Q 2391 481 2648 825 
Q 2906 1169 2906 1791 
z
M 3481 434 
Q 3481 -459 3084 -895 
Q 2688 -1331 1869 -1331 
Q 1566 -1331 1297 -1286 
Q 1028 -1241 775 -1147 
L 775 -588 
Q 1028 -725 1275 -790 
Q 1522 -856 1778 -856 
Q 2344 -856 2625 -561 
Q 2906 -266 2906 331 
L 2906 616 
Q 2728 306 2450 153 
Q 2172 0 1784 0 
Q 1141 0 747 490 
Q 353 981 353 1791 
Q 353 2603 747 3093 
Q 1141 3584 1784 3584 
Q 2172 3584 2450 3431 
Q 2728 3278 2906 2969 
L 2906 3500 
L 3481 3500 
L 3481 434 
z
" transform="scale(0.015625)"/>
      <path id="DejaVuSans-79" d="M 2059 -325 
Q 1816 -950 1584 -1140 
Q 1353 -1331 966 -1331 
L 506 -1331 
L 506 -850 
L 844 -850 
Q 1081 -850 1212 -737 
Q 1344 -625 1503 -206 
L 1606 56 
L 191 3500 
L 800 3500 
L 1894 763 
L 2988 3500 
L 3597 3500 
L 2059 -325 
z
" transform="scale(0.015625)"/>
      <path id="DejaVuSans-20" transform="scale(0.015625)"/>
      <path id="DejaVuSans-44" d="M 1259 4147 
L 1259 519 
L 2022 519 
Q 2988 519 3436 956 
Q 3884 1394 3884 2338 
Q 3884 3275 3436 3711 
Q 2988 4147 2022 4147 
L 1259 4147 
z
M 628 4666 
L 1925 4666 
Q 3281 4666 3915 4102 
Q 4550 3538 4550 2338 
Q 4550 1131 3912 565 
Q 3275 0 1925 0 
L 628 0 
L 628 4666 
z
" transform="scale(0.015625)"/>
      <path id="DejaVuSans-63" d="M 3122 3366 
L 3122 2828 
Q 2878 2963 2633 3030 
Q 2388 3097 2138 3097 
Q 1578 3097 1268 2742 
Q 959 2388 959 1747 
Q 959 1106 1268 751 
Q 1578 397 2138 397 
Q 2388 397 2633 464 
Q 2878 531 3122 666 
L 3122 134 
Q 2881 22 2623 -34 
Q 2366 -91 2075 -91 
Q 1284 -91 818 406 
Q 353 903 353 1747 
Q 353 2603 823 3093 
Q 1294 3584 2113 3584 
Q 2378 3584 2631 3529 
Q 2884 3475 3122 3366 
z
" transform="scale(0.015625)"/>
      <path id="DejaVuSans-61" d="M 2194 1759 
Q 1497 1759 1228 1600 
Q 959 1441 959 1056 
Q 959 750 1161 570 
Q 1363 391 1709 391 
Q 2188 391 2477 730 
Q 2766 1069 2766 1631 
L 2766 1759 
L 2194 1759 
z
M 3341 1997 
L 3341 0 
L 2766 0 
L 2766 531 
Q 2569 213 2275 61 
Q 1981 -91 1556 -91 
Q 1019 -91 701 211 
Q 384 513 384 1019 
Q 384 1609 779 1909 
Q 1175 2209 1959 2209 
L 2766 2209 
L 2766 2266 
Q 2766 2663 2505 2880 
Q 2244 3097 1772 3097 
Q 1472 3097 1187 3025 
Q 903 2953 641 2809 
L 641 3341 
Q 956 3463 1253 3523 
Q 1550 3584 1831 3584 
Q 2591 3584 2966 3190 
Q 3341 2797 3341 1997 
z
" transform="scale(0.015625)"/>
      <path id="DejaVuSans-2d" d="M 313 2009 
L 1997 2009 
L 1997 1497 
L 313 1497 
L 313 2009 
z
" transform="scale(0.015625)"/>
      <path id="DejaVuSans-48" d="M 628 4666 
L 1259 4666 
L 1259 2753 
L 3553 2753 
L 3553 4666 
L 4184 4666 
L 4184 0 
L 3553 0 
L 3553 2222 
L 1259 2222 
L 1259 0 
L 628 0 
L 628 4666 
z
" transform="scale(0.015625)"/>
      <path id="DejaVuSans-7a" d="M 353 3500 
L 3084 3500 
L 3084 2975 
L 922 459 
L 3084 459 
L 3084 0 
L 275 0 
L 275 525 
L 2438 3041 
L 353 3041 
L 353 3500 
z
" transform="scale(0.015625)"/>
     </defs>
     <use xlink:href="#DejaVuSans-45"/>
     <use xlink:href="#DejaVuSans-6e" transform="translate(63.183594 0)"/>
     <use xlink:href="#DejaVuSans-65" transform="translate(126.5625 0)"/>
     <use xlink:href="#DejaVuSans-72" transform="translate(188.085938 0)"/>
     <use xlink:href="#DejaVuSans-67" transform="translate(227.449219 0)"/>
     <use xlink:href="#DejaVuSans-79" transform="translate(290.925781 0)"/>
     <use xlink:href="#DejaVuSans-20" transform="translate(350.105469 0)"/>
     <use xlink:href="#DejaVuSans-44" transform="translate(381.892578 0)"/>
     <use xlink:href="#DejaVuSans-65" transform="translate(458.894531 0)"/>
     <use xlink:href="#DejaVuSans-63" transform="translate(520.417969 0)"/>
     <use xlink:href="#DejaVuSans-61" transform="translate(575.398438 0)"/>
     <use xlink:href="#DejaVuSans-79" transform="translate(636.677734 0)"/>
     <use xlink:href="#DejaVuSans-20" transform="translate(695.857422 0)"/>
     <use xlink:href="#DejaVuSans-2d" transform="translate(727.644531 0)"/>
     <use xlink:href="#DejaVuSans-20" transform="translate(763.728516 0)"/>
     <use xlink:href="#DejaVuSans-31" transform="translate(795.515625 0)"/>
     <use xlink:href="#DejaVuSans-30" transform="translate(859.138672 0)"/>
     <use xlink:href="#DejaVuSans-30" transform="translate(922.761719 0)"/>
     <use xlink:href="#DejaVuSans-30" transform="translate(986.384766 0)"/>
     <use xlink:href="#DejaVuSans-20" transform="translate(1050.007812 0)"/>
     <use xlink:href="#DejaVuSans-48" transform="translate(1081.794922 0)"/>
     <use xlink:href="#DejaVuSans-7a" transform="translate(1156.990234 0)"/>
    </g>
   </g>
   <g id="legend_1">
    <g id="patch_7">
     <path d="M 296.968437 108.1845 
L 407.72 108.1845 
Q 409.72 108.1845 409.72 106.1845 
L 409.72 48.472 
Q 409.72 46.472 407.72 46.472 
L 296.968437 46.472 
Q 294.968437 46.472 294.968437 48.472 
L 294.968437 106.1845 
Q 294.968437 108.1845 296.968437 108.1845 
z
" style="fill: #ffffff; opacity: 0.8; stroke: #cccccc; stroke-linejoin: miter"/>
    </g>
    <g id="line2d_18">
     <path d="M 298.968437 54.570438 
L 308.968437 54.570438 
L 318.968437 54.570438 
" style="fill: none; stroke: #1f77b4; stroke-width: 1.5; stroke-linecap: square"/>
    </g>
    <g id="text_16">
     <!-- Energy -->
     <g transform="translate(326.968437 58.070438) scale(0.1 -0.1)">
      <use xlink:href="#DejaVuSans-45"/>
      <use xlink:href="#DejaVuSans-6e" transform="translate(63.183594 0)"/>
      <use xlink:href="#DejaVuSans-65" transform="translate(126.5625 0)"/>
      <use xlink:href="#DejaVuSans-72" transform="translate(188.085938 0)"/>
      <use xlink:href="#DejaVuSans-67" transform="translate(227.449219 0)"/>
      <use xlink:href="#DejaVuSans-79" transform="translate(290.925781 0)"/>
     </g>
    </g>
    <g id="line2d_19">
     <path d="M 298.968437 69.248563 
L 308.968437 69.248563 
L 318.968437 69.248563 
" style="fill: none; stroke-dasharray: 5.55,2.4; stroke-dashoffset: 0; stroke: #ff7f0e; stroke-width: 1.5"/>
    </g>
    <g id="text_17">
     <!-- Linear Fit -->
     <g transform="translate(326.968437 72.748563) scale(0.1 -0.1)">
      <defs>
       <path id="DejaVuSans-4c" d="M 628 4666 
L 1259 4666 
L 1259 531 
L 3531 531 
L 3531 0 
L 628 0 
L 628 4666 
z
" transform="scale(0.015625)"/>
       <path id="DejaVuSans-69" d="M 603 3500 
L 1178 3500 
L 1178 0 
L 603 0 
L 603 3500 
z
M 603 4863 
L 1178 4863 
L 1178 4134 
L 603 4134 
L 603 4863 
z
" transform="scale(0.015625)"/>
       <path id="DejaVuSans-46" d="M 628 4666 
L 3309 4666 
L 3309 4134 
L 1259 4134 
L 1259 2759 
L 3109 2759 
L 3109 2228 
L 1259 2228 
L 1259 0 
L 628 0 
L 628 4666 
z
" transform="scale(0.015625)"/>
       <path id="DejaVuSans-74" d="M 1172 4494 
L 1172 3500 
L 2356 3500 
L 2356 3053 
L 1172 3053 
L 1172 1153 
Q 1172 725 1289 603 
Q 1406 481 1766 481 
L 2356 481 
L 2356 0 
L 1766 0 
Q 1100 0 847 248 
Q 594 497 594 1153 
L 594 3053 
L 172 3053 
L 172 3500 
L 594 3500 
L 594 4494 
L 1172 4494 
z
" transform="scale(0.015625)"/>
      </defs>
      <use xlink:href="#DejaVuSans-4c"/>
      <use xlink:href="#DejaVuSans-69" transform="translate(55.712891 0)"/>
      <use xlink:href="#DejaVuSans-6e" transform="translate(83.496094 0)"/>
      <use xlink:href="#DejaVuSans-65" transform="translate(146.875 0)"/>
      <use xlink:href="#DejaVuSans-61" transform="translate(208.398438 0)"/>
      <use xlink:href="#DejaVuSans-72" transform="translate(269.677734 0)"/>
      <use xlink:href="#DejaVuSans-20" transform="translate(310.791016 0)"/>
      <use xlink:href="#DejaVuSans-46" transform="translate(342.578125 0)"/>
      <use xlink:href="#DejaVuSans-69" transform="translate(392.847656 0)"/>
      <use xlink:href="#DejaVuSans-74" transform="translate(420.630859 0)"/>
     </g>
    </g>
    <g id="line2d_20">
     <path d="M 298.968437 83.926688 
L 308.968437 83.926688 
L 318.968437 83.926688 
" style="fill: none; stroke-dasharray: 5.55,2.4; stroke-dashoffset: 0; stroke: #2ca02c; stroke-width: 1.5"/>
    </g>
    <g id="text_18">
     <!-- -60 dB -->
     <g transform="translate(326.968437 87.426688) scale(0.1 -0.1)">
      <defs>
       <path id="DejaVuSans-64" d="M 2906 2969 
L 2906 4863 
L 3481 4863 
L 3481 0 
L 2906 0 
L 2906 525 
Q 2725 213 2448 61 
Q 2172 -91 1784 -91 
Q 1150 -91 751 415 
Q 353 922 353 1747 
Q 353 2572 751 3078 
Q 1150 3584 1784 3584 
Q 2172 3584 2448 3432 
Q 2725 3281 2906 2969 
z
M 947 1747 
Q 947 1113 1208 752 
Q 1469 391 1925 391 
Q 2381 391 2643 752 
Q 2906 1113 2906 1747 
Q 2906 2381 2643 2742 
Q 2381 3103 1925 3103 
Q 1469 3103 1208 2742 
Q 947 2381 947 1747 
z
" transform="scale(0.015625)"/>
       <path id="DejaVuSans-42" d="M 1259 2228 
L 1259 519 
L 2272 519 
Q 2781 519 3026 730 
Q 3272 941 3272 1375 
Q 3272 1813 3026 2020 
Q 2781 2228 2272 2228 
L 1259 2228 
z
M 1259 4147 
L 1259 2741 
L 2194 2741 
Q 2656 2741 2882 2914 
Q 3109 3088 3109 3444 
Q 3109 3797 2882 3972 
Q 2656 4147 2194 4147 
L 1259 4147 
z
M 628 4666 
L 2241 4666 
Q 2963 4666 3353 4366 
Q 3744 4066 3744 3513 
Q 3744 3084 3544 2831 
Q 3344 2578 2956 2516 
Q 3422 2416 3680 2098 
Q 3938 1781 3938 1306 
Q 3938 681 3513 340 
Q 3088 0 2303 0 
L 628 0 
L 628 4666 
z
" transform="scale(0.015625)"/>
      </defs>
      <use xlink:href="#DejaVuSans-2d"/>
      <use xlink:href="#DejaVuSans-36" transform="translate(36.083984 0)"/>
      <use xlink:href="#DejaVuSans-30" transform="translate(99.707031 0)"/>
      <use xlink:href="#DejaVuSans-20" transform="translate(163.330078 0)"/>
      <use xlink:href="#DejaVuSans-64" transform="translate(195.117188 0)"/>
      <use xlink:href="#DejaVuSans-42" transform="translate(258.59375 0)"/>
     </g>
    </g>
    <g id="line2d_21">
     <path d="M 298.968437 98.604813 
L 318.968437 98.604813 
" style="fill: none; stroke-dasharray: 5.55,2.4; stroke-dashoffset: 0; stroke: #1f77b4; stroke-width: 1.5"/>
    </g>
    <g id="text_19">
     <!-- Estimated RT60 -->
     <g transform="translate(326.968437 102.104813) scale(0.1 -0.1)">
      <defs>
       <path id="DejaVuSans-73" d="M 2834 3397 
L 2834 2853 
Q 2591 2978 2328 3040 
Q 2066 3103 1784 3103 
Q 1356 3103 1142 2972 
Q 928 2841 928 2578 
Q 928 2378 1081 2264 
Q 1234 2150 1697 2047 
L 1894 2003 
Q 2506 1872 2764 1633 
Q 3022 1394 3022 966 
Q 3022 478 2636 193 
Q 2250 -91 1575 -91 
Q 1294 -91 989 -36 
Q 684 19 347 128 
L 347 722 
Q 666 556 975 473 
Q 1284 391 1588 391 
Q 1994 391 2212 530 
Q 2431 669 2431 922 
Q 2431 1156 2273 1281 
Q 2116 1406 1581 1522 
L 1381 1569 
Q 847 1681 609 1914 
Q 372 2147 372 2553 
Q 372 3047 722 3315 
Q 1072 3584 1716 3584 
Q 2034 3584 2315 3537 
Q 2597 3491 2834 3397 
z
" transform="scale(0.015625)"/>
       <path id="DejaVuSans-6d" d="M 3328 2828 
Q 3544 3216 3844 3400 
Q 4144 3584 4550 3584 
Q 5097 3584 5394 3201 
Q 5691 2819 5691 2113 
L 5691 0 
L 5113 0 
L 5113 2094 
Q 5113 2597 4934 2840 
Q 4756 3084 4391 3084 
Q 3944 3084 3684 2787 
Q 3425 2491 3425 1978 
L 3425 0 
L 2847 0 
L 2847 2094 
Q 2847 2600 2669 2842 
Q 2491 3084 2119 3084 
Q 1678 3084 1418 2786 
Q 1159 2488 1159 1978 
L 1159 0 
L 581 0 
L 581 3500 
L 1159 3500 
L 1159 2956 
Q 1356 3278 1631 3431 
Q 1906 3584 2284 3584 
Q 2666 3584 2933 3390 
Q 3200 3197 3328 2828 
z
" transform="scale(0.015625)"/>
       <path id="DejaVuSans-52" d="M 2841 2188 
Q 3044 2119 3236 1894 
Q 3428 1669 3622 1275 
L 4263 0 
L 3584 0 
L 2988 1197 
Q 2756 1666 2539 1819 
Q 2322 1972 1947 1972 
L 1259 1972 
L 1259 0 
L 628 0 
L 628 4666 
L 2053 4666 
Q 2853 4666 3247 4331 
Q 3641 3997 3641 3322 
Q 3641 2881 3436 2590 
Q 3231 2300 2841 2188 
z
M 1259 4147 
L 1259 2491 
L 2053 2491 
Q 2509 2491 2742 2702 
Q 2975 2913 2975 3322 
Q 2975 3731 2742 3939 
Q 2509 4147 2053 4147 
L 1259 4147 
z
" transform="scale(0.015625)"/>
       <path id="DejaVuSans-54" d="M -19 4666 
L 3928 4666 
L 3928 4134 
L 2272 4134 
L 2272 0 
L 1638 0 
L 1638 4134 
L -19 4134 
L -19 4666 
z
" transform="scale(0.015625)"/>
      </defs>
      <use xlink:href="#DejaVuSans-45"/>
      <use xlink:href="#DejaVuSans-73" transform="translate(63.183594 0)"/>
      <use xlink:href="#DejaVuSans-74" transform="translate(115.283203 0)"/>
      <use xlink:href="#DejaVuSans-69" transform="translate(154.492188 0)"/>
      <use xlink:href="#DejaVuSans-6d" transform="translate(182.275391 0)"/>
      <use xlink:href="#DejaVuSans-61" transform="translate(279.6875 0)"/>
      <use xlink:href="#DejaVuSans-74" transform="translate(340.966797 0)"/>
      <use xlink:href="#DejaVuSans-65" transform="translate(380.175781 0)"/>
      <use xlink:href="#DejaVuSans-64" transform="translate(441.699219 0)"/>
      <use xlink:href="#DejaVuSans-20" transform="translate(505.175781 0)"/>
      <use xlink:href="#DejaVuSans-52" transform="translate(536.962891 0)"/>
      <use xlink:href="#DejaVuSans-54" transform="translate(599.195312 0)"/>
      <use xlink:href="#DejaVuSans-36" transform="translate(660.279297 0)"/>
      <use xlink:href="#DejaVuSans-30" transform="translate(723.902344 0)"/>
     </g>
    </g>
   </g>
  </g>
 </g>
 <defs>
  <clipPath id="p7ac291793a">
   <rect x="57.6" y="41.472" width="357.12" height="266.112"/>
  </clipPath>
 </defs>
</svg>
