<?xml version="1.0" encoding="utf-8" standalone="no"?>
<!DOCTYPE svg PUBLIC "-//W3C//DTD SVG 1.1//EN"
  "http://www.w3.org/Graphics/SVG/1.1/DTD/svg11.dtd">
<svg xmlns:xlink="http://www.w3.org/1999/xlink" width="460.8pt" height="345.6pt" viewBox="0 0 460.8 345.6" xmlns="http://www.w3.org/2000/svg" version="1.1">
 <metadata>
  <rdf:RDF xmlns:dc="http://purl.org/dc/elements/1.1/" xmlns:cc="http://creativecommons.org/ns#" xmlns:rdf="http://www.w3.org/1999/02/22-rdf-syntax-ns#">
   <cc:Work>
    <dc:type rdf:resource="http://purl.org/dc/dcmitype/StillImage"/>
    <dc:date>2025-05-07T14:39:02.966667</dc:date>
    <dc:format>image/svg+xml</dc:format>
    <dc:creator>
     <cc:Agent>
      <dc:title>Matplotlib v3.10.1, https://matplotlib.org/</dc:title>
     </cc:Agent>
    </dc:creator>
   </cc:Work>
  </rdf:RDF>
 </metadata>
 <defs>
  <style type="text/css">*{stroke-linejoin: round; stroke-linecap: butt}</style>
 </defs>
 <g id="figure_1">
  <g id="patch_1">
   <path d="M 0 345.6 
L 460.8 345.6 
L 460.8 0 
L 0 0 
z
" style="fill: #ffffff"/>
  </g>
  <g id="axes_1">
   <g id="patch_2">
    <path d="M 57.6 307.584 
L 414.72 307.584 
L 414.72 41.472 
L 57.6 41.472 
z
" style="fill: #ffffff"/>
   </g>
   <g id="matplotlib.axis_1">
    <g id="xtick_1">
     <g id="line2d_1">
      <defs>
       <path id="m59656192d7" d="M 0 0 
L 0 3.5 
" style="stroke: #000000; stroke-width: 0.8"/>
      </defs>
      <g>
       <use xlink:href="#m59656192d7" x="73.027855" y="307.584" style="stroke: #000000; stroke-width: 0.8"/>
      </g>
     </g>
     <g id="text_1">
      <!-- −0.2 -->
      <g transform="translate(60.886448 322.182437) scale(0.1 -0.1)">
       <defs>
        <path id="DejaVuSans-2212" d="M 678 2272 
L 4684 2272 
L 4684 1741 
L 678 1741 
L 678 2272 
z
" transform="scale(0.015625)"/>
        <path id="DejaVuSans-30" d="M 2034 4250 
Q 1547 4250 1301 3770 
Q 1056 3291 1056 2328 
Q 1056 1369 1301 889 
Q 1547 409 2034 409 
Q 2525 409 2770 889 
Q 3016 1369 3016 2328 
Q 3016 3291 2770 3770 
Q 2525 4250 2034 4250 
z
M 2034 4750 
Q 2819 4750 3233 4129 
Q 3647 3509 3647 2328 
Q 3647 1150 3233 529 
Q 2819 -91 2034 -91 
Q 1250 -91 836 529 
Q 422 1150 422 2328 
Q 422 3509 836 4129 
Q 1250 4750 2034 4750 
z
" transform="scale(0.015625)"/>
        <path id="DejaVuSans-2e" d="M 684 794 
L 1344 794 
L 1344 0 
L 684 0 
L 684 794 
z
" transform="scale(0.015625)"/>
        <path id="DejaVuSans-32" d="M 1228 531 
L 3431 531 
L 3431 0 
L 469 0 
L 469 531 
Q 828 903 1448 1529 
Q 2069 2156 2228 2338 
Q 2531 2678 2651 2914 
Q 2772 3150 2772 3378 
Q 2772 3750 2511 3984 
Q 2250 4219 1831 4219 
Q 1534 4219 1204 4116 
Q 875 4013 500 3803 
L 500 4441 
Q 881 4594 1212 4672 
Q 1544 4750 1819 4750 
Q 2544 4750 2975 4387 
Q 3406 4025 3406 3419 
Q 3406 3131 3298 2873 
Q 3191 2616 2906 2266 
Q 2828 2175 2409 1742 
Q 1991 1309 1228 531 
z
" transform="scale(0.015625)"/>
       </defs>
       <use xlink:href="#DejaVuSans-2212"/>
       <use xlink:href="#DejaVuSans-30" transform="translate(83.789062 0)"/>
       <use xlink:href="#DejaVuSans-2e" transform="translate(147.412109 0)"/>
       <use xlink:href="#DejaVuSans-32" transform="translate(179.199219 0)"/>
      </g>
     </g>
    </g>
    <g id="xtick_2">
     <g id="line2d_2">
      <g>
       <use xlink:href="#m59656192d7" x="137.958764" y="307.584" style="stroke: #000000; stroke-width: 0.8"/>
      </g>
     </g>
     <g id="text_2">
      <!-- 0.0 -->
      <g transform="translate(130.007201 322.182437) scale(0.1 -0.1)">
       <use xlink:href="#DejaVuSans-30"/>
       <use xlink:href="#DejaVuSans-2e" transform="translate(63.623047 0)"/>
       <use xlink:href="#DejaVuSans-30" transform="translate(95.410156 0)"/>
      </g>
     </g>
    </g>
    <g id="xtick_3">
     <g id="line2d_3">
      <g>
       <use xlink:href="#m59656192d7" x="202.889673" y="307.584" style="stroke: #000000; stroke-width: 0.8"/>
      </g>
     </g>
     <g id="text_3">
      <!-- 0.2 -->
      <g transform="translate(194.93811 322.182437) scale(0.1 -0.1)">
       <use xlink:href="#DejaVuSans-30"/>
       <use xlink:href="#DejaVuSans-2e" transform="translate(63.623047 0)"/>
       <use xlink:href="#DejaVuSans-32" transform="translate(95.410156 0)"/>
      </g>
     </g>
    </g>
    <g id="xtick_4">
     <g id="line2d_4">
      <g>
       <use xlink:href="#m59656192d7" x="267.820582" y="307.584" style="stroke: #000000; stroke-width: 0.8"/>
      </g>
     </g>
     <g id="text_4">
      <!-- 0.4 -->
      <g transform="translate(259.869019 322.182437) scale(0.1 -0.1)">
       <defs>
        <path id="DejaVuSans-34" d="M 2419 4116 
L 825 1625 
L 2419 1625 
L 2419 4116 
z
M 2253 4666 
L 3047 4666 
L 3047 1625 
L 3713 1625 
L 3713 1100 
L 3047 1100 
L 3047 0 
L 2419 0 
L 2419 1100 
L 313 1100 
L 313 1709 
L 2253 4666 
z
" transform="scale(0.015625)"/>
       </defs>
       <use xlink:href="#DejaVuSans-30"/>
       <use xlink:href="#DejaVuSans-2e" transform="translate(63.623047 0)"/>
       <use xlink:href="#DejaVuSans-34" transform="translate(95.410156 0)"/>
      </g>
     </g>
    </g>
    <g id="xtick_5">
     <g id="line2d_5">
      <g>
       <use xlink:href="#m59656192d7" x="332.751491" y="307.584" style="stroke: #000000; stroke-width: 0.8"/>
      </g>
     </g>
     <g id="text_5">
      <!-- 0.6 -->
      <g transform="translate(324.799928 322.182437) scale(0.1 -0.1)">
       <defs>
        <path id="DejaVuSans-36" d="M 2113 2584 
Q 1688 2584 1439 2293 
Q 1191 2003 1191 1497 
Q 1191 994 1439 701 
Q 1688 409 2113 409 
Q 2538 409 2786 701 
Q 3034 994 3034 1497 
Q 3034 2003 2786 2293 
Q 2538 2584 2113 2584 
z
M 3366 4563 
L 3366 3988 
Q 3128 4100 2886 4159 
Q 2644 4219 2406 4219 
Q 1781 4219 1451 3797 
Q 1122 3375 1075 2522 
Q 1259 2794 1537 2939 
Q 1816 3084 2150 3084 
Q 2853 3084 3261 2657 
Q 3669 2231 3669 1497 
Q 3669 778 3244 343 
Q 2819 -91 2113 -91 
Q 1303 -91 875 529 
Q 447 1150 447 2328 
Q 447 3434 972 4092 
Q 1497 4750 2381 4750 
Q 2619 4750 2861 4703 
Q 3103 4656 3366 4563 
z
" transform="scale(0.015625)"/>
       </defs>
       <use xlink:href="#DejaVuSans-30"/>
       <use xlink:href="#DejaVuSans-2e" transform="translate(63.623047 0)"/>
       <use xlink:href="#DejaVuSans-36" transform="translate(95.410156 0)"/>
      </g>
     </g>
    </g>
    <g id="xtick_6">
     <g id="line2d_6">
      <g>
       <use xlink:href="#m59656192d7" x="397.6824" y="307.584" style="stroke: #000000; stroke-width: 0.8"/>
      </g>
     </g>
     <g id="text_6">
      <!-- 0.8 -->
      <g transform="translate(389.730838 322.182437) scale(0.1 -0.1)">
       <defs>
        <path id="DejaVuSans-38" d="M 2034 2216 
Q 1584 2216 1326 1975 
Q 1069 1734 1069 1313 
Q 1069 891 1326 650 
Q 1584 409 2034 409 
Q 2484 409 2743 651 
Q 3003 894 3003 1313 
Q 3003 1734 2745 1975 
Q 2488 2216 2034 2216 
z
M 1403 2484 
Q 997 2584 770 2862 
Q 544 3141 544 3541 
Q 544 4100 942 4425 
Q 1341 4750 2034 4750 
Q 2731 4750 3128 4425 
Q 3525 4100 3525 3541 
Q 3525 3141 3298 2862 
Q 3072 2584 2669 2484 
Q 3125 2378 3379 2068 
Q 3634 1759 3634 1313 
Q 3634 634 3220 271 
Q 2806 -91 2034 -91 
Q 1263 -91 848 271 
Q 434 634 434 1313 
Q 434 1759 690 2068 
Q 947 2378 1403 2484 
z
M 1172 3481 
Q 1172 3119 1398 2916 
Q 1625 2713 2034 2713 
Q 2441 2713 2670 2916 
Q 2900 3119 2900 3481 
Q 2900 3844 2670 4047 
Q 2441 4250 2034 4250 
Q 1625 4250 1398 4047 
Q 1172 3844 1172 3481 
z
" transform="scale(0.015625)"/>
       </defs>
       <use xlink:href="#DejaVuSans-30"/>
       <use xlink:href="#DejaVuSans-2e" transform="translate(63.623047 0)"/>
       <use xlink:href="#DejaVuSans-38" transform="translate(95.410156 0)"/>
      </g>
     </g>
    </g>
   </g>
   <g id="matplotlib.axis_2">
    <g id="ytick_1">
     <g id="line2d_7">
      <defs>
       <path id="m8dcff5586b" d="M 0 0 
L -3.5 0 
" style="stroke: #000000; stroke-width: 0.8"/>
      </defs>
      <g>
       <use xlink:href="#m8dcff5586b" x="57.6" y="302.915419" style="stroke: #000000; stroke-width: 0.8"/>
      </g>
     </g>
     <g id="text_7">
      <!-- −200 -->
      <g transform="translate(23.132812 306.714637) scale(0.1 -0.1)">
       <use xlink:href="#DejaVuSans-2212"/>
       <use xlink:href="#DejaVuSans-32" transform="translate(83.789062 0)"/>
       <use xlink:href="#DejaVuSans-30" transform="translate(147.412109 0)"/>
       <use xlink:href="#DejaVuSans-30" transform="translate(211.035156 0)"/>
      </g>
     </g>
    </g>
    <g id="ytick_2">
     <g id="line2d_8">
      <g>
       <use xlink:href="#m8dcff5586b" x="57.6" y="271.746991" style="stroke: #000000; stroke-width: 0.8"/>
      </g>
     </g>
     <g id="text_8">
      <!-- −175 -->
      <g transform="translate(23.132812 275.54621) scale(0.1 -0.1)">
       <defs>
        <path id="DejaVuSans-31" d="M 794 531 
L 1825 531 
L 1825 4091 
L 703 3866 
L 703 4441 
L 1819 4666 
L 2450 4666 
L 2450 531 
L 3481 531 
L 3481 0 
L 794 0 
L 794 531 
z
" transform="scale(0.015625)"/>
        <path id="DejaVuSans-37" d="M 525 4666 
L 3525 4666 
L 3525 4397 
L 1831 0 
L 1172 0 
L 2766 4134 
L 525 4134 
L 525 4666 
z
" transform="scale(0.015625)"/>
        <path id="DejaVuSans-35" d="M 691 4666 
L 3169 4666 
L 3169 4134 
L 1269 4134 
L 1269 2991 
Q 1406 3038 1543 3061 
Q 1681 3084 1819 3084 
Q 2600 3084 3056 2656 
Q 3513 2228 3513 1497 
Q 3513 744 3044 326 
Q 2575 -91 1722 -91 
Q 1428 -91 1123 -41 
Q 819 9 494 109 
L 494 744 
Q 775 591 1075 516 
Q 1375 441 1709 441 
Q 2250 441 2565 725 
Q 2881 1009 2881 1497 
Q 2881 1984 2565 2268 
Q 2250 2553 1709 2553 
Q 1456 2553 1204 2497 
Q 953 2441 691 2322 
L 691 4666 
z
" transform="scale(0.015625)"/>
       </defs>
       <use xlink:href="#DejaVuSans-2212"/>
       <use xlink:href="#DejaVuSans-31" transform="translate(83.789062 0)"/>
       <use xlink:href="#DejaVuSans-37" transform="translate(147.412109 0)"/>
       <use xlink:href="#DejaVuSans-35" transform="translate(211.035156 0)"/>
      </g>
     </g>
    </g>
    <g id="ytick_3">
     <g id="line2d_9">
      <g>
       <use xlink:href="#m8dcff5586b" x="57.6" y="240.578564" style="stroke: #000000; stroke-width: 0.8"/>
      </g>
     </g>
     <g id="text_9">
      <!-- −150 -->
      <g transform="translate(23.132812 244.377783) scale(0.1 -0.1)">
       <use xlink:href="#DejaVuSans-2212"/>
       <use xlink:href="#DejaVuSans-31" transform="translate(83.789062 0)"/>
       <use xlink:href="#DejaVuSans-35" transform="translate(147.412109 0)"/>
       <use xlink:href="#DejaVuSans-30" transform="translate(211.035156 0)"/>
      </g>
     </g>
    </g>
    <g id="ytick_4">
     <g id="line2d_10">
      <g>
       <use xlink:href="#m8dcff5586b" x="57.6" y="209.410137" style="stroke: #000000; stroke-width: 0.8"/>
      </g>
     </g>
     <g id="text_10">
      <!-- −125 -->
      <g transform="translate(23.132812 213.209355) scale(0.1 -0.1)">
       <use xlink:href="#DejaVuSans-2212"/>
       <use xlink:href="#DejaVuSans-31" transform="translate(83.789062 0)"/>
       <use xlink:href="#DejaVuSans-32" transform="translate(147.412109 0)"/>
       <use xlink:href="#DejaVuSans-35" transform="translate(211.035156 0)"/>
      </g>
     </g>
    </g>
    <g id="ytick_5">
     <g id="line2d_11">
      <g>
       <use xlink:href="#m8dcff5586b" x="57.6" y="178.241709" style="stroke: #000000; stroke-width: 0.8"/>
      </g>
     </g>
     <g id="text_11">
      <!-- −100 -->
      <g transform="translate(23.132812 182.040928) scale(0.1 -0.1)">
       <use xlink:href="#DejaVuSans-2212"/>
       <use xlink:href="#DejaVuSans-31" transform="translate(83.789062 0)"/>
       <use xlink:href="#DejaVuSans-30" transform="translate(147.412109 0)"/>
       <use xlink:href="#DejaVuSans-30" transform="translate(211.035156 0)"/>
      </g>
     </g>
    </g>
    <g id="ytick_6">
     <g id="line2d_12">
      <g>
       <use xlink:href="#m8dcff5586b" x="57.6" y="147.073282" style="stroke: #000000; stroke-width: 0.8"/>
      </g>
     </g>
     <g id="text_12">
      <!-- −75 -->
      <g transform="translate(29.495313 150.872501) scale(0.1 -0.1)">
       <use xlink:href="#DejaVuSans-2212"/>
       <use xlink:href="#DejaVuSans-37" transform="translate(83.789062 0)"/>
       <use xlink:href="#DejaVuSans-35" transform="translate(147.412109 0)"/>
      </g>
     </g>
    </g>
    <g id="ytick_7">
     <g id="line2d_13">
      <g>
       <use xlink:href="#m8dcff5586b" x="57.6" y="115.904855" style="stroke: #000000; stroke-width: 0.8"/>
      </g>
     </g>
     <g id="text_13">
      <!-- −50 -->
      <g transform="translate(29.495313 119.704073) scale(0.1 -0.1)">
       <use xlink:href="#DejaVuSans-2212"/>
       <use xlink:href="#DejaVuSans-35" transform="translate(83.789062 0)"/>
       <use xlink:href="#DejaVuSans-30" transform="translate(147.412109 0)"/>
      </g>
     </g>
    </g>
    <g id="ytick_8">
     <g id="line2d_14">
      <g>
       <use xlink:href="#m8dcff5586b" x="57.6" y="84.736427" style="stroke: #000000; stroke-width: 0.8"/>
      </g>
     </g>
     <g id="text_14">
      <!-- −25 -->
      <g transform="translate(29.495313 88.535646) scale(0.1 -0.1)">
       <use xlink:href="#DejaVuSans-2212"/>
       <use xlink:href="#DejaVuSans-32" transform="translate(83.789062 0)"/>
       <use xlink:href="#DejaVuSans-35" transform="translate(147.412109 0)"/>
      </g>
     </g>
    </g>
    <g id="ytick_9">
     <g id="line2d_15">
      <g>
       <use xlink:href="#m8dcff5586b" x="57.6" y="53.568" style="stroke: #000000; stroke-width: 0.8"/>
      </g>
     </g>
     <g id="text_15">
      <!-- 0 -->
      <g transform="translate(44.2375 57.367219) scale(0.1 -0.1)">
       <use xlink:href="#DejaVuSans-30"/>
      </g>
     </g>
    </g>
   </g>
   <g id="line2d_16">
    <path d="M 73.832727 53.568 
L 128.401745 53.658233 
L 128.631709 54.41612 
L 129.145745 54.490654 
L 129.632727 54.655125 
L 129.822109 55.172321 
L 130.572873 55.299478 
L 131.384509 55.450754 
L 131.912073 55.733991 
L 132.006764 55.844318 
L 132.2232 56.121341 
L 132.554618 56.329104 
L 132.791345 56.47883 
L 132.933382 56.63614 
L 133.129527 56.75176 
L 133.406836 56.862763 
L 133.616509 56.993558 
L 133.697673 57.166575 
L 133.893818 57.307353 
L 133.981745 57.437878 
L 134.1576 57.676078 
L 134.4552 57.89597 
L 134.570182 58.00345 
L 134.732509 58.118423 
L 135.483273 58.691775 
L 135.625309 58.729428 
L 135.956727 58.83765 
L 136.585745 59.064231 
L 137.417673 59.421721 
L 137.613818 59.687212 
L 137.952 59.792309 
L 138.114327 59.849088 
L 138.810982 60.111798 
L 138.980073 60.187739 
L 139.379127 60.410138 
L 139.784945 60.656548 
L 140.4072 60.768697 
L 140.840073 60.996482 
L 140.995636 61.045935 
L 141.232364 61.204096 
L 141.658473 61.57267 
L 141.942545 61.677443 
L 143.017964 62.196181 
L 143.220873 62.268352 
L 143.464364 62.306167 
L 143.741673 62.422515 
L 144.431564 63.366648 
L 144.844145 63.472589 
L 145.337891 63.741263 
L 145.5408 63.803155 
L 145.635491 63.923756 
L 146.994982 64.832748 
L 147.150545 64.982297 
L 147.380509 65.105811 
L 147.576655 65.171892 
L 147.860727 65.350244 
L 148.016291 65.423177 
L 148.171855 65.54235 
L 149.828945 66.661421 
L 150.356509 67.246792 
L 152.223273 67.56256 
L 152.3856 67.696677 
L 153.433964 68.252901 
L 153.582764 68.300872 
L 153.833018 68.411095 
L 154.035927 68.492882 
L 154.374109 68.635989 
L 154.779927 68.972997 
L 155.273673 69.094442 
L 155.611855 69.247035 
L 156.051491 69.469052 
L 156.606109 69.586033 
L 157.0728 69.826427 
L 157.5192 69.955816 
L 157.668 70.163729 
L 158.127927 70.28491 
L 158.290255 70.436977 
L 158.628436 70.574769 
L 159.352145 71.010939 
L 159.514473 71.178939 
L 161.523273 71.862081 
L 161.692364 71.996182 
L 162.145527 72.186849 
L 162.3552 72.274299 
L 162.564873 72.40169 
L 162.774545 72.439344 
L 162.984218 72.55027 
L 163.450909 72.799681 
L 163.7688 73.187735 
L 164.086691 73.302271 
L 164.526327 73.524582 
L 164.688655 73.661291 
L 164.864509 73.776513 
L 165.209455 74.130278 
L 165.459709 74.240596 
L 166.230764 74.600246 
L 167.130327 74.835041 
L 167.353527 74.927745 
L 167.617309 75.053112 
L 167.854036 75.12179 
L 168.124582 75.234304 
L 169.4232 75.7468 
L 169.632873 75.829476 
L 170.843564 76.411184 
L 171.046473 76.615805 
L 171.898691 76.807739 
L 172.054255 76.873384 
L 172.514182 76.990102 
L 172.865891 77.062447 
L 173.292 77.266984 
L 173.806036 77.627574 
L 174.211855 77.777514 
L 174.428291 77.957621 
L 174.807055 78.106842 
L 174.982909 78.21651 
L 175.638982 78.359996 
L 175.808073 78.414413 
L 176.085382 78.525636 
L 176.470909 78.657039 
L 177.316364 78.824661 
L 177.5328 78.878289 
L 178.371491 79.06526 
L 178.560873 79.212438 
L 179.196655 79.380946 
L 179.419855 79.40778 
L 179.636291 79.529625 
L 180.096218 79.68097 
L 180.420873 79.800063 
L 180.650836 79.85635 
L 181.448945 80.175309 
L 181.597745 80.266186 
L 182.030618 80.421498 
L 182.497309 80.750026 
L 182.679927 80.902756 
L 182.842255 81.015289 
L 182.943709 81.131946 
L 183.200727 81.448602 
L 183.342764 81.593664 
L 183.525382 81.65728 
L 183.965018 81.792733 
L 184.147636 81.869762 
L 184.269382 81.985086 
L 184.431709 82.079613 
L 184.9728 82.305991 
L 185.764145 82.486487 
L 186.0888 82.615176 
L 187.360364 83.039182 
L 188.523709 83.513897 
L 189.159491 83.669006 
L 189.315055 83.738446 
L 189.781745 83.943053 
L 189.923782 84.114457 
L 190.451345 84.26691 
L 190.606909 84.312778 
L 191.093891 84.473695 
L 191.344145 84.521364 
L 192.135491 84.646184 
L 192.365455 84.69821 
L 193.393527 85.054483 
L 194.252509 85.583087 
L 194.428364 85.682182 
L 194.651564 85.793614 
L 195.111491 85.935679 
L 195.442909 86.160301 
L 195.828436 86.347219 
L 196.017818 86.568572 
L 196.301891 86.681863 
L 196.714473 86.782115 
L 196.8768 86.86034 
L 197.444945 87.006388 
L 197.816945 87.460834 
L 199.088509 88.06585 
L 199.440218 88.210885 
L 199.6296 88.252953 
L 199.947491 88.394329 
L 200.123345 88.505849 
L 200.278909 88.616688 
L 200.752364 89.099548 
L 200.955273 89.208151 
L 201.1176 89.414922 
L 203.079055 90.25241 
L 203.288727 90.367248 
L 203.444291 90.429652 
L 203.9448 90.548091 
L 204.282982 90.744312 
L 204.425018 90.84688 
L 204.6144 90.938748 
L 205.189309 91.249823 
L 205.527491 91.364142 
L 205.9536 91.410881 
L 206.210618 91.522487 
L 206.812582 91.696239 
L 207.008727 91.726879 
L 207.549818 91.895459 
L 207.712145 91.950494 
L 208.753745 92.41049 
L 208.956655 92.763244 
L 209.200145 92.881737 
L 209.490982 92.971693 
L 209.8224 93.166677 
L 209.964436 93.223807 
L 210.289091 93.35641 
L 210.478473 93.555502 
L 210.951927 93.712619 
L 211.181891 93.786776 
L 211.797382 93.929896 
L 212.027345 94.015095 
L 214.225527 94.740866 
L 214.597527 94.844191 
L 214.827491 94.973059 
L 215.077745 95.081852 
L 215.355055 95.196525 
L 215.760873 95.309449 
L 216.105818 95.438795 
L 216.274909 95.59321 
L 216.416945 95.778532 
L 216.613091 96.185533 
L 219.832582 97.214038 
L 220.197818 97.460351 
L 220.427782 97.560149 
L 220.590109 97.659945 
L 221.455855 98.137925 
L 221.624945 98.265944 
L 221.929309 98.376277 
L 222.362182 98.493706 
L 222.5448 98.560402 
L 223.0656 98.757028 
L 223.444364 98.92018 
L 223.640509 98.975826 
L 224.046327 99.090381 
L 224.986473 99.57166 
L 225.229964 99.684717 
L 225.385527 99.758391 
L 225.764291 99.869374 
L 226.271564 100.066989 
L 226.914109 100.218944 
L 227.434909 100.518028 
L 227.840727 100.650509 
L 228.023345 100.794713 
L 228.280364 100.912909 
L 228.72 101.11094 
L 228.882327 101.184289 
L 229.599273 101.3037 
L 229.768364 101.465988 
L 229.903636 101.503829 
L 232.433236 102.42336 
L 232.6632 102.476704 
L 233.711564 103.200784 
L 236.775491 104.229681 
L 236.924291 104.283404 
L 238.419055 104.972184 
L 238.554327 105.042338 
L 239.643273 105.319314 
L 240.035564 105.423468 
L 240.224945 105.540852 
L 241.280073 105.846782 
L 241.712945 105.969191 
L 241.909091 106.061876 
L 242.105236 106.167102 
L 242.287855 106.246905 
L 242.490764 106.35581 
L 242.727491 106.474344 
L 245.744073 107.507257 
L 245.899636 107.665128 
L 246.4272 107.816582 
L 246.893891 108.006503 
L 247.407927 108.162784 
L 247.6176 108.262561 
L 247.854327 108.383672 
L 248.368364 108.625748 
L 248.922982 108.736779 
L 249.125891 108.846379 
L 249.768436 108.959929 
L 250.086327 109.10149 
L 250.3704 109.230343 
L 250.539491 109.305396 
L 250.897964 109.487924 
L 251.046764 109.521407 
L 251.567564 109.711404 
L 251.756945 109.908012 
L 251.912509 110.020296 
L 252.135709 110.109271 
L 252.683564 110.23352 
L 253.055564 110.375246 
L 253.454618 110.574336 
L 253.616945 110.757068 
L 253.880727 110.859671 
L 254.036291 110.924857 
L 254.469164 111.035591 
L 254.645018 111.194736 
L 254.956145 111.302732 
L 255.104945 111.368709 
L 255.490473 111.530867 
L 255.869236 111.688962 
L 256.072145 111.723334 
L 256.62 111.843811 
L 256.985236 111.91817 
L 257.411345 112.109471 
L 258.7032 112.876659 
L 259.291636 113.283557 
L 259.562182 113.405329 
L 259.880073 113.505149 
L 260.258836 113.652038 
L 260.745818 113.840441 
L 262.071491 114.298261 
L 262.233818 114.33034 
L 262.4976 114.492212 
L 262.842545 114.65645 
L 263.660945 115.049995 
L 263.917964 115.171307 
L 264.147927 115.287842 
L 264.925745 115.675566 
L 265.581818 115.786881 
L 265.805018 115.852702 
L 266.264945 115.972146 
L 266.582836 116.218102 
L 269.004218 116.715234 
L 271.405309 117.682999 
L 272.189891 117.810441 
L 272.622764 118.02149 
L 272.8392 118.114361 
L 273.163855 118.222154 
L 273.414109 118.390942 
L 274.205455 118.797202 
L 274.374545 118.833146 
L 274.820945 118.973849 
L 275.037382 119.003713 
L 275.564945 119.166466 
L 277.938982 120.240319 
L 278.263636 120.36548 
L 278.425964 120.506775 
L 278.980582 120.670093 
L 279.616364 120.86818 
L 280.542982 121.111882 
L 280.739127 121.169112 
L 282.558545 121.923005 
L 282.707345 121.979075 
L 282.964364 122.102265 
L 283.174036 122.232087 
L 284.952873 122.888119 
L 285.291055 122.94462 
L 285.771273 123.049653 
L 285.9336 123.101941 
L 286.535564 123.231572 
L 287.069891 123.415908 
L 287.895055 123.589816 
L 288.354982 123.897495 
L 288.530836 124.015123 
L 292.291418 125.043291 
L 292.785164 125.150924 
L 293.103055 125.374201 
L 293.7456 125.514268 
L 294.137891 125.560121 
L 294.902182 125.867119 
L 295.044218 125.948855 
L 295.646182 126.074405 
L 298.047273 126.626778 
L 298.202836 126.699131 
L 298.967127 126.882278 
L 299.366182 127.099427 
L 299.731418 127.22058 
L 299.934327 127.392558 
L 300.624218 127.597141 
L 302.112218 127.944899 
L 302.518036 128.07212 
L 303.174109 128.36339 
L 303.451418 128.485123 
L 303.674618 128.530422 
L 304.290109 128.641737 
L 304.452436 128.69953 
L 304.898836 128.99775 
L 312.589091 130.674948 
L 312.852873 130.8938 
L 318.0744 132.159749 
L 318.2232 132.337943 
L 318.574909 132.486469 
L 318.926618 132.620453 
L 319.684145 132.77074 
L 320.272582 132.930447 
L 321.0504 133.159263 
L 321.226255 133.227354 
L 321.760582 133.340751 
L 322.7616 133.724022 
L 323.498836 133.869373 
L 325.947273 134.448831 
L 326.650691 134.581024 
L 327.3744 134.731367 
L 327.7464 134.856106 
L 328.301018 134.965623 
L 330.113673 135.373822 
L 330.458618 135.480925 
L 330.729164 135.54544 
L 332.88 136.037302 
L 333.076145 136.079738 
L 333.448145 136.209033 
L 333.664582 136.280739 
L 333.941891 136.393915 
L 334.117745 136.4428 
L 335.172873 136.600408 
L 335.490764 136.668892 
L 336.667636 136.870055 
L 337.080218 136.9808 
L 337.540145 137.21147 
L 337.878327 137.34753 
L 338.270618 137.4551 
L 339.068727 137.651656 
L 339.690982 137.838217 
L 340.428218 137.996987 
L 341.009891 138.082307 
L 341.523927 138.19026 
L 341.787709 138.286524 
L 342.362618 138.397592 
L 343.268945 138.531931 
L 343.762691 138.607472 
L 345.9744 139.040753 
L 347.002473 139.179268 
L 347.171564 139.269934 
L 347.902036 139.461553 
L 348.179345 139.53672 
L 348.815127 139.649982 
L 348.990982 139.734613 
L 349.248 139.77004 
L 349.964945 139.932553 
L 350.167855 139.973912 
L 350.8848 140.13947 
L 351.236509 140.250997 
L 351.709964 140.351539 
L 352.332218 140.502013 
L 352.467491 140.642592 
L 352.690691 140.770119 
L 353.103273 140.881945 
L 353.407636 141.04083 
L 354.056945 141.184892 
L 354.476291 141.404703 
L 355.362327 141.702593 
L 355.639636 141.855479 
L 355.910182 142.0126 
L 356.058982 142.068985 
L 356.349818 142.158861 
L 356.802982 142.304863 
L 359.041745 142.838812 
L 359.204073 142.941195 
L 359.772218 143.069827 
L 360.2592 143.223054 
L 360.509455 143.318319 
L 361.043782 143.5464 
L 361.206109 143.689882 
L 361.584873 143.80079 
L 361.814836 143.849382 
L 362.085382 143.963608 
L 362.268 144.159566 
L 363.025527 144.358928 
L 363.208145 144.508637 
L 363.316364 144.634749 
L 363.471927 144.76472 
L 364.459418 145.014571 
L 364.858473 145.183799 
L 365.257527 145.233636 
L 365.555127 145.348726 
L 365.771564 145.426529 
L 366.096218 145.550718 
L 366.366764 145.69662 
L 367.293382 145.942986 
L 367.435418 146.031057 
L 367.672145 146.207504 
L 367.820945 146.312622 
L 368.984291 147.169559 
L 369.153382 147.234216 
L 369.390109 147.346241 
L 369.579491 147.526405 
L 369.694473 147.629317 
L 369.937964 147.933307 
L 370.100291 148.031082 
L 370.269382 148.354383 
L 370.607564 148.531194 
L 370.695491 148.638316 
L 370.830764 148.689163 
L 370.9728 148.807013 
L 371.148655 148.89227 
L 371.283927 148.997747 
L 371.466545 149.057826 
L 372.075273 149.435466 
L 372.2376 149.529816 
L 372.697527 150.012271 
L 372.853091 150.205328 
L 374.151709 150.980461 
L 374.401964 151.178913 
L 374.611636 151.294963 
L 374.746909 151.475629 
L 374.882182 151.614043 
L 375.105382 151.730766 
L 375.159491 151.857408 
L 375.355636 152.050967 
L 375.788509 152.288748 
L 376.018473 152.550064 
L 376.160509 152.842953 
L 376.228145 152.918795 
L 376.370182 153.128109 
L 376.5528 153.258092 
L 377.053309 153.991764 
L 377.452364 154.330037 
L 377.614691 154.469538 
L 377.736436 154.636508 
L 378.176073 155.519614 
L 379.332655 156.389721 
L 379.488218 156.804875 
L 379.609964 156.972853 
L 380.225455 158.170058 
L 380.529818 158.398484 
L 380.712436 159.118859 
L 380.780073 159.276074 
L 380.969455 159.72384 
L 381.097964 159.811052 
L 381.199418 159.913606 
L 381.368509 160.299234 
L 381.449673 160.418096 
L 381.591709 160.482503 
L 381.794618 160.588544 
L 382.044873 160.94133 
L 382.254545 161.541926 
L 382.403345 161.55854 
L 382.734764 161.866576 
L 382.870036 162.047949 
L 383.431418 162.600814 
L 383.600509 162.878996 
L 383.904873 163.114527 
L 384.046909 163.405988 
L 384.073964 163.504498 
L 384.243055 163.833302 
L 384.574473 164.279463 
L 384.790909 164.464458 
L 384.953236 165.057554 
L 385.1088 165.298231 
L 385.203491 165.424563 
L 385.4064 165.626219 
L 385.528145 165.738676 
L 385.609309 165.826148 
L 385.771636 166.231412 
L 385.933964 166.298172 
L 385.988073 166.401604 
L 386.130109 166.445162 
L 386.2992 166.594601 
L 386.603564 166.907288 
L 386.6712 166.990683 
L 386.82 167.273264 
L 387.009382 167.44467 
L 387.219055 168.11523 
L 387.239345 168.191827 
L 387.367855 168.399081 
L 387.442255 168.553698 
L 387.604582 169.141293 
L 387.672218 169.26015 
L 387.834545 169.803977 
L 387.996873 169.920518 
L 388.078036 170.036349 
L 388.240364 170.318299 
L 388.429745 170.429389 
L 388.659709 171.043539 
L 388.808509 172.082165 
L 388.957309 172.550637 
L 389.166982 172.724045 
L 389.376655 173.55166 
L 389.613382 174.156772 
L 389.809527 175.3242 
L 390.215345 176.218886 
L 390.323564 176.373479 
L 390.479127 176.868885 
L 390.526473 176.980196 
L 390.695564 177.392703 
L 390.715855 177.469966 
L 390.871418 178.226031 
L 390.966109 178.361632 
L 391.155491 178.683458 
L 391.351636 179.517895 
L 391.371927 179.597718 
L 391.8048 183.13265 
L 391.926545 183.247959 
L 392.230909 184.555881 
L 392.278255 184.660231 
L 392.420291 184.940234 
L 392.501455 185.095191 
L 392.650255 185.403041 
L 392.853164 186.571158 
L 393.062836 187.980246 
L 393.225164 188.970054 
L 393.637745 190.206551 
L 393.725673 190.307703 
L 393.827127 191.045966 
L 394.023273 192.773376 
L 394.138255 192.902164 
L 394.314109 192.979755 
L 394.354691 193.090363 
L 394.422327 193.506539 
L 394.733455 197.550525 
L 394.794327 197.672607 
L 395.193382 199.264065 
L 395.463927 204.220821 
L 395.578909 205.385036 
L 395.720945 207.328559 
L 395.775055 207.969578 
L 395.910327 208.625853 
L 395.930618 208.682501 
L 396.600218 219.24591 
L 396.776073 222.802893 
L 397.033091 225.239094 
L 397.046618 225.326355 
L 397.222473 227.202873 
L 397.236 227.255018 
L 397.912364 246.476678 
L 398.067927 255.25038 
L 398.094982 255.43274 
L 398.297891 266.206475 
L 398.480509 295.488 
L 398.480509 295.488 
" clip-path="url(#pf02ab32fa3)" style="fill: none; stroke: #1f77b4; stroke-width: 1.5; stroke-linecap: square"/>
   </g>
   <g id="line2d_17">
    <path d="M 137.958764 59.803734 
L 326.833309 134.605911 
" clip-path="url(#pf02ab32fa3)" style="fill: none; stroke-dasharray: 5.55,2.4; stroke-dashoffset: 0; stroke: #ff7f0e; stroke-width: 1.5"/>
   </g>
   <g id="line2d_18">
    <path d="M 73.832727 128.372226 
L 398.487273 128.372226 
L 398.487273 128.372226 
" clip-path="url(#pf02ab32fa3)" style="fill: none; stroke-dasharray: 5.55,2.4; stroke-dashoffset: 0; stroke: #2ca02c; stroke-width: 1.5"/>
   </g>
   <g id="LineCollection_1">
    <path d="M 326.833309 295.488 
L 326.833309 53.568 
" clip-path="url(#pf02ab32fa3)" style="fill: none; stroke-dasharray: 5.55,2.4; stroke-dashoffset: 0; stroke: #1f77b4; stroke-width: 1.5"/>
   </g>
   <g id="patch_3">
    <path d="M 57.6 307.584 
L 57.6 41.472 
" style="fill: none; stroke: #000000; stroke-width: 0.8; stroke-linejoin: miter; stroke-linecap: square"/>
   </g>
   <g id="patch_4">
    <path d="M 414.72 307.584 
L 414.72 41.472 
" style="fill: none; stroke: #000000; stroke-width: 0.8; stroke-linejoin: miter; stroke-linecap: square"/>
   </g>
   <g id="patch_5">
    <path d="M 57.6 307.584 
L 414.72 307.584 
" style="fill: none; stroke: #000000; stroke-width: 0.8; stroke-linejoin: miter; stroke-linecap: square"/>
   </g>
   <g id="patch_6">
    <path d="M 57.6 41.472 
L 414.72 41.472 
" style="fill: none; stroke: #000000; stroke-width: 0.8; stroke-linejoin: miter; stroke-linecap: square"/>
   </g>
   <g id="text_16">
    <!-- Energy Decay - 4000 Hz -->
    <g transform="translate(163.59 35.472) scale(0.12 -0.12)">
     <defs>
      <path id="DejaVuSans-45" d="M 628 4666 
L 3578 4666 
L 3578 4134 
L 1259 4134 
L 1259 2753 
L 3481 2753 
L 3481 2222 
L 1259 2222 
L 1259 531 
L 3634 531 
L 3634 0 
L 628 0 
L 628 4666 
z
" transform="scale(0.015625)"/>
      <path id="DejaVuSans-6e" d="M 3513 2113 
L 3513 0 
L 2938 0 
L 2938 2094 
Q 2938 2591 2744 2837 
Q 2550 3084 2163 3084 
Q 1697 3084 1428 2787 
Q 1159 2491 1159 1978 
L 1159 0 
L 581 0 
L 581 3500 
L 1159 3500 
L 1159 2956 
Q 1366 3272 1645 3428 
Q 1925 3584 2291 3584 
Q 2894 3584 3203 3211 
Q 3513 2838 3513 2113 
z
" transform="scale(0.015625)"/>
      <path id="DejaVuSans-65" d="M 3597 1894 
L 3597 1613 
L 953 1613 
Q 991 1019 1311 708 
Q 1631 397 2203 397 
Q 2534 397 2845 478 
Q 3156 559 3463 722 
L 3463 178 
Q 3153 47 2828 -22 
Q 2503 -91 2169 -91 
Q 1331 -91 842 396 
Q 353 884 353 1716 
Q 353 2575 817 3079 
Q 1281 3584 2069 3584 
Q 2775 3584 3186 3129 
Q 3597 2675 3597 1894 
z
M 3022 2063 
Q 3016 2534 2758 2815 
Q 2500 3097 2075 3097 
Q 1594 3097 1305 2825 
Q 1016 2553 972 2059 
L 3022 2063 
z
" transform="scale(0.015625)"/>
      <path id="DejaVuSans-72" d="M 2631 2963 
Q 2534 3019 2420 3045 
Q 2306 3072 2169 3072 
Q 1681 3072 1420 2755 
Q 1159 2438 1159 1844 
L 1159 0 
L 581 0 
L 581 3500 
L 1159 3500 
L 1159 2956 
Q 1341 3275 1631 3429 
Q 1922 3584 2338 3584 
Q 2397 3584 2469 3576 
Q 2541 3569 2628 3553 
L 2631 2963 
z
" transform="scale(0.015625)"/>
      <path id="DejaVuSans-67" d="M 2906 1791 
Q 2906 2416 2648 2759 
Q 2391 3103 1925 3103 
Q 1463 3103 1205 2759 
Q 947 2416 947 1791 
Q 947 1169 1205 825 
Q 1463 481 1925 481 
Q 2391 481 2648 825 
Q 2906 1169 2906 1791 
z
M 3481 434 
Q 3481 -459 3084 -895 
Q 2688 -1331 1869 -1331 
Q 1566 -1331 1297 -1286 
Q 1028 -1241 775 -1147 
L 775 -588 
Q 1028 -725 1275 -790 
Q 1522 -856 1778 -856 
Q 2344 -856 2625 -561 
Q 2906 -266 2906 331 
L 2906 616 
Q 2728 306 2450 153 
Q 2172 0 1784 0 
Q 1141 0 747 490 
Q 353 981 353 1791 
Q 353 2603 747 3093 
Q 1141 3584 1784 3584 
Q 2172 3584 2450 3431 
Q 2728 3278 2906 2969 
L 2906 3500 
L 3481 3500 
L 3481 434 
z
" transform="scale(0.015625)"/>
      <path id="DejaVuSans-79" d="M 2059 -325 
Q 1816 -950 1584 -1140 
Q 1353 -1331 966 -1331 
L 506 -1331 
L 506 -850 
L 844 -850 
Q 1081 -850 1212 -737 
Q 1344 -625 1503 -206 
L 1606 56 
L 191 3500 
L 800 3500 
L 1894 763 
L 2988 3500 
L 3597 3500 
L 2059 -325 
z
" transform="scale(0.015625)"/>
      <path id="DejaVuSans-20" transform="scale(0.015625)"/>
      <path id="DejaVuSans-44" d="M 1259 4147 
L 1259 519 
L 2022 519 
Q 2988 519 3436 956 
Q 3884 1394 3884 2338 
Q 3884 3275 3436 3711 
Q 2988 4147 2022 4147 
L 1259 4147 
z
M 628 4666 
L 1925 4666 
Q 3281 4666 3915 4102 
Q 4550 3538 4550 2338 
Q 4550 1131 3912 565 
Q 3275 0 1925 0 
L 628 0 
L 628 4666 
z
" transform="scale(0.015625)"/>
      <path id="DejaVuSans-63" d="M 3122 3366 
L 3122 2828 
Q 2878 2963 2633 3030 
Q 2388 3097 2138 3097 
Q 1578 3097 1268 2742 
Q 959 2388 959 1747 
Q 959 1106 1268 751 
Q 1578 397 2138 397 
Q 2388 397 2633 464 
Q 2878 531 3122 666 
L 3122 134 
Q 2881 22 2623 -34 
Q 2366 -91 2075 -91 
Q 1284 -91 818 406 
Q 353 903 353 1747 
Q 353 2603 823 3093 
Q 1294 3584 2113 3584 
Q 2378 3584 2631 3529 
Q 2884 3475 3122 3366 
z
" transform="scale(0.015625)"/>
      <path id="DejaVuSans-61" d="M 2194 1759 
Q 1497 1759 1228 1600 
Q 959 1441 959 1056 
Q 959 750 1161 570 
Q 1363 391 1709 391 
Q 2188 391 2477 730 
Q 2766 1069 2766 1631 
L 2766 1759 
L 2194 1759 
z
M 3341 1997 
L 3341 0 
L 2766 0 
L 2766 531 
Q 2569 213 2275 61 
Q 1981 -91 1556 -91 
Q 1019 -91 701 211 
Q 384 513 384 1019 
Q 384 1609 779 1909 
Q 1175 2209 1959 2209 
L 2766 2209 
L 2766 2266 
Q 2766 2663 2505 2880 
Q 2244 3097 1772 3097 
Q 1472 3097 1187 3025 
Q 903 2953 641 2809 
L 641 3341 
Q 956 3463 1253 3523 
Q 1550 3584 1831 3584 
Q 2591 3584 2966 3190 
Q 3341 2797 3341 1997 
z
" transform="scale(0.015625)"/>
      <path id="DejaVuSans-2d" d="M 313 2009 
L 1997 2009 
L 1997 1497 
L 313 1497 
L 313 2009 
z
" transform="scale(0.015625)"/>
      <path id="DejaVuSans-48" d="M 628 4666 
L 1259 4666 
L 1259 2753 
L 3553 2753 
L 3553 4666 
L 4184 4666 
L 4184 0 
L 3553 0 
L 3553 2222 
L 1259 2222 
L 1259 0 
L 628 0 
L 628 4666 
z
" transform="scale(0.015625)"/>
      <path id="DejaVuSans-7a" d="M 353 3500 
L 3084 3500 
L 3084 2975 
L 922 459 
L 3084 459 
L 3084 0 
L 275 0 
L 275 525 
L 2438 3041 
L 353 3041 
L 353 3500 
z
" transform="scale(0.015625)"/>
     </defs>
     <use xlink:href="#DejaVuSans-45"/>
     <use xlink:href="#DejaVuSans-6e" transform="translate(63.183594 0)"/>
     <use xlink:href="#DejaVuSans-65" transform="translate(126.5625 0)"/>
     <use xlink:href="#DejaVuSans-72" transform="translate(188.085938 0)"/>
     <use xlink:href="#DejaVuSans-67" transform="translate(227.449219 0)"/>
     <use xlink:href="#DejaVuSans-79" transform="translate(290.925781 0)"/>
     <use xlink:href="#DejaVuSans-20" transform="translate(350.105469 0)"/>
     <use xlink:href="#DejaVuSans-44" transform="translate(381.892578 0)"/>
     <use xlink:href="#DejaVuSans-65" transform="translate(458.894531 0)"/>
     <use xlink:href="#DejaVuSans-63" transform="translate(520.417969 0)"/>
     <use xlink:href="#DejaVuSans-61" transform="translate(575.398438 0)"/>
     <use xlink:href="#DejaVuSans-79" transform="translate(636.677734 0)"/>
     <use xlink:href="#DejaVuSans-20" transform="translate(695.857422 0)"/>
     <use xlink:href="#DejaVuSans-2d" transform="translate(727.644531 0)"/>
     <use xlink:href="#DejaVuSans-20" transform="translate(763.728516 0)"/>
     <use xlink:href="#DejaVuSans-34" transform="translate(795.515625 0)"/>
     <use xlink:href="#DejaVuSans-30" transform="translate(859.138672 0)"/>
     <use xlink:href="#DejaVuSans-30" transform="translate(922.761719 0)"/>
     <use xlink:href="#DejaVuSans-30" transform="translate(986.384766 0)"/>
     <use xlink:href="#DejaVuSans-20" transform="translate(1050.007812 0)"/>
     <use xlink:href="#DejaVuSans-48" transform="translate(1081.794922 0)"/>
     <use xlink:href="#DejaVuSans-7a" transform="translate(1156.990234 0)"/>
    </g>
   </g>
   <g id="legend_1">
    <g id="patch_7">
     <path d="M 296.968437 108.1845 
L 407.72 108.1845 
Q 409.72 108.1845 409.72 106.1845 
L 409.72 48.472 
Q 409.72 46.472 407.72 46.472 
L 296.968437 46.472 
Q 294.968437 46.472 294.968437 48.472 
L 294.968437 106.1845 
Q 294.968437 108.1845 296.968437 108.1845 
z
" style="fill: #ffffff; opacity: 0.8; stroke: #cccccc; stroke-linejoin: miter"/>
    </g>
    <g id="line2d_19">
     <path d="M 298.968437 54.570438 
L 308.968437 54.570438 
L 318.968437 54.570438 
" style="fill: none; stroke: #1f77b4; stroke-width: 1.5; stroke-linecap: square"/>
    </g>
    <g id="text_17">
     <!-- Energy -->
     <g transform="translate(326.968437 58.070438) scale(0.1 -0.1)">
      <use xlink:href="#DejaVuSans-45"/>
      <use xlink:href="#DejaVuSans-6e" transform="translate(63.183594 0)"/>
      <use xlink:href="#DejaVuSans-65" transform="translate(126.5625 0)"/>
      <use xlink:href="#DejaVuSans-72" transform="translate(188.085938 0)"/>
      <use xlink:href="#DejaVuSans-67" transform="translate(227.449219 0)"/>
      <use xlink:href="#DejaVuSans-79" transform="translate(290.925781 0)"/>
     </g>
    </g>
    <g id="line2d_20">
     <path d="M 298.968437 69.248563 
L 308.968437 69.248563 
L 318.968437 69.248563 
" style="fill: none; stroke-dasharray: 5.55,2.4; stroke-dashoffset: 0; stroke: #ff7f0e; stroke-width: 1.5"/>
    </g>
    <g id="text_18">
     <!-- Linear Fit -->
     <g transform="translate(326.968437 72.748563) scale(0.1 -0.1)">
      <defs>
       <path id="DejaVuSans-4c" d="M 628 4666 
L 1259 4666 
L 1259 531 
L 3531 531 
L 3531 0 
L 628 0 
L 628 4666 
z
" transform="scale(0.015625)"/>
       <path id="DejaVuSans-69" d="M 603 3500 
L 1178 3500 
L 1178 0 
L 603 0 
L 603 3500 
z
M 603 4863 
L 1178 4863 
L 1178 4134 
L 603 4134 
L 603 4863 
z
" transform="scale(0.015625)"/>
       <path id="DejaVuSans-46" d="M 628 4666 
L 3309 4666 
L 3309 4134 
L 1259 4134 
L 1259 2759 
L 3109 2759 
L 3109 2228 
L 1259 2228 
L 1259 0 
L 628 0 
L 628 4666 
z
" transform="scale(0.015625)"/>
       <path id="DejaVuSans-74" d="M 1172 4494 
L 1172 3500 
L 2356 3500 
L 2356 3053 
L 1172 3053 
L 1172 1153 
Q 1172 725 1289 603 
Q 1406 481 1766 481 
L 2356 481 
L 2356 0 
L 1766 0 
Q 1100 0 847 248 
Q 594 497 594 1153 
L 594 3053 
L 172 3053 
L 172 3500 
L 594 3500 
L 594 4494 
L 1172 4494 
z
" transform="scale(0.015625)"/>
      </defs>
      <use xlink:href="#DejaVuSans-4c"/>
      <use xlink:href="#DejaVuSans-69" transform="translate(55.712891 0)"/>
      <use xlink:href="#DejaVuSans-6e" transform="translate(83.496094 0)"/>
      <use xlink:href="#DejaVuSans-65" transform="translate(146.875 0)"/>
      <use xlink:href="#DejaVuSans-61" transform="translate(208.398438 0)"/>
      <use xlink:href="#DejaVuSans-72" transform="translate(269.677734 0)"/>
      <use xlink:href="#DejaVuSans-20" transform="translate(310.791016 0)"/>
      <use xlink:href="#DejaVuSans-46" transform="translate(342.578125 0)"/>
      <use xlink:href="#DejaVuSans-69" transform="translate(392.847656 0)"/>
      <use xlink:href="#DejaVuSans-74" transform="translate(420.630859 0)"/>
     </g>
    </g>
    <g id="line2d_21">
     <path d="M 298.968437 83.926688 
L 308.968437 83.926688 
L 318.968437 83.926688 
" style="fill: none; stroke-dasharray: 5.55,2.4; stroke-dashoffset: 0; stroke: #2ca02c; stroke-width: 1.5"/>
    </g>
    <g id="text_19">
     <!-- -60 dB -->
     <g transform="translate(326.968437 87.426688) scale(0.1 -0.1)">
      <defs>
       <path id="DejaVuSans-64" d="M 2906 2969 
L 2906 4863 
L 3481 4863 
L 3481 0 
L 2906 0 
L 2906 525 
Q 2725 213 2448 61 
Q 2172 -91 1784 -91 
Q 1150 -91 751 415 
Q 353 922 353 1747 
Q 353 2572 751 3078 
Q 1150 3584 1784 3584 
Q 2172 3584 2448 3432 
Q 2725 3281 2906 2969 
z
M 947 1747 
Q 947 1113 1208 752 
Q 1469 391 1925 391 
Q 2381 391 2643 752 
Q 2906 1113 2906 1747 
Q 2906 2381 2643 2742 
Q 2381 3103 1925 3103 
Q 1469 3103 1208 2742 
Q 947 2381 947 1747 
z
" transform="scale(0.015625)"/>
       <path id="DejaVuSans-42" d="M 1259 2228 
L 1259 519 
L 2272 519 
Q 2781 519 3026 730 
Q 3272 941 3272 1375 
Q 3272 1813 3026 2020 
Q 2781 2228 2272 2228 
L 1259 2228 
z
M 1259 4147 
L 1259 2741 
L 2194 2741 
Q 2656 2741 2882 2914 
Q 3109 3088 3109 3444 
Q 3109 3797 2882 3972 
Q 2656 4147 2194 4147 
L 1259 4147 
z
M 628 4666 
L 2241 4666 
Q 2963 4666 3353 4366 
Q 3744 4066 3744 3513 
Q 3744 3084 3544 2831 
Q 3344 2578 2956 2516 
Q 3422 2416 3680 2098 
Q 3938 1781 3938 1306 
Q 3938 681 3513 340 
Q 3088 0 2303 0 
L 628 0 
L 628 4666 
z
" transform="scale(0.015625)"/>
      </defs>
      <use xlink:href="#DejaVuSans-2d"/>
      <use xlink:href="#DejaVuSans-36" transform="translate(36.083984 0)"/>
      <use xlink:href="#DejaVuSans-30" transform="translate(99.707031 0)"/>
      <use xlink:href="#DejaVuSans-20" transform="translate(163.330078 0)"/>
      <use xlink:href="#DejaVuSans-64" transform="translate(195.117188 0)"/>
      <use xlink:href="#DejaVuSans-42" transform="translate(258.59375 0)"/>
     </g>
    </g>
    <g id="line2d_22">
     <path d="M 298.968437 98.604813 
L 318.968437 98.604813 
" style="fill: none; stroke-dasharray: 5.55,2.4; stroke-dashoffset: 0; stroke: #1f77b4; stroke-width: 1.5"/>
    </g>
    <g id="text_20">
     <!-- Estimated RT60 -->
     <g transform="translate(326.968437 102.104813) scale(0.1 -0.1)">
      <defs>
       <path id="DejaVuSans-73" d="M 2834 3397 
L 2834 2853 
Q 2591 2978 2328 3040 
Q 2066 3103 1784 3103 
Q 1356 3103 1142 2972 
Q 928 2841 928 2578 
Q 928 2378 1081 2264 
Q 1234 2150 1697 2047 
L 1894 2003 
Q 2506 1872 2764 1633 
Q 3022 1394 3022 966 
Q 3022 478 2636 193 
Q 2250 -91 1575 -91 
Q 1294 -91 989 -36 
Q 684 19 347 128 
L 347 722 
Q 666 556 975 473 
Q 1284 391 1588 391 
Q 1994 391 2212 530 
Q 2431 669 2431 922 
Q 2431 1156 2273 1281 
Q 2116 1406 1581 1522 
L 1381 1569 
Q 847 1681 609 1914 
Q 372 2147 372 2553 
Q 372 3047 722 3315 
Q 1072 3584 1716 3584 
Q 2034 3584 2315 3537 
Q 2597 3491 2834 3397 
z
" transform="scale(0.015625)"/>
       <path id="DejaVuSans-6d" d="M 3328 2828 
Q 3544 3216 3844 3400 
Q 4144 3584 4550 3584 
Q 5097 3584 5394 3201 
Q 5691 2819 5691 2113 
L 5691 0 
L 5113 0 
L 5113 2094 
Q 5113 2597 4934 2840 
Q 4756 3084 4391 3084 
Q 3944 3084 3684 2787 
Q 3425 2491 3425 1978 
L 3425 0 
L 2847 0 
L 2847 2094 
Q 2847 2600 2669 2842 
Q 2491 3084 2119 3084 
Q 1678 3084 1418 2786 
Q 1159 2488 1159 1978 
L 1159 0 
L 581 0 
L 581 3500 
L 1159 3500 
L 1159 2956 
Q 1356 3278 1631 3431 
Q 1906 3584 2284 3584 
Q 2666 3584 2933 3390 
Q 3200 3197 3328 2828 
z
" transform="scale(0.015625)"/>
       <path id="DejaVuSans-52" d="M 2841 2188 
Q 3044 2119 3236 1894 
Q 3428 1669 3622 1275 
L 4263 0 
L 3584 0 
L 2988 1197 
Q 2756 1666 2539 1819 
Q 2322 1972 1947 1972 
L 1259 1972 
L 1259 0 
L 628 0 
L 628 4666 
L 2053 4666 
Q 2853 4666 3247 4331 
Q 3641 3997 3641 3322 
Q 3641 2881 3436 2590 
Q 3231 2300 2841 2188 
z
M 1259 4147 
L 1259 2491 
L 2053 2491 
Q 2509 2491 2742 2702 
Q 2975 2913 2975 3322 
Q 2975 3731 2742 3939 
Q 2509 4147 2053 4147 
L 1259 4147 
z
" transform="scale(0.015625)"/>
       <path id="DejaVuSans-54" d="M -19 4666 
L 3928 4666 
L 3928 4134 
L 2272 4134 
L 2272 0 
L 1638 0 
L 1638 4134 
L -19 4134 
L -19 4666 
z
" transform="scale(0.015625)"/>
      </defs>
      <use xlink:href="#DejaVuSans-45"/>
      <use xlink:href="#DejaVuSans-73" transform="translate(63.183594 0)"/>
      <use xlink:href="#DejaVuSans-74" transform="translate(115.283203 0)"/>
      <use xlink:href="#DejaVuSans-69" transform="translate(154.492188 0)"/>
      <use xlink:href="#DejaVuSans-6d" transform="translate(182.275391 0)"/>
      <use xlink:href="#DejaVuSans-61" transform="translate(279.6875 0)"/>
      <use xlink:href="#DejaVuSans-74" transform="translate(340.966797 0)"/>
      <use xlink:href="#DejaVuSans-65" transform="translate(380.175781 0)"/>
      <use xlink:href="#DejaVuSans-64" transform="translate(441.699219 0)"/>
      <use xlink:href="#DejaVuSans-20" transform="translate(505.175781 0)"/>
      <use xlink:href="#DejaVuSans-52" transform="translate(536.962891 0)"/>
      <use xlink:href="#DejaVuSans-54" transform="translate(599.195312 0)"/>
      <use xlink:href="#DejaVuSans-36" transform="translate(660.279297 0)"/>
      <use xlink:href="#DejaVuSans-30" transform="translate(723.902344 0)"/>
     </g>
    </g>
   </g>
  </g>
 </g>
 <defs>
  <clipPath id="pf02ab32fa3">
   <rect x="57.6" y="41.472" width="357.12" height="266.112"/>
  </clipPath>
 </defs>
</svg>
