<?xml version="1.0" encoding="utf-8" standalone="no"?>
<!DOCTYPE svg PUBLIC "-//W3C//DTD SVG 1.1//EN"
  "http://www.w3.org/Graphics/SVG/1.1/DTD/svg11.dtd">
<svg xmlns:xlink="http://www.w3.org/1999/xlink" width="460.8pt" height="345.6pt" viewBox="0 0 460.8 345.6" xmlns="http://www.w3.org/2000/svg" version="1.1">
 <metadata>
  <rdf:RDF xmlns:dc="http://purl.org/dc/elements/1.1/" xmlns:cc="http://creativecommons.org/ns#" xmlns:rdf="http://www.w3.org/1999/02/22-rdf-syntax-ns#">
   <cc:Work>
    <dc:type rdf:resource="http://purl.org/dc/dcmitype/StillImage"/>
    <dc:date>2025-05-07T13:32:26.477006</dc:date>
    <dc:format>image/svg+xml</dc:format>
    <dc:creator>
     <cc:Agent>
      <dc:title>Matplotlib v3.10.1, https://matplotlib.org/</dc:title>
     </cc:Agent>
    </dc:creator>
   </cc:Work>
  </rdf:RDF>
 </metadata>
 <defs>
  <style type="text/css">*{stroke-linejoin: round; stroke-linecap: butt}</style>
 </defs>
 <g id="figure_1">
  <g id="patch_1">
   <path d="M 0 345.6 
L 460.8 345.6 
L 460.8 0 
L 0 0 
z
" style="fill: #ffffff"/>
  </g>
  <g id="axes_1">
   <g id="patch_2">
    <path d="M 57.6 307.584 
L 414.72 307.584 
L 414.72 41.472 
L 57.6 41.472 
z
" style="fill: #ffffff"/>
   </g>
   <g id="matplotlib.axis_1">
    <g id="xtick_1">
     <g id="line2d_1">
      <defs>
       <path id="m75f61d0ddc" d="M 0 0 
L 0 3.5 
" style="stroke: #000000; stroke-width: 0.8"/>
      </defs>
      <g>
       <use xlink:href="#m75f61d0ddc" x="73.584727" y="307.584" style="stroke: #000000; stroke-width: 0.8"/>
      </g>
     </g>
     <g id="text_1">
      <!-- −0.2 -->
      <g transform="translate(61.443321 322.182437) scale(0.1 -0.1)">
       <defs>
        <path id="DejaVuSans-2212" d="M 678 2272 
L 4684 2272 
L 4684 1741 
L 678 1741 
L 678 2272 
z
" transform="scale(0.015625)"/>
        <path id="DejaVuSans-30" d="M 2034 4250 
Q 1547 4250 1301 3770 
Q 1056 3291 1056 2328 
Q 1056 1369 1301 889 
Q 1547 409 2034 409 
Q 2525 409 2770 889 
Q 3016 1369 3016 2328 
Q 3016 3291 2770 3770 
Q 2525 4250 2034 4250 
z
M 2034 4750 
Q 2819 4750 3233 4129 
Q 3647 3509 3647 2328 
Q 3647 1150 3233 529 
Q 2819 -91 2034 -91 
Q 1250 -91 836 529 
Q 422 1150 422 2328 
Q 422 3509 836 4129 
Q 1250 4750 2034 4750 
z
" transform="scale(0.015625)"/>
        <path id="DejaVuSans-2e" d="M 684 794 
L 1344 794 
L 1344 0 
L 684 0 
L 684 794 
z
" transform="scale(0.015625)"/>
        <path id="DejaVuSans-32" d="M 1228 531 
L 3431 531 
L 3431 0 
L 469 0 
L 469 531 
Q 828 903 1448 1529 
Q 2069 2156 2228 2338 
Q 2531 2678 2651 2914 
Q 2772 3150 2772 3378 
Q 2772 3750 2511 3984 
Q 2250 4219 1831 4219 
Q 1534 4219 1204 4116 
Q 875 4013 500 3803 
L 500 4441 
Q 881 4594 1212 4672 
Q 1544 4750 1819 4750 
Q 2544 4750 2975 4387 
Q 3406 4025 3406 3419 
Q 3406 3131 3298 2873 
Q 3191 2616 2906 2266 
Q 2828 2175 2409 1742 
Q 1991 1309 1228 531 
z
" transform="scale(0.015625)"/>
       </defs>
       <use xlink:href="#DejaVuSans-2212"/>
       <use xlink:href="#DejaVuSans-30" transform="translate(83.789062 0)"/>
       <use xlink:href="#DejaVuSans-2e" transform="translate(147.412109 0)"/>
       <use xlink:href="#DejaVuSans-32" transform="translate(179.199219 0)"/>
      </g>
     </g>
    </g>
    <g id="xtick_2">
     <g id="line2d_2">
      <g>
       <use xlink:href="#m75f61d0ddc" x="145.730182" y="307.584" style="stroke: #000000; stroke-width: 0.8"/>
      </g>
     </g>
     <g id="text_2">
      <!-- 0.0 -->
      <g transform="translate(137.778619 322.182437) scale(0.1 -0.1)">
       <use xlink:href="#DejaVuSans-30"/>
       <use xlink:href="#DejaVuSans-2e" transform="translate(63.623047 0)"/>
       <use xlink:href="#DejaVuSans-30" transform="translate(95.410156 0)"/>
      </g>
     </g>
    </g>
    <g id="xtick_3">
     <g id="line2d_3">
      <g>
       <use xlink:href="#m75f61d0ddc" x="217.875636" y="307.584" style="stroke: #000000; stroke-width: 0.8"/>
      </g>
     </g>
     <g id="text_3">
      <!-- 0.2 -->
      <g transform="translate(209.924074 322.182437) scale(0.1 -0.1)">
       <use xlink:href="#DejaVuSans-30"/>
       <use xlink:href="#DejaVuSans-2e" transform="translate(63.623047 0)"/>
       <use xlink:href="#DejaVuSans-32" transform="translate(95.410156 0)"/>
      </g>
     </g>
    </g>
    <g id="xtick_4">
     <g id="line2d_4">
      <g>
       <use xlink:href="#m75f61d0ddc" x="290.021091" y="307.584" style="stroke: #000000; stroke-width: 0.8"/>
      </g>
     </g>
     <g id="text_4">
      <!-- 0.4 -->
      <g transform="translate(282.069528 322.182437) scale(0.1 -0.1)">
       <defs>
        <path id="DejaVuSans-34" d="M 2419 4116 
L 825 1625 
L 2419 1625 
L 2419 4116 
z
M 2253 4666 
L 3047 4666 
L 3047 1625 
L 3713 1625 
L 3713 1100 
L 3047 1100 
L 3047 0 
L 2419 0 
L 2419 1100 
L 313 1100 
L 313 1709 
L 2253 4666 
z
" transform="scale(0.015625)"/>
       </defs>
       <use xlink:href="#DejaVuSans-30"/>
       <use xlink:href="#DejaVuSans-2e" transform="translate(63.623047 0)"/>
       <use xlink:href="#DejaVuSans-34" transform="translate(95.410156 0)"/>
      </g>
     </g>
    </g>
    <g id="xtick_5">
     <g id="line2d_5">
      <g>
       <use xlink:href="#m75f61d0ddc" x="362.166545" y="307.584" style="stroke: #000000; stroke-width: 0.8"/>
      </g>
     </g>
     <g id="text_5">
      <!-- 0.6 -->
      <g transform="translate(354.214983 322.182437) scale(0.1 -0.1)">
       <defs>
        <path id="DejaVuSans-36" d="M 2113 2584 
Q 1688 2584 1439 2293 
Q 1191 2003 1191 1497 
Q 1191 994 1439 701 
Q 1688 409 2113 409 
Q 2538 409 2786 701 
Q 3034 994 3034 1497 
Q 3034 2003 2786 2293 
Q 2538 2584 2113 2584 
z
M 3366 4563 
L 3366 3988 
Q 3128 4100 2886 4159 
Q 2644 4219 2406 4219 
Q 1781 4219 1451 3797 
Q 1122 3375 1075 2522 
Q 1259 2794 1537 2939 
Q 1816 3084 2150 3084 
Q 2853 3084 3261 2657 
Q 3669 2231 3669 1497 
Q 3669 778 3244 343 
Q 2819 -91 2113 -91 
Q 1303 -91 875 529 
Q 447 1150 447 2328 
Q 447 3434 972 4092 
Q 1497 4750 2381 4750 
Q 2619 4750 2861 4703 
Q 3103 4656 3366 4563 
z
" transform="scale(0.015625)"/>
       </defs>
       <use xlink:href="#DejaVuSans-30"/>
       <use xlink:href="#DejaVuSans-2e" transform="translate(63.623047 0)"/>
       <use xlink:href="#DejaVuSans-36" transform="translate(95.410156 0)"/>
      </g>
     </g>
    </g>
   </g>
   <g id="matplotlib.axis_2">
    <g id="ytick_1">
     <g id="line2d_6">
      <defs>
       <path id="m378a4b0152" d="M 0 0 
L -3.5 0 
" style="stroke: #000000; stroke-width: 0.8"/>
      </defs>
      <g>
       <use xlink:href="#m378a4b0152" x="57.6" y="306.248207" style="stroke: #000000; stroke-width: 0.8"/>
      </g>
     </g>
     <g id="text_6">
      <!-- −175 -->
      <g transform="translate(23.132812 310.047426) scale(0.1 -0.1)">
       <defs>
        <path id="DejaVuSans-31" d="M 794 531 
L 1825 531 
L 1825 4091 
L 703 3866 
L 703 4441 
L 1819 4666 
L 2450 4666 
L 2450 531 
L 3481 531 
L 3481 0 
L 794 0 
L 794 531 
z
" transform="scale(0.015625)"/>
        <path id="DejaVuSans-37" d="M 525 4666 
L 3525 4666 
L 3525 4397 
L 1831 0 
L 1172 0 
L 2766 4134 
L 525 4134 
L 525 4666 
z
" transform="scale(0.015625)"/>
        <path id="DejaVuSans-35" d="M 691 4666 
L 3169 4666 
L 3169 4134 
L 1269 4134 
L 1269 2991 
Q 1406 3038 1543 3061 
Q 1681 3084 1819 3084 
Q 2600 3084 3056 2656 
Q 3513 2228 3513 1497 
Q 3513 744 3044 326 
Q 2575 -91 1722 -91 
Q 1428 -91 1123 -41 
Q 819 9 494 109 
L 494 744 
Q 775 591 1075 516 
Q 1375 441 1709 441 
Q 2250 441 2565 725 
Q 2881 1009 2881 1497 
Q 2881 1984 2565 2268 
Q 2250 2553 1709 2553 
Q 1456 2553 1204 2497 
Q 953 2441 691 2322 
L 691 4666 
z
" transform="scale(0.015625)"/>
       </defs>
       <use xlink:href="#DejaVuSans-2212"/>
       <use xlink:href="#DejaVuSans-31" transform="translate(83.789062 0)"/>
       <use xlink:href="#DejaVuSans-37" transform="translate(147.412109 0)"/>
       <use xlink:href="#DejaVuSans-35" transform="translate(211.035156 0)"/>
      </g>
     </g>
    </g>
    <g id="ytick_2">
     <g id="line2d_7">
      <g>
       <use xlink:href="#m378a4b0152" x="57.6" y="270.151035" style="stroke: #000000; stroke-width: 0.8"/>
      </g>
     </g>
     <g id="text_7">
      <!-- −150 -->
      <g transform="translate(23.132812 273.950254) scale(0.1 -0.1)">
       <use xlink:href="#DejaVuSans-2212"/>
       <use xlink:href="#DejaVuSans-31" transform="translate(83.789062 0)"/>
       <use xlink:href="#DejaVuSans-35" transform="translate(147.412109 0)"/>
       <use xlink:href="#DejaVuSans-30" transform="translate(211.035156 0)"/>
      </g>
     </g>
    </g>
    <g id="ytick_3">
     <g id="line2d_8">
      <g>
       <use xlink:href="#m378a4b0152" x="57.6" y="234.053862" style="stroke: #000000; stroke-width: 0.8"/>
      </g>
     </g>
     <g id="text_8">
      <!-- −125 -->
      <g transform="translate(23.132812 237.853081) scale(0.1 -0.1)">
       <use xlink:href="#DejaVuSans-2212"/>
       <use xlink:href="#DejaVuSans-31" transform="translate(83.789062 0)"/>
       <use xlink:href="#DejaVuSans-32" transform="translate(147.412109 0)"/>
       <use xlink:href="#DejaVuSans-35" transform="translate(211.035156 0)"/>
      </g>
     </g>
    </g>
    <g id="ytick_4">
     <g id="line2d_9">
      <g>
       <use xlink:href="#m378a4b0152" x="57.6" y="197.95669" style="stroke: #000000; stroke-width: 0.8"/>
      </g>
     </g>
     <g id="text_9">
      <!-- −100 -->
      <g transform="translate(23.132812 201.755909) scale(0.1 -0.1)">
       <use xlink:href="#DejaVuSans-2212"/>
       <use xlink:href="#DejaVuSans-31" transform="translate(83.789062 0)"/>
       <use xlink:href="#DejaVuSans-30" transform="translate(147.412109 0)"/>
       <use xlink:href="#DejaVuSans-30" transform="translate(211.035156 0)"/>
      </g>
     </g>
    </g>
    <g id="ytick_5">
     <g id="line2d_10">
      <g>
       <use xlink:href="#m378a4b0152" x="57.6" y="161.859517" style="stroke: #000000; stroke-width: 0.8"/>
      </g>
     </g>
     <g id="text_10">
      <!-- −75 -->
      <g transform="translate(29.495313 165.658736) scale(0.1 -0.1)">
       <use xlink:href="#DejaVuSans-2212"/>
       <use xlink:href="#DejaVuSans-37" transform="translate(83.789062 0)"/>
       <use xlink:href="#DejaVuSans-35" transform="translate(147.412109 0)"/>
      </g>
     </g>
    </g>
    <g id="ytick_6">
     <g id="line2d_11">
      <g>
       <use xlink:href="#m378a4b0152" x="57.6" y="125.762345" style="stroke: #000000; stroke-width: 0.8"/>
      </g>
     </g>
     <g id="text_11">
      <!-- −50 -->
      <g transform="translate(29.495313 129.561564) scale(0.1 -0.1)">
       <use xlink:href="#DejaVuSans-2212"/>
       <use xlink:href="#DejaVuSans-35" transform="translate(83.789062 0)"/>
       <use xlink:href="#DejaVuSans-30" transform="translate(147.412109 0)"/>
      </g>
     </g>
    </g>
    <g id="ytick_7">
     <g id="line2d_12">
      <g>
       <use xlink:href="#m378a4b0152" x="57.6" y="89.665172" style="stroke: #000000; stroke-width: 0.8"/>
      </g>
     </g>
     <g id="text_12">
      <!-- −25 -->
      <g transform="translate(29.495313 93.464391) scale(0.1 -0.1)">
       <use xlink:href="#DejaVuSans-2212"/>
       <use xlink:href="#DejaVuSans-32" transform="translate(83.789062 0)"/>
       <use xlink:href="#DejaVuSans-35" transform="translate(147.412109 0)"/>
      </g>
     </g>
    </g>
    <g id="ytick_8">
     <g id="line2d_13">
      <g>
       <use xlink:href="#m378a4b0152" x="57.6" y="53.568" style="stroke: #000000; stroke-width: 0.8"/>
      </g>
     </g>
     <g id="text_13">
      <!-- 0 -->
      <g transform="translate(44.2375 57.367219) scale(0.1 -0.1)">
       <use xlink:href="#DejaVuSans-30"/>
      </g>
     </g>
    </g>
   </g>
   <g id="line2d_14">
    <path d="M 73.832727 53.568 
L 132.924364 53.673763 
L 133.908848 54.474211 
L 134.675394 54.867441 
L 135.013576 55.17253 
L 135.689939 55.319717 
L 136.163394 55.439011 
L 138.275152 55.836711 
L 139.67297 57.848441 
L 140.063758 57.866466 
L 141.318788 57.999456 
L 141.68703 58.236166 
L 141.93503 58.459845 
L 142.536242 58.783054 
L 142.829333 58.914594 
L 143.400485 59.374022 
L 143.738667 59.461986 
L 144.850909 59.570487 
L 145.309333 60.112383 
L 145.504727 60.379907 
L 145.609939 60.489018 
L 145.925576 60.940025 
L 146.128485 61.049268 
L 146.474182 61.281944 
L 146.962667 61.603604 
L 147.421091 61.733107 
L 148.12 62.198115 
L 148.322909 62.335939 
L 148.616 62.358352 
L 149.081939 62.471816 
L 149.570424 62.616633 
L 150.246788 62.785024 
L 150.58497 62.900565 
L 151.614545 63.492869 
L 151.82497 63.585619 
L 152.080485 63.748635 
L 152.809455 64.157918 
L 153.057455 64.460678 
L 153.170182 64.602106 
L 153.403152 64.85368 
L 153.711273 64.979268 
L 154.838545 65.320572 
L 155.725333 65.731701 
L 155.950788 65.899558 
L 156.416727 66.017458 
L 157.258424 66.224362 
L 157.431273 66.354247 
L 158.227879 67.765037 
L 158.400727 67.90197 
L 158.566061 68.019131 
L 158.844121 68.177157 
L 159.122182 68.289972 
L 159.400242 68.338128 
L 160.234424 68.56828 
L 160.595152 69.175177 
L 160.768 69.383494 
L 160.850667 69.61837 
L 161.151273 70.600873 
L 161.256485 70.906646 
L 161.489455 71.426606 
L 161.76 71.547627 
L 162.256 72.390646 
L 162.436364 72.670737 
L 162.526545 72.7947 
L 162.797091 73.235872 
L 162.962424 73.417437 
L 163.225455 73.509502 
L 163.646303 73.622021 
L 163.856727 73.732247 
L 164.352727 73.932195 
L 165.848242 74.357045 
L 166.081212 74.481053 
L 166.216485 74.7369 
L 166.404364 74.902946 
L 166.509576 75.065975 
L 166.727515 75.336654 
L 166.855273 75.479137 
L 167.058182 75.620705 
L 167.734545 75.791557 
L 168.177939 75.888278 
L 169.808727 76.006436 
L 170.462545 76.214238 
L 170.650424 76.327558 
L 170.943515 76.538933 
L 171.063758 76.786622 
L 171.266667 77.040582 
L 171.386909 77.161884 
L 171.642424 77.424953 
L 172.168485 77.537431 
L 172.566788 78.067032 
L 172.739636 78.246281 
L 172.852364 78.388262 
L 173.077818 78.619298 
L 173.64897 78.733723 
L 173.919515 78.932896 
L 174.926545 79.909176 
L 175.114424 80.108398 
L 175.227152 80.236782 
L 175.512727 80.611258 
L 175.723152 80.723432 
L 176.076364 80.965244 
L 176.211636 81.186894 
L 176.429576 81.418894 
L 176.542303 81.545697 
L 176.827879 81.925787 
L 176.955636 82.076749 
L 177.188606 82.285697 
L 177.444121 82.396067 
L 177.759758 82.44617 
L 178.481212 82.577632 
L 178.616485 82.756903 
L 178.879515 83.089523 
L 178.977212 83.223095 
L 179.623515 84.812732 
L 180.284848 85.20646 
L 180.465212 85.364542 
L 180.698182 85.476402 
L 180.878545 85.696065 
L 181.36703 85.992258 
L 181.592485 86.107671 
L 181.893091 86.190092 
L 182.141091 86.303438 
L 182.419152 86.378775 
L 182.682182 86.49669 
L 183.238303 86.752837 
L 184.696242 87.009762 
L 185.628121 87.507582 
L 186.349576 87.548194 
L 187.439273 87.731669 
L 188.123152 88.658148 
L 188.356121 89.132751 
L 188.476364 89.250437 
L 188.739394 89.532441 
L 189.423273 89.717691 
L 189.776485 89.805146 
L 190.26497 89.839431 
L 190.768485 89.959128 
L 191.324606 90.541262 
L 191.940848 90.725091 
L 192.534545 91.108334 
L 192.77503 91.21767 
L 193.038061 91.350904 
L 193.849697 91.504703 
L 194.653818 92.184075 
L 194.879273 92.27311 
L 195.074667 92.376832 
L 195.743515 93.189431 
L 196.825697 93.299817 
L 197.246545 93.514062 
L 199.47103 95.359856 
L 200.012121 95.64543 
L 200.68097 96.38869 
L 200.876364 96.503531 
L 201.402424 97.721508 
L 201.597818 98.21478 
L 201.680485 98.346578 
L 202.003636 99.058787 
L 202.717576 99.256529 
L 203.604364 99.691946 
L 203.927515 100.192758 
L 204.416 100.463153 
L 205.430545 100.578991 
L 205.821333 100.712195 
L 206.001697 100.827974 
L 206.287273 101.058586 
L 206.452606 101.221403 
L 206.685576 101.328919 
L 207.046303 101.438166 
L 207.87297 101.602687 
L 208.64703 101.713459 
L 209.736727 101.998468 
L 210.420606 102.215789 
L 210.788848 102.328537 
L 211.337455 102.482159 
L 211.901091 102.723363 
L 212.750303 102.984835 
L 213.073455 103.163631 
L 213.997818 103.247971 
L 214.516364 103.35756 
L 214.997333 103.937817 
L 215.207758 104.180052 
L 215.34303 104.292964 
L 215.598545 104.4889 
L 216.568 104.603076 
L 217.236848 104.882062 
L 217.79297 105.970899 
L 217.958303 106.089357 
L 218.056 106.315748 
L 218.326545 106.941826 
L 218.476848 107.050023 
L 218.837576 107.409251 
L 219.002909 107.518714 
L 219.296 107.772389 
L 220.821576 108.272021 
L 223.181333 108.439155 
L 223.737455 108.534985 
L 225.23297 108.866839 
L 225.51103 109.038601 
L 225.706424 109.151045 
L 226.037091 109.412156 
L 226.164848 109.55958 
L 226.457939 109.92568 
L 226.630788 110.031311 
L 228.088727 111.945986 
L 228.569697 111.991289 
L 229.005576 112.104417 
L 229.403879 112.511058 
L 229.621818 112.853982 
L 229.69697 113.004502 
L 230.478545 115.766861 
L 231.613333 116.542915 
L 232.056727 116.656218 
L 232.319758 116.73913 
L 234.589333 117.013931 
L 236.430545 117.184436 
L 238.294303 117.582788 
L 239.609455 117.924817 
L 240.338424 118.052769 
L 241.157576 118.655466 
L 241.368 118.797087 
L 241.668606 118.907346 
L 242.014303 119.086166 
L 242.577939 119.293975 
L 243.186667 119.406258 
L 243.742788 119.496098 
L 245.208242 119.611282 
L 245.704242 119.917771 
L 250.724364 120.820622 
L 251.02497 120.994037 
L 251.212848 121.11222 
L 251.498424 121.297355 
L 251.761455 121.410801 
L 252.077091 121.451307 
L 253.444848 121.57205 
L 254.504485 122.015024 
L 255.962424 122.400083 
L 257.037091 123.334583 
L 257.984 123.547539 
L 258.562667 123.657441 
L 259.562182 123.831089 
L 261.741576 123.951853 
L 263.417455 124.120296 
L 264.116364 124.499744 
L 264.409455 124.627682 
L 264.69503 124.789341 
L 264.875394 124.910277 
L 265.153455 125.098458 
L 265.363879 125.234943 
L 265.641939 125.274801 
L 269.211636 125.730015 
L 269.985697 126.029854 
L 270.241212 126.200855 
L 270.376485 126.331133 
L 270.654545 126.641352 
L 270.902545 126.756282 
L 271.270788 126.816103 
L 271.578909 126.927042 
L 272.165091 127.034568 
L 275.065939 127.350874 
L 275.569455 127.581063 
L 276.786909 127.869442 
L 277.440727 128.387696 
L 277.771394 128.511389 
L 278.402667 128.622359 
L 279.244364 128.665685 
L 280.431758 128.834151 
L 280.980364 129.137398 
L 281.258424 129.201433 
L 281.626667 129.313427 
L 282.04 129.372146 
L 282.678788 129.568712 
L 282.911758 129.640074 
L 283.896242 129.776734 
L 284.760485 130.004775 
L 285.053576 130.071416 
L 285.76 130.174018 
L 286.308606 130.289866 
L 286.631758 130.436649 
L 287.285576 130.632775 
L 288.202424 130.874898 
L 288.690909 130.965572 
L 289.637818 130.98704 
L 291.464 131.097233 
L 292.050182 131.120498 
L 292.824242 131.234708 
L 295.762667 131.688758 
L 296.739636 131.799478 
L 301.451636 132.209504 
L 302.841939 132.322765 
L 304.044364 132.474635 
L 304.698182 132.755317 
L 305.502303 132.89937 
L 305.83297 132.990838 
L 306.960242 133.04676 
L 307.944727 133.154874 
L 308.433212 133.253786 
L 309.192242 133.366128 
L 309.620606 133.458481 
L 316.083636 134.250423 
L 316.534545 134.363001 
L 316.797576 134.457202 
L 318.248 135.074877 
L 319.480485 135.253575 
L 320.382303 135.447223 
L 321.193939 135.589932 
L 321.689939 135.817276 
L 323.501091 135.964045 
L 324.18497 136.019021 
L 325.560242 136.209146 
L 326.319273 136.323284 
L 328.198061 136.456324 
L 328.776727 136.559851 
L 329.821333 136.702035 
L 331.196606 137.030205 
L 331.564848 137.178019 
L 332.143515 137.24388 
L 332.932606 137.364463 
L 333.834424 137.516153 
L 334.540848 137.633528 
L 334.961697 137.685807 
L 335.713212 137.823647 
L 336.36703 137.851127 
L 343.130667 138.812374 
L 343.498909 138.998165 
L 345.490424 139.264116 
L 346.722909 139.37899 
L 347.241455 139.578365 
L 347.902788 139.626306 
L 348.594182 139.787299 
L 348.947394 139.851916 
L 349.713939 140.025249 
L 349.954424 140.134305 
L 350.833697 140.468634 
L 351.404848 140.542753 
L 352.186424 140.661922 
L 352.532121 140.781761 
L 352.975515 140.863983 
L 353.336242 141.054667 
L 353.817212 141.501486 
L 354.110303 141.532378 
L 354.846788 141.679211 
L 355.417939 141.733008 
L 356.695515 141.864241 
L 357.266667 142.27952 
L 357.612364 142.391231 
L 358.431515 142.679784 
L 358.679515 142.735892 
L 359.491152 142.921659 
L 360.16 143.312373 
L 360.483152 143.37242 
L 360.67103 143.483532 
L 361.219636 144.046021 
L 361.63297 144.163811 
L 362.031273 144.412692 
L 362.37697 144.961476 
L 362.745212 145.227205 
L 363.188606 145.334415 
L 363.624485 145.461844 
L 364.496242 145.584688 
L 365.345455 146.080126 
L 365.991758 146.248531 
L 366.322424 146.473721 
L 367.216727 146.866055 
L 367.412121 147.01204 
L 367.524848 147.16489 
L 367.765333 147.44779 
L 368.381576 147.591914 
L 368.952727 147.904841 
L 369.133091 148.045689 
L 369.584 148.236369 
L 369.734303 148.376179 
L 369.944727 148.457271 
L 370.763879 148.967863 
L 371.102061 149.551713 
L 371.380121 149.772373 
L 371.928727 149.902951 
L 372.206788 150.143093 
L 372.334545 150.518429 
L 372.522424 150.794354 
L 372.612606 150.929012 
L 372.920727 151.52233 
L 373.108606 151.75681 
L 373.326545 151.801644 
L 374.085576 151.986968 
L 374.709333 153.224718 
L 374.919758 153.905573 
L 374.994909 154.144808 
L 375.242909 154.932142 
L 375.348121 155.335739 
L 375.52097 155.627265 
L 375.611152 155.86802 
L 375.806545 156.214474 
L 375.904242 156.383381 
L 376.099636 156.5855 
L 376.625697 156.817544 
L 377.685333 158.183641 
L 377.895758 158.31154 
L 378.121212 158.437006 
L 379.248485 159.761143 
L 379.458909 160.269335 
L 379.534061 160.518301 
L 379.804606 161.434626 
L 379.909818 161.645317 
L 380.120242 161.918875 
L 380.593697 162.03247 
L 381.322667 163.309306 
L 381.495515 163.429479 
L 381.743515 163.688101 
L 382.21697 163.814396 
L 382.329697 164.194991 
L 382.525091 164.574224 
L 382.600242 164.743688 
L 382.930909 165.721588 
L 383.246545 166.094922 
L 384.614303 166.566369 
L 385.140364 167.025485 
L 385.456 167.157461 
L 385.636364 167.269497 
L 385.929455 167.491852 
L 386.102303 167.595236 
L 386.545697 168.682037 
L 386.816242 169.730268 
L 386.906424 169.877586 
L 387.169455 170.33473 
L 387.590303 170.441955 
L 387.710545 170.981922 
L 387.890909 171.367572 
L 387.958545 171.714395 
L 388.619879 176.909437 
L 388.995636 178.180364 
L 389.168485 178.291606 
L 389.942545 179.773808 
L 390.145455 179.912774 
L 390.972121 181.556884 
L 391.092364 181.680861 
L 391.242667 182.361827 
L 391.445576 182.898463 
L 391.520727 183.026073 
L 391.633455 183.997117 
L 391.843879 185.251027 
L 391.904 185.396532 
L 392.046788 186.75733 
L 392.204606 187.217367 
L 392.287273 187.412314 
L 392.482667 187.72288 
L 392.745697 188.023015 
L 393.106424 189.982648 
L 393.294303 191.176622 
L 393.361939 191.626513 
L 393.662545 193.986153 
L 393.940606 195.011479 
L 394.579394 196.975998 
L 394.834909 198.644838 
L 394.902545 199.018797 
L 395.654061 205.698816 
L 396.007273 206.106489 
L 396.360485 208.812497 
L 396.954182 220.552161 
L 397.570424 229.267477 
L 397.780848 234.542687 
L 397.863515 237.854288 
L 398.269333 258.734384 
L 398.306909 258.847624 
L 398.359515 260.783238 
L 398.442182 274.094245 
L 398.479758 295.488 
L 398.479758 295.488 
" clip-path="url(#p97bb941056)" style="fill: none; stroke: #1f77b4; stroke-width: 1.5; stroke-linecap: square"/>
   </g>
   <g id="line2d_15">
    <path d="M 145.730182 60.802788 
L 367.660121 147.420648 
" clip-path="url(#p97bb941056)" style="fill: none; stroke-dasharray: 5.55,2.4; stroke-dashoffset: 0; stroke: #ff7f0e; stroke-width: 1.5"/>
   </g>
   <g id="line2d_16">
    <path d="M 73.832727 140.201214 
L 398.487273 140.201214 
L 398.487273 140.201214 
" clip-path="url(#p97bb941056)" style="fill: none; stroke-dasharray: 5.55,2.4; stroke-dashoffset: 0; stroke: #2ca02c; stroke-width: 1.5"/>
   </g>
   <g id="LineCollection_1">
    <path d="M 367.660121 295.488 
L 367.660121 53.568 
" clip-path="url(#p97bb941056)" style="fill: none; stroke-dasharray: 5.55,2.4; stroke-dashoffset: 0; stroke: #1f77b4; stroke-width: 1.5"/>
   </g>
   <g id="patch_3">
    <path d="M 57.6 307.584 
L 57.6 41.472 
" style="fill: none; stroke: #000000; stroke-width: 0.8; stroke-linejoin: miter; stroke-linecap: square"/>
   </g>
   <g id="patch_4">
    <path d="M 414.72 307.584 
L 414.72 41.472 
" style="fill: none; stroke: #000000; stroke-width: 0.8; stroke-linejoin: miter; stroke-linecap: square"/>
   </g>
   <g id="patch_5">
    <path d="M 57.6 307.584 
L 414.72 307.584 
" style="fill: none; stroke: #000000; stroke-width: 0.8; stroke-linejoin: miter; stroke-linecap: square"/>
   </g>
   <g id="patch_6">
    <path d="M 57.6 41.472 
L 414.72 41.472 
" style="fill: none; stroke: #000000; stroke-width: 0.8; stroke-linejoin: miter; stroke-linecap: square"/>
   </g>
   <g id="text_14">
    <!-- Energy Decay - 500 Hz -->
    <g transform="translate(167.4075 35.472) scale(0.12 -0.12)">
     <defs>
      <path id="DejaVuSans-45" d="M 628 4666 
L 3578 4666 
L 3578 4134 
L 1259 4134 
L 1259 2753 
L 3481 2753 
L 3481 2222 
L 1259 2222 
L 1259 531 
L 3634 531 
L 3634 0 
L 628 0 
L 628 4666 
z
" transform="scale(0.015625)"/>
      <path id="DejaVuSans-6e" d="M 3513 2113 
L 3513 0 
L 2938 0 
L 2938 2094 
Q 2938 2591 2744 2837 
Q 2550 3084 2163 3084 
Q 1697 3084 1428 2787 
Q 1159 2491 1159 1978 
L 1159 0 
L 581 0 
L 581 3500 
L 1159 3500 
L 1159 2956 
Q 1366 3272 1645 3428 
Q 1925 3584 2291 3584 
Q 2894 3584 3203 3211 
Q 3513 2838 3513 2113 
z
" transform="scale(0.015625)"/>
      <path id="DejaVuSans-65" d="M 3597 1894 
L 3597 1613 
L 953 1613 
Q 991 1019 1311 708 
Q 1631 397 2203 397 
Q 2534 397 2845 478 
Q 3156 559 3463 722 
L 3463 178 
Q 3153 47 2828 -22 
Q 2503 -91 2169 -91 
Q 1331 -91 842 396 
Q 353 884 353 1716 
Q 353 2575 817 3079 
Q 1281 3584 2069 3584 
Q 2775 3584 3186 3129 
Q 3597 2675 3597 1894 
z
M 3022 2063 
Q 3016 2534 2758 2815 
Q 2500 3097 2075 3097 
Q 1594 3097 1305 2825 
Q 1016 2553 972 2059 
L 3022 2063 
z
" transform="scale(0.015625)"/>
      <path id="DejaVuSans-72" d="M 2631 2963 
Q 2534 3019 2420 3045 
Q 2306 3072 2169 3072 
Q 1681 3072 1420 2755 
Q 1159 2438 1159 1844 
L 1159 0 
L 581 0 
L 581 3500 
L 1159 3500 
L 1159 2956 
Q 1341 3275 1631 3429 
Q 1922 3584 2338 3584 
Q 2397 3584 2469 3576 
Q 2541 3569 2628 3553 
L 2631 2963 
z
" transform="scale(0.015625)"/>
      <path id="DejaVuSans-67" d="M 2906 1791 
Q 2906 2416 2648 2759 
Q 2391 3103 1925 3103 
Q 1463 3103 1205 2759 
Q 947 2416 947 1791 
Q 947 1169 1205 825 
Q 1463 481 1925 481 
Q 2391 481 2648 825 
Q 2906 1169 2906 1791 
z
M 3481 434 
Q 3481 -459 3084 -895 
Q 2688 -1331 1869 -1331 
Q 1566 -1331 1297 -1286 
Q 1028 -1241 775 -1147 
L 775 -588 
Q 1028 -725 1275 -790 
Q 1522 -856 1778 -856 
Q 2344 -856 2625 -561 
Q 2906 -266 2906 331 
L 2906 616 
Q 2728 306 2450 153 
Q 2172 0 1784 0 
Q 1141 0 747 490 
Q 353 981 353 1791 
Q 353 2603 747 3093 
Q 1141 3584 1784 3584 
Q 2172 3584 2450 3431 
Q 2728 3278 2906 2969 
L 2906 3500 
L 3481 3500 
L 3481 434 
z
" transform="scale(0.015625)"/>
      <path id="DejaVuSans-79" d="M 2059 -325 
Q 1816 -950 1584 -1140 
Q 1353 -1331 966 -1331 
L 506 -1331 
L 506 -850 
L 844 -850 
Q 1081 -850 1212 -737 
Q 1344 -625 1503 -206 
L 1606 56 
L 191 3500 
L 800 3500 
L 1894 763 
L 2988 3500 
L 3597 3500 
L 2059 -325 
z
" transform="scale(0.015625)"/>
      <path id="DejaVuSans-20" transform="scale(0.015625)"/>
      <path id="DejaVuSans-44" d="M 1259 4147 
L 1259 519 
L 2022 519 
Q 2988 519 3436 956 
Q 3884 1394 3884 2338 
Q 3884 3275 3436 3711 
Q 2988 4147 2022 4147 
L 1259 4147 
z
M 628 4666 
L 1925 4666 
Q 3281 4666 3915 4102 
Q 4550 3538 4550 2338 
Q 4550 1131 3912 565 
Q 3275 0 1925 0 
L 628 0 
L 628 4666 
z
" transform="scale(0.015625)"/>
      <path id="DejaVuSans-63" d="M 3122 3366 
L 3122 2828 
Q 2878 2963 2633 3030 
Q 2388 3097 2138 3097 
Q 1578 3097 1268 2742 
Q 959 2388 959 1747 
Q 959 1106 1268 751 
Q 1578 397 2138 397 
Q 2388 397 2633 464 
Q 2878 531 3122 666 
L 3122 134 
Q 2881 22 2623 -34 
Q 2366 -91 2075 -91 
Q 1284 -91 818 406 
Q 353 903 353 1747 
Q 353 2603 823 3093 
Q 1294 3584 2113 3584 
Q 2378 3584 2631 3529 
Q 2884 3475 3122 3366 
z
" transform="scale(0.015625)"/>
      <path id="DejaVuSans-61" d="M 2194 1759 
Q 1497 1759 1228 1600 
Q 959 1441 959 1056 
Q 959 750 1161 570 
Q 1363 391 1709 391 
Q 2188 391 2477 730 
Q 2766 1069 2766 1631 
L 2766 1759 
L 2194 1759 
z
M 3341 1997 
L 3341 0 
L 2766 0 
L 2766 531 
Q 2569 213 2275 61 
Q 1981 -91 1556 -91 
Q 1019 -91 701 211 
Q 384 513 384 1019 
Q 384 1609 779 1909 
Q 1175 2209 1959 2209 
L 2766 2209 
L 2766 2266 
Q 2766 2663 2505 2880 
Q 2244 3097 1772 3097 
Q 1472 3097 1187 3025 
Q 903 2953 641 2809 
L 641 3341 
Q 956 3463 1253 3523 
Q 1550 3584 1831 3584 
Q 2591 3584 2966 3190 
Q 3341 2797 3341 1997 
z
" transform="scale(0.015625)"/>
      <path id="DejaVuSans-2d" d="M 313 2009 
L 1997 2009 
L 1997 1497 
L 313 1497 
L 313 2009 
z
" transform="scale(0.015625)"/>
      <path id="DejaVuSans-48" d="M 628 4666 
L 1259 4666 
L 1259 2753 
L 3553 2753 
L 3553 4666 
L 4184 4666 
L 4184 0 
L 3553 0 
L 3553 2222 
L 1259 2222 
L 1259 0 
L 628 0 
L 628 4666 
z
" transform="scale(0.015625)"/>
      <path id="DejaVuSans-7a" d="M 353 3500 
L 3084 3500 
L 3084 2975 
L 922 459 
L 3084 459 
L 3084 0 
L 275 0 
L 275 525 
L 2438 3041 
L 353 3041 
L 353 3500 
z
" transform="scale(0.015625)"/>
     </defs>
     <use xlink:href="#DejaVuSans-45"/>
     <use xlink:href="#DejaVuSans-6e" transform="translate(63.183594 0)"/>
     <use xlink:href="#DejaVuSans-65" transform="translate(126.5625 0)"/>
     <use xlink:href="#DejaVuSans-72" transform="translate(188.085938 0)"/>
     <use xlink:href="#DejaVuSans-67" transform="translate(227.449219 0)"/>
     <use xlink:href="#DejaVuSans-79" transform="translate(290.925781 0)"/>
     <use xlink:href="#DejaVuSans-20" transform="translate(350.105469 0)"/>
     <use xlink:href="#DejaVuSans-44" transform="translate(381.892578 0)"/>
     <use xlink:href="#DejaVuSans-65" transform="translate(458.894531 0)"/>
     <use xlink:href="#DejaVuSans-63" transform="translate(520.417969 0)"/>
     <use xlink:href="#DejaVuSans-61" transform="translate(575.398438 0)"/>
     <use xlink:href="#DejaVuSans-79" transform="translate(636.677734 0)"/>
     <use xlink:href="#DejaVuSans-20" transform="translate(695.857422 0)"/>
     <use xlink:href="#DejaVuSans-2d" transform="translate(727.644531 0)"/>
     <use xlink:href="#DejaVuSans-20" transform="translate(763.728516 0)"/>
     <use xlink:href="#DejaVuSans-35" transform="translate(795.515625 0)"/>
     <use xlink:href="#DejaVuSans-30" transform="translate(859.138672 0)"/>
     <use xlink:href="#DejaVuSans-30" transform="translate(922.761719 0)"/>
     <use xlink:href="#DejaVuSans-20" transform="translate(986.384766 0)"/>
     <use xlink:href="#DejaVuSans-48" transform="translate(1018.171875 0)"/>
     <use xlink:href="#DejaVuSans-7a" transform="translate(1093.367188 0)"/>
    </g>
   </g>
   <g id="legend_1">
    <g id="patch_7">
     <path d="M 296.968437 108.1845 
L 407.72 108.1845 
Q 409.72 108.1845 409.72 106.1845 
L 409.72 48.472 
Q 409.72 46.472 407.72 46.472 
L 296.968437 46.472 
Q 294.968437 46.472 294.968437 48.472 
L 294.968437 106.1845 
Q 294.968437 108.1845 296.968437 108.1845 
z
" style="fill: #ffffff; opacity: 0.8; stroke: #cccccc; stroke-linejoin: miter"/>
    </g>
    <g id="line2d_17">
     <path d="M 298.968437 54.570438 
L 308.968437 54.570438 
L 318.968437 54.570438 
" style="fill: none; stroke: #1f77b4; stroke-width: 1.5; stroke-linecap: square"/>
    </g>
    <g id="text_15">
     <!-- Energy -->
     <g transform="translate(326.968437 58.070438) scale(0.1 -0.1)">
      <use xlink:href="#DejaVuSans-45"/>
      <use xlink:href="#DejaVuSans-6e" transform="translate(63.183594 0)"/>
      <use xlink:href="#DejaVuSans-65" transform="translate(126.5625 0)"/>
      <use xlink:href="#DejaVuSans-72" transform="translate(188.085938 0)"/>
      <use xlink:href="#DejaVuSans-67" transform="translate(227.449219 0)"/>
      <use xlink:href="#DejaVuSans-79" transform="translate(290.925781 0)"/>
     </g>
    </g>
    <g id="line2d_18">
     <path d="M 298.968437 69.248563 
L 308.968437 69.248563 
L 318.968437 69.248563 
" style="fill: none; stroke-dasharray: 5.55,2.4; stroke-dashoffset: 0; stroke: #ff7f0e; stroke-width: 1.5"/>
    </g>
    <g id="text_16">
     <!-- Linear Fit -->
     <g transform="translate(326.968437 72.748563) scale(0.1 -0.1)">
      <defs>
       <path id="DejaVuSans-4c" d="M 628 4666 
L 1259 4666 
L 1259 531 
L 3531 531 
L 3531 0 
L 628 0 
L 628 4666 
z
" transform="scale(0.015625)"/>
       <path id="DejaVuSans-69" d="M 603 3500 
L 1178 3500 
L 1178 0 
L 603 0 
L 603 3500 
z
M 603 4863 
L 1178 4863 
L 1178 4134 
L 603 4134 
L 603 4863 
z
" transform="scale(0.015625)"/>
       <path id="DejaVuSans-46" d="M 628 4666 
L 3309 4666 
L 3309 4134 
L 1259 4134 
L 1259 2759 
L 3109 2759 
L 3109 2228 
L 1259 2228 
L 1259 0 
L 628 0 
L 628 4666 
z
" transform="scale(0.015625)"/>
       <path id="DejaVuSans-74" d="M 1172 4494 
L 1172 3500 
L 2356 3500 
L 2356 3053 
L 1172 3053 
L 1172 1153 
Q 1172 725 1289 603 
Q 1406 481 1766 481 
L 2356 481 
L 2356 0 
L 1766 0 
Q 1100 0 847 248 
Q 594 497 594 1153 
L 594 3053 
L 172 3053 
L 172 3500 
L 594 3500 
L 594 4494 
L 1172 4494 
z
" transform="scale(0.015625)"/>
      </defs>
      <use xlink:href="#DejaVuSans-4c"/>
      <use xlink:href="#DejaVuSans-69" transform="translate(55.712891 0)"/>
      <use xlink:href="#DejaVuSans-6e" transform="translate(83.496094 0)"/>
      <use xlink:href="#DejaVuSans-65" transform="translate(146.875 0)"/>
      <use xlink:href="#DejaVuSans-61" transform="translate(208.398438 0)"/>
      <use xlink:href="#DejaVuSans-72" transform="translate(269.677734 0)"/>
      <use xlink:href="#DejaVuSans-20" transform="translate(310.791016 0)"/>
      <use xlink:href="#DejaVuSans-46" transform="translate(342.578125 0)"/>
      <use xlink:href="#DejaVuSans-69" transform="translate(392.847656 0)"/>
      <use xlink:href="#DejaVuSans-74" transform="translate(420.630859 0)"/>
     </g>
    </g>
    <g id="line2d_19">
     <path d="M 298.968437 83.926688 
L 308.968437 83.926688 
L 318.968437 83.926688 
" style="fill: none; stroke-dasharray: 5.55,2.4; stroke-dashoffset: 0; stroke: #2ca02c; stroke-width: 1.5"/>
    </g>
    <g id="text_17">
     <!-- -60 dB -->
     <g transform="translate(326.968437 87.426688) scale(0.1 -0.1)">
      <defs>
       <path id="DejaVuSans-64" d="M 2906 2969 
L 2906 4863 
L 3481 4863 
L 3481 0 
L 2906 0 
L 2906 525 
Q 2725 213 2448 61 
Q 2172 -91 1784 -91 
Q 1150 -91 751 415 
Q 353 922 353 1747 
Q 353 2572 751 3078 
Q 1150 3584 1784 3584 
Q 2172 3584 2448 3432 
Q 2725 3281 2906 2969 
z
M 947 1747 
Q 947 1113 1208 752 
Q 1469 391 1925 391 
Q 2381 391 2643 752 
Q 2906 1113 2906 1747 
Q 2906 2381 2643 2742 
Q 2381 3103 1925 3103 
Q 1469 3103 1208 2742 
Q 947 2381 947 1747 
z
" transform="scale(0.015625)"/>
       <path id="DejaVuSans-42" d="M 1259 2228 
L 1259 519 
L 2272 519 
Q 2781 519 3026 730 
Q 3272 941 3272 1375 
Q 3272 1813 3026 2020 
Q 2781 2228 2272 2228 
L 1259 2228 
z
M 1259 4147 
L 1259 2741 
L 2194 2741 
Q 2656 2741 2882 2914 
Q 3109 3088 3109 3444 
Q 3109 3797 2882 3972 
Q 2656 4147 2194 4147 
L 1259 4147 
z
M 628 4666 
L 2241 4666 
Q 2963 4666 3353 4366 
Q 3744 4066 3744 3513 
Q 3744 3084 3544 2831 
Q 3344 2578 2956 2516 
Q 3422 2416 3680 2098 
Q 3938 1781 3938 1306 
Q 3938 681 3513 340 
Q 3088 0 2303 0 
L 628 0 
L 628 4666 
z
" transform="scale(0.015625)"/>
      </defs>
      <use xlink:href="#DejaVuSans-2d"/>
      <use xlink:href="#DejaVuSans-36" transform="translate(36.083984 0)"/>
      <use xlink:href="#DejaVuSans-30" transform="translate(99.707031 0)"/>
      <use xlink:href="#DejaVuSans-20" transform="translate(163.330078 0)"/>
      <use xlink:href="#DejaVuSans-64" transform="translate(195.117188 0)"/>
      <use xlink:href="#DejaVuSans-42" transform="translate(258.59375 0)"/>
     </g>
    </g>
    <g id="line2d_20">
     <path d="M 298.968437 98.604813 
L 318.968437 98.604813 
" style="fill: none; stroke-dasharray: 5.55,2.4; stroke-dashoffset: 0; stroke: #1f77b4; stroke-width: 1.5"/>
    </g>
    <g id="text_18">
     <!-- Estimated RT60 -->
     <g transform="translate(326.968437 102.104813) scale(0.1 -0.1)">
      <defs>
       <path id="DejaVuSans-73" d="M 2834 3397 
L 2834 2853 
Q 2591 2978 2328 3040 
Q 2066 3103 1784 3103 
Q 1356 3103 1142 2972 
Q 928 2841 928 2578 
Q 928 2378 1081 2264 
Q 1234 2150 1697 2047 
L 1894 2003 
Q 2506 1872 2764 1633 
Q 3022 1394 3022 966 
Q 3022 478 2636 193 
Q 2250 -91 1575 -91 
Q 1294 -91 989 -36 
Q 684 19 347 128 
L 347 722 
Q 666 556 975 473 
Q 1284 391 1588 391 
Q 1994 391 2212 530 
Q 2431 669 2431 922 
Q 2431 1156 2273 1281 
Q 2116 1406 1581 1522 
L 1381 1569 
Q 847 1681 609 1914 
Q 372 2147 372 2553 
Q 372 3047 722 3315 
Q 1072 3584 1716 3584 
Q 2034 3584 2315 3537 
Q 2597 3491 2834 3397 
z
" transform="scale(0.015625)"/>
       <path id="DejaVuSans-6d" d="M 3328 2828 
Q 3544 3216 3844 3400 
Q 4144 3584 4550 3584 
Q 5097 3584 5394 3201 
Q 5691 2819 5691 2113 
L 5691 0 
L 5113 0 
L 5113 2094 
Q 5113 2597 4934 2840 
Q 4756 3084 4391 3084 
Q 3944 3084 3684 2787 
Q 3425 2491 3425 1978 
L 3425 0 
L 2847 0 
L 2847 2094 
Q 2847 2600 2669 2842 
Q 2491 3084 2119 3084 
Q 1678 3084 1418 2786 
Q 1159 2488 1159 1978 
L 1159 0 
L 581 0 
L 581 3500 
L 1159 3500 
L 1159 2956 
Q 1356 3278 1631 3431 
Q 1906 3584 2284 3584 
Q 2666 3584 2933 3390 
Q 3200 3197 3328 2828 
z
" transform="scale(0.015625)"/>
       <path id="DejaVuSans-52" d="M 2841 2188 
Q 3044 2119 3236 1894 
Q 3428 1669 3622 1275 
L 4263 0 
L 3584 0 
L 2988 1197 
Q 2756 1666 2539 1819 
Q 2322 1972 1947 1972 
L 1259 1972 
L 1259 0 
L 628 0 
L 628 4666 
L 2053 4666 
Q 2853 4666 3247 4331 
Q 3641 3997 3641 3322 
Q 3641 2881 3436 2590 
Q 3231 2300 2841 2188 
z
M 1259 4147 
L 1259 2491 
L 2053 2491 
Q 2509 2491 2742 2702 
Q 2975 2913 2975 3322 
Q 2975 3731 2742 3939 
Q 2509 4147 2053 4147 
L 1259 4147 
z
" transform="scale(0.015625)"/>
       <path id="DejaVuSans-54" d="M -19 4666 
L 3928 4666 
L 3928 4134 
L 2272 4134 
L 2272 0 
L 1638 0 
L 1638 4134 
L -19 4134 
L -19 4666 
z
" transform="scale(0.015625)"/>
      </defs>
      <use xlink:href="#DejaVuSans-45"/>
      <use xlink:href="#DejaVuSans-73" transform="translate(63.183594 0)"/>
      <use xlink:href="#DejaVuSans-74" transform="translate(115.283203 0)"/>
      <use xlink:href="#DejaVuSans-69" transform="translate(154.492188 0)"/>
      <use xlink:href="#DejaVuSans-6d" transform="translate(182.275391 0)"/>
      <use xlink:href="#DejaVuSans-61" transform="translate(279.6875 0)"/>
      <use xlink:href="#DejaVuSans-74" transform="translate(340.966797 0)"/>
      <use xlink:href="#DejaVuSans-65" transform="translate(380.175781 0)"/>
      <use xlink:href="#DejaVuSans-64" transform="translate(441.699219 0)"/>
      <use xlink:href="#DejaVuSans-20" transform="translate(505.175781 0)"/>
      <use xlink:href="#DejaVuSans-52" transform="translate(536.962891 0)"/>
      <use xlink:href="#DejaVuSans-54" transform="translate(599.195312 0)"/>
      <use xlink:href="#DejaVuSans-36" transform="translate(660.279297 0)"/>
      <use xlink:href="#DejaVuSans-30" transform="translate(723.902344 0)"/>
     </g>
    </g>
   </g>
  </g>
 </g>
 <defs>
  <clipPath id="p97bb941056">
   <rect x="57.6" y="41.472" width="357.12" height="266.112"/>
  </clipPath>
 </defs>
</svg>
