<?xml version="1.0" encoding="utf-8" standalone="no"?>
<!DOCTYPE svg PUBLIC "-//W3C//DTD SVG 1.1//EN"
  "http://www.w3.org/Graphics/SVG/1.1/DTD/svg11.dtd">
<svg xmlns:xlink="http://www.w3.org/1999/xlink" width="460.8pt" height="345.6pt" viewBox="0 0 460.8 345.6" xmlns="http://www.w3.org/2000/svg" version="1.1">
 <metadata>
  <rdf:RDF xmlns:dc="http://purl.org/dc/elements/1.1/" xmlns:cc="http://creativecommons.org/ns#" xmlns:rdf="http://www.w3.org/1999/02/22-rdf-syntax-ns#">
   <cc:Work>
    <dc:type rdf:resource="http://purl.org/dc/dcmitype/StillImage"/>
    <dc:date>2025-05-06T13:37:39.681163</dc:date>
    <dc:format>image/svg+xml</dc:format>
    <dc:creator>
     <cc:Agent>
      <dc:title>Matplotlib v3.10.1, https://matplotlib.org/</dc:title>
     </cc:Agent>
    </dc:creator>
   </cc:Work>
  </rdf:RDF>
 </metadata>
 <defs>
  <style type="text/css">*{stroke-linejoin: round; stroke-linecap: butt}</style>
 </defs>
 <g id="figure_1">
  <g id="patch_1">
   <path d="M 0 345.6 
L 460.8 345.6 
L 460.8 0 
L 0 0 
z
" style="fill: #ffffff"/>
  </g>
  <g id="axes_1">
   <g id="patch_2">
    <path d="M 57.6 307.584 
L 414.72 307.584 
L 414.72 41.472 
L 57.6 41.472 
z
" style="fill: #ffffff"/>
   </g>
   <g id="matplotlib.axis_1">
    <g id="xtick_1">
     <g id="line2d_1">
      <defs>
       <path id="mba313c3bba" d="M 0 0 
L 0 3.5 
" style="stroke: #000000; stroke-width: 0.8"/>
      </defs>
      <g>
       <use xlink:href="#mba313c3bba" x="69.614678" y="307.584" style="stroke: #000000; stroke-width: 0.8"/>
      </g>
     </g>
     <g id="text_1">
      <!-- −0.2 -->
      <g transform="translate(57.473271 322.182437) scale(0.1 -0.1)">
       <defs>
        <path id="DejaVuSans-2212" d="M 678 2272 
L 4684 2272 
L 4684 1741 
L 678 1741 
L 678 2272 
z
" transform="scale(0.015625)"/>
        <path id="DejaVuSans-30" d="M 2034 4250 
Q 1547 4250 1301 3770 
Q 1056 3291 1056 2328 
Q 1056 1369 1301 889 
Q 1547 409 2034 409 
Q 2525 409 2770 889 
Q 3016 1369 3016 2328 
Q 3016 3291 2770 3770 
Q 2525 4250 2034 4250 
z
M 2034 4750 
Q 2819 4750 3233 4129 
Q 3647 3509 3647 2328 
Q 3647 1150 3233 529 
Q 2819 -91 2034 -91 
Q 1250 -91 836 529 
Q 422 1150 422 2328 
Q 422 3509 836 4129 
Q 1250 4750 2034 4750 
z
" transform="scale(0.015625)"/>
        <path id="DejaVuSans-2e" d="M 684 794 
L 1344 794 
L 1344 0 
L 684 0 
L 684 794 
z
" transform="scale(0.015625)"/>
        <path id="DejaVuSans-32" d="M 1228 531 
L 3431 531 
L 3431 0 
L 469 0 
L 469 531 
Q 828 903 1448 1529 
Q 2069 2156 2228 2338 
Q 2531 2678 2651 2914 
Q 2772 3150 2772 3378 
Q 2772 3750 2511 3984 
Q 2250 4219 1831 4219 
Q 1534 4219 1204 4116 
Q 875 4013 500 3803 
L 500 4441 
Q 881 4594 1212 4672 
Q 1544 4750 1819 4750 
Q 2544 4750 2975 4387 
Q 3406 4025 3406 3419 
Q 3406 3131 3298 2873 
Q 3191 2616 2906 2266 
Q 2828 2175 2409 1742 
Q 1991 1309 1228 531 
z
" transform="scale(0.015625)"/>
       </defs>
       <use xlink:href="#DejaVuSans-2212"/>
       <use xlink:href="#DejaVuSans-30" transform="translate(83.789062 0)"/>
       <use xlink:href="#DejaVuSans-2e" transform="translate(147.412109 0)"/>
       <use xlink:href="#DejaVuSans-32" transform="translate(179.199219 0)"/>
      </g>
     </g>
    </g>
    <g id="xtick_2">
     <g id="line2d_2">
      <g>
       <use xlink:href="#mba313c3bba" x="128.642777" y="307.584" style="stroke: #000000; stroke-width: 0.8"/>
      </g>
     </g>
     <g id="text_2">
      <!-- 0.0 -->
      <g transform="translate(120.691214 322.182437) scale(0.1 -0.1)">
       <use xlink:href="#DejaVuSans-30"/>
       <use xlink:href="#DejaVuSans-2e" transform="translate(63.623047 0)"/>
       <use xlink:href="#DejaVuSans-30" transform="translate(95.410156 0)"/>
      </g>
     </g>
    </g>
    <g id="xtick_3">
     <g id="line2d_3">
      <g>
       <use xlink:href="#mba313c3bba" x="187.670876" y="307.584" style="stroke: #000000; stroke-width: 0.8"/>
      </g>
     </g>
     <g id="text_3">
      <!-- 0.2 -->
      <g transform="translate(179.719314 322.182437) scale(0.1 -0.1)">
       <use xlink:href="#DejaVuSans-30"/>
       <use xlink:href="#DejaVuSans-2e" transform="translate(63.623047 0)"/>
       <use xlink:href="#DejaVuSans-32" transform="translate(95.410156 0)"/>
      </g>
     </g>
    </g>
    <g id="xtick_4">
     <g id="line2d_4">
      <g>
       <use xlink:href="#mba313c3bba" x="246.698975" y="307.584" style="stroke: #000000; stroke-width: 0.8"/>
      </g>
     </g>
     <g id="text_4">
      <!-- 0.4 -->
      <g transform="translate(238.747413 322.182437) scale(0.1 -0.1)">
       <defs>
        <path id="DejaVuSans-34" d="M 2419 4116 
L 825 1625 
L 2419 1625 
L 2419 4116 
z
M 2253 4666 
L 3047 4666 
L 3047 1625 
L 3713 1625 
L 3713 1100 
L 3047 1100 
L 3047 0 
L 2419 0 
L 2419 1100 
L 313 1100 
L 313 1709 
L 2253 4666 
z
" transform="scale(0.015625)"/>
       </defs>
       <use xlink:href="#DejaVuSans-30"/>
       <use xlink:href="#DejaVuSans-2e" transform="translate(63.623047 0)"/>
       <use xlink:href="#DejaVuSans-34" transform="translate(95.410156 0)"/>
      </g>
     </g>
    </g>
    <g id="xtick_5">
     <g id="line2d_5">
      <g>
       <use xlink:href="#mba313c3bba" x="305.727074" y="307.584" style="stroke: #000000; stroke-width: 0.8"/>
      </g>
     </g>
     <g id="text_5">
      <!-- 0.6 -->
      <g transform="translate(297.775512 322.182437) scale(0.1 -0.1)">
       <defs>
        <path id="DejaVuSans-36" d="M 2113 2584 
Q 1688 2584 1439 2293 
Q 1191 2003 1191 1497 
Q 1191 994 1439 701 
Q 1688 409 2113 409 
Q 2538 409 2786 701 
Q 3034 994 3034 1497 
Q 3034 2003 2786 2293 
Q 2538 2584 2113 2584 
z
M 3366 4563 
L 3366 3988 
Q 3128 4100 2886 4159 
Q 2644 4219 2406 4219 
Q 1781 4219 1451 3797 
Q 1122 3375 1075 2522 
Q 1259 2794 1537 2939 
Q 1816 3084 2150 3084 
Q 2853 3084 3261 2657 
Q 3669 2231 3669 1497 
Q 3669 778 3244 343 
Q 2819 -91 2113 -91 
Q 1303 -91 875 529 
Q 447 1150 447 2328 
Q 447 3434 972 4092 
Q 1497 4750 2381 4750 
Q 2619 4750 2861 4703 
Q 3103 4656 3366 4563 
z
" transform="scale(0.015625)"/>
       </defs>
       <use xlink:href="#DejaVuSans-30"/>
       <use xlink:href="#DejaVuSans-2e" transform="translate(63.623047 0)"/>
       <use xlink:href="#DejaVuSans-36" transform="translate(95.410156 0)"/>
      </g>
     </g>
    </g>
    <g id="xtick_6">
     <g id="line2d_6">
      <g>
       <use xlink:href="#mba313c3bba" x="364.755174" y="307.584" style="stroke: #000000; stroke-width: 0.8"/>
      </g>
     </g>
     <g id="text_6">
      <!-- 0.8 -->
      <g transform="translate(356.803611 322.182437) scale(0.1 -0.1)">
       <defs>
        <path id="DejaVuSans-38" d="M 2034 2216 
Q 1584 2216 1326 1975 
Q 1069 1734 1069 1313 
Q 1069 891 1326 650 
Q 1584 409 2034 409 
Q 2484 409 2743 651 
Q 3003 894 3003 1313 
Q 3003 1734 2745 1975 
Q 2488 2216 2034 2216 
z
M 1403 2484 
Q 997 2584 770 2862 
Q 544 3141 544 3541 
Q 544 4100 942 4425 
Q 1341 4750 2034 4750 
Q 2731 4750 3128 4425 
Q 3525 4100 3525 3541 
Q 3525 3141 3298 2862 
Q 3072 2584 2669 2484 
Q 3125 2378 3379 2068 
Q 3634 1759 3634 1313 
Q 3634 634 3220 271 
Q 2806 -91 2034 -91 
Q 1263 -91 848 271 
Q 434 634 434 1313 
Q 434 1759 690 2068 
Q 947 2378 1403 2484 
z
M 1172 3481 
Q 1172 3119 1398 2916 
Q 1625 2713 2034 2713 
Q 2441 2713 2670 2916 
Q 2900 3119 2900 3481 
Q 2900 3844 2670 4047 
Q 2441 4250 2034 4250 
Q 1625 4250 1398 4047 
Q 1172 3844 1172 3481 
z
" transform="scale(0.015625)"/>
       </defs>
       <use xlink:href="#DejaVuSans-30"/>
       <use xlink:href="#DejaVuSans-2e" transform="translate(63.623047 0)"/>
       <use xlink:href="#DejaVuSans-38" transform="translate(95.410156 0)"/>
      </g>
     </g>
    </g>
   </g>
   <g id="matplotlib.axis_2">
    <g id="ytick_1">
     <g id="line2d_7">
      <defs>
       <path id="m604c163cab" d="M 0 0 
L -3.5 0 
" style="stroke: #000000; stroke-width: 0.8"/>
      </defs>
      <g>
       <use xlink:href="#m604c163cab" x="57.6" y="279.971958" style="stroke: #000000; stroke-width: 0.8"/>
      </g>
     </g>
     <g id="text_7">
      <!-- −175 -->
      <g transform="translate(23.132812 283.771177) scale(0.1 -0.1)">
       <defs>
        <path id="DejaVuSans-31" d="M 794 531 
L 1825 531 
L 1825 4091 
L 703 3866 
L 703 4441 
L 1819 4666 
L 2450 4666 
L 2450 531 
L 3481 531 
L 3481 0 
L 794 0 
L 794 531 
z
" transform="scale(0.015625)"/>
        <path id="DejaVuSans-37" d="M 525 4666 
L 3525 4666 
L 3525 4397 
L 1831 0 
L 1172 0 
L 2766 4134 
L 525 4134 
L 525 4666 
z
" transform="scale(0.015625)"/>
        <path id="DejaVuSans-35" d="M 691 4666 
L 3169 4666 
L 3169 4134 
L 1269 4134 
L 1269 2991 
Q 1406 3038 1543 3061 
Q 1681 3084 1819 3084 
Q 2600 3084 3056 2656 
Q 3513 2228 3513 1497 
Q 3513 744 3044 326 
Q 2575 -91 1722 -91 
Q 1428 -91 1123 -41 
Q 819 9 494 109 
L 494 744 
Q 775 591 1075 516 
Q 1375 441 1709 441 
Q 2250 441 2565 725 
Q 2881 1009 2881 1497 
Q 2881 1984 2565 2268 
Q 2250 2553 1709 2553 
Q 1456 2553 1204 2497 
Q 953 2441 691 2322 
L 691 4666 
z
" transform="scale(0.015625)"/>
       </defs>
       <use xlink:href="#DejaVuSans-2212"/>
       <use xlink:href="#DejaVuSans-31" transform="translate(83.789062 0)"/>
       <use xlink:href="#DejaVuSans-37" transform="translate(147.412109 0)"/>
       <use xlink:href="#DejaVuSans-35" transform="translate(211.035156 0)"/>
      </g>
     </g>
    </g>
    <g id="ytick_2">
     <g id="line2d_8">
      <g>
       <use xlink:href="#m604c163cab" x="57.6" y="247.628536" style="stroke: #000000; stroke-width: 0.8"/>
      </g>
     </g>
     <g id="text_8">
      <!-- −150 -->
      <g transform="translate(23.132812 251.427754) scale(0.1 -0.1)">
       <use xlink:href="#DejaVuSans-2212"/>
       <use xlink:href="#DejaVuSans-31" transform="translate(83.789062 0)"/>
       <use xlink:href="#DejaVuSans-35" transform="translate(147.412109 0)"/>
       <use xlink:href="#DejaVuSans-30" transform="translate(211.035156 0)"/>
      </g>
     </g>
    </g>
    <g id="ytick_3">
     <g id="line2d_9">
      <g>
       <use xlink:href="#m604c163cab" x="57.6" y="215.285113" style="stroke: #000000; stroke-width: 0.8"/>
      </g>
     </g>
     <g id="text_9">
      <!-- −125 -->
      <g transform="translate(23.132812 219.084332) scale(0.1 -0.1)">
       <use xlink:href="#DejaVuSans-2212"/>
       <use xlink:href="#DejaVuSans-31" transform="translate(83.789062 0)"/>
       <use xlink:href="#DejaVuSans-32" transform="translate(147.412109 0)"/>
       <use xlink:href="#DejaVuSans-35" transform="translate(211.035156 0)"/>
      </g>
     </g>
    </g>
    <g id="ytick_4">
     <g id="line2d_10">
      <g>
       <use xlink:href="#m604c163cab" x="57.6" y="182.94169" style="stroke: #000000; stroke-width: 0.8"/>
      </g>
     </g>
     <g id="text_10">
      <!-- −100 -->
      <g transform="translate(23.132812 186.740909) scale(0.1 -0.1)">
       <use xlink:href="#DejaVuSans-2212"/>
       <use xlink:href="#DejaVuSans-31" transform="translate(83.789062 0)"/>
       <use xlink:href="#DejaVuSans-30" transform="translate(147.412109 0)"/>
       <use xlink:href="#DejaVuSans-30" transform="translate(211.035156 0)"/>
      </g>
     </g>
    </g>
    <g id="ytick_5">
     <g id="line2d_11">
      <g>
       <use xlink:href="#m604c163cab" x="57.6" y="150.598268" style="stroke: #000000; stroke-width: 0.8"/>
      </g>
     </g>
     <g id="text_11">
      <!-- −75 -->
      <g transform="translate(29.495313 154.397487) scale(0.1 -0.1)">
       <use xlink:href="#DejaVuSans-2212"/>
       <use xlink:href="#DejaVuSans-37" transform="translate(83.789062 0)"/>
       <use xlink:href="#DejaVuSans-35" transform="translate(147.412109 0)"/>
      </g>
     </g>
    </g>
    <g id="ytick_6">
     <g id="line2d_12">
      <g>
       <use xlink:href="#m604c163cab" x="57.6" y="118.254845" style="stroke: #000000; stroke-width: 0.8"/>
      </g>
     </g>
     <g id="text_12">
      <!-- −50 -->
      <g transform="translate(29.495313 122.054064) scale(0.1 -0.1)">
       <use xlink:href="#DejaVuSans-2212"/>
       <use xlink:href="#DejaVuSans-35" transform="translate(83.789062 0)"/>
       <use xlink:href="#DejaVuSans-30" transform="translate(147.412109 0)"/>
      </g>
     </g>
    </g>
    <g id="ytick_7">
     <g id="line2d_13">
      <g>
       <use xlink:href="#m604c163cab" x="57.6" y="85.911423" style="stroke: #000000; stroke-width: 0.8"/>
      </g>
     </g>
     <g id="text_13">
      <!-- −25 -->
      <g transform="translate(29.495313 89.710641) scale(0.1 -0.1)">
       <use xlink:href="#DejaVuSans-2212"/>
       <use xlink:href="#DejaVuSans-32" transform="translate(83.789062 0)"/>
       <use xlink:href="#DejaVuSans-35" transform="translate(147.412109 0)"/>
      </g>
     </g>
    </g>
    <g id="ytick_8">
     <g id="line2d_14">
      <g>
       <use xlink:href="#m604c163cab" x="57.6" y="53.568" style="stroke: #000000; stroke-width: 0.8"/>
      </g>
     </g>
     <g id="text_14">
      <!-- 0 -->
      <g transform="translate(44.2375 57.367219) scale(0.1 -0.1)">
       <use xlink:href="#DejaVuSans-30"/>
      </g>
     </g>
    </g>
   </g>
   <g id="line2d_15">
    <path d="M 73.832727 53.568 
L 122.438678 53.643999 
L 122.641587 54.408905 
L 123.256463 54.549122 
L 123.514711 54.744075 
L 123.656132 54.859615 
L 124.148033 54.925322 
L 124.369388 55.03756 
L 124.547702 55.164089 
L 124.848992 55.508509 
L 125.033455 55.924811 
L 125.088793 56.034635 
L 125.25481 56.141226 
L 125.35319 56.281587 
L 125.697521 56.555405 
L 126.214017 56.834846 
L 126.54605 57.430767 
L 126.681322 57.536262 
L 126.724364 57.641405 
L 126.767405 57.936818 
L 126.933421 58.714306 
L 127.062545 58.820923 
L 127.302347 58.993361 
L 128.046347 59.305659 
L 128.255405 59.744508 
L 128.630479 60.001985 
L 128.765752 60.146137 
L 128.913322 60.242462 
L 129.085488 60.408312 
L 129.288397 60.489902 
L 129.626579 60.623194 
L 129.860231 60.828806 
L 130.223008 60.935501 
L 130.573488 61.307653 
L 130.868628 61.508372 
L 131.366678 61.660705 
L 131.588033 61.907305 
L 131.870876 62.141854 
L 131.932364 62.256553 
L 132.067636 62.35504 
L 132.282843 62.518445 
L 133.303537 63.326067 
L 133.481851 63.513769 
L 133.918413 63.653957 
L 134.324231 63.75432 
L 134.570182 63.866241 
L 134.809983 64.271135 
L 135.160463 64.402673 
L 135.535537 64.635527 
L 135.683107 64.758462 
L 135.873719 64.933082 
L 136.095074 65.058639 
L 136.242645 65.178035 
L 136.500893 65.298958 
L 136.998942 65.69642 
L 137.429355 65.827956 
L 137.644562 66.178352 
L 138.327074 66.847727 
L 138.54843 67.048539 
L 138.720595 67.41067 
L 138.84357 67.515035 
L 139.040331 67.692028 
L 139.378512 67.811249 
L 140.011835 68.592771 
L 140.608264 68.818844 
L 140.817322 68.914282 
L 141.57362 69.315916 
L 141.678149 69.424239 
L 141.831868 69.51625 
L 142.157752 69.66389 
L 142.766479 69.964426 
L 142.91405 70.018293 
L 143.172298 70.125415 
L 143.479736 70.299302 
L 143.701091 70.424265 
L 145.404298 71.161379 
L 145.730182 71.256686 
L 146.68324 71.568624 
L 146.916893 71.705542 
L 147.095207 71.939123 
L 147.32886 72.010568 
L 147.685488 72.135948 
L 147.833058 72.200823 
L 148.079008 72.318773 
L 148.460231 72.617501 
L 149.148893 72.845927 
L 149.530116 73.077638 
L 149.683835 73.153171 
L 149.997421 73.266683 
L 150.194182 73.483127 
L 151.743669 74.218617 
L 152.044959 74.515282 
L 152.475372 74.63865 
L 152.629091 74.76056 
L 152.838149 74.910009 
L 153.42843 75.034218 
L 153.600595 75.134628 
L 153.735868 75.18953 
L 154.184727 75.343351 
L 154.36919 75.651926 
L 154.639736 75.756769 
L 155.057851 76.169364 
L 155.180826 76.277513 
L 155.371438 76.589465 
L 155.715769 76.778051 
L 156.490512 77.024966 
L 156.668826 77.089823 
L 159.085289 77.848772 
L 159.540298 78.025407 
L 159.792397 78.143006 
L 160.315041 78.409081 
L 160.481058 78.515782 
L 160.653223 78.547363 
L 161.286545 78.677297 
L 161.538645 78.815447 
L 162.165818 79.426912 
L 162.65157 79.595365 
L 162.915967 79.75683 
L 163.063537 79.923301 
L 163.610777 80.045901 
L 163.79524 80.09964 
L 164.305587 80.291623 
L 164.496198 80.332069 
L 165.111074 80.444369 
L 166.101025 80.751554 
L 166.37157 80.871112 
L 166.51914 80.99023 
L 166.851174 81.098683 
L 167.047934 81.169914 
L 167.300033 81.471528 
L 167.496793 81.526104 
L 167.66281 81.635925 
L 167.933355 81.710797 
L 168.517488 81.870424 
L 168.708099 81.905393 
L 168.867967 82.013407 
L 169.304529 82.219212 
L 170.263736 82.440621 
L 170.810975 82.552447 
L 171.272132 82.778077 
L 171.647207 82.921655 
L 172.581818 83.273578 
L 172.833917 83.338303 
L 173.301223 83.467447 
L 173.454942 83.550566 
L 173.633256 83.677825 
L 174.069818 83.807514 
L 174.285025 83.917222 
L 174.481785 84.018181 
L 174.696992 84.131129 
L 175.016727 84.282383 
L 175.231934 84.412446 
L 175.416397 84.536854 
L 175.779174 84.737442 
L 176.000529 84.871149 
L 177.199537 85.597089 
L 177.328661 85.664659 
L 178.121851 85.786421 
L 178.632198 85.945675 
L 179.529917 86.384468 
L 179.71438 86.41478 
L 179.966479 86.553536 
L 180.138645 86.721838 
L 180.685884 86.851899 
L 180.90724 86.952069 
L 181.048661 87.039344 
L 181.737322 87.328064 
L 181.983273 87.652418 
L 182.14314 87.771238 
L 182.954777 88.195181 
L 183.145388 88.288961 
L 183.299107 88.421944 
L 183.538909 88.533482 
L 183.741818 88.646824 
L 184.086149 88.787632 
L 184.295207 88.881836 
L 184.688727 89.001869 
L 184.916231 89.118027 
L 185.703273 89.392414 
L 185.850843 89.498606 
L 186.121388 89.71587 
L 186.496463 90.071028 
L 186.951471 90.204909 
L 187.338843 90.40831 
L 187.640132 90.49033 
L 188.009058 90.744247 
L 188.156628 90.901127 
L 188.746909 91.053516 
L 189.134281 91.182397 
L 189.669223 91.434339 
L 189.878281 91.682275 
L 190.394777 91.812092 
L 190.837488 91.949829 
L 192.46076 92.339078 
L 192.620628 92.422412 
L 193.032595 92.540309 
L 193.284694 92.59657 
L 194.668165 93.096165 
L 194.840331 93.33357 
L 195.024793 93.461573 
L 195.24 93.603714 
L 195.399868 93.706546 
L 195.578182 93.967996 
L 196.211504 94.201823 
L 196.402116 94.276811 
L 196.734149 94.389536 
L 197.207603 94.515414 
L 197.52119 94.711589 
L 197.693355 94.938794 
L 197.994645 95.041254 
L 198.136066 95.0871 
L 198.523438 95.247925 
L 198.873917 95.416388 
L 200.269686 95.861127 
L 200.509488 95.968732 
L 200.712397 96.134852 
L 201.069025 96.280563 
L 201.382612 96.407054 
L 201.579372 96.451508 
L 202.108165 96.575027 
L 202.895207 96.846102 
L 204.31557 97.535177 
L 204.475438 97.640643 
L 205.668298 98.256118 
L 206.639802 98.452034 
L 207.359207 98.755977 
L 207.537521 98.861363 
L 207.728132 98.960297 
L 207.906446 99.070258 
L 208.152397 99.228798 
L 208.422942 99.406642 
L 208.68119 99.602633 
L 209.007074 99.765488 
L 209.271471 99.872665 
L 209.566612 99.965316 
L 209.855603 100.074758 
L 210.286017 100.366098 
L 210.697983 100.494713 
L 210.894744 100.551179 
L 215.678479 101.825535 
L 215.82605 101.862793 
L 216.385587 102.030391 
L 216.576198 102.147586 
L 217.000463 102.220429 
L 217.271008 102.393539 
L 217.455471 102.732462 
L 217.916628 102.844193 
L 218.80205 103.204247 
L 219.035702 103.652979 
L 219.69362 103.847923 
L 219.847339 103.946028 
L 220.695868 104.167325 
L 220.861884 104.215837 
L 221.126281 104.365285 
L 221.267702 104.440429 
L 221.808793 104.551339 
L 222.030149 104.65405 
L 222.509752 104.825297 
L 222.884826 104.98049 
L 223.579636 105.139746 
L 223.727207 105.209579 
L 224.360529 105.332027 
L 224.809388 105.598933 
L 225.122975 105.70986 
L 225.608727 106.186201 
L 225.916165 106.303057 
L 226.426512 106.500178 
L 226.697058 106.628366 
L 226.869223 106.723299 
L 227.976 106.956724 
L 228.369521 107.069526 
L 228.873719 107.243716 
L 229.666909 107.647384 
L 230.509289 107.77151 
L 230.779835 107.834622 
L 232.550678 108.407123 
L 232.716694 108.457016 
L 233.190149 108.575977 
L 233.442248 108.696772 
L 234.505983 108.9861 
L 234.997884 109.101578 
L 235.256132 109.156168 
L 235.625058 109.336981 
L 235.809521 109.471134 
L 236.037025 109.605448 
L 236.270678 109.664478 
L 236.578116 109.79367 
L 236.725686 109.843044 
L 237.377455 110.001055 
L 237.580364 110.121116 
L 238.029223 110.269869 
L 238.299769 110.381528 
L 240.199736 111.216936 
L 240.488727 111.457929 
L 240.906843 111.575003 
L 241.343405 111.784994 
L 241.693884 112.041255 
L 242.400992 112.187823 
L 243.993521 113.13358 
L 244.325554 113.244166 
L 245.752066 113.642905 
L 245.93038 113.838549 
L 246.662083 114.028987 
L 247.688926 114.393696 
L 249.416727 114.846487 
L 249.582744 114.936511 
L 252.257455 115.602492 
L 252.521851 115.690017 
L 256.10043 117.037082 
L 256.678413 117.18833 
L 256.94281 117.264304 
L 257.83438 117.378069 
L 258.049587 117.405236 
L 258.559934 117.533772 
L 258.855074 117.805303 
L 259.46995 117.916237 
L 260.56443 118.135815 
L 260.85957 118.252551 
L 261.099372 118.40741 
L 261.302281 118.587936 
L 261.65276 118.691047 
L 261.843372 118.771502 
L 262.286083 118.882573 
L 262.777983 119.026414 
L 262.974744 119.146817 
L 263.620364 119.260458 
L 264.23524 119.391587 
L 264.456595 119.47591 
L 264.813223 119.586742 
L 265.280529 119.802336 
L 265.526479 119.842357 
L 268.484033 120.733831 
L 268.656198 120.851495 
L 269.326413 121.138919 
L 269.781421 121.254874 
L 269.978182 121.314147 
L 270.377851 121.527987 
L 270.593058 121.556134 
L 271.22638 121.6973 
L 271.466182 121.796023 
L 272.06876 121.936141 
L 272.210182 121.976049 
L 272.388496 122.088879 
L 274.239273 122.569802 
L 274.786512 122.690044 
L 275.204628 122.852513 
L 275.758017 122.976456 
L 275.954777 123.016942 
L 277.092298 123.399379 
L 277.387438 123.51648 
L 278.076099 123.674271 
L 279.871537 124.055866 
L 280.012959 124.092759 
L 280.861488 124.433395 
L 281.476364 124.671297 
L 282.017455 124.78799 
L 284.058843 125.590411 
L 284.47081 125.6973 
L 284.76595 125.799008 
L 285.307041 125.965661 
L 286.051041 126.215908 
L 286.60443 126.345837 
L 287.219306 126.549218 
L 287.803438 126.660112 
L 288.93481 126.884093 
L 289.488198 127.017917 
L 289.67881 127.074289 
L 290.392066 127.199275 
L 290.588826 127.284626 
L 290.982347 127.405569 
L 291.332826 127.53264 
L 291.781686 127.660135 
L 292.65481 127.945119 
L 293.275835 128.135631 
L 293.527934 128.211491 
L 295.97514 128.76278 
L 296.165752 128.794587 
L 296.590017 128.855093 
L 297.057322 128.970124 
L 297.297124 129.143099 
L 298.121058 129.273129 
L 298.367008 129.348185 
L 299.295471 129.507798 
L 299.486083 129.635241 
L 299.89805 129.775774 
L 300.377653 129.966125 
L 303.329058 130.588309 
L 303.507372 130.648552 
L 304.073058 130.811156 
L 304.325157 130.855681 
L 304.983074 130.957795 
L 305.136793 131.073591 
L 307.528661 131.619067 
L 307.676231 131.65763 
L 307.946777 131.839729 
L 308.13124 131.917714 
L 309.96357 132.32874 
L 310.307901 132.357349 
L 311.094942 132.503566 
L 311.304 132.627273 
L 313.43762 132.887758 
L 314.169322 133.051643 
L 314.519802 133.144361 
L 315.036298 133.256531 
L 315.233058 133.448967 
L 315.854083 133.56697 
L 316.032397 133.600261 
L 316.56119 133.64802 
L 317.969256 133.860459 
L 318.319736 133.921158 
L 318.934612 134.04205 
L 319.162116 134.075526 
L 319.580231 134.203407 
L 320.03524 134.302799 
L 325.071074 135.423456 
L 325.704397 135.536152 
L 325.845818 135.626837 
L 326.313124 135.762407 
L 327.069421 135.899896 
L 327.327669 136.015938 
L 327.936397 136.172523 
L 329.20919 136.483928 
L 329.45514 136.533122 
L 335.585455 137.719524 
L 336.175736 137.884924 
L 336.993521 138.063262 
L 337.448529 138.20209 
L 338.788959 138.586399 
L 339.385388 138.72054 
L 339.576 138.768219 
L 341.064 138.971555 
L 341.297653 139.020301 
L 341.746512 139.203904 
L 341.937124 139.224427 
L 345.614083 139.887822 
L 345.804694 139.906369 
L 346.241256 140.018054 
L 346.745455 140.175974 
L 347.194314 140.279957 
L 347.341884 140.319237 
L 354.425256 141.731027 
L 354.622017 141.750727 
L 355.710347 141.965914 
L 355.931702 142.013385 
L 356.546579 142.200205 
L 356.743339 142.303163 
L 357.352066 142.425833 
L 357.764033 142.517359 
L 358.661752 142.694349 
L 359.848463 142.911786 
L 360.106711 143.018585 
L 360.30962 143.09834 
L 360.60476 143.142106 
L 361.127405 143.248674 
L 361.281124 143.346459 
L 362.240331 143.703028 
L 362.44324 143.808533 
L 362.769124 143.936443 
L 362.922843 144.066922 
L 363.150347 144.147193 
L 363.685289 144.272517 
L 364.896595 144.758591 
L 365.308562 144.902552 
L 365.56681 144.95529 
L 365.695934 145.063111 
L 365.849653 145.126427 
L 366.224727 145.245231 
L 367.110149 145.476474 
L 367.595901 145.741941 
L 367.694281 145.904019 
L 367.829554 146.02054 
L 368.272264 146.206989 
L 368.776463 146.426926 
L 368.924033 146.523455 
L 369.059306 146.594459 
L 369.336 146.717733 
L 369.508165 147.009655 
L 370.190678 147.492467 
L 370.37514 147.8434 
L 370.57805 148.002348 
L 370.72562 148.163089 
L 371.045355 148.288016 
L 371.266711 148.437795 
L 372.01686 149.134594 
L 372.256661 149.257978 
L 372.50876 149.681002 
L 373.222017 149.881965 
L 374.580893 151.080804 
L 374.832992 151.205024 
L 375.43557 151.414996 
L 375.663074 151.525056 
L 375.872132 151.661271 
L 376.013554 151.759748 
L 376.376331 152.037648 
L 376.548496 152.153666 
L 376.751405 152.383423 
L 376.948165 152.499486 
L 378.011901 153.263872 
L 378.177917 153.374444 
L 378.356231 153.81016 
L 378.430017 154.008801 
L 378.577587 154.21448 
L 378.774347 154.33953 
L 378.946512 154.401192 
L 379.100231 154.515041 
L 379.358479 154.806417 
L 379.567537 154.93353 
L 380.311537 156.119857 
L 382.162314 158.59299 
L 382.309884 158.741388 
L 382.414413 158.852286 
L 382.574281 158.972545 
L 382.641917 159.125386 
L 382.783339 159.332519 
L 382.857124 159.440182 
L 383.047736 159.911429 
L 383.207603 160.02486 
L 383.392066 160.139019 
L 383.945455 160.961415 
L 383.988496 161.070312 
L 384.031537 161.252707 
L 384.793983 163.15035 
L 384.929256 163.279569 
L 385.126017 163.445838 
L 385.421157 163.740841 
L 385.488793 164.259221 
L 385.624066 164.695632 
L 385.697851 164.820455 
L 385.863868 165.250576 
L 385.925355 165.41197 
L 387.173554 168.441716 
L 387.216595 168.551542 
L 387.696198 170.319566 
L 387.843769 170.707651 
L 387.862215 170.802807 
L 388.003636 171.149429 
L 388.089719 171.278904 
L 388.335669 172.133325 
L 388.464793 172.281275 
L 389.214942 174.661786 
L 389.380959 175.453089 
L 389.497785 175.643859 
L 389.663802 176.066165 
L 389.799074 176.277008 
L 390.06962 177.427325 
L 390.088066 177.552039 
L 390.254083 178.139918 
L 390.334017 178.268834 
L 391.114909 180.821968 
L 391.36086 181.114502 
L 391.576066 181.489627 
L 392.135603 184.602809 
L 392.522975 184.958486 
L 392.584463 185.086881 
L 392.732033 185.19589 
L 392.756628 185.295834 
L 393.168595 188.806734 
L 393.334612 189.109839 
L 393.402248 189.289688 
L 393.709686 191.767098 
L 393.728132 191.882583 
L 393.888 192.44483 
L 394.38605 195.698617 
L 394.515174 195.95961 
L 394.539769 196.052335 
L 394.613554 197.041223 
L 394.767273 198.05144 
L 395.209983 198.875245 
L 395.52357 204.626238 
L 396.076959 208.946295 
L 396.224529 212.337819 
L 396.421289 214.898128 
L 396.482777 215.526899 
L 396.882446 220.767926 
L 397.023868 222.4033 
L 397.042314 222.492903 
L 397.165289 224.9693 
L 397.472727 231.839395 
L 397.491174 231.996541 
L 397.878545 245.930347 
L 398.032264 255.933591 
L 398.075306 256.231963 
L 398.210579 263.705827 
L 398.431934 282.474329 
L 398.438083 282.47929 
L 398.481124 295.488 
L 398.481124 295.488 
" clip-path="url(#pdcc20941b4)" style="fill: none; stroke: #1f77b4; stroke-width: 1.5; stroke-linecap: square"/>
   </g>
   <g id="line2d_16">
    <path d="M 128.642777 60.057344 
L 335.339504 137.660899 
" clip-path="url(#pdcc20941b4)" style="fill: none; stroke-dasharray: 5.55,2.4; stroke-dashoffset: 0; stroke: #ff7f0e; stroke-width: 1.5"/>
   </g>
   <g id="line2d_17">
    <path d="M 73.832727 131.192214 
L 398.487273 131.192214 
L 398.487273 131.192214 
" clip-path="url(#pdcc20941b4)" style="fill: none; stroke-dasharray: 5.55,2.4; stroke-dashoffset: 0; stroke: #2ca02c; stroke-width: 1.5"/>
   </g>
   <g id="LineCollection_1">
    <path d="M 335.339504 295.488 
L 335.339504 53.568 
" clip-path="url(#pdcc20941b4)" style="fill: none; stroke-dasharray: 5.55,2.4; stroke-dashoffset: 0; stroke: #1f77b4; stroke-width: 1.5"/>
   </g>
   <g id="patch_3">
    <path d="M 57.6 307.584 
L 57.6 41.472 
" style="fill: none; stroke: #000000; stroke-width: 0.8; stroke-linejoin: miter; stroke-linecap: square"/>
   </g>
   <g id="patch_4">
    <path d="M 414.72 307.584 
L 414.72 41.472 
" style="fill: none; stroke: #000000; stroke-width: 0.8; stroke-linejoin: miter; stroke-linecap: square"/>
   </g>
   <g id="patch_5">
    <path d="M 57.6 307.584 
L 414.72 307.584 
" style="fill: none; stroke: #000000; stroke-width: 0.8; stroke-linejoin: miter; stroke-linecap: square"/>
   </g>
   <g id="patch_6">
    <path d="M 57.6 41.472 
L 414.72 41.472 
" style="fill: none; stroke: #000000; stroke-width: 0.8; stroke-linejoin: miter; stroke-linecap: square"/>
   </g>
   <g id="text_15">
    <!-- Energy Decay - 4000 Hz -->
    <g transform="translate(163.59 35.472) scale(0.12 -0.12)">
     <defs>
      <path id="DejaVuSans-45" d="M 628 4666 
L 3578 4666 
L 3578 4134 
L 1259 4134 
L 1259 2753 
L 3481 2753 
L 3481 2222 
L 1259 2222 
L 1259 531 
L 3634 531 
L 3634 0 
L 628 0 
L 628 4666 
z
" transform="scale(0.015625)"/>
      <path id="DejaVuSans-6e" d="M 3513 2113 
L 3513 0 
L 2938 0 
L 2938 2094 
Q 2938 2591 2744 2837 
Q 2550 3084 2163 3084 
Q 1697 3084 1428 2787 
Q 1159 2491 1159 1978 
L 1159 0 
L 581 0 
L 581 3500 
L 1159 3500 
L 1159 2956 
Q 1366 3272 1645 3428 
Q 1925 3584 2291 3584 
Q 2894 3584 3203 3211 
Q 3513 2838 3513 2113 
z
" transform="scale(0.015625)"/>
      <path id="DejaVuSans-65" d="M 3597 1894 
L 3597 1613 
L 953 1613 
Q 991 1019 1311 708 
Q 1631 397 2203 397 
Q 2534 397 2845 478 
Q 3156 559 3463 722 
L 3463 178 
Q 3153 47 2828 -22 
Q 2503 -91 2169 -91 
Q 1331 -91 842 396 
Q 353 884 353 1716 
Q 353 2575 817 3079 
Q 1281 3584 2069 3584 
Q 2775 3584 3186 3129 
Q 3597 2675 3597 1894 
z
M 3022 2063 
Q 3016 2534 2758 2815 
Q 2500 3097 2075 3097 
Q 1594 3097 1305 2825 
Q 1016 2553 972 2059 
L 3022 2063 
z
" transform="scale(0.015625)"/>
      <path id="DejaVuSans-72" d="M 2631 2963 
Q 2534 3019 2420 3045 
Q 2306 3072 2169 3072 
Q 1681 3072 1420 2755 
Q 1159 2438 1159 1844 
L 1159 0 
L 581 0 
L 581 3500 
L 1159 3500 
L 1159 2956 
Q 1341 3275 1631 3429 
Q 1922 3584 2338 3584 
Q 2397 3584 2469 3576 
Q 2541 3569 2628 3553 
L 2631 2963 
z
" transform="scale(0.015625)"/>
      <path id="DejaVuSans-67" d="M 2906 1791 
Q 2906 2416 2648 2759 
Q 2391 3103 1925 3103 
Q 1463 3103 1205 2759 
Q 947 2416 947 1791 
Q 947 1169 1205 825 
Q 1463 481 1925 481 
Q 2391 481 2648 825 
Q 2906 1169 2906 1791 
z
M 3481 434 
Q 3481 -459 3084 -895 
Q 2688 -1331 1869 -1331 
Q 1566 -1331 1297 -1286 
Q 1028 -1241 775 -1147 
L 775 -588 
Q 1028 -725 1275 -790 
Q 1522 -856 1778 -856 
Q 2344 -856 2625 -561 
Q 2906 -266 2906 331 
L 2906 616 
Q 2728 306 2450 153 
Q 2172 0 1784 0 
Q 1141 0 747 490 
Q 353 981 353 1791 
Q 353 2603 747 3093 
Q 1141 3584 1784 3584 
Q 2172 3584 2450 3431 
Q 2728 3278 2906 2969 
L 2906 3500 
L 3481 3500 
L 3481 434 
z
" transform="scale(0.015625)"/>
      <path id="DejaVuSans-79" d="M 2059 -325 
Q 1816 -950 1584 -1140 
Q 1353 -1331 966 -1331 
L 506 -1331 
L 506 -850 
L 844 -850 
Q 1081 -850 1212 -737 
Q 1344 -625 1503 -206 
L 1606 56 
L 191 3500 
L 800 3500 
L 1894 763 
L 2988 3500 
L 3597 3500 
L 2059 -325 
z
" transform="scale(0.015625)"/>
      <path id="DejaVuSans-20" transform="scale(0.015625)"/>
      <path id="DejaVuSans-44" d="M 1259 4147 
L 1259 519 
L 2022 519 
Q 2988 519 3436 956 
Q 3884 1394 3884 2338 
Q 3884 3275 3436 3711 
Q 2988 4147 2022 4147 
L 1259 4147 
z
M 628 4666 
L 1925 4666 
Q 3281 4666 3915 4102 
Q 4550 3538 4550 2338 
Q 4550 1131 3912 565 
Q 3275 0 1925 0 
L 628 0 
L 628 4666 
z
" transform="scale(0.015625)"/>
      <path id="DejaVuSans-63" d="M 3122 3366 
L 3122 2828 
Q 2878 2963 2633 3030 
Q 2388 3097 2138 3097 
Q 1578 3097 1268 2742 
Q 959 2388 959 1747 
Q 959 1106 1268 751 
Q 1578 397 2138 397 
Q 2388 397 2633 464 
Q 2878 531 3122 666 
L 3122 134 
Q 2881 22 2623 -34 
Q 2366 -91 2075 -91 
Q 1284 -91 818 406 
Q 353 903 353 1747 
Q 353 2603 823 3093 
Q 1294 3584 2113 3584 
Q 2378 3584 2631 3529 
Q 2884 3475 3122 3366 
z
" transform="scale(0.015625)"/>
      <path id="DejaVuSans-61" d="M 2194 1759 
Q 1497 1759 1228 1600 
Q 959 1441 959 1056 
Q 959 750 1161 570 
Q 1363 391 1709 391 
Q 2188 391 2477 730 
Q 2766 1069 2766 1631 
L 2766 1759 
L 2194 1759 
z
M 3341 1997 
L 3341 0 
L 2766 0 
L 2766 531 
Q 2569 213 2275 61 
Q 1981 -91 1556 -91 
Q 1019 -91 701 211 
Q 384 513 384 1019 
Q 384 1609 779 1909 
Q 1175 2209 1959 2209 
L 2766 2209 
L 2766 2266 
Q 2766 2663 2505 2880 
Q 2244 3097 1772 3097 
Q 1472 3097 1187 3025 
Q 903 2953 641 2809 
L 641 3341 
Q 956 3463 1253 3523 
Q 1550 3584 1831 3584 
Q 2591 3584 2966 3190 
Q 3341 2797 3341 1997 
z
" transform="scale(0.015625)"/>
      <path id="DejaVuSans-2d" d="M 313 2009 
L 1997 2009 
L 1997 1497 
L 313 1497 
L 313 2009 
z
" transform="scale(0.015625)"/>
      <path id="DejaVuSans-48" d="M 628 4666 
L 1259 4666 
L 1259 2753 
L 3553 2753 
L 3553 4666 
L 4184 4666 
L 4184 0 
L 3553 0 
L 3553 2222 
L 1259 2222 
L 1259 0 
L 628 0 
L 628 4666 
z
" transform="scale(0.015625)"/>
      <path id="DejaVuSans-7a" d="M 353 3500 
L 3084 3500 
L 3084 2975 
L 922 459 
L 3084 459 
L 3084 0 
L 275 0 
L 275 525 
L 2438 3041 
L 353 3041 
L 353 3500 
z
" transform="scale(0.015625)"/>
     </defs>
     <use xlink:href="#DejaVuSans-45"/>
     <use xlink:href="#DejaVuSans-6e" transform="translate(63.183594 0)"/>
     <use xlink:href="#DejaVuSans-65" transform="translate(126.5625 0)"/>
     <use xlink:href="#DejaVuSans-72" transform="translate(188.085938 0)"/>
     <use xlink:href="#DejaVuSans-67" transform="translate(227.449219 0)"/>
     <use xlink:href="#DejaVuSans-79" transform="translate(290.925781 0)"/>
     <use xlink:href="#DejaVuSans-20" transform="translate(350.105469 0)"/>
     <use xlink:href="#DejaVuSans-44" transform="translate(381.892578 0)"/>
     <use xlink:href="#DejaVuSans-65" transform="translate(458.894531 0)"/>
     <use xlink:href="#DejaVuSans-63" transform="translate(520.417969 0)"/>
     <use xlink:href="#DejaVuSans-61" transform="translate(575.398438 0)"/>
     <use xlink:href="#DejaVuSans-79" transform="translate(636.677734 0)"/>
     <use xlink:href="#DejaVuSans-20" transform="translate(695.857422 0)"/>
     <use xlink:href="#DejaVuSans-2d" transform="translate(727.644531 0)"/>
     <use xlink:href="#DejaVuSans-20" transform="translate(763.728516 0)"/>
     <use xlink:href="#DejaVuSans-34" transform="translate(795.515625 0)"/>
     <use xlink:href="#DejaVuSans-30" transform="translate(859.138672 0)"/>
     <use xlink:href="#DejaVuSans-30" transform="translate(922.761719 0)"/>
     <use xlink:href="#DejaVuSans-30" transform="translate(986.384766 0)"/>
     <use xlink:href="#DejaVuSans-20" transform="translate(1050.007812 0)"/>
     <use xlink:href="#DejaVuSans-48" transform="translate(1081.794922 0)"/>
     <use xlink:href="#DejaVuSans-7a" transform="translate(1156.990234 0)"/>
    </g>
   </g>
   <g id="legend_1">
    <g id="patch_7">
     <path d="M 296.968437 108.1845 
L 407.72 108.1845 
Q 409.72 108.1845 409.72 106.1845 
L 409.72 48.472 
Q 409.72 46.472 407.72 46.472 
L 296.968437 46.472 
Q 294.968437 46.472 294.968437 48.472 
L 294.968437 106.1845 
Q 294.968437 108.1845 296.968437 108.1845 
z
" style="fill: #ffffff; opacity: 0.8; stroke: #cccccc; stroke-linejoin: miter"/>
    </g>
    <g id="line2d_18">
     <path d="M 298.968437 54.570438 
L 308.968437 54.570438 
L 318.968437 54.570438 
" style="fill: none; stroke: #1f77b4; stroke-width: 1.5; stroke-linecap: square"/>
    </g>
    <g id="text_16">
     <!-- Energy -->
     <g transform="translate(326.968437 58.070438) scale(0.1 -0.1)">
      <use xlink:href="#DejaVuSans-45"/>
      <use xlink:href="#DejaVuSans-6e" transform="translate(63.183594 0)"/>
      <use xlink:href="#DejaVuSans-65" transform="translate(126.5625 0)"/>
      <use xlink:href="#DejaVuSans-72" transform="translate(188.085938 0)"/>
      <use xlink:href="#DejaVuSans-67" transform="translate(227.449219 0)"/>
      <use xlink:href="#DejaVuSans-79" transform="translate(290.925781 0)"/>
     </g>
    </g>
    <g id="line2d_19">
     <path d="M 298.968437 69.248563 
L 308.968437 69.248563 
L 318.968437 69.248563 
" style="fill: none; stroke-dasharray: 5.55,2.4; stroke-dashoffset: 0; stroke: #ff7f0e; stroke-width: 1.5"/>
    </g>
    <g id="text_17">
     <!-- Linear Fit -->
     <g transform="translate(326.968437 72.748563) scale(0.1 -0.1)">
      <defs>
       <path id="DejaVuSans-4c" d="M 628 4666 
L 1259 4666 
L 1259 531 
L 3531 531 
L 3531 0 
L 628 0 
L 628 4666 
z
" transform="scale(0.015625)"/>
       <path id="DejaVuSans-69" d="M 603 3500 
L 1178 3500 
L 1178 0 
L 603 0 
L 603 3500 
z
M 603 4863 
L 1178 4863 
L 1178 4134 
L 603 4134 
L 603 4863 
z
" transform="scale(0.015625)"/>
       <path id="DejaVuSans-46" d="M 628 4666 
L 3309 4666 
L 3309 4134 
L 1259 4134 
L 1259 2759 
L 3109 2759 
L 3109 2228 
L 1259 2228 
L 1259 0 
L 628 0 
L 628 4666 
z
" transform="scale(0.015625)"/>
       <path id="DejaVuSans-74" d="M 1172 4494 
L 1172 3500 
L 2356 3500 
L 2356 3053 
L 1172 3053 
L 1172 1153 
Q 1172 725 1289 603 
Q 1406 481 1766 481 
L 2356 481 
L 2356 0 
L 1766 0 
Q 1100 0 847 248 
Q 594 497 594 1153 
L 594 3053 
L 172 3053 
L 172 3500 
L 594 3500 
L 594 4494 
L 1172 4494 
z
" transform="scale(0.015625)"/>
      </defs>
      <use xlink:href="#DejaVuSans-4c"/>
      <use xlink:href="#DejaVuSans-69" transform="translate(55.712891 0)"/>
      <use xlink:href="#DejaVuSans-6e" transform="translate(83.496094 0)"/>
      <use xlink:href="#DejaVuSans-65" transform="translate(146.875 0)"/>
      <use xlink:href="#DejaVuSans-61" transform="translate(208.398438 0)"/>
      <use xlink:href="#DejaVuSans-72" transform="translate(269.677734 0)"/>
      <use xlink:href="#DejaVuSans-20" transform="translate(310.791016 0)"/>
      <use xlink:href="#DejaVuSans-46" transform="translate(342.578125 0)"/>
      <use xlink:href="#DejaVuSans-69" transform="translate(392.847656 0)"/>
      <use xlink:href="#DejaVuSans-74" transform="translate(420.630859 0)"/>
     </g>
    </g>
    <g id="line2d_20">
     <path d="M 298.968437 83.926688 
L 308.968437 83.926688 
L 318.968437 83.926688 
" style="fill: none; stroke-dasharray: 5.55,2.4; stroke-dashoffset: 0; stroke: #2ca02c; stroke-width: 1.5"/>
    </g>
    <g id="text_18">
     <!-- -60 dB -->
     <g transform="translate(326.968437 87.426688) scale(0.1 -0.1)">
      <defs>
       <path id="DejaVuSans-64" d="M 2906 2969 
L 2906 4863 
L 3481 4863 
L 3481 0 
L 2906 0 
L 2906 525 
Q 2725 213 2448 61 
Q 2172 -91 1784 -91 
Q 1150 -91 751 415 
Q 353 922 353 1747 
Q 353 2572 751 3078 
Q 1150 3584 1784 3584 
Q 2172 3584 2448 3432 
Q 2725 3281 2906 2969 
z
M 947 1747 
Q 947 1113 1208 752 
Q 1469 391 1925 391 
Q 2381 391 2643 752 
Q 2906 1113 2906 1747 
Q 2906 2381 2643 2742 
Q 2381 3103 1925 3103 
Q 1469 3103 1208 2742 
Q 947 2381 947 1747 
z
" transform="scale(0.015625)"/>
       <path id="DejaVuSans-42" d="M 1259 2228 
L 1259 519 
L 2272 519 
Q 2781 519 3026 730 
Q 3272 941 3272 1375 
Q 3272 1813 3026 2020 
Q 2781 2228 2272 2228 
L 1259 2228 
z
M 1259 4147 
L 1259 2741 
L 2194 2741 
Q 2656 2741 2882 2914 
Q 3109 3088 3109 3444 
Q 3109 3797 2882 3972 
Q 2656 4147 2194 4147 
L 1259 4147 
z
M 628 4666 
L 2241 4666 
Q 2963 4666 3353 4366 
Q 3744 4066 3744 3513 
Q 3744 3084 3544 2831 
Q 3344 2578 2956 2516 
Q 3422 2416 3680 2098 
Q 3938 1781 3938 1306 
Q 3938 681 3513 340 
Q 3088 0 2303 0 
L 628 0 
L 628 4666 
z
" transform="scale(0.015625)"/>
      </defs>
      <use xlink:href="#DejaVuSans-2d"/>
      <use xlink:href="#DejaVuSans-36" transform="translate(36.083984 0)"/>
      <use xlink:href="#DejaVuSans-30" transform="translate(99.707031 0)"/>
      <use xlink:href="#DejaVuSans-20" transform="translate(163.330078 0)"/>
      <use xlink:href="#DejaVuSans-64" transform="translate(195.117188 0)"/>
      <use xlink:href="#DejaVuSans-42" transform="translate(258.59375 0)"/>
     </g>
    </g>
    <g id="line2d_21">
     <path d="M 298.968437 98.604813 
L 318.968437 98.604813 
" style="fill: none; stroke-dasharray: 5.55,2.4; stroke-dashoffset: 0; stroke: #1f77b4; stroke-width: 1.5"/>
    </g>
    <g id="text_19">
     <!-- Estimated RT60 -->
     <g transform="translate(326.968437 102.104813) scale(0.1 -0.1)">
      <defs>
       <path id="DejaVuSans-73" d="M 2834 3397 
L 2834 2853 
Q 2591 2978 2328 3040 
Q 2066 3103 1784 3103 
Q 1356 3103 1142 2972 
Q 928 2841 928 2578 
Q 928 2378 1081 2264 
Q 1234 2150 1697 2047 
L 1894 2003 
Q 2506 1872 2764 1633 
Q 3022 1394 3022 966 
Q 3022 478 2636 193 
Q 2250 -91 1575 -91 
Q 1294 -91 989 -36 
Q 684 19 347 128 
L 347 722 
Q 666 556 975 473 
Q 1284 391 1588 391 
Q 1994 391 2212 530 
Q 2431 669 2431 922 
Q 2431 1156 2273 1281 
Q 2116 1406 1581 1522 
L 1381 1569 
Q 847 1681 609 1914 
Q 372 2147 372 2553 
Q 372 3047 722 3315 
Q 1072 3584 1716 3584 
Q 2034 3584 2315 3537 
Q 2597 3491 2834 3397 
z
" transform="scale(0.015625)"/>
       <path id="DejaVuSans-6d" d="M 3328 2828 
Q 3544 3216 3844 3400 
Q 4144 3584 4550 3584 
Q 5097 3584 5394 3201 
Q 5691 2819 5691 2113 
L 5691 0 
L 5113 0 
L 5113 2094 
Q 5113 2597 4934 2840 
Q 4756 3084 4391 3084 
Q 3944 3084 3684 2787 
Q 3425 2491 3425 1978 
L 3425 0 
L 2847 0 
L 2847 2094 
Q 2847 2600 2669 2842 
Q 2491 3084 2119 3084 
Q 1678 3084 1418 2786 
Q 1159 2488 1159 1978 
L 1159 0 
L 581 0 
L 581 3500 
L 1159 3500 
L 1159 2956 
Q 1356 3278 1631 3431 
Q 1906 3584 2284 3584 
Q 2666 3584 2933 3390 
Q 3200 3197 3328 2828 
z
" transform="scale(0.015625)"/>
       <path id="DejaVuSans-52" d="M 2841 2188 
Q 3044 2119 3236 1894 
Q 3428 1669 3622 1275 
L 4263 0 
L 3584 0 
L 2988 1197 
Q 2756 1666 2539 1819 
Q 2322 1972 1947 1972 
L 1259 1972 
L 1259 0 
L 628 0 
L 628 4666 
L 2053 4666 
Q 2853 4666 3247 4331 
Q 3641 3997 3641 3322 
Q 3641 2881 3436 2590 
Q 3231 2300 2841 2188 
z
M 1259 4147 
L 1259 2491 
L 2053 2491 
Q 2509 2491 2742 2702 
Q 2975 2913 2975 3322 
Q 2975 3731 2742 3939 
Q 2509 4147 2053 4147 
L 1259 4147 
z
" transform="scale(0.015625)"/>
       <path id="DejaVuSans-54" d="M -19 4666 
L 3928 4666 
L 3928 4134 
L 2272 4134 
L 2272 0 
L 1638 0 
L 1638 4134 
L -19 4134 
L -19 4666 
z
" transform="scale(0.015625)"/>
      </defs>
      <use xlink:href="#DejaVuSans-45"/>
      <use xlink:href="#DejaVuSans-73" transform="translate(63.183594 0)"/>
      <use xlink:href="#DejaVuSans-74" transform="translate(115.283203 0)"/>
      <use xlink:href="#DejaVuSans-69" transform="translate(154.492188 0)"/>
      <use xlink:href="#DejaVuSans-6d" transform="translate(182.275391 0)"/>
      <use xlink:href="#DejaVuSans-61" transform="translate(279.6875 0)"/>
      <use xlink:href="#DejaVuSans-74" transform="translate(340.966797 0)"/>
      <use xlink:href="#DejaVuSans-65" transform="translate(380.175781 0)"/>
      <use xlink:href="#DejaVuSans-64" transform="translate(441.699219 0)"/>
      <use xlink:href="#DejaVuSans-20" transform="translate(505.175781 0)"/>
      <use xlink:href="#DejaVuSans-52" transform="translate(536.962891 0)"/>
      <use xlink:href="#DejaVuSans-54" transform="translate(599.195312 0)"/>
      <use xlink:href="#DejaVuSans-36" transform="translate(660.279297 0)"/>
      <use xlink:href="#DejaVuSans-30" transform="translate(723.902344 0)"/>
     </g>
    </g>
   </g>
  </g>
 </g>
 <defs>
  <clipPath id="pdcc20941b4">
   <rect x="57.6" y="41.472" width="357.12" height="266.112"/>
  </clipPath>
 </defs>
</svg>
