<?xml version="1.0" encoding="utf-8" standalone="no"?>
<!DOCTYPE svg PUBLIC "-//W3C//DTD SVG 1.1//EN"
  "http://www.w3.org/Graphics/SVG/1.1/DTD/svg11.dtd">
<svg xmlns:xlink="http://www.w3.org/1999/xlink" width="460.8pt" height="345.6pt" viewBox="0 0 460.8 345.6" xmlns="http://www.w3.org/2000/svg" version="1.1">
 <metadata>
  <rdf:RDF xmlns:dc="http://purl.org/dc/elements/1.1/" xmlns:cc="http://creativecommons.org/ns#" xmlns:rdf="http://www.w3.org/1999/02/22-rdf-syntax-ns#">
   <cc:Work>
    <dc:type rdf:resource="http://purl.org/dc/dcmitype/StillImage"/>
    <dc:date>2025-05-07T11:48:15.998139</dc:date>
    <dc:format>image/svg+xml</dc:format>
    <dc:creator>
     <cc:Agent>
      <dc:title>Matplotlib v3.10.1, https://matplotlib.org/</dc:title>
     </cc:Agent>
    </dc:creator>
   </cc:Work>
  </rdf:RDF>
 </metadata>
 <defs>
  <style type="text/css">*{stroke-linejoin: round; stroke-linecap: butt}</style>
 </defs>
 <g id="figure_1">
  <g id="patch_1">
   <path d="M 0 345.6 
L 460.8 345.6 
L 460.8 0 
L 0 0 
z
" style="fill: #ffffff"/>
  </g>
  <g id="axes_1">
   <g id="patch_2">
    <path d="M 57.6 307.584 
L 414.72 307.584 
L 414.72 41.472 
L 57.6 41.472 
z
" style="fill: #ffffff"/>
   </g>
   <g id="matplotlib.axis_1">
    <g id="xtick_1">
     <g id="line2d_1">
      <defs>
       <path id="m9140df77a6" d="M 0 0 
L 0 3.5 
" style="stroke: #000000; stroke-width: 0.8"/>
      </defs>
      <g>
       <use xlink:href="#m9140df77a6" x="74.238545" y="307.584" style="stroke: #000000; stroke-width: 0.8"/>
      </g>
     </g>
     <g id="text_1">
      <!-- −0.2 -->
      <g transform="translate(62.097139 322.182437) scale(0.1 -0.1)">
       <defs>
        <path id="DejaVuSans-2212" d="M 678 2272 
L 4684 2272 
L 4684 1741 
L 678 1741 
L 678 2272 
z
" transform="scale(0.015625)"/>
        <path id="DejaVuSans-30" d="M 2034 4250 
Q 1547 4250 1301 3770 
Q 1056 3291 1056 2328 
Q 1056 1369 1301 889 
Q 1547 409 2034 409 
Q 2525 409 2770 889 
Q 3016 1369 3016 2328 
Q 3016 3291 2770 3770 
Q 2525 4250 2034 4250 
z
M 2034 4750 
Q 2819 4750 3233 4129 
Q 3647 3509 3647 2328 
Q 3647 1150 3233 529 
Q 2819 -91 2034 -91 
Q 1250 -91 836 529 
Q 422 1150 422 2328 
Q 422 3509 836 4129 
Q 1250 4750 2034 4750 
z
" transform="scale(0.015625)"/>
        <path id="DejaVuSans-2e" d="M 684 794 
L 1344 794 
L 1344 0 
L 684 0 
L 684 794 
z
" transform="scale(0.015625)"/>
        <path id="DejaVuSans-32" d="M 1228 531 
L 3431 531 
L 3431 0 
L 469 0 
L 469 531 
Q 828 903 1448 1529 
Q 2069 2156 2228 2338 
Q 2531 2678 2651 2914 
Q 2772 3150 2772 3378 
Q 2772 3750 2511 3984 
Q 2250 4219 1831 4219 
Q 1534 4219 1204 4116 
Q 875 4013 500 3803 
L 500 4441 
Q 881 4594 1212 4672 
Q 1544 4750 1819 4750 
Q 2544 4750 2975 4387 
Q 3406 4025 3406 3419 
Q 3406 3131 3298 2873 
Q 3191 2616 2906 2266 
Q 2828 2175 2409 1742 
Q 1991 1309 1228 531 
z
" transform="scale(0.015625)"/>
       </defs>
       <use xlink:href="#DejaVuSans-2212"/>
       <use xlink:href="#DejaVuSans-30" transform="translate(83.789062 0)"/>
       <use xlink:href="#DejaVuSans-2e" transform="translate(147.412109 0)"/>
       <use xlink:href="#DejaVuSans-32" transform="translate(179.199219 0)"/>
      </g>
     </g>
    </g>
    <g id="xtick_2">
     <g id="line2d_2">
      <g>
       <use xlink:href="#m9140df77a6" x="146.384" y="307.584" style="stroke: #000000; stroke-width: 0.8"/>
      </g>
     </g>
     <g id="text_2">
      <!-- 0.0 -->
      <g transform="translate(138.432437 322.182437) scale(0.1 -0.1)">
       <use xlink:href="#DejaVuSans-30"/>
       <use xlink:href="#DejaVuSans-2e" transform="translate(63.623047 0)"/>
       <use xlink:href="#DejaVuSans-30" transform="translate(95.410156 0)"/>
      </g>
     </g>
    </g>
    <g id="xtick_3">
     <g id="line2d_3">
      <g>
       <use xlink:href="#m9140df77a6" x="218.529455" y="307.584" style="stroke: #000000; stroke-width: 0.8"/>
      </g>
     </g>
     <g id="text_3">
      <!-- 0.2 -->
      <g transform="translate(210.577892 322.182437) scale(0.1 -0.1)">
       <use xlink:href="#DejaVuSans-30"/>
       <use xlink:href="#DejaVuSans-2e" transform="translate(63.623047 0)"/>
       <use xlink:href="#DejaVuSans-32" transform="translate(95.410156 0)"/>
      </g>
     </g>
    </g>
    <g id="xtick_4">
     <g id="line2d_4">
      <g>
       <use xlink:href="#m9140df77a6" x="290.674909" y="307.584" style="stroke: #000000; stroke-width: 0.8"/>
      </g>
     </g>
     <g id="text_4">
      <!-- 0.4 -->
      <g transform="translate(282.723347 322.182437) scale(0.1 -0.1)">
       <defs>
        <path id="DejaVuSans-34" d="M 2419 4116 
L 825 1625 
L 2419 1625 
L 2419 4116 
z
M 2253 4666 
L 3047 4666 
L 3047 1625 
L 3713 1625 
L 3713 1100 
L 3047 1100 
L 3047 0 
L 2419 0 
L 2419 1100 
L 313 1100 
L 313 1709 
L 2253 4666 
z
" transform="scale(0.015625)"/>
       </defs>
       <use xlink:href="#DejaVuSans-30"/>
       <use xlink:href="#DejaVuSans-2e" transform="translate(63.623047 0)"/>
       <use xlink:href="#DejaVuSans-34" transform="translate(95.410156 0)"/>
      </g>
     </g>
    </g>
    <g id="xtick_5">
     <g id="line2d_5">
      <g>
       <use xlink:href="#m9140df77a6" x="362.820364" y="307.584" style="stroke: #000000; stroke-width: 0.8"/>
      </g>
     </g>
     <g id="text_5">
      <!-- 0.6 -->
      <g transform="translate(354.868801 322.182437) scale(0.1 -0.1)">
       <defs>
        <path id="DejaVuSans-36" d="M 2113 2584 
Q 1688 2584 1439 2293 
Q 1191 2003 1191 1497 
Q 1191 994 1439 701 
Q 1688 409 2113 409 
Q 2538 409 2786 701 
Q 3034 994 3034 1497 
Q 3034 2003 2786 2293 
Q 2538 2584 2113 2584 
z
M 3366 4563 
L 3366 3988 
Q 3128 4100 2886 4159 
Q 2644 4219 2406 4219 
Q 1781 4219 1451 3797 
Q 1122 3375 1075 2522 
Q 1259 2794 1537 2939 
Q 1816 3084 2150 3084 
Q 2853 3084 3261 2657 
Q 3669 2231 3669 1497 
Q 3669 778 3244 343 
Q 2819 -91 2113 -91 
Q 1303 -91 875 529 
Q 447 1150 447 2328 
Q 447 3434 972 4092 
Q 1497 4750 2381 4750 
Q 2619 4750 2861 4703 
Q 3103 4656 3366 4563 
z
" transform="scale(0.015625)"/>
       </defs>
       <use xlink:href="#DejaVuSans-30"/>
       <use xlink:href="#DejaVuSans-2e" transform="translate(63.623047 0)"/>
       <use xlink:href="#DejaVuSans-36" transform="translate(95.410156 0)"/>
      </g>
     </g>
    </g>
   </g>
   <g id="matplotlib.axis_2">
    <g id="ytick_1">
     <g id="line2d_6">
      <defs>
       <path id="m5e1996b728" d="M 0 0 
L -3.5 0 
" style="stroke: #000000; stroke-width: 0.8"/>
      </defs>
      <g>
       <use xlink:href="#m5e1996b728" x="57.6" y="285.466889" style="stroke: #000000; stroke-width: 0.8"/>
      </g>
     </g>
     <g id="text_6">
      <!-- −140 -->
      <g transform="translate(23.132812 289.266108) scale(0.1 -0.1)">
       <defs>
        <path id="DejaVuSans-31" d="M 794 531 
L 1825 531 
L 1825 4091 
L 703 3866 
L 703 4441 
L 1819 4666 
L 2450 4666 
L 2450 531 
L 3481 531 
L 3481 0 
L 794 0 
L 794 531 
z
" transform="scale(0.015625)"/>
       </defs>
       <use xlink:href="#DejaVuSans-2212"/>
       <use xlink:href="#DejaVuSans-31" transform="translate(83.789062 0)"/>
       <use xlink:href="#DejaVuSans-34" transform="translate(147.412109 0)"/>
       <use xlink:href="#DejaVuSans-30" transform="translate(211.035156 0)"/>
      </g>
     </g>
    </g>
    <g id="ytick_2">
     <g id="line2d_7">
      <g>
       <use xlink:href="#m5e1996b728" x="57.6" y="252.338476" style="stroke: #000000; stroke-width: 0.8"/>
      </g>
     </g>
     <g id="text_7">
      <!-- −120 -->
      <g transform="translate(23.132812 256.137695) scale(0.1 -0.1)">
       <use xlink:href="#DejaVuSans-2212"/>
       <use xlink:href="#DejaVuSans-31" transform="translate(83.789062 0)"/>
       <use xlink:href="#DejaVuSans-32" transform="translate(147.412109 0)"/>
       <use xlink:href="#DejaVuSans-30" transform="translate(211.035156 0)"/>
      </g>
     </g>
    </g>
    <g id="ytick_3">
     <g id="line2d_8">
      <g>
       <use xlink:href="#m5e1996b728" x="57.6" y="219.210063" style="stroke: #000000; stroke-width: 0.8"/>
      </g>
     </g>
     <g id="text_8">
      <!-- −100 -->
      <g transform="translate(23.132812 223.009282) scale(0.1 -0.1)">
       <use xlink:href="#DejaVuSans-2212"/>
       <use xlink:href="#DejaVuSans-31" transform="translate(83.789062 0)"/>
       <use xlink:href="#DejaVuSans-30" transform="translate(147.412109 0)"/>
       <use xlink:href="#DejaVuSans-30" transform="translate(211.035156 0)"/>
      </g>
     </g>
    </g>
    <g id="ytick_4">
     <g id="line2d_9">
      <g>
       <use xlink:href="#m5e1996b728" x="57.6" y="186.081651" style="stroke: #000000; stroke-width: 0.8"/>
      </g>
     </g>
     <g id="text_9">
      <!-- −80 -->
      <g transform="translate(29.495313 189.88087) scale(0.1 -0.1)">
       <defs>
        <path id="DejaVuSans-38" d="M 2034 2216 
Q 1584 2216 1326 1975 
Q 1069 1734 1069 1313 
Q 1069 891 1326 650 
Q 1584 409 2034 409 
Q 2484 409 2743 651 
Q 3003 894 3003 1313 
Q 3003 1734 2745 1975 
Q 2488 2216 2034 2216 
z
M 1403 2484 
Q 997 2584 770 2862 
Q 544 3141 544 3541 
Q 544 4100 942 4425 
Q 1341 4750 2034 4750 
Q 2731 4750 3128 4425 
Q 3525 4100 3525 3541 
Q 3525 3141 3298 2862 
Q 3072 2584 2669 2484 
Q 3125 2378 3379 2068 
Q 3634 1759 3634 1313 
Q 3634 634 3220 271 
Q 2806 -91 2034 -91 
Q 1263 -91 848 271 
Q 434 634 434 1313 
Q 434 1759 690 2068 
Q 947 2378 1403 2484 
z
M 1172 3481 
Q 1172 3119 1398 2916 
Q 1625 2713 2034 2713 
Q 2441 2713 2670 2916 
Q 2900 3119 2900 3481 
Q 2900 3844 2670 4047 
Q 2441 4250 2034 4250 
Q 1625 4250 1398 4047 
Q 1172 3844 1172 3481 
z
" transform="scale(0.015625)"/>
       </defs>
       <use xlink:href="#DejaVuSans-2212"/>
       <use xlink:href="#DejaVuSans-38" transform="translate(83.789062 0)"/>
       <use xlink:href="#DejaVuSans-30" transform="translate(147.412109 0)"/>
      </g>
     </g>
    </g>
    <g id="ytick_5">
     <g id="line2d_10">
      <g>
       <use xlink:href="#m5e1996b728" x="57.6" y="152.953238" style="stroke: #000000; stroke-width: 0.8"/>
      </g>
     </g>
     <g id="text_10">
      <!-- −60 -->
      <g transform="translate(29.495313 156.752457) scale(0.1 -0.1)">
       <use xlink:href="#DejaVuSans-2212"/>
       <use xlink:href="#DejaVuSans-36" transform="translate(83.789062 0)"/>
       <use xlink:href="#DejaVuSans-30" transform="translate(147.412109 0)"/>
      </g>
     </g>
    </g>
    <g id="ytick_6">
     <g id="line2d_11">
      <g>
       <use xlink:href="#m5e1996b728" x="57.6" y="119.824825" style="stroke: #000000; stroke-width: 0.8"/>
      </g>
     </g>
     <g id="text_11">
      <!-- −40 -->
      <g transform="translate(29.495313 123.624044) scale(0.1 -0.1)">
       <use xlink:href="#DejaVuSans-2212"/>
       <use xlink:href="#DejaVuSans-34" transform="translate(83.789062 0)"/>
       <use xlink:href="#DejaVuSans-30" transform="translate(147.412109 0)"/>
      </g>
     </g>
    </g>
    <g id="ytick_7">
     <g id="line2d_12">
      <g>
       <use xlink:href="#m5e1996b728" x="57.6" y="86.696413" style="stroke: #000000; stroke-width: 0.8"/>
      </g>
     </g>
     <g id="text_12">
      <!-- −20 -->
      <g transform="translate(29.495313 90.495631) scale(0.1 -0.1)">
       <use xlink:href="#DejaVuSans-2212"/>
       <use xlink:href="#DejaVuSans-32" transform="translate(83.789062 0)"/>
       <use xlink:href="#DejaVuSans-30" transform="translate(147.412109 0)"/>
      </g>
     </g>
    </g>
    <g id="ytick_8">
     <g id="line2d_13">
      <g>
       <use xlink:href="#m5e1996b728" x="57.6" y="53.568" style="stroke: #000000; stroke-width: 0.8"/>
      </g>
     </g>
     <g id="text_13">
      <!-- 0 -->
      <g transform="translate(44.2375 57.367219) scale(0.1 -0.1)">
       <use xlink:href="#DejaVuSans-30"/>
      </g>
     </g>
    </g>
   </g>
   <g id="line2d_14">
    <path d="M 73.832727 53.568 
L 134.49503 53.677861 
L 135.569697 54.163627 
L 135.937939 54.437648 
L 136.238545 54.5495 
L 136.749576 54.954507 
L 136.929939 55.090344 
L 137.358303 55.532762 
L 137.583758 55.642384 
L 137.944485 55.852887 
L 139.67297 55.973832 
L 141.093333 56.429398 
L 141.43903 56.645551 
L 141.68703 56.751001 
L 142.213091 57.221745 
L 142.393455 57.3647 
L 142.881939 57.913278 
L 143.084848 58.026567 
L 143.67103 58.628156 
L 143.88897 58.752994 
L 144.512727 59.351281 
L 144.715636 59.484036 
L 145.422061 60.281365 
L 145.587394 60.518423 
L 146.113455 61.443285 
L 146.271273 61.55205 
L 146.444121 62.083013 
L 146.744727 62.830588 
L 147.000242 62.994394 
L 147.443636 63.639737 
L 147.669091 63.750793 
L 147.984727 63.903411 
L 148.292848 64.014832 
L 148.63103 64.091365 
L 148.961697 64.217992 
L 149.36 64.319768 
L 149.780848 64.429473 
L 150.314424 64.658755 
L 150.517333 64.787113 
L 151.065939 65.340867 
L 151.231273 65.480541 
L 151.772364 66.176072 
L 151.945212 66.318724 
L 152.343515 66.713886 
L 152.666667 66.824366 
L 152.997333 66.884366 
L 153.816485 67.09333 
L 154.838545 67.28711 
L 157.408727 67.573751 
L 158.784 68.025957 
L 159.242424 68.441499 
L 159.520485 68.550928 
L 160.099152 68.968497 
L 160.384727 69.074134 
L 160.970909 69.476023 
L 161.196364 69.595307 
L 161.707394 70.018658 
L 161.917818 70.136528 
L 162.308606 70.418359 
L 163.030061 70.529595 
L 164.908848 70.804791 
L 165.71297 70.853676 
L 166.855273 71.003756 
L 167.779636 71.528002 
L 168.155394 71.872643 
L 168.508606 72.010431 
L 169.057212 72.51544 
L 169.320242 72.623321 
L 169.92897 73.08388 
L 170.192 73.197709 
L 170.778182 73.675349 
L 170.988606 73.820494 
L 171.394424 74.129449 
L 172.183515 74.285751 
L 172.995152 74.667837 
L 173.235636 74.774856 
L 173.468606 74.881705 
L 173.799273 75.051854 
L 174.550788 75.161463 
L 175.242182 75.460002 
L 175.557818 75.512221 
L 175.813333 75.679314 
L 176.181576 75.874803 
L 176.790303 76.018141 
L 177.346424 76.337101 
L 177.504242 76.508704 
L 178.045333 77.342522 
L 178.203152 77.483511 
L 178.849455 78.438983 
L 179.037333 78.618128 
L 179.450667 79.051166 
L 181.412121 79.352512 
L 181.855515 79.65156 
L 182.028364 79.762382 
L 182.253818 80.321703 
L 182.494303 80.655741 
L 182.764848 80.795944 
L 183.230788 81.31274 
L 184.027394 81.497485 
L 184.508364 82.029487 
L 184.636121 82.164592 
L 184.816485 82.816016 
L 185.094545 83.582594 
L 185.350061 83.766854 
L 185.883636 84.775717 
L 186.169212 84.906938 
L 186.529939 84.945097 
L 186.935758 85.080336 
L 187.31903 85.40372 
L 187.454303 85.519498 
L 187.627152 86.095365 
L 187.905212 86.80689 
L 188.145697 86.970263 
L 188.701818 87.958557 
L 189.032485 88.083934 
L 189.453333 88.137723 
L 190.29503 88.270793 
L 190.851152 88.530783 
L 191.136727 88.653439 
L 191.602667 88.886161 
L 192.03103 89.000211 
L 192.602182 89.288224 
L 192.812606 89.410609 
L 193.353697 89.919147 
L 193.564121 90.038564 
L 194.067636 90.471832 
L 194.360727 90.581234 
L 194.751515 90.758346 
L 195.548121 90.869919 
L 197.216485 91.17403 
L 197.652364 91.447489 
L 197.885333 91.564636 
L 198.283636 91.835032 
L 198.712 91.94517 
L 200.230061 92.31744 
L 200.493091 92.468619 
L 200.673455 92.573519 
L 201.500121 94.06203 
L 201.70303 94.327076 
L 201.883394 94.429779 
L 202.078788 95.005061 
L 202.319273 95.445032 
L 202.589818 95.598341 
L 203.025697 96.145335 
L 203.303758 96.251875 
L 203.634424 96.359125 
L 204.491152 96.474587 
L 205.610909 96.534236 
L 206.993697 96.663733 
L 208.504242 96.956554 
L 210.270303 98.021738 
L 210.495758 98.145334 
L 210.871515 98.37742 
L 211.119515 98.488387 
L 211.555394 98.805536 
L 211.758303 98.923939 
L 212.246788 99.40306 
L 212.404606 99.5348 
L 212.908121 100.167509 
L 213.073455 100.308144 
L 213.539394 100.872093 
L 213.779879 100.980254 
L 214.238303 101.295379 
L 214.681697 101.409506 
L 215.102545 101.49556 
L 215.636121 101.609879 
L 217.342061 102.004993 
L 217.830545 102.186386 
L 218.108606 102.306195 
L 218.529455 102.527372 
L 218.890182 102.638263 
L 219.371152 102.835564 
L 219.716848 102.946384 
L 220.152727 103.161319 
L 220.468364 103.272314 
L 220.881697 103.452321 
L 221.234909 103.562851 
L 221.618182 103.678546 
L 222.031515 103.789721 
L 222.50497 103.827023 
L 223.669818 103.99813 
L 224.045576 104.152926 
L 224.24097 104.270557 
L 224.669333 104.642506 
L 224.842182 104.757913 
L 225.360727 105.349068 
L 225.526061 105.507788 
L 225.992 106.109606 
L 226.24 106.215597 
L 226.826182 106.710598 
L 227.149333 106.823071 
L 227.773091 107.185594 
L 227.976 107.304588 
L 228.562182 107.909266 
L 228.73503 108.142893 
L 229.050667 108.51083 
L 229.403879 108.644183 
L 229.749576 108.775706 
L 231.012121 108.897589 
L 232.297212 108.951969 
L 234.198545 109.080742 
L 234.739636 109.24362 
L 235.062788 109.311548 
L 235.288242 109.451745 
L 235.671515 109.702794 
L 236.024727 109.817031 
L 236.513212 110.056169 
L 236.91903 110.169836 
L 237.445091 110.43971 
L 237.723152 110.550733 
L 238.670061 111.729244 
L 238.910545 112.034112 
L 239.166061 112.163423 
L 239.684606 112.767096 
L 239.970182 112.877932 
L 240.383515 113.052452 
L 240.947152 113.169169 
L 242.112 113.499596 
L 242.480242 113.722301 
L 242.705697 113.830619 
L 243.569939 115.216519 
L 243.848 115.829238 
L 244.103515 115.992247 
L 244.742303 117.12545 
L 244.922667 117.319751 
L 245.373576 117.86933 
L 245.809455 118.033483 
L 246.237818 118.339941 
L 246.545939 118.447742 
L 246.891636 118.590603 
L 247.605576 118.702771 
L 248.830545 119.266675 
L 249.116121 119.321129 
L 250.250909 119.532644 
L 250.686788 119.696672 
L 250.904727 119.843783 
L 251.265455 120.086479 
L 251.588606 120.201021 
L 252.084606 120.508444 
L 252.340121 120.617988 
L 252.926303 121.13757 
L 253.106667 121.304549 
L 253.557576 121.827392 
L 253.910788 121.944628 
L 254.421818 122.222556 
L 255.075636 122.363683 
L 255.549091 122.474276 
L 255.849697 122.596852 
L 256.202909 122.71587 
L 256.969455 122.83153 
L 257.645818 123.104379 
L 258.164364 123.480542 
L 258.442424 123.779429 
L 258.682909 123.893372 
L 259.291636 124.625363 
L 259.472 124.900505 
L 259.772606 125.267296 
L 260.088242 125.401948 
L 260.426424 125.599291 
L 261.155394 125.715251 
L 261.929455 125.980075 
L 262.245091 126.133874 
L 262.478061 126.238374 
L 262.996606 126.675983 
L 263.20703 126.799396 
L 263.612848 127.096409 
L 265.611879 127.229001 
L 267.009697 127.515059 
L 267.377939 127.600729 
L 267.656 127.720684 
L 268.046788 127.907329 
L 268.309818 128.016903 
L 268.738182 128.290258 
L 269.001212 128.39695 
L 269.429576 128.659902 
L 269.715152 128.768181 
L 270.098424 128.95042 
L 270.421576 129.060505 
L 270.767273 129.138653 
L 271.496242 129.295737 
L 272.368 129.518295 
L 272.668606 129.628816 
L 272.991758 129.728275 
L 273.232242 129.849176 
L 273.585455 130.028705 
L 273.856 130.135256 
L 274.269333 130.35542 
L 274.660121 130.465513 
L 275.073455 130.54686 
L 278.492848 130.670271 
L 279.274424 130.81832 
L 279.913212 131.221534 
L 280.146182 131.324519 
L 280.334061 131.432967 
L 281.491394 132.95024 
L 281.746909 133.05845 
L 282.137697 133.278181 
L 283.204848 133.410282 
L 283.640727 133.705552 
L 283.821091 133.829048 
L 284.414788 134.54744 
L 284.587636 134.741729 
L 284.978424 135.205983 
L 285.331636 135.335832 
L 285.722424 135.54494 
L 286.105697 135.658588 
L 286.473939 135.748108 
L 286.849697 135.867128 
L 287.270545 135.926209 
L 287.646303 136.091013 
L 289.615273 137.048851 
L 290.036121 137.432603 
L 290.321697 137.54673 
L 290.968 138.17024 
L 291.133333 138.361402 
L 291.614303 139.053881 
L 291.802182 139.160262 
L 292.027636 139.710924 
L 292.268121 140.031313 
L 292.501091 140.153096 
L 293.042182 140.849173 
L 293.21503 141.02407 
L 293.545697 141.340502 
L 293.823758 141.452444 
L 294.17697 141.651296 
L 294.470061 141.758899 
L 294.830788 141.893755 
L 295.236606 142.004045 
L 295.69503 142.067394 
L 296.243636 142.176862 
L 296.769697 142.334894 
L 296.957576 142.492307 
L 297.506182 143.161685 
L 297.64897 143.308195 
L 297.889455 144.04959 
L 298.122424 144.418679 
L 298.377939 144.560344 
L 298.896485 145.249647 
L 299.242182 145.362998 
L 299.655515 145.400103 
L 300.632485 145.527313 
L 301.008242 145.637231 
L 301.203636 145.775646 
L 301.564364 146.059795 
L 301.759758 146.170722 
L 302.36097 146.881008 
L 302.533818 147.202841 
L 302.834424 147.668719 
L 303.202667 147.840338 
L 303.510788 147.999871 
L 304.653091 148.125086 
L 305.772848 148.700671 
L 307.140606 148.856597 
L 307.448727 149.113271 
L 307.719273 149.185306 
L 307.914667 149.303985 
L 308.418182 149.777991 
L 308.651152 149.895858 
L 309.08703 150.177783 
L 311.927758 150.403956 
L 313.032485 150.556223 
L 316.376727 150.68136 
L 318.443394 151.369653 
L 318.879273 151.630434 
L 319.217455 151.738866 
L 319.758545 152.051899 
L 320.021576 152.162872 
L 320.555152 152.564664 
L 320.788121 152.688517 
L 321.178909 152.926973 
L 321.975515 153.042363 
L 323.388364 153.38981 
L 323.831758 153.571262 
L 324.18497 153.680276 
L 324.650909 153.9046 
L 325.019152 154.011352 
L 325.462545 154.145257 
L 325.988606 154.255887 
L 326.507152 154.318115 
L 329.265212 154.970637 
L 329.708606 155.277253 
L 329.971636 155.387475 
L 330.490182 155.81212 
L 330.700606 155.937454 
L 331.091394 156.221528 
L 331.361939 156.332396 
L 331.722667 156.509133 
L 331.993212 156.617238 
L 332.376485 156.810041 
L 332.64703 156.915711 
L 333.067879 157.14853 
L 333.368485 157.259556 
L 333.751758 157.418572 
L 334.150061 157.52892 
L 334.570909 157.580574 
L 335.660606 157.763866 
L 336.141576 157.903184 
L 336.374545 158.046324 
L 336.750303 158.287993 
L 337.058424 158.396479 
L 337.471758 158.605353 
L 339.793939 158.73642 
L 344.122667 159.091518 
L 344.716364 159.283093 
L 344.926788 159.488502 
L 345.272485 159.799996 
L 345.520485 159.911132 
L 346.151758 160.616974 
L 346.339636 160.862194 
L 346.677818 161.261102 
L 347.121212 161.429018 
L 347.474424 161.565339 
L 349.082667 161.72403 
L 349.909333 161.832259 
L 351.171879 161.86961 
L 352.276606 161.982568 
L 353.381333 162.453509 
L 353.854788 162.817188 
L 354.095273 162.937537 
L 354.478545 163.165587 
L 354.786667 163.277117 
L 355.18497 163.487468 
L 355.425455 163.5979 
L 355.966545 164.063772 
L 356.131879 164.200076 
L 356.387394 164.847534 
L 356.627879 165.158966 
L 356.860848 165.28314 
L 357.048727 165.869424 
L 357.371879 166.717115 
L 357.672485 166.933977 
L 358.258667 168.078877 
L 358.454061 168.200213 
L 358.995152 168.72986 
L 359.355879 168.84083 
L 359.739152 168.919982 
L 361.655515 169.042004 
L 361.963636 169.217849 
L 362.279273 169.318977 
L 362.497212 169.436075 
L 362.970667 169.845189 
L 363.203636 169.95858 
L 363.61697 170.216416 
L 365.232727 170.338861 
L 365.458182 170.490146 
L 365.796364 170.708449 
L 365.999273 170.819117 
L 366.653091 171.591834 
L 366.856 171.890903 
L 367.179152 172.265003 
L 367.757818 172.48968 
L 368.126061 172.6253 
L 368.584485 172.741312 
L 369.020364 172.875909 
L 369.305939 172.989399 
L 369.741818 173.24736 
L 369.914667 173.36565 
L 370.756364 174.863196 
L 370.989333 175.297556 
L 371.222303 175.43661 
L 371.440242 176.122786 
L 371.688242 176.59844 
L 372.056485 176.814175 
L 372.454788 177.216048 
L 373.326545 177.559298 
L 373.634667 177.796078 
L 373.860121 177.903584 
L 374.070545 178.426974 
L 374.326061 178.845126 
L 374.574061 178.986821 
L 375.130182 179.815163 
L 375.325576 179.961638 
L 375.723879 180.289911 
L 376.137212 180.421738 
L 376.565576 180.65162 
L 376.79103 180.757872 
L 377.610182 181.968098 
L 377.963394 182.965295 
L 378.188848 183.10695 
L 378.384242 183.797965 
L 378.699879 184.685522 
L 379.135758 185.085411 
L 379.691879 186.454242 
L 379.827152 186.564593 
L 379.992485 187.131129 
L 380.345697 188.284179 
L 380.638788 188.492744 
L 381.127273 189.317809 
L 381.397818 189.426333 
L 381.736 189.576043 
L 382.374788 189.686063 
L 383.096242 190.240153 
L 383.396848 190.666293 
L 383.607273 190.780098 
L 383.757576 191.306714 
L 384.148364 192.731939 
L 384.291152 192.840941 
L 384.411394 193.443395 
L 384.967515 196.976225 
L 385.065212 197.286963 
L 385.245576 198.878345 
L 385.553697 201.094412 
L 385.734061 201.157294 
L 385.974545 201.288549 
L 386.305212 201.725332 
L 386.553212 202.525968 
L 386.838788 203.205217 
L 387.034182 203.347771 
L 387.169455 204.052367 
L 387.70303 207.41058 
L 387.808242 207.542927 
L 387.958545 208.280119 
L 388.341818 210.179895 
L 388.574788 210.21822 
L 389.401455 210.461535 
L 390.213091 212.204065 
L 390.694061 214.75565 
L 390.821818 214.853982 
L 390.949576 215.413742 
L 391.212606 217.970741 
L 391.453091 219.237818 
L 391.716121 219.547714 
L 391.88897 220.75706 
L 392.249697 223.107606 
L 393.211636 224.16988 
L 393.594909 224.517787 
L 393.782788 224.629653 
L 393.918061 225.147273 
L 394.504242 227.977913 
L 394.609455 228.495004 
L 394.782303 230.808283 
L 395.120485 234.925735 
L 395.293333 235.146387 
L 395.421091 236.300955 
L 395.661576 241.18493 
L 395.917091 244.490833 
L 396.202667 245.16985 
L 396.390545 247.541042 
L 396.864 253.719101 
L 397.112 254.086628 
L 397.262303 255.538191 
L 397.517818 260.804914 
L 397.780848 264.415944 
L 398.006303 264.935966 
L 398.141576 267.028289 
L 398.314424 273.609042 
L 398.457212 288.216048 
L 398.479758 295.488 
L 398.479758 295.488 
" clip-path="url(#p9c551c6794)" style="fill: none; stroke: #1f77b4; stroke-width: 1.5; stroke-linecap: square"/>
   </g>
   <g id="line2d_15">
    <path d="M 146.384 61.854532 
L 346.602667 161.235341 
" clip-path="url(#p9c551c6794)" style="fill: none; stroke-dasharray: 5.55,2.4; stroke-dashoffset: 0; stroke: #ff7f0e; stroke-width: 1.5"/>
   </g>
   <g id="line2d_16">
    <path d="M 73.832727 152.953238 
L 398.487273 152.953238 
L 398.487273 152.953238 
" clip-path="url(#p9c551c6794)" style="fill: none; stroke-dasharray: 5.55,2.4; stroke-dashoffset: 0; stroke: #2ca02c; stroke-width: 1.5"/>
   </g>
   <g id="LineCollection_1">
    <path d="M 346.602667 295.488 
L 346.602667 53.568 
" clip-path="url(#p9c551c6794)" style="fill: none; stroke-dasharray: 5.55,2.4; stroke-dashoffset: 0; stroke: #1f77b4; stroke-width: 1.5"/>
   </g>
   <g id="patch_3">
    <path d="M 57.6 307.584 
L 57.6 41.472 
" style="fill: none; stroke: #000000; stroke-width: 0.8; stroke-linejoin: miter; stroke-linecap: square"/>
   </g>
   <g id="patch_4">
    <path d="M 414.72 307.584 
L 414.72 41.472 
" style="fill: none; stroke: #000000; stroke-width: 0.8; stroke-linejoin: miter; stroke-linecap: square"/>
   </g>
   <g id="patch_5">
    <path d="M 57.6 307.584 
L 414.72 307.584 
" style="fill: none; stroke: #000000; stroke-width: 0.8; stroke-linejoin: miter; stroke-linecap: square"/>
   </g>
   <g id="patch_6">
    <path d="M 57.6 41.472 
L 414.72 41.472 
" style="fill: none; stroke: #000000; stroke-width: 0.8; stroke-linejoin: miter; stroke-linecap: square"/>
   </g>
   <g id="text_14">
    <!-- Energy Decay - 250 Hz -->
    <g transform="translate(167.4075 35.472) scale(0.12 -0.12)">
     <defs>
      <path id="DejaVuSans-45" d="M 628 4666 
L 3578 4666 
L 3578 4134 
L 1259 4134 
L 1259 2753 
L 3481 2753 
L 3481 2222 
L 1259 2222 
L 1259 531 
L 3634 531 
L 3634 0 
L 628 0 
L 628 4666 
z
" transform="scale(0.015625)"/>
      <path id="DejaVuSans-6e" d="M 3513 2113 
L 3513 0 
L 2938 0 
L 2938 2094 
Q 2938 2591 2744 2837 
Q 2550 3084 2163 3084 
Q 1697 3084 1428 2787 
Q 1159 2491 1159 1978 
L 1159 0 
L 581 0 
L 581 3500 
L 1159 3500 
L 1159 2956 
Q 1366 3272 1645 3428 
Q 1925 3584 2291 3584 
Q 2894 3584 3203 3211 
Q 3513 2838 3513 2113 
z
" transform="scale(0.015625)"/>
      <path id="DejaVuSans-65" d="M 3597 1894 
L 3597 1613 
L 953 1613 
Q 991 1019 1311 708 
Q 1631 397 2203 397 
Q 2534 397 2845 478 
Q 3156 559 3463 722 
L 3463 178 
Q 3153 47 2828 -22 
Q 2503 -91 2169 -91 
Q 1331 -91 842 396 
Q 353 884 353 1716 
Q 353 2575 817 3079 
Q 1281 3584 2069 3584 
Q 2775 3584 3186 3129 
Q 3597 2675 3597 1894 
z
M 3022 2063 
Q 3016 2534 2758 2815 
Q 2500 3097 2075 3097 
Q 1594 3097 1305 2825 
Q 1016 2553 972 2059 
L 3022 2063 
z
" transform="scale(0.015625)"/>
      <path id="DejaVuSans-72" d="M 2631 2963 
Q 2534 3019 2420 3045 
Q 2306 3072 2169 3072 
Q 1681 3072 1420 2755 
Q 1159 2438 1159 1844 
L 1159 0 
L 581 0 
L 581 3500 
L 1159 3500 
L 1159 2956 
Q 1341 3275 1631 3429 
Q 1922 3584 2338 3584 
Q 2397 3584 2469 3576 
Q 2541 3569 2628 3553 
L 2631 2963 
z
" transform="scale(0.015625)"/>
      <path id="DejaVuSans-67" d="M 2906 1791 
Q 2906 2416 2648 2759 
Q 2391 3103 1925 3103 
Q 1463 3103 1205 2759 
Q 947 2416 947 1791 
Q 947 1169 1205 825 
Q 1463 481 1925 481 
Q 2391 481 2648 825 
Q 2906 1169 2906 1791 
z
M 3481 434 
Q 3481 -459 3084 -895 
Q 2688 -1331 1869 -1331 
Q 1566 -1331 1297 -1286 
Q 1028 -1241 775 -1147 
L 775 -588 
Q 1028 -725 1275 -790 
Q 1522 -856 1778 -856 
Q 2344 -856 2625 -561 
Q 2906 -266 2906 331 
L 2906 616 
Q 2728 306 2450 153 
Q 2172 0 1784 0 
Q 1141 0 747 490 
Q 353 981 353 1791 
Q 353 2603 747 3093 
Q 1141 3584 1784 3584 
Q 2172 3584 2450 3431 
Q 2728 3278 2906 2969 
L 2906 3500 
L 3481 3500 
L 3481 434 
z
" transform="scale(0.015625)"/>
      <path id="DejaVuSans-79" d="M 2059 -325 
Q 1816 -950 1584 -1140 
Q 1353 -1331 966 -1331 
L 506 -1331 
L 506 -850 
L 844 -850 
Q 1081 -850 1212 -737 
Q 1344 -625 1503 -206 
L 1606 56 
L 191 3500 
L 800 3500 
L 1894 763 
L 2988 3500 
L 3597 3500 
L 2059 -325 
z
" transform="scale(0.015625)"/>
      <path id="DejaVuSans-20" transform="scale(0.015625)"/>
      <path id="DejaVuSans-44" d="M 1259 4147 
L 1259 519 
L 2022 519 
Q 2988 519 3436 956 
Q 3884 1394 3884 2338 
Q 3884 3275 3436 3711 
Q 2988 4147 2022 4147 
L 1259 4147 
z
M 628 4666 
L 1925 4666 
Q 3281 4666 3915 4102 
Q 4550 3538 4550 2338 
Q 4550 1131 3912 565 
Q 3275 0 1925 0 
L 628 0 
L 628 4666 
z
" transform="scale(0.015625)"/>
      <path id="DejaVuSans-63" d="M 3122 3366 
L 3122 2828 
Q 2878 2963 2633 3030 
Q 2388 3097 2138 3097 
Q 1578 3097 1268 2742 
Q 959 2388 959 1747 
Q 959 1106 1268 751 
Q 1578 397 2138 397 
Q 2388 397 2633 464 
Q 2878 531 3122 666 
L 3122 134 
Q 2881 22 2623 -34 
Q 2366 -91 2075 -91 
Q 1284 -91 818 406 
Q 353 903 353 1747 
Q 353 2603 823 3093 
Q 1294 3584 2113 3584 
Q 2378 3584 2631 3529 
Q 2884 3475 3122 3366 
z
" transform="scale(0.015625)"/>
      <path id="DejaVuSans-61" d="M 2194 1759 
Q 1497 1759 1228 1600 
Q 959 1441 959 1056 
Q 959 750 1161 570 
Q 1363 391 1709 391 
Q 2188 391 2477 730 
Q 2766 1069 2766 1631 
L 2766 1759 
L 2194 1759 
z
M 3341 1997 
L 3341 0 
L 2766 0 
L 2766 531 
Q 2569 213 2275 61 
Q 1981 -91 1556 -91 
Q 1019 -91 701 211 
Q 384 513 384 1019 
Q 384 1609 779 1909 
Q 1175 2209 1959 2209 
L 2766 2209 
L 2766 2266 
Q 2766 2663 2505 2880 
Q 2244 3097 1772 3097 
Q 1472 3097 1187 3025 
Q 903 2953 641 2809 
L 641 3341 
Q 956 3463 1253 3523 
Q 1550 3584 1831 3584 
Q 2591 3584 2966 3190 
Q 3341 2797 3341 1997 
z
" transform="scale(0.015625)"/>
      <path id="DejaVuSans-2d" d="M 313 2009 
L 1997 2009 
L 1997 1497 
L 313 1497 
L 313 2009 
z
" transform="scale(0.015625)"/>
      <path id="DejaVuSans-35" d="M 691 4666 
L 3169 4666 
L 3169 4134 
L 1269 4134 
L 1269 2991 
Q 1406 3038 1543 3061 
Q 1681 3084 1819 3084 
Q 2600 3084 3056 2656 
Q 3513 2228 3513 1497 
Q 3513 744 3044 326 
Q 2575 -91 1722 -91 
Q 1428 -91 1123 -41 
Q 819 9 494 109 
L 494 744 
Q 775 591 1075 516 
Q 1375 441 1709 441 
Q 2250 441 2565 725 
Q 2881 1009 2881 1497 
Q 2881 1984 2565 2268 
Q 2250 2553 1709 2553 
Q 1456 2553 1204 2497 
Q 953 2441 691 2322 
L 691 4666 
z
" transform="scale(0.015625)"/>
      <path id="DejaVuSans-48" d="M 628 4666 
L 1259 4666 
L 1259 2753 
L 3553 2753 
L 3553 4666 
L 4184 4666 
L 4184 0 
L 3553 0 
L 3553 2222 
L 1259 2222 
L 1259 0 
L 628 0 
L 628 4666 
z
" transform="scale(0.015625)"/>
      <path id="DejaVuSans-7a" d="M 353 3500 
L 3084 3500 
L 3084 2975 
L 922 459 
L 3084 459 
L 3084 0 
L 275 0 
L 275 525 
L 2438 3041 
L 353 3041 
L 353 3500 
z
" transform="scale(0.015625)"/>
     </defs>
     <use xlink:href="#DejaVuSans-45"/>
     <use xlink:href="#DejaVuSans-6e" transform="translate(63.183594 0)"/>
     <use xlink:href="#DejaVuSans-65" transform="translate(126.5625 0)"/>
     <use xlink:href="#DejaVuSans-72" transform="translate(188.085938 0)"/>
     <use xlink:href="#DejaVuSans-67" transform="translate(227.449219 0)"/>
     <use xlink:href="#DejaVuSans-79" transform="translate(290.925781 0)"/>
     <use xlink:href="#DejaVuSans-20" transform="translate(350.105469 0)"/>
     <use xlink:href="#DejaVuSans-44" transform="translate(381.892578 0)"/>
     <use xlink:href="#DejaVuSans-65" transform="translate(458.894531 0)"/>
     <use xlink:href="#DejaVuSans-63" transform="translate(520.417969 0)"/>
     <use xlink:href="#DejaVuSans-61" transform="translate(575.398438 0)"/>
     <use xlink:href="#DejaVuSans-79" transform="translate(636.677734 0)"/>
     <use xlink:href="#DejaVuSans-20" transform="translate(695.857422 0)"/>
     <use xlink:href="#DejaVuSans-2d" transform="translate(727.644531 0)"/>
     <use xlink:href="#DejaVuSans-20" transform="translate(763.728516 0)"/>
     <use xlink:href="#DejaVuSans-32" transform="translate(795.515625 0)"/>
     <use xlink:href="#DejaVuSans-35" transform="translate(859.138672 0)"/>
     <use xlink:href="#DejaVuSans-30" transform="translate(922.761719 0)"/>
     <use xlink:href="#DejaVuSans-20" transform="translate(986.384766 0)"/>
     <use xlink:href="#DejaVuSans-48" transform="translate(1018.171875 0)"/>
     <use xlink:href="#DejaVuSans-7a" transform="translate(1093.367188 0)"/>
    </g>
   </g>
   <g id="legend_1">
    <g id="patch_7">
     <path d="M 296.968437 108.1845 
L 407.72 108.1845 
Q 409.72 108.1845 409.72 106.1845 
L 409.72 48.472 
Q 409.72 46.472 407.72 46.472 
L 296.968437 46.472 
Q 294.968437 46.472 294.968437 48.472 
L 294.968437 106.1845 
Q 294.968437 108.1845 296.968437 108.1845 
z
" style="fill: #ffffff; opacity: 0.8; stroke: #cccccc; stroke-linejoin: miter"/>
    </g>
    <g id="line2d_17">
     <path d="M 298.968437 54.570438 
L 308.968437 54.570438 
L 318.968437 54.570438 
" style="fill: none; stroke: #1f77b4; stroke-width: 1.5; stroke-linecap: square"/>
    </g>
    <g id="text_15">
     <!-- Energy -->
     <g transform="translate(326.968437 58.070438) scale(0.1 -0.1)">
      <use xlink:href="#DejaVuSans-45"/>
      <use xlink:href="#DejaVuSans-6e" transform="translate(63.183594 0)"/>
      <use xlink:href="#DejaVuSans-65" transform="translate(126.5625 0)"/>
      <use xlink:href="#DejaVuSans-72" transform="translate(188.085938 0)"/>
      <use xlink:href="#DejaVuSans-67" transform="translate(227.449219 0)"/>
      <use xlink:href="#DejaVuSans-79" transform="translate(290.925781 0)"/>
     </g>
    </g>
    <g id="line2d_18">
     <path d="M 298.968437 69.248563 
L 308.968437 69.248563 
L 318.968437 69.248563 
" style="fill: none; stroke-dasharray: 5.55,2.4; stroke-dashoffset: 0; stroke: #ff7f0e; stroke-width: 1.5"/>
    </g>
    <g id="text_16">
     <!-- Linear Fit -->
     <g transform="translate(326.968437 72.748563) scale(0.1 -0.1)">
      <defs>
       <path id="DejaVuSans-4c" d="M 628 4666 
L 1259 4666 
L 1259 531 
L 3531 531 
L 3531 0 
L 628 0 
L 628 4666 
z
" transform="scale(0.015625)"/>
       <path id="DejaVuSans-69" d="M 603 3500 
L 1178 3500 
L 1178 0 
L 603 0 
L 603 3500 
z
M 603 4863 
L 1178 4863 
L 1178 4134 
L 603 4134 
L 603 4863 
z
" transform="scale(0.015625)"/>
       <path id="DejaVuSans-46" d="M 628 4666 
L 3309 4666 
L 3309 4134 
L 1259 4134 
L 1259 2759 
L 3109 2759 
L 3109 2228 
L 1259 2228 
L 1259 0 
L 628 0 
L 628 4666 
z
" transform="scale(0.015625)"/>
       <path id="DejaVuSans-74" d="M 1172 4494 
L 1172 3500 
L 2356 3500 
L 2356 3053 
L 1172 3053 
L 1172 1153 
Q 1172 725 1289 603 
Q 1406 481 1766 481 
L 2356 481 
L 2356 0 
L 1766 0 
Q 1100 0 847 248 
Q 594 497 594 1153 
L 594 3053 
L 172 3053 
L 172 3500 
L 594 3500 
L 594 4494 
L 1172 4494 
z
" transform="scale(0.015625)"/>
      </defs>
      <use xlink:href="#DejaVuSans-4c"/>
      <use xlink:href="#DejaVuSans-69" transform="translate(55.712891 0)"/>
      <use xlink:href="#DejaVuSans-6e" transform="translate(83.496094 0)"/>
      <use xlink:href="#DejaVuSans-65" transform="translate(146.875 0)"/>
      <use xlink:href="#DejaVuSans-61" transform="translate(208.398438 0)"/>
      <use xlink:href="#DejaVuSans-72" transform="translate(269.677734 0)"/>
      <use xlink:href="#DejaVuSans-20" transform="translate(310.791016 0)"/>
      <use xlink:href="#DejaVuSans-46" transform="translate(342.578125 0)"/>
      <use xlink:href="#DejaVuSans-69" transform="translate(392.847656 0)"/>
      <use xlink:href="#DejaVuSans-74" transform="translate(420.630859 0)"/>
     </g>
    </g>
    <g id="line2d_19">
     <path d="M 298.968437 83.926688 
L 308.968437 83.926688 
L 318.968437 83.926688 
" style="fill: none; stroke-dasharray: 5.55,2.4; stroke-dashoffset: 0; stroke: #2ca02c; stroke-width: 1.5"/>
    </g>
    <g id="text_17">
     <!-- -60 dB -->
     <g transform="translate(326.968437 87.426688) scale(0.1 -0.1)">
      <defs>
       <path id="DejaVuSans-64" d="M 2906 2969 
L 2906 4863 
L 3481 4863 
L 3481 0 
L 2906 0 
L 2906 525 
Q 2725 213 2448 61 
Q 2172 -91 1784 -91 
Q 1150 -91 751 415 
Q 353 922 353 1747 
Q 353 2572 751 3078 
Q 1150 3584 1784 3584 
Q 2172 3584 2448 3432 
Q 2725 3281 2906 2969 
z
M 947 1747 
Q 947 1113 1208 752 
Q 1469 391 1925 391 
Q 2381 391 2643 752 
Q 2906 1113 2906 1747 
Q 2906 2381 2643 2742 
Q 2381 3103 1925 3103 
Q 1469 3103 1208 2742 
Q 947 2381 947 1747 
z
" transform="scale(0.015625)"/>
       <path id="DejaVuSans-42" d="M 1259 2228 
L 1259 519 
L 2272 519 
Q 2781 519 3026 730 
Q 3272 941 3272 1375 
Q 3272 1813 3026 2020 
Q 2781 2228 2272 2228 
L 1259 2228 
z
M 1259 4147 
L 1259 2741 
L 2194 2741 
Q 2656 2741 2882 2914 
Q 3109 3088 3109 3444 
Q 3109 3797 2882 3972 
Q 2656 4147 2194 4147 
L 1259 4147 
z
M 628 4666 
L 2241 4666 
Q 2963 4666 3353 4366 
Q 3744 4066 3744 3513 
Q 3744 3084 3544 2831 
Q 3344 2578 2956 2516 
Q 3422 2416 3680 2098 
Q 3938 1781 3938 1306 
Q 3938 681 3513 340 
Q 3088 0 2303 0 
L 628 0 
L 628 4666 
z
" transform="scale(0.015625)"/>
      </defs>
      <use xlink:href="#DejaVuSans-2d"/>
      <use xlink:href="#DejaVuSans-36" transform="translate(36.083984 0)"/>
      <use xlink:href="#DejaVuSans-30" transform="translate(99.707031 0)"/>
      <use xlink:href="#DejaVuSans-20" transform="translate(163.330078 0)"/>
      <use xlink:href="#DejaVuSans-64" transform="translate(195.117188 0)"/>
      <use xlink:href="#DejaVuSans-42" transform="translate(258.59375 0)"/>
     </g>
    </g>
    <g id="line2d_20">
     <path d="M 298.968437 98.604813 
L 318.968437 98.604813 
" style="fill: none; stroke-dasharray: 5.55,2.4; stroke-dashoffset: 0; stroke: #1f77b4; stroke-width: 1.5"/>
    </g>
    <g id="text_18">
     <!-- Estimated RT60 -->
     <g transform="translate(326.968437 102.104813) scale(0.1 -0.1)">
      <defs>
       <path id="DejaVuSans-73" d="M 2834 3397 
L 2834 2853 
Q 2591 2978 2328 3040 
Q 2066 3103 1784 3103 
Q 1356 3103 1142 2972 
Q 928 2841 928 2578 
Q 928 2378 1081 2264 
Q 1234 2150 1697 2047 
L 1894 2003 
Q 2506 1872 2764 1633 
Q 3022 1394 3022 966 
Q 3022 478 2636 193 
Q 2250 -91 1575 -91 
Q 1294 -91 989 -36 
Q 684 19 347 128 
L 347 722 
Q 666 556 975 473 
Q 1284 391 1588 391 
Q 1994 391 2212 530 
Q 2431 669 2431 922 
Q 2431 1156 2273 1281 
Q 2116 1406 1581 1522 
L 1381 1569 
Q 847 1681 609 1914 
Q 372 2147 372 2553 
Q 372 3047 722 3315 
Q 1072 3584 1716 3584 
Q 2034 3584 2315 3537 
Q 2597 3491 2834 3397 
z
" transform="scale(0.015625)"/>
       <path id="DejaVuSans-6d" d="M 3328 2828 
Q 3544 3216 3844 3400 
Q 4144 3584 4550 3584 
Q 5097 3584 5394 3201 
Q 5691 2819 5691 2113 
L 5691 0 
L 5113 0 
L 5113 2094 
Q 5113 2597 4934 2840 
Q 4756 3084 4391 3084 
Q 3944 3084 3684 2787 
Q 3425 2491 3425 1978 
L 3425 0 
L 2847 0 
L 2847 2094 
Q 2847 2600 2669 2842 
Q 2491 3084 2119 3084 
Q 1678 3084 1418 2786 
Q 1159 2488 1159 1978 
L 1159 0 
L 581 0 
L 581 3500 
L 1159 3500 
L 1159 2956 
Q 1356 3278 1631 3431 
Q 1906 3584 2284 3584 
Q 2666 3584 2933 3390 
Q 3200 3197 3328 2828 
z
" transform="scale(0.015625)"/>
       <path id="DejaVuSans-52" d="M 2841 2188 
Q 3044 2119 3236 1894 
Q 3428 1669 3622 1275 
L 4263 0 
L 3584 0 
L 2988 1197 
Q 2756 1666 2539 1819 
Q 2322 1972 1947 1972 
L 1259 1972 
L 1259 0 
L 628 0 
L 628 4666 
L 2053 4666 
Q 2853 4666 3247 4331 
Q 3641 3997 3641 3322 
Q 3641 2881 3436 2590 
Q 3231 2300 2841 2188 
z
M 1259 4147 
L 1259 2491 
L 2053 2491 
Q 2509 2491 2742 2702 
Q 2975 2913 2975 3322 
Q 2975 3731 2742 3939 
Q 2509 4147 2053 4147 
L 1259 4147 
z
" transform="scale(0.015625)"/>
       <path id="DejaVuSans-54" d="M -19 4666 
L 3928 4666 
L 3928 4134 
L 2272 4134 
L 2272 0 
L 1638 0 
L 1638 4134 
L -19 4134 
L -19 4666 
z
" transform="scale(0.015625)"/>
      </defs>
      <use xlink:href="#DejaVuSans-45"/>
      <use xlink:href="#DejaVuSans-73" transform="translate(63.183594 0)"/>
      <use xlink:href="#DejaVuSans-74" transform="translate(115.283203 0)"/>
      <use xlink:href="#DejaVuSans-69" transform="translate(154.492188 0)"/>
      <use xlink:href="#DejaVuSans-6d" transform="translate(182.275391 0)"/>
      <use xlink:href="#DejaVuSans-61" transform="translate(279.6875 0)"/>
      <use xlink:href="#DejaVuSans-74" transform="translate(340.966797 0)"/>
      <use xlink:href="#DejaVuSans-65" transform="translate(380.175781 0)"/>
      <use xlink:href="#DejaVuSans-64" transform="translate(441.699219 0)"/>
      <use xlink:href="#DejaVuSans-20" transform="translate(505.175781 0)"/>
      <use xlink:href="#DejaVuSans-52" transform="translate(536.962891 0)"/>
      <use xlink:href="#DejaVuSans-54" transform="translate(599.195312 0)"/>
      <use xlink:href="#DejaVuSans-36" transform="translate(660.279297 0)"/>
      <use xlink:href="#DejaVuSans-30" transform="translate(723.902344 0)"/>
     </g>
    </g>
   </g>
  </g>
 </g>
 <defs>
  <clipPath id="p9c551c6794">
   <rect x="57.6" y="41.472" width="357.12" height="266.112"/>
  </clipPath>
 </defs>
</svg>
