<?xml version="1.0" encoding="utf-8" standalone="no"?>
<!DOCTYPE svg PUBLIC "-//W3C//DTD SVG 1.1//EN"
  "http://www.w3.org/Graphics/SVG/1.1/DTD/svg11.dtd">
<svg xmlns:xlink="http://www.w3.org/1999/xlink" width="460.8pt" height="345.6pt" viewBox="0 0 460.8 345.6" xmlns="http://www.w3.org/2000/svg" version="1.1">
 <metadata>
  <rdf:RDF xmlns:dc="http://purl.org/dc/elements/1.1/" xmlns:cc="http://creativecommons.org/ns#" xmlns:rdf="http://www.w3.org/1999/02/22-rdf-syntax-ns#">
   <cc:Work>
    <dc:type rdf:resource="http://purl.org/dc/dcmitype/StillImage"/>
    <dc:date>2025-05-07T11:57:33.916009</dc:date>
    <dc:format>image/svg+xml</dc:format>
    <dc:creator>
     <cc:Agent>
      <dc:title>Matplotlib v3.10.1, https://matplotlib.org/</dc:title>
     </cc:Agent>
    </dc:creator>
   </cc:Work>
  </rdf:RDF>
 </metadata>
 <defs>
  <style type="text/css">*{stroke-linejoin: round; stroke-linecap: butt}</style>
 </defs>
 <g id="figure_1">
  <g id="patch_1">
   <path d="M 0 345.6 
L 460.8 345.6 
L 460.8 0 
L 0 0 
z
" style="fill: #ffffff"/>
  </g>
  <g id="axes_1">
   <g id="patch_2">
    <path d="M 57.6 307.584 
L 414.72 307.584 
L 414.72 41.472 
L 57.6 41.472 
z
" style="fill: #ffffff"/>
   </g>
   <g id="matplotlib.axis_1">
    <g id="xtick_1">
     <g id="line2d_1">
      <defs>
       <path id="m34d9a077f4" d="M 0 0 
L 0 3.5 
" style="stroke: #000000; stroke-width: 0.8"/>
      </defs>
      <g>
       <use xlink:href="#m34d9a077f4" x="68.360331" y="307.584" style="stroke: #000000; stroke-width: 0.8"/>
      </g>
     </g>
     <g id="text_1">
      <!-- −0.2 -->
      <g transform="translate(56.218924 322.182437) scale(0.1 -0.1)">
       <defs>
        <path id="DejaVuSans-2212" d="M 678 2272 
L 4684 2272 
L 4684 1741 
L 678 1741 
L 678 2272 
z
" transform="scale(0.015625)"/>
        <path id="DejaVuSans-30" d="M 2034 4250 
Q 1547 4250 1301 3770 
Q 1056 3291 1056 2328 
Q 1056 1369 1301 889 
Q 1547 409 2034 409 
Q 2525 409 2770 889 
Q 3016 1369 3016 2328 
Q 3016 3291 2770 3770 
Q 2525 4250 2034 4250 
z
M 2034 4750 
Q 2819 4750 3233 4129 
Q 3647 3509 3647 2328 
Q 3647 1150 3233 529 
Q 2819 -91 2034 -91 
Q 1250 -91 836 529 
Q 422 1150 422 2328 
Q 422 3509 836 4129 
Q 1250 4750 2034 4750 
z
" transform="scale(0.015625)"/>
        <path id="DejaVuSans-2e" d="M 684 794 
L 1344 794 
L 1344 0 
L 684 0 
L 684 794 
z
" transform="scale(0.015625)"/>
        <path id="DejaVuSans-32" d="M 1228 531 
L 3431 531 
L 3431 0 
L 469 0 
L 469 531 
Q 828 903 1448 1529 
Q 2069 2156 2228 2338 
Q 2531 2678 2651 2914 
Q 2772 3150 2772 3378 
Q 2772 3750 2511 3984 
Q 2250 4219 1831 4219 
Q 1534 4219 1204 4116 
Q 875 4013 500 3803 
L 500 4441 
Q 881 4594 1212 4672 
Q 1544 4750 1819 4750 
Q 2544 4750 2975 4387 
Q 3406 4025 3406 3419 
Q 3406 3131 3298 2873 
Q 3191 2616 2906 2266 
Q 2828 2175 2409 1742 
Q 1991 1309 1228 531 
z
" transform="scale(0.015625)"/>
       </defs>
       <use xlink:href="#DejaVuSans-2212"/>
       <use xlink:href="#DejaVuSans-30" transform="translate(83.789062 0)"/>
       <use xlink:href="#DejaVuSans-2e" transform="translate(147.412109 0)"/>
       <use xlink:href="#DejaVuSans-32" transform="translate(179.199219 0)"/>
      </g>
     </g>
    </g>
    <g id="xtick_2">
     <g id="line2d_2">
      <g>
       <use xlink:href="#m34d9a077f4" x="127.38843" y="307.584" style="stroke: #000000; stroke-width: 0.8"/>
      </g>
     </g>
     <g id="text_2">
      <!-- 0.0 -->
      <g transform="translate(119.436867 322.182437) scale(0.1 -0.1)">
       <use xlink:href="#DejaVuSans-30"/>
       <use xlink:href="#DejaVuSans-2e" transform="translate(63.623047 0)"/>
       <use xlink:href="#DejaVuSans-30" transform="translate(95.410156 0)"/>
      </g>
     </g>
    </g>
    <g id="xtick_3">
     <g id="line2d_3">
      <g>
       <use xlink:href="#m34d9a077f4" x="186.416529" y="307.584" style="stroke: #000000; stroke-width: 0.8"/>
      </g>
     </g>
     <g id="text_3">
      <!-- 0.2 -->
      <g transform="translate(178.464966 322.182437) scale(0.1 -0.1)">
       <use xlink:href="#DejaVuSans-30"/>
       <use xlink:href="#DejaVuSans-2e" transform="translate(63.623047 0)"/>
       <use xlink:href="#DejaVuSans-32" transform="translate(95.410156 0)"/>
      </g>
     </g>
    </g>
    <g id="xtick_4">
     <g id="line2d_4">
      <g>
       <use xlink:href="#m34d9a077f4" x="245.444628" y="307.584" style="stroke: #000000; stroke-width: 0.8"/>
      </g>
     </g>
     <g id="text_4">
      <!-- 0.4 -->
      <g transform="translate(237.493066 322.182437) scale(0.1 -0.1)">
       <defs>
        <path id="DejaVuSans-34" d="M 2419 4116 
L 825 1625 
L 2419 1625 
L 2419 4116 
z
M 2253 4666 
L 3047 4666 
L 3047 1625 
L 3713 1625 
L 3713 1100 
L 3047 1100 
L 3047 0 
L 2419 0 
L 2419 1100 
L 313 1100 
L 313 1709 
L 2253 4666 
z
" transform="scale(0.015625)"/>
       </defs>
       <use xlink:href="#DejaVuSans-30"/>
       <use xlink:href="#DejaVuSans-2e" transform="translate(63.623047 0)"/>
       <use xlink:href="#DejaVuSans-34" transform="translate(95.410156 0)"/>
      </g>
     </g>
    </g>
    <g id="xtick_5">
     <g id="line2d_5">
      <g>
       <use xlink:href="#m34d9a077f4" x="304.472727" y="307.584" style="stroke: #000000; stroke-width: 0.8"/>
      </g>
     </g>
     <g id="text_5">
      <!-- 0.6 -->
      <g transform="translate(296.521165 322.182437) scale(0.1 -0.1)">
       <defs>
        <path id="DejaVuSans-36" d="M 2113 2584 
Q 1688 2584 1439 2293 
Q 1191 2003 1191 1497 
Q 1191 994 1439 701 
Q 1688 409 2113 409 
Q 2538 409 2786 701 
Q 3034 994 3034 1497 
Q 3034 2003 2786 2293 
Q 2538 2584 2113 2584 
z
M 3366 4563 
L 3366 3988 
Q 3128 4100 2886 4159 
Q 2644 4219 2406 4219 
Q 1781 4219 1451 3797 
Q 1122 3375 1075 2522 
Q 1259 2794 1537 2939 
Q 1816 3084 2150 3084 
Q 2853 3084 3261 2657 
Q 3669 2231 3669 1497 
Q 3669 778 3244 343 
Q 2819 -91 2113 -91 
Q 1303 -91 875 529 
Q 447 1150 447 2328 
Q 447 3434 972 4092 
Q 1497 4750 2381 4750 
Q 2619 4750 2861 4703 
Q 3103 4656 3366 4563 
z
" transform="scale(0.015625)"/>
       </defs>
       <use xlink:href="#DejaVuSans-30"/>
       <use xlink:href="#DejaVuSans-2e" transform="translate(63.623047 0)"/>
       <use xlink:href="#DejaVuSans-36" transform="translate(95.410156 0)"/>
      </g>
     </g>
    </g>
    <g id="xtick_6">
     <g id="line2d_6">
      <g>
       <use xlink:href="#m34d9a077f4" x="363.500826" y="307.584" style="stroke: #000000; stroke-width: 0.8"/>
      </g>
     </g>
     <g id="text_6">
      <!-- 0.8 -->
      <g transform="translate(355.549264 322.182437) scale(0.1 -0.1)">
       <defs>
        <path id="DejaVuSans-38" d="M 2034 2216 
Q 1584 2216 1326 1975 
Q 1069 1734 1069 1313 
Q 1069 891 1326 650 
Q 1584 409 2034 409 
Q 2484 409 2743 651 
Q 3003 894 3003 1313 
Q 3003 1734 2745 1975 
Q 2488 2216 2034 2216 
z
M 1403 2484 
Q 997 2584 770 2862 
Q 544 3141 544 3541 
Q 544 4100 942 4425 
Q 1341 4750 2034 4750 
Q 2731 4750 3128 4425 
Q 3525 4100 3525 3541 
Q 3525 3141 3298 2862 
Q 3072 2584 2669 2484 
Q 3125 2378 3379 2068 
Q 3634 1759 3634 1313 
Q 3634 634 3220 271 
Q 2806 -91 2034 -91 
Q 1263 -91 848 271 
Q 434 634 434 1313 
Q 434 1759 690 2068 
Q 947 2378 1403 2484 
z
M 1172 3481 
Q 1172 3119 1398 2916 
Q 1625 2713 2034 2713 
Q 2441 2713 2670 2916 
Q 2900 3119 2900 3481 
Q 2900 3844 2670 4047 
Q 2441 4250 2034 4250 
Q 1625 4250 1398 4047 
Q 1172 3844 1172 3481 
z
" transform="scale(0.015625)"/>
       </defs>
       <use xlink:href="#DejaVuSans-30"/>
       <use xlink:href="#DejaVuSans-2e" transform="translate(63.623047 0)"/>
       <use xlink:href="#DejaVuSans-38" transform="translate(95.410156 0)"/>
      </g>
     </g>
    </g>
   </g>
   <g id="matplotlib.axis_2">
    <g id="ytick_1">
     <g id="line2d_7">
      <defs>
       <path id="m0c0e2b510d" d="M 0 0 
L -3.5 0 
" style="stroke: #000000; stroke-width: 0.8"/>
      </defs>
      <g>
       <use xlink:href="#m0c0e2b510d" x="57.6" y="300.251478" style="stroke: #000000; stroke-width: 0.8"/>
      </g>
     </g>
     <g id="text_7">
      <!-- −175 -->
      <g transform="translate(23.132812 304.050697) scale(0.1 -0.1)">
       <defs>
        <path id="DejaVuSans-31" d="M 794 531 
L 1825 531 
L 1825 4091 
L 703 3866 
L 703 4441 
L 1819 4666 
L 2450 4666 
L 2450 531 
L 3481 531 
L 3481 0 
L 794 0 
L 794 531 
z
" transform="scale(0.015625)"/>
        <path id="DejaVuSans-37" d="M 525 4666 
L 3525 4666 
L 3525 4397 
L 1831 0 
L 1172 0 
L 2766 4134 
L 525 4134 
L 525 4666 
z
" transform="scale(0.015625)"/>
        <path id="DejaVuSans-35" d="M 691 4666 
L 3169 4666 
L 3169 4134 
L 1269 4134 
L 1269 2991 
Q 1406 3038 1543 3061 
Q 1681 3084 1819 3084 
Q 2600 3084 3056 2656 
Q 3513 2228 3513 1497 
Q 3513 744 3044 326 
Q 2575 -91 1722 -91 
Q 1428 -91 1123 -41 
Q 819 9 494 109 
L 494 744 
Q 775 591 1075 516 
Q 1375 441 1709 441 
Q 2250 441 2565 725 
Q 2881 1009 2881 1497 
Q 2881 1984 2565 2268 
Q 2250 2553 1709 2553 
Q 1456 2553 1204 2497 
Q 953 2441 691 2322 
L 691 4666 
z
" transform="scale(0.015625)"/>
       </defs>
       <use xlink:href="#DejaVuSans-2212"/>
       <use xlink:href="#DejaVuSans-31" transform="translate(83.789062 0)"/>
       <use xlink:href="#DejaVuSans-37" transform="translate(147.412109 0)"/>
       <use xlink:href="#DejaVuSans-35" transform="translate(211.035156 0)"/>
      </g>
     </g>
    </g>
    <g id="ytick_2">
     <g id="line2d_8">
      <g>
       <use xlink:href="#m0c0e2b510d" x="57.6" y="265.010981" style="stroke: #000000; stroke-width: 0.8"/>
      </g>
     </g>
     <g id="text_8">
      <!-- −150 -->
      <g transform="translate(23.132812 268.8102) scale(0.1 -0.1)">
       <use xlink:href="#DejaVuSans-2212"/>
       <use xlink:href="#DejaVuSans-31" transform="translate(83.789062 0)"/>
       <use xlink:href="#DejaVuSans-35" transform="translate(147.412109 0)"/>
       <use xlink:href="#DejaVuSans-30" transform="translate(211.035156 0)"/>
      </g>
     </g>
    </g>
    <g id="ytick_3">
     <g id="line2d_9">
      <g>
       <use xlink:href="#m0c0e2b510d" x="57.6" y="229.770484" style="stroke: #000000; stroke-width: 0.8"/>
      </g>
     </g>
     <g id="text_9">
      <!-- −125 -->
      <g transform="translate(23.132812 233.569703) scale(0.1 -0.1)">
       <use xlink:href="#DejaVuSans-2212"/>
       <use xlink:href="#DejaVuSans-31" transform="translate(83.789062 0)"/>
       <use xlink:href="#DejaVuSans-32" transform="translate(147.412109 0)"/>
       <use xlink:href="#DejaVuSans-35" transform="translate(211.035156 0)"/>
      </g>
     </g>
    </g>
    <g id="ytick_4">
     <g id="line2d_10">
      <g>
       <use xlink:href="#m0c0e2b510d" x="57.6" y="194.529987" style="stroke: #000000; stroke-width: 0.8"/>
      </g>
     </g>
     <g id="text_10">
      <!-- −100 -->
      <g transform="translate(23.132812 198.329206) scale(0.1 -0.1)">
       <use xlink:href="#DejaVuSans-2212"/>
       <use xlink:href="#DejaVuSans-31" transform="translate(83.789062 0)"/>
       <use xlink:href="#DejaVuSans-30" transform="translate(147.412109 0)"/>
       <use xlink:href="#DejaVuSans-30" transform="translate(211.035156 0)"/>
      </g>
     </g>
    </g>
    <g id="ytick_5">
     <g id="line2d_11">
      <g>
       <use xlink:href="#m0c0e2b510d" x="57.6" y="159.289491" style="stroke: #000000; stroke-width: 0.8"/>
      </g>
     </g>
     <g id="text_11">
      <!-- −75 -->
      <g transform="translate(29.495313 163.088709) scale(0.1 -0.1)">
       <use xlink:href="#DejaVuSans-2212"/>
       <use xlink:href="#DejaVuSans-37" transform="translate(83.789062 0)"/>
       <use xlink:href="#DejaVuSans-35" transform="translate(147.412109 0)"/>
      </g>
     </g>
    </g>
    <g id="ytick_6">
     <g id="line2d_12">
      <g>
       <use xlink:href="#m0c0e2b510d" x="57.6" y="124.048994" style="stroke: #000000; stroke-width: 0.8"/>
      </g>
     </g>
     <g id="text_12">
      <!-- −50 -->
      <g transform="translate(29.495313 127.848212) scale(0.1 -0.1)">
       <use xlink:href="#DejaVuSans-2212"/>
       <use xlink:href="#DejaVuSans-35" transform="translate(83.789062 0)"/>
       <use xlink:href="#DejaVuSans-30" transform="translate(147.412109 0)"/>
      </g>
     </g>
    </g>
    <g id="ytick_7">
     <g id="line2d_13">
      <g>
       <use xlink:href="#m0c0e2b510d" x="57.6" y="88.808497" style="stroke: #000000; stroke-width: 0.8"/>
      </g>
     </g>
     <g id="text_13">
      <!-- −25 -->
      <g transform="translate(29.495313 92.607716) scale(0.1 -0.1)">
       <use xlink:href="#DejaVuSans-2212"/>
       <use xlink:href="#DejaVuSans-32" transform="translate(83.789062 0)"/>
       <use xlink:href="#DejaVuSans-35" transform="translate(147.412109 0)"/>
      </g>
     </g>
    </g>
    <g id="ytick_8">
     <g id="line2d_14">
      <g>
       <use xlink:href="#m0c0e2b510d" x="57.6" y="53.568" style="stroke: #000000; stroke-width: 0.8"/>
      </g>
     </g>
     <g id="text_14">
      <!-- 0 -->
      <g transform="translate(44.2375 57.367219) scale(0.1 -0.1)">
       <use xlink:href="#DejaVuSans-30"/>
      </g>
     </g>
    </g>
   </g>
   <g id="line2d_15">
    <path d="M 73.832727 53.568 
L 121.725421 53.640281 
L 122.008264 54.791643 
L 122.887537 55.104684 
L 123.078149 55.974254 
L 123.330248 56.251619 
L 124.01276 56.938564 
L 124.191074 57.04141 
L 124.41243 57.356395 
L 125.125686 57.723538 
L 125.40238 58.082289 
L 125.875835 58.238133 
L 126.24476 58.870886 
L 126.410777 59.000822 
L 126.607537 59.623539 
L 126.675174 59.727026 
L 126.84119 59.974582 
L 126.945719 60.218769 
L 127.08714 60.33842 
L 127.326942 60.501798 
L 127.58519 60.705538 
L 127.824992 60.860169 
L 128.224661 61.661306 
L 128.267702 61.757131 
L 128.47676 62.026539 
L 128.593587 62.160915 
L 128.753455 62.335794 
L 129.048595 62.460779 
L 129.276099 62.684386 
L 129.380628 62.789847 
L 129.546645 62.970492 
L 129.71881 63.091907 
L 130.622678 64.196034 
L 130.75795 64.398476 
L 130.973157 64.543818 
L 131.145322 64.653997 
L 131.809388 64.792116 
L 132 64.883835 
L 132.381223 65.023564 
L 132.461157 65.317395 
L 132.590281 65.503762 
L 132.928463 66.128859 
L 133.186711 66.240023 
L 133.408066 66.361724 
L 133.672463 66.613337 
L 133.887669 66.90457 
L 134.08443 67.03559 
L 134.225851 67.183411 
L 134.508694 67.422343 
L 134.656264 67.573491 
L 134.754645 67.692644 
L 134.914512 67.808587 
L 135.049785 67.918299 
L 135.467901 68.188018 
L 135.62162 68.254914 
L 135.910612 68.486991 
L 136.070479 68.779627 
L 136.199603 68.905368 
L 136.384066 69.314662 
L 137.041983 69.91491 
L 137.220298 70.230715 
L 137.939702 70.853196 
L 138.093421 71.246546 
L 138.523835 71.496205 
L 138.825124 71.920648 
L 139.427702 72.11929 
L 139.919603 72.673341 
L 140.067174 72.853227 
L 140.159405 72.945095 
L 140.343868 73.329685 
L 140.688198 73.640714 
L 140.97719 74.285946 
L 141.401455 74.462892 
L 141.585917 74.519679 
L 141.776529 74.635174 
L 143.571967 76.199873 
L 143.719537 76.430943 
L 144.094612 76.544369 
L 144.303669 76.798162 
L 144.506579 76.936144 
L 144.678744 77.246166 
L 145.115306 77.354264 
L 145.275174 77.40051 
L 145.625653 77.512814 
L 145.742479 77.632509 
L 145.883901 77.729714 
L 146.006876 77.869713 
L 146.197488 78.23936 
L 146.388099 78.372359 
L 146.621752 78.566568 
L 146.78162 78.710842 
L 146.947636 78.747568 
L 147.396496 78.962647 
L 147.580959 79.098716 
L 147.826909 79.272929 
L 148.023669 79.38207 
L 148.441785 79.653606 
L 148.835306 79.854496 
L 148.952132 79.959613 
L 149.093554 80.11216 
L 149.21038 80.221035 
L 149.530116 80.568039 
L 150.237223 81.066799 
L 150.378645 81.241597 
L 150.907438 81.368324 
L 151.153388 81.635118 
L 151.719074 81.794414 
L 152.272463 82.064001 
L 152.456926 82.175566 
L 152.647537 82.317652 
L 152.795107 82.427035 
L 152.961124 82.851533 
L 153.034909 82.960439 
L 153.299306 83.335481 
L 153.600595 83.475041 
L 153.914182 83.680724 
L 154.117091 83.896119 
L 154.756562 84.218609 
L 155.469818 84.541149 
L 156.60119 85.73287 
L 156.908628 85.936552 
L 157.056198 85.993262 
L 157.431273 86.110272 
L 158.654876 87.068732 
L 158.802446 87.267291 
L 158.98076 87.377627 
L 159.146777 87.44411 
L 159.466512 87.569239 
L 159.700165 87.692637 
L 159.970711 87.809748 
L 161.815339 89.368682 
L 162.141223 89.535484 
L 162.40562 89.830589 
L 162.571636 89.966556 
L 162.79914 90.157537 
L 163.44476 90.493462 
L 163.629223 90.595372 
L 163.807537 90.812332 
L 164.047339 91.106579 
L 164.102678 91.198883 
L 164.293289 91.620335 
L 164.465455 91.745336 
L 164.656066 91.836233 
L 165.240198 92.042907 
L 165.418512 92.199313 
L 165.658314 92.301877 
L 165.805884 92.401409 
L 165.965752 92.477016 
L 166.826579 92.902844 
L 167.103273 93.021467 
L 167.398413 93.132898 
L 167.712 93.260924 
L 167.896463 93.399189 
L 168.173157 93.581624 
L 168.314579 93.644088 
L 168.634314 93.770776 
L 168.941752 93.972785 
L 169.335273 94.141721 
L 170.343669 94.540132 
L 170.651107 94.655059 
L 170.970843 94.755275 
L 171.050777 94.862445 
L 171.198347 94.987811 
L 171.837818 95.11551 
L 172.163702 95.335482 
L 172.938446 95.998883 
L 173.104463 96.261009 
L 173.442645 96.37948 
L 173.682446 96.487882 
L 173.903802 96.665936 
L 174.266579 96.792501 
L 174.451041 96.923963 
L 174.893752 97.19938 
L 175.047471 97.315427 
L 175.20119 97.382644 
L 175.539372 97.476537 
L 175.816066 97.585276 
L 176.123504 97.677235 
L 176.547769 97.792134 
L 176.879802 97.949476 
L 177.107306 98.073324 
L 177.261025 98.173423 
L 177.384 98.346008 
L 177.519273 98.472634 
L 177.691438 98.495776 
L 178.140298 98.605757 
L 178.816661 98.859919 
L 179.247074 98.981266 
L 179.732826 99.212024 
L 180.009521 99.388738 
L 180.181686 99.452575 
L 180.790413 99.624441 
L 181.614347 100.446391 
L 182.253818 100.623101 
L 182.604298 101.006724 
L 182.758017 101.125441 
L 183.145388 101.548304 
L 183.446678 101.598401 
L 183.698777 101.718363 
L 183.889388 101.774037 
L 184.412033 101.90028 
L 185.235967 102.165719 
L 185.389686 102.211215 
L 185.660231 102.327066 
L 185.826248 102.518826 
L 186.883835 102.874343 
L 187.012959 102.975656 
L 187.215868 103.222835 
L 187.486413 103.330037 
L 187.990612 103.526196 
L 188.236562 103.630781 
L 188.556298 103.736844 
L 188.771504 103.96631 
L 189.214215 104.113594 
L 192.829686 105.764314 
L 193.475306 105.936571 
L 196.506645 107.276736 
L 196.660364 107.529624 
L 196.900165 107.70064 
L 198.578777 108.374143 
L 198.76324 108.541903 
L 199.138314 108.668475 
L 199.341223 108.805427 
L 199.476496 108.896832 
L 199.660959 109.079324 
L 199.820826 109.129079 
L 201.118215 109.637684 
L 201.351868 109.857551 
L 201.493289 109.888906 
L 201.610116 109.997967 
L 201.819174 110.027142 
L 203.012033 110.366981 
L 203.171901 110.466396 
L 203.860562 110.968036 
L 204.106512 111.030818 
L 205.071868 111.40246 
L 205.287074 111.485962 
L 207.537521 112.173625 
L 208.238479 112.33455 
L 208.964033 112.6352 
L 209.289917 112.887253 
L 210.353653 113.262921 
L 210.501223 113.287622 
L 211.466579 113.527012 
L 211.620298 113.6115 
L 212.161388 113.791766 
L 212.345851 113.845146 
L 212.622545 113.874246 
L 212.89924 114.005158 
L 213.059107 114.04153 
L 213.434182 114.164589 
L 213.778512 114.417034 
L 214.067504 114.513795 
L 214.239669 114.757523 
L 214.53481 114.880183 
L 214.946777 115.11424 
L 215.598545 115.224421 
L 218.426975 116.261262 
L 218.765157 116.378479 
L 218.912727 116.409883 
L 219.349289 116.585378 
L 219.49686 116.623262 
L 221.372231 117.020797 
L 221.519802 117.065239 
L 222.337587 117.378201 
L 222.485157 117.451539 
L 223.075438 117.587644 
L 226.19286 118.225323 
L 226.352727 118.260392 
L 226.838479 118.41041 
L 227.668562 118.540998 
L 227.908364 118.610999 
L 228.750744 118.73998 
L 228.953653 118.864427 
L 229.384066 118.969031 
L 232.163306 119.466223 
L 233.411504 119.777548 
L 233.694347 119.841631 
L 235.545124 120.170119 
L 235.791074 120.199785 
L 237.752529 120.397952 
L 238.225983 120.457168 
L 239.529521 120.647563 
L 239.92919 120.693249 
L 241.503273 120.920399 
L 241.976727 120.980783 
L 242.499372 121.118457 
L 243.366347 121.25018 
L 253.536397 122.405871 
L 254.655471 122.531249 
L 254.981355 122.575068 
L 256.727603 122.763959 
L 257.858975 122.841509 
L 261.591273 123.070769 
L 261.911008 123.126568 
L 263.202248 123.237845 
L 265.686347 123.470632 
L 265.987636 123.498847 
L 267.35881 123.632071 
L 267.647802 123.667166 
L 268.791471 123.778197 
L 272.603702 124.059594 
L 287.028694 125.12592 
L 288.817983 125.240593 
L 289.272992 125.295214 
L 290.287537 125.410909 
L 291.517289 125.56318 
L 291.707901 125.582486 
L 293.294281 125.706659 
L 294.948298 125.817578 
L 296.497785 125.98857 
L 296.663802 126.016403 
L 304.325157 126.731068 
L 304.546512 126.751258 
L 305.345851 126.869583 
L 307.63319 127.046363 
L 308.610843 127.156319 
L 317.01005 127.972171 
L 317.631074 128.02777 
L 320.484099 128.305491 
L 321.381818 128.438245 
L 322.328727 128.552721 
L 323.06043 128.660036 
L 326.128661 129.079745 
L 326.362314 129.129668 
L 328.071669 129.280808 
L 328.575868 129.382337 
L 331.453488 129.708036 
L 332.369653 129.794067 
L 334.048264 130.023759 
L 334.349554 130.054222 
L 335.265719 130.177453 
L 335.542413 130.224689 
L 337.602248 130.458582 
L 337.817455 130.486049 
L 338.73362 130.571266 
L 339.717421 130.695052 
L 339.914182 130.728395 
L 340.498314 130.840237 
L 340.670479 130.890621 
L 341.230017 130.999709 
L 341.469818 131.048229 
L 342.373686 131.1677 
L 342.859438 131.290773 
L 343.529653 131.400779 
L 343.861686 131.472514 
L 344.322843 131.583804 
L 344.88238 131.69568 
L 345.761653 131.853276 
L 346.259702 131.969351 
L 347.526347 132.201462 
L 347.790744 132.225799 
L 356.09157 133.957264 
L 356.337521 134.01612 
L 356.940099 134.132635 
L 357.296727 134.263818 
L 358.514182 134.584625 
L 358.833917 134.785041 
L 359.184397 134.894399 
L 359.633256 135.054172 
L 359.854612 135.165989 
L 360.094413 135.253489 
L 360.85686 135.549411 
L 361.041322 135.608389 
L 361.330314 135.730124 
L 362.566215 136.154023 
L 362.910545 136.284987 
L 363.310215 136.419679 
L 363.476231 136.478433 
L 364.17719 136.662933 
L 364.42314 136.803117 
L 364.662942 136.897608 
L 364.828959 137.060617 
L 365.142545 137.169607 
L 365.523769 137.531601 
L 366.722777 137.838977 
L 366.919537 137.963941 
L 367.362248 138.080366 
L 368.069355 138.331233 
L 368.303008 138.526218 
L 368.530512 138.65027 
L 368.696529 138.767104 
L 368.905587 138.819629 
L 369.065455 139.010103 
L 369.274512 139.571604 
L 369.452826 139.695974 
L 369.649587 139.762465 
L 370.073851 139.869616 
L 370.571901 140.175609 
L 370.694876 140.324816 
L 370.842446 140.418139 
L 371.494215 140.667008 
L 371.703273 140.794304 
L 371.906182 140.905127 
L 372.877686 141.418882 
L 373.10519 141.60081 
L 373.793851 142.174558 
L 374.027504 142.346402 
L 375.078942 143.120766 
L 375.232661 143.192886 
L 375.367934 143.326254 
L 375.644628 143.525441 
L 376.241058 143.851157 
L 376.425521 144.047286 
L 377.194116 144.967225 
L 377.37243 145.233457 
L 377.47081 145.339043 
L 377.606083 145.47325 
L 377.747504 145.584417 
L 378.184066 146.328903 
L 378.282446 146.440889 
L 378.405421 146.647246 
L 378.571438 147.070141 
L 379.50605 147.768922 
L 379.696661 147.875647 
L 379.89957 148.05275 
L 380.04714 148.162943 
L 380.274645 148.462296 
L 380.748099 149.045203 
L 380.864926 149.139972 
L 381.080132 149.515058 
L 381.295339 149.611314 
L 381.541289 150.016326 
L 381.701157 150.18771 
L 381.854876 150.511884 
L 382.051636 150.6512 
L 382.193058 150.716064 
L 382.248397 150.801685 
L 382.408264 151.13129 
L 382.494347 151.317061 
L 382.62962 151.514617 
L 382.697256 151.637882 
L 382.832529 151.746599 
L 382.97395 151.978801 
L 383.152264 152.265637 
L 383.195306 152.362052 
L 383.342876 152.65827 
L 383.502744 153.024404 
L 383.650314 153.716565 
L 383.877818 154.035256 
L 384.043835 154.210559 
L 384.535736 155.462924 
L 384.683306 155.584358 
L 384.806281 155.676839 
L 385.00919 156.309275 
L 385.144463 156.43619 
L 385.894612 157.771951 
L 386.066777 158.602093 
L 386.171306 158.760433 
L 386.312727 159.143224 
L 386.386512 159.250612 
L 387.819174 163.673664 
L 387.948298 163.86314 
L 387.972893 163.961537 
L 388.13276 164.238714 
L 388.23114 164.411809 
L 388.440198 165.141196 
L 388.790678 166.220868 
L 388.87676 166.317029 
L 388.92595 166.769561 
L 389.135008 168.560202 
L 389.565421 169.784864 
L 389.712992 170.273888 
L 390.168 171.957778 
L 390.770579 173.929009 
L 390.905851 174.251511 
L 390.979636 174.376256 
L 391.053421 174.56142 
L 391.200992 175.154153 
L 391.385455 175.605654 
L 391.569917 176.596431 
L 391.643702 176.901144 
L 391.809719 177.962605 
L 391.834314 178.069935 
L 392.012628 178.53372 
L 392.067967 178.801017 
L 392.264727 180.765052 
L 392.307769 180.868711 
L 392.486083 181.228296 
L 392.621355 181.366896 
L 393.635901 186.778127 
L 393.783471 187.908775 
L 393.826512 188.031905 
L 394.029421 189.22534 
L 394.041719 189.278547 
L 394.220033 190.513389 
L 394.441388 191.342856 
L 394.601256 191.679362 
L 394.748826 192.395553 
L 394.773421 192.584639 
L 394.834909 193.212667 
L 395.007074 195.801042 
L 395.308364 197.973106 
L 395.794116 202.721329 
L 395.82486 202.846569 
L 396.040066 206.103302 
L 396.12 206.300514 
L 396.550413 211.657411 
L 396.710281 212.217186 
L 396.728727 212.297045 
L 397.441983 228.596636 
L 397.583405 231.453456 
L 397.620298 231.821835 
L 397.878545 240.179439 
L 397.90314 241.379305 
L 398.10605 252.256014 
L 398.173686 254.959078 
L 398.425785 284.50416 
L 398.45038 287.597385 
L 398.481124 295.488 
L 398.481124 295.488 
" clip-path="url(#p8a5c654ca4)" style="fill: none; stroke: #1f77b4; stroke-width: 1.5; stroke-linecap: square"/>
   </g>
   <g id="line2d_16">
    <path d="M 127.38843 60.616433 
L 377.329388 145.193292 
" clip-path="url(#p8a5c654ca4)" style="fill: none; stroke-dasharray: 5.55,2.4; stroke-dashoffset: 0; stroke: #ff7f0e; stroke-width: 1.5"/>
   </g>
   <g id="line2d_17">
    <path d="M 73.832727 138.145192 
L 398.487273 138.145192 
L 398.487273 138.145192 
" clip-path="url(#p8a5c654ca4)" style="fill: none; stroke-dasharray: 5.55,2.4; stroke-dashoffset: 0; stroke: #2ca02c; stroke-width: 1.5"/>
   </g>
   <g id="LineCollection_1">
    <path d="M 377.329388 295.488 
L 377.329388 53.568 
" clip-path="url(#p8a5c654ca4)" style="fill: none; stroke-dasharray: 5.55,2.4; stroke-dashoffset: 0; stroke: #1f77b4; stroke-width: 1.5"/>
   </g>
   <g id="patch_3">
    <path d="M 57.6 307.584 
L 57.6 41.472 
" style="fill: none; stroke: #000000; stroke-width: 0.8; stroke-linejoin: miter; stroke-linecap: square"/>
   </g>
   <g id="patch_4">
    <path d="M 414.72 307.584 
L 414.72 41.472 
" style="fill: none; stroke: #000000; stroke-width: 0.8; stroke-linejoin: miter; stroke-linecap: square"/>
   </g>
   <g id="patch_5">
    <path d="M 57.6 307.584 
L 414.72 307.584 
" style="fill: none; stroke: #000000; stroke-width: 0.8; stroke-linejoin: miter; stroke-linecap: square"/>
   </g>
   <g id="patch_6">
    <path d="M 57.6 41.472 
L 414.72 41.472 
" style="fill: none; stroke: #000000; stroke-width: 0.8; stroke-linejoin: miter; stroke-linecap: square"/>
   </g>
   <g id="text_15">
    <!-- Energy Decay - 4000 Hz -->
    <g transform="translate(163.59 35.472) scale(0.12 -0.12)">
     <defs>
      <path id="DejaVuSans-45" d="M 628 4666 
L 3578 4666 
L 3578 4134 
L 1259 4134 
L 1259 2753 
L 3481 2753 
L 3481 2222 
L 1259 2222 
L 1259 531 
L 3634 531 
L 3634 0 
L 628 0 
L 628 4666 
z
" transform="scale(0.015625)"/>
      <path id="DejaVuSans-6e" d="M 3513 2113 
L 3513 0 
L 2938 0 
L 2938 2094 
Q 2938 2591 2744 2837 
Q 2550 3084 2163 3084 
Q 1697 3084 1428 2787 
Q 1159 2491 1159 1978 
L 1159 0 
L 581 0 
L 581 3500 
L 1159 3500 
L 1159 2956 
Q 1366 3272 1645 3428 
Q 1925 3584 2291 3584 
Q 2894 3584 3203 3211 
Q 3513 2838 3513 2113 
z
" transform="scale(0.015625)"/>
      <path id="DejaVuSans-65" d="M 3597 1894 
L 3597 1613 
L 953 1613 
Q 991 1019 1311 708 
Q 1631 397 2203 397 
Q 2534 397 2845 478 
Q 3156 559 3463 722 
L 3463 178 
Q 3153 47 2828 -22 
Q 2503 -91 2169 -91 
Q 1331 -91 842 396 
Q 353 884 353 1716 
Q 353 2575 817 3079 
Q 1281 3584 2069 3584 
Q 2775 3584 3186 3129 
Q 3597 2675 3597 1894 
z
M 3022 2063 
Q 3016 2534 2758 2815 
Q 2500 3097 2075 3097 
Q 1594 3097 1305 2825 
Q 1016 2553 972 2059 
L 3022 2063 
z
" transform="scale(0.015625)"/>
      <path id="DejaVuSans-72" d="M 2631 2963 
Q 2534 3019 2420 3045 
Q 2306 3072 2169 3072 
Q 1681 3072 1420 2755 
Q 1159 2438 1159 1844 
L 1159 0 
L 581 0 
L 581 3500 
L 1159 3500 
L 1159 2956 
Q 1341 3275 1631 3429 
Q 1922 3584 2338 3584 
Q 2397 3584 2469 3576 
Q 2541 3569 2628 3553 
L 2631 2963 
z
" transform="scale(0.015625)"/>
      <path id="DejaVuSans-67" d="M 2906 1791 
Q 2906 2416 2648 2759 
Q 2391 3103 1925 3103 
Q 1463 3103 1205 2759 
Q 947 2416 947 1791 
Q 947 1169 1205 825 
Q 1463 481 1925 481 
Q 2391 481 2648 825 
Q 2906 1169 2906 1791 
z
M 3481 434 
Q 3481 -459 3084 -895 
Q 2688 -1331 1869 -1331 
Q 1566 -1331 1297 -1286 
Q 1028 -1241 775 -1147 
L 775 -588 
Q 1028 -725 1275 -790 
Q 1522 -856 1778 -856 
Q 2344 -856 2625 -561 
Q 2906 -266 2906 331 
L 2906 616 
Q 2728 306 2450 153 
Q 2172 0 1784 0 
Q 1141 0 747 490 
Q 353 981 353 1791 
Q 353 2603 747 3093 
Q 1141 3584 1784 3584 
Q 2172 3584 2450 3431 
Q 2728 3278 2906 2969 
L 2906 3500 
L 3481 3500 
L 3481 434 
z
" transform="scale(0.015625)"/>
      <path id="DejaVuSans-79" d="M 2059 -325 
Q 1816 -950 1584 -1140 
Q 1353 -1331 966 -1331 
L 506 -1331 
L 506 -850 
L 844 -850 
Q 1081 -850 1212 -737 
Q 1344 -625 1503 -206 
L 1606 56 
L 191 3500 
L 800 3500 
L 1894 763 
L 2988 3500 
L 3597 3500 
L 2059 -325 
z
" transform="scale(0.015625)"/>
      <path id="DejaVuSans-20" transform="scale(0.015625)"/>
      <path id="DejaVuSans-44" d="M 1259 4147 
L 1259 519 
L 2022 519 
Q 2988 519 3436 956 
Q 3884 1394 3884 2338 
Q 3884 3275 3436 3711 
Q 2988 4147 2022 4147 
L 1259 4147 
z
M 628 4666 
L 1925 4666 
Q 3281 4666 3915 4102 
Q 4550 3538 4550 2338 
Q 4550 1131 3912 565 
Q 3275 0 1925 0 
L 628 0 
L 628 4666 
z
" transform="scale(0.015625)"/>
      <path id="DejaVuSans-63" d="M 3122 3366 
L 3122 2828 
Q 2878 2963 2633 3030 
Q 2388 3097 2138 3097 
Q 1578 3097 1268 2742 
Q 959 2388 959 1747 
Q 959 1106 1268 751 
Q 1578 397 2138 397 
Q 2388 397 2633 464 
Q 2878 531 3122 666 
L 3122 134 
Q 2881 22 2623 -34 
Q 2366 -91 2075 -91 
Q 1284 -91 818 406 
Q 353 903 353 1747 
Q 353 2603 823 3093 
Q 1294 3584 2113 3584 
Q 2378 3584 2631 3529 
Q 2884 3475 3122 3366 
z
" transform="scale(0.015625)"/>
      <path id="DejaVuSans-61" d="M 2194 1759 
Q 1497 1759 1228 1600 
Q 959 1441 959 1056 
Q 959 750 1161 570 
Q 1363 391 1709 391 
Q 2188 391 2477 730 
Q 2766 1069 2766 1631 
L 2766 1759 
L 2194 1759 
z
M 3341 1997 
L 3341 0 
L 2766 0 
L 2766 531 
Q 2569 213 2275 61 
Q 1981 -91 1556 -91 
Q 1019 -91 701 211 
Q 384 513 384 1019 
Q 384 1609 779 1909 
Q 1175 2209 1959 2209 
L 2766 2209 
L 2766 2266 
Q 2766 2663 2505 2880 
Q 2244 3097 1772 3097 
Q 1472 3097 1187 3025 
Q 903 2953 641 2809 
L 641 3341 
Q 956 3463 1253 3523 
Q 1550 3584 1831 3584 
Q 2591 3584 2966 3190 
Q 3341 2797 3341 1997 
z
" transform="scale(0.015625)"/>
      <path id="DejaVuSans-2d" d="M 313 2009 
L 1997 2009 
L 1997 1497 
L 313 1497 
L 313 2009 
z
" transform="scale(0.015625)"/>
      <path id="DejaVuSans-48" d="M 628 4666 
L 1259 4666 
L 1259 2753 
L 3553 2753 
L 3553 4666 
L 4184 4666 
L 4184 0 
L 3553 0 
L 3553 2222 
L 1259 2222 
L 1259 0 
L 628 0 
L 628 4666 
z
" transform="scale(0.015625)"/>
      <path id="DejaVuSans-7a" d="M 353 3500 
L 3084 3500 
L 3084 2975 
L 922 459 
L 3084 459 
L 3084 0 
L 275 0 
L 275 525 
L 2438 3041 
L 353 3041 
L 353 3500 
z
" transform="scale(0.015625)"/>
     </defs>
     <use xlink:href="#DejaVuSans-45"/>
     <use xlink:href="#DejaVuSans-6e" transform="translate(63.183594 0)"/>
     <use xlink:href="#DejaVuSans-65" transform="translate(126.5625 0)"/>
     <use xlink:href="#DejaVuSans-72" transform="translate(188.085938 0)"/>
     <use xlink:href="#DejaVuSans-67" transform="translate(227.449219 0)"/>
     <use xlink:href="#DejaVuSans-79" transform="translate(290.925781 0)"/>
     <use xlink:href="#DejaVuSans-20" transform="translate(350.105469 0)"/>
     <use xlink:href="#DejaVuSans-44" transform="translate(381.892578 0)"/>
     <use xlink:href="#DejaVuSans-65" transform="translate(458.894531 0)"/>
     <use xlink:href="#DejaVuSans-63" transform="translate(520.417969 0)"/>
     <use xlink:href="#DejaVuSans-61" transform="translate(575.398438 0)"/>
     <use xlink:href="#DejaVuSans-79" transform="translate(636.677734 0)"/>
     <use xlink:href="#DejaVuSans-20" transform="translate(695.857422 0)"/>
     <use xlink:href="#DejaVuSans-2d" transform="translate(727.644531 0)"/>
     <use xlink:href="#DejaVuSans-20" transform="translate(763.728516 0)"/>
     <use xlink:href="#DejaVuSans-34" transform="translate(795.515625 0)"/>
     <use xlink:href="#DejaVuSans-30" transform="translate(859.138672 0)"/>
     <use xlink:href="#DejaVuSans-30" transform="translate(922.761719 0)"/>
     <use xlink:href="#DejaVuSans-30" transform="translate(986.384766 0)"/>
     <use xlink:href="#DejaVuSans-20" transform="translate(1050.007812 0)"/>
     <use xlink:href="#DejaVuSans-48" transform="translate(1081.794922 0)"/>
     <use xlink:href="#DejaVuSans-7a" transform="translate(1156.990234 0)"/>
    </g>
   </g>
   <g id="legend_1">
    <g id="patch_7">
     <path d="M 296.968437 108.1845 
L 407.72 108.1845 
Q 409.72 108.1845 409.72 106.1845 
L 409.72 48.472 
Q 409.72 46.472 407.72 46.472 
L 296.968437 46.472 
Q 294.968437 46.472 294.968437 48.472 
L 294.968437 106.1845 
Q 294.968437 108.1845 296.968437 108.1845 
z
" style="fill: #ffffff; opacity: 0.8; stroke: #cccccc; stroke-linejoin: miter"/>
    </g>
    <g id="line2d_18">
     <path d="M 298.968437 54.570438 
L 308.968437 54.570438 
L 318.968437 54.570438 
" style="fill: none; stroke: #1f77b4; stroke-width: 1.5; stroke-linecap: square"/>
    </g>
    <g id="text_16">
     <!-- Energy -->
     <g transform="translate(326.968437 58.070438) scale(0.1 -0.1)">
      <use xlink:href="#DejaVuSans-45"/>
      <use xlink:href="#DejaVuSans-6e" transform="translate(63.183594 0)"/>
      <use xlink:href="#DejaVuSans-65" transform="translate(126.5625 0)"/>
      <use xlink:href="#DejaVuSans-72" transform="translate(188.085938 0)"/>
      <use xlink:href="#DejaVuSans-67" transform="translate(227.449219 0)"/>
      <use xlink:href="#DejaVuSans-79" transform="translate(290.925781 0)"/>
     </g>
    </g>
    <g id="line2d_19">
     <path d="M 298.968437 69.248563 
L 308.968437 69.248563 
L 318.968437 69.248563 
" style="fill: none; stroke-dasharray: 5.55,2.4; stroke-dashoffset: 0; stroke: #ff7f0e; stroke-width: 1.5"/>
    </g>
    <g id="text_17">
     <!-- Linear Fit -->
     <g transform="translate(326.968437 72.748563) scale(0.1 -0.1)">
      <defs>
       <path id="DejaVuSans-4c" d="M 628 4666 
L 1259 4666 
L 1259 531 
L 3531 531 
L 3531 0 
L 628 0 
L 628 4666 
z
" transform="scale(0.015625)"/>
       <path id="DejaVuSans-69" d="M 603 3500 
L 1178 3500 
L 1178 0 
L 603 0 
L 603 3500 
z
M 603 4863 
L 1178 4863 
L 1178 4134 
L 603 4134 
L 603 4863 
z
" transform="scale(0.015625)"/>
       <path id="DejaVuSans-46" d="M 628 4666 
L 3309 4666 
L 3309 4134 
L 1259 4134 
L 1259 2759 
L 3109 2759 
L 3109 2228 
L 1259 2228 
L 1259 0 
L 628 0 
L 628 4666 
z
" transform="scale(0.015625)"/>
       <path id="DejaVuSans-74" d="M 1172 4494 
L 1172 3500 
L 2356 3500 
L 2356 3053 
L 1172 3053 
L 1172 1153 
Q 1172 725 1289 603 
Q 1406 481 1766 481 
L 2356 481 
L 2356 0 
L 1766 0 
Q 1100 0 847 248 
Q 594 497 594 1153 
L 594 3053 
L 172 3053 
L 172 3500 
L 594 3500 
L 594 4494 
L 1172 4494 
z
" transform="scale(0.015625)"/>
      </defs>
      <use xlink:href="#DejaVuSans-4c"/>
      <use xlink:href="#DejaVuSans-69" transform="translate(55.712891 0)"/>
      <use xlink:href="#DejaVuSans-6e" transform="translate(83.496094 0)"/>
      <use xlink:href="#DejaVuSans-65" transform="translate(146.875 0)"/>
      <use xlink:href="#DejaVuSans-61" transform="translate(208.398438 0)"/>
      <use xlink:href="#DejaVuSans-72" transform="translate(269.677734 0)"/>
      <use xlink:href="#DejaVuSans-20" transform="translate(310.791016 0)"/>
      <use xlink:href="#DejaVuSans-46" transform="translate(342.578125 0)"/>
      <use xlink:href="#DejaVuSans-69" transform="translate(392.847656 0)"/>
      <use xlink:href="#DejaVuSans-74" transform="translate(420.630859 0)"/>
     </g>
    </g>
    <g id="line2d_20">
     <path d="M 298.968437 83.926688 
L 308.968437 83.926688 
L 318.968437 83.926688 
" style="fill: none; stroke-dasharray: 5.55,2.4; stroke-dashoffset: 0; stroke: #2ca02c; stroke-width: 1.5"/>
    </g>
    <g id="text_18">
     <!-- -60 dB -->
     <g transform="translate(326.968437 87.426688) scale(0.1 -0.1)">
      <defs>
       <path id="DejaVuSans-64" d="M 2906 2969 
L 2906 4863 
L 3481 4863 
L 3481 0 
L 2906 0 
L 2906 525 
Q 2725 213 2448 61 
Q 2172 -91 1784 -91 
Q 1150 -91 751 415 
Q 353 922 353 1747 
Q 353 2572 751 3078 
Q 1150 3584 1784 3584 
Q 2172 3584 2448 3432 
Q 2725 3281 2906 2969 
z
M 947 1747 
Q 947 1113 1208 752 
Q 1469 391 1925 391 
Q 2381 391 2643 752 
Q 2906 1113 2906 1747 
Q 2906 2381 2643 2742 
Q 2381 3103 1925 3103 
Q 1469 3103 1208 2742 
Q 947 2381 947 1747 
z
" transform="scale(0.015625)"/>
       <path id="DejaVuSans-42" d="M 1259 2228 
L 1259 519 
L 2272 519 
Q 2781 519 3026 730 
Q 3272 941 3272 1375 
Q 3272 1813 3026 2020 
Q 2781 2228 2272 2228 
L 1259 2228 
z
M 1259 4147 
L 1259 2741 
L 2194 2741 
Q 2656 2741 2882 2914 
Q 3109 3088 3109 3444 
Q 3109 3797 2882 3972 
Q 2656 4147 2194 4147 
L 1259 4147 
z
M 628 4666 
L 2241 4666 
Q 2963 4666 3353 4366 
Q 3744 4066 3744 3513 
Q 3744 3084 3544 2831 
Q 3344 2578 2956 2516 
Q 3422 2416 3680 2098 
Q 3938 1781 3938 1306 
Q 3938 681 3513 340 
Q 3088 0 2303 0 
L 628 0 
L 628 4666 
z
" transform="scale(0.015625)"/>
      </defs>
      <use xlink:href="#DejaVuSans-2d"/>
      <use xlink:href="#DejaVuSans-36" transform="translate(36.083984 0)"/>
      <use xlink:href="#DejaVuSans-30" transform="translate(99.707031 0)"/>
      <use xlink:href="#DejaVuSans-20" transform="translate(163.330078 0)"/>
      <use xlink:href="#DejaVuSans-64" transform="translate(195.117188 0)"/>
      <use xlink:href="#DejaVuSans-42" transform="translate(258.59375 0)"/>
     </g>
    </g>
    <g id="line2d_21">
     <path d="M 298.968437 98.604813 
L 318.968437 98.604813 
" style="fill: none; stroke-dasharray: 5.55,2.4; stroke-dashoffset: 0; stroke: #1f77b4; stroke-width: 1.5"/>
    </g>
    <g id="text_19">
     <!-- Estimated RT60 -->
     <g transform="translate(326.968437 102.104813) scale(0.1 -0.1)">
      <defs>
       <path id="DejaVuSans-73" d="M 2834 3397 
L 2834 2853 
Q 2591 2978 2328 3040 
Q 2066 3103 1784 3103 
Q 1356 3103 1142 2972 
Q 928 2841 928 2578 
Q 928 2378 1081 2264 
Q 1234 2150 1697 2047 
L 1894 2003 
Q 2506 1872 2764 1633 
Q 3022 1394 3022 966 
Q 3022 478 2636 193 
Q 2250 -91 1575 -91 
Q 1294 -91 989 -36 
Q 684 19 347 128 
L 347 722 
Q 666 556 975 473 
Q 1284 391 1588 391 
Q 1994 391 2212 530 
Q 2431 669 2431 922 
Q 2431 1156 2273 1281 
Q 2116 1406 1581 1522 
L 1381 1569 
Q 847 1681 609 1914 
Q 372 2147 372 2553 
Q 372 3047 722 3315 
Q 1072 3584 1716 3584 
Q 2034 3584 2315 3537 
Q 2597 3491 2834 3397 
z
" transform="scale(0.015625)"/>
       <path id="DejaVuSans-6d" d="M 3328 2828 
Q 3544 3216 3844 3400 
Q 4144 3584 4550 3584 
Q 5097 3584 5394 3201 
Q 5691 2819 5691 2113 
L 5691 0 
L 5113 0 
L 5113 2094 
Q 5113 2597 4934 2840 
Q 4756 3084 4391 3084 
Q 3944 3084 3684 2787 
Q 3425 2491 3425 1978 
L 3425 0 
L 2847 0 
L 2847 2094 
Q 2847 2600 2669 2842 
Q 2491 3084 2119 3084 
Q 1678 3084 1418 2786 
Q 1159 2488 1159 1978 
L 1159 0 
L 581 0 
L 581 3500 
L 1159 3500 
L 1159 2956 
Q 1356 3278 1631 3431 
Q 1906 3584 2284 3584 
Q 2666 3584 2933 3390 
Q 3200 3197 3328 2828 
z
" transform="scale(0.015625)"/>
       <path id="DejaVuSans-52" d="M 2841 2188 
Q 3044 2119 3236 1894 
Q 3428 1669 3622 1275 
L 4263 0 
L 3584 0 
L 2988 1197 
Q 2756 1666 2539 1819 
Q 2322 1972 1947 1972 
L 1259 1972 
L 1259 0 
L 628 0 
L 628 4666 
L 2053 4666 
Q 2853 4666 3247 4331 
Q 3641 3997 3641 3322 
Q 3641 2881 3436 2590 
Q 3231 2300 2841 2188 
z
M 1259 4147 
L 1259 2491 
L 2053 2491 
Q 2509 2491 2742 2702 
Q 2975 2913 2975 3322 
Q 2975 3731 2742 3939 
Q 2509 4147 2053 4147 
L 1259 4147 
z
" transform="scale(0.015625)"/>
       <path id="DejaVuSans-54" d="M -19 4666 
L 3928 4666 
L 3928 4134 
L 2272 4134 
L 2272 0 
L 1638 0 
L 1638 4134 
L -19 4134 
L -19 4666 
z
" transform="scale(0.015625)"/>
      </defs>
      <use xlink:href="#DejaVuSans-45"/>
      <use xlink:href="#DejaVuSans-73" transform="translate(63.183594 0)"/>
      <use xlink:href="#DejaVuSans-74" transform="translate(115.283203 0)"/>
      <use xlink:href="#DejaVuSans-69" transform="translate(154.492188 0)"/>
      <use xlink:href="#DejaVuSans-6d" transform="translate(182.275391 0)"/>
      <use xlink:href="#DejaVuSans-61" transform="translate(279.6875 0)"/>
      <use xlink:href="#DejaVuSans-74" transform="translate(340.966797 0)"/>
      <use xlink:href="#DejaVuSans-65" transform="translate(380.175781 0)"/>
      <use xlink:href="#DejaVuSans-64" transform="translate(441.699219 0)"/>
      <use xlink:href="#DejaVuSans-20" transform="translate(505.175781 0)"/>
      <use xlink:href="#DejaVuSans-52" transform="translate(536.962891 0)"/>
      <use xlink:href="#DejaVuSans-54" transform="translate(599.195312 0)"/>
      <use xlink:href="#DejaVuSans-36" transform="translate(660.279297 0)"/>
      <use xlink:href="#DejaVuSans-30" transform="translate(723.902344 0)"/>
     </g>
    </g>
   </g>
  </g>
 </g>
 <defs>
  <clipPath id="p8a5c654ca4">
   <rect x="57.6" y="41.472" width="357.12" height="266.112"/>
  </clipPath>
 </defs>
</svg>
