<?xml version="1.0" encoding="utf-8" standalone="no"?>
<!DOCTYPE svg PUBLIC "-//W3C//DTD SVG 1.1//EN"
  "http://www.w3.org/Graphics/SVG/1.1/DTD/svg11.dtd">
<svg xmlns:xlink="http://www.w3.org/1999/xlink" width="460.8pt" height="345.6pt" viewBox="0 0 460.8 345.6" xmlns="http://www.w3.org/2000/svg" version="1.1">
 <metadata>
  <rdf:RDF xmlns:dc="http://purl.org/dc/elements/1.1/" xmlns:cc="http://creativecommons.org/ns#" xmlns:rdf="http://www.w3.org/1999/02/22-rdf-syntax-ns#">
   <cc:Work>
    <dc:type rdf:resource="http://purl.org/dc/dcmitype/StillImage"/>
    <dc:date>2025-05-06T13:54:01.140013</dc:date>
    <dc:format>image/svg+xml</dc:format>
    <dc:creator>
     <cc:Agent>
      <dc:title>Matplotlib v3.10.1, https://matplotlib.org/</dc:title>
     </cc:Agent>
    </dc:creator>
   </cc:Work>
  </rdf:RDF>
 </metadata>
 <defs>
  <style type="text/css">*{stroke-linejoin: round; stroke-linecap: butt}</style>
 </defs>
 <g id="figure_1">
  <g id="patch_1">
   <path d="M 0 345.6 
L 460.8 345.6 
L 460.8 0 
L 0 0 
z
" style="fill: #ffffff"/>
  </g>
  <g id="axes_1">
   <g id="patch_2">
    <path d="M 57.6 307.584 
L 414.72 307.584 
L 414.72 41.472 
L 57.6 41.472 
z
" style="fill: #ffffff"/>
   </g>
   <g id="matplotlib.axis_1">
    <g id="xtick_1">
     <g id="line2d_1">
      <defs>
       <path id="m9abe10599f" d="M 0 0 
L 0 3.5 
" style="stroke: #000000; stroke-width: 0.8"/>
      </defs>
      <g>
       <use xlink:href="#m9abe10599f" x="70.836436" y="307.584" style="stroke: #000000; stroke-width: 0.8"/>
      </g>
     </g>
     <g id="text_1">
      <!-- −0.2 -->
      <g transform="translate(58.69503 322.182437) scale(0.1 -0.1)">
       <defs>
        <path id="DejaVuSans-2212" d="M 678 2272 
L 4684 2272 
L 4684 1741 
L 678 1741 
L 678 2272 
z
" transform="scale(0.015625)"/>
        <path id="DejaVuSans-30" d="M 2034 4250 
Q 1547 4250 1301 3770 
Q 1056 3291 1056 2328 
Q 1056 1369 1301 889 
Q 1547 409 2034 409 
Q 2525 409 2770 889 
Q 3016 1369 3016 2328 
Q 3016 3291 2770 3770 
Q 2525 4250 2034 4250 
z
M 2034 4750 
Q 2819 4750 3233 4129 
Q 3647 3509 3647 2328 
Q 3647 1150 3233 529 
Q 2819 -91 2034 -91 
Q 1250 -91 836 529 
Q 422 1150 422 2328 
Q 422 3509 836 4129 
Q 1250 4750 2034 4750 
z
" transform="scale(0.015625)"/>
        <path id="DejaVuSans-2e" d="M 684 794 
L 1344 794 
L 1344 0 
L 684 0 
L 684 794 
z
" transform="scale(0.015625)"/>
        <path id="DejaVuSans-32" d="M 1228 531 
L 3431 531 
L 3431 0 
L 469 0 
L 469 531 
Q 828 903 1448 1529 
Q 2069 2156 2228 2338 
Q 2531 2678 2651 2914 
Q 2772 3150 2772 3378 
Q 2772 3750 2511 3984 
Q 2250 4219 1831 4219 
Q 1534 4219 1204 4116 
Q 875 4013 500 3803 
L 500 4441 
Q 881 4594 1212 4672 
Q 1544 4750 1819 4750 
Q 2544 4750 2975 4387 
Q 3406 4025 3406 3419 
Q 3406 3131 3298 2873 
Q 3191 2616 2906 2266 
Q 2828 2175 2409 1742 
Q 1991 1309 1228 531 
z
" transform="scale(0.015625)"/>
       </defs>
       <use xlink:href="#DejaVuSans-2212"/>
       <use xlink:href="#DejaVuSans-30" transform="translate(83.789062 0)"/>
       <use xlink:href="#DejaVuSans-2e" transform="translate(147.412109 0)"/>
       <use xlink:href="#DejaVuSans-32" transform="translate(179.199219 0)"/>
      </g>
     </g>
    </g>
    <g id="xtick_2">
     <g id="line2d_2">
      <g>
       <use xlink:href="#m9abe10599f" x="135.767345" y="307.584" style="stroke: #000000; stroke-width: 0.8"/>
      </g>
     </g>
     <g id="text_2">
      <!-- 0.0 -->
      <g transform="translate(127.815783 322.182437) scale(0.1 -0.1)">
       <use xlink:href="#DejaVuSans-30"/>
       <use xlink:href="#DejaVuSans-2e" transform="translate(63.623047 0)"/>
       <use xlink:href="#DejaVuSans-30" transform="translate(95.410156 0)"/>
      </g>
     </g>
    </g>
    <g id="xtick_3">
     <g id="line2d_3">
      <g>
       <use xlink:href="#m9abe10599f" x="200.698255" y="307.584" style="stroke: #000000; stroke-width: 0.8"/>
      </g>
     </g>
     <g id="text_3">
      <!-- 0.2 -->
      <g transform="translate(192.746692 322.182437) scale(0.1 -0.1)">
       <use xlink:href="#DejaVuSans-30"/>
       <use xlink:href="#DejaVuSans-2e" transform="translate(63.623047 0)"/>
       <use xlink:href="#DejaVuSans-32" transform="translate(95.410156 0)"/>
      </g>
     </g>
    </g>
    <g id="xtick_4">
     <g id="line2d_4">
      <g>
       <use xlink:href="#m9abe10599f" x="265.629164" y="307.584" style="stroke: #000000; stroke-width: 0.8"/>
      </g>
     </g>
     <g id="text_4">
      <!-- 0.4 -->
      <g transform="translate(257.677601 322.182437) scale(0.1 -0.1)">
       <defs>
        <path id="DejaVuSans-34" d="M 2419 4116 
L 825 1625 
L 2419 1625 
L 2419 4116 
z
M 2253 4666 
L 3047 4666 
L 3047 1625 
L 3713 1625 
L 3713 1100 
L 3047 1100 
L 3047 0 
L 2419 0 
L 2419 1100 
L 313 1100 
L 313 1709 
L 2253 4666 
z
" transform="scale(0.015625)"/>
       </defs>
       <use xlink:href="#DejaVuSans-30"/>
       <use xlink:href="#DejaVuSans-2e" transform="translate(63.623047 0)"/>
       <use xlink:href="#DejaVuSans-34" transform="translate(95.410156 0)"/>
      </g>
     </g>
    </g>
    <g id="xtick_5">
     <g id="line2d_5">
      <g>
       <use xlink:href="#m9abe10599f" x="330.560073" y="307.584" style="stroke: #000000; stroke-width: 0.8"/>
      </g>
     </g>
     <g id="text_5">
      <!-- 0.6 -->
      <g transform="translate(322.60851 322.182437) scale(0.1 -0.1)">
       <defs>
        <path id="DejaVuSans-36" d="M 2113 2584 
Q 1688 2584 1439 2293 
Q 1191 2003 1191 1497 
Q 1191 994 1439 701 
Q 1688 409 2113 409 
Q 2538 409 2786 701 
Q 3034 994 3034 1497 
Q 3034 2003 2786 2293 
Q 2538 2584 2113 2584 
z
M 3366 4563 
L 3366 3988 
Q 3128 4100 2886 4159 
Q 2644 4219 2406 4219 
Q 1781 4219 1451 3797 
Q 1122 3375 1075 2522 
Q 1259 2794 1537 2939 
Q 1816 3084 2150 3084 
Q 2853 3084 3261 2657 
Q 3669 2231 3669 1497 
Q 3669 778 3244 343 
Q 2819 -91 2113 -91 
Q 1303 -91 875 529 
Q 447 1150 447 2328 
Q 447 3434 972 4092 
Q 1497 4750 2381 4750 
Q 2619 4750 2861 4703 
Q 3103 4656 3366 4563 
z
" transform="scale(0.015625)"/>
       </defs>
       <use xlink:href="#DejaVuSans-30"/>
       <use xlink:href="#DejaVuSans-2e" transform="translate(63.623047 0)"/>
       <use xlink:href="#DejaVuSans-36" transform="translate(95.410156 0)"/>
      </g>
     </g>
    </g>
    <g id="xtick_6">
     <g id="line2d_6">
      <g>
       <use xlink:href="#m9abe10599f" x="395.490982" y="307.584" style="stroke: #000000; stroke-width: 0.8"/>
      </g>
     </g>
     <g id="text_6">
      <!-- 0.8 -->
      <g transform="translate(387.539419 322.182437) scale(0.1 -0.1)">
       <defs>
        <path id="DejaVuSans-38" d="M 2034 2216 
Q 1584 2216 1326 1975 
Q 1069 1734 1069 1313 
Q 1069 891 1326 650 
Q 1584 409 2034 409 
Q 2484 409 2743 651 
Q 3003 894 3003 1313 
Q 3003 1734 2745 1975 
Q 2488 2216 2034 2216 
z
M 1403 2484 
Q 997 2584 770 2862 
Q 544 3141 544 3541 
Q 544 4100 942 4425 
Q 1341 4750 2034 4750 
Q 2731 4750 3128 4425 
Q 3525 4100 3525 3541 
Q 3525 3141 3298 2862 
Q 3072 2584 2669 2484 
Q 3125 2378 3379 2068 
Q 3634 1759 3634 1313 
Q 3634 634 3220 271 
Q 2806 -91 2034 -91 
Q 1263 -91 848 271 
Q 434 634 434 1313 
Q 434 1759 690 2068 
Q 947 2378 1403 2484 
z
M 1172 3481 
Q 1172 3119 1398 2916 
Q 1625 2713 2034 2713 
Q 2441 2713 2670 2916 
Q 2900 3119 2900 3481 
Q 2900 3844 2670 4047 
Q 2441 4250 2034 4250 
Q 1625 4250 1398 4047 
Q 1172 3844 1172 3481 
z
" transform="scale(0.015625)"/>
       </defs>
       <use xlink:href="#DejaVuSans-30"/>
       <use xlink:href="#DejaVuSans-2e" transform="translate(63.623047 0)"/>
       <use xlink:href="#DejaVuSans-38" transform="translate(95.410156 0)"/>
      </g>
     </g>
    </g>
   </g>
   <g id="matplotlib.axis_2">
    <g id="ytick_1">
     <g id="line2d_7">
      <defs>
       <path id="mf7ff8068d4" d="M 0 0 
L -3.5 0 
" style="stroke: #000000; stroke-width: 0.8"/>
      </defs>
      <g>
       <use xlink:href="#mf7ff8068d4" x="57.6" y="298.422401" style="stroke: #000000; stroke-width: 0.8"/>
      </g>
     </g>
     <g id="text_7">
      <!-- −200 -->
      <g transform="translate(23.132812 302.22162) scale(0.1 -0.1)">
       <use xlink:href="#DejaVuSans-2212"/>
       <use xlink:href="#DejaVuSans-32" transform="translate(83.789062 0)"/>
       <use xlink:href="#DejaVuSans-30" transform="translate(147.412109 0)"/>
       <use xlink:href="#DejaVuSans-30" transform="translate(211.035156 0)"/>
      </g>
     </g>
    </g>
    <g id="ytick_2">
     <g id="line2d_8">
      <g>
       <use xlink:href="#mf7ff8068d4" x="57.6" y="267.815601" style="stroke: #000000; stroke-width: 0.8"/>
      </g>
     </g>
     <g id="text_8">
      <!-- −175 -->
      <g transform="translate(23.132812 271.61482) scale(0.1 -0.1)">
       <defs>
        <path id="DejaVuSans-31" d="M 794 531 
L 1825 531 
L 1825 4091 
L 703 3866 
L 703 4441 
L 1819 4666 
L 2450 4666 
L 2450 531 
L 3481 531 
L 3481 0 
L 794 0 
L 794 531 
z
" transform="scale(0.015625)"/>
        <path id="DejaVuSans-37" d="M 525 4666 
L 3525 4666 
L 3525 4397 
L 1831 0 
L 1172 0 
L 2766 4134 
L 525 4134 
L 525 4666 
z
" transform="scale(0.015625)"/>
        <path id="DejaVuSans-35" d="M 691 4666 
L 3169 4666 
L 3169 4134 
L 1269 4134 
L 1269 2991 
Q 1406 3038 1543 3061 
Q 1681 3084 1819 3084 
Q 2600 3084 3056 2656 
Q 3513 2228 3513 1497 
Q 3513 744 3044 326 
Q 2575 -91 1722 -91 
Q 1428 -91 1123 -41 
Q 819 9 494 109 
L 494 744 
Q 775 591 1075 516 
Q 1375 441 1709 441 
Q 2250 441 2565 725 
Q 2881 1009 2881 1497 
Q 2881 1984 2565 2268 
Q 2250 2553 1709 2553 
Q 1456 2553 1204 2497 
Q 953 2441 691 2322 
L 691 4666 
z
" transform="scale(0.015625)"/>
       </defs>
       <use xlink:href="#DejaVuSans-2212"/>
       <use xlink:href="#DejaVuSans-31" transform="translate(83.789062 0)"/>
       <use xlink:href="#DejaVuSans-37" transform="translate(147.412109 0)"/>
       <use xlink:href="#DejaVuSans-35" transform="translate(211.035156 0)"/>
      </g>
     </g>
    </g>
    <g id="ytick_3">
     <g id="line2d_9">
      <g>
       <use xlink:href="#mf7ff8068d4" x="57.6" y="237.208801" style="stroke: #000000; stroke-width: 0.8"/>
      </g>
     </g>
     <g id="text_9">
      <!-- −150 -->
      <g transform="translate(23.132812 241.00802) scale(0.1 -0.1)">
       <use xlink:href="#DejaVuSans-2212"/>
       <use xlink:href="#DejaVuSans-31" transform="translate(83.789062 0)"/>
       <use xlink:href="#DejaVuSans-35" transform="translate(147.412109 0)"/>
       <use xlink:href="#DejaVuSans-30" transform="translate(211.035156 0)"/>
      </g>
     </g>
    </g>
    <g id="ytick_4">
     <g id="line2d_10">
      <g>
       <use xlink:href="#mf7ff8068d4" x="57.6" y="206.602001" style="stroke: #000000; stroke-width: 0.8"/>
      </g>
     </g>
     <g id="text_10">
      <!-- −125 -->
      <g transform="translate(23.132812 210.401219) scale(0.1 -0.1)">
       <use xlink:href="#DejaVuSans-2212"/>
       <use xlink:href="#DejaVuSans-31" transform="translate(83.789062 0)"/>
       <use xlink:href="#DejaVuSans-32" transform="translate(147.412109 0)"/>
       <use xlink:href="#DejaVuSans-35" transform="translate(211.035156 0)"/>
      </g>
     </g>
    </g>
    <g id="ytick_5">
     <g id="line2d_11">
      <g>
       <use xlink:href="#mf7ff8068d4" x="57.6" y="175.995201" style="stroke: #000000; stroke-width: 0.8"/>
      </g>
     </g>
     <g id="text_11">
      <!-- −100 -->
      <g transform="translate(23.132812 179.794419) scale(0.1 -0.1)">
       <use xlink:href="#DejaVuSans-2212"/>
       <use xlink:href="#DejaVuSans-31" transform="translate(83.789062 0)"/>
       <use xlink:href="#DejaVuSans-30" transform="translate(147.412109 0)"/>
       <use xlink:href="#DejaVuSans-30" transform="translate(211.035156 0)"/>
      </g>
     </g>
    </g>
    <g id="ytick_6">
     <g id="line2d_12">
      <g>
       <use xlink:href="#mf7ff8068d4" x="57.6" y="145.3884" style="stroke: #000000; stroke-width: 0.8"/>
      </g>
     </g>
     <g id="text_12">
      <!-- −75 -->
      <g transform="translate(29.495313 149.187619) scale(0.1 -0.1)">
       <use xlink:href="#DejaVuSans-2212"/>
       <use xlink:href="#DejaVuSans-37" transform="translate(83.789062 0)"/>
       <use xlink:href="#DejaVuSans-35" transform="translate(147.412109 0)"/>
      </g>
     </g>
    </g>
    <g id="ytick_7">
     <g id="line2d_13">
      <g>
       <use xlink:href="#mf7ff8068d4" x="57.6" y="114.7816" style="stroke: #000000; stroke-width: 0.8"/>
      </g>
     </g>
     <g id="text_13">
      <!-- −50 -->
      <g transform="translate(29.495313 118.580819) scale(0.1 -0.1)">
       <use xlink:href="#DejaVuSans-2212"/>
       <use xlink:href="#DejaVuSans-35" transform="translate(83.789062 0)"/>
       <use xlink:href="#DejaVuSans-30" transform="translate(147.412109 0)"/>
      </g>
     </g>
    </g>
    <g id="ytick_8">
     <g id="line2d_14">
      <g>
       <use xlink:href="#mf7ff8068d4" x="57.6" y="84.1748" style="stroke: #000000; stroke-width: 0.8"/>
      </g>
     </g>
     <g id="text_14">
      <!-- −25 -->
      <g transform="translate(29.495313 87.974019) scale(0.1 -0.1)">
       <use xlink:href="#DejaVuSans-2212"/>
       <use xlink:href="#DejaVuSans-32" transform="translate(83.789062 0)"/>
       <use xlink:href="#DejaVuSans-35" transform="translate(147.412109 0)"/>
      </g>
     </g>
    </g>
    <g id="ytick_9">
     <g id="line2d_15">
      <g>
       <use xlink:href="#mf7ff8068d4" x="57.6" y="53.568" style="stroke: #000000; stroke-width: 0.8"/>
      </g>
     </g>
     <g id="text_15">
      <!-- 0 -->
      <g transform="translate(44.2375 57.367219) scale(0.1 -0.1)">
       <use xlink:href="#DejaVuSans-30"/>
      </g>
     </g>
    </g>
   </g>
   <g id="line2d_16">
    <path d="M 73.832727 53.568 
L 126.6432 53.670993 
L 126.974618 54.010903 
L 127.211345 54.13896 
L 127.4616 54.19611 
L 127.623927 54.295401 
L 127.887709 54.638821 
L 128.083855 54.737552 
L 128.266473 54.893553 
L 128.422036 54.993472 
L 128.564073 55.160274 
L 128.963127 55.438838 
L 129.287782 55.578528 
L 129.436582 55.663018 
L 130.187345 55.975311 
L 130.329382 56.114549 
L 131.228945 56.677735 
L 131.600945 56.804675 
L 131.979709 56.95499 
L 132.135273 57.187432 
L 132.290836 57.28817 
L 132.432873 57.425865 
L 132.527564 57.521326 
L 132.710182 57.841906 
L 132.872509 57.952873 
L 133.677382 58.653643 
L 134.117018 58.747083 
L 134.718982 58.932753 
L 135.009818 59.400418 
L 135.138327 59.480282 
L 136.254327 60.084298 
L 136.409891 60.372946 
L 136.680436 60.39333 
L 136.795418 60.501285 
L 137.573236 61.196767 
L 137.897891 61.327007 
L 138.134618 61.469298 
L 138.777164 61.679985 
L 138.912436 61.740031 
L 139.325018 61.892734 
L 139.602327 61.977618 
L 139.940509 62.142664 
L 140.2584 62.587238 
L 140.880655 62.733763 
L 141.070036 62.808876 
L 141.780218 63.084394 
L 142.044 63.216848 
L 143.748436 64.199584 
L 144.336873 64.309602 
L 144.715636 64.608718 
L 144.918545 64.627174 
L 145.026764 64.73402 
L 145.189091 64.86223 
L 145.358182 65.028244 
L 145.878982 65.813488 
L 146.136 65.943897 
L 146.298327 66.13176 
L 147.265527 66.742647 
L 147.481964 66.850227 
L 147.745745 67.162536 
L 147.941891 67.271291 
L 149.193164 68.120491 
L 149.768073 68.245097 
L 149.923636 68.343209 
L 150.173891 68.422392 
L 151.1208 68.829617 
L 151.452218 69.144295 
L 151.749818 69.255465 
L 151.918909 69.278227 
L 152.358545 69.409421 
L 154.299709 70.096418 
L 154.739345 70.228435 
L 155.151927 70.409113 
L 155.774182 70.801733 
L 156.491127 70.909018 
L 156.721091 71.070499 
L 157.194545 71.177272 
L 157.438036 71.396661 
L 158.053527 71.53351 
L 158.824582 71.896314 
L 159.2304 72.310742 
L 159.615927 72.493812 
L 159.757964 72.617032 
L 160.3464 72.813524 
L 160.616945 73.07017 
L 161.218909 73.252042 
L 161.489455 73.317015 
L 161.881745 73.423577 
L 162.084655 73.569459 
L 162.416073 73.706332 
L 162.916582 74.004903 
L 163.112727 74.116394 
L 164.181382 74.509732 
L 164.370764 74.622672 
L 164.519564 74.775704 
L 165.486764 75.146172 
L 165.649091 75.295691 
L 166.487782 75.809196 
L 166.697455 75.932887 
L 167.509091 76.392755 
L 167.657891 76.50066 
L 167.881091 76.588812 
L 167.975782 76.694488 
L 168.1584 76.723663 
L 168.746836 76.823478 
L 168.909164 76.892929 
L 170.688 77.489029 
L 170.863855 77.558131 
L 171.242618 77.673049 
L 171.722836 77.848769 
L 171.885164 77.912814 
L 173.346109 78.365148 
L 173.528727 78.630392 
L 174.150982 78.862714 
L 174.969382 79.358553 
L 175.280509 79.461549 
L 175.436073 79.533135 
L 175.916291 79.642428 
L 176.328873 79.944607 
L 176.7144 80.098644 
L 177.465164 80.237357 
L 177.918327 80.422806 
L 178.7976 80.552511 
L 179.1696 80.754285 
L 180.265309 81.051714 
L 180.4344 81.213036 
L 180.698182 81.416798 
L 180.840218 81.533097 
L 180.982255 81.657586 
L 181.313673 81.768958 
L 181.820945 81.948197 
L 181.9968 81.98041 
L 182.632582 82.130433 
L 183.9312 82.699711 
L 184.113818 82.725646 
L 184.844291 82.843268 
L 185.101309 83.110497 
L 185.581527 83.226173 
L 185.7912 83.411156 
L 186.717818 83.744213 
L 186.961309 83.817549 
L 188.029964 84.034309 
L 188.557527 84.144125 
L 188.963345 84.249232 
L 189.186545 84.341669 
L 189.402982 84.452761 
L 190.458109 84.906092 
L 190.661018 85.076668 
L 192.480436 85.76693 
L 192.636 85.877872 
L 192.987709 86.101589 
L 193.576145 86.251895 
L 194.536582 86.609124 
L 194.712436 86.642863 
L 195.449673 86.84641 
L 196.112509 87.08678 
L 196.2816 87.175612 
L 196.741527 87.398062 
L 196.897091 87.47117 
L 197.357018 87.710776 
L 197.539636 87.840464 
L 198.026618 88.011568 
L 198.412145 88.119708 
L 198.588 88.147292 
L 199.081745 88.279087 
L 199.277891 88.325787 
L 199.974545 88.512126 
L 200.197745 88.576062 
L 200.779418 88.69586 
L 201.083782 88.884379 
L 201.279927 89.037426 
L 201.672218 89.220988 
L 201.915709 89.328429 
L 202.240364 89.519205 
L 202.970836 89.696504 
L 209.531564 91.526954 
L 210.918109 91.921012 
L 211.391564 92.051104 
L 211.695927 92.235662 
L 213.84 92.906781 
L 215.503855 93.556626 
L 215.666182 93.668426 
L 216.024655 93.735144 
L 216.450764 93.936573 
L 216.599564 94.028825 
L 216.958036 94.142951 
L 217.194764 94.258934 
L 217.722327 94.543674 
L 218.141673 94.711919 
L 218.3784 94.860156 
L 220.630691 95.22457 
L 220.799782 95.288191 
L 221.313818 95.438612 
L 222.301309 95.651527 
L 222.720655 95.775398 
L 223.038545 95.825031 
L 223.518764 95.970791 
L 224.201891 96.274802 
L 224.391273 96.378765 
L 224.546836 96.481387 
L 225.216436 96.729662 
L 225.4464 96.779975 
L 225.886036 96.884704 
L 226.095709 97.11884 
L 227.029091 97.374914 
L 227.313164 97.464279 
L 227.833964 97.603017 
L 228.036873 97.661515 
L 228.537382 97.771533 
L 228.672655 97.920416 
L 228.821455 98.079087 
L 228.949964 98.201112 
L 229.585745 98.499657 
L 229.950982 98.616968 
L 230.566473 99.056609 
L 230.715273 99.097496 
L 231.066982 99.242008 
L 231.303709 99.437079 
L 231.750109 99.547107 
L 232.047709 99.671617 
L 232.311491 99.920953 
L 233.197527 100.167259 
L 233.427491 100.258941 
L 234.624655 100.669266 
L 235.186036 100.838042 
L 235.422764 100.874782 
L 235.585091 101.035055 
L 235.828582 101.402779 
L 236.2344 101.502954 
L 236.761964 101.616881 
L 237.533018 101.898365 
L 238.236436 102.016355 
L 238.506982 102.44693 
L 239.893527 103.04456 
L 240.116727 103.115572 
L 240.522545 103.233734 
L 243.275345 104.076465 
L 243.457964 104.15938 
L 244.316945 104.31919 
L 244.486036 104.35448 
L 245.2368 104.539038 
L 245.832 104.793258 
L 245.994327 104.856318 
L 248.1384 105.291637 
L 248.814764 105.606689 
L 249.349091 105.726935 
L 249.809018 105.834004 
L 249.971345 105.904461 
L 251.364655 106.347845 
L 251.547273 106.442093 
L 251.770473 106.550404 
L 252.156 106.653985 
L 252.345382 106.767959 
L 252.636218 106.874821 
L 252.791782 106.945175 
L 254.333891 107.372212 
L 254.475927 107.416435 
L 255.118473 107.629449 
L 255.3552 107.717792 
L 255.788073 107.777819 
L 256.146545 107.883144 
L 256.444145 108.021662 
L 257.397818 108.227373 
L 257.8104 108.427887 
L 258.141818 108.544986 
L 258.919636 108.872593 
L 259.467491 108.991356 
L 259.859782 109.250098 
L 260.022109 109.333217 
L 260.833745 109.510125 
L 261.070473 109.59839 
L 261.990327 109.746964 
L 263.857091 110.100515 
L 264.06 110.283197 
L 264.783709 110.583276 
L 264.9528 110.71883 
L 265.236873 110.806695 
L 266.400218 111.142318 
L 266.582836 111.206581 
L 266.866909 111.315433 
L 269.268 112.06859 
L 269.443855 112.186924 
L 269.660291 112.272699 
L 270.2352 112.379698 
L 270.397527 112.463641 
L 270.6816 112.568922 
L 270.843927 112.659939 
L 271.371491 112.765788 
L 271.547345 112.855046 
L 271.824655 112.912142 
L 272.358982 113.024956 
L 272.595709 113.046401 
L 272.8392 113.159081 
L 273.116509 113.298995 
L 273.623782 113.464671 
L 273.799636 113.603514 
L 274.239273 113.83692 
L 274.489527 113.853732 
L 275.179418 113.983768 
L 275.362036 114.044212 
L 275.754327 114.150517 
L 276.694473 114.29135 
L 278.250109 114.782878 
L 278.405673 114.897284 
L 278.547709 115.01978 
L 278.919709 115.12806 
L 279.102327 115.244506 
L 281.205818 115.87418 
L 281.598109 116.004995 
L 282.328582 116.200067 
L 284.256218 116.752002 
L 284.418545 116.86187 
L 284.790545 117.016928 
L 285.074618 117.167679 
L 285.230182 117.311751 
L 285.879491 117.490778 
L 288.889309 118.251546 
L 289.200436 118.361733 
L 289.443927 118.403226 
L 290.086473 118.520896 
L 290.336727 118.59731 
L 290.688436 118.704371 
L 290.898109 118.864184 
L 291.6624 119.063825 
L 291.8112 119.124481 
L 293.136873 119.673011 
L 293.2992 119.862308 
L 293.853818 119.974222 
L 294.192 120.037541 
L 294.969818 120.148024 
L 295.247127 120.315916 
L 296.4984 120.586422 
L 296.775709 120.675002 
L 297.397964 120.785667 
L 297.715855 120.874385 
L 299.183564 121.139858 
L 299.359418 121.168597 
L 299.954618 121.274328 
L 300.137236 121.393102 
L 301.009745 121.611761 
L 301.151782 121.653099 
L 302.592436 122.064633 
L 302.8968 122.1498 
L 307.584 123.23693 
L 307.7328 123.280759 
L 308.571491 123.464483 
L 308.828509 123.642595 
L 309.849818 123.763721 
L 311.101091 124.00925 
L 311.425745 124.053325 
L 312.190036 124.161671 
L 312.474109 124.275096 
L 312.927273 124.385243 
L 313.0896 124.423046 
L 313.630691 124.534244 
L 314.509964 124.812729 
L 314.807564 124.984791 
L 315.132218 125.218897 
L 315.301309 125.259279 
L 316.025018 125.379249 
L 316.741964 125.534409 
L 320.333455 126.243305 
L 320.5296 126.44523 
L 322.098764 126.919082 
L 322.727782 127.03401 
L 322.964509 127.094634 
L 324.148145 127.399545 
L 327.354109 128.075899 
L 327.516436 128.11709 
L 328.179273 128.273279 
L 328.443055 128.376928 
L 329.484655 128.548834 
L 330.133964 128.719187 
L 330.681818 128.894205 
L 330.884727 128.942448 
L 331.926327 129.111832 
L 332.677091 129.365976 
L 333.360218 129.477844 
L 333.806618 129.588051 
L 334.050109 129.668954 
L 334.895564 129.939458 
L 335.504291 130.055275 
L 336.342982 130.436222 
L 337.134327 130.546426 
L 338.771127 130.984629 
L 338.9808 131.01334 
L 339.318982 131.159214 
L 339.751855 131.356664 
L 341.564509 131.859746 
L 342.004145 132.035667 
L 342.748145 132.199981 
L 343.323055 132.335281 
L 343.634182 132.45096 
L 344.499927 132.652467 
L 345.642982 132.924156 
L 345.920291 132.969916 
L 346.441091 133.109716 
L 346.7928 133.225252 
L 347.191855 133.381321 
L 347.367709 133.412952 
L 348.382255 133.538688 
L 348.646036 133.664475 
L 349.383273 133.895534 
L 350.729236 134.216856 
L 351.655855 134.47382 
L 352.413382 134.643609 
L 352.629818 134.68755 
L 353.2656 134.805782 
L 353.454982 134.875761 
L 353.901382 134.990772 
L 354.063709 135.069683 
L 354.9768 135.219009 
L 355.166182 135.305039 
L 356.099564 135.723383 
L 356.255127 135.79336 
L 357.939273 136.09769 
L 358.757673 136.563358 
L 358.926764 136.597549 
L 359.034982 136.699747 
L 359.204073 136.846073 
L 359.988655 137.213087 
L 360.144218 137.267443 
L 362.4168 137.831579 
L 362.836145 138.021579 
L 363.613964 138.281944 
L 363.945382 138.500621 
L 365.162836 138.926317 
L 365.460436 139.058154 
L 366.224727 139.277484 
L 367.043127 139.59469 
L 367.1784 139.698707 
L 367.320436 139.780899 
L 367.570691 139.902132 
L 367.800655 140.097951 
L 368.111782 140.233593 
L 368.260582 140.304007 
L 369.099273 140.609607 
L 369.457745 140.732984 
L 371.649164 141.834345 
L 373.116873 143.04841 
L 373.319782 143.274711 
L 374.165236 143.696665 
L 375.294764 145.14774 
L 375.443564 145.588536 
L 375.795273 145.736632 
L 375.971127 145.846015 
L 376.275491 145.957369 
L 376.518982 146.434766 
L 376.965382 146.566797 
L 377.168291 146.75947 
L 377.479418 146.893915 
L 377.648509 147.193234 
L 377.729673 147.355466 
L 377.864945 147.563311 
L 378.020509 147.759236 
L 378.155782 147.849783 
L 378.378982 148.015548 
L 378.764509 148.590124 
L 378.974182 148.72174 
L 379.251491 149.196662 
L 379.555855 149.453104 
L 379.738473 149.904298 
L 379.9008 150.30842 
L 380.313382 151.425639 
L 380.441891 151.692612 
L 381.003273 152.884717 
L 381.321164 153.097987 
L 381.490255 153.337883 
L 381.963709 153.534911 
L 382.119273 153.701501 
L 382.247782 153.809612 
L 383.079709 154.728122 
L 383.275855 155.134462 
L 383.370545 155.213362 
L 383.580218 156.125105 
L 383.789891 156.440677 
L 383.938691 156.927199 
L 384.216 157.088971 
L 384.628582 157.804394 
L 384.858545 158.112588 
L 385.007345 158.536913 
L 385.074982 158.646029 
L 385.244073 158.953266 
L 385.372582 159.082562 
L 385.5552 159.638196 
L 385.771636 159.772352 
L 385.981309 160.152361 
L 386.353309 160.979504 
L 386.562982 161.853484 
L 386.759127 162.277991 
L 386.914691 162.477735 
L 387.252873 163.088191 
L 387.3408 163.183348 
L 387.482836 163.359413 
L 388.253891 164.727795 
L 388.490618 165.192963 
L 388.598836 165.30944 
L 388.815273 165.784218 
L 389.633673 166.882232 
L 389.7216 166.987319 
L 390.492655 169.232626 
L 390.648218 169.475713 
L 390.945818 170.840072 
L 391.094618 171.749523 
L 391.108145 171.778019 
L 391.317818 173.218725 
L 391.459855 173.323758 
L 391.5072 173.675926 
L 391.669527 174.408655 
L 391.696582 174.478679 
L 391.940073 175.737736 
L 392.021236 175.907506 
L 392.359418 177.128825 
L 392.501455 178.042598 
L 392.521745 178.163738 
L 392.650255 178.526627 
L 392.778764 178.684424 
L 393.076364 181.140952 
L 393.110182 181.237735 
L 393.394255 182.476872 
L 393.4416 182.582826 
L 393.847418 185.290332 
L 393.867709 185.362015 
L 394.1112 186.509003 
L 394.226182 186.792126 
L 394.266764 187.267867 
L 394.564364 189.255132 
L 394.625236 189.949628 
L 394.774036 191.39516 
L 394.9296 191.869441 
L 395.098691 193.655637 
L 395.1528 193.974391 
L 395.308364 194.610498 
L 395.457164 195.338346 
L 395.917091 199.68123 
L 395.984727 199.943288 
L 396.099709 201.684972 
L 396.336436 204.346886 
L 396.471709 206.02903 
L 396.647564 209.44251 
L 396.694909 209.578811 
L 396.931636 212.334733 
L 396.985745 212.504248 
L 397.039855 213.53722 
L 397.249527 220.865875 
L 397.946182 238.158067 
L 398.101745 245.685357 
L 398.122036 246.116424 
L 398.473745 289.44856 
L 398.480509 295.488 
L 398.480509 295.488 
" clip-path="url(#p47e6881ff7)" style="fill: none; stroke: #1f77b4; stroke-width: 1.5; stroke-linecap: square"/>
   </g>
   <g id="line2d_17">
    <path d="M 135.767345 59.68965 
L 346.542545 133.14568 
" clip-path="url(#p47e6881ff7)" style="fill: none; stroke-dasharray: 5.55,2.4; stroke-dashoffset: 0; stroke: #ff7f0e; stroke-width: 1.5"/>
   </g>
   <g id="line2d_18">
    <path d="M 73.832727 127.02432 
L 398.487273 127.02432 
L 398.487273 127.02432 
" clip-path="url(#p47e6881ff7)" style="fill: none; stroke-dasharray: 5.55,2.4; stroke-dashoffset: 0; stroke: #2ca02c; stroke-width: 1.5"/>
   </g>
   <g id="LineCollection_1">
    <path d="M 346.542545 295.488 
L 346.542545 53.568 
" clip-path="url(#p47e6881ff7)" style="fill: none; stroke-dasharray: 5.55,2.4; stroke-dashoffset: 0; stroke: #1f77b4; stroke-width: 1.5"/>
   </g>
   <g id="patch_3">
    <path d="M 57.6 307.584 
L 57.6 41.472 
" style="fill: none; stroke: #000000; stroke-width: 0.8; stroke-linejoin: miter; stroke-linecap: square"/>
   </g>
   <g id="patch_4">
    <path d="M 414.72 307.584 
L 414.72 41.472 
" style="fill: none; stroke: #000000; stroke-width: 0.8; stroke-linejoin: miter; stroke-linecap: square"/>
   </g>
   <g id="patch_5">
    <path d="M 57.6 307.584 
L 414.72 307.584 
" style="fill: none; stroke: #000000; stroke-width: 0.8; stroke-linejoin: miter; stroke-linecap: square"/>
   </g>
   <g id="patch_6">
    <path d="M 57.6 41.472 
L 414.72 41.472 
" style="fill: none; stroke: #000000; stroke-width: 0.8; stroke-linejoin: miter; stroke-linecap: square"/>
   </g>
   <g id="text_16">
    <!-- Energy Decay - 4000 Hz -->
    <g transform="translate(163.59 35.472) scale(0.12 -0.12)">
     <defs>
      <path id="DejaVuSans-45" d="M 628 4666 
L 3578 4666 
L 3578 4134 
L 1259 4134 
L 1259 2753 
L 3481 2753 
L 3481 2222 
L 1259 2222 
L 1259 531 
L 3634 531 
L 3634 0 
L 628 0 
L 628 4666 
z
" transform="scale(0.015625)"/>
      <path id="DejaVuSans-6e" d="M 3513 2113 
L 3513 0 
L 2938 0 
L 2938 2094 
Q 2938 2591 2744 2837 
Q 2550 3084 2163 3084 
Q 1697 3084 1428 2787 
Q 1159 2491 1159 1978 
L 1159 0 
L 581 0 
L 581 3500 
L 1159 3500 
L 1159 2956 
Q 1366 3272 1645 3428 
Q 1925 3584 2291 3584 
Q 2894 3584 3203 3211 
Q 3513 2838 3513 2113 
z
" transform="scale(0.015625)"/>
      <path id="DejaVuSans-65" d="M 3597 1894 
L 3597 1613 
L 953 1613 
Q 991 1019 1311 708 
Q 1631 397 2203 397 
Q 2534 397 2845 478 
Q 3156 559 3463 722 
L 3463 178 
Q 3153 47 2828 -22 
Q 2503 -91 2169 -91 
Q 1331 -91 842 396 
Q 353 884 353 1716 
Q 353 2575 817 3079 
Q 1281 3584 2069 3584 
Q 2775 3584 3186 3129 
Q 3597 2675 3597 1894 
z
M 3022 2063 
Q 3016 2534 2758 2815 
Q 2500 3097 2075 3097 
Q 1594 3097 1305 2825 
Q 1016 2553 972 2059 
L 3022 2063 
z
" transform="scale(0.015625)"/>
      <path id="DejaVuSans-72" d="M 2631 2963 
Q 2534 3019 2420 3045 
Q 2306 3072 2169 3072 
Q 1681 3072 1420 2755 
Q 1159 2438 1159 1844 
L 1159 0 
L 581 0 
L 581 3500 
L 1159 3500 
L 1159 2956 
Q 1341 3275 1631 3429 
Q 1922 3584 2338 3584 
Q 2397 3584 2469 3576 
Q 2541 3569 2628 3553 
L 2631 2963 
z
" transform="scale(0.015625)"/>
      <path id="DejaVuSans-67" d="M 2906 1791 
Q 2906 2416 2648 2759 
Q 2391 3103 1925 3103 
Q 1463 3103 1205 2759 
Q 947 2416 947 1791 
Q 947 1169 1205 825 
Q 1463 481 1925 481 
Q 2391 481 2648 825 
Q 2906 1169 2906 1791 
z
M 3481 434 
Q 3481 -459 3084 -895 
Q 2688 -1331 1869 -1331 
Q 1566 -1331 1297 -1286 
Q 1028 -1241 775 -1147 
L 775 -588 
Q 1028 -725 1275 -790 
Q 1522 -856 1778 -856 
Q 2344 -856 2625 -561 
Q 2906 -266 2906 331 
L 2906 616 
Q 2728 306 2450 153 
Q 2172 0 1784 0 
Q 1141 0 747 490 
Q 353 981 353 1791 
Q 353 2603 747 3093 
Q 1141 3584 1784 3584 
Q 2172 3584 2450 3431 
Q 2728 3278 2906 2969 
L 2906 3500 
L 3481 3500 
L 3481 434 
z
" transform="scale(0.015625)"/>
      <path id="DejaVuSans-79" d="M 2059 -325 
Q 1816 -950 1584 -1140 
Q 1353 -1331 966 -1331 
L 506 -1331 
L 506 -850 
L 844 -850 
Q 1081 -850 1212 -737 
Q 1344 -625 1503 -206 
L 1606 56 
L 191 3500 
L 800 3500 
L 1894 763 
L 2988 3500 
L 3597 3500 
L 2059 -325 
z
" transform="scale(0.015625)"/>
      <path id="DejaVuSans-20" transform="scale(0.015625)"/>
      <path id="DejaVuSans-44" d="M 1259 4147 
L 1259 519 
L 2022 519 
Q 2988 519 3436 956 
Q 3884 1394 3884 2338 
Q 3884 3275 3436 3711 
Q 2988 4147 2022 4147 
L 1259 4147 
z
M 628 4666 
L 1925 4666 
Q 3281 4666 3915 4102 
Q 4550 3538 4550 2338 
Q 4550 1131 3912 565 
Q 3275 0 1925 0 
L 628 0 
L 628 4666 
z
" transform="scale(0.015625)"/>
      <path id="DejaVuSans-63" d="M 3122 3366 
L 3122 2828 
Q 2878 2963 2633 3030 
Q 2388 3097 2138 3097 
Q 1578 3097 1268 2742 
Q 959 2388 959 1747 
Q 959 1106 1268 751 
Q 1578 397 2138 397 
Q 2388 397 2633 464 
Q 2878 531 3122 666 
L 3122 134 
Q 2881 22 2623 -34 
Q 2366 -91 2075 -91 
Q 1284 -91 818 406 
Q 353 903 353 1747 
Q 353 2603 823 3093 
Q 1294 3584 2113 3584 
Q 2378 3584 2631 3529 
Q 2884 3475 3122 3366 
z
" transform="scale(0.015625)"/>
      <path id="DejaVuSans-61" d="M 2194 1759 
Q 1497 1759 1228 1600 
Q 959 1441 959 1056 
Q 959 750 1161 570 
Q 1363 391 1709 391 
Q 2188 391 2477 730 
Q 2766 1069 2766 1631 
L 2766 1759 
L 2194 1759 
z
M 3341 1997 
L 3341 0 
L 2766 0 
L 2766 531 
Q 2569 213 2275 61 
Q 1981 -91 1556 -91 
Q 1019 -91 701 211 
Q 384 513 384 1019 
Q 384 1609 779 1909 
Q 1175 2209 1959 2209 
L 2766 2209 
L 2766 2266 
Q 2766 2663 2505 2880 
Q 2244 3097 1772 3097 
Q 1472 3097 1187 3025 
Q 903 2953 641 2809 
L 641 3341 
Q 956 3463 1253 3523 
Q 1550 3584 1831 3584 
Q 2591 3584 2966 3190 
Q 3341 2797 3341 1997 
z
" transform="scale(0.015625)"/>
      <path id="DejaVuSans-2d" d="M 313 2009 
L 1997 2009 
L 1997 1497 
L 313 1497 
L 313 2009 
z
" transform="scale(0.015625)"/>
      <path id="DejaVuSans-48" d="M 628 4666 
L 1259 4666 
L 1259 2753 
L 3553 2753 
L 3553 4666 
L 4184 4666 
L 4184 0 
L 3553 0 
L 3553 2222 
L 1259 2222 
L 1259 0 
L 628 0 
L 628 4666 
z
" transform="scale(0.015625)"/>
      <path id="DejaVuSans-7a" d="M 353 3500 
L 3084 3500 
L 3084 2975 
L 922 459 
L 3084 459 
L 3084 0 
L 275 0 
L 275 525 
L 2438 3041 
L 353 3041 
L 353 3500 
z
" transform="scale(0.015625)"/>
     </defs>
     <use xlink:href="#DejaVuSans-45"/>
     <use xlink:href="#DejaVuSans-6e" transform="translate(63.183594 0)"/>
     <use xlink:href="#DejaVuSans-65" transform="translate(126.5625 0)"/>
     <use xlink:href="#DejaVuSans-72" transform="translate(188.085938 0)"/>
     <use xlink:href="#DejaVuSans-67" transform="translate(227.449219 0)"/>
     <use xlink:href="#DejaVuSans-79" transform="translate(290.925781 0)"/>
     <use xlink:href="#DejaVuSans-20" transform="translate(350.105469 0)"/>
     <use xlink:href="#DejaVuSans-44" transform="translate(381.892578 0)"/>
     <use xlink:href="#DejaVuSans-65" transform="translate(458.894531 0)"/>
     <use xlink:href="#DejaVuSans-63" transform="translate(520.417969 0)"/>
     <use xlink:href="#DejaVuSans-61" transform="translate(575.398438 0)"/>
     <use xlink:href="#DejaVuSans-79" transform="translate(636.677734 0)"/>
     <use xlink:href="#DejaVuSans-20" transform="translate(695.857422 0)"/>
     <use xlink:href="#DejaVuSans-2d" transform="translate(727.644531 0)"/>
     <use xlink:href="#DejaVuSans-20" transform="translate(763.728516 0)"/>
     <use xlink:href="#DejaVuSans-34" transform="translate(795.515625 0)"/>
     <use xlink:href="#DejaVuSans-30" transform="translate(859.138672 0)"/>
     <use xlink:href="#DejaVuSans-30" transform="translate(922.761719 0)"/>
     <use xlink:href="#DejaVuSans-30" transform="translate(986.384766 0)"/>
     <use xlink:href="#DejaVuSans-20" transform="translate(1050.007812 0)"/>
     <use xlink:href="#DejaVuSans-48" transform="translate(1081.794922 0)"/>
     <use xlink:href="#DejaVuSans-7a" transform="translate(1156.990234 0)"/>
    </g>
   </g>
   <g id="legend_1">
    <g id="patch_7">
     <path d="M 296.968437 108.1845 
L 407.72 108.1845 
Q 409.72 108.1845 409.72 106.1845 
L 409.72 48.472 
Q 409.72 46.472 407.72 46.472 
L 296.968437 46.472 
Q 294.968437 46.472 294.968437 48.472 
L 294.968437 106.1845 
Q 294.968437 108.1845 296.968437 108.1845 
z
" style="fill: #ffffff; opacity: 0.8; stroke: #cccccc; stroke-linejoin: miter"/>
    </g>
    <g id="line2d_19">
     <path d="M 298.968437 54.570438 
L 308.968437 54.570438 
L 318.968437 54.570438 
" style="fill: none; stroke: #1f77b4; stroke-width: 1.5; stroke-linecap: square"/>
    </g>
    <g id="text_17">
     <!-- Energy -->
     <g transform="translate(326.968437 58.070438) scale(0.1 -0.1)">
      <use xlink:href="#DejaVuSans-45"/>
      <use xlink:href="#DejaVuSans-6e" transform="translate(63.183594 0)"/>
      <use xlink:href="#DejaVuSans-65" transform="translate(126.5625 0)"/>
      <use xlink:href="#DejaVuSans-72" transform="translate(188.085938 0)"/>
      <use xlink:href="#DejaVuSans-67" transform="translate(227.449219 0)"/>
      <use xlink:href="#DejaVuSans-79" transform="translate(290.925781 0)"/>
     </g>
    </g>
    <g id="line2d_20">
     <path d="M 298.968437 69.248563 
L 308.968437 69.248563 
L 318.968437 69.248563 
" style="fill: none; stroke-dasharray: 5.55,2.4; stroke-dashoffset: 0; stroke: #ff7f0e; stroke-width: 1.5"/>
    </g>
    <g id="text_18">
     <!-- Linear Fit -->
     <g transform="translate(326.968437 72.748563) scale(0.1 -0.1)">
      <defs>
       <path id="DejaVuSans-4c" d="M 628 4666 
L 1259 4666 
L 1259 531 
L 3531 531 
L 3531 0 
L 628 0 
L 628 4666 
z
" transform="scale(0.015625)"/>
       <path id="DejaVuSans-69" d="M 603 3500 
L 1178 3500 
L 1178 0 
L 603 0 
L 603 3500 
z
M 603 4863 
L 1178 4863 
L 1178 4134 
L 603 4134 
L 603 4863 
z
" transform="scale(0.015625)"/>
       <path id="DejaVuSans-46" d="M 628 4666 
L 3309 4666 
L 3309 4134 
L 1259 4134 
L 1259 2759 
L 3109 2759 
L 3109 2228 
L 1259 2228 
L 1259 0 
L 628 0 
L 628 4666 
z
" transform="scale(0.015625)"/>
       <path id="DejaVuSans-74" d="M 1172 4494 
L 1172 3500 
L 2356 3500 
L 2356 3053 
L 1172 3053 
L 1172 1153 
Q 1172 725 1289 603 
Q 1406 481 1766 481 
L 2356 481 
L 2356 0 
L 1766 0 
Q 1100 0 847 248 
Q 594 497 594 1153 
L 594 3053 
L 172 3053 
L 172 3500 
L 594 3500 
L 594 4494 
L 1172 4494 
z
" transform="scale(0.015625)"/>
      </defs>
      <use xlink:href="#DejaVuSans-4c"/>
      <use xlink:href="#DejaVuSans-69" transform="translate(55.712891 0)"/>
      <use xlink:href="#DejaVuSans-6e" transform="translate(83.496094 0)"/>
      <use xlink:href="#DejaVuSans-65" transform="translate(146.875 0)"/>
      <use xlink:href="#DejaVuSans-61" transform="translate(208.398438 0)"/>
      <use xlink:href="#DejaVuSans-72" transform="translate(269.677734 0)"/>
      <use xlink:href="#DejaVuSans-20" transform="translate(310.791016 0)"/>
      <use xlink:href="#DejaVuSans-46" transform="translate(342.578125 0)"/>
      <use xlink:href="#DejaVuSans-69" transform="translate(392.847656 0)"/>
      <use xlink:href="#DejaVuSans-74" transform="translate(420.630859 0)"/>
     </g>
    </g>
    <g id="line2d_21">
     <path d="M 298.968437 83.926688 
L 308.968437 83.926688 
L 318.968437 83.926688 
" style="fill: none; stroke-dasharray: 5.55,2.4; stroke-dashoffset: 0; stroke: #2ca02c; stroke-width: 1.5"/>
    </g>
    <g id="text_19">
     <!-- -60 dB -->
     <g transform="translate(326.968437 87.426688) scale(0.1 -0.1)">
      <defs>
       <path id="DejaVuSans-64" d="M 2906 2969 
L 2906 4863 
L 3481 4863 
L 3481 0 
L 2906 0 
L 2906 525 
Q 2725 213 2448 61 
Q 2172 -91 1784 -91 
Q 1150 -91 751 415 
Q 353 922 353 1747 
Q 353 2572 751 3078 
Q 1150 3584 1784 3584 
Q 2172 3584 2448 3432 
Q 2725 3281 2906 2969 
z
M 947 1747 
Q 947 1113 1208 752 
Q 1469 391 1925 391 
Q 2381 391 2643 752 
Q 2906 1113 2906 1747 
Q 2906 2381 2643 2742 
Q 2381 3103 1925 3103 
Q 1469 3103 1208 2742 
Q 947 2381 947 1747 
z
" transform="scale(0.015625)"/>
       <path id="DejaVuSans-42" d="M 1259 2228 
L 1259 519 
L 2272 519 
Q 2781 519 3026 730 
Q 3272 941 3272 1375 
Q 3272 1813 3026 2020 
Q 2781 2228 2272 2228 
L 1259 2228 
z
M 1259 4147 
L 1259 2741 
L 2194 2741 
Q 2656 2741 2882 2914 
Q 3109 3088 3109 3444 
Q 3109 3797 2882 3972 
Q 2656 4147 2194 4147 
L 1259 4147 
z
M 628 4666 
L 2241 4666 
Q 2963 4666 3353 4366 
Q 3744 4066 3744 3513 
Q 3744 3084 3544 2831 
Q 3344 2578 2956 2516 
Q 3422 2416 3680 2098 
Q 3938 1781 3938 1306 
Q 3938 681 3513 340 
Q 3088 0 2303 0 
L 628 0 
L 628 4666 
z
" transform="scale(0.015625)"/>
      </defs>
      <use xlink:href="#DejaVuSans-2d"/>
      <use xlink:href="#DejaVuSans-36" transform="translate(36.083984 0)"/>
      <use xlink:href="#DejaVuSans-30" transform="translate(99.707031 0)"/>
      <use xlink:href="#DejaVuSans-20" transform="translate(163.330078 0)"/>
      <use xlink:href="#DejaVuSans-64" transform="translate(195.117188 0)"/>
      <use xlink:href="#DejaVuSans-42" transform="translate(258.59375 0)"/>
     </g>
    </g>
    <g id="line2d_22">
     <path d="M 298.968437 98.604813 
L 318.968437 98.604813 
" style="fill: none; stroke-dasharray: 5.55,2.4; stroke-dashoffset: 0; stroke: #1f77b4; stroke-width: 1.5"/>
    </g>
    <g id="text_20">
     <!-- Estimated RT60 -->
     <g transform="translate(326.968437 102.104813) scale(0.1 -0.1)">
      <defs>
       <path id="DejaVuSans-73" d="M 2834 3397 
L 2834 2853 
Q 2591 2978 2328 3040 
Q 2066 3103 1784 3103 
Q 1356 3103 1142 2972 
Q 928 2841 928 2578 
Q 928 2378 1081 2264 
Q 1234 2150 1697 2047 
L 1894 2003 
Q 2506 1872 2764 1633 
Q 3022 1394 3022 966 
Q 3022 478 2636 193 
Q 2250 -91 1575 -91 
Q 1294 -91 989 -36 
Q 684 19 347 128 
L 347 722 
Q 666 556 975 473 
Q 1284 391 1588 391 
Q 1994 391 2212 530 
Q 2431 669 2431 922 
Q 2431 1156 2273 1281 
Q 2116 1406 1581 1522 
L 1381 1569 
Q 847 1681 609 1914 
Q 372 2147 372 2553 
Q 372 3047 722 3315 
Q 1072 3584 1716 3584 
Q 2034 3584 2315 3537 
Q 2597 3491 2834 3397 
z
" transform="scale(0.015625)"/>
       <path id="DejaVuSans-6d" d="M 3328 2828 
Q 3544 3216 3844 3400 
Q 4144 3584 4550 3584 
Q 5097 3584 5394 3201 
Q 5691 2819 5691 2113 
L 5691 0 
L 5113 0 
L 5113 2094 
Q 5113 2597 4934 2840 
Q 4756 3084 4391 3084 
Q 3944 3084 3684 2787 
Q 3425 2491 3425 1978 
L 3425 0 
L 2847 0 
L 2847 2094 
Q 2847 2600 2669 2842 
Q 2491 3084 2119 3084 
Q 1678 3084 1418 2786 
Q 1159 2488 1159 1978 
L 1159 0 
L 581 0 
L 581 3500 
L 1159 3500 
L 1159 2956 
Q 1356 3278 1631 3431 
Q 1906 3584 2284 3584 
Q 2666 3584 2933 3390 
Q 3200 3197 3328 2828 
z
" transform="scale(0.015625)"/>
       <path id="DejaVuSans-52" d="M 2841 2188 
Q 3044 2119 3236 1894 
Q 3428 1669 3622 1275 
L 4263 0 
L 3584 0 
L 2988 1197 
Q 2756 1666 2539 1819 
Q 2322 1972 1947 1972 
L 1259 1972 
L 1259 0 
L 628 0 
L 628 4666 
L 2053 4666 
Q 2853 4666 3247 4331 
Q 3641 3997 3641 3322 
Q 3641 2881 3436 2590 
Q 3231 2300 2841 2188 
z
M 1259 4147 
L 1259 2491 
L 2053 2491 
Q 2509 2491 2742 2702 
Q 2975 2913 2975 3322 
Q 2975 3731 2742 3939 
Q 2509 4147 2053 4147 
L 1259 4147 
z
" transform="scale(0.015625)"/>
       <path id="DejaVuSans-54" d="M -19 4666 
L 3928 4666 
L 3928 4134 
L 2272 4134 
L 2272 0 
L 1638 0 
L 1638 4134 
L -19 4134 
L -19 4666 
z
" transform="scale(0.015625)"/>
      </defs>
      <use xlink:href="#DejaVuSans-45"/>
      <use xlink:href="#DejaVuSans-73" transform="translate(63.183594 0)"/>
      <use xlink:href="#DejaVuSans-74" transform="translate(115.283203 0)"/>
      <use xlink:href="#DejaVuSans-69" transform="translate(154.492188 0)"/>
      <use xlink:href="#DejaVuSans-6d" transform="translate(182.275391 0)"/>
      <use xlink:href="#DejaVuSans-61" transform="translate(279.6875 0)"/>
      <use xlink:href="#DejaVuSans-74" transform="translate(340.966797 0)"/>
      <use xlink:href="#DejaVuSans-65" transform="translate(380.175781 0)"/>
      <use xlink:href="#DejaVuSans-64" transform="translate(441.699219 0)"/>
      <use xlink:href="#DejaVuSans-20" transform="translate(505.175781 0)"/>
      <use xlink:href="#DejaVuSans-52" transform="translate(536.962891 0)"/>
      <use xlink:href="#DejaVuSans-54" transform="translate(599.195312 0)"/>
      <use xlink:href="#DejaVuSans-36" transform="translate(660.279297 0)"/>
      <use xlink:href="#DejaVuSans-30" transform="translate(723.902344 0)"/>
     </g>
    </g>
   </g>
  </g>
 </g>
 <defs>
  <clipPath id="p47e6881ff7">
   <rect x="57.6" y="41.472" width="357.12" height="266.112"/>
  </clipPath>
 </defs>
</svg>
