<?xml version="1.0" encoding="utf-8" standalone="no"?>
<!DOCTYPE svg PUBLIC "-//W3C//DTD SVG 1.1//EN"
  "http://www.w3.org/Graphics/SVG/1.1/DTD/svg11.dtd">
<svg xmlns:xlink="http://www.w3.org/1999/xlink" width="460.8pt" height="345.6pt" viewBox="0 0 460.8 345.6" xmlns="http://www.w3.org/2000/svg" version="1.1">
 <metadata>
  <rdf:RDF xmlns:dc="http://purl.org/dc/elements/1.1/" xmlns:cc="http://creativecommons.org/ns#" xmlns:rdf="http://www.w3.org/1999/02/22-rdf-syntax-ns#">
   <cc:Work>
    <dc:type rdf:resource="http://purl.org/dc/dcmitype/StillImage"/>
    <dc:date>2025-05-07T14:10:46.593199</dc:date>
    <dc:format>image/svg+xml</dc:format>
    <dc:creator>
     <cc:Agent>
      <dc:title>Matplotlib v3.10.1, https://matplotlib.org/</dc:title>
     </cc:Agent>
    </dc:creator>
   </cc:Work>
  </rdf:RDF>
 </metadata>
 <defs>
  <style type="text/css">*{stroke-linejoin: round; stroke-linecap: butt}</style>
 </defs>
 <g id="figure_1">
  <g id="patch_1">
   <path d="M 0 345.6 
L 460.8 345.6 
L 460.8 0 
L 0 0 
z
" style="fill: #ffffff"/>
  </g>
  <g id="axes_1">
   <g id="patch_2">
    <path d="M 57.6 307.584 
L 414.72 307.584 
L 414.72 41.472 
L 57.6 41.472 
z
" style="fill: #ffffff"/>
   </g>
   <g id="matplotlib.axis_1">
    <g id="xtick_1">
     <g id="line2d_1">
      <defs>
       <path id="m88ec25ac85" d="M 0 0 
L 0 3.5 
" style="stroke: #000000; stroke-width: 0.8"/>
      </defs>
      <g>
       <use xlink:href="#m88ec25ac85" x="82.483418" y="307.584" style="stroke: #000000; stroke-width: 0.8"/>
      </g>
     </g>
     <g id="text_1">
      <!-- −0.2 -->
      <g transform="translate(70.342012 322.182437) scale(0.1 -0.1)">
       <defs>
        <path id="DejaVuSans-2212" d="M 678 2272 
L 4684 2272 
L 4684 1741 
L 678 1741 
L 678 2272 
z
" transform="scale(0.015625)"/>
        <path id="DejaVuSans-30" d="M 2034 4250 
Q 1547 4250 1301 3770 
Q 1056 3291 1056 2328 
Q 1056 1369 1301 889 
Q 1547 409 2034 409 
Q 2525 409 2770 889 
Q 3016 1369 3016 2328 
Q 3016 3291 2770 3770 
Q 2525 4250 2034 4250 
z
M 2034 4750 
Q 2819 4750 3233 4129 
Q 3647 3509 3647 2328 
Q 3647 1150 3233 529 
Q 2819 -91 2034 -91 
Q 1250 -91 836 529 
Q 422 1150 422 2328 
Q 422 3509 836 4129 
Q 1250 4750 2034 4750 
z
" transform="scale(0.015625)"/>
        <path id="DejaVuSans-2e" d="M 684 794 
L 1344 794 
L 1344 0 
L 684 0 
L 684 794 
z
" transform="scale(0.015625)"/>
        <path id="DejaVuSans-32" d="M 1228 531 
L 3431 531 
L 3431 0 
L 469 0 
L 469 531 
Q 828 903 1448 1529 
Q 2069 2156 2228 2338 
Q 2531 2678 2651 2914 
Q 2772 3150 2772 3378 
Q 2772 3750 2511 3984 
Q 2250 4219 1831 4219 
Q 1534 4219 1204 4116 
Q 875 4013 500 3803 
L 500 4441 
Q 881 4594 1212 4672 
Q 1544 4750 1819 4750 
Q 2544 4750 2975 4387 
Q 3406 4025 3406 3419 
Q 3406 3131 3298 2873 
Q 3191 2616 2906 2266 
Q 2828 2175 2409 1742 
Q 1991 1309 1228 531 
z
" transform="scale(0.015625)"/>
       </defs>
       <use xlink:href="#DejaVuSans-2212"/>
       <use xlink:href="#DejaVuSans-30" transform="translate(83.789062 0)"/>
       <use xlink:href="#DejaVuSans-2e" transform="translate(147.412109 0)"/>
       <use xlink:href="#DejaVuSans-32" transform="translate(179.199219 0)"/>
      </g>
     </g>
    </g>
    <g id="xtick_2">
     <g id="line2d_2">
      <g>
       <use xlink:href="#m88ec25ac85" x="147.414327" y="307.584" style="stroke: #000000; stroke-width: 0.8"/>
      </g>
     </g>
     <g id="text_2">
      <!-- 0.0 -->
      <g transform="translate(139.462765 322.182437) scale(0.1 -0.1)">
       <use xlink:href="#DejaVuSans-30"/>
       <use xlink:href="#DejaVuSans-2e" transform="translate(63.623047 0)"/>
       <use xlink:href="#DejaVuSans-30" transform="translate(95.410156 0)"/>
      </g>
     </g>
    </g>
    <g id="xtick_3">
     <g id="line2d_3">
      <g>
       <use xlink:href="#m88ec25ac85" x="212.345236" y="307.584" style="stroke: #000000; stroke-width: 0.8"/>
      </g>
     </g>
     <g id="text_3">
      <!-- 0.2 -->
      <g transform="translate(204.393674 322.182437) scale(0.1 -0.1)">
       <use xlink:href="#DejaVuSans-30"/>
       <use xlink:href="#DejaVuSans-2e" transform="translate(63.623047 0)"/>
       <use xlink:href="#DejaVuSans-32" transform="translate(95.410156 0)"/>
      </g>
     </g>
    </g>
    <g id="xtick_4">
     <g id="line2d_4">
      <g>
       <use xlink:href="#m88ec25ac85" x="277.276145" y="307.584" style="stroke: #000000; stroke-width: 0.8"/>
      </g>
     </g>
     <g id="text_4">
      <!-- 0.4 -->
      <g transform="translate(269.324583 322.182437) scale(0.1 -0.1)">
       <defs>
        <path id="DejaVuSans-34" d="M 2419 4116 
L 825 1625 
L 2419 1625 
L 2419 4116 
z
M 2253 4666 
L 3047 4666 
L 3047 1625 
L 3713 1625 
L 3713 1100 
L 3047 1100 
L 3047 0 
L 2419 0 
L 2419 1100 
L 313 1100 
L 313 1709 
L 2253 4666 
z
" transform="scale(0.015625)"/>
       </defs>
       <use xlink:href="#DejaVuSans-30"/>
       <use xlink:href="#DejaVuSans-2e" transform="translate(63.623047 0)"/>
       <use xlink:href="#DejaVuSans-34" transform="translate(95.410156 0)"/>
      </g>
     </g>
    </g>
    <g id="xtick_5">
     <g id="line2d_5">
      <g>
       <use xlink:href="#m88ec25ac85" x="342.207055" y="307.584" style="stroke: #000000; stroke-width: 0.8"/>
      </g>
     </g>
     <g id="text_5">
      <!-- 0.6 -->
      <g transform="translate(334.255492 322.182437) scale(0.1 -0.1)">
       <defs>
        <path id="DejaVuSans-36" d="M 2113 2584 
Q 1688 2584 1439 2293 
Q 1191 2003 1191 1497 
Q 1191 994 1439 701 
Q 1688 409 2113 409 
Q 2538 409 2786 701 
Q 3034 994 3034 1497 
Q 3034 2003 2786 2293 
Q 2538 2584 2113 2584 
z
M 3366 4563 
L 3366 3988 
Q 3128 4100 2886 4159 
Q 2644 4219 2406 4219 
Q 1781 4219 1451 3797 
Q 1122 3375 1075 2522 
Q 1259 2794 1537 2939 
Q 1816 3084 2150 3084 
Q 2853 3084 3261 2657 
Q 3669 2231 3669 1497 
Q 3669 778 3244 343 
Q 2819 -91 2113 -91 
Q 1303 -91 875 529 
Q 447 1150 447 2328 
Q 447 3434 972 4092 
Q 1497 4750 2381 4750 
Q 2619 4750 2861 4703 
Q 3103 4656 3366 4563 
z
" transform="scale(0.015625)"/>
       </defs>
       <use xlink:href="#DejaVuSans-30"/>
       <use xlink:href="#DejaVuSans-2e" transform="translate(63.623047 0)"/>
       <use xlink:href="#DejaVuSans-36" transform="translate(95.410156 0)"/>
      </g>
     </g>
    </g>
    <g id="xtick_6">
     <g id="line2d_6">
      <g>
       <use xlink:href="#m88ec25ac85" x="407.137964" y="307.584" style="stroke: #000000; stroke-width: 0.8"/>
      </g>
     </g>
     <g id="text_6">
      <!-- 0.8 -->
      <g transform="translate(399.186401 322.182437) scale(0.1 -0.1)">
       <defs>
        <path id="DejaVuSans-38" d="M 2034 2216 
Q 1584 2216 1326 1975 
Q 1069 1734 1069 1313 
Q 1069 891 1326 650 
Q 1584 409 2034 409 
Q 2484 409 2743 651 
Q 3003 894 3003 1313 
Q 3003 1734 2745 1975 
Q 2488 2216 2034 2216 
z
M 1403 2484 
Q 997 2584 770 2862 
Q 544 3141 544 3541 
Q 544 4100 942 4425 
Q 1341 4750 2034 4750 
Q 2731 4750 3128 4425 
Q 3525 4100 3525 3541 
Q 3525 3141 3298 2862 
Q 3072 2584 2669 2484 
Q 3125 2378 3379 2068 
Q 3634 1759 3634 1313 
Q 3634 634 3220 271 
Q 2806 -91 2034 -91 
Q 1263 -91 848 271 
Q 434 634 434 1313 
Q 434 1759 690 2068 
Q 947 2378 1403 2484 
z
M 1172 3481 
Q 1172 3119 1398 2916 
Q 1625 2713 2034 2713 
Q 2441 2713 2670 2916 
Q 2900 3119 2900 3481 
Q 2900 3844 2670 4047 
Q 2441 4250 2034 4250 
Q 1625 4250 1398 4047 
Q 1172 3844 1172 3481 
z
" transform="scale(0.015625)"/>
       </defs>
       <use xlink:href="#DejaVuSans-30"/>
       <use xlink:href="#DejaVuSans-2e" transform="translate(63.623047 0)"/>
       <use xlink:href="#DejaVuSans-38" transform="translate(95.410156 0)"/>
      </g>
     </g>
    </g>
   </g>
   <g id="matplotlib.axis_2">
    <g id="ytick_1">
     <g id="line2d_7">
      <defs>
       <path id="mfa94967b95" d="M 0 0 
L -3.5 0 
" style="stroke: #000000; stroke-width: 0.8"/>
      </defs>
      <g>
       <use xlink:href="#mfa94967b95" x="57.6" y="296.225022" style="stroke: #000000; stroke-width: 0.8"/>
      </g>
     </g>
     <g id="text_7">
      <!-- −140 -->
      <g transform="translate(23.132812 300.024241) scale(0.1 -0.1)">
       <defs>
        <path id="DejaVuSans-31" d="M 794 531 
L 1825 531 
L 1825 4091 
L 703 3866 
L 703 4441 
L 1819 4666 
L 2450 4666 
L 2450 531 
L 3481 531 
L 3481 0 
L 794 0 
L 794 531 
z
" transform="scale(0.015625)"/>
       </defs>
       <use xlink:href="#DejaVuSans-2212"/>
       <use xlink:href="#DejaVuSans-31" transform="translate(83.789062 0)"/>
       <use xlink:href="#DejaVuSans-34" transform="translate(147.412109 0)"/>
       <use xlink:href="#DejaVuSans-30" transform="translate(211.035156 0)"/>
      </g>
     </g>
    </g>
    <g id="ytick_2">
     <g id="line2d_8">
      <g>
       <use xlink:href="#mfa94967b95" x="57.6" y="261.559733" style="stroke: #000000; stroke-width: 0.8"/>
      </g>
     </g>
     <g id="text_8">
      <!-- −120 -->
      <g transform="translate(23.132812 265.358952) scale(0.1 -0.1)">
       <use xlink:href="#DejaVuSans-2212"/>
       <use xlink:href="#DejaVuSans-31" transform="translate(83.789062 0)"/>
       <use xlink:href="#DejaVuSans-32" transform="translate(147.412109 0)"/>
       <use xlink:href="#DejaVuSans-30" transform="translate(211.035156 0)"/>
      </g>
     </g>
    </g>
    <g id="ytick_3">
     <g id="line2d_9">
      <g>
       <use xlink:href="#mfa94967b95" x="57.6" y="226.894444" style="stroke: #000000; stroke-width: 0.8"/>
      </g>
     </g>
     <g id="text_9">
      <!-- −100 -->
      <g transform="translate(23.132812 230.693663) scale(0.1 -0.1)">
       <use xlink:href="#DejaVuSans-2212"/>
       <use xlink:href="#DejaVuSans-31" transform="translate(83.789062 0)"/>
       <use xlink:href="#DejaVuSans-30" transform="translate(147.412109 0)"/>
       <use xlink:href="#DejaVuSans-30" transform="translate(211.035156 0)"/>
      </g>
     </g>
    </g>
    <g id="ytick_4">
     <g id="line2d_10">
      <g>
       <use xlink:href="#mfa94967b95" x="57.6" y="192.229156" style="stroke: #000000; stroke-width: 0.8"/>
      </g>
     </g>
     <g id="text_10">
      <!-- −80 -->
      <g transform="translate(29.495313 196.028374) scale(0.1 -0.1)">
       <use xlink:href="#DejaVuSans-2212"/>
       <use xlink:href="#DejaVuSans-38" transform="translate(83.789062 0)"/>
       <use xlink:href="#DejaVuSans-30" transform="translate(147.412109 0)"/>
      </g>
     </g>
    </g>
    <g id="ytick_5">
     <g id="line2d_11">
      <g>
       <use xlink:href="#mfa94967b95" x="57.6" y="157.563867" style="stroke: #000000; stroke-width: 0.8"/>
      </g>
     </g>
     <g id="text_11">
      <!-- −60 -->
      <g transform="translate(29.495313 161.363085) scale(0.1 -0.1)">
       <use xlink:href="#DejaVuSans-2212"/>
       <use xlink:href="#DejaVuSans-36" transform="translate(83.789062 0)"/>
       <use xlink:href="#DejaVuSans-30" transform="translate(147.412109 0)"/>
      </g>
     </g>
    </g>
    <g id="ytick_6">
     <g id="line2d_12">
      <g>
       <use xlink:href="#mfa94967b95" x="57.6" y="122.898578" style="stroke: #000000; stroke-width: 0.8"/>
      </g>
     </g>
     <g id="text_12">
      <!-- −40 -->
      <g transform="translate(29.495313 126.697797) scale(0.1 -0.1)">
       <use xlink:href="#DejaVuSans-2212"/>
       <use xlink:href="#DejaVuSans-34" transform="translate(83.789062 0)"/>
       <use xlink:href="#DejaVuSans-30" transform="translate(147.412109 0)"/>
      </g>
     </g>
    </g>
    <g id="ytick_7">
     <g id="line2d_13">
      <g>
       <use xlink:href="#mfa94967b95" x="57.6" y="88.233289" style="stroke: #000000; stroke-width: 0.8"/>
      </g>
     </g>
     <g id="text_13">
      <!-- −20 -->
      <g transform="translate(29.495313 92.032508) scale(0.1 -0.1)">
       <use xlink:href="#DejaVuSans-2212"/>
       <use xlink:href="#DejaVuSans-32" transform="translate(83.789062 0)"/>
       <use xlink:href="#DejaVuSans-30" transform="translate(147.412109 0)"/>
      </g>
     </g>
    </g>
    <g id="ytick_8">
     <g id="line2d_14">
      <g>
       <use xlink:href="#mfa94967b95" x="57.6" y="53.568" style="stroke: #000000; stroke-width: 0.8"/>
      </g>
     </g>
     <g id="text_14">
      <!-- 0 -->
      <g transform="translate(44.2375 57.367219) scale(0.1 -0.1)">
       <use xlink:href="#DejaVuSans-30"/>
      </g>
     </g>
    </g>
   </g>
   <g id="line2d_15">
    <path d="M 73.832727 53.568 
L 129.003709 53.67772 
L 129.625964 54.030306 
L 130.025018 54.397434 
L 130.187345 54.519022 
L 130.613455 54.994849 
L 130.796073 55.112002 
L 131.208655 55.476975 
L 131.4792 55.587058 
L 131.830909 55.729763 
L 133.129527 55.843777 
L 133.799127 55.940926 
L 134.495782 55.964889 
L 135.760582 56.075626 
L 137.0592 56.165177 
L 137.864073 56.394446 
L 138.161673 56.510927 
L 138.351055 56.633924 
L 138.729818 56.965174 
L 138.9192 57.076709 
L 139.297964 57.380093 
L 139.906691 57.491745 
L 140.684509 57.623759 
L 141.070036 57.828523 
L 141.266182 57.941534 
L 141.685527 58.291551 
L 141.8952 58.408789 
L 142.213091 58.590755 
L 142.537745 58.702553 
L 143.356145 59.075405 
L 143.761964 59.585428 
L 143.883709 59.720705 
L 144.790036 61.48943 
L 145.845164 61.886233 
L 147.448145 62.267684 
L 147.745745 62.377661 
L 147.955418 62.492209 
L 148.462691 62.999412 
L 148.611491 63.182149 
L 148.997018 63.723814 
L 149.206691 63.834215 
L 149.693673 64.338929 
L 149.862764 64.482813 
L 150.221236 64.845872 
L 150.424145 64.949205 
L 150.809673 65.255108 
L 151.032873 65.374627 
L 151.330473 65.508695 
L 152.000073 65.621104 
L 153.190473 65.873777 
L 153.433964 66.156803 
L 153.670691 66.273075 
L 153.860073 66.383972 
L 154.705527 67.883406 
L 154.942255 68.343472 
L 155.165455 68.484028 
L 155.415709 69.271641 
L 155.625382 69.541878 
L 155.902691 69.674277 
L 156.437018 70.196861 
L 156.748145 70.319134 
L 157.255418 70.821825 
L 157.424509 71.014047 
L 157.701818 71.258537 
L 158.046764 71.372648 
L 158.5608 71.440321 
L 159.818836 71.631412 
L 161.935855 72.329692 
L 163.085673 73.513892 
L 163.410327 73.626851 
L 163.971709 74.023176 
L 164.1408 74.173199 
L 164.580436 74.709822 
L 164.715709 74.852017 
L 165.162109 75.536164 
L 165.283855 75.714447 
L 165.676145 76.422698 
L 165.804655 76.543143 
L 166.731273 78.267165 
L 167.630836 78.688321 
L 170.6136 79.122473 
L 170.863855 79.265216 
L 171.039709 79.375158 
L 171.526691 79.952781 
L 171.675491 80.198409 
L 171.979855 80.648263 
L 172.203055 80.764293 
L 172.635927 81.203954 
L 172.892945 81.313363 
L 173.3664 81.620718 
L 173.582836 81.731079 
L 174.008945 82.064128 
L 174.320073 82.181716 
L 174.712364 82.244118 
L 175.381964 82.371261 
L 175.760727 82.593843 
L 175.950109 82.715215 
L 176.376218 83.120088 
L 176.646764 83.226584 
L 177.059345 83.420965 
L 178.263273 83.545038 
L 179.176364 83.811803 
L 179.514545 83.88109 
L 179.832436 84.009368 
L 180.2112 84.115006 
L 180.495273 84.225953 
L 180.894327 84.419461 
L 181.144582 84.527245 
L 181.543636 84.756858 
L 181.834473 84.866058 
L 182.179418 84.974711 
L 183.552436 85.084706 
L 185.317745 85.965167 
L 186.508145 86.199333 
L 186.7584 86.572814 
L 186.968073 86.663785 
L 187.137164 86.784252 
L 187.617382 87.36645 
L 187.779709 87.511353 
L 188.185527 87.964784 
L 188.4696 88.074742 
L 188.970109 88.398016 
L 189.186545 88.508985 
L 190.052291 89.842531 
L 190.2552 90.056483 
L 190.431055 90.157237 
L 190.633964 90.730734 
L 190.870691 91.108121 
L 191.120945 91.240612 
L 191.621455 91.841001 
L 191.824364 91.952694 
L 192.250473 92.290818 
L 192.480436 92.400532 
L 192.825382 92.597199 
L 193.035055 92.709491 
L 193.373236 92.945263 
L 193.535564 93.06625 
L 193.954909 93.559849 
L 194.076655 93.724437 
L 194.516291 94.53026 
L 194.631273 94.709614 
L 195.097964 95.708922 
L 195.219709 95.885399 
L 195.645818 96.660122 
L 195.869018 96.765728 
L 196.423636 97.188759 
L 196.667127 97.293535 
L 196.897091 97.81455 
L 197.113527 98.032397 
L 197.275855 98.131674 
L 197.451709 98.67682 
L 197.701964 99.204761 
L 197.931927 99.351471 
L 198.378327 99.998173 
L 198.628582 100.116653 
L 198.926182 100.182416 
L 199.954255 100.317186 
L 200.3736 100.396109 
L 201.807491 100.635972 
L 202.0848 100.712441 
L 202.321527 100.840672 
L 202.639418 100.974964 
L 203.011418 101.084345 
L 203.424 101.143551 
L 206.095636 101.818585 
L 206.582618 102.28104 
L 206.744945 102.459627 
L 207.062836 102.784201 
L 207.556582 102.906385 
L 208.787564 103.050373 
L 209.470691 103.154311 
L 212.981018 103.989453 
L 213.792655 105.727176 
L 214.022618 106.260418 
L 214.232291 106.39884 
L 214.421673 107.115024 
L 214.671927 107.738674 
L 214.928945 107.911769 
L 215.361818 108.551034 
L 215.767636 108.665271 
L 216.254618 108.722606 
L 217.269164 108.834327 
L 217.566764 109.01932 
L 217.8576 109.094056 
L 218.040218 109.230138 
L 218.493382 109.719178 
L 218.642182 109.852751 
L 219.210327 110.708523 
L 219.379418 110.992267 
L 219.690545 111.437544 
L 220.204582 111.637206 
L 220.569818 111.739751 
L 221.137964 111.855442 
L 221.591127 111.938486 
L 221.854909 112.083039 
L 222.213382 112.263303 
L 222.436582 112.368906 
L 222.910036 112.769647 
L 223.092655 112.894521 
L 223.539055 113.330918 
L 223.748727 113.441061 
L 224.154545 113.740211 
L 224.742982 113.855511 
L 226.697673 114.004609 
L 228.334473 114.158947 
L 229.308436 114.359097 
L 230.681455 115.343585 
L 230.911418 115.40553 
L 231.094036 115.544785 
L 231.438982 115.82814 
L 231.729818 115.935492 
L 232.040945 116.016753 
L 234.604364 116.196688 
L 235.314545 116.543372 
L 235.6392 116.730459 
L 235.902982 116.840568 
L 236.335855 117.111815 
L 236.565818 117.220418 
L 237.445091 118.535145 
L 237.668291 118.826959 
L 237.891491 118.951028 
L 238.080873 119.529 
L 238.364945 120.188544 
L 238.601673 120.349955 
L 238.784291 121.102403 
L 239.054836 121.930645 
L 239.278036 122.098526 
L 239.467418 122.909987 
L 239.717673 123.599936 
L 239.981455 123.788265 
L 240.434618 124.521461 
L 240.738982 124.630223 
L 241.131273 124.786049 
L 242.051127 124.900387 
L 244.526618 125.475783 
L 244.925673 125.717961 
L 245.108291 125.847654 
L 245.412655 126.063057 
L 245.595273 126.169132 
L 245.974036 126.503523 
L 246.122836 126.63044 
L 246.521891 127.099581 
L 246.684218 127.223339 
L 247.083273 127.648583 
L 247.333527 127.761303 
L 247.651418 127.864907 
L 248.537455 127.977579 
L 249.660218 128.784417 
L 249.9984 129.215732 
L 250.248655 129.333803 
L 250.769455 129.884341 
L 251.006182 129.994317 
L 251.587855 130.459068 
L 251.797527 130.587546 
L 252.277745 131.010268 
L 252.568582 131.120757 
L 252.960873 131.265985 
L 253.691345 131.412435 
L 254.036291 131.62868 
L 254.218909 131.745213 
L 254.624727 132.146315 
L 254.827636 132.264292 
L 255.118473 132.409338 
L 255.720436 132.523943 
L 257.127273 132.910349 
L 257.391055 133.054829 
L 257.715709 133.174038 
L 257.972727 133.283322 
L 258.385309 133.529191 
L 258.696436 133.636536 
L 259.109018 133.774649 
L 259.731273 133.904442 
L 260.137091 134.089967 
L 260.333236 134.210409 
L 260.813455 134.667595 
L 261.0096 134.78922 
L 261.476291 135.247809 
L 261.658909 135.371052 
L 262.010618 135.651484 
L 262.287927 135.760746 
L 262.592291 135.828534 
L 264.032945 136.00325 
L 264.641673 136.510559 
L 264.864873 136.691864 
L 265.040727 136.797822 
L 265.243636 137.37676 
L 265.466836 137.723522 
L 265.656218 137.838073 
L 266.271709 138.797839 
L 266.718109 139.174994 
L 269.085382 139.325378 
L 269.795564 139.787506 
L 270.032291 139.962997 
L 270.248727 140.066321 
L 270.769527 140.56871 
L 271.046836 140.677766 
L 271.682618 141.122536 
L 271.844945 141.296481 
L 272.304873 141.920139 
L 272.480727 142.029735 
L 273.0624 142.708813 
L 273.278836 142.860635 
L 273.677891 143.161302 
L 274.043127 143.279743 
L 274.408364 143.417582 
L 274.935927 143.528382 
L 278.432727 143.854245 
L 279.663709 144.034166 
L 280.150691 144.146716 
L 281.604873 144.452913 
L 284.878473 144.797938 
L 285.121964 145.06852 
L 285.358691 145.171769 
L 285.595418 145.283578 
L 285.960655 145.498373 
L 287.617745 145.626184 
L 288.3144 146.082713 
L 288.598473 146.426245 
L 288.808145 146.539591 
L 289.349236 147.223443 
L 289.545382 147.40337 
L 289.883564 147.683635 
L 290.526109 147.862815 
L 290.9184 147.964951 
L 291.148364 148.085488 
L 291.642109 148.489995 
L 291.824727 148.607053 
L 292.460509 149.340713 
L 292.643127 149.646993 
L 292.947491 150.063642 
L 293.400655 150.255982 
L 293.792945 150.438579 
L 294.2664 150.589323 
L 294.6384 150.824331 
L 294.834545 150.932947 
L 295.253891 151.311302 
L 295.416218 151.448701 
L 295.734109 151.739287 
L 295.930255 151.843806 
L 296.268436 152.082398 
L 296.511927 152.194464 
L 296.816291 152.296377 
L 298.716873 152.415627 
L 301.002982 152.916637 
L 301.280291 153.036708 
L 301.489964 153.143266 
L 301.909309 153.482514 
L 302.200145 153.598877 
L 302.545091 153.642481 
L 303.573164 153.817761 
L 303.958691 153.958916 
L 304.236 154.073372 
L 304.635055 154.270352 
L 304.966473 154.381351 
L 305.345236 154.503808 
L 305.838982 154.614592 
L 306.779127 154.688116 
L 307.570473 154.801772 
L 308.091273 155.039813 
L 308.348291 155.13055 
L 308.632364 155.245858 
L 308.957018 155.312467 
L 309.8904 155.429463 
L 310.343564 155.709187 
L 310.492364 155.869648 
L 310.938764 156.501308 
L 311.101091 156.618239 
L 311.615127 157.230186 
L 311.865382 157.355612 
L 312.230618 157.508976 
L 313.657745 157.672955 
L 314.537018 157.88733 
L 315.571855 158.07957 
L 316.444364 158.165995 
L 319.028073 158.404486 
L 320.069673 159.159249 
L 320.387564 159.58827 
L 320.583709 159.696131 
L 320.982764 160.092659 
L 321.192436 160.20844 
L 321.4968 160.362236 
L 321.774109 160.470348 
L 322.092 160.55309 
L 322.3152 160.684755 
L 322.626327 160.837456 
L 322.815709 160.950325 
L 323.235055 161.34011 
L 323.397382 161.469216 
L 323.816727 161.937299 
L 324.012873 162.050942 
L 324.418691 162.386212 
L 324.736582 162.497548 
L 325.088291 162.562302 
L 326.393673 162.693351 
L 326.616873 162.845036 
L 326.907709 162.99643 
L 327.124145 163.107327 
L 327.496145 163.387399 
L 327.692291 163.498081 
L 328.050764 163.758792 
L 328.260436 163.871692 
L 328.612145 164.113976 
L 328.842109 164.224357 
L 329.220873 164.477562 
L 329.464364 164.583859 
L 329.836364 164.795503 
L 330.248945 164.904794 
L 330.762982 164.934031 
L 331.818109 165.053225 
L 333.603709 165.905102 
L 335.193164 166.060256 
L 337.601018 166.172965 
L 339.684218 166.837475 
L 341.578036 166.984534 
L 344.587855 167.628449 
L 345.8256 168.299368 
L 346.745455 168.655585 
L 347.191855 168.768567 
L 349.464436 169.059232 
L 351.229745 169.174181 
L 351.892582 169.52983 
L 353.691709 172.318355 
L 353.867564 172.425148 
L 354.084 172.9775 
L 354.327491 173.333878 
L 354.557455 173.461749 
L 355.078255 174.157234 
L 355.260873 174.308252 
L 355.619345 174.613916 
L 355.923709 174.730021 
L 356.282182 174.917857 
L 356.579782 175.025571 
L 356.931491 175.14714 
L 357.858109 175.258271 
L 358.2504 175.372682 
L 358.602109 175.523621 
L 358.832073 175.641516 
L 359.163491 175.820086 
L 359.555782 175.930846 
L 360.982909 176.268122 
L 361.388727 176.532908 
L 361.605164 176.636688 
L 362.4168 177.842641 
L 362.653527 178.282079 
L 362.829382 178.393852 
L 363.032291 179.078973 
L 363.2352 179.373813 
L 363.404291 179.479981 
L 363.918327 180.189741 
L 364.100945 180.454459 
L 364.344436 180.659354 
L 364.594691 180.771531 
L 364.905818 180.934753 
L 365.230473 181.046429 
L 365.744509 181.115442 
L 366.928145 181.142268 
L 368.274109 181.26168 
L 368.984291 181.477759 
L 369.295418 181.699779 
L 369.464509 181.809511 
L 369.653891 182.378008 
L 369.883855 182.770529 
L 370.046182 182.882986 
L 370.215273 183.530215 
L 370.452 184.12834 
L 370.648145 184.257166 
L 371.141891 185.043355 
L 371.338036 185.201652 
L 371.669455 185.435701 
L 372.041455 185.555305 
L 372.4608 185.753698 
L 372.656945 185.86092 
L 373.346836 187.036062 
L 373.685018 188.151776 
L 373.820291 188.259568 
L 373.962327 188.910199 
L 374.259927 190.106651 
L 374.449309 190.247656 
L 374.6928 191.145511 
L 374.888945 191.397131 
L 375.1392 191.51674 
L 375.551782 191.840512 
L 376.167273 191.997355 
L 376.546036 192.079909 
L 376.755709 192.214358 
L 377.148 192.533343 
L 377.323855 192.651605 
L 377.7432 193.083833 
L 377.973164 193.192596 
L 378.324873 193.372726 
L 379.251491 193.484037 
L 379.866982 193.637913 
L 380.408073 194.025438 
L 380.678618 194.367106 
L 380.861236 194.479562 
L 381.402327 195.247811 
L 381.625527 195.478296 
L 381.916364 195.650788 
L 382.484509 195.809476 
L 382.849745 195.935122 
L 383.1 196.042515 
L 383.9184 197.10619 
L 384.222764 197.875896 
L 384.405382 198.003312 
L 384.560945 198.680948 
L 384.872073 199.850302 
L 385.102036 200.01981 
L 385.318473 200.84934 
L 385.589018 201.51811 
L 385.900145 201.767988 
L 386.096291 202.697667 
L 386.353309 203.547134 
L 386.508873 203.669769 
L 386.623855 204.341724 
L 387.056727 207.257402 
L 387.137891 207.518935 
L 387.273164 209.030896 
L 387.597818 212.510184 
L 387.7128 212.622825 
L 387.827782 213.421126 
L 388.280945 217.128639 
L 388.416218 217.23821 
L 388.592073 217.884972 
L 388.923491 218.894154 
L 389.160218 218.971404 
L 389.457818 219.08076 
L 389.6472 219.479102 
L 390.046255 220.335347 
L 390.181527 220.433165 
L 390.303273 220.976146 
L 390.749673 223.311545 
L 390.830836 223.470256 
L 390.959345 224.438534 
L 391.331345 227.440797 
L 391.439564 227.543203 
L 391.554545 228.235492 
L 392.028 231.655073 
L 392.122691 231.794563 
L 392.2512 232.607676 
L 392.724655 236.108889 
L 392.805818 236.275955 
L 392.9208 237.265153 
L 393.468655 243.215909 
L 393.597164 244.823673 
L 394.009745 250.361768 
L 394.341164 250.71773 
L 394.584655 251.78941 
L 395.064873 253.915111 
L 395.267782 254.068712 
L 395.396291 254.779644 
L 395.626255 257.737237 
L 395.862982 259.612176 
L 396.018545 259.815233 
L 396.133527 260.937936 
L 396.627273 266.796847 
L 396.735491 267.17214 
L 397.019564 268.098169 
L 397.181891 268.210891 
L 397.499782 268.574839 
L 397.587709 268.781846 
L 397.716218 269.909878 
L 398.149091 274.285258 
L 398.216727 274.627328 
L 398.318182 276.604194 
L 398.433164 284.029797 
L 398.480509 295.488 
L 398.480509 295.488 
" clip-path="url(#p0e9993e6f0)" style="fill: none; stroke: #1f77b4; stroke-width: 1.5; stroke-linecap: square"/>
   </g>
   <g id="line2d_16">
    <path d="M 147.414327 62.237829 
L 337.729527 166.230189 
" clip-path="url(#p0e9993e6f0)" style="fill: none; stroke-dasharray: 5.55,2.4; stroke-dashoffset: 0; stroke: #ff7f0e; stroke-width: 1.5"/>
   </g>
   <g id="line2d_17">
    <path d="M 73.832727 157.563867 
L 398.487273 157.563867 
L 398.487273 157.563867 
" clip-path="url(#p0e9993e6f0)" style="fill: none; stroke-dasharray: 5.55,2.4; stroke-dashoffset: 0; stroke: #2ca02c; stroke-width: 1.5"/>
   </g>
   <g id="LineCollection_1">
    <path d="M 337.729527 295.488 
L 337.729527 53.568 
" clip-path="url(#p0e9993e6f0)" style="fill: none; stroke-dasharray: 5.55,2.4; stroke-dashoffset: 0; stroke: #1f77b4; stroke-width: 1.5"/>
   </g>
   <g id="patch_3">
    <path d="M 57.6 307.584 
L 57.6 41.472 
" style="fill: none; stroke: #000000; stroke-width: 0.8; stroke-linejoin: miter; stroke-linecap: square"/>
   </g>
   <g id="patch_4">
    <path d="M 414.72 307.584 
L 414.72 41.472 
" style="fill: none; stroke: #000000; stroke-width: 0.8; stroke-linejoin: miter; stroke-linecap: square"/>
   </g>
   <g id="patch_5">
    <path d="M 57.6 307.584 
L 414.72 307.584 
" style="fill: none; stroke: #000000; stroke-width: 0.8; stroke-linejoin: miter; stroke-linecap: square"/>
   </g>
   <g id="patch_6">
    <path d="M 57.6 41.472 
L 414.72 41.472 
" style="fill: none; stroke: #000000; stroke-width: 0.8; stroke-linejoin: miter; stroke-linecap: square"/>
   </g>
   <g id="text_15">
    <!-- Energy Decay - 250 Hz -->
    <g transform="translate(167.4075 35.472) scale(0.12 -0.12)">
     <defs>
      <path id="DejaVuSans-45" d="M 628 4666 
L 3578 4666 
L 3578 4134 
L 1259 4134 
L 1259 2753 
L 3481 2753 
L 3481 2222 
L 1259 2222 
L 1259 531 
L 3634 531 
L 3634 0 
L 628 0 
L 628 4666 
z
" transform="scale(0.015625)"/>
      <path id="DejaVuSans-6e" d="M 3513 2113 
L 3513 0 
L 2938 0 
L 2938 2094 
Q 2938 2591 2744 2837 
Q 2550 3084 2163 3084 
Q 1697 3084 1428 2787 
Q 1159 2491 1159 1978 
L 1159 0 
L 581 0 
L 581 3500 
L 1159 3500 
L 1159 2956 
Q 1366 3272 1645 3428 
Q 1925 3584 2291 3584 
Q 2894 3584 3203 3211 
Q 3513 2838 3513 2113 
z
" transform="scale(0.015625)"/>
      <path id="DejaVuSans-65" d="M 3597 1894 
L 3597 1613 
L 953 1613 
Q 991 1019 1311 708 
Q 1631 397 2203 397 
Q 2534 397 2845 478 
Q 3156 559 3463 722 
L 3463 178 
Q 3153 47 2828 -22 
Q 2503 -91 2169 -91 
Q 1331 -91 842 396 
Q 353 884 353 1716 
Q 353 2575 817 3079 
Q 1281 3584 2069 3584 
Q 2775 3584 3186 3129 
Q 3597 2675 3597 1894 
z
M 3022 2063 
Q 3016 2534 2758 2815 
Q 2500 3097 2075 3097 
Q 1594 3097 1305 2825 
Q 1016 2553 972 2059 
L 3022 2063 
z
" transform="scale(0.015625)"/>
      <path id="DejaVuSans-72" d="M 2631 2963 
Q 2534 3019 2420 3045 
Q 2306 3072 2169 3072 
Q 1681 3072 1420 2755 
Q 1159 2438 1159 1844 
L 1159 0 
L 581 0 
L 581 3500 
L 1159 3500 
L 1159 2956 
Q 1341 3275 1631 3429 
Q 1922 3584 2338 3584 
Q 2397 3584 2469 3576 
Q 2541 3569 2628 3553 
L 2631 2963 
z
" transform="scale(0.015625)"/>
      <path id="DejaVuSans-67" d="M 2906 1791 
Q 2906 2416 2648 2759 
Q 2391 3103 1925 3103 
Q 1463 3103 1205 2759 
Q 947 2416 947 1791 
Q 947 1169 1205 825 
Q 1463 481 1925 481 
Q 2391 481 2648 825 
Q 2906 1169 2906 1791 
z
M 3481 434 
Q 3481 -459 3084 -895 
Q 2688 -1331 1869 -1331 
Q 1566 -1331 1297 -1286 
Q 1028 -1241 775 -1147 
L 775 -588 
Q 1028 -725 1275 -790 
Q 1522 -856 1778 -856 
Q 2344 -856 2625 -561 
Q 2906 -266 2906 331 
L 2906 616 
Q 2728 306 2450 153 
Q 2172 0 1784 0 
Q 1141 0 747 490 
Q 353 981 353 1791 
Q 353 2603 747 3093 
Q 1141 3584 1784 3584 
Q 2172 3584 2450 3431 
Q 2728 3278 2906 2969 
L 2906 3500 
L 3481 3500 
L 3481 434 
z
" transform="scale(0.015625)"/>
      <path id="DejaVuSans-79" d="M 2059 -325 
Q 1816 -950 1584 -1140 
Q 1353 -1331 966 -1331 
L 506 -1331 
L 506 -850 
L 844 -850 
Q 1081 -850 1212 -737 
Q 1344 -625 1503 -206 
L 1606 56 
L 191 3500 
L 800 3500 
L 1894 763 
L 2988 3500 
L 3597 3500 
L 2059 -325 
z
" transform="scale(0.015625)"/>
      <path id="DejaVuSans-20" transform="scale(0.015625)"/>
      <path id="DejaVuSans-44" d="M 1259 4147 
L 1259 519 
L 2022 519 
Q 2988 519 3436 956 
Q 3884 1394 3884 2338 
Q 3884 3275 3436 3711 
Q 2988 4147 2022 4147 
L 1259 4147 
z
M 628 4666 
L 1925 4666 
Q 3281 4666 3915 4102 
Q 4550 3538 4550 2338 
Q 4550 1131 3912 565 
Q 3275 0 1925 0 
L 628 0 
L 628 4666 
z
" transform="scale(0.015625)"/>
      <path id="DejaVuSans-63" d="M 3122 3366 
L 3122 2828 
Q 2878 2963 2633 3030 
Q 2388 3097 2138 3097 
Q 1578 3097 1268 2742 
Q 959 2388 959 1747 
Q 959 1106 1268 751 
Q 1578 397 2138 397 
Q 2388 397 2633 464 
Q 2878 531 3122 666 
L 3122 134 
Q 2881 22 2623 -34 
Q 2366 -91 2075 -91 
Q 1284 -91 818 406 
Q 353 903 353 1747 
Q 353 2603 823 3093 
Q 1294 3584 2113 3584 
Q 2378 3584 2631 3529 
Q 2884 3475 3122 3366 
z
" transform="scale(0.015625)"/>
      <path id="DejaVuSans-61" d="M 2194 1759 
Q 1497 1759 1228 1600 
Q 959 1441 959 1056 
Q 959 750 1161 570 
Q 1363 391 1709 391 
Q 2188 391 2477 730 
Q 2766 1069 2766 1631 
L 2766 1759 
L 2194 1759 
z
M 3341 1997 
L 3341 0 
L 2766 0 
L 2766 531 
Q 2569 213 2275 61 
Q 1981 -91 1556 -91 
Q 1019 -91 701 211 
Q 384 513 384 1019 
Q 384 1609 779 1909 
Q 1175 2209 1959 2209 
L 2766 2209 
L 2766 2266 
Q 2766 2663 2505 2880 
Q 2244 3097 1772 3097 
Q 1472 3097 1187 3025 
Q 903 2953 641 2809 
L 641 3341 
Q 956 3463 1253 3523 
Q 1550 3584 1831 3584 
Q 2591 3584 2966 3190 
Q 3341 2797 3341 1997 
z
" transform="scale(0.015625)"/>
      <path id="DejaVuSans-2d" d="M 313 2009 
L 1997 2009 
L 1997 1497 
L 313 1497 
L 313 2009 
z
" transform="scale(0.015625)"/>
      <path id="DejaVuSans-35" d="M 691 4666 
L 3169 4666 
L 3169 4134 
L 1269 4134 
L 1269 2991 
Q 1406 3038 1543 3061 
Q 1681 3084 1819 3084 
Q 2600 3084 3056 2656 
Q 3513 2228 3513 1497 
Q 3513 744 3044 326 
Q 2575 -91 1722 -91 
Q 1428 -91 1123 -41 
Q 819 9 494 109 
L 494 744 
Q 775 591 1075 516 
Q 1375 441 1709 441 
Q 2250 441 2565 725 
Q 2881 1009 2881 1497 
Q 2881 1984 2565 2268 
Q 2250 2553 1709 2553 
Q 1456 2553 1204 2497 
Q 953 2441 691 2322 
L 691 4666 
z
" transform="scale(0.015625)"/>
      <path id="DejaVuSans-48" d="M 628 4666 
L 1259 4666 
L 1259 2753 
L 3553 2753 
L 3553 4666 
L 4184 4666 
L 4184 0 
L 3553 0 
L 3553 2222 
L 1259 2222 
L 1259 0 
L 628 0 
L 628 4666 
z
" transform="scale(0.015625)"/>
      <path id="DejaVuSans-7a" d="M 353 3500 
L 3084 3500 
L 3084 2975 
L 922 459 
L 3084 459 
L 3084 0 
L 275 0 
L 275 525 
L 2438 3041 
L 353 3041 
L 353 3500 
z
" transform="scale(0.015625)"/>
     </defs>
     <use xlink:href="#DejaVuSans-45"/>
     <use xlink:href="#DejaVuSans-6e" transform="translate(63.183594 0)"/>
     <use xlink:href="#DejaVuSans-65" transform="translate(126.5625 0)"/>
     <use xlink:href="#DejaVuSans-72" transform="translate(188.085938 0)"/>
     <use xlink:href="#DejaVuSans-67" transform="translate(227.449219 0)"/>
     <use xlink:href="#DejaVuSans-79" transform="translate(290.925781 0)"/>
     <use xlink:href="#DejaVuSans-20" transform="translate(350.105469 0)"/>
     <use xlink:href="#DejaVuSans-44" transform="translate(381.892578 0)"/>
     <use xlink:href="#DejaVuSans-65" transform="translate(458.894531 0)"/>
     <use xlink:href="#DejaVuSans-63" transform="translate(520.417969 0)"/>
     <use xlink:href="#DejaVuSans-61" transform="translate(575.398438 0)"/>
     <use xlink:href="#DejaVuSans-79" transform="translate(636.677734 0)"/>
     <use xlink:href="#DejaVuSans-20" transform="translate(695.857422 0)"/>
     <use xlink:href="#DejaVuSans-2d" transform="translate(727.644531 0)"/>
     <use xlink:href="#DejaVuSans-20" transform="translate(763.728516 0)"/>
     <use xlink:href="#DejaVuSans-32" transform="translate(795.515625 0)"/>
     <use xlink:href="#DejaVuSans-35" transform="translate(859.138672 0)"/>
     <use xlink:href="#DejaVuSans-30" transform="translate(922.761719 0)"/>
     <use xlink:href="#DejaVuSans-20" transform="translate(986.384766 0)"/>
     <use xlink:href="#DejaVuSans-48" transform="translate(1018.171875 0)"/>
     <use xlink:href="#DejaVuSans-7a" transform="translate(1093.367188 0)"/>
    </g>
   </g>
   <g id="legend_1">
    <g id="patch_7">
     <path d="M 296.968437 108.1845 
L 407.72 108.1845 
Q 409.72 108.1845 409.72 106.1845 
L 409.72 48.472 
Q 409.72 46.472 407.72 46.472 
L 296.968437 46.472 
Q 294.968437 46.472 294.968437 48.472 
L 294.968437 106.1845 
Q 294.968437 108.1845 296.968437 108.1845 
z
" style="fill: #ffffff; opacity: 0.8; stroke: #cccccc; stroke-linejoin: miter"/>
    </g>
    <g id="line2d_18">
     <path d="M 298.968437 54.570438 
L 308.968437 54.570438 
L 318.968437 54.570438 
" style="fill: none; stroke: #1f77b4; stroke-width: 1.5; stroke-linecap: square"/>
    </g>
    <g id="text_16">
     <!-- Energy -->
     <g transform="translate(326.968437 58.070438) scale(0.1 -0.1)">
      <use xlink:href="#DejaVuSans-45"/>
      <use xlink:href="#DejaVuSans-6e" transform="translate(63.183594 0)"/>
      <use xlink:href="#DejaVuSans-65" transform="translate(126.5625 0)"/>
      <use xlink:href="#DejaVuSans-72" transform="translate(188.085938 0)"/>
      <use xlink:href="#DejaVuSans-67" transform="translate(227.449219 0)"/>
      <use xlink:href="#DejaVuSans-79" transform="translate(290.925781 0)"/>
     </g>
    </g>
    <g id="line2d_19">
     <path d="M 298.968437 69.248563 
L 308.968437 69.248563 
L 318.968437 69.248563 
" style="fill: none; stroke-dasharray: 5.55,2.4; stroke-dashoffset: 0; stroke: #ff7f0e; stroke-width: 1.5"/>
    </g>
    <g id="text_17">
     <!-- Linear Fit -->
     <g transform="translate(326.968437 72.748563) scale(0.1 -0.1)">
      <defs>
       <path id="DejaVuSans-4c" d="M 628 4666 
L 1259 4666 
L 1259 531 
L 3531 531 
L 3531 0 
L 628 0 
L 628 4666 
z
" transform="scale(0.015625)"/>
       <path id="DejaVuSans-69" d="M 603 3500 
L 1178 3500 
L 1178 0 
L 603 0 
L 603 3500 
z
M 603 4863 
L 1178 4863 
L 1178 4134 
L 603 4134 
L 603 4863 
z
" transform="scale(0.015625)"/>
       <path id="DejaVuSans-46" d="M 628 4666 
L 3309 4666 
L 3309 4134 
L 1259 4134 
L 1259 2759 
L 3109 2759 
L 3109 2228 
L 1259 2228 
L 1259 0 
L 628 0 
L 628 4666 
z
" transform="scale(0.015625)"/>
       <path id="DejaVuSans-74" d="M 1172 4494 
L 1172 3500 
L 2356 3500 
L 2356 3053 
L 1172 3053 
L 1172 1153 
Q 1172 725 1289 603 
Q 1406 481 1766 481 
L 2356 481 
L 2356 0 
L 1766 0 
Q 1100 0 847 248 
Q 594 497 594 1153 
L 594 3053 
L 172 3053 
L 172 3500 
L 594 3500 
L 594 4494 
L 1172 4494 
z
" transform="scale(0.015625)"/>
      </defs>
      <use xlink:href="#DejaVuSans-4c"/>
      <use xlink:href="#DejaVuSans-69" transform="translate(55.712891 0)"/>
      <use xlink:href="#DejaVuSans-6e" transform="translate(83.496094 0)"/>
      <use xlink:href="#DejaVuSans-65" transform="translate(146.875 0)"/>
      <use xlink:href="#DejaVuSans-61" transform="translate(208.398438 0)"/>
      <use xlink:href="#DejaVuSans-72" transform="translate(269.677734 0)"/>
      <use xlink:href="#DejaVuSans-20" transform="translate(310.791016 0)"/>
      <use xlink:href="#DejaVuSans-46" transform="translate(342.578125 0)"/>
      <use xlink:href="#DejaVuSans-69" transform="translate(392.847656 0)"/>
      <use xlink:href="#DejaVuSans-74" transform="translate(420.630859 0)"/>
     </g>
    </g>
    <g id="line2d_20">
     <path d="M 298.968437 83.926688 
L 308.968437 83.926688 
L 318.968437 83.926688 
" style="fill: none; stroke-dasharray: 5.55,2.4; stroke-dashoffset: 0; stroke: #2ca02c; stroke-width: 1.5"/>
    </g>
    <g id="text_18">
     <!-- -60 dB -->
     <g transform="translate(326.968437 87.426688) scale(0.1 -0.1)">
      <defs>
       <path id="DejaVuSans-64" d="M 2906 2969 
L 2906 4863 
L 3481 4863 
L 3481 0 
L 2906 0 
L 2906 525 
Q 2725 213 2448 61 
Q 2172 -91 1784 -91 
Q 1150 -91 751 415 
Q 353 922 353 1747 
Q 353 2572 751 3078 
Q 1150 3584 1784 3584 
Q 2172 3584 2448 3432 
Q 2725 3281 2906 2969 
z
M 947 1747 
Q 947 1113 1208 752 
Q 1469 391 1925 391 
Q 2381 391 2643 752 
Q 2906 1113 2906 1747 
Q 2906 2381 2643 2742 
Q 2381 3103 1925 3103 
Q 1469 3103 1208 2742 
Q 947 2381 947 1747 
z
" transform="scale(0.015625)"/>
       <path id="DejaVuSans-42" d="M 1259 2228 
L 1259 519 
L 2272 519 
Q 2781 519 3026 730 
Q 3272 941 3272 1375 
Q 3272 1813 3026 2020 
Q 2781 2228 2272 2228 
L 1259 2228 
z
M 1259 4147 
L 1259 2741 
L 2194 2741 
Q 2656 2741 2882 2914 
Q 3109 3088 3109 3444 
Q 3109 3797 2882 3972 
Q 2656 4147 2194 4147 
L 1259 4147 
z
M 628 4666 
L 2241 4666 
Q 2963 4666 3353 4366 
Q 3744 4066 3744 3513 
Q 3744 3084 3544 2831 
Q 3344 2578 2956 2516 
Q 3422 2416 3680 2098 
Q 3938 1781 3938 1306 
Q 3938 681 3513 340 
Q 3088 0 2303 0 
L 628 0 
L 628 4666 
z
" transform="scale(0.015625)"/>
      </defs>
      <use xlink:href="#DejaVuSans-2d"/>
      <use xlink:href="#DejaVuSans-36" transform="translate(36.083984 0)"/>
      <use xlink:href="#DejaVuSans-30" transform="translate(99.707031 0)"/>
      <use xlink:href="#DejaVuSans-20" transform="translate(163.330078 0)"/>
      <use xlink:href="#DejaVuSans-64" transform="translate(195.117188 0)"/>
      <use xlink:href="#DejaVuSans-42" transform="translate(258.59375 0)"/>
     </g>
    </g>
    <g id="line2d_21">
     <path d="M 298.968437 98.604813 
L 318.968437 98.604813 
" style="fill: none; stroke-dasharray: 5.55,2.4; stroke-dashoffset: 0; stroke: #1f77b4; stroke-width: 1.5"/>
    </g>
    <g id="text_19">
     <!-- Estimated RT60 -->
     <g transform="translate(326.968437 102.104813) scale(0.1 -0.1)">
      <defs>
       <path id="DejaVuSans-73" d="M 2834 3397 
L 2834 2853 
Q 2591 2978 2328 3040 
Q 2066 3103 1784 3103 
Q 1356 3103 1142 2972 
Q 928 2841 928 2578 
Q 928 2378 1081 2264 
Q 1234 2150 1697 2047 
L 1894 2003 
Q 2506 1872 2764 1633 
Q 3022 1394 3022 966 
Q 3022 478 2636 193 
Q 2250 -91 1575 -91 
Q 1294 -91 989 -36 
Q 684 19 347 128 
L 347 722 
Q 666 556 975 473 
Q 1284 391 1588 391 
Q 1994 391 2212 530 
Q 2431 669 2431 922 
Q 2431 1156 2273 1281 
Q 2116 1406 1581 1522 
L 1381 1569 
Q 847 1681 609 1914 
Q 372 2147 372 2553 
Q 372 3047 722 3315 
Q 1072 3584 1716 3584 
Q 2034 3584 2315 3537 
Q 2597 3491 2834 3397 
z
" transform="scale(0.015625)"/>
       <path id="DejaVuSans-6d" d="M 3328 2828 
Q 3544 3216 3844 3400 
Q 4144 3584 4550 3584 
Q 5097 3584 5394 3201 
Q 5691 2819 5691 2113 
L 5691 0 
L 5113 0 
L 5113 2094 
Q 5113 2597 4934 2840 
Q 4756 3084 4391 3084 
Q 3944 3084 3684 2787 
Q 3425 2491 3425 1978 
L 3425 0 
L 2847 0 
L 2847 2094 
Q 2847 2600 2669 2842 
Q 2491 3084 2119 3084 
Q 1678 3084 1418 2786 
Q 1159 2488 1159 1978 
L 1159 0 
L 581 0 
L 581 3500 
L 1159 3500 
L 1159 2956 
Q 1356 3278 1631 3431 
Q 1906 3584 2284 3584 
Q 2666 3584 2933 3390 
Q 3200 3197 3328 2828 
z
" transform="scale(0.015625)"/>
       <path id="DejaVuSans-52" d="M 2841 2188 
Q 3044 2119 3236 1894 
Q 3428 1669 3622 1275 
L 4263 0 
L 3584 0 
L 2988 1197 
Q 2756 1666 2539 1819 
Q 2322 1972 1947 1972 
L 1259 1972 
L 1259 0 
L 628 0 
L 628 4666 
L 2053 4666 
Q 2853 4666 3247 4331 
Q 3641 3997 3641 3322 
Q 3641 2881 3436 2590 
Q 3231 2300 2841 2188 
z
M 1259 4147 
L 1259 2491 
L 2053 2491 
Q 2509 2491 2742 2702 
Q 2975 2913 2975 3322 
Q 2975 3731 2742 3939 
Q 2509 4147 2053 4147 
L 1259 4147 
z
" transform="scale(0.015625)"/>
       <path id="DejaVuSans-54" d="M -19 4666 
L 3928 4666 
L 3928 4134 
L 2272 4134 
L 2272 0 
L 1638 0 
L 1638 4134 
L -19 4134 
L -19 4666 
z
" transform="scale(0.015625)"/>
      </defs>
      <use xlink:href="#DejaVuSans-45"/>
      <use xlink:href="#DejaVuSans-73" transform="translate(63.183594 0)"/>
      <use xlink:href="#DejaVuSans-74" transform="translate(115.283203 0)"/>
      <use xlink:href="#DejaVuSans-69" transform="translate(154.492188 0)"/>
      <use xlink:href="#DejaVuSans-6d" transform="translate(182.275391 0)"/>
      <use xlink:href="#DejaVuSans-61" transform="translate(279.6875 0)"/>
      <use xlink:href="#DejaVuSans-74" transform="translate(340.966797 0)"/>
      <use xlink:href="#DejaVuSans-65" transform="translate(380.175781 0)"/>
      <use xlink:href="#DejaVuSans-64" transform="translate(441.699219 0)"/>
      <use xlink:href="#DejaVuSans-20" transform="translate(505.175781 0)"/>
      <use xlink:href="#DejaVuSans-52" transform="translate(536.962891 0)"/>
      <use xlink:href="#DejaVuSans-54" transform="translate(599.195312 0)"/>
      <use xlink:href="#DejaVuSans-36" transform="translate(660.279297 0)"/>
      <use xlink:href="#DejaVuSans-30" transform="translate(723.902344 0)"/>
     </g>
    </g>
   </g>
  </g>
 </g>
 <defs>
  <clipPath id="p0e9993e6f0">
   <rect x="57.6" y="41.472" width="357.12" height="266.112"/>
  </clipPath>
 </defs>
</svg>
