<?xml version="1.0" encoding="utf-8" standalone="no"?>
<!DOCTYPE svg PUBLIC "-//W3C//DTD SVG 1.1//EN"
  "http://www.w3.org/Graphics/SVG/1.1/DTD/svg11.dtd">
<svg xmlns:xlink="http://www.w3.org/1999/xlink" width="460.8pt" height="345.6pt" viewBox="0 0 460.8 345.6" xmlns="http://www.w3.org/2000/svg" version="1.1">
 <metadata>
  <rdf:RDF xmlns:dc="http://purl.org/dc/elements/1.1/" xmlns:cc="http://creativecommons.org/ns#" xmlns:rdf="http://www.w3.org/1999/02/22-rdf-syntax-ns#">
   <cc:Work>
    <dc:type rdf:resource="http://purl.org/dc/dcmitype/StillImage"/>
    <dc:date>2025-05-06T13:50:23.518070</dc:date>
    <dc:format>image/svg+xml</dc:format>
    <dc:creator>
     <cc:Agent>
      <dc:title>Matplotlib v3.10.1, https://matplotlib.org/</dc:title>
     </cc:Agent>
    </dc:creator>
   </cc:Work>
  </rdf:RDF>
 </metadata>
 <defs>
  <style type="text/css">*{stroke-linejoin: round; stroke-linecap: butt}</style>
 </defs>
 <g id="figure_1">
  <g id="patch_1">
   <path d="M 0 345.6 
L 460.8 345.6 
L 460.8 0 
L 0 0 
z
" style="fill: #ffffff"/>
  </g>
  <g id="axes_1">
   <g id="patch_2">
    <path d="M 57.6 307.584 
L 414.72 307.584 
L 414.72 41.472 
L 57.6 41.472 
z
" style="fill: #ffffff"/>
   </g>
   <g id="matplotlib.axis_1">
    <g id="xtick_1">
     <g id="line2d_1">
      <defs>
       <path id="m3e6489c77a" d="M 0 0 
L 0 3.5 
" style="stroke: #000000; stroke-width: 0.8"/>
      </defs>
      <g>
       <use xlink:href="#m3e6489c77a" x="87.244052" y="307.584" style="stroke: #000000; stroke-width: 0.8"/>
      </g>
     </g>
     <g id="text_1">
      <!-- −0.1 -->
      <g transform="translate(75.102646 322.182437) scale(0.1 -0.1)">
       <defs>
        <path id="DejaVuSans-2212" d="M 678 2272 
L 4684 2272 
L 4684 1741 
L 678 1741 
L 678 2272 
z
" transform="scale(0.015625)"/>
        <path id="DejaVuSans-30" d="M 2034 4250 
Q 1547 4250 1301 3770 
Q 1056 3291 1056 2328 
Q 1056 1369 1301 889 
Q 1547 409 2034 409 
Q 2525 409 2770 889 
Q 3016 1369 3016 2328 
Q 3016 3291 2770 3770 
Q 2525 4250 2034 4250 
z
M 2034 4750 
Q 2819 4750 3233 4129 
Q 3647 3509 3647 2328 
Q 3647 1150 3233 529 
Q 2819 -91 2034 -91 
Q 1250 -91 836 529 
Q 422 1150 422 2328 
Q 422 3509 836 4129 
Q 1250 4750 2034 4750 
z
" transform="scale(0.015625)"/>
        <path id="DejaVuSans-2e" d="M 684 794 
L 1344 794 
L 1344 0 
L 684 0 
L 684 794 
z
" transform="scale(0.015625)"/>
        <path id="DejaVuSans-31" d="M 794 531 
L 1825 531 
L 1825 4091 
L 703 3866 
L 703 4441 
L 1819 4666 
L 2450 4666 
L 2450 531 
L 3481 531 
L 3481 0 
L 794 0 
L 794 531 
z
" transform="scale(0.015625)"/>
       </defs>
       <use xlink:href="#DejaVuSans-2212"/>
       <use xlink:href="#DejaVuSans-30" transform="translate(83.789062 0)"/>
       <use xlink:href="#DejaVuSans-2e" transform="translate(147.412109 0)"/>
       <use xlink:href="#DejaVuSans-31" transform="translate(179.199219 0)"/>
      </g>
     </g>
    </g>
    <g id="xtick_2">
     <g id="line2d_2">
      <g>
       <use xlink:href="#m3e6489c77a" x="133.623273" y="307.584" style="stroke: #000000; stroke-width: 0.8"/>
      </g>
     </g>
     <g id="text_2">
      <!-- 0.0 -->
      <g transform="translate(125.67171 322.182437) scale(0.1 -0.1)">
       <use xlink:href="#DejaVuSans-30"/>
       <use xlink:href="#DejaVuSans-2e" transform="translate(63.623047 0)"/>
       <use xlink:href="#DejaVuSans-30" transform="translate(95.410156 0)"/>
      </g>
     </g>
    </g>
    <g id="xtick_3">
     <g id="line2d_3">
      <g>
       <use xlink:href="#m3e6489c77a" x="180.002494" y="307.584" style="stroke: #000000; stroke-width: 0.8"/>
      </g>
     </g>
     <g id="text_3">
      <!-- 0.1 -->
      <g transform="translate(172.050931 322.182437) scale(0.1 -0.1)">
       <use xlink:href="#DejaVuSans-30"/>
       <use xlink:href="#DejaVuSans-2e" transform="translate(63.623047 0)"/>
       <use xlink:href="#DejaVuSans-31" transform="translate(95.410156 0)"/>
      </g>
     </g>
    </g>
    <g id="xtick_4">
     <g id="line2d_4">
      <g>
       <use xlink:href="#m3e6489c77a" x="226.381714" y="307.584" style="stroke: #000000; stroke-width: 0.8"/>
      </g>
     </g>
     <g id="text_4">
      <!-- 0.2 -->
      <g transform="translate(218.430152 322.182437) scale(0.1 -0.1)">
       <defs>
        <path id="DejaVuSans-32" d="M 1228 531 
L 3431 531 
L 3431 0 
L 469 0 
L 469 531 
Q 828 903 1448 1529 
Q 2069 2156 2228 2338 
Q 2531 2678 2651 2914 
Q 2772 3150 2772 3378 
Q 2772 3750 2511 3984 
Q 2250 4219 1831 4219 
Q 1534 4219 1204 4116 
Q 875 4013 500 3803 
L 500 4441 
Q 881 4594 1212 4672 
Q 1544 4750 1819 4750 
Q 2544 4750 2975 4387 
Q 3406 4025 3406 3419 
Q 3406 3131 3298 2873 
Q 3191 2616 2906 2266 
Q 2828 2175 2409 1742 
Q 1991 1309 1228 531 
z
" transform="scale(0.015625)"/>
       </defs>
       <use xlink:href="#DejaVuSans-30"/>
       <use xlink:href="#DejaVuSans-2e" transform="translate(63.623047 0)"/>
       <use xlink:href="#DejaVuSans-32" transform="translate(95.410156 0)"/>
      </g>
     </g>
    </g>
    <g id="xtick_5">
     <g id="line2d_5">
      <g>
       <use xlink:href="#m3e6489c77a" x="272.760935" y="307.584" style="stroke: #000000; stroke-width: 0.8"/>
      </g>
     </g>
     <g id="text_5">
      <!-- 0.3 -->
      <g transform="translate(264.809373 322.182437) scale(0.1 -0.1)">
       <defs>
        <path id="DejaVuSans-33" d="M 2597 2516 
Q 3050 2419 3304 2112 
Q 3559 1806 3559 1356 
Q 3559 666 3084 287 
Q 2609 -91 1734 -91 
Q 1441 -91 1130 -33 
Q 819 25 488 141 
L 488 750 
Q 750 597 1062 519 
Q 1375 441 1716 441 
Q 2309 441 2620 675 
Q 2931 909 2931 1356 
Q 2931 1769 2642 2001 
Q 2353 2234 1838 2234 
L 1294 2234 
L 1294 2753 
L 1863 2753 
Q 2328 2753 2575 2939 
Q 2822 3125 2822 3475 
Q 2822 3834 2567 4026 
Q 2313 4219 1838 4219 
Q 1578 4219 1281 4162 
Q 984 4106 628 3988 
L 628 4550 
Q 988 4650 1302 4700 
Q 1616 4750 1894 4750 
Q 2613 4750 3031 4423 
Q 3450 4097 3450 3541 
Q 3450 3153 3228 2886 
Q 3006 2619 2597 2516 
z
" transform="scale(0.015625)"/>
       </defs>
       <use xlink:href="#DejaVuSans-30"/>
       <use xlink:href="#DejaVuSans-2e" transform="translate(63.623047 0)"/>
       <use xlink:href="#DejaVuSans-33" transform="translate(95.410156 0)"/>
      </g>
     </g>
    </g>
    <g id="xtick_6">
     <g id="line2d_6">
      <g>
       <use xlink:href="#m3e6489c77a" x="319.140156" y="307.584" style="stroke: #000000; stroke-width: 0.8"/>
      </g>
     </g>
     <g id="text_6">
      <!-- 0.4 -->
      <g transform="translate(311.188593 322.182437) scale(0.1 -0.1)">
       <defs>
        <path id="DejaVuSans-34" d="M 2419 4116 
L 825 1625 
L 2419 1625 
L 2419 4116 
z
M 2253 4666 
L 3047 4666 
L 3047 1625 
L 3713 1625 
L 3713 1100 
L 3047 1100 
L 3047 0 
L 2419 0 
L 2419 1100 
L 313 1100 
L 313 1709 
L 2253 4666 
z
" transform="scale(0.015625)"/>
       </defs>
       <use xlink:href="#DejaVuSans-30"/>
       <use xlink:href="#DejaVuSans-2e" transform="translate(63.623047 0)"/>
       <use xlink:href="#DejaVuSans-34" transform="translate(95.410156 0)"/>
      </g>
     </g>
    </g>
    <g id="xtick_7">
     <g id="line2d_7">
      <g>
       <use xlink:href="#m3e6489c77a" x="365.519377" y="307.584" style="stroke: #000000; stroke-width: 0.8"/>
      </g>
     </g>
     <g id="text_7">
      <!-- 0.5 -->
      <g transform="translate(357.567814 322.182437) scale(0.1 -0.1)">
       <defs>
        <path id="DejaVuSans-35" d="M 691 4666 
L 3169 4666 
L 3169 4134 
L 1269 4134 
L 1269 2991 
Q 1406 3038 1543 3061 
Q 1681 3084 1819 3084 
Q 2600 3084 3056 2656 
Q 3513 2228 3513 1497 
Q 3513 744 3044 326 
Q 2575 -91 1722 -91 
Q 1428 -91 1123 -41 
Q 819 9 494 109 
L 494 744 
Q 775 591 1075 516 
Q 1375 441 1709 441 
Q 2250 441 2565 725 
Q 2881 1009 2881 1497 
Q 2881 1984 2565 2268 
Q 2250 2553 1709 2553 
Q 1456 2553 1204 2497 
Q 953 2441 691 2322 
L 691 4666 
z
" transform="scale(0.015625)"/>
       </defs>
       <use xlink:href="#DejaVuSans-30"/>
       <use xlink:href="#DejaVuSans-2e" transform="translate(63.623047 0)"/>
       <use xlink:href="#DejaVuSans-35" transform="translate(95.410156 0)"/>
      </g>
     </g>
    </g>
    <g id="xtick_8">
     <g id="line2d_8">
      <g>
       <use xlink:href="#m3e6489c77a" x="411.898597" y="307.584" style="stroke: #000000; stroke-width: 0.8"/>
      </g>
     </g>
     <g id="text_8">
      <!-- 0.6 -->
      <g transform="translate(403.947035 322.182437) scale(0.1 -0.1)">
       <defs>
        <path id="DejaVuSans-36" d="M 2113 2584 
Q 1688 2584 1439 2293 
Q 1191 2003 1191 1497 
Q 1191 994 1439 701 
Q 1688 409 2113 409 
Q 2538 409 2786 701 
Q 3034 994 3034 1497 
Q 3034 2003 2786 2293 
Q 2538 2584 2113 2584 
z
M 3366 4563 
L 3366 3988 
Q 3128 4100 2886 4159 
Q 2644 4219 2406 4219 
Q 1781 4219 1451 3797 
Q 1122 3375 1075 2522 
Q 1259 2794 1537 2939 
Q 1816 3084 2150 3084 
Q 2853 3084 3261 2657 
Q 3669 2231 3669 1497 
Q 3669 778 3244 343 
Q 2819 -91 2113 -91 
Q 1303 -91 875 529 
Q 447 1150 447 2328 
Q 447 3434 972 4092 
Q 1497 4750 2381 4750 
Q 2619 4750 2861 4703 
Q 3103 4656 3366 4563 
z
" transform="scale(0.015625)"/>
       </defs>
       <use xlink:href="#DejaVuSans-30"/>
       <use xlink:href="#DejaVuSans-2e" transform="translate(63.623047 0)"/>
       <use xlink:href="#DejaVuSans-36" transform="translate(95.410156 0)"/>
      </g>
     </g>
    </g>
   </g>
   <g id="matplotlib.axis_2">
    <g id="ytick_1">
     <g id="line2d_9">
      <defs>
       <path id="m07be289b9f" d="M 0 0 
L -3.5 0 
" style="stroke: #000000; stroke-width: 0.8"/>
      </defs>
      <g>
       <use xlink:href="#m07be289b9f" x="57.6" y="278.537423" style="stroke: #000000; stroke-width: 0.8"/>
      </g>
     </g>
     <g id="text_9">
      <!-- −120 -->
      <g transform="translate(23.132812 282.336642) scale(0.1 -0.1)">
       <use xlink:href="#DejaVuSans-2212"/>
       <use xlink:href="#DejaVuSans-31" transform="translate(83.789062 0)"/>
       <use xlink:href="#DejaVuSans-32" transform="translate(147.412109 0)"/>
       <use xlink:href="#DejaVuSans-30" transform="translate(211.035156 0)"/>
      </g>
     </g>
    </g>
    <g id="ytick_2">
     <g id="line2d_10">
      <g>
       <use xlink:href="#m07be289b9f" x="57.6" y="241.042519" style="stroke: #000000; stroke-width: 0.8"/>
      </g>
     </g>
     <g id="text_10">
      <!-- −100 -->
      <g transform="translate(23.132812 244.841738) scale(0.1 -0.1)">
       <use xlink:href="#DejaVuSans-2212"/>
       <use xlink:href="#DejaVuSans-31" transform="translate(83.789062 0)"/>
       <use xlink:href="#DejaVuSans-30" transform="translate(147.412109 0)"/>
       <use xlink:href="#DejaVuSans-30" transform="translate(211.035156 0)"/>
      </g>
     </g>
    </g>
    <g id="ytick_3">
     <g id="line2d_11">
      <g>
       <use xlink:href="#m07be289b9f" x="57.6" y="203.547615" style="stroke: #000000; stroke-width: 0.8"/>
      </g>
     </g>
     <g id="text_11">
      <!-- −80 -->
      <g transform="translate(29.495313 207.346834) scale(0.1 -0.1)">
       <defs>
        <path id="DejaVuSans-38" d="M 2034 2216 
Q 1584 2216 1326 1975 
Q 1069 1734 1069 1313 
Q 1069 891 1326 650 
Q 1584 409 2034 409 
Q 2484 409 2743 651 
Q 3003 894 3003 1313 
Q 3003 1734 2745 1975 
Q 2488 2216 2034 2216 
z
M 1403 2484 
Q 997 2584 770 2862 
Q 544 3141 544 3541 
Q 544 4100 942 4425 
Q 1341 4750 2034 4750 
Q 2731 4750 3128 4425 
Q 3525 4100 3525 3541 
Q 3525 3141 3298 2862 
Q 3072 2584 2669 2484 
Q 3125 2378 3379 2068 
Q 3634 1759 3634 1313 
Q 3634 634 3220 271 
Q 2806 -91 2034 -91 
Q 1263 -91 848 271 
Q 434 634 434 1313 
Q 434 1759 690 2068 
Q 947 2378 1403 2484 
z
M 1172 3481 
Q 1172 3119 1398 2916 
Q 1625 2713 2034 2713 
Q 2441 2713 2670 2916 
Q 2900 3119 2900 3481 
Q 2900 3844 2670 4047 
Q 2441 4250 2034 4250 
Q 1625 4250 1398 4047 
Q 1172 3844 1172 3481 
z
" transform="scale(0.015625)"/>
       </defs>
       <use xlink:href="#DejaVuSans-2212"/>
       <use xlink:href="#DejaVuSans-38" transform="translate(83.789062 0)"/>
       <use xlink:href="#DejaVuSans-30" transform="translate(147.412109 0)"/>
      </g>
     </g>
    </g>
    <g id="ytick_4">
     <g id="line2d_12">
      <g>
       <use xlink:href="#m07be289b9f" x="57.6" y="166.052712" style="stroke: #000000; stroke-width: 0.8"/>
      </g>
     </g>
     <g id="text_12">
      <!-- −60 -->
      <g transform="translate(29.495313 169.85193) scale(0.1 -0.1)">
       <use xlink:href="#DejaVuSans-2212"/>
       <use xlink:href="#DejaVuSans-36" transform="translate(83.789062 0)"/>
       <use xlink:href="#DejaVuSans-30" transform="translate(147.412109 0)"/>
      </g>
     </g>
    </g>
    <g id="ytick_5">
     <g id="line2d_13">
      <g>
       <use xlink:href="#m07be289b9f" x="57.6" y="128.557808" style="stroke: #000000; stroke-width: 0.8"/>
      </g>
     </g>
     <g id="text_13">
      <!-- −40 -->
      <g transform="translate(29.495313 132.357026) scale(0.1 -0.1)">
       <use xlink:href="#DejaVuSans-2212"/>
       <use xlink:href="#DejaVuSans-34" transform="translate(83.789062 0)"/>
       <use xlink:href="#DejaVuSans-30" transform="translate(147.412109 0)"/>
      </g>
     </g>
    </g>
    <g id="ytick_6">
     <g id="line2d_14">
      <g>
       <use xlink:href="#m07be289b9f" x="57.6" y="91.062904" style="stroke: #000000; stroke-width: 0.8"/>
      </g>
     </g>
     <g id="text_14">
      <!-- −20 -->
      <g transform="translate(29.495313 94.862123) scale(0.1 -0.1)">
       <use xlink:href="#DejaVuSans-2212"/>
       <use xlink:href="#DejaVuSans-32" transform="translate(83.789062 0)"/>
       <use xlink:href="#DejaVuSans-30" transform="translate(147.412109 0)"/>
      </g>
     </g>
    </g>
    <g id="ytick_7">
     <g id="line2d_15">
      <g>
       <use xlink:href="#m07be289b9f" x="57.6" y="53.568" style="stroke: #000000; stroke-width: 0.8"/>
      </g>
     </g>
     <g id="text_15">
      <!-- 0 -->
      <g transform="translate(44.2375 57.367219) scale(0.1 -0.1)">
       <use xlink:href="#DejaVuSans-30"/>
      </g>
     </g>
    </g>
   </g>
   <g id="line2d_16">
    <path d="M 73.832727 53.568 
L 123.265247 53.674196 
L 123.584104 53.795867 
L 124.463377 54.292622 
L 125.130078 54.410799 
L 125.777455 54.655243 
L 126.743688 54.773485 
L 127.120519 55.003119 
L 127.41039 55.354685 
L 127.564987 55.449901 
L 127.729247 56.015602 
L 127.932156 56.414154 
L 128.067429 56.519615 
L 128.73413 57.774682 
L 128.927377 57.91694 
L 129.342857 58.031624 
L 129.864623 58.20968 
L 130.38639 58.349347 
L 132.019325 58.826947 
L 132.241558 58.970922 
L 132.357506 59.097371 
L 133.082182 61.151044 
L 133.275429 61.5584 
L 133.391377 61.664846 
L 133.526649 62.346072 
L 133.77787 63.348231 
L 133.903481 63.449075 
L 134.415584 64.436377 
L 134.695792 64.573378 
L 135.159584 64.838795 
L 135.314182 65.024944 
L 135.59439 65.342428 
L 135.787636 65.448259 
L 136.116156 65.707071 
L 136.328727 65.813729 
L 136.608935 65.939281 
L 136.792519 66.086717 
L 137.024416 66.189629 
L 137.188675 66.323146 
L 137.420571 66.450788 
L 137.865039 66.620095 
L 138.541403 66.922087 
L 138.976208 67.031277 
L 139.623584 67.533437 
L 139.855481 67.60723 
L 140.068052 67.891131 
L 140.280623 67.98649 
L 140.464208 68.10285 
L 140.715429 68.217625 
L 142.087481 68.336417 
L 144.010286 69.497396 
L 144.251844 69.851209 
L 144.425766 69.9616 
L 144.725299 70.238294 
L 146.213299 70.348984 
L 148.271377 70.661148 
L 148.628883 70.770663 
L 149.247273 70.828735 
L 149.508156 70.938543 
L 149.894649 71.317074 
L 150.078234 71.444938 
L 150.223169 71.560312 
L 150.484052 71.755558 
L 151.237714 71.865197 
L 153.015584 72.160887 
L 153.334442 72.268742 
L 153.682286 72.325615 
L 153.943169 72.469109 
L 154.233039 72.574072 
L 154.416623 72.697444 
L 154.745143 72.943757 
L 154.919065 73.049526 
L 155.22826 73.284934 
L 155.431169 73.423678 
L 155.846649 73.572594 
L 156.107532 73.716486 
L 156.329766 73.830847 
L 156.465039 73.977471 
L 156.696935 74.165262 
L 157.595532 74.2924 
L 157.769455 74.443994 
L 158.020675 74.62393 
L 158.155948 74.746856 
L 158.474805 75.149823 
L 158.629403 75.293161 
L 158.861299 75.436856 
L 159.81787 75.548007 
L 160.378286 76.087217 
L 160.571532 76.182829 
L 160.697143 76.324223 
L 161.122286 77.020518 
L 161.238234 77.166763 
L 161.750338 78.17603 
L 162.175481 78.890392 
L 162.359065 79.032158 
L 162.658597 79.211474 
L 164.28187 79.375247 
L 164.44613 79.833366 
L 164.620052 80.014455 
L 164.697351 80.192499 
L 164.832623 81.396836 
L 165.045195 82.571612 
L 165.122494 82.664136 
L 165.238442 83.48161 
L 165.499325 85.070119 
L 165.943792 85.385084 
L 166.765091 87.003529 
L 168.185455 87.459855 
L 168.436675 87.785859 
L 168.591273 87.893726 
L 168.929455 88.279602 
L 169.741091 88.432724 
L 170.678338 88.97632 
L 170.968208 89.082187 
L 171.422338 89.368119 
L 171.615584 89.681196 
L 171.818494 89.813688 
L 172.05039 89.922058 
L 172.398234 90.051865 
L 172.813714 90.162516 
L 173.635013 90.537757 
L 174.021506 90.916641 
L 174.263065 91.164174 
L 174.523948 91.208134 
L 174.891117 91.320658 
L 175.180987 91.416443 
L 175.364571 91.586004 
L 175.596468 91.699759 
L 175.741403 91.824138 
L 176.031273 92.104597 
L 176.166545 92.22486 
L 176.533714 92.706904 
L 176.668987 92.890566 
L 176.910545 93.121664 
L 177.876779 93.231835 
L 178.466182 93.695191 
L 178.756052 94.055136 
L 178.891325 94.159854 
L 179.32613 94.729714 
L 179.49039 94.855982 
L 179.838234 95.182039 
L 180.021818 95.285661 
L 180.331013 95.493352 
L 180.504935 95.620676 
L 180.736831 95.725984 
L 181.954286 95.912728 
L 182.736935 96.356483 
L 183.993039 98.516866 
L 184.147636 98.744024 
L 184.36987 98.916139 
L 184.592104 99.022183 
L 184.862649 99.087949 
L 186.060779 99.325797 
L 186.756468 99.4523 
L 187.036675 99.527358 
L 188.138182 99.817012 
L 188.389403 99.986264 
L 188.534338 100.123179 
L 188.775896 100.307144 
L 188.969143 100.42911 
L 189.220364 100.48916 
L 189.858078 100.554018 
L 191.732571 100.679054 
L 192.805091 101.078274 
L 194.022545 101.198088 
L 194.553974 101.275298 
L 195.095065 101.382574 
L 197.01787 102.811392 
L 197.211117 102.913318 
L 197.558961 103.223231 
L 197.839169 103.349683 
L 198.283636 103.387364 
L 199.307844 103.537196 
L 199.617039 103.763032 
L 199.752312 103.908257 
L 200.119481 104.443277 
L 200.254753 104.57879 
L 200.998753 106.453722 
L 201.172675 106.662276 
L 201.327273 106.776608 
L 201.704104 107.18107 
L 202.177558 107.436177 
L 202.457766 107.79548 
L 202.622026 107.904188 
L 203.056831 108.425361 
L 203.230753 108.529877 
L 203.907117 109.727823 
L 204.110026 110.029758 
L 204.303273 110.131283 
L 204.612468 110.353313 
L 205.414442 110.463264 
L 205.974857 110.869075 
L 206.177766 110.959827 
L 206.361351 111.095864 
L 206.602909 111.164562 
L 207.462857 111.581374 
L 207.685091 111.685623 
L 207.888 111.816887 
L 208.17787 111.897348 
L 208.815584 112.141261 
L 210.023377 112.457828 
L 212.197403 112.64565 
L 212.661195 113.001316 
L 212.864104 113.096125 
L 213.018701 113.236703 
L 213.376208 113.612287 
L 213.569455 113.722745 
L 215.16374 116.752985 
L 215.376312 117.191226 
L 215.521247 117.296821 
L 215.917403 117.866161 
L 216.284571 117.976276 
L 216.787013 118.571639 
L 217.115532 119.36498 
L 217.260468 119.519897 
L 217.492364 119.675344 
L 218.091429 119.786662 
L 218.497247 120.007283 
L 219.183273 120.085263 
L 221.048104 120.457253 
L 221.28 120.558852 
L 222.004675 120.774 
L 222.565091 121.263027 
L 222.768 121.325289 
L 224.864727 121.683739 
L 225.676364 122.020232 
L 226.545974 122.29132 
L 226.971117 122.431317 
L 227.251325 122.505702 
L 228.082286 122.769956 
L 228.497766 123.029179 
L 228.691013 123.309845 
L 228.922909 123.469864 
L 229.183792 123.582743 
L 229.599273 123.905103 
L 229.744208 124.066786 
L 230.005091 124.328087 
L 230.179013 124.444694 
L 230.420571 124.56445 
L 231.212883 124.738055 
L 232.024519 125.094505 
L 232.256416 125.178695 
L 232.826494 125.296845 
L 233.328935 125.540815 
L 233.570494 125.648057 
L 233.76374 125.760779 
L 234.111584 126.02151 
L 234.314494 126.126686 
L 234.662338 126.37509 
L 234.83626 126.485075 
L 235.145455 126.729126 
L 235.358026 126.848505 
L 235.628571 126.932779 
L 237.155221 127.084271 
L 241.541922 127.509501 
L 241.793143 127.580419 
L 242.440519 127.733001 
L 242.740052 127.89754 
L 243.000935 128.129769 
L 243.155532 128.246901 
L 243.426078 128.469133 
L 244.778805 128.615796 
L 245.95761 128.849668 
L 246.633974 129.080697 
L 246.952831 129.282835 
L 247.136416 129.41057 
L 247.387636 129.52228 
L 248.692052 129.662084 
L 249.233143 130.043093 
L 249.523013 130.350987 
L 249.71626 130.450282 
L 250.093091 130.749915 
L 250.508571 130.861701 
L 251.068987 130.899835 
L 251.967584 131.010619 
L 253.300987 131.891309 
L 254.798649 131.943785 
L 255.581299 132.055766 
L 257.349506 132.663443 
L 257.707013 132.783768 
L 258.006545 132.889999 
L 258.335065 133.028672 
L 258.731221 133.144083 
L 259.204675 133.18879 
L 261.021195 133.476404 
L 261.272416 133.589097 
L 261.475325 133.703959 
L 261.832831 133.96011 
L 262.190338 134.073645 
L 262.576831 134.299364 
L 262.770078 134.419124 
L 263.088935 134.645278 
L 263.330494 134.756683 
L 263.630026 134.854567 
L 263.900571 134.966857 
L 264.499636 135.225781 
L 264.837818 135.348383 
L 265.204987 135.38307 
L 266.973195 135.64431 
L 267.659221 135.843776 
L 269.108571 136.143455 
L 270.277714 136.891931 
L 270.528935 137.088023 
L 270.741506 137.194768 
L 271.156987 137.570135 
L 271.398545 137.683487 
L 271.794701 137.941749 
L 272.065247 138.048896 
L 272.422753 138.245955 
L 272.760935 138.352831 
L 273.166753 138.484986 
L 273.369662 138.604938 
L 273.727169 138.898777 
L 273.901091 139.014789 
L 274.287584 139.375377 
L 274.538805 139.479196 
L 274.954286 139.734605 
L 275.166857 139.842151 
L 275.514701 140.071307 
L 275.785247 140.193276 
L 276.123429 140.237568 
L 278.210494 140.425442 
L 279.176727 140.913523 
L 279.534234 141.020398 
L 279.89174 141.063413 
L 281.582649 141.21268 
L 282.278338 141.445845 
L 284.771221 141.887306 
L 285.09974 142.060022 
L 285.273662 142.177836 
L 285.650494 142.567431 
L 285.863065 142.680534 
L 286.220571 142.911703 
L 286.655377 143.031756 
L 287.022545 143.08399 
L 287.679584 143.208794 
L 288.124052 143.427182 
L 288.36561 143.54734 
L 288.616831 143.660069 
L 288.935688 143.757314 
L 289.505766 143.862966 
L 289.824623 143.981499 
L 289.988883 144.126599 
L 290.288416 144.381124 
L 290.626597 144.4903 
L 291.100052 144.548278 
L 291.476883 144.658086 
L 291.79574 144.771146 
L 292.104935 144.906631 
L 292.501091 144.979783 
L 292.761974 145.087545 
L 293.100156 145.321677 
L 293.341714 145.436098 
L 293.718545 145.618705 
L 294.008416 145.733913 
L 294.385247 146.076466 
L 294.549506 146.260301 
L 294.800727 146.450962 
L 297.225974 146.621665 
L 298.375792 147.180988 
L 298.656 147.42397 
L 298.897558 147.532708 
L 299.216416 147.70361 
L 300.820364 147.825445 
L 301.429091 148.001833 
L 302.008831 148.215674 
L 303.999273 148.336753 
L 304.917195 148.462949 
L 305.632208 148.574722 
L 306.347221 148.639267 
L 308.482597 148.807291 
L 309.700052 149.154784 
L 310.492364 149.200869 
L 311.361974 149.316579 
L 313.970805 149.66712 
L 314.357299 149.803914 
L 318.541091 150.646927 
L 318.937247 150.68717 
L 322.62826 151.036671 
L 322.976104 151.121128 
L 323.49787 151.237263 
L 326.010078 151.600786 
L 326.425558 151.724822 
L 326.667117 151.879062 
L 326.966649 152.006711 
L 327.237195 152.11308 
L 327.623688 152.342413 
L 327.874909 152.453551 
L 328.309714 152.659771 
L 328.512623 152.763924 
L 328.947429 153.167174 
L 329.131013 153.299526 
L 329.527169 153.636891 
L 329.826701 153.763582 
L 330.280831 154.234178 
L 330.425766 154.409982 
L 330.763948 154.834986 
L 331.111792 154.966854 
L 331.536935 155.251905 
L 331.759169 155.351872 
L 332.174649 155.687219 
L 332.454857 155.796562 
L 332.908987 156.069544 
L 333.102234 156.209528 
L 333.440416 156.461177 
L 333.797922 156.570657 
L 334.261714 156.718818 
L 334.474286 156.843851 
L 334.793143 157.034496 
L 335.102338 157.138818 
L 335.508156 157.319681 
L 335.759377 157.436164 
L 336.097558 157.597247 
L 336.522701 157.705519 
L 337.981714 158.17334 
L 338.54213 158.3651 
L 338.899636 158.432771 
L 339.41174 158.508541 
L 340.348987 158.623609 
L 341.315221 158.714033 
L 342.329766 158.835072 
L 342.938494 158.891107 
L 343.411948 159.008549 
L 344.117299 159.33139 
L 344.542442 159.444567 
L 344.957922 159.516223 
L 346.136727 159.664998 
L 347.199584 159.920649 
L 348.243117 160.783189 
L 348.542649 160.89407 
L 348.977455 161.254213 
L 349.161039 161.415929 
L 349.450909 161.619794 
L 350.049974 161.77791 
L 350.330182 161.884896 
L 350.562078 162.002692 
L 350.842286 162.085081 
L 352.320623 162.1982 
L 354.436675 162.76262 
L 354.794182 162.880336 
L 355.673455 163.177045 
L 356.630026 163.413984 
L 356.97787 163.554144 
L 357.219429 163.675335 
L 357.567273 163.810886 
L 357.973091 163.924591 
L 358.369247 164.027425 
L 358.601143 164.150671 
L 358.92 164.313145 
L 359.267844 164.421753 
L 359.731636 164.633416 
L 359.905558 164.810608 
L 360.205091 165.089637 
L 360.456312 165.19484 
L 360.833143 165.411871 
L 361.161662 165.524779 
L 361.451532 165.644248 
L 362.408104 165.817168 
L 363.384 166.174543 
L 363.944416 166.586765 
L 364.533818 166.952607 
L 364.736727 167.078955 
L 365.123221 167.36562 
L 365.393766 167.470664 
L 365.828571 167.723587 
L 366.089455 167.83846 
L 366.495273 168.231315 
L 366.698182 168.355931 
L 367.017039 168.525402 
L 367.68374 168.675742 
L 367.992935 168.838312 
L 368.157195 168.963101 
L 368.563013 169.40489 
L 368.775584 169.513761 
L 369.239377 169.85602 
L 369.490597 169.967305 
L 369.925403 170.425655 
L 370.137974 170.547873 
L 370.621091 170.893128 
L 370.833662 170.993882 
L 371.85787 172.433099 
L 372.167065 172.549066 
L 372.698494 172.971254 
L 372.853091 173.129014 
L 373.249247 173.624693 
L 373.500468 173.731521 
L 375.288 176.201568 
L 375.45226 176.307529 
L 375.693818 176.891195 
L 375.916052 177.14599 
L 376.138286 177.261591 
L 376.379844 177.890448 
L 376.602078 178.148926 
L 376.824312 178.255731 
L 377.017558 178.763802 
L 377.268779 179.208715 
L 377.52 179.341445 
L 378.42826 181.015595 
L 378.660156 181.503918 
L 378.911377 181.657782 
L 379.104623 182.302964 
L 379.394494 183.104699 
L 379.539429 183.213413 
L 379.665039 183.894977 
L 380.003221 185.747052 
L 380.157818 185.864438 
L 380.312416 186.539039 
L 380.66026 187.967104 
L 380.882494 188.128801 
L 381.066078 188.925708 
L 381.326961 189.749943 
L 381.674805 190.034795 
L 381.964675 191.16001 
L 382.167584 191.456486 
L 382.293195 191.564696 
L 382.418805 192.180402 
L 382.776312 194.004312 
L 382.950234 194.132475 
L 383.114494 194.839806 
L 383.500987 196.47612 
L 383.665247 196.634649 
L 383.781195 197.507377 
L 384.138701 200.454955 
L 384.264312 200.551783 
L 384.389922 201.155023 
L 384.911688 204.205572 
L 384.988987 204.354532 
L 385.104935 205.275715 
L 385.491429 208.75765 
L 385.588052 208.867598 
L 385.761974 209.660361 
L 386.177455 211.294407 
L 386.534961 211.892732 
L 387.037403 214.20046 
L 387.134026 214.384792 
L 387.288623 215.391774 
L 387.655792 217.808326 
L 387.752416 217.898028 
L 387.849039 218.648352 
L 388.438442 225.163167 
L 388.757299 227.560129 
L 388.96987 227.794621 
L 389.163117 227.910663 
L 389.29839 228.513354 
L 389.597922 229.733265 
L 390.013403 229.887194 
L 390.187325 230.068652 
L 390.931325 231.463984 
L 391.240519 231.623445 
L 391.501403 231.816663 
L 391.588364 231.970251 
L 391.733299 232.908752 
L 391.965195 233.991971 
L 392.119792 234.103346 
L 392.999065 236.277155 
L 393.30826 238.029136 
L 393.540156 238.170153 
L 393.984623 238.954493 
L 394.235844 239.447162 
L 394.332468 239.562252 
L 394.448416 240.322446 
L 394.767273 242.368679 
L 394.941195 242.486217 
L 395.095792 243.071606 
L 395.569247 245.103465 
L 395.656208 245.377471 
L 395.810805 246.955018 
L 396.091013 249.378759 
L 396.24561 249.558253 
L 396.371221 250.645197 
L 396.786701 254.744219 
L 396.864 254.864029 
L 396.970286 255.684922 
L 397.530701 261.356729 
L 397.646649 262.71634 
L 398.371325 277.973386 
L 398.47761 295.488 
L 398.47761 295.488 
" clip-path="url(#p3a2ecff641)" style="fill: none; stroke: #1f77b4; stroke-width: 1.5; stroke-linecap: square"/>
   </g>
   <g id="line2d_17">
    <path d="M 133.623273 62.985454 
L 374.766234 175.426438 
" clip-path="url(#p3a2ecff641)" style="fill: none; stroke-dasharray: 5.55,2.4; stroke-dashoffset: 0; stroke: #ff7f0e; stroke-width: 1.5"/>
   </g>
   <g id="line2d_18">
    <path d="M 73.832727 166.052712 
L 398.487273 166.052712 
L 398.487273 166.052712 
" clip-path="url(#p3a2ecff641)" style="fill: none; stroke-dasharray: 5.55,2.4; stroke-dashoffset: 0; stroke: #2ca02c; stroke-width: 1.5"/>
   </g>
   <g id="LineCollection_1">
    <path d="M 374.766234 295.488 
L 374.766234 53.568 
" clip-path="url(#p3a2ecff641)" style="fill: none; stroke-dasharray: 5.55,2.4; stroke-dashoffset: 0; stroke: #1f77b4; stroke-width: 1.5"/>
   </g>
   <g id="patch_3">
    <path d="M 57.6 307.584 
L 57.6 41.472 
" style="fill: none; stroke: #000000; stroke-width: 0.8; stroke-linejoin: miter; stroke-linecap: square"/>
   </g>
   <g id="patch_4">
    <path d="M 414.72 307.584 
L 414.72 41.472 
" style="fill: none; stroke: #000000; stroke-width: 0.8; stroke-linejoin: miter; stroke-linecap: square"/>
   </g>
   <g id="patch_5">
    <path d="M 57.6 307.584 
L 414.72 307.584 
" style="fill: none; stroke: #000000; stroke-width: 0.8; stroke-linejoin: miter; stroke-linecap: square"/>
   </g>
   <g id="patch_6">
    <path d="M 57.6 41.472 
L 414.72 41.472 
" style="fill: none; stroke: #000000; stroke-width: 0.8; stroke-linejoin: miter; stroke-linecap: square"/>
   </g>
   <g id="text_16">
    <!-- Energy Decay - 500 Hz -->
    <g transform="translate(167.4075 35.472) scale(0.12 -0.12)">
     <defs>
      <path id="DejaVuSans-45" d="M 628 4666 
L 3578 4666 
L 3578 4134 
L 1259 4134 
L 1259 2753 
L 3481 2753 
L 3481 2222 
L 1259 2222 
L 1259 531 
L 3634 531 
L 3634 0 
L 628 0 
L 628 4666 
z
" transform="scale(0.015625)"/>
      <path id="DejaVuSans-6e" d="M 3513 2113 
L 3513 0 
L 2938 0 
L 2938 2094 
Q 2938 2591 2744 2837 
Q 2550 3084 2163 3084 
Q 1697 3084 1428 2787 
Q 1159 2491 1159 1978 
L 1159 0 
L 581 0 
L 581 3500 
L 1159 3500 
L 1159 2956 
Q 1366 3272 1645 3428 
Q 1925 3584 2291 3584 
Q 2894 3584 3203 3211 
Q 3513 2838 3513 2113 
z
" transform="scale(0.015625)"/>
      <path id="DejaVuSans-65" d="M 3597 1894 
L 3597 1613 
L 953 1613 
Q 991 1019 1311 708 
Q 1631 397 2203 397 
Q 2534 397 2845 478 
Q 3156 559 3463 722 
L 3463 178 
Q 3153 47 2828 -22 
Q 2503 -91 2169 -91 
Q 1331 -91 842 396 
Q 353 884 353 1716 
Q 353 2575 817 3079 
Q 1281 3584 2069 3584 
Q 2775 3584 3186 3129 
Q 3597 2675 3597 1894 
z
M 3022 2063 
Q 3016 2534 2758 2815 
Q 2500 3097 2075 3097 
Q 1594 3097 1305 2825 
Q 1016 2553 972 2059 
L 3022 2063 
z
" transform="scale(0.015625)"/>
      <path id="DejaVuSans-72" d="M 2631 2963 
Q 2534 3019 2420 3045 
Q 2306 3072 2169 3072 
Q 1681 3072 1420 2755 
Q 1159 2438 1159 1844 
L 1159 0 
L 581 0 
L 581 3500 
L 1159 3500 
L 1159 2956 
Q 1341 3275 1631 3429 
Q 1922 3584 2338 3584 
Q 2397 3584 2469 3576 
Q 2541 3569 2628 3553 
L 2631 2963 
z
" transform="scale(0.015625)"/>
      <path id="DejaVuSans-67" d="M 2906 1791 
Q 2906 2416 2648 2759 
Q 2391 3103 1925 3103 
Q 1463 3103 1205 2759 
Q 947 2416 947 1791 
Q 947 1169 1205 825 
Q 1463 481 1925 481 
Q 2391 481 2648 825 
Q 2906 1169 2906 1791 
z
M 3481 434 
Q 3481 -459 3084 -895 
Q 2688 -1331 1869 -1331 
Q 1566 -1331 1297 -1286 
Q 1028 -1241 775 -1147 
L 775 -588 
Q 1028 -725 1275 -790 
Q 1522 -856 1778 -856 
Q 2344 -856 2625 -561 
Q 2906 -266 2906 331 
L 2906 616 
Q 2728 306 2450 153 
Q 2172 0 1784 0 
Q 1141 0 747 490 
Q 353 981 353 1791 
Q 353 2603 747 3093 
Q 1141 3584 1784 3584 
Q 2172 3584 2450 3431 
Q 2728 3278 2906 2969 
L 2906 3500 
L 3481 3500 
L 3481 434 
z
" transform="scale(0.015625)"/>
      <path id="DejaVuSans-79" d="M 2059 -325 
Q 1816 -950 1584 -1140 
Q 1353 -1331 966 -1331 
L 506 -1331 
L 506 -850 
L 844 -850 
Q 1081 -850 1212 -737 
Q 1344 -625 1503 -206 
L 1606 56 
L 191 3500 
L 800 3500 
L 1894 763 
L 2988 3500 
L 3597 3500 
L 2059 -325 
z
" transform="scale(0.015625)"/>
      <path id="DejaVuSans-20" transform="scale(0.015625)"/>
      <path id="DejaVuSans-44" d="M 1259 4147 
L 1259 519 
L 2022 519 
Q 2988 519 3436 956 
Q 3884 1394 3884 2338 
Q 3884 3275 3436 3711 
Q 2988 4147 2022 4147 
L 1259 4147 
z
M 628 4666 
L 1925 4666 
Q 3281 4666 3915 4102 
Q 4550 3538 4550 2338 
Q 4550 1131 3912 565 
Q 3275 0 1925 0 
L 628 0 
L 628 4666 
z
" transform="scale(0.015625)"/>
      <path id="DejaVuSans-63" d="M 3122 3366 
L 3122 2828 
Q 2878 2963 2633 3030 
Q 2388 3097 2138 3097 
Q 1578 3097 1268 2742 
Q 959 2388 959 1747 
Q 959 1106 1268 751 
Q 1578 397 2138 397 
Q 2388 397 2633 464 
Q 2878 531 3122 666 
L 3122 134 
Q 2881 22 2623 -34 
Q 2366 -91 2075 -91 
Q 1284 -91 818 406 
Q 353 903 353 1747 
Q 353 2603 823 3093 
Q 1294 3584 2113 3584 
Q 2378 3584 2631 3529 
Q 2884 3475 3122 3366 
z
" transform="scale(0.015625)"/>
      <path id="DejaVuSans-61" d="M 2194 1759 
Q 1497 1759 1228 1600 
Q 959 1441 959 1056 
Q 959 750 1161 570 
Q 1363 391 1709 391 
Q 2188 391 2477 730 
Q 2766 1069 2766 1631 
L 2766 1759 
L 2194 1759 
z
M 3341 1997 
L 3341 0 
L 2766 0 
L 2766 531 
Q 2569 213 2275 61 
Q 1981 -91 1556 -91 
Q 1019 -91 701 211 
Q 384 513 384 1019 
Q 384 1609 779 1909 
Q 1175 2209 1959 2209 
L 2766 2209 
L 2766 2266 
Q 2766 2663 2505 2880 
Q 2244 3097 1772 3097 
Q 1472 3097 1187 3025 
Q 903 2953 641 2809 
L 641 3341 
Q 956 3463 1253 3523 
Q 1550 3584 1831 3584 
Q 2591 3584 2966 3190 
Q 3341 2797 3341 1997 
z
" transform="scale(0.015625)"/>
      <path id="DejaVuSans-2d" d="M 313 2009 
L 1997 2009 
L 1997 1497 
L 313 1497 
L 313 2009 
z
" transform="scale(0.015625)"/>
      <path id="DejaVuSans-48" d="M 628 4666 
L 1259 4666 
L 1259 2753 
L 3553 2753 
L 3553 4666 
L 4184 4666 
L 4184 0 
L 3553 0 
L 3553 2222 
L 1259 2222 
L 1259 0 
L 628 0 
L 628 4666 
z
" transform="scale(0.015625)"/>
      <path id="DejaVuSans-7a" d="M 353 3500 
L 3084 3500 
L 3084 2975 
L 922 459 
L 3084 459 
L 3084 0 
L 275 0 
L 275 525 
L 2438 3041 
L 353 3041 
L 353 3500 
z
" transform="scale(0.015625)"/>
     </defs>
     <use xlink:href="#DejaVuSans-45"/>
     <use xlink:href="#DejaVuSans-6e" transform="translate(63.183594 0)"/>
     <use xlink:href="#DejaVuSans-65" transform="translate(126.5625 0)"/>
     <use xlink:href="#DejaVuSans-72" transform="translate(188.085938 0)"/>
     <use xlink:href="#DejaVuSans-67" transform="translate(227.449219 0)"/>
     <use xlink:href="#DejaVuSans-79" transform="translate(290.925781 0)"/>
     <use xlink:href="#DejaVuSans-20" transform="translate(350.105469 0)"/>
     <use xlink:href="#DejaVuSans-44" transform="translate(381.892578 0)"/>
     <use xlink:href="#DejaVuSans-65" transform="translate(458.894531 0)"/>
     <use xlink:href="#DejaVuSans-63" transform="translate(520.417969 0)"/>
     <use xlink:href="#DejaVuSans-61" transform="translate(575.398438 0)"/>
     <use xlink:href="#DejaVuSans-79" transform="translate(636.677734 0)"/>
     <use xlink:href="#DejaVuSans-20" transform="translate(695.857422 0)"/>
     <use xlink:href="#DejaVuSans-2d" transform="translate(727.644531 0)"/>
     <use xlink:href="#DejaVuSans-20" transform="translate(763.728516 0)"/>
     <use xlink:href="#DejaVuSans-35" transform="translate(795.515625 0)"/>
     <use xlink:href="#DejaVuSans-30" transform="translate(859.138672 0)"/>
     <use xlink:href="#DejaVuSans-30" transform="translate(922.761719 0)"/>
     <use xlink:href="#DejaVuSans-20" transform="translate(986.384766 0)"/>
     <use xlink:href="#DejaVuSans-48" transform="translate(1018.171875 0)"/>
     <use xlink:href="#DejaVuSans-7a" transform="translate(1093.367188 0)"/>
    </g>
   </g>
   <g id="legend_1">
    <g id="patch_7">
     <path d="M 296.968437 108.1845 
L 407.72 108.1845 
Q 409.72 108.1845 409.72 106.1845 
L 409.72 48.472 
Q 409.72 46.472 407.72 46.472 
L 296.968437 46.472 
Q 294.968437 46.472 294.968437 48.472 
L 294.968437 106.1845 
Q 294.968437 108.1845 296.968437 108.1845 
z
" style="fill: #ffffff; opacity: 0.8; stroke: #cccccc; stroke-linejoin: miter"/>
    </g>
    <g id="line2d_19">
     <path d="M 298.968437 54.570438 
L 308.968437 54.570438 
L 318.968437 54.570438 
" style="fill: none; stroke: #1f77b4; stroke-width: 1.5; stroke-linecap: square"/>
    </g>
    <g id="text_17">
     <!-- Energy -->
     <g transform="translate(326.968437 58.070438) scale(0.1 -0.1)">
      <use xlink:href="#DejaVuSans-45"/>
      <use xlink:href="#DejaVuSans-6e" transform="translate(63.183594 0)"/>
      <use xlink:href="#DejaVuSans-65" transform="translate(126.5625 0)"/>
      <use xlink:href="#DejaVuSans-72" transform="translate(188.085938 0)"/>
      <use xlink:href="#DejaVuSans-67" transform="translate(227.449219 0)"/>
      <use xlink:href="#DejaVuSans-79" transform="translate(290.925781 0)"/>
     </g>
    </g>
    <g id="line2d_20">
     <path d="M 298.968437 69.248563 
L 308.968437 69.248563 
L 318.968437 69.248563 
" style="fill: none; stroke-dasharray: 5.55,2.4; stroke-dashoffset: 0; stroke: #ff7f0e; stroke-width: 1.5"/>
    </g>
    <g id="text_18">
     <!-- Linear Fit -->
     <g transform="translate(326.968437 72.748563) scale(0.1 -0.1)">
      <defs>
       <path id="DejaVuSans-4c" d="M 628 4666 
L 1259 4666 
L 1259 531 
L 3531 531 
L 3531 0 
L 628 0 
L 628 4666 
z
" transform="scale(0.015625)"/>
       <path id="DejaVuSans-69" d="M 603 3500 
L 1178 3500 
L 1178 0 
L 603 0 
L 603 3500 
z
M 603 4863 
L 1178 4863 
L 1178 4134 
L 603 4134 
L 603 4863 
z
" transform="scale(0.015625)"/>
       <path id="DejaVuSans-46" d="M 628 4666 
L 3309 4666 
L 3309 4134 
L 1259 4134 
L 1259 2759 
L 3109 2759 
L 3109 2228 
L 1259 2228 
L 1259 0 
L 628 0 
L 628 4666 
z
" transform="scale(0.015625)"/>
       <path id="DejaVuSans-74" d="M 1172 4494 
L 1172 3500 
L 2356 3500 
L 2356 3053 
L 1172 3053 
L 1172 1153 
Q 1172 725 1289 603 
Q 1406 481 1766 481 
L 2356 481 
L 2356 0 
L 1766 0 
Q 1100 0 847 248 
Q 594 497 594 1153 
L 594 3053 
L 172 3053 
L 172 3500 
L 594 3500 
L 594 4494 
L 1172 4494 
z
" transform="scale(0.015625)"/>
      </defs>
      <use xlink:href="#DejaVuSans-4c"/>
      <use xlink:href="#DejaVuSans-69" transform="translate(55.712891 0)"/>
      <use xlink:href="#DejaVuSans-6e" transform="translate(83.496094 0)"/>
      <use xlink:href="#DejaVuSans-65" transform="translate(146.875 0)"/>
      <use xlink:href="#DejaVuSans-61" transform="translate(208.398438 0)"/>
      <use xlink:href="#DejaVuSans-72" transform="translate(269.677734 0)"/>
      <use xlink:href="#DejaVuSans-20" transform="translate(310.791016 0)"/>
      <use xlink:href="#DejaVuSans-46" transform="translate(342.578125 0)"/>
      <use xlink:href="#DejaVuSans-69" transform="translate(392.847656 0)"/>
      <use xlink:href="#DejaVuSans-74" transform="translate(420.630859 0)"/>
     </g>
    </g>
    <g id="line2d_21">
     <path d="M 298.968437 83.926688 
L 308.968437 83.926688 
L 318.968437 83.926688 
" style="fill: none; stroke-dasharray: 5.55,2.4; stroke-dashoffset: 0; stroke: #2ca02c; stroke-width: 1.5"/>
    </g>
    <g id="text_19">
     <!-- -60 dB -->
     <g transform="translate(326.968437 87.426688) scale(0.1 -0.1)">
      <defs>
       <path id="DejaVuSans-64" d="M 2906 2969 
L 2906 4863 
L 3481 4863 
L 3481 0 
L 2906 0 
L 2906 525 
Q 2725 213 2448 61 
Q 2172 -91 1784 -91 
Q 1150 -91 751 415 
Q 353 922 353 1747 
Q 353 2572 751 3078 
Q 1150 3584 1784 3584 
Q 2172 3584 2448 3432 
Q 2725 3281 2906 2969 
z
M 947 1747 
Q 947 1113 1208 752 
Q 1469 391 1925 391 
Q 2381 391 2643 752 
Q 2906 1113 2906 1747 
Q 2906 2381 2643 2742 
Q 2381 3103 1925 3103 
Q 1469 3103 1208 2742 
Q 947 2381 947 1747 
z
" transform="scale(0.015625)"/>
       <path id="DejaVuSans-42" d="M 1259 2228 
L 1259 519 
L 2272 519 
Q 2781 519 3026 730 
Q 3272 941 3272 1375 
Q 3272 1813 3026 2020 
Q 2781 2228 2272 2228 
L 1259 2228 
z
M 1259 4147 
L 1259 2741 
L 2194 2741 
Q 2656 2741 2882 2914 
Q 3109 3088 3109 3444 
Q 3109 3797 2882 3972 
Q 2656 4147 2194 4147 
L 1259 4147 
z
M 628 4666 
L 2241 4666 
Q 2963 4666 3353 4366 
Q 3744 4066 3744 3513 
Q 3744 3084 3544 2831 
Q 3344 2578 2956 2516 
Q 3422 2416 3680 2098 
Q 3938 1781 3938 1306 
Q 3938 681 3513 340 
Q 3088 0 2303 0 
L 628 0 
L 628 4666 
z
" transform="scale(0.015625)"/>
      </defs>
      <use xlink:href="#DejaVuSans-2d"/>
      <use xlink:href="#DejaVuSans-36" transform="translate(36.083984 0)"/>
      <use xlink:href="#DejaVuSans-30" transform="translate(99.707031 0)"/>
      <use xlink:href="#DejaVuSans-20" transform="translate(163.330078 0)"/>
      <use xlink:href="#DejaVuSans-64" transform="translate(195.117188 0)"/>
      <use xlink:href="#DejaVuSans-42" transform="translate(258.59375 0)"/>
     </g>
    </g>
    <g id="line2d_22">
     <path d="M 298.968437 98.604813 
L 318.968437 98.604813 
" style="fill: none; stroke-dasharray: 5.55,2.4; stroke-dashoffset: 0; stroke: #1f77b4; stroke-width: 1.5"/>
    </g>
    <g id="text_20">
     <!-- Estimated RT60 -->
     <g transform="translate(326.968437 102.104813) scale(0.1 -0.1)">
      <defs>
       <path id="DejaVuSans-73" d="M 2834 3397 
L 2834 2853 
Q 2591 2978 2328 3040 
Q 2066 3103 1784 3103 
Q 1356 3103 1142 2972 
Q 928 2841 928 2578 
Q 928 2378 1081 2264 
Q 1234 2150 1697 2047 
L 1894 2003 
Q 2506 1872 2764 1633 
Q 3022 1394 3022 966 
Q 3022 478 2636 193 
Q 2250 -91 1575 -91 
Q 1294 -91 989 -36 
Q 684 19 347 128 
L 347 722 
Q 666 556 975 473 
Q 1284 391 1588 391 
Q 1994 391 2212 530 
Q 2431 669 2431 922 
Q 2431 1156 2273 1281 
Q 2116 1406 1581 1522 
L 1381 1569 
Q 847 1681 609 1914 
Q 372 2147 372 2553 
Q 372 3047 722 3315 
Q 1072 3584 1716 3584 
Q 2034 3584 2315 3537 
Q 2597 3491 2834 3397 
z
" transform="scale(0.015625)"/>
       <path id="DejaVuSans-6d" d="M 3328 2828 
Q 3544 3216 3844 3400 
Q 4144 3584 4550 3584 
Q 5097 3584 5394 3201 
Q 5691 2819 5691 2113 
L 5691 0 
L 5113 0 
L 5113 2094 
Q 5113 2597 4934 2840 
Q 4756 3084 4391 3084 
Q 3944 3084 3684 2787 
Q 3425 2491 3425 1978 
L 3425 0 
L 2847 0 
L 2847 2094 
Q 2847 2600 2669 2842 
Q 2491 3084 2119 3084 
Q 1678 3084 1418 2786 
Q 1159 2488 1159 1978 
L 1159 0 
L 581 0 
L 581 3500 
L 1159 3500 
L 1159 2956 
Q 1356 3278 1631 3431 
Q 1906 3584 2284 3584 
Q 2666 3584 2933 3390 
Q 3200 3197 3328 2828 
z
" transform="scale(0.015625)"/>
       <path id="DejaVuSans-52" d="M 2841 2188 
Q 3044 2119 3236 1894 
Q 3428 1669 3622 1275 
L 4263 0 
L 3584 0 
L 2988 1197 
Q 2756 1666 2539 1819 
Q 2322 1972 1947 1972 
L 1259 1972 
L 1259 0 
L 628 0 
L 628 4666 
L 2053 4666 
Q 2853 4666 3247 4331 
Q 3641 3997 3641 3322 
Q 3641 2881 3436 2590 
Q 3231 2300 2841 2188 
z
M 1259 4147 
L 1259 2491 
L 2053 2491 
Q 2509 2491 2742 2702 
Q 2975 2913 2975 3322 
Q 2975 3731 2742 3939 
Q 2509 4147 2053 4147 
L 1259 4147 
z
" transform="scale(0.015625)"/>
       <path id="DejaVuSans-54" d="M -19 4666 
L 3928 4666 
L 3928 4134 
L 2272 4134 
L 2272 0 
L 1638 0 
L 1638 4134 
L -19 4134 
L -19 4666 
z
" transform="scale(0.015625)"/>
      </defs>
      <use xlink:href="#DejaVuSans-45"/>
      <use xlink:href="#DejaVuSans-73" transform="translate(63.183594 0)"/>
      <use xlink:href="#DejaVuSans-74" transform="translate(115.283203 0)"/>
      <use xlink:href="#DejaVuSans-69" transform="translate(154.492188 0)"/>
      <use xlink:href="#DejaVuSans-6d" transform="translate(182.275391 0)"/>
      <use xlink:href="#DejaVuSans-61" transform="translate(279.6875 0)"/>
      <use xlink:href="#DejaVuSans-74" transform="translate(340.966797 0)"/>
      <use xlink:href="#DejaVuSans-65" transform="translate(380.175781 0)"/>
      <use xlink:href="#DejaVuSans-64" transform="translate(441.699219 0)"/>
      <use xlink:href="#DejaVuSans-20" transform="translate(505.175781 0)"/>
      <use xlink:href="#DejaVuSans-52" transform="translate(536.962891 0)"/>
      <use xlink:href="#DejaVuSans-54" transform="translate(599.195312 0)"/>
      <use xlink:href="#DejaVuSans-36" transform="translate(660.279297 0)"/>
      <use xlink:href="#DejaVuSans-30" transform="translate(723.902344 0)"/>
     </g>
    </g>
   </g>
  </g>
 </g>
 <defs>
  <clipPath id="p3a2ecff641">
   <rect x="57.6" y="41.472" width="357.12" height="266.112"/>
  </clipPath>
 </defs>
</svg>
