<?xml version="1.0" encoding="utf-8" standalone="no"?>
<!DOCTYPE svg PUBLIC "-//W3C//DTD SVG 1.1//EN"
  "http://www.w3.org/Graphics/SVG/1.1/DTD/svg11.dtd">
<svg xmlns:xlink="http://www.w3.org/1999/xlink" width="460.8pt" height="345.6pt" viewBox="0 0 460.8 345.6" xmlns="http://www.w3.org/2000/svg" version="1.1">
 <metadata>
  <rdf:RDF xmlns:dc="http://purl.org/dc/elements/1.1/" xmlns:cc="http://creativecommons.org/ns#" xmlns:rdf="http://www.w3.org/1999/02/22-rdf-syntax-ns#">
   <cc:Work>
    <dc:type rdf:resource="http://purl.org/dc/dcmitype/StillImage"/>
    <dc:date>2025-05-07T10:18:29.718160</dc:date>
    <dc:format>image/svg+xml</dc:format>
    <dc:creator>
     <cc:Agent>
      <dc:title>Matplotlib v3.10.1, https://matplotlib.org/</dc:title>
     </cc:Agent>
    </dc:creator>
   </cc:Work>
  </rdf:RDF>
 </metadata>
 <defs>
  <style type="text/css">*{stroke-linejoin: round; stroke-linecap: butt}</style>
 </defs>
 <g id="figure_1">
  <g id="patch_1">
   <path d="M 0 345.6 
L 460.8 345.6 
L 460.8 0 
L 0 0 
z
" style="fill: #ffffff"/>
  </g>
  <g id="axes_1">
   <g id="patch_2">
    <path d="M 57.6 307.584 
L 414.72 307.584 
L 414.72 41.472 
L 57.6 41.472 
z
" style="fill: #ffffff"/>
   </g>
   <g id="matplotlib.axis_1">
    <g id="xtick_1">
     <g id="line2d_1">
      <defs>
       <path id="mc303ba5d8c" d="M 0 0 
L 0 3.5 
" style="stroke: #000000; stroke-width: 0.8"/>
      </defs>
      <g>
       <use xlink:href="#mc303ba5d8c" x="68.272306" y="307.584" style="stroke: #000000; stroke-width: 0.8"/>
      </g>
     </g>
     <g id="text_1">
      <!-- −0.2 -->
      <g transform="translate(56.1309 322.182437) scale(0.1 -0.1)">
       <defs>
        <path id="DejaVuSans-2212" d="M 678 2272 
L 4684 2272 
L 4684 1741 
L 678 1741 
L 678 2272 
z
" transform="scale(0.015625)"/>
        <path id="DejaVuSans-30" d="M 2034 4250 
Q 1547 4250 1301 3770 
Q 1056 3291 1056 2328 
Q 1056 1369 1301 889 
Q 1547 409 2034 409 
Q 2525 409 2770 889 
Q 3016 1369 3016 2328 
Q 3016 3291 2770 3770 
Q 2525 4250 2034 4250 
z
M 2034 4750 
Q 2819 4750 3233 4129 
Q 3647 3509 3647 2328 
Q 3647 1150 3233 529 
Q 2819 -91 2034 -91 
Q 1250 -91 836 529 
Q 422 1150 422 2328 
Q 422 3509 836 4129 
Q 1250 4750 2034 4750 
z
" transform="scale(0.015625)"/>
        <path id="DejaVuSans-2e" d="M 684 794 
L 1344 794 
L 1344 0 
L 684 0 
L 684 794 
z
" transform="scale(0.015625)"/>
        <path id="DejaVuSans-32" d="M 1228 531 
L 3431 531 
L 3431 0 
L 469 0 
L 469 531 
Q 828 903 1448 1529 
Q 2069 2156 2228 2338 
Q 2531 2678 2651 2914 
Q 2772 3150 2772 3378 
Q 2772 3750 2511 3984 
Q 2250 4219 1831 4219 
Q 1534 4219 1204 4116 
Q 875 4013 500 3803 
L 500 4441 
Q 881 4594 1212 4672 
Q 1544 4750 1819 4750 
Q 2544 4750 2975 4387 
Q 3406 4025 3406 3419 
Q 3406 3131 3298 2873 
Q 3191 2616 2906 2266 
Q 2828 2175 2409 1742 
Q 1991 1309 1228 531 
z
" transform="scale(0.015625)"/>
       </defs>
       <use xlink:href="#DejaVuSans-2212"/>
       <use xlink:href="#DejaVuSans-30" transform="translate(83.789062 0)"/>
       <use xlink:href="#DejaVuSans-2e" transform="translate(147.412109 0)"/>
       <use xlink:href="#DejaVuSans-32" transform="translate(179.199219 0)"/>
      </g>
     </g>
    </g>
    <g id="xtick_2">
     <g id="line2d_2">
      <g>
       <use xlink:href="#mc303ba5d8c" x="136.620632" y="307.584" style="stroke: #000000; stroke-width: 0.8"/>
      </g>
     </g>
     <g id="text_2">
      <!-- 0.0 -->
      <g transform="translate(128.669069 322.182437) scale(0.1 -0.1)">
       <use xlink:href="#DejaVuSans-30"/>
       <use xlink:href="#DejaVuSans-2e" transform="translate(63.623047 0)"/>
       <use xlink:href="#DejaVuSans-30" transform="translate(95.410156 0)"/>
      </g>
     </g>
    </g>
    <g id="xtick_3">
     <g id="line2d_3">
      <g>
       <use xlink:href="#mc303ba5d8c" x="204.968957" y="307.584" style="stroke: #000000; stroke-width: 0.8"/>
      </g>
     </g>
     <g id="text_3">
      <!-- 0.2 -->
      <g transform="translate(197.017394 322.182437) scale(0.1 -0.1)">
       <use xlink:href="#DejaVuSans-30"/>
       <use xlink:href="#DejaVuSans-2e" transform="translate(63.623047 0)"/>
       <use xlink:href="#DejaVuSans-32" transform="translate(95.410156 0)"/>
      </g>
     </g>
    </g>
    <g id="xtick_4">
     <g id="line2d_4">
      <g>
       <use xlink:href="#mc303ba5d8c" x="273.317282" y="307.584" style="stroke: #000000; stroke-width: 0.8"/>
      </g>
     </g>
     <g id="text_4">
      <!-- 0.4 -->
      <g transform="translate(265.36572 322.182437) scale(0.1 -0.1)">
       <defs>
        <path id="DejaVuSans-34" d="M 2419 4116 
L 825 1625 
L 2419 1625 
L 2419 4116 
z
M 2253 4666 
L 3047 4666 
L 3047 1625 
L 3713 1625 
L 3713 1100 
L 3047 1100 
L 3047 0 
L 2419 0 
L 2419 1100 
L 313 1100 
L 313 1709 
L 2253 4666 
z
" transform="scale(0.015625)"/>
       </defs>
       <use xlink:href="#DejaVuSans-30"/>
       <use xlink:href="#DejaVuSans-2e" transform="translate(63.623047 0)"/>
       <use xlink:href="#DejaVuSans-34" transform="translate(95.410156 0)"/>
      </g>
     </g>
    </g>
    <g id="xtick_5">
     <g id="line2d_5">
      <g>
       <use xlink:href="#mc303ba5d8c" x="341.665608" y="307.584" style="stroke: #000000; stroke-width: 0.8"/>
      </g>
     </g>
     <g id="text_5">
      <!-- 0.6 -->
      <g transform="translate(333.714045 322.182437) scale(0.1 -0.1)">
       <defs>
        <path id="DejaVuSans-36" d="M 2113 2584 
Q 1688 2584 1439 2293 
Q 1191 2003 1191 1497 
Q 1191 994 1439 701 
Q 1688 409 2113 409 
Q 2538 409 2786 701 
Q 3034 994 3034 1497 
Q 3034 2003 2786 2293 
Q 2538 2584 2113 2584 
z
M 3366 4563 
L 3366 3988 
Q 3128 4100 2886 4159 
Q 2644 4219 2406 4219 
Q 1781 4219 1451 3797 
Q 1122 3375 1075 2522 
Q 1259 2794 1537 2939 
Q 1816 3084 2150 3084 
Q 2853 3084 3261 2657 
Q 3669 2231 3669 1497 
Q 3669 778 3244 343 
Q 2819 -91 2113 -91 
Q 1303 -91 875 529 
Q 447 1150 447 2328 
Q 447 3434 972 4092 
Q 1497 4750 2381 4750 
Q 2619 4750 2861 4703 
Q 3103 4656 3366 4563 
z
" transform="scale(0.015625)"/>
       </defs>
       <use xlink:href="#DejaVuSans-30"/>
       <use xlink:href="#DejaVuSans-2e" transform="translate(63.623047 0)"/>
       <use xlink:href="#DejaVuSans-36" transform="translate(95.410156 0)"/>
      </g>
     </g>
    </g>
    <g id="xtick_6">
     <g id="line2d_6">
      <g>
       <use xlink:href="#mc303ba5d8c" x="410.013933" y="307.584" style="stroke: #000000; stroke-width: 0.8"/>
      </g>
     </g>
     <g id="text_6">
      <!-- 0.8 -->
      <g transform="translate(402.062371 322.182437) scale(0.1 -0.1)">
       <defs>
        <path id="DejaVuSans-38" d="M 2034 2216 
Q 1584 2216 1326 1975 
Q 1069 1734 1069 1313 
Q 1069 891 1326 650 
Q 1584 409 2034 409 
Q 2484 409 2743 651 
Q 3003 894 3003 1313 
Q 3003 1734 2745 1975 
Q 2488 2216 2034 2216 
z
M 1403 2484 
Q 997 2584 770 2862 
Q 544 3141 544 3541 
Q 544 4100 942 4425 
Q 1341 4750 2034 4750 
Q 2731 4750 3128 4425 
Q 3525 4100 3525 3541 
Q 3525 3141 3298 2862 
Q 3072 2584 2669 2484 
Q 3125 2378 3379 2068 
Q 3634 1759 3634 1313 
Q 3634 634 3220 271 
Q 2806 -91 2034 -91 
Q 1263 -91 848 271 
Q 434 634 434 1313 
Q 434 1759 690 2068 
Q 947 2378 1403 2484 
z
M 1172 3481 
Q 1172 3119 1398 2916 
Q 1625 2713 2034 2713 
Q 2441 2713 2670 2916 
Q 2900 3119 2900 3481 
Q 2900 3844 2670 4047 
Q 2441 4250 2034 4250 
Q 1625 4250 1398 4047 
Q 1172 3844 1172 3481 
z
" transform="scale(0.015625)"/>
       </defs>
       <use xlink:href="#DejaVuSans-30"/>
       <use xlink:href="#DejaVuSans-2e" transform="translate(63.623047 0)"/>
       <use xlink:href="#DejaVuSans-38" transform="translate(95.410156 0)"/>
      </g>
     </g>
    </g>
   </g>
   <g id="matplotlib.axis_2">
    <g id="ytick_1">
     <g id="line2d_7">
      <defs>
       <path id="md47c684d80" d="M 0 0 
L -3.5 0 
" style="stroke: #000000; stroke-width: 0.8"/>
      </defs>
      <g>
       <use xlink:href="#md47c684d80" x="57.6" y="297.132999" style="stroke: #000000; stroke-width: 0.8"/>
      </g>
     </g>
     <g id="text_7">
      <!-- −175 -->
      <g transform="translate(23.132812 300.932218) scale(0.1 -0.1)">
       <defs>
        <path id="DejaVuSans-31" d="M 794 531 
L 1825 531 
L 1825 4091 
L 703 3866 
L 703 4441 
L 1819 4666 
L 2450 4666 
L 2450 531 
L 3481 531 
L 3481 0 
L 794 0 
L 794 531 
z
" transform="scale(0.015625)"/>
        <path id="DejaVuSans-37" d="M 525 4666 
L 3525 4666 
L 3525 4397 
L 1831 0 
L 1172 0 
L 2766 4134 
L 525 4134 
L 525 4666 
z
" transform="scale(0.015625)"/>
        <path id="DejaVuSans-35" d="M 691 4666 
L 3169 4666 
L 3169 4134 
L 1269 4134 
L 1269 2991 
Q 1406 3038 1543 3061 
Q 1681 3084 1819 3084 
Q 2600 3084 3056 2656 
Q 3513 2228 3513 1497 
Q 3513 744 3044 326 
Q 2575 -91 1722 -91 
Q 1428 -91 1123 -41 
Q 819 9 494 109 
L 494 744 
Q 775 591 1075 516 
Q 1375 441 1709 441 
Q 2250 441 2565 725 
Q 2881 1009 2881 1497 
Q 2881 1984 2565 2268 
Q 2250 2553 1709 2553 
Q 1456 2553 1204 2497 
Q 953 2441 691 2322 
L 691 4666 
z
" transform="scale(0.015625)"/>
       </defs>
       <use xlink:href="#DejaVuSans-2212"/>
       <use xlink:href="#DejaVuSans-31" transform="translate(83.789062 0)"/>
       <use xlink:href="#DejaVuSans-37" transform="translate(147.412109 0)"/>
       <use xlink:href="#DejaVuSans-35" transform="translate(211.035156 0)"/>
      </g>
     </g>
    </g>
    <g id="ytick_2">
     <g id="line2d_8">
      <g>
       <use xlink:href="#md47c684d80" x="57.6" y="262.337999" style="stroke: #000000; stroke-width: 0.8"/>
      </g>
     </g>
     <g id="text_8">
      <!-- −150 -->
      <g transform="translate(23.132812 266.137218) scale(0.1 -0.1)">
       <use xlink:href="#DejaVuSans-2212"/>
       <use xlink:href="#DejaVuSans-31" transform="translate(83.789062 0)"/>
       <use xlink:href="#DejaVuSans-35" transform="translate(147.412109 0)"/>
       <use xlink:href="#DejaVuSans-30" transform="translate(211.035156 0)"/>
      </g>
     </g>
    </g>
    <g id="ytick_3">
     <g id="line2d_9">
      <g>
       <use xlink:href="#md47c684d80" x="57.6" y="227.542999" style="stroke: #000000; stroke-width: 0.8"/>
      </g>
     </g>
     <g id="text_9">
      <!-- −125 -->
      <g transform="translate(23.132812 231.342218) scale(0.1 -0.1)">
       <use xlink:href="#DejaVuSans-2212"/>
       <use xlink:href="#DejaVuSans-31" transform="translate(83.789062 0)"/>
       <use xlink:href="#DejaVuSans-32" transform="translate(147.412109 0)"/>
       <use xlink:href="#DejaVuSans-35" transform="translate(211.035156 0)"/>
      </g>
     </g>
    </g>
    <g id="ytick_4">
     <g id="line2d_10">
      <g>
       <use xlink:href="#md47c684d80" x="57.6" y="192.748" style="stroke: #000000; stroke-width: 0.8"/>
      </g>
     </g>
     <g id="text_10">
      <!-- −100 -->
      <g transform="translate(23.132812 196.547218) scale(0.1 -0.1)">
       <use xlink:href="#DejaVuSans-2212"/>
       <use xlink:href="#DejaVuSans-31" transform="translate(83.789062 0)"/>
       <use xlink:href="#DejaVuSans-30" transform="translate(147.412109 0)"/>
       <use xlink:href="#DejaVuSans-30" transform="translate(211.035156 0)"/>
      </g>
     </g>
    </g>
    <g id="ytick_5">
     <g id="line2d_11">
      <g>
       <use xlink:href="#md47c684d80" x="57.6" y="157.953" style="stroke: #000000; stroke-width: 0.8"/>
      </g>
     </g>
     <g id="text_11">
      <!-- −75 -->
      <g transform="translate(29.495313 161.752218) scale(0.1 -0.1)">
       <use xlink:href="#DejaVuSans-2212"/>
       <use xlink:href="#DejaVuSans-37" transform="translate(83.789062 0)"/>
       <use xlink:href="#DejaVuSans-35" transform="translate(147.412109 0)"/>
      </g>
     </g>
    </g>
    <g id="ytick_6">
     <g id="line2d_12">
      <g>
       <use xlink:href="#md47c684d80" x="57.6" y="123.158" style="stroke: #000000; stroke-width: 0.8"/>
      </g>
     </g>
     <g id="text_12">
      <!-- −50 -->
      <g transform="translate(29.495313 126.957219) scale(0.1 -0.1)">
       <use xlink:href="#DejaVuSans-2212"/>
       <use xlink:href="#DejaVuSans-35" transform="translate(83.789062 0)"/>
       <use xlink:href="#DejaVuSans-30" transform="translate(147.412109 0)"/>
      </g>
     </g>
    </g>
    <g id="ytick_7">
     <g id="line2d_13">
      <g>
       <use xlink:href="#md47c684d80" x="57.6" y="88.363" style="stroke: #000000; stroke-width: 0.8"/>
      </g>
     </g>
     <g id="text_13">
      <!-- −25 -->
      <g transform="translate(29.495313 92.162219) scale(0.1 -0.1)">
       <use xlink:href="#DejaVuSans-2212"/>
       <use xlink:href="#DejaVuSans-32" transform="translate(83.789062 0)"/>
       <use xlink:href="#DejaVuSans-35" transform="translate(147.412109 0)"/>
      </g>
     </g>
    </g>
    <g id="ytick_8">
     <g id="line2d_14">
      <g>
       <use xlink:href="#md47c684d80" x="57.6" y="53.568" style="stroke: #000000; stroke-width: 0.8"/>
      </g>
     </g>
     <g id="text_14">
      <!-- 0 -->
      <g transform="translate(44.2375 57.367219) scale(0.1 -0.1)">
       <use xlink:href="#DejaVuSans-30"/>
      </g>
     </g>
    </g>
   </g>
   <g id="line2d_15">
    <path d="M 73.832727 53.568 
L 129.244708 53.674114 
L 129.323024 53.881205 
L 129.472536 54.403242 
L 129.529493 54.486526 
L 129.735962 54.971554 
L 130.939177 55.652737 
L 131.124287 55.846443 
L 131.366354 55.984869 
L 131.430431 56.125394 
L 131.700976 57.189357 
L 132.939789 57.82131 
L 133.11778 58.084053 
L 133.352727 58.249942 
L 133.594794 58.368593 
L 133.744306 58.480697 
L 134.271158 58.700441 
L 134.456268 58.862624 
L 134.555943 59.011568 
L 134.78377 59.301363 
L 135.367579 59.431473 
L 135.581167 59.511457 
L 135.858833 59.618443 
L 136.08666 59.851047 
L 136.257531 59.961103 
L 137.311234 61.144144 
L 137.695694 61.293631 
L 137.859445 61.369556 
L 138.001837 61.471552 
L 138.14423 61.648311 
L 138.69244 61.788116 
L 138.813474 61.943041 
L 138.984344 62.171674 
L 139.105378 62.28289 
L 139.290488 62.590456 
L 139.482718 62.706234 
L 140.045167 63.254782 
L 140.230278 63.633458 
L 140.486584 63.749786 
L 141.127349 64.108528 
L 141.326699 64.419101 
L 141.882029 65.287825 
L 142.04578 65.413831 
L 142.188172 65.594746 
L 142.40888 65.691464 
L 142.558392 65.787497 
L 143.448344 66.292953 
L 143.640574 66.543136 
L 144.217263 66.728596 
L 144.452211 67.135978 
L 144.658679 67.236886 
L 144.808191 67.362011 
L 144.929225 67.559614 
L 145.092976 67.674597 
L 145.420478 67.782513 
L 145.655426 68.090878 
L 145.719502 68.187097 
L 145.883254 68.329611 
L 146.068364 68.469808 
L 146.224995 68.583856 
L 147.036632 69.085891 
L 147.200383 69.248459 
L 148.958928 70.177813 
L 149.165397 70.280231 
L 149.4929 70.390688 
L 149.720727 70.564406 
L 149.955675 70.673165 
L 150.617799 71.148741 
L 150.738833 71.253416 
L 150.881225 71.325714 
L 151.578947 71.718952 
L 152.4689 72.023916 
L 153.20222 72.541122 
L 153.558201 72.77475 
L 153.707713 72.891216 
L 154.220325 73.278588 
L 154.490871 73.507551 
L 154.654622 73.54836 
L 155.003483 73.663933 
L 155.508976 73.940866 
L 155.686967 74.222637 
L 155.886316 74.445161 
L 156.050067 74.743864 
L 157.11089 75.145084 
L 157.281761 75.318237 
L 158.100517 75.716483 
L 158.349703 75.826425 
L 159.047426 76.166338 
L 159.196938 76.215888 
L 159.52444 76.328012 
L 159.659713 76.397912 
L 160.07977 76.566506 
L 160.421512 76.656808 
L 160.585263 76.780421 
L 160.699177 76.93115 
L 160.870048 77.04059 
L 163.532785 78.067577 
L 163.682297 78.170342 
L 163.789091 78.279612 
L 164.066756 78.386774 
L 164.18067 78.498175 
L 164.351541 78.657761 
L 164.508172 78.715931 
L 165.184536 78.822545 
L 165.818182 79.118504 
L 165.946335 79.24138 
L 166.793569 79.658021 
L 166.992919 79.716951 
L 167.277703 79.831398 
L 167.53401 79.971919 
L 167.861512 80.08178 
L 168.64467 80.647247 
L 169.413589 80.906047 
L 169.890603 81.026537 
L 170.118431 81.305279 
L 170.289301 81.44728 
L 171.278928 81.799604 
L 171.442679 82.005711 
L 171.777301 82.04197 
L 172.261435 82.178999 
L 172.831005 82.534118 
L 173.493129 82.707109 
L 173.65688 82.793243 
L 173.927426 82.91192 
L 174.333244 83.213469 
L 175.009608 83.350376 
L 175.173359 83.433171 
L 175.408306 83.527367 
L 175.742928 83.664693 
L 176.08467 83.881482 
L 176.732555 84.093036 
L 177.0031 84.214553 
L 177.273646 84.314559 
L 177.416038 84.387387 
L 177.836096 84.511624 
L 178.071043 84.549964 
L 178.512459 84.698956 
L 179.003713 84.952712 
L 179.480727 85.069786 
L 179.672957 85.262694 
L 180.121493 85.459134 
L 180.306603 85.505476 
L 180.748019 85.619701 
L 180.975847 85.681163 
L 181.702048 85.911129 
L 181.908517 85.997863 
L 182.364172 86.310747 
L 182.58488 86.379615 
L 182.791349 86.489483 
L 182.997818 86.549666 
L 184.122718 86.975687 
L 184.300708 87.052325 
L 184.514297 87.163699 
L 185.076746 87.427608 
L 185.468325 87.61583 
L 185.653435 87.706455 
L 186.045014 87.832466 
L 186.408115 88.036071 
L 186.813933 88.217331 
L 187.155675 88.351742 
L 187.547254 88.505797 
L 187.718124 88.699949 
L 188.230737 88.846316 
L 188.422967 88.902827 
L 190.815158 89.625795 
L 191.057225 89.755142 
L 191.285053 89.77558 
L 191.826144 89.904517 
L 192.068211 89.964337 
L 192.538105 90.13375 
L 192.687617 90.234455 
L 192.858488 90.336967 
L 193.627407 90.575634 
L 194.389206 90.969799 
L 194.908938 91.103075 
L 196.297263 92.017934 
L 196.674603 92.170726 
L 198.511464 92.731085 
L 198.846086 92.869811 
L 199.031196 93.013634 
L 199.664842 93.251862 
L 199.999464 93.423938 
L 200.191694 93.507541 
L 201.580019 94.232929 
L 201.715292 94.346215 
L 202.327579 94.600561 
L 202.49133 94.849679 
L 202.875789 94.973182 
L 203.025301 95.035748 
L 203.23177 95.15272 
L 203.395522 95.216746 
L 203.929493 95.463342 
L 204.335311 95.745455 
L 204.556019 95.85653 
L 204.90488 96.016709 
L 206.499675 96.454041 
L 206.720383 96.539331 
L 207.382507 96.727244 
L 208.585722 97.107058 
L 208.948823 97.242109 
L 209.126813 97.364187 
L 210.194756 97.958302 
L 210.358507 98.138987 
L 212.337761 98.91439 
L 213.249072 99.103795 
L 213.697608 99.243972 
L 214.416689 99.437753 
L 215.14289 99.776562 
L 215.406316 99.944411 
L 215.854852 100.227372 
L 216.310507 100.323626 
L 216.474258 100.490384 
L 217.050947 100.627358 
L 217.250297 100.712765 
L 217.584919 100.846 
L 217.734431 100.894764 
L 220.147981 102.124888 
L 220.283254 102.254357 
L 220.617876 102.445597 
L 220.781627 102.550909 
L 221.194565 102.686906 
L 221.393914 102.751081 
L 222.006201 102.89683 
L 222.675445 103.117584 
L 222.846316 103.327762 
L 223.202297 103.436733 
L 223.964096 103.691088 
L 224.220402 103.806824 
L 224.718775 104.100369 
L 224.889646 104.252735 
L 226.11422 104.746449 
L 226.598354 104.862719 
L 228.292823 105.444214 
L 228.470813 105.553148 
L 228.819675 105.65786 
L 229.019024 105.792708 
L 229.695388 105.921947 
L 231.026756 106.416905 
L 231.32578 106.534066 
L 232.842258 107.101563 
L 233.013129 107.16388 
L 233.333512 107.282137 
L 233.511502 107.392211 
L 233.853244 107.583853 
L 234.016995 107.648929 
L 234.372976 107.781013 
L 234.686239 108.042781 
L 235.611789 108.314365 
L 235.761301 108.368878 
L 235.882335 108.498491 
L 236.038967 108.642809 
L 236.188478 108.740146 
L 236.658373 108.845329 
L 236.971636 108.998508 
L 237.384574 109.153716 
L 237.911426 109.371574 
L 238.224689 109.480803 
L 238.445397 109.55255 
L 238.94377 109.723108 
L 239.207196 109.828278 
L 239.776766 110.128674 
L 240.040191 110.3002 
L 240.410411 110.434489 
L 241.065416 111.085329 
L 241.613627 111.312749 
L 241.777378 111.389876 
L 242.140478 111.592387 
L 242.318469 111.767352 
L 242.496459 111.86578 
L 242.994833 112.034426 
L 243.42201 112.143831 
L 244.34756 112.382265 
L 244.675062 112.508936 
L 246.127464 112.946045 
L 246.647196 113.26739 
L 247.060134 113.376623 
L 247.366278 113.485713 
L 247.757856 113.594793 
L 247.964325 113.682491 
L 248.206392 113.79492 
L 248.348785 113.851643 
L 248.868517 113.96257 
L 249.701512 114.237796 
L 249.843904 114.301677 
L 250.527388 114.501769 
L 250.698258 114.552165 
L 251.061359 114.664904 
L 251.23223 114.777164 
L 251.616689 114.88765 
L 251.773321 114.963902 
L 253.140287 115.537997 
L 253.325397 115.654351 
L 254.357742 115.802158 
L 254.606928 115.980895 
L 259.498105 117.372206 
L 259.718813 117.476997 
L 260.245665 117.599493 
L 260.459254 117.623267 
L 260.601646 117.723132 
L 260.758278 117.860162 
L 261.121378 117.974094 
L 261.63399 118.17361 
L 262.182201 118.464358 
L 262.345952 118.674221 
L 262.915522 118.932887 
L 263.641722 119.049075 
L 263.727158 119.16102 
L 263.976344 119.296391 
L 264.581512 119.406404 
L 265.051407 119.58507 
L 266.119349 119.887723 
L 266.596364 120.13808 
L 267.60023 120.375684 
L 270.861014 121.21158 
L 271.829282 121.353834 
L 272.06423 121.422349 
L 276.983885 122.443938 
L 277.140517 122.532484 
L 277.660249 122.675644 
L 277.852478 122.706813 
L 278.322373 122.842036 
L 278.649876 122.919125 
L 279.383196 123.036416 
L 279.995483 123.161862 
L 280.593531 123.281688 
L 286.274986 124.315975 
L 286.467215 124.422768 
L 286.873033 124.594436 
L 288.823809 125.012654 
L 289.023158 125.051847 
L 289.91311 125.212687 
L 290.738986 125.4426 
L 291.77133 125.558445 
L 292.006278 125.674503 
L 292.938947 125.805569 
L 294.00689 125.983291 
L 294.206239 126.053195 
L 295.217225 126.166687 
L 295.701359 126.357861 
L 298.015234 126.791958 
L 298.720077 126.922503 
L 306.587254 128.066131 
L 306.879158 128.117057 
L 307.633837 128.230756 
L 307.833187 128.266831 
L 309.050641 128.38284 
L 309.976191 128.491135 
L 310.18978 128.556593 
L 311.001416 128.717746 
L 311.150928 128.784655 
L 314.888727 129.226639 
L 315.714603 129.345964 
L 327.867789 130.949718 
L 328.074258 130.969716 
L 328.629589 131.099499 
L 329.818565 131.219365 
L 332.146679 131.572419 
L 333.043751 131.695469 
L 333.307177 131.768322 
L 334.197129 131.883675 
L 334.780938 132.023359 
L 335.122679 132.071358 
L 335.713608 132.182519 
L 336.055349 132.23795 
L 337.564708 132.393866 
L 338.661129 132.575061 
L 339.309014 132.692739 
L 339.529722 132.764607 
L 343.466871 133.671478 
L 343.6591 133.738933 
L 344.178833 133.858521 
L 344.484976 133.893622 
L 345.317971 134.022994 
L 347.788478 134.353107 
L 348.735388 134.490423 
L 348.998813 134.518704 
L 350.002679 134.629671 
L 350.650565 134.759141 
L 351.29845 134.863252 
L 351.839541 134.974004 
L 352.387751 135.017682 
L 352.871885 135.12909 
L 353.911349 135.333722 
L 354.160536 135.530813 
L 354.466679 135.638786 
L 354.616191 135.6971 
L 355.19288 135.841216 
L 355.449187 135.906255 
L 356.31778 136.037698 
L 356.951426 136.123814 
L 357.421321 136.232228 
L 357.649148 136.365793 
L 358.389589 136.507598 
L 359.030354 136.850062 
L 360.012861 137.318541 
L 360.190852 137.396598 
L 360.440038 137.471275 
L 360.860096 137.581557 
L 363.999847 138.671264 
L 364.220555 138.701439 
L 364.555177 138.818935 
L 364.733167 138.900515 
L 365.039311 139.010224 
L 365.850947 139.779111 
L 366.000459 139.932339 
L 366.335081 139.97992 
L 366.527311 140.090856 
L 366.954488 140.381457 
L 367.160957 140.491095 
L 368.734392 141.369886 
L 368.855426 141.484976 
L 369.004938 141.542833 
L 369.303962 141.76908 
L 369.460593 141.833949 
L 369.759617 141.964056 
L 369.923368 142.081588 
L 370.08 142.276694 
L 370.236632 142.431326 
L 370.414622 142.541571 
L 370.663809 142.660099 
L 370.877397 142.852557 
L 371.019789 142.962598 
L 371.19778 143.185422 
L 371.525282 143.327661 
L 371.681914 143.471933 
L 371.824306 143.54203 
L 372.087732 143.664078 
L 372.201646 143.822198 
L 372.479311 144.165066 
L 372.728498 144.250838 
L 372.821053 144.341437 
L 373.020402 144.674897 
L 373.169914 144.729569 
L 373.411981 144.86403 
L 373.575732 145.001602 
L 373.725244 145.150052 
L 373.874756 145.299802 
L 374.088344 145.400898 
L 375.021014 147.106428 
L 375.85401 147.732191 
L 376.02488 147.881177 
L 376.21711 148.017509 
L 376.3951 148.156499 
L 376.544612 148.355635 
L 378.239081 149.197674 
L 378.303158 149.293986 
L 378.466909 149.54551 
L 378.858488 150.062603 
L 379.164632 151.294164 
L 379.349742 151.338438 
L 379.456536 151.423649 
L 379.620287 151.798588 
L 379.805397 152.023068 
L 380.111541 152.171975 
L 380.30377 152.380952 
L 380.382086 152.482711 
L 380.538718 152.670859 
L 380.923177 152.985129 
L 381.151005 153.14566 
L 381.378833 153.256582 
L 381.592421 153.689805 
L 382.083675 154.310707 
L 382.339981 154.873663 
L 382.36134 154.943268 
L 382.496612 155.148772 
L 382.695962 156.134305 
L 382.888191 156.726903 
L 383.09466 157.040026 
L 383.258411 157.246624 
L 383.429282 157.893432 
L 383.585914 158.055886 
L 383.749665 158.238376 
L 383.899177 158.440772 
L 383.977493 158.52695 
L 384.162603 159.016762 
L 384.255158 159.130659 
L 384.283636 159.256122 
L 384.532823 160.564106 
L 384.682335 160.960435 
L 384.824727 161.216224 
L 384.917282 161.333321 
L 385.223426 161.60714 
L 385.422775 161.755317 
L 385.693321 162.34576 
L 385.757397 162.43763 
L 385.935388 162.836258 
L 385.956746 162.927676 
L 386.092019 163.204961 
L 386.177455 163.276617 
L 386.348325 163.631198 
L 386.611751 164.039171 
L 386.796861 165.189732 
L 386.925014 165.545597 
L 387.088766 166.22652 
L 387.288115 166.401354 
L 387.409148 166.497911 
L 387.715292 167.858444 
L 387.893282 167.962806 
L 388.2991 169.210892 
L 388.348938 169.289101 
L 388.640842 170.781967 
L 388.68356 170.909368 
L 389.032421 171.740424 
L 389.167694 172.116009 
L 389.409761 172.595872 
L 389.61623 173.895306 
L 389.79422 174.045623 
L 389.936612 174.288483 
L 389.98645 174.500587 
L 390.185799 175.474225 
L 390.370909 176.101278 
L 390.442105 176.221812 
L 390.612976 177.308927 
L 390.662813 177.410598 
L 390.876402 178.470491 
L 390.91912 179.126036 
L 391.10423 181.150389 
L 391.203904 181.479808 
L 391.396134 182.154469 
L 391.495809 182.37061 
L 391.716517 183.895347 
L 391.84467 184.13094 
L 391.887388 184.311528 
L 392.02266 184.540689 
L 392.072498 184.630361 
L 392.414239 186.326185 
L 392.535273 186.720326 
L 392.691904 187.469717 
L 392.748861 187.625907 
L 392.827177 188.04082 
L 392.983809 188.471871 
L 393.161799 189.018758 
L 393.33267 189.821907 
L 393.361148 189.907841 
L 393.69577 191.92479 
L 393.717129 192.007953 
L 394.25822 198.641736 
L 394.365014 199.240022 
L 394.500287 199.587109 
L 394.564364 199.697193 
L 395.0129 201.227679 
L 395.034258 201.34838 
L 395.532632 205.186855 
L 395.696383 206.284637 
L 395.845895 207.420529 
L 395.895732 207.632163 
L 396.080842 209.476066 
L 396.152038 209.683378 
L 396.422584 212.757485 
L 396.607694 217.403272 
L 396.643292 217.533166 
L 396.949435 224.446249 
L 397.091828 225.371395 
L 397.113187 225.619223 
L 397.348134 229.431155 
L 397.362373 229.537947 
L 397.547483 232.108707 
L 397.561722 232.183847 
L 398.34488 276.578812 
L 398.480153 295.488 
L 398.480153 295.488 
" clip-path="url(#pe08aac6473)" style="fill: none; stroke: #1f77b4; stroke-width: 1.5; stroke-linecap: square"/>
   </g>
   <g id="line2d_16">
    <path d="M 136.620632 60.535938 
L 372.408115 144.035 
" clip-path="url(#pe08aac6473)" style="fill: none; stroke-dasharray: 5.55,2.4; stroke-dashoffset: 0; stroke: #ff7f0e; stroke-width: 1.5"/>
   </g>
   <g id="line2d_17">
    <path d="M 73.832727 137.076 
L 398.487273 137.076 
L 398.487273 137.076 
" clip-path="url(#pe08aac6473)" style="fill: none; stroke-dasharray: 5.55,2.4; stroke-dashoffset: 0; stroke: #2ca02c; stroke-width: 1.5"/>
   </g>
   <g id="LineCollection_1">
    <path d="M 372.408115 295.488 
L 372.408115 53.568 
" clip-path="url(#pe08aac6473)" style="fill: none; stroke-dasharray: 5.55,2.4; stroke-dashoffset: 0; stroke: #1f77b4; stroke-width: 1.5"/>
   </g>
   <g id="patch_3">
    <path d="M 57.6 307.584 
L 57.6 41.472 
" style="fill: none; stroke: #000000; stroke-width: 0.8; stroke-linejoin: miter; stroke-linecap: square"/>
   </g>
   <g id="patch_4">
    <path d="M 414.72 307.584 
L 414.72 41.472 
" style="fill: none; stroke: #000000; stroke-width: 0.8; stroke-linejoin: miter; stroke-linecap: square"/>
   </g>
   <g id="patch_5">
    <path d="M 57.6 307.584 
L 414.72 307.584 
" style="fill: none; stroke: #000000; stroke-width: 0.8; stroke-linejoin: miter; stroke-linecap: square"/>
   </g>
   <g id="patch_6">
    <path d="M 57.6 41.472 
L 414.72 41.472 
" style="fill: none; stroke: #000000; stroke-width: 0.8; stroke-linejoin: miter; stroke-linecap: square"/>
   </g>
   <g id="text_15">
    <!-- Energy Decay - 4000 Hz -->
    <g transform="translate(163.59 35.472) scale(0.12 -0.12)">
     <defs>
      <path id="DejaVuSans-45" d="M 628 4666 
L 3578 4666 
L 3578 4134 
L 1259 4134 
L 1259 2753 
L 3481 2753 
L 3481 2222 
L 1259 2222 
L 1259 531 
L 3634 531 
L 3634 0 
L 628 0 
L 628 4666 
z
" transform="scale(0.015625)"/>
      <path id="DejaVuSans-6e" d="M 3513 2113 
L 3513 0 
L 2938 0 
L 2938 2094 
Q 2938 2591 2744 2837 
Q 2550 3084 2163 3084 
Q 1697 3084 1428 2787 
Q 1159 2491 1159 1978 
L 1159 0 
L 581 0 
L 581 3500 
L 1159 3500 
L 1159 2956 
Q 1366 3272 1645 3428 
Q 1925 3584 2291 3584 
Q 2894 3584 3203 3211 
Q 3513 2838 3513 2113 
z
" transform="scale(0.015625)"/>
      <path id="DejaVuSans-65" d="M 3597 1894 
L 3597 1613 
L 953 1613 
Q 991 1019 1311 708 
Q 1631 397 2203 397 
Q 2534 397 2845 478 
Q 3156 559 3463 722 
L 3463 178 
Q 3153 47 2828 -22 
Q 2503 -91 2169 -91 
Q 1331 -91 842 396 
Q 353 884 353 1716 
Q 353 2575 817 3079 
Q 1281 3584 2069 3584 
Q 2775 3584 3186 3129 
Q 3597 2675 3597 1894 
z
M 3022 2063 
Q 3016 2534 2758 2815 
Q 2500 3097 2075 3097 
Q 1594 3097 1305 2825 
Q 1016 2553 972 2059 
L 3022 2063 
z
" transform="scale(0.015625)"/>
      <path id="DejaVuSans-72" d="M 2631 2963 
Q 2534 3019 2420 3045 
Q 2306 3072 2169 3072 
Q 1681 3072 1420 2755 
Q 1159 2438 1159 1844 
L 1159 0 
L 581 0 
L 581 3500 
L 1159 3500 
L 1159 2956 
Q 1341 3275 1631 3429 
Q 1922 3584 2338 3584 
Q 2397 3584 2469 3576 
Q 2541 3569 2628 3553 
L 2631 2963 
z
" transform="scale(0.015625)"/>
      <path id="DejaVuSans-67" d="M 2906 1791 
Q 2906 2416 2648 2759 
Q 2391 3103 1925 3103 
Q 1463 3103 1205 2759 
Q 947 2416 947 1791 
Q 947 1169 1205 825 
Q 1463 481 1925 481 
Q 2391 481 2648 825 
Q 2906 1169 2906 1791 
z
M 3481 434 
Q 3481 -459 3084 -895 
Q 2688 -1331 1869 -1331 
Q 1566 -1331 1297 -1286 
Q 1028 -1241 775 -1147 
L 775 -588 
Q 1028 -725 1275 -790 
Q 1522 -856 1778 -856 
Q 2344 -856 2625 -561 
Q 2906 -266 2906 331 
L 2906 616 
Q 2728 306 2450 153 
Q 2172 0 1784 0 
Q 1141 0 747 490 
Q 353 981 353 1791 
Q 353 2603 747 3093 
Q 1141 3584 1784 3584 
Q 2172 3584 2450 3431 
Q 2728 3278 2906 2969 
L 2906 3500 
L 3481 3500 
L 3481 434 
z
" transform="scale(0.015625)"/>
      <path id="DejaVuSans-79" d="M 2059 -325 
Q 1816 -950 1584 -1140 
Q 1353 -1331 966 -1331 
L 506 -1331 
L 506 -850 
L 844 -850 
Q 1081 -850 1212 -737 
Q 1344 -625 1503 -206 
L 1606 56 
L 191 3500 
L 800 3500 
L 1894 763 
L 2988 3500 
L 3597 3500 
L 2059 -325 
z
" transform="scale(0.015625)"/>
      <path id="DejaVuSans-20" transform="scale(0.015625)"/>
      <path id="DejaVuSans-44" d="M 1259 4147 
L 1259 519 
L 2022 519 
Q 2988 519 3436 956 
Q 3884 1394 3884 2338 
Q 3884 3275 3436 3711 
Q 2988 4147 2022 4147 
L 1259 4147 
z
M 628 4666 
L 1925 4666 
Q 3281 4666 3915 4102 
Q 4550 3538 4550 2338 
Q 4550 1131 3912 565 
Q 3275 0 1925 0 
L 628 0 
L 628 4666 
z
" transform="scale(0.015625)"/>
      <path id="DejaVuSans-63" d="M 3122 3366 
L 3122 2828 
Q 2878 2963 2633 3030 
Q 2388 3097 2138 3097 
Q 1578 3097 1268 2742 
Q 959 2388 959 1747 
Q 959 1106 1268 751 
Q 1578 397 2138 397 
Q 2388 397 2633 464 
Q 2878 531 3122 666 
L 3122 134 
Q 2881 22 2623 -34 
Q 2366 -91 2075 -91 
Q 1284 -91 818 406 
Q 353 903 353 1747 
Q 353 2603 823 3093 
Q 1294 3584 2113 3584 
Q 2378 3584 2631 3529 
Q 2884 3475 3122 3366 
z
" transform="scale(0.015625)"/>
      <path id="DejaVuSans-61" d="M 2194 1759 
Q 1497 1759 1228 1600 
Q 959 1441 959 1056 
Q 959 750 1161 570 
Q 1363 391 1709 391 
Q 2188 391 2477 730 
Q 2766 1069 2766 1631 
L 2766 1759 
L 2194 1759 
z
M 3341 1997 
L 3341 0 
L 2766 0 
L 2766 531 
Q 2569 213 2275 61 
Q 1981 -91 1556 -91 
Q 1019 -91 701 211 
Q 384 513 384 1019 
Q 384 1609 779 1909 
Q 1175 2209 1959 2209 
L 2766 2209 
L 2766 2266 
Q 2766 2663 2505 2880 
Q 2244 3097 1772 3097 
Q 1472 3097 1187 3025 
Q 903 2953 641 2809 
L 641 3341 
Q 956 3463 1253 3523 
Q 1550 3584 1831 3584 
Q 2591 3584 2966 3190 
Q 3341 2797 3341 1997 
z
" transform="scale(0.015625)"/>
      <path id="DejaVuSans-2d" d="M 313 2009 
L 1997 2009 
L 1997 1497 
L 313 1497 
L 313 2009 
z
" transform="scale(0.015625)"/>
      <path id="DejaVuSans-48" d="M 628 4666 
L 1259 4666 
L 1259 2753 
L 3553 2753 
L 3553 4666 
L 4184 4666 
L 4184 0 
L 3553 0 
L 3553 2222 
L 1259 2222 
L 1259 0 
L 628 0 
L 628 4666 
z
" transform="scale(0.015625)"/>
      <path id="DejaVuSans-7a" d="M 353 3500 
L 3084 3500 
L 3084 2975 
L 922 459 
L 3084 459 
L 3084 0 
L 275 0 
L 275 525 
L 2438 3041 
L 353 3041 
L 353 3500 
z
" transform="scale(0.015625)"/>
     </defs>
     <use xlink:href="#DejaVuSans-45"/>
     <use xlink:href="#DejaVuSans-6e" transform="translate(63.183594 0)"/>
     <use xlink:href="#DejaVuSans-65" transform="translate(126.5625 0)"/>
     <use xlink:href="#DejaVuSans-72" transform="translate(188.085938 0)"/>
     <use xlink:href="#DejaVuSans-67" transform="translate(227.449219 0)"/>
     <use xlink:href="#DejaVuSans-79" transform="translate(290.925781 0)"/>
     <use xlink:href="#DejaVuSans-20" transform="translate(350.105469 0)"/>
     <use xlink:href="#DejaVuSans-44" transform="translate(381.892578 0)"/>
     <use xlink:href="#DejaVuSans-65" transform="translate(458.894531 0)"/>
     <use xlink:href="#DejaVuSans-63" transform="translate(520.417969 0)"/>
     <use xlink:href="#DejaVuSans-61" transform="translate(575.398438 0)"/>
     <use xlink:href="#DejaVuSans-79" transform="translate(636.677734 0)"/>
     <use xlink:href="#DejaVuSans-20" transform="translate(695.857422 0)"/>
     <use xlink:href="#DejaVuSans-2d" transform="translate(727.644531 0)"/>
     <use xlink:href="#DejaVuSans-20" transform="translate(763.728516 0)"/>
     <use xlink:href="#DejaVuSans-34" transform="translate(795.515625 0)"/>
     <use xlink:href="#DejaVuSans-30" transform="translate(859.138672 0)"/>
     <use xlink:href="#DejaVuSans-30" transform="translate(922.761719 0)"/>
     <use xlink:href="#DejaVuSans-30" transform="translate(986.384766 0)"/>
     <use xlink:href="#DejaVuSans-20" transform="translate(1050.007812 0)"/>
     <use xlink:href="#DejaVuSans-48" transform="translate(1081.794922 0)"/>
     <use xlink:href="#DejaVuSans-7a" transform="translate(1156.990234 0)"/>
    </g>
   </g>
   <g id="legend_1">
    <g id="patch_7">
     <path d="M 296.968437 108.1845 
L 407.72 108.1845 
Q 409.72 108.1845 409.72 106.1845 
L 409.72 48.472 
Q 409.72 46.472 407.72 46.472 
L 296.968437 46.472 
Q 294.968437 46.472 294.968437 48.472 
L 294.968437 106.1845 
Q 294.968437 108.1845 296.968437 108.1845 
z
" style="fill: #ffffff; opacity: 0.8; stroke: #cccccc; stroke-linejoin: miter"/>
    </g>
    <g id="line2d_18">
     <path d="M 298.968437 54.570438 
L 308.968437 54.570438 
L 318.968437 54.570438 
" style="fill: none; stroke: #1f77b4; stroke-width: 1.5; stroke-linecap: square"/>
    </g>
    <g id="text_16">
     <!-- Energy -->
     <g transform="translate(326.968437 58.070438) scale(0.1 -0.1)">
      <use xlink:href="#DejaVuSans-45"/>
      <use xlink:href="#DejaVuSans-6e" transform="translate(63.183594 0)"/>
      <use xlink:href="#DejaVuSans-65" transform="translate(126.5625 0)"/>
      <use xlink:href="#DejaVuSans-72" transform="translate(188.085938 0)"/>
      <use xlink:href="#DejaVuSans-67" transform="translate(227.449219 0)"/>
      <use xlink:href="#DejaVuSans-79" transform="translate(290.925781 0)"/>
     </g>
    </g>
    <g id="line2d_19">
     <path d="M 298.968437 69.248563 
L 308.968437 69.248563 
L 318.968437 69.248563 
" style="fill: none; stroke-dasharray: 5.55,2.4; stroke-dashoffset: 0; stroke: #ff7f0e; stroke-width: 1.5"/>
    </g>
    <g id="text_17">
     <!-- Linear Fit -->
     <g transform="translate(326.968437 72.748563) scale(0.1 -0.1)">
      <defs>
       <path id="DejaVuSans-4c" d="M 628 4666 
L 1259 4666 
L 1259 531 
L 3531 531 
L 3531 0 
L 628 0 
L 628 4666 
z
" transform="scale(0.015625)"/>
       <path id="DejaVuSans-69" d="M 603 3500 
L 1178 3500 
L 1178 0 
L 603 0 
L 603 3500 
z
M 603 4863 
L 1178 4863 
L 1178 4134 
L 603 4134 
L 603 4863 
z
" transform="scale(0.015625)"/>
       <path id="DejaVuSans-46" d="M 628 4666 
L 3309 4666 
L 3309 4134 
L 1259 4134 
L 1259 2759 
L 3109 2759 
L 3109 2228 
L 1259 2228 
L 1259 0 
L 628 0 
L 628 4666 
z
" transform="scale(0.015625)"/>
       <path id="DejaVuSans-74" d="M 1172 4494 
L 1172 3500 
L 2356 3500 
L 2356 3053 
L 1172 3053 
L 1172 1153 
Q 1172 725 1289 603 
Q 1406 481 1766 481 
L 2356 481 
L 2356 0 
L 1766 0 
Q 1100 0 847 248 
Q 594 497 594 1153 
L 594 3053 
L 172 3053 
L 172 3500 
L 594 3500 
L 594 4494 
L 1172 4494 
z
" transform="scale(0.015625)"/>
      </defs>
      <use xlink:href="#DejaVuSans-4c"/>
      <use xlink:href="#DejaVuSans-69" transform="translate(55.712891 0)"/>
      <use xlink:href="#DejaVuSans-6e" transform="translate(83.496094 0)"/>
      <use xlink:href="#DejaVuSans-65" transform="translate(146.875 0)"/>
      <use xlink:href="#DejaVuSans-61" transform="translate(208.398438 0)"/>
      <use xlink:href="#DejaVuSans-72" transform="translate(269.677734 0)"/>
      <use xlink:href="#DejaVuSans-20" transform="translate(310.791016 0)"/>
      <use xlink:href="#DejaVuSans-46" transform="translate(342.578125 0)"/>
      <use xlink:href="#DejaVuSans-69" transform="translate(392.847656 0)"/>
      <use xlink:href="#DejaVuSans-74" transform="translate(420.630859 0)"/>
     </g>
    </g>
    <g id="line2d_20">
     <path d="M 298.968437 83.926688 
L 308.968437 83.926688 
L 318.968437 83.926688 
" style="fill: none; stroke-dasharray: 5.55,2.4; stroke-dashoffset: 0; stroke: #2ca02c; stroke-width: 1.5"/>
    </g>
    <g id="text_18">
     <!-- -60 dB -->
     <g transform="translate(326.968437 87.426688) scale(0.1 -0.1)">
      <defs>
       <path id="DejaVuSans-64" d="M 2906 2969 
L 2906 4863 
L 3481 4863 
L 3481 0 
L 2906 0 
L 2906 525 
Q 2725 213 2448 61 
Q 2172 -91 1784 -91 
Q 1150 -91 751 415 
Q 353 922 353 1747 
Q 353 2572 751 3078 
Q 1150 3584 1784 3584 
Q 2172 3584 2448 3432 
Q 2725 3281 2906 2969 
z
M 947 1747 
Q 947 1113 1208 752 
Q 1469 391 1925 391 
Q 2381 391 2643 752 
Q 2906 1113 2906 1747 
Q 2906 2381 2643 2742 
Q 2381 3103 1925 3103 
Q 1469 3103 1208 2742 
Q 947 2381 947 1747 
z
" transform="scale(0.015625)"/>
       <path id="DejaVuSans-42" d="M 1259 2228 
L 1259 519 
L 2272 519 
Q 2781 519 3026 730 
Q 3272 941 3272 1375 
Q 3272 1813 3026 2020 
Q 2781 2228 2272 2228 
L 1259 2228 
z
M 1259 4147 
L 1259 2741 
L 2194 2741 
Q 2656 2741 2882 2914 
Q 3109 3088 3109 3444 
Q 3109 3797 2882 3972 
Q 2656 4147 2194 4147 
L 1259 4147 
z
M 628 4666 
L 2241 4666 
Q 2963 4666 3353 4366 
Q 3744 4066 3744 3513 
Q 3744 3084 3544 2831 
Q 3344 2578 2956 2516 
Q 3422 2416 3680 2098 
Q 3938 1781 3938 1306 
Q 3938 681 3513 340 
Q 3088 0 2303 0 
L 628 0 
L 628 4666 
z
" transform="scale(0.015625)"/>
      </defs>
      <use xlink:href="#DejaVuSans-2d"/>
      <use xlink:href="#DejaVuSans-36" transform="translate(36.083984 0)"/>
      <use xlink:href="#DejaVuSans-30" transform="translate(99.707031 0)"/>
      <use xlink:href="#DejaVuSans-20" transform="translate(163.330078 0)"/>
      <use xlink:href="#DejaVuSans-64" transform="translate(195.117188 0)"/>
      <use xlink:href="#DejaVuSans-42" transform="translate(258.59375 0)"/>
     </g>
    </g>
    <g id="line2d_21">
     <path d="M 298.968437 98.604813 
L 318.968437 98.604813 
" style="fill: none; stroke-dasharray: 5.55,2.4; stroke-dashoffset: 0; stroke: #1f77b4; stroke-width: 1.5"/>
    </g>
    <g id="text_19">
     <!-- Estimated RT60 -->
     <g transform="translate(326.968437 102.104813) scale(0.1 -0.1)">
      <defs>
       <path id="DejaVuSans-73" d="M 2834 3397 
L 2834 2853 
Q 2591 2978 2328 3040 
Q 2066 3103 1784 3103 
Q 1356 3103 1142 2972 
Q 928 2841 928 2578 
Q 928 2378 1081 2264 
Q 1234 2150 1697 2047 
L 1894 2003 
Q 2506 1872 2764 1633 
Q 3022 1394 3022 966 
Q 3022 478 2636 193 
Q 2250 -91 1575 -91 
Q 1294 -91 989 -36 
Q 684 19 347 128 
L 347 722 
Q 666 556 975 473 
Q 1284 391 1588 391 
Q 1994 391 2212 530 
Q 2431 669 2431 922 
Q 2431 1156 2273 1281 
Q 2116 1406 1581 1522 
L 1381 1569 
Q 847 1681 609 1914 
Q 372 2147 372 2553 
Q 372 3047 722 3315 
Q 1072 3584 1716 3584 
Q 2034 3584 2315 3537 
Q 2597 3491 2834 3397 
z
" transform="scale(0.015625)"/>
       <path id="DejaVuSans-6d" d="M 3328 2828 
Q 3544 3216 3844 3400 
Q 4144 3584 4550 3584 
Q 5097 3584 5394 3201 
Q 5691 2819 5691 2113 
L 5691 0 
L 5113 0 
L 5113 2094 
Q 5113 2597 4934 2840 
Q 4756 3084 4391 3084 
Q 3944 3084 3684 2787 
Q 3425 2491 3425 1978 
L 3425 0 
L 2847 0 
L 2847 2094 
Q 2847 2600 2669 2842 
Q 2491 3084 2119 3084 
Q 1678 3084 1418 2786 
Q 1159 2488 1159 1978 
L 1159 0 
L 581 0 
L 581 3500 
L 1159 3500 
L 1159 2956 
Q 1356 3278 1631 3431 
Q 1906 3584 2284 3584 
Q 2666 3584 2933 3390 
Q 3200 3197 3328 2828 
z
" transform="scale(0.015625)"/>
       <path id="DejaVuSans-52" d="M 2841 2188 
Q 3044 2119 3236 1894 
Q 3428 1669 3622 1275 
L 4263 0 
L 3584 0 
L 2988 1197 
Q 2756 1666 2539 1819 
Q 2322 1972 1947 1972 
L 1259 1972 
L 1259 0 
L 628 0 
L 628 4666 
L 2053 4666 
Q 2853 4666 3247 4331 
Q 3641 3997 3641 3322 
Q 3641 2881 3436 2590 
Q 3231 2300 2841 2188 
z
M 1259 4147 
L 1259 2491 
L 2053 2491 
Q 2509 2491 2742 2702 
Q 2975 2913 2975 3322 
Q 2975 3731 2742 3939 
Q 2509 4147 2053 4147 
L 1259 4147 
z
" transform="scale(0.015625)"/>
       <path id="DejaVuSans-54" d="M -19 4666 
L 3928 4666 
L 3928 4134 
L 2272 4134 
L 2272 0 
L 1638 0 
L 1638 4134 
L -19 4134 
L -19 4666 
z
" transform="scale(0.015625)"/>
      </defs>
      <use xlink:href="#DejaVuSans-45"/>
      <use xlink:href="#DejaVuSans-73" transform="translate(63.183594 0)"/>
      <use xlink:href="#DejaVuSans-74" transform="translate(115.283203 0)"/>
      <use xlink:href="#DejaVuSans-69" transform="translate(154.492188 0)"/>
      <use xlink:href="#DejaVuSans-6d" transform="translate(182.275391 0)"/>
      <use xlink:href="#DejaVuSans-61" transform="translate(279.6875 0)"/>
      <use xlink:href="#DejaVuSans-74" transform="translate(340.966797 0)"/>
      <use xlink:href="#DejaVuSans-65" transform="translate(380.175781 0)"/>
      <use xlink:href="#DejaVuSans-64" transform="translate(441.699219 0)"/>
      <use xlink:href="#DejaVuSans-20" transform="translate(505.175781 0)"/>
      <use xlink:href="#DejaVuSans-52" transform="translate(536.962891 0)"/>
      <use xlink:href="#DejaVuSans-54" transform="translate(599.195312 0)"/>
      <use xlink:href="#DejaVuSans-36" transform="translate(660.279297 0)"/>
      <use xlink:href="#DejaVuSans-30" transform="translate(723.902344 0)"/>
     </g>
    </g>
   </g>
  </g>
 </g>
 <defs>
  <clipPath id="pe08aac6473">
   <rect x="57.6" y="41.472" width="357.12" height="266.112"/>
  </clipPath>
 </defs>
</svg>
