<?xml version="1.0" encoding="utf-8" standalone="no"?>
<!DOCTYPE svg PUBLIC "-//W3C//DTD SVG 1.1//EN"
  "http://www.w3.org/Graphics/SVG/1.1/DTD/svg11.dtd">
<svg xmlns:xlink="http://www.w3.org/1999/xlink" width="460.8pt" height="345.6pt" viewBox="0 0 460.8 345.6" xmlns="http://www.w3.org/2000/svg" version="1.1">
 <metadata>
  <rdf:RDF xmlns:dc="http://purl.org/dc/elements/1.1/" xmlns:cc="http://creativecommons.org/ns#" xmlns:rdf="http://www.w3.org/1999/02/22-rdf-syntax-ns#">
   <cc:Work>
    <dc:type rdf:resource="http://purl.org/dc/dcmitype/StillImage"/>
    <dc:date>2025-05-07T10:18:29.686474</dc:date>
    <dc:format>image/svg+xml</dc:format>
    <dc:creator>
     <cc:Agent>
      <dc:title>Matplotlib v3.10.1, https://matplotlib.org/</dc:title>
     </cc:Agent>
    </dc:creator>
   </cc:Work>
  </rdf:RDF>
 </metadata>
 <defs>
  <style type="text/css">*{stroke-linejoin: round; stroke-linecap: butt}</style>
 </defs>
 <g id="figure_1">
  <g id="patch_1">
   <path d="M 0 345.6 
L 460.8 345.6 
L 460.8 0 
L 0 0 
z
" style="fill: #ffffff"/>
  </g>
  <g id="axes_1">
   <g id="patch_2">
    <path d="M 57.6 307.584 
L 414.72 307.584 
L 414.72 41.472 
L 57.6 41.472 
z
" style="fill: #ffffff"/>
   </g>
   <g id="matplotlib.axis_1">
    <g id="xtick_1">
     <g id="line2d_1">
      <defs>
       <path id="m0a703192df" d="M 0 0 
L 0 3.5 
" style="stroke: #000000; stroke-width: 0.8"/>
      </defs>
      <g>
       <use xlink:href="#m0a703192df" x="69.731828" y="307.584" style="stroke: #000000; stroke-width: 0.8"/>
      </g>
     </g>
     <g id="text_1">
      <!-- −0.2 -->
      <g transform="translate(57.590422 322.182437) scale(0.1 -0.1)">
       <defs>
        <path id="DejaVuSans-2212" d="M 678 2272 
L 4684 2272 
L 4684 1741 
L 678 1741 
L 678 2272 
z
" transform="scale(0.015625)"/>
        <path id="DejaVuSans-30" d="M 2034 4250 
Q 1547 4250 1301 3770 
Q 1056 3291 1056 2328 
Q 1056 1369 1301 889 
Q 1547 409 2034 409 
Q 2525 409 2770 889 
Q 3016 1369 3016 2328 
Q 3016 3291 2770 3770 
Q 2525 4250 2034 4250 
z
M 2034 4750 
Q 2819 4750 3233 4129 
Q 3647 3509 3647 2328 
Q 3647 1150 3233 529 
Q 2819 -91 2034 -91 
Q 1250 -91 836 529 
Q 422 1150 422 2328 
Q 422 3509 836 4129 
Q 1250 4750 2034 4750 
z
" transform="scale(0.015625)"/>
        <path id="DejaVuSans-2e" d="M 684 794 
L 1344 794 
L 1344 0 
L 684 0 
L 684 794 
z
" transform="scale(0.015625)"/>
        <path id="DejaVuSans-32" d="M 1228 531 
L 3431 531 
L 3431 0 
L 469 0 
L 469 531 
Q 828 903 1448 1529 
Q 2069 2156 2228 2338 
Q 2531 2678 2651 2914 
Q 2772 3150 2772 3378 
Q 2772 3750 2511 3984 
Q 2250 4219 1831 4219 
Q 1534 4219 1204 4116 
Q 875 4013 500 3803 
L 500 4441 
Q 881 4594 1212 4672 
Q 1544 4750 1819 4750 
Q 2544 4750 2975 4387 
Q 3406 4025 3406 3419 
Q 3406 3131 3298 2873 
Q 3191 2616 2906 2266 
Q 2828 2175 2409 1742 
Q 1991 1309 1228 531 
z
" transform="scale(0.015625)"/>
       </defs>
       <use xlink:href="#DejaVuSans-2212"/>
       <use xlink:href="#DejaVuSans-30" transform="translate(83.789062 0)"/>
       <use xlink:href="#DejaVuSans-2e" transform="translate(147.412109 0)"/>
       <use xlink:href="#DejaVuSans-32" transform="translate(179.199219 0)"/>
      </g>
     </g>
    </g>
    <g id="xtick_2">
     <g id="line2d_2">
      <g>
       <use xlink:href="#m0a703192df" x="138.080153" y="307.584" style="stroke: #000000; stroke-width: 0.8"/>
      </g>
     </g>
     <g id="text_2">
      <!-- 0.0 -->
      <g transform="translate(130.128591 322.182437) scale(0.1 -0.1)">
       <use xlink:href="#DejaVuSans-30"/>
       <use xlink:href="#DejaVuSans-2e" transform="translate(63.623047 0)"/>
       <use xlink:href="#DejaVuSans-30" transform="translate(95.410156 0)"/>
      </g>
     </g>
    </g>
    <g id="xtick_3">
     <g id="line2d_3">
      <g>
       <use xlink:href="#m0a703192df" x="206.428478" y="307.584" style="stroke: #000000; stroke-width: 0.8"/>
      </g>
     </g>
     <g id="text_3">
      <!-- 0.2 -->
      <g transform="translate(198.476916 322.182437) scale(0.1 -0.1)">
       <use xlink:href="#DejaVuSans-30"/>
       <use xlink:href="#DejaVuSans-2e" transform="translate(63.623047 0)"/>
       <use xlink:href="#DejaVuSans-32" transform="translate(95.410156 0)"/>
      </g>
     </g>
    </g>
    <g id="xtick_4">
     <g id="line2d_4">
      <g>
       <use xlink:href="#m0a703192df" x="274.776804" y="307.584" style="stroke: #000000; stroke-width: 0.8"/>
      </g>
     </g>
     <g id="text_4">
      <!-- 0.4 -->
      <g transform="translate(266.825241 322.182437) scale(0.1 -0.1)">
       <defs>
        <path id="DejaVuSans-34" d="M 2419 4116 
L 825 1625 
L 2419 1625 
L 2419 4116 
z
M 2253 4666 
L 3047 4666 
L 3047 1625 
L 3713 1625 
L 3713 1100 
L 3047 1100 
L 3047 0 
L 2419 0 
L 2419 1100 
L 313 1100 
L 313 1709 
L 2253 4666 
z
" transform="scale(0.015625)"/>
       </defs>
       <use xlink:href="#DejaVuSans-30"/>
       <use xlink:href="#DejaVuSans-2e" transform="translate(63.623047 0)"/>
       <use xlink:href="#DejaVuSans-34" transform="translate(95.410156 0)"/>
      </g>
     </g>
    </g>
    <g id="xtick_5">
     <g id="line2d_5">
      <g>
       <use xlink:href="#m0a703192df" x="343.125129" y="307.584" style="stroke: #000000; stroke-width: 0.8"/>
      </g>
     </g>
     <g id="text_5">
      <!-- 0.6 -->
      <g transform="translate(335.173567 322.182437) scale(0.1 -0.1)">
       <defs>
        <path id="DejaVuSans-36" d="M 2113 2584 
Q 1688 2584 1439 2293 
Q 1191 2003 1191 1497 
Q 1191 994 1439 701 
Q 1688 409 2113 409 
Q 2538 409 2786 701 
Q 3034 994 3034 1497 
Q 3034 2003 2786 2293 
Q 2538 2584 2113 2584 
z
M 3366 4563 
L 3366 3988 
Q 3128 4100 2886 4159 
Q 2644 4219 2406 4219 
Q 1781 4219 1451 3797 
Q 1122 3375 1075 2522 
Q 1259 2794 1537 2939 
Q 1816 3084 2150 3084 
Q 2853 3084 3261 2657 
Q 3669 2231 3669 1497 
Q 3669 778 3244 343 
Q 2819 -91 2113 -91 
Q 1303 -91 875 529 
Q 447 1150 447 2328 
Q 447 3434 972 4092 
Q 1497 4750 2381 4750 
Q 2619 4750 2861 4703 
Q 3103 4656 3366 4563 
z
" transform="scale(0.015625)"/>
       </defs>
       <use xlink:href="#DejaVuSans-30"/>
       <use xlink:href="#DejaVuSans-2e" transform="translate(63.623047 0)"/>
       <use xlink:href="#DejaVuSans-36" transform="translate(95.410156 0)"/>
      </g>
     </g>
    </g>
    <g id="xtick_6">
     <g id="line2d_6">
      <g>
       <use xlink:href="#m0a703192df" x="411.473455" y="307.584" style="stroke: #000000; stroke-width: 0.8"/>
      </g>
     </g>
     <g id="text_6">
      <!-- 0.8 -->
      <g transform="translate(403.521892 322.182437) scale(0.1 -0.1)">
       <defs>
        <path id="DejaVuSans-38" d="M 2034 2216 
Q 1584 2216 1326 1975 
Q 1069 1734 1069 1313 
Q 1069 891 1326 650 
Q 1584 409 2034 409 
Q 2484 409 2743 651 
Q 3003 894 3003 1313 
Q 3003 1734 2745 1975 
Q 2488 2216 2034 2216 
z
M 1403 2484 
Q 997 2584 770 2862 
Q 544 3141 544 3541 
Q 544 4100 942 4425 
Q 1341 4750 2034 4750 
Q 2731 4750 3128 4425 
Q 3525 4100 3525 3541 
Q 3525 3141 3298 2862 
Q 3072 2584 2669 2484 
Q 3125 2378 3379 2068 
Q 3634 1759 3634 1313 
Q 3634 634 3220 271 
Q 2806 -91 2034 -91 
Q 1263 -91 848 271 
Q 434 634 434 1313 
Q 434 1759 690 2068 
Q 947 2378 1403 2484 
z
M 1172 3481 
Q 1172 3119 1398 2916 
Q 1625 2713 2034 2713 
Q 2441 2713 2670 2916 
Q 2900 3119 2900 3481 
Q 2900 3844 2670 4047 
Q 2441 4250 2034 4250 
Q 1625 4250 1398 4047 
Q 1172 3844 1172 3481 
z
" transform="scale(0.015625)"/>
       </defs>
       <use xlink:href="#DejaVuSans-30"/>
       <use xlink:href="#DejaVuSans-2e" transform="translate(63.623047 0)"/>
       <use xlink:href="#DejaVuSans-38" transform="translate(95.410156 0)"/>
      </g>
     </g>
    </g>
   </g>
   <g id="matplotlib.axis_2">
    <g id="ytick_1">
     <g id="line2d_7">
      <defs>
       <path id="m0bb0ee8683" d="M 0 0 
L -3.5 0 
" style="stroke: #000000; stroke-width: 0.8"/>
      </defs>
      <g>
       <use xlink:href="#m0bb0ee8683" x="57.6" y="291.373964" style="stroke: #000000; stroke-width: 0.8"/>
      </g>
     </g>
     <g id="text_7">
      <!-- −175 -->
      <g transform="translate(23.132812 295.173183) scale(0.1 -0.1)">
       <defs>
        <path id="DejaVuSans-31" d="M 794 531 
L 1825 531 
L 1825 4091 
L 703 3866 
L 703 4441 
L 1819 4666 
L 2450 4666 
L 2450 531 
L 3481 531 
L 3481 0 
L 794 0 
L 794 531 
z
" transform="scale(0.015625)"/>
        <path id="DejaVuSans-37" d="M 525 4666 
L 3525 4666 
L 3525 4397 
L 1831 0 
L 1172 0 
L 2766 4134 
L 525 4134 
L 525 4666 
z
" transform="scale(0.015625)"/>
        <path id="DejaVuSans-35" d="M 691 4666 
L 3169 4666 
L 3169 4134 
L 1269 4134 
L 1269 2991 
Q 1406 3038 1543 3061 
Q 1681 3084 1819 3084 
Q 2600 3084 3056 2656 
Q 3513 2228 3513 1497 
Q 3513 744 3044 326 
Q 2575 -91 1722 -91 
Q 1428 -91 1123 -41 
Q 819 9 494 109 
L 494 744 
Q 775 591 1075 516 
Q 1375 441 1709 441 
Q 2250 441 2565 725 
Q 2881 1009 2881 1497 
Q 2881 1984 2565 2268 
Q 2250 2553 1709 2553 
Q 1456 2553 1204 2497 
Q 953 2441 691 2322 
L 691 4666 
z
" transform="scale(0.015625)"/>
       </defs>
       <use xlink:href="#DejaVuSans-2212"/>
       <use xlink:href="#DejaVuSans-31" transform="translate(83.789062 0)"/>
       <use xlink:href="#DejaVuSans-37" transform="translate(147.412109 0)"/>
       <use xlink:href="#DejaVuSans-35" transform="translate(211.035156 0)"/>
      </g>
     </g>
    </g>
    <g id="ytick_2">
     <g id="line2d_8">
      <g>
       <use xlink:href="#m0bb0ee8683" x="57.6" y="257.401684" style="stroke: #000000; stroke-width: 0.8"/>
      </g>
     </g>
     <g id="text_8">
      <!-- −150 -->
      <g transform="translate(23.132812 261.200902) scale(0.1 -0.1)">
       <use xlink:href="#DejaVuSans-2212"/>
       <use xlink:href="#DejaVuSans-31" transform="translate(83.789062 0)"/>
       <use xlink:href="#DejaVuSans-35" transform="translate(147.412109 0)"/>
       <use xlink:href="#DejaVuSans-30" transform="translate(211.035156 0)"/>
      </g>
     </g>
    </g>
    <g id="ytick_3">
     <g id="line2d_9">
      <g>
       <use xlink:href="#m0bb0ee8683" x="57.6" y="223.429403" style="stroke: #000000; stroke-width: 0.8"/>
      </g>
     </g>
     <g id="text_9">
      <!-- −125 -->
      <g transform="translate(23.132812 227.228622) scale(0.1 -0.1)">
       <use xlink:href="#DejaVuSans-2212"/>
       <use xlink:href="#DejaVuSans-31" transform="translate(83.789062 0)"/>
       <use xlink:href="#DejaVuSans-32" transform="translate(147.412109 0)"/>
       <use xlink:href="#DejaVuSans-35" transform="translate(211.035156 0)"/>
      </g>
     </g>
    </g>
    <g id="ytick_4">
     <g id="line2d_10">
      <g>
       <use xlink:href="#m0bb0ee8683" x="57.6" y="189.457122" style="stroke: #000000; stroke-width: 0.8"/>
      </g>
     </g>
     <g id="text_10">
      <!-- −100 -->
      <g transform="translate(23.132812 193.256341) scale(0.1 -0.1)">
       <use xlink:href="#DejaVuSans-2212"/>
       <use xlink:href="#DejaVuSans-31" transform="translate(83.789062 0)"/>
       <use xlink:href="#DejaVuSans-30" transform="translate(147.412109 0)"/>
       <use xlink:href="#DejaVuSans-30" transform="translate(211.035156 0)"/>
      </g>
     </g>
    </g>
    <g id="ytick_5">
     <g id="line2d_11">
      <g>
       <use xlink:href="#m0bb0ee8683" x="57.6" y="155.484842" style="stroke: #000000; stroke-width: 0.8"/>
      </g>
     </g>
     <g id="text_11">
      <!-- −75 -->
      <g transform="translate(29.495313 159.284061) scale(0.1 -0.1)">
       <use xlink:href="#DejaVuSans-2212"/>
       <use xlink:href="#DejaVuSans-37" transform="translate(83.789062 0)"/>
       <use xlink:href="#DejaVuSans-35" transform="translate(147.412109 0)"/>
      </g>
     </g>
    </g>
    <g id="ytick_6">
     <g id="line2d_12">
      <g>
       <use xlink:href="#m0bb0ee8683" x="57.6" y="121.512561" style="stroke: #000000; stroke-width: 0.8"/>
      </g>
     </g>
     <g id="text_12">
      <!-- −50 -->
      <g transform="translate(29.495313 125.31178) scale(0.1 -0.1)">
       <use xlink:href="#DejaVuSans-2212"/>
       <use xlink:href="#DejaVuSans-35" transform="translate(83.789062 0)"/>
       <use xlink:href="#DejaVuSans-30" transform="translate(147.412109 0)"/>
      </g>
     </g>
    </g>
    <g id="ytick_7">
     <g id="line2d_13">
      <g>
       <use xlink:href="#m0bb0ee8683" x="57.6" y="87.540281" style="stroke: #000000; stroke-width: 0.8"/>
      </g>
     </g>
     <g id="text_13">
      <!-- −25 -->
      <g transform="translate(29.495313 91.339499) scale(0.1 -0.1)">
       <use xlink:href="#DejaVuSans-2212"/>
       <use xlink:href="#DejaVuSans-32" transform="translate(83.789062 0)"/>
       <use xlink:href="#DejaVuSans-35" transform="translate(147.412109 0)"/>
      </g>
     </g>
    </g>
    <g id="ytick_8">
     <g id="line2d_14">
      <g>
       <use xlink:href="#m0bb0ee8683" x="57.6" y="53.568" style="stroke: #000000; stroke-width: 0.8"/>
      </g>
     </g>
     <g id="text_14">
      <!-- 0 -->
      <g transform="translate(44.2375 57.367219) scale(0.1 -0.1)">
       <use xlink:href="#DejaVuSans-30"/>
      </g>
     </g>
    </g>
   </g>
   <g id="line2d_15">
    <path d="M 73.832727 53.568 
L 129.323024 53.669244 
L 129.508134 53.966285 
L 129.614928 54.086755 
L 129.664766 54.481277 
L 129.885474 55.105193 
L 130.405206 55.246857 
L 132.064077 56.712241 
L 132.598048 56.822318 
L 132.804517 57.052893 
L 133.11778 57.132919 
L 133.466641 57.287443 
L 133.829742 57.516108 
L 134.05045 57.916749 
L 134.178603 58.095077 
L 134.370833 58.277991 
L 134.741053 58.330092 
L 135.182469 58.440067 
L 135.453014 58.680335 
L 135.645244 58.847789 
L 135.880191 58.949777 
L 136.108019 59.253156 
L 136.250411 59.389738 
L 136.45688 59.461391 
L 136.941014 59.575001 
L 137.503464 59.821329 
L 137.76689 60.147215 
L 137.973359 60.24001 
L 138.080153 60.364178 
L 138.13711 60.500082 
L 138.307981 60.878231 
L 138.571407 61.033845 
L 138.913148 61.101007 
L 139.183694 61.212018 
L 139.589512 61.311877 
L 139.746144 61.421012 
L 140.00245 61.591979 
L 140.151962 61.708565 
L 140.408268 61.91147 
L 140.871043 62.01542 
L 141.198545 62.536104 
L 141.30534 62.635352 
L 141.476211 62.809741 
L 141.711158 62.998485 
L 142.109856 64.053963 
L 142.266488 64.140678 
L 142.42312 64.27148 
L 142.60823 64.482225 
L 142.828938 64.65014 
L 143.042526 64.946315 
L 143.327311 65.254037 
L 143.754488 65.423789 
L 144.003675 65.641824 
L 144.430852 65.75554 
L 144.858029 66.007721 
L 145.819177 66.197798 
L 146.481301 66.634367 
L 146.69489 66.881007 
L 147.164785 67.032063 
L 147.584842 67.554154 
L 147.912344 68.252346 
L 148.339522 68.660466 
L 148.55311 69.142251 
L 148.866373 69.179439 
L 149.229474 69.295095 
L 149.628172 69.742357 
L 150.41133 69.860969 
L 151.593187 70.227438 
L 151.963407 70.486112 
L 152.155636 70.601174 
L 152.383464 70.779417 
L 152.525856 70.898409 
L 152.789282 70.944704 
L 153.301895 71.056097 
L 153.729072 71.425032 
L 154.590545 71.647872 
L 155.24555 72.082815 
L 155.309627 72.193671 
L 155.63001 72.577709 
L 156.042947 72.726299 
L 156.398928 73.058787 
L 157.602144 73.46314 
L 158.477856 73.696177 
L 158.784 73.908167 
L 159.560038 74.054231 
L 160.029933 74.48913 
L 160.613742 74.732546 
L 160.848689 74.963793 
L 161.005321 75.143527 
L 161.282986 75.374387 
L 162.258373 75.621822 
L 162.50044 75.886888 
L 162.920498 76.166584 
L 163.525665 76.365875 
L 163.725014 76.640983 
L 163.910124 76.679866 
L 164.35866 76.784685 
L 164.593608 76.912044 
L 164.814316 77.078945 
L 164.999426 77.192798 
L 165.996172 77.425248 
L 166.373512 77.62331 
L 167.106833 77.733223 
L 167.712 77.99621 
L 168.08222 78.260918 
L 168.45956 78.370109 
L 168.758584 78.553982 
L 169.171522 78.745515 
L 169.335273 78.872522 
L 169.449187 78.984446 
L 169.655656 79.13842 
L 170.367617 79.484933 
L 170.538488 79.569747 
L 171.464038 79.732893 
L 171.791541 79.776812 
L 172.560459 79.891771 
L 173.165627 80.221731 
L 173.521608 80.498062 
L 174.59667 80.83724 
L 175.621895 81.055296 
L 175.949397 81.167792 
L 177.465876 81.536261 
L 177.643866 81.633205 
L 177.772019 81.754821 
L 178.049684 82.251712 
L 178.184957 82.369978 
L 178.633493 83.016293 
L 179.039311 83.171606 
L 179.23866 83.252711 
L 179.722794 83.38392 
L 180.149971 83.720268 
L 180.327962 83.92719 
L 180.655464 84.08866 
L 181.217914 84.542965 
L 181.516938 84.654457 
L 181.944115 85.018292 
L 182.748632 85.301448 
L 183.282603 85.604937 
L 183.446354 85.699364 
L 184.030163 85.80945 
L 185.247617 86.343417 
L 185.788708 86.458789 
L 186.023656 86.595362 
L 186.664421 86.970036 
L 186.927847 87.099603 
L 187.105837 87.224535 
L 187.703885 87.365081 
L 188.36601 88.056929 
L 188.572478 88.180607 
L 188.843024 88.304026 
L 189.170526 88.373288 
L 189.718737 88.486572 
L 190.430699 89.058619 
L 190.59445 89.181963 
L 191.199617 89.376649 
L 191.576957 89.485458 
L 192.182124 89.630299 
L 192.694737 89.835665 
L 193.356861 90.042595 
L 193.598928 90.48118 
L 193.94067 90.681898 
L 194.31089 91.05258 
L 194.545837 91.16302 
L 195.143885 91.381609 
L 196.90955 91.680175 
L 197.172976 91.888956 
L 197.429282 92.058567 
L 197.906297 92.55832 
L 198.127005 92.715139 
L 198.283636 92.823087 
L 198.881684 92.935776 
L 199.444134 93.326453 
L 200.035062 93.559986 
L 200.234411 93.678027 
L 200.63311 93.821373 
L 201.01045 94.060744 
L 201.38067 94.179631 
L 201.608498 94.31128 
L 202.028555 94.443279 
L 202.291981 94.55409 
L 202.526928 94.584086 
L 202.954105 94.714419 
L 203.24601 94.950899 
L 203.723024 95.132561 
L 204.086124 95.378246 
L 204.271234 95.543389 
L 206.834297 96.389889 
L 207.211636 96.651218 
L 207.567617 96.887098 
L 207.752727 97.024156 
L 209.354641 97.48712 
L 209.881493 97.793059 
L 210.657531 98.153271 
L 211.284057 98.270946 
L 212.672383 98.736424 
L 213.021244 99.082766 
L 213.498258 99.202444 
L 214.060708 99.344797 
L 214.359732 99.456364 
L 214.58756 99.719022 
L 214.786909 99.905287 
L 214.979139 100.047249 
L 216.367464 100.572572 
L 216.531215 100.808112 
L 217.321493 101.146564 
L 217.698833 101.256866 
L 217.948019 101.415033 
L 218.887809 101.800249 
L 219.05156 101.896196 
L 219.670967 102.016677 
L 219.898794 102.259618 
L 220.525321 102.426983 
L 220.874182 102.722841 
L 221.037933 102.856829 
L 221.358316 103.138401 
L 222.041799 103.421484 
L 222.597129 103.713358 
L 223.173818 103.825836 
L 223.387407 103.903333 
L 223.821703 104.020155 
L 224.284478 104.143362 
L 225.053397 104.255897 
L 226.064383 104.766573 
L 226.420364 105.26364 
L 226.826182 105.473002 
L 226.982813 105.56949 
L 227.153684 105.681508 
L 227.353033 105.755376 
L 228.549129 106.009704 
L 228.755598 106.125464 
L 228.997665 106.188799 
L 229.147177 106.300642 
L 229.360766 106.40269 
L 229.510278 106.520936 
L 229.745225 106.969507 
L 229.887617 107.105819 
L 230.236478 107.48842 
L 230.592459 107.622128 
L 230.927081 107.748025 
L 232.25133 108.127745 
L 232.714105 108.424542 
L 232.842258 108.542029 
L 233.00601 108.615867 
L 233.625416 108.738239 
L 233.874603 108.80507 
L 235.739943 109.208538 
L 236.387828 109.728727 
L 236.644134 109.839219 
L 238.324364 110.94467 
L 239.000727 111.062411 
L 240.81623 112.235523 
L 241.129493 112.381098 
L 241.321722 112.54996 
L 241.912651 112.658746 
L 243.913263 113.370969 
L 244.276364 113.518798 
L 244.518431 113.648906 
L 245.83556 113.996733 
L 246.02067 114.089364 
L 246.241378 114.45311 
L 247.053014 114.847953 
L 247.259483 115.144085 
L 247.864651 115.254431 
L 248.583732 115.615939 
L 248.968191 115.730262 
L 249.224498 115.841065 
L 249.573359 115.955661 
L 249.865263 116.255353 
L 250.078852 116.379025 
L 250.271081 116.469435 
L 251.018641 116.678697 
L 251.282067 116.736323 
L 251.41734 116.844211 
L 251.709244 117.087292 
L 252.001148 117.271858 
L 252.627675 117.390679 
L 253.047732 117.578576 
L 253.82377 117.709388 
L 254.129914 117.859471 
L 254.336383 117.981564 
L 254.528612 118.128477 
L 254.977148 118.652364 
L 255.119541 118.702479 
L 255.454163 118.810205 
L 255.646392 118.96693 
L 255.959656 119.108734 
L 256.287158 119.383068 
L 257.070316 119.547081 
L 257.440536 119.862117 
L 257.661244 119.995623 
L 257.946029 120.372605 
L 258.273531 120.512775 
L 258.522718 120.545527 
L 258.85734 120.659175 
L 259.113646 120.906814 
L 259.284517 121.063227 
L 260.445014 121.296694 
L 260.658603 121.417645 
L 261.256651 121.832956 
L 261.541435 121.978812 
L 261.961493 122.221311 
L 262.95112 122.537172 
L 263.250144 122.64202 
L 263.87667 122.748061 
L 264.189933 122.933863 
L 264.531675 123.113562 
L 264.766622 123.356523 
L 265.17244 123.473432 
L 266.083751 123.626561 
L 266.2831 123.690792 
L 266.767234 123.802497 
L 268.134201 124.212414 
L 269.793072 124.622813 
L 270.604708 124.96563 
L 271.095962 125.082014 
L 271.644172 125.287233 
L 271.843522 125.341651 
L 272.726354 125.629832 
L 273.217608 125.74636 
L 273.801416 126.066796 
L 274.029244 126.14967 
L 274.541856 126.261042 
L 274.890718 126.350008 
L 275.068708 126.474392 
L 275.296536 126.512542 
L 275.851866 126.677666 
L 276.179368 126.758514 
L 276.983885 126.88419 
L 277.368344 127.05296 
L 278.450526 127.618555 
L 278.94178 127.728487 
L 279.283522 127.779994 
L 279.924287 127.923344 
L 280.216191 128.215776 
L 281.127502 128.369956 
L 281.348211 128.461508 
L 282.259522 128.587633 
L 282.565665 128.691272 
L 283.185072 128.802993 
L 283.420019 128.843813 
L 284.160459 128.97036 
L 284.601876 129.017987 
L 284.879541 129.162618 
L 285.08601 129.276177 
L 285.498947 129.51456 
L 285.741014 129.68435 
L 286.552651 129.883012 
L 287.193416 129.997424 
L 287.392766 130.073293 
L 288.140325 130.199815 
L 289.443215 130.674657 
L 289.614086 130.775957 
L 290.710507 130.886529 
L 291.03089 130.922193 
L 292.056115 131.038831 
L 292.447694 131.153876 
L 293.586833 131.4939 
L 293.81466 131.569638 
L 296.726584 131.895422 
L 296.99001 132.005413 
L 298.243062 132.12891 
L 298.556325 132.266624 
L 298.741435 132.327953 
L 299.168612 132.43812 
L 301.696077 132.722512 
L 302.949129 132.844451 
L 304.472727 133.108503 
L 305.099254 133.222463 
L 307.007311 133.562445 
L 308.246124 133.68919 
L 308.69466 133.782004 
L 309.342545 133.929377 
L 309.670048 133.986953 
L 311.093971 134.097974 
L 311.713378 134.218483 
L 315.58645 134.708594 
L 316.1489 134.779104 
L 318.056957 135.010021 
L 318.277665 135.079874 
L 326.586258 136.086473 
L 327.276861 136.186211 
L 327.995943 136.318473 
L 328.252249 136.36639 
L 328.878775 136.518791 
L 329.113722 136.640249 
L 330.65156 136.869977 
L 330.957703 136.894976 
L 332.402986 137.025497 
L 332.830163 137.083762 
L 336.105187 137.597496 
L 336.304536 137.664352 
L 336.923943 137.81748 
L 337.208727 137.91386 
L 338.219713 138.086184 
L 338.611292 138.147891 
L 339.301895 138.264418 
L 339.487005 138.295429 
L 339.864344 138.412895 
L 340.263043 138.561926 
L 342.163981 138.895351 
L 342.441646 139.008647 
L 343.452632 139.259725 
L 344.128995 139.447973 
L 344.655847 139.535598 
L 345.139981 139.65452 
L 345.332211 139.775067 
L 345.930258 139.843414 
L 346.805971 139.954278 
L 347.211789 140.028368 
L 348.493321 140.140201 
L 348.934737 140.367962 
L 349.81045 140.500144 
L 350.073876 140.601556 
L 350.54377 140.856453 
L 350.764478 140.984987 
L 351.305569 141.064127 
L 352.209761 141.195397 
L 353.142431 141.413786 
L 353.996785 141.646619 
L 354.473799 141.7512 
L 354.929455 141.870418 
L 355.114565 141.909492 
L 356.453053 142.30184 
L 356.673761 142.472547 
L 358.717091 143.158048 
L 358.873722 143.209231 
L 359.158507 143.277177 
L 359.400574 143.43976 
L 359.664 143.581208 
L 360.945531 144.074771 
L 361.237435 144.354564 
L 361.572057 144.481239 
L 361.977876 144.807894 
L 362.611522 144.939055 
L 363.145493 145.145894 
L 364.455502 145.819478 
L 365.338335 145.941677 
L 365.616 146.122824 
L 365.964861 146.604325 
L 366.121493 146.717422 
L 368.456727 147.629612 
L 368.670316 148.051385 
L 369.275483 148.552176 
L 369.823694 148.693508 
L 371.667675 149.581101 
L 372.016536 150.07095 
L 372.215885 150.180916 
L 372.635943 150.409948 
L 373.896115 151.127705 
L 374.138182 152.130659 
L 374.373129 152.245024 
L 374.657914 152.668676 
L 375.220364 153.008125 
L 375.519388 153.120245 
L 375.725856 153.239022 
L 375.861129 153.358042 
L 376.266947 153.953363 
L 376.77956 154.961968 
L 377.028746 155.078509 
L 377.135541 155.306957 
L 377.32777 155.638569 
L 377.491522 155.850532 
L 377.669512 155.926258 
L 377.854622 156.070345 
L 378.509627 156.803916 
L 378.858488 156.941369 
L 378.958163 157.231919 
L 379.136153 157.60815 
L 379.655885 157.989665 
L 379.905072 158.371389 
L 380.054584 158.472619 
L 380.289531 158.710979 
L 380.695349 159.915557 
L 380.930297 160.037105 
L 382.496612 163.256096 
L 382.72444 163.369656 
L 382.973627 163.577003 
L 383.123139 163.682283 
L 383.29401 163.853523 
L 383.450641 164.249616 
L 383.621512 164.712242 
L 384.297876 166.408827 
L 384.383311 166.541312 
L 384.696574 167.219092 
L 384.732172 167.297983 
L 384.895923 167.658215 
L 384.931522 167.784468 
L 385.244785 168.719646 
L 385.401416 168.912997 
L 385.849952 170.462375 
L 385.88555 170.539054 
L 386.056421 170.940078 
L 386.198813 171.130738 
L 386.405282 171.326303 
L 386.875177 171.479261 
L 387.316593 172.614706 
L 387.409148 172.72168 
L 387.765129 173.144217 
L 388.2991 173.544881 
L 388.989703 174.408819 
L 389.281608 174.776808 
L 389.509435 176.007891 
L 390.150201 177.912315 
L 390.313952 179.125711 
L 390.520421 179.311406 
L 390.605856 179.534807 
L 390.776727 180.07555 
L 390.876402 180.177581 
L 391.296459 181.168267 
L 391.858909 187.282252 
L 392.471196 189.498045 
L 392.542392 189.72513 
L 392.805818 191.813759 
L 393.232995 192.629549 
L 393.275713 192.720046 
L 393.89512 196.842969 
L 393.994794 197.207658 
L 394.478928 203.25865 
L 394.514526 203.366328 
L 394.692517 204.381233 
L 394.884746 205.943998 
L 394.984421 206.046324 
L 395.219368 207.231212 
L 395.411598 207.789947 
L 395.618067 209.611525 
L 395.646545 209.668074 
L 395.774699 212.051168 
L 396.059483 217.62344 
L 396.109321 218.291042 
L 396.372746 221.72459 
L 396.515139 223.289993 
L 396.849761 226.995752 
L 396.885359 227.099456 
L 397.462048 234.866133 
L 397.867866 247.640643 
L 397.931943 248.119095 
L 398.238086 257.751817 
L 398.273684 259.750373 
L 398.480153 295.488 
L 398.480153 295.488 
" clip-path="url(#p4d6a511a27)" style="fill: none; stroke: #1f77b4; stroke-width: 1.5; stroke-linecap: square"/>
   </g>
   <g id="line2d_16">
    <path d="M 138.080153 60.364178 
L 355.000651 141.89593 
" clip-path="url(#p4d6a511a27)" style="fill: none; stroke-dasharray: 5.55,2.4; stroke-dashoffset: 0; stroke: #ff7f0e; stroke-width: 1.5"/>
   </g>
   <g id="line2d_17">
    <path d="M 73.832727 135.101473 
L 398.487273 135.101473 
L 398.487273 135.101473 
" clip-path="url(#p4d6a511a27)" style="fill: none; stroke-dasharray: 5.55,2.4; stroke-dashoffset: 0; stroke: #2ca02c; stroke-width: 1.5"/>
   </g>
   <g id="LineCollection_1">
    <path d="M 355.000651 295.488 
L 355.000651 53.568 
" clip-path="url(#p4d6a511a27)" style="fill: none; stroke-dasharray: 5.55,2.4; stroke-dashoffset: 0; stroke: #1f77b4; stroke-width: 1.5"/>
   </g>
   <g id="patch_3">
    <path d="M 57.6 307.584 
L 57.6 41.472 
" style="fill: none; stroke: #000000; stroke-width: 0.8; stroke-linejoin: miter; stroke-linecap: square"/>
   </g>
   <g id="patch_4">
    <path d="M 414.72 307.584 
L 414.72 41.472 
" style="fill: none; stroke: #000000; stroke-width: 0.8; stroke-linejoin: miter; stroke-linecap: square"/>
   </g>
   <g id="patch_5">
    <path d="M 57.6 307.584 
L 414.72 307.584 
" style="fill: none; stroke: #000000; stroke-width: 0.8; stroke-linejoin: miter; stroke-linecap: square"/>
   </g>
   <g id="patch_6">
    <path d="M 57.6 41.472 
L 414.72 41.472 
" style="fill: none; stroke: #000000; stroke-width: 0.8; stroke-linejoin: miter; stroke-linecap: square"/>
   </g>
   <g id="text_15">
    <!-- Energy Decay - 2000 Hz -->
    <g transform="translate(163.59 35.472) scale(0.12 -0.12)">
     <defs>
      <path id="DejaVuSans-45" d="M 628 4666 
L 3578 4666 
L 3578 4134 
L 1259 4134 
L 1259 2753 
L 3481 2753 
L 3481 2222 
L 1259 2222 
L 1259 531 
L 3634 531 
L 3634 0 
L 628 0 
L 628 4666 
z
" transform="scale(0.015625)"/>
      <path id="DejaVuSans-6e" d="M 3513 2113 
L 3513 0 
L 2938 0 
L 2938 2094 
Q 2938 2591 2744 2837 
Q 2550 3084 2163 3084 
Q 1697 3084 1428 2787 
Q 1159 2491 1159 1978 
L 1159 0 
L 581 0 
L 581 3500 
L 1159 3500 
L 1159 2956 
Q 1366 3272 1645 3428 
Q 1925 3584 2291 3584 
Q 2894 3584 3203 3211 
Q 3513 2838 3513 2113 
z
" transform="scale(0.015625)"/>
      <path id="DejaVuSans-65" d="M 3597 1894 
L 3597 1613 
L 953 1613 
Q 991 1019 1311 708 
Q 1631 397 2203 397 
Q 2534 397 2845 478 
Q 3156 559 3463 722 
L 3463 178 
Q 3153 47 2828 -22 
Q 2503 -91 2169 -91 
Q 1331 -91 842 396 
Q 353 884 353 1716 
Q 353 2575 817 3079 
Q 1281 3584 2069 3584 
Q 2775 3584 3186 3129 
Q 3597 2675 3597 1894 
z
M 3022 2063 
Q 3016 2534 2758 2815 
Q 2500 3097 2075 3097 
Q 1594 3097 1305 2825 
Q 1016 2553 972 2059 
L 3022 2063 
z
" transform="scale(0.015625)"/>
      <path id="DejaVuSans-72" d="M 2631 2963 
Q 2534 3019 2420 3045 
Q 2306 3072 2169 3072 
Q 1681 3072 1420 2755 
Q 1159 2438 1159 1844 
L 1159 0 
L 581 0 
L 581 3500 
L 1159 3500 
L 1159 2956 
Q 1341 3275 1631 3429 
Q 1922 3584 2338 3584 
Q 2397 3584 2469 3576 
Q 2541 3569 2628 3553 
L 2631 2963 
z
" transform="scale(0.015625)"/>
      <path id="DejaVuSans-67" d="M 2906 1791 
Q 2906 2416 2648 2759 
Q 2391 3103 1925 3103 
Q 1463 3103 1205 2759 
Q 947 2416 947 1791 
Q 947 1169 1205 825 
Q 1463 481 1925 481 
Q 2391 481 2648 825 
Q 2906 1169 2906 1791 
z
M 3481 434 
Q 3481 -459 3084 -895 
Q 2688 -1331 1869 -1331 
Q 1566 -1331 1297 -1286 
Q 1028 -1241 775 -1147 
L 775 -588 
Q 1028 -725 1275 -790 
Q 1522 -856 1778 -856 
Q 2344 -856 2625 -561 
Q 2906 -266 2906 331 
L 2906 616 
Q 2728 306 2450 153 
Q 2172 0 1784 0 
Q 1141 0 747 490 
Q 353 981 353 1791 
Q 353 2603 747 3093 
Q 1141 3584 1784 3584 
Q 2172 3584 2450 3431 
Q 2728 3278 2906 2969 
L 2906 3500 
L 3481 3500 
L 3481 434 
z
" transform="scale(0.015625)"/>
      <path id="DejaVuSans-79" d="M 2059 -325 
Q 1816 -950 1584 -1140 
Q 1353 -1331 966 -1331 
L 506 -1331 
L 506 -850 
L 844 -850 
Q 1081 -850 1212 -737 
Q 1344 -625 1503 -206 
L 1606 56 
L 191 3500 
L 800 3500 
L 1894 763 
L 2988 3500 
L 3597 3500 
L 2059 -325 
z
" transform="scale(0.015625)"/>
      <path id="DejaVuSans-20" transform="scale(0.015625)"/>
      <path id="DejaVuSans-44" d="M 1259 4147 
L 1259 519 
L 2022 519 
Q 2988 519 3436 956 
Q 3884 1394 3884 2338 
Q 3884 3275 3436 3711 
Q 2988 4147 2022 4147 
L 1259 4147 
z
M 628 4666 
L 1925 4666 
Q 3281 4666 3915 4102 
Q 4550 3538 4550 2338 
Q 4550 1131 3912 565 
Q 3275 0 1925 0 
L 628 0 
L 628 4666 
z
" transform="scale(0.015625)"/>
      <path id="DejaVuSans-63" d="M 3122 3366 
L 3122 2828 
Q 2878 2963 2633 3030 
Q 2388 3097 2138 3097 
Q 1578 3097 1268 2742 
Q 959 2388 959 1747 
Q 959 1106 1268 751 
Q 1578 397 2138 397 
Q 2388 397 2633 464 
Q 2878 531 3122 666 
L 3122 134 
Q 2881 22 2623 -34 
Q 2366 -91 2075 -91 
Q 1284 -91 818 406 
Q 353 903 353 1747 
Q 353 2603 823 3093 
Q 1294 3584 2113 3584 
Q 2378 3584 2631 3529 
Q 2884 3475 3122 3366 
z
" transform="scale(0.015625)"/>
      <path id="DejaVuSans-61" d="M 2194 1759 
Q 1497 1759 1228 1600 
Q 959 1441 959 1056 
Q 959 750 1161 570 
Q 1363 391 1709 391 
Q 2188 391 2477 730 
Q 2766 1069 2766 1631 
L 2766 1759 
L 2194 1759 
z
M 3341 1997 
L 3341 0 
L 2766 0 
L 2766 531 
Q 2569 213 2275 61 
Q 1981 -91 1556 -91 
Q 1019 -91 701 211 
Q 384 513 384 1019 
Q 384 1609 779 1909 
Q 1175 2209 1959 2209 
L 2766 2209 
L 2766 2266 
Q 2766 2663 2505 2880 
Q 2244 3097 1772 3097 
Q 1472 3097 1187 3025 
Q 903 2953 641 2809 
L 641 3341 
Q 956 3463 1253 3523 
Q 1550 3584 1831 3584 
Q 2591 3584 2966 3190 
Q 3341 2797 3341 1997 
z
" transform="scale(0.015625)"/>
      <path id="DejaVuSans-2d" d="M 313 2009 
L 1997 2009 
L 1997 1497 
L 313 1497 
L 313 2009 
z
" transform="scale(0.015625)"/>
      <path id="DejaVuSans-48" d="M 628 4666 
L 1259 4666 
L 1259 2753 
L 3553 2753 
L 3553 4666 
L 4184 4666 
L 4184 0 
L 3553 0 
L 3553 2222 
L 1259 2222 
L 1259 0 
L 628 0 
L 628 4666 
z
" transform="scale(0.015625)"/>
      <path id="DejaVuSans-7a" d="M 353 3500 
L 3084 3500 
L 3084 2975 
L 922 459 
L 3084 459 
L 3084 0 
L 275 0 
L 275 525 
L 2438 3041 
L 353 3041 
L 353 3500 
z
" transform="scale(0.015625)"/>
     </defs>
     <use xlink:href="#DejaVuSans-45"/>
     <use xlink:href="#DejaVuSans-6e" transform="translate(63.183594 0)"/>
     <use xlink:href="#DejaVuSans-65" transform="translate(126.5625 0)"/>
     <use xlink:href="#DejaVuSans-72" transform="translate(188.085938 0)"/>
     <use xlink:href="#DejaVuSans-67" transform="translate(227.449219 0)"/>
     <use xlink:href="#DejaVuSans-79" transform="translate(290.925781 0)"/>
     <use xlink:href="#DejaVuSans-20" transform="translate(350.105469 0)"/>
     <use xlink:href="#DejaVuSans-44" transform="translate(381.892578 0)"/>
     <use xlink:href="#DejaVuSans-65" transform="translate(458.894531 0)"/>
     <use xlink:href="#DejaVuSans-63" transform="translate(520.417969 0)"/>
     <use xlink:href="#DejaVuSans-61" transform="translate(575.398438 0)"/>
     <use xlink:href="#DejaVuSans-79" transform="translate(636.677734 0)"/>
     <use xlink:href="#DejaVuSans-20" transform="translate(695.857422 0)"/>
     <use xlink:href="#DejaVuSans-2d" transform="translate(727.644531 0)"/>
     <use xlink:href="#DejaVuSans-20" transform="translate(763.728516 0)"/>
     <use xlink:href="#DejaVuSans-32" transform="translate(795.515625 0)"/>
     <use xlink:href="#DejaVuSans-30" transform="translate(859.138672 0)"/>
     <use xlink:href="#DejaVuSans-30" transform="translate(922.761719 0)"/>
     <use xlink:href="#DejaVuSans-30" transform="translate(986.384766 0)"/>
     <use xlink:href="#DejaVuSans-20" transform="translate(1050.007812 0)"/>
     <use xlink:href="#DejaVuSans-48" transform="translate(1081.794922 0)"/>
     <use xlink:href="#DejaVuSans-7a" transform="translate(1156.990234 0)"/>
    </g>
   </g>
   <g id="legend_1">
    <g id="patch_7">
     <path d="M 296.968437 108.1845 
L 407.72 108.1845 
Q 409.72 108.1845 409.72 106.1845 
L 409.72 48.472 
Q 409.72 46.472 407.72 46.472 
L 296.968437 46.472 
Q 294.968437 46.472 294.968437 48.472 
L 294.968437 106.1845 
Q 294.968437 108.1845 296.968437 108.1845 
z
" style="fill: #ffffff; opacity: 0.8; stroke: #cccccc; stroke-linejoin: miter"/>
    </g>
    <g id="line2d_18">
     <path d="M 298.968437 54.570438 
L 308.968437 54.570438 
L 318.968437 54.570438 
" style="fill: none; stroke: #1f77b4; stroke-width: 1.5; stroke-linecap: square"/>
    </g>
    <g id="text_16">
     <!-- Energy -->
     <g transform="translate(326.968437 58.070438) scale(0.1 -0.1)">
      <use xlink:href="#DejaVuSans-45"/>
      <use xlink:href="#DejaVuSans-6e" transform="translate(63.183594 0)"/>
      <use xlink:href="#DejaVuSans-65" transform="translate(126.5625 0)"/>
      <use xlink:href="#DejaVuSans-72" transform="translate(188.085938 0)"/>
      <use xlink:href="#DejaVuSans-67" transform="translate(227.449219 0)"/>
      <use xlink:href="#DejaVuSans-79" transform="translate(290.925781 0)"/>
     </g>
    </g>
    <g id="line2d_19">
     <path d="M 298.968437 69.248563 
L 308.968437 69.248563 
L 318.968437 69.248563 
" style="fill: none; stroke-dasharray: 5.55,2.4; stroke-dashoffset: 0; stroke: #ff7f0e; stroke-width: 1.5"/>
    </g>
    <g id="text_17">
     <!-- Linear Fit -->
     <g transform="translate(326.968437 72.748563) scale(0.1 -0.1)">
      <defs>
       <path id="DejaVuSans-4c" d="M 628 4666 
L 1259 4666 
L 1259 531 
L 3531 531 
L 3531 0 
L 628 0 
L 628 4666 
z
" transform="scale(0.015625)"/>
       <path id="DejaVuSans-69" d="M 603 3500 
L 1178 3500 
L 1178 0 
L 603 0 
L 603 3500 
z
M 603 4863 
L 1178 4863 
L 1178 4134 
L 603 4134 
L 603 4863 
z
" transform="scale(0.015625)"/>
       <path id="DejaVuSans-46" d="M 628 4666 
L 3309 4666 
L 3309 4134 
L 1259 4134 
L 1259 2759 
L 3109 2759 
L 3109 2228 
L 1259 2228 
L 1259 0 
L 628 0 
L 628 4666 
z
" transform="scale(0.015625)"/>
       <path id="DejaVuSans-74" d="M 1172 4494 
L 1172 3500 
L 2356 3500 
L 2356 3053 
L 1172 3053 
L 1172 1153 
Q 1172 725 1289 603 
Q 1406 481 1766 481 
L 2356 481 
L 2356 0 
L 1766 0 
Q 1100 0 847 248 
Q 594 497 594 1153 
L 594 3053 
L 172 3053 
L 172 3500 
L 594 3500 
L 594 4494 
L 1172 4494 
z
" transform="scale(0.015625)"/>
      </defs>
      <use xlink:href="#DejaVuSans-4c"/>
      <use xlink:href="#DejaVuSans-69" transform="translate(55.712891 0)"/>
      <use xlink:href="#DejaVuSans-6e" transform="translate(83.496094 0)"/>
      <use xlink:href="#DejaVuSans-65" transform="translate(146.875 0)"/>
      <use xlink:href="#DejaVuSans-61" transform="translate(208.398438 0)"/>
      <use xlink:href="#DejaVuSans-72" transform="translate(269.677734 0)"/>
      <use xlink:href="#DejaVuSans-20" transform="translate(310.791016 0)"/>
      <use xlink:href="#DejaVuSans-46" transform="translate(342.578125 0)"/>
      <use xlink:href="#DejaVuSans-69" transform="translate(392.847656 0)"/>
      <use xlink:href="#DejaVuSans-74" transform="translate(420.630859 0)"/>
     </g>
    </g>
    <g id="line2d_20">
     <path d="M 298.968437 83.926688 
L 308.968437 83.926688 
L 318.968437 83.926688 
" style="fill: none; stroke-dasharray: 5.55,2.4; stroke-dashoffset: 0; stroke: #2ca02c; stroke-width: 1.5"/>
    </g>
    <g id="text_18">
     <!-- -60 dB -->
     <g transform="translate(326.968437 87.426688) scale(0.1 -0.1)">
      <defs>
       <path id="DejaVuSans-64" d="M 2906 2969 
L 2906 4863 
L 3481 4863 
L 3481 0 
L 2906 0 
L 2906 525 
Q 2725 213 2448 61 
Q 2172 -91 1784 -91 
Q 1150 -91 751 415 
Q 353 922 353 1747 
Q 353 2572 751 3078 
Q 1150 3584 1784 3584 
Q 2172 3584 2448 3432 
Q 2725 3281 2906 2969 
z
M 947 1747 
Q 947 1113 1208 752 
Q 1469 391 1925 391 
Q 2381 391 2643 752 
Q 2906 1113 2906 1747 
Q 2906 2381 2643 2742 
Q 2381 3103 1925 3103 
Q 1469 3103 1208 2742 
Q 947 2381 947 1747 
z
" transform="scale(0.015625)"/>
       <path id="DejaVuSans-42" d="M 1259 2228 
L 1259 519 
L 2272 519 
Q 2781 519 3026 730 
Q 3272 941 3272 1375 
Q 3272 1813 3026 2020 
Q 2781 2228 2272 2228 
L 1259 2228 
z
M 1259 4147 
L 1259 2741 
L 2194 2741 
Q 2656 2741 2882 2914 
Q 3109 3088 3109 3444 
Q 3109 3797 2882 3972 
Q 2656 4147 2194 4147 
L 1259 4147 
z
M 628 4666 
L 2241 4666 
Q 2963 4666 3353 4366 
Q 3744 4066 3744 3513 
Q 3744 3084 3544 2831 
Q 3344 2578 2956 2516 
Q 3422 2416 3680 2098 
Q 3938 1781 3938 1306 
Q 3938 681 3513 340 
Q 3088 0 2303 0 
L 628 0 
L 628 4666 
z
" transform="scale(0.015625)"/>
      </defs>
      <use xlink:href="#DejaVuSans-2d"/>
      <use xlink:href="#DejaVuSans-36" transform="translate(36.083984 0)"/>
      <use xlink:href="#DejaVuSans-30" transform="translate(99.707031 0)"/>
      <use xlink:href="#DejaVuSans-20" transform="translate(163.330078 0)"/>
      <use xlink:href="#DejaVuSans-64" transform="translate(195.117188 0)"/>
      <use xlink:href="#DejaVuSans-42" transform="translate(258.59375 0)"/>
     </g>
    </g>
    <g id="line2d_21">
     <path d="M 298.968437 98.604813 
L 318.968437 98.604813 
" style="fill: none; stroke-dasharray: 5.55,2.4; stroke-dashoffset: 0; stroke: #1f77b4; stroke-width: 1.5"/>
    </g>
    <g id="text_19">
     <!-- Estimated RT60 -->
     <g transform="translate(326.968437 102.104813) scale(0.1 -0.1)">
      <defs>
       <path id="DejaVuSans-73" d="M 2834 3397 
L 2834 2853 
Q 2591 2978 2328 3040 
Q 2066 3103 1784 3103 
Q 1356 3103 1142 2972 
Q 928 2841 928 2578 
Q 928 2378 1081 2264 
Q 1234 2150 1697 2047 
L 1894 2003 
Q 2506 1872 2764 1633 
Q 3022 1394 3022 966 
Q 3022 478 2636 193 
Q 2250 -91 1575 -91 
Q 1294 -91 989 -36 
Q 684 19 347 128 
L 347 722 
Q 666 556 975 473 
Q 1284 391 1588 391 
Q 1994 391 2212 530 
Q 2431 669 2431 922 
Q 2431 1156 2273 1281 
Q 2116 1406 1581 1522 
L 1381 1569 
Q 847 1681 609 1914 
Q 372 2147 372 2553 
Q 372 3047 722 3315 
Q 1072 3584 1716 3584 
Q 2034 3584 2315 3537 
Q 2597 3491 2834 3397 
z
" transform="scale(0.015625)"/>
       <path id="DejaVuSans-6d" d="M 3328 2828 
Q 3544 3216 3844 3400 
Q 4144 3584 4550 3584 
Q 5097 3584 5394 3201 
Q 5691 2819 5691 2113 
L 5691 0 
L 5113 0 
L 5113 2094 
Q 5113 2597 4934 2840 
Q 4756 3084 4391 3084 
Q 3944 3084 3684 2787 
Q 3425 2491 3425 1978 
L 3425 0 
L 2847 0 
L 2847 2094 
Q 2847 2600 2669 2842 
Q 2491 3084 2119 3084 
Q 1678 3084 1418 2786 
Q 1159 2488 1159 1978 
L 1159 0 
L 581 0 
L 581 3500 
L 1159 3500 
L 1159 2956 
Q 1356 3278 1631 3431 
Q 1906 3584 2284 3584 
Q 2666 3584 2933 3390 
Q 3200 3197 3328 2828 
z
" transform="scale(0.015625)"/>
       <path id="DejaVuSans-52" d="M 2841 2188 
Q 3044 2119 3236 1894 
Q 3428 1669 3622 1275 
L 4263 0 
L 3584 0 
L 2988 1197 
Q 2756 1666 2539 1819 
Q 2322 1972 1947 1972 
L 1259 1972 
L 1259 0 
L 628 0 
L 628 4666 
L 2053 4666 
Q 2853 4666 3247 4331 
Q 3641 3997 3641 3322 
Q 3641 2881 3436 2590 
Q 3231 2300 2841 2188 
z
M 1259 4147 
L 1259 2491 
L 2053 2491 
Q 2509 2491 2742 2702 
Q 2975 2913 2975 3322 
Q 2975 3731 2742 3939 
Q 2509 4147 2053 4147 
L 1259 4147 
z
" transform="scale(0.015625)"/>
       <path id="DejaVuSans-54" d="M -19 4666 
L 3928 4666 
L 3928 4134 
L 2272 4134 
L 2272 0 
L 1638 0 
L 1638 4134 
L -19 4134 
L -19 4666 
z
" transform="scale(0.015625)"/>
      </defs>
      <use xlink:href="#DejaVuSans-45"/>
      <use xlink:href="#DejaVuSans-73" transform="translate(63.183594 0)"/>
      <use xlink:href="#DejaVuSans-74" transform="translate(115.283203 0)"/>
      <use xlink:href="#DejaVuSans-69" transform="translate(154.492188 0)"/>
      <use xlink:href="#DejaVuSans-6d" transform="translate(182.275391 0)"/>
      <use xlink:href="#DejaVuSans-61" transform="translate(279.6875 0)"/>
      <use xlink:href="#DejaVuSans-74" transform="translate(340.966797 0)"/>
      <use xlink:href="#DejaVuSans-65" transform="translate(380.175781 0)"/>
      <use xlink:href="#DejaVuSans-64" transform="translate(441.699219 0)"/>
      <use xlink:href="#DejaVuSans-20" transform="translate(505.175781 0)"/>
      <use xlink:href="#DejaVuSans-52" transform="translate(536.962891 0)"/>
      <use xlink:href="#DejaVuSans-54" transform="translate(599.195312 0)"/>
      <use xlink:href="#DejaVuSans-36" transform="translate(660.279297 0)"/>
      <use xlink:href="#DejaVuSans-30" transform="translate(723.902344 0)"/>
     </g>
    </g>
   </g>
  </g>
 </g>
 <defs>
  <clipPath id="p4d6a511a27">
   <rect x="57.6" y="41.472" width="357.12" height="266.112"/>
  </clipPath>
 </defs>
</svg>
