<?xml version="1.0" encoding="utf-8" standalone="no"?>
<!DOCTYPE svg PUBLIC "-//W3C//DTD SVG 1.1//EN"
  "http://www.w3.org/Graphics/SVG/1.1/DTD/svg11.dtd">
<svg xmlns:xlink="http://www.w3.org/1999/xlink" width="460.8pt" height="345.6pt" viewBox="0 0 460.8 345.6" xmlns="http://www.w3.org/2000/svg" version="1.1">
 <metadata>
  <rdf:RDF xmlns:dc="http://purl.org/dc/elements/1.1/" xmlns:cc="http://creativecommons.org/ns#" xmlns:rdf="http://www.w3.org/1999/02/22-rdf-syntax-ns#">
   <cc:Work>
    <dc:type rdf:resource="http://purl.org/dc/dcmitype/StillImage"/>
    <dc:date>2025-05-07T11:07:14.690729</dc:date>
    <dc:format>image/svg+xml</dc:format>
    <dc:creator>
     <cc:Agent>
      <dc:title>Matplotlib v3.10.1, https://matplotlib.org/</dc:title>
     </cc:Agent>
    </dc:creator>
   </cc:Work>
  </rdf:RDF>
 </metadata>
 <defs>
  <style type="text/css">*{stroke-linejoin: round; stroke-linecap: butt}</style>
 </defs>
 <g id="figure_1">
  <g id="patch_1">
   <path d="M 0 345.6 
L 460.8 345.6 
L 460.8 0 
L 0 0 
z
" style="fill: #ffffff"/>
  </g>
  <g id="axes_1">
   <g id="patch_2">
    <path d="M 57.6 307.584 
L 414.72 307.584 
L 414.72 41.472 
L 57.6 41.472 
z
" style="fill: #ffffff"/>
   </g>
   <g id="matplotlib.axis_1">
    <g id="xtick_1">
     <g id="line2d_1">
      <defs>
       <path id="md9df9f1b82" d="M 0 0 
L 0 3.5 
" style="stroke: #000000; stroke-width: 0.8"/>
      </defs>
      <g>
       <use xlink:href="#md9df9f1b82" x="80.95914" y="307.584" style="stroke: #000000; stroke-width: 0.8"/>
      </g>
     </g>
     <g id="text_1">
      <!-- −0.2 -->
      <g transform="translate(68.817734 322.182437) scale(0.1 -0.1)">
       <defs>
        <path id="DejaVuSans-2212" d="M 678 2272 
L 4684 2272 
L 4684 1741 
L 678 1741 
L 678 2272 
z
" transform="scale(0.015625)"/>
        <path id="DejaVuSans-30" d="M 2034 4250 
Q 1547 4250 1301 3770 
Q 1056 3291 1056 2328 
Q 1056 1369 1301 889 
Q 1547 409 2034 409 
Q 2525 409 2770 889 
Q 3016 1369 3016 2328 
Q 3016 3291 2770 3770 
Q 2525 4250 2034 4250 
z
M 2034 4750 
Q 2819 4750 3233 4129 
Q 3647 3509 3647 2328 
Q 3647 1150 3233 529 
Q 2819 -91 2034 -91 
Q 1250 -91 836 529 
Q 422 1150 422 2328 
Q 422 3509 836 4129 
Q 1250 4750 2034 4750 
z
" transform="scale(0.015625)"/>
        <path id="DejaVuSans-2e" d="M 684 794 
L 1344 794 
L 1344 0 
L 684 0 
L 684 794 
z
" transform="scale(0.015625)"/>
        <path id="DejaVuSans-32" d="M 1228 531 
L 3431 531 
L 3431 0 
L 469 0 
L 469 531 
Q 828 903 1448 1529 
Q 2069 2156 2228 2338 
Q 2531 2678 2651 2914 
Q 2772 3150 2772 3378 
Q 2772 3750 2511 3984 
Q 2250 4219 1831 4219 
Q 1534 4219 1204 4116 
Q 875 4013 500 3803 
L 500 4441 
Q 881 4594 1212 4672 
Q 1544 4750 1819 4750 
Q 2544 4750 2975 4387 
Q 3406 4025 3406 3419 
Q 3406 3131 3298 2873 
Q 3191 2616 2906 2266 
Q 2828 2175 2409 1742 
Q 1991 1309 1228 531 
z
" transform="scale(0.015625)"/>
       </defs>
       <use xlink:href="#DejaVuSans-2212"/>
       <use xlink:href="#DejaVuSans-30" transform="translate(83.789062 0)"/>
       <use xlink:href="#DejaVuSans-2e" transform="translate(147.412109 0)"/>
       <use xlink:href="#DejaVuSans-32" transform="translate(179.199219 0)"/>
      </g>
     </g>
    </g>
    <g id="xtick_2">
     <g id="line2d_2">
      <g>
       <use xlink:href="#md9df9f1b82" x="139.98724" y="307.584" style="stroke: #000000; stroke-width: 0.8"/>
      </g>
     </g>
     <g id="text_2">
      <!-- 0.0 -->
      <g transform="translate(132.035677 322.182437) scale(0.1 -0.1)">
       <use xlink:href="#DejaVuSans-30"/>
       <use xlink:href="#DejaVuSans-2e" transform="translate(63.623047 0)"/>
       <use xlink:href="#DejaVuSans-30" transform="translate(95.410156 0)"/>
      </g>
     </g>
    </g>
    <g id="xtick_3">
     <g id="line2d_3">
      <g>
       <use xlink:href="#md9df9f1b82" x="199.015339" y="307.584" style="stroke: #000000; stroke-width: 0.8"/>
      </g>
     </g>
     <g id="text_3">
      <!-- 0.2 -->
      <g transform="translate(191.063776 322.182437) scale(0.1 -0.1)">
       <use xlink:href="#DejaVuSans-30"/>
       <use xlink:href="#DejaVuSans-2e" transform="translate(63.623047 0)"/>
       <use xlink:href="#DejaVuSans-32" transform="translate(95.410156 0)"/>
      </g>
     </g>
    </g>
    <g id="xtick_4">
     <g id="line2d_4">
      <g>
       <use xlink:href="#md9df9f1b82" x="258.043438" y="307.584" style="stroke: #000000; stroke-width: 0.8"/>
      </g>
     </g>
     <g id="text_4">
      <!-- 0.4 -->
      <g transform="translate(250.091876 322.182437) scale(0.1 -0.1)">
       <defs>
        <path id="DejaVuSans-34" d="M 2419 4116 
L 825 1625 
L 2419 1625 
L 2419 4116 
z
M 2253 4666 
L 3047 4666 
L 3047 1625 
L 3713 1625 
L 3713 1100 
L 3047 1100 
L 3047 0 
L 2419 0 
L 2419 1100 
L 313 1100 
L 313 1709 
L 2253 4666 
z
" transform="scale(0.015625)"/>
       </defs>
       <use xlink:href="#DejaVuSans-30"/>
       <use xlink:href="#DejaVuSans-2e" transform="translate(63.623047 0)"/>
       <use xlink:href="#DejaVuSans-34" transform="translate(95.410156 0)"/>
      </g>
     </g>
    </g>
    <g id="xtick_5">
     <g id="line2d_5">
      <g>
       <use xlink:href="#md9df9f1b82" x="317.071537" y="307.584" style="stroke: #000000; stroke-width: 0.8"/>
      </g>
     </g>
     <g id="text_5">
      <!-- 0.6 -->
      <g transform="translate(309.119975 322.182437) scale(0.1 -0.1)">
       <defs>
        <path id="DejaVuSans-36" d="M 2113 2584 
Q 1688 2584 1439 2293 
Q 1191 2003 1191 1497 
Q 1191 994 1439 701 
Q 1688 409 2113 409 
Q 2538 409 2786 701 
Q 3034 994 3034 1497 
Q 3034 2003 2786 2293 
Q 2538 2584 2113 2584 
z
M 3366 4563 
L 3366 3988 
Q 3128 4100 2886 4159 
Q 2644 4219 2406 4219 
Q 1781 4219 1451 3797 
Q 1122 3375 1075 2522 
Q 1259 2794 1537 2939 
Q 1816 3084 2150 3084 
Q 2853 3084 3261 2657 
Q 3669 2231 3669 1497 
Q 3669 778 3244 343 
Q 2819 -91 2113 -91 
Q 1303 -91 875 529 
Q 447 1150 447 2328 
Q 447 3434 972 4092 
Q 1497 4750 2381 4750 
Q 2619 4750 2861 4703 
Q 3103 4656 3366 4563 
z
" transform="scale(0.015625)"/>
       </defs>
       <use xlink:href="#DejaVuSans-30"/>
       <use xlink:href="#DejaVuSans-2e" transform="translate(63.623047 0)"/>
       <use xlink:href="#DejaVuSans-36" transform="translate(95.410156 0)"/>
      </g>
     </g>
    </g>
    <g id="xtick_6">
     <g id="line2d_6">
      <g>
       <use xlink:href="#md9df9f1b82" x="376.099636" y="307.584" style="stroke: #000000; stroke-width: 0.8"/>
      </g>
     </g>
     <g id="text_6">
      <!-- 0.8 -->
      <g transform="translate(368.148074 322.182437) scale(0.1 -0.1)">
       <defs>
        <path id="DejaVuSans-38" d="M 2034 2216 
Q 1584 2216 1326 1975 
Q 1069 1734 1069 1313 
Q 1069 891 1326 650 
Q 1584 409 2034 409 
Q 2484 409 2743 651 
Q 3003 894 3003 1313 
Q 3003 1734 2745 1975 
Q 2488 2216 2034 2216 
z
M 1403 2484 
Q 997 2584 770 2862 
Q 544 3141 544 3541 
Q 544 4100 942 4425 
Q 1341 4750 2034 4750 
Q 2731 4750 3128 4425 
Q 3525 4100 3525 3541 
Q 3525 3141 3298 2862 
Q 3072 2584 2669 2484 
Q 3125 2378 3379 2068 
Q 3634 1759 3634 1313 
Q 3634 634 3220 271 
Q 2806 -91 2034 -91 
Q 1263 -91 848 271 
Q 434 634 434 1313 
Q 434 1759 690 2068 
Q 947 2378 1403 2484 
z
M 1172 3481 
Q 1172 3119 1398 2916 
Q 1625 2713 2034 2713 
Q 2441 2713 2670 2916 
Q 2900 3119 2900 3481 
Q 2900 3844 2670 4047 
Q 2441 4250 2034 4250 
Q 1625 4250 1398 4047 
Q 1172 3844 1172 3481 
z
" transform="scale(0.015625)"/>
       </defs>
       <use xlink:href="#DejaVuSans-30"/>
       <use xlink:href="#DejaVuSans-2e" transform="translate(63.623047 0)"/>
       <use xlink:href="#DejaVuSans-38" transform="translate(95.410156 0)"/>
      </g>
     </g>
    </g>
   </g>
   <g id="matplotlib.axis_2">
    <g id="ytick_1">
     <g id="line2d_7">
      <defs>
       <path id="m7673d0a2f2" d="M 0 0 
L -3.5 0 
" style="stroke: #000000; stroke-width: 0.8"/>
      </defs>
      <g>
       <use xlink:href="#m7673d0a2f2" x="57.6" y="288.126439" style="stroke: #000000; stroke-width: 0.8"/>
      </g>
     </g>
     <g id="text_7">
      <!-- −140 -->
      <g transform="translate(23.132812 291.925658) scale(0.1 -0.1)">
       <defs>
        <path id="DejaVuSans-31" d="M 794 531 
L 1825 531 
L 1825 4091 
L 703 3866 
L 703 4441 
L 1819 4666 
L 2450 4666 
L 2450 531 
L 3481 531 
L 3481 0 
L 794 0 
L 794 531 
z
" transform="scale(0.015625)"/>
       </defs>
       <use xlink:href="#DejaVuSans-2212"/>
       <use xlink:href="#DejaVuSans-31" transform="translate(83.789062 0)"/>
       <use xlink:href="#DejaVuSans-34" transform="translate(147.412109 0)"/>
       <use xlink:href="#DejaVuSans-30" transform="translate(211.035156 0)"/>
      </g>
     </g>
    </g>
    <g id="ytick_2">
     <g id="line2d_8">
      <g>
       <use xlink:href="#m7673d0a2f2" x="57.6" y="254.618091" style="stroke: #000000; stroke-width: 0.8"/>
      </g>
     </g>
     <g id="text_8">
      <!-- −120 -->
      <g transform="translate(23.132812 258.41731) scale(0.1 -0.1)">
       <use xlink:href="#DejaVuSans-2212"/>
       <use xlink:href="#DejaVuSans-31" transform="translate(83.789062 0)"/>
       <use xlink:href="#DejaVuSans-32" transform="translate(147.412109 0)"/>
       <use xlink:href="#DejaVuSans-30" transform="translate(211.035156 0)"/>
      </g>
     </g>
    </g>
    <g id="ytick_3">
     <g id="line2d_9">
      <g>
       <use xlink:href="#m7673d0a2f2" x="57.6" y="221.109742" style="stroke: #000000; stroke-width: 0.8"/>
      </g>
     </g>
     <g id="text_9">
      <!-- −100 -->
      <g transform="translate(23.132812 224.908961) scale(0.1 -0.1)">
       <use xlink:href="#DejaVuSans-2212"/>
       <use xlink:href="#DejaVuSans-31" transform="translate(83.789062 0)"/>
       <use xlink:href="#DejaVuSans-30" transform="translate(147.412109 0)"/>
       <use xlink:href="#DejaVuSans-30" transform="translate(211.035156 0)"/>
      </g>
     </g>
    </g>
    <g id="ytick_4">
     <g id="line2d_10">
      <g>
       <use xlink:href="#m7673d0a2f2" x="57.6" y="187.601394" style="stroke: #000000; stroke-width: 0.8"/>
      </g>
     </g>
     <g id="text_10">
      <!-- −80 -->
      <g transform="translate(29.495313 191.400613) scale(0.1 -0.1)">
       <use xlink:href="#DejaVuSans-2212"/>
       <use xlink:href="#DejaVuSans-38" transform="translate(83.789062 0)"/>
       <use xlink:href="#DejaVuSans-30" transform="translate(147.412109 0)"/>
      </g>
     </g>
    </g>
    <g id="ytick_5">
     <g id="line2d_11">
      <g>
       <use xlink:href="#m7673d0a2f2" x="57.6" y="154.093045" style="stroke: #000000; stroke-width: 0.8"/>
      </g>
     </g>
     <g id="text_11">
      <!-- −60 -->
      <g transform="translate(29.495313 157.892264) scale(0.1 -0.1)">
       <use xlink:href="#DejaVuSans-2212"/>
       <use xlink:href="#DejaVuSans-36" transform="translate(83.789062 0)"/>
       <use xlink:href="#DejaVuSans-30" transform="translate(147.412109 0)"/>
      </g>
     </g>
    </g>
    <g id="ytick_6">
     <g id="line2d_12">
      <g>
       <use xlink:href="#m7673d0a2f2" x="57.6" y="120.584697" style="stroke: #000000; stroke-width: 0.8"/>
      </g>
     </g>
     <g id="text_12">
      <!-- −40 -->
      <g transform="translate(29.495313 124.383916) scale(0.1 -0.1)">
       <use xlink:href="#DejaVuSans-2212"/>
       <use xlink:href="#DejaVuSans-34" transform="translate(83.789062 0)"/>
       <use xlink:href="#DejaVuSans-30" transform="translate(147.412109 0)"/>
      </g>
     </g>
    </g>
    <g id="ytick_7">
     <g id="line2d_13">
      <g>
       <use xlink:href="#m7673d0a2f2" x="57.6" y="87.076348" style="stroke: #000000; stroke-width: 0.8"/>
      </g>
     </g>
     <g id="text_13">
      <!-- −20 -->
      <g transform="translate(29.495313 90.875567) scale(0.1 -0.1)">
       <use xlink:href="#DejaVuSans-2212"/>
       <use xlink:href="#DejaVuSans-32" transform="translate(83.789062 0)"/>
       <use xlink:href="#DejaVuSans-30" transform="translate(147.412109 0)"/>
      </g>
     </g>
    </g>
    <g id="ytick_8">
     <g id="line2d_14">
      <g>
       <use xlink:href="#m7673d0a2f2" x="57.6" y="53.568" style="stroke: #000000; stroke-width: 0.8"/>
      </g>
     </g>
     <g id="text_14">
      <!-- 0 -->
      <g transform="translate(44.2375 57.367219) scale(0.1 -0.1)">
       <use xlink:href="#DejaVuSans-30"/>
      </g>
     </g>
    </g>
   </g>
   <g id="line2d_15">
    <path d="M 73.832727 53.568 
L 125.470017 53.672715 
L 125.740562 53.980977 
L 126.072595 54.307058 
L 126.250909 54.45903 
L 127.425322 54.628465 
L 127.800397 54.927336 
L 127.892628 55.037398 
L 128.089388 55.269295 
L 128.366083 55.392289 
L 128.624331 56.05151 
L 128.784198 56.099648 
L 130.050843 56.568851 
L 130.302942 56.886438 
L 130.598083 57.047458 
L 130.782545 57.222126 
L 131.711008 57.345415 
L 131.913917 57.393699 
L 132.116826 57.502999 
L 132.332033 57.73541 
L 133.069884 58.191236 
L 133.697058 58.534464 
L 133.869223 58.57759 
L 134.256595 58.687628 
L 134.619372 58.817854 
L 135.295736 59.101085 
L 135.504793 59.273439 
L 135.842975 59.621347 
L 136.070479 59.921099 
L 136.61157 60.04151 
L 137.06043 60.361212 
L 138.407008 60.922007 
L 138.622215 61.038329 
L 138.862017 61.383646 
L 139.187901 61.508803 
L 139.366215 61.625032 
L 139.839669 61.748904 
L 140.104066 62.094422 
L 140.559074 62.372423 
L 140.921851 62.487489 
L 141.352264 62.710722 
L 141.555174 62.97176 
L 143.319868 63.548887 
L 143.682645 63.673441 
L 144.192992 63.88394 
L 144.40205 64.030069 
L 144.734083 64.152246 
L 144.967736 64.412957 
L 145.262876 64.526703 
L 145.527273 64.678038 
L 146.049917 64.806213 
L 146.363504 64.854366 
L 146.97838 64.964359 
L 149.296463 66.53344 
L 149.548562 66.757087 
L 149.782215 66.916847 
L 149.880595 67.027124 
L 150.144992 67.168307 
L 150.446281 67.345662 
L 150.735273 67.557322 
L 150.962777 67.757098 
L 151.190281 67.867551 
L 151.921983 67.981385 
L 152.241719 68.28691 
L 152.444628 68.524778 
L 153.717421 68.788514 
L 153.951074 68.989445 
L 154.141686 69.029319 
L 154.430678 69.152994 
L 154.713521 69.324723 
L 155.531306 69.496617 
L 155.740364 69.668292 
L 155.95557 69.94579 
L 156.607339 70.103306 
L 156.890182 70.464798 
L 157.105388 70.510149 
L 157.984661 70.783109 
L 158.199868 70.940084 
L 158.863934 71.298101 
L 159.048397 71.404018 
L 159.294347 71.531353 
L 159.595636 71.850021 
L 159.82314 71.976026 
L 160.044496 72.120774 
L 160.444165 72.228927 
L 160.886876 72.33862 
L 161.102083 72.461206 
L 161.962909 72.595471 
L 162.331835 72.953835 
L 163.616926 73.096251 
L 163.948959 73.343617 
L 164.280992 73.359345 
L 164.877421 73.471471 
L 165.191008 73.602037 
L 167.01719 74.242024 
L 167.26314 74.323446 
L 168.892562 74.663951 
L 169.132364 75.176343 
L 169.74724 75.390457 
L 170.731041 75.6333 
L 170.897058 75.782474 
L 171.081521 75.973198 
L 171.714843 76.093061 
L 172.311273 76.592599 
L 172.975339 76.998637 
L 173.620959 78.043675 
L 173.95914 78.206419 
L 174.819967 78.918301 
L 175.416397 79.108747 
L 175.889851 79.251443 
L 176.068165 79.40466 
L 176.412496 80.061415 
L 176.584661 80.10894 
L 177.62995 80.337541 
L 178.005025 80.644605 
L 178.269421 80.787884 
L 178.656793 80.999958 
L 178.994975 81.074535 
L 179.191736 81.189211 
L 179.738975 81.265165 
L 180.26162 81.420118 
L 180.937983 81.988106 
L 181.140893 82.212031 
L 182.604298 82.742581 
L 182.819504 82.904757 
L 183.102347 82.961482 
L 183.63114 83.108371 
L 184.141488 83.379828 
L 185.340496 83.508741 
L 185.684826 83.798505 
L 185.881587 84.030156 
L 186.551802 84.173889 
L 186.797752 84.304889 
L 187.584793 84.507098 
L 187.843041 84.864696 
L 188.076694 84.91111 
L 188.162777 85.017268 
L 188.525554 85.324944 
L 188.64238 85.515212 
L 188.826843 85.806412 
L 189.822942 86.051013 
L 190.062744 86.167612 
L 190.265653 86.285246 
L 191.046545 86.413094 
L 192.141025 86.888715 
L 192.393124 87.230856 
L 192.485355 87.351718 
L 192.657521 87.380802 
L 192.891174 87.48303 
L 193.075636 87.562833 
L 193.573686 87.666641 
L 193.924165 87.951023 
L 194.471405 88.132156 
L 194.680463 88.324443 
L 195.117025 88.446239 
L 196.057785 88.647261 
L 196.266843 88.81856 
L 197.61957 89.184075 
L 197.883967 89.428718 
L 197.988496 89.53631 
L 198.179107 89.612341 
L 198.658711 89.740739 
L 199.101421 90.078572 
L 199.550281 90.242025 
L 200.417256 90.401827 
L 200.792331 90.49471 
L 201.222744 90.627531 
L 201.517884 90.709313 
L 202.009785 90.855759 
L 202.704595 91.118097 
L 202.993587 91.230466 
L 203.344066 91.492551 
L 203.983537 91.913505 
L 204.204893 91.982809 
L 205.05957 92.237129 
L 205.299372 92.547982 
L 205.846612 92.702379 
L 206.246281 93.070463 
L 206.566017 93.600325 
L 207.629752 93.767884 
L 208.220033 93.957938 
L 208.699636 94.353465 
L 210.144595 94.998734 
L 210.439736 95.352845 
L 210.61805 95.402782 
L 211.177587 95.697658 
L 211.36205 95.83463 
L 211.872397 95.994479 
L 212.610248 96.151486 
L 213.157488 96.570971 
L 213.686281 96.682704 
L 214.012165 96.73646 
L 214.63319 96.853319 
L 215.039008 97.044825 
L 215.266512 97.35977 
L 216.846744 97.595482 
L 217.861289 98.077801 
L 218.211769 98.204594 
L 218.679074 98.514277 
L 219.367736 98.648253 
L 219.847339 99.034361 
L 220.093289 99.118594 
L 220.603636 99.269345 
L 221.37838 99.391187 
L 221.77805 99.465373 
L 222.005554 99.579186 
L 222.890975 100.132479 
L 224.372826 100.51994 
L 224.649521 100.618306 
L 225.682512 100.960664 
L 225.823934 101.172345 
L 226.365025 101.663577 
L 227.594777 102.029814 
L 227.92681 102.240023 
L 228.111273 102.393193 
L 228.799934 102.625625 
L 229.088926 102.828634 
L 229.482446 103.035394 
L 229.728397 103.552807 
L 229.796033 103.66584 
L 230.01124 104.04973 
L 230.226446 104.179239 
L 231.517686 104.574886 
L 231.751339 104.648929 
L 232.98724 104.794712 
L 233.891107 105.050941 
L 234.143207 105.387362 
L 234.739636 105.567842 
L 235.096264 105.984272 
L 235.293025 106.245679 
L 235.680397 106.371481 
L 235.926347 106.434054 
L 236.276826 106.59254 
L 236.528926 106.878983 
L 236.824066 106.989432 
L 237.057719 107.030012 
L 237.69719 107.143764 
L 238.232132 107.76089 
L 238.392 107.86685 
L 238.619504 108.126029 
L 238.908496 108.393592 
L 240.464132 109.11473 
L 240.710083 109.197302 
L 241.61395 109.563469 
L 241.945983 109.740372 
L 242.032066 109.848185 
L 242.290314 110.079715 
L 242.800661 110.254135 
L 244.153388 110.367435 
L 244.58995 110.494202 
L 245.100298 110.600492 
L 245.346248 110.675989 
L 245.63524 110.812288 
L 245.856595 111.094116 
L 246.981818 111.362124 
L 247.541355 111.678663 
L 247.762711 111.846179 
L 248.408331 111.958667 
L 249.35524 112.461369 
L 249.613488 112.808233 
L 250.812496 113.018184 
L 251.390479 113.276359 
L 251.790149 113.304717 
L 252.269752 113.413744 
L 252.528 113.447947 
L 252.743207 113.556942 
L 253.235107 114.186778 
L 253.763901 114.372554 
L 254.040595 114.412121 
L 254.366479 114.573709 
L 254.544793 114.640478 
L 255.202711 114.865337 
L 255.467107 115.024239 
L 256.340231 115.14303 
L 256.703008 115.382773 
L 256.930512 115.488801 
L 257.219504 115.731629 
L 257.594579 115.778593 
L 258.92886 116.064387 
L 259.199405 116.296557 
L 259.316231 116.405057 
L 259.556033 116.508997 
L 259.728198 116.612909 
L 259.949554 116.927066 
L 260.736595 117.041695 
L 261.296132 117.160995 
L 261.714248 117.29801 
L 261.923306 117.434293 
L 262.156959 117.553467 
L 262.39676 117.845471 
L 262.704198 117.979829 
L 263.097719 118.198617 
L 263.601917 118.32839 
L 264.069223 118.575472 
L 264.38281 118.687506 
L 264.48119 118.937266 
L 264.764033 119.125272 
L 264.905455 119.238892 
L 265.735537 119.93507 
L 265.956893 120.073295 
L 266.239736 120.450604 
L 266.854612 120.589453 
L 267.168198 121.035708 
L 268.096661 121.187575 
L 268.736132 121.297126 
L 268.969785 121.514687 
L 269.166545 121.754774 
L 269.990479 121.88611 
L 270.568463 122.374768 
L 270.875901 122.96209 
L 271.041917 123.015734 
L 272.062612 123.164072 
L 273.446083 123.645232 
L 273.648992 123.835639 
L 274.25157 124.04719 
L 274.423736 124.15745 
L 274.768066 124.336558 
L 275.309157 124.468807 
L 275.69038 124.719293 
L 276.778711 125.270673 
L 276.98162 125.385966 
L 277.264463 125.657418 
L 277.787107 125.908388 
L 277.97157 126.02172 
L 278.235967 126.195464 
L 278.451174 126.422421 
L 278.844694 126.475119 
L 280.215868 126.6197 
L 280.615537 126.689018 
L 281.34724 126.798629 
L 281.623934 126.845362 
L 282.410975 127.019923 
L 282.626182 127.07003 
L 283.22876 127.184538 
L 284.064992 127.377518 
L 284.753653 127.511659 
L 285.608331 127.671368 
L 285.940364 127.782492 
L 286.149421 127.851127 
L 287.163967 127.987704 
L 287.360727 128.136465 
L 287.662017 128.21515 
L 288.080132 128.287265 
L 291.31438 129.101129 
L 291.486545 129.165297 
L 292.162909 129.290803 
L 292.845421 129.401003 
L 293.288132 129.678491 
L 293.890711 129.790956 
L 294.210446 129.908902 
L 294.462545 130.121298 
L 294.64086 130.192203 
L 295.071273 130.31205 
L 295.317223 130.381485 
L 296.141157 130.662705 
L 296.37481 130.955616 
L 296.792926 131.055107 
L 297.469289 131.388217 
L 297.696793 131.472708 
L 299.35081 131.714334 
L 299.713587 132.195912 
L 299.941091 132.943841 
L 300.365355 133.145505 
L 301.158545 133.312028 
L 301.349157 133.406413 
L 302.160793 133.914499 
L 302.511273 134.025204 
L 302.984727 134.068101 
L 303.925488 134.28308 
L 304.251372 134.371285 
L 305.825455 134.751848 
L 306.409587 135.174276 
L 307.147438 135.284634 
L 307.48562 135.46195 
L 307.82995 135.587234 
L 308.57395 135.732045 
L 309.053554 136.082005 
L 309.281058 136.375162 
L 312.263207 137.001905 
L 312.515306 137.027975 
L 313.160926 137.204002 
L 313.615934 137.327655 
L 315.011702 137.707063 
L 315.31914 137.967429 
L 315.399074 138.095229 
L 315.57124 138.242097 
L 315.841785 138.362229 
L 317.071537 138.767389 
L 317.581884 139.328767 
L 318.787041 139.44788 
L 319.211306 139.57501 
L 319.617124 139.682987 
L 319.912264 139.739135 
L 320.668562 139.914248 
L 320.951405 140.073245 
L 321.836826 140.255792 
L 322.26724 140.380703 
L 323.023537 140.777996 
L 323.214149 140.85656 
L 324.031934 141.052371 
L 324.24714 141.074843 
L 325.68595 141.319686 
L 325.999537 141.424478 
L 326.712793 141.546832 
L 326.958744 141.596693 
L 327.924099 141.724945 
L 328.416 142.055494 
L 328.729587 142.164291 
L 329.01243 142.229569 
L 330.094612 142.519185 
L 330.291372 142.5631 
L 330.518876 142.698469 
L 330.807868 143.099597 
L 332.240529 143.3045 
L 333.863802 144.285807 
L 334.097455 144.396961 
L 334.398744 144.521545 
L 334.792264 144.637089 
L 334.970579 144.706871 
L 336.095802 144.859711 
L 336.372496 145.023795 
L 336.722975 145.15188 
L 336.938182 145.190552 
L 337.030413 145.294798 
L 337.257917 145.504402 
L 337.651438 145.573214 
L 338.844298 145.778712 
L 339.72357 146.271443 
L 341.230017 146.683634 
L 341.783405 146.798188 
L 342.60119 146.90901 
L 343.468165 147.029088 
L 344.206017 147.525469 
L 344.568793 147.741504 
L 345.085289 147.888458 
L 345.460364 148.183289 
L 345.915372 148.253164 
L 346.388826 148.417985 
L 346.714711 148.545179 
L 347.11438 148.685606 
L 347.384926 148.731421 
L 347.71081 148.851584 
L 347.95676 148.976788 
L 348.325686 149.069114 
L 348.909818 149.17954 
L 349.211107 149.443431 
L 351.547636 150.07313 
L 352.463802 151.021146 
L 352.961851 151.150068 
L 353.816529 151.268261 
L 354.535934 151.57891 
L 354.917157 151.682646 
L 355.273785 152.016531 
L 355.808727 152.151291 
L 356.054678 152.32458 
L 356.521983 152.435259 
L 357.063074 152.54802 
L 357.321322 152.659276 
L 357.585719 153.024859 
L 358.305124 153.157028 
L 358.692496 153.263857 
L 358.938446 153.507146 
L 359.141355 153.621618 
L 359.381157 153.698801 
L 359.897653 153.824256 
L 360.11286 153.99125 
L 360.426446 154.124951 
L 360.660099 154.265707 
L 361.465587 154.794818 
L 361.625455 154.903996 
L 361.877554 155.119245 
L 363.267174 155.543557 
L 363.703736 155.651842 
L 364.398545 156.525664 
L 364.890446 156.811348 
L 365.800463 156.954007 
L 366.421488 157.618595 
L 366.876496 157.768801 
L 367.060959 157.851517 
L 367.60205 158.209154 
L 368.007868 158.349088 
L 368.505917 158.573033 
L 368.794909 158.973292 
L 369.13924 159.202084 
L 369.348298 159.477725 
L 370.17838 160.044104 
L 370.350545 160.429569 
L 370.633388 160.889912 
L 370.793256 161.176114 
L 371.432727 161.399881 
L 371.783207 161.517897 
L 372.029157 161.789 
L 372.594843 161.908858 
L 372.982215 162.077179 
L 373.234314 162.202798 
L 373.424926 162.286657 
L 373.861488 162.608604 
L 374.132033 163.264207 
L 374.316496 163.409214 
L 374.470215 163.504228 
L 374.630083 163.602677 
L 374.802248 163.75384 
L 375.201917 163.893911 
L 375.361785 164.061544 
L 375.613884 164.809155 
L 375.995107 165.126799 
L 376.474711 165.334051 
L 376.819041 166.05363 
L 377.009653 166.195826 
L 377.876628 167.121898 
L 378.030347 167.256295 
L 378.36238 168.262888 
L 378.669818 168.374265 
L 378.731306 168.517961 
L 379.020298 169.295142 
L 379.087934 169.418441 
L 379.241653 169.526515 
L 379.887273 169.877625 
L 380.213157 170.491159 
L 380.274645 170.578589 
L 380.551339 171.424967 
L 380.938711 171.534519 
L 381.645818 172.618741 
L 382.223802 173.123738 
L 382.574281 174.345246 
L 382.635769 174.494326 
L 382.863273 174.777076 
L 383.152264 174.988181 
L 383.42281 175.095987 
L 383.478149 175.223354 
L 383.97005 177.107847 
L 384.369719 177.69414 
L 384.732496 179.66649 
L 384.886215 179.827084 
L 385.064529 180.15064 
L 385.347372 180.553709 
L 385.759339 181.668899 
L 385.814678 182.159602 
L 385.992992 183.113603 
L 386.134413 183.302151 
L 386.257388 183.401757 
L 386.491041 184.080121 
L 386.589421 184.219511 
L 386.767736 184.547207 
L 386.976793 184.705765 
L 387.314975 185.618279 
L 387.456397 185.727233 
L 387.653157 186.264516 
L 388.03438 190.657625 
L 388.188099 192.080553 
L 388.341818 192.400251 
L 388.587769 192.769178 
L 389.085818 195.805315 
L 389.159603 195.916312 
L 389.233388 196.095388 
L 389.565421 197.853945 
L 389.725289 197.96612 
L 389.774479 198.053398 
L 389.995835 198.690836 
L 390.260231 199.372435 
L 390.536926 199.488756 
L 390.709091 200.219055 
L 390.96119 202.193506 
L 391.139504 202.562788 
L 391.225587 203.879892 
L 391.403901 204.500026 
L 391.471537 204.615601 
L 391.920397 206.633118 
L 392.221686 206.862145 
L 392.258579 207.121165 
L 392.615207 211.09996 
L 392.744331 211.292577 
L 392.910347 211.65185 
L 393.008727 211.759582 
L 393.266975 212.411082 
L 393.322314 212.619203 
L 393.648198 216.322618 
L 393.777322 216.614949 
L 394.293818 221.139387 
L 394.632 229.203922 
L 394.675041 229.305985 
L 394.834909 229.666757 
L 394.933289 229.882998 
L 395.431339 236.971785 
L 395.628099 238.789349 
L 395.775669 239.045776 
L 395.82486 239.334659 
L 396.359802 244.495269 
L 396.513521 245.672958 
L 396.593455 247.366374 
L 396.833256 251.164848 
L 397.06076 251.762734 
L 397.435835 257.419355 
L 397.632595 263.135429 
L 397.663339 263.208805 
L 397.927736 266.153683 
L 398.222876 276.158916 
L 398.265917 276.58753 
L 398.333554 280.206085 
L 398.481124 295.488 
L 398.481124 295.488 
" clip-path="url(#pe1943ae034)" style="fill: none; stroke: #1f77b4; stroke-width: 1.5; stroke-linecap: square"/>
   </g>
   <g id="line2d_16">
    <path d="M 139.98724 61.962691 
L 373.646281 162.470133 
" clip-path="url(#pe1943ae034)" style="fill: none; stroke-dasharray: 5.55,2.4; stroke-dashoffset: 0; stroke: #ff7f0e; stroke-width: 1.5"/>
   </g>
   <g id="line2d_17">
    <path d="M 73.832727 154.093045 
L 398.487273 154.093045 
L 398.487273 154.093045 
" clip-path="url(#pe1943ae034)" style="fill: none; stroke-dasharray: 5.55,2.4; stroke-dashoffset: 0; stroke: #2ca02c; stroke-width: 1.5"/>
   </g>
   <g id="LineCollection_1">
    <path d="M 373.646281 295.488 
L 373.646281 53.568 
" clip-path="url(#pe1943ae034)" style="fill: none; stroke-dasharray: 5.55,2.4; stroke-dashoffset: 0; stroke: #1f77b4; stroke-width: 1.5"/>
   </g>
   <g id="patch_3">
    <path d="M 57.6 307.584 
L 57.6 41.472 
" style="fill: none; stroke: #000000; stroke-width: 0.8; stroke-linejoin: miter; stroke-linecap: square"/>
   </g>
   <g id="patch_4">
    <path d="M 414.72 307.584 
L 414.72 41.472 
" style="fill: none; stroke: #000000; stroke-width: 0.8; stroke-linejoin: miter; stroke-linecap: square"/>
   </g>
   <g id="patch_5">
    <path d="M 57.6 307.584 
L 414.72 307.584 
" style="fill: none; stroke: #000000; stroke-width: 0.8; stroke-linejoin: miter; stroke-linecap: square"/>
   </g>
   <g id="patch_6">
    <path d="M 57.6 41.472 
L 414.72 41.472 
" style="fill: none; stroke: #000000; stroke-width: 0.8; stroke-linejoin: miter; stroke-linecap: square"/>
   </g>
   <g id="text_15">
    <!-- Energy Decay - 1000 Hz -->
    <g transform="translate(163.59 35.472) scale(0.12 -0.12)">
     <defs>
      <path id="DejaVuSans-45" d="M 628 4666 
L 3578 4666 
L 3578 4134 
L 1259 4134 
L 1259 2753 
L 3481 2753 
L 3481 2222 
L 1259 2222 
L 1259 531 
L 3634 531 
L 3634 0 
L 628 0 
L 628 4666 
z
" transform="scale(0.015625)"/>
      <path id="DejaVuSans-6e" d="M 3513 2113 
L 3513 0 
L 2938 0 
L 2938 2094 
Q 2938 2591 2744 2837 
Q 2550 3084 2163 3084 
Q 1697 3084 1428 2787 
Q 1159 2491 1159 1978 
L 1159 0 
L 581 0 
L 581 3500 
L 1159 3500 
L 1159 2956 
Q 1366 3272 1645 3428 
Q 1925 3584 2291 3584 
Q 2894 3584 3203 3211 
Q 3513 2838 3513 2113 
z
" transform="scale(0.015625)"/>
      <path id="DejaVuSans-65" d="M 3597 1894 
L 3597 1613 
L 953 1613 
Q 991 1019 1311 708 
Q 1631 397 2203 397 
Q 2534 397 2845 478 
Q 3156 559 3463 722 
L 3463 178 
Q 3153 47 2828 -22 
Q 2503 -91 2169 -91 
Q 1331 -91 842 396 
Q 353 884 353 1716 
Q 353 2575 817 3079 
Q 1281 3584 2069 3584 
Q 2775 3584 3186 3129 
Q 3597 2675 3597 1894 
z
M 3022 2063 
Q 3016 2534 2758 2815 
Q 2500 3097 2075 3097 
Q 1594 3097 1305 2825 
Q 1016 2553 972 2059 
L 3022 2063 
z
" transform="scale(0.015625)"/>
      <path id="DejaVuSans-72" d="M 2631 2963 
Q 2534 3019 2420 3045 
Q 2306 3072 2169 3072 
Q 1681 3072 1420 2755 
Q 1159 2438 1159 1844 
L 1159 0 
L 581 0 
L 581 3500 
L 1159 3500 
L 1159 2956 
Q 1341 3275 1631 3429 
Q 1922 3584 2338 3584 
Q 2397 3584 2469 3576 
Q 2541 3569 2628 3553 
L 2631 2963 
z
" transform="scale(0.015625)"/>
      <path id="DejaVuSans-67" d="M 2906 1791 
Q 2906 2416 2648 2759 
Q 2391 3103 1925 3103 
Q 1463 3103 1205 2759 
Q 947 2416 947 1791 
Q 947 1169 1205 825 
Q 1463 481 1925 481 
Q 2391 481 2648 825 
Q 2906 1169 2906 1791 
z
M 3481 434 
Q 3481 -459 3084 -895 
Q 2688 -1331 1869 -1331 
Q 1566 -1331 1297 -1286 
Q 1028 -1241 775 -1147 
L 775 -588 
Q 1028 -725 1275 -790 
Q 1522 -856 1778 -856 
Q 2344 -856 2625 -561 
Q 2906 -266 2906 331 
L 2906 616 
Q 2728 306 2450 153 
Q 2172 0 1784 0 
Q 1141 0 747 490 
Q 353 981 353 1791 
Q 353 2603 747 3093 
Q 1141 3584 1784 3584 
Q 2172 3584 2450 3431 
Q 2728 3278 2906 2969 
L 2906 3500 
L 3481 3500 
L 3481 434 
z
" transform="scale(0.015625)"/>
      <path id="DejaVuSans-79" d="M 2059 -325 
Q 1816 -950 1584 -1140 
Q 1353 -1331 966 -1331 
L 506 -1331 
L 506 -850 
L 844 -850 
Q 1081 -850 1212 -737 
Q 1344 -625 1503 -206 
L 1606 56 
L 191 3500 
L 800 3500 
L 1894 763 
L 2988 3500 
L 3597 3500 
L 2059 -325 
z
" transform="scale(0.015625)"/>
      <path id="DejaVuSans-20" transform="scale(0.015625)"/>
      <path id="DejaVuSans-44" d="M 1259 4147 
L 1259 519 
L 2022 519 
Q 2988 519 3436 956 
Q 3884 1394 3884 2338 
Q 3884 3275 3436 3711 
Q 2988 4147 2022 4147 
L 1259 4147 
z
M 628 4666 
L 1925 4666 
Q 3281 4666 3915 4102 
Q 4550 3538 4550 2338 
Q 4550 1131 3912 565 
Q 3275 0 1925 0 
L 628 0 
L 628 4666 
z
" transform="scale(0.015625)"/>
      <path id="DejaVuSans-63" d="M 3122 3366 
L 3122 2828 
Q 2878 2963 2633 3030 
Q 2388 3097 2138 3097 
Q 1578 3097 1268 2742 
Q 959 2388 959 1747 
Q 959 1106 1268 751 
Q 1578 397 2138 397 
Q 2388 397 2633 464 
Q 2878 531 3122 666 
L 3122 134 
Q 2881 22 2623 -34 
Q 2366 -91 2075 -91 
Q 1284 -91 818 406 
Q 353 903 353 1747 
Q 353 2603 823 3093 
Q 1294 3584 2113 3584 
Q 2378 3584 2631 3529 
Q 2884 3475 3122 3366 
z
" transform="scale(0.015625)"/>
      <path id="DejaVuSans-61" d="M 2194 1759 
Q 1497 1759 1228 1600 
Q 959 1441 959 1056 
Q 959 750 1161 570 
Q 1363 391 1709 391 
Q 2188 391 2477 730 
Q 2766 1069 2766 1631 
L 2766 1759 
L 2194 1759 
z
M 3341 1997 
L 3341 0 
L 2766 0 
L 2766 531 
Q 2569 213 2275 61 
Q 1981 -91 1556 -91 
Q 1019 -91 701 211 
Q 384 513 384 1019 
Q 384 1609 779 1909 
Q 1175 2209 1959 2209 
L 2766 2209 
L 2766 2266 
Q 2766 2663 2505 2880 
Q 2244 3097 1772 3097 
Q 1472 3097 1187 3025 
Q 903 2953 641 2809 
L 641 3341 
Q 956 3463 1253 3523 
Q 1550 3584 1831 3584 
Q 2591 3584 2966 3190 
Q 3341 2797 3341 1997 
z
" transform="scale(0.015625)"/>
      <path id="DejaVuSans-2d" d="M 313 2009 
L 1997 2009 
L 1997 1497 
L 313 1497 
L 313 2009 
z
" transform="scale(0.015625)"/>
      <path id="DejaVuSans-48" d="M 628 4666 
L 1259 4666 
L 1259 2753 
L 3553 2753 
L 3553 4666 
L 4184 4666 
L 4184 0 
L 3553 0 
L 3553 2222 
L 1259 2222 
L 1259 0 
L 628 0 
L 628 4666 
z
" transform="scale(0.015625)"/>
      <path id="DejaVuSans-7a" d="M 353 3500 
L 3084 3500 
L 3084 2975 
L 922 459 
L 3084 459 
L 3084 0 
L 275 0 
L 275 525 
L 2438 3041 
L 353 3041 
L 353 3500 
z
" transform="scale(0.015625)"/>
     </defs>
     <use xlink:href="#DejaVuSans-45"/>
     <use xlink:href="#DejaVuSans-6e" transform="translate(63.183594 0)"/>
     <use xlink:href="#DejaVuSans-65" transform="translate(126.5625 0)"/>
     <use xlink:href="#DejaVuSans-72" transform="translate(188.085938 0)"/>
     <use xlink:href="#DejaVuSans-67" transform="translate(227.449219 0)"/>
     <use xlink:href="#DejaVuSans-79" transform="translate(290.925781 0)"/>
     <use xlink:href="#DejaVuSans-20" transform="translate(350.105469 0)"/>
     <use xlink:href="#DejaVuSans-44" transform="translate(381.892578 0)"/>
     <use xlink:href="#DejaVuSans-65" transform="translate(458.894531 0)"/>
     <use xlink:href="#DejaVuSans-63" transform="translate(520.417969 0)"/>
     <use xlink:href="#DejaVuSans-61" transform="translate(575.398438 0)"/>
     <use xlink:href="#DejaVuSans-79" transform="translate(636.677734 0)"/>
     <use xlink:href="#DejaVuSans-20" transform="translate(695.857422 0)"/>
     <use xlink:href="#DejaVuSans-2d" transform="translate(727.644531 0)"/>
     <use xlink:href="#DejaVuSans-20" transform="translate(763.728516 0)"/>
     <use xlink:href="#DejaVuSans-31" transform="translate(795.515625 0)"/>
     <use xlink:href="#DejaVuSans-30" transform="translate(859.138672 0)"/>
     <use xlink:href="#DejaVuSans-30" transform="translate(922.761719 0)"/>
     <use xlink:href="#DejaVuSans-30" transform="translate(986.384766 0)"/>
     <use xlink:href="#DejaVuSans-20" transform="translate(1050.007812 0)"/>
     <use xlink:href="#DejaVuSans-48" transform="translate(1081.794922 0)"/>
     <use xlink:href="#DejaVuSans-7a" transform="translate(1156.990234 0)"/>
    </g>
   </g>
   <g id="legend_1">
    <g id="patch_7">
     <path d="M 296.968437 108.1845 
L 407.72 108.1845 
Q 409.72 108.1845 409.72 106.1845 
L 409.72 48.472 
Q 409.72 46.472 407.72 46.472 
L 296.968437 46.472 
Q 294.968437 46.472 294.968437 48.472 
L 294.968437 106.1845 
Q 294.968437 108.1845 296.968437 108.1845 
z
" style="fill: #ffffff; opacity: 0.8; stroke: #cccccc; stroke-linejoin: miter"/>
    </g>
    <g id="line2d_18">
     <path d="M 298.968437 54.570438 
L 308.968437 54.570438 
L 318.968437 54.570438 
" style="fill: none; stroke: #1f77b4; stroke-width: 1.5; stroke-linecap: square"/>
    </g>
    <g id="text_16">
     <!-- Energy -->
     <g transform="translate(326.968437 58.070438) scale(0.1 -0.1)">
      <use xlink:href="#DejaVuSans-45"/>
      <use xlink:href="#DejaVuSans-6e" transform="translate(63.183594 0)"/>
      <use xlink:href="#DejaVuSans-65" transform="translate(126.5625 0)"/>
      <use xlink:href="#DejaVuSans-72" transform="translate(188.085938 0)"/>
      <use xlink:href="#DejaVuSans-67" transform="translate(227.449219 0)"/>
      <use xlink:href="#DejaVuSans-79" transform="translate(290.925781 0)"/>
     </g>
    </g>
    <g id="line2d_19">
     <path d="M 298.968437 69.248563 
L 308.968437 69.248563 
L 318.968437 69.248563 
" style="fill: none; stroke-dasharray: 5.55,2.4; stroke-dashoffset: 0; stroke: #ff7f0e; stroke-width: 1.5"/>
    </g>
    <g id="text_17">
     <!-- Linear Fit -->
     <g transform="translate(326.968437 72.748563) scale(0.1 -0.1)">
      <defs>
       <path id="DejaVuSans-4c" d="M 628 4666 
L 1259 4666 
L 1259 531 
L 3531 531 
L 3531 0 
L 628 0 
L 628 4666 
z
" transform="scale(0.015625)"/>
       <path id="DejaVuSans-69" d="M 603 3500 
L 1178 3500 
L 1178 0 
L 603 0 
L 603 3500 
z
M 603 4863 
L 1178 4863 
L 1178 4134 
L 603 4134 
L 603 4863 
z
" transform="scale(0.015625)"/>
       <path id="DejaVuSans-46" d="M 628 4666 
L 3309 4666 
L 3309 4134 
L 1259 4134 
L 1259 2759 
L 3109 2759 
L 3109 2228 
L 1259 2228 
L 1259 0 
L 628 0 
L 628 4666 
z
" transform="scale(0.015625)"/>
       <path id="DejaVuSans-74" d="M 1172 4494 
L 1172 3500 
L 2356 3500 
L 2356 3053 
L 1172 3053 
L 1172 1153 
Q 1172 725 1289 603 
Q 1406 481 1766 481 
L 2356 481 
L 2356 0 
L 1766 0 
Q 1100 0 847 248 
Q 594 497 594 1153 
L 594 3053 
L 172 3053 
L 172 3500 
L 594 3500 
L 594 4494 
L 1172 4494 
z
" transform="scale(0.015625)"/>
      </defs>
      <use xlink:href="#DejaVuSans-4c"/>
      <use xlink:href="#DejaVuSans-69" transform="translate(55.712891 0)"/>
      <use xlink:href="#DejaVuSans-6e" transform="translate(83.496094 0)"/>
      <use xlink:href="#DejaVuSans-65" transform="translate(146.875 0)"/>
      <use xlink:href="#DejaVuSans-61" transform="translate(208.398438 0)"/>
      <use xlink:href="#DejaVuSans-72" transform="translate(269.677734 0)"/>
      <use xlink:href="#DejaVuSans-20" transform="translate(310.791016 0)"/>
      <use xlink:href="#DejaVuSans-46" transform="translate(342.578125 0)"/>
      <use xlink:href="#DejaVuSans-69" transform="translate(392.847656 0)"/>
      <use xlink:href="#DejaVuSans-74" transform="translate(420.630859 0)"/>
     </g>
    </g>
    <g id="line2d_20">
     <path d="M 298.968437 83.926688 
L 308.968437 83.926688 
L 318.968437 83.926688 
" style="fill: none; stroke-dasharray: 5.55,2.4; stroke-dashoffset: 0; stroke: #2ca02c; stroke-width: 1.5"/>
    </g>
    <g id="text_18">
     <!-- -60 dB -->
     <g transform="translate(326.968437 87.426688) scale(0.1 -0.1)">
      <defs>
       <path id="DejaVuSans-64" d="M 2906 2969 
L 2906 4863 
L 3481 4863 
L 3481 0 
L 2906 0 
L 2906 525 
Q 2725 213 2448 61 
Q 2172 -91 1784 -91 
Q 1150 -91 751 415 
Q 353 922 353 1747 
Q 353 2572 751 3078 
Q 1150 3584 1784 3584 
Q 2172 3584 2448 3432 
Q 2725 3281 2906 2969 
z
M 947 1747 
Q 947 1113 1208 752 
Q 1469 391 1925 391 
Q 2381 391 2643 752 
Q 2906 1113 2906 1747 
Q 2906 2381 2643 2742 
Q 2381 3103 1925 3103 
Q 1469 3103 1208 2742 
Q 947 2381 947 1747 
z
" transform="scale(0.015625)"/>
       <path id="DejaVuSans-42" d="M 1259 2228 
L 1259 519 
L 2272 519 
Q 2781 519 3026 730 
Q 3272 941 3272 1375 
Q 3272 1813 3026 2020 
Q 2781 2228 2272 2228 
L 1259 2228 
z
M 1259 4147 
L 1259 2741 
L 2194 2741 
Q 2656 2741 2882 2914 
Q 3109 3088 3109 3444 
Q 3109 3797 2882 3972 
Q 2656 4147 2194 4147 
L 1259 4147 
z
M 628 4666 
L 2241 4666 
Q 2963 4666 3353 4366 
Q 3744 4066 3744 3513 
Q 3744 3084 3544 2831 
Q 3344 2578 2956 2516 
Q 3422 2416 3680 2098 
Q 3938 1781 3938 1306 
Q 3938 681 3513 340 
Q 3088 0 2303 0 
L 628 0 
L 628 4666 
z
" transform="scale(0.015625)"/>
      </defs>
      <use xlink:href="#DejaVuSans-2d"/>
      <use xlink:href="#DejaVuSans-36" transform="translate(36.083984 0)"/>
      <use xlink:href="#DejaVuSans-30" transform="translate(99.707031 0)"/>
      <use xlink:href="#DejaVuSans-20" transform="translate(163.330078 0)"/>
      <use xlink:href="#DejaVuSans-64" transform="translate(195.117188 0)"/>
      <use xlink:href="#DejaVuSans-42" transform="translate(258.59375 0)"/>
     </g>
    </g>
    <g id="line2d_21">
     <path d="M 298.968437 98.604813 
L 318.968437 98.604813 
" style="fill: none; stroke-dasharray: 5.55,2.4; stroke-dashoffset: 0; stroke: #1f77b4; stroke-width: 1.5"/>
    </g>
    <g id="text_19">
     <!-- Estimated RT60 -->
     <g transform="translate(326.968437 102.104813) scale(0.1 -0.1)">
      <defs>
       <path id="DejaVuSans-73" d="M 2834 3397 
L 2834 2853 
Q 2591 2978 2328 3040 
Q 2066 3103 1784 3103 
Q 1356 3103 1142 2972 
Q 928 2841 928 2578 
Q 928 2378 1081 2264 
Q 1234 2150 1697 2047 
L 1894 2003 
Q 2506 1872 2764 1633 
Q 3022 1394 3022 966 
Q 3022 478 2636 193 
Q 2250 -91 1575 -91 
Q 1294 -91 989 -36 
Q 684 19 347 128 
L 347 722 
Q 666 556 975 473 
Q 1284 391 1588 391 
Q 1994 391 2212 530 
Q 2431 669 2431 922 
Q 2431 1156 2273 1281 
Q 2116 1406 1581 1522 
L 1381 1569 
Q 847 1681 609 1914 
Q 372 2147 372 2553 
Q 372 3047 722 3315 
Q 1072 3584 1716 3584 
Q 2034 3584 2315 3537 
Q 2597 3491 2834 3397 
z
" transform="scale(0.015625)"/>
       <path id="DejaVuSans-6d" d="M 3328 2828 
Q 3544 3216 3844 3400 
Q 4144 3584 4550 3584 
Q 5097 3584 5394 3201 
Q 5691 2819 5691 2113 
L 5691 0 
L 5113 0 
L 5113 2094 
Q 5113 2597 4934 2840 
Q 4756 3084 4391 3084 
Q 3944 3084 3684 2787 
Q 3425 2491 3425 1978 
L 3425 0 
L 2847 0 
L 2847 2094 
Q 2847 2600 2669 2842 
Q 2491 3084 2119 3084 
Q 1678 3084 1418 2786 
Q 1159 2488 1159 1978 
L 1159 0 
L 581 0 
L 581 3500 
L 1159 3500 
L 1159 2956 
Q 1356 3278 1631 3431 
Q 1906 3584 2284 3584 
Q 2666 3584 2933 3390 
Q 3200 3197 3328 2828 
z
" transform="scale(0.015625)"/>
       <path id="DejaVuSans-52" d="M 2841 2188 
Q 3044 2119 3236 1894 
Q 3428 1669 3622 1275 
L 4263 0 
L 3584 0 
L 2988 1197 
Q 2756 1666 2539 1819 
Q 2322 1972 1947 1972 
L 1259 1972 
L 1259 0 
L 628 0 
L 628 4666 
L 2053 4666 
Q 2853 4666 3247 4331 
Q 3641 3997 3641 3322 
Q 3641 2881 3436 2590 
Q 3231 2300 2841 2188 
z
M 1259 4147 
L 1259 2491 
L 2053 2491 
Q 2509 2491 2742 2702 
Q 2975 2913 2975 3322 
Q 2975 3731 2742 3939 
Q 2509 4147 2053 4147 
L 1259 4147 
z
" transform="scale(0.015625)"/>
       <path id="DejaVuSans-54" d="M -19 4666 
L 3928 4666 
L 3928 4134 
L 2272 4134 
L 2272 0 
L 1638 0 
L 1638 4134 
L -19 4134 
L -19 4666 
z
" transform="scale(0.015625)"/>
      </defs>
      <use xlink:href="#DejaVuSans-45"/>
      <use xlink:href="#DejaVuSans-73" transform="translate(63.183594 0)"/>
      <use xlink:href="#DejaVuSans-74" transform="translate(115.283203 0)"/>
      <use xlink:href="#DejaVuSans-69" transform="translate(154.492188 0)"/>
      <use xlink:href="#DejaVuSans-6d" transform="translate(182.275391 0)"/>
      <use xlink:href="#DejaVuSans-61" transform="translate(279.6875 0)"/>
      <use xlink:href="#DejaVuSans-74" transform="translate(340.966797 0)"/>
      <use xlink:href="#DejaVuSans-65" transform="translate(380.175781 0)"/>
      <use xlink:href="#DejaVuSans-64" transform="translate(441.699219 0)"/>
      <use xlink:href="#DejaVuSans-20" transform="translate(505.175781 0)"/>
      <use xlink:href="#DejaVuSans-52" transform="translate(536.962891 0)"/>
      <use xlink:href="#DejaVuSans-54" transform="translate(599.195312 0)"/>
      <use xlink:href="#DejaVuSans-36" transform="translate(660.279297 0)"/>
      <use xlink:href="#DejaVuSans-30" transform="translate(723.902344 0)"/>
     </g>
    </g>
   </g>
  </g>
 </g>
 <defs>
  <clipPath id="pe1943ae034">
   <rect x="57.6" y="41.472" width="357.12" height="266.112"/>
  </clipPath>
 </defs>
</svg>
