<?xml version="1.0" encoding="utf-8" standalone="no"?>
<!DOCTYPE svg PUBLIC "-//W3C//DTD SVG 1.1//EN"
  "http://www.w3.org/Graphics/SVG/1.1/DTD/svg11.dtd">
<svg xmlns:xlink="http://www.w3.org/1999/xlink" width="460.8pt" height="345.6pt" viewBox="0 0 460.8 345.6" xmlns="http://www.w3.org/2000/svg" version="1.1">
 <metadata>
  <rdf:RDF xmlns:dc="http://purl.org/dc/elements/1.1/" xmlns:cc="http://creativecommons.org/ns#" xmlns:rdf="http://www.w3.org/1999/02/22-rdf-syntax-ns#">
   <cc:Work>
    <dc:type rdf:resource="http://purl.org/dc/dcmitype/StillImage"/>
    <dc:date>2025-05-06T13:53:23.914183</dc:date>
    <dc:format>image/svg+xml</dc:format>
    <dc:creator>
     <cc:Agent>
      <dc:title>Matplotlib v3.10.1, https://matplotlib.org/</dc:title>
     </cc:Agent>
    </dc:creator>
   </cc:Work>
  </rdf:RDF>
 </metadata>
 <defs>
  <style type="text/css">*{stroke-linejoin: round; stroke-linecap: butt}</style>
 </defs>
 <g id="figure_1">
  <g id="patch_1">
   <path d="M 0 345.6 
L 460.8 345.6 
L 460.8 0 
L 0 0 
z
" style="fill: #ffffff"/>
  </g>
  <g id="axes_1">
   <g id="patch_2">
    <path d="M 57.6 307.584 
L 414.72 307.584 
L 414.72 41.472 
L 57.6 41.472 
z
" style="fill: #ffffff"/>
   </g>
   <g id="matplotlib.axis_1">
    <g id="xtick_1">
     <g id="line2d_1">
      <defs>
       <path id="m11685f5ec0" d="M 0 0 
L 0 3.5 
" style="stroke: #000000; stroke-width: 0.8"/>
      </defs>
      <g>
       <use xlink:href="#m11685f5ec0" x="72.707504" y="307.584" style="stroke: #000000; stroke-width: 0.8"/>
      </g>
     </g>
     <g id="text_1">
      <!-- −0.2 -->
      <g transform="translate(60.566098 322.182437) scale(0.1 -0.1)">
       <defs>
        <path id="DejaVuSans-2212" d="M 678 2272 
L 4684 2272 
L 4684 1741 
L 678 1741 
L 678 2272 
z
" transform="scale(0.015625)"/>
        <path id="DejaVuSans-30" d="M 2034 4250 
Q 1547 4250 1301 3770 
Q 1056 3291 1056 2328 
Q 1056 1369 1301 889 
Q 1547 409 2034 409 
Q 2525 409 2770 889 
Q 3016 1369 3016 2328 
Q 3016 3291 2770 3770 
Q 2525 4250 2034 4250 
z
M 2034 4750 
Q 2819 4750 3233 4129 
Q 3647 3509 3647 2328 
Q 3647 1150 3233 529 
Q 2819 -91 2034 -91 
Q 1250 -91 836 529 
Q 422 1150 422 2328 
Q 422 3509 836 4129 
Q 1250 4750 2034 4750 
z
" transform="scale(0.015625)"/>
        <path id="DejaVuSans-2e" d="M 684 794 
L 1344 794 
L 1344 0 
L 684 0 
L 684 794 
z
" transform="scale(0.015625)"/>
        <path id="DejaVuSans-32" d="M 1228 531 
L 3431 531 
L 3431 0 
L 469 0 
L 469 531 
Q 828 903 1448 1529 
Q 2069 2156 2228 2338 
Q 2531 2678 2651 2914 
Q 2772 3150 2772 3378 
Q 2772 3750 2511 3984 
Q 2250 4219 1831 4219 
Q 1534 4219 1204 4116 
Q 875 4013 500 3803 
L 500 4441 
Q 881 4594 1212 4672 
Q 1544 4750 1819 4750 
Q 2544 4750 2975 4387 
Q 3406 4025 3406 3419 
Q 3406 3131 3298 2873 
Q 3191 2616 2906 2266 
Q 2828 2175 2409 1742 
Q 1991 1309 1228 531 
z
" transform="scale(0.015625)"/>
       </defs>
       <use xlink:href="#DejaVuSans-2212"/>
       <use xlink:href="#DejaVuSans-30" transform="translate(83.789062 0)"/>
       <use xlink:href="#DejaVuSans-2e" transform="translate(147.412109 0)"/>
       <use xlink:href="#DejaVuSans-32" transform="translate(179.199219 0)"/>
      </g>
     </g>
    </g>
    <g id="xtick_2">
     <g id="line2d_2">
      <g>
       <use xlink:href="#m11685f5ec0" x="131.735603" y="307.584" style="stroke: #000000; stroke-width: 0.8"/>
      </g>
     </g>
     <g id="text_2">
      <!-- 0.0 -->
      <g transform="translate(123.784041 322.182437) scale(0.1 -0.1)">
       <use xlink:href="#DejaVuSans-30"/>
       <use xlink:href="#DejaVuSans-2e" transform="translate(63.623047 0)"/>
       <use xlink:href="#DejaVuSans-30" transform="translate(95.410156 0)"/>
      </g>
     </g>
    </g>
    <g id="xtick_3">
     <g id="line2d_3">
      <g>
       <use xlink:href="#m11685f5ec0" x="190.763702" y="307.584" style="stroke: #000000; stroke-width: 0.8"/>
      </g>
     </g>
     <g id="text_3">
      <!-- 0.2 -->
      <g transform="translate(182.81214 322.182437) scale(0.1 -0.1)">
       <use xlink:href="#DejaVuSans-30"/>
       <use xlink:href="#DejaVuSans-2e" transform="translate(63.623047 0)"/>
       <use xlink:href="#DejaVuSans-32" transform="translate(95.410156 0)"/>
      </g>
     </g>
    </g>
    <g id="xtick_4">
     <g id="line2d_4">
      <g>
       <use xlink:href="#m11685f5ec0" x="249.791802" y="307.584" style="stroke: #000000; stroke-width: 0.8"/>
      </g>
     </g>
     <g id="text_4">
      <!-- 0.4 -->
      <g transform="translate(241.840239 322.182437) scale(0.1 -0.1)">
       <defs>
        <path id="DejaVuSans-34" d="M 2419 4116 
L 825 1625 
L 2419 1625 
L 2419 4116 
z
M 2253 4666 
L 3047 4666 
L 3047 1625 
L 3713 1625 
L 3713 1100 
L 3047 1100 
L 3047 0 
L 2419 0 
L 2419 1100 
L 313 1100 
L 313 1709 
L 2253 4666 
z
" transform="scale(0.015625)"/>
       </defs>
       <use xlink:href="#DejaVuSans-30"/>
       <use xlink:href="#DejaVuSans-2e" transform="translate(63.623047 0)"/>
       <use xlink:href="#DejaVuSans-34" transform="translate(95.410156 0)"/>
      </g>
     </g>
    </g>
    <g id="xtick_5">
     <g id="line2d_5">
      <g>
       <use xlink:href="#m11685f5ec0" x="308.819901" y="307.584" style="stroke: #000000; stroke-width: 0.8"/>
      </g>
     </g>
     <g id="text_5">
      <!-- 0.6 -->
      <g transform="translate(300.868338 322.182437) scale(0.1 -0.1)">
       <defs>
        <path id="DejaVuSans-36" d="M 2113 2584 
Q 1688 2584 1439 2293 
Q 1191 2003 1191 1497 
Q 1191 994 1439 701 
Q 1688 409 2113 409 
Q 2538 409 2786 701 
Q 3034 994 3034 1497 
Q 3034 2003 2786 2293 
Q 2538 2584 2113 2584 
z
M 3366 4563 
L 3366 3988 
Q 3128 4100 2886 4159 
Q 2644 4219 2406 4219 
Q 1781 4219 1451 3797 
Q 1122 3375 1075 2522 
Q 1259 2794 1537 2939 
Q 1816 3084 2150 3084 
Q 2853 3084 3261 2657 
Q 3669 2231 3669 1497 
Q 3669 778 3244 343 
Q 2819 -91 2113 -91 
Q 1303 -91 875 529 
Q 447 1150 447 2328 
Q 447 3434 972 4092 
Q 1497 4750 2381 4750 
Q 2619 4750 2861 4703 
Q 3103 4656 3366 4563 
z
" transform="scale(0.015625)"/>
       </defs>
       <use xlink:href="#DejaVuSans-30"/>
       <use xlink:href="#DejaVuSans-2e" transform="translate(63.623047 0)"/>
       <use xlink:href="#DejaVuSans-36" transform="translate(95.410156 0)"/>
      </g>
     </g>
    </g>
    <g id="xtick_6">
     <g id="line2d_6">
      <g>
       <use xlink:href="#m11685f5ec0" x="367.848" y="307.584" style="stroke: #000000; stroke-width: 0.8"/>
      </g>
     </g>
     <g id="text_6">
      <!-- 0.8 -->
      <g transform="translate(359.896437 322.182437) scale(0.1 -0.1)">
       <defs>
        <path id="DejaVuSans-38" d="M 2034 2216 
Q 1584 2216 1326 1975 
Q 1069 1734 1069 1313 
Q 1069 891 1326 650 
Q 1584 409 2034 409 
Q 2484 409 2743 651 
Q 3003 894 3003 1313 
Q 3003 1734 2745 1975 
Q 2488 2216 2034 2216 
z
M 1403 2484 
Q 997 2584 770 2862 
Q 544 3141 544 3541 
Q 544 4100 942 4425 
Q 1341 4750 2034 4750 
Q 2731 4750 3128 4425 
Q 3525 4100 3525 3541 
Q 3525 3141 3298 2862 
Q 3072 2584 2669 2484 
Q 3125 2378 3379 2068 
Q 3634 1759 3634 1313 
Q 3634 634 3220 271 
Q 2806 -91 2034 -91 
Q 1263 -91 848 271 
Q 434 634 434 1313 
Q 434 1759 690 2068 
Q 947 2378 1403 2484 
z
M 1172 3481 
Q 1172 3119 1398 2916 
Q 1625 2713 2034 2713 
Q 2441 2713 2670 2916 
Q 2900 3119 2900 3481 
Q 2900 3844 2670 4047 
Q 2441 4250 2034 4250 
Q 1625 4250 1398 4047 
Q 1172 3844 1172 3481 
z
" transform="scale(0.015625)"/>
       </defs>
       <use xlink:href="#DejaVuSans-30"/>
       <use xlink:href="#DejaVuSans-2e" transform="translate(63.623047 0)"/>
       <use xlink:href="#DejaVuSans-38" transform="translate(95.410156 0)"/>
      </g>
     </g>
    </g>
   </g>
   <g id="matplotlib.axis_2">
    <g id="ytick_1">
     <g id="line2d_7">
      <defs>
       <path id="m641b6ed062" d="M 0 0 
L -3.5 0 
" style="stroke: #000000; stroke-width: 0.8"/>
      </defs>
      <g>
       <use xlink:href="#m641b6ed062" x="57.6" y="300.372974" style="stroke: #000000; stroke-width: 0.8"/>
      </g>
     </g>
     <g id="text_7">
      <!-- −200 -->
      <g transform="translate(23.132812 304.172193) scale(0.1 -0.1)">
       <use xlink:href="#DejaVuSans-2212"/>
       <use xlink:href="#DejaVuSans-32" transform="translate(83.789062 0)"/>
       <use xlink:href="#DejaVuSans-30" transform="translate(147.412109 0)"/>
       <use xlink:href="#DejaVuSans-30" transform="translate(211.035156 0)"/>
      </g>
     </g>
    </g>
    <g id="ytick_2">
     <g id="line2d_8">
      <g>
       <use xlink:href="#m641b6ed062" x="57.6" y="269.522353" style="stroke: #000000; stroke-width: 0.8"/>
      </g>
     </g>
     <g id="text_8">
      <!-- −175 -->
      <g transform="translate(23.132812 273.321571) scale(0.1 -0.1)">
       <defs>
        <path id="DejaVuSans-31" d="M 794 531 
L 1825 531 
L 1825 4091 
L 703 3866 
L 703 4441 
L 1819 4666 
L 2450 4666 
L 2450 531 
L 3481 531 
L 3481 0 
L 794 0 
L 794 531 
z
" transform="scale(0.015625)"/>
        <path id="DejaVuSans-37" d="M 525 4666 
L 3525 4666 
L 3525 4397 
L 1831 0 
L 1172 0 
L 2766 4134 
L 525 4134 
L 525 4666 
z
" transform="scale(0.015625)"/>
        <path id="DejaVuSans-35" d="M 691 4666 
L 3169 4666 
L 3169 4134 
L 1269 4134 
L 1269 2991 
Q 1406 3038 1543 3061 
Q 1681 3084 1819 3084 
Q 2600 3084 3056 2656 
Q 3513 2228 3513 1497 
Q 3513 744 3044 326 
Q 2575 -91 1722 -91 
Q 1428 -91 1123 -41 
Q 819 9 494 109 
L 494 744 
Q 775 591 1075 516 
Q 1375 441 1709 441 
Q 2250 441 2565 725 
Q 2881 1009 2881 1497 
Q 2881 1984 2565 2268 
Q 2250 2553 1709 2553 
Q 1456 2553 1204 2497 
Q 953 2441 691 2322 
L 691 4666 
z
" transform="scale(0.015625)"/>
       </defs>
       <use xlink:href="#DejaVuSans-2212"/>
       <use xlink:href="#DejaVuSans-31" transform="translate(83.789062 0)"/>
       <use xlink:href="#DejaVuSans-37" transform="translate(147.412109 0)"/>
       <use xlink:href="#DejaVuSans-35" transform="translate(211.035156 0)"/>
      </g>
     </g>
    </g>
    <g id="ytick_3">
     <g id="line2d_9">
      <g>
       <use xlink:href="#m641b6ed062" x="57.6" y="238.671731" style="stroke: #000000; stroke-width: 0.8"/>
      </g>
     </g>
     <g id="text_9">
      <!-- −150 -->
      <g transform="translate(23.132812 242.47095) scale(0.1 -0.1)">
       <use xlink:href="#DejaVuSans-2212"/>
       <use xlink:href="#DejaVuSans-31" transform="translate(83.789062 0)"/>
       <use xlink:href="#DejaVuSans-35" transform="translate(147.412109 0)"/>
       <use xlink:href="#DejaVuSans-30" transform="translate(211.035156 0)"/>
      </g>
     </g>
    </g>
    <g id="ytick_4">
     <g id="line2d_10">
      <g>
       <use xlink:href="#m641b6ed062" x="57.6" y="207.821109" style="stroke: #000000; stroke-width: 0.8"/>
      </g>
     </g>
     <g id="text_10">
      <!-- −125 -->
      <g transform="translate(23.132812 211.620328) scale(0.1 -0.1)">
       <use xlink:href="#DejaVuSans-2212"/>
       <use xlink:href="#DejaVuSans-31" transform="translate(83.789062 0)"/>
       <use xlink:href="#DejaVuSans-32" transform="translate(147.412109 0)"/>
       <use xlink:href="#DejaVuSans-35" transform="translate(211.035156 0)"/>
      </g>
     </g>
    </g>
    <g id="ytick_5">
     <g id="line2d_11">
      <g>
       <use xlink:href="#m641b6ed062" x="57.6" y="176.970487" style="stroke: #000000; stroke-width: 0.8"/>
      </g>
     </g>
     <g id="text_11">
      <!-- −100 -->
      <g transform="translate(23.132812 180.769706) scale(0.1 -0.1)">
       <use xlink:href="#DejaVuSans-2212"/>
       <use xlink:href="#DejaVuSans-31" transform="translate(83.789062 0)"/>
       <use xlink:href="#DejaVuSans-30" transform="translate(147.412109 0)"/>
       <use xlink:href="#DejaVuSans-30" transform="translate(211.035156 0)"/>
      </g>
     </g>
    </g>
    <g id="ytick_6">
     <g id="line2d_12">
      <g>
       <use xlink:href="#m641b6ed062" x="57.6" y="146.119865" style="stroke: #000000; stroke-width: 0.8"/>
      </g>
     </g>
     <g id="text_12">
      <!-- −75 -->
      <g transform="translate(29.495313 149.919084) scale(0.1 -0.1)">
       <use xlink:href="#DejaVuSans-2212"/>
       <use xlink:href="#DejaVuSans-37" transform="translate(83.789062 0)"/>
       <use xlink:href="#DejaVuSans-35" transform="translate(147.412109 0)"/>
      </g>
     </g>
    </g>
    <g id="ytick_7">
     <g id="line2d_13">
      <g>
       <use xlink:href="#m641b6ed062" x="57.6" y="115.269244" style="stroke: #000000; stroke-width: 0.8"/>
      </g>
     </g>
     <g id="text_13">
      <!-- −50 -->
      <g transform="translate(29.495313 119.068462) scale(0.1 -0.1)">
       <use xlink:href="#DejaVuSans-2212"/>
       <use xlink:href="#DejaVuSans-35" transform="translate(83.789062 0)"/>
       <use xlink:href="#DejaVuSans-30" transform="translate(147.412109 0)"/>
      </g>
     </g>
    </g>
    <g id="ytick_8">
     <g id="line2d_14">
      <g>
       <use xlink:href="#m641b6ed062" x="57.6" y="84.418622" style="stroke: #000000; stroke-width: 0.8"/>
      </g>
     </g>
     <g id="text_14">
      <!-- −25 -->
      <g transform="translate(29.495313 88.217841) scale(0.1 -0.1)">
       <use xlink:href="#DejaVuSans-2212"/>
       <use xlink:href="#DejaVuSans-32" transform="translate(83.789062 0)"/>
       <use xlink:href="#DejaVuSans-35" transform="translate(147.412109 0)"/>
      </g>
     </g>
    </g>
    <g id="ytick_9">
     <g id="line2d_15">
      <g>
       <use xlink:href="#m641b6ed062" x="57.6" y="53.568" style="stroke: #000000; stroke-width: 0.8"/>
      </g>
     </g>
     <g id="text_15">
      <!-- 0 -->
      <g transform="translate(44.2375 57.367219) scale(0.1 -0.1)">
       <use xlink:href="#DejaVuSans-30"/>
      </g>
     </g>
    </g>
   </g>
   <g id="line2d_16">
    <path d="M 73.832727 53.568 
L 122.045157 53.678148 
L 122.18043 53.810291 
L 122.371041 54.015314 
L 122.844496 54.208714 
L 123.502413 54.375022 
L 123.902083 54.634325 
L 124.424727 54.686267 
L 124.898182 54.804356 
L 125.144132 54.879217 
L 125.679074 54.986004 
L 125.875835 55.050565 
L 126.380033 55.192173 
L 127.124033 55.618669 
L 127.302347 55.781163 
L 127.98486 56.154053 
L 128.23081 56.99895 
L 128.366083 57.118818 
L 128.667372 57.395386 
L 130.438215 58.637605 
L 130.702612 59.097262 
L 131.723306 59.727674 
L 132.024595 60.00771 
L 132.282843 60.160056 
L 132.559537 60.540908 
L 132.866975 60.699 
L 133.057587 61.109114 
L 133.574083 61.25037 
L 134.188959 61.552259 
L 134.471802 62.149515 
L 134.982149 62.257577 
L 135.603174 62.761524 
L 135.978248 62.87414 
L 136.16886 63.033474 
L 136.70995 63.41787 
L 137.115769 64.213977 
L 138.997289 65.294467 
L 139.476893 65.824932 
L 140.159405 66.08445 
L 141.401455 67.270229 
L 141.647405 67.962095 
L 141.825719 68.048578 
L 142.096264 68.156717 
L 142.293025 68.264706 
L 142.950942 68.484672 
L 143.141554 68.711213 
L 143.85481 68.848155 
L 144.14995 68.997507 
L 144.641851 69.124217 
L 145.023074 69.379246 
L 145.367405 69.481844 
L 145.551868 69.603688 
L 146.031471 69.750288 
L 146.215934 69.863963 
L 146.437289 69.992647 
L 146.959934 70.106722 
L 147.273521 70.139782 
L 147.667041 70.256918 
L 148.115901 70.34129 
L 149.142744 70.584884 
L 149.35795 70.850221 
L 149.745322 71.128238 
L 149.935934 71.305311 
L 150.144992 71.351051 
L 150.532364 71.484407 
L 150.704529 71.552919 
L 150.809058 71.655247 
L 150.962777 71.805561 
L 151.460826 71.982625 
L 151.632992 72.190606 
L 152.961124 72.962888 
L 153.188628 73.110884 
L 153.403835 73.23232 
L 153.864992 73.338605 
L 154.061752 73.453213 
L 154.504463 73.605653 
L 154.81805 73.918644 
L 156.422876 74.486942 
L 156.865587 74.836568 
L 157.818645 75.464146 
L 158.009256 75.607691 
L 159.42962 76.323599 
L 159.650975 76.656465 
L 159.792397 76.760108 
L 159.952264 76.916843 
L 160.856132 77.308936 
L 161.108231 77.428857 
L 161.341884 77.54389 
L 161.581686 77.65373 
L 161.803041 77.864387 
L 162.116628 77.974439 
L 162.387174 78.091677 
L 163.457058 79.315251 
L 163.715306 79.432371 
L 163.887471 79.489066 
L 164.391669 79.611033 
L 164.613025 79.702665 
L 164.914314 79.8198 
L 165.191008 79.838317 
L 166.088727 80.018646 
L 166.426909 80.073043 
L 166.91881 80.185363 
L 167.26314 80.29522 
L 167.921058 80.458402 
L 168.123967 80.547437 
L 168.720397 80.711389 
L 168.997091 81.019254 
L 170.257587 81.746907 
L 171.370512 82.050167 
L 171.604165 82.175908 
L 171.850116 82.356588 
L 172.009983 82.534736 
L 172.999934 82.804553 
L 173.178248 82.888483 
L 173.436496 83.113126 
L 173.707041 83.41479 
L 174.149752 83.541556 
L 174.469488 83.704717 
L 174.666248 83.811657 
L 175.010579 83.958814 
L 175.385653 84.089373 
L 175.570116 84.142818 
L 175.791471 84.246678 
L 176.012826 84.541268 
L 176.221884 84.558409 
L 177.045818 84.672038 
L 177.316364 84.912896 
L 177.648397 85.336701 
L 178.02962 85.717422 
L 178.638347 86.040121 
L 179.050314 86.286138 
L 179.234777 86.40291 
L 179.406942 86.520729 
L 180.077157 86.680655 
L 180.323107 86.925576 
L 181.079405 87.279713 
L 181.30076 87.408179 
L 181.485223 87.733403 
L 181.977124 87.834172 
L 182.438281 88.446843 
L 183.016264 88.561993 
L 185.100694 89.150859 
L 185.561851 89.902945 
L 186.201322 90.254482 
L 186.422678 90.35628 
L 186.871537 90.480745 
L 187.056 90.52115 
L 187.65243 90.654031 
L 187.89838 90.766201 
L 188.125884 90.786979 
L 188.556298 90.970259 
L 188.765355 91.037855 
L 190.038149 91.501503 
L 190.450116 91.62455 
L 190.67762 91.880614 
L 191.187967 92.336613 
L 191.353983 92.641157 
L 191.901223 93.035548 
L 192.220959 93.205311 
L 192.614479 93.484517 
L 193.051041 93.597334 
L 193.296992 93.697712 
L 194.452959 94.00652 
L 194.717355 94.467743 
L 195.061686 94.580799 
L 195.24 94.723258 
L 195.707306 94.835111 
L 196.051636 94.959104 
L 196.211504 95.06883 
L 196.389818 95.138199 
L 197.029289 95.307419 
L 197.312132 95.33041 
L 197.957752 95.514142 
L 198.142215 95.589698 
L 198.338975 95.701966 
L 198.504992 95.788011 
L 199.322777 95.955919 
L 199.519537 96.119323 
L 200.909157 96.648536 
L 201.075174 96.744044 
L 201.29038 96.85303 
L 201.536331 97.084957 
L 201.923702 97.410935 
L 202.249587 97.867779 
L 202.48324 97.998488 
L 202.77838 98.106089 
L 203.540826 98.493595 
L 208.213884 99.616378 
L 208.43524 99.975715 
L 208.465983 100.057265 
L 208.632 100.415894 
L 208.976331 100.526823 
L 209.941686 100.687788 
L 210.126149 100.829563 
L 210.353653 100.951106 
L 210.470479 101.062754 
L 210.642645 101.174836 
L 211.048463 101.271491 
L 211.417388 101.381474 
L 211.595702 101.427474 
L 211.909289 101.550772 
L 212.026116 101.719329 
L 212.185983 101.89603 
L 212.339702 102.012036 
L 212.536463 102.180587 
L 213.274314 102.323614 
L 213.569455 102.482476 
L 214.012165 102.563054 
L 214.719273 102.7674 
L 215.248066 102.92777 
L 215.457124 103.049263 
L 215.616992 103.094474 
L 216.176529 103.291058 
L 216.360992 103.389213 
L 216.846744 103.497955 
L 217.049653 103.64324 
L 217.492364 103.817322 
L 217.676826 103.873362 
L 218.088793 104.004685 
L 219.324694 104.493973 
L 219.515306 104.597381 
L 219.724364 104.737464 
L 220.357686 104.848294 
L 220.640529 105.039092 
L 221.021752 105.091486 
L 221.562843 105.218014 
L 222.700364 106.034586 
L 223.007802 106.241688 
L 223.333686 106.387686 
L 223.512 106.500355 
L 225.116826 107.045022 
L 225.405818 107.242845 
L 225.69481 107.388658 
L 225.866975 107.532727 
L 226.580231 107.684947 
L 228.012893 108.128886 
L 228.406413 108.243313 
L 228.707702 108.411094 
L 229.408661 108.560802 
L 229.61157 108.72322 
L 229.728397 108.862503 
L 229.925157 109.075343 
L 230.048132 109.185239 
L 230.275636 109.302545 
L 231.929653 110.246637 
L 232.255537 110.360428 
L 233.669752 110.82311 
L 233.891107 110.909142 
L 234.499835 111.066069 
L 234.807273 111.097887 
L 235.243835 111.238747 
L 236.559669 111.840097 
L 236.719537 111.935508 
L 237.082314 112.098801 
L 237.272926 112.192694 
L 237.641851 112.301636 
L 238.016926 112.587693 
L 240.599405 113.500121 
L 240.77157 113.596972 
L 242.148893 114.05138 
L 242.573157 114.361448 
L 242.997421 114.470224 
L 243.821355 114.601363 
L 244.184132 114.921142 
L 244.688331 115.041343 
L 244.897388 115.169633 
L 244.983471 115.276081 
L 245.407736 115.830429 
L 245.573752 115.942903 
L 245.862744 116.147081 
L 245.967273 116.264614 
L 246.237818 116.495118 
L 246.360793 116.650406 
L 246.594446 116.804271 
L 246.840397 116.836831 
L 247.541355 116.956752 
L 248.242314 117.156586 
L 248.56205 117.28151 
L 249.140033 117.585435 
L 251.181421 118.010588 
L 251.913124 118.590966 
L 252.146777 118.788806 
L 252.368132 118.898398 
L 252.528 118.988043 
L 252.687868 119.135927 
L 252.890777 119.303897 
L 253.37038 119.462686 
L 253.843835 119.944125 
L 254.452562 120.142177 
L 254.889124 120.276329 
L 256.530843 120.687295 
L 256.819835 120.739943 
L 258.559934 120.964153 
L 258.756694 121.032523 
L 259.795835 121.222131 
L 260.410711 121.401168 
L 260.650512 121.485927 
L 261.068628 121.644527 
L 261.394512 122.071461 
L 261.95405 122.183119 
L 264.499636 123.02943 
L 265.317421 123.183853 
L 265.833917 123.508802 
L 266.01838 123.634407 
L 266.270479 123.777824 
L 266.491835 123.887787 
L 266.725488 123.987222 
L 267.180496 124.176295 
L 267.371107 124.20604 
L 267.70314 124.320932 
L 267.912198 124.563817 
L 268.059769 124.649229 
L 269.609256 125.018214 
L 269.793719 125.101682 
L 270.777521 125.349649 
L 271.527669 125.494851 
L 272.51762 125.922971 
L 272.677488 126.025174 
L 273.937983 126.532742 
L 274.128595 126.738967 
L 274.909488 126.882374 
L 275.081653 126.978103 
L 277.006215 127.61495 
L 277.184529 127.755858 
L 277.559603 127.873982 
L 277.77481 127.930369 
L 278.06995 128.092473 
L 278.229818 128.157161 
L 279.422678 128.478668 
L 279.613289 128.525574 
L 280.019107 128.649658 
L 280.633983 128.85605 
L 280.953719 128.966969 
L 281.211967 129.099222 
L 282.281851 129.461981 
L 282.724562 129.668927 
L 284.433917 130.195905 
L 286.678215 130.859429 
L 286.893421 130.936399 
L 287.39762 131.178281 
L 287.551339 131.25669 
L 287.809587 131.36401 
L 288.04324 131.395697 
L 288.53514 131.522489 
L 289.715702 131.743037 
L 289.980099 131.852111 
L 290.410512 132.147054 
L 290.883967 132.43741 
L 291.031537 132.547722 
L 291.228298 132.826274 
L 291.66486 132.944784 
L 291.849322 133.077866 
L 293.392661 133.424248 
L 293.614017 133.530227 
L 294.493289 133.672843 
L 295.194248 133.826483 
L 295.470942 133.866222 
L 297.875107 134.430218 
L 298.20714 134.541469 
L 298.446942 134.681123 
L 298.80357 134.780658 
L 299.264727 134.800093 
L 300.38995 134.913842 
L 300.869554 134.984732 
L 301.367603 135.096865 
L 301.564364 135.173745 
L 302.628099 135.289983 
L 303.882446 135.569699 
L 304.269818 135.689054 
L 305.026116 136.001667 
L 305.216727 136.072082 
L 305.874645 136.216918 
L 307.497917 136.621524 
L 310.104992 136.989045 
L 310.467769 137.256739 
L 311.623736 137.559437 
L 311.961917 137.667402 
L 312.896529 137.829918 
L 313.425322 137.951864 
L 313.757355 138.005937 
L 314.864132 138.131756 
L 315.12238 138.238347 
L 318.19676 138.69745 
L 318.461157 138.741548 
L 320.410314 139.029126 
L 320.637818 139.088327 
L 320.840727 139.199258 
L 321.203504 139.301683 
L 323.576926 139.698132 
L 323.822876 139.755685 
L 324.818975 139.894938 
L 325.88886 140.258203 
L 328.372959 140.754891 
L 328.557421 140.791709 
L 329.40595 140.903575 
L 330.949289 141.237985 
L 331.24443 141.358831 
L 331.44119 141.417622 
L 333.91914 141.664991 
L 334.300364 141.733741 
L 336.593851 141.925111 
L 337.091901 142.040075 
L 338.438479 142.197926 
L 338.63524 142.28555 
L 339.42843 142.396503 
L 339.963372 142.476025 
L 340.621289 142.586568 
L 341.26076 142.668972 
L 341.56205 142.784413 
L 341.924826 142.863835 
L 343.449719 142.990117 
L 346.763901 143.729471 
L 346.972959 143.784578 
L 348.491702 144.07761 
L 349.764496 144.217319 
L 350.158017 144.262907 
L 350.846678 144.388112 
L 351.246347 144.464043 
L 352.992595 144.950484 
L 353.183207 145.042932 
L 353.681256 145.170231 
L 355.05243 145.378748 
L 355.64886 145.750947 
L 356.411306 145.854963 
L 356.663405 145.99913 
L 357.204496 146.119941 
L 357.782479 146.261837 
L 357.973091 146.30621 
L 358.157554 146.422751 
L 358.342017 146.527881 
L 359.356562 146.64405 
L 360.998281 146.974238 
L 361.379504 147.237359 
L 361.828364 147.347058 
L 362.246479 147.443458 
L 362.73838 147.618376 
L 362.984331 147.803875 
L 363.322512 147.854366 
L 365.523769 148.494489 
L 365.689785 148.543292 
L 366.267769 148.75745 
L 366.476826 148.985368 
L 366.802711 149.170943 
L 367.060959 149.282402 
L 367.442182 149.666444 
L 367.774215 149.778235 
L 368.186182 150.065542 
L 368.78876 150.383023 
L 368.973223 150.598651 
L 369.791008 150.969215 
L 370.52886 151.080093 
L 371.229818 151.328441 
L 371.445025 151.623125 
L 371.869289 151.70245 
L 372.023008 151.831292 
L 372.244364 152.152215 
L 372.373488 152.264833 
L 372.674777 152.504681 
L 372.76086 152.611388 
L 372.982215 152.905529 
L 373.240463 153.0707 
L 373.84919 153.775774 
L 374.500959 154.045593 
L 374.666975 154.188784 
L 374.820694 154.301992 
L 375.441719 154.860038 
L 375.613884 155.043253 
L 376.093488 155.151798 
L 376.573091 155.339889 
L 376.696066 155.445386 
L 376.905124 155.567857 
L 377.015802 155.795218 
L 377.169521 155.961881 
L 377.218711 156.06845 
L 377.483107 156.941057 
L 377.606083 157.051767 
L 378.042645 157.800948 
L 378.374678 157.955181 
L 378.491504 158.065585 
L 379.278545 158.925187 
L 379.475306 159.751141 
L 380.040992 160.070191 
L 380.262347 160.201709 
L 380.373025 160.365467 
L 380.569785 160.932017 
L 380.809587 161.203244 
L 380.951008 161.334754 
L 381.399868 161.462938 
L 382.039339 162.092433 
L 382.193058 162.406247 
L 382.248397 162.519002 
L 382.611174 162.751351 
L 382.752595 162.848776 
L 383.195306 164.060694 
L 383.37362 164.707571 
L 383.533488 165.189608 
L 383.724099 165.339522 
L 383.957752 166.054335 
L 384.154512 166.639809 
L 384.228298 166.779873 
L 384.732496 167.778493 
L 384.824727 167.907871 
L 385.162909 168.88946 
L 385.371967 169.804824 
L 385.451901 170.064761 
L 385.771636 171.023635 
L 385.894612 171.130033 
L 386.072926 171.240937 
L 386.429554 171.359977 
L 386.607868 171.68073 
L 386.780033 171.840119 
L 386.964496 172.18915 
L 387.130512 172.441222 
L 387.321124 172.595332 
L 387.493289 172.865324 
L 387.579372 173.105114 
L 387.714645 173.248809 
L 387.800727 173.345051 
L 388.157355 174.586449 
L 388.329521 174.707945 
L 388.538579 175.148716 
L 388.655405 175.28404 
L 388.981289 177.002873 
L 389.27643 177.145991 
L 389.540826 177.885814 
L 389.583868 177.994605 
L 389.879008 178.75911 
L 390.045025 179.398485 
L 390.450843 182.176622 
L 390.475438 182.241324 
L 390.690645 183.077353 
L 390.801322 183.193305 
L 390.838215 183.40417 
L 391.004231 183.762653 
L 391.028826 183.862134 
L 391.262479 185.535846 
L 391.465388 187.38026 
L 391.60681 187.97913 
L 391.699041 188.086382 
L 392.190942 190.25486 
L 392.504529 190.85066 
L 392.658248 190.933151 
L 392.879603 191.457626 
L 393.107107 191.872703 
L 393.156298 191.97696 
L 393.371504 192.295378 
L 393.451438 192.440242 
L 393.660496 193.349885 
L 393.709686 193.459283 
L 393.814215 194.211368 
L 393.967934 195.023386 
L 394.43524 196.130366 
L 394.920992 201.222328 
L 394.976331 201.336291 
L 395.253025 202.745248 
L 395.437488 205.447292 
L 395.47438 205.537138 
L 395.615802 205.722889 
L 395.800264 206.169991 
L 396.199934 211.050606 
L 396.255273 211.246851 
L 396.575008 214.992339 
L 396.771769 221.795711 
L 397.632595 229.569193 
L 397.983074 248.203237 
L 398.093752 252.419587 
L 398.456529 281.627099 
L 398.481124 295.488 
L 398.481124 295.488 
" clip-path="url(#pdef5e7a151)" style="fill: none; stroke: #1f77b4; stroke-width: 1.5; stroke-linecap: square"/>
   </g>
   <g id="line2d_17">
    <path d="M 131.735603 59.742579 
L 295.095868 133.779617 
" clip-path="url(#pdef5e7a151)" style="fill: none; stroke-dasharray: 5.55,2.4; stroke-dashoffset: 0; stroke: #ff7f0e; stroke-width: 1.5"/>
   </g>
   <g id="line2d_18">
    <path d="M 73.832727 127.609492 
L 398.487273 127.609492 
L 398.487273 127.609492 
" clip-path="url(#pdef5e7a151)" style="fill: none; stroke-dasharray: 5.55,2.4; stroke-dashoffset: 0; stroke: #2ca02c; stroke-width: 1.5"/>
   </g>
   <g id="LineCollection_1">
    <path d="M 295.095868 295.488 
L 295.095868 53.568 
" clip-path="url(#pdef5e7a151)" style="fill: none; stroke-dasharray: 5.55,2.4; stroke-dashoffset: 0; stroke: #1f77b4; stroke-width: 1.5"/>
   </g>
   <g id="patch_3">
    <path d="M 57.6 307.584 
L 57.6 41.472 
" style="fill: none; stroke: #000000; stroke-width: 0.8; stroke-linejoin: miter; stroke-linecap: square"/>
   </g>
   <g id="patch_4">
    <path d="M 414.72 307.584 
L 414.72 41.472 
" style="fill: none; stroke: #000000; stroke-width: 0.8; stroke-linejoin: miter; stroke-linecap: square"/>
   </g>
   <g id="patch_5">
    <path d="M 57.6 307.584 
L 414.72 307.584 
" style="fill: none; stroke: #000000; stroke-width: 0.8; stroke-linejoin: miter; stroke-linecap: square"/>
   </g>
   <g id="patch_6">
    <path d="M 57.6 41.472 
L 414.72 41.472 
" style="fill: none; stroke: #000000; stroke-width: 0.8; stroke-linejoin: miter; stroke-linecap: square"/>
   </g>
   <g id="text_16">
    <!-- Energy Decay - 2000 Hz -->
    <g transform="translate(163.59 35.472) scale(0.12 -0.12)">
     <defs>
      <path id="DejaVuSans-45" d="M 628 4666 
L 3578 4666 
L 3578 4134 
L 1259 4134 
L 1259 2753 
L 3481 2753 
L 3481 2222 
L 1259 2222 
L 1259 531 
L 3634 531 
L 3634 0 
L 628 0 
L 628 4666 
z
" transform="scale(0.015625)"/>
      <path id="DejaVuSans-6e" d="M 3513 2113 
L 3513 0 
L 2938 0 
L 2938 2094 
Q 2938 2591 2744 2837 
Q 2550 3084 2163 3084 
Q 1697 3084 1428 2787 
Q 1159 2491 1159 1978 
L 1159 0 
L 581 0 
L 581 3500 
L 1159 3500 
L 1159 2956 
Q 1366 3272 1645 3428 
Q 1925 3584 2291 3584 
Q 2894 3584 3203 3211 
Q 3513 2838 3513 2113 
z
" transform="scale(0.015625)"/>
      <path id="DejaVuSans-65" d="M 3597 1894 
L 3597 1613 
L 953 1613 
Q 991 1019 1311 708 
Q 1631 397 2203 397 
Q 2534 397 2845 478 
Q 3156 559 3463 722 
L 3463 178 
Q 3153 47 2828 -22 
Q 2503 -91 2169 -91 
Q 1331 -91 842 396 
Q 353 884 353 1716 
Q 353 2575 817 3079 
Q 1281 3584 2069 3584 
Q 2775 3584 3186 3129 
Q 3597 2675 3597 1894 
z
M 3022 2063 
Q 3016 2534 2758 2815 
Q 2500 3097 2075 3097 
Q 1594 3097 1305 2825 
Q 1016 2553 972 2059 
L 3022 2063 
z
" transform="scale(0.015625)"/>
      <path id="DejaVuSans-72" d="M 2631 2963 
Q 2534 3019 2420 3045 
Q 2306 3072 2169 3072 
Q 1681 3072 1420 2755 
Q 1159 2438 1159 1844 
L 1159 0 
L 581 0 
L 581 3500 
L 1159 3500 
L 1159 2956 
Q 1341 3275 1631 3429 
Q 1922 3584 2338 3584 
Q 2397 3584 2469 3576 
Q 2541 3569 2628 3553 
L 2631 2963 
z
" transform="scale(0.015625)"/>
      <path id="DejaVuSans-67" d="M 2906 1791 
Q 2906 2416 2648 2759 
Q 2391 3103 1925 3103 
Q 1463 3103 1205 2759 
Q 947 2416 947 1791 
Q 947 1169 1205 825 
Q 1463 481 1925 481 
Q 2391 481 2648 825 
Q 2906 1169 2906 1791 
z
M 3481 434 
Q 3481 -459 3084 -895 
Q 2688 -1331 1869 -1331 
Q 1566 -1331 1297 -1286 
Q 1028 -1241 775 -1147 
L 775 -588 
Q 1028 -725 1275 -790 
Q 1522 -856 1778 -856 
Q 2344 -856 2625 -561 
Q 2906 -266 2906 331 
L 2906 616 
Q 2728 306 2450 153 
Q 2172 0 1784 0 
Q 1141 0 747 490 
Q 353 981 353 1791 
Q 353 2603 747 3093 
Q 1141 3584 1784 3584 
Q 2172 3584 2450 3431 
Q 2728 3278 2906 2969 
L 2906 3500 
L 3481 3500 
L 3481 434 
z
" transform="scale(0.015625)"/>
      <path id="DejaVuSans-79" d="M 2059 -325 
Q 1816 -950 1584 -1140 
Q 1353 -1331 966 -1331 
L 506 -1331 
L 506 -850 
L 844 -850 
Q 1081 -850 1212 -737 
Q 1344 -625 1503 -206 
L 1606 56 
L 191 3500 
L 800 3500 
L 1894 763 
L 2988 3500 
L 3597 3500 
L 2059 -325 
z
" transform="scale(0.015625)"/>
      <path id="DejaVuSans-20" transform="scale(0.015625)"/>
      <path id="DejaVuSans-44" d="M 1259 4147 
L 1259 519 
L 2022 519 
Q 2988 519 3436 956 
Q 3884 1394 3884 2338 
Q 3884 3275 3436 3711 
Q 2988 4147 2022 4147 
L 1259 4147 
z
M 628 4666 
L 1925 4666 
Q 3281 4666 3915 4102 
Q 4550 3538 4550 2338 
Q 4550 1131 3912 565 
Q 3275 0 1925 0 
L 628 0 
L 628 4666 
z
" transform="scale(0.015625)"/>
      <path id="DejaVuSans-63" d="M 3122 3366 
L 3122 2828 
Q 2878 2963 2633 3030 
Q 2388 3097 2138 3097 
Q 1578 3097 1268 2742 
Q 959 2388 959 1747 
Q 959 1106 1268 751 
Q 1578 397 2138 397 
Q 2388 397 2633 464 
Q 2878 531 3122 666 
L 3122 134 
Q 2881 22 2623 -34 
Q 2366 -91 2075 -91 
Q 1284 -91 818 406 
Q 353 903 353 1747 
Q 353 2603 823 3093 
Q 1294 3584 2113 3584 
Q 2378 3584 2631 3529 
Q 2884 3475 3122 3366 
z
" transform="scale(0.015625)"/>
      <path id="DejaVuSans-61" d="M 2194 1759 
Q 1497 1759 1228 1600 
Q 959 1441 959 1056 
Q 959 750 1161 570 
Q 1363 391 1709 391 
Q 2188 391 2477 730 
Q 2766 1069 2766 1631 
L 2766 1759 
L 2194 1759 
z
M 3341 1997 
L 3341 0 
L 2766 0 
L 2766 531 
Q 2569 213 2275 61 
Q 1981 -91 1556 -91 
Q 1019 -91 701 211 
Q 384 513 384 1019 
Q 384 1609 779 1909 
Q 1175 2209 1959 2209 
L 2766 2209 
L 2766 2266 
Q 2766 2663 2505 2880 
Q 2244 3097 1772 3097 
Q 1472 3097 1187 3025 
Q 903 2953 641 2809 
L 641 3341 
Q 956 3463 1253 3523 
Q 1550 3584 1831 3584 
Q 2591 3584 2966 3190 
Q 3341 2797 3341 1997 
z
" transform="scale(0.015625)"/>
      <path id="DejaVuSans-2d" d="M 313 2009 
L 1997 2009 
L 1997 1497 
L 313 1497 
L 313 2009 
z
" transform="scale(0.015625)"/>
      <path id="DejaVuSans-48" d="M 628 4666 
L 1259 4666 
L 1259 2753 
L 3553 2753 
L 3553 4666 
L 4184 4666 
L 4184 0 
L 3553 0 
L 3553 2222 
L 1259 2222 
L 1259 0 
L 628 0 
L 628 4666 
z
" transform="scale(0.015625)"/>
      <path id="DejaVuSans-7a" d="M 353 3500 
L 3084 3500 
L 3084 2975 
L 922 459 
L 3084 459 
L 3084 0 
L 275 0 
L 275 525 
L 2438 3041 
L 353 3041 
L 353 3500 
z
" transform="scale(0.015625)"/>
     </defs>
     <use xlink:href="#DejaVuSans-45"/>
     <use xlink:href="#DejaVuSans-6e" transform="translate(63.183594 0)"/>
     <use xlink:href="#DejaVuSans-65" transform="translate(126.5625 0)"/>
     <use xlink:href="#DejaVuSans-72" transform="translate(188.085938 0)"/>
     <use xlink:href="#DejaVuSans-67" transform="translate(227.449219 0)"/>
     <use xlink:href="#DejaVuSans-79" transform="translate(290.925781 0)"/>
     <use xlink:href="#DejaVuSans-20" transform="translate(350.105469 0)"/>
     <use xlink:href="#DejaVuSans-44" transform="translate(381.892578 0)"/>
     <use xlink:href="#DejaVuSans-65" transform="translate(458.894531 0)"/>
     <use xlink:href="#DejaVuSans-63" transform="translate(520.417969 0)"/>
     <use xlink:href="#DejaVuSans-61" transform="translate(575.398438 0)"/>
     <use xlink:href="#DejaVuSans-79" transform="translate(636.677734 0)"/>
     <use xlink:href="#DejaVuSans-20" transform="translate(695.857422 0)"/>
     <use xlink:href="#DejaVuSans-2d" transform="translate(727.644531 0)"/>
     <use xlink:href="#DejaVuSans-20" transform="translate(763.728516 0)"/>
     <use xlink:href="#DejaVuSans-32" transform="translate(795.515625 0)"/>
     <use xlink:href="#DejaVuSans-30" transform="translate(859.138672 0)"/>
     <use xlink:href="#DejaVuSans-30" transform="translate(922.761719 0)"/>
     <use xlink:href="#DejaVuSans-30" transform="translate(986.384766 0)"/>
     <use xlink:href="#DejaVuSans-20" transform="translate(1050.007812 0)"/>
     <use xlink:href="#DejaVuSans-48" transform="translate(1081.794922 0)"/>
     <use xlink:href="#DejaVuSans-7a" transform="translate(1156.990234 0)"/>
    </g>
   </g>
   <g id="legend_1">
    <g id="patch_7">
     <path d="M 296.968437 108.1845 
L 407.72 108.1845 
Q 409.72 108.1845 409.72 106.1845 
L 409.72 48.472 
Q 409.72 46.472 407.72 46.472 
L 296.968437 46.472 
Q 294.968437 46.472 294.968437 48.472 
L 294.968437 106.1845 
Q 294.968437 108.1845 296.968437 108.1845 
z
" style="fill: #ffffff; opacity: 0.8; stroke: #cccccc; stroke-linejoin: miter"/>
    </g>
    <g id="line2d_19">
     <path d="M 298.968437 54.570438 
L 308.968437 54.570438 
L 318.968437 54.570438 
" style="fill: none; stroke: #1f77b4; stroke-width: 1.5; stroke-linecap: square"/>
    </g>
    <g id="text_17">
     <!-- Energy -->
     <g transform="translate(326.968437 58.070438) scale(0.1 -0.1)">
      <use xlink:href="#DejaVuSans-45"/>
      <use xlink:href="#DejaVuSans-6e" transform="translate(63.183594 0)"/>
      <use xlink:href="#DejaVuSans-65" transform="translate(126.5625 0)"/>
      <use xlink:href="#DejaVuSans-72" transform="translate(188.085938 0)"/>
      <use xlink:href="#DejaVuSans-67" transform="translate(227.449219 0)"/>
      <use xlink:href="#DejaVuSans-79" transform="translate(290.925781 0)"/>
     </g>
    </g>
    <g id="line2d_20">
     <path d="M 298.968437 69.248563 
L 308.968437 69.248563 
L 318.968437 69.248563 
" style="fill: none; stroke-dasharray: 5.55,2.4; stroke-dashoffset: 0; stroke: #ff7f0e; stroke-width: 1.5"/>
    </g>
    <g id="text_18">
     <!-- Linear Fit -->
     <g transform="translate(326.968437 72.748563) scale(0.1 -0.1)">
      <defs>
       <path id="DejaVuSans-4c" d="M 628 4666 
L 1259 4666 
L 1259 531 
L 3531 531 
L 3531 0 
L 628 0 
L 628 4666 
z
" transform="scale(0.015625)"/>
       <path id="DejaVuSans-69" d="M 603 3500 
L 1178 3500 
L 1178 0 
L 603 0 
L 603 3500 
z
M 603 4863 
L 1178 4863 
L 1178 4134 
L 603 4134 
L 603 4863 
z
" transform="scale(0.015625)"/>
       <path id="DejaVuSans-46" d="M 628 4666 
L 3309 4666 
L 3309 4134 
L 1259 4134 
L 1259 2759 
L 3109 2759 
L 3109 2228 
L 1259 2228 
L 1259 0 
L 628 0 
L 628 4666 
z
" transform="scale(0.015625)"/>
       <path id="DejaVuSans-74" d="M 1172 4494 
L 1172 3500 
L 2356 3500 
L 2356 3053 
L 1172 3053 
L 1172 1153 
Q 1172 725 1289 603 
Q 1406 481 1766 481 
L 2356 481 
L 2356 0 
L 1766 0 
Q 1100 0 847 248 
Q 594 497 594 1153 
L 594 3053 
L 172 3053 
L 172 3500 
L 594 3500 
L 594 4494 
L 1172 4494 
z
" transform="scale(0.015625)"/>
      </defs>
      <use xlink:href="#DejaVuSans-4c"/>
      <use xlink:href="#DejaVuSans-69" transform="translate(55.712891 0)"/>
      <use xlink:href="#DejaVuSans-6e" transform="translate(83.496094 0)"/>
      <use xlink:href="#DejaVuSans-65" transform="translate(146.875 0)"/>
      <use xlink:href="#DejaVuSans-61" transform="translate(208.398438 0)"/>
      <use xlink:href="#DejaVuSans-72" transform="translate(269.677734 0)"/>
      <use xlink:href="#DejaVuSans-20" transform="translate(310.791016 0)"/>
      <use xlink:href="#DejaVuSans-46" transform="translate(342.578125 0)"/>
      <use xlink:href="#DejaVuSans-69" transform="translate(392.847656 0)"/>
      <use xlink:href="#DejaVuSans-74" transform="translate(420.630859 0)"/>
     </g>
    </g>
    <g id="line2d_21">
     <path d="M 298.968437 83.926688 
L 308.968437 83.926688 
L 318.968437 83.926688 
" style="fill: none; stroke-dasharray: 5.55,2.4; stroke-dashoffset: 0; stroke: #2ca02c; stroke-width: 1.5"/>
    </g>
    <g id="text_19">
     <!-- -60 dB -->
     <g transform="translate(326.968437 87.426688) scale(0.1 -0.1)">
      <defs>
       <path id="DejaVuSans-64" d="M 2906 2969 
L 2906 4863 
L 3481 4863 
L 3481 0 
L 2906 0 
L 2906 525 
Q 2725 213 2448 61 
Q 2172 -91 1784 -91 
Q 1150 -91 751 415 
Q 353 922 353 1747 
Q 353 2572 751 3078 
Q 1150 3584 1784 3584 
Q 2172 3584 2448 3432 
Q 2725 3281 2906 2969 
z
M 947 1747 
Q 947 1113 1208 752 
Q 1469 391 1925 391 
Q 2381 391 2643 752 
Q 2906 1113 2906 1747 
Q 2906 2381 2643 2742 
Q 2381 3103 1925 3103 
Q 1469 3103 1208 2742 
Q 947 2381 947 1747 
z
" transform="scale(0.015625)"/>
       <path id="DejaVuSans-42" d="M 1259 2228 
L 1259 519 
L 2272 519 
Q 2781 519 3026 730 
Q 3272 941 3272 1375 
Q 3272 1813 3026 2020 
Q 2781 2228 2272 2228 
L 1259 2228 
z
M 1259 4147 
L 1259 2741 
L 2194 2741 
Q 2656 2741 2882 2914 
Q 3109 3088 3109 3444 
Q 3109 3797 2882 3972 
Q 2656 4147 2194 4147 
L 1259 4147 
z
M 628 4666 
L 2241 4666 
Q 2963 4666 3353 4366 
Q 3744 4066 3744 3513 
Q 3744 3084 3544 2831 
Q 3344 2578 2956 2516 
Q 3422 2416 3680 2098 
Q 3938 1781 3938 1306 
Q 3938 681 3513 340 
Q 3088 0 2303 0 
L 628 0 
L 628 4666 
z
" transform="scale(0.015625)"/>
      </defs>
      <use xlink:href="#DejaVuSans-2d"/>
      <use xlink:href="#DejaVuSans-36" transform="translate(36.083984 0)"/>
      <use xlink:href="#DejaVuSans-30" transform="translate(99.707031 0)"/>
      <use xlink:href="#DejaVuSans-20" transform="translate(163.330078 0)"/>
      <use xlink:href="#DejaVuSans-64" transform="translate(195.117188 0)"/>
      <use xlink:href="#DejaVuSans-42" transform="translate(258.59375 0)"/>
     </g>
    </g>
    <g id="line2d_22">
     <path d="M 298.968437 98.604813 
L 318.968437 98.604813 
" style="fill: none; stroke-dasharray: 5.55,2.4; stroke-dashoffset: 0; stroke: #1f77b4; stroke-width: 1.5"/>
    </g>
    <g id="text_20">
     <!-- Estimated RT60 -->
     <g transform="translate(326.968437 102.104813) scale(0.1 -0.1)">
      <defs>
       <path id="DejaVuSans-73" d="M 2834 3397 
L 2834 2853 
Q 2591 2978 2328 3040 
Q 2066 3103 1784 3103 
Q 1356 3103 1142 2972 
Q 928 2841 928 2578 
Q 928 2378 1081 2264 
Q 1234 2150 1697 2047 
L 1894 2003 
Q 2506 1872 2764 1633 
Q 3022 1394 3022 966 
Q 3022 478 2636 193 
Q 2250 -91 1575 -91 
Q 1294 -91 989 -36 
Q 684 19 347 128 
L 347 722 
Q 666 556 975 473 
Q 1284 391 1588 391 
Q 1994 391 2212 530 
Q 2431 669 2431 922 
Q 2431 1156 2273 1281 
Q 2116 1406 1581 1522 
L 1381 1569 
Q 847 1681 609 1914 
Q 372 2147 372 2553 
Q 372 3047 722 3315 
Q 1072 3584 1716 3584 
Q 2034 3584 2315 3537 
Q 2597 3491 2834 3397 
z
" transform="scale(0.015625)"/>
       <path id="DejaVuSans-6d" d="M 3328 2828 
Q 3544 3216 3844 3400 
Q 4144 3584 4550 3584 
Q 5097 3584 5394 3201 
Q 5691 2819 5691 2113 
L 5691 0 
L 5113 0 
L 5113 2094 
Q 5113 2597 4934 2840 
Q 4756 3084 4391 3084 
Q 3944 3084 3684 2787 
Q 3425 2491 3425 1978 
L 3425 0 
L 2847 0 
L 2847 2094 
Q 2847 2600 2669 2842 
Q 2491 3084 2119 3084 
Q 1678 3084 1418 2786 
Q 1159 2488 1159 1978 
L 1159 0 
L 581 0 
L 581 3500 
L 1159 3500 
L 1159 2956 
Q 1356 3278 1631 3431 
Q 1906 3584 2284 3584 
Q 2666 3584 2933 3390 
Q 3200 3197 3328 2828 
z
" transform="scale(0.015625)"/>
       <path id="DejaVuSans-52" d="M 2841 2188 
Q 3044 2119 3236 1894 
Q 3428 1669 3622 1275 
L 4263 0 
L 3584 0 
L 2988 1197 
Q 2756 1666 2539 1819 
Q 2322 1972 1947 1972 
L 1259 1972 
L 1259 0 
L 628 0 
L 628 4666 
L 2053 4666 
Q 2853 4666 3247 4331 
Q 3641 3997 3641 3322 
Q 3641 2881 3436 2590 
Q 3231 2300 2841 2188 
z
M 1259 4147 
L 1259 2491 
L 2053 2491 
Q 2509 2491 2742 2702 
Q 2975 2913 2975 3322 
Q 2975 3731 2742 3939 
Q 2509 4147 2053 4147 
L 1259 4147 
z
" transform="scale(0.015625)"/>
       <path id="DejaVuSans-54" d="M -19 4666 
L 3928 4666 
L 3928 4134 
L 2272 4134 
L 2272 0 
L 1638 0 
L 1638 4134 
L -19 4134 
L -19 4666 
z
" transform="scale(0.015625)"/>
      </defs>
      <use xlink:href="#DejaVuSans-45"/>
      <use xlink:href="#DejaVuSans-73" transform="translate(63.183594 0)"/>
      <use xlink:href="#DejaVuSans-74" transform="translate(115.283203 0)"/>
      <use xlink:href="#DejaVuSans-69" transform="translate(154.492188 0)"/>
      <use xlink:href="#DejaVuSans-6d" transform="translate(182.275391 0)"/>
      <use xlink:href="#DejaVuSans-61" transform="translate(279.6875 0)"/>
      <use xlink:href="#DejaVuSans-74" transform="translate(340.966797 0)"/>
      <use xlink:href="#DejaVuSans-65" transform="translate(380.175781 0)"/>
      <use xlink:href="#DejaVuSans-64" transform="translate(441.699219 0)"/>
      <use xlink:href="#DejaVuSans-20" transform="translate(505.175781 0)"/>
      <use xlink:href="#DejaVuSans-52" transform="translate(536.962891 0)"/>
      <use xlink:href="#DejaVuSans-54" transform="translate(599.195312 0)"/>
      <use xlink:href="#DejaVuSans-36" transform="translate(660.279297 0)"/>
      <use xlink:href="#DejaVuSans-30" transform="translate(723.902344 0)"/>
     </g>
    </g>
   </g>
  </g>
 </g>
 <defs>
  <clipPath id="pdef5e7a151">
   <rect x="57.6" y="41.472" width="357.12" height="266.112"/>
  </clipPath>
 </defs>
</svg>
