<?xml version="1.0" encoding="utf-8" standalone="no"?>
<!DOCTYPE svg PUBLIC "-//W3C//DTD SVG 1.1//EN"
  "http://www.w3.org/Graphics/SVG/1.1/DTD/svg11.dtd">
<svg xmlns:xlink="http://www.w3.org/1999/xlink" width="460.8pt" height="345.6pt" viewBox="0 0 460.8 345.6" xmlns="http://www.w3.org/2000/svg" version="1.1">
 <metadata>
  <rdf:RDF xmlns:dc="http://purl.org/dc/elements/1.1/" xmlns:cc="http://creativecommons.org/ns#" xmlns:rdf="http://www.w3.org/1999/02/22-rdf-syntax-ns#">
   <cc:Work>
    <dc:type rdf:resource="http://purl.org/dc/dcmitype/StillImage"/>
    <dc:date>2025-05-07T14:17:43.330339</dc:date>
    <dc:format>image/svg+xml</dc:format>
    <dc:creator>
     <cc:Agent>
      <dc:title>Matplotlib v3.10.1, https://matplotlib.org/</dc:title>
     </cc:Agent>
    </dc:creator>
   </cc:Work>
  </rdf:RDF>
 </metadata>
 <defs>
  <style type="text/css">*{stroke-linejoin: round; stroke-linecap: butt}</style>
 </defs>
 <g id="figure_1">
  <g id="patch_1">
   <path d="M 0 345.6 
L 460.8 345.6 
L 460.8 0 
L 0 0 
z
" style="fill: #ffffff"/>
  </g>
  <g id="axes_1">
   <g id="patch_2">
    <path d="M 57.6 307.584 
L 414.72 307.584 
L 414.72 41.472 
L 57.6 41.472 
z
" style="fill: #ffffff"/>
   </g>
   <g id="matplotlib.axis_1">
    <g id="xtick_1">
     <g id="line2d_1">
      <defs>
       <path id="m9cb93ff92d" d="M 0 0 
L 0 3.5 
" style="stroke: #000000; stroke-width: 0.8"/>
      </defs>
      <g>
       <use xlink:href="#m9cb93ff92d" x="64.205818" y="307.584" style="stroke: #000000; stroke-width: 0.8"/>
      </g>
     </g>
     <g id="text_1">
      <!-- −0.2 -->
      <g transform="translate(52.064412 322.182437) scale(0.1 -0.1)">
       <defs>
        <path id="DejaVuSans-2212" d="M 678 2272 
L 4684 2272 
L 4684 1741 
L 678 1741 
L 678 2272 
z
" transform="scale(0.015625)"/>
        <path id="DejaVuSans-30" d="M 2034 4250 
Q 1547 4250 1301 3770 
Q 1056 3291 1056 2328 
Q 1056 1369 1301 889 
Q 1547 409 2034 409 
Q 2525 409 2770 889 
Q 3016 1369 3016 2328 
Q 3016 3291 2770 3770 
Q 2525 4250 2034 4250 
z
M 2034 4750 
Q 2819 4750 3233 4129 
Q 3647 3509 3647 2328 
Q 3647 1150 3233 529 
Q 2819 -91 2034 -91 
Q 1250 -91 836 529 
Q 422 1150 422 2328 
Q 422 3509 836 4129 
Q 1250 4750 2034 4750 
z
" transform="scale(0.015625)"/>
        <path id="DejaVuSans-2e" d="M 684 794 
L 1344 794 
L 1344 0 
L 684 0 
L 684 794 
z
" transform="scale(0.015625)"/>
        <path id="DejaVuSans-32" d="M 1228 531 
L 3431 531 
L 3431 0 
L 469 0 
L 469 531 
Q 828 903 1448 1529 
Q 2069 2156 2228 2338 
Q 2531 2678 2651 2914 
Q 2772 3150 2772 3378 
Q 2772 3750 2511 3984 
Q 2250 4219 1831 4219 
Q 1534 4219 1204 4116 
Q 875 4013 500 3803 
L 500 4441 
Q 881 4594 1212 4672 
Q 1544 4750 1819 4750 
Q 2544 4750 2975 4387 
Q 3406 4025 3406 3419 
Q 3406 3131 3298 2873 
Q 3191 2616 2906 2266 
Q 2828 2175 2409 1742 
Q 1991 1309 1228 531 
z
" transform="scale(0.015625)"/>
       </defs>
       <use xlink:href="#DejaVuSans-2212"/>
       <use xlink:href="#DejaVuSans-30" transform="translate(83.789062 0)"/>
       <use xlink:href="#DejaVuSans-2e" transform="translate(147.412109 0)"/>
       <use xlink:href="#DejaVuSans-32" transform="translate(179.199219 0)"/>
      </g>
     </g>
    </g>
    <g id="xtick_2">
     <g id="line2d_2">
      <g>
       <use xlink:href="#m9cb93ff92d" x="136.351273" y="307.584" style="stroke: #000000; stroke-width: 0.8"/>
      </g>
     </g>
     <g id="text_2">
      <!-- 0.0 -->
      <g transform="translate(128.39971 322.182437) scale(0.1 -0.1)">
       <use xlink:href="#DejaVuSans-30"/>
       <use xlink:href="#DejaVuSans-2e" transform="translate(63.623047 0)"/>
       <use xlink:href="#DejaVuSans-30" transform="translate(95.410156 0)"/>
      </g>
     </g>
    </g>
    <g id="xtick_3">
     <g id="line2d_3">
      <g>
       <use xlink:href="#m9cb93ff92d" x="208.496727" y="307.584" style="stroke: #000000; stroke-width: 0.8"/>
      </g>
     </g>
     <g id="text_3">
      <!-- 0.2 -->
      <g transform="translate(200.545165 322.182437) scale(0.1 -0.1)">
       <use xlink:href="#DejaVuSans-30"/>
       <use xlink:href="#DejaVuSans-2e" transform="translate(63.623047 0)"/>
       <use xlink:href="#DejaVuSans-32" transform="translate(95.410156 0)"/>
      </g>
     </g>
    </g>
    <g id="xtick_4">
     <g id="line2d_4">
      <g>
       <use xlink:href="#m9cb93ff92d" x="280.642182" y="307.584" style="stroke: #000000; stroke-width: 0.8"/>
      </g>
     </g>
     <g id="text_4">
      <!-- 0.4 -->
      <g transform="translate(272.690619 322.182437) scale(0.1 -0.1)">
       <defs>
        <path id="DejaVuSans-34" d="M 2419 4116 
L 825 1625 
L 2419 1625 
L 2419 4116 
z
M 2253 4666 
L 3047 4666 
L 3047 1625 
L 3713 1625 
L 3713 1100 
L 3047 1100 
L 3047 0 
L 2419 0 
L 2419 1100 
L 313 1100 
L 313 1709 
L 2253 4666 
z
" transform="scale(0.015625)"/>
       </defs>
       <use xlink:href="#DejaVuSans-30"/>
       <use xlink:href="#DejaVuSans-2e" transform="translate(63.623047 0)"/>
       <use xlink:href="#DejaVuSans-34" transform="translate(95.410156 0)"/>
      </g>
     </g>
    </g>
    <g id="xtick_5">
     <g id="line2d_5">
      <g>
       <use xlink:href="#m9cb93ff92d" x="352.787636" y="307.584" style="stroke: #000000; stroke-width: 0.8"/>
      </g>
     </g>
     <g id="text_5">
      <!-- 0.6 -->
      <g transform="translate(344.836074 322.182437) scale(0.1 -0.1)">
       <defs>
        <path id="DejaVuSans-36" d="M 2113 2584 
Q 1688 2584 1439 2293 
Q 1191 2003 1191 1497 
Q 1191 994 1439 701 
Q 1688 409 2113 409 
Q 2538 409 2786 701 
Q 3034 994 3034 1497 
Q 3034 2003 2786 2293 
Q 2538 2584 2113 2584 
z
M 3366 4563 
L 3366 3988 
Q 3128 4100 2886 4159 
Q 2644 4219 2406 4219 
Q 1781 4219 1451 3797 
Q 1122 3375 1075 2522 
Q 1259 2794 1537 2939 
Q 1816 3084 2150 3084 
Q 2853 3084 3261 2657 
Q 3669 2231 3669 1497 
Q 3669 778 3244 343 
Q 2819 -91 2113 -91 
Q 1303 -91 875 529 
Q 447 1150 447 2328 
Q 447 3434 972 4092 
Q 1497 4750 2381 4750 
Q 2619 4750 2861 4703 
Q 3103 4656 3366 4563 
z
" transform="scale(0.015625)"/>
       </defs>
       <use xlink:href="#DejaVuSans-30"/>
       <use xlink:href="#DejaVuSans-2e" transform="translate(63.623047 0)"/>
       <use xlink:href="#DejaVuSans-36" transform="translate(95.410156 0)"/>
      </g>
     </g>
    </g>
   </g>
   <g id="matplotlib.axis_2">
    <g id="ytick_1">
     <g id="line2d_6">
      <defs>
       <path id="m5feedc00f2" d="M 0 0 
L -3.5 0 
" style="stroke: #000000; stroke-width: 0.8"/>
      </defs>
      <g>
       <use xlink:href="#m5feedc00f2" x="57.6" y="285.492314" style="stroke: #000000; stroke-width: 0.8"/>
      </g>
     </g>
     <g id="text_6">
      <!-- −200 -->
      <g transform="translate(23.132812 289.291532) scale(0.1 -0.1)">
       <use xlink:href="#DejaVuSans-2212"/>
       <use xlink:href="#DejaVuSans-32" transform="translate(83.789062 0)"/>
       <use xlink:href="#DejaVuSans-30" transform="translate(147.412109 0)"/>
       <use xlink:href="#DejaVuSans-30" transform="translate(211.035156 0)"/>
      </g>
     </g>
    </g>
    <g id="ytick_2">
     <g id="line2d_7">
      <g>
       <use xlink:href="#m5feedc00f2" x="57.6" y="227.511235" style="stroke: #000000; stroke-width: 0.8"/>
      </g>
     </g>
     <g id="text_7">
      <!-- −150 -->
      <g transform="translate(23.132812 231.310454) scale(0.1 -0.1)">
       <defs>
        <path id="DejaVuSans-31" d="M 794 531 
L 1825 531 
L 1825 4091 
L 703 3866 
L 703 4441 
L 1819 4666 
L 2450 4666 
L 2450 531 
L 3481 531 
L 3481 0 
L 794 0 
L 794 531 
z
" transform="scale(0.015625)"/>
        <path id="DejaVuSans-35" d="M 691 4666 
L 3169 4666 
L 3169 4134 
L 1269 4134 
L 1269 2991 
Q 1406 3038 1543 3061 
Q 1681 3084 1819 3084 
Q 2600 3084 3056 2656 
Q 3513 2228 3513 1497 
Q 3513 744 3044 326 
Q 2575 -91 1722 -91 
Q 1428 -91 1123 -41 
Q 819 9 494 109 
L 494 744 
Q 775 591 1075 516 
Q 1375 441 1709 441 
Q 2250 441 2565 725 
Q 2881 1009 2881 1497 
Q 2881 1984 2565 2268 
Q 2250 2553 1709 2553 
Q 1456 2553 1204 2497 
Q 953 2441 691 2322 
L 691 4666 
z
" transform="scale(0.015625)"/>
       </defs>
       <use xlink:href="#DejaVuSans-2212"/>
       <use xlink:href="#DejaVuSans-31" transform="translate(83.789062 0)"/>
       <use xlink:href="#DejaVuSans-35" transform="translate(147.412109 0)"/>
       <use xlink:href="#DejaVuSans-30" transform="translate(211.035156 0)"/>
      </g>
     </g>
    </g>
    <g id="ytick_3">
     <g id="line2d_8">
      <g>
       <use xlink:href="#m5feedc00f2" x="57.6" y="169.530157" style="stroke: #000000; stroke-width: 0.8"/>
      </g>
     </g>
     <g id="text_8">
      <!-- −100 -->
      <g transform="translate(23.132812 173.329376) scale(0.1 -0.1)">
       <use xlink:href="#DejaVuSans-2212"/>
       <use xlink:href="#DejaVuSans-31" transform="translate(83.789062 0)"/>
       <use xlink:href="#DejaVuSans-30" transform="translate(147.412109 0)"/>
       <use xlink:href="#DejaVuSans-30" transform="translate(211.035156 0)"/>
      </g>
     </g>
    </g>
    <g id="ytick_4">
     <g id="line2d_9">
      <g>
       <use xlink:href="#m5feedc00f2" x="57.6" y="111.549078" style="stroke: #000000; stroke-width: 0.8"/>
      </g>
     </g>
     <g id="text_9">
      <!-- −50 -->
      <g transform="translate(29.495313 115.348297) scale(0.1 -0.1)">
       <use xlink:href="#DejaVuSans-2212"/>
       <use xlink:href="#DejaVuSans-35" transform="translate(83.789062 0)"/>
       <use xlink:href="#DejaVuSans-30" transform="translate(147.412109 0)"/>
      </g>
     </g>
    </g>
    <g id="ytick_5">
     <g id="line2d_10">
      <g>
       <use xlink:href="#m5feedc00f2" x="57.6" y="53.568" style="stroke: #000000; stroke-width: 0.8"/>
      </g>
     </g>
     <g id="text_10">
      <!-- 0 -->
      <g transform="translate(44.2375 57.367219) scale(0.1 -0.1)">
       <use xlink:href="#DejaVuSans-30"/>
      </g>
     </g>
    </g>
   </g>
   <g id="line2d_11">
    <path d="M 73.832727 53.568 
L 132.030061 53.640443 
L 132.097697 54.207805 
L 132.217939 55.266239 
L 132.383273 55.609613 
L 132.578667 55.721545 
L 132.841697 55.744794 
L 133.262545 55.825395 
L 133.397818 56.139917 
L 133.427879 56.231528 
L 133.570667 56.960741 
L 133.615758 57.189358 
L 133.75103 57.56565 
L 133.841212 57.677052 
L 133.976485 57.860213 
L 135.193939 58.44689 
L 135.411879 58.766819 
L 135.622303 58.877845 
L 135.975515 59.063181 
L 136.208485 59.225851 
L 136.343758 59.341792 
L 136.524121 59.81926 
L 136.802182 60.25094 
L 137.020121 60.360105 
L 137.380848 60.807781 
L 137.44097 60.899731 
L 137.576242 61.043839 
L 137.839273 61.334099 
L 138.124848 61.620727 
L 138.365333 61.870339 
L 138.71103 62.046862 
L 138.883879 62.120045 
L 139.146909 62.342687 
L 139.319758 62.527234 
L 139.477576 62.80997 
L 139.605333 62.915401 
L 140.071273 63.188518 
L 140.266667 63.410171 
L 140.44703 63.54224 
L 140.604848 63.680077 
L 140.965576 63.871949 
L 141.100848 63.974947 
L 141.228606 64.07763 
L 141.40897 64.27171 
L 143.528242 65.772695 
L 143.678545 65.891457 
L 143.731152 66.006724 
L 143.971636 66.260465 
L 144.625455 66.849915 
L 144.843394 67.205161 
L 145.542303 67.532406 
L 145.700121 67.633292 
L 146.248727 67.94168 
L 146.459152 68.362651 
L 146.61697 68.468048 
L 146.752242 68.563503 
L 147.330909 68.894212 
L 147.556364 68.999986 
L 147.864485 69.371969 
L 147.992242 69.478058 
L 148.157576 69.590331 
L 149.157091 70.380441 
L 149.307394 70.521281 
L 149.735758 70.864217 
L 149.863515 71.017427 
L 150.156606 71.292761 
L 150.299394 71.421288 
L 150.487273 71.533819 
L 150.720242 71.756168 
L 150.855515 71.86554 
L 150.930667 71.977957 
L 151.065939 72.336491 
L 152.110545 73.069679 
L 152.275879 73.317815 
L 152.35103 73.407073 
L 152.508848 73.644354 
L 153.034909 74.200666 
L 153.192727 74.377733 
L 153.350545 74.460464 
L 153.515879 74.680896 
L 153.816485 74.919429 
L 154.132121 75.147484 
L 154.244848 75.269728 
L 154.485333 75.442557 
L 154.575515 75.545504 
L 154.748364 75.645309 
L 154.868606 75.734028 
L 155.026424 75.878845 
L 155.214303 76.102865 
L 155.357091 76.272692 
L 155.477333 76.3856 
L 155.665212 76.604413 
L 156.003394 76.843809 
L 156.176242 77.020898 
L 156.469333 77.26996 
L 156.612121 77.381899 
L 156.935273 77.579158 
L 157.386182 77.758885 
L 157.949818 78.276385 
L 158.085091 78.373036 
L 158.220364 78.550462 
L 158.874182 78.838669 
L 159.024485 79.027345 
L 159.317576 79.212318 
L 159.520485 79.430225 
L 159.595636 79.54851 
L 159.783515 79.696429 
L 160.737939 80.457087 
L 160.895758 80.727992 
L 161.842667 81.598592 
L 162.015515 81.764122 
L 162.128242 81.938898 
L 162.481455 82.199095 
L 163.300606 82.636848 
L 163.450909 82.737345 
L 163.75903 82.918664 
L 163.901818 83.055276 
L 164.044606 83.210648 
L 164.818667 83.887305 
L 164.976485 84.000539 
L 165.059152 84.09142 
L 165.209455 84.335213 
L 165.682909 84.528243 
L 165.863273 84.640533 
L 166.599758 85.178201 
L 166.832727 85.378272 
L 166.998061 85.55411 
L 167.396364 85.768752 
L 167.531636 86.026361 
L 168.493576 86.950278 
L 168.651394 87.106386 
L 168.816727 87.15478 
L 168.891879 87.235609 
L 169.019636 87.428048 
L 169.553212 87.716345 
L 169.726061 87.881576 
L 170.041697 88.172447 
L 170.500121 88.481665 
L 170.838303 88.615582 
L 171.086303 88.763913 
L 171.499636 88.91267 
L 171.928 89.300635 
L 172.378909 89.439543 
L 175.287273 91.339868 
L 175.445091 91.453265 
L 175.587879 91.581281 
L 175.745697 91.771332 
L 175.948606 91.90319 
L 176.113939 92.059724 
L 176.40703 92.244887 
L 176.572364 92.340227 
L 176.805333 92.498279 
L 177.586909 93.021375 
L 177.797333 93.483081 
L 177.985212 93.596189 
L 178.158061 93.65398 
L 178.932121 94.416941 
L 179.052364 94.562238 
L 179.195152 94.677976 
L 179.450667 94.807184 
L 179.638545 94.844908 
L 179.976727 95.005736 
L 180.209697 95.19638 
L 180.690667 95.465089 
L 180.825939 95.582355 
L 181.043879 95.74938 
L 181.231758 95.882348 
L 181.735273 96.33182 
L 181.908121 96.551525 
L 182.441697 97.068757 
L 182.57697 97.177042 
L 182.945212 97.34009 
L 183.125576 97.439144 
L 183.651636 97.600308 
L 183.81697 97.674289 
L 184.854061 98.382907 
L 185.041939 98.538147 
L 185.312485 98.711557 
L 185.485333 98.82087 
L 185.613091 98.855824 
L 185.921212 98.963062 
L 186.319515 99.577596 
L 186.597576 99.687846 
L 186.755394 99.827297 
L 187.258909 100.017748 
L 187.409212 100.057181 
L 187.634667 100.163554 
L 188.363636 100.669623 
L 189.881697 101.21198 
L 190.032 101.277139 
L 190.54303 101.439642 
L 190.663273 101.58227 
L 190.858667 101.784549 
L 191.084121 101.894167 
L 191.888242 102.288998 
L 192.053576 102.431956 
L 192.211394 102.518916 
L 192.406788 102.799029 
L 192.850182 103.127273 
L 193.075636 103.282243 
L 193.323636 103.579312 
L 193.639273 103.772528 
L 193.797091 103.863049 
L 193.977455 103.975268 
L 194.225455 104.22067 
L 194.48097 104.407735 
L 194.638788 104.494505 
L 194.796606 104.612015 
L 195.00703 104.900773 
L 195.164848 105.007467 
L 195.405333 105.10403 
L 195.593212 105.215285 
L 195.758545 105.313464 
L 196.044121 105.418772 
L 196.329697 105.520541 
L 196.487515 105.639066 
L 196.71297 105.812953 
L 197.224 106.213097 
L 197.517091 106.498954 
L 197.742545 106.593126 
L 197.98303 106.802788 
L 198.140848 106.849726 
L 198.403879 106.962798 
L 198.561697 107.012915 
L 198.937455 107.156363 
L 199.080242 107.233262 
L 199.365818 107.34066 
L 199.666424 107.468599 
L 200.154909 107.665241 
L 200.387879 107.90665 
L 200.568242 108.056378 
L 203.213576 109.170247 
L 203.378909 109.270154 
L 203.514182 109.337635 
L 203.897455 109.446746 
L 204.694061 110.01483 
L 204.889455 110.117791 
L 205.024727 110.219313 
L 205.723636 110.495251 
L 205.896485 110.612707 
L 206.106909 110.740174 
L 206.279758 110.794509 
L 207.211636 111.022774 
L 208.166061 111.460243 
L 208.338909 111.695698 
L 208.571879 111.820981 
L 208.714667 111.959265 
L 208.89503 112.070279 
L 209.345939 112.230092 
L 209.654061 112.394004 
L 210.022303 112.496956 
L 210.563394 112.647429 
L 211.254788 113.060376 
L 211.487758 113.174421 
L 211.916121 113.308971 
L 212.900606 113.763695 
L 213.118545 113.828109 
L 213.464242 113.930252 
L 213.599515 114.018764 
L 214.095515 114.344015 
L 215.087515 114.542172 
L 216.861091 115.11578 
L 216.988848 115.225732 
L 219.273455 116.145553 
L 219.656727 116.248421 
L 219.799515 116.295834 
L 220.122667 116.356874 
L 220.633697 116.468413 
L 221.332606 116.703932 
L 222.557576 116.918721 
L 222.820606 116.963795 
L 223.384242 117.077512 
L 223.74497 117.184351 
L 224.917333 117.415947 
L 225.082667 117.448935 
L 225.51103 117.519891 
L 226.285091 117.632197 
L 227.059152 117.837967 
L 230.132848 118.376398 
L 230.350788 118.422365 
L 232.064242 118.655662 
L 232.222061 118.691487 
L 233.386909 118.814331 
L 234.882424 118.955307 
L 235.107879 118.990317 
L 235.957091 119.101256 
L 237.182061 119.213738 
L 238.437091 119.337342 
L 238.730182 119.364402 
L 240.225697 119.480724 
L 250.06303 120.141526 
L 251.603636 120.252644 
L 255.594182 120.459718 
L 258.472485 120.625308 
L 261.741576 120.821304 
L 264.041212 120.935123 
L 270.632 121.334751 
L 273.187152 121.452039 
L 276.441212 121.630183 
L 277.034909 121.662406 
L 278.966303 121.775293 
L 283.009455 122.010282 
L 283.933818 122.071562 
L 293.440485 122.614297 
L 294.45503 122.678913 
L 296.792242 122.833205 
L 297.618909 122.872613 
L 299.557818 122.988005 
L 301.842424 123.132388 
L 304.194667 123.354197 
L 305.960727 123.463753 
L 306.306424 123.488265 
L 307.689212 123.603279 
L 309.33503 123.725242 
L 310.056485 123.788354 
L 312.859636 123.990097 
L 315.099152 124.137339 
L 316.121212 124.215079 
L 317.443879 124.324928 
L 317.706909 124.356935 
L 318.781576 124.446425 
L 322.080727 124.753008 
L 322.847273 124.825575 
L 330.182061 125.548087 
L 330.550303 125.593284 
L 331.820364 125.767201 
L 332.992727 125.890489 
L 333.962182 125.980919 
L 335.472727 126.154146 
L 336.209212 126.238236 
L 337.178667 126.349135 
L 337.501818 126.418531 
L 338.944727 126.635429 
L 340.673212 126.875727 
L 352.096242 128.718136 
L 352.261576 128.752416 
L 352.72 128.870582 
L 354.876848 129.420529 
L 355.222545 129.521891 
L 356.184485 129.68944 
L 356.364848 129.710551 
L 356.868364 129.825354 
L 357.634909 130.021496 
L 358.138424 130.187265 
L 358.424 130.253769 
L 358.784727 130.395561 
L 358.927515 130.43808 
L 359.874424 130.724313 
L 360.069818 130.784005 
L 360.550788 130.90414 
L 360.821333 130.951969 
L 361.783273 131.211122 
L 362.384485 131.438161 
L 362.542303 131.582799 
L 362.993212 131.740113 
L 363.256242 131.877159 
L 363.421576 131.977628 
L 363.601939 132.13145 
L 364.030303 132.297657 
L 364.270788 132.449544 
L 364.684121 132.606208 
L 364.826909 132.717869 
L 365.13503 132.870745 
L 365.307879 132.972952 
L 365.525818 133.104634 
L 365.676121 133.161838 
L 366.502788 133.627884 
L 366.683152 133.742176 
L 366.901091 133.87495 
L 367.08897 133.990596 
L 367.306909 134.135792 
L 367.953212 134.405077 
L 368.103515 134.50762 
L 369.080485 135.001273 
L 369.230788 135.125134 
L 369.336 135.193316 
L 369.471273 135.360726 
L 369.756848 135.573565 
L 369.907152 135.644446 
L 370.207758 135.823642 
L 370.613576 136.004133 
L 370.966788 136.109426 
L 371.966303 136.890868 
L 372.304485 137.034061 
L 372.552485 137.255883 
L 372.950788 137.544297 
L 373.123636 137.698319 
L 373.619636 138.000976 
L 375.205333 139.142955 
L 375.400727 139.343948 
L 375.483394 139.447469 
L 375.701333 139.586419 
L 376.490424 140.335815 
L 377.159273 141.02196 
L 377.324606 141.293414 
L 377.467394 141.444642 
L 377.617697 141.581703 
L 377.805576 141.776761 
L 378.49697 142.651312 
L 378.767515 142.84771 
L 378.947879 143.125952 
L 379.323636 143.618628 
L 379.458909 143.881055 
L 379.691879 143.998002 
L 379.804606 144.242405 
L 379.932364 144.448891 
L 380.090182 144.64637 
L 380.278061 144.853665 
L 380.473455 144.974447 
L 380.894303 145.339015 
L 381.082182 145.462161 
L 381.209939 145.526109 
L 381.277576 145.608805 
L 381.412848 145.751961 
L 381.533091 145.852221 
L 381.683394 146.086871 
L 381.773576 146.303966 
L 381.923879 146.704235 
L 382.74303 147.569938 
L 382.878303 147.754353 
L 385.110303 151.147076 
L 385.275636 151.460123 
L 385.328242 151.571352 
L 385.47103 151.741413 
L 385.651394 151.888449 
L 385.801697 152.078397 
L 385.93697 152.178418 
L 386.094788 152.440526 
L 386.282667 152.748608 
L 387.252121 154.96595 
L 387.304727 155.090922 
L 387.522667 155.906284 
L 387.845818 156.531753 
L 388.401939 158.280061 
L 388.469576 158.419224 
L 388.68 159.05218 
L 388.762667 159.149102 
L 388.920485 159.633793 
L 389.033212 159.732148 
L 389.206061 160.189124 
L 389.281212 160.298045 
L 389.476606 160.707252 
L 389.709576 161.250487 
L 389.777212 161.345511 
L 390.160485 162.127379 
L 390.273212 162.428354 
L 390.438545 163.083935 
L 390.603879 163.35723 
L 390.64897 163.464191 
L 390.731636 163.68278 
L 390.881939 164.580285 
L 390.942061 164.766104 
L 391.257697 166.1071 
L 391.543273 166.742362 
L 391.67103 167.067244 
L 391.753697 167.3328 
L 391.911515 167.959267 
L 392.084364 168.330675 
L 392.212121 168.586636 
L 392.392485 169.231464 
L 392.610424 170.677968 
L 392.648 171.013135 
L 392.790788 171.383045 
L 392.843394 171.476157 
L 393.023758 172.92007 
L 393.136485 173.401637 
L 393.264242 174.260522 
L 393.662545 176.94031 
L 393.790303 177.857199 
L 394.669576 182.346941 
L 394.89503 184.427574 
L 395.007758 184.895841 
L 395.195636 186.389163 
L 395.421091 188.633905 
L 395.624 190.235771 
L 395.646545 190.305569 
L 395.781818 192.754724 
L 395.924606 194.309369 
L 396.540848 197.957995 
L 396.721212 200.544071 
L 396.728727 200.54612 
L 396.909091 205.250981 
L 397.006788 205.644208 
L 397.856 225.988862 
L 398.043879 237.260312 
L 398.314424 254.837134 
L 398.479758 295.488 
L 398.479758 295.488 
" clip-path="url(#pa8eab4cbea)" style="fill: none; stroke: #1f77b4; stroke-width: 1.5; stroke-linecap: square"/>
   </g>
   <g id="line2d_12">
    <path d="M 136.351273 59.392628 
L 353.163394 128.943402 
" clip-path="url(#pa8eab4cbea)" style="fill: none; stroke-dasharray: 5.55,2.4; stroke-dashoffset: 0; stroke: #ff7f0e; stroke-width: 1.5"/>
   </g>
   <g id="line2d_13">
    <path d="M 73.832727 123.145294 
L 398.487273 123.145294 
L 398.487273 123.145294 
" clip-path="url(#pa8eab4cbea)" style="fill: none; stroke-dasharray: 5.55,2.4; stroke-dashoffset: 0; stroke: #2ca02c; stroke-width: 1.5"/>
   </g>
   <g id="LineCollection_1">
    <path d="M 353.163394 295.488 
L 353.163394 53.568 
" clip-path="url(#pa8eab4cbea)" style="fill: none; stroke-dasharray: 5.55,2.4; stroke-dashoffset: 0; stroke: #1f77b4; stroke-width: 1.5"/>
   </g>
   <g id="patch_3">
    <path d="M 57.6 307.584 
L 57.6 41.472 
" style="fill: none; stroke: #000000; stroke-width: 0.8; stroke-linejoin: miter; stroke-linecap: square"/>
   </g>
   <g id="patch_4">
    <path d="M 414.72 307.584 
L 414.72 41.472 
" style="fill: none; stroke: #000000; stroke-width: 0.8; stroke-linejoin: miter; stroke-linecap: square"/>
   </g>
   <g id="patch_5">
    <path d="M 57.6 307.584 
L 414.72 307.584 
" style="fill: none; stroke: #000000; stroke-width: 0.8; stroke-linejoin: miter; stroke-linecap: square"/>
   </g>
   <g id="patch_6">
    <path d="M 57.6 41.472 
L 414.72 41.472 
" style="fill: none; stroke: #000000; stroke-width: 0.8; stroke-linejoin: miter; stroke-linecap: square"/>
   </g>
   <g id="text_11">
    <!-- Energy Decay - 16000 Hz -->
    <g transform="translate(159.7725 35.472) scale(0.12 -0.12)">
     <defs>
      <path id="DejaVuSans-45" d="M 628 4666 
L 3578 4666 
L 3578 4134 
L 1259 4134 
L 1259 2753 
L 3481 2753 
L 3481 2222 
L 1259 2222 
L 1259 531 
L 3634 531 
L 3634 0 
L 628 0 
L 628 4666 
z
" transform="scale(0.015625)"/>
      <path id="DejaVuSans-6e" d="M 3513 2113 
L 3513 0 
L 2938 0 
L 2938 2094 
Q 2938 2591 2744 2837 
Q 2550 3084 2163 3084 
Q 1697 3084 1428 2787 
Q 1159 2491 1159 1978 
L 1159 0 
L 581 0 
L 581 3500 
L 1159 3500 
L 1159 2956 
Q 1366 3272 1645 3428 
Q 1925 3584 2291 3584 
Q 2894 3584 3203 3211 
Q 3513 2838 3513 2113 
z
" transform="scale(0.015625)"/>
      <path id="DejaVuSans-65" d="M 3597 1894 
L 3597 1613 
L 953 1613 
Q 991 1019 1311 708 
Q 1631 397 2203 397 
Q 2534 397 2845 478 
Q 3156 559 3463 722 
L 3463 178 
Q 3153 47 2828 -22 
Q 2503 -91 2169 -91 
Q 1331 -91 842 396 
Q 353 884 353 1716 
Q 353 2575 817 3079 
Q 1281 3584 2069 3584 
Q 2775 3584 3186 3129 
Q 3597 2675 3597 1894 
z
M 3022 2063 
Q 3016 2534 2758 2815 
Q 2500 3097 2075 3097 
Q 1594 3097 1305 2825 
Q 1016 2553 972 2059 
L 3022 2063 
z
" transform="scale(0.015625)"/>
      <path id="DejaVuSans-72" d="M 2631 2963 
Q 2534 3019 2420 3045 
Q 2306 3072 2169 3072 
Q 1681 3072 1420 2755 
Q 1159 2438 1159 1844 
L 1159 0 
L 581 0 
L 581 3500 
L 1159 3500 
L 1159 2956 
Q 1341 3275 1631 3429 
Q 1922 3584 2338 3584 
Q 2397 3584 2469 3576 
Q 2541 3569 2628 3553 
L 2631 2963 
z
" transform="scale(0.015625)"/>
      <path id="DejaVuSans-67" d="M 2906 1791 
Q 2906 2416 2648 2759 
Q 2391 3103 1925 3103 
Q 1463 3103 1205 2759 
Q 947 2416 947 1791 
Q 947 1169 1205 825 
Q 1463 481 1925 481 
Q 2391 481 2648 825 
Q 2906 1169 2906 1791 
z
M 3481 434 
Q 3481 -459 3084 -895 
Q 2688 -1331 1869 -1331 
Q 1566 -1331 1297 -1286 
Q 1028 -1241 775 -1147 
L 775 -588 
Q 1028 -725 1275 -790 
Q 1522 -856 1778 -856 
Q 2344 -856 2625 -561 
Q 2906 -266 2906 331 
L 2906 616 
Q 2728 306 2450 153 
Q 2172 0 1784 0 
Q 1141 0 747 490 
Q 353 981 353 1791 
Q 353 2603 747 3093 
Q 1141 3584 1784 3584 
Q 2172 3584 2450 3431 
Q 2728 3278 2906 2969 
L 2906 3500 
L 3481 3500 
L 3481 434 
z
" transform="scale(0.015625)"/>
      <path id="DejaVuSans-79" d="M 2059 -325 
Q 1816 -950 1584 -1140 
Q 1353 -1331 966 -1331 
L 506 -1331 
L 506 -850 
L 844 -850 
Q 1081 -850 1212 -737 
Q 1344 -625 1503 -206 
L 1606 56 
L 191 3500 
L 800 3500 
L 1894 763 
L 2988 3500 
L 3597 3500 
L 2059 -325 
z
" transform="scale(0.015625)"/>
      <path id="DejaVuSans-20" transform="scale(0.015625)"/>
      <path id="DejaVuSans-44" d="M 1259 4147 
L 1259 519 
L 2022 519 
Q 2988 519 3436 956 
Q 3884 1394 3884 2338 
Q 3884 3275 3436 3711 
Q 2988 4147 2022 4147 
L 1259 4147 
z
M 628 4666 
L 1925 4666 
Q 3281 4666 3915 4102 
Q 4550 3538 4550 2338 
Q 4550 1131 3912 565 
Q 3275 0 1925 0 
L 628 0 
L 628 4666 
z
" transform="scale(0.015625)"/>
      <path id="DejaVuSans-63" d="M 3122 3366 
L 3122 2828 
Q 2878 2963 2633 3030 
Q 2388 3097 2138 3097 
Q 1578 3097 1268 2742 
Q 959 2388 959 1747 
Q 959 1106 1268 751 
Q 1578 397 2138 397 
Q 2388 397 2633 464 
Q 2878 531 3122 666 
L 3122 134 
Q 2881 22 2623 -34 
Q 2366 -91 2075 -91 
Q 1284 -91 818 406 
Q 353 903 353 1747 
Q 353 2603 823 3093 
Q 1294 3584 2113 3584 
Q 2378 3584 2631 3529 
Q 2884 3475 3122 3366 
z
" transform="scale(0.015625)"/>
      <path id="DejaVuSans-61" d="M 2194 1759 
Q 1497 1759 1228 1600 
Q 959 1441 959 1056 
Q 959 750 1161 570 
Q 1363 391 1709 391 
Q 2188 391 2477 730 
Q 2766 1069 2766 1631 
L 2766 1759 
L 2194 1759 
z
M 3341 1997 
L 3341 0 
L 2766 0 
L 2766 531 
Q 2569 213 2275 61 
Q 1981 -91 1556 -91 
Q 1019 -91 701 211 
Q 384 513 384 1019 
Q 384 1609 779 1909 
Q 1175 2209 1959 2209 
L 2766 2209 
L 2766 2266 
Q 2766 2663 2505 2880 
Q 2244 3097 1772 3097 
Q 1472 3097 1187 3025 
Q 903 2953 641 2809 
L 641 3341 
Q 956 3463 1253 3523 
Q 1550 3584 1831 3584 
Q 2591 3584 2966 3190 
Q 3341 2797 3341 1997 
z
" transform="scale(0.015625)"/>
      <path id="DejaVuSans-2d" d="M 313 2009 
L 1997 2009 
L 1997 1497 
L 313 1497 
L 313 2009 
z
" transform="scale(0.015625)"/>
      <path id="DejaVuSans-48" d="M 628 4666 
L 1259 4666 
L 1259 2753 
L 3553 2753 
L 3553 4666 
L 4184 4666 
L 4184 0 
L 3553 0 
L 3553 2222 
L 1259 2222 
L 1259 0 
L 628 0 
L 628 4666 
z
" transform="scale(0.015625)"/>
      <path id="DejaVuSans-7a" d="M 353 3500 
L 3084 3500 
L 3084 2975 
L 922 459 
L 3084 459 
L 3084 0 
L 275 0 
L 275 525 
L 2438 3041 
L 353 3041 
L 353 3500 
z
" transform="scale(0.015625)"/>
     </defs>
     <use xlink:href="#DejaVuSans-45"/>
     <use xlink:href="#DejaVuSans-6e" transform="translate(63.183594 0)"/>
     <use xlink:href="#DejaVuSans-65" transform="translate(126.5625 0)"/>
     <use xlink:href="#DejaVuSans-72" transform="translate(188.085938 0)"/>
     <use xlink:href="#DejaVuSans-67" transform="translate(227.449219 0)"/>
     <use xlink:href="#DejaVuSans-79" transform="translate(290.925781 0)"/>
     <use xlink:href="#DejaVuSans-20" transform="translate(350.105469 0)"/>
     <use xlink:href="#DejaVuSans-44" transform="translate(381.892578 0)"/>
     <use xlink:href="#DejaVuSans-65" transform="translate(458.894531 0)"/>
     <use xlink:href="#DejaVuSans-63" transform="translate(520.417969 0)"/>
     <use xlink:href="#DejaVuSans-61" transform="translate(575.398438 0)"/>
     <use xlink:href="#DejaVuSans-79" transform="translate(636.677734 0)"/>
     <use xlink:href="#DejaVuSans-20" transform="translate(695.857422 0)"/>
     <use xlink:href="#DejaVuSans-2d" transform="translate(727.644531 0)"/>
     <use xlink:href="#DejaVuSans-20" transform="translate(763.728516 0)"/>
     <use xlink:href="#DejaVuSans-31" transform="translate(795.515625 0)"/>
     <use xlink:href="#DejaVuSans-36" transform="translate(859.138672 0)"/>
     <use xlink:href="#DejaVuSans-30" transform="translate(922.761719 0)"/>
     <use xlink:href="#DejaVuSans-30" transform="translate(986.384766 0)"/>
     <use xlink:href="#DejaVuSans-30" transform="translate(1050.007812 0)"/>
     <use xlink:href="#DejaVuSans-20" transform="translate(1113.630859 0)"/>
     <use xlink:href="#DejaVuSans-48" transform="translate(1145.417969 0)"/>
     <use xlink:href="#DejaVuSans-7a" transform="translate(1220.613281 0)"/>
    </g>
   </g>
   <g id="legend_1">
    <g id="patch_7">
     <path d="M 296.968437 108.1845 
L 407.72 108.1845 
Q 409.72 108.1845 409.72 106.1845 
L 409.72 48.472 
Q 409.72 46.472 407.72 46.472 
L 296.968437 46.472 
Q 294.968437 46.472 294.968437 48.472 
L 294.968437 106.1845 
Q 294.968437 108.1845 296.968437 108.1845 
z
" style="fill: #ffffff; opacity: 0.8; stroke: #cccccc; stroke-linejoin: miter"/>
    </g>
    <g id="line2d_14">
     <path d="M 298.968437 54.570438 
L 308.968437 54.570438 
L 318.968437 54.570438 
" style="fill: none; stroke: #1f77b4; stroke-width: 1.5; stroke-linecap: square"/>
    </g>
    <g id="text_12">
     <!-- Energy -->
     <g transform="translate(326.968437 58.070438) scale(0.1 -0.1)">
      <use xlink:href="#DejaVuSans-45"/>
      <use xlink:href="#DejaVuSans-6e" transform="translate(63.183594 0)"/>
      <use xlink:href="#DejaVuSans-65" transform="translate(126.5625 0)"/>
      <use xlink:href="#DejaVuSans-72" transform="translate(188.085938 0)"/>
      <use xlink:href="#DejaVuSans-67" transform="translate(227.449219 0)"/>
      <use xlink:href="#DejaVuSans-79" transform="translate(290.925781 0)"/>
     </g>
    </g>
    <g id="line2d_15">
     <path d="M 298.968437 69.248563 
L 308.968437 69.248563 
L 318.968437 69.248563 
" style="fill: none; stroke-dasharray: 5.55,2.4; stroke-dashoffset: 0; stroke: #ff7f0e; stroke-width: 1.5"/>
    </g>
    <g id="text_13">
     <!-- Linear Fit -->
     <g transform="translate(326.968437 72.748563) scale(0.1 -0.1)">
      <defs>
       <path id="DejaVuSans-4c" d="M 628 4666 
L 1259 4666 
L 1259 531 
L 3531 531 
L 3531 0 
L 628 0 
L 628 4666 
z
" transform="scale(0.015625)"/>
       <path id="DejaVuSans-69" d="M 603 3500 
L 1178 3500 
L 1178 0 
L 603 0 
L 603 3500 
z
M 603 4863 
L 1178 4863 
L 1178 4134 
L 603 4134 
L 603 4863 
z
" transform="scale(0.015625)"/>
       <path id="DejaVuSans-46" d="M 628 4666 
L 3309 4666 
L 3309 4134 
L 1259 4134 
L 1259 2759 
L 3109 2759 
L 3109 2228 
L 1259 2228 
L 1259 0 
L 628 0 
L 628 4666 
z
" transform="scale(0.015625)"/>
       <path id="DejaVuSans-74" d="M 1172 4494 
L 1172 3500 
L 2356 3500 
L 2356 3053 
L 1172 3053 
L 1172 1153 
Q 1172 725 1289 603 
Q 1406 481 1766 481 
L 2356 481 
L 2356 0 
L 1766 0 
Q 1100 0 847 248 
Q 594 497 594 1153 
L 594 3053 
L 172 3053 
L 172 3500 
L 594 3500 
L 594 4494 
L 1172 4494 
z
" transform="scale(0.015625)"/>
      </defs>
      <use xlink:href="#DejaVuSans-4c"/>
      <use xlink:href="#DejaVuSans-69" transform="translate(55.712891 0)"/>
      <use xlink:href="#DejaVuSans-6e" transform="translate(83.496094 0)"/>
      <use xlink:href="#DejaVuSans-65" transform="translate(146.875 0)"/>
      <use xlink:href="#DejaVuSans-61" transform="translate(208.398438 0)"/>
      <use xlink:href="#DejaVuSans-72" transform="translate(269.677734 0)"/>
      <use xlink:href="#DejaVuSans-20" transform="translate(310.791016 0)"/>
      <use xlink:href="#DejaVuSans-46" transform="translate(342.578125 0)"/>
      <use xlink:href="#DejaVuSans-69" transform="translate(392.847656 0)"/>
      <use xlink:href="#DejaVuSans-74" transform="translate(420.630859 0)"/>
     </g>
    </g>
    <g id="line2d_16">
     <path d="M 298.968437 83.926688 
L 308.968437 83.926688 
L 318.968437 83.926688 
" style="fill: none; stroke-dasharray: 5.55,2.4; stroke-dashoffset: 0; stroke: #2ca02c; stroke-width: 1.5"/>
    </g>
    <g id="text_14">
     <!-- -60 dB -->
     <g transform="translate(326.968437 87.426688) scale(0.1 -0.1)">
      <defs>
       <path id="DejaVuSans-64" d="M 2906 2969 
L 2906 4863 
L 3481 4863 
L 3481 0 
L 2906 0 
L 2906 525 
Q 2725 213 2448 61 
Q 2172 -91 1784 -91 
Q 1150 -91 751 415 
Q 353 922 353 1747 
Q 353 2572 751 3078 
Q 1150 3584 1784 3584 
Q 2172 3584 2448 3432 
Q 2725 3281 2906 2969 
z
M 947 1747 
Q 947 1113 1208 752 
Q 1469 391 1925 391 
Q 2381 391 2643 752 
Q 2906 1113 2906 1747 
Q 2906 2381 2643 2742 
Q 2381 3103 1925 3103 
Q 1469 3103 1208 2742 
Q 947 2381 947 1747 
z
" transform="scale(0.015625)"/>
       <path id="DejaVuSans-42" d="M 1259 2228 
L 1259 519 
L 2272 519 
Q 2781 519 3026 730 
Q 3272 941 3272 1375 
Q 3272 1813 3026 2020 
Q 2781 2228 2272 2228 
L 1259 2228 
z
M 1259 4147 
L 1259 2741 
L 2194 2741 
Q 2656 2741 2882 2914 
Q 3109 3088 3109 3444 
Q 3109 3797 2882 3972 
Q 2656 4147 2194 4147 
L 1259 4147 
z
M 628 4666 
L 2241 4666 
Q 2963 4666 3353 4366 
Q 3744 4066 3744 3513 
Q 3744 3084 3544 2831 
Q 3344 2578 2956 2516 
Q 3422 2416 3680 2098 
Q 3938 1781 3938 1306 
Q 3938 681 3513 340 
Q 3088 0 2303 0 
L 628 0 
L 628 4666 
z
" transform="scale(0.015625)"/>
      </defs>
      <use xlink:href="#DejaVuSans-2d"/>
      <use xlink:href="#DejaVuSans-36" transform="translate(36.083984 0)"/>
      <use xlink:href="#DejaVuSans-30" transform="translate(99.707031 0)"/>
      <use xlink:href="#DejaVuSans-20" transform="translate(163.330078 0)"/>
      <use xlink:href="#DejaVuSans-64" transform="translate(195.117188 0)"/>
      <use xlink:href="#DejaVuSans-42" transform="translate(258.59375 0)"/>
     </g>
    </g>
    <g id="line2d_17">
     <path d="M 298.968437 98.604813 
L 318.968437 98.604813 
" style="fill: none; stroke-dasharray: 5.55,2.4; stroke-dashoffset: 0; stroke: #1f77b4; stroke-width: 1.5"/>
    </g>
    <g id="text_15">
     <!-- Estimated RT60 -->
     <g transform="translate(326.968437 102.104813) scale(0.1 -0.1)">
      <defs>
       <path id="DejaVuSans-73" d="M 2834 3397 
L 2834 2853 
Q 2591 2978 2328 3040 
Q 2066 3103 1784 3103 
Q 1356 3103 1142 2972 
Q 928 2841 928 2578 
Q 928 2378 1081 2264 
Q 1234 2150 1697 2047 
L 1894 2003 
Q 2506 1872 2764 1633 
Q 3022 1394 3022 966 
Q 3022 478 2636 193 
Q 2250 -91 1575 -91 
Q 1294 -91 989 -36 
Q 684 19 347 128 
L 347 722 
Q 666 556 975 473 
Q 1284 391 1588 391 
Q 1994 391 2212 530 
Q 2431 669 2431 922 
Q 2431 1156 2273 1281 
Q 2116 1406 1581 1522 
L 1381 1569 
Q 847 1681 609 1914 
Q 372 2147 372 2553 
Q 372 3047 722 3315 
Q 1072 3584 1716 3584 
Q 2034 3584 2315 3537 
Q 2597 3491 2834 3397 
z
" transform="scale(0.015625)"/>
       <path id="DejaVuSans-6d" d="M 3328 2828 
Q 3544 3216 3844 3400 
Q 4144 3584 4550 3584 
Q 5097 3584 5394 3201 
Q 5691 2819 5691 2113 
L 5691 0 
L 5113 0 
L 5113 2094 
Q 5113 2597 4934 2840 
Q 4756 3084 4391 3084 
Q 3944 3084 3684 2787 
Q 3425 2491 3425 1978 
L 3425 0 
L 2847 0 
L 2847 2094 
Q 2847 2600 2669 2842 
Q 2491 3084 2119 3084 
Q 1678 3084 1418 2786 
Q 1159 2488 1159 1978 
L 1159 0 
L 581 0 
L 581 3500 
L 1159 3500 
L 1159 2956 
Q 1356 3278 1631 3431 
Q 1906 3584 2284 3584 
Q 2666 3584 2933 3390 
Q 3200 3197 3328 2828 
z
" transform="scale(0.015625)"/>
       <path id="DejaVuSans-52" d="M 2841 2188 
Q 3044 2119 3236 1894 
Q 3428 1669 3622 1275 
L 4263 0 
L 3584 0 
L 2988 1197 
Q 2756 1666 2539 1819 
Q 2322 1972 1947 1972 
L 1259 1972 
L 1259 0 
L 628 0 
L 628 4666 
L 2053 4666 
Q 2853 4666 3247 4331 
Q 3641 3997 3641 3322 
Q 3641 2881 3436 2590 
Q 3231 2300 2841 2188 
z
M 1259 4147 
L 1259 2491 
L 2053 2491 
Q 2509 2491 2742 2702 
Q 2975 2913 2975 3322 
Q 2975 3731 2742 3939 
Q 2509 4147 2053 4147 
L 1259 4147 
z
" transform="scale(0.015625)"/>
       <path id="DejaVuSans-54" d="M -19 4666 
L 3928 4666 
L 3928 4134 
L 2272 4134 
L 2272 0 
L 1638 0 
L 1638 4134 
L -19 4134 
L -19 4666 
z
" transform="scale(0.015625)"/>
      </defs>
      <use xlink:href="#DejaVuSans-45"/>
      <use xlink:href="#DejaVuSans-73" transform="translate(63.183594 0)"/>
      <use xlink:href="#DejaVuSans-74" transform="translate(115.283203 0)"/>
      <use xlink:href="#DejaVuSans-69" transform="translate(154.492188 0)"/>
      <use xlink:href="#DejaVuSans-6d" transform="translate(182.275391 0)"/>
      <use xlink:href="#DejaVuSans-61" transform="translate(279.6875 0)"/>
      <use xlink:href="#DejaVuSans-74" transform="translate(340.966797 0)"/>
      <use xlink:href="#DejaVuSans-65" transform="translate(380.175781 0)"/>
      <use xlink:href="#DejaVuSans-64" transform="translate(441.699219 0)"/>
      <use xlink:href="#DejaVuSans-20" transform="translate(505.175781 0)"/>
      <use xlink:href="#DejaVuSans-52" transform="translate(536.962891 0)"/>
      <use xlink:href="#DejaVuSans-54" transform="translate(599.195312 0)"/>
      <use xlink:href="#DejaVuSans-36" transform="translate(660.279297 0)"/>
      <use xlink:href="#DejaVuSans-30" transform="translate(723.902344 0)"/>
     </g>
    </g>
   </g>
  </g>
 </g>
 <defs>
  <clipPath id="pa8eab4cbea">
   <rect x="57.6" y="41.472" width="357.12" height="266.112"/>
  </clipPath>
 </defs>
</svg>
