<?xml version="1.0" encoding="utf-8" standalone="no"?>
<!DOCTYPE svg PUBLIC "-//W3C//DTD SVG 1.1//EN"
  "http://www.w3.org/Graphics/SVG/1.1/DTD/svg11.dtd">
<svg xmlns:xlink="http://www.w3.org/1999/xlink" width="460.8pt" height="345.6pt" viewBox="0 0 460.8 345.6" xmlns="http://www.w3.org/2000/svg" version="1.1">
 <metadata>
  <rdf:RDF xmlns:dc="http://purl.org/dc/elements/1.1/" xmlns:cc="http://creativecommons.org/ns#" xmlns:rdf="http://www.w3.org/1999/02/22-rdf-syntax-ns#">
   <cc:Work>
    <dc:type rdf:resource="http://purl.org/dc/dcmitype/StillImage"/>
    <dc:date>2025-05-07T14:33:11.962486</dc:date>
    <dc:format>image/svg+xml</dc:format>
    <dc:creator>
     <cc:Agent>
      <dc:title>Matplotlib v3.10.1, https://matplotlib.org/</dc:title>
     </cc:Agent>
    </dc:creator>
   </cc:Work>
  </rdf:RDF>
 </metadata>
 <defs>
  <style type="text/css">*{stroke-linejoin: round; stroke-linecap: butt}</style>
 </defs>
 <g id="figure_1">
  <g id="patch_1">
   <path d="M 0 345.6 
L 460.8 345.6 
L 460.8 0 
L 0 0 
z
" style="fill: #ffffff"/>
  </g>
  <g id="axes_1">
   <g id="patch_2">
    <path d="M 57.6 307.584 
L 414.72 307.584 
L 414.72 41.472 
L 57.6 41.472 
z
" style="fill: #ffffff"/>
   </g>
   <g id="matplotlib.axis_1">
    <g id="xtick_1">
     <g id="line2d_1">
      <defs>
       <path id="mf08b5da1c3" d="M 0 0 
L 0 3.5 
" style="stroke: #000000; stroke-width: 0.8"/>
      </defs>
      <g>
       <use xlink:href="#mf08b5da1c3" x="80.034462" y="307.584" style="stroke: #000000; stroke-width: 0.8"/>
      </g>
     </g>
     <g id="text_1">
      <!-- −0.2 -->
      <g transform="translate(67.893055 322.182437) scale(0.1 -0.1)">
       <defs>
        <path id="DejaVuSans-2212" d="M 678 2272 
L 4684 2272 
L 4684 1741 
L 678 1741 
L 678 2272 
z
" transform="scale(0.015625)"/>
        <path id="DejaVuSans-30" d="M 2034 4250 
Q 1547 4250 1301 3770 
Q 1056 3291 1056 2328 
Q 1056 1369 1301 889 
Q 1547 409 2034 409 
Q 2525 409 2770 889 
Q 3016 1369 3016 2328 
Q 3016 3291 2770 3770 
Q 2525 4250 2034 4250 
z
M 2034 4750 
Q 2819 4750 3233 4129 
Q 3647 3509 3647 2328 
Q 3647 1150 3233 529 
Q 2819 -91 2034 -91 
Q 1250 -91 836 529 
Q 422 1150 422 2328 
Q 422 3509 836 4129 
Q 1250 4750 2034 4750 
z
" transform="scale(0.015625)"/>
        <path id="DejaVuSans-2e" d="M 684 794 
L 1344 794 
L 1344 0 
L 684 0 
L 684 794 
z
" transform="scale(0.015625)"/>
        <path id="DejaVuSans-32" d="M 1228 531 
L 3431 531 
L 3431 0 
L 469 0 
L 469 531 
Q 828 903 1448 1529 
Q 2069 2156 2228 2338 
Q 2531 2678 2651 2914 
Q 2772 3150 2772 3378 
Q 2772 3750 2511 3984 
Q 2250 4219 1831 4219 
Q 1534 4219 1204 4116 
Q 875 4013 500 3803 
L 500 4441 
Q 881 4594 1212 4672 
Q 1544 4750 1819 4750 
Q 2544 4750 2975 4387 
Q 3406 4025 3406 3419 
Q 3406 3131 3298 2873 
Q 3191 2616 2906 2266 
Q 2828 2175 2409 1742 
Q 1991 1309 1228 531 
z
" transform="scale(0.015625)"/>
       </defs>
       <use xlink:href="#DejaVuSans-2212"/>
       <use xlink:href="#DejaVuSans-30" transform="translate(83.789062 0)"/>
       <use xlink:href="#DejaVuSans-2e" transform="translate(147.412109 0)"/>
       <use xlink:href="#DejaVuSans-32" transform="translate(179.199219 0)"/>
      </g>
     </g>
    </g>
    <g id="xtick_2">
     <g id="line2d_2">
      <g>
       <use xlink:href="#mf08b5da1c3" x="129.981315" y="307.584" style="stroke: #000000; stroke-width: 0.8"/>
      </g>
     </g>
     <g id="text_2">
      <!-- 0.0 -->
      <g transform="translate(122.029752 322.182437) scale(0.1 -0.1)">
       <use xlink:href="#DejaVuSans-30"/>
       <use xlink:href="#DejaVuSans-2e" transform="translate(63.623047 0)"/>
       <use xlink:href="#DejaVuSans-30" transform="translate(95.410156 0)"/>
      </g>
     </g>
    </g>
    <g id="xtick_3">
     <g id="line2d_3">
      <g>
       <use xlink:href="#mf08b5da1c3" x="179.928168" y="307.584" style="stroke: #000000; stroke-width: 0.8"/>
      </g>
     </g>
     <g id="text_3">
      <!-- 0.2 -->
      <g transform="translate(171.976605 322.182437) scale(0.1 -0.1)">
       <use xlink:href="#DejaVuSans-30"/>
       <use xlink:href="#DejaVuSans-2e" transform="translate(63.623047 0)"/>
       <use xlink:href="#DejaVuSans-32" transform="translate(95.410156 0)"/>
      </g>
     </g>
    </g>
    <g id="xtick_4">
     <g id="line2d_4">
      <g>
       <use xlink:href="#mf08b5da1c3" x="229.875021" y="307.584" style="stroke: #000000; stroke-width: 0.8"/>
      </g>
     </g>
     <g id="text_4">
      <!-- 0.4 -->
      <g transform="translate(221.923458 322.182437) scale(0.1 -0.1)">
       <defs>
        <path id="DejaVuSans-34" d="M 2419 4116 
L 825 1625 
L 2419 1625 
L 2419 4116 
z
M 2253 4666 
L 3047 4666 
L 3047 1625 
L 3713 1625 
L 3713 1100 
L 3047 1100 
L 3047 0 
L 2419 0 
L 2419 1100 
L 313 1100 
L 313 1709 
L 2253 4666 
z
" transform="scale(0.015625)"/>
       </defs>
       <use xlink:href="#DejaVuSans-30"/>
       <use xlink:href="#DejaVuSans-2e" transform="translate(63.623047 0)"/>
       <use xlink:href="#DejaVuSans-34" transform="translate(95.410156 0)"/>
      </g>
     </g>
    </g>
    <g id="xtick_5">
     <g id="line2d_5">
      <g>
       <use xlink:href="#mf08b5da1c3" x="279.821874" y="307.584" style="stroke: #000000; stroke-width: 0.8"/>
      </g>
     </g>
     <g id="text_5">
      <!-- 0.6 -->
      <g transform="translate(271.870312 322.182437) scale(0.1 -0.1)">
       <defs>
        <path id="DejaVuSans-36" d="M 2113 2584 
Q 1688 2584 1439 2293 
Q 1191 2003 1191 1497 
Q 1191 994 1439 701 
Q 1688 409 2113 409 
Q 2538 409 2786 701 
Q 3034 994 3034 1497 
Q 3034 2003 2786 2293 
Q 2538 2584 2113 2584 
z
M 3366 4563 
L 3366 3988 
Q 3128 4100 2886 4159 
Q 2644 4219 2406 4219 
Q 1781 4219 1451 3797 
Q 1122 3375 1075 2522 
Q 1259 2794 1537 2939 
Q 1816 3084 2150 3084 
Q 2853 3084 3261 2657 
Q 3669 2231 3669 1497 
Q 3669 778 3244 343 
Q 2819 -91 2113 -91 
Q 1303 -91 875 529 
Q 447 1150 447 2328 
Q 447 3434 972 4092 
Q 1497 4750 2381 4750 
Q 2619 4750 2861 4703 
Q 3103 4656 3366 4563 
z
" transform="scale(0.015625)"/>
       </defs>
       <use xlink:href="#DejaVuSans-30"/>
       <use xlink:href="#DejaVuSans-2e" transform="translate(63.623047 0)"/>
       <use xlink:href="#DejaVuSans-36" transform="translate(95.410156 0)"/>
      </g>
     </g>
    </g>
    <g id="xtick_6">
     <g id="line2d_6">
      <g>
       <use xlink:href="#mf08b5da1c3" x="329.768727" y="307.584" style="stroke: #000000; stroke-width: 0.8"/>
      </g>
     </g>
     <g id="text_6">
      <!-- 0.8 -->
      <g transform="translate(321.817165 322.182437) scale(0.1 -0.1)">
       <defs>
        <path id="DejaVuSans-38" d="M 2034 2216 
Q 1584 2216 1326 1975 
Q 1069 1734 1069 1313 
Q 1069 891 1326 650 
Q 1584 409 2034 409 
Q 2484 409 2743 651 
Q 3003 894 3003 1313 
Q 3003 1734 2745 1975 
Q 2488 2216 2034 2216 
z
M 1403 2484 
Q 997 2584 770 2862 
Q 544 3141 544 3541 
Q 544 4100 942 4425 
Q 1341 4750 2034 4750 
Q 2731 4750 3128 4425 
Q 3525 4100 3525 3541 
Q 3525 3141 3298 2862 
Q 3072 2584 2669 2484 
Q 3125 2378 3379 2068 
Q 3634 1759 3634 1313 
Q 3634 634 3220 271 
Q 2806 -91 2034 -91 
Q 1263 -91 848 271 
Q 434 634 434 1313 
Q 434 1759 690 2068 
Q 947 2378 1403 2484 
z
M 1172 3481 
Q 1172 3119 1398 2916 
Q 1625 2713 2034 2713 
Q 2441 2713 2670 2916 
Q 2900 3119 2900 3481 
Q 2900 3844 2670 4047 
Q 2441 4250 2034 4250 
Q 1625 4250 1398 4047 
Q 1172 3844 1172 3481 
z
" transform="scale(0.015625)"/>
       </defs>
       <use xlink:href="#DejaVuSans-30"/>
       <use xlink:href="#DejaVuSans-2e" transform="translate(63.623047 0)"/>
       <use xlink:href="#DejaVuSans-38" transform="translate(95.410156 0)"/>
      </g>
     </g>
    </g>
    <g id="xtick_7">
     <g id="line2d_7">
      <g>
       <use xlink:href="#mf08b5da1c3" x="379.71558" y="307.584" style="stroke: #000000; stroke-width: 0.8"/>
      </g>
     </g>
     <g id="text_7">
      <!-- 1.0 -->
      <g transform="translate(371.764018 322.182437) scale(0.1 -0.1)">
       <defs>
        <path id="DejaVuSans-31" d="M 794 531 
L 1825 531 
L 1825 4091 
L 703 3866 
L 703 4441 
L 1819 4666 
L 2450 4666 
L 2450 531 
L 3481 531 
L 3481 0 
L 794 0 
L 794 531 
z
" transform="scale(0.015625)"/>
       </defs>
       <use xlink:href="#DejaVuSans-31"/>
       <use xlink:href="#DejaVuSans-2e" transform="translate(63.623047 0)"/>
       <use xlink:href="#DejaVuSans-30" transform="translate(95.410156 0)"/>
      </g>
     </g>
    </g>
   </g>
   <g id="matplotlib.axis_2">
    <g id="ytick_1">
     <g id="line2d_8">
      <defs>
       <path id="mcc12c62211" d="M 0 0 
L -3.5 0 
" style="stroke: #000000; stroke-width: 0.8"/>
      </defs>
      <g>
       <use xlink:href="#mcc12c62211" x="57.6" y="271.893322" style="stroke: #000000; stroke-width: 0.8"/>
      </g>
     </g>
     <g id="text_8">
      <!-- −120 -->
      <g transform="translate(23.132812 275.692541) scale(0.1 -0.1)">
       <use xlink:href="#DejaVuSans-2212"/>
       <use xlink:href="#DejaVuSans-31" transform="translate(83.789062 0)"/>
       <use xlink:href="#DejaVuSans-32" transform="translate(147.412109 0)"/>
       <use xlink:href="#DejaVuSans-30" transform="translate(211.035156 0)"/>
      </g>
     </g>
    </g>
    <g id="ytick_2">
     <g id="line2d_9">
      <g>
       <use xlink:href="#mcc12c62211" x="57.6" y="235.505768" style="stroke: #000000; stroke-width: 0.8"/>
      </g>
     </g>
     <g id="text_9">
      <!-- −100 -->
      <g transform="translate(23.132812 239.304987) scale(0.1 -0.1)">
       <use xlink:href="#DejaVuSans-2212"/>
       <use xlink:href="#DejaVuSans-31" transform="translate(83.789062 0)"/>
       <use xlink:href="#DejaVuSans-30" transform="translate(147.412109 0)"/>
       <use xlink:href="#DejaVuSans-30" transform="translate(211.035156 0)"/>
      </g>
     </g>
    </g>
    <g id="ytick_3">
     <g id="line2d_10">
      <g>
       <use xlink:href="#mcc12c62211" x="57.6" y="199.118215" style="stroke: #000000; stroke-width: 0.8"/>
      </g>
     </g>
     <g id="text_10">
      <!-- −80 -->
      <g transform="translate(29.495313 202.917433) scale(0.1 -0.1)">
       <use xlink:href="#DejaVuSans-2212"/>
       <use xlink:href="#DejaVuSans-38" transform="translate(83.789062 0)"/>
       <use xlink:href="#DejaVuSans-30" transform="translate(147.412109 0)"/>
      </g>
     </g>
    </g>
    <g id="ytick_4">
     <g id="line2d_11">
      <g>
       <use xlink:href="#mcc12c62211" x="57.6" y="162.730661" style="stroke: #000000; stroke-width: 0.8"/>
      </g>
     </g>
     <g id="text_11">
      <!-- −60 -->
      <g transform="translate(29.495313 166.52988) scale(0.1 -0.1)">
       <use xlink:href="#DejaVuSans-2212"/>
       <use xlink:href="#DejaVuSans-36" transform="translate(83.789062 0)"/>
       <use xlink:href="#DejaVuSans-30" transform="translate(147.412109 0)"/>
      </g>
     </g>
    </g>
    <g id="ytick_5">
     <g id="line2d_12">
      <g>
       <use xlink:href="#mcc12c62211" x="57.6" y="126.343107" style="stroke: #000000; stroke-width: 0.8"/>
      </g>
     </g>
     <g id="text_12">
      <!-- −40 -->
      <g transform="translate(29.495313 130.142326) scale(0.1 -0.1)">
       <use xlink:href="#DejaVuSans-2212"/>
       <use xlink:href="#DejaVuSans-34" transform="translate(83.789062 0)"/>
       <use xlink:href="#DejaVuSans-30" transform="translate(147.412109 0)"/>
      </g>
     </g>
    </g>
    <g id="ytick_6">
     <g id="line2d_13">
      <g>
       <use xlink:href="#mcc12c62211" x="57.6" y="89.955554" style="stroke: #000000; stroke-width: 0.8"/>
      </g>
     </g>
     <g id="text_13">
      <!-- −20 -->
      <g transform="translate(29.495313 93.754772) scale(0.1 -0.1)">
       <use xlink:href="#DejaVuSans-2212"/>
       <use xlink:href="#DejaVuSans-32" transform="translate(83.789062 0)"/>
       <use xlink:href="#DejaVuSans-30" transform="translate(147.412109 0)"/>
      </g>
     </g>
    </g>
    <g id="ytick_7">
     <g id="line2d_14">
      <g>
       <use xlink:href="#mcc12c62211" x="57.6" y="53.568" style="stroke: #000000; stroke-width: 0.8"/>
      </g>
     </g>
     <g id="text_14">
      <!-- 0 -->
      <g transform="translate(44.2375 57.367219) scale(0.1 -0.1)">
       <use xlink:href="#DejaVuSans-30"/>
      </g>
     </g>
    </g>
   </g>
   <g id="line2d_15">
    <path d="M 73.832727 53.568 
L 118.488336 53.678853 
L 119.050238 53.939619 
L 119.352 54.157351 
L 119.61214 54.272292 
L 120.194853 54.857013 
L 120.413371 54.982799 
L 120.980476 55.485062 
L 121.261427 55.602983 
L 121.760895 55.861982 
L 122.281175 55.998822 
L 122.739021 56.228957 
L 122.947133 56.347314 
L 123.477818 56.874065 
L 123.628699 57.055423 
L 124.070937 57.724911 
L 124.237427 57.841889 
L 124.804531 58.576997 
L 125.023049 58.746911 
L 125.361231 58.948798 
L 127.057343 59.185859 
L 127.359105 59.594339 
L 127.593231 59.699213 
L 127.811748 59.807229 
L 128.087497 60.358797 
L 128.321622 60.561771 
L 128.555748 60.67839 
L 128.826294 61.308942 
L 129.044811 61.508554 
L 129.263329 61.62352 
L 129.513063 62.242974 
L 129.73158 62.475615 
L 129.939692 62.588194 
L 130.163413 63.182412 
L 130.402741 63.528622 
L 130.662881 63.674077 
L 131.318434 64.651709 
L 131.490126 64.893426 
L 131.890741 65.468655 
L 132.312168 65.640031 
L 132.712783 65.885802 
L 134.617007 66.097941 
L 135.100867 66.182205 
L 135.355804 66.370516 
L 135.704392 66.583628 
L 136.016559 66.698769 
L 136.666909 67.271403 
L 136.838601 67.465799 
L 137.317259 68.139299 
L 137.514965 68.244505 
L 138.217343 69.06484 
L 138.78965 69.5115 
L 139.138238 69.640848 
L 139.575273 69.730981 
L 140.246434 69.842723 
L 141.125706 70.298381 
L 141.406657 70.540342 
L 141.661594 70.658716 
L 142.327552 71.459221 
L 142.514853 71.677271 
L 142.925874 72.177517 
L 143.305678 72.329184 
L 143.857175 72.81063 
L 144.101706 72.919771 
L 144.346238 73.407602 
L 144.616783 73.744908 
L 144.887329 73.889195 
L 145.085035 74.498761 
L 145.386797 75.233265 
L 145.667748 75.433852 
L 145.896671 76.303817 
L 146.156811 76.92084 
L 146.48979 77.172026 
L 147.093315 78.407506 
L 147.23379 78.562224 
L 147.462713 79.318703 
L 147.702042 79.76942 
L 147.956979 79.927993 
L 148.227524 80.751078 
L 148.446042 81.014367 
L 148.685371 81.140101 
L 148.976727 81.836484 
L 149.195245 82.027371 
L 149.486601 82.14822 
L 150.069315 82.661333 
L 150.428308 82.771558 
L 151.000615 83.075203 
L 151.317986 83.184203 
L 151.775832 83.388048 
L 153.388699 83.520338 
L 154.18993 83.708876 
L 157.618573 86.12515 
L 157.842294 86.261255 
L 158.362573 86.696947 
L 158.586294 86.808728 
L 159.179413 87.385769 
L 159.366713 87.542095 
L 159.782937 87.948254 
L 160.084699 88.061338 
L 160.454098 88.229553 
L 161.962909 88.349967 
L 163.981594 88.799846 
L 164.533091 89.053649 
L 164.746406 89.18593 
L 165.230266 89.611027 
L 165.422769 89.726972 
L 166.041902 90.415162 
L 166.208392 90.627331 
L 166.635021 91.228613 
L 166.900364 91.347106 
L 167.540308 92.025899 
L 167.722406 92.186674 
L 168.263497 92.840487 
L 168.456 92.950835 
L 168.71614 93.506436 
L 168.955469 93.759612 
L 169.220811 93.891593 
L 169.860755 94.719962 
L 170.03765 94.968162 
L 170.375832 95.399406 
L 170.72442 95.547361 
L 171.067804 95.748138 
L 172.410126 95.873247 
L 174.590098 96.441643 
L 175.068755 96.739443 
L 175.276867 96.854901 
L 175.812755 97.357076 
L 175.98965 97.488513 
L 176.561958 98.147335 
L 176.723245 98.292178 
L 177.295552 99.05562 
L 177.462042 99.199107 
L 178.018741 99.91062 
L 178.211245 100.031119 
L 178.77835 100.599751 
L 178.986462 100.718821 
L 179.52235 101.199402 
L 179.725259 101.315397 
L 180.261147 101.814146 
L 180.448448 101.948062 
L 180.911497 102.406979 
L 181.130014 102.517961 
L 181.58786 102.888042 
L 181.842797 103.001261 
L 182.243413 103.228816 
L 182.576392 103.338628 
L 182.961399 103.462684 
L 183.37242 103.572526 
L 183.809455 103.628554 
L 185.313063 103.911652 
L 185.807329 104.012699 
L 186.135105 104.228332 
L 187.373371 105.014749 
L 187.654322 105.261004 
L 187.914462 105.375705 
L 188.476364 105.949144 
L 188.642853 106.098689 
L 189.173538 106.77414 
L 189.340028 106.900985 
L 189.636587 107.597946 
L 189.849902 107.771045 
L 190.06842 107.883817 
L 190.276531 108.422205 
L 190.557483 108.943514 
L 190.859245 109.13718 
L 191.509594 110.302222 
L 191.660476 110.572005 
L 192.107916 111.486119 
L 192.342042 111.600472 
L 192.961175 112.308669 
L 193.179692 112.462743 
L 193.559497 112.729403 
L 193.996531 112.858048 
L 194.376336 112.961394 
L 194.802965 113.073326 
L 195.312839 113.12659 
L 196.785231 113.271734 
L 197.133818 113.383111 
L 197.550042 113.582746 
L 197.768559 113.69843 
L 198.320056 114.214928 
L 198.491748 114.362065 
L 198.991217 114.953356 
L 199.199329 115.06342 
L 199.761231 115.588522 
L 199.96414 115.724371 
L 200.41158 116.119877 
L 200.676923 116.22588 
L 201.197203 116.612201 
L 201.441734 116.727838 
L 201.962014 117.11472 
L 202.19614 117.22594 
L 202.742434 117.691297 
L 202.945343 117.823601 
L 203.424 118.258794 
L 203.663329 118.370668 
L 204.152392 118.759284 
L 204.407329 118.870159 
L 204.865175 119.150389 
L 205.198154 119.258849 
L 205.650797 119.480835 
L 205.957762 119.589425 
L 206.379189 119.786152 
L 206.686154 119.894376 
L 207.071161 120.04214 
L 207.398937 120.152134 
L 207.763133 120.240777 
L 208.226182 120.363075 
L 209.714182 120.461797 
L 210.791161 120.648341 
L 211.436308 120.939058 
L 211.732867 121.123776 
L 211.966993 121.230954 
L 212.195916 121.748224 
L 212.440448 122.062055 
L 212.664168 122.185025 
L 212.856671 122.775825 
L 213.13242 123.378722 
L 213.392559 123.547978 
L 213.67351 124.440925 
L 213.881622 124.671516 
L 214.10014 124.785614 
L 214.776503 125.651213 
L 214.97421 125.880581 
L 215.354014 126.300668 
L 215.697399 126.445169 
L 216.170853 126.868844 
L 216.451804 126.97706 
L 216.904448 127.257248 
L 217.305063 127.366847 
L 217.809734 127.42016 
L 219.01158 127.713672 
L 219.375776 127.925523 
L 219.646322 128.036926 
L 220.244643 128.565037 
L 220.426741 128.708521 
L 220.999049 129.371631 
L 221.170741 129.508593 
L 221.795077 130.317837 
L 221.951161 130.549523 
L 222.367385 131.245516 
L 222.591105 131.356695 
L 223.205035 132.069001 
L 223.41835 132.25351 
L 223.761734 132.500508 
L 226.644084 132.856101 
L 227.070713 133.089417 
L 227.315245 133.197593 
L 227.918769 133.743756 
L 228.100867 133.902997 
L 228.584727 134.437859 
L 228.818853 134.548768 
L 229.484811 135.221405 
L 229.651301 135.439329 
L 230.119552 136.153346 
L 230.332867 136.26032 
L 230.546182 136.773895 
L 230.832336 137.255213 
L 231.160112 137.444015 
L 231.675189 138.161886 
L 231.940531 138.271063 
L 232.44 138.625315 
L 232.851021 138.735968 
L 233.262042 138.796428 
L 235.910266 139.036828 
L 237.377455 139.481597 
L 237.81449 139.637766 
L 238.761399 139.749003 
L 240.186965 140.058928 
L 240.556364 140.175308 
L 240.925762 140.283222 
L 241.394014 140.463781 
L 241.841455 140.573796 
L 242.299301 140.628739 
L 243.672839 140.909366 
L 243.927776 141.152047 
L 244.229538 141.33986 
L 244.546909 141.461142 
L 245.093203 141.906073 
L 245.467804 142.014494 
L 245.967273 142.161592 
L 247.767441 142.338009 
L 248.370965 142.532469 
L 248.64151 142.710457 
L 248.958881 142.841523 
L 249.260643 142.951739 
L 249.650853 143.137003 
L 249.921399 143.24453 
L 250.363636 143.503609 
L 250.634182 143.615124 
L 251.211692 144.058077 
L 251.425007 144.174133 
L 252.163804 144.917842 
L 252.356308 145.18883 
L 252.767329 145.768283 
L 253.162741 145.935141 
L 253.630993 146.305593 
L 254.343776 146.489998 
L 254.76 146.55328 
L 255.212643 146.688147 
L 256.060699 146.789179 
L 257.689175 146.989154 
L 258.230266 147.293781 
L 258.44358 147.426014 
L 258.969063 147.904709 
L 259.229203 148.01708 
L 259.739077 148.373112 
L 260.09807 148.482322 
L 260.514294 148.617384 
L 260.961734 148.727721 
L 261.695329 148.820635 
L 263.870098 149.090321 
L 264.369566 149.250927 
L 264.733762 149.365177 
L 265.196811 149.512882 
L 265.592224 149.623849 
L 266.076084 149.803612 
L 266.44028 149.913795 
L 266.903329 150.09436 
L 267.309147 150.203624 
L 267.740979 150.289187 
L 269.884531 150.402758 
L 271.689902 150.651588 
L 272.121734 150.836669 
L 272.423497 150.943626 
L 272.948979 151.262814 
L 273.245538 151.375239 
L 273.71379 151.623421 
L 274.156028 151.736089 
L 274.598266 151.828797 
L 275.264224 151.943342 
L 277.621091 152.160046 
L 278.82814 152.352691 
L 279.306797 152.464937 
L 279.743832 152.564157 
L 280.217287 152.680718 
L 280.773986 152.7194 
L 283.666741 152.924098 
L 286.575105 153.614636 
L 289.24414 153.756784 
L 290.191049 153.856003 
L 291.647832 154.018346 
L 292.318993 154.249377 
L 292.641566 154.373302 
L 292.948531 154.484247 
L 293.468811 154.811574 
L 293.827804 154.919868 
L 294.301259 155.097041 
L 294.925594 155.213373 
L 295.950545 155.332038 
L 296.954685 155.442778 
L 299.014993 155.979495 
L 299.337566 156.049942 
L 299.618517 156.168448 
L 300.071161 156.40959 
L 300.539413 156.523324 
L 300.997259 156.590864 
L 304.196979 156.705784 
L 308.49449 157.598961 
L 308.884699 157.756313 
L 309.243692 157.865817 
L 309.732755 158.100557 
L 310.081343 158.210338 
L 310.528783 158.402258 
L 310.861762 158.51154 
L 311.283189 158.672202 
L 311.652587 158.781223 
L 312.08442 158.909516 
L 312.667133 159.020252 
L 313.993846 159.244442 
L 314.477706 159.355975 
L 314.919944 159.416305 
L 316.694098 159.701438 
L 317.334042 159.769324 
L 318.645147 159.952853 
L 320.289231 160.176175 
L 321.491077 160.286257 
L 321.94372 160.402659 
L 322.245483 160.526274 
L 322.682517 160.720008 
L 324.909315 160.863773 
L 327.198545 160.978618 
L 328.103832 161.09962 
L 330.002853 161.441687 
L 332.109986 161.573636 
L 333.327441 161.707338 
L 336.750881 161.821781 
L 341.178462 162.626385 
L 341.396979 162.957852 
L 341.724755 163.365101 
L 342.083748 163.541066 
L 342.640448 164.211469 
L 342.937007 164.31898 
L 343.363636 164.529536 
L 343.878713 164.640943 
L 344.43021 164.804216 
L 344.778797 164.871658 
L 345.116979 164.993729 
L 345.569622 165.135666 
L 346.173147 165.252384 
L 346.693427 165.337799 
L 347.057622 165.457381 
L 347.541483 165.646076 
L 347.832839 165.757545 
L 348.420755 166.166857 
L 348.639273 166.287207 
L 349.221986 166.8131 
L 349.430098 166.945443 
L 349.945175 167.422561 
L 350.189706 167.528857 
L 350.788028 168.022962 
L 350.990937 168.153354 
L 351.558042 168.710851 
L 351.760951 168.827742 
L 352.421706 169.496024 
L 352.603804 169.67154 
L 353.118881 170.308976 
L 353.389427 170.417064 
L 354.081399 171.030459 
L 354.331133 171.176702 
L 354.752559 171.435242 
L 355.985622 171.589223 
L 357.073007 171.877816 
L 357.473622 172.12695 
L 357.790993 172.244341 
L 358.540196 172.931608 
L 358.769119 173.097381 
L 359.206154 173.445337 
L 361.037538 173.689457 
L 361.469371 173.790677 
L 361.76593 173.905742 
L 362.47351 174.432039 
L 362.67642 174.586353 
L 363.321566 175.283313 
L 363.597315 175.394695 
L 363.878266 175.864152 
L 364.190434 176.224614 
L 364.61186 176.437254 
L 365.298629 177.396826 
L 365.496336 177.520577 
L 365.751273 178.0601 
L 366.058238 178.511742 
L 366.609734 178.820497 
L 366.958322 179.082729 
L 367.723133 179.113076 
L 368.638825 179.266966 
L 369.414042 179.590572 
L 369.81986 179.939949 
L 370.376559 180.144032 
L 371.068531 180.772581 
L 371.318266 180.880408 
L 371.557594 181.345263 
L 371.869762 181.795736 
L 372.332811 182.038737 
L 372.775049 182.466935 
L 373.331748 182.673912 
L 373.826014 183.058629 
L 374.138182 183.177695 
L 374.424336 183.708966 
L 374.684476 183.958997 
L 375.043469 184.106447 
L 375.563748 184.553442 
L 376.677147 184.740994 
L 377.551217 185.105296 
L 377.87379 185.307502 
L 378.165147 185.421011 
L 378.758266 185.92592 
L 379.179692 186.035039 
L 379.804028 186.238171 
L 380.137007 186.350368 
L 380.553231 186.53962 
L 380.745734 186.656697 
L 381.541762 187.962942 
L 381.942378 189.42339 
L 382.15049 189.565025 
L 382.301371 190.231763 
L 382.826853 192.882822 
L 383.019357 193.000402 
L 383.175441 193.567267 
L 383.721734 195.840855 
L 384.195189 196.124217 
L 384.746685 196.758813 
L 385.142098 196.814814 
L 386.323133 196.942725 
L 386.494825 197.09562 
L 386.713343 197.70228 
L 386.978685 198.208335 
L 387.186797 198.351326 
L 387.32207 199.024003 
L 387.629035 202.224527 
L 387.826741 202.979177 
L 387.988028 203.11396 
L 388.112895 203.855261 
L 388.357427 207.132033 
L 388.612364 209.208131 
L 388.94014 209.811405 
L 389.559273 212.763975 
L 389.81421 212.874307 
L 390.464559 213.421164 
L 391.864112 213.663816 
L 392.041007 214.157702 
L 392.514462 215.593945 
L 392.696559 215.707205 
L 392.826629 216.24408 
L 393.055552 218.409374 
L 393.341706 220.354632 
L 393.622657 220.808297 
L 393.79435 222.484392 
L 394.163748 225.931637 
L 394.361455 226.181479 
L 394.496727 227.344147 
L 394.990993 232.244064 
L 395.074238 232.369238 
L 395.183497 233.120258 
L 395.376 236.410926 
L 395.693371 240.937872 
L 396.041958 241.807695 
L 396.400951 243.43912 
L 396.619469 243.481792 
L 396.947245 243.593176 
L 397.092923 244.052674 
L 397.686042 246.388778 
L 397.779692 246.652107 
L 397.909762 247.860711 
L 398.086657 251.95325 
L 398.294769 262.662636 
L 398.450853 282.48832 
L 398.48207 295.488 
L 398.48207 295.488 
" clip-path="url(#pb684cdd589)" style="fill: none; stroke: #1f77b4; stroke-width: 1.5; stroke-linecap: square"/>
   </g>
   <g id="line2d_16">
    <path d="M 129.981315 62.668818 
L 357.026182 171.827549 
" clip-path="url(#pb684cdd589)" style="fill: none; stroke-dasharray: 5.55,2.4; stroke-dashoffset: 0; stroke: #ff7f0e; stroke-width: 1.5"/>
   </g>
   <g id="line2d_17">
    <path d="M 73.832727 162.730661 
L 398.487273 162.730661 
L 398.487273 162.730661 
" clip-path="url(#pb684cdd589)" style="fill: none; stroke-dasharray: 5.55,2.4; stroke-dashoffset: 0; stroke: #2ca02c; stroke-width: 1.5"/>
   </g>
   <g id="LineCollection_1">
    <path d="M 357.026182 295.488 
L 357.026182 53.568 
" clip-path="url(#pb684cdd589)" style="fill: none; stroke-dasharray: 5.55,2.4; stroke-dashoffset: 0; stroke: #1f77b4; stroke-width: 1.5"/>
   </g>
   <g id="patch_3">
    <path d="M 57.6 307.584 
L 57.6 41.472 
" style="fill: none; stroke: #000000; stroke-width: 0.8; stroke-linejoin: miter; stroke-linecap: square"/>
   </g>
   <g id="patch_4">
    <path d="M 414.72 307.584 
L 414.72 41.472 
" style="fill: none; stroke: #000000; stroke-width: 0.8; stroke-linejoin: miter; stroke-linecap: square"/>
   </g>
   <g id="patch_5">
    <path d="M 57.6 307.584 
L 414.72 307.584 
" style="fill: none; stroke: #000000; stroke-width: 0.8; stroke-linejoin: miter; stroke-linecap: square"/>
   </g>
   <g id="patch_6">
    <path d="M 57.6 41.472 
L 414.72 41.472 
" style="fill: none; stroke: #000000; stroke-width: 0.8; stroke-linejoin: miter; stroke-linecap: square"/>
   </g>
   <g id="text_15">
    <!-- Energy Decay - 125 Hz -->
    <g transform="translate(167.4075 35.472) scale(0.12 -0.12)">
     <defs>
      <path id="DejaVuSans-45" d="M 628 4666 
L 3578 4666 
L 3578 4134 
L 1259 4134 
L 1259 2753 
L 3481 2753 
L 3481 2222 
L 1259 2222 
L 1259 531 
L 3634 531 
L 3634 0 
L 628 0 
L 628 4666 
z
" transform="scale(0.015625)"/>
      <path id="DejaVuSans-6e" d="M 3513 2113 
L 3513 0 
L 2938 0 
L 2938 2094 
Q 2938 2591 2744 2837 
Q 2550 3084 2163 3084 
Q 1697 3084 1428 2787 
Q 1159 2491 1159 1978 
L 1159 0 
L 581 0 
L 581 3500 
L 1159 3500 
L 1159 2956 
Q 1366 3272 1645 3428 
Q 1925 3584 2291 3584 
Q 2894 3584 3203 3211 
Q 3513 2838 3513 2113 
z
" transform="scale(0.015625)"/>
      <path id="DejaVuSans-65" d="M 3597 1894 
L 3597 1613 
L 953 1613 
Q 991 1019 1311 708 
Q 1631 397 2203 397 
Q 2534 397 2845 478 
Q 3156 559 3463 722 
L 3463 178 
Q 3153 47 2828 -22 
Q 2503 -91 2169 -91 
Q 1331 -91 842 396 
Q 353 884 353 1716 
Q 353 2575 817 3079 
Q 1281 3584 2069 3584 
Q 2775 3584 3186 3129 
Q 3597 2675 3597 1894 
z
M 3022 2063 
Q 3016 2534 2758 2815 
Q 2500 3097 2075 3097 
Q 1594 3097 1305 2825 
Q 1016 2553 972 2059 
L 3022 2063 
z
" transform="scale(0.015625)"/>
      <path id="DejaVuSans-72" d="M 2631 2963 
Q 2534 3019 2420 3045 
Q 2306 3072 2169 3072 
Q 1681 3072 1420 2755 
Q 1159 2438 1159 1844 
L 1159 0 
L 581 0 
L 581 3500 
L 1159 3500 
L 1159 2956 
Q 1341 3275 1631 3429 
Q 1922 3584 2338 3584 
Q 2397 3584 2469 3576 
Q 2541 3569 2628 3553 
L 2631 2963 
z
" transform="scale(0.015625)"/>
      <path id="DejaVuSans-67" d="M 2906 1791 
Q 2906 2416 2648 2759 
Q 2391 3103 1925 3103 
Q 1463 3103 1205 2759 
Q 947 2416 947 1791 
Q 947 1169 1205 825 
Q 1463 481 1925 481 
Q 2391 481 2648 825 
Q 2906 1169 2906 1791 
z
M 3481 434 
Q 3481 -459 3084 -895 
Q 2688 -1331 1869 -1331 
Q 1566 -1331 1297 -1286 
Q 1028 -1241 775 -1147 
L 775 -588 
Q 1028 -725 1275 -790 
Q 1522 -856 1778 -856 
Q 2344 -856 2625 -561 
Q 2906 -266 2906 331 
L 2906 616 
Q 2728 306 2450 153 
Q 2172 0 1784 0 
Q 1141 0 747 490 
Q 353 981 353 1791 
Q 353 2603 747 3093 
Q 1141 3584 1784 3584 
Q 2172 3584 2450 3431 
Q 2728 3278 2906 2969 
L 2906 3500 
L 3481 3500 
L 3481 434 
z
" transform="scale(0.015625)"/>
      <path id="DejaVuSans-79" d="M 2059 -325 
Q 1816 -950 1584 -1140 
Q 1353 -1331 966 -1331 
L 506 -1331 
L 506 -850 
L 844 -850 
Q 1081 -850 1212 -737 
Q 1344 -625 1503 -206 
L 1606 56 
L 191 3500 
L 800 3500 
L 1894 763 
L 2988 3500 
L 3597 3500 
L 2059 -325 
z
" transform="scale(0.015625)"/>
      <path id="DejaVuSans-20" transform="scale(0.015625)"/>
      <path id="DejaVuSans-44" d="M 1259 4147 
L 1259 519 
L 2022 519 
Q 2988 519 3436 956 
Q 3884 1394 3884 2338 
Q 3884 3275 3436 3711 
Q 2988 4147 2022 4147 
L 1259 4147 
z
M 628 4666 
L 1925 4666 
Q 3281 4666 3915 4102 
Q 4550 3538 4550 2338 
Q 4550 1131 3912 565 
Q 3275 0 1925 0 
L 628 0 
L 628 4666 
z
" transform="scale(0.015625)"/>
      <path id="DejaVuSans-63" d="M 3122 3366 
L 3122 2828 
Q 2878 2963 2633 3030 
Q 2388 3097 2138 3097 
Q 1578 3097 1268 2742 
Q 959 2388 959 1747 
Q 959 1106 1268 751 
Q 1578 397 2138 397 
Q 2388 397 2633 464 
Q 2878 531 3122 666 
L 3122 134 
Q 2881 22 2623 -34 
Q 2366 -91 2075 -91 
Q 1284 -91 818 406 
Q 353 903 353 1747 
Q 353 2603 823 3093 
Q 1294 3584 2113 3584 
Q 2378 3584 2631 3529 
Q 2884 3475 3122 3366 
z
" transform="scale(0.015625)"/>
      <path id="DejaVuSans-61" d="M 2194 1759 
Q 1497 1759 1228 1600 
Q 959 1441 959 1056 
Q 959 750 1161 570 
Q 1363 391 1709 391 
Q 2188 391 2477 730 
Q 2766 1069 2766 1631 
L 2766 1759 
L 2194 1759 
z
M 3341 1997 
L 3341 0 
L 2766 0 
L 2766 531 
Q 2569 213 2275 61 
Q 1981 -91 1556 -91 
Q 1019 -91 701 211 
Q 384 513 384 1019 
Q 384 1609 779 1909 
Q 1175 2209 1959 2209 
L 2766 2209 
L 2766 2266 
Q 2766 2663 2505 2880 
Q 2244 3097 1772 3097 
Q 1472 3097 1187 3025 
Q 903 2953 641 2809 
L 641 3341 
Q 956 3463 1253 3523 
Q 1550 3584 1831 3584 
Q 2591 3584 2966 3190 
Q 3341 2797 3341 1997 
z
" transform="scale(0.015625)"/>
      <path id="DejaVuSans-2d" d="M 313 2009 
L 1997 2009 
L 1997 1497 
L 313 1497 
L 313 2009 
z
" transform="scale(0.015625)"/>
      <path id="DejaVuSans-35" d="M 691 4666 
L 3169 4666 
L 3169 4134 
L 1269 4134 
L 1269 2991 
Q 1406 3038 1543 3061 
Q 1681 3084 1819 3084 
Q 2600 3084 3056 2656 
Q 3513 2228 3513 1497 
Q 3513 744 3044 326 
Q 2575 -91 1722 -91 
Q 1428 -91 1123 -41 
Q 819 9 494 109 
L 494 744 
Q 775 591 1075 516 
Q 1375 441 1709 441 
Q 2250 441 2565 725 
Q 2881 1009 2881 1497 
Q 2881 1984 2565 2268 
Q 2250 2553 1709 2553 
Q 1456 2553 1204 2497 
Q 953 2441 691 2322 
L 691 4666 
z
" transform="scale(0.015625)"/>
      <path id="DejaVuSans-48" d="M 628 4666 
L 1259 4666 
L 1259 2753 
L 3553 2753 
L 3553 4666 
L 4184 4666 
L 4184 0 
L 3553 0 
L 3553 2222 
L 1259 2222 
L 1259 0 
L 628 0 
L 628 4666 
z
" transform="scale(0.015625)"/>
      <path id="DejaVuSans-7a" d="M 353 3500 
L 3084 3500 
L 3084 2975 
L 922 459 
L 3084 459 
L 3084 0 
L 275 0 
L 275 525 
L 2438 3041 
L 353 3041 
L 353 3500 
z
" transform="scale(0.015625)"/>
     </defs>
     <use xlink:href="#DejaVuSans-45"/>
     <use xlink:href="#DejaVuSans-6e" transform="translate(63.183594 0)"/>
     <use xlink:href="#DejaVuSans-65" transform="translate(126.5625 0)"/>
     <use xlink:href="#DejaVuSans-72" transform="translate(188.085938 0)"/>
     <use xlink:href="#DejaVuSans-67" transform="translate(227.449219 0)"/>
     <use xlink:href="#DejaVuSans-79" transform="translate(290.925781 0)"/>
     <use xlink:href="#DejaVuSans-20" transform="translate(350.105469 0)"/>
     <use xlink:href="#DejaVuSans-44" transform="translate(381.892578 0)"/>
     <use xlink:href="#DejaVuSans-65" transform="translate(458.894531 0)"/>
     <use xlink:href="#DejaVuSans-63" transform="translate(520.417969 0)"/>
     <use xlink:href="#DejaVuSans-61" transform="translate(575.398438 0)"/>
     <use xlink:href="#DejaVuSans-79" transform="translate(636.677734 0)"/>
     <use xlink:href="#DejaVuSans-20" transform="translate(695.857422 0)"/>
     <use xlink:href="#DejaVuSans-2d" transform="translate(727.644531 0)"/>
     <use xlink:href="#DejaVuSans-20" transform="translate(763.728516 0)"/>
     <use xlink:href="#DejaVuSans-31" transform="translate(795.515625 0)"/>
     <use xlink:href="#DejaVuSans-32" transform="translate(859.138672 0)"/>
     <use xlink:href="#DejaVuSans-35" transform="translate(922.761719 0)"/>
     <use xlink:href="#DejaVuSans-20" transform="translate(986.384766 0)"/>
     <use xlink:href="#DejaVuSans-48" transform="translate(1018.171875 0)"/>
     <use xlink:href="#DejaVuSans-7a" transform="translate(1093.367188 0)"/>
    </g>
   </g>
   <g id="legend_1">
    <g id="patch_7">
     <path d="M 296.968437 108.1845 
L 407.72 108.1845 
Q 409.72 108.1845 409.72 106.1845 
L 409.72 48.472 
Q 409.72 46.472 407.72 46.472 
L 296.968437 46.472 
Q 294.968437 46.472 294.968437 48.472 
L 294.968437 106.1845 
Q 294.968437 108.1845 296.968437 108.1845 
z
" style="fill: #ffffff; opacity: 0.8; stroke: #cccccc; stroke-linejoin: miter"/>
    </g>
    <g id="line2d_18">
     <path d="M 298.968437 54.570438 
L 308.968437 54.570438 
L 318.968437 54.570438 
" style="fill: none; stroke: #1f77b4; stroke-width: 1.5; stroke-linecap: square"/>
    </g>
    <g id="text_16">
     <!-- Energy -->
     <g transform="translate(326.968437 58.070438) scale(0.1 -0.1)">
      <use xlink:href="#DejaVuSans-45"/>
      <use xlink:href="#DejaVuSans-6e" transform="translate(63.183594 0)"/>
      <use xlink:href="#DejaVuSans-65" transform="translate(126.5625 0)"/>
      <use xlink:href="#DejaVuSans-72" transform="translate(188.085938 0)"/>
      <use xlink:href="#DejaVuSans-67" transform="translate(227.449219 0)"/>
      <use xlink:href="#DejaVuSans-79" transform="translate(290.925781 0)"/>
     </g>
    </g>
    <g id="line2d_19">
     <path d="M 298.968437 69.248563 
L 308.968437 69.248563 
L 318.968437 69.248563 
" style="fill: none; stroke-dasharray: 5.55,2.4; stroke-dashoffset: 0; stroke: #ff7f0e; stroke-width: 1.5"/>
    </g>
    <g id="text_17">
     <!-- Linear Fit -->
     <g transform="translate(326.968437 72.748563) scale(0.1 -0.1)">
      <defs>
       <path id="DejaVuSans-4c" d="M 628 4666 
L 1259 4666 
L 1259 531 
L 3531 531 
L 3531 0 
L 628 0 
L 628 4666 
z
" transform="scale(0.015625)"/>
       <path id="DejaVuSans-69" d="M 603 3500 
L 1178 3500 
L 1178 0 
L 603 0 
L 603 3500 
z
M 603 4863 
L 1178 4863 
L 1178 4134 
L 603 4134 
L 603 4863 
z
" transform="scale(0.015625)"/>
       <path id="DejaVuSans-46" d="M 628 4666 
L 3309 4666 
L 3309 4134 
L 1259 4134 
L 1259 2759 
L 3109 2759 
L 3109 2228 
L 1259 2228 
L 1259 0 
L 628 0 
L 628 4666 
z
" transform="scale(0.015625)"/>
       <path id="DejaVuSans-74" d="M 1172 4494 
L 1172 3500 
L 2356 3500 
L 2356 3053 
L 1172 3053 
L 1172 1153 
Q 1172 725 1289 603 
Q 1406 481 1766 481 
L 2356 481 
L 2356 0 
L 1766 0 
Q 1100 0 847 248 
Q 594 497 594 1153 
L 594 3053 
L 172 3053 
L 172 3500 
L 594 3500 
L 594 4494 
L 1172 4494 
z
" transform="scale(0.015625)"/>
      </defs>
      <use xlink:href="#DejaVuSans-4c"/>
      <use xlink:href="#DejaVuSans-69" transform="translate(55.712891 0)"/>
      <use xlink:href="#DejaVuSans-6e" transform="translate(83.496094 0)"/>
      <use xlink:href="#DejaVuSans-65" transform="translate(146.875 0)"/>
      <use xlink:href="#DejaVuSans-61" transform="translate(208.398438 0)"/>
      <use xlink:href="#DejaVuSans-72" transform="translate(269.677734 0)"/>
      <use xlink:href="#DejaVuSans-20" transform="translate(310.791016 0)"/>
      <use xlink:href="#DejaVuSans-46" transform="translate(342.578125 0)"/>
      <use xlink:href="#DejaVuSans-69" transform="translate(392.847656 0)"/>
      <use xlink:href="#DejaVuSans-74" transform="translate(420.630859 0)"/>
     </g>
    </g>
    <g id="line2d_20">
     <path d="M 298.968437 83.926688 
L 308.968437 83.926688 
L 318.968437 83.926688 
" style="fill: none; stroke-dasharray: 5.55,2.4; stroke-dashoffset: 0; stroke: #2ca02c; stroke-width: 1.5"/>
    </g>
    <g id="text_18">
     <!-- -60 dB -->
     <g transform="translate(326.968437 87.426688) scale(0.1 -0.1)">
      <defs>
       <path id="DejaVuSans-64" d="M 2906 2969 
L 2906 4863 
L 3481 4863 
L 3481 0 
L 2906 0 
L 2906 525 
Q 2725 213 2448 61 
Q 2172 -91 1784 -91 
Q 1150 -91 751 415 
Q 353 922 353 1747 
Q 353 2572 751 3078 
Q 1150 3584 1784 3584 
Q 2172 3584 2448 3432 
Q 2725 3281 2906 2969 
z
M 947 1747 
Q 947 1113 1208 752 
Q 1469 391 1925 391 
Q 2381 391 2643 752 
Q 2906 1113 2906 1747 
Q 2906 2381 2643 2742 
Q 2381 3103 1925 3103 
Q 1469 3103 1208 2742 
Q 947 2381 947 1747 
z
" transform="scale(0.015625)"/>
       <path id="DejaVuSans-42" d="M 1259 2228 
L 1259 519 
L 2272 519 
Q 2781 519 3026 730 
Q 3272 941 3272 1375 
Q 3272 1813 3026 2020 
Q 2781 2228 2272 2228 
L 1259 2228 
z
M 1259 4147 
L 1259 2741 
L 2194 2741 
Q 2656 2741 2882 2914 
Q 3109 3088 3109 3444 
Q 3109 3797 2882 3972 
Q 2656 4147 2194 4147 
L 1259 4147 
z
M 628 4666 
L 2241 4666 
Q 2963 4666 3353 4366 
Q 3744 4066 3744 3513 
Q 3744 3084 3544 2831 
Q 3344 2578 2956 2516 
Q 3422 2416 3680 2098 
Q 3938 1781 3938 1306 
Q 3938 681 3513 340 
Q 3088 0 2303 0 
L 628 0 
L 628 4666 
z
" transform="scale(0.015625)"/>
      </defs>
      <use xlink:href="#DejaVuSans-2d"/>
      <use xlink:href="#DejaVuSans-36" transform="translate(36.083984 0)"/>
      <use xlink:href="#DejaVuSans-30" transform="translate(99.707031 0)"/>
      <use xlink:href="#DejaVuSans-20" transform="translate(163.330078 0)"/>
      <use xlink:href="#DejaVuSans-64" transform="translate(195.117188 0)"/>
      <use xlink:href="#DejaVuSans-42" transform="translate(258.59375 0)"/>
     </g>
    </g>
    <g id="line2d_21">
     <path d="M 298.968437 98.604813 
L 318.968437 98.604813 
" style="fill: none; stroke-dasharray: 5.55,2.4; stroke-dashoffset: 0; stroke: #1f77b4; stroke-width: 1.5"/>
    </g>
    <g id="text_19">
     <!-- Estimated RT60 -->
     <g transform="translate(326.968437 102.104813) scale(0.1 -0.1)">
      <defs>
       <path id="DejaVuSans-73" d="M 2834 3397 
L 2834 2853 
Q 2591 2978 2328 3040 
Q 2066 3103 1784 3103 
Q 1356 3103 1142 2972 
Q 928 2841 928 2578 
Q 928 2378 1081 2264 
Q 1234 2150 1697 2047 
L 1894 2003 
Q 2506 1872 2764 1633 
Q 3022 1394 3022 966 
Q 3022 478 2636 193 
Q 2250 -91 1575 -91 
Q 1294 -91 989 -36 
Q 684 19 347 128 
L 347 722 
Q 666 556 975 473 
Q 1284 391 1588 391 
Q 1994 391 2212 530 
Q 2431 669 2431 922 
Q 2431 1156 2273 1281 
Q 2116 1406 1581 1522 
L 1381 1569 
Q 847 1681 609 1914 
Q 372 2147 372 2553 
Q 372 3047 722 3315 
Q 1072 3584 1716 3584 
Q 2034 3584 2315 3537 
Q 2597 3491 2834 3397 
z
" transform="scale(0.015625)"/>
       <path id="DejaVuSans-6d" d="M 3328 2828 
Q 3544 3216 3844 3400 
Q 4144 3584 4550 3584 
Q 5097 3584 5394 3201 
Q 5691 2819 5691 2113 
L 5691 0 
L 5113 0 
L 5113 2094 
Q 5113 2597 4934 2840 
Q 4756 3084 4391 3084 
Q 3944 3084 3684 2787 
Q 3425 2491 3425 1978 
L 3425 0 
L 2847 0 
L 2847 2094 
Q 2847 2600 2669 2842 
Q 2491 3084 2119 3084 
Q 1678 3084 1418 2786 
Q 1159 2488 1159 1978 
L 1159 0 
L 581 0 
L 581 3500 
L 1159 3500 
L 1159 2956 
Q 1356 3278 1631 3431 
Q 1906 3584 2284 3584 
Q 2666 3584 2933 3390 
Q 3200 3197 3328 2828 
z
" transform="scale(0.015625)"/>
       <path id="DejaVuSans-52" d="M 2841 2188 
Q 3044 2119 3236 1894 
Q 3428 1669 3622 1275 
L 4263 0 
L 3584 0 
L 2988 1197 
Q 2756 1666 2539 1819 
Q 2322 1972 1947 1972 
L 1259 1972 
L 1259 0 
L 628 0 
L 628 4666 
L 2053 4666 
Q 2853 4666 3247 4331 
Q 3641 3997 3641 3322 
Q 3641 2881 3436 2590 
Q 3231 2300 2841 2188 
z
M 1259 4147 
L 1259 2491 
L 2053 2491 
Q 2509 2491 2742 2702 
Q 2975 2913 2975 3322 
Q 2975 3731 2742 3939 
Q 2509 4147 2053 4147 
L 1259 4147 
z
" transform="scale(0.015625)"/>
       <path id="DejaVuSans-54" d="M -19 4666 
L 3928 4666 
L 3928 4134 
L 2272 4134 
L 2272 0 
L 1638 0 
L 1638 4134 
L -19 4134 
L -19 4666 
z
" transform="scale(0.015625)"/>
      </defs>
      <use xlink:href="#DejaVuSans-45"/>
      <use xlink:href="#DejaVuSans-73" transform="translate(63.183594 0)"/>
      <use xlink:href="#DejaVuSans-74" transform="translate(115.283203 0)"/>
      <use xlink:href="#DejaVuSans-69" transform="translate(154.492188 0)"/>
      <use xlink:href="#DejaVuSans-6d" transform="translate(182.275391 0)"/>
      <use xlink:href="#DejaVuSans-61" transform="translate(279.6875 0)"/>
      <use xlink:href="#DejaVuSans-74" transform="translate(340.966797 0)"/>
      <use xlink:href="#DejaVuSans-65" transform="translate(380.175781 0)"/>
      <use xlink:href="#DejaVuSans-64" transform="translate(441.699219 0)"/>
      <use xlink:href="#DejaVuSans-20" transform="translate(505.175781 0)"/>
      <use xlink:href="#DejaVuSans-52" transform="translate(536.962891 0)"/>
      <use xlink:href="#DejaVuSans-54" transform="translate(599.195312 0)"/>
      <use xlink:href="#DejaVuSans-36" transform="translate(660.279297 0)"/>
      <use xlink:href="#DejaVuSans-30" transform="translate(723.902344 0)"/>
     </g>
    </g>
   </g>
  </g>
 </g>
 <defs>
  <clipPath id="pb684cdd589">
   <rect x="57.6" y="41.472" width="357.12" height="266.112"/>
  </clipPath>
 </defs>
</svg>
