<?xml version="1.0" encoding="utf-8" standalone="no"?>
<!DOCTYPE svg PUBLIC "-//W3C//DTD SVG 1.1//EN"
  "http://www.w3.org/Graphics/SVG/1.1/DTD/svg11.dtd">
<svg xmlns:xlink="http://www.w3.org/1999/xlink" width="460.8pt" height="345.6pt" viewBox="0 0 460.8 345.6" xmlns="http://www.w3.org/2000/svg" version="1.1">
 <metadata>
  <rdf:RDF xmlns:dc="http://purl.org/dc/elements/1.1/" xmlns:cc="http://creativecommons.org/ns#" xmlns:rdf="http://www.w3.org/1999/02/22-rdf-syntax-ns#">
   <cc:Work>
    <dc:type rdf:resource="http://purl.org/dc/dcmitype/StillImage"/>
    <dc:date>2025-05-07T14:11:23.060637</dc:date>
    <dc:format>image/svg+xml</dc:format>
    <dc:creator>
     <cc:Agent>
      <dc:title>Matplotlib v3.10.1, https://matplotlib.org/</dc:title>
     </cc:Agent>
    </dc:creator>
   </cc:Work>
  </rdf:RDF>
 </metadata>
 <defs>
  <style type="text/css">*{stroke-linejoin: round; stroke-linecap: butt}</style>
 </defs>
 <g id="figure_1">
  <g id="patch_1">
   <path d="M 0 345.6 
L 460.8 345.6 
L 460.8 0 
L 0 0 
z
" style="fill: #ffffff"/>
  </g>
  <g id="axes_1">
   <g id="patch_2">
    <path d="M 57.6 307.584 
L 414.72 307.584 
L 414.72 41.472 
L 57.6 41.472 
z
" style="fill: #ffffff"/>
   </g>
   <g id="matplotlib.axis_1">
    <g id="xtick_1">
     <g id="line2d_1">
      <defs>
       <path id="mb5ba2ab480" d="M 0 0 
L 0 3.5 
" style="stroke: #000000; stroke-width: 0.8"/>
      </defs>
      <g>
       <use xlink:href="#mb5ba2ab480" x="68.294061" y="307.584" style="stroke: #000000; stroke-width: 0.8"/>
      </g>
     </g>
     <g id="text_1">
      <!-- −0.2 -->
      <g transform="translate(56.152654 322.182437) scale(0.1 -0.1)">
       <defs>
        <path id="DejaVuSans-2212" d="M 678 2272 
L 4684 2272 
L 4684 1741 
L 678 1741 
L 678 2272 
z
" transform="scale(0.015625)"/>
        <path id="DejaVuSans-30" d="M 2034 4250 
Q 1547 4250 1301 3770 
Q 1056 3291 1056 2328 
Q 1056 1369 1301 889 
Q 1547 409 2034 409 
Q 2525 409 2770 889 
Q 3016 1369 3016 2328 
Q 3016 3291 2770 3770 
Q 2525 4250 2034 4250 
z
M 2034 4750 
Q 2819 4750 3233 4129 
Q 3647 3509 3647 2328 
Q 3647 1150 3233 529 
Q 2819 -91 2034 -91 
Q 1250 -91 836 529 
Q 422 1150 422 2328 
Q 422 3509 836 4129 
Q 1250 4750 2034 4750 
z
" transform="scale(0.015625)"/>
        <path id="DejaVuSans-2e" d="M 684 794 
L 1344 794 
L 1344 0 
L 684 0 
L 684 794 
z
" transform="scale(0.015625)"/>
        <path id="DejaVuSans-32" d="M 1228 531 
L 3431 531 
L 3431 0 
L 469 0 
L 469 531 
Q 828 903 1448 1529 
Q 2069 2156 2228 2338 
Q 2531 2678 2651 2914 
Q 2772 3150 2772 3378 
Q 2772 3750 2511 3984 
Q 2250 4219 1831 4219 
Q 1534 4219 1204 4116 
Q 875 4013 500 3803 
L 500 4441 
Q 881 4594 1212 4672 
Q 1544 4750 1819 4750 
Q 2544 4750 2975 4387 
Q 3406 4025 3406 3419 
Q 3406 3131 3298 2873 
Q 3191 2616 2906 2266 
Q 2828 2175 2409 1742 
Q 1991 1309 1228 531 
z
" transform="scale(0.015625)"/>
       </defs>
       <use xlink:href="#DejaVuSans-2212"/>
       <use xlink:href="#DejaVuSans-30" transform="translate(83.789062 0)"/>
       <use xlink:href="#DejaVuSans-2e" transform="translate(147.412109 0)"/>
       <use xlink:href="#DejaVuSans-32" transform="translate(179.199219 0)"/>
      </g>
     </g>
    </g>
    <g id="xtick_2">
     <g id="line2d_2">
      <g>
       <use xlink:href="#mb5ba2ab480" x="140.439515" y="307.584" style="stroke: #000000; stroke-width: 0.8"/>
      </g>
     </g>
     <g id="text_2">
      <!-- 0.0 -->
      <g transform="translate(132.487953 322.182437) scale(0.1 -0.1)">
       <use xlink:href="#DejaVuSans-30"/>
       <use xlink:href="#DejaVuSans-2e" transform="translate(63.623047 0)"/>
       <use xlink:href="#DejaVuSans-30" transform="translate(95.410156 0)"/>
      </g>
     </g>
    </g>
    <g id="xtick_3">
     <g id="line2d_3">
      <g>
       <use xlink:href="#mb5ba2ab480" x="212.58497" y="307.584" style="stroke: #000000; stroke-width: 0.8"/>
      </g>
     </g>
     <g id="text_3">
      <!-- 0.2 -->
      <g transform="translate(204.633407 322.182437) scale(0.1 -0.1)">
       <use xlink:href="#DejaVuSans-30"/>
       <use xlink:href="#DejaVuSans-2e" transform="translate(63.623047 0)"/>
       <use xlink:href="#DejaVuSans-32" transform="translate(95.410156 0)"/>
      </g>
     </g>
    </g>
    <g id="xtick_4">
     <g id="line2d_4">
      <g>
       <use xlink:href="#mb5ba2ab480" x="284.730424" y="307.584" style="stroke: #000000; stroke-width: 0.8"/>
      </g>
     </g>
     <g id="text_4">
      <!-- 0.4 -->
      <g transform="translate(276.778862 322.182437) scale(0.1 -0.1)">
       <defs>
        <path id="DejaVuSans-34" d="M 2419 4116 
L 825 1625 
L 2419 1625 
L 2419 4116 
z
M 2253 4666 
L 3047 4666 
L 3047 1625 
L 3713 1625 
L 3713 1100 
L 3047 1100 
L 3047 0 
L 2419 0 
L 2419 1100 
L 313 1100 
L 313 1709 
L 2253 4666 
z
" transform="scale(0.015625)"/>
       </defs>
       <use xlink:href="#DejaVuSans-30"/>
       <use xlink:href="#DejaVuSans-2e" transform="translate(63.623047 0)"/>
       <use xlink:href="#DejaVuSans-34" transform="translate(95.410156 0)"/>
      </g>
     </g>
    </g>
    <g id="xtick_5">
     <g id="line2d_5">
      <g>
       <use xlink:href="#mb5ba2ab480" x="356.875879" y="307.584" style="stroke: #000000; stroke-width: 0.8"/>
      </g>
     </g>
     <g id="text_5">
      <!-- 0.6 -->
      <g transform="translate(348.924316 322.182437) scale(0.1 -0.1)">
       <defs>
        <path id="DejaVuSans-36" d="M 2113 2584 
Q 1688 2584 1439 2293 
Q 1191 2003 1191 1497 
Q 1191 994 1439 701 
Q 1688 409 2113 409 
Q 2538 409 2786 701 
Q 3034 994 3034 1497 
Q 3034 2003 2786 2293 
Q 2538 2584 2113 2584 
z
M 3366 4563 
L 3366 3988 
Q 3128 4100 2886 4159 
Q 2644 4219 2406 4219 
Q 1781 4219 1451 3797 
Q 1122 3375 1075 2522 
Q 1259 2794 1537 2939 
Q 1816 3084 2150 3084 
Q 2853 3084 3261 2657 
Q 3669 2231 3669 1497 
Q 3669 778 3244 343 
Q 2819 -91 2113 -91 
Q 1303 -91 875 529 
Q 447 1150 447 2328 
Q 447 3434 972 4092 
Q 1497 4750 2381 4750 
Q 2619 4750 2861 4703 
Q 3103 4656 3366 4563 
z
" transform="scale(0.015625)"/>
       </defs>
       <use xlink:href="#DejaVuSans-30"/>
       <use xlink:href="#DejaVuSans-2e" transform="translate(63.623047 0)"/>
       <use xlink:href="#DejaVuSans-36" transform="translate(95.410156 0)"/>
      </g>
     </g>
    </g>
   </g>
   <g id="matplotlib.axis_2">
    <g id="ytick_1">
     <g id="line2d_6">
      <defs>
       <path id="m895589de7b" d="M 0 0 
L -3.5 0 
" style="stroke: #000000; stroke-width: 0.8"/>
      </defs>
      <g>
       <use xlink:href="#m895589de7b" x="57.6" y="279.649472" style="stroke: #000000; stroke-width: 0.8"/>
      </g>
     </g>
     <g id="text_6">
      <!-- −200 -->
      <g transform="translate(23.132812 283.448691) scale(0.1 -0.1)">
       <use xlink:href="#DejaVuSans-2212"/>
       <use xlink:href="#DejaVuSans-32" transform="translate(83.789062 0)"/>
       <use xlink:href="#DejaVuSans-30" transform="translate(147.412109 0)"/>
       <use xlink:href="#DejaVuSans-30" transform="translate(211.035156 0)"/>
      </g>
     </g>
    </g>
    <g id="ytick_2">
     <g id="line2d_7">
      <g>
       <use xlink:href="#m895589de7b" x="57.6" y="223.129104" style="stroke: #000000; stroke-width: 0.8"/>
      </g>
     </g>
     <g id="text_7">
      <!-- −150 -->
      <g transform="translate(23.132812 226.928323) scale(0.1 -0.1)">
       <defs>
        <path id="DejaVuSans-31" d="M 794 531 
L 1825 531 
L 1825 4091 
L 703 3866 
L 703 4441 
L 1819 4666 
L 2450 4666 
L 2450 531 
L 3481 531 
L 3481 0 
L 794 0 
L 794 531 
z
" transform="scale(0.015625)"/>
        <path id="DejaVuSans-35" d="M 691 4666 
L 3169 4666 
L 3169 4134 
L 1269 4134 
L 1269 2991 
Q 1406 3038 1543 3061 
Q 1681 3084 1819 3084 
Q 2600 3084 3056 2656 
Q 3513 2228 3513 1497 
Q 3513 744 3044 326 
Q 2575 -91 1722 -91 
Q 1428 -91 1123 -41 
Q 819 9 494 109 
L 494 744 
Q 775 591 1075 516 
Q 1375 441 1709 441 
Q 2250 441 2565 725 
Q 2881 1009 2881 1497 
Q 2881 1984 2565 2268 
Q 2250 2553 1709 2553 
Q 1456 2553 1204 2497 
Q 953 2441 691 2322 
L 691 4666 
z
" transform="scale(0.015625)"/>
       </defs>
       <use xlink:href="#DejaVuSans-2212"/>
       <use xlink:href="#DejaVuSans-31" transform="translate(83.789062 0)"/>
       <use xlink:href="#DejaVuSans-35" transform="translate(147.412109 0)"/>
       <use xlink:href="#DejaVuSans-30" transform="translate(211.035156 0)"/>
      </g>
     </g>
    </g>
    <g id="ytick_3">
     <g id="line2d_8">
      <g>
       <use xlink:href="#m895589de7b" x="57.6" y="166.608736" style="stroke: #000000; stroke-width: 0.8"/>
      </g>
     </g>
     <g id="text_8">
      <!-- −100 -->
      <g transform="translate(23.132812 170.407955) scale(0.1 -0.1)">
       <use xlink:href="#DejaVuSans-2212"/>
       <use xlink:href="#DejaVuSans-31" transform="translate(83.789062 0)"/>
       <use xlink:href="#DejaVuSans-30" transform="translate(147.412109 0)"/>
       <use xlink:href="#DejaVuSans-30" transform="translate(211.035156 0)"/>
      </g>
     </g>
    </g>
    <g id="ytick_4">
     <g id="line2d_9">
      <g>
       <use xlink:href="#m895589de7b" x="57.6" y="110.088368" style="stroke: #000000; stroke-width: 0.8"/>
      </g>
     </g>
     <g id="text_9">
      <!-- −50 -->
      <g transform="translate(29.495313 113.887587) scale(0.1 -0.1)">
       <use xlink:href="#DejaVuSans-2212"/>
       <use xlink:href="#DejaVuSans-35" transform="translate(83.789062 0)"/>
       <use xlink:href="#DejaVuSans-30" transform="translate(147.412109 0)"/>
      </g>
     </g>
    </g>
    <g id="ytick_5">
     <g id="line2d_10">
      <g>
       <use xlink:href="#m895589de7b" x="57.6" y="53.568" style="stroke: #000000; stroke-width: 0.8"/>
      </g>
     </g>
     <g id="text_10">
      <!-- 0 -->
      <g transform="translate(44.2375 57.367219) scale(0.1 -0.1)">
       <use xlink:href="#DejaVuSans-30"/>
      </g>
     </g>
    </g>
   </g>
   <g id="line2d_11">
    <path d="M 73.832727 53.568 
L 132.871758 53.662953 
L 133.022061 54.271959 
L 133.382788 54.607263 
L 133.99903 54.710038 
L 134.179394 54.830259 
L 134.547636 54.946101 
L 134.675394 55.004803 
L 134.953455 55.09985 
L 135.186424 55.425712 
L 135.389333 55.530405 
L 135.517091 55.569077 
L 135.945455 55.749157 
L 136.313697 56.190871 
L 136.509091 56.416454 
L 137.012606 56.529676 
L 138.530667 57.857738 
L 138.838788 57.980374 
L 138.974061 58.072622 
L 139.447515 58.380699 
L 139.597818 58.481389 
L 139.763152 58.608175 
L 139.913455 58.722758 
L 140.544727 59.263556 
L 140.830303 59.374176 
L 141.003152 59.508416 
L 141.16097 59.622297 
L 141.664485 59.939299 
L 141.814788 60.149854 
L 141.987636 60.242291 
L 142.228121 60.350748 
L 142.836848 60.834038 
L 143.024727 61.229496 
L 143.17503 61.342281 
L 143.39297 61.51293 
L 143.723636 61.763694 
L 144.031758 61.985568 
L 144.219636 62.126863 
L 144.971152 62.669276 
L 145.098909 62.770189 
L 145.482182 62.878998 
L 145.62497 62.927954 
L 146.504242 63.492581 
L 146.707152 63.63606 
L 146.804848 63.839313 
L 146.932606 64.193723 
L 147.150545 64.357562 
L 147.563879 64.601632 
L 147.766788 64.712762 
L 147.872 64.862145 
L 148.082424 65.024134 
L 148.886545 65.394699 
L 150.577455 66.150983 
L 150.855515 66.268138 
L 151.050909 66.555002 
L 151.216242 66.663651 
L 151.35903 66.779102 
L 152.245818 67.307709 
L 152.779394 67.52816 
L 152.914667 67.571437 
L 153.06497 67.752145 
L 153.230303 68.047585 
L 153.388121 68.149344 
L 153.523394 68.263473 
L 153.763879 68.413306 
L 153.929212 68.563946 
L 154.665697 69.089467 
L 154.853576 69.250337 
L 155.169212 69.389122 
L 155.424727 69.522494 
L 157.168242 70.270839 
L 157.80703 70.720804 
L 157.987394 70.831895 
L 158.836606 71.598885 
L 158.941818 71.713849 
L 159.077091 71.768708 
L 159.370182 71.873346 
L 159.528 71.986476 
L 160.114182 72.337202 
L 160.234424 72.447386 
L 160.407273 72.609837 
L 160.512485 72.716087 
L 160.647758 72.805927 
L 160.873212 72.941232 
L 161.264 73.150707 
L 161.489455 73.483863 
L 161.932848 73.707425 
L 162.173333 73.977342 
L 162.383758 74.070586 
L 162.534061 74.214509 
L 162.894788 74.334126 
L 162.992485 74.452758 
L 163.804121 74.949171 
L 164.285091 75.258491 
L 164.518061 75.392423 
L 165.164364 75.619013 
L 165.367273 75.735732 
L 165.419879 75.817925 
L 165.547636 75.934809 
L 165.765576 76.026789 
L 165.908364 76.105269 
L 166.449455 76.243431 
L 166.637333 76.392006 
L 166.840242 76.534602 
L 167.411394 76.758996 
L 167.636848 76.871571 
L 167.884848 77.022783 
L 168.155394 77.147424 
L 168.350788 77.239603 
L 168.673939 77.389005 
L 169.094788 77.784353 
L 169.275152 77.903595 
L 169.523152 78.116797 
L 169.741091 78.22706 
L 170.282182 78.496031 
L 170.560242 78.611154 
L 170.770667 78.836427 
L 171.101333 79.120299 
L 171.289212 79.228682 
L 171.920485 79.645719 
L 172.063273 79.742789 
L 172.281212 79.830264 
L 172.829818 79.962601 
L 172.995152 80.186332 
L 173.483636 80.541712 
L 174.054788 80.806599 
L 175.685576 81.696986 
L 175.91103 81.854331 
L 176.241697 82.141839 
L 176.812848 82.419063 
L 176.963152 82.516688 
L 177.12097 82.628662 
L 177.962667 83.302037 
L 179.029818 83.792246 
L 179.232727 83.994035 
L 179.345455 84.123217 
L 179.480727 84.210381 
L 179.63103 84.316986 
L 179.856485 84.414853 
L 180.074424 84.541671 
L 180.202182 84.616903 
L 180.36 84.728205 
L 180.893576 85.021583 
L 181.021333 85.109998 
L 181.690182 85.310096 
L 181.840485 85.454847 
L 182.366545 85.687953 
L 182.516848 85.872643 
L 182.870061 85.993219 
L 183.088 86.104026 
L 183.185697 86.210135 
L 183.358545 86.26653 
L 184.162667 86.856027 
L 184.305455 86.944896 
L 184.658667 87.131515 
L 184.884121 87.297553 
L 185.297455 87.640618 
L 185.605576 87.849828 
L 185.913697 87.969224 
L 186.056485 88.059416 
L 186.131636 88.162564 
L 186.447273 88.715909 
L 187.191273 89.08415 
L 187.867636 89.449947 
L 188.055515 89.57561 
L 188.716848 89.899624 
L 188.957333 90.028658 
L 189.994424 90.701627 
L 190.422788 90.906881 
L 190.580606 91.100295 
L 190.783515 91.24557 
L 191.399758 91.58819 
L 191.542545 91.703677 
L 192.737455 92.393855 
L 193.098182 92.539688 
L 193.376242 92.741783 
L 196.119273 94.18192 
L 196.540121 94.357752 
L 197.021091 94.615845 
L 197.201455 94.730288 
L 197.344242 94.794269 
L 197.840242 95.018696 
L 198.058182 95.175914 
L 198.276121 95.344673 
L 198.403879 95.42414 
L 198.757091 95.521998 
L 198.899879 95.568492 
L 199.095273 95.689197 
L 199.884364 96.011204 
L 200.079758 96.132039 
L 200.282667 96.226519 
L 200.43297 96.342692 
L 200.846303 96.486237 
L 201.019152 96.744148 
L 201.154424 96.84887 
L 201.838303 97.217841 
L 202.093818 97.457558 
L 202.176485 97.578247 
L 202.326788 97.676859 
L 202.867879 98.011258 
L 203.236121 98.118634 
L 204.491152 98.937364 
L 204.664 99.103804 
L 204.746667 99.212734 
L 205.377939 99.543786 
L 205.520727 99.678936 
L 205.67103 99.793155 
L 205.843879 99.922067 
L 206.009212 100.005237 
L 206.144485 100.148804 
L 206.88097 100.65689 
L 207.226667 100.778689 
L 207.527273 100.893056 
L 208.068364 101.14241 
L 208.263758 101.253184 
L 208.639515 101.386005 
L 208.849939 101.458925 
L 210.758788 102.593838 
L 210.931636 102.656157 
L 211.277333 102.795348 
L 211.795879 103.057952 
L 211.946182 103.18372 
L 212.186667 103.308474 
L 212.487273 103.405746 
L 212.727758 103.515858 
L 213.539394 104.013627 
L 213.84 104.152526 
L 214.057939 104.322661 
L 214.426182 104.433104 
L 215.125091 104.700733 
L 215.433212 104.790495 
L 216.034424 105.017962 
L 216.440242 105.402174 
L 216.755879 105.519024 
L 217.214303 105.707143 
L 217.32703 105.819973 
L 217.725333 106.022987 
L 217.988364 106.149915 
L 218.897697 106.764066 
L 219.145697 106.848058 
L 219.438788 106.966272 
L 219.77697 107.261103 
L 220.122667 107.459953 
L 220.814061 107.831952 
L 221.001939 108.075013 
L 224.376242 109.548289 
L 224.564121 109.716519 
L 224.992485 109.83461 
L 225.157818 109.946818 
L 225.623758 110.15577 
L 225.841697 110.216375 
L 226.127273 110.321343 
L 226.300121 110.401462 
L 226.47297 110.50849 
L 226.796121 110.726177 
L 227.284606 110.857413 
L 227.449939 110.937691 
L 227.870788 111.045375 
L 228.013576 111.10776 
L 228.72 111.26986 
L 229.787152 111.831366 
L 229.997576 111.971197 
L 230.380848 112.079157 
L 230.538667 112.153335 
L 230.876848 112.268154 
L 231.019636 112.31863 
L 231.763636 112.495842 
L 231.921455 112.62316 
L 232.327273 112.734931 
L 232.710545 112.853411 
L 233.018667 112.985066 
L 233.379394 113.211942 
L 233.702545 113.324704 
L 234.356364 113.664647 
L 234.822303 113.780941 
L 235.085333 113.905881 
L 235.303273 113.948535 
L 236.362909 114.392601 
L 236.505697 114.438388 
L 237.001697 114.568431 
L 237.38497 114.739686 
L 237.963636 114.850433 
L 238.527273 115.03445 
L 238.790303 115.160062 
L 238.940606 115.230984 
L 239.504242 115.348491 
L 239.684606 115.410804 
L 240.007758 115.531139 
L 240.300848 115.633309 
L 240.939636 115.751262 
L 241.089939 115.802112 
L 241.63103 115.924883 
L 244.82497 116.517147 
L 244.982788 116.574869 
L 245.448727 116.687067 
L 246.538424 116.834632 
L 246.703758 116.945214 
L 246.899152 117.036169 
L 247.673212 117.193273 
L 247.943758 117.250201 
L 248.853091 117.361297 
L 249.138667 117.401939 
L 249.912727 117.520378 
L 251.092606 117.693147 
L 251.731394 117.803524 
L 252.032 117.880363 
L 252.452848 117.925954 
L 253.993455 118.17796 
L 254.173818 118.214546 
L 255.053091 118.336875 
L 257.187394 118.560629 
L 258.036606 118.713401 
L 258.284606 118.751096 
L 258.983515 118.866276 
L 259.862788 118.978418 
L 260.666909 119.05014 
L 262.237576 119.192279 
L 262.485576 119.212521 
L 263.650424 119.325855 
L 263.913455 119.347099 
L 277.951758 120.299791 
L 280.183758 120.447287 
L 280.491879 120.469446 
L 285.256485 120.773094 
L 285.587152 120.787145 
L 287.789091 120.917916 
L 288.179879 120.93494 
L 289.735515 121.046545 
L 292.516121 121.199401 
L 292.794182 121.218604 
L 298.362909 121.610089 
L 300.234182 121.726826 
L 301.842424 121.843031 
L 303.638545 121.959166 
L 304.540364 122.028996 
L 308.237818 122.290757 
L 311.334061 122.478077 
L 317.646788 123.01485 
L 319.00703 123.135384 
L 319.457939 123.181412 
L 321.765091 123.318003 
L 322.997576 123.433579 
L 331.767758 124.336117 
L 332.015758 124.379838 
L 333.917091 124.636399 
L 335.006788 124.786945 
L 336.404606 124.934096 
L 337.103515 125.049844 
L 337.404121 125.094807 
L 338.080485 125.20438 
L 338.298424 125.231596 
L 339.042424 125.341829 
L 339.403152 125.391863 
L 340.282424 125.536978 
L 341.139152 125.702819 
L 344.27297 126.132501 
L 345.107152 126.250321 
L 345.828606 126.350242 
L 346.813091 126.540901 
L 347.639758 126.640298 
L 348.323636 126.752753 
L 348.827152 126.867004 
L 349.503515 126.988422 
L 355.741091 128.396737 
L 356.049212 128.504352 
L 356.259636 128.577959 
L 356.95103 128.749508 
L 357.221576 128.82207 
L 357.897939 128.952566 
L 358.108364 129.110106 
L 358.251152 129.185816 
L 359.746667 129.421098 
L 359.934545 129.457296 
L 361.234667 129.834334 
L 363.834909 130.853806 
L 364.015273 130.962262 
L 364.240727 131.06839 
L 364.473697 131.134454 
L 364.932121 131.263752 
L 365.743758 131.664693 
L 366.134545 131.918868 
L 366.457697 132.057974 
L 366.59297 132.141145 
L 367.299394 132.331834 
L 367.457212 132.442573 
L 368.013333 132.704967 
L 369.170667 133.252152 
L 369.403636 133.40385 
L 370.696242 134.230952 
L 370.951758 134.341063 
L 372.011394 134.941406 
L 372.266909 135.048852 
L 373.604606 136.072704 
L 373.792485 136.191267 
L 373.980364 136.293189 
L 374.130667 136.456173 
L 374.288485 136.609338 
L 374.416242 136.695343 
L 374.574061 136.814152 
L 374.716848 136.863938 
L 374.964848 136.97984 
L 375.107636 137.153429 
L 375.490909 137.361384 
L 375.633697 137.475672 
L 376.189818 137.80482 
L 377.061576 139.111171 
L 377.234424 139.348584 
L 377.377212 139.528988 
L 378.654788 140.727423 
L 378.782545 140.865913 
L 378.932848 140.980535 
L 379.083152 141.150808 
L 379.248485 141.278223 
L 380.571152 143.131594 
L 380.668848 143.24239 
L 380.894303 143.538122 
L 381.022061 143.656735 
L 381.172364 143.813125 
L 381.322667 144.033144 
L 381.47297 144.250867 
L 381.518061 144.329403 
L 381.653333 144.513858 
L 381.683394 144.557732 
L 381.803636 144.701257 
L 382.029091 144.812747 
L 382.254545 145.036362 
L 382.487515 145.229346 
L 382.585212 145.449977 
L 382.908364 145.880293 
L 382.968485 145.980377 
L 383.111273 146.228963 
L 383.171394 146.323617 
L 383.336727 146.629835 
L 383.441939 146.743456 
L 383.667394 147.177587 
L 383.712485 147.292568 
L 384.719515 148.635397 
L 384.929939 149.054461 
L 385.140364 149.282858 
L 386.102303 150.891437 
L 386.177455 150.940835 
L 386.320242 151.298348 
L 386.455515 151.528419 
L 386.650909 152.185659 
L 386.756121 152.379975 
L 386.981576 152.861687 
L 387.064242 152.982124 
L 387.20703 153.099329 
L 387.267152 153.190528 
L 387.42497 153.492078 
L 387.485091 153.642225 
L 387.635394 153.756004 
L 387.770667 153.902324 
L 388.033697 154.67769 
L 388.123879 154.785047 
L 388.965576 156.726062 
L 389.093333 157.218055 
L 389.153455 157.337043 
L 389.401455 158.173444 
L 389.536727 158.297534 
L 389.641939 158.621799 
L 389.792242 159.053118 
L 389.867394 159.272485 
L 390.017697 160.102287 
L 390.085333 160.250125 
L 390.633939 161.76204 
L 391.069818 163.317017 
L 391.212606 163.454821 
L 391.257697 163.627529 
L 391.438061 164.273303 
L 391.468121 164.371305 
L 391.625939 164.656684 
L 391.791273 164.971501 
L 391.941576 165.59753 
L 392.091879 166.423971 
L 392.249697 166.757151 
L 392.497697 167.564669 
L 392.63297 168.036151 
L 392.745697 168.326317 
L 392.888485 169.02091 
L 393.144 169.573152 
L 393.286788 169.982372 
L 393.369455 170.175702 
L 393.564848 172.115617 
L 393.700121 173.510345 
L 393.782788 173.6544 
L 394.038303 175.372942 
L 394.083394 175.381143 
L 394.241212 176.182562 
L 394.534303 177.134974 
L 394.654545 177.812731 
L 394.692121 178.110306 
L 394.834909 179.211463 
L 395.067879 181.106195 
L 395.105455 181.328656 
L 395.255758 184.072026 
L 395.345939 184.218334 
L 395.383515 184.844071 
L 395.511273 185.910217 
L 395.533818 185.945621 
L 395.661576 186.485662 
L 395.729212 186.795886 
L 396.097455 190.800944 
L 396.157576 191.367716 
L 397.081939 201.165258 
L 397.209697 203.111149 
L 397.254788 203.207665 
L 397.818424 220.034387 
L 397.87103 220.324924 
L 398.36703 258.774553 
L 398.479758 295.488 
L 398.479758 295.488 
" clip-path="url(#p5c6c19d8e8)" style="fill: none; stroke: #1f77b4; stroke-width: 1.5; stroke-linecap: square"/>
   </g>
   <g id="line2d_12">
    <path d="M 140.439515 59.221384 
L 349.781576 127.044479 
" clip-path="url(#p5c6c19d8e8)" style="fill: none; stroke-dasharray: 5.55,2.4; stroke-dashoffset: 0; stroke: #ff7f0e; stroke-width: 1.5"/>
   </g>
   <g id="line2d_13">
    <path d="M 73.832727 121.392442 
L 398.487273 121.392442 
L 398.487273 121.392442 
" clip-path="url(#p5c6c19d8e8)" style="fill: none; stroke-dasharray: 5.55,2.4; stroke-dashoffset: 0; stroke: #2ca02c; stroke-width: 1.5"/>
   </g>
   <g id="LineCollection_1">
    <path d="M 349.781576 295.488 
L 349.781576 53.568 
" clip-path="url(#p5c6c19d8e8)" style="fill: none; stroke-dasharray: 5.55,2.4; stroke-dashoffset: 0; stroke: #1f77b4; stroke-width: 1.5"/>
   </g>
   <g id="patch_3">
    <path d="M 57.6 307.584 
L 57.6 41.472 
" style="fill: none; stroke: #000000; stroke-width: 0.8; stroke-linejoin: miter; stroke-linecap: square"/>
   </g>
   <g id="patch_4">
    <path d="M 414.72 307.584 
L 414.72 41.472 
" style="fill: none; stroke: #000000; stroke-width: 0.8; stroke-linejoin: miter; stroke-linecap: square"/>
   </g>
   <g id="patch_5">
    <path d="M 57.6 307.584 
L 414.72 307.584 
" style="fill: none; stroke: #000000; stroke-width: 0.8; stroke-linejoin: miter; stroke-linecap: square"/>
   </g>
   <g id="patch_6">
    <path d="M 57.6 41.472 
L 414.72 41.472 
" style="fill: none; stroke: #000000; stroke-width: 0.8; stroke-linejoin: miter; stroke-linecap: square"/>
   </g>
   <g id="text_11">
    <!-- Energy Decay - 16000 Hz -->
    <g transform="translate(159.7725 35.472) scale(0.12 -0.12)">
     <defs>
      <path id="DejaVuSans-45" d="M 628 4666 
L 3578 4666 
L 3578 4134 
L 1259 4134 
L 1259 2753 
L 3481 2753 
L 3481 2222 
L 1259 2222 
L 1259 531 
L 3634 531 
L 3634 0 
L 628 0 
L 628 4666 
z
" transform="scale(0.015625)"/>
      <path id="DejaVuSans-6e" d="M 3513 2113 
L 3513 0 
L 2938 0 
L 2938 2094 
Q 2938 2591 2744 2837 
Q 2550 3084 2163 3084 
Q 1697 3084 1428 2787 
Q 1159 2491 1159 1978 
L 1159 0 
L 581 0 
L 581 3500 
L 1159 3500 
L 1159 2956 
Q 1366 3272 1645 3428 
Q 1925 3584 2291 3584 
Q 2894 3584 3203 3211 
Q 3513 2838 3513 2113 
z
" transform="scale(0.015625)"/>
      <path id="DejaVuSans-65" d="M 3597 1894 
L 3597 1613 
L 953 1613 
Q 991 1019 1311 708 
Q 1631 397 2203 397 
Q 2534 397 2845 478 
Q 3156 559 3463 722 
L 3463 178 
Q 3153 47 2828 -22 
Q 2503 -91 2169 -91 
Q 1331 -91 842 396 
Q 353 884 353 1716 
Q 353 2575 817 3079 
Q 1281 3584 2069 3584 
Q 2775 3584 3186 3129 
Q 3597 2675 3597 1894 
z
M 3022 2063 
Q 3016 2534 2758 2815 
Q 2500 3097 2075 3097 
Q 1594 3097 1305 2825 
Q 1016 2553 972 2059 
L 3022 2063 
z
" transform="scale(0.015625)"/>
      <path id="DejaVuSans-72" d="M 2631 2963 
Q 2534 3019 2420 3045 
Q 2306 3072 2169 3072 
Q 1681 3072 1420 2755 
Q 1159 2438 1159 1844 
L 1159 0 
L 581 0 
L 581 3500 
L 1159 3500 
L 1159 2956 
Q 1341 3275 1631 3429 
Q 1922 3584 2338 3584 
Q 2397 3584 2469 3576 
Q 2541 3569 2628 3553 
L 2631 2963 
z
" transform="scale(0.015625)"/>
      <path id="DejaVuSans-67" d="M 2906 1791 
Q 2906 2416 2648 2759 
Q 2391 3103 1925 3103 
Q 1463 3103 1205 2759 
Q 947 2416 947 1791 
Q 947 1169 1205 825 
Q 1463 481 1925 481 
Q 2391 481 2648 825 
Q 2906 1169 2906 1791 
z
M 3481 434 
Q 3481 -459 3084 -895 
Q 2688 -1331 1869 -1331 
Q 1566 -1331 1297 -1286 
Q 1028 -1241 775 -1147 
L 775 -588 
Q 1028 -725 1275 -790 
Q 1522 -856 1778 -856 
Q 2344 -856 2625 -561 
Q 2906 -266 2906 331 
L 2906 616 
Q 2728 306 2450 153 
Q 2172 0 1784 0 
Q 1141 0 747 490 
Q 353 981 353 1791 
Q 353 2603 747 3093 
Q 1141 3584 1784 3584 
Q 2172 3584 2450 3431 
Q 2728 3278 2906 2969 
L 2906 3500 
L 3481 3500 
L 3481 434 
z
" transform="scale(0.015625)"/>
      <path id="DejaVuSans-79" d="M 2059 -325 
Q 1816 -950 1584 -1140 
Q 1353 -1331 966 -1331 
L 506 -1331 
L 506 -850 
L 844 -850 
Q 1081 -850 1212 -737 
Q 1344 -625 1503 -206 
L 1606 56 
L 191 3500 
L 800 3500 
L 1894 763 
L 2988 3500 
L 3597 3500 
L 2059 -325 
z
" transform="scale(0.015625)"/>
      <path id="DejaVuSans-20" transform="scale(0.015625)"/>
      <path id="DejaVuSans-44" d="M 1259 4147 
L 1259 519 
L 2022 519 
Q 2988 519 3436 956 
Q 3884 1394 3884 2338 
Q 3884 3275 3436 3711 
Q 2988 4147 2022 4147 
L 1259 4147 
z
M 628 4666 
L 1925 4666 
Q 3281 4666 3915 4102 
Q 4550 3538 4550 2338 
Q 4550 1131 3912 565 
Q 3275 0 1925 0 
L 628 0 
L 628 4666 
z
" transform="scale(0.015625)"/>
      <path id="DejaVuSans-63" d="M 3122 3366 
L 3122 2828 
Q 2878 2963 2633 3030 
Q 2388 3097 2138 3097 
Q 1578 3097 1268 2742 
Q 959 2388 959 1747 
Q 959 1106 1268 751 
Q 1578 397 2138 397 
Q 2388 397 2633 464 
Q 2878 531 3122 666 
L 3122 134 
Q 2881 22 2623 -34 
Q 2366 -91 2075 -91 
Q 1284 -91 818 406 
Q 353 903 353 1747 
Q 353 2603 823 3093 
Q 1294 3584 2113 3584 
Q 2378 3584 2631 3529 
Q 2884 3475 3122 3366 
z
" transform="scale(0.015625)"/>
      <path id="DejaVuSans-61" d="M 2194 1759 
Q 1497 1759 1228 1600 
Q 959 1441 959 1056 
Q 959 750 1161 570 
Q 1363 391 1709 391 
Q 2188 391 2477 730 
Q 2766 1069 2766 1631 
L 2766 1759 
L 2194 1759 
z
M 3341 1997 
L 3341 0 
L 2766 0 
L 2766 531 
Q 2569 213 2275 61 
Q 1981 -91 1556 -91 
Q 1019 -91 701 211 
Q 384 513 384 1019 
Q 384 1609 779 1909 
Q 1175 2209 1959 2209 
L 2766 2209 
L 2766 2266 
Q 2766 2663 2505 2880 
Q 2244 3097 1772 3097 
Q 1472 3097 1187 3025 
Q 903 2953 641 2809 
L 641 3341 
Q 956 3463 1253 3523 
Q 1550 3584 1831 3584 
Q 2591 3584 2966 3190 
Q 3341 2797 3341 1997 
z
" transform="scale(0.015625)"/>
      <path id="DejaVuSans-2d" d="M 313 2009 
L 1997 2009 
L 1997 1497 
L 313 1497 
L 313 2009 
z
" transform="scale(0.015625)"/>
      <path id="DejaVuSans-48" d="M 628 4666 
L 1259 4666 
L 1259 2753 
L 3553 2753 
L 3553 4666 
L 4184 4666 
L 4184 0 
L 3553 0 
L 3553 2222 
L 1259 2222 
L 1259 0 
L 628 0 
L 628 4666 
z
" transform="scale(0.015625)"/>
      <path id="DejaVuSans-7a" d="M 353 3500 
L 3084 3500 
L 3084 2975 
L 922 459 
L 3084 459 
L 3084 0 
L 275 0 
L 275 525 
L 2438 3041 
L 353 3041 
L 353 3500 
z
" transform="scale(0.015625)"/>
     </defs>
     <use xlink:href="#DejaVuSans-45"/>
     <use xlink:href="#DejaVuSans-6e" transform="translate(63.183594 0)"/>
     <use xlink:href="#DejaVuSans-65" transform="translate(126.5625 0)"/>
     <use xlink:href="#DejaVuSans-72" transform="translate(188.085938 0)"/>
     <use xlink:href="#DejaVuSans-67" transform="translate(227.449219 0)"/>
     <use xlink:href="#DejaVuSans-79" transform="translate(290.925781 0)"/>
     <use xlink:href="#DejaVuSans-20" transform="translate(350.105469 0)"/>
     <use xlink:href="#DejaVuSans-44" transform="translate(381.892578 0)"/>
     <use xlink:href="#DejaVuSans-65" transform="translate(458.894531 0)"/>
     <use xlink:href="#DejaVuSans-63" transform="translate(520.417969 0)"/>
     <use xlink:href="#DejaVuSans-61" transform="translate(575.398438 0)"/>
     <use xlink:href="#DejaVuSans-79" transform="translate(636.677734 0)"/>
     <use xlink:href="#DejaVuSans-20" transform="translate(695.857422 0)"/>
     <use xlink:href="#DejaVuSans-2d" transform="translate(727.644531 0)"/>
     <use xlink:href="#DejaVuSans-20" transform="translate(763.728516 0)"/>
     <use xlink:href="#DejaVuSans-31" transform="translate(795.515625 0)"/>
     <use xlink:href="#DejaVuSans-36" transform="translate(859.138672 0)"/>
     <use xlink:href="#DejaVuSans-30" transform="translate(922.761719 0)"/>
     <use xlink:href="#DejaVuSans-30" transform="translate(986.384766 0)"/>
     <use xlink:href="#DejaVuSans-30" transform="translate(1050.007812 0)"/>
     <use xlink:href="#DejaVuSans-20" transform="translate(1113.630859 0)"/>
     <use xlink:href="#DejaVuSans-48" transform="translate(1145.417969 0)"/>
     <use xlink:href="#DejaVuSans-7a" transform="translate(1220.613281 0)"/>
    </g>
   </g>
   <g id="legend_1">
    <g id="patch_7">
     <path d="M 296.968437 108.1845 
L 407.72 108.1845 
Q 409.72 108.1845 409.72 106.1845 
L 409.72 48.472 
Q 409.72 46.472 407.72 46.472 
L 296.968437 46.472 
Q 294.968437 46.472 294.968437 48.472 
L 294.968437 106.1845 
Q 294.968437 108.1845 296.968437 108.1845 
z
" style="fill: #ffffff; opacity: 0.8; stroke: #cccccc; stroke-linejoin: miter"/>
    </g>
    <g id="line2d_14">
     <path d="M 298.968437 54.570438 
L 308.968437 54.570438 
L 318.968437 54.570438 
" style="fill: none; stroke: #1f77b4; stroke-width: 1.5; stroke-linecap: square"/>
    </g>
    <g id="text_12">
     <!-- Energy -->
     <g transform="translate(326.968437 58.070438) scale(0.1 -0.1)">
      <use xlink:href="#DejaVuSans-45"/>
      <use xlink:href="#DejaVuSans-6e" transform="translate(63.183594 0)"/>
      <use xlink:href="#DejaVuSans-65" transform="translate(126.5625 0)"/>
      <use xlink:href="#DejaVuSans-72" transform="translate(188.085938 0)"/>
      <use xlink:href="#DejaVuSans-67" transform="translate(227.449219 0)"/>
      <use xlink:href="#DejaVuSans-79" transform="translate(290.925781 0)"/>
     </g>
    </g>
    <g id="line2d_15">
     <path d="M 298.968437 69.248563 
L 308.968437 69.248563 
L 318.968437 69.248563 
" style="fill: none; stroke-dasharray: 5.55,2.4; stroke-dashoffset: 0; stroke: #ff7f0e; stroke-width: 1.5"/>
    </g>
    <g id="text_13">
     <!-- Linear Fit -->
     <g transform="translate(326.968437 72.748563) scale(0.1 -0.1)">
      <defs>
       <path id="DejaVuSans-4c" d="M 628 4666 
L 1259 4666 
L 1259 531 
L 3531 531 
L 3531 0 
L 628 0 
L 628 4666 
z
" transform="scale(0.015625)"/>
       <path id="DejaVuSans-69" d="M 603 3500 
L 1178 3500 
L 1178 0 
L 603 0 
L 603 3500 
z
M 603 4863 
L 1178 4863 
L 1178 4134 
L 603 4134 
L 603 4863 
z
" transform="scale(0.015625)"/>
       <path id="DejaVuSans-46" d="M 628 4666 
L 3309 4666 
L 3309 4134 
L 1259 4134 
L 1259 2759 
L 3109 2759 
L 3109 2228 
L 1259 2228 
L 1259 0 
L 628 0 
L 628 4666 
z
" transform="scale(0.015625)"/>
       <path id="DejaVuSans-74" d="M 1172 4494 
L 1172 3500 
L 2356 3500 
L 2356 3053 
L 1172 3053 
L 1172 1153 
Q 1172 725 1289 603 
Q 1406 481 1766 481 
L 2356 481 
L 2356 0 
L 1766 0 
Q 1100 0 847 248 
Q 594 497 594 1153 
L 594 3053 
L 172 3053 
L 172 3500 
L 594 3500 
L 594 4494 
L 1172 4494 
z
" transform="scale(0.015625)"/>
      </defs>
      <use xlink:href="#DejaVuSans-4c"/>
      <use xlink:href="#DejaVuSans-69" transform="translate(55.712891 0)"/>
      <use xlink:href="#DejaVuSans-6e" transform="translate(83.496094 0)"/>
      <use xlink:href="#DejaVuSans-65" transform="translate(146.875 0)"/>
      <use xlink:href="#DejaVuSans-61" transform="translate(208.398438 0)"/>
      <use xlink:href="#DejaVuSans-72" transform="translate(269.677734 0)"/>
      <use xlink:href="#DejaVuSans-20" transform="translate(310.791016 0)"/>
      <use xlink:href="#DejaVuSans-46" transform="translate(342.578125 0)"/>
      <use xlink:href="#DejaVuSans-69" transform="translate(392.847656 0)"/>
      <use xlink:href="#DejaVuSans-74" transform="translate(420.630859 0)"/>
     </g>
    </g>
    <g id="line2d_16">
     <path d="M 298.968437 83.926688 
L 308.968437 83.926688 
L 318.968437 83.926688 
" style="fill: none; stroke-dasharray: 5.55,2.4; stroke-dashoffset: 0; stroke: #2ca02c; stroke-width: 1.5"/>
    </g>
    <g id="text_14">
     <!-- -60 dB -->
     <g transform="translate(326.968437 87.426688) scale(0.1 -0.1)">
      <defs>
       <path id="DejaVuSans-64" d="M 2906 2969 
L 2906 4863 
L 3481 4863 
L 3481 0 
L 2906 0 
L 2906 525 
Q 2725 213 2448 61 
Q 2172 -91 1784 -91 
Q 1150 -91 751 415 
Q 353 922 353 1747 
Q 353 2572 751 3078 
Q 1150 3584 1784 3584 
Q 2172 3584 2448 3432 
Q 2725 3281 2906 2969 
z
M 947 1747 
Q 947 1113 1208 752 
Q 1469 391 1925 391 
Q 2381 391 2643 752 
Q 2906 1113 2906 1747 
Q 2906 2381 2643 2742 
Q 2381 3103 1925 3103 
Q 1469 3103 1208 2742 
Q 947 2381 947 1747 
z
" transform="scale(0.015625)"/>
       <path id="DejaVuSans-42" d="M 1259 2228 
L 1259 519 
L 2272 519 
Q 2781 519 3026 730 
Q 3272 941 3272 1375 
Q 3272 1813 3026 2020 
Q 2781 2228 2272 2228 
L 1259 2228 
z
M 1259 4147 
L 1259 2741 
L 2194 2741 
Q 2656 2741 2882 2914 
Q 3109 3088 3109 3444 
Q 3109 3797 2882 3972 
Q 2656 4147 2194 4147 
L 1259 4147 
z
M 628 4666 
L 2241 4666 
Q 2963 4666 3353 4366 
Q 3744 4066 3744 3513 
Q 3744 3084 3544 2831 
Q 3344 2578 2956 2516 
Q 3422 2416 3680 2098 
Q 3938 1781 3938 1306 
Q 3938 681 3513 340 
Q 3088 0 2303 0 
L 628 0 
L 628 4666 
z
" transform="scale(0.015625)"/>
      </defs>
      <use xlink:href="#DejaVuSans-2d"/>
      <use xlink:href="#DejaVuSans-36" transform="translate(36.083984 0)"/>
      <use xlink:href="#DejaVuSans-30" transform="translate(99.707031 0)"/>
      <use xlink:href="#DejaVuSans-20" transform="translate(163.330078 0)"/>
      <use xlink:href="#DejaVuSans-64" transform="translate(195.117188 0)"/>
      <use xlink:href="#DejaVuSans-42" transform="translate(258.59375 0)"/>
     </g>
    </g>
    <g id="line2d_17">
     <path d="M 298.968437 98.604813 
L 318.968437 98.604813 
" style="fill: none; stroke-dasharray: 5.55,2.4; stroke-dashoffset: 0; stroke: #1f77b4; stroke-width: 1.5"/>
    </g>
    <g id="text_15">
     <!-- Estimated RT60 -->
     <g transform="translate(326.968437 102.104813) scale(0.1 -0.1)">
      <defs>
       <path id="DejaVuSans-73" d="M 2834 3397 
L 2834 2853 
Q 2591 2978 2328 3040 
Q 2066 3103 1784 3103 
Q 1356 3103 1142 2972 
Q 928 2841 928 2578 
Q 928 2378 1081 2264 
Q 1234 2150 1697 2047 
L 1894 2003 
Q 2506 1872 2764 1633 
Q 3022 1394 3022 966 
Q 3022 478 2636 193 
Q 2250 -91 1575 -91 
Q 1294 -91 989 -36 
Q 684 19 347 128 
L 347 722 
Q 666 556 975 473 
Q 1284 391 1588 391 
Q 1994 391 2212 530 
Q 2431 669 2431 922 
Q 2431 1156 2273 1281 
Q 2116 1406 1581 1522 
L 1381 1569 
Q 847 1681 609 1914 
Q 372 2147 372 2553 
Q 372 3047 722 3315 
Q 1072 3584 1716 3584 
Q 2034 3584 2315 3537 
Q 2597 3491 2834 3397 
z
" transform="scale(0.015625)"/>
       <path id="DejaVuSans-6d" d="M 3328 2828 
Q 3544 3216 3844 3400 
Q 4144 3584 4550 3584 
Q 5097 3584 5394 3201 
Q 5691 2819 5691 2113 
L 5691 0 
L 5113 0 
L 5113 2094 
Q 5113 2597 4934 2840 
Q 4756 3084 4391 3084 
Q 3944 3084 3684 2787 
Q 3425 2491 3425 1978 
L 3425 0 
L 2847 0 
L 2847 2094 
Q 2847 2600 2669 2842 
Q 2491 3084 2119 3084 
Q 1678 3084 1418 2786 
Q 1159 2488 1159 1978 
L 1159 0 
L 581 0 
L 581 3500 
L 1159 3500 
L 1159 2956 
Q 1356 3278 1631 3431 
Q 1906 3584 2284 3584 
Q 2666 3584 2933 3390 
Q 3200 3197 3328 2828 
z
" transform="scale(0.015625)"/>
       <path id="DejaVuSans-52" d="M 2841 2188 
Q 3044 2119 3236 1894 
Q 3428 1669 3622 1275 
L 4263 0 
L 3584 0 
L 2988 1197 
Q 2756 1666 2539 1819 
Q 2322 1972 1947 1972 
L 1259 1972 
L 1259 0 
L 628 0 
L 628 4666 
L 2053 4666 
Q 2853 4666 3247 4331 
Q 3641 3997 3641 3322 
Q 3641 2881 3436 2590 
Q 3231 2300 2841 2188 
z
M 1259 4147 
L 1259 2491 
L 2053 2491 
Q 2509 2491 2742 2702 
Q 2975 2913 2975 3322 
Q 2975 3731 2742 3939 
Q 2509 4147 2053 4147 
L 1259 4147 
z
" transform="scale(0.015625)"/>
       <path id="DejaVuSans-54" d="M -19 4666 
L 3928 4666 
L 3928 4134 
L 2272 4134 
L 2272 0 
L 1638 0 
L 1638 4134 
L -19 4134 
L -19 4666 
z
" transform="scale(0.015625)"/>
      </defs>
      <use xlink:href="#DejaVuSans-45"/>
      <use xlink:href="#DejaVuSans-73" transform="translate(63.183594 0)"/>
      <use xlink:href="#DejaVuSans-74" transform="translate(115.283203 0)"/>
      <use xlink:href="#DejaVuSans-69" transform="translate(154.492188 0)"/>
      <use xlink:href="#DejaVuSans-6d" transform="translate(182.275391 0)"/>
      <use xlink:href="#DejaVuSans-61" transform="translate(279.6875 0)"/>
      <use xlink:href="#DejaVuSans-74" transform="translate(340.966797 0)"/>
      <use xlink:href="#DejaVuSans-65" transform="translate(380.175781 0)"/>
      <use xlink:href="#DejaVuSans-64" transform="translate(441.699219 0)"/>
      <use xlink:href="#DejaVuSans-20" transform="translate(505.175781 0)"/>
      <use xlink:href="#DejaVuSans-52" transform="translate(536.962891 0)"/>
      <use xlink:href="#DejaVuSans-54" transform="translate(599.195312 0)"/>
      <use xlink:href="#DejaVuSans-36" transform="translate(660.279297 0)"/>
      <use xlink:href="#DejaVuSans-30" transform="translate(723.902344 0)"/>
     </g>
    </g>
   </g>
  </g>
 </g>
 <defs>
  <clipPath id="p5c6c19d8e8">
   <rect x="57.6" y="41.472" width="357.12" height="266.112"/>
  </clipPath>
 </defs>
</svg>
