<?xml version="1.0" encoding="utf-8" standalone="no"?>
<!DOCTYPE svg PUBLIC "-//W3C//DTD SVG 1.1//EN"
  "http://www.w3.org/Graphics/SVG/1.1/DTD/svg11.dtd">
<svg xmlns:xlink="http://www.w3.org/1999/xlink" width="460.8pt" height="345.6pt" viewBox="0 0 460.8 345.6" xmlns="http://www.w3.org/2000/svg" version="1.1">
 <metadata>
  <rdf:RDF xmlns:dc="http://purl.org/dc/elements/1.1/" xmlns:cc="http://creativecommons.org/ns#" xmlns:rdf="http://www.w3.org/1999/02/22-rdf-syntax-ns#">
   <cc:Work>
    <dc:type rdf:resource="http://purl.org/dc/dcmitype/StillImage"/>
    <dc:date>2025-05-07T14:11:22.898555</dc:date>
    <dc:format>image/svg+xml</dc:format>
    <dc:creator>
     <cc:Agent>
      <dc:title>Matplotlib v3.10.1, https://matplotlib.org/</dc:title>
     </cc:Agent>
    </dc:creator>
   </cc:Work>
  </rdf:RDF>
 </metadata>
 <defs>
  <style type="text/css">*{stroke-linejoin: round; stroke-linecap: butt}</style>
 </defs>
 <g id="figure_1">
  <g id="patch_1">
   <path d="M 0 345.6 
L 460.8 345.6 
L 460.8 0 
L 0 0 
z
" style="fill: #ffffff"/>
  </g>
  <g id="axes_1">
   <g id="patch_2">
    <path d="M 57.6 307.584 
L 414.72 307.584 
L 414.72 41.472 
L 57.6 41.472 
z
" style="fill: #ffffff"/>
   </g>
   <g id="matplotlib.axis_1">
    <g id="xtick_1">
     <g id="line2d_1">
      <defs>
       <path id="mf56baaaded" d="M 0 0 
L 0 3.5 
" style="stroke: #000000; stroke-width: 0.8"/>
      </defs>
      <g>
       <use xlink:href="#mf56baaaded" x="76.831273" y="307.584" style="stroke: #000000; stroke-width: 0.8"/>
      </g>
     </g>
     <g id="text_1">
      <!-- −0.2 -->
      <g transform="translate(64.689866 322.182437) scale(0.1 -0.1)">
       <defs>
        <path id="DejaVuSans-2212" d="M 678 2272 
L 4684 2272 
L 4684 1741 
L 678 1741 
L 678 2272 
z
" transform="scale(0.015625)"/>
        <path id="DejaVuSans-30" d="M 2034 4250 
Q 1547 4250 1301 3770 
Q 1056 3291 1056 2328 
Q 1056 1369 1301 889 
Q 1547 409 2034 409 
Q 2525 409 2770 889 
Q 3016 1369 3016 2328 
Q 3016 3291 2770 3770 
Q 2525 4250 2034 4250 
z
M 2034 4750 
Q 2819 4750 3233 4129 
Q 3647 3509 3647 2328 
Q 3647 1150 3233 529 
Q 2819 -91 2034 -91 
Q 1250 -91 836 529 
Q 422 1150 422 2328 
Q 422 3509 836 4129 
Q 1250 4750 2034 4750 
z
" transform="scale(0.015625)"/>
        <path id="DejaVuSans-2e" d="M 684 794 
L 1344 794 
L 1344 0 
L 684 0 
L 684 794 
z
" transform="scale(0.015625)"/>
        <path id="DejaVuSans-32" d="M 1228 531 
L 3431 531 
L 3431 0 
L 469 0 
L 469 531 
Q 828 903 1448 1529 
Q 2069 2156 2228 2338 
Q 2531 2678 2651 2914 
Q 2772 3150 2772 3378 
Q 2772 3750 2511 3984 
Q 2250 4219 1831 4219 
Q 1534 4219 1204 4116 
Q 875 4013 500 3803 
L 500 4441 
Q 881 4594 1212 4672 
Q 1544 4750 1819 4750 
Q 2544 4750 2975 4387 
Q 3406 4025 3406 3419 
Q 3406 3131 3298 2873 
Q 3191 2616 2906 2266 
Q 2828 2175 2409 1742 
Q 1991 1309 1228 531 
z
" transform="scale(0.015625)"/>
       </defs>
       <use xlink:href="#DejaVuSans-2212"/>
       <use xlink:href="#DejaVuSans-30" transform="translate(83.789062 0)"/>
       <use xlink:href="#DejaVuSans-2e" transform="translate(147.412109 0)"/>
       <use xlink:href="#DejaVuSans-32" transform="translate(179.199219 0)"/>
      </g>
     </g>
    </g>
    <g id="xtick_2">
     <g id="line2d_2">
      <g>
       <use xlink:href="#mf56baaaded" x="148.976727" y="307.584" style="stroke: #000000; stroke-width: 0.8"/>
      </g>
     </g>
     <g id="text_2">
      <!-- 0.0 -->
      <g transform="translate(141.025165 322.182437) scale(0.1 -0.1)">
       <use xlink:href="#DejaVuSans-30"/>
       <use xlink:href="#DejaVuSans-2e" transform="translate(63.623047 0)"/>
       <use xlink:href="#DejaVuSans-30" transform="translate(95.410156 0)"/>
      </g>
     </g>
    </g>
    <g id="xtick_3">
     <g id="line2d_3">
      <g>
       <use xlink:href="#mf56baaaded" x="221.122182" y="307.584" style="stroke: #000000; stroke-width: 0.8"/>
      </g>
     </g>
     <g id="text_3">
      <!-- 0.2 -->
      <g transform="translate(213.170619 322.182437) scale(0.1 -0.1)">
       <use xlink:href="#DejaVuSans-30"/>
       <use xlink:href="#DejaVuSans-2e" transform="translate(63.623047 0)"/>
       <use xlink:href="#DejaVuSans-32" transform="translate(95.410156 0)"/>
      </g>
     </g>
    </g>
    <g id="xtick_4">
     <g id="line2d_4">
      <g>
       <use xlink:href="#mf56baaaded" x="293.267636" y="307.584" style="stroke: #000000; stroke-width: 0.8"/>
      </g>
     </g>
     <g id="text_4">
      <!-- 0.4 -->
      <g transform="translate(285.316074 322.182437) scale(0.1 -0.1)">
       <defs>
        <path id="DejaVuSans-34" d="M 2419 4116 
L 825 1625 
L 2419 1625 
L 2419 4116 
z
M 2253 4666 
L 3047 4666 
L 3047 1625 
L 3713 1625 
L 3713 1100 
L 3047 1100 
L 3047 0 
L 2419 0 
L 2419 1100 
L 313 1100 
L 313 1709 
L 2253 4666 
z
" transform="scale(0.015625)"/>
       </defs>
       <use xlink:href="#DejaVuSans-30"/>
       <use xlink:href="#DejaVuSans-2e" transform="translate(63.623047 0)"/>
       <use xlink:href="#DejaVuSans-34" transform="translate(95.410156 0)"/>
      </g>
     </g>
    </g>
    <g id="xtick_5">
     <g id="line2d_5">
      <g>
       <use xlink:href="#mf56baaaded" x="365.413091" y="307.584" style="stroke: #000000; stroke-width: 0.8"/>
      </g>
     </g>
     <g id="text_5">
      <!-- 0.6 -->
      <g transform="translate(357.461528 322.182437) scale(0.1 -0.1)">
       <defs>
        <path id="DejaVuSans-36" d="M 2113 2584 
Q 1688 2584 1439 2293 
Q 1191 2003 1191 1497 
Q 1191 994 1439 701 
Q 1688 409 2113 409 
Q 2538 409 2786 701 
Q 3034 994 3034 1497 
Q 3034 2003 2786 2293 
Q 2538 2584 2113 2584 
z
M 3366 4563 
L 3366 3988 
Q 3128 4100 2886 4159 
Q 2644 4219 2406 4219 
Q 1781 4219 1451 3797 
Q 1122 3375 1075 2522 
Q 1259 2794 1537 2939 
Q 1816 3084 2150 3084 
Q 2853 3084 3261 2657 
Q 3669 2231 3669 1497 
Q 3669 778 3244 343 
Q 2819 -91 2113 -91 
Q 1303 -91 875 529 
Q 447 1150 447 2328 
Q 447 3434 972 4092 
Q 1497 4750 2381 4750 
Q 2619 4750 2861 4703 
Q 3103 4656 3366 4563 
z
" transform="scale(0.015625)"/>
       </defs>
       <use xlink:href="#DejaVuSans-30"/>
       <use xlink:href="#DejaVuSans-2e" transform="translate(63.623047 0)"/>
       <use xlink:href="#DejaVuSans-36" transform="translate(95.410156 0)"/>
      </g>
     </g>
    </g>
   </g>
   <g id="matplotlib.axis_2">
    <g id="ytick_1">
     <g id="line2d_6">
      <defs>
       <path id="m5aa1e22597" d="M 0 0 
L -3.5 0 
" style="stroke: #000000; stroke-width: 0.8"/>
      </defs>
      <g>
       <use xlink:href="#m5aa1e22597" x="57.6" y="290.667439" style="stroke: #000000; stroke-width: 0.8"/>
      </g>
     </g>
     <g id="text_6">
      <!-- −175 -->
      <g transform="translate(23.132812 294.466658) scale(0.1 -0.1)">
       <defs>
        <path id="DejaVuSans-31" d="M 794 531 
L 1825 531 
L 1825 4091 
L 703 3866 
L 703 4441 
L 1819 4666 
L 2450 4666 
L 2450 531 
L 3481 531 
L 3481 0 
L 794 0 
L 794 531 
z
" transform="scale(0.015625)"/>
        <path id="DejaVuSans-37" d="M 525 4666 
L 3525 4666 
L 3525 4397 
L 1831 0 
L 1172 0 
L 2766 4134 
L 525 4134 
L 525 4666 
z
" transform="scale(0.015625)"/>
        <path id="DejaVuSans-35" d="M 691 4666 
L 3169 4666 
L 3169 4134 
L 1269 4134 
L 1269 2991 
Q 1406 3038 1543 3061 
Q 1681 3084 1819 3084 
Q 2600 3084 3056 2656 
Q 3513 2228 3513 1497 
Q 3513 744 3044 326 
Q 2575 -91 1722 -91 
Q 1428 -91 1123 -41 
Q 819 9 494 109 
L 494 744 
Q 775 591 1075 516 
Q 1375 441 1709 441 
Q 2250 441 2565 725 
Q 2881 1009 2881 1497 
Q 2881 1984 2565 2268 
Q 2250 2553 1709 2553 
Q 1456 2553 1204 2497 
Q 953 2441 691 2322 
L 691 4666 
z
" transform="scale(0.015625)"/>
       </defs>
       <use xlink:href="#DejaVuSans-2212"/>
       <use xlink:href="#DejaVuSans-31" transform="translate(83.789062 0)"/>
       <use xlink:href="#DejaVuSans-37" transform="translate(147.412109 0)"/>
       <use xlink:href="#DejaVuSans-35" transform="translate(211.035156 0)"/>
      </g>
     </g>
    </g>
    <g id="ytick_2">
     <g id="line2d_7">
      <g>
       <use xlink:href="#m5aa1e22597" x="57.6" y="256.796091" style="stroke: #000000; stroke-width: 0.8"/>
      </g>
     </g>
     <g id="text_7">
      <!-- −150 -->
      <g transform="translate(23.132812 260.595309) scale(0.1 -0.1)">
       <use xlink:href="#DejaVuSans-2212"/>
       <use xlink:href="#DejaVuSans-31" transform="translate(83.789062 0)"/>
       <use xlink:href="#DejaVuSans-35" transform="translate(147.412109 0)"/>
       <use xlink:href="#DejaVuSans-30" transform="translate(211.035156 0)"/>
      </g>
     </g>
    </g>
    <g id="ytick_3">
     <g id="line2d_8">
      <g>
       <use xlink:href="#m5aa1e22597" x="57.6" y="222.924742" style="stroke: #000000; stroke-width: 0.8"/>
      </g>
     </g>
     <g id="text_8">
      <!-- −125 -->
      <g transform="translate(23.132812 226.723961) scale(0.1 -0.1)">
       <use xlink:href="#DejaVuSans-2212"/>
       <use xlink:href="#DejaVuSans-31" transform="translate(83.789062 0)"/>
       <use xlink:href="#DejaVuSans-32" transform="translate(147.412109 0)"/>
       <use xlink:href="#DejaVuSans-35" transform="translate(211.035156 0)"/>
      </g>
     </g>
    </g>
    <g id="ytick_4">
     <g id="line2d_9">
      <g>
       <use xlink:href="#m5aa1e22597" x="57.6" y="189.053394" style="stroke: #000000; stroke-width: 0.8"/>
      </g>
     </g>
     <g id="text_9">
      <!-- −100 -->
      <g transform="translate(23.132812 192.852613) scale(0.1 -0.1)">
       <use xlink:href="#DejaVuSans-2212"/>
       <use xlink:href="#DejaVuSans-31" transform="translate(83.789062 0)"/>
       <use xlink:href="#DejaVuSans-30" transform="translate(147.412109 0)"/>
       <use xlink:href="#DejaVuSans-30" transform="translate(211.035156 0)"/>
      </g>
     </g>
    </g>
    <g id="ytick_5">
     <g id="line2d_10">
      <g>
       <use xlink:href="#m5aa1e22597" x="57.6" y="155.182045" style="stroke: #000000; stroke-width: 0.8"/>
      </g>
     </g>
     <g id="text_10">
      <!-- −75 -->
      <g transform="translate(29.495313 158.981264) scale(0.1 -0.1)">
       <use xlink:href="#DejaVuSans-2212"/>
       <use xlink:href="#DejaVuSans-37" transform="translate(83.789062 0)"/>
       <use xlink:href="#DejaVuSans-35" transform="translate(147.412109 0)"/>
      </g>
     </g>
    </g>
    <g id="ytick_6">
     <g id="line2d_11">
      <g>
       <use xlink:href="#m5aa1e22597" x="57.6" y="121.310697" style="stroke: #000000; stroke-width: 0.8"/>
      </g>
     </g>
     <g id="text_11">
      <!-- −50 -->
      <g transform="translate(29.495313 125.109916) scale(0.1 -0.1)">
       <use xlink:href="#DejaVuSans-2212"/>
       <use xlink:href="#DejaVuSans-35" transform="translate(83.789062 0)"/>
       <use xlink:href="#DejaVuSans-30" transform="translate(147.412109 0)"/>
      </g>
     </g>
    </g>
    <g id="ytick_7">
     <g id="line2d_12">
      <g>
       <use xlink:href="#m5aa1e22597" x="57.6" y="87.439348" style="stroke: #000000; stroke-width: 0.8"/>
      </g>
     </g>
     <g id="text_12">
      <!-- −25 -->
      <g transform="translate(29.495313 91.238567) scale(0.1 -0.1)">
       <use xlink:href="#DejaVuSans-2212"/>
       <use xlink:href="#DejaVuSans-32" transform="translate(83.789062 0)"/>
       <use xlink:href="#DejaVuSans-35" transform="translate(147.412109 0)"/>
      </g>
     </g>
    </g>
    <g id="ytick_8">
     <g id="line2d_13">
      <g>
       <use xlink:href="#m5aa1e22597" x="57.6" y="53.568" style="stroke: #000000; stroke-width: 0.8"/>
      </g>
     </g>
     <g id="text_13">
      <!-- 0 -->
      <g transform="translate(44.2375 57.367219) scale(0.1 -0.1)">
       <use xlink:href="#DejaVuSans-30"/>
      </g>
     </g>
    </g>
   </g>
   <g id="line2d_14">
    <path d="M 73.832727 53.568 
L 133.247515 53.669283 
L 133.660848 54.209463 
L 133.961455 54.264044 
L 134.720485 54.483421 
L 134.908364 54.639812 
L 135.329212 54.665882 
L 135.742545 54.781395 
L 135.922909 55.035269 
L 136.103273 55.295618 
L 136.336242 55.321231 
L 136.817212 55.450396 
L 137.027636 55.642891 
L 138.553212 56.606287 
L 140.161455 56.877846 
L 140.41697 56.905919 
L 140.747636 57.016208 
L 140.860364 57.158477 
L 141.138424 57.847854 
L 141.221091 57.949614 
L 141.386424 58.066011 
L 142.378424 58.513922 
L 142.566303 58.566939 
L 142.949576 58.686757 
L 144.535273 59.190418 
L 144.738182 59.351463 
L 145.234182 59.488489 
L 145.805333 59.539682 
L 146.654545 59.65504 
L 147.661576 60.192137 
L 149.104485 60.376222 
L 150.096485 61.152406 
L 150.276848 61.320989 
L 151.201212 61.751392 
L 151.441697 61.928099 
L 152.734303 62.04077 
L 153.072485 62.199454 
L 153.155152 62.475858 
L 153.350545 62.724024 
L 153.643636 62.829171 
L 153.936727 63.066936 
L 154.011879 63.186358 
L 154.252364 63.485342 
L 154.710788 64.11923 
L 154.868606 64.255708 
L 155.116606 64.283978 
L 155.529939 64.430709 
L 155.988364 64.733467 
L 156.326545 64.909197 
L 156.559515 65.148134 
L 157.108121 65.281909 
L 157.724364 65.629412 
L 158.333091 65.745101 
L 158.543515 65.974557 
L 158.738909 66.184654 
L 159.122182 66.227259 
L 159.828606 66.331475 
L 160.114182 66.474616 
L 160.369697 66.592147 
L 160.737939 66.759537 
L 161.376727 66.959396 
L 161.624727 67.31001 
L 162.24097 67.597648 
L 162.48897 67.919418 
L 163.308121 68.21552 
L 163.578667 68.469917 
L 163.834182 68.58619 
L 164.179879 68.615119 
L 165.014061 68.725166 
L 165.637818 69.017322 
L 166.081212 69.14871 
L 166.336727 69.212205 
L 166.607273 69.398032 
L 166.810182 69.443343 
L 167.546667 69.582702 
L 167.794667 69.818086 
L 168.516121 69.939534 
L 168.989576 70.308679 
L 169.305212 70.716731 
L 169.560727 70.860846 
L 169.831273 71.151262 
L 170.101818 71.520496 
L 170.304727 71.591249 
L 170.500121 71.690036 
L 170.860848 72.187031 
L 171.138909 72.329388 
L 173.491152 73.355381 
L 173.739152 73.471768 
L 173.949576 73.550876 
L 176.256727 73.924586 
L 176.62497 74.375804 
L 176.978182 74.410869 
L 178.811879 74.653197 
L 179.097455 74.793416 
L 179.495758 74.920217 
L 179.811394 75.04376 
L 180.036848 75.18258 
L 180.337455 75.298231 
L 180.517818 75.359919 
L 180.916121 75.46885 
L 181.276848 75.874028 
L 181.509818 75.959608 
L 181.893091 76.086178 
L 182.216242 76.430783 
L 183.32097 76.783771 
L 184.034909 77.006662 
L 184.418182 77.449464 
L 185.267394 77.835987 
L 185.455273 77.93758 
L 186.259394 78.206117 
L 186.507394 78.267185 
L 186.920727 78.453284 
L 187.386667 78.638842 
L 188.153212 79.171715 
L 188.416242 79.521975 
L 188.634182 79.587995 
L 188.822061 79.696762 
L 189.333091 80.606791 
L 189.513455 80.707475 
L 189.836606 81.094518 
L 190.51297 81.446519 
L 191.196848 81.560452 
L 191.384727 81.704847 
L 191.828121 82.168809 
L 193.51903 82.687611 
L 193.789576 82.803878 
L 195.209939 83.253341 
L 196.675394 83.758175 
L 196.923394 84.018357 
L 197.539636 84.384813 
L 197.922909 84.999932 
L 198.734545 85.269908 
L 199.44097 85.387304 
L 199.794182 85.420832 
L 200.410424 85.559295 
L 200.508121 85.677997 
L 200.718545 85.995841 
L 201.267152 86.11248 
L 201.981091 86.267311 
L 202.304242 86.544053 
L 202.394424 86.641871 
L 202.627394 86.908049 
L 203.130909 87.026539 
L 206.302303 88.127316 
L 206.527758 88.502319 
L 207.429576 89.055775 
L 208.060848 89.291125 
L 208.248727 89.379842 
L 208.992727 89.565831 
L 209.218182 89.838616 
L 210.277818 90.007832 
L 210.698667 90.115972 
L 210.984242 90.346755 
L 211.765818 90.48525 
L 212.028848 90.751879 
L 212.61503 90.86942 
L 212.848 91.034575 
L 213.058424 91.061319 
L 213.411636 91.168655 
L 213.674667 91.249096 
L 214.200727 91.425301 
L 214.486303 91.774729 
L 214.576485 91.929057 
L 214.997333 92.55453 
L 215.147636 92.663175 
L 215.59103 92.7969 
L 215.778909 92.943616 
L 216.139636 93.547346 
L 216.500364 93.656604 
L 217.274424 93.926392 
L 217.605091 93.984458 
L 218.905212 94.112614 
L 219.52897 94.341119 
L 219.957333 94.480052 
L 220.212848 94.661591 
L 221.768485 95.645558 
L 222.151758 95.759084 
L 222.985939 95.949266 
L 223.512 96.220487 
L 224.098182 96.389105 
L 224.391273 96.482866 
L 224.902303 96.59243 
L 225.217939 96.701265 
L 225.526061 96.986764 
L 226.142303 97.452755 
L 226.337697 97.635912 
L 226.99903 97.89256 
L 227.21697 98.149979 
L 228.697455 99.213411 
L 229.020606 99.393964 
L 230.343273 100.537799 
L 231.049697 100.91244 
L 231.230061 101.004245 
L 232.019152 101.338209 
L 232.379879 101.523156 
L 232.575273 101.608165 
L 232.838303 101.879105 
L 233.033697 102.002021 
L 233.672485 102.306858 
L 234.055758 103.018664 
L 234.168485 103.184942 
L 234.679515 103.95385 
L 235.040242 104.056817 
L 235.258182 104.156815 
L 235.611394 104.273805 
L 235.912 104.508683 
L 236.836364 105.109084 
L 237.001697 105.159092 
L 238.219152 105.447094 
L 238.467152 105.631943 
L 238.842909 105.751701 
L 239.083394 105.965319 
L 239.451636 106.155469 
L 239.88 106.174767 
L 240.714182 106.290534 
L 240.992242 106.400824 
L 243.33697 107.044699 
L 243.554909 107.121776 
L 243.990788 107.285684 
L 244.208727 107.374982 
L 244.719758 107.485877 
L 245.553939 107.743594 
L 245.734303 107.84713 
L 246.087515 107.88293 
L 246.328 107.993533 
L 246.636121 108.345068 
L 247.072 108.544905 
L 247.259879 108.690435 
L 247.673212 108.871963 
L 249.048485 109.423583 
L 249.304 109.532735 
L 249.867636 109.641952 
L 251.070061 110.057571 
L 251.385697 110.367446 
L 251.738909 110.564695 
L 252.084606 110.675201 
L 252.325091 110.876814 
L 252.51297 110.994745 
L 252.708364 111.113653 
L 253.204364 111.41341 
L 253.474909 111.528757 
L 253.850667 111.979437 
L 254.106182 112.034435 
L 254.707394 112.170502 
L 255.714424 113.17157 
L 255.827152 113.279423 
L 256.082667 113.365287 
L 256.300606 113.473058 
L 256.428364 113.678329 
L 256.631273 113.95783 
L 256.811636 114.061684 
L 257.360242 114.534248 
L 258.164364 114.797827 
L 258.690424 114.907067 
L 259.118788 114.951094 
L 259.960485 115.05962 
L 260.576727 115.339608 
L 261.19297 115.46392 
L 261.756606 116.360802 
L 261.839273 116.502627 
L 262.019636 116.678435 
L 262.222545 116.738407 
L 263.109333 116.910654 
L 263.372364 117.069757 
L 264.146424 117.829176 
L 264.770182 117.949338 
L 265.070788 118.136423 
L 266.002667 118.315647 
L 266.310788 118.436179 
L 267.731152 118.677859 
L 269.174061 119.094584 
L 269.685091 119.253928 
L 270.008242 119.712051 
L 270.278788 119.754478 
L 270.564364 119.870995 
L 270.917576 120.353995 
L 271.14303 120.468483 
L 271.601455 120.518022 
L 272.247758 120.679336 
L 272.653576 120.972301 
L 273.450182 121.094839 
L 275.216242 121.695469 
L 275.404121 121.794259 
L 275.997818 121.959736 
L 276.56897 122.563294 
L 276.84703 122.721017 
L 277.102545 122.859586 
L 279.387152 123.265877 
L 279.740364 123.740019 
L 281.363636 124.083915 
L 282.355636 124.239735 
L 282.821576 124.646558 
L 283.144727 124.899686 
L 283.460364 125.128802 
L 284.25697 125.438698 
L 286.421333 125.768602 
L 289.051636 126.716909 
L 289.502545 126.9673 
L 290.021091 127.123543 
L 290.509576 127.732377 
L 290.960485 127.837745 
L 291.080727 127.94161 
L 291.351273 128.158421 
L 291.636848 128.186255 
L 291.96 128.290019 
L 292.275636 128.620492 
L 292.380848 128.734349 
L 292.591273 128.867284 
L 292.861818 129.013792 
L 293.748606 129.287212 
L 294.004121 129.472169 
L 294.289697 129.605349 
L 294.597818 129.878855 
L 295.086303 130.109223 
L 295.311758 130.17407 
L 295.928 130.321357 
L 296.378909 130.484506 
L 296.792242 130.628503 
L 297.355879 130.763231 
L 297.709091 131.092273 
L 300.309333 131.412086 
L 300.775273 131.61025 
L 300.985697 131.771037 
L 301.241212 132.04036 
L 302.060364 132.358516 
L 302.263273 132.396652 
L 302.909576 132.513407 
L 303.13503 132.5845 
L 303.623515 132.750225 
L 304.585455 133.226894 
L 304.893576 133.531148 
L 305.6 133.608678 
L 305.825455 133.727864 
L 306.088485 133.764668 
L 306.366545 133.871142 
L 306.599515 133.935753 
L 307.133091 134.056655 
L 307.508848 134.391954 
L 307.704242 134.528531 
L 307.944727 134.547749 
L 308.365576 134.672816 
L 308.929212 135.115929 
L 309.199758 135.223159 
L 309.515394 135.381601 
L 309.808485 135.564142 
L 309.981333 135.664297 
L 310.484848 135.961614 
L 310.815515 136.28535 
L 311.379152 136.431252 
L 311.679758 136.774084 
L 312.814545 136.934548 
L 313.408242 136.957498 
L 314.077091 137.175827 
L 314.29503 137.359655 
L 315.993455 137.958081 
L 316.271515 138.116027 
L 316.647273 138.28244 
L 317.76703 138.5219 
L 318.030061 138.609196 
L 318.398303 138.741064 
L 318.706424 139.045908 
L 318.969455 139.180019 
L 319.352727 139.248109 
L 320.510061 139.572751 
L 320.74303 139.767612 
L 321.096242 139.874904 
L 322.050667 140.325241 
L 322.494061 140.498597 
L 322.719515 140.541119 
L 323.320727 140.652438 
L 323.884364 141.054116 
L 324.260121 141.226479 
L 324.493091 141.454807 
L 324.68097 141.58405 
L 324.913939 141.762173 
L 326.153939 142.085902 
L 326.462061 142.269557 
L 327.093333 142.693559 
L 327.942545 143.050452 
L 328.483636 143.91692 
L 328.64897 144.110004 
L 328.92703 144.562896 
L 329.235152 144.751376 
L 330.121939 144.886234 
L 330.888485 145.19617 
L 331.121455 145.336582 
L 333.315879 145.729182 
L 333.556364 145.949056 
L 335.555394 146.744129 
L 335.743273 146.800862 
L 335.938667 146.917402 
L 336.254303 147.644915 
L 336.449697 147.948079 
L 337.712242 148.102893 
L 337.990303 148.167833 
L 338.59903 148.318089 
L 339.042424 148.54897 
L 339.358061 149.108505 
L 339.718788 149.184419 
L 340.011879 149.298865 
L 340.252364 149.386353 
L 341.101576 149.61101 
L 341.702788 149.960855 
L 342.822545 150.096816 
L 343.250909 150.353652 
L 343.453818 150.493631 
L 343.874667 150.612737 
L 344.633697 151.008408 
L 345.452848 151.118765 
L 346.099152 151.426068 
L 346.294545 151.569362 
L 346.677818 151.599719 
L 347.564606 151.722623 
L 347.835152 151.916693 
L 348.977455 152.037615 
L 350.660848 152.584992 
L 351.006545 153.194871 
L 351.262061 153.277562 
L 352.98303 153.724539 
L 353.877333 153.908107 
L 354.298182 154.020461 
L 355.102303 154.172102 
L 355.778667 154.315515 
L 356.312242 154.629577 
L 356.95103 154.789062 
L 357.251636 154.881891 
L 357.514667 155.002172 
L 357.755152 155.298714 
L 358.236121 155.423255 
L 358.589333 155.628192 
L 358.93503 155.740027 
L 359.972121 155.908652 
L 360.317818 156.284871 
L 360.520727 156.326138 
L 362.437091 156.650996 
L 362.692606 156.760666 
L 363.489212 156.998811 
L 363.932606 157.271933 
L 364.330909 157.354613 
L 364.616485 157.479217 
L 365.112485 158.230302 
L 365.360485 158.327945 
L 366.066909 158.557627 
L 366.307394 158.666031 
L 366.660606 158.945241 
L 366.886061 159.221562 
L 367.051394 159.333587 
L 367.321939 159.454593 
L 367.58497 159.593942 
L 368.554424 160.378016 
L 368.757333 160.73664 
L 369.110545 160.812633 
L 369.786909 160.959267 
L 370.267879 161.277958 
L 370.538424 162.006924 
L 370.854061 162.20058 
L 371.184727 162.960819 
L 371.357576 163.077024 
L 371.425212 163.197309 
L 371.83103 164.060283 
L 372.094061 164.223813 
L 372.432242 165.190371 
L 372.590061 165.259268 
L 372.785455 165.365966 
L 373.424242 166.647813 
L 373.717333 166.93231 
L 373.995394 167.552664 
L 374.115636 167.659684 
L 374.303515 167.822658 
L 374.754424 167.9191 
L 375.002424 168.030782 
L 375.30303 168.427393 
L 375.490909 168.618173 
L 375.716364 168.66021 
L 376.182303 168.791364 
L 376.783515 169.801606 
L 376.948848 169.906131 
L 377.550061 170.900484 
L 377.963394 170.923509 
L 378.233939 171.042549 
L 378.466909 171.26704 
L 378.947879 171.381127 
L 379.278545 171.608614 
L 379.48897 171.711273 
L 379.834667 172.320472 
L 379.902303 172.424578 
L 380.120242 172.918274 
L 380.450909 173.117535 
L 380.744 173.712119 
L 380.969455 173.841346 
L 381.194909 174.425629 
L 381.420364 174.85303 
L 381.713455 175.132235 
L 382.126788 176.364535 
L 382.697939 176.539115 
L 383.066182 177.183833 
L 383.118788 177.276291 
L 383.426909 179.615319 
L 383.652364 182.117772 
L 383.915394 182.519294 
L 383.975515 182.632888 
L 384.321212 184.290398 
L 384.847273 184.908342 
L 385.155394 185.333326 
L 385.425939 186.91072 
L 385.824242 187.634684 
L 385.899394 187.744875 
L 386.109818 188.010627 
L 386.18497 188.113903 
L 386.395394 188.388955 
L 386.470545 188.494199 
L 386.68097 188.715911 
L 387.041697 188.848739 
L 387.297212 189.162389 
L 387.462545 189.277437 
L 387.815758 189.700148 
L 388.078788 190.626395 
L 388.161455 190.861512 
L 388.311758 190.943933 
L 388.755152 191.160535 
L 389.070788 193.268871 
L 389.228606 194.140366 
L 389.386424 194.200627 
L 389.822303 194.681927 
L 390.235636 197.471245 
L 390.385939 198.060952 
L 390.603879 198.469728 
L 391.242667 199.132733 
L 391.445576 199.383665 
L 391.633455 199.583361 
L 392.099394 201.405578 
L 392.279758 201.894974 
L 392.317333 201.98848 
L 392.918545 205.192019 
L 393.211636 205.422235 
L 393.512242 205.738076 
L 393.715152 207.134105 
L 394.008242 209.103588 
L 394.060848 209.190942 
L 394.143515 210.250874 
L 394.391515 212.809186 
L 394.556848 212.936235 
L 394.684606 213.031457 
L 394.910061 214.368476 
L 395.383515 221.906303 
L 395.571394 222.016223 
L 395.60897 222.162962 
L 395.699152 224.50357 
L 396.059879 229.777298 
L 396.330424 230.750992 
L 396.390545 231.218042 
L 396.570909 232.15329 
L 396.736242 232.299149 
L 396.781333 232.602668 
L 397.014303 237.201298 
L 397.450182 246.0269 
L 397.502788 246.121171 
L 397.660606 247.577631 
L 397.983758 256.746014 
L 398.149091 257.448052 
L 398.186667 257.936005 
L 398.389576 267.87261 
L 398.479758 295.488 
L 398.479758 295.488 
" clip-path="url(#p80ffcfcb09)" style="fill: none; stroke: #1f77b4; stroke-width: 1.5; stroke-linecap: square"/>
   </g>
   <g id="line2d_15">
    <path d="M 148.976727 60.343999 
L 324.726061 141.633506 
" clip-path="url(#p80ffcfcb09)" style="fill: none; stroke-dasharray: 5.55,2.4; stroke-dashoffset: 0; stroke: #ff7f0e; stroke-width: 1.5"/>
   </g>
   <g id="line2d_16">
    <path d="M 73.832727 134.859236 
L 398.487273 134.859236 
L 398.487273 134.859236 
" clip-path="url(#p80ffcfcb09)" style="fill: none; stroke-dasharray: 5.55,2.4; stroke-dashoffset: 0; stroke: #2ca02c; stroke-width: 1.5"/>
   </g>
   <g id="LineCollection_1">
    <path d="M 324.726061 295.488 
L 324.726061 53.568 
" clip-path="url(#p80ffcfcb09)" style="fill: none; stroke-dasharray: 5.55,2.4; stroke-dashoffset: 0; stroke: #1f77b4; stroke-width: 1.5"/>
   </g>
   <g id="patch_3">
    <path d="M 57.6 307.584 
L 57.6 41.472 
" style="fill: none; stroke: #000000; stroke-width: 0.8; stroke-linejoin: miter; stroke-linecap: square"/>
   </g>
   <g id="patch_4">
    <path d="M 414.72 307.584 
L 414.72 41.472 
" style="fill: none; stroke: #000000; stroke-width: 0.8; stroke-linejoin: miter; stroke-linecap: square"/>
   </g>
   <g id="patch_5">
    <path d="M 57.6 307.584 
L 414.72 307.584 
" style="fill: none; stroke: #000000; stroke-width: 0.8; stroke-linejoin: miter; stroke-linecap: square"/>
   </g>
   <g id="patch_6">
    <path d="M 57.6 41.472 
L 414.72 41.472 
" style="fill: none; stroke: #000000; stroke-width: 0.8; stroke-linejoin: miter; stroke-linecap: square"/>
   </g>
   <g id="text_14">
    <!-- Energy Decay - 1000 Hz -->
    <g transform="translate(163.59 35.472) scale(0.12 -0.12)">
     <defs>
      <path id="DejaVuSans-45" d="M 628 4666 
L 3578 4666 
L 3578 4134 
L 1259 4134 
L 1259 2753 
L 3481 2753 
L 3481 2222 
L 1259 2222 
L 1259 531 
L 3634 531 
L 3634 0 
L 628 0 
L 628 4666 
z
" transform="scale(0.015625)"/>
      <path id="DejaVuSans-6e" d="M 3513 2113 
L 3513 0 
L 2938 0 
L 2938 2094 
Q 2938 2591 2744 2837 
Q 2550 3084 2163 3084 
Q 1697 3084 1428 2787 
Q 1159 2491 1159 1978 
L 1159 0 
L 581 0 
L 581 3500 
L 1159 3500 
L 1159 2956 
Q 1366 3272 1645 3428 
Q 1925 3584 2291 3584 
Q 2894 3584 3203 3211 
Q 3513 2838 3513 2113 
z
" transform="scale(0.015625)"/>
      <path id="DejaVuSans-65" d="M 3597 1894 
L 3597 1613 
L 953 1613 
Q 991 1019 1311 708 
Q 1631 397 2203 397 
Q 2534 397 2845 478 
Q 3156 559 3463 722 
L 3463 178 
Q 3153 47 2828 -22 
Q 2503 -91 2169 -91 
Q 1331 -91 842 396 
Q 353 884 353 1716 
Q 353 2575 817 3079 
Q 1281 3584 2069 3584 
Q 2775 3584 3186 3129 
Q 3597 2675 3597 1894 
z
M 3022 2063 
Q 3016 2534 2758 2815 
Q 2500 3097 2075 3097 
Q 1594 3097 1305 2825 
Q 1016 2553 972 2059 
L 3022 2063 
z
" transform="scale(0.015625)"/>
      <path id="DejaVuSans-72" d="M 2631 2963 
Q 2534 3019 2420 3045 
Q 2306 3072 2169 3072 
Q 1681 3072 1420 2755 
Q 1159 2438 1159 1844 
L 1159 0 
L 581 0 
L 581 3500 
L 1159 3500 
L 1159 2956 
Q 1341 3275 1631 3429 
Q 1922 3584 2338 3584 
Q 2397 3584 2469 3576 
Q 2541 3569 2628 3553 
L 2631 2963 
z
" transform="scale(0.015625)"/>
      <path id="DejaVuSans-67" d="M 2906 1791 
Q 2906 2416 2648 2759 
Q 2391 3103 1925 3103 
Q 1463 3103 1205 2759 
Q 947 2416 947 1791 
Q 947 1169 1205 825 
Q 1463 481 1925 481 
Q 2391 481 2648 825 
Q 2906 1169 2906 1791 
z
M 3481 434 
Q 3481 -459 3084 -895 
Q 2688 -1331 1869 -1331 
Q 1566 -1331 1297 -1286 
Q 1028 -1241 775 -1147 
L 775 -588 
Q 1028 -725 1275 -790 
Q 1522 -856 1778 -856 
Q 2344 -856 2625 -561 
Q 2906 -266 2906 331 
L 2906 616 
Q 2728 306 2450 153 
Q 2172 0 1784 0 
Q 1141 0 747 490 
Q 353 981 353 1791 
Q 353 2603 747 3093 
Q 1141 3584 1784 3584 
Q 2172 3584 2450 3431 
Q 2728 3278 2906 2969 
L 2906 3500 
L 3481 3500 
L 3481 434 
z
" transform="scale(0.015625)"/>
      <path id="DejaVuSans-79" d="M 2059 -325 
Q 1816 -950 1584 -1140 
Q 1353 -1331 966 -1331 
L 506 -1331 
L 506 -850 
L 844 -850 
Q 1081 -850 1212 -737 
Q 1344 -625 1503 -206 
L 1606 56 
L 191 3500 
L 800 3500 
L 1894 763 
L 2988 3500 
L 3597 3500 
L 2059 -325 
z
" transform="scale(0.015625)"/>
      <path id="DejaVuSans-20" transform="scale(0.015625)"/>
      <path id="DejaVuSans-44" d="M 1259 4147 
L 1259 519 
L 2022 519 
Q 2988 519 3436 956 
Q 3884 1394 3884 2338 
Q 3884 3275 3436 3711 
Q 2988 4147 2022 4147 
L 1259 4147 
z
M 628 4666 
L 1925 4666 
Q 3281 4666 3915 4102 
Q 4550 3538 4550 2338 
Q 4550 1131 3912 565 
Q 3275 0 1925 0 
L 628 0 
L 628 4666 
z
" transform="scale(0.015625)"/>
      <path id="DejaVuSans-63" d="M 3122 3366 
L 3122 2828 
Q 2878 2963 2633 3030 
Q 2388 3097 2138 3097 
Q 1578 3097 1268 2742 
Q 959 2388 959 1747 
Q 959 1106 1268 751 
Q 1578 397 2138 397 
Q 2388 397 2633 464 
Q 2878 531 3122 666 
L 3122 134 
Q 2881 22 2623 -34 
Q 2366 -91 2075 -91 
Q 1284 -91 818 406 
Q 353 903 353 1747 
Q 353 2603 823 3093 
Q 1294 3584 2113 3584 
Q 2378 3584 2631 3529 
Q 2884 3475 3122 3366 
z
" transform="scale(0.015625)"/>
      <path id="DejaVuSans-61" d="M 2194 1759 
Q 1497 1759 1228 1600 
Q 959 1441 959 1056 
Q 959 750 1161 570 
Q 1363 391 1709 391 
Q 2188 391 2477 730 
Q 2766 1069 2766 1631 
L 2766 1759 
L 2194 1759 
z
M 3341 1997 
L 3341 0 
L 2766 0 
L 2766 531 
Q 2569 213 2275 61 
Q 1981 -91 1556 -91 
Q 1019 -91 701 211 
Q 384 513 384 1019 
Q 384 1609 779 1909 
Q 1175 2209 1959 2209 
L 2766 2209 
L 2766 2266 
Q 2766 2663 2505 2880 
Q 2244 3097 1772 3097 
Q 1472 3097 1187 3025 
Q 903 2953 641 2809 
L 641 3341 
Q 956 3463 1253 3523 
Q 1550 3584 1831 3584 
Q 2591 3584 2966 3190 
Q 3341 2797 3341 1997 
z
" transform="scale(0.015625)"/>
      <path id="DejaVuSans-2d" d="M 313 2009 
L 1997 2009 
L 1997 1497 
L 313 1497 
L 313 2009 
z
" transform="scale(0.015625)"/>
      <path id="DejaVuSans-48" d="M 628 4666 
L 1259 4666 
L 1259 2753 
L 3553 2753 
L 3553 4666 
L 4184 4666 
L 4184 0 
L 3553 0 
L 3553 2222 
L 1259 2222 
L 1259 0 
L 628 0 
L 628 4666 
z
" transform="scale(0.015625)"/>
      <path id="DejaVuSans-7a" d="M 353 3500 
L 3084 3500 
L 3084 2975 
L 922 459 
L 3084 459 
L 3084 0 
L 275 0 
L 275 525 
L 2438 3041 
L 353 3041 
L 353 3500 
z
" transform="scale(0.015625)"/>
     </defs>
     <use xlink:href="#DejaVuSans-45"/>
     <use xlink:href="#DejaVuSans-6e" transform="translate(63.183594 0)"/>
     <use xlink:href="#DejaVuSans-65" transform="translate(126.5625 0)"/>
     <use xlink:href="#DejaVuSans-72" transform="translate(188.085938 0)"/>
     <use xlink:href="#DejaVuSans-67" transform="translate(227.449219 0)"/>
     <use xlink:href="#DejaVuSans-79" transform="translate(290.925781 0)"/>
     <use xlink:href="#DejaVuSans-20" transform="translate(350.105469 0)"/>
     <use xlink:href="#DejaVuSans-44" transform="translate(381.892578 0)"/>
     <use xlink:href="#DejaVuSans-65" transform="translate(458.894531 0)"/>
     <use xlink:href="#DejaVuSans-63" transform="translate(520.417969 0)"/>
     <use xlink:href="#DejaVuSans-61" transform="translate(575.398438 0)"/>
     <use xlink:href="#DejaVuSans-79" transform="translate(636.677734 0)"/>
     <use xlink:href="#DejaVuSans-20" transform="translate(695.857422 0)"/>
     <use xlink:href="#DejaVuSans-2d" transform="translate(727.644531 0)"/>
     <use xlink:href="#DejaVuSans-20" transform="translate(763.728516 0)"/>
     <use xlink:href="#DejaVuSans-31" transform="translate(795.515625 0)"/>
     <use xlink:href="#DejaVuSans-30" transform="translate(859.138672 0)"/>
     <use xlink:href="#DejaVuSans-30" transform="translate(922.761719 0)"/>
     <use xlink:href="#DejaVuSans-30" transform="translate(986.384766 0)"/>
     <use xlink:href="#DejaVuSans-20" transform="translate(1050.007812 0)"/>
     <use xlink:href="#DejaVuSans-48" transform="translate(1081.794922 0)"/>
     <use xlink:href="#DejaVuSans-7a" transform="translate(1156.990234 0)"/>
    </g>
   </g>
   <g id="legend_1">
    <g id="patch_7">
     <path d="M 296.968437 108.1845 
L 407.72 108.1845 
Q 409.72 108.1845 409.72 106.1845 
L 409.72 48.472 
Q 409.72 46.472 407.72 46.472 
L 296.968437 46.472 
Q 294.968437 46.472 294.968437 48.472 
L 294.968437 106.1845 
Q 294.968437 108.1845 296.968437 108.1845 
z
" style="fill: #ffffff; opacity: 0.8; stroke: #cccccc; stroke-linejoin: miter"/>
    </g>
    <g id="line2d_17">
     <path d="M 298.968437 54.570438 
L 308.968437 54.570438 
L 318.968437 54.570438 
" style="fill: none; stroke: #1f77b4; stroke-width: 1.5; stroke-linecap: square"/>
    </g>
    <g id="text_15">
     <!-- Energy -->
     <g transform="translate(326.968437 58.070438) scale(0.1 -0.1)">
      <use xlink:href="#DejaVuSans-45"/>
      <use xlink:href="#DejaVuSans-6e" transform="translate(63.183594 0)"/>
      <use xlink:href="#DejaVuSans-65" transform="translate(126.5625 0)"/>
      <use xlink:href="#DejaVuSans-72" transform="translate(188.085938 0)"/>
      <use xlink:href="#DejaVuSans-67" transform="translate(227.449219 0)"/>
      <use xlink:href="#DejaVuSans-79" transform="translate(290.925781 0)"/>
     </g>
    </g>
    <g id="line2d_18">
     <path d="M 298.968437 69.248563 
L 308.968437 69.248563 
L 318.968437 69.248563 
" style="fill: none; stroke-dasharray: 5.55,2.4; stroke-dashoffset: 0; stroke: #ff7f0e; stroke-width: 1.5"/>
    </g>
    <g id="text_16">
     <!-- Linear Fit -->
     <g transform="translate(326.968437 72.748563) scale(0.1 -0.1)">
      <defs>
       <path id="DejaVuSans-4c" d="M 628 4666 
L 1259 4666 
L 1259 531 
L 3531 531 
L 3531 0 
L 628 0 
L 628 4666 
z
" transform="scale(0.015625)"/>
       <path id="DejaVuSans-69" d="M 603 3500 
L 1178 3500 
L 1178 0 
L 603 0 
L 603 3500 
z
M 603 4863 
L 1178 4863 
L 1178 4134 
L 603 4134 
L 603 4863 
z
" transform="scale(0.015625)"/>
       <path id="DejaVuSans-46" d="M 628 4666 
L 3309 4666 
L 3309 4134 
L 1259 4134 
L 1259 2759 
L 3109 2759 
L 3109 2228 
L 1259 2228 
L 1259 0 
L 628 0 
L 628 4666 
z
" transform="scale(0.015625)"/>
       <path id="DejaVuSans-74" d="M 1172 4494 
L 1172 3500 
L 2356 3500 
L 2356 3053 
L 1172 3053 
L 1172 1153 
Q 1172 725 1289 603 
Q 1406 481 1766 481 
L 2356 481 
L 2356 0 
L 1766 0 
Q 1100 0 847 248 
Q 594 497 594 1153 
L 594 3053 
L 172 3053 
L 172 3500 
L 594 3500 
L 594 4494 
L 1172 4494 
z
" transform="scale(0.015625)"/>
      </defs>
      <use xlink:href="#DejaVuSans-4c"/>
      <use xlink:href="#DejaVuSans-69" transform="translate(55.712891 0)"/>
      <use xlink:href="#DejaVuSans-6e" transform="translate(83.496094 0)"/>
      <use xlink:href="#DejaVuSans-65" transform="translate(146.875 0)"/>
      <use xlink:href="#DejaVuSans-61" transform="translate(208.398438 0)"/>
      <use xlink:href="#DejaVuSans-72" transform="translate(269.677734 0)"/>
      <use xlink:href="#DejaVuSans-20" transform="translate(310.791016 0)"/>
      <use xlink:href="#DejaVuSans-46" transform="translate(342.578125 0)"/>
      <use xlink:href="#DejaVuSans-69" transform="translate(392.847656 0)"/>
      <use xlink:href="#DejaVuSans-74" transform="translate(420.630859 0)"/>
     </g>
    </g>
    <g id="line2d_19">
     <path d="M 298.968437 83.926688 
L 308.968437 83.926688 
L 318.968437 83.926688 
" style="fill: none; stroke-dasharray: 5.55,2.4; stroke-dashoffset: 0; stroke: #2ca02c; stroke-width: 1.5"/>
    </g>
    <g id="text_17">
     <!-- -60 dB -->
     <g transform="translate(326.968437 87.426688) scale(0.1 -0.1)">
      <defs>
       <path id="DejaVuSans-64" d="M 2906 2969 
L 2906 4863 
L 3481 4863 
L 3481 0 
L 2906 0 
L 2906 525 
Q 2725 213 2448 61 
Q 2172 -91 1784 -91 
Q 1150 -91 751 415 
Q 353 922 353 1747 
Q 353 2572 751 3078 
Q 1150 3584 1784 3584 
Q 2172 3584 2448 3432 
Q 2725 3281 2906 2969 
z
M 947 1747 
Q 947 1113 1208 752 
Q 1469 391 1925 391 
Q 2381 391 2643 752 
Q 2906 1113 2906 1747 
Q 2906 2381 2643 2742 
Q 2381 3103 1925 3103 
Q 1469 3103 1208 2742 
Q 947 2381 947 1747 
z
" transform="scale(0.015625)"/>
       <path id="DejaVuSans-42" d="M 1259 2228 
L 1259 519 
L 2272 519 
Q 2781 519 3026 730 
Q 3272 941 3272 1375 
Q 3272 1813 3026 2020 
Q 2781 2228 2272 2228 
L 1259 2228 
z
M 1259 4147 
L 1259 2741 
L 2194 2741 
Q 2656 2741 2882 2914 
Q 3109 3088 3109 3444 
Q 3109 3797 2882 3972 
Q 2656 4147 2194 4147 
L 1259 4147 
z
M 628 4666 
L 2241 4666 
Q 2963 4666 3353 4366 
Q 3744 4066 3744 3513 
Q 3744 3084 3544 2831 
Q 3344 2578 2956 2516 
Q 3422 2416 3680 2098 
Q 3938 1781 3938 1306 
Q 3938 681 3513 340 
Q 3088 0 2303 0 
L 628 0 
L 628 4666 
z
" transform="scale(0.015625)"/>
      </defs>
      <use xlink:href="#DejaVuSans-2d"/>
      <use xlink:href="#DejaVuSans-36" transform="translate(36.083984 0)"/>
      <use xlink:href="#DejaVuSans-30" transform="translate(99.707031 0)"/>
      <use xlink:href="#DejaVuSans-20" transform="translate(163.330078 0)"/>
      <use xlink:href="#DejaVuSans-64" transform="translate(195.117188 0)"/>
      <use xlink:href="#DejaVuSans-42" transform="translate(258.59375 0)"/>
     </g>
    </g>
    <g id="line2d_20">
     <path d="M 298.968437 98.604813 
L 318.968437 98.604813 
" style="fill: none; stroke-dasharray: 5.55,2.4; stroke-dashoffset: 0; stroke: #1f77b4; stroke-width: 1.5"/>
    </g>
    <g id="text_18">
     <!-- Estimated RT60 -->
     <g transform="translate(326.968437 102.104813) scale(0.1 -0.1)">
      <defs>
       <path id="DejaVuSans-73" d="M 2834 3397 
L 2834 2853 
Q 2591 2978 2328 3040 
Q 2066 3103 1784 3103 
Q 1356 3103 1142 2972 
Q 928 2841 928 2578 
Q 928 2378 1081 2264 
Q 1234 2150 1697 2047 
L 1894 2003 
Q 2506 1872 2764 1633 
Q 3022 1394 3022 966 
Q 3022 478 2636 193 
Q 2250 -91 1575 -91 
Q 1294 -91 989 -36 
Q 684 19 347 128 
L 347 722 
Q 666 556 975 473 
Q 1284 391 1588 391 
Q 1994 391 2212 530 
Q 2431 669 2431 922 
Q 2431 1156 2273 1281 
Q 2116 1406 1581 1522 
L 1381 1569 
Q 847 1681 609 1914 
Q 372 2147 372 2553 
Q 372 3047 722 3315 
Q 1072 3584 1716 3584 
Q 2034 3584 2315 3537 
Q 2597 3491 2834 3397 
z
" transform="scale(0.015625)"/>
       <path id="DejaVuSans-6d" d="M 3328 2828 
Q 3544 3216 3844 3400 
Q 4144 3584 4550 3584 
Q 5097 3584 5394 3201 
Q 5691 2819 5691 2113 
L 5691 0 
L 5113 0 
L 5113 2094 
Q 5113 2597 4934 2840 
Q 4756 3084 4391 3084 
Q 3944 3084 3684 2787 
Q 3425 2491 3425 1978 
L 3425 0 
L 2847 0 
L 2847 2094 
Q 2847 2600 2669 2842 
Q 2491 3084 2119 3084 
Q 1678 3084 1418 2786 
Q 1159 2488 1159 1978 
L 1159 0 
L 581 0 
L 581 3500 
L 1159 3500 
L 1159 2956 
Q 1356 3278 1631 3431 
Q 1906 3584 2284 3584 
Q 2666 3584 2933 3390 
Q 3200 3197 3328 2828 
z
" transform="scale(0.015625)"/>
       <path id="DejaVuSans-52" d="M 2841 2188 
Q 3044 2119 3236 1894 
Q 3428 1669 3622 1275 
L 4263 0 
L 3584 0 
L 2988 1197 
Q 2756 1666 2539 1819 
Q 2322 1972 1947 1972 
L 1259 1972 
L 1259 0 
L 628 0 
L 628 4666 
L 2053 4666 
Q 2853 4666 3247 4331 
Q 3641 3997 3641 3322 
Q 3641 2881 3436 2590 
Q 3231 2300 2841 2188 
z
M 1259 4147 
L 1259 2491 
L 2053 2491 
Q 2509 2491 2742 2702 
Q 2975 2913 2975 3322 
Q 2975 3731 2742 3939 
Q 2509 4147 2053 4147 
L 1259 4147 
z
" transform="scale(0.015625)"/>
       <path id="DejaVuSans-54" d="M -19 4666 
L 3928 4666 
L 3928 4134 
L 2272 4134 
L 2272 0 
L 1638 0 
L 1638 4134 
L -19 4134 
L -19 4666 
z
" transform="scale(0.015625)"/>
      </defs>
      <use xlink:href="#DejaVuSans-45"/>
      <use xlink:href="#DejaVuSans-73" transform="translate(63.183594 0)"/>
      <use xlink:href="#DejaVuSans-74" transform="translate(115.283203 0)"/>
      <use xlink:href="#DejaVuSans-69" transform="translate(154.492188 0)"/>
      <use xlink:href="#DejaVuSans-6d" transform="translate(182.275391 0)"/>
      <use xlink:href="#DejaVuSans-61" transform="translate(279.6875 0)"/>
      <use xlink:href="#DejaVuSans-74" transform="translate(340.966797 0)"/>
      <use xlink:href="#DejaVuSans-65" transform="translate(380.175781 0)"/>
      <use xlink:href="#DejaVuSans-64" transform="translate(441.699219 0)"/>
      <use xlink:href="#DejaVuSans-20" transform="translate(505.175781 0)"/>
      <use xlink:href="#DejaVuSans-52" transform="translate(536.962891 0)"/>
      <use xlink:href="#DejaVuSans-54" transform="translate(599.195312 0)"/>
      <use xlink:href="#DejaVuSans-36" transform="translate(660.279297 0)"/>
      <use xlink:href="#DejaVuSans-30" transform="translate(723.902344 0)"/>
     </g>
    </g>
   </g>
  </g>
 </g>
 <defs>
  <clipPath id="p80ffcfcb09">
   <rect x="57.6" y="41.472" width="357.12" height="266.112"/>
  </clipPath>
 </defs>
</svg>
