<?xml version="1.0" encoding="utf-8" standalone="no"?>
<!DOCTYPE svg PUBLIC "-//W3C//DTD SVG 1.1//EN"
  "http://www.w3.org/Graphics/SVG/1.1/DTD/svg11.dtd">
<svg xmlns:xlink="http://www.w3.org/1999/xlink" width="460.8pt" height="345.6pt" viewBox="0 0 460.8 345.6" xmlns="http://www.w3.org/2000/svg" version="1.1">
 <metadata>
  <rdf:RDF xmlns:dc="http://purl.org/dc/elements/1.1/" xmlns:cc="http://creativecommons.org/ns#" xmlns:rdf="http://www.w3.org/1999/02/22-rdf-syntax-ns#">
   <cc:Work>
    <dc:type rdf:resource="http://purl.org/dc/dcmitype/StillImage"/>
    <dc:date>2025-05-06T13:31:16.463551</dc:date>
    <dc:format>image/svg+xml</dc:format>
    <dc:creator>
     <cc:Agent>
      <dc:title>Matplotlib v3.10.1, https://matplotlib.org/</dc:title>
     </cc:Agent>
    </dc:creator>
   </cc:Work>
  </rdf:RDF>
 </metadata>
 <defs>
  <style type="text/css">*{stroke-linejoin: round; stroke-linecap: butt}</style>
 </defs>
 <g id="figure_1">
  <g id="patch_1">
   <path d="M 0 345.6 
L 460.8 345.6 
L 460.8 0 
L 0 0 
z
" style="fill: #ffffff"/>
  </g>
  <g id="axes_1">
   <g id="patch_2">
    <path d="M 57.6 307.584 
L 414.72 307.584 
L 414.72 41.472 
L 57.6 41.472 
z
" style="fill: #ffffff"/>
   </g>
   <g id="matplotlib.axis_1">
    <g id="xtick_1">
     <g id="line2d_1">
      <defs>
       <path id="mbb7ce690ce" d="M 0 0 
L 0 3.5 
" style="stroke: #000000; stroke-width: 0.8"/>
      </defs>
      <g>
       <use xlink:href="#mbb7ce690ce" x="86.198909" y="307.584" style="stroke: #000000; stroke-width: 0.8"/>
      </g>
     </g>
     <g id="text_1">
      <!-- −0.1 -->
      <g transform="translate(74.057503 322.182437) scale(0.1 -0.1)">
       <defs>
        <path id="DejaVuSans-2212" d="M 678 2272 
L 4684 2272 
L 4684 1741 
L 678 1741 
L 678 2272 
z
" transform="scale(0.015625)"/>
        <path id="DejaVuSans-30" d="M 2034 4250 
Q 1547 4250 1301 3770 
Q 1056 3291 1056 2328 
Q 1056 1369 1301 889 
Q 1547 409 2034 409 
Q 2525 409 2770 889 
Q 3016 1369 3016 2328 
Q 3016 3291 2770 3770 
Q 2525 4250 2034 4250 
z
M 2034 4750 
Q 2819 4750 3233 4129 
Q 3647 3509 3647 2328 
Q 3647 1150 3233 529 
Q 2819 -91 2034 -91 
Q 1250 -91 836 529 
Q 422 1150 422 2328 
Q 422 3509 836 4129 
Q 1250 4750 2034 4750 
z
" transform="scale(0.015625)"/>
        <path id="DejaVuSans-2e" d="M 684 794 
L 1344 794 
L 1344 0 
L 684 0 
L 684 794 
z
" transform="scale(0.015625)"/>
        <path id="DejaVuSans-31" d="M 794 531 
L 1825 531 
L 1825 4091 
L 703 3866 
L 703 4441 
L 1819 4666 
L 2450 4666 
L 2450 531 
L 3481 531 
L 3481 0 
L 794 0 
L 794 531 
z
" transform="scale(0.015625)"/>
       </defs>
       <use xlink:href="#DejaVuSans-2212"/>
       <use xlink:href="#DejaVuSans-30" transform="translate(83.789062 0)"/>
       <use xlink:href="#DejaVuSans-2e" transform="translate(147.412109 0)"/>
       <use xlink:href="#DejaVuSans-31" transform="translate(179.199219 0)"/>
      </g>
     </g>
    </g>
    <g id="xtick_2">
     <g id="line2d_2">
      <g>
       <use xlink:href="#mbb7ce690ce" x="140.308" y="307.584" style="stroke: #000000; stroke-width: 0.8"/>
      </g>
     </g>
     <g id="text_2">
      <!-- 0.0 -->
      <g transform="translate(132.356438 322.182437) scale(0.1 -0.1)">
       <use xlink:href="#DejaVuSans-30"/>
       <use xlink:href="#DejaVuSans-2e" transform="translate(63.623047 0)"/>
       <use xlink:href="#DejaVuSans-30" transform="translate(95.410156 0)"/>
      </g>
     </g>
    </g>
    <g id="xtick_3">
     <g id="line2d_3">
      <g>
       <use xlink:href="#mbb7ce690ce" x="194.417091" y="307.584" style="stroke: #000000; stroke-width: 0.8"/>
      </g>
     </g>
     <g id="text_3">
      <!-- 0.1 -->
      <g transform="translate(186.465528 322.182437) scale(0.1 -0.1)">
       <use xlink:href="#DejaVuSans-30"/>
       <use xlink:href="#DejaVuSans-2e" transform="translate(63.623047 0)"/>
       <use xlink:href="#DejaVuSans-31" transform="translate(95.410156 0)"/>
      </g>
     </g>
    </g>
    <g id="xtick_4">
     <g id="line2d_4">
      <g>
       <use xlink:href="#mbb7ce690ce" x="248.526182" y="307.584" style="stroke: #000000; stroke-width: 0.8"/>
      </g>
     </g>
     <g id="text_4">
      <!-- 0.2 -->
      <g transform="translate(240.574619 322.182437) scale(0.1 -0.1)">
       <defs>
        <path id="DejaVuSans-32" d="M 1228 531 
L 3431 531 
L 3431 0 
L 469 0 
L 469 531 
Q 828 903 1448 1529 
Q 2069 2156 2228 2338 
Q 2531 2678 2651 2914 
Q 2772 3150 2772 3378 
Q 2772 3750 2511 3984 
Q 2250 4219 1831 4219 
Q 1534 4219 1204 4116 
Q 875 4013 500 3803 
L 500 4441 
Q 881 4594 1212 4672 
Q 1544 4750 1819 4750 
Q 2544 4750 2975 4387 
Q 3406 4025 3406 3419 
Q 3406 3131 3298 2873 
Q 3191 2616 2906 2266 
Q 2828 2175 2409 1742 
Q 1991 1309 1228 531 
z
" transform="scale(0.015625)"/>
       </defs>
       <use xlink:href="#DejaVuSans-30"/>
       <use xlink:href="#DejaVuSans-2e" transform="translate(63.623047 0)"/>
       <use xlink:href="#DejaVuSans-32" transform="translate(95.410156 0)"/>
      </g>
     </g>
    </g>
    <g id="xtick_5">
     <g id="line2d_5">
      <g>
       <use xlink:href="#mbb7ce690ce" x="302.635273" y="307.584" style="stroke: #000000; stroke-width: 0.8"/>
      </g>
     </g>
     <g id="text_5">
      <!-- 0.3 -->
      <g transform="translate(294.68371 322.182437) scale(0.1 -0.1)">
       <defs>
        <path id="DejaVuSans-33" d="M 2597 2516 
Q 3050 2419 3304 2112 
Q 3559 1806 3559 1356 
Q 3559 666 3084 287 
Q 2609 -91 1734 -91 
Q 1441 -91 1130 -33 
Q 819 25 488 141 
L 488 750 
Q 750 597 1062 519 
Q 1375 441 1716 441 
Q 2309 441 2620 675 
Q 2931 909 2931 1356 
Q 2931 1769 2642 2001 
Q 2353 2234 1838 2234 
L 1294 2234 
L 1294 2753 
L 1863 2753 
Q 2328 2753 2575 2939 
Q 2822 3125 2822 3475 
Q 2822 3834 2567 4026 
Q 2313 4219 1838 4219 
Q 1578 4219 1281 4162 
Q 984 4106 628 3988 
L 628 4550 
Q 988 4650 1302 4700 
Q 1616 4750 1894 4750 
Q 2613 4750 3031 4423 
Q 3450 4097 3450 3541 
Q 3450 3153 3228 2886 
Q 3006 2619 2597 2516 
z
" transform="scale(0.015625)"/>
       </defs>
       <use xlink:href="#DejaVuSans-30"/>
       <use xlink:href="#DejaVuSans-2e" transform="translate(63.623047 0)"/>
       <use xlink:href="#DejaVuSans-33" transform="translate(95.410156 0)"/>
      </g>
     </g>
    </g>
    <g id="xtick_6">
     <g id="line2d_6">
      <g>
       <use xlink:href="#mbb7ce690ce" x="356.744364" y="307.584" style="stroke: #000000; stroke-width: 0.8"/>
      </g>
     </g>
     <g id="text_6">
      <!-- 0.4 -->
      <g transform="translate(348.792801 322.182437) scale(0.1 -0.1)">
       <defs>
        <path id="DejaVuSans-34" d="M 2419 4116 
L 825 1625 
L 2419 1625 
L 2419 4116 
z
M 2253 4666 
L 3047 4666 
L 3047 1625 
L 3713 1625 
L 3713 1100 
L 3047 1100 
L 3047 0 
L 2419 0 
L 2419 1100 
L 313 1100 
L 313 1709 
L 2253 4666 
z
" transform="scale(0.015625)"/>
       </defs>
       <use xlink:href="#DejaVuSans-30"/>
       <use xlink:href="#DejaVuSans-2e" transform="translate(63.623047 0)"/>
       <use xlink:href="#DejaVuSans-34" transform="translate(95.410156 0)"/>
      </g>
     </g>
    </g>
    <g id="xtick_7">
     <g id="line2d_7">
      <g>
       <use xlink:href="#mbb7ce690ce" x="410.853455" y="307.584" style="stroke: #000000; stroke-width: 0.8"/>
      </g>
     </g>
     <g id="text_7">
      <!-- 0.5 -->
      <g transform="translate(402.901892 322.182437) scale(0.1 -0.1)">
       <defs>
        <path id="DejaVuSans-35" d="M 691 4666 
L 3169 4666 
L 3169 4134 
L 1269 4134 
L 1269 2991 
Q 1406 3038 1543 3061 
Q 1681 3084 1819 3084 
Q 2600 3084 3056 2656 
Q 3513 2228 3513 1497 
Q 3513 744 3044 326 
Q 2575 -91 1722 -91 
Q 1428 -91 1123 -41 
Q 819 9 494 109 
L 494 744 
Q 775 591 1075 516 
Q 1375 441 1709 441 
Q 2250 441 2565 725 
Q 2881 1009 2881 1497 
Q 2881 1984 2565 2268 
Q 2250 2553 1709 2553 
Q 1456 2553 1204 2497 
Q 953 2441 691 2322 
L 691 4666 
z
" transform="scale(0.015625)"/>
       </defs>
       <use xlink:href="#DejaVuSans-30"/>
       <use xlink:href="#DejaVuSans-2e" transform="translate(63.623047 0)"/>
       <use xlink:href="#DejaVuSans-35" transform="translate(95.410156 0)"/>
      </g>
     </g>
    </g>
   </g>
   <g id="matplotlib.axis_2">
    <g id="ytick_1">
     <g id="line2d_8">
      <defs>
       <path id="mdfc3269ca0" d="M 0 0 
L -3.5 0 
" style="stroke: #000000; stroke-width: 0.8"/>
      </defs>
      <g>
       <use xlink:href="#mdfc3269ca0" x="57.6" y="298.679357" style="stroke: #000000; stroke-width: 0.8"/>
      </g>
     </g>
     <g id="text_8">
      <!-- −200 -->
      <g transform="translate(23.132812 302.478576) scale(0.1 -0.1)">
       <use xlink:href="#DejaVuSans-2212"/>
       <use xlink:href="#DejaVuSans-32" transform="translate(83.789062 0)"/>
       <use xlink:href="#DejaVuSans-30" transform="translate(147.412109 0)"/>
       <use xlink:href="#DejaVuSans-30" transform="translate(211.035156 0)"/>
      </g>
     </g>
    </g>
    <g id="ytick_2">
     <g id="line2d_9">
      <g>
       <use xlink:href="#mdfc3269ca0" x="57.6" y="268.040437" style="stroke: #000000; stroke-width: 0.8"/>
      </g>
     </g>
     <g id="text_9">
      <!-- −175 -->
      <g transform="translate(23.132812 271.839656) scale(0.1 -0.1)">
       <defs>
        <path id="DejaVuSans-37" d="M 525 4666 
L 3525 4666 
L 3525 4397 
L 1831 0 
L 1172 0 
L 2766 4134 
L 525 4134 
L 525 4666 
z
" transform="scale(0.015625)"/>
       </defs>
       <use xlink:href="#DejaVuSans-2212"/>
       <use xlink:href="#DejaVuSans-31" transform="translate(83.789062 0)"/>
       <use xlink:href="#DejaVuSans-37" transform="translate(147.412109 0)"/>
       <use xlink:href="#DejaVuSans-35" transform="translate(211.035156 0)"/>
      </g>
     </g>
    </g>
    <g id="ytick_3">
     <g id="line2d_10">
      <g>
       <use xlink:href="#mdfc3269ca0" x="57.6" y="237.401518" style="stroke: #000000; stroke-width: 0.8"/>
      </g>
     </g>
     <g id="text_10">
      <!-- −150 -->
      <g transform="translate(23.132812 241.200736) scale(0.1 -0.1)">
       <use xlink:href="#DejaVuSans-2212"/>
       <use xlink:href="#DejaVuSans-31" transform="translate(83.789062 0)"/>
       <use xlink:href="#DejaVuSans-35" transform="translate(147.412109 0)"/>
       <use xlink:href="#DejaVuSans-30" transform="translate(211.035156 0)"/>
      </g>
     </g>
    </g>
    <g id="ytick_4">
     <g id="line2d_11">
      <g>
       <use xlink:href="#mdfc3269ca0" x="57.6" y="206.762598" style="stroke: #000000; stroke-width: 0.8"/>
      </g>
     </g>
     <g id="text_11">
      <!-- −125 -->
      <g transform="translate(23.132812 210.561817) scale(0.1 -0.1)">
       <use xlink:href="#DejaVuSans-2212"/>
       <use xlink:href="#DejaVuSans-31" transform="translate(83.789062 0)"/>
       <use xlink:href="#DejaVuSans-32" transform="translate(147.412109 0)"/>
       <use xlink:href="#DejaVuSans-35" transform="translate(211.035156 0)"/>
      </g>
     </g>
    </g>
    <g id="ytick_5">
     <g id="line2d_12">
      <g>
       <use xlink:href="#mdfc3269ca0" x="57.6" y="176.123678" style="stroke: #000000; stroke-width: 0.8"/>
      </g>
     </g>
     <g id="text_12">
      <!-- −100 -->
      <g transform="translate(23.132812 179.922897) scale(0.1 -0.1)">
       <use xlink:href="#DejaVuSans-2212"/>
       <use xlink:href="#DejaVuSans-31" transform="translate(83.789062 0)"/>
       <use xlink:href="#DejaVuSans-30" transform="translate(147.412109 0)"/>
       <use xlink:href="#DejaVuSans-30" transform="translate(211.035156 0)"/>
      </g>
     </g>
    </g>
    <g id="ytick_6">
     <g id="line2d_13">
      <g>
       <use xlink:href="#mdfc3269ca0" x="57.6" y="145.484759" style="stroke: #000000; stroke-width: 0.8"/>
      </g>
     </g>
     <g id="text_13">
      <!-- −75 -->
      <g transform="translate(29.495313 149.283978) scale(0.1 -0.1)">
       <use xlink:href="#DejaVuSans-2212"/>
       <use xlink:href="#DejaVuSans-37" transform="translate(83.789062 0)"/>
       <use xlink:href="#DejaVuSans-35" transform="translate(147.412109 0)"/>
      </g>
     </g>
    </g>
    <g id="ytick_7">
     <g id="line2d_14">
      <g>
       <use xlink:href="#mdfc3269ca0" x="57.6" y="114.845839" style="stroke: #000000; stroke-width: 0.8"/>
      </g>
     </g>
     <g id="text_14">
      <!-- −50 -->
      <g transform="translate(29.495313 118.645058) scale(0.1 -0.1)">
       <use xlink:href="#DejaVuSans-2212"/>
       <use xlink:href="#DejaVuSans-35" transform="translate(83.789062 0)"/>
       <use xlink:href="#DejaVuSans-30" transform="translate(147.412109 0)"/>
      </g>
     </g>
    </g>
    <g id="ytick_8">
     <g id="line2d_15">
      <g>
       <use xlink:href="#mdfc3269ca0" x="57.6" y="84.20692" style="stroke: #000000; stroke-width: 0.8"/>
      </g>
     </g>
     <g id="text_15">
      <!-- −25 -->
      <g transform="translate(29.495313 88.006138) scale(0.1 -0.1)">
       <use xlink:href="#DejaVuSans-2212"/>
       <use xlink:href="#DejaVuSans-32" transform="translate(83.789062 0)"/>
       <use xlink:href="#DejaVuSans-35" transform="translate(147.412109 0)"/>
      </g>
     </g>
    </g>
    <g id="ytick_9">
     <g id="line2d_16">
      <g>
       <use xlink:href="#mdfc3269ca0" x="57.6" y="53.568" style="stroke: #000000; stroke-width: 0.8"/>
      </g>
     </g>
     <g id="text_16">
      <!-- 0 -->
      <g transform="translate(44.2375 57.367219) scale(0.1 -0.1)">
       <use xlink:href="#DejaVuSans-30"/>
      </g>
     </g>
    </g>
   </g>
   <g id="line2d_17">
    <path d="M 73.832727 53.568 
L 131.391273 53.608224 
L 131.616727 54.489114 
L 132.405818 54.838543 
L 132.901818 54.957196 
L 133.172364 55.026998 
L 133.916364 55.169151 
L 134.164364 55.224476 
L 134.671636 55.46017 
L 134.953455 55.586517 
L 135.145091 55.717808 
L 135.562182 56.420561 
L 135.731273 56.510395 
L 135.934182 56.712154 
L 136.148364 56.822039 
L 136.373818 57.039918 
L 136.554182 57.158127 
L 136.824727 57.273867 
L 137.005091 57.457575 
L 137.140364 57.543069 
L 138.008364 57.967606 
L 138.188727 58.036757 
L 138.391636 58.160233 
L 138.504364 58.325012 
L 138.650909 58.446801 
L 138.729818 58.548006 
L 138.876364 58.72336 
L 139.823273 59.139466 
L 140.003636 59.227706 
L 140.127636 59.332268 
L 140.736364 59.917267 
L 140.973091 59.960393 
L 141.277455 60.112351 
L 141.548 60.382739 
L 141.649455 60.528469 
L 141.829818 60.657859 
L 142.044 60.751111 
L 142.201818 60.920206 
L 144.321091 61.624136 
L 144.760727 61.874895 
L 144.986182 61.993079 
L 145.155273 62.041152 
L 145.403273 62.248172 
L 145.606182 62.453021 
L 145.944364 62.566238 
L 146.136 62.662436 
L 146.384 62.845949 
L 146.586909 63.092159 
L 146.677091 63.210879 
L 147.015273 63.499946 
L 147.195636 63.589757 
L 147.376 63.715745 
L 147.860727 64.012371 
L 148.649818 64.609444 
L 148.830182 64.7137 
L 149.033091 64.827676 
L 149.157091 64.934152 
L 149.314909 65.049732 
L 150.104 65.343817 
L 150.904364 66.158394 
L 151.096 66.262286 
L 151.287636 66.383188 
L 151.603273 66.525904 
L 151.794909 66.572219 
L 151.873818 66.662065 
L 152.042909 66.883878 
L 152.708 67.381467 
L 152.854545 67.459954 
L 153.046182 67.546281 
L 153.204 67.65162 
L 153.440727 67.763295 
L 153.609818 67.839635 
L 154.737091 68.327587 
L 155.030182 68.4522 
L 155.233091 68.72313 
L 155.672727 69.025998 
L 155.943273 69.136951 
L 157.555273 70.134893 
L 158.344364 70.382874 
L 158.513455 70.496758 
L 158.908 70.665873 
L 159.652 71.033368 
L 159.9 71.149359 
L 160.080364 71.279407 
L 160.373455 71.400616 
L 160.621455 71.500559 
L 160.846909 71.597178 
L 161.094909 71.766757 
L 161.647273 71.889367 
L 162.199636 72.206499 
L 162.357455 72.442612 
L 162.616727 72.629105 
L 163 72.810588 
L 163.146545 72.939769 
L 163.744 73.129682 
L 164.183636 73.466389 
L 164.544364 73.609172 
L 164.702182 73.748347 
L 164.916364 73.949673 
L 165.062909 74.142914 
L 165.468727 74.285462 
L 165.626545 74.420966 
L 165.818182 74.53112 
L 165.987273 74.700558 
L 166.415636 74.888657 
L 166.641091 75.017175 
L 167.114545 75.205578 
L 168.016364 75.521571 
L 168.151636 75.577216 
L 168.298182 75.655219 
L 168.433455 75.775116 
L 168.749091 75.913654 
L 169.042182 75.950638 
L 169.256364 76.078714 
L 169.448 76.26519 
L 169.650909 76.365339 
L 170.022909 76.600839 
L 170.237091 76.701974 
L 170.44 76.814731 
L 170.597818 76.900359 
L 171.003636 77.119481 
L 171.353091 77.248115 
L 171.533455 77.372269 
L 172.063273 77.619735 
L 172.209818 77.698074 
L 172.333818 77.806803 
L 172.649455 78.026166 
L 173.280727 78.215379 
L 173.573818 78.283492 
L 174.047273 78.418813 
L 175.039273 78.775877 
L 175.174545 78.852209 
L 175.422545 78.953001 
L 175.591636 79.017452 
L 176.335636 79.150023 
L 176.730182 79.295797 
L 177.248727 79.699981 
L 177.485455 79.814817 
L 177.643273 79.957327 
L 178.218182 80.262527 
L 178.409818 80.329238 
L 179.368 80.568912 
L 179.683636 80.674575 
L 180.066909 80.856954 
L 180.36 81.031666 
L 180.867273 81.141474 
L 181.070182 81.287312 
L 182.975273 82.114349 
L 183.133091 82.270444 
L 183.933455 82.695969 
L 184.136364 82.832575 
L 184.497091 82.955587 
L 184.643636 82.985469 
L 185.274909 83.140181 
L 186.018909 83.614159 
L 186.188 83.773322 
L 186.481091 83.884254 
L 186.706545 84.059048 
L 187.123636 84.236514 
L 187.777455 84.407321 
L 188.634182 84.752061 
L 188.825818 84.842658 
L 188.972364 84.905634 
L 189.164 85.022655 
L 189.366909 85.072967 
L 190.325091 85.300902 
L 190.595636 85.361583 
L 190.697091 85.450933 
L 190.854909 85.62305 
L 191.497455 85.915931 
L 191.925818 86.024563 
L 192.388 86.575593 
L 192.523273 86.639876 
L 192.906545 86.7777 
L 193.086909 86.876028 
L 193.628 87.123955 
L 193.797091 87.180207 
L 193.966182 87.346873 
L 194.124 87.524419 
L 194.935636 87.766776 
L 195.172364 87.900089 
L 195.420364 88.060834 
L 195.702182 88.143841 
L 195.86 88.323128 
L 196.085455 88.446027 
L 196.434909 88.569698 
L 196.773091 88.767665 
L 198.238545 89.386498 
L 198.373818 89.493233 
L 198.802182 89.650339 
L 198.948727 89.716074 
L 199.185455 89.827382 
L 199.320727 89.924558 
L 199.399636 90.078267 
L 199.568727 90.462121 
L 200.177455 90.728952 
L 200.369091 90.82854 
L 200.538182 90.878722 
L 200.842545 90.974641 
L 202.533455 91.646701 
L 202.702545 91.748619 
L 202.860364 91.850807 
L 203.176 92.082946 
L 203.548 92.198165 
L 203.886182 92.458794 
L 204.077818 92.599399 
L 204.280727 92.647517 
L 204.585091 92.670989 
L 204.912 92.845815 
L 205.441818 93.055 
L 205.836364 93.166558 
L 206.557818 93.699528 
L 207.031273 93.819289 
L 207.222909 93.898701 
L 207.504727 94.075405 
L 207.662545 94.180633 
L 207.876727 94.274301 
L 208.023273 94.361238 
L 208.451636 94.487523 
L 208.744727 94.61096 
L 208.981455 94.833735 
L 212.081455 95.956621 
L 212.284364 96.009955 
L 212.633818 96.116282 
L 213.197455 96.512723 
L 213.603273 96.623091 
L 214.088 96.905273 
L 214.572727 97.037441 
L 215.542182 97.373668 
L 215.767636 97.425673 
L 216.432727 97.698418 
L 216.613091 97.85304 
L 216.827273 97.974199 
L 217.109091 98.116569 
L 217.413455 98.247147 
L 217.650182 98.514702 
L 218.225091 98.786934 
L 218.428 98.902176 
L 218.676 99.142931 
L 218.946545 99.261592 
L 219.138182 99.305007 
L 219.521455 99.410008 
L 220.04 99.798012 
L 220.817818 100.256455 
L 221.020727 100.444111 
L 221.246182 100.572049 
L 221.437818 100.620591 
L 221.809818 100.756838 
L 222.350909 101.122135 
L 222.52 101.193228 
L 222.858182 101.312597 
L 223.117455 101.415755 
L 223.974182 101.649182 
L 224.661818 101.911647 
L 225.270545 102.386301 
L 225.687636 102.516367 
L 225.868 102.614287 
L 226.510545 102.750885 
L 226.814909 102.98496 
L 227.017818 103.111573 
L 227.175636 103.259234 
L 227.885818 103.528103 
L 228.1 103.638246 
L 228.325455 103.664304 
L 228.449455 103.768348 
L 228.753818 103.962203 
L 229.103273 104.10508 
L 229.283636 104.137478 
L 230.027636 104.428643 
L 230.557455 104.568491 
L 230.873091 104.67121 
L 231.042182 104.7348 
L 231.346545 104.87402 
L 231.549455 104.911014 
L 232.665455 105.260159 
L 232.913455 105.488693 
L 233.150182 105.595618 
L 233.319273 105.695315 
L 233.984364 105.802806 
L 234.288727 105.953863 
L 235.337091 106.289145 
L 235.607636 106.349944 
L 235.990909 106.491093 
L 236.171273 106.594563 
L 236.362909 106.707003 
L 236.836364 106.867378 
L 237.422545 106.979479 
L 237.726909 107.010073 
L 237.839636 107.103829 
L 238.02 107.285161 
L 238.516 107.400093 
L 238.809091 107.492522 
L 239.079636 107.601468 
L 239.26 107.670388 
L 239.609455 107.768233 
L 239.789818 107.869906 
L 240.094182 107.951167 
L 240.398545 108.074223 
L 240.714182 108.226676 
L 241.322909 108.548277 
L 241.627273 109.210733 
L 241.999273 109.429725 
L 242.484 109.563702 
L 242.709455 109.646933 
L 242.912364 109.816615 
L 243.070182 109.898527 
L 243.408364 110.018667 
L 243.577455 110.10547 
L 244.355273 110.434194 
L 244.851273 110.544129 
L 245.448727 110.734901 
L 245.877091 110.896082 
L 246.08 111.002744 
L 246.756364 111.198435 
L 246.981818 111.256282 
L 247.218545 111.382286 
L 247.444 111.518261 
L 247.872364 111.580936 
L 248.571273 111.69624 
L 248.796727 111.754258 
L 249.123636 111.880125 
L 250.397455 112.412761 
L 250.566545 112.49609 
L 250.746909 112.620801 
L 250.961091 112.758963 
L 253.159273 113.583701 
L 253.407273 113.734092 
L 253.869455 113.958421 
L 254.162545 114.089672 
L 254.613455 114.44447 
L 255.515273 114.593394 
L 255.887273 114.857435 
L 256.349455 114.994667 
L 257.375273 115.333366 
L 257.589455 115.494031 
L 258.356 116.221949 
L 258.964727 116.327909 
L 259.370545 116.488049 
L 260.576727 116.674496 
L 261.377091 116.83752 
L 262.008364 116.99968 
L 262.278909 117.07165 
L 262.459273 117.169444 
L 262.639636 117.327695 
L 264.725091 118.111077 
L 265.063273 118.348666 
L 265.469091 118.472387 
L 266.032727 118.667445 
L 266.246909 118.807294 
L 266.494909 118.984413 
L 266.720364 119.148892 
L 266.979636 119.260711 
L 267.137455 119.380195 
L 267.272727 119.440873 
L 267.678545 119.563916 
L 268.433818 119.851767 
L 268.648 119.984492 
L 268.918545 120.073338 
L 269.110182 120.227018 
L 271.815636 121.008313 
L 272.018545 121.251627 
L 272.232727 121.374749 
L 272.503273 121.434715 
L 273.495273 121.683139 
L 273.641818 121.730043 
L 274.013818 121.844282 
L 275.851273 122.557196 
L 276.020364 122.640809 
L 276.865818 122.812366 
L 277.046182 122.900879 
L 277.643636 123.011702 
L 278.173455 123.164953 
L 278.522909 123.383394 
L 278.624364 123.501573 
L 278.770909 123.544177 
L 280.225091 123.784187 
L 280.619636 123.937051 
L 281.025455 124.049117 
L 281.352364 124.197873 
L 281.837091 124.277517 
L 282.344364 124.38441 
L 282.603636 124.498856 
L 283.28 124.633401 
L 284.486182 124.999326 
L 285.049818 125.122754 
L 285.399273 125.212586 
L 285.793818 125.329282 
L 287.744 126.039245 
L 288.566909 126.155694 
L 288.803636 126.22456 
L 291.712 127.06136 
L 292.027636 127.20355 
L 293.301455 127.483545 
L 293.526909 127.532235 
L 293.662182 127.634474 
L 293.921455 127.727327 
L 294.733091 127.947448 
L 294.969818 128.068962 
L 295.747636 128.224138 
L 296.006909 128.275917 
L 296.897455 128.50832 
L 297.044 128.614517 
L 297.742909 128.759019 
L 298.081091 128.839425 
L 298.768727 128.965272 
L 299.242182 129.054846 
L 299.467636 129.165901 
L 301.068364 129.388729 
L 301.474182 129.518414 
L 302.285818 129.627082 
L 303.480727 129.896549 
L 304.777091 130.109063 
L 304.991273 130.133379 
L 306.050909 130.295364 
L 306.355273 130.387163 
L 307.358545 130.570781 
L 308.654909 130.822712 
L 310.075273 130.958462 
L 310.571273 131.021153 
L 312.048 131.346404 
L 312.431273 131.411158 
L 312.701818 131.519645 
L 312.893455 131.566593 
L 313.986909 131.756396 
L 314.652 131.869788 
L 316.974182 132.377427 
L 317.177091 132.460585 
L 318.101455 132.602097 
L 318.811636 132.773881 
L 319.476727 132.883619 
L 320.288364 133.128685 
L 320.615273 133.222107 
L 322.317455 133.507925 
L 323.230545 133.652571 
L 323.658909 133.72485 
L 323.929455 133.830464 
L 324.143636 133.903004 
L 325.056727 134.055163 
L 325.259636 134.126983 
L 326.646182 134.400169 
L 326.849091 134.448319 
L 327.987636 134.573158 
L 328.224364 134.613308 
L 329.565818 134.788747 
L 329.904 134.868269 
L 330.963636 135.023328 
L 331.110182 135.078118 
L 333.026545 135.393278 
L 333.364727 135.478541 
L 333.883273 135.6131 
L 335.608 135.968236 
L 336.769091 136.124146 
L 337.242545 136.243378 
L 338.099273 136.354201 
L 338.313455 136.388497 
L 339.136364 136.499193 
L 339.429455 136.643308 
L 339.598545 136.676008 
L 341.052727 137.079234 
L 341.650182 137.359597 
L 342.664727 137.470631 
L 343.544 137.643726 
L 343.713091 137.726823 
L 344.141455 137.828257 
L 344.400727 137.953572 
L 344.750182 138.097264 
L 345.606909 138.287817 
L 345.776 138.365533 
L 347.072364 138.655271 
L 347.455636 138.770991 
L 347.996727 138.906279 
L 348.458909 139.009767 
L 348.729455 139.104225 
L 349.338182 139.280838 
L 349.552364 139.387108 
L 350.161091 139.497746 
L 352.066182 140.022996 
L 352.460727 140.13638 
L 352.990545 140.43924 
L 353.159636 140.472543 
L 353.937455 140.644046 
L 354.208 140.908198 
L 354.377091 140.964753 
L 354.816727 141.105638 
L 356.755636 141.954145 
L 357.251636 142.171687 
L 357.477091 142.375412 
L 357.634909 142.470688 
L 357.973091 142.584898 
L 358.232364 142.73639 
L 358.390182 142.822459 
L 358.829818 142.999405 
L 358.998909 143.034693 
L 359.979636 143.355159 
L 360.216364 143.449295 
L 360.306545 143.581079 
L 360.441818 143.742155 
L 360.904 143.91958 
L 361.073091 144.036703 
L 361.738182 144.266999 
L 361.986182 144.486893 
L 362.132727 144.604087 
L 362.346909 144.881541 
L 362.437091 144.975532 
L 362.628727 145.251705 
L 362.797818 145.394913 
L 363.034545 145.486476 
L 363.203636 145.615576 
L 363.474182 145.692329 
L 363.699636 145.795784 
L 364.342182 146.48911 
L 364.838182 146.773515 
L 364.984727 146.889005 
L 365.131273 147.030434 
L 365.525818 147.191591 
L 366.179636 147.772901 
L 366.382545 147.881988 
L 368.186182 149.14695 
L 368.287636 149.216249 
L 368.422909 149.334998 
L 368.625818 149.436652 
L 368.772364 149.510591 
L 369.956 150.279152 
L 370.113818 150.517771 
L 370.181455 150.649737 
L 370.519636 150.895145 
L 371.444 151.737992 
L 371.624364 151.949588 
L 371.985091 152.312261 
L 372.120364 152.461093 
L 372.244364 152.586563 
L 372.436 152.776419 
L 373.371636 153.429785 
L 373.518182 153.506337 
L 373.867636 153.709086 
L 374.036727 153.862603 
L 374.307273 154.074853 
L 374.544 154.388802 
L 374.882182 154.917397 
L 374.927273 154.996534 
L 375.062545 155.187947 
L 375.761455 155.881324 
L 375.964364 156.198193 
L 376.302545 156.383576 
L 376.516727 156.714936 
L 376.730909 156.822291 
L 377.181818 157.194098 
L 377.373455 157.30087 
L 377.52 157.547346 
L 377.621455 157.720655 
L 377.756727 157.982677 
L 377.892 158.081365 
L 378.038545 158.140404 
L 378.128727 158.240774 
L 378.805091 159.297782 
L 378.917818 159.384827 
L 379.075636 159.528918 
L 379.120727 159.609208 
L 379.301091 159.794493 
L 379.413818 159.904629 
L 379.628 160.298252 
L 380.304364 161.049023 
L 380.326909 161.149027 
L 380.462182 161.83149 
L 380.62 161.968232 
L 380.777818 162.360712 
L 380.924364 162.484315 
L 381.127273 162.83019 
L 381.273818 163.273699 
L 381.386545 163.457553 
L 381.454182 163.683997 
L 381.736 164.261004 
L 381.916364 164.417889 
L 381.972727 164.51923 
L 382.119273 164.732818 
L 382.209455 164.838602 
L 382.604 165.304901 
L 382.716727 165.414894 
L 382.897091 165.897757 
L 383.122545 166.045265 
L 383.426909 166.827961 
L 383.697455 166.926762 
L 384.058182 167.696808 
L 384.283636 167.817017 
L 384.554182 168.356326 
L 384.779636 168.78043 
L 385.050182 169.528394 
L 385.298182 170.007844 
L 385.456 170.341087 
L 385.873091 170.973142 
L 386.053455 171.193335 
L 387.034182 173.473115 
L 387.135636 173.523456 
L 387.349818 174.580909 
L 387.462545 174.693003 
L 388.06 176.097569 
L 388.138909 176.196628 
L 388.285455 176.56283 
L 388.601091 177.892848 
L 388.916727 178.255383 
L 389.063273 178.749569 
L 389.176 178.960853 
L 389.424 179.475743 
L 389.491636 179.638304 
L 389.863636 180.878017 
L 389.953818 181.164234 
L 390.100364 181.945239 
L 390.292 182.474725 
L 390.494909 183.262521 
L 390.652727 184.310881 
L 390.776727 184.584824 
L 390.923273 184.858943 
L 391.148727 185.266932 
L 391.667273 186.349898 
L 391.813818 187.238035 
L 392.321091 189.837257 
L 392.681818 191.043643 
L 393.008727 191.737643 
L 393.053818 191.790817 
L 393.313091 192.682557 
L 393.425818 193.01175 
L 393.910545 195.571623 
L 394.068364 198.275679 
L 394.113455 198.567636 
L 394.248727 199.719286 
L 394.293818 199.74898 
L 394.598182 201.499059 
L 394.733455 202.450343 
L 394.913818 204.532959 
L 394.925091 204.548256 
L 395.060364 205.305519 
L 395.082909 205.358905 
L 395.263273 205.987159 
L 395.285818 206.104286 
L 395.421091 207.276091 
L 395.590182 209.629027 
L 395.669091 209.772367 
L 395.714182 210.323543 
L 395.905818 213.967778 
L 395.950909 214.073553 
L 396.672364 221.839913 
L 396.706182 222.034105 
L 397.145818 230.534709 
L 397.450182 232.731511 
L 397.495273 234.804376 
L 397.641818 241.970589 
L 397.844727 245.569548 
L 398.273091 275.488335 
L 398.295636 276.641741 
L 398.476 295.488 
L 398.476 295.488 
" clip-path="url(#pad28fae397)" style="fill: none; stroke: #1f77b4; stroke-width: 1.5; stroke-linecap: square"/>
   </g>
   <g id="line2d_18">
    <path d="M 140.308 59.707195 
L 320.660364 133.229191 
" clip-path="url(#pad28fae397)" style="fill: none; stroke-dasharray: 5.55,2.4; stroke-dashoffset: 0; stroke: #ff7f0e; stroke-width: 1.5"/>
   </g>
   <g id="line2d_19">
    <path d="M 73.832727 127.101407 
L 398.487273 127.101407 
L 398.487273 127.101407 
" clip-path="url(#pad28fae397)" style="fill: none; stroke-dasharray: 5.55,2.4; stroke-dashoffset: 0; stroke: #2ca02c; stroke-width: 1.5"/>
   </g>
   <g id="LineCollection_1">
    <path d="M 320.660364 295.488 
L 320.660364 53.568 
" clip-path="url(#pad28fae397)" style="fill: none; stroke-dasharray: 5.55,2.4; stroke-dashoffset: 0; stroke: #1f77b4; stroke-width: 1.5"/>
   </g>
   <g id="patch_3">
    <path d="M 57.6 307.584 
L 57.6 41.472 
" style="fill: none; stroke: #000000; stroke-width: 0.8; stroke-linejoin: miter; stroke-linecap: square"/>
   </g>
   <g id="patch_4">
    <path d="M 414.72 307.584 
L 414.72 41.472 
" style="fill: none; stroke: #000000; stroke-width: 0.8; stroke-linejoin: miter; stroke-linecap: square"/>
   </g>
   <g id="patch_5">
    <path d="M 57.6 307.584 
L 414.72 307.584 
" style="fill: none; stroke: #000000; stroke-width: 0.8; stroke-linejoin: miter; stroke-linecap: square"/>
   </g>
   <g id="patch_6">
    <path d="M 57.6 41.472 
L 414.72 41.472 
" style="fill: none; stroke: #000000; stroke-width: 0.8; stroke-linejoin: miter; stroke-linecap: square"/>
   </g>
   <g id="text_17">
    <!-- Energy Decay - 8000 Hz -->
    <g transform="translate(163.59 35.472) scale(0.12 -0.12)">
     <defs>
      <path id="DejaVuSans-45" d="M 628 4666 
L 3578 4666 
L 3578 4134 
L 1259 4134 
L 1259 2753 
L 3481 2753 
L 3481 2222 
L 1259 2222 
L 1259 531 
L 3634 531 
L 3634 0 
L 628 0 
L 628 4666 
z
" transform="scale(0.015625)"/>
      <path id="DejaVuSans-6e" d="M 3513 2113 
L 3513 0 
L 2938 0 
L 2938 2094 
Q 2938 2591 2744 2837 
Q 2550 3084 2163 3084 
Q 1697 3084 1428 2787 
Q 1159 2491 1159 1978 
L 1159 0 
L 581 0 
L 581 3500 
L 1159 3500 
L 1159 2956 
Q 1366 3272 1645 3428 
Q 1925 3584 2291 3584 
Q 2894 3584 3203 3211 
Q 3513 2838 3513 2113 
z
" transform="scale(0.015625)"/>
      <path id="DejaVuSans-65" d="M 3597 1894 
L 3597 1613 
L 953 1613 
Q 991 1019 1311 708 
Q 1631 397 2203 397 
Q 2534 397 2845 478 
Q 3156 559 3463 722 
L 3463 178 
Q 3153 47 2828 -22 
Q 2503 -91 2169 -91 
Q 1331 -91 842 396 
Q 353 884 353 1716 
Q 353 2575 817 3079 
Q 1281 3584 2069 3584 
Q 2775 3584 3186 3129 
Q 3597 2675 3597 1894 
z
M 3022 2063 
Q 3016 2534 2758 2815 
Q 2500 3097 2075 3097 
Q 1594 3097 1305 2825 
Q 1016 2553 972 2059 
L 3022 2063 
z
" transform="scale(0.015625)"/>
      <path id="DejaVuSans-72" d="M 2631 2963 
Q 2534 3019 2420 3045 
Q 2306 3072 2169 3072 
Q 1681 3072 1420 2755 
Q 1159 2438 1159 1844 
L 1159 0 
L 581 0 
L 581 3500 
L 1159 3500 
L 1159 2956 
Q 1341 3275 1631 3429 
Q 1922 3584 2338 3584 
Q 2397 3584 2469 3576 
Q 2541 3569 2628 3553 
L 2631 2963 
z
" transform="scale(0.015625)"/>
      <path id="DejaVuSans-67" d="M 2906 1791 
Q 2906 2416 2648 2759 
Q 2391 3103 1925 3103 
Q 1463 3103 1205 2759 
Q 947 2416 947 1791 
Q 947 1169 1205 825 
Q 1463 481 1925 481 
Q 2391 481 2648 825 
Q 2906 1169 2906 1791 
z
M 3481 434 
Q 3481 -459 3084 -895 
Q 2688 -1331 1869 -1331 
Q 1566 -1331 1297 -1286 
Q 1028 -1241 775 -1147 
L 775 -588 
Q 1028 -725 1275 -790 
Q 1522 -856 1778 -856 
Q 2344 -856 2625 -561 
Q 2906 -266 2906 331 
L 2906 616 
Q 2728 306 2450 153 
Q 2172 0 1784 0 
Q 1141 0 747 490 
Q 353 981 353 1791 
Q 353 2603 747 3093 
Q 1141 3584 1784 3584 
Q 2172 3584 2450 3431 
Q 2728 3278 2906 2969 
L 2906 3500 
L 3481 3500 
L 3481 434 
z
" transform="scale(0.015625)"/>
      <path id="DejaVuSans-79" d="M 2059 -325 
Q 1816 -950 1584 -1140 
Q 1353 -1331 966 -1331 
L 506 -1331 
L 506 -850 
L 844 -850 
Q 1081 -850 1212 -737 
Q 1344 -625 1503 -206 
L 1606 56 
L 191 3500 
L 800 3500 
L 1894 763 
L 2988 3500 
L 3597 3500 
L 2059 -325 
z
" transform="scale(0.015625)"/>
      <path id="DejaVuSans-20" transform="scale(0.015625)"/>
      <path id="DejaVuSans-44" d="M 1259 4147 
L 1259 519 
L 2022 519 
Q 2988 519 3436 956 
Q 3884 1394 3884 2338 
Q 3884 3275 3436 3711 
Q 2988 4147 2022 4147 
L 1259 4147 
z
M 628 4666 
L 1925 4666 
Q 3281 4666 3915 4102 
Q 4550 3538 4550 2338 
Q 4550 1131 3912 565 
Q 3275 0 1925 0 
L 628 0 
L 628 4666 
z
" transform="scale(0.015625)"/>
      <path id="DejaVuSans-63" d="M 3122 3366 
L 3122 2828 
Q 2878 2963 2633 3030 
Q 2388 3097 2138 3097 
Q 1578 3097 1268 2742 
Q 959 2388 959 1747 
Q 959 1106 1268 751 
Q 1578 397 2138 397 
Q 2388 397 2633 464 
Q 2878 531 3122 666 
L 3122 134 
Q 2881 22 2623 -34 
Q 2366 -91 2075 -91 
Q 1284 -91 818 406 
Q 353 903 353 1747 
Q 353 2603 823 3093 
Q 1294 3584 2113 3584 
Q 2378 3584 2631 3529 
Q 2884 3475 3122 3366 
z
" transform="scale(0.015625)"/>
      <path id="DejaVuSans-61" d="M 2194 1759 
Q 1497 1759 1228 1600 
Q 959 1441 959 1056 
Q 959 750 1161 570 
Q 1363 391 1709 391 
Q 2188 391 2477 730 
Q 2766 1069 2766 1631 
L 2766 1759 
L 2194 1759 
z
M 3341 1997 
L 3341 0 
L 2766 0 
L 2766 531 
Q 2569 213 2275 61 
Q 1981 -91 1556 -91 
Q 1019 -91 701 211 
Q 384 513 384 1019 
Q 384 1609 779 1909 
Q 1175 2209 1959 2209 
L 2766 2209 
L 2766 2266 
Q 2766 2663 2505 2880 
Q 2244 3097 1772 3097 
Q 1472 3097 1187 3025 
Q 903 2953 641 2809 
L 641 3341 
Q 956 3463 1253 3523 
Q 1550 3584 1831 3584 
Q 2591 3584 2966 3190 
Q 3341 2797 3341 1997 
z
" transform="scale(0.015625)"/>
      <path id="DejaVuSans-2d" d="M 313 2009 
L 1997 2009 
L 1997 1497 
L 313 1497 
L 313 2009 
z
" transform="scale(0.015625)"/>
      <path id="DejaVuSans-38" d="M 2034 2216 
Q 1584 2216 1326 1975 
Q 1069 1734 1069 1313 
Q 1069 891 1326 650 
Q 1584 409 2034 409 
Q 2484 409 2743 651 
Q 3003 894 3003 1313 
Q 3003 1734 2745 1975 
Q 2488 2216 2034 2216 
z
M 1403 2484 
Q 997 2584 770 2862 
Q 544 3141 544 3541 
Q 544 4100 942 4425 
Q 1341 4750 2034 4750 
Q 2731 4750 3128 4425 
Q 3525 4100 3525 3541 
Q 3525 3141 3298 2862 
Q 3072 2584 2669 2484 
Q 3125 2378 3379 2068 
Q 3634 1759 3634 1313 
Q 3634 634 3220 271 
Q 2806 -91 2034 -91 
Q 1263 -91 848 271 
Q 434 634 434 1313 
Q 434 1759 690 2068 
Q 947 2378 1403 2484 
z
M 1172 3481 
Q 1172 3119 1398 2916 
Q 1625 2713 2034 2713 
Q 2441 2713 2670 2916 
Q 2900 3119 2900 3481 
Q 2900 3844 2670 4047 
Q 2441 4250 2034 4250 
Q 1625 4250 1398 4047 
Q 1172 3844 1172 3481 
z
" transform="scale(0.015625)"/>
      <path id="DejaVuSans-48" d="M 628 4666 
L 1259 4666 
L 1259 2753 
L 3553 2753 
L 3553 4666 
L 4184 4666 
L 4184 0 
L 3553 0 
L 3553 2222 
L 1259 2222 
L 1259 0 
L 628 0 
L 628 4666 
z
" transform="scale(0.015625)"/>
      <path id="DejaVuSans-7a" d="M 353 3500 
L 3084 3500 
L 3084 2975 
L 922 459 
L 3084 459 
L 3084 0 
L 275 0 
L 275 525 
L 2438 3041 
L 353 3041 
L 353 3500 
z
" transform="scale(0.015625)"/>
     </defs>
     <use xlink:href="#DejaVuSans-45"/>
     <use xlink:href="#DejaVuSans-6e" transform="translate(63.183594 0)"/>
     <use xlink:href="#DejaVuSans-65" transform="translate(126.5625 0)"/>
     <use xlink:href="#DejaVuSans-72" transform="translate(188.085938 0)"/>
     <use xlink:href="#DejaVuSans-67" transform="translate(227.449219 0)"/>
     <use xlink:href="#DejaVuSans-79" transform="translate(290.925781 0)"/>
     <use xlink:href="#DejaVuSans-20" transform="translate(350.105469 0)"/>
     <use xlink:href="#DejaVuSans-44" transform="translate(381.892578 0)"/>
     <use xlink:href="#DejaVuSans-65" transform="translate(458.894531 0)"/>
     <use xlink:href="#DejaVuSans-63" transform="translate(520.417969 0)"/>
     <use xlink:href="#DejaVuSans-61" transform="translate(575.398438 0)"/>
     <use xlink:href="#DejaVuSans-79" transform="translate(636.677734 0)"/>
     <use xlink:href="#DejaVuSans-20" transform="translate(695.857422 0)"/>
     <use xlink:href="#DejaVuSans-2d" transform="translate(727.644531 0)"/>
     <use xlink:href="#DejaVuSans-20" transform="translate(763.728516 0)"/>
     <use xlink:href="#DejaVuSans-38" transform="translate(795.515625 0)"/>
     <use xlink:href="#DejaVuSans-30" transform="translate(859.138672 0)"/>
     <use xlink:href="#DejaVuSans-30" transform="translate(922.761719 0)"/>
     <use xlink:href="#DejaVuSans-30" transform="translate(986.384766 0)"/>
     <use xlink:href="#DejaVuSans-20" transform="translate(1050.007812 0)"/>
     <use xlink:href="#DejaVuSans-48" transform="translate(1081.794922 0)"/>
     <use xlink:href="#DejaVuSans-7a" transform="translate(1156.990234 0)"/>
    </g>
   </g>
   <g id="legend_1">
    <g id="patch_7">
     <path d="M 296.968437 108.1845 
L 407.72 108.1845 
Q 409.72 108.1845 409.72 106.1845 
L 409.72 48.472 
Q 409.72 46.472 407.72 46.472 
L 296.968437 46.472 
Q 294.968437 46.472 294.968437 48.472 
L 294.968437 106.1845 
Q 294.968437 108.1845 296.968437 108.1845 
z
" style="fill: #ffffff; opacity: 0.8; stroke: #cccccc; stroke-linejoin: miter"/>
    </g>
    <g id="line2d_20">
     <path d="M 298.968437 54.570438 
L 308.968437 54.570438 
L 318.968437 54.570438 
" style="fill: none; stroke: #1f77b4; stroke-width: 1.5; stroke-linecap: square"/>
    </g>
    <g id="text_18">
     <!-- Energy -->
     <g transform="translate(326.968437 58.070438) scale(0.1 -0.1)">
      <use xlink:href="#DejaVuSans-45"/>
      <use xlink:href="#DejaVuSans-6e" transform="translate(63.183594 0)"/>
      <use xlink:href="#DejaVuSans-65" transform="translate(126.5625 0)"/>
      <use xlink:href="#DejaVuSans-72" transform="translate(188.085938 0)"/>
      <use xlink:href="#DejaVuSans-67" transform="translate(227.449219 0)"/>
      <use xlink:href="#DejaVuSans-79" transform="translate(290.925781 0)"/>
     </g>
    </g>
    <g id="line2d_21">
     <path d="M 298.968437 69.248563 
L 308.968437 69.248563 
L 318.968437 69.248563 
" style="fill: none; stroke-dasharray: 5.55,2.4; stroke-dashoffset: 0; stroke: #ff7f0e; stroke-width: 1.5"/>
    </g>
    <g id="text_19">
     <!-- Linear Fit -->
     <g transform="translate(326.968437 72.748563) scale(0.1 -0.1)">
      <defs>
       <path id="DejaVuSans-4c" d="M 628 4666 
L 1259 4666 
L 1259 531 
L 3531 531 
L 3531 0 
L 628 0 
L 628 4666 
z
" transform="scale(0.015625)"/>
       <path id="DejaVuSans-69" d="M 603 3500 
L 1178 3500 
L 1178 0 
L 603 0 
L 603 3500 
z
M 603 4863 
L 1178 4863 
L 1178 4134 
L 603 4134 
L 603 4863 
z
" transform="scale(0.015625)"/>
       <path id="DejaVuSans-46" d="M 628 4666 
L 3309 4666 
L 3309 4134 
L 1259 4134 
L 1259 2759 
L 3109 2759 
L 3109 2228 
L 1259 2228 
L 1259 0 
L 628 0 
L 628 4666 
z
" transform="scale(0.015625)"/>
       <path id="DejaVuSans-74" d="M 1172 4494 
L 1172 3500 
L 2356 3500 
L 2356 3053 
L 1172 3053 
L 1172 1153 
Q 1172 725 1289 603 
Q 1406 481 1766 481 
L 2356 481 
L 2356 0 
L 1766 0 
Q 1100 0 847 248 
Q 594 497 594 1153 
L 594 3053 
L 172 3053 
L 172 3500 
L 594 3500 
L 594 4494 
L 1172 4494 
z
" transform="scale(0.015625)"/>
      </defs>
      <use xlink:href="#DejaVuSans-4c"/>
      <use xlink:href="#DejaVuSans-69" transform="translate(55.712891 0)"/>
      <use xlink:href="#DejaVuSans-6e" transform="translate(83.496094 0)"/>
      <use xlink:href="#DejaVuSans-65" transform="translate(146.875 0)"/>
      <use xlink:href="#DejaVuSans-61" transform="translate(208.398438 0)"/>
      <use xlink:href="#DejaVuSans-72" transform="translate(269.677734 0)"/>
      <use xlink:href="#DejaVuSans-20" transform="translate(310.791016 0)"/>
      <use xlink:href="#DejaVuSans-46" transform="translate(342.578125 0)"/>
      <use xlink:href="#DejaVuSans-69" transform="translate(392.847656 0)"/>
      <use xlink:href="#DejaVuSans-74" transform="translate(420.630859 0)"/>
     </g>
    </g>
    <g id="line2d_22">
     <path d="M 298.968437 83.926688 
L 308.968437 83.926688 
L 318.968437 83.926688 
" style="fill: none; stroke-dasharray: 5.55,2.4; stroke-dashoffset: 0; stroke: #2ca02c; stroke-width: 1.5"/>
    </g>
    <g id="text_20">
     <!-- -60 dB -->
     <g transform="translate(326.968437 87.426688) scale(0.1 -0.1)">
      <defs>
       <path id="DejaVuSans-36" d="M 2113 2584 
Q 1688 2584 1439 2293 
Q 1191 2003 1191 1497 
Q 1191 994 1439 701 
Q 1688 409 2113 409 
Q 2538 409 2786 701 
Q 3034 994 3034 1497 
Q 3034 2003 2786 2293 
Q 2538 2584 2113 2584 
z
M 3366 4563 
L 3366 3988 
Q 3128 4100 2886 4159 
Q 2644 4219 2406 4219 
Q 1781 4219 1451 3797 
Q 1122 3375 1075 2522 
Q 1259 2794 1537 2939 
Q 1816 3084 2150 3084 
Q 2853 3084 3261 2657 
Q 3669 2231 3669 1497 
Q 3669 778 3244 343 
Q 2819 -91 2113 -91 
Q 1303 -91 875 529 
Q 447 1150 447 2328 
Q 447 3434 972 4092 
Q 1497 4750 2381 4750 
Q 2619 4750 2861 4703 
Q 3103 4656 3366 4563 
z
" transform="scale(0.015625)"/>
       <path id="DejaVuSans-64" d="M 2906 2969 
L 2906 4863 
L 3481 4863 
L 3481 0 
L 2906 0 
L 2906 525 
Q 2725 213 2448 61 
Q 2172 -91 1784 -91 
Q 1150 -91 751 415 
Q 353 922 353 1747 
Q 353 2572 751 3078 
Q 1150 3584 1784 3584 
Q 2172 3584 2448 3432 
Q 2725 3281 2906 2969 
z
M 947 1747 
Q 947 1113 1208 752 
Q 1469 391 1925 391 
Q 2381 391 2643 752 
Q 2906 1113 2906 1747 
Q 2906 2381 2643 2742 
Q 2381 3103 1925 3103 
Q 1469 3103 1208 2742 
Q 947 2381 947 1747 
z
" transform="scale(0.015625)"/>
       <path id="DejaVuSans-42" d="M 1259 2228 
L 1259 519 
L 2272 519 
Q 2781 519 3026 730 
Q 3272 941 3272 1375 
Q 3272 1813 3026 2020 
Q 2781 2228 2272 2228 
L 1259 2228 
z
M 1259 4147 
L 1259 2741 
L 2194 2741 
Q 2656 2741 2882 2914 
Q 3109 3088 3109 3444 
Q 3109 3797 2882 3972 
Q 2656 4147 2194 4147 
L 1259 4147 
z
M 628 4666 
L 2241 4666 
Q 2963 4666 3353 4366 
Q 3744 4066 3744 3513 
Q 3744 3084 3544 2831 
Q 3344 2578 2956 2516 
Q 3422 2416 3680 2098 
Q 3938 1781 3938 1306 
Q 3938 681 3513 340 
Q 3088 0 2303 0 
L 628 0 
L 628 4666 
z
" transform="scale(0.015625)"/>
      </defs>
      <use xlink:href="#DejaVuSans-2d"/>
      <use xlink:href="#DejaVuSans-36" transform="translate(36.083984 0)"/>
      <use xlink:href="#DejaVuSans-30" transform="translate(99.707031 0)"/>
      <use xlink:href="#DejaVuSans-20" transform="translate(163.330078 0)"/>
      <use xlink:href="#DejaVuSans-64" transform="translate(195.117188 0)"/>
      <use xlink:href="#DejaVuSans-42" transform="translate(258.59375 0)"/>
     </g>
    </g>
    <g id="line2d_23">
     <path d="M 298.968437 98.604813 
L 318.968437 98.604813 
" style="fill: none; stroke-dasharray: 5.55,2.4; stroke-dashoffset: 0; stroke: #1f77b4; stroke-width: 1.5"/>
    </g>
    <g id="text_21">
     <!-- Estimated RT60 -->
     <g transform="translate(326.968437 102.104813) scale(0.1 -0.1)">
      <defs>
       <path id="DejaVuSans-73" d="M 2834 3397 
L 2834 2853 
Q 2591 2978 2328 3040 
Q 2066 3103 1784 3103 
Q 1356 3103 1142 2972 
Q 928 2841 928 2578 
Q 928 2378 1081 2264 
Q 1234 2150 1697 2047 
L 1894 2003 
Q 2506 1872 2764 1633 
Q 3022 1394 3022 966 
Q 3022 478 2636 193 
Q 2250 -91 1575 -91 
Q 1294 -91 989 -36 
Q 684 19 347 128 
L 347 722 
Q 666 556 975 473 
Q 1284 391 1588 391 
Q 1994 391 2212 530 
Q 2431 669 2431 922 
Q 2431 1156 2273 1281 
Q 2116 1406 1581 1522 
L 1381 1569 
Q 847 1681 609 1914 
Q 372 2147 372 2553 
Q 372 3047 722 3315 
Q 1072 3584 1716 3584 
Q 2034 3584 2315 3537 
Q 2597 3491 2834 3397 
z
" transform="scale(0.015625)"/>
       <path id="DejaVuSans-6d" d="M 3328 2828 
Q 3544 3216 3844 3400 
Q 4144 3584 4550 3584 
Q 5097 3584 5394 3201 
Q 5691 2819 5691 2113 
L 5691 0 
L 5113 0 
L 5113 2094 
Q 5113 2597 4934 2840 
Q 4756 3084 4391 3084 
Q 3944 3084 3684 2787 
Q 3425 2491 3425 1978 
L 3425 0 
L 2847 0 
L 2847 2094 
Q 2847 2600 2669 2842 
Q 2491 3084 2119 3084 
Q 1678 3084 1418 2786 
Q 1159 2488 1159 1978 
L 1159 0 
L 581 0 
L 581 3500 
L 1159 3500 
L 1159 2956 
Q 1356 3278 1631 3431 
Q 1906 3584 2284 3584 
Q 2666 3584 2933 3390 
Q 3200 3197 3328 2828 
z
" transform="scale(0.015625)"/>
       <path id="DejaVuSans-52" d="M 2841 2188 
Q 3044 2119 3236 1894 
Q 3428 1669 3622 1275 
L 4263 0 
L 3584 0 
L 2988 1197 
Q 2756 1666 2539 1819 
Q 2322 1972 1947 1972 
L 1259 1972 
L 1259 0 
L 628 0 
L 628 4666 
L 2053 4666 
Q 2853 4666 3247 4331 
Q 3641 3997 3641 3322 
Q 3641 2881 3436 2590 
Q 3231 2300 2841 2188 
z
M 1259 4147 
L 1259 2491 
L 2053 2491 
Q 2509 2491 2742 2702 
Q 2975 2913 2975 3322 
Q 2975 3731 2742 3939 
Q 2509 4147 2053 4147 
L 1259 4147 
z
" transform="scale(0.015625)"/>
       <path id="DejaVuSans-54" d="M -19 4666 
L 3928 4666 
L 3928 4134 
L 2272 4134 
L 2272 0 
L 1638 0 
L 1638 4134 
L -19 4134 
L -19 4666 
z
" transform="scale(0.015625)"/>
      </defs>
      <use xlink:href="#DejaVuSans-45"/>
      <use xlink:href="#DejaVuSans-73" transform="translate(63.183594 0)"/>
      <use xlink:href="#DejaVuSans-74" transform="translate(115.283203 0)"/>
      <use xlink:href="#DejaVuSans-69" transform="translate(154.492188 0)"/>
      <use xlink:href="#DejaVuSans-6d" transform="translate(182.275391 0)"/>
      <use xlink:href="#DejaVuSans-61" transform="translate(279.6875 0)"/>
      <use xlink:href="#DejaVuSans-74" transform="translate(340.966797 0)"/>
      <use xlink:href="#DejaVuSans-65" transform="translate(380.175781 0)"/>
      <use xlink:href="#DejaVuSans-64" transform="translate(441.699219 0)"/>
      <use xlink:href="#DejaVuSans-20" transform="translate(505.175781 0)"/>
      <use xlink:href="#DejaVuSans-52" transform="translate(536.962891 0)"/>
      <use xlink:href="#DejaVuSans-54" transform="translate(599.195312 0)"/>
      <use xlink:href="#DejaVuSans-36" transform="translate(660.279297 0)"/>
      <use xlink:href="#DejaVuSans-30" transform="translate(723.902344 0)"/>
     </g>
    </g>
   </g>
  </g>
 </g>
 <defs>
  <clipPath id="pad28fae397">
   <rect x="57.6" y="41.472" width="357.12" height="266.112"/>
  </clipPath>
 </defs>
</svg>
