<?xml version="1.0" encoding="utf-8" standalone="no"?>
<!DOCTYPE svg PUBLIC "-//W3C//DTD SVG 1.1//EN"
  "http://www.w3.org/Graphics/SVG/1.1/DTD/svg11.dtd">
<svg xmlns:xlink="http://www.w3.org/1999/xlink" width="460.8pt" height="345.6pt" viewBox="0 0 460.8 345.6" xmlns="http://www.w3.org/2000/svg" version="1.1">
 <metadata>
  <rdf:RDF xmlns:dc="http://purl.org/dc/elements/1.1/" xmlns:cc="http://creativecommons.org/ns#" xmlns:rdf="http://www.w3.org/1999/02/22-rdf-syntax-ns#">
   <cc:Work>
    <dc:type rdf:resource="http://purl.org/dc/dcmitype/StillImage"/>
    <dc:date>2025-05-07T13:31:41.072485</dc:date>
    <dc:format>image/svg+xml</dc:format>
    <dc:creator>
     <cc:Agent>
      <dc:title>Matplotlib v3.10.1, https://matplotlib.org/</dc:title>
     </cc:Agent>
    </dc:creator>
   </cc:Work>
  </rdf:RDF>
 </metadata>
 <defs>
  <style type="text/css">*{stroke-linejoin: round; stroke-linecap: butt}</style>
 </defs>
 <g id="figure_1">
  <g id="patch_1">
   <path d="M 0 345.6 
L 460.8 345.6 
L 460.8 0 
L 0 0 
z
" style="fill: #ffffff"/>
  </g>
  <g id="axes_1">
   <g id="patch_2">
    <path d="M 57.6 307.584 
L 414.72 307.584 
L 414.72 41.472 
L 57.6 41.472 
z
" style="fill: #ffffff"/>
   </g>
   <g id="matplotlib.axis_1">
    <g id="xtick_1">
     <g id="line2d_1">
      <defs>
       <path id="me50fe4e7b4" d="M 0 0 
L 0 3.5 
" style="stroke: #000000; stroke-width: 0.8"/>
      </defs>
      <g>
       <use xlink:href="#me50fe4e7b4" x="68.002473" y="307.584" style="stroke: #000000; stroke-width: 0.8"/>
      </g>
     </g>
     <g id="text_1">
      <!-- −0.2 -->
      <g transform="translate(55.861066 322.182437) scale(0.1 -0.1)">
       <defs>
        <path id="DejaVuSans-2212" d="M 678 2272 
L 4684 2272 
L 4684 1741 
L 678 1741 
L 678 2272 
z
" transform="scale(0.015625)"/>
        <path id="DejaVuSans-30" d="M 2034 4250 
Q 1547 4250 1301 3770 
Q 1056 3291 1056 2328 
Q 1056 1369 1301 889 
Q 1547 409 2034 409 
Q 2525 409 2770 889 
Q 3016 1369 3016 2328 
Q 3016 3291 2770 3770 
Q 2525 4250 2034 4250 
z
M 2034 4750 
Q 2819 4750 3233 4129 
Q 3647 3509 3647 2328 
Q 3647 1150 3233 529 
Q 2819 -91 2034 -91 
Q 1250 -91 836 529 
Q 422 1150 422 2328 
Q 422 3509 836 4129 
Q 1250 4750 2034 4750 
z
" transform="scale(0.015625)"/>
        <path id="DejaVuSans-2e" d="M 684 794 
L 1344 794 
L 1344 0 
L 684 0 
L 684 794 
z
" transform="scale(0.015625)"/>
        <path id="DejaVuSans-32" d="M 1228 531 
L 3431 531 
L 3431 0 
L 469 0 
L 469 531 
Q 828 903 1448 1529 
Q 2069 2156 2228 2338 
Q 2531 2678 2651 2914 
Q 2772 3150 2772 3378 
Q 2772 3750 2511 3984 
Q 2250 4219 1831 4219 
Q 1534 4219 1204 4116 
Q 875 4013 500 3803 
L 500 4441 
Q 881 4594 1212 4672 
Q 1544 4750 1819 4750 
Q 2544 4750 2975 4387 
Q 3406 4025 3406 3419 
Q 3406 3131 3298 2873 
Q 3191 2616 2906 2266 
Q 2828 2175 2409 1742 
Q 1991 1309 1228 531 
z
" transform="scale(0.015625)"/>
       </defs>
       <use xlink:href="#DejaVuSans-2212"/>
       <use xlink:href="#DejaVuSans-30" transform="translate(83.789062 0)"/>
       <use xlink:href="#DejaVuSans-2e" transform="translate(147.412109 0)"/>
       <use xlink:href="#DejaVuSans-32" transform="translate(179.199219 0)"/>
      </g>
     </g>
    </g>
    <g id="xtick_2">
     <g id="line2d_2">
      <g>
       <use xlink:href="#me50fe4e7b4" x="132.933382" y="307.584" style="stroke: #000000; stroke-width: 0.8"/>
      </g>
     </g>
     <g id="text_2">
      <!-- 0.0 -->
      <g transform="translate(124.981819 322.182437) scale(0.1 -0.1)">
       <use xlink:href="#DejaVuSans-30"/>
       <use xlink:href="#DejaVuSans-2e" transform="translate(63.623047 0)"/>
       <use xlink:href="#DejaVuSans-30" transform="translate(95.410156 0)"/>
      </g>
     </g>
    </g>
    <g id="xtick_3">
     <g id="line2d_3">
      <g>
       <use xlink:href="#me50fe4e7b4" x="197.864291" y="307.584" style="stroke: #000000; stroke-width: 0.8"/>
      </g>
     </g>
     <g id="text_3">
      <!-- 0.2 -->
      <g transform="translate(189.912728 322.182437) scale(0.1 -0.1)">
       <use xlink:href="#DejaVuSans-30"/>
       <use xlink:href="#DejaVuSans-2e" transform="translate(63.623047 0)"/>
       <use xlink:href="#DejaVuSans-32" transform="translate(95.410156 0)"/>
      </g>
     </g>
    </g>
    <g id="xtick_4">
     <g id="line2d_4">
      <g>
       <use xlink:href="#me50fe4e7b4" x="262.7952" y="307.584" style="stroke: #000000; stroke-width: 0.8"/>
      </g>
     </g>
     <g id="text_4">
      <!-- 0.4 -->
      <g transform="translate(254.843637 322.182437) scale(0.1 -0.1)">
       <defs>
        <path id="DejaVuSans-34" d="M 2419 4116 
L 825 1625 
L 2419 1625 
L 2419 4116 
z
M 2253 4666 
L 3047 4666 
L 3047 1625 
L 3713 1625 
L 3713 1100 
L 3047 1100 
L 3047 0 
L 2419 0 
L 2419 1100 
L 313 1100 
L 313 1709 
L 2253 4666 
z
" transform="scale(0.015625)"/>
       </defs>
       <use xlink:href="#DejaVuSans-30"/>
       <use xlink:href="#DejaVuSans-2e" transform="translate(63.623047 0)"/>
       <use xlink:href="#DejaVuSans-34" transform="translate(95.410156 0)"/>
      </g>
     </g>
    </g>
    <g id="xtick_5">
     <g id="line2d_5">
      <g>
       <use xlink:href="#me50fe4e7b4" x="327.726109" y="307.584" style="stroke: #000000; stroke-width: 0.8"/>
      </g>
     </g>
     <g id="text_5">
      <!-- 0.6 -->
      <g transform="translate(319.774547 322.182437) scale(0.1 -0.1)">
       <defs>
        <path id="DejaVuSans-36" d="M 2113 2584 
Q 1688 2584 1439 2293 
Q 1191 2003 1191 1497 
Q 1191 994 1439 701 
Q 1688 409 2113 409 
Q 2538 409 2786 701 
Q 3034 994 3034 1497 
Q 3034 2003 2786 2293 
Q 2538 2584 2113 2584 
z
M 3366 4563 
L 3366 3988 
Q 3128 4100 2886 4159 
Q 2644 4219 2406 4219 
Q 1781 4219 1451 3797 
Q 1122 3375 1075 2522 
Q 1259 2794 1537 2939 
Q 1816 3084 2150 3084 
Q 2853 3084 3261 2657 
Q 3669 2231 3669 1497 
Q 3669 778 3244 343 
Q 2819 -91 2113 -91 
Q 1303 -91 875 529 
Q 447 1150 447 2328 
Q 447 3434 972 4092 
Q 1497 4750 2381 4750 
Q 2619 4750 2861 4703 
Q 3103 4656 3366 4563 
z
" transform="scale(0.015625)"/>
       </defs>
       <use xlink:href="#DejaVuSans-30"/>
       <use xlink:href="#DejaVuSans-2e" transform="translate(63.623047 0)"/>
       <use xlink:href="#DejaVuSans-36" transform="translate(95.410156 0)"/>
      </g>
     </g>
    </g>
    <g id="xtick_6">
     <g id="line2d_6">
      <g>
       <use xlink:href="#me50fe4e7b4" x="392.657018" y="307.584" style="stroke: #000000; stroke-width: 0.8"/>
      </g>
     </g>
     <g id="text_6">
      <!-- 0.8 -->
      <g transform="translate(384.705456 322.182437) scale(0.1 -0.1)">
       <defs>
        <path id="DejaVuSans-38" d="M 2034 2216 
Q 1584 2216 1326 1975 
Q 1069 1734 1069 1313 
Q 1069 891 1326 650 
Q 1584 409 2034 409 
Q 2484 409 2743 651 
Q 3003 894 3003 1313 
Q 3003 1734 2745 1975 
Q 2488 2216 2034 2216 
z
M 1403 2484 
Q 997 2584 770 2862 
Q 544 3141 544 3541 
Q 544 4100 942 4425 
Q 1341 4750 2034 4750 
Q 2731 4750 3128 4425 
Q 3525 4100 3525 3541 
Q 3525 3141 3298 2862 
Q 3072 2584 2669 2484 
Q 3125 2378 3379 2068 
Q 3634 1759 3634 1313 
Q 3634 634 3220 271 
Q 2806 -91 2034 -91 
Q 1263 -91 848 271 
Q 434 634 434 1313 
Q 434 1759 690 2068 
Q 947 2378 1403 2484 
z
M 1172 3481 
Q 1172 3119 1398 2916 
Q 1625 2713 2034 2713 
Q 2441 2713 2670 2916 
Q 2900 3119 2900 3481 
Q 2900 3844 2670 4047 
Q 2441 4250 2034 4250 
Q 1625 4250 1398 4047 
Q 1172 3844 1172 3481 
z
" transform="scale(0.015625)"/>
       </defs>
       <use xlink:href="#DejaVuSans-30"/>
       <use xlink:href="#DejaVuSans-2e" transform="translate(63.623047 0)"/>
       <use xlink:href="#DejaVuSans-38" transform="translate(95.410156 0)"/>
      </g>
     </g>
    </g>
   </g>
   <g id="matplotlib.axis_2">
    <g id="ytick_1">
     <g id="line2d_7">
      <defs>
       <path id="m5f225d79a6" d="M 0 0 
L -3.5 0 
" style="stroke: #000000; stroke-width: 0.8"/>
      </defs>
      <g>
       <use xlink:href="#m5f225d79a6" x="57.6" y="287.801802" style="stroke: #000000; stroke-width: 0.8"/>
      </g>
     </g>
     <g id="text_7">
      <!-- −175 -->
      <g transform="translate(23.132812 291.60102) scale(0.1 -0.1)">
       <defs>
        <path id="DejaVuSans-31" d="M 794 531 
L 1825 531 
L 1825 4091 
L 703 3866 
L 703 4441 
L 1819 4666 
L 2450 4666 
L 2450 531 
L 3481 531 
L 3481 0 
L 794 0 
L 794 531 
z
" transform="scale(0.015625)"/>
        <path id="DejaVuSans-37" d="M 525 4666 
L 3525 4666 
L 3525 4397 
L 1831 0 
L 1172 0 
L 2766 4134 
L 525 4134 
L 525 4666 
z
" transform="scale(0.015625)"/>
        <path id="DejaVuSans-35" d="M 691 4666 
L 3169 4666 
L 3169 4134 
L 1269 4134 
L 1269 2991 
Q 1406 3038 1543 3061 
Q 1681 3084 1819 3084 
Q 2600 3084 3056 2656 
Q 3513 2228 3513 1497 
Q 3513 744 3044 326 
Q 2575 -91 1722 -91 
Q 1428 -91 1123 -41 
Q 819 9 494 109 
L 494 744 
Q 775 591 1075 516 
Q 1375 441 1709 441 
Q 2250 441 2565 725 
Q 2881 1009 2881 1497 
Q 2881 1984 2565 2268 
Q 2250 2553 1709 2553 
Q 1456 2553 1204 2497 
Q 953 2441 691 2322 
L 691 4666 
z
" transform="scale(0.015625)"/>
       </defs>
       <use xlink:href="#DejaVuSans-2212"/>
       <use xlink:href="#DejaVuSans-31" transform="translate(83.789062 0)"/>
       <use xlink:href="#DejaVuSans-37" transform="translate(147.412109 0)"/>
       <use xlink:href="#DejaVuSans-35" transform="translate(211.035156 0)"/>
      </g>
     </g>
    </g>
    <g id="ytick_2">
     <g id="line2d_8">
      <g>
       <use xlink:href="#m5f225d79a6" x="57.6" y="254.33983" style="stroke: #000000; stroke-width: 0.8"/>
      </g>
     </g>
     <g id="text_8">
      <!-- −150 -->
      <g transform="translate(23.132812 258.139049) scale(0.1 -0.1)">
       <use xlink:href="#DejaVuSans-2212"/>
       <use xlink:href="#DejaVuSans-31" transform="translate(83.789062 0)"/>
       <use xlink:href="#DejaVuSans-35" transform="translate(147.412109 0)"/>
       <use xlink:href="#DejaVuSans-30" transform="translate(211.035156 0)"/>
      </g>
     </g>
    </g>
    <g id="ytick_3">
     <g id="line2d_9">
      <g>
       <use xlink:href="#m5f225d79a6" x="57.6" y="220.877858" style="stroke: #000000; stroke-width: 0.8"/>
      </g>
     </g>
     <g id="text_9">
      <!-- −125 -->
      <g transform="translate(23.132812 224.677077) scale(0.1 -0.1)">
       <use xlink:href="#DejaVuSans-2212"/>
       <use xlink:href="#DejaVuSans-31" transform="translate(83.789062 0)"/>
       <use xlink:href="#DejaVuSans-32" transform="translate(147.412109 0)"/>
       <use xlink:href="#DejaVuSans-35" transform="translate(211.035156 0)"/>
      </g>
     </g>
    </g>
    <g id="ytick_4">
     <g id="line2d_10">
      <g>
       <use xlink:href="#m5f225d79a6" x="57.6" y="187.415887" style="stroke: #000000; stroke-width: 0.8"/>
      </g>
     </g>
     <g id="text_10">
      <!-- −100 -->
      <g transform="translate(23.132812 191.215105) scale(0.1 -0.1)">
       <use xlink:href="#DejaVuSans-2212"/>
       <use xlink:href="#DejaVuSans-31" transform="translate(83.789062 0)"/>
       <use xlink:href="#DejaVuSans-30" transform="translate(147.412109 0)"/>
       <use xlink:href="#DejaVuSans-30" transform="translate(211.035156 0)"/>
      </g>
     </g>
    </g>
    <g id="ytick_5">
     <g id="line2d_11">
      <g>
       <use xlink:href="#m5f225d79a6" x="57.6" y="153.953915" style="stroke: #000000; stroke-width: 0.8"/>
      </g>
     </g>
     <g id="text_11">
      <!-- −75 -->
      <g transform="translate(29.495313 157.753134) scale(0.1 -0.1)">
       <use xlink:href="#DejaVuSans-2212"/>
       <use xlink:href="#DejaVuSans-37" transform="translate(83.789062 0)"/>
       <use xlink:href="#DejaVuSans-35" transform="translate(147.412109 0)"/>
      </g>
     </g>
    </g>
    <g id="ytick_6">
     <g id="line2d_12">
      <g>
       <use xlink:href="#m5f225d79a6" x="57.6" y="120.491943" style="stroke: #000000; stroke-width: 0.8"/>
      </g>
     </g>
     <g id="text_12">
      <!-- −50 -->
      <g transform="translate(29.495313 124.291162) scale(0.1 -0.1)">
       <use xlink:href="#DejaVuSans-2212"/>
       <use xlink:href="#DejaVuSans-35" transform="translate(83.789062 0)"/>
       <use xlink:href="#DejaVuSans-30" transform="translate(147.412109 0)"/>
      </g>
     </g>
    </g>
    <g id="ytick_7">
     <g id="line2d_13">
      <g>
       <use xlink:href="#m5f225d79a6" x="57.6" y="87.029972" style="stroke: #000000; stroke-width: 0.8"/>
      </g>
     </g>
     <g id="text_13">
      <!-- −25 -->
      <g transform="translate(29.495313 90.82919) scale(0.1 -0.1)">
       <use xlink:href="#DejaVuSans-2212"/>
       <use xlink:href="#DejaVuSans-32" transform="translate(83.789062 0)"/>
       <use xlink:href="#DejaVuSans-35" transform="translate(147.412109 0)"/>
      </g>
     </g>
    </g>
    <g id="ytick_8">
     <g id="line2d_14">
      <g>
       <use xlink:href="#m5f225d79a6" x="57.6" y="53.568" style="stroke: #000000; stroke-width: 0.8"/>
      </g>
     </g>
     <g id="text_14">
      <!-- 0 -->
      <g transform="translate(44.2375 57.367219) scale(0.1 -0.1)">
       <use xlink:href="#DejaVuSans-30"/>
      </g>
     </g>
    </g>
   </g>
   <g id="line2d_15">
    <path d="M 73.832727 53.568 
L 126.677018 53.632948 
L 126.893455 54.500139 
L 127.197818 55.142994 
L 127.603636 55.207285 
L 127.914764 55.332101 
L 128.063564 55.399299 
L 128.117673 55.522282 
L 128.3544 55.942614 
L 129.024 56.111367 
L 129.159273 56.272295 
L 129.707127 56.64088 
L 129.855927 56.892427 
L 130.038545 57.216503 
L 130.640509 57.469968 
L 131.343927 58.480074 
L 131.513018 58.814863 
L 131.871491 59.091145 
L 132.027055 59.411605 
L 132.5952 59.945768 
L 132.730473 60.105153 
L 133.224218 60.59388 
L 133.359491 60.642215 
L 133.433891 60.775254 
L 133.690909 61.04837 
L 133.968218 61.199605 
L 134.103491 61.272916 
L 134.468727 61.496341 
L 134.6784 61.569345 
L 134.915127 61.688803 
L 135.077455 61.812118 
L 135.172145 61.889018 
L 135.334473 62.222014 
L 135.456218 62.320629 
L 135.598255 62.560635 
L 135.753818 62.671079 
L 136.3152 63.041196 
L 136.768364 63.500889 
L 136.896873 63.623097 
L 137.045673 63.707088 
L 137.390618 63.90982 
L 137.539418 64.029344 
L 137.715273 64.149799 
L 137.864073 64.287857 
L 138.148145 64.427221 
L 138.310473 64.558004 
L 138.526909 64.678331 
L 138.668945 64.805033 
L 139.088291 65.106521 
L 139.967564 65.808016 
L 140.136655 66.122807 
L 140.427491 66.37804 
L 140.522182 66.496815 
L 141.421745 67.061699 
L 141.604364 67.171233 
L 141.732873 67.399832 
L 141.8952 67.562734 
L 142.084582 67.751512 
L 142.260436 68.049736 
L 142.781236 68.407928 
L 142.923273 68.492939 
L 143.0856 68.622125 
L 143.207345 68.701333 
L 143.437309 68.771446 
L 143.728145 68.897957 
L 144.309818 69.395633 
L 144.485673 69.600989 
L 144.742691 69.923339 
L 144.8712 70.058758 
L 145.344655 70.316221 
L 145.520509 70.457384 
L 145.878982 70.633204 
L 147.306109 71.650159 
L 147.766036 72.042382 
L 148.124509 72.161952 
L 149.145818 72.715762 
L 149.301382 72.774172 
L 149.747782 73.057194 
L 149.923636 73.185167 
L 150.167127 73.379239 
L 150.336218 73.471671 
L 150.721745 73.66478 
L 150.843491 73.785468 
L 152.074473 74.640211 
L 152.399127 74.757073 
L 153.197236 75.28628 
L 153.332509 75.404146 
L 154.333527 76.223557 
L 154.4688 76.333897 
L 154.637891 76.517614 
L 154.786691 76.646716 
L 155.774182 77.056412 
L 157.268945 77.933663 
L 157.620655 78.04629 
L 158.736655 78.836089 
L 158.892218 78.930509 
L 159.020727 79.036308 
L 159.223636 79.183132 
L 159.548291 79.321537 
L 159.866182 79.865366 
L 159.9744 79.971304 
L 160.190836 80.11084 
L 160.244945 80.226424 
L 160.393745 80.350534 
L 160.488436 80.461706 
L 160.772509 80.641497 
L 160.9416 80.749518 
L 161.218909 80.917285 
L 161.523273 81.068618 
L 161.692364 81.159778 
L 161.942618 81.312347 
L 162.558109 81.494353 
L 162.943636 81.738891 
L 163.092436 81.894117 
L 163.937891 82.278964 
L 164.113745 82.521765 
L 164.492509 82.629832 
L 164.675127 82.683072 
L 164.938909 82.808407 
L 165.128291 82.88198 
L 165.371782 83.026863 
L 165.581455 83.139918 
L 165.696436 83.25076 
L 165.852 83.346707 
L 166.237527 83.467452 
L 166.717745 83.719021 
L 167.008582 83.823705 
L 167.759345 84.532177 
L 168.084 84.646294 
L 168.449236 85.010219 
L 168.665673 85.12788 
L 169.0512 85.604676 
L 169.314982 85.719967 
L 169.450255 85.759414 
L 169.680218 85.870919 
L 169.849309 85.998034 
L 169.984582 86.142472 
L 170.133382 86.267079 
L 170.234836 86.371649 
L 170.478327 86.495814 
L 170.674473 86.600551 
L 170.8368 86.704731 
L 171.296727 86.842455 
L 171.465818 86.949089 
L 171.702545 87.064711 
L 172.054255 87.18113 
L 172.872655 87.564896 
L 173.285236 87.715738 
L 173.467855 87.900751 
L 174.090109 88.296551 
L 174.353891 88.405825 
L 175.693091 88.926772 
L 176.132727 89.030238 
L 176.301818 89.259998 
L 176.437091 89.369621 
L 176.619709 89.591497 
L 177.559855 90.020651 
L 177.884509 90.303602 
L 178.019782 90.418679 
L 178.2024 90.521079 
L 178.533818 90.624408 
L 178.838182 90.878137 
L 178.966691 90.989801 
L 179.331927 91.133855 
L 179.501018 91.27575 
L 179.676873 91.39589 
L 179.8392 91.492675 
L 179.994764 91.58302 
L 180.265309 91.739678 
L 180.441164 91.882022 
L 180.556145 92.010327 
L 180.982255 92.506739 
L 181.266327 92.840503 
L 181.394836 93.006803 
L 181.915636 93.117468 
L 182.436436 93.330813 
L 182.605527 93.503023 
L 183.518618 93.843983 
L 183.728291 93.872298 
L 184.458764 94.322341 
L 186.393164 95.172544 
L 186.7584 95.283382 
L 187.116873 95.453851 
L 187.367127 95.584581 
L 187.752655 95.663714 
L 188.334327 95.833581 
L 188.422255 95.94686 
L 188.564291 96.068922 
L 189.173018 96.324296 
L 189.646473 96.561063 
L 189.795273 96.699259 
L 190.356655 97.024068 
L 190.491927 97.126996 
L 190.633964 97.223856 
L 190.809818 97.349079 
L 190.945091 97.423355 
L 191.208873 97.574454 
L 193.988727 98.852886 
L 194.252509 98.960192 
L 194.408073 99.041707 
L 194.502764 99.138627 
L 194.685382 99.445415 
L 194.928873 99.602378 
L 195.199418 99.757359 
L 195.571418 99.873263 
L 196.085455 100.21364 
L 196.274836 100.368299 
L 196.450691 100.484931 
L 196.592727 100.57226 
L 200.975564 102.530074 
L 201.131127 102.638865 
L 201.401673 102.745583 
L 201.780436 103.143766 
L 202.057745 103.338494 
L 202.2336 103.47266 
L 205.175782 105.030092 
L 205.9536 105.424933 
L 206.3256 105.551911 
L 206.731418 105.8208 
L 207.840655 106.136526 
L 208.226182 106.252072 
L 208.970182 106.383528 
L 209.112218 106.497272 
L 209.308364 106.63847 
L 209.470691 106.747646 
L 209.977964 106.879019 
L 210.424364 106.981384 
L 210.5664 107.068013 
L 211.526836 107.607878 
L 211.689164 107.678705 
L 211.952945 107.788661 
L 212.257309 107.90624 
L 212.913382 108.064075 
L 213.312436 108.184025 
L 213.576218 108.439253 
L 214.069964 108.566258 
L 214.320218 108.700324 
L 214.502836 108.838123 
L 215.828509 109.448718 
L 215.9976 109.556835 
L 216.200509 109.711185 
L 217.005382 109.914276 
L 217.154182 109.981292 
L 217.539709 110.086809 
L 217.695273 110.169041 
L 218.946545 110.434352 
L 219.149455 110.468533 
L 219.622909 110.57877 
L 219.879927 110.650322 
L 220.062545 110.764984 
L 220.380436 110.833415 
L 221.171782 111.025808 
L 221.435564 111.235912 
L 223.5864 111.885077 
L 223.796073 111.954664 
L 224.445382 112.145386 
L 224.7024 112.261642 
L 225.331418 112.392355 
L 225.527564 112.430465 
L 226.075418 112.558664 
L 227.130545 112.802347 
L 227.543127 112.847898 
L 227.867782 112.965042 
L 228.1248 113.002044 
L 228.490036 113.146497 
L 228.6456 113.219952 
L 229.5384 113.645861 
L 230.079491 113.788077 
L 230.336509 113.850987 
L 230.884364 113.996362 
L 231.181964 114.215726 
L 231.953018 114.338221 
L 233.069018 114.840701 
L 233.251636 114.939658 
L 233.488364 115.087811 
L 233.650691 115.196567 
L 234.036218 115.293833 
L 234.408218 115.407057 
L 234.611127 115.54067 
L 235.497164 115.67442 
L 235.8624 115.736046 
L 236.660509 115.847376 
L 237.587127 116.108729 
L 237.769745 116.192535 
L 239.068364 116.466507 
L 239.602691 116.899059 
L 240.265527 117.010057 
L 241.063636 117.17899 
L 241.401818 117.339642 
L 241.800873 117.448679 
L 242.504291 117.598887 
L 242.957455 117.709047 
L 243.173891 117.867466 
L 243.572945 117.976413 
L 244.086982 118.079852 
L 244.682182 118.227244 
L 246.914182 118.798874 
L 247.570255 118.911851 
L 247.773164 118.941608 
L 248.578036 119.078476 
L 250.972364 119.450539 
L 252.358909 119.648954 
L 252.6024 119.689514 
L 254.022764 119.915515 
L 254.888509 120.028674 
L 255.585164 120.1767 
L 256.011273 120.22832 
L 256.7688 120.344813 
L 258.094473 120.572777 
L 259.366036 120.754894 
L 259.677164 120.854988 
L 260.948727 121.01003 
L 261.726545 121.060782 
L 262.375855 121.170431 
L 262.741091 121.220373 
L 264.032945 121.346623 
L 264.330545 121.386687 
L 265.013673 121.498161 
L 265.297745 121.541685 
L 267.286255 121.754011 
L 267.475636 121.798861 
L 268.605164 121.916495 
L 269.281527 122.018031 
L 270.194618 122.133115 
L 272.014036 122.338219 
L 273.143564 122.457155 
L 273.447927 122.493185 
L 274.888582 122.613287 
L 275.165891 122.644804 
L 276.714764 122.769909 
L 277.999855 122.859067 
L 279.210545 122.974575 
L 280.894691 123.127685 
L 281.909236 123.260082 
L 285.967418 123.624292 
L 287.732727 123.740724 
L 317.350691 126.601381 
L 317.573891 126.63065 
L 322.267855 127.1174 
L 322.531636 127.15732 
L 323.681455 127.271151 
L 324.405164 127.35849 
L 325.176218 127.470349 
L 326.380145 127.602394 
L 326.7048 127.662847 
L 328.044 127.799114 
L 328.476873 127.889719 
L 331.0944 128.218642 
L 331.527273 128.272778 
L 332.595927 128.414625 
L 333.339927 128.548308 
L 333.6984 128.626837 
L 334.841455 128.791371 
L 335.125527 128.872544 
L 335.450182 128.905917 
L 338.689964 129.432187 
L 338.967273 129.468758 
L 339.772145 129.581648 
L 348.152291 131.211067 
L 348.368727 131.256846 
L 349.187127 131.378363 
L 349.369745 131.432142 
L 350.472218 131.660262 
L 350.668364 131.713885 
L 351.344727 131.853373 
L 351.5544 131.902961 
L 352.4472 132.027926 
L 352.677164 132.064598 
L 353.285891 132.179163 
L 353.448218 132.28401 
L 353.887855 132.394789 
L 354.435709 132.501895 
L 354.997091 132.611748 
L 356.065745 132.936129 
L 356.945018 133.14202 
L 359.082327 133.872135 
L 359.528727 133.998779 
L 359.914255 134.148 
L 361.537527 134.651913 
L 361.6728 134.731395 
L 363.728945 135.473948 
L 364.094182 135.581981 
L 364.479709 135.745416 
L 364.959927 135.85174 
L 365.237236 135.941975 
L 365.426618 136.04628 
L 365.7648 136.237799 
L 367.164873 136.818063 
L 367.746545 136.948215 
L 368.132073 137.173394 
L 368.307927 137.278929 
L 368.882836 137.932819 
L 369.126327 138.073159 
L 369.850036 138.863186 
L 370.059709 138.982654 
L 370.330255 139.103113 
L 370.580509 139.218194 
L 371.459782 139.668999 
L 371.622109 139.804055 
L 371.845309 139.912331 
L 371.973818 140.027844 
L 372.054982 140.138666 
L 372.636655 140.370479 
L 372.866618 140.435326 
L 373.076291 140.547199 
L 373.644436 141.039559 
L 373.766182 141.144675 
L 374.259927 141.544168 
L 374.415491 141.71026 
L 374.672509 141.832383 
L 374.855127 141.983632 
L 375.010691 142.137113 
L 375.179782 142.284345 
L 375.328582 142.392568 
L 375.477382 142.515581 
L 375.524727 142.622511 
L 375.781745 142.9098 
L 376.045527 143.069157 
L 376.248436 143.269225 
L 376.383709 143.399559 
L 376.410764 143.497362 
L 376.539273 143.757198 
L 376.728655 143.949198 
L 377.026255 144.268407 
L 377.168291 144.504333 
L 377.337382 144.662949 
L 377.472655 144.742789 
L 377.52 144.824397 
L 377.702618 145.1661 
L 377.898764 145.280644 
L 378.027273 145.394374 
L 378.365455 145.512359 
L 378.568364 145.601024 
L 378.737455 145.715677 
L 379.0824 146.715471 
L 379.494982 147.278414 
L 379.650545 147.397206 
L 379.894036 147.796978 
L 379.981964 147.885136 
L 380.144291 148.216666 
L 380.692145 148.895432 
L 380.847709 149.169957 
L 381.010036 149.250205 
L 381.111491 149.344427 
L 381.260291 149.612286 
L 381.300873 149.689593 
L 381.4632 150.122292 
L 381.571418 150.232418 
L 381.767564 150.47207 
L 381.896073 150.742556 
L 381.936655 150.859864 
L 382.085455 150.952386 
L 382.254545 151.055774 
L 382.748291 152.145303 
L 382.795636 152.23126 
L 383.066182 153.061142 
L 383.3232 153.368923 
L 383.444945 153.518191 
L 383.586982 153.694674 
L 383.729018 154.102021 
L 383.891345 154.256392 
L 384.128073 154.792883 
L 384.270109 155.021983 
L 384.297164 155.131391 
L 384.452727 155.585629 
L 384.709745 156.146567 
L 385.250836 156.896897 
L 385.440218 157.08006 
L 385.818982 157.608028 
L 385.961018 158.09776 
L 386.603564 159.126579 
L 386.677964 159.244667 
L 386.989091 160.081216 
L 387.239345 160.165868 
L 387.388145 160.538944 
L 388.368873 162.45672 
L 388.429745 162.591684 
L 388.592073 162.833745 
L 388.720582 162.956963 
L 389.085818 163.973852 
L 389.2008 164.137919 
L 389.363127 164.819025 
L 389.410473 164.932147 
L 389.735127 165.907786 
L 389.782473 166.10338 
L 389.958327 166.768979 
L 390.025964 166.919243 
L 390.377673 168.469551 
L 391.236655 171.340211 
L 391.405745 172.358083 
L 391.649236 173.580765 
L 391.777745 174.24468 
L 391.811564 174.432616 
L 391.987418 175.418082 
L 392.197091 176.018023 
L 392.244436 176.08753 
L 392.454109 177.508201 
L 392.6232 178.233083 
L 392.778764 179.801807 
L 392.812582 179.872871 
L 393.049309 180.973989 
L 393.110182 181.242314 
L 393.306327 182.550056 
L 393.353673 182.67751 
L 393.502473 183.647525 
L 393.630982 184.047848 
L 393.996218 186.284335 
L 394.030036 186.356104 
L 394.232945 187.76736 
L 394.320873 187.915763 
L 394.530545 190.268754 
L 394.801091 191.778819 
L 395.010764 193.704855 
L 395.051345 193.783461 
L 395.348945 196.752914 
L 395.477455 197.831805 
L 395.768291 200.731896 
L 395.8224 200.818534 
L 396.092945 203.731345 
L 396.255273 208.568104 
L 396.404073 212.249637 
L 396.539345 213.28196 
L 396.579927 213.373723 
L 397.587709 232.695414 
L 397.722982 236.90963 
L 397.729745 236.914092 
L 398.047636 247.962879 
L 398.189673 256.307 
L 398.284364 265.158343 
L 398.480509 295.488 
L 398.480509 295.488 
" clip-path="url(#p45645e1c8d)" style="fill: none; stroke: #1f77b4; stroke-width: 1.5; stroke-linecap: square"/>
   </g>
   <g id="line2d_16">
    <path d="M 132.933382 60.26167 
L 373.123636 140.569126 
" clip-path="url(#p45645e1c8d)" style="fill: none; stroke-dasharray: 5.55,2.4; stroke-dashoffset: 0; stroke: #ff7f0e; stroke-width: 1.5"/>
   </g>
   <g id="line2d_17">
    <path d="M 73.832727 133.876732 
L 398.487273 133.876732 
L 398.487273 133.876732 
" clip-path="url(#p45645e1c8d)" style="fill: none; stroke-dasharray: 5.55,2.4; stroke-dashoffset: 0; stroke: #2ca02c; stroke-width: 1.5"/>
   </g>
   <g id="LineCollection_1">
    <path d="M 373.123636 295.488 
L 373.123636 53.568 
" clip-path="url(#p45645e1c8d)" style="fill: none; stroke-dasharray: 5.55,2.4; stroke-dashoffset: 0; stroke: #1f77b4; stroke-width: 1.5"/>
   </g>
   <g id="patch_3">
    <path d="M 57.6 307.584 
L 57.6 41.472 
" style="fill: none; stroke: #000000; stroke-width: 0.8; stroke-linejoin: miter; stroke-linecap: square"/>
   </g>
   <g id="patch_4">
    <path d="M 414.72 307.584 
L 414.72 41.472 
" style="fill: none; stroke: #000000; stroke-width: 0.8; stroke-linejoin: miter; stroke-linecap: square"/>
   </g>
   <g id="patch_5">
    <path d="M 57.6 307.584 
L 414.72 307.584 
" style="fill: none; stroke: #000000; stroke-width: 0.8; stroke-linejoin: miter; stroke-linecap: square"/>
   </g>
   <g id="patch_6">
    <path d="M 57.6 41.472 
L 414.72 41.472 
" style="fill: none; stroke: #000000; stroke-width: 0.8; stroke-linejoin: miter; stroke-linecap: square"/>
   </g>
   <g id="text_15">
    <!-- Energy Decay - 8000 Hz -->
    <g transform="translate(163.59 35.472) scale(0.12 -0.12)">
     <defs>
      <path id="DejaVuSans-45" d="M 628 4666 
L 3578 4666 
L 3578 4134 
L 1259 4134 
L 1259 2753 
L 3481 2753 
L 3481 2222 
L 1259 2222 
L 1259 531 
L 3634 531 
L 3634 0 
L 628 0 
L 628 4666 
z
" transform="scale(0.015625)"/>
      <path id="DejaVuSans-6e" d="M 3513 2113 
L 3513 0 
L 2938 0 
L 2938 2094 
Q 2938 2591 2744 2837 
Q 2550 3084 2163 3084 
Q 1697 3084 1428 2787 
Q 1159 2491 1159 1978 
L 1159 0 
L 581 0 
L 581 3500 
L 1159 3500 
L 1159 2956 
Q 1366 3272 1645 3428 
Q 1925 3584 2291 3584 
Q 2894 3584 3203 3211 
Q 3513 2838 3513 2113 
z
" transform="scale(0.015625)"/>
      <path id="DejaVuSans-65" d="M 3597 1894 
L 3597 1613 
L 953 1613 
Q 991 1019 1311 708 
Q 1631 397 2203 397 
Q 2534 397 2845 478 
Q 3156 559 3463 722 
L 3463 178 
Q 3153 47 2828 -22 
Q 2503 -91 2169 -91 
Q 1331 -91 842 396 
Q 353 884 353 1716 
Q 353 2575 817 3079 
Q 1281 3584 2069 3584 
Q 2775 3584 3186 3129 
Q 3597 2675 3597 1894 
z
M 3022 2063 
Q 3016 2534 2758 2815 
Q 2500 3097 2075 3097 
Q 1594 3097 1305 2825 
Q 1016 2553 972 2059 
L 3022 2063 
z
" transform="scale(0.015625)"/>
      <path id="DejaVuSans-72" d="M 2631 2963 
Q 2534 3019 2420 3045 
Q 2306 3072 2169 3072 
Q 1681 3072 1420 2755 
Q 1159 2438 1159 1844 
L 1159 0 
L 581 0 
L 581 3500 
L 1159 3500 
L 1159 2956 
Q 1341 3275 1631 3429 
Q 1922 3584 2338 3584 
Q 2397 3584 2469 3576 
Q 2541 3569 2628 3553 
L 2631 2963 
z
" transform="scale(0.015625)"/>
      <path id="DejaVuSans-67" d="M 2906 1791 
Q 2906 2416 2648 2759 
Q 2391 3103 1925 3103 
Q 1463 3103 1205 2759 
Q 947 2416 947 1791 
Q 947 1169 1205 825 
Q 1463 481 1925 481 
Q 2391 481 2648 825 
Q 2906 1169 2906 1791 
z
M 3481 434 
Q 3481 -459 3084 -895 
Q 2688 -1331 1869 -1331 
Q 1566 -1331 1297 -1286 
Q 1028 -1241 775 -1147 
L 775 -588 
Q 1028 -725 1275 -790 
Q 1522 -856 1778 -856 
Q 2344 -856 2625 -561 
Q 2906 -266 2906 331 
L 2906 616 
Q 2728 306 2450 153 
Q 2172 0 1784 0 
Q 1141 0 747 490 
Q 353 981 353 1791 
Q 353 2603 747 3093 
Q 1141 3584 1784 3584 
Q 2172 3584 2450 3431 
Q 2728 3278 2906 2969 
L 2906 3500 
L 3481 3500 
L 3481 434 
z
" transform="scale(0.015625)"/>
      <path id="DejaVuSans-79" d="M 2059 -325 
Q 1816 -950 1584 -1140 
Q 1353 -1331 966 -1331 
L 506 -1331 
L 506 -850 
L 844 -850 
Q 1081 -850 1212 -737 
Q 1344 -625 1503 -206 
L 1606 56 
L 191 3500 
L 800 3500 
L 1894 763 
L 2988 3500 
L 3597 3500 
L 2059 -325 
z
" transform="scale(0.015625)"/>
      <path id="DejaVuSans-20" transform="scale(0.015625)"/>
      <path id="DejaVuSans-44" d="M 1259 4147 
L 1259 519 
L 2022 519 
Q 2988 519 3436 956 
Q 3884 1394 3884 2338 
Q 3884 3275 3436 3711 
Q 2988 4147 2022 4147 
L 1259 4147 
z
M 628 4666 
L 1925 4666 
Q 3281 4666 3915 4102 
Q 4550 3538 4550 2338 
Q 4550 1131 3912 565 
Q 3275 0 1925 0 
L 628 0 
L 628 4666 
z
" transform="scale(0.015625)"/>
      <path id="DejaVuSans-63" d="M 3122 3366 
L 3122 2828 
Q 2878 2963 2633 3030 
Q 2388 3097 2138 3097 
Q 1578 3097 1268 2742 
Q 959 2388 959 1747 
Q 959 1106 1268 751 
Q 1578 397 2138 397 
Q 2388 397 2633 464 
Q 2878 531 3122 666 
L 3122 134 
Q 2881 22 2623 -34 
Q 2366 -91 2075 -91 
Q 1284 -91 818 406 
Q 353 903 353 1747 
Q 353 2603 823 3093 
Q 1294 3584 2113 3584 
Q 2378 3584 2631 3529 
Q 2884 3475 3122 3366 
z
" transform="scale(0.015625)"/>
      <path id="DejaVuSans-61" d="M 2194 1759 
Q 1497 1759 1228 1600 
Q 959 1441 959 1056 
Q 959 750 1161 570 
Q 1363 391 1709 391 
Q 2188 391 2477 730 
Q 2766 1069 2766 1631 
L 2766 1759 
L 2194 1759 
z
M 3341 1997 
L 3341 0 
L 2766 0 
L 2766 531 
Q 2569 213 2275 61 
Q 1981 -91 1556 -91 
Q 1019 -91 701 211 
Q 384 513 384 1019 
Q 384 1609 779 1909 
Q 1175 2209 1959 2209 
L 2766 2209 
L 2766 2266 
Q 2766 2663 2505 2880 
Q 2244 3097 1772 3097 
Q 1472 3097 1187 3025 
Q 903 2953 641 2809 
L 641 3341 
Q 956 3463 1253 3523 
Q 1550 3584 1831 3584 
Q 2591 3584 2966 3190 
Q 3341 2797 3341 1997 
z
" transform="scale(0.015625)"/>
      <path id="DejaVuSans-2d" d="M 313 2009 
L 1997 2009 
L 1997 1497 
L 313 1497 
L 313 2009 
z
" transform="scale(0.015625)"/>
      <path id="DejaVuSans-48" d="M 628 4666 
L 1259 4666 
L 1259 2753 
L 3553 2753 
L 3553 4666 
L 4184 4666 
L 4184 0 
L 3553 0 
L 3553 2222 
L 1259 2222 
L 1259 0 
L 628 0 
L 628 4666 
z
" transform="scale(0.015625)"/>
      <path id="DejaVuSans-7a" d="M 353 3500 
L 3084 3500 
L 3084 2975 
L 922 459 
L 3084 459 
L 3084 0 
L 275 0 
L 275 525 
L 2438 3041 
L 353 3041 
L 353 3500 
z
" transform="scale(0.015625)"/>
     </defs>
     <use xlink:href="#DejaVuSans-45"/>
     <use xlink:href="#DejaVuSans-6e" transform="translate(63.183594 0)"/>
     <use xlink:href="#DejaVuSans-65" transform="translate(126.5625 0)"/>
     <use xlink:href="#DejaVuSans-72" transform="translate(188.085938 0)"/>
     <use xlink:href="#DejaVuSans-67" transform="translate(227.449219 0)"/>
     <use xlink:href="#DejaVuSans-79" transform="translate(290.925781 0)"/>
     <use xlink:href="#DejaVuSans-20" transform="translate(350.105469 0)"/>
     <use xlink:href="#DejaVuSans-44" transform="translate(381.892578 0)"/>
     <use xlink:href="#DejaVuSans-65" transform="translate(458.894531 0)"/>
     <use xlink:href="#DejaVuSans-63" transform="translate(520.417969 0)"/>
     <use xlink:href="#DejaVuSans-61" transform="translate(575.398438 0)"/>
     <use xlink:href="#DejaVuSans-79" transform="translate(636.677734 0)"/>
     <use xlink:href="#DejaVuSans-20" transform="translate(695.857422 0)"/>
     <use xlink:href="#DejaVuSans-2d" transform="translate(727.644531 0)"/>
     <use xlink:href="#DejaVuSans-20" transform="translate(763.728516 0)"/>
     <use xlink:href="#DejaVuSans-38" transform="translate(795.515625 0)"/>
     <use xlink:href="#DejaVuSans-30" transform="translate(859.138672 0)"/>
     <use xlink:href="#DejaVuSans-30" transform="translate(922.761719 0)"/>
     <use xlink:href="#DejaVuSans-30" transform="translate(986.384766 0)"/>
     <use xlink:href="#DejaVuSans-20" transform="translate(1050.007812 0)"/>
     <use xlink:href="#DejaVuSans-48" transform="translate(1081.794922 0)"/>
     <use xlink:href="#DejaVuSans-7a" transform="translate(1156.990234 0)"/>
    </g>
   </g>
   <g id="legend_1">
    <g id="patch_7">
     <path d="M 296.968437 108.1845 
L 407.72 108.1845 
Q 409.72 108.1845 409.72 106.1845 
L 409.72 48.472 
Q 409.72 46.472 407.72 46.472 
L 296.968437 46.472 
Q 294.968437 46.472 294.968437 48.472 
L 294.968437 106.1845 
Q 294.968437 108.1845 296.968437 108.1845 
z
" style="fill: #ffffff; opacity: 0.8; stroke: #cccccc; stroke-linejoin: miter"/>
    </g>
    <g id="line2d_18">
     <path d="M 298.968437 54.570438 
L 308.968437 54.570438 
L 318.968437 54.570438 
" style="fill: none; stroke: #1f77b4; stroke-width: 1.5; stroke-linecap: square"/>
    </g>
    <g id="text_16">
     <!-- Energy -->
     <g transform="translate(326.968437 58.070438) scale(0.1 -0.1)">
      <use xlink:href="#DejaVuSans-45"/>
      <use xlink:href="#DejaVuSans-6e" transform="translate(63.183594 0)"/>
      <use xlink:href="#DejaVuSans-65" transform="translate(126.5625 0)"/>
      <use xlink:href="#DejaVuSans-72" transform="translate(188.085938 0)"/>
      <use xlink:href="#DejaVuSans-67" transform="translate(227.449219 0)"/>
      <use xlink:href="#DejaVuSans-79" transform="translate(290.925781 0)"/>
     </g>
    </g>
    <g id="line2d_19">
     <path d="M 298.968437 69.248563 
L 308.968437 69.248563 
L 318.968437 69.248563 
" style="fill: none; stroke-dasharray: 5.55,2.4; stroke-dashoffset: 0; stroke: #ff7f0e; stroke-width: 1.5"/>
    </g>
    <g id="text_17">
     <!-- Linear Fit -->
     <g transform="translate(326.968437 72.748563) scale(0.1 -0.1)">
      <defs>
       <path id="DejaVuSans-4c" d="M 628 4666 
L 1259 4666 
L 1259 531 
L 3531 531 
L 3531 0 
L 628 0 
L 628 4666 
z
" transform="scale(0.015625)"/>
       <path id="DejaVuSans-69" d="M 603 3500 
L 1178 3500 
L 1178 0 
L 603 0 
L 603 3500 
z
M 603 4863 
L 1178 4863 
L 1178 4134 
L 603 4134 
L 603 4863 
z
" transform="scale(0.015625)"/>
       <path id="DejaVuSans-46" d="M 628 4666 
L 3309 4666 
L 3309 4134 
L 1259 4134 
L 1259 2759 
L 3109 2759 
L 3109 2228 
L 1259 2228 
L 1259 0 
L 628 0 
L 628 4666 
z
" transform="scale(0.015625)"/>
       <path id="DejaVuSans-74" d="M 1172 4494 
L 1172 3500 
L 2356 3500 
L 2356 3053 
L 1172 3053 
L 1172 1153 
Q 1172 725 1289 603 
Q 1406 481 1766 481 
L 2356 481 
L 2356 0 
L 1766 0 
Q 1100 0 847 248 
Q 594 497 594 1153 
L 594 3053 
L 172 3053 
L 172 3500 
L 594 3500 
L 594 4494 
L 1172 4494 
z
" transform="scale(0.015625)"/>
      </defs>
      <use xlink:href="#DejaVuSans-4c"/>
      <use xlink:href="#DejaVuSans-69" transform="translate(55.712891 0)"/>
      <use xlink:href="#DejaVuSans-6e" transform="translate(83.496094 0)"/>
      <use xlink:href="#DejaVuSans-65" transform="translate(146.875 0)"/>
      <use xlink:href="#DejaVuSans-61" transform="translate(208.398438 0)"/>
      <use xlink:href="#DejaVuSans-72" transform="translate(269.677734 0)"/>
      <use xlink:href="#DejaVuSans-20" transform="translate(310.791016 0)"/>
      <use xlink:href="#DejaVuSans-46" transform="translate(342.578125 0)"/>
      <use xlink:href="#DejaVuSans-69" transform="translate(392.847656 0)"/>
      <use xlink:href="#DejaVuSans-74" transform="translate(420.630859 0)"/>
     </g>
    </g>
    <g id="line2d_20">
     <path d="M 298.968437 83.926688 
L 308.968437 83.926688 
L 318.968437 83.926688 
" style="fill: none; stroke-dasharray: 5.55,2.4; stroke-dashoffset: 0; stroke: #2ca02c; stroke-width: 1.5"/>
    </g>
    <g id="text_18">
     <!-- -60 dB -->
     <g transform="translate(326.968437 87.426688) scale(0.1 -0.1)">
      <defs>
       <path id="DejaVuSans-64" d="M 2906 2969 
L 2906 4863 
L 3481 4863 
L 3481 0 
L 2906 0 
L 2906 525 
Q 2725 213 2448 61 
Q 2172 -91 1784 -91 
Q 1150 -91 751 415 
Q 353 922 353 1747 
Q 353 2572 751 3078 
Q 1150 3584 1784 3584 
Q 2172 3584 2448 3432 
Q 2725 3281 2906 2969 
z
M 947 1747 
Q 947 1113 1208 752 
Q 1469 391 1925 391 
Q 2381 391 2643 752 
Q 2906 1113 2906 1747 
Q 2906 2381 2643 2742 
Q 2381 3103 1925 3103 
Q 1469 3103 1208 2742 
Q 947 2381 947 1747 
z
" transform="scale(0.015625)"/>
       <path id="DejaVuSans-42" d="M 1259 2228 
L 1259 519 
L 2272 519 
Q 2781 519 3026 730 
Q 3272 941 3272 1375 
Q 3272 1813 3026 2020 
Q 2781 2228 2272 2228 
L 1259 2228 
z
M 1259 4147 
L 1259 2741 
L 2194 2741 
Q 2656 2741 2882 2914 
Q 3109 3088 3109 3444 
Q 3109 3797 2882 3972 
Q 2656 4147 2194 4147 
L 1259 4147 
z
M 628 4666 
L 2241 4666 
Q 2963 4666 3353 4366 
Q 3744 4066 3744 3513 
Q 3744 3084 3544 2831 
Q 3344 2578 2956 2516 
Q 3422 2416 3680 2098 
Q 3938 1781 3938 1306 
Q 3938 681 3513 340 
Q 3088 0 2303 0 
L 628 0 
L 628 4666 
z
" transform="scale(0.015625)"/>
      </defs>
      <use xlink:href="#DejaVuSans-2d"/>
      <use xlink:href="#DejaVuSans-36" transform="translate(36.083984 0)"/>
      <use xlink:href="#DejaVuSans-30" transform="translate(99.707031 0)"/>
      <use xlink:href="#DejaVuSans-20" transform="translate(163.330078 0)"/>
      <use xlink:href="#DejaVuSans-64" transform="translate(195.117188 0)"/>
      <use xlink:href="#DejaVuSans-42" transform="translate(258.59375 0)"/>
     </g>
    </g>
    <g id="line2d_21">
     <path d="M 298.968437 98.604813 
L 318.968437 98.604813 
" style="fill: none; stroke-dasharray: 5.55,2.4; stroke-dashoffset: 0; stroke: #1f77b4; stroke-width: 1.5"/>
    </g>
    <g id="text_19">
     <!-- Estimated RT60 -->
     <g transform="translate(326.968437 102.104813) scale(0.1 -0.1)">
      <defs>
       <path id="DejaVuSans-73" d="M 2834 3397 
L 2834 2853 
Q 2591 2978 2328 3040 
Q 2066 3103 1784 3103 
Q 1356 3103 1142 2972 
Q 928 2841 928 2578 
Q 928 2378 1081 2264 
Q 1234 2150 1697 2047 
L 1894 2003 
Q 2506 1872 2764 1633 
Q 3022 1394 3022 966 
Q 3022 478 2636 193 
Q 2250 -91 1575 -91 
Q 1294 -91 989 -36 
Q 684 19 347 128 
L 347 722 
Q 666 556 975 473 
Q 1284 391 1588 391 
Q 1994 391 2212 530 
Q 2431 669 2431 922 
Q 2431 1156 2273 1281 
Q 2116 1406 1581 1522 
L 1381 1569 
Q 847 1681 609 1914 
Q 372 2147 372 2553 
Q 372 3047 722 3315 
Q 1072 3584 1716 3584 
Q 2034 3584 2315 3537 
Q 2597 3491 2834 3397 
z
" transform="scale(0.015625)"/>
       <path id="DejaVuSans-6d" d="M 3328 2828 
Q 3544 3216 3844 3400 
Q 4144 3584 4550 3584 
Q 5097 3584 5394 3201 
Q 5691 2819 5691 2113 
L 5691 0 
L 5113 0 
L 5113 2094 
Q 5113 2597 4934 2840 
Q 4756 3084 4391 3084 
Q 3944 3084 3684 2787 
Q 3425 2491 3425 1978 
L 3425 0 
L 2847 0 
L 2847 2094 
Q 2847 2600 2669 2842 
Q 2491 3084 2119 3084 
Q 1678 3084 1418 2786 
Q 1159 2488 1159 1978 
L 1159 0 
L 581 0 
L 581 3500 
L 1159 3500 
L 1159 2956 
Q 1356 3278 1631 3431 
Q 1906 3584 2284 3584 
Q 2666 3584 2933 3390 
Q 3200 3197 3328 2828 
z
" transform="scale(0.015625)"/>
       <path id="DejaVuSans-52" d="M 2841 2188 
Q 3044 2119 3236 1894 
Q 3428 1669 3622 1275 
L 4263 0 
L 3584 0 
L 2988 1197 
Q 2756 1666 2539 1819 
Q 2322 1972 1947 1972 
L 1259 1972 
L 1259 0 
L 628 0 
L 628 4666 
L 2053 4666 
Q 2853 4666 3247 4331 
Q 3641 3997 3641 3322 
Q 3641 2881 3436 2590 
Q 3231 2300 2841 2188 
z
M 1259 4147 
L 1259 2491 
L 2053 2491 
Q 2509 2491 2742 2702 
Q 2975 2913 2975 3322 
Q 2975 3731 2742 3939 
Q 2509 4147 2053 4147 
L 1259 4147 
z
" transform="scale(0.015625)"/>
       <path id="DejaVuSans-54" d="M -19 4666 
L 3928 4666 
L 3928 4134 
L 2272 4134 
L 2272 0 
L 1638 0 
L 1638 4134 
L -19 4134 
L -19 4666 
z
" transform="scale(0.015625)"/>
      </defs>
      <use xlink:href="#DejaVuSans-45"/>
      <use xlink:href="#DejaVuSans-73" transform="translate(63.183594 0)"/>
      <use xlink:href="#DejaVuSans-74" transform="translate(115.283203 0)"/>
      <use xlink:href="#DejaVuSans-69" transform="translate(154.492188 0)"/>
      <use xlink:href="#DejaVuSans-6d" transform="translate(182.275391 0)"/>
      <use xlink:href="#DejaVuSans-61" transform="translate(279.6875 0)"/>
      <use xlink:href="#DejaVuSans-74" transform="translate(340.966797 0)"/>
      <use xlink:href="#DejaVuSans-65" transform="translate(380.175781 0)"/>
      <use xlink:href="#DejaVuSans-64" transform="translate(441.699219 0)"/>
      <use xlink:href="#DejaVuSans-20" transform="translate(505.175781 0)"/>
      <use xlink:href="#DejaVuSans-52" transform="translate(536.962891 0)"/>
      <use xlink:href="#DejaVuSans-54" transform="translate(599.195312 0)"/>
      <use xlink:href="#DejaVuSans-36" transform="translate(660.279297 0)"/>
      <use xlink:href="#DejaVuSans-30" transform="translate(723.902344 0)"/>
     </g>
    </g>
   </g>
  </g>
 </g>
 <defs>
  <clipPath id="p45645e1c8d">
   <rect x="57.6" y="41.472" width="357.12" height="266.112"/>
  </clipPath>
 </defs>
</svg>
