<?xml version="1.0" encoding="utf-8" standalone="no"?>
<!DOCTYPE svg PUBLIC "-//W3C//DTD SVG 1.1//EN"
  "http://www.w3.org/Graphics/SVG/1.1/DTD/svg11.dtd">
<svg xmlns:xlink="http://www.w3.org/1999/xlink" width="460.8pt" height="345.6pt" viewBox="0 0 460.8 345.6" xmlns="http://www.w3.org/2000/svg" version="1.1">
 <metadata>
  <rdf:RDF xmlns:dc="http://purl.org/dc/elements/1.1/" xmlns:cc="http://creativecommons.org/ns#" xmlns:rdf="http://www.w3.org/1999/02/22-rdf-syntax-ns#">
   <cc:Work>
    <dc:type rdf:resource="http://purl.org/dc/dcmitype/StillImage"/>
    <dc:date>2025-05-06T14:04:50.204448</dc:date>
    <dc:format>image/svg+xml</dc:format>
    <dc:creator>
     <cc:Agent>
      <dc:title>Matplotlib v3.10.1, https://matplotlib.org/</dc:title>
     </cc:Agent>
    </dc:creator>
   </cc:Work>
  </rdf:RDF>
 </metadata>
 <defs>
  <style type="text/css">*{stroke-linejoin: round; stroke-linecap: butt}</style>
 </defs>
 <g id="figure_1">
  <g id="patch_1">
   <path d="M 0 345.6 
L 460.8 345.6 
L 460.8 0 
L 0 0 
z
" style="fill: #ffffff"/>
  </g>
  <g id="axes_1">
   <g id="patch_2">
    <path d="M 57.6 307.584 
L 414.72 307.584 
L 414.72 41.472 
L 57.6 41.472 
z
" style="fill: #ffffff"/>
   </g>
   <g id="matplotlib.axis_1">
    <g id="xtick_1">
     <g id="line2d_1">
      <defs>
       <path id="ma07c98ec62" d="M 0 0 
L 0 3.5 
" style="stroke: #000000; stroke-width: 0.8"/>
      </defs>
      <g>
       <use xlink:href="#ma07c98ec62" x="65.513455" y="307.584" style="stroke: #000000; stroke-width: 0.8"/>
      </g>
     </g>
     <g id="text_1">
      <!-- −0.2 -->
      <g transform="translate(53.372048 322.182437) scale(0.1 -0.1)">
       <defs>
        <path id="DejaVuSans-2212" d="M 678 2272 
L 4684 2272 
L 4684 1741 
L 678 1741 
L 678 2272 
z
" transform="scale(0.015625)"/>
        <path id="DejaVuSans-30" d="M 2034 4250 
Q 1547 4250 1301 3770 
Q 1056 3291 1056 2328 
Q 1056 1369 1301 889 
Q 1547 409 2034 409 
Q 2525 409 2770 889 
Q 3016 1369 3016 2328 
Q 3016 3291 2770 3770 
Q 2525 4250 2034 4250 
z
M 2034 4750 
Q 2819 4750 3233 4129 
Q 3647 3509 3647 2328 
Q 3647 1150 3233 529 
Q 2819 -91 2034 -91 
Q 1250 -91 836 529 
Q 422 1150 422 2328 
Q 422 3509 836 4129 
Q 1250 4750 2034 4750 
z
" transform="scale(0.015625)"/>
        <path id="DejaVuSans-2e" d="M 684 794 
L 1344 794 
L 1344 0 
L 684 0 
L 684 794 
z
" transform="scale(0.015625)"/>
        <path id="DejaVuSans-32" d="M 1228 531 
L 3431 531 
L 3431 0 
L 469 0 
L 469 531 
Q 828 903 1448 1529 
Q 2069 2156 2228 2338 
Q 2531 2678 2651 2914 
Q 2772 3150 2772 3378 
Q 2772 3750 2511 3984 
Q 2250 4219 1831 4219 
Q 1534 4219 1204 4116 
Q 875 4013 500 3803 
L 500 4441 
Q 881 4594 1212 4672 
Q 1544 4750 1819 4750 
Q 2544 4750 2975 4387 
Q 3406 4025 3406 3419 
Q 3406 3131 3298 2873 
Q 3191 2616 2906 2266 
Q 2828 2175 2409 1742 
Q 1991 1309 1228 531 
z
" transform="scale(0.015625)"/>
       </defs>
       <use xlink:href="#DejaVuSans-2212"/>
       <use xlink:href="#DejaVuSans-30" transform="translate(83.789062 0)"/>
       <use xlink:href="#DejaVuSans-2e" transform="translate(147.412109 0)"/>
       <use xlink:href="#DejaVuSans-32" transform="translate(179.199219 0)"/>
      </g>
     </g>
    </g>
    <g id="xtick_2">
     <g id="line2d_2">
      <g>
       <use xlink:href="#ma07c98ec62" x="111.892675" y="307.584" style="stroke: #000000; stroke-width: 0.8"/>
      </g>
     </g>
     <g id="text_2">
      <!-- 0.0 -->
      <g transform="translate(103.941113 322.182437) scale(0.1 -0.1)">
       <use xlink:href="#DejaVuSans-30"/>
       <use xlink:href="#DejaVuSans-2e" transform="translate(63.623047 0)"/>
       <use xlink:href="#DejaVuSans-30" transform="translate(95.410156 0)"/>
      </g>
     </g>
    </g>
    <g id="xtick_3">
     <g id="line2d_3">
      <g>
       <use xlink:href="#ma07c98ec62" x="158.271896" y="307.584" style="stroke: #000000; stroke-width: 0.8"/>
      </g>
     </g>
     <g id="text_3">
      <!-- 0.2 -->
      <g transform="translate(150.320334 322.182437) scale(0.1 -0.1)">
       <use xlink:href="#DejaVuSans-30"/>
       <use xlink:href="#DejaVuSans-2e" transform="translate(63.623047 0)"/>
       <use xlink:href="#DejaVuSans-32" transform="translate(95.410156 0)"/>
      </g>
     </g>
    </g>
    <g id="xtick_4">
     <g id="line2d_4">
      <g>
       <use xlink:href="#ma07c98ec62" x="204.651117" y="307.584" style="stroke: #000000; stroke-width: 0.8"/>
      </g>
     </g>
     <g id="text_4">
      <!-- 0.4 -->
      <g transform="translate(196.699554 322.182437) scale(0.1 -0.1)">
       <defs>
        <path id="DejaVuSans-34" d="M 2419 4116 
L 825 1625 
L 2419 1625 
L 2419 4116 
z
M 2253 4666 
L 3047 4666 
L 3047 1625 
L 3713 1625 
L 3713 1100 
L 3047 1100 
L 3047 0 
L 2419 0 
L 2419 1100 
L 313 1100 
L 313 1709 
L 2253 4666 
z
" transform="scale(0.015625)"/>
       </defs>
       <use xlink:href="#DejaVuSans-30"/>
       <use xlink:href="#DejaVuSans-2e" transform="translate(63.623047 0)"/>
       <use xlink:href="#DejaVuSans-34" transform="translate(95.410156 0)"/>
      </g>
     </g>
    </g>
    <g id="xtick_5">
     <g id="line2d_5">
      <g>
       <use xlink:href="#ma07c98ec62" x="251.030338" y="307.584" style="stroke: #000000; stroke-width: 0.8"/>
      </g>
     </g>
     <g id="text_5">
      <!-- 0.6 -->
      <g transform="translate(243.078775 322.182437) scale(0.1 -0.1)">
       <defs>
        <path id="DejaVuSans-36" d="M 2113 2584 
Q 1688 2584 1439 2293 
Q 1191 2003 1191 1497 
Q 1191 994 1439 701 
Q 1688 409 2113 409 
Q 2538 409 2786 701 
Q 3034 994 3034 1497 
Q 3034 2003 2786 2293 
Q 2538 2584 2113 2584 
z
M 3366 4563 
L 3366 3988 
Q 3128 4100 2886 4159 
Q 2644 4219 2406 4219 
Q 1781 4219 1451 3797 
Q 1122 3375 1075 2522 
Q 1259 2794 1537 2939 
Q 1816 3084 2150 3084 
Q 2853 3084 3261 2657 
Q 3669 2231 3669 1497 
Q 3669 778 3244 343 
Q 2819 -91 2113 -91 
Q 1303 -91 875 529 
Q 447 1150 447 2328 
Q 447 3434 972 4092 
Q 1497 4750 2381 4750 
Q 2619 4750 2861 4703 
Q 3103 4656 3366 4563 
z
" transform="scale(0.015625)"/>
       </defs>
       <use xlink:href="#DejaVuSans-30"/>
       <use xlink:href="#DejaVuSans-2e" transform="translate(63.623047 0)"/>
       <use xlink:href="#DejaVuSans-36" transform="translate(95.410156 0)"/>
      </g>
     </g>
    </g>
    <g id="xtick_6">
     <g id="line2d_6">
      <g>
       <use xlink:href="#ma07c98ec62" x="297.409558" y="307.584" style="stroke: #000000; stroke-width: 0.8"/>
      </g>
     </g>
     <g id="text_6">
      <!-- 0.8 -->
      <g transform="translate(289.457996 322.182437) scale(0.1 -0.1)">
       <defs>
        <path id="DejaVuSans-38" d="M 2034 2216 
Q 1584 2216 1326 1975 
Q 1069 1734 1069 1313 
Q 1069 891 1326 650 
Q 1584 409 2034 409 
Q 2484 409 2743 651 
Q 3003 894 3003 1313 
Q 3003 1734 2745 1975 
Q 2488 2216 2034 2216 
z
M 1403 2484 
Q 997 2584 770 2862 
Q 544 3141 544 3541 
Q 544 4100 942 4425 
Q 1341 4750 2034 4750 
Q 2731 4750 3128 4425 
Q 3525 4100 3525 3541 
Q 3525 3141 3298 2862 
Q 3072 2584 2669 2484 
Q 3125 2378 3379 2068 
Q 3634 1759 3634 1313 
Q 3634 634 3220 271 
Q 2806 -91 2034 -91 
Q 1263 -91 848 271 
Q 434 634 434 1313 
Q 434 1759 690 2068 
Q 947 2378 1403 2484 
z
M 1172 3481 
Q 1172 3119 1398 2916 
Q 1625 2713 2034 2713 
Q 2441 2713 2670 2916 
Q 2900 3119 2900 3481 
Q 2900 3844 2670 4047 
Q 2441 4250 2034 4250 
Q 1625 4250 1398 4047 
Q 1172 3844 1172 3481 
z
" transform="scale(0.015625)"/>
       </defs>
       <use xlink:href="#DejaVuSans-30"/>
       <use xlink:href="#DejaVuSans-2e" transform="translate(63.623047 0)"/>
       <use xlink:href="#DejaVuSans-38" transform="translate(95.410156 0)"/>
      </g>
     </g>
    </g>
    <g id="xtick_7">
     <g id="line2d_7">
      <g>
       <use xlink:href="#ma07c98ec62" x="343.788779" y="307.584" style="stroke: #000000; stroke-width: 0.8"/>
      </g>
     </g>
     <g id="text_7">
      <!-- 1.0 -->
      <g transform="translate(335.837217 322.182437) scale(0.1 -0.1)">
       <defs>
        <path id="DejaVuSans-31" d="M 794 531 
L 1825 531 
L 1825 4091 
L 703 3866 
L 703 4441 
L 1819 4666 
L 2450 4666 
L 2450 531 
L 3481 531 
L 3481 0 
L 794 0 
L 794 531 
z
" transform="scale(0.015625)"/>
       </defs>
       <use xlink:href="#DejaVuSans-31"/>
       <use xlink:href="#DejaVuSans-2e" transform="translate(63.623047 0)"/>
       <use xlink:href="#DejaVuSans-30" transform="translate(95.410156 0)"/>
      </g>
     </g>
    </g>
    <g id="xtick_8">
     <g id="line2d_8">
      <g>
       <use xlink:href="#ma07c98ec62" x="390.168" y="307.584" style="stroke: #000000; stroke-width: 0.8"/>
      </g>
     </g>
     <g id="text_8">
      <!-- 1.2 -->
      <g transform="translate(382.216438 322.182437) scale(0.1 -0.1)">
       <use xlink:href="#DejaVuSans-31"/>
       <use xlink:href="#DejaVuSans-2e" transform="translate(63.623047 0)"/>
       <use xlink:href="#DejaVuSans-32" transform="translate(95.410156 0)"/>
      </g>
     </g>
    </g>
   </g>
   <g id="matplotlib.axis_2">
    <g id="ytick_1">
     <g id="line2d_9">
      <defs>
       <path id="md8e27ff4c7" d="M 0 0 
L -3.5 0 
" style="stroke: #000000; stroke-width: 0.8"/>
      </defs>
      <g>
       <use xlink:href="#md8e27ff4c7" x="57.6" y="300.551505" style="stroke: #000000; stroke-width: 0.8"/>
      </g>
     </g>
     <g id="text_9">
      <!-- −140 -->
      <g transform="translate(23.132812 304.350724) scale(0.1 -0.1)">
       <use xlink:href="#DejaVuSans-2212"/>
       <use xlink:href="#DejaVuSans-31" transform="translate(83.789062 0)"/>
       <use xlink:href="#DejaVuSans-34" transform="translate(147.412109 0)"/>
       <use xlink:href="#DejaVuSans-30" transform="translate(211.035156 0)"/>
      </g>
     </g>
    </g>
    <g id="ytick_2">
     <g id="line2d_10">
      <g>
       <use xlink:href="#md8e27ff4c7" x="57.6" y="265.268147" style="stroke: #000000; stroke-width: 0.8"/>
      </g>
     </g>
     <g id="text_10">
      <!-- −120 -->
      <g transform="translate(23.132812 269.067366) scale(0.1 -0.1)">
       <use xlink:href="#DejaVuSans-2212"/>
       <use xlink:href="#DejaVuSans-31" transform="translate(83.789062 0)"/>
       <use xlink:href="#DejaVuSans-32" transform="translate(147.412109 0)"/>
       <use xlink:href="#DejaVuSans-30" transform="translate(211.035156 0)"/>
      </g>
     </g>
    </g>
    <g id="ytick_3">
     <g id="line2d_11">
      <g>
       <use xlink:href="#md8e27ff4c7" x="57.6" y="229.984789" style="stroke: #000000; stroke-width: 0.8"/>
      </g>
     </g>
     <g id="text_11">
      <!-- −100 -->
      <g transform="translate(23.132812 233.784008) scale(0.1 -0.1)">
       <use xlink:href="#DejaVuSans-2212"/>
       <use xlink:href="#DejaVuSans-31" transform="translate(83.789062 0)"/>
       <use xlink:href="#DejaVuSans-30" transform="translate(147.412109 0)"/>
       <use xlink:href="#DejaVuSans-30" transform="translate(211.035156 0)"/>
      </g>
     </g>
    </g>
    <g id="ytick_4">
     <g id="line2d_12">
      <g>
       <use xlink:href="#md8e27ff4c7" x="57.6" y="194.701431" style="stroke: #000000; stroke-width: 0.8"/>
      </g>
     </g>
     <g id="text_12">
      <!-- −80 -->
      <g transform="translate(29.495313 198.50065) scale(0.1 -0.1)">
       <use xlink:href="#DejaVuSans-2212"/>
       <use xlink:href="#DejaVuSans-38" transform="translate(83.789062 0)"/>
       <use xlink:href="#DejaVuSans-30" transform="translate(147.412109 0)"/>
      </g>
     </g>
    </g>
    <g id="ytick_5">
     <g id="line2d_13">
      <g>
       <use xlink:href="#md8e27ff4c7" x="57.6" y="159.418073" style="stroke: #000000; stroke-width: 0.8"/>
      </g>
     </g>
     <g id="text_13">
      <!-- −60 -->
      <g transform="translate(29.495313 163.217292) scale(0.1 -0.1)">
       <use xlink:href="#DejaVuSans-2212"/>
       <use xlink:href="#DejaVuSans-36" transform="translate(83.789062 0)"/>
       <use xlink:href="#DejaVuSans-30" transform="translate(147.412109 0)"/>
      </g>
     </g>
    </g>
    <g id="ytick_6">
     <g id="line2d_14">
      <g>
       <use xlink:href="#md8e27ff4c7" x="57.6" y="124.134716" style="stroke: #000000; stroke-width: 0.8"/>
      </g>
     </g>
     <g id="text_14">
      <!-- −40 -->
      <g transform="translate(29.495313 127.933934) scale(0.1 -0.1)">
       <use xlink:href="#DejaVuSans-2212"/>
       <use xlink:href="#DejaVuSans-34" transform="translate(83.789062 0)"/>
       <use xlink:href="#DejaVuSans-30" transform="translate(147.412109 0)"/>
      </g>
     </g>
    </g>
    <g id="ytick_7">
     <g id="line2d_15">
      <g>
       <use xlink:href="#md8e27ff4c7" x="57.6" y="88.851358" style="stroke: #000000; stroke-width: 0.8"/>
      </g>
     </g>
     <g id="text_15">
      <!-- −20 -->
      <g transform="translate(29.495313 92.650577) scale(0.1 -0.1)">
       <use xlink:href="#DejaVuSans-2212"/>
       <use xlink:href="#DejaVuSans-32" transform="translate(83.789062 0)"/>
       <use xlink:href="#DejaVuSans-30" transform="translate(147.412109 0)"/>
      </g>
     </g>
    </g>
    <g id="ytick_8">
     <g id="line2d_16">
      <g>
       <use xlink:href="#md8e27ff4c7" x="57.6" y="53.568" style="stroke: #000000; stroke-width: 0.8"/>
      </g>
     </g>
     <g id="text_16">
      <!-- 0 -->
      <g transform="translate(44.2375 57.367219) scale(0.1 -0.1)">
       <use xlink:href="#DejaVuSans-30"/>
      </g>
     </g>
    </g>
   </g>
   <g id="line2d_17">
    <path d="M 73.832727 53.568 
L 102.969506 53.678544 
L 104.375377 53.991537 
L 104.742545 54.055234 
L 105.00826 54.202615 
L 105.346442 54.348383 
L 105.616987 54.458457 
L 105.998649 54.654044 
L 106.293351 54.761071 
L 106.824779 55.081155 
L 107.124312 55.192341 
L 107.82 55.617965 
L 108.138857 55.735282 
L 108.336935 56.198539 
L 108.679948 56.901403 
L 108.940831 57.069157 
L 109.119584 57.759423 
L 109.462597 58.928326 
L 109.781455 59.195122 
L 110.443325 60.738621 
L 110.617247 60.885566 
L 111.312935 61.785183 
L 111.670442 61.909723 
L 111.873351 62.340429 
L 112.245351 63.092847 
L 112.44826 63.21744 
L 112.602857 63.822347 
L 112.979688 65.292839 
L 113.211584 65.452466 
L 113.457974 66.286345 
L 113.694701 66.677909 
L 115.670649 67.300511 
L 116.158597 68.154279 
L 116.284208 68.283155 
L 116.438805 68.908436 
L 116.810805 70.396909 
L 117.023377 70.555251 
L 117.187636 71.300287 
L 117.535481 72.746223 
L 117.975117 73.135861 
L 118.405091 73.744113 
L 118.728779 73.835216 
L 118.951013 73.940785 
L 119.115273 74.369183 
L 119.540416 75.563199 
L 119.680519 75.669944 
L 119.810961 76.248933 
L 120.269922 78.60727 
L 120.38587 78.716748 
L 120.525974 79.335726 
L 120.878649 80.843839 
L 121.183013 81.062111 
L 121.559844 81.554466 
L 122.057455 81.72829 
L 122.424623 81.767212 
L 125.88374 82.105125 
L 126.492468 82.307387 
L 127.028727 82.419136 
L 129.391169 83.003992 
L 129.666545 83.142434 
L 129.917766 83.251445 
L 130.313922 83.507376 
L 130.584468 83.617078 
L 131.033766 83.91239 
L 131.198026 84.034827 
L 132.487948 85.948863 
L 132.657039 86.172684 
L 133.03387 86.687626 
L 133.386545 86.825137 
L 133.729558 86.959281 
L 136.763532 87.11471 
L 137.478545 87.377442 
L 137.773247 87.541107 
L 138.019636 87.647426 
L 138.662182 88.271768 
L 138.840935 88.469862 
L 139.31439 89.077778 
L 139.541455 89.187749 
L 139.778182 89.726719 
L 140.034234 90.06175 
L 140.338597 90.212417 
L 140.937662 90.941629 
L 141.213039 91.05177 
L 141.908727 91.604621 
L 142.116468 91.73779 
L 142.62374 92.219775 
L 142.865299 92.33983 
L 143.256623 92.550868 
L 143.734909 92.667411 
L 144.575532 92.789788 
L 145.044156 92.90312 
L 145.445143 92.993275 
L 145.643221 93.152612 
L 146.039377 93.521272 
L 146.285766 93.631729 
L 147.619169 95.170934 
L 147.802753 95.307976 
L 148.358338 95.930301 
L 148.546753 96.044831 
L 148.797974 96.609379 
L 149.020208 96.831448 
L 149.227948 96.940427 
L 149.488831 97.566581 
L 149.711065 97.782098 
L 149.947792 97.900446 
L 150.546857 98.629099 
L 150.72561 98.859477 
L 151.068623 99.263072 
L 151.474442 99.427135 
L 151.92374 99.757434 
L 152.25226 99.868248 
L 152.70639 100.076444 
L 153.232987 100.222129 
L 153.600156 100.368872 
L 153.904519 100.478229 
L 154.339325 100.688664 
L 154.740312 100.807221 
L 155.223429 101.10786 
L 155.440831 101.232893 
L 155.89013 101.579706 
L 156.146182 101.687052 
L 156.576156 101.984468 
L 156.808052 102.100788 
L 157.204208 102.341987 
L 157.547221 102.455689 
L 158.020675 102.73745 
L 158.281558 102.847441 
L 158.774338 103.162086 
L 159.078701 103.271249 
L 159.571481 103.582314 
L 159.856519 103.690889 
L 160.387948 104.037829 
L 160.653662 104.157906 
L 161.102961 104.402262 
L 161.55226 104.521696 
L 161.929091 104.590982 
L 162.677922 104.751632 
L 163.591013 105.279157 
L 163.900208 105.565314 
L 164.185247 105.69171 
L 165.194961 107.318668 
L 165.436519 107.693038 
L 165.716727 107.851621 
L 165.982442 108.57832 
L 166.238494 108.963391 
L 166.523532 109.12874 
L 167.141922 110.115042 
L 167.354494 110.257585 
L 167.861766 110.687046 
L 168.156468 110.796459 
L 168.576779 111.03575 
L 168.977766 111.150554 
L 169.383584 111.289007 
L 169.721766 111.401537 
L 170.098597 111.487353 
L 170.514078 111.602604 
L 173.41761 112.77095 
L 173.837922 113.072458 
L 174.151948 113.18725 
L 174.601247 113.493096 
L 174.94426 113.602343 
L 175.364571 113.752151 
L 176.340468 113.863168 
L 177.852623 114.132753 
L 178.340571 114.334547 
L 178.62561 114.45335 
L 179.103896 114.721434 
L 179.36961 114.832068 
L 179.939688 115.294594 
L 180.166753 115.41707 
L 180.799636 116.006409 
L 180.988052 116.161023 
L 181.519481 116.756056 
L 181.72239 116.869189 
L 182.292468 117.431889 
L 182.490545 117.563243 
L 182.959169 117.99625 
L 183.205558 118.106861 
L 183.664519 118.407943 
L 183.959221 118.518428 
L 184.336052 118.706278 
L 184.606597 118.818001 
L 184.954442 118.945539 
L 185.340935 119.054186 
L 185.790234 119.195127 
L 186.123584 119.312112 
L 186.539065 119.427727 
L 187.326545 119.559204 
L 189.355636 120.297801 
L 189.78561 120.588159 
L 190.075481 120.699304 
L 190.515117 121.002389 
L 190.800156 121.114105 
L 191.191481 121.277791 
L 191.486182 121.386326 
L 191.964468 121.684228 
L 192.18187 121.802906 
L 192.722961 122.270965 
L 193.017662 122.378765 
L 193.621558 122.833895 
L 193.867948 122.955147 
L 194.399377 123.367238 
L 194.607117 123.484992 
L 195.124052 123.937765 
L 195.370442 124.047952 
L 195.993662 124.587555 
L 196.186909 124.740708 
L 196.665195 125.231402 
L 196.93574 125.339732 
L 197.356052 125.57129 
L 197.781195 125.684679 
L 198.187013 125.751677 
L 198.481714 125.925462 
L 198.790909 126.007141 
L 199.090442 126.119927 
L 199.530078 126.320357 
L 199.897247 126.429284 
L 200.32239 126.555339 
L 200.607429 126.670756 
L 200.998753 126.85504 
L 201.269299 126.963924 
L 201.834545 127.390765 
L 202.022961 127.532069 
L 202.539896 128.089251 
L 202.781455 128.196866 
L 203.356364 128.683548 
L 203.578597 128.829311 
L 203.984416 129.113609 
L 204.409558 129.24385 
L 204.892675 129.527383 
L 205.163221 129.63875 
L 205.689818 129.990706 
L 205.979688 130.09861 
L 206.477299 130.390403 
L 206.767169 130.498079 
L 207.230961 130.753277 
L 207.501506 130.860117 
L 208.01361 131.229814 
L 208.226182 131.356945 
L 208.723792 131.775866 
L 209.004 131.886616 
L 209.472623 132.219398 
L 209.825299 132.33153 
L 210.240779 132.394297 
L 211.163532 132.511204 
L 214.284468 133.538549 
L 214.738597 133.801248 
L 215.047792 133.910898 
L 215.564727 134.250571 
L 215.840104 134.3656 
L 216.260416 134.571481 
L 216.758026 134.68683 
L 218.217039 135.247616 
L 218.502078 135.300886 
L 218.724312 135.458813 
L 219.105974 135.722733 
L 219.42 135.838206 
L 219.883792 136.157064 
L 220.149506 136.264739 
L 220.719584 136.672346 
L 220.961143 136.793067 
L 221.468416 137.168045 
L 221.845247 137.285505 
L 222.294545 137.518843 
L 222.632727 137.62756 
L 223.072364 137.787191 
L 223.415377 137.897538 
L 223.874338 138.118966 
L 224.169039 138.230229 
L 224.599013 138.439641 
L 225.077299 138.55073 
L 225.874442 138.6366 
L 226.763377 138.747296 
L 227.787584 139.013993 
L 228.401143 139.128836 
L 229.391532 139.505735 
L 229.773195 139.64483 
L 230.072727 139.754692 
L 230.526857 140.004505 
L 230.807065 140.112783 
L 231.319169 140.446877 
L 231.584883 140.562382 
L 232.053506 140.849 
L 232.406182 140.959447 
L 232.807169 141.097522 
L 233.130857 141.209912 
L 233.488364 141.310894 
L 233.807221 141.425625 
L 234.242026 141.580794 
L 234.580208 141.688715 
L 235.048831 141.918901 
L 235.416 142.030097 
L 235.836312 142.177133 
L 236.169662 142.289227 
L 236.556156 142.395528 
L 236.865351 142.509045 
L 237.300156 142.714143 
L 237.590026 142.825107 
L 238.048987 143.071586 
L 238.396831 143.180957 
L 238.788156 143.326692 
L 239.107013 143.436801 
L 239.532156 143.609622 
L 239.793039 143.721449 
L 240.348623 144.142478 
L 240.599844 144.256077 
L 241.252052 144.807947 
L 241.464623 144.9633 
L 241.875273 145.300426 
L 242.179636 145.413791 
L 242.604779 145.668855 
L 242.870494 145.776876 
L 243.401922 146.177507 
L 243.653143 146.294309 
L 244.160416 146.625233 
L 244.672519 146.750291 
L 245.097662 146.80694 
L 246.015584 146.940853 
L 246.571169 147.034294 
L 247.513247 147.280881 
L 247.89974 147.389231 
L 248.22826 147.504708 
L 248.634078 147.637081 
L 249.107532 147.747761 
L 249.624468 147.799045 
L 252.455532 148.098479 
L 253.421766 148.20973 
L 253.885558 148.350369 
L 254.127117 148.48006 
L 254.663377 148.892426 
L 254.92426 149.003242 
L 255.426701 149.34746 
L 255.79387 149.458059 
L 256.204519 149.588072 
L 256.513714 149.699592 
L 256.972675 149.921798 
L 257.267377 150.030319 
L 257.876104 150.462354 
L 258.161143 150.577415 
L 258.64426 150.842285 
L 261.253091 150.989102 
L 262.465714 151.130024 
L 263.369143 151.248465 
L 263.828104 151.338557 
L 264.093818 151.507536 
L 264.465818 151.702258 
L 264.828156 151.819281 
L 265.272623 152.054012 
L 265.775065 152.165631 
L 266.53839 152.241242 
L 272.287481 152.952434 
L 273.85761 153.068598 
L 275.393922 153.238505 
L 276.509922 153.487924 
L 277.978597 153.968624 
L 278.398909 154.119487 
L 278.964156 154.231752 
L 282.732468 154.792344 
L 284.877506 154.957695 
L 285.418597 155.048753 
L 286.331688 155.340975 
L 286.660208 155.424516 
L 286.95974 155.540781 
L 287.375221 155.718802 
L 289.901922 155.853253 
L 291.612156 155.973636 
L 297.419221 156.158191 
L 298.404779 156.272648 
L 300.989455 156.341302 
L 302.58374 156.453453 
L 303.984779 156.828397 
L 304.960675 157.058673 
L 305.385818 157.130001 
L 305.767481 157.260715 
L 306.207117 157.367229 
L 306.637091 157.47775 
L 307.139532 157.622654 
L 307.661299 157.733392 
L 308.260364 157.761962 
L 309.444 157.877944 
L 311.651844 158.342744 
L 313.178494 158.462977 
L 314.11574 158.844506 
L 314.40561 158.923682 
L 314.690649 159.034963 
L 315.23174 159.371983 
L 315.729351 159.484072 
L 316.260779 159.555232 
L 320.81174 159.670937 
L 323.280468 159.966424 
L 324.372312 160.008311 
L 327.729974 160.412609 
L 328.319377 160.640757 
L 328.831481 160.756201 
L 329.976468 161.697335 
L 330.319481 162.149141 
L 330.889558 162.418487 
L 331.276052 162.640474 
L 332.174649 162.888708 
L 332.536987 162.977112 
L 332.841351 163.09007 
L 333.392104 163.412356 
L 334.165091 163.537455 
L 335.281091 164.086072 
L 335.735221 164.595971 
L 336.256987 164.798595 
L 336.933351 165.402497 
L 337.305351 165.526768 
L 337.614545 166.028353 
L 337.918909 166.332116 
L 338.435844 166.554856 
L 339.083221 167.194863 
L 339.518026 167.340952 
L 340.291013 168.073832 
L 340.547065 168.215164 
L 341.015688 168.511317 
L 348.648935 168.991584 
L 348.982286 169.195075 
L 349.339792 169.325385 
L 349.808416 169.440185 
L 350.455792 169.69183 
L 350.813299 169.803488 
L 351.557299 170.354462 
L 351.798857 170.519348 
L 352.436571 171.063775 
L 353.045299 171.270936 
L 353.79413 172.074041 
L 354.030857 172.209619 
L 354.765195 172.852626 
L 355.620312 173.115342 
L 356.142078 173.588766 
L 356.586545 173.730903 
L 357.253247 174.197615 
L 357.808831 174.329882 
L 358.905506 175.395849 
L 359.316156 176.177581 
L 359.837922 176.484178 
L 360.267896 176.946842 
L 363.384 177.610414 
L 364.065195 177.721785 
L 364.543481 177.869179 
L 364.881662 177.978327 
L 365.731948 178.503435 
L 365.963844 178.653954 
L 366.785143 179.496188 
L 367.065351 179.614256 
L 368.084727 180.375197 
L 368.437403 180.500283 
L 368.616156 180.94085 
L 369.142753 182.41571 
L 369.321506 182.524568 
L 369.476104 183.056599 
L 370.002701 185.132735 
L 370.249091 185.26577 
L 370.538961 185.96992 
L 370.790182 186.257462 
L 371.365091 186.293324 
L 373.268571 186.538447 
L 374.002909 187.009146 
L 374.25413 187.124768 
L 374.534338 187.593979 
L 374.872519 188.003553 
L 375.635844 188.369748 
L 376.215584 188.873389 
L 376.577922 189.014916 
L 376.771169 189.501836 
L 377.220468 190.67033 
L 377.457195 190.813391 
L 377.616623 191.432307 
L 378.201195 194.10597 
L 378.442753 194.239413 
L 378.616675 194.79883 
L 378.930701 196.772466 
L 379.268883 198.339932 
L 379.457299 198.427085 
L 379.616727 198.540568 
L 379.761662 199.036928 
L 379.988727 200.804227 
L 380.375221 203.491927 
L 380.558805 203.599852 
L 380.795532 203.707564 
L 381.317299 204.390977 
L 381.612 205.141674 
L 381.959844 205.87969 
L 382.394649 206.185231 
L 382.85361 206.865963 
L 383.452675 207.230551 
L 383.752208 207.439103 
L 383.945455 207.543267 
L 384.095221 208.016271 
L 384.394753 209.973047 
L 384.660468 210.999337 
L 384.863377 211.053122 
L 385.017974 211.192946 
L 385.20639 211.765634 
L 385.559065 213.755398 
L 385.892416 215.087631 
L 386.085662 215.169596 
L 386.230597 215.284299 
L 386.375532 215.817779 
L 387.037403 218.883108 
L 387.201662 219.015423 
L 387.641299 219.490286 
L 387.950494 219.59941 
L 388.317662 219.717618 
L 388.824935 219.829515 
L 389.254909 220.190536 
L 389.665558 220.45766 
L 390.095532 220.611718 
L 390.366078 221.138684 
L 390.762234 221.796491 
L 391.066597 221.843954 
L 391.704312 221.957102 
L 391.897558 222.22487 
L 392.124623 223.018232 
L 392.501455 224.214667 
L 392.805818 224.483957 
L 392.974909 225.42483 
L 393.631948 229.695457 
L 393.965299 229.926122 
L 394.144052 230.658776 
L 394.433922 233.005165 
L 394.805922 235.501475 
L 394.984675 235.611754 
L 395.12961 235.729046 
L 395.269714 236.277465 
L 395.477455 238.206008 
L 396.023377 243.644494 
L 396.371221 244.15772 
L 396.564468 245.738371 
L 397.356779 253.424862 
L 397.559688 253.55106 
L 397.699792 254.11968 
L 397.888208 256.018054 
L 398.115273 260.860283 
L 398.337506 270.846115 
L 398.463117 286.547779 
L 398.482442 295.488 
L 398.482442 295.488 
" clip-path="url(#p3d19fa7bc6)" style="fill: none; stroke: #1f77b4; stroke-width: 1.5; stroke-linecap: square"/>
   </g>
   <g id="line2d_18">
    <path d="M 111.892675 62.397407 
L 340.576052 168.238913 
" clip-path="url(#p3d19fa7bc6)" style="fill: none; stroke-dasharray: 5.55,2.4; stroke-dashoffset: 0; stroke: #ff7f0e; stroke-width: 1.5"/>
   </g>
   <g id="line2d_19">
    <path d="M 73.832727 159.418073 
L 398.487273 159.418073 
L 398.487273 159.418073 
" clip-path="url(#p3d19fa7bc6)" style="fill: none; stroke-dasharray: 5.55,2.4; stroke-dashoffset: 0; stroke: #2ca02c; stroke-width: 1.5"/>
   </g>
   <g id="LineCollection_1">
    <path d="M 340.576052 295.488 
L 340.576052 53.568 
" clip-path="url(#p3d19fa7bc6)" style="fill: none; stroke-dasharray: 5.55,2.4; stroke-dashoffset: 0; stroke: #1f77b4; stroke-width: 1.5"/>
   </g>
   <g id="patch_3">
    <path d="M 57.6 307.584 
L 57.6 41.472 
" style="fill: none; stroke: #000000; stroke-width: 0.8; stroke-linejoin: miter; stroke-linecap: square"/>
   </g>
   <g id="patch_4">
    <path d="M 414.72 307.584 
L 414.72 41.472 
" style="fill: none; stroke: #000000; stroke-width: 0.8; stroke-linejoin: miter; stroke-linecap: square"/>
   </g>
   <g id="patch_5">
    <path d="M 57.6 307.584 
L 414.72 307.584 
" style="fill: none; stroke: #000000; stroke-width: 0.8; stroke-linejoin: miter; stroke-linecap: square"/>
   </g>
   <g id="patch_6">
    <path d="M 57.6 41.472 
L 414.72 41.472 
" style="fill: none; stroke: #000000; stroke-width: 0.8; stroke-linejoin: miter; stroke-linecap: square"/>
   </g>
   <g id="text_17">
    <!-- Energy Decay - 125 Hz -->
    <g transform="translate(167.4075 35.472) scale(0.12 -0.12)">
     <defs>
      <path id="DejaVuSans-45" d="M 628 4666 
L 3578 4666 
L 3578 4134 
L 1259 4134 
L 1259 2753 
L 3481 2753 
L 3481 2222 
L 1259 2222 
L 1259 531 
L 3634 531 
L 3634 0 
L 628 0 
L 628 4666 
z
" transform="scale(0.015625)"/>
      <path id="DejaVuSans-6e" d="M 3513 2113 
L 3513 0 
L 2938 0 
L 2938 2094 
Q 2938 2591 2744 2837 
Q 2550 3084 2163 3084 
Q 1697 3084 1428 2787 
Q 1159 2491 1159 1978 
L 1159 0 
L 581 0 
L 581 3500 
L 1159 3500 
L 1159 2956 
Q 1366 3272 1645 3428 
Q 1925 3584 2291 3584 
Q 2894 3584 3203 3211 
Q 3513 2838 3513 2113 
z
" transform="scale(0.015625)"/>
      <path id="DejaVuSans-65" d="M 3597 1894 
L 3597 1613 
L 953 1613 
Q 991 1019 1311 708 
Q 1631 397 2203 397 
Q 2534 397 2845 478 
Q 3156 559 3463 722 
L 3463 178 
Q 3153 47 2828 -22 
Q 2503 -91 2169 -91 
Q 1331 -91 842 396 
Q 353 884 353 1716 
Q 353 2575 817 3079 
Q 1281 3584 2069 3584 
Q 2775 3584 3186 3129 
Q 3597 2675 3597 1894 
z
M 3022 2063 
Q 3016 2534 2758 2815 
Q 2500 3097 2075 3097 
Q 1594 3097 1305 2825 
Q 1016 2553 972 2059 
L 3022 2063 
z
" transform="scale(0.015625)"/>
      <path id="DejaVuSans-72" d="M 2631 2963 
Q 2534 3019 2420 3045 
Q 2306 3072 2169 3072 
Q 1681 3072 1420 2755 
Q 1159 2438 1159 1844 
L 1159 0 
L 581 0 
L 581 3500 
L 1159 3500 
L 1159 2956 
Q 1341 3275 1631 3429 
Q 1922 3584 2338 3584 
Q 2397 3584 2469 3576 
Q 2541 3569 2628 3553 
L 2631 2963 
z
" transform="scale(0.015625)"/>
      <path id="DejaVuSans-67" d="M 2906 1791 
Q 2906 2416 2648 2759 
Q 2391 3103 1925 3103 
Q 1463 3103 1205 2759 
Q 947 2416 947 1791 
Q 947 1169 1205 825 
Q 1463 481 1925 481 
Q 2391 481 2648 825 
Q 2906 1169 2906 1791 
z
M 3481 434 
Q 3481 -459 3084 -895 
Q 2688 -1331 1869 -1331 
Q 1566 -1331 1297 -1286 
Q 1028 -1241 775 -1147 
L 775 -588 
Q 1028 -725 1275 -790 
Q 1522 -856 1778 -856 
Q 2344 -856 2625 -561 
Q 2906 -266 2906 331 
L 2906 616 
Q 2728 306 2450 153 
Q 2172 0 1784 0 
Q 1141 0 747 490 
Q 353 981 353 1791 
Q 353 2603 747 3093 
Q 1141 3584 1784 3584 
Q 2172 3584 2450 3431 
Q 2728 3278 2906 2969 
L 2906 3500 
L 3481 3500 
L 3481 434 
z
" transform="scale(0.015625)"/>
      <path id="DejaVuSans-79" d="M 2059 -325 
Q 1816 -950 1584 -1140 
Q 1353 -1331 966 -1331 
L 506 -1331 
L 506 -850 
L 844 -850 
Q 1081 -850 1212 -737 
Q 1344 -625 1503 -206 
L 1606 56 
L 191 3500 
L 800 3500 
L 1894 763 
L 2988 3500 
L 3597 3500 
L 2059 -325 
z
" transform="scale(0.015625)"/>
      <path id="DejaVuSans-20" transform="scale(0.015625)"/>
      <path id="DejaVuSans-44" d="M 1259 4147 
L 1259 519 
L 2022 519 
Q 2988 519 3436 956 
Q 3884 1394 3884 2338 
Q 3884 3275 3436 3711 
Q 2988 4147 2022 4147 
L 1259 4147 
z
M 628 4666 
L 1925 4666 
Q 3281 4666 3915 4102 
Q 4550 3538 4550 2338 
Q 4550 1131 3912 565 
Q 3275 0 1925 0 
L 628 0 
L 628 4666 
z
" transform="scale(0.015625)"/>
      <path id="DejaVuSans-63" d="M 3122 3366 
L 3122 2828 
Q 2878 2963 2633 3030 
Q 2388 3097 2138 3097 
Q 1578 3097 1268 2742 
Q 959 2388 959 1747 
Q 959 1106 1268 751 
Q 1578 397 2138 397 
Q 2388 397 2633 464 
Q 2878 531 3122 666 
L 3122 134 
Q 2881 22 2623 -34 
Q 2366 -91 2075 -91 
Q 1284 -91 818 406 
Q 353 903 353 1747 
Q 353 2603 823 3093 
Q 1294 3584 2113 3584 
Q 2378 3584 2631 3529 
Q 2884 3475 3122 3366 
z
" transform="scale(0.015625)"/>
      <path id="DejaVuSans-61" d="M 2194 1759 
Q 1497 1759 1228 1600 
Q 959 1441 959 1056 
Q 959 750 1161 570 
Q 1363 391 1709 391 
Q 2188 391 2477 730 
Q 2766 1069 2766 1631 
L 2766 1759 
L 2194 1759 
z
M 3341 1997 
L 3341 0 
L 2766 0 
L 2766 531 
Q 2569 213 2275 61 
Q 1981 -91 1556 -91 
Q 1019 -91 701 211 
Q 384 513 384 1019 
Q 384 1609 779 1909 
Q 1175 2209 1959 2209 
L 2766 2209 
L 2766 2266 
Q 2766 2663 2505 2880 
Q 2244 3097 1772 3097 
Q 1472 3097 1187 3025 
Q 903 2953 641 2809 
L 641 3341 
Q 956 3463 1253 3523 
Q 1550 3584 1831 3584 
Q 2591 3584 2966 3190 
Q 3341 2797 3341 1997 
z
" transform="scale(0.015625)"/>
      <path id="DejaVuSans-2d" d="M 313 2009 
L 1997 2009 
L 1997 1497 
L 313 1497 
L 313 2009 
z
" transform="scale(0.015625)"/>
      <path id="DejaVuSans-35" d="M 691 4666 
L 3169 4666 
L 3169 4134 
L 1269 4134 
L 1269 2991 
Q 1406 3038 1543 3061 
Q 1681 3084 1819 3084 
Q 2600 3084 3056 2656 
Q 3513 2228 3513 1497 
Q 3513 744 3044 326 
Q 2575 -91 1722 -91 
Q 1428 -91 1123 -41 
Q 819 9 494 109 
L 494 744 
Q 775 591 1075 516 
Q 1375 441 1709 441 
Q 2250 441 2565 725 
Q 2881 1009 2881 1497 
Q 2881 1984 2565 2268 
Q 2250 2553 1709 2553 
Q 1456 2553 1204 2497 
Q 953 2441 691 2322 
L 691 4666 
z
" transform="scale(0.015625)"/>
      <path id="DejaVuSans-48" d="M 628 4666 
L 1259 4666 
L 1259 2753 
L 3553 2753 
L 3553 4666 
L 4184 4666 
L 4184 0 
L 3553 0 
L 3553 2222 
L 1259 2222 
L 1259 0 
L 628 0 
L 628 4666 
z
" transform="scale(0.015625)"/>
      <path id="DejaVuSans-7a" d="M 353 3500 
L 3084 3500 
L 3084 2975 
L 922 459 
L 3084 459 
L 3084 0 
L 275 0 
L 275 525 
L 2438 3041 
L 353 3041 
L 353 3500 
z
" transform="scale(0.015625)"/>
     </defs>
     <use xlink:href="#DejaVuSans-45"/>
     <use xlink:href="#DejaVuSans-6e" transform="translate(63.183594 0)"/>
     <use xlink:href="#DejaVuSans-65" transform="translate(126.5625 0)"/>
     <use xlink:href="#DejaVuSans-72" transform="translate(188.085938 0)"/>
     <use xlink:href="#DejaVuSans-67" transform="translate(227.449219 0)"/>
     <use xlink:href="#DejaVuSans-79" transform="translate(290.925781 0)"/>
     <use xlink:href="#DejaVuSans-20" transform="translate(350.105469 0)"/>
     <use xlink:href="#DejaVuSans-44" transform="translate(381.892578 0)"/>
     <use xlink:href="#DejaVuSans-65" transform="translate(458.894531 0)"/>
     <use xlink:href="#DejaVuSans-63" transform="translate(520.417969 0)"/>
     <use xlink:href="#DejaVuSans-61" transform="translate(575.398438 0)"/>
     <use xlink:href="#DejaVuSans-79" transform="translate(636.677734 0)"/>
     <use xlink:href="#DejaVuSans-20" transform="translate(695.857422 0)"/>
     <use xlink:href="#DejaVuSans-2d" transform="translate(727.644531 0)"/>
     <use xlink:href="#DejaVuSans-20" transform="translate(763.728516 0)"/>
     <use xlink:href="#DejaVuSans-31" transform="translate(795.515625 0)"/>
     <use xlink:href="#DejaVuSans-32" transform="translate(859.138672 0)"/>
     <use xlink:href="#DejaVuSans-35" transform="translate(922.761719 0)"/>
     <use xlink:href="#DejaVuSans-20" transform="translate(986.384766 0)"/>
     <use xlink:href="#DejaVuSans-48" transform="translate(1018.171875 0)"/>
     <use xlink:href="#DejaVuSans-7a" transform="translate(1093.367188 0)"/>
    </g>
   </g>
   <g id="legend_1">
    <g id="patch_7">
     <path d="M 296.968437 108.1845 
L 407.72 108.1845 
Q 409.72 108.1845 409.72 106.1845 
L 409.72 48.472 
Q 409.72 46.472 407.72 46.472 
L 296.968437 46.472 
Q 294.968437 46.472 294.968437 48.472 
L 294.968437 106.1845 
Q 294.968437 108.1845 296.968437 108.1845 
z
" style="fill: #ffffff; opacity: 0.8; stroke: #cccccc; stroke-linejoin: miter"/>
    </g>
    <g id="line2d_20">
     <path d="M 298.968437 54.570438 
L 308.968437 54.570438 
L 318.968437 54.570438 
" style="fill: none; stroke: #1f77b4; stroke-width: 1.5; stroke-linecap: square"/>
    </g>
    <g id="text_18">
     <!-- Energy -->
     <g transform="translate(326.968437 58.070438) scale(0.1 -0.1)">
      <use xlink:href="#DejaVuSans-45"/>
      <use xlink:href="#DejaVuSans-6e" transform="translate(63.183594 0)"/>
      <use xlink:href="#DejaVuSans-65" transform="translate(126.5625 0)"/>
      <use xlink:href="#DejaVuSans-72" transform="translate(188.085938 0)"/>
      <use xlink:href="#DejaVuSans-67" transform="translate(227.449219 0)"/>
      <use xlink:href="#DejaVuSans-79" transform="translate(290.925781 0)"/>
     </g>
    </g>
    <g id="line2d_21">
     <path d="M 298.968437 69.248563 
L 308.968437 69.248563 
L 318.968437 69.248563 
" style="fill: none; stroke-dasharray: 5.55,2.4; stroke-dashoffset: 0; stroke: #ff7f0e; stroke-width: 1.5"/>
    </g>
    <g id="text_19">
     <!-- Linear Fit -->
     <g transform="translate(326.968437 72.748563) scale(0.1 -0.1)">
      <defs>
       <path id="DejaVuSans-4c" d="M 628 4666 
L 1259 4666 
L 1259 531 
L 3531 531 
L 3531 0 
L 628 0 
L 628 4666 
z
" transform="scale(0.015625)"/>
       <path id="DejaVuSans-69" d="M 603 3500 
L 1178 3500 
L 1178 0 
L 603 0 
L 603 3500 
z
M 603 4863 
L 1178 4863 
L 1178 4134 
L 603 4134 
L 603 4863 
z
" transform="scale(0.015625)"/>
       <path id="DejaVuSans-46" d="M 628 4666 
L 3309 4666 
L 3309 4134 
L 1259 4134 
L 1259 2759 
L 3109 2759 
L 3109 2228 
L 1259 2228 
L 1259 0 
L 628 0 
L 628 4666 
z
" transform="scale(0.015625)"/>
       <path id="DejaVuSans-74" d="M 1172 4494 
L 1172 3500 
L 2356 3500 
L 2356 3053 
L 1172 3053 
L 1172 1153 
Q 1172 725 1289 603 
Q 1406 481 1766 481 
L 2356 481 
L 2356 0 
L 1766 0 
Q 1100 0 847 248 
Q 594 497 594 1153 
L 594 3053 
L 172 3053 
L 172 3500 
L 594 3500 
L 594 4494 
L 1172 4494 
z
" transform="scale(0.015625)"/>
      </defs>
      <use xlink:href="#DejaVuSans-4c"/>
      <use xlink:href="#DejaVuSans-69" transform="translate(55.712891 0)"/>
      <use xlink:href="#DejaVuSans-6e" transform="translate(83.496094 0)"/>
      <use xlink:href="#DejaVuSans-65" transform="translate(146.875 0)"/>
      <use xlink:href="#DejaVuSans-61" transform="translate(208.398438 0)"/>
      <use xlink:href="#DejaVuSans-72" transform="translate(269.677734 0)"/>
      <use xlink:href="#DejaVuSans-20" transform="translate(310.791016 0)"/>
      <use xlink:href="#DejaVuSans-46" transform="translate(342.578125 0)"/>
      <use xlink:href="#DejaVuSans-69" transform="translate(392.847656 0)"/>
      <use xlink:href="#DejaVuSans-74" transform="translate(420.630859 0)"/>
     </g>
    </g>
    <g id="line2d_22">
     <path d="M 298.968437 83.926688 
L 308.968437 83.926688 
L 318.968437 83.926688 
" style="fill: none; stroke-dasharray: 5.55,2.4; stroke-dashoffset: 0; stroke: #2ca02c; stroke-width: 1.5"/>
    </g>
    <g id="text_20">
     <!-- -60 dB -->
     <g transform="translate(326.968437 87.426688) scale(0.1 -0.1)">
      <defs>
       <path id="DejaVuSans-64" d="M 2906 2969 
L 2906 4863 
L 3481 4863 
L 3481 0 
L 2906 0 
L 2906 525 
Q 2725 213 2448 61 
Q 2172 -91 1784 -91 
Q 1150 -91 751 415 
Q 353 922 353 1747 
Q 353 2572 751 3078 
Q 1150 3584 1784 3584 
Q 2172 3584 2448 3432 
Q 2725 3281 2906 2969 
z
M 947 1747 
Q 947 1113 1208 752 
Q 1469 391 1925 391 
Q 2381 391 2643 752 
Q 2906 1113 2906 1747 
Q 2906 2381 2643 2742 
Q 2381 3103 1925 3103 
Q 1469 3103 1208 2742 
Q 947 2381 947 1747 
z
" transform="scale(0.015625)"/>
       <path id="DejaVuSans-42" d="M 1259 2228 
L 1259 519 
L 2272 519 
Q 2781 519 3026 730 
Q 3272 941 3272 1375 
Q 3272 1813 3026 2020 
Q 2781 2228 2272 2228 
L 1259 2228 
z
M 1259 4147 
L 1259 2741 
L 2194 2741 
Q 2656 2741 2882 2914 
Q 3109 3088 3109 3444 
Q 3109 3797 2882 3972 
Q 2656 4147 2194 4147 
L 1259 4147 
z
M 628 4666 
L 2241 4666 
Q 2963 4666 3353 4366 
Q 3744 4066 3744 3513 
Q 3744 3084 3544 2831 
Q 3344 2578 2956 2516 
Q 3422 2416 3680 2098 
Q 3938 1781 3938 1306 
Q 3938 681 3513 340 
Q 3088 0 2303 0 
L 628 0 
L 628 4666 
z
" transform="scale(0.015625)"/>
      </defs>
      <use xlink:href="#DejaVuSans-2d"/>
      <use xlink:href="#DejaVuSans-36" transform="translate(36.083984 0)"/>
      <use xlink:href="#DejaVuSans-30" transform="translate(99.707031 0)"/>
      <use xlink:href="#DejaVuSans-20" transform="translate(163.330078 0)"/>
      <use xlink:href="#DejaVuSans-64" transform="translate(195.117188 0)"/>
      <use xlink:href="#DejaVuSans-42" transform="translate(258.59375 0)"/>
     </g>
    </g>
    <g id="line2d_23">
     <path d="M 298.968437 98.604813 
L 318.968437 98.604813 
" style="fill: none; stroke-dasharray: 5.55,2.4; stroke-dashoffset: 0; stroke: #1f77b4; stroke-width: 1.5"/>
    </g>
    <g id="text_21">
     <!-- Estimated RT60 -->
     <g transform="translate(326.968437 102.104813) scale(0.1 -0.1)">
      <defs>
       <path id="DejaVuSans-73" d="M 2834 3397 
L 2834 2853 
Q 2591 2978 2328 3040 
Q 2066 3103 1784 3103 
Q 1356 3103 1142 2972 
Q 928 2841 928 2578 
Q 928 2378 1081 2264 
Q 1234 2150 1697 2047 
L 1894 2003 
Q 2506 1872 2764 1633 
Q 3022 1394 3022 966 
Q 3022 478 2636 193 
Q 2250 -91 1575 -91 
Q 1294 -91 989 -36 
Q 684 19 347 128 
L 347 722 
Q 666 556 975 473 
Q 1284 391 1588 391 
Q 1994 391 2212 530 
Q 2431 669 2431 922 
Q 2431 1156 2273 1281 
Q 2116 1406 1581 1522 
L 1381 1569 
Q 847 1681 609 1914 
Q 372 2147 372 2553 
Q 372 3047 722 3315 
Q 1072 3584 1716 3584 
Q 2034 3584 2315 3537 
Q 2597 3491 2834 3397 
z
" transform="scale(0.015625)"/>
       <path id="DejaVuSans-6d" d="M 3328 2828 
Q 3544 3216 3844 3400 
Q 4144 3584 4550 3584 
Q 5097 3584 5394 3201 
Q 5691 2819 5691 2113 
L 5691 0 
L 5113 0 
L 5113 2094 
Q 5113 2597 4934 2840 
Q 4756 3084 4391 3084 
Q 3944 3084 3684 2787 
Q 3425 2491 3425 1978 
L 3425 0 
L 2847 0 
L 2847 2094 
Q 2847 2600 2669 2842 
Q 2491 3084 2119 3084 
Q 1678 3084 1418 2786 
Q 1159 2488 1159 1978 
L 1159 0 
L 581 0 
L 581 3500 
L 1159 3500 
L 1159 2956 
Q 1356 3278 1631 3431 
Q 1906 3584 2284 3584 
Q 2666 3584 2933 3390 
Q 3200 3197 3328 2828 
z
" transform="scale(0.015625)"/>
       <path id="DejaVuSans-52" d="M 2841 2188 
Q 3044 2119 3236 1894 
Q 3428 1669 3622 1275 
L 4263 0 
L 3584 0 
L 2988 1197 
Q 2756 1666 2539 1819 
Q 2322 1972 1947 1972 
L 1259 1972 
L 1259 0 
L 628 0 
L 628 4666 
L 2053 4666 
Q 2853 4666 3247 4331 
Q 3641 3997 3641 3322 
Q 3641 2881 3436 2590 
Q 3231 2300 2841 2188 
z
M 1259 4147 
L 1259 2491 
L 2053 2491 
Q 2509 2491 2742 2702 
Q 2975 2913 2975 3322 
Q 2975 3731 2742 3939 
Q 2509 4147 2053 4147 
L 1259 4147 
z
" transform="scale(0.015625)"/>
       <path id="DejaVuSans-54" d="M -19 4666 
L 3928 4666 
L 3928 4134 
L 2272 4134 
L 2272 0 
L 1638 0 
L 1638 4134 
L -19 4134 
L -19 4666 
z
" transform="scale(0.015625)"/>
      </defs>
      <use xlink:href="#DejaVuSans-45"/>
      <use xlink:href="#DejaVuSans-73" transform="translate(63.183594 0)"/>
      <use xlink:href="#DejaVuSans-74" transform="translate(115.283203 0)"/>
      <use xlink:href="#DejaVuSans-69" transform="translate(154.492188 0)"/>
      <use xlink:href="#DejaVuSans-6d" transform="translate(182.275391 0)"/>
      <use xlink:href="#DejaVuSans-61" transform="translate(279.6875 0)"/>
      <use xlink:href="#DejaVuSans-74" transform="translate(340.966797 0)"/>
      <use xlink:href="#DejaVuSans-65" transform="translate(380.175781 0)"/>
      <use xlink:href="#DejaVuSans-64" transform="translate(441.699219 0)"/>
      <use xlink:href="#DejaVuSans-20" transform="translate(505.175781 0)"/>
      <use xlink:href="#DejaVuSans-52" transform="translate(536.962891 0)"/>
      <use xlink:href="#DejaVuSans-54" transform="translate(599.195312 0)"/>
      <use xlink:href="#DejaVuSans-36" transform="translate(660.279297 0)"/>
      <use xlink:href="#DejaVuSans-30" transform="translate(723.902344 0)"/>
     </g>
    </g>
   </g>
  </g>
 </g>
 <defs>
  <clipPath id="p3d19fa7bc6">
   <rect x="57.6" y="41.472" width="357.12" height="266.112"/>
  </clipPath>
 </defs>
</svg>
