<?xml version="1.0" encoding="utf-8" standalone="no"?>
<!DOCTYPE svg PUBLIC "-//W3C//DTD SVG 1.1//EN"
  "http://www.w3.org/Graphics/SVG/1.1/DTD/svg11.dtd">
<svg xmlns:xlink="http://www.w3.org/1999/xlink" width="460.8pt" height="345.6pt" viewBox="0 0 460.8 345.6" xmlns="http://www.w3.org/2000/svg" version="1.1">
 <metadata>
  <rdf:RDF xmlns:dc="http://purl.org/dc/elements/1.1/" xmlns:cc="http://creativecommons.org/ns#" xmlns:rdf="http://www.w3.org/1999/02/22-rdf-syntax-ns#">
   <cc:Work>
    <dc:type rdf:resource="http://purl.org/dc/dcmitype/StillImage"/>
    <dc:date>2025-05-06T14:32:18.816052</dc:date>
    <dc:format>image/svg+xml</dc:format>
    <dc:creator>
     <cc:Agent>
      <dc:title>Matplotlib v3.10.1, https://matplotlib.org/</dc:title>
     </cc:Agent>
    </dc:creator>
   </cc:Work>
  </rdf:RDF>
 </metadata>
 <defs>
  <style type="text/css">*{stroke-linejoin: round; stroke-linecap: butt}</style>
 </defs>
 <g id="figure_1">
  <g id="patch_1">
   <path d="M 0 345.6 
L 460.8 345.6 
L 460.8 0 
L 0 0 
z
" style="fill: #ffffff"/>
  </g>
  <g id="axes_1">
   <g id="patch_2">
    <path d="M 57.6 307.584 
L 414.72 307.584 
L 414.72 41.472 
L 57.6 41.472 
z
" style="fill: #ffffff"/>
   </g>
   <g id="matplotlib.axis_1">
    <g id="xtick_1">
     <g id="line2d_1">
      <defs>
       <path id="mbe90b9ca78" d="M 0 0 
L 0 3.5 
" style="stroke: #000000; stroke-width: 0.8"/>
      </defs>
      <g>
       <use xlink:href="#mbe90b9ca78" x="92.962545" y="307.584" style="stroke: #000000; stroke-width: 0.8"/>
      </g>
     </g>
     <g id="text_1">
      <!-- −0.1 -->
      <g transform="translate(80.821139 322.182437) scale(0.1 -0.1)">
       <defs>
        <path id="DejaVuSans-2212" d="M 678 2272 
L 4684 2272 
L 4684 1741 
L 678 1741 
L 678 2272 
z
" transform="scale(0.015625)"/>
        <path id="DejaVuSans-30" d="M 2034 4250 
Q 1547 4250 1301 3770 
Q 1056 3291 1056 2328 
Q 1056 1369 1301 889 
Q 1547 409 2034 409 
Q 2525 409 2770 889 
Q 3016 1369 3016 2328 
Q 3016 3291 2770 3770 
Q 2525 4250 2034 4250 
z
M 2034 4750 
Q 2819 4750 3233 4129 
Q 3647 3509 3647 2328 
Q 3647 1150 3233 529 
Q 2819 -91 2034 -91 
Q 1250 -91 836 529 
Q 422 1150 422 2328 
Q 422 3509 836 4129 
Q 1250 4750 2034 4750 
z
" transform="scale(0.015625)"/>
        <path id="DejaVuSans-2e" d="M 684 794 
L 1344 794 
L 1344 0 
L 684 0 
L 684 794 
z
" transform="scale(0.015625)"/>
        <path id="DejaVuSans-31" d="M 794 531 
L 1825 531 
L 1825 4091 
L 703 3866 
L 703 4441 
L 1819 4666 
L 2450 4666 
L 2450 531 
L 3481 531 
L 3481 0 
L 794 0 
L 794 531 
z
" transform="scale(0.015625)"/>
       </defs>
       <use xlink:href="#DejaVuSans-2212"/>
       <use xlink:href="#DejaVuSans-30" transform="translate(83.789062 0)"/>
       <use xlink:href="#DejaVuSans-2e" transform="translate(147.412109 0)"/>
       <use xlink:href="#DejaVuSans-31" transform="translate(179.199219 0)"/>
      </g>
     </g>
    </g>
    <g id="xtick_2">
     <g id="line2d_2">
      <g>
       <use xlink:href="#mbe90b9ca78" x="147.071636" y="307.584" style="stroke: #000000; stroke-width: 0.8"/>
      </g>
     </g>
     <g id="text_2">
      <!-- 0.0 -->
      <g transform="translate(139.120074 322.182437) scale(0.1 -0.1)">
       <use xlink:href="#DejaVuSans-30"/>
       <use xlink:href="#DejaVuSans-2e" transform="translate(63.623047 0)"/>
       <use xlink:href="#DejaVuSans-30" transform="translate(95.410156 0)"/>
      </g>
     </g>
    </g>
    <g id="xtick_3">
     <g id="line2d_3">
      <g>
       <use xlink:href="#mbe90b9ca78" x="201.180727" y="307.584" style="stroke: #000000; stroke-width: 0.8"/>
      </g>
     </g>
     <g id="text_3">
      <!-- 0.1 -->
      <g transform="translate(193.229165 322.182437) scale(0.1 -0.1)">
       <use xlink:href="#DejaVuSans-30"/>
       <use xlink:href="#DejaVuSans-2e" transform="translate(63.623047 0)"/>
       <use xlink:href="#DejaVuSans-31" transform="translate(95.410156 0)"/>
      </g>
     </g>
    </g>
    <g id="xtick_4">
     <g id="line2d_4">
      <g>
       <use xlink:href="#mbe90b9ca78" x="255.289818" y="307.584" style="stroke: #000000; stroke-width: 0.8"/>
      </g>
     </g>
     <g id="text_4">
      <!-- 0.2 -->
      <g transform="translate(247.338256 322.182437) scale(0.1 -0.1)">
       <defs>
        <path id="DejaVuSans-32" d="M 1228 531 
L 3431 531 
L 3431 0 
L 469 0 
L 469 531 
Q 828 903 1448 1529 
Q 2069 2156 2228 2338 
Q 2531 2678 2651 2914 
Q 2772 3150 2772 3378 
Q 2772 3750 2511 3984 
Q 2250 4219 1831 4219 
Q 1534 4219 1204 4116 
Q 875 4013 500 3803 
L 500 4441 
Q 881 4594 1212 4672 
Q 1544 4750 1819 4750 
Q 2544 4750 2975 4387 
Q 3406 4025 3406 3419 
Q 3406 3131 3298 2873 
Q 3191 2616 2906 2266 
Q 2828 2175 2409 1742 
Q 1991 1309 1228 531 
z
" transform="scale(0.015625)"/>
       </defs>
       <use xlink:href="#DejaVuSans-30"/>
       <use xlink:href="#DejaVuSans-2e" transform="translate(63.623047 0)"/>
       <use xlink:href="#DejaVuSans-32" transform="translate(95.410156 0)"/>
      </g>
     </g>
    </g>
    <g id="xtick_5">
     <g id="line2d_5">
      <g>
       <use xlink:href="#mbe90b9ca78" x="309.398909" y="307.584" style="stroke: #000000; stroke-width: 0.8"/>
      </g>
     </g>
     <g id="text_5">
      <!-- 0.3 -->
      <g transform="translate(301.447347 322.182437) scale(0.1 -0.1)">
       <defs>
        <path id="DejaVuSans-33" d="M 2597 2516 
Q 3050 2419 3304 2112 
Q 3559 1806 3559 1356 
Q 3559 666 3084 287 
Q 2609 -91 1734 -91 
Q 1441 -91 1130 -33 
Q 819 25 488 141 
L 488 750 
Q 750 597 1062 519 
Q 1375 441 1716 441 
Q 2309 441 2620 675 
Q 2931 909 2931 1356 
Q 2931 1769 2642 2001 
Q 2353 2234 1838 2234 
L 1294 2234 
L 1294 2753 
L 1863 2753 
Q 2328 2753 2575 2939 
Q 2822 3125 2822 3475 
Q 2822 3834 2567 4026 
Q 2313 4219 1838 4219 
Q 1578 4219 1281 4162 
Q 984 4106 628 3988 
L 628 4550 
Q 988 4650 1302 4700 
Q 1616 4750 1894 4750 
Q 2613 4750 3031 4423 
Q 3450 4097 3450 3541 
Q 3450 3153 3228 2886 
Q 3006 2619 2597 2516 
z
" transform="scale(0.015625)"/>
       </defs>
       <use xlink:href="#DejaVuSans-30"/>
       <use xlink:href="#DejaVuSans-2e" transform="translate(63.623047 0)"/>
       <use xlink:href="#DejaVuSans-33" transform="translate(95.410156 0)"/>
      </g>
     </g>
    </g>
    <g id="xtick_6">
     <g id="line2d_6">
      <g>
       <use xlink:href="#mbe90b9ca78" x="363.508" y="307.584" style="stroke: #000000; stroke-width: 0.8"/>
      </g>
     </g>
     <g id="text_6">
      <!-- 0.4 -->
      <g transform="translate(355.556438 322.182437) scale(0.1 -0.1)">
       <defs>
        <path id="DejaVuSans-34" d="M 2419 4116 
L 825 1625 
L 2419 1625 
L 2419 4116 
z
M 2253 4666 
L 3047 4666 
L 3047 1625 
L 3713 1625 
L 3713 1100 
L 3047 1100 
L 3047 0 
L 2419 0 
L 2419 1100 
L 313 1100 
L 313 1709 
L 2253 4666 
z
" transform="scale(0.015625)"/>
       </defs>
       <use xlink:href="#DejaVuSans-30"/>
       <use xlink:href="#DejaVuSans-2e" transform="translate(63.623047 0)"/>
       <use xlink:href="#DejaVuSans-34" transform="translate(95.410156 0)"/>
      </g>
     </g>
    </g>
   </g>
   <g id="matplotlib.axis_2">
    <g id="ytick_1">
     <g id="line2d_7">
      <defs>
       <path id="m54a756b506" d="M 0 0 
L -3.5 0 
" style="stroke: #000000; stroke-width: 0.8"/>
      </defs>
      <g>
       <use xlink:href="#m54a756b506" x="57.6" y="302.899413" style="stroke: #000000; stroke-width: 0.8"/>
      </g>
     </g>
     <g id="text_7">
      <!-- −140 -->
      <g transform="translate(23.132812 306.698632) scale(0.1 -0.1)">
       <use xlink:href="#DejaVuSans-2212"/>
       <use xlink:href="#DejaVuSans-31" transform="translate(83.789062 0)"/>
       <use xlink:href="#DejaVuSans-34" transform="translate(147.412109 0)"/>
       <use xlink:href="#DejaVuSans-30" transform="translate(211.035156 0)"/>
      </g>
     </g>
    </g>
    <g id="ytick_2">
     <g id="line2d_8">
      <g>
       <use xlink:href="#m54a756b506" x="57.6" y="267.28064" style="stroke: #000000; stroke-width: 0.8"/>
      </g>
     </g>
     <g id="text_8">
      <!-- −120 -->
      <g transform="translate(23.132812 271.079858) scale(0.1 -0.1)">
       <use xlink:href="#DejaVuSans-2212"/>
       <use xlink:href="#DejaVuSans-31" transform="translate(83.789062 0)"/>
       <use xlink:href="#DejaVuSans-32" transform="translate(147.412109 0)"/>
       <use xlink:href="#DejaVuSans-30" transform="translate(211.035156 0)"/>
      </g>
     </g>
    </g>
    <g id="ytick_3">
     <g id="line2d_9">
      <g>
       <use xlink:href="#m54a756b506" x="57.6" y="231.661866" style="stroke: #000000; stroke-width: 0.8"/>
      </g>
     </g>
     <g id="text_9">
      <!-- −100 -->
      <g transform="translate(23.132812 235.461085) scale(0.1 -0.1)">
       <use xlink:href="#DejaVuSans-2212"/>
       <use xlink:href="#DejaVuSans-31" transform="translate(83.789062 0)"/>
       <use xlink:href="#DejaVuSans-30" transform="translate(147.412109 0)"/>
       <use xlink:href="#DejaVuSans-30" transform="translate(211.035156 0)"/>
      </g>
     </g>
    </g>
    <g id="ytick_4">
     <g id="line2d_10">
      <g>
       <use xlink:href="#m54a756b506" x="57.6" y="196.043093" style="stroke: #000000; stroke-width: 0.8"/>
      </g>
     </g>
     <g id="text_10">
      <!-- −80 -->
      <g transform="translate(29.495313 199.842312) scale(0.1 -0.1)">
       <defs>
        <path id="DejaVuSans-38" d="M 2034 2216 
Q 1584 2216 1326 1975 
Q 1069 1734 1069 1313 
Q 1069 891 1326 650 
Q 1584 409 2034 409 
Q 2484 409 2743 651 
Q 3003 894 3003 1313 
Q 3003 1734 2745 1975 
Q 2488 2216 2034 2216 
z
M 1403 2484 
Q 997 2584 770 2862 
Q 544 3141 544 3541 
Q 544 4100 942 4425 
Q 1341 4750 2034 4750 
Q 2731 4750 3128 4425 
Q 3525 4100 3525 3541 
Q 3525 3141 3298 2862 
Q 3072 2584 2669 2484 
Q 3125 2378 3379 2068 
Q 3634 1759 3634 1313 
Q 3634 634 3220 271 
Q 2806 -91 2034 -91 
Q 1263 -91 848 271 
Q 434 634 434 1313 
Q 434 1759 690 2068 
Q 947 2378 1403 2484 
z
M 1172 3481 
Q 1172 3119 1398 2916 
Q 1625 2713 2034 2713 
Q 2441 2713 2670 2916 
Q 2900 3119 2900 3481 
Q 2900 3844 2670 4047 
Q 2441 4250 2034 4250 
Q 1625 4250 1398 4047 
Q 1172 3844 1172 3481 
z
" transform="scale(0.015625)"/>
       </defs>
       <use xlink:href="#DejaVuSans-2212"/>
       <use xlink:href="#DejaVuSans-38" transform="translate(83.789062 0)"/>
       <use xlink:href="#DejaVuSans-30" transform="translate(147.412109 0)"/>
      </g>
     </g>
    </g>
    <g id="ytick_5">
     <g id="line2d_11">
      <g>
       <use xlink:href="#m54a756b506" x="57.6" y="160.42432" style="stroke: #000000; stroke-width: 0.8"/>
      </g>
     </g>
     <g id="text_11">
      <!-- −60 -->
      <g transform="translate(29.495313 164.223539) scale(0.1 -0.1)">
       <defs>
        <path id="DejaVuSans-36" d="M 2113 2584 
Q 1688 2584 1439 2293 
Q 1191 2003 1191 1497 
Q 1191 994 1439 701 
Q 1688 409 2113 409 
Q 2538 409 2786 701 
Q 3034 994 3034 1497 
Q 3034 2003 2786 2293 
Q 2538 2584 2113 2584 
z
M 3366 4563 
L 3366 3988 
Q 3128 4100 2886 4159 
Q 2644 4219 2406 4219 
Q 1781 4219 1451 3797 
Q 1122 3375 1075 2522 
Q 1259 2794 1537 2939 
Q 1816 3084 2150 3084 
Q 2853 3084 3261 2657 
Q 3669 2231 3669 1497 
Q 3669 778 3244 343 
Q 2819 -91 2113 -91 
Q 1303 -91 875 529 
Q 447 1150 447 2328 
Q 447 3434 972 4092 
Q 1497 4750 2381 4750 
Q 2619 4750 2861 4703 
Q 3103 4656 3366 4563 
z
" transform="scale(0.015625)"/>
       </defs>
       <use xlink:href="#DejaVuSans-2212"/>
       <use xlink:href="#DejaVuSans-36" transform="translate(83.789062 0)"/>
       <use xlink:href="#DejaVuSans-30" transform="translate(147.412109 0)"/>
      </g>
     </g>
    </g>
    <g id="ytick_6">
     <g id="line2d_12">
      <g>
       <use xlink:href="#m54a756b506" x="57.6" y="124.805547" style="stroke: #000000; stroke-width: 0.8"/>
      </g>
     </g>
     <g id="text_12">
      <!-- −40 -->
      <g transform="translate(29.495313 128.604765) scale(0.1 -0.1)">
       <use xlink:href="#DejaVuSans-2212"/>
       <use xlink:href="#DejaVuSans-34" transform="translate(83.789062 0)"/>
       <use xlink:href="#DejaVuSans-30" transform="translate(147.412109 0)"/>
      </g>
     </g>
    </g>
    <g id="ytick_7">
     <g id="line2d_13">
      <g>
       <use xlink:href="#m54a756b506" x="57.6" y="89.186773" style="stroke: #000000; stroke-width: 0.8"/>
      </g>
     </g>
     <g id="text_13">
      <!-- −20 -->
      <g transform="translate(29.495313 92.985992) scale(0.1 -0.1)">
       <use xlink:href="#DejaVuSans-2212"/>
       <use xlink:href="#DejaVuSans-32" transform="translate(83.789062 0)"/>
       <use xlink:href="#DejaVuSans-30" transform="translate(147.412109 0)"/>
      </g>
     </g>
    </g>
    <g id="ytick_8">
     <g id="line2d_14">
      <g>
       <use xlink:href="#m54a756b506" x="57.6" y="53.568" style="stroke: #000000; stroke-width: 0.8"/>
      </g>
     </g>
     <g id="text_14">
      <!-- 0 -->
      <g transform="translate(44.2375 57.367219) scale(0.1 -0.1)">
       <use xlink:href="#DejaVuSans-30"/>
      </g>
     </g>
    </g>
   </g>
   <g id="line2d_15">
    <path d="M 73.832727 53.568 
L 134.356 53.673175 
L 135.393091 54.382176 
L 135.663636 54.76667 
L 135.877818 54.879583 
L 136.261091 55.254499 
L 136.633091 55.366004 
L 137.005091 55.439083 
L 137.636364 55.584916 
L 139.158182 56.319753 
L 140.296727 56.870771 
L 140.849091 57.456591 
L 141.074545 57.71815 
L 141.367636 57.959899 
L 141.593091 58.061023 
L 142.122909 58.67036 
L 142.618909 59.044249 
L 143.915273 59.39075 
L 145.110182 61.361107 
L 145.516 61.487844 
L 145.842909 61.631887 
L 146.136 61.708103 
L 146.350182 61.965929 
L 146.586909 62.097783 
L 146.801091 62.201217 
L 147.218182 62.507379 
L 147.5 62.611096 
L 147.894545 62.886879 
L 148.334182 63.001955 
L 149.179636 63.359131 
L 149.450182 63.414455 
L 150.678909 63.859838 
L 151.039636 64.3769 
L 151.174909 64.499062 
L 151.569455 65.044349 
L 151.749818 65.174909 
L 152.031636 65.346611 
L 152.403636 65.457125 
L 153.294182 65.745539 
L 153.576 65.902725 
L 153.745091 66.022653 
L 154.105818 66.388599 
L 154.274909 66.500781 
L 154.692 66.985926 
L 154.849818 67.132782 
L 155.154182 67.405731 
L 155.751636 67.539362 
L 156.811273 68.265676 
L 157.036727 68.382219 
L 157.792 68.505437 
L 158.276727 69.018666 
L 158.536 69.586528 
L 158.648727 69.686013 
L 158.784 70.355723 
L 159.043273 71.361212 
L 159.189818 71.464863 
L 159.787273 72.558503 
L 160.080364 72.666656 
L 160.249455 73.162959 
L 160.497455 73.679128 
L 160.677818 73.797459 
L 161.196364 74.63396 
L 161.613455 74.744619 
L 162.064364 74.96734 
L 163.157818 75.200924 
L 163.496 75.309256 
L 163.665091 75.455671 
L 164.070909 75.90063 
L 164.251273 76.004117 
L 164.634545 76.365635 
L 165.265818 76.486616 
L 165.682909 76.915503 
L 165.829455 77.074875 
L 166.257818 77.685216 
L 166.505818 77.79621 
L 167.464 78.935396 
L 167.734545 78.985127 
L 168.140364 79.132515 
L 168.760364 79.153402 
L 169.707273 79.265136 
L 170.101818 79.336895 
L 171.375636 79.54742 
L 171.736364 79.885837 
L 171.860364 80.024491 
L 172.311273 80.836577 
L 172.469091 81.063368 
L 172.739636 81.354313 
L 173.528727 81.601731 
L 173.799273 81.689671 
L 173.990909 81.803928 
L 174.532 82.354666 
L 174.667273 82.596169 
L 175.005455 83.24179 
L 175.197091 83.34929 
L 175.580364 83.728628 
L 176.425818 83.838103 
L 177.756 84.96658 
L 179.694909 85.337458 
L 181.104 86.161614 
L 181.487273 86.293085 
L 181.893091 86.408977 
L 182.073455 86.576614 
L 182.456727 86.980124 
L 182.637091 87.076404 
L 182.806182 87.59187 
L 183.065455 88.215797 
L 183.234545 88.325147 
L 183.403636 88.990621 
L 183.640364 89.610464 
L 183.989818 89.799593 
L 184.384364 90.007531 
L 185.714545 90.376617 
L 186.706545 90.485043 
L 187.157455 90.813184 
L 187.428 91.192008 
L 187.563273 91.289938 
L 187.709818 91.871438 
L 187.969091 92.657653 
L 188.160727 92.782125 
L 188.408727 93.570938 
L 188.634182 93.891588 
L 188.882182 94.008881 
L 189.355636 94.482857 
L 190.268727 94.595823 
L 191.463636 94.742376 
L 191.644 94.895596 
L 191.993455 95.232602 
L 192.162545 95.34429 
L 192.658545 95.967609 
L 194.349455 96.304875 
L 194.969455 96.44194 
L 195.397818 96.705078 
L 195.634545 96.813126 
L 196.040364 97.052208 
L 196.310909 97.165194 
L 196.615273 97.244337 
L 198.317455 97.361921 
L 200.853818 97.739481 
L 201.620364 97.854948 
L 202.341818 98.043602 
L 204.607636 98.157411 
L 204.979636 98.270938 
L 206.219636 98.793437 
L 206.602909 99.222435 
L 206.817091 99.319991 
L 207.02 99.816793 
L 207.279273 100.229208 
L 207.516 100.360247 
L 207.730182 101.006535 
L 207.978182 101.456863 
L 208.248727 101.612902 
L 208.519273 102.403512 
L 208.722182 102.643241 
L 208.925091 102.756301 
L 209.432364 103.418537 
L 209.962182 103.53246 
L 211.168364 104.213031 
L 211.574182 104.328004 
L 212.194182 105.36656 
L 212.543636 106.675708 
L 212.690182 106.76997 
L 212.848 107.342607 
L 213.141091 108.202291 
L 213.569455 108.487761 
L 213.952727 108.923332 
L 214.223273 109.043982 
L 214.617818 109.396951 
L 215.237818 109.504512 
L 215.801455 109.804595 
L 216.218545 110.50928 
L 216.342545 110.652753 
L 216.759636 111.305989 
L 217.289455 111.432146 
L 217.977091 112.291213 
L 218.281455 113.095981 
L 218.439273 113.205603 
L 219.014182 114.181658 
L 219.228364 114.431666 
L 219.498909 114.630179 
L 219.927273 114.769993 
L 220.254182 114.912204 
L 220.479636 115.023967 
L 220.840364 115.27788 
L 220.998182 115.388644 
L 221.381455 115.791146 
L 221.561818 115.912724 
L 221.888727 116.18464 
L 222.283273 116.297963 
L 223.061091 116.357914 
L 223.771273 116.58176 
L 224.098182 116.649558 
L 225.011273 116.775114 
L 225.315636 116.858908 
L 225.574909 116.99588 
L 225.868 117.058381 
L 226.814909 117.196551 
L 227.141818 117.260629 
L 228.314182 117.457577 
L 228.844 117.610226 
L 230.129091 117.774293 
L 230.861818 117.953251 
L 231.684727 118.037924 
L 231.898909 118.136678 
L 232.293455 118.484939 
L 232.496364 118.608601 
L 232.924727 118.957055 
L 233.229091 119.082314 
L 233.758909 119.6658 
L 233.894182 119.890502 
L 234.3 120.680022 
L 234.446545 120.795565 
L 235.010182 121.681248 
L 235.337091 121.964785 
L 235.652727 122.067292 
L 235.957091 122.174468 
L 236.295273 122.2663 
L 237.456364 122.380832 
L 238.076364 122.516877 
L 238.831636 122.654251 
L 239.316364 123.036942 
L 239.643273 123.727056 
L 239.801091 123.837672 
L 240.037818 124.578121 
L 240.240727 124.820314 
L 240.545091 124.93618 
L 241.108727 125.26715 
L 241.356727 125.36743 
L 241.875273 125.74787 
L 242.044364 125.903476 
L 242.405091 126.306091 
L 242.608 126.415707 
L 242.946182 126.677298 
L 243.171636 126.790382 
L 243.442182 126.878111 
L 243.611273 127.053043 
L 243.848 127.212436 
L 243.972 127.322378 
L 244.930182 129.147493 
L 245.110545 129.321393 
L 245.414909 129.539534 
L 246.542182 129.743821 
L 247.038182 129.796491 
L 248.007636 129.992225 
L 248.390909 130.123044 
L 248.593818 130.276796 
L 248.864364 130.415987 
L 249.157455 130.524166 
L 249.506909 130.640872 
L 249.721091 130.769291 
L 250.002909 130.895109 
L 250.273455 131.008347 
L 250.622909 131.083592 
L 251.175273 131.194519 
L 251.581091 131.383637 
L 251.750182 131.518088 
L 252.178545 132.015124 
L 252.437818 132.116808 
L 252.866182 132.38519 
L 253.745455 132.511637 
L 254.331636 132.685779 
L 254.613455 132.756596 
L 254.850182 132.892741 
L 255.132 132.978515 
L 255.808364 133.120005 
L 256.721455 133.194551 
L 258.243273 133.461925 
L 258.513818 133.5844 
L 258.908364 133.693162 
L 259.415636 133.733661 
L 259.832727 133.843258 
L 260.170909 133.939269 
L 260.362545 134.145299 
L 260.599273 134.288009 
L 260.757091 134.391186 
L 261.162909 134.838057 
L 261.298182 135.022223 
L 261.613818 135.484029 
L 261.816727 135.589114 
L 262.121091 135.752202 
L 263.056727 135.863601 
L 263.394909 135.965664 
L 263.755636 136.098272 
L 264.353091 136.165415 
L 265.311273 136.314165 
L 265.965091 137.337694 
L 266.201818 137.815296 
L 266.370909 137.924291 
L 266.585091 138.632757 
L 266.788 138.897975 
L 266.979636 138.997103 
L 267.340364 139.303313 
L 268.760727 139.412395 
L 275.366545 141.233588 
L 275.659636 141.404242 
L 275.907636 141.506308 
L 276.268364 141.707208 
L 276.910909 141.81979 
L 277.192727 141.943339 
L 277.497091 142.020212 
L 277.711273 142.193887 
L 278.015636 142.385434 
L 278.32 142.497603 
L 278.680727 142.693356 
L 279.447273 142.807576 
L 280.597091 143.079896 
L 281.036727 143.128724 
L 282.04 143.194114 
L 283.652 143.434221 
L 286.064364 144.104804 
L 288.217455 144.346385 
L 288.837455 144.394533 
L 290.325455 144.5051 
L 291.058182 144.836654 
L 291.306182 144.943675 
L 291.486545 145.054219 
L 291.971273 145.571762 
L 292.162909 145.73306 
L 292.456 145.915895 
L 294.969818 146.12156 
L 295.68 146.449649 
L 295.916727 146.514846 
L 296.198545 146.662358 
L 296.581818 146.709429 
L 297.709091 147.018724 
L 297.990909 147.085599 
L 298.205091 147.256833 
L 298.498182 147.421747 
L 298.746182 147.526291 
L 299.140727 147.819813 
L 299.354909 147.933923 
L 299.670545 148.108263 
L 301.079636 148.219405 
L 301.620727 148.549467 
L 301.846182 148.664263 
L 302.060364 148.778346 
L 302.398545 149.003009 
L 303.942909 149.131935 
L 304.856 149.353657 
L 306.287636 149.745122 
L 306.670909 149.965675 
L 307.065455 150.088093 
L 308.226545 150.137965 
L 308.632364 150.247453 
L 311.439273 150.862728 
L 311.822545 151.148073 
L 312.093091 151.256251 
L 312.532727 151.552196 
L 312.825818 151.662995 
L 313.175273 151.755291 
L 313.908 151.867075 
L 314.404 152.076792 
L 314.674545 152.137708 
L 315.012727 152.303236 
L 315.508727 152.348069 
L 316.681091 152.42852 
L 316.917818 152.548035 
L 317.233455 152.689072 
L 317.470182 152.803791 
L 317.785818 152.950507 
L 318.090182 153.065938 
L 320.852 154.160739 
L 321.133818 154.266059 
L 321.539636 154.374968 
L 322.013091 154.446798 
L 322.362545 154.554365 
L 322.723273 154.657297 
L 323.072727 154.778784 
L 323.456 154.839819 
L 325.541455 155.035759 
L 326.691273 155.220369 
L 326.973091 155.294973 
L 327.164727 155.449049 
L 327.502909 155.72224 
L 327.728364 155.828642 
L 328.134182 156.182782 
L 328.348364 156.298771 
L 328.686545 156.505796 
L 329.058545 156.615416 
L 330.783273 157.038362 
L 331.245455 157.131915 
L 332.316364 157.242965 
L 332.564364 157.375258 
L 332.891273 157.52992 
L 333.128 157.638312 
L 333.545091 157.931829 
L 333.781818 158.03721 
L 334.232727 158.346618 
L 334.458182 158.458177 
L 334.841455 158.720287 
L 335.416364 158.831313 
L 336.994545 158.990799 
L 337.186182 159.146789 
L 337.479273 159.341313 
L 337.783636 159.450011 
L 338.290909 159.694552 
L 338.527636 159.804361 
L 338.798182 160.41637 
L 338.989818 160.533884 
L 339.147636 160.64595 
L 339.722545 161.432528 
L 340.038182 161.559763 
L 340.545455 161.78147 
L 340.985091 161.893296 
L 341.514909 161.922239 
L 344.445818 162.08248 
L 345.697091 162.301836 
L 345.990182 162.391284 
L 346.328364 162.506296 
L 346.711636 162.601358 
L 347.049818 162.74402 
L 347.771273 162.852854 
L 348.504 162.96342 
L 349.428364 163.272504 
L 349.834182 163.383564 
L 350.578182 164.025309 
L 350.905091 164.661928 
L 351.108 164.769133 
L 351.310909 165.366475 
L 351.558909 165.812735 
L 351.795636 165.945069 
L 352.224 166.483326 
L 352.821455 166.602575 
L 353.249818 166.771926 
L 353.475273 166.927388 
L 353.802182 167.103545 
L 354.377091 167.249216 
L 354.782909 167.576741 
L 355.008364 167.684529 
L 355.707273 168.302499 
L 355.831273 168.520526 
L 356.316 169.691746 
L 356.451273 169.88505 
L 356.890909 170.680217 
L 357.353091 170.881393 
L 357.713818 171.201431 
L 358.097091 171.333688 
L 358.536727 171.625479 
L 358.728364 171.735695 
L 359.190545 172.212553 
L 359.359636 172.355166 
L 359.709091 172.681325 
L 360.148727 172.810189 
L 360.520727 172.879806 
L 361.163273 173.018991 
L 361.794545 173.468389 
L 362.031273 173.695638 
L 362.177818 173.800503 
L 362.346909 174.407555 
L 362.583636 174.944556 
L 362.741455 175.044807 
L 362.910545 175.679329 
L 363.169818 176.414529 
L 363.474182 176.652815 
L 363.722182 177.666971 
L 363.925091 178.051906 
L 364.071636 178.158304 
L 364.206909 178.788377 
L 364.511273 180.136206 
L 364.702909 180.265615 
L 365.131273 180.897484 
L 365.751273 181.183489 
L 366.100727 181.665809 
L 366.382545 181.774264 
L 367.273091 182.75281 
L 367.566182 183.194307 
L 368.050909 183.420162 
L 368.513091 183.962302 
L 368.659636 184.102779 
L 369.144364 184.811752 
L 369.369818 184.91827 
L 369.798182 185.263888 
L 370.587273 185.380681 
L 371.398909 186.100059 
L 372.075273 186.786444 
L 372.424727 187.926757 
L 372.526182 188.041875 
L 372.695273 188.805354 
L 372.920727 189.405226 
L 373.270182 189.597761 
L 373.698545 189.988028 
L 374.262182 190.198414 
L 374.814545 190.654796 
L 374.961091 190.899834 
L 375.288 191.461198 
L 376.054545 191.679805 
L 376.358909 191.92849 
L 376.516727 192.032984 
L 376.945091 192.511275 
L 377.644 192.646361 
L 378.185091 193.301194 
L 378.466909 193.989263 
L 378.636 194.093749 
L 378.974182 194.459539 
L 379.357455 194.570409 
L 379.752 195.028646 
L 380.146545 196.408681 
L 380.225455 196.5506 
L 380.360727 197.478069 
L 380.653818 199.310445 
L 380.845455 199.463707 
L 381.093455 200.435209 
L 381.352727 200.970195 
L 381.747273 201.271472 
L 382.141818 202.050426 
L 382.378545 202.156682 
L 382.705455 202.283945 
L 383.043636 202.461154 
L 383.393091 202.725048 
L 383.742545 203.405035 
L 383.855273 203.512611 
L 384.317455 204.27643 
L 385.196727 204.958302 
L 385.343273 205.097318 
L 385.726545 205.592255 
L 385.918182 205.703551 
L 386.481818 206.272988 
L 386.707273 206.379383 
L 386.887636 206.872232 
L 387.158182 207.44208 
L 387.394909 207.580739 
L 387.755636 208.449987 
L 388.003636 208.719907 
L 388.184 208.831207 
L 388.341818 209.449953 
L 388.646182 210.532614 
L 388.995636 210.818821 
L 389.288727 211.862281 
L 389.536727 212.385243 
L 389.705818 212.503445 
L 389.829818 213.182576 
L 390.303273 216.422042 
L 390.382182 216.669791 
L 390.517455 218.086314 
L 390.878182 221.890378 
L 391.058545 222.033836 
L 391.238909 222.794969 
L 391.768727 225.092809 
L 391.915273 225.205847 
L 392.039273 225.893902 
L 392.411273 228.167867 
L 392.648 228.291367 
L 392.952364 228.440644 
L 393.132727 228.603962 
L 393.313091 229.26822 
L 393.527273 229.736772 
L 393.628727 229.820171 
L 393.730182 230.360713 
L 394.237455 233.893508 
L 394.338909 234.258122 
L 394.530545 236.09814 
L 394.834909 238.476885 
L 395.060364 238.844326 
L 395.206909 240.510178 
L 395.545091 244.383022 
L 395.714182 244.572957 
L 395.860727 245.586774 
L 396.266545 248.459762 
L 396.446909 248.561397 
L 396.582182 248.66104 
L 396.706182 249.190311 
L 396.909091 251.444567 
L 397.145818 253.252821 
L 397.281091 253.395668 
L 397.382545 254.263377 
L 397.574182 258.579985 
L 397.822182 262.514035 
L 397.968727 262.743109 
L 398.081455 264.081942 
L 398.250545 269.553007 
L 398.419636 283.202778 
L 398.476 295.488 
L 398.476 295.488 
" clip-path="url(#pb26bb197bd)" style="fill: none; stroke: #1f77b4; stroke-width: 1.5; stroke-linecap: square"/>
   </g>
   <g id="line2d_16">
    <path d="M 147.071636 62.475518 
L 356.034182 169.329013 
" clip-path="url(#pb26bb197bd)" style="fill: none; stroke-dasharray: 5.55,2.4; stroke-dashoffset: 0; stroke: #ff7f0e; stroke-width: 1.5"/>
   </g>
   <g id="line2d_17">
    <path d="M 73.832727 160.42432 
L 398.487273 160.42432 
L 398.487273 160.42432 
" clip-path="url(#pb26bb197bd)" style="fill: none; stroke-dasharray: 5.55,2.4; stroke-dashoffset: 0; stroke: #2ca02c; stroke-width: 1.5"/>
   </g>
   <g id="LineCollection_1">
    <path d="M 356.034182 295.488 
L 356.034182 53.568 
" clip-path="url(#pb26bb197bd)" style="fill: none; stroke-dasharray: 5.55,2.4; stroke-dashoffset: 0; stroke: #1f77b4; stroke-width: 1.5"/>
   </g>
   <g id="patch_3">
    <path d="M 57.6 307.584 
L 57.6 41.472 
" style="fill: none; stroke: #000000; stroke-width: 0.8; stroke-linejoin: miter; stroke-linecap: square"/>
   </g>
   <g id="patch_4">
    <path d="M 414.72 307.584 
L 414.72 41.472 
" style="fill: none; stroke: #000000; stroke-width: 0.8; stroke-linejoin: miter; stroke-linecap: square"/>
   </g>
   <g id="patch_5">
    <path d="M 57.6 307.584 
L 414.72 307.584 
" style="fill: none; stroke: #000000; stroke-width: 0.8; stroke-linejoin: miter; stroke-linecap: square"/>
   </g>
   <g id="patch_6">
    <path d="M 57.6 41.472 
L 414.72 41.472 
" style="fill: none; stroke: #000000; stroke-width: 0.8; stroke-linejoin: miter; stroke-linecap: square"/>
   </g>
   <g id="text_15">
    <!-- Energy Decay - 500 Hz -->
    <g transform="translate(167.4075 35.472) scale(0.12 -0.12)">
     <defs>
      <path id="DejaVuSans-45" d="M 628 4666 
L 3578 4666 
L 3578 4134 
L 1259 4134 
L 1259 2753 
L 3481 2753 
L 3481 2222 
L 1259 2222 
L 1259 531 
L 3634 531 
L 3634 0 
L 628 0 
L 628 4666 
z
" transform="scale(0.015625)"/>
      <path id="DejaVuSans-6e" d="M 3513 2113 
L 3513 0 
L 2938 0 
L 2938 2094 
Q 2938 2591 2744 2837 
Q 2550 3084 2163 3084 
Q 1697 3084 1428 2787 
Q 1159 2491 1159 1978 
L 1159 0 
L 581 0 
L 581 3500 
L 1159 3500 
L 1159 2956 
Q 1366 3272 1645 3428 
Q 1925 3584 2291 3584 
Q 2894 3584 3203 3211 
Q 3513 2838 3513 2113 
z
" transform="scale(0.015625)"/>
      <path id="DejaVuSans-65" d="M 3597 1894 
L 3597 1613 
L 953 1613 
Q 991 1019 1311 708 
Q 1631 397 2203 397 
Q 2534 397 2845 478 
Q 3156 559 3463 722 
L 3463 178 
Q 3153 47 2828 -22 
Q 2503 -91 2169 -91 
Q 1331 -91 842 396 
Q 353 884 353 1716 
Q 353 2575 817 3079 
Q 1281 3584 2069 3584 
Q 2775 3584 3186 3129 
Q 3597 2675 3597 1894 
z
M 3022 2063 
Q 3016 2534 2758 2815 
Q 2500 3097 2075 3097 
Q 1594 3097 1305 2825 
Q 1016 2553 972 2059 
L 3022 2063 
z
" transform="scale(0.015625)"/>
      <path id="DejaVuSans-72" d="M 2631 2963 
Q 2534 3019 2420 3045 
Q 2306 3072 2169 3072 
Q 1681 3072 1420 2755 
Q 1159 2438 1159 1844 
L 1159 0 
L 581 0 
L 581 3500 
L 1159 3500 
L 1159 2956 
Q 1341 3275 1631 3429 
Q 1922 3584 2338 3584 
Q 2397 3584 2469 3576 
Q 2541 3569 2628 3553 
L 2631 2963 
z
" transform="scale(0.015625)"/>
      <path id="DejaVuSans-67" d="M 2906 1791 
Q 2906 2416 2648 2759 
Q 2391 3103 1925 3103 
Q 1463 3103 1205 2759 
Q 947 2416 947 1791 
Q 947 1169 1205 825 
Q 1463 481 1925 481 
Q 2391 481 2648 825 
Q 2906 1169 2906 1791 
z
M 3481 434 
Q 3481 -459 3084 -895 
Q 2688 -1331 1869 -1331 
Q 1566 -1331 1297 -1286 
Q 1028 -1241 775 -1147 
L 775 -588 
Q 1028 -725 1275 -790 
Q 1522 -856 1778 -856 
Q 2344 -856 2625 -561 
Q 2906 -266 2906 331 
L 2906 616 
Q 2728 306 2450 153 
Q 2172 0 1784 0 
Q 1141 0 747 490 
Q 353 981 353 1791 
Q 353 2603 747 3093 
Q 1141 3584 1784 3584 
Q 2172 3584 2450 3431 
Q 2728 3278 2906 2969 
L 2906 3500 
L 3481 3500 
L 3481 434 
z
" transform="scale(0.015625)"/>
      <path id="DejaVuSans-79" d="M 2059 -325 
Q 1816 -950 1584 -1140 
Q 1353 -1331 966 -1331 
L 506 -1331 
L 506 -850 
L 844 -850 
Q 1081 -850 1212 -737 
Q 1344 -625 1503 -206 
L 1606 56 
L 191 3500 
L 800 3500 
L 1894 763 
L 2988 3500 
L 3597 3500 
L 2059 -325 
z
" transform="scale(0.015625)"/>
      <path id="DejaVuSans-20" transform="scale(0.015625)"/>
      <path id="DejaVuSans-44" d="M 1259 4147 
L 1259 519 
L 2022 519 
Q 2988 519 3436 956 
Q 3884 1394 3884 2338 
Q 3884 3275 3436 3711 
Q 2988 4147 2022 4147 
L 1259 4147 
z
M 628 4666 
L 1925 4666 
Q 3281 4666 3915 4102 
Q 4550 3538 4550 2338 
Q 4550 1131 3912 565 
Q 3275 0 1925 0 
L 628 0 
L 628 4666 
z
" transform="scale(0.015625)"/>
      <path id="DejaVuSans-63" d="M 3122 3366 
L 3122 2828 
Q 2878 2963 2633 3030 
Q 2388 3097 2138 3097 
Q 1578 3097 1268 2742 
Q 959 2388 959 1747 
Q 959 1106 1268 751 
Q 1578 397 2138 397 
Q 2388 397 2633 464 
Q 2878 531 3122 666 
L 3122 134 
Q 2881 22 2623 -34 
Q 2366 -91 2075 -91 
Q 1284 -91 818 406 
Q 353 903 353 1747 
Q 353 2603 823 3093 
Q 1294 3584 2113 3584 
Q 2378 3584 2631 3529 
Q 2884 3475 3122 3366 
z
" transform="scale(0.015625)"/>
      <path id="DejaVuSans-61" d="M 2194 1759 
Q 1497 1759 1228 1600 
Q 959 1441 959 1056 
Q 959 750 1161 570 
Q 1363 391 1709 391 
Q 2188 391 2477 730 
Q 2766 1069 2766 1631 
L 2766 1759 
L 2194 1759 
z
M 3341 1997 
L 3341 0 
L 2766 0 
L 2766 531 
Q 2569 213 2275 61 
Q 1981 -91 1556 -91 
Q 1019 -91 701 211 
Q 384 513 384 1019 
Q 384 1609 779 1909 
Q 1175 2209 1959 2209 
L 2766 2209 
L 2766 2266 
Q 2766 2663 2505 2880 
Q 2244 3097 1772 3097 
Q 1472 3097 1187 3025 
Q 903 2953 641 2809 
L 641 3341 
Q 956 3463 1253 3523 
Q 1550 3584 1831 3584 
Q 2591 3584 2966 3190 
Q 3341 2797 3341 1997 
z
" transform="scale(0.015625)"/>
      <path id="DejaVuSans-2d" d="M 313 2009 
L 1997 2009 
L 1997 1497 
L 313 1497 
L 313 2009 
z
" transform="scale(0.015625)"/>
      <path id="DejaVuSans-35" d="M 691 4666 
L 3169 4666 
L 3169 4134 
L 1269 4134 
L 1269 2991 
Q 1406 3038 1543 3061 
Q 1681 3084 1819 3084 
Q 2600 3084 3056 2656 
Q 3513 2228 3513 1497 
Q 3513 744 3044 326 
Q 2575 -91 1722 -91 
Q 1428 -91 1123 -41 
Q 819 9 494 109 
L 494 744 
Q 775 591 1075 516 
Q 1375 441 1709 441 
Q 2250 441 2565 725 
Q 2881 1009 2881 1497 
Q 2881 1984 2565 2268 
Q 2250 2553 1709 2553 
Q 1456 2553 1204 2497 
Q 953 2441 691 2322 
L 691 4666 
z
" transform="scale(0.015625)"/>
      <path id="DejaVuSans-48" d="M 628 4666 
L 1259 4666 
L 1259 2753 
L 3553 2753 
L 3553 4666 
L 4184 4666 
L 4184 0 
L 3553 0 
L 3553 2222 
L 1259 2222 
L 1259 0 
L 628 0 
L 628 4666 
z
" transform="scale(0.015625)"/>
      <path id="DejaVuSans-7a" d="M 353 3500 
L 3084 3500 
L 3084 2975 
L 922 459 
L 3084 459 
L 3084 0 
L 275 0 
L 275 525 
L 2438 3041 
L 353 3041 
L 353 3500 
z
" transform="scale(0.015625)"/>
     </defs>
     <use xlink:href="#DejaVuSans-45"/>
     <use xlink:href="#DejaVuSans-6e" transform="translate(63.183594 0)"/>
     <use xlink:href="#DejaVuSans-65" transform="translate(126.5625 0)"/>
     <use xlink:href="#DejaVuSans-72" transform="translate(188.085938 0)"/>
     <use xlink:href="#DejaVuSans-67" transform="translate(227.449219 0)"/>
     <use xlink:href="#DejaVuSans-79" transform="translate(290.925781 0)"/>
     <use xlink:href="#DejaVuSans-20" transform="translate(350.105469 0)"/>
     <use xlink:href="#DejaVuSans-44" transform="translate(381.892578 0)"/>
     <use xlink:href="#DejaVuSans-65" transform="translate(458.894531 0)"/>
     <use xlink:href="#DejaVuSans-63" transform="translate(520.417969 0)"/>
     <use xlink:href="#DejaVuSans-61" transform="translate(575.398438 0)"/>
     <use xlink:href="#DejaVuSans-79" transform="translate(636.677734 0)"/>
     <use xlink:href="#DejaVuSans-20" transform="translate(695.857422 0)"/>
     <use xlink:href="#DejaVuSans-2d" transform="translate(727.644531 0)"/>
     <use xlink:href="#DejaVuSans-20" transform="translate(763.728516 0)"/>
     <use xlink:href="#DejaVuSans-35" transform="translate(795.515625 0)"/>
     <use xlink:href="#DejaVuSans-30" transform="translate(859.138672 0)"/>
     <use xlink:href="#DejaVuSans-30" transform="translate(922.761719 0)"/>
     <use xlink:href="#DejaVuSans-20" transform="translate(986.384766 0)"/>
     <use xlink:href="#DejaVuSans-48" transform="translate(1018.171875 0)"/>
     <use xlink:href="#DejaVuSans-7a" transform="translate(1093.367188 0)"/>
    </g>
   </g>
   <g id="legend_1">
    <g id="patch_7">
     <path d="M 296.968437 108.1845 
L 407.72 108.1845 
Q 409.72 108.1845 409.72 106.1845 
L 409.72 48.472 
Q 409.72 46.472 407.72 46.472 
L 296.968437 46.472 
Q 294.968437 46.472 294.968437 48.472 
L 294.968437 106.1845 
Q 294.968437 108.1845 296.968437 108.1845 
z
" style="fill: #ffffff; opacity: 0.8; stroke: #cccccc; stroke-linejoin: miter"/>
    </g>
    <g id="line2d_18">
     <path d="M 298.968437 54.570438 
L 308.968437 54.570438 
L 318.968437 54.570438 
" style="fill: none; stroke: #1f77b4; stroke-width: 1.5; stroke-linecap: square"/>
    </g>
    <g id="text_16">
     <!-- Energy -->
     <g transform="translate(326.968437 58.070438) scale(0.1 -0.1)">
      <use xlink:href="#DejaVuSans-45"/>
      <use xlink:href="#DejaVuSans-6e" transform="translate(63.183594 0)"/>
      <use xlink:href="#DejaVuSans-65" transform="translate(126.5625 0)"/>
      <use xlink:href="#DejaVuSans-72" transform="translate(188.085938 0)"/>
      <use xlink:href="#DejaVuSans-67" transform="translate(227.449219 0)"/>
      <use xlink:href="#DejaVuSans-79" transform="translate(290.925781 0)"/>
     </g>
    </g>
    <g id="line2d_19">
     <path d="M 298.968437 69.248563 
L 308.968437 69.248563 
L 318.968437 69.248563 
" style="fill: none; stroke-dasharray: 5.55,2.4; stroke-dashoffset: 0; stroke: #ff7f0e; stroke-width: 1.5"/>
    </g>
    <g id="text_17">
     <!-- Linear Fit -->
     <g transform="translate(326.968437 72.748563) scale(0.1 -0.1)">
      <defs>
       <path id="DejaVuSans-4c" d="M 628 4666 
L 1259 4666 
L 1259 531 
L 3531 531 
L 3531 0 
L 628 0 
L 628 4666 
z
" transform="scale(0.015625)"/>
       <path id="DejaVuSans-69" d="M 603 3500 
L 1178 3500 
L 1178 0 
L 603 0 
L 603 3500 
z
M 603 4863 
L 1178 4863 
L 1178 4134 
L 603 4134 
L 603 4863 
z
" transform="scale(0.015625)"/>
       <path id="DejaVuSans-46" d="M 628 4666 
L 3309 4666 
L 3309 4134 
L 1259 4134 
L 1259 2759 
L 3109 2759 
L 3109 2228 
L 1259 2228 
L 1259 0 
L 628 0 
L 628 4666 
z
" transform="scale(0.015625)"/>
       <path id="DejaVuSans-74" d="M 1172 4494 
L 1172 3500 
L 2356 3500 
L 2356 3053 
L 1172 3053 
L 1172 1153 
Q 1172 725 1289 603 
Q 1406 481 1766 481 
L 2356 481 
L 2356 0 
L 1766 0 
Q 1100 0 847 248 
Q 594 497 594 1153 
L 594 3053 
L 172 3053 
L 172 3500 
L 594 3500 
L 594 4494 
L 1172 4494 
z
" transform="scale(0.015625)"/>
      </defs>
      <use xlink:href="#DejaVuSans-4c"/>
      <use xlink:href="#DejaVuSans-69" transform="translate(55.712891 0)"/>
      <use xlink:href="#DejaVuSans-6e" transform="translate(83.496094 0)"/>
      <use xlink:href="#DejaVuSans-65" transform="translate(146.875 0)"/>
      <use xlink:href="#DejaVuSans-61" transform="translate(208.398438 0)"/>
      <use xlink:href="#DejaVuSans-72" transform="translate(269.677734 0)"/>
      <use xlink:href="#DejaVuSans-20" transform="translate(310.791016 0)"/>
      <use xlink:href="#DejaVuSans-46" transform="translate(342.578125 0)"/>
      <use xlink:href="#DejaVuSans-69" transform="translate(392.847656 0)"/>
      <use xlink:href="#DejaVuSans-74" transform="translate(420.630859 0)"/>
     </g>
    </g>
    <g id="line2d_20">
     <path d="M 298.968437 83.926688 
L 308.968437 83.926688 
L 318.968437 83.926688 
" style="fill: none; stroke-dasharray: 5.55,2.4; stroke-dashoffset: 0; stroke: #2ca02c; stroke-width: 1.5"/>
    </g>
    <g id="text_18">
     <!-- -60 dB -->
     <g transform="translate(326.968437 87.426688) scale(0.1 -0.1)">
      <defs>
       <path id="DejaVuSans-64" d="M 2906 2969 
L 2906 4863 
L 3481 4863 
L 3481 0 
L 2906 0 
L 2906 525 
Q 2725 213 2448 61 
Q 2172 -91 1784 -91 
Q 1150 -91 751 415 
Q 353 922 353 1747 
Q 353 2572 751 3078 
Q 1150 3584 1784 3584 
Q 2172 3584 2448 3432 
Q 2725 3281 2906 2969 
z
M 947 1747 
Q 947 1113 1208 752 
Q 1469 391 1925 391 
Q 2381 391 2643 752 
Q 2906 1113 2906 1747 
Q 2906 2381 2643 2742 
Q 2381 3103 1925 3103 
Q 1469 3103 1208 2742 
Q 947 2381 947 1747 
z
" transform="scale(0.015625)"/>
       <path id="DejaVuSans-42" d="M 1259 2228 
L 1259 519 
L 2272 519 
Q 2781 519 3026 730 
Q 3272 941 3272 1375 
Q 3272 1813 3026 2020 
Q 2781 2228 2272 2228 
L 1259 2228 
z
M 1259 4147 
L 1259 2741 
L 2194 2741 
Q 2656 2741 2882 2914 
Q 3109 3088 3109 3444 
Q 3109 3797 2882 3972 
Q 2656 4147 2194 4147 
L 1259 4147 
z
M 628 4666 
L 2241 4666 
Q 2963 4666 3353 4366 
Q 3744 4066 3744 3513 
Q 3744 3084 3544 2831 
Q 3344 2578 2956 2516 
Q 3422 2416 3680 2098 
Q 3938 1781 3938 1306 
Q 3938 681 3513 340 
Q 3088 0 2303 0 
L 628 0 
L 628 4666 
z
" transform="scale(0.015625)"/>
      </defs>
      <use xlink:href="#DejaVuSans-2d"/>
      <use xlink:href="#DejaVuSans-36" transform="translate(36.083984 0)"/>
      <use xlink:href="#DejaVuSans-30" transform="translate(99.707031 0)"/>
      <use xlink:href="#DejaVuSans-20" transform="translate(163.330078 0)"/>
      <use xlink:href="#DejaVuSans-64" transform="translate(195.117188 0)"/>
      <use xlink:href="#DejaVuSans-42" transform="translate(258.59375 0)"/>
     </g>
    </g>
    <g id="line2d_21">
     <path d="M 298.968437 98.604813 
L 318.968437 98.604813 
" style="fill: none; stroke-dasharray: 5.55,2.4; stroke-dashoffset: 0; stroke: #1f77b4; stroke-width: 1.5"/>
    </g>
    <g id="text_19">
     <!-- Estimated RT60 -->
     <g transform="translate(326.968437 102.104813) scale(0.1 -0.1)">
      <defs>
       <path id="DejaVuSans-73" d="M 2834 3397 
L 2834 2853 
Q 2591 2978 2328 3040 
Q 2066 3103 1784 3103 
Q 1356 3103 1142 2972 
Q 928 2841 928 2578 
Q 928 2378 1081 2264 
Q 1234 2150 1697 2047 
L 1894 2003 
Q 2506 1872 2764 1633 
Q 3022 1394 3022 966 
Q 3022 478 2636 193 
Q 2250 -91 1575 -91 
Q 1294 -91 989 -36 
Q 684 19 347 128 
L 347 722 
Q 666 556 975 473 
Q 1284 391 1588 391 
Q 1994 391 2212 530 
Q 2431 669 2431 922 
Q 2431 1156 2273 1281 
Q 2116 1406 1581 1522 
L 1381 1569 
Q 847 1681 609 1914 
Q 372 2147 372 2553 
Q 372 3047 722 3315 
Q 1072 3584 1716 3584 
Q 2034 3584 2315 3537 
Q 2597 3491 2834 3397 
z
" transform="scale(0.015625)"/>
       <path id="DejaVuSans-6d" d="M 3328 2828 
Q 3544 3216 3844 3400 
Q 4144 3584 4550 3584 
Q 5097 3584 5394 3201 
Q 5691 2819 5691 2113 
L 5691 0 
L 5113 0 
L 5113 2094 
Q 5113 2597 4934 2840 
Q 4756 3084 4391 3084 
Q 3944 3084 3684 2787 
Q 3425 2491 3425 1978 
L 3425 0 
L 2847 0 
L 2847 2094 
Q 2847 2600 2669 2842 
Q 2491 3084 2119 3084 
Q 1678 3084 1418 2786 
Q 1159 2488 1159 1978 
L 1159 0 
L 581 0 
L 581 3500 
L 1159 3500 
L 1159 2956 
Q 1356 3278 1631 3431 
Q 1906 3584 2284 3584 
Q 2666 3584 2933 3390 
Q 3200 3197 3328 2828 
z
" transform="scale(0.015625)"/>
       <path id="DejaVuSans-52" d="M 2841 2188 
Q 3044 2119 3236 1894 
Q 3428 1669 3622 1275 
L 4263 0 
L 3584 0 
L 2988 1197 
Q 2756 1666 2539 1819 
Q 2322 1972 1947 1972 
L 1259 1972 
L 1259 0 
L 628 0 
L 628 4666 
L 2053 4666 
Q 2853 4666 3247 4331 
Q 3641 3997 3641 3322 
Q 3641 2881 3436 2590 
Q 3231 2300 2841 2188 
z
M 1259 4147 
L 1259 2491 
L 2053 2491 
Q 2509 2491 2742 2702 
Q 2975 2913 2975 3322 
Q 2975 3731 2742 3939 
Q 2509 4147 2053 4147 
L 1259 4147 
z
" transform="scale(0.015625)"/>
       <path id="DejaVuSans-54" d="M -19 4666 
L 3928 4666 
L 3928 4134 
L 2272 4134 
L 2272 0 
L 1638 0 
L 1638 4134 
L -19 4134 
L -19 4666 
z
" transform="scale(0.015625)"/>
      </defs>
      <use xlink:href="#DejaVuSans-45"/>
      <use xlink:href="#DejaVuSans-73" transform="translate(63.183594 0)"/>
      <use xlink:href="#DejaVuSans-74" transform="translate(115.283203 0)"/>
      <use xlink:href="#DejaVuSans-69" transform="translate(154.492188 0)"/>
      <use xlink:href="#DejaVuSans-6d" transform="translate(182.275391 0)"/>
      <use xlink:href="#DejaVuSans-61" transform="translate(279.6875 0)"/>
      <use xlink:href="#DejaVuSans-74" transform="translate(340.966797 0)"/>
      <use xlink:href="#DejaVuSans-65" transform="translate(380.175781 0)"/>
      <use xlink:href="#DejaVuSans-64" transform="translate(441.699219 0)"/>
      <use xlink:href="#DejaVuSans-20" transform="translate(505.175781 0)"/>
      <use xlink:href="#DejaVuSans-52" transform="translate(536.962891 0)"/>
      <use xlink:href="#DejaVuSans-54" transform="translate(599.195312 0)"/>
      <use xlink:href="#DejaVuSans-36" transform="translate(660.279297 0)"/>
      <use xlink:href="#DejaVuSans-30" transform="translate(723.902344 0)"/>
     </g>
    </g>
   </g>
  </g>
 </g>
 <defs>
  <clipPath id="pb26bb197bd">
   <rect x="57.6" y="41.472" width="357.12" height="266.112"/>
  </clipPath>
 </defs>
</svg>
