<?xml version="1.0" encoding="utf-8" standalone="no"?>
<!DOCTYPE svg PUBLIC "-//W3C//DTD SVG 1.1//EN"
  "http://www.w3.org/Graphics/SVG/1.1/DTD/svg11.dtd">
<svg xmlns:xlink="http://www.w3.org/1999/xlink" width="460.8pt" height="345.6pt" viewBox="0 0 460.8 345.6" xmlns="http://www.w3.org/2000/svg" version="1.1">
 <metadata>
  <rdf:RDF xmlns:dc="http://purl.org/dc/elements/1.1/" xmlns:cc="http://creativecommons.org/ns#" xmlns:rdf="http://www.w3.org/1999/02/22-rdf-syntax-ns#">
   <cc:Work>
    <dc:type rdf:resource="http://purl.org/dc/dcmitype/StillImage"/>
    <dc:date>2025-05-07T10:17:31.999112</dc:date>
    <dc:format>image/svg+xml</dc:format>
    <dc:creator>
     <cc:Agent>
      <dc:title>Matplotlib v3.10.1, https://matplotlib.org/</dc:title>
     </cc:Agent>
    </dc:creator>
   </cc:Work>
  </rdf:RDF>
 </metadata>
 <defs>
  <style type="text/css">*{stroke-linejoin: round; stroke-linecap: butt}</style>
 </defs>
 <g id="figure_1">
  <g id="patch_1">
   <path d="M 0 345.6 
L 460.8 345.6 
L 460.8 0 
L 0 0 
z
" style="fill: #ffffff"/>
  </g>
  <g id="axes_1">
   <g id="patch_2">
    <path d="M 57.6 307.584 
L 414.72 307.584 
L 414.72 41.472 
L 57.6 41.472 
z
" style="fill: #ffffff"/>
   </g>
   <g id="matplotlib.axis_1">
    <g id="xtick_1">
     <g id="line2d_1">
      <defs>
       <path id="m18a95cb48e" d="M 0 0 
L 0 3.5 
" style="stroke: #000000; stroke-width: 0.8"/>
      </defs>
      <g>
       <use xlink:href="#m18a95cb48e" x="73.851174" y="307.584" style="stroke: #000000; stroke-width: 0.8"/>
      </g>
     </g>
     <g id="text_1">
      <!-- −0.2 -->
      <g transform="translate(61.709767 322.182437) scale(0.1 -0.1)">
       <defs>
        <path id="DejaVuSans-2212" d="M 678 2272 
L 4684 2272 
L 4684 1741 
L 678 1741 
L 678 2272 
z
" transform="scale(0.015625)"/>
        <path id="DejaVuSans-30" d="M 2034 4250 
Q 1547 4250 1301 3770 
Q 1056 3291 1056 2328 
Q 1056 1369 1301 889 
Q 1547 409 2034 409 
Q 2525 409 2770 889 
Q 3016 1369 3016 2328 
Q 3016 3291 2770 3770 
Q 2525 4250 2034 4250 
z
M 2034 4750 
Q 2819 4750 3233 4129 
Q 3647 3509 3647 2328 
Q 3647 1150 3233 529 
Q 2819 -91 2034 -91 
Q 1250 -91 836 529 
Q 422 1150 422 2328 
Q 422 3509 836 4129 
Q 1250 4750 2034 4750 
z
" transform="scale(0.015625)"/>
        <path id="DejaVuSans-2e" d="M 684 794 
L 1344 794 
L 1344 0 
L 684 0 
L 684 794 
z
" transform="scale(0.015625)"/>
        <path id="DejaVuSans-32" d="M 1228 531 
L 3431 531 
L 3431 0 
L 469 0 
L 469 531 
Q 828 903 1448 1529 
Q 2069 2156 2228 2338 
Q 2531 2678 2651 2914 
Q 2772 3150 2772 3378 
Q 2772 3750 2511 3984 
Q 2250 4219 1831 4219 
Q 1534 4219 1204 4116 
Q 875 4013 500 3803 
L 500 4441 
Q 881 4594 1212 4672 
Q 1544 4750 1819 4750 
Q 2544 4750 2975 4387 
Q 3406 4025 3406 3419 
Q 3406 3131 3298 2873 
Q 3191 2616 2906 2266 
Q 2828 2175 2409 1742 
Q 1991 1309 1228 531 
z
" transform="scale(0.015625)"/>
       </defs>
       <use xlink:href="#DejaVuSans-2212"/>
       <use xlink:href="#DejaVuSans-30" transform="translate(83.789062 0)"/>
       <use xlink:href="#DejaVuSans-2e" transform="translate(147.412109 0)"/>
       <use xlink:href="#DejaVuSans-32" transform="translate(179.199219 0)"/>
      </g>
     </g>
    </g>
    <g id="xtick_2">
     <g id="line2d_2">
      <g>
       <use xlink:href="#m18a95cb48e" x="132.879273" y="307.584" style="stroke: #000000; stroke-width: 0.8"/>
      </g>
     </g>
     <g id="text_2">
      <!-- 0.0 -->
      <g transform="translate(124.92771 322.182437) scale(0.1 -0.1)">
       <use xlink:href="#DejaVuSans-30"/>
       <use xlink:href="#DejaVuSans-2e" transform="translate(63.623047 0)"/>
       <use xlink:href="#DejaVuSans-30" transform="translate(95.410156 0)"/>
      </g>
     </g>
    </g>
    <g id="xtick_3">
     <g id="line2d_3">
      <g>
       <use xlink:href="#m18a95cb48e" x="191.907372" y="307.584" style="stroke: #000000; stroke-width: 0.8"/>
      </g>
     </g>
     <g id="text_3">
      <!-- 0.2 -->
      <g transform="translate(183.955809 322.182437) scale(0.1 -0.1)">
       <use xlink:href="#DejaVuSans-30"/>
       <use xlink:href="#DejaVuSans-2e" transform="translate(63.623047 0)"/>
       <use xlink:href="#DejaVuSans-32" transform="translate(95.410156 0)"/>
      </g>
     </g>
    </g>
    <g id="xtick_4">
     <g id="line2d_4">
      <g>
       <use xlink:href="#m18a95cb48e" x="250.935471" y="307.584" style="stroke: #000000; stroke-width: 0.8"/>
      </g>
     </g>
     <g id="text_4">
      <!-- 0.4 -->
      <g transform="translate(242.983909 322.182437) scale(0.1 -0.1)">
       <defs>
        <path id="DejaVuSans-34" d="M 2419 4116 
L 825 1625 
L 2419 1625 
L 2419 4116 
z
M 2253 4666 
L 3047 4666 
L 3047 1625 
L 3713 1625 
L 3713 1100 
L 3047 1100 
L 3047 0 
L 2419 0 
L 2419 1100 
L 313 1100 
L 313 1709 
L 2253 4666 
z
" transform="scale(0.015625)"/>
       </defs>
       <use xlink:href="#DejaVuSans-30"/>
       <use xlink:href="#DejaVuSans-2e" transform="translate(63.623047 0)"/>
       <use xlink:href="#DejaVuSans-34" transform="translate(95.410156 0)"/>
      </g>
     </g>
    </g>
    <g id="xtick_5">
     <g id="line2d_5">
      <g>
       <use xlink:href="#m18a95cb48e" x="309.96357" y="307.584" style="stroke: #000000; stroke-width: 0.8"/>
      </g>
     </g>
     <g id="text_5">
      <!-- 0.6 -->
      <g transform="translate(302.012008 322.182437) scale(0.1 -0.1)">
       <defs>
        <path id="DejaVuSans-36" d="M 2113 2584 
Q 1688 2584 1439 2293 
Q 1191 2003 1191 1497 
Q 1191 994 1439 701 
Q 1688 409 2113 409 
Q 2538 409 2786 701 
Q 3034 994 3034 1497 
Q 3034 2003 2786 2293 
Q 2538 2584 2113 2584 
z
M 3366 4563 
L 3366 3988 
Q 3128 4100 2886 4159 
Q 2644 4219 2406 4219 
Q 1781 4219 1451 3797 
Q 1122 3375 1075 2522 
Q 1259 2794 1537 2939 
Q 1816 3084 2150 3084 
Q 2853 3084 3261 2657 
Q 3669 2231 3669 1497 
Q 3669 778 3244 343 
Q 2819 -91 2113 -91 
Q 1303 -91 875 529 
Q 447 1150 447 2328 
Q 447 3434 972 4092 
Q 1497 4750 2381 4750 
Q 2619 4750 2861 4703 
Q 3103 4656 3366 4563 
z
" transform="scale(0.015625)"/>
       </defs>
       <use xlink:href="#DejaVuSans-30"/>
       <use xlink:href="#DejaVuSans-2e" transform="translate(63.623047 0)"/>
       <use xlink:href="#DejaVuSans-36" transform="translate(95.410156 0)"/>
      </g>
     </g>
    </g>
    <g id="xtick_6">
     <g id="line2d_6">
      <g>
       <use xlink:href="#m18a95cb48e" x="368.991669" y="307.584" style="stroke: #000000; stroke-width: 0.8"/>
      </g>
     </g>
     <g id="text_6">
      <!-- 0.8 -->
      <g transform="translate(361.040107 322.182437) scale(0.1 -0.1)">
       <defs>
        <path id="DejaVuSans-38" d="M 2034 2216 
Q 1584 2216 1326 1975 
Q 1069 1734 1069 1313 
Q 1069 891 1326 650 
Q 1584 409 2034 409 
Q 2484 409 2743 651 
Q 3003 894 3003 1313 
Q 3003 1734 2745 1975 
Q 2488 2216 2034 2216 
z
M 1403 2484 
Q 997 2584 770 2862 
Q 544 3141 544 3541 
Q 544 4100 942 4425 
Q 1341 4750 2034 4750 
Q 2731 4750 3128 4425 
Q 3525 4100 3525 3541 
Q 3525 3141 3298 2862 
Q 3072 2584 2669 2484 
Q 3125 2378 3379 2068 
Q 3634 1759 3634 1313 
Q 3634 634 3220 271 
Q 2806 -91 2034 -91 
Q 1263 -91 848 271 
Q 434 634 434 1313 
Q 434 1759 690 2068 
Q 947 2378 1403 2484 
z
M 1172 3481 
Q 1172 3119 1398 2916 
Q 1625 2713 2034 2713 
Q 2441 2713 2670 2916 
Q 2900 3119 2900 3481 
Q 2900 3844 2670 4047 
Q 2441 4250 2034 4250 
Q 1625 4250 1398 4047 
Q 1172 3844 1172 3481 
z
" transform="scale(0.015625)"/>
       </defs>
       <use xlink:href="#DejaVuSans-30"/>
       <use xlink:href="#DejaVuSans-2e" transform="translate(63.623047 0)"/>
       <use xlink:href="#DejaVuSans-38" transform="translate(95.410156 0)"/>
      </g>
     </g>
    </g>
   </g>
   <g id="matplotlib.axis_2">
    <g id="ytick_1">
     <g id="line2d_7">
      <defs>
       <path id="mbaafb63d61" d="M 0 0 
L -3.5 0 
" style="stroke: #000000; stroke-width: 0.8"/>
      </defs>
      <g>
       <use xlink:href="#mbaafb63d61" x="57.6" y="283.613486" style="stroke: #000000; stroke-width: 0.8"/>
      </g>
     </g>
     <g id="text_7">
      <!-- −140 -->
      <g transform="translate(23.132812 287.412705) scale(0.1 -0.1)">
       <defs>
        <path id="DejaVuSans-31" d="M 794 531 
L 1825 531 
L 1825 4091 
L 703 3866 
L 703 4441 
L 1819 4666 
L 2450 4666 
L 2450 531 
L 3481 531 
L 3481 0 
L 794 0 
L 794 531 
z
" transform="scale(0.015625)"/>
       </defs>
       <use xlink:href="#DejaVuSans-2212"/>
       <use xlink:href="#DejaVuSans-31" transform="translate(83.789062 0)"/>
       <use xlink:href="#DejaVuSans-34" transform="translate(147.412109 0)"/>
       <use xlink:href="#DejaVuSans-30" transform="translate(211.035156 0)"/>
      </g>
     </g>
    </g>
    <g id="ytick_2">
     <g id="line2d_8">
      <g>
       <use xlink:href="#mbaafb63d61" x="57.6" y="250.749845" style="stroke: #000000; stroke-width: 0.8"/>
      </g>
     </g>
     <g id="text_8">
      <!-- −120 -->
      <g transform="translate(23.132812 254.549064) scale(0.1 -0.1)">
       <use xlink:href="#DejaVuSans-2212"/>
       <use xlink:href="#DejaVuSans-31" transform="translate(83.789062 0)"/>
       <use xlink:href="#DejaVuSans-32" transform="translate(147.412109 0)"/>
       <use xlink:href="#DejaVuSans-30" transform="translate(211.035156 0)"/>
      </g>
     </g>
    </g>
    <g id="ytick_3">
     <g id="line2d_9">
      <g>
       <use xlink:href="#mbaafb63d61" x="57.6" y="217.886204" style="stroke: #000000; stroke-width: 0.8"/>
      </g>
     </g>
     <g id="text_9">
      <!-- −100 -->
      <g transform="translate(23.132812 221.685423) scale(0.1 -0.1)">
       <use xlink:href="#DejaVuSans-2212"/>
       <use xlink:href="#DejaVuSans-31" transform="translate(83.789062 0)"/>
       <use xlink:href="#DejaVuSans-30" transform="translate(147.412109 0)"/>
       <use xlink:href="#DejaVuSans-30" transform="translate(211.035156 0)"/>
      </g>
     </g>
    </g>
    <g id="ytick_4">
     <g id="line2d_10">
      <g>
       <use xlink:href="#mbaafb63d61" x="57.6" y="185.022563" style="stroke: #000000; stroke-width: 0.8"/>
      </g>
     </g>
     <g id="text_10">
      <!-- −80 -->
      <g transform="translate(29.495313 188.821782) scale(0.1 -0.1)">
       <use xlink:href="#DejaVuSans-2212"/>
       <use xlink:href="#DejaVuSans-38" transform="translate(83.789062 0)"/>
       <use xlink:href="#DejaVuSans-30" transform="translate(147.412109 0)"/>
      </g>
     </g>
    </g>
    <g id="ytick_5">
     <g id="line2d_11">
      <g>
       <use xlink:href="#mbaafb63d61" x="57.6" y="152.158922" style="stroke: #000000; stroke-width: 0.8"/>
      </g>
     </g>
     <g id="text_11">
      <!-- −60 -->
      <g transform="translate(29.495313 155.958141) scale(0.1 -0.1)">
       <use xlink:href="#DejaVuSans-2212"/>
       <use xlink:href="#DejaVuSans-36" transform="translate(83.789062 0)"/>
       <use xlink:href="#DejaVuSans-30" transform="translate(147.412109 0)"/>
      </g>
     </g>
    </g>
    <g id="ytick_6">
     <g id="line2d_12">
      <g>
       <use xlink:href="#mbaafb63d61" x="57.6" y="119.295282" style="stroke: #000000; stroke-width: 0.8"/>
      </g>
     </g>
     <g id="text_12">
      <!-- −40 -->
      <g transform="translate(29.495313 123.0945) scale(0.1 -0.1)">
       <use xlink:href="#DejaVuSans-2212"/>
       <use xlink:href="#DejaVuSans-34" transform="translate(83.789062 0)"/>
       <use xlink:href="#DejaVuSans-30" transform="translate(147.412109 0)"/>
      </g>
     </g>
    </g>
    <g id="ytick_7">
     <g id="line2d_13">
      <g>
       <use xlink:href="#mbaafb63d61" x="57.6" y="86.431641" style="stroke: #000000; stroke-width: 0.8"/>
      </g>
     </g>
     <g id="text_13">
      <!-- −20 -->
      <g transform="translate(29.495313 90.23086) scale(0.1 -0.1)">
       <use xlink:href="#DejaVuSans-2212"/>
       <use xlink:href="#DejaVuSans-32" transform="translate(83.789062 0)"/>
       <use xlink:href="#DejaVuSans-30" transform="translate(147.412109 0)"/>
      </g>
     </g>
    </g>
    <g id="ytick_8">
     <g id="line2d_14">
      <g>
       <use xlink:href="#mbaafb63d61" x="57.6" y="53.568" style="stroke: #000000; stroke-width: 0.8"/>
      </g>
     </g>
     <g id="text_14">
      <!-- 0 -->
      <g transform="translate(44.2375 57.367219) scale(0.1 -0.1)">
       <use xlink:href="#DejaVuSans-30"/>
      </g>
     </g>
    </g>
   </g>
   <g id="line2d_15">
    <path d="M 73.832727 53.568 
L 123.588496 53.678839 
L 124.480066 54.139967 
L 124.910479 54.620862 
L 125.076496 54.817679 
L 125.322446 54.997435 
L 126.140231 55.11228 
L 126.785851 55.972598 
L 127.019504 56.380998 
L 127.197818 56.491909 
L 127.449917 57.241262 
L 127.640529 57.395433 
L 127.843438 57.502352 
L 128.23081 57.794926 
L 129.054744 57.932959 
L 129.368331 58.009617 
L 129.565091 58.175266 
L 129.841785 58.343846 
L 130.100033 58.452033 
L 130.419769 58.574099 
L 130.70876 58.686958 
L 131.034645 58.766647 
L 131.237554 58.907564 
L 131.575736 59.150629 
L 131.729455 59.269515 
L 131.981554 59.999493 
L 132.159868 60.1214 
L 132.276694 60.24832 
L 132.442711 60.964024 
L 132.676364 61.611641 
L 132.854678 61.731768 
L 133.408066 62.665707 
L 133.641719 62.790949 
L 134.195107 63.281682 
L 134.367273 63.51469 
L 134.662413 63.835501 
L 134.982149 63.963437 
L 135.363372 64.186264 
L 135.67081 64.295727 
L 136.002843 64.425296 
L 136.347174 64.544835 
L 137.078876 64.589573 
L 137.675306 64.703196 
L 138.14876 65.099543 
L 138.388562 65.408922 
L 138.54843 65.515218 
L 139.040331 66.214709 
L 140.319273 66.719617 
L 141.137058 68.748218 
L 141.370711 69.388119 
L 141.579769 69.547034 
L 141.782678 70.393974 
L 142.010182 70.911064 
L 142.416 71.120328 
L 143.018579 71.595227 
L 143.16 71.726768 
L 144.192992 73.500261 
L 144.395901 73.608435 
L 144.807868 74.013523 
L 145.09686 74.127142 
L 145.435041 74.179622 
L 147.279669 74.376528 
L 147.986777 74.983078 
L 148.26962 75.412868 
L 148.435636 75.522825 
L 149.278017 76.96438 
L 149.554711 77.128974 
L 149.800661 77.281375 
L 149.966678 77.398662 
L 150.274116 77.656292 
L 150.440132 77.775503 
L 150.784463 78.097572 
L 151.042711 78.209679 
L 151.344 78.294188 
L 152.672132 78.42235 
L 153.28086 78.966921 
L 153.588298 79.571135 
L 153.766612 79.682293 
L 153.963372 80.306286 
L 154.215471 80.810946 
L 154.522909 80.998249 
L 155.082446 81.844846 
L 155.223868 81.98094 
L 156.152331 83.590224 
L 157.529653 84.014392 
L 157.886281 84.145787 
L 158.175273 84.252784 
L 158.347438 84.373935 
L 158.771702 84.802499 
L 158.943868 84.920385 
L 159.780099 86.452051 
L 160.02605 87.025366 
L 160.253554 87.176784 
L 160.813091 88.116507 
L 161.034446 88.243138 
L 161.575537 88.680913 
L 161.790744 88.79008 
L 162.171967 89.054234 
L 163.106579 89.164636 
L 164.557686 89.752908 
L 166.986446 89.967218 
L 167.730446 90.084922 
L 168.388364 90.379352 
L 168.65276 90.459588 
L 168.806479 90.590155 
L 169.224595 91.088017 
L 169.421355 91.210449 
L 169.790281 91.460799 
L 170.374413 91.626109 
L 170.688 91.786051 
L 170.890909 91.897581 
L 171.253686 92.172672 
L 171.548826 92.284748 
L 171.93005 92.331715 
L 172.944595 92.601867 
L 173.325818 92.908087 
L 173.479537 93.021919 
L 173.676298 93.602909 
L 173.903802 93.985613 
L 174.069818 94.092253 
L 174.223537 94.688035 
L 174.512529 95.604458 
L 174.684694 95.725774 
L 174.850711 96.415548 
L 175.10281 97.146371 
L 175.324165 97.303895 
L 175.809917 98.143895 
L 175.951339 98.290823 
L 176.363306 98.851752 
L 176.504727 98.976679 
L 176.978182 99.646307 
L 177.119603 99.85901 
L 177.439339 100.337945 
L 177.716033 100.452299 
L 178.011174 100.529427 
L 178.72443 100.638376 
L 178.890446 100.841511 
L 179.197884 101.179434 
L 179.449983 101.293758 
L 179.917289 101.659865 
L 180.384595 101.841539 
L 181.067107 103.421891 
L 181.423736 105.12231 
L 181.540562 105.223813 
L 181.669686 105.879156 
L 182.007868 107.587522 
L 182.272264 107.768877 
L 182.874843 108.678763 
L 183.053157 108.782888 
L 183.262215 109.340274 
L 183.489719 109.663815 
L 183.680331 109.772881 
L 184.57805 111.191002 
L 184.953124 111.370952 
L 185.254413 111.450273 
L 185.801653 111.572485 
L 186.158281 111.797462 
L 186.305851 111.925379 
L 186.705521 112.409097 
L 186.945322 112.531202 
L 187.314248 112.653966 
L 187.836893 112.845324 
L 188.150479 113.13397 
L 188.328793 113.237686 
L 188.78995 113.718541 
L 189.023603 113.832956 
L 189.503207 114.155095 
L 189.761455 114.261109 
L 190.259504 114.648019 
L 190.48086 114.776255 
L 190.843636 114.996633 
L 191.624529 115.141489 
L 192.454612 115.387807 
L 194.526744 115.63132 
L 195.184661 116.081226 
L 195.406017 116.207423 
L 195.590479 116.319438 
L 195.947107 116.620399 
L 196.574281 116.738684 
L 199.224397 116.951213 
L 199.402711 117.143028 
L 199.673256 117.370106 
L 199.85157 117.480527 
L 200.755438 118.827428 
L 200.970645 118.936781 
L 201.24119 119.045626 
L 201.757686 119.167199 
L 202.077421 119.303816 
L 202.224992 119.470113 
L 202.557025 119.880149 
L 202.741488 119.990766 
L 203.079669 120.265211 
L 204.942744 120.385687 
L 205.121058 120.59559 
L 205.41005 120.885508 
L 205.582215 120.995715 
L 205.778975 121.59752 
L 206.000331 121.963869 
L 206.190942 122.082459 
L 206.713587 122.850631 
L 207.144 123.000873 
L 208.884099 123.493834 
L 209.185388 123.602782 
L 209.683438 124.073685 
L 209.929388 124.450767 
L 210.101554 124.563486 
L 210.630347 125.375667 
L 211.497322 125.613004 
L 212.001521 125.728835 
L 212.505719 125.770848 
L 213.655537 125.964382 
L 214.110545 126.273772 
L 214.374942 126.406181 
L 214.750017 126.539148 
L 215.481719 126.680415 
L 217.627636 127.655759 
L 218.125686 128.388398 
L 218.260959 128.548539 
L 218.75286 129.367219 
L 218.931174 129.522214 
L 219.214017 129.715082 
L 220.197818 129.840835 
L 220.609785 129.996402 
L 221.009455 130.108804 
L 221.507504 130.200753 
L 221.771901 130.326619 
L 222.091636 130.44837 
L 223.124628 130.581532 
L 224.20681 130.798199 
L 225.04919 131.329054 
L 225.313587 131.476752 
L 225.602579 131.587759 
L 225.971504 131.749433 
L 226.567934 131.870123 
L 227.367273 131.918313 
L 228.166612 132.088241 
L 228.492496 132.153969 
L 230.041983 132.437468 
L 231.204099 132.555382 
L 231.628364 132.707698 
L 231.806678 132.869355 
L 232.138711 133.172977 
L 232.366215 133.277879 
L 232.728992 133.501907 
L 233.491438 133.623864 
L 233.817322 133.759869 
L 233.989488 133.897713 
L 234.315372 134.18612 
L 235.188496 134.297158 
L 237.438942 134.908921 
L 237.69719 135.111727 
L 237.912397 135.219106 
L 238.219835 135.393728 
L 238.625653 135.50591 
L 239.578711 135.694121 
L 240.199736 135.725451 
L 241.902942 135.836767 
L 242.16119 135.950355 
L 242.530116 136.1631 
L 242.689983 136.290875 
L 243.126545 136.8083 
L 243.280264 136.953874 
L 243.64919 137.375607 
L 244.018116 137.488086 
L 244.497719 137.593632 
L 244.817455 137.702253 
L 245.149488 137.799246 
L 246.188628 137.994063 
L 248.254612 138.599074 
L 250.031603 138.732183 
L 250.49276 138.872759 
L 251.73481 139.188047 
L 252.214413 139.31365 
L 252.534149 139.394176 
L 252.77395 139.542969 
L 253.056793 139.635498 
L 253.929917 139.765618 
L 255.393322 139.991072 
L 255.74995 140.068717 
L 255.995901 140.199481 
L 256.383273 140.416213 
L 256.610777 140.52111 
L 257.151868 140.996183 
L 257.305587 141.162847 
L 257.760595 141.807236 
L 257.914314 141.932355 
L 258.443107 142.659119 
L 258.633719 142.849128 
L 258.922711 143.058208 
L 262.64886 143.402902 
L 262.974744 143.495562 
L 263.251438 143.63366 
L 263.565025 143.694906 
L 264.561124 143.843019 
L 266.411901 144.31859 
L 267.420298 144.345663 
L 269.504727 144.480283 
L 271.503074 145.357964 
L 275.007868 145.524377 
L 277.387438 145.634872 
L 278.143736 145.768158 
L 278.918479 145.89537 
L 279.779306 146.176783 
L 280.086744 146.264227 
L 280.732364 146.403002 
L 282.915174 146.805935 
L 283.831339 146.930045 
L 284.212562 147.02947 
L 284.599934 147.196211 
L 286.346182 147.676478 
L 286.65362 147.811593 
L 287.053289 147.922557 
L 287.502149 147.988041 
L 288.270744 148.138534 
L 289.100826 148.276082 
L 290.508893 148.385844 
L 291.578777 148.674117 
L 291.818579 148.788899 
L 292.144463 148.948615 
L 292.371967 149.063746 
L 292.667107 149.183918 
L 292.919207 149.303449 
L 293.226645 149.405927 
L 293.540231 149.519557 
L 293.915306 149.642415 
L 294.204298 149.756825 
L 294.573223 149.914748 
L 294.831471 150.029554 
L 295.13276 150.132295 
L 296.743736 150.275212 
L 297.770579 150.539466 
L 298.656 150.652274 
L 299.510678 151.007629 
L 299.811967 151.205808 
L 300.445289 151.352909 
L 301.58281 151.56908 
L 301.902545 151.64859 
L 302.093157 151.814764 
L 302.369851 151.996602 
L 302.554314 152.101124 
L 302.947835 152.459273 
L 303.175339 152.582102 
L 303.464331 152.680146 
L 304.41124 152.789539 
L 304.75557 152.867192 
L 305.118347 153.030053 
L 305.880793 153.135985 
L 307.756165 153.351418 
L 309.951273 153.667184 
L 310.246413 153.725891 
L 310.51081 153.863208 
L 310.861289 154.007095 
L 311.144132 154.113421 
L 311.531504 154.322221 
L 311.832793 154.432409 
L 312.201719 154.534885 
L 312.847339 154.649777 
L 313.265455 154.783791 
L 313.425322 154.941229 
L 313.849587 155.473996 
L 314.003306 155.594012 
L 314.470612 156.163423 
L 314.765752 156.283567 
L 315.140826 156.362277 
L 317.969256 156.479695 
L 319.420364 156.538741 
L 321.431008 156.653353 
L 321.633917 156.87094 
L 321.879868 157.025972 
L 322.052033 157.135253 
L 322.470149 157.593523 
L 322.666909 157.738555 
L 322.943603 157.875989 
L 324.74519 157.987034 
L 325.415405 158.328797 
L 325.649058 158.419317 
L 325.851967 158.534775 
L 326.184 158.740165 
L 327.81957 158.851824 
L 328.741884 159.071895 
L 329.781025 159.186812 
L 331.287471 159.808966 
L 335.585455 160.123339 
L 336.046612 160.3063 
L 336.821355 160.580488 
L 337.122645 160.728368 
L 337.473124 160.773274 
L 340.406083 161.012117 
L 342.213818 161.166424 
L 343.781752 161.549625 
L 344.156826 161.858377 
L 344.310545 161.980079 
L 344.784 162.594707 
L 344.93157 162.785415 
L 345.257455 163.200097 
L 345.57719 163.32201 
L 345.909223 163.435672 
L 347.169719 163.550062 
L 350.360926 164.091528 
L 350.754446 164.271483 
L 351.074182 164.400432 
L 351.535339 164.453971 
L 353.601322 164.957201 
L 354.00714 165.155863 
L 354.578975 165.284507 
L 355.064727 165.485268 
L 355.304529 165.571163 
L 355.433653 165.732723 
L 355.802579 166.296334 
L 355.962446 166.408579 
L 356.368264 166.823804 
L 358.151405 166.938504 
L 358.766281 167.253136 
L 359.030678 167.46611 
L 359.227438 167.570895 
L 359.633256 167.958336 
L 359.854612 168.082026 
L 360.174347 168.235713 
L 361.041322 168.351758 
L 363.008926 168.735822 
L 363.267174 168.805104 
L 365.333157 169.40133 
L 366.138645 169.542156 
L 366.470678 169.785432 
L 366.599802 169.917929 
L 367.731174 172.208496 
L 367.927934 172.536881 
L 368.198479 172.8338 
L 369.58195 173.158337 
L 370.233719 173.70225 
L 370.424331 173.94985 
L 370.787107 174.408427 
L 370.977719 174.513686 
L 371.229818 175.149095 
L 371.438876 175.335671 
L 371.641785 175.445033 
L 372.170579 176.068093 
L 372.422678 176.21007 
L 372.896132 176.498908 
L 373.074446 176.61342 
L 373.480264 177.020096 
L 373.713917 177.140798 
L 374.002909 177.227373 
L 374.507107 177.352076 
L 374.808397 177.498932 
L 374.937521 177.649005 
L 375.355636 178.293614 
L 375.546248 178.410013 
L 376.185719 179.027942 
L 376.32714 179.22101 
L 376.671471 179.742783 
L 376.868231 179.854395 
L 377.132628 179.983265 
L 377.378579 180.106909 
L 377.778248 180.414939 
L 378.030347 180.688795 
L 378.21481 180.793531 
L 378.393124 181.339504 
L 378.645223 181.863394 
L 378.817388 181.985271 
L 378.95881 182.619807 
L 379.241653 183.707008 
L 379.370777 183.81861 
L 379.499901 184.529507 
L 379.764298 185.723862 
L 379.893421 185.837349 
L 380.496 187.148493 
L 380.698909 187.281342 
L 380.877223 187.396013 
L 381.123174 187.497801 
L 381.332231 187.644921 
L 381.78724 187.832904 
L 382.094678 187.989363 
L 382.887868 188.783081 
L 383.121521 189.108228 
L 383.305983 189.211826 
L 383.613421 189.441826 
L 384.523438 189.548449 
L 385.525686 190.186451 
L 386.122116 190.371309 
L 386.755438 191.668836 
L 387.222744 194.216204 
L 387.314975 194.710556 
L 387.499438 197.35137 
L 387.720793 199.203907 
L 387.83762 199.326623 
L 387.948298 200.181032 
L 388.317223 203.295124 
L 388.458645 203.400709 
L 388.723041 203.613029 
L 389.061223 203.721 
L 389.897455 205.029441 
L 390.567669 205.404521 
L 390.905851 206.19088 
L 390.991934 206.320471 
L 391.127207 207.129146 
L 391.367008 208.168023 
L 391.465388 208.266733 
L 391.576066 208.944247 
L 391.877355 210.670967 
L 391.975736 210.775694 
L 392.10486 211.510107 
L 392.375405 212.778122 
L 392.688992 212.989102 
L 393.365355 213.658043 
L 393.519074 213.766021 
L 393.64205 214.352466 
L 394.047868 216.550935 
L 394.121653 216.800222 
L 394.238479 218.236502 
L 394.625851 223.430648 
L 394.693488 223.767437 
L 394.816463 225.932024 
L 395.185388 232.931892 
L 395.265322 233.052634 
L 395.480529 234.211436 
L 395.683438 234.571191 
L 395.849455 234.852036 
L 396.02162 235.84591 
L 396.236826 236.609406 
L 396.329058 236.716537 
L 396.427438 237.487039 
L 396.61805 241.409694 
L 396.833256 243.881188 
L 396.96238 244.031741 
L 397.085355 244.97226 
L 397.694083 250.55351 
L 397.847802 250.704095 
L 397.946182 251.546261 
L 398.081455 255.026446 
L 398.247471 266.13373 
L 398.481124 295.488 
L 398.481124 295.488 
" clip-path="url(#p1ff28fb72d)" style="fill: none; stroke: #1f77b4; stroke-width: 1.5; stroke-linecap: square"/>
   </g>
   <g id="line2d_16">
    <path d="M 132.879273 61.789079 
L 336.366347 160.374833 
" clip-path="url(#p1ff28fb72d)" style="fill: none; stroke-dasharray: 5.55,2.4; stroke-dashoffset: 0; stroke: #ff7f0e; stroke-width: 1.5"/>
   </g>
   <g id="line2d_17">
    <path d="M 73.832727 152.158922 
L 398.487273 152.158922 
L 398.487273 152.158922 
" clip-path="url(#p1ff28fb72d)" style="fill: none; stroke-dasharray: 5.55,2.4; stroke-dashoffset: 0; stroke: #2ca02c; stroke-width: 1.5"/>
   </g>
   <g id="LineCollection_1">
    <path d="M 336.366347 295.488 
L 336.366347 53.568 
" clip-path="url(#p1ff28fb72d)" style="fill: none; stroke-dasharray: 5.55,2.4; stroke-dashoffset: 0; stroke: #1f77b4; stroke-width: 1.5"/>
   </g>
   <g id="patch_3">
    <path d="M 57.6 307.584 
L 57.6 41.472 
" style="fill: none; stroke: #000000; stroke-width: 0.8; stroke-linejoin: miter; stroke-linecap: square"/>
   </g>
   <g id="patch_4">
    <path d="M 414.72 307.584 
L 414.72 41.472 
" style="fill: none; stroke: #000000; stroke-width: 0.8; stroke-linejoin: miter; stroke-linecap: square"/>
   </g>
   <g id="patch_5">
    <path d="M 57.6 307.584 
L 414.72 307.584 
" style="fill: none; stroke: #000000; stroke-width: 0.8; stroke-linejoin: miter; stroke-linecap: square"/>
   </g>
   <g id="patch_6">
    <path d="M 57.6 41.472 
L 414.72 41.472 
" style="fill: none; stroke: #000000; stroke-width: 0.8; stroke-linejoin: miter; stroke-linecap: square"/>
   </g>
   <g id="text_15">
    <!-- Energy Decay - 250 Hz -->
    <g transform="translate(167.4075 35.472) scale(0.12 -0.12)">
     <defs>
      <path id="DejaVuSans-45" d="M 628 4666 
L 3578 4666 
L 3578 4134 
L 1259 4134 
L 1259 2753 
L 3481 2753 
L 3481 2222 
L 1259 2222 
L 1259 531 
L 3634 531 
L 3634 0 
L 628 0 
L 628 4666 
z
" transform="scale(0.015625)"/>
      <path id="DejaVuSans-6e" d="M 3513 2113 
L 3513 0 
L 2938 0 
L 2938 2094 
Q 2938 2591 2744 2837 
Q 2550 3084 2163 3084 
Q 1697 3084 1428 2787 
Q 1159 2491 1159 1978 
L 1159 0 
L 581 0 
L 581 3500 
L 1159 3500 
L 1159 2956 
Q 1366 3272 1645 3428 
Q 1925 3584 2291 3584 
Q 2894 3584 3203 3211 
Q 3513 2838 3513 2113 
z
" transform="scale(0.015625)"/>
      <path id="DejaVuSans-65" d="M 3597 1894 
L 3597 1613 
L 953 1613 
Q 991 1019 1311 708 
Q 1631 397 2203 397 
Q 2534 397 2845 478 
Q 3156 559 3463 722 
L 3463 178 
Q 3153 47 2828 -22 
Q 2503 -91 2169 -91 
Q 1331 -91 842 396 
Q 353 884 353 1716 
Q 353 2575 817 3079 
Q 1281 3584 2069 3584 
Q 2775 3584 3186 3129 
Q 3597 2675 3597 1894 
z
M 3022 2063 
Q 3016 2534 2758 2815 
Q 2500 3097 2075 3097 
Q 1594 3097 1305 2825 
Q 1016 2553 972 2059 
L 3022 2063 
z
" transform="scale(0.015625)"/>
      <path id="DejaVuSans-72" d="M 2631 2963 
Q 2534 3019 2420 3045 
Q 2306 3072 2169 3072 
Q 1681 3072 1420 2755 
Q 1159 2438 1159 1844 
L 1159 0 
L 581 0 
L 581 3500 
L 1159 3500 
L 1159 2956 
Q 1341 3275 1631 3429 
Q 1922 3584 2338 3584 
Q 2397 3584 2469 3576 
Q 2541 3569 2628 3553 
L 2631 2963 
z
" transform="scale(0.015625)"/>
      <path id="DejaVuSans-67" d="M 2906 1791 
Q 2906 2416 2648 2759 
Q 2391 3103 1925 3103 
Q 1463 3103 1205 2759 
Q 947 2416 947 1791 
Q 947 1169 1205 825 
Q 1463 481 1925 481 
Q 2391 481 2648 825 
Q 2906 1169 2906 1791 
z
M 3481 434 
Q 3481 -459 3084 -895 
Q 2688 -1331 1869 -1331 
Q 1566 -1331 1297 -1286 
Q 1028 -1241 775 -1147 
L 775 -588 
Q 1028 -725 1275 -790 
Q 1522 -856 1778 -856 
Q 2344 -856 2625 -561 
Q 2906 -266 2906 331 
L 2906 616 
Q 2728 306 2450 153 
Q 2172 0 1784 0 
Q 1141 0 747 490 
Q 353 981 353 1791 
Q 353 2603 747 3093 
Q 1141 3584 1784 3584 
Q 2172 3584 2450 3431 
Q 2728 3278 2906 2969 
L 2906 3500 
L 3481 3500 
L 3481 434 
z
" transform="scale(0.015625)"/>
      <path id="DejaVuSans-79" d="M 2059 -325 
Q 1816 -950 1584 -1140 
Q 1353 -1331 966 -1331 
L 506 -1331 
L 506 -850 
L 844 -850 
Q 1081 -850 1212 -737 
Q 1344 -625 1503 -206 
L 1606 56 
L 191 3500 
L 800 3500 
L 1894 763 
L 2988 3500 
L 3597 3500 
L 2059 -325 
z
" transform="scale(0.015625)"/>
      <path id="DejaVuSans-20" transform="scale(0.015625)"/>
      <path id="DejaVuSans-44" d="M 1259 4147 
L 1259 519 
L 2022 519 
Q 2988 519 3436 956 
Q 3884 1394 3884 2338 
Q 3884 3275 3436 3711 
Q 2988 4147 2022 4147 
L 1259 4147 
z
M 628 4666 
L 1925 4666 
Q 3281 4666 3915 4102 
Q 4550 3538 4550 2338 
Q 4550 1131 3912 565 
Q 3275 0 1925 0 
L 628 0 
L 628 4666 
z
" transform="scale(0.015625)"/>
      <path id="DejaVuSans-63" d="M 3122 3366 
L 3122 2828 
Q 2878 2963 2633 3030 
Q 2388 3097 2138 3097 
Q 1578 3097 1268 2742 
Q 959 2388 959 1747 
Q 959 1106 1268 751 
Q 1578 397 2138 397 
Q 2388 397 2633 464 
Q 2878 531 3122 666 
L 3122 134 
Q 2881 22 2623 -34 
Q 2366 -91 2075 -91 
Q 1284 -91 818 406 
Q 353 903 353 1747 
Q 353 2603 823 3093 
Q 1294 3584 2113 3584 
Q 2378 3584 2631 3529 
Q 2884 3475 3122 3366 
z
" transform="scale(0.015625)"/>
      <path id="DejaVuSans-61" d="M 2194 1759 
Q 1497 1759 1228 1600 
Q 959 1441 959 1056 
Q 959 750 1161 570 
Q 1363 391 1709 391 
Q 2188 391 2477 730 
Q 2766 1069 2766 1631 
L 2766 1759 
L 2194 1759 
z
M 3341 1997 
L 3341 0 
L 2766 0 
L 2766 531 
Q 2569 213 2275 61 
Q 1981 -91 1556 -91 
Q 1019 -91 701 211 
Q 384 513 384 1019 
Q 384 1609 779 1909 
Q 1175 2209 1959 2209 
L 2766 2209 
L 2766 2266 
Q 2766 2663 2505 2880 
Q 2244 3097 1772 3097 
Q 1472 3097 1187 3025 
Q 903 2953 641 2809 
L 641 3341 
Q 956 3463 1253 3523 
Q 1550 3584 1831 3584 
Q 2591 3584 2966 3190 
Q 3341 2797 3341 1997 
z
" transform="scale(0.015625)"/>
      <path id="DejaVuSans-2d" d="M 313 2009 
L 1997 2009 
L 1997 1497 
L 313 1497 
L 313 2009 
z
" transform="scale(0.015625)"/>
      <path id="DejaVuSans-35" d="M 691 4666 
L 3169 4666 
L 3169 4134 
L 1269 4134 
L 1269 2991 
Q 1406 3038 1543 3061 
Q 1681 3084 1819 3084 
Q 2600 3084 3056 2656 
Q 3513 2228 3513 1497 
Q 3513 744 3044 326 
Q 2575 -91 1722 -91 
Q 1428 -91 1123 -41 
Q 819 9 494 109 
L 494 744 
Q 775 591 1075 516 
Q 1375 441 1709 441 
Q 2250 441 2565 725 
Q 2881 1009 2881 1497 
Q 2881 1984 2565 2268 
Q 2250 2553 1709 2553 
Q 1456 2553 1204 2497 
Q 953 2441 691 2322 
L 691 4666 
z
" transform="scale(0.015625)"/>
      <path id="DejaVuSans-48" d="M 628 4666 
L 1259 4666 
L 1259 2753 
L 3553 2753 
L 3553 4666 
L 4184 4666 
L 4184 0 
L 3553 0 
L 3553 2222 
L 1259 2222 
L 1259 0 
L 628 0 
L 628 4666 
z
" transform="scale(0.015625)"/>
      <path id="DejaVuSans-7a" d="M 353 3500 
L 3084 3500 
L 3084 2975 
L 922 459 
L 3084 459 
L 3084 0 
L 275 0 
L 275 525 
L 2438 3041 
L 353 3041 
L 353 3500 
z
" transform="scale(0.015625)"/>
     </defs>
     <use xlink:href="#DejaVuSans-45"/>
     <use xlink:href="#DejaVuSans-6e" transform="translate(63.183594 0)"/>
     <use xlink:href="#DejaVuSans-65" transform="translate(126.5625 0)"/>
     <use xlink:href="#DejaVuSans-72" transform="translate(188.085938 0)"/>
     <use xlink:href="#DejaVuSans-67" transform="translate(227.449219 0)"/>
     <use xlink:href="#DejaVuSans-79" transform="translate(290.925781 0)"/>
     <use xlink:href="#DejaVuSans-20" transform="translate(350.105469 0)"/>
     <use xlink:href="#DejaVuSans-44" transform="translate(381.892578 0)"/>
     <use xlink:href="#DejaVuSans-65" transform="translate(458.894531 0)"/>
     <use xlink:href="#DejaVuSans-63" transform="translate(520.417969 0)"/>
     <use xlink:href="#DejaVuSans-61" transform="translate(575.398438 0)"/>
     <use xlink:href="#DejaVuSans-79" transform="translate(636.677734 0)"/>
     <use xlink:href="#DejaVuSans-20" transform="translate(695.857422 0)"/>
     <use xlink:href="#DejaVuSans-2d" transform="translate(727.644531 0)"/>
     <use xlink:href="#DejaVuSans-20" transform="translate(763.728516 0)"/>
     <use xlink:href="#DejaVuSans-32" transform="translate(795.515625 0)"/>
     <use xlink:href="#DejaVuSans-35" transform="translate(859.138672 0)"/>
     <use xlink:href="#DejaVuSans-30" transform="translate(922.761719 0)"/>
     <use xlink:href="#DejaVuSans-20" transform="translate(986.384766 0)"/>
     <use xlink:href="#DejaVuSans-48" transform="translate(1018.171875 0)"/>
     <use xlink:href="#DejaVuSans-7a" transform="translate(1093.367188 0)"/>
    </g>
   </g>
   <g id="legend_1">
    <g id="patch_7">
     <path d="M 296.968437 108.1845 
L 407.72 108.1845 
Q 409.72 108.1845 409.72 106.1845 
L 409.72 48.472 
Q 409.72 46.472 407.72 46.472 
L 296.968437 46.472 
Q 294.968437 46.472 294.968437 48.472 
L 294.968437 106.1845 
Q 294.968437 108.1845 296.968437 108.1845 
z
" style="fill: #ffffff; opacity: 0.8; stroke: #cccccc; stroke-linejoin: miter"/>
    </g>
    <g id="line2d_18">
     <path d="M 298.968437 54.570438 
L 308.968437 54.570438 
L 318.968437 54.570438 
" style="fill: none; stroke: #1f77b4; stroke-width: 1.5; stroke-linecap: square"/>
    </g>
    <g id="text_16">
     <!-- Energy -->
     <g transform="translate(326.968437 58.070438) scale(0.1 -0.1)">
      <use xlink:href="#DejaVuSans-45"/>
      <use xlink:href="#DejaVuSans-6e" transform="translate(63.183594 0)"/>
      <use xlink:href="#DejaVuSans-65" transform="translate(126.5625 0)"/>
      <use xlink:href="#DejaVuSans-72" transform="translate(188.085938 0)"/>
      <use xlink:href="#DejaVuSans-67" transform="translate(227.449219 0)"/>
      <use xlink:href="#DejaVuSans-79" transform="translate(290.925781 0)"/>
     </g>
    </g>
    <g id="line2d_19">
     <path d="M 298.968437 69.248563 
L 308.968437 69.248563 
L 318.968437 69.248563 
" style="fill: none; stroke-dasharray: 5.55,2.4; stroke-dashoffset: 0; stroke: #ff7f0e; stroke-width: 1.5"/>
    </g>
    <g id="text_17">
     <!-- Linear Fit -->
     <g transform="translate(326.968437 72.748563) scale(0.1 -0.1)">
      <defs>
       <path id="DejaVuSans-4c" d="M 628 4666 
L 1259 4666 
L 1259 531 
L 3531 531 
L 3531 0 
L 628 0 
L 628 4666 
z
" transform="scale(0.015625)"/>
       <path id="DejaVuSans-69" d="M 603 3500 
L 1178 3500 
L 1178 0 
L 603 0 
L 603 3500 
z
M 603 4863 
L 1178 4863 
L 1178 4134 
L 603 4134 
L 603 4863 
z
" transform="scale(0.015625)"/>
       <path id="DejaVuSans-46" d="M 628 4666 
L 3309 4666 
L 3309 4134 
L 1259 4134 
L 1259 2759 
L 3109 2759 
L 3109 2228 
L 1259 2228 
L 1259 0 
L 628 0 
L 628 4666 
z
" transform="scale(0.015625)"/>
       <path id="DejaVuSans-74" d="M 1172 4494 
L 1172 3500 
L 2356 3500 
L 2356 3053 
L 1172 3053 
L 1172 1153 
Q 1172 725 1289 603 
Q 1406 481 1766 481 
L 2356 481 
L 2356 0 
L 1766 0 
Q 1100 0 847 248 
Q 594 497 594 1153 
L 594 3053 
L 172 3053 
L 172 3500 
L 594 3500 
L 594 4494 
L 1172 4494 
z
" transform="scale(0.015625)"/>
      </defs>
      <use xlink:href="#DejaVuSans-4c"/>
      <use xlink:href="#DejaVuSans-69" transform="translate(55.712891 0)"/>
      <use xlink:href="#DejaVuSans-6e" transform="translate(83.496094 0)"/>
      <use xlink:href="#DejaVuSans-65" transform="translate(146.875 0)"/>
      <use xlink:href="#DejaVuSans-61" transform="translate(208.398438 0)"/>
      <use xlink:href="#DejaVuSans-72" transform="translate(269.677734 0)"/>
      <use xlink:href="#DejaVuSans-20" transform="translate(310.791016 0)"/>
      <use xlink:href="#DejaVuSans-46" transform="translate(342.578125 0)"/>
      <use xlink:href="#DejaVuSans-69" transform="translate(392.847656 0)"/>
      <use xlink:href="#DejaVuSans-74" transform="translate(420.630859 0)"/>
     </g>
    </g>
    <g id="line2d_20">
     <path d="M 298.968437 83.926688 
L 308.968437 83.926688 
L 318.968437 83.926688 
" style="fill: none; stroke-dasharray: 5.55,2.4; stroke-dashoffset: 0; stroke: #2ca02c; stroke-width: 1.5"/>
    </g>
    <g id="text_18">
     <!-- -60 dB -->
     <g transform="translate(326.968437 87.426688) scale(0.1 -0.1)">
      <defs>
       <path id="DejaVuSans-64" d="M 2906 2969 
L 2906 4863 
L 3481 4863 
L 3481 0 
L 2906 0 
L 2906 525 
Q 2725 213 2448 61 
Q 2172 -91 1784 -91 
Q 1150 -91 751 415 
Q 353 922 353 1747 
Q 353 2572 751 3078 
Q 1150 3584 1784 3584 
Q 2172 3584 2448 3432 
Q 2725 3281 2906 2969 
z
M 947 1747 
Q 947 1113 1208 752 
Q 1469 391 1925 391 
Q 2381 391 2643 752 
Q 2906 1113 2906 1747 
Q 2906 2381 2643 2742 
Q 2381 3103 1925 3103 
Q 1469 3103 1208 2742 
Q 947 2381 947 1747 
z
" transform="scale(0.015625)"/>
       <path id="DejaVuSans-42" d="M 1259 2228 
L 1259 519 
L 2272 519 
Q 2781 519 3026 730 
Q 3272 941 3272 1375 
Q 3272 1813 3026 2020 
Q 2781 2228 2272 2228 
L 1259 2228 
z
M 1259 4147 
L 1259 2741 
L 2194 2741 
Q 2656 2741 2882 2914 
Q 3109 3088 3109 3444 
Q 3109 3797 2882 3972 
Q 2656 4147 2194 4147 
L 1259 4147 
z
M 628 4666 
L 2241 4666 
Q 2963 4666 3353 4366 
Q 3744 4066 3744 3513 
Q 3744 3084 3544 2831 
Q 3344 2578 2956 2516 
Q 3422 2416 3680 2098 
Q 3938 1781 3938 1306 
Q 3938 681 3513 340 
Q 3088 0 2303 0 
L 628 0 
L 628 4666 
z
" transform="scale(0.015625)"/>
      </defs>
      <use xlink:href="#DejaVuSans-2d"/>
      <use xlink:href="#DejaVuSans-36" transform="translate(36.083984 0)"/>
      <use xlink:href="#DejaVuSans-30" transform="translate(99.707031 0)"/>
      <use xlink:href="#DejaVuSans-20" transform="translate(163.330078 0)"/>
      <use xlink:href="#DejaVuSans-64" transform="translate(195.117188 0)"/>
      <use xlink:href="#DejaVuSans-42" transform="translate(258.59375 0)"/>
     </g>
    </g>
    <g id="line2d_21">
     <path d="M 298.968437 98.604813 
L 318.968437 98.604813 
" style="fill: none; stroke-dasharray: 5.55,2.4; stroke-dashoffset: 0; stroke: #1f77b4; stroke-width: 1.5"/>
    </g>
    <g id="text_19">
     <!-- Estimated RT60 -->
     <g transform="translate(326.968437 102.104813) scale(0.1 -0.1)">
      <defs>
       <path id="DejaVuSans-73" d="M 2834 3397 
L 2834 2853 
Q 2591 2978 2328 3040 
Q 2066 3103 1784 3103 
Q 1356 3103 1142 2972 
Q 928 2841 928 2578 
Q 928 2378 1081 2264 
Q 1234 2150 1697 2047 
L 1894 2003 
Q 2506 1872 2764 1633 
Q 3022 1394 3022 966 
Q 3022 478 2636 193 
Q 2250 -91 1575 -91 
Q 1294 -91 989 -36 
Q 684 19 347 128 
L 347 722 
Q 666 556 975 473 
Q 1284 391 1588 391 
Q 1994 391 2212 530 
Q 2431 669 2431 922 
Q 2431 1156 2273 1281 
Q 2116 1406 1581 1522 
L 1381 1569 
Q 847 1681 609 1914 
Q 372 2147 372 2553 
Q 372 3047 722 3315 
Q 1072 3584 1716 3584 
Q 2034 3584 2315 3537 
Q 2597 3491 2834 3397 
z
" transform="scale(0.015625)"/>
       <path id="DejaVuSans-6d" d="M 3328 2828 
Q 3544 3216 3844 3400 
Q 4144 3584 4550 3584 
Q 5097 3584 5394 3201 
Q 5691 2819 5691 2113 
L 5691 0 
L 5113 0 
L 5113 2094 
Q 5113 2597 4934 2840 
Q 4756 3084 4391 3084 
Q 3944 3084 3684 2787 
Q 3425 2491 3425 1978 
L 3425 0 
L 2847 0 
L 2847 2094 
Q 2847 2600 2669 2842 
Q 2491 3084 2119 3084 
Q 1678 3084 1418 2786 
Q 1159 2488 1159 1978 
L 1159 0 
L 581 0 
L 581 3500 
L 1159 3500 
L 1159 2956 
Q 1356 3278 1631 3431 
Q 1906 3584 2284 3584 
Q 2666 3584 2933 3390 
Q 3200 3197 3328 2828 
z
" transform="scale(0.015625)"/>
       <path id="DejaVuSans-52" d="M 2841 2188 
Q 3044 2119 3236 1894 
Q 3428 1669 3622 1275 
L 4263 0 
L 3584 0 
L 2988 1197 
Q 2756 1666 2539 1819 
Q 2322 1972 1947 1972 
L 1259 1972 
L 1259 0 
L 628 0 
L 628 4666 
L 2053 4666 
Q 2853 4666 3247 4331 
Q 3641 3997 3641 3322 
Q 3641 2881 3436 2590 
Q 3231 2300 2841 2188 
z
M 1259 4147 
L 1259 2491 
L 2053 2491 
Q 2509 2491 2742 2702 
Q 2975 2913 2975 3322 
Q 2975 3731 2742 3939 
Q 2509 4147 2053 4147 
L 1259 4147 
z
" transform="scale(0.015625)"/>
       <path id="DejaVuSans-54" d="M -19 4666 
L 3928 4666 
L 3928 4134 
L 2272 4134 
L 2272 0 
L 1638 0 
L 1638 4134 
L -19 4134 
L -19 4666 
z
" transform="scale(0.015625)"/>
      </defs>
      <use xlink:href="#DejaVuSans-45"/>
      <use xlink:href="#DejaVuSans-73" transform="translate(63.183594 0)"/>
      <use xlink:href="#DejaVuSans-74" transform="translate(115.283203 0)"/>
      <use xlink:href="#DejaVuSans-69" transform="translate(154.492188 0)"/>
      <use xlink:href="#DejaVuSans-6d" transform="translate(182.275391 0)"/>
      <use xlink:href="#DejaVuSans-61" transform="translate(279.6875 0)"/>
      <use xlink:href="#DejaVuSans-74" transform="translate(340.966797 0)"/>
      <use xlink:href="#DejaVuSans-65" transform="translate(380.175781 0)"/>
      <use xlink:href="#DejaVuSans-64" transform="translate(441.699219 0)"/>
      <use xlink:href="#DejaVuSans-20" transform="translate(505.175781 0)"/>
      <use xlink:href="#DejaVuSans-52" transform="translate(536.962891 0)"/>
      <use xlink:href="#DejaVuSans-54" transform="translate(599.195312 0)"/>
      <use xlink:href="#DejaVuSans-36" transform="translate(660.279297 0)"/>
      <use xlink:href="#DejaVuSans-30" transform="translate(723.902344 0)"/>
     </g>
    </g>
   </g>
  </g>
 </g>
 <defs>
  <clipPath id="p1ff28fb72d">
   <rect x="57.6" y="41.472" width="357.12" height="266.112"/>
  </clipPath>
 </defs>
</svg>
