<?xml version="1.0" encoding="utf-8" standalone="no"?>
<!DOCTYPE svg PUBLIC "-//W3C//DTD SVG 1.1//EN"
  "http://www.w3.org/Graphics/SVG/1.1/DTD/svg11.dtd">
<svg xmlns:xlink="http://www.w3.org/1999/xlink" width="460.8pt" height="345.6pt" viewBox="0 0 460.8 345.6" xmlns="http://www.w3.org/2000/svg" version="1.1">
 <metadata>
  <rdf:RDF xmlns:dc="http://purl.org/dc/elements/1.1/" xmlns:cc="http://creativecommons.org/ns#" xmlns:rdf="http://www.w3.org/1999/02/22-rdf-syntax-ns#">
   <cc:Work>
    <dc:type rdf:resource="http://purl.org/dc/dcmitype/StillImage"/>
    <dc:date>2025-05-07T11:47:57.301537</dc:date>
    <dc:format>image/svg+xml</dc:format>
    <dc:creator>
     <cc:Agent>
      <dc:title>Matplotlib v3.10.1, https://matplotlib.org/</dc:title>
     </cc:Agent>
    </dc:creator>
   </cc:Work>
  </rdf:RDF>
 </metadata>
 <defs>
  <style type="text/css">*{stroke-linejoin: round; stroke-linecap: butt}</style>
 </defs>
 <g id="figure_1">
  <g id="patch_1">
   <path d="M 0 345.6 
L 460.8 345.6 
L 460.8 0 
L 0 0 
z
" style="fill: #ffffff"/>
  </g>
  <g id="axes_1">
   <g id="patch_2">
    <path d="M 57.6 307.584 
L 414.72 307.584 
L 414.72 41.472 
L 57.6 41.472 
z
" style="fill: #ffffff"/>
   </g>
   <g id="matplotlib.axis_1">
    <g id="xtick_1">
     <g id="line2d_1">
      <defs>
       <path id="m2f92cbb9fa" d="M 0 0 
L 0 3.5 
" style="stroke: #000000; stroke-width: 0.8"/>
      </defs>
      <g>
       <use xlink:href="#m2f92cbb9fa" x="72.397333" y="307.584" style="stroke: #000000; stroke-width: 0.8"/>
      </g>
     </g>
     <g id="text_1">
      <!-- −0.2 -->
      <g transform="translate(60.255927 322.182437) scale(0.1 -0.1)">
       <defs>
        <path id="DejaVuSans-2212" d="M 678 2272 
L 4684 2272 
L 4684 1741 
L 678 1741 
L 678 2272 
z
" transform="scale(0.015625)"/>
        <path id="DejaVuSans-30" d="M 2034 4250 
Q 1547 4250 1301 3770 
Q 1056 3291 1056 2328 
Q 1056 1369 1301 889 
Q 1547 409 2034 409 
Q 2525 409 2770 889 
Q 3016 1369 3016 2328 
Q 3016 3291 2770 3770 
Q 2525 4250 2034 4250 
z
M 2034 4750 
Q 2819 4750 3233 4129 
Q 3647 3509 3647 2328 
Q 3647 1150 3233 529 
Q 2819 -91 2034 -91 
Q 1250 -91 836 529 
Q 422 1150 422 2328 
Q 422 3509 836 4129 
Q 1250 4750 2034 4750 
z
" transform="scale(0.015625)"/>
        <path id="DejaVuSans-2e" d="M 684 794 
L 1344 794 
L 1344 0 
L 684 0 
L 684 794 
z
" transform="scale(0.015625)"/>
        <path id="DejaVuSans-32" d="M 1228 531 
L 3431 531 
L 3431 0 
L 469 0 
L 469 531 
Q 828 903 1448 1529 
Q 2069 2156 2228 2338 
Q 2531 2678 2651 2914 
Q 2772 3150 2772 3378 
Q 2772 3750 2511 3984 
Q 2250 4219 1831 4219 
Q 1534 4219 1204 4116 
Q 875 4013 500 3803 
L 500 4441 
Q 881 4594 1212 4672 
Q 1544 4750 1819 4750 
Q 2544 4750 2975 4387 
Q 3406 4025 3406 3419 
Q 3406 3131 3298 2873 
Q 3191 2616 2906 2266 
Q 2828 2175 2409 1742 
Q 1991 1309 1228 531 
z
" transform="scale(0.015625)"/>
       </defs>
       <use xlink:href="#DejaVuSans-2212"/>
       <use xlink:href="#DejaVuSans-30" transform="translate(83.789062 0)"/>
       <use xlink:href="#DejaVuSans-2e" transform="translate(147.412109 0)"/>
       <use xlink:href="#DejaVuSans-32" transform="translate(179.199219 0)"/>
      </g>
     </g>
    </g>
    <g id="xtick_2">
     <g id="line2d_2">
      <g>
       <use xlink:href="#m2f92cbb9fa" x="144.542788" y="307.584" style="stroke: #000000; stroke-width: 0.8"/>
      </g>
     </g>
     <g id="text_2">
      <!-- 0.0 -->
      <g transform="translate(136.591225 322.182437) scale(0.1 -0.1)">
       <use xlink:href="#DejaVuSans-30"/>
       <use xlink:href="#DejaVuSans-2e" transform="translate(63.623047 0)"/>
       <use xlink:href="#DejaVuSans-30" transform="translate(95.410156 0)"/>
      </g>
     </g>
    </g>
    <g id="xtick_3">
     <g id="line2d_3">
      <g>
       <use xlink:href="#m2f92cbb9fa" x="216.688242" y="307.584" style="stroke: #000000; stroke-width: 0.8"/>
      </g>
     </g>
     <g id="text_3">
      <!-- 0.2 -->
      <g transform="translate(208.73668 322.182437) scale(0.1 -0.1)">
       <use xlink:href="#DejaVuSans-30"/>
       <use xlink:href="#DejaVuSans-2e" transform="translate(63.623047 0)"/>
       <use xlink:href="#DejaVuSans-32" transform="translate(95.410156 0)"/>
      </g>
     </g>
    </g>
    <g id="xtick_4">
     <g id="line2d_4">
      <g>
       <use xlink:href="#m2f92cbb9fa" x="288.833697" y="307.584" style="stroke: #000000; stroke-width: 0.8"/>
      </g>
     </g>
     <g id="text_4">
      <!-- 0.4 -->
      <g transform="translate(280.882134 322.182437) scale(0.1 -0.1)">
       <defs>
        <path id="DejaVuSans-34" d="M 2419 4116 
L 825 1625 
L 2419 1625 
L 2419 4116 
z
M 2253 4666 
L 3047 4666 
L 3047 1625 
L 3713 1625 
L 3713 1100 
L 3047 1100 
L 3047 0 
L 2419 0 
L 2419 1100 
L 313 1100 
L 313 1709 
L 2253 4666 
z
" transform="scale(0.015625)"/>
       </defs>
       <use xlink:href="#DejaVuSans-30"/>
       <use xlink:href="#DejaVuSans-2e" transform="translate(63.623047 0)"/>
       <use xlink:href="#DejaVuSans-34" transform="translate(95.410156 0)"/>
      </g>
     </g>
    </g>
    <g id="xtick_5">
     <g id="line2d_5">
      <g>
       <use xlink:href="#m2f92cbb9fa" x="360.979152" y="307.584" style="stroke: #000000; stroke-width: 0.8"/>
      </g>
     </g>
     <g id="text_5">
      <!-- 0.6 -->
      <g transform="translate(353.027589 322.182437) scale(0.1 -0.1)">
       <defs>
        <path id="DejaVuSans-36" d="M 2113 2584 
Q 1688 2584 1439 2293 
Q 1191 2003 1191 1497 
Q 1191 994 1439 701 
Q 1688 409 2113 409 
Q 2538 409 2786 701 
Q 3034 994 3034 1497 
Q 3034 2003 2786 2293 
Q 2538 2584 2113 2584 
z
M 3366 4563 
L 3366 3988 
Q 3128 4100 2886 4159 
Q 2644 4219 2406 4219 
Q 1781 4219 1451 3797 
Q 1122 3375 1075 2522 
Q 1259 2794 1537 2939 
Q 1816 3084 2150 3084 
Q 2853 3084 3261 2657 
Q 3669 2231 3669 1497 
Q 3669 778 3244 343 
Q 2819 -91 2113 -91 
Q 1303 -91 875 529 
Q 447 1150 447 2328 
Q 447 3434 972 4092 
Q 1497 4750 2381 4750 
Q 2619 4750 2861 4703 
Q 3103 4656 3366 4563 
z
" transform="scale(0.015625)"/>
       </defs>
       <use xlink:href="#DejaVuSans-30"/>
       <use xlink:href="#DejaVuSans-2e" transform="translate(63.623047 0)"/>
       <use xlink:href="#DejaVuSans-36" transform="translate(95.410156 0)"/>
      </g>
     </g>
    </g>
   </g>
   <g id="matplotlib.axis_2">
    <g id="ytick_1">
     <g id="line2d_6">
      <defs>
       <path id="mda839c9e90" d="M 0 0 
L -3.5 0 
" style="stroke: #000000; stroke-width: 0.8"/>
      </defs>
      <g>
       <use xlink:href="#mda839c9e90" x="57.6" y="293.686444" style="stroke: #000000; stroke-width: 0.8"/>
      </g>
     </g>
     <g id="text_6">
      <!-- −160 -->
      <g transform="translate(23.132812 297.485662) scale(0.1 -0.1)">
       <defs>
        <path id="DejaVuSans-31" d="M 794 531 
L 1825 531 
L 1825 4091 
L 703 3866 
L 703 4441 
L 1819 4666 
L 2450 4666 
L 2450 531 
L 3481 531 
L 3481 0 
L 794 0 
L 794 531 
z
" transform="scale(0.015625)"/>
       </defs>
       <use xlink:href="#DejaVuSans-2212"/>
       <use xlink:href="#DejaVuSans-31" transform="translate(83.789062 0)"/>
       <use xlink:href="#DejaVuSans-36" transform="translate(147.412109 0)"/>
       <use xlink:href="#DejaVuSans-30" transform="translate(211.035156 0)"/>
      </g>
     </g>
    </g>
    <g id="ytick_2">
     <g id="line2d_7">
      <g>
       <use xlink:href="#mda839c9e90" x="57.6" y="263.671638" style="stroke: #000000; stroke-width: 0.8"/>
      </g>
     </g>
     <g id="text_7">
      <!-- −140 -->
      <g transform="translate(23.132812 267.470857) scale(0.1 -0.1)">
       <use xlink:href="#DejaVuSans-2212"/>
       <use xlink:href="#DejaVuSans-31" transform="translate(83.789062 0)"/>
       <use xlink:href="#DejaVuSans-34" transform="translate(147.412109 0)"/>
       <use xlink:href="#DejaVuSans-30" transform="translate(211.035156 0)"/>
      </g>
     </g>
    </g>
    <g id="ytick_3">
     <g id="line2d_8">
      <g>
       <use xlink:href="#mda839c9e90" x="57.6" y="233.656833" style="stroke: #000000; stroke-width: 0.8"/>
      </g>
     </g>
     <g id="text_8">
      <!-- −120 -->
      <g transform="translate(23.132812 237.456051) scale(0.1 -0.1)">
       <use xlink:href="#DejaVuSans-2212"/>
       <use xlink:href="#DejaVuSans-31" transform="translate(83.789062 0)"/>
       <use xlink:href="#DejaVuSans-32" transform="translate(147.412109 0)"/>
       <use xlink:href="#DejaVuSans-30" transform="translate(211.035156 0)"/>
      </g>
     </g>
    </g>
    <g id="ytick_4">
     <g id="line2d_9">
      <g>
       <use xlink:href="#mda839c9e90" x="57.6" y="203.642027" style="stroke: #000000; stroke-width: 0.8"/>
      </g>
     </g>
     <g id="text_9">
      <!-- −100 -->
      <g transform="translate(23.132812 207.441246) scale(0.1 -0.1)">
       <use xlink:href="#DejaVuSans-2212"/>
       <use xlink:href="#DejaVuSans-31" transform="translate(83.789062 0)"/>
       <use xlink:href="#DejaVuSans-30" transform="translate(147.412109 0)"/>
       <use xlink:href="#DejaVuSans-30" transform="translate(211.035156 0)"/>
      </g>
     </g>
    </g>
    <g id="ytick_5">
     <g id="line2d_10">
      <g>
       <use xlink:href="#mda839c9e90" x="57.6" y="173.627222" style="stroke: #000000; stroke-width: 0.8"/>
      </g>
     </g>
     <g id="text_10">
      <!-- −80 -->
      <g transform="translate(29.495313 177.426441) scale(0.1 -0.1)">
       <defs>
        <path id="DejaVuSans-38" d="M 2034 2216 
Q 1584 2216 1326 1975 
Q 1069 1734 1069 1313 
Q 1069 891 1326 650 
Q 1584 409 2034 409 
Q 2484 409 2743 651 
Q 3003 894 3003 1313 
Q 3003 1734 2745 1975 
Q 2488 2216 2034 2216 
z
M 1403 2484 
Q 997 2584 770 2862 
Q 544 3141 544 3541 
Q 544 4100 942 4425 
Q 1341 4750 2034 4750 
Q 2731 4750 3128 4425 
Q 3525 4100 3525 3541 
Q 3525 3141 3298 2862 
Q 3072 2584 2669 2484 
Q 3125 2378 3379 2068 
Q 3634 1759 3634 1313 
Q 3634 634 3220 271 
Q 2806 -91 2034 -91 
Q 1263 -91 848 271 
Q 434 634 434 1313 
Q 434 1759 690 2068 
Q 947 2378 1403 2484 
z
M 1172 3481 
Q 1172 3119 1398 2916 
Q 1625 2713 2034 2713 
Q 2441 2713 2670 2916 
Q 2900 3119 2900 3481 
Q 2900 3844 2670 4047 
Q 2441 4250 2034 4250 
Q 1625 4250 1398 4047 
Q 1172 3844 1172 3481 
z
" transform="scale(0.015625)"/>
       </defs>
       <use xlink:href="#DejaVuSans-2212"/>
       <use xlink:href="#DejaVuSans-38" transform="translate(83.789062 0)"/>
       <use xlink:href="#DejaVuSans-30" transform="translate(147.412109 0)"/>
      </g>
     </g>
    </g>
    <g id="ytick_6">
     <g id="line2d_11">
      <g>
       <use xlink:href="#mda839c9e90" x="57.6" y="143.612416" style="stroke: #000000; stroke-width: 0.8"/>
      </g>
     </g>
     <g id="text_11">
      <!-- −60 -->
      <g transform="translate(29.495313 147.411635) scale(0.1 -0.1)">
       <use xlink:href="#DejaVuSans-2212"/>
       <use xlink:href="#DejaVuSans-36" transform="translate(83.789062 0)"/>
       <use xlink:href="#DejaVuSans-30" transform="translate(147.412109 0)"/>
      </g>
     </g>
    </g>
    <g id="ytick_7">
     <g id="line2d_12">
      <g>
       <use xlink:href="#mda839c9e90" x="57.6" y="113.597611" style="stroke: #000000; stroke-width: 0.8"/>
      </g>
     </g>
     <g id="text_12">
      <!-- −40 -->
      <g transform="translate(29.495313 117.39683) scale(0.1 -0.1)">
       <use xlink:href="#DejaVuSans-2212"/>
       <use xlink:href="#DejaVuSans-34" transform="translate(83.789062 0)"/>
       <use xlink:href="#DejaVuSans-30" transform="translate(147.412109 0)"/>
      </g>
     </g>
    </g>
    <g id="ytick_8">
     <g id="line2d_13">
      <g>
       <use xlink:href="#mda839c9e90" x="57.6" y="83.582805" style="stroke: #000000; stroke-width: 0.8"/>
      </g>
     </g>
     <g id="text_13">
      <!-- −20 -->
      <g transform="translate(29.495313 87.382024) scale(0.1 -0.1)">
       <use xlink:href="#DejaVuSans-2212"/>
       <use xlink:href="#DejaVuSans-32" transform="translate(83.789062 0)"/>
       <use xlink:href="#DejaVuSans-30" transform="translate(147.412109 0)"/>
      </g>
     </g>
    </g>
    <g id="ytick_9">
     <g id="line2d_14">
      <g>
       <use xlink:href="#mda839c9e90" x="57.6" y="53.568" style="stroke: #000000; stroke-width: 0.8"/>
      </g>
     </g>
     <g id="text_14">
      <!-- 0 -->
      <g transform="translate(44.2375 57.367219) scale(0.1 -0.1)">
       <use xlink:href="#DejaVuSans-30"/>
      </g>
     </g>
    </g>
   </g>
   <g id="line2d_15">
    <path d="M 73.832727 53.568 
L 134.119273 53.678473 
L 134.457455 53.763676 
L 135.351758 53.828641 
L 136.644364 54.025398 
L 137.050182 54.693295 
L 137.230545 54.973094 
L 137.313212 55.12859 
L 137.636364 55.905337 
L 137.771636 56.165561 
L 137.96703 56.342163 
L 138.673455 56.467668 
L 140.552242 57.480271 
L 140.867879 57.796139 
L 141.469091 58.062996 
L 141.68703 58.171561 
L 142.310788 58.545415 
L 142.739152 58.652197 
L 143.054788 58.775164 
L 143.761212 59.737716 
L 143.994182 60.253026 
L 144.099394 60.366249 
L 144.437576 60.903748 
L 144.602909 61.198383 
L 144.798303 61.295189 
L 145.752727 62.078497 
L 146.459152 62.200571 
L 146.722182 62.321239 
L 146.887515 62.500547 
L 147.097939 62.59988 
L 147.669091 62.743465 
L 147.962182 62.960288 
L 148.172606 63.11003 
L 148.337939 63.220612 
L 148.608485 63.395878 
L 149.224727 63.51503 
L 150.11903 63.702651 
L 150.382061 63.79001 
L 150.592485 63.899383 
L 151.156121 64.806328 
L 151.32897 64.913184 
L 151.426667 65.115146 
L 151.727273 65.808915 
L 151.82497 65.991671 
L 152.065455 66.401982 
L 153.034909 66.568878 
L 153.508364 66.653618 
L 154.124606 66.770727 
L 154.665697 66.883856 
L 155.82303 67.180092 
L 156.131152 67.232989 
L 157.055515 67.457109 
L 157.333576 67.775351 
L 157.513939 67.924325 
L 157.619152 68.116318 
L 157.852121 68.448402 
L 158.04 68.558028 
L 158.408242 68.858085 
L 158.55103 69.071705 
L 158.761455 69.244797 
L 158.926788 69.365474 
L 159.152242 69.457875 
L 159.941333 69.592134 
L 160.587636 70.092946 
L 160.873212 70.525781 
L 160.978424 70.69818 
L 161.264 71.199472 
L 161.376727 71.317411 
L 161.692364 71.741082 
L 161.917818 71.861034 
L 162.233455 72.00149 
L 162.451394 72.121163 
L 162.714424 72.2034 
L 163.285576 72.354602 
L 164.25503 72.785492 
L 165.21697 73.093821 
L 165.728 73.721232 
L 165.930909 74.049519 
L 166.043636 74.1584 
L 166.374303 74.61918 
L 166.524606 74.777111 
L 166.750061 74.910583 
L 167.035636 75.031117 
L 169.440485 75.754454 
L 169.831273 76.086543 
L 170.229576 76.204094 
L 170.379879 76.306975 
L 170.620364 76.46665 
L 170.793212 76.616322 
L 171.033697 76.725129 
L 171.281697 76.834882 
L 171.559758 76.938438 
L 171.762667 77.043858 
L 172.078303 77.29092 
L 172.213576 77.455712 
L 172.491636 77.784131 
L 172.641939 77.895608 
L 172.942545 78.180539 
L 173.280727 78.290603 
L 173.836848 78.722061 
L 174.039758 78.932784 
L 174.137455 79.06457 
L 174.836364 80.915802 
L 175.670545 81.136043 
L 177.218667 82.083039 
L 177.414061 82.268366 
L 177.541818 82.391934 
L 177.819879 82.714232 
L 178.015273 82.841244 
L 178.293333 82.905297 
L 179.150061 83.111298 
L 179.781333 83.224014 
L 180.164606 83.338231 
L 181.36703 83.696301 
L 182.141091 84.222304 
L 182.449212 84.548341 
L 182.584485 84.684978 
L 182.832485 84.888181 
L 183.666667 85.00255 
L 184.072485 85.085967 
L 184.613576 85.204198 
L 185.838545 85.980235 
L 186.101576 86.061654 
L 186.274424 86.284731 
L 186.477333 86.382556 
L 186.642667 86.535688 
L 186.860606 86.627361 
L 187.777455 86.768962 
L 187.920242 86.937336 
L 188.168242 87.183 
L 188.296 87.302956 
L 188.701818 87.8897 
L 189.160242 88.512502 
L 189.445818 88.659385 
L 190.189818 88.77213 
L 191.715394 89.33802 
L 191.963394 89.611549 
L 192.113697 89.725153 
L 192.406788 89.986069 
L 192.624727 90.099182 
L 192.895273 90.14821 
L 193.323636 90.250781 
L 193.616727 90.513935 
L 194.075152 90.898533 
L 195.044606 91.211643 
L 195.277576 91.354223 
L 195.397818 91.500889 
L 195.660848 91.821967 
L 195.826182 91.947738 
L 196.059152 92.03967 
L 197.284121 92.161176 
L 198.366303 92.602338 
L 199.050182 92.77304 
L 199.230545 92.872636 
L 199.553697 93.195456 
L 199.944485 93.531172 
L 200.665939 93.762286 
L 200.981576 94.027016 
L 201.695515 94.472332 
L 202.649939 95.027003 
L 203.371394 95.154353 
L 204.385939 96.033999 
L 204.64897 96.414197 
L 204.754182 96.524739 
L 205.14497 97.2062 
L 206.182061 97.995226 
L 206.392485 98.280821 
L 206.602909 98.374255 
L 206.738182 98.512839 
L 207.023758 98.828087 
L 207.189091 98.944397 
L 207.519758 99.22198 
L 207.677576 99.335101 
L 208.000727 99.660906 
L 208.203636 99.793599 
L 208.466667 99.860299 
L 208.985212 99.984247 
L 209.263273 100.116452 
L 209.413576 100.271231 
L 209.661576 100.473456 
L 209.849455 100.585027 
L 210.097455 100.682673 
L 211.653091 100.878798 
L 212.254303 101.195851 
L 212.487273 101.300342 
L 213.193697 101.446927 
L 214.057939 102.206034 
L 214.508848 102.294428 
L 214.666667 102.43311 
L 214.892121 102.560565 
L 215.09503 102.729491 
L 215.358061 102.762725 
L 216.214788 102.903941 
L 216.613091 103.08099 
L 217.319515 103.502191 
L 218.108606 103.628818 
L 218.499394 103.72478 
L 218.664727 103.886204 
L 218.905212 104.063798 
L 219.017939 104.211617 
L 219.303515 104.628306 
L 219.438788 104.76883 
L 219.686788 104.987133 
L 219.949818 105.09849 
L 220.438303 105.2245 
L 220.941818 105.351274 
L 221.51297 105.466627 
L 222.324606 105.669621 
L 222.918303 105.870472 
L 223.782545 106.009375 
L 225.285576 106.146302 
L 226.405333 106.492958 
L 227.149333 107.491803 
L 227.344727 107.715595 
L 227.49503 107.829475 
L 227.735515 107.980342 
L 227.953455 108.103772 
L 228.434424 108.281272 
L 229.757091 108.557091 
L 230.132848 108.648163 
L 230.343273 108.80476 
L 230.606303 108.936774 
L 230.726545 109.187983 
L 230.959515 109.551408 
L 231.072242 109.662425 
L 231.455515 110.255098 
L 231.583273 110.444393 
L 231.883879 110.897209 
L 231.996606 111.019236 
L 232.342303 111.547962 
L 232.500121 111.711471 
L 232.770667 111.930207 
L 232.981091 112.034234 
L 233.274182 112.225186 
L 233.507152 112.337453 
L 233.822788 112.481566 
L 233.980606 112.618933 
L 234.228606 112.79283 
L 234.40897 112.912738 
L 234.672 113.040567 
L 234.882424 113.150917 
L 235.423515 113.951835 
L 235.603879 114.0857 
L 235.709091 114.444205 
L 235.934545 115.038044 
L 236.032242 115.162805 
L 236.355394 115.764479 
L 236.490667 115.966997 
L 236.693576 116.123213 
L 236.843879 116.244049 
L 237.061818 116.349218 
L 238.286788 116.750698 
L 238.557333 116.94182 
L 239.083394 117.203635 
L 239.64703 117.351432 
L 240.293333 118.009813 
L 240.518788 118.120766 
L 240.781818 118.204211 
L 241.127515 118.315518 
L 241.728727 118.709178 
L 241.909091 118.843793 
L 242.157091 118.943336 
L 242.435152 119.057103 
L 243.013818 119.261704 
L 243.434667 119.403509 
L 243.817939 119.597325 
L 244.043394 119.67969 
L 244.614545 119.871943 
L 244.907636 119.988745 
L 245.148121 120.126734 
L 245.328485 120.26091 
L 245.59903 120.395101 
L 246.31297 120.506746 
L 247.026909 120.634627 
L 247.921212 120.865007 
L 248.154182 121.025684 
L 248.304485 121.158781 
L 248.537455 121.29492 
L 249.394182 121.425828 
L 250.393697 121.847275 
L 251.333091 122.230887 
L 251.941818 122.515725 
L 252.174788 122.627769 
L 252.415273 122.735917 
L 253.272 123.611609 
L 253.655273 123.837527 
L 253.940848 123.970362 
L 254.226424 124.222543 
L 254.414303 124.345074 
L 254.722424 124.504942 
L 255.015515 124.627948 
L 255.293576 124.827451 
L 255.496485 124.953265 
L 255.797091 125.093667 
L 255.969939 125.208994 
L 256.225455 125.3703 
L 256.413333 125.512977 
L 256.653818 125.589281 
L 256.864242 125.723988 
L 257.127273 125.817199 
L 257.292606 126.007498 
L 257.50303 126.120714 
L 257.713455 126.241964 
L 258.006545 126.328772 
L 258.404848 126.439095 
L 259.013576 126.835037 
L 259.359273 127.244876 
L 259.554667 127.479265 
L 259.682424 127.584266 
L 260.005576 127.97462 
L 260.208485 128.121629 
L 260.464 128.184395 
L 261.035152 128.388073 
L 262.154909 128.794315 
L 262.380364 128.965239 
L 262.493091 129.117501 
L 262.726061 129.377765 
L 262.883879 129.513644 
L 263.094303 129.57766 
L 265.251152 129.855213 
L 265.702061 130.146281 
L 266.092848 130.210378 
L 267.438061 130.355598 
L 268.212121 131.022173 
L 268.392485 131.168541 
L 268.655515 131.335379 
L 269.467152 131.477335 
L 270.000727 131.836557 
L 270.248727 131.991654 
L 270.436606 132.103553 
L 270.699636 132.261951 
L 270.940121 132.405134 
L 271.526303 132.476619 
L 272.35297 132.633894 
L 272.781333 132.860422 
L 273.532848 133.396754 
L 273.750788 133.540589 
L 273.916121 133.661186 
L 274.164121 133.804912 
L 275.118545 133.930075 
L 275.60703 134.070962 
L 277.297939 134.242525 
L 278.072 134.507816 
L 279.620121 134.619359 
L 280.176242 134.905488 
L 281.055515 135.8913 
L 281.566545 136.33993 
L 281.964848 136.47389 
L 283.813576 136.84981 
L 284.076606 137.006505 
L 284.993455 137.202763 
L 285.316606 137.309111 
L 286.812121 137.626173 
L 287.082667 137.697995 
L 287.390788 137.855062 
L 288.202424 138.378549 
L 288.518061 138.704484 
L 288.690909 138.815009 
L 289.074182 139.200106 
L 289.21697 139.465792 
L 289.427394 139.693283 
L 289.607758 139.797376 
L 289.908364 140.013956 
L 290.20897 140.125049 
L 290.847758 140.390376 
L 291.125818 140.519875 
L 293.087273 140.813788 
L 293.620848 141.158016 
L 293.966545 141.213359 
L 294.966061 141.607583 
L 295.176485 141.731189 
L 295.409455 141.861205 
L 295.732606 141.900161 
L 296.19103 142.047045 
L 297.378424 142.575128 
L 300.730182 143.430576 
L 301.008242 143.652686 
L 301.166061 143.76564 
L 301.970182 144.846688 
L 302.150545 144.994743 
L 302.503758 145.257484 
L 302.646545 145.374023 
L 302.939636 145.687792 
L 307.32097 146.390627 
L 307.689212 146.56838 
L 308.275394 146.63439 
L 309.710788 146.831753 
L 310.312 147.159777 
L 310.522424 147.271018 
L 311.371636 147.495905 
L 311.627152 147.574505 
L 312.521455 147.683247 
L 313.821576 147.836933 
L 314.836121 148.783524 
L 315.50497 149.170653 
L 315.737939 149.282814 
L 316.925333 149.711097 
L 317.218424 149.798068 
L 317.834667 149.886862 
L 318.405818 149.998082 
L 318.954424 150.216305 
L 319.705939 150.338762 
L 320.795636 151.168183 
L 321.682424 151.475036 
L 321.862788 151.591154 
L 322.095758 151.684986 
L 322.268606 151.839561 
L 322.494061 151.93035 
L 322.659394 152.095869 
L 322.877333 152.203791 
L 323.027636 152.338022 
L 323.268121 152.496173 
L 323.501091 152.615381 
L 323.809212 152.690084 
L 325.124364 153.026189 
L 325.537697 153.262799 
L 326.68 153.744689 
L 326.890424 153.87269 
L 327.078303 154.003362 
L 327.333818 154.071462 
L 327.807273 154.155318 
L 328.40097 154.26209 
L 329.062303 154.610005 
L 329.310303 154.736128 
L 329.64097 154.816709 
L 330.091879 154.912452 
L 330.91103 154.949226 
L 332.451636 155.062868 
L 333.135515 155.203983 
L 333.819394 155.362856 
L 334.067394 155.471593 
L 334.217697 155.698263 
L 334.428121 155.856932 
L 334.616 155.963188 
L 334.924121 156.159245 
L 335.209697 156.271487 
L 335.577939 156.340272 
L 336.742788 156.480059 
L 337.982788 156.58949 
L 338.508848 156.65375 
L 339.08 156.78405 
L 339.31297 156.891302 
L 340.102061 157.152291 
L 340.906182 157.263235 
L 341.537455 157.461884 
L 341.680242 157.725358 
L 341.868121 157.866843 
L 341.980848 158.059559 
L 342.191273 158.306227 
L 342.341576 158.434052 
L 342.559515 158.516867 
L 343.06303 158.66218 
L 343.513939 158.852663 
L 344.032485 158.902599 
L 344.814061 159.012549 
L 345.843636 159.406965 
L 346.677818 159.546478 
L 347.414303 160.684934 
L 347.609697 161.014642 
L 347.74497 161.136578 
L 347.947879 161.212069 
L 350.074667 161.412794 
L 350.495515 161.713569 
L 350.758545 162.011081 
L 350.901333 162.134574 
L 351.179394 162.410657 
L 352.051152 162.603327 
L 352.389333 162.635999 
L 353.794667 162.746607 
L 354.463515 162.835062 
L 355.816242 162.980584 
L 356.109333 163.070143 
L 358.461576 163.905518 
L 358.672 164.087144 
L 358.829818 164.222678 
L 359.070303 164.339088 
L 359.385939 164.447954 
L 360.137455 165.082387 
L 360.520727 165.21369 
L 361.835879 166.285041 
L 362.098909 166.396253 
L 363.308848 167.050913 
L 363.534303 167.212569 
L 364.789333 167.466753 
L 365.187636 167.950351 
L 365.428121 168.598901 
L 365.510788 168.862193 
L 365.773818 169.716686 
L 365.894061 169.835766 
L 366.224727 170.228433 
L 366.352485 170.343065 
L 366.983758 171.403989 
L 367.171636 171.512796 
L 367.487273 171.630362 
L 368.471758 171.752803 
L 368.85503 172.180817 
L 369.110545 172.58941 
L 369.305939 172.702215 
L 369.81697 173.478993 
L 370.012364 173.853774 
L 370.117576 173.976761 
L 370.335515 174.201309 
L 371.026909 174.390721 
L 371.192242 174.663152 
L 371.380121 174.764405 
L 371.545455 174.889932 
L 371.846061 175.115271 
L 372.176727 175.231913 
L 372.687758 175.798812 
L 373.108606 176.269565 
L 373.273939 176.374683 
L 373.589576 176.512412 
L 373.762424 176.63381 
L 373.995394 176.855266 
L 374.709333 177.855865 
L 375.393212 178.138304 
L 375.836606 178.430526 
L 376.528 178.563078 
L 378.233939 179.145899 
L 378.632242 179.519098 
L 379.225939 179.647231 
L 379.706909 179.803837 
L 380 179.908808 
L 380.683879 180.175307 
L 380.886788 180.331941 
L 381.082182 180.445738 
L 381.593212 181.39379 
L 381.758545 181.524026 
L 382.014061 181.639385 
L 382.164364 182.026384 
L 382.352242 182.269576 
L 382.427394 182.542682 
L 382.74303 183.892696 
L 382.855758 184.149188 
L 383.156364 184.734909 
L 383.441939 185.093534 
L 383.72 185.970651 
L 383.817697 186.180688 
L 384.028121 186.500039 
L 384.321212 186.627113 
L 384.546667 186.781027 
L 384.689455 186.98824 
L 385.22303 188.325004 
L 385.410909 188.86615 
L 385.531152 188.969427 
L 386.049697 189.698634 
L 386.132364 189.784318 
L 386.222545 190.575275 
L 386.478061 192.661523 
L 386.553212 193.416958 
L 387.109333 201.270028 
L 387.432485 202.113506 
L 387.718061 202.132108 
L 388.281697 202.251785 
L 388.807758 202.577251 
L 389.16097 202.881499 
L 390.190545 203.398284 
L 390.573818 203.669618 
L 390.671515 204.161346 
L 390.859394 204.727531 
L 390.92703 204.951053 
L 391.453091 209.084023 
L 391.663515 210.898828 
L 391.716121 211.002002 
L 391.798788 211.912719 
L 392.114424 215.744491 
L 392.212121 216.544471 
L 392.437576 217.875332 
L 392.66303 218.018906 
L 392.88097 218.159488 
L 393.346909 218.336337 
L 393.677576 219.366955 
L 393.888 220.445841 
L 393.963152 220.899321 
L 394.211152 222.291369 
L 394.308848 222.406911 
L 394.827394 224.064616 
L 395.052848 225.140989 
L 395.11297 225.266574 
L 395.210667 226.271789 
L 395.466182 228.572106 
L 395.526303 228.785752 
L 395.669091 230.562335 
L 395.879515 231.953741 
L 396.089939 232.240932 
L 396.195152 233.618484 
L 396.465697 236.930682 
L 396.540848 238.32771 
L 396.901576 246.6289 
L 397.262303 249.831602 
L 397.450182 251.558289 
L 397.510303 252.33539 
L 397.62303 257.7031 
L 397.833455 264.985429 
L 397.916121 266.559855 
L 398.291879 280.983579 
L 398.479758 295.488 
L 398.479758 295.488 
" clip-path="url(#p89e9b77c0e)" style="fill: none; stroke: #1f77b4; stroke-width: 1.5; stroke-linecap: square"/>
   </g>
   <g id="line2d_16">
    <path d="M 144.542788 61.080407 
L 320.577697 151.116118 
" clip-path="url(#p89e9b77c0e)" style="fill: none; stroke-dasharray: 5.55,2.4; stroke-dashoffset: 0; stroke: #ff7f0e; stroke-width: 1.5"/>
   </g>
   <g id="line2d_17">
    <path d="M 73.832727 143.612416 
L 398.487273 143.612416 
L 398.487273 143.612416 
" clip-path="url(#p89e9b77c0e)" style="fill: none; stroke-dasharray: 5.55,2.4; stroke-dashoffset: 0; stroke: #2ca02c; stroke-width: 1.5"/>
   </g>
   <g id="LineCollection_1">
    <path d="M 320.577697 295.488 
L 320.577697 53.568 
" clip-path="url(#p89e9b77c0e)" style="fill: none; stroke-dasharray: 5.55,2.4; stroke-dashoffset: 0; stroke: #1f77b4; stroke-width: 1.5"/>
   </g>
   <g id="patch_3">
    <path d="M 57.6 307.584 
L 57.6 41.472 
" style="fill: none; stroke: #000000; stroke-width: 0.8; stroke-linejoin: miter; stroke-linecap: square"/>
   </g>
   <g id="patch_4">
    <path d="M 414.72 307.584 
L 414.72 41.472 
" style="fill: none; stroke: #000000; stroke-width: 0.8; stroke-linejoin: miter; stroke-linecap: square"/>
   </g>
   <g id="patch_5">
    <path d="M 57.6 307.584 
L 414.72 307.584 
" style="fill: none; stroke: #000000; stroke-width: 0.8; stroke-linejoin: miter; stroke-linecap: square"/>
   </g>
   <g id="patch_6">
    <path d="M 57.6 41.472 
L 414.72 41.472 
" style="fill: none; stroke: #000000; stroke-width: 0.8; stroke-linejoin: miter; stroke-linecap: square"/>
   </g>
   <g id="text_15">
    <!-- Energy Decay - 500 Hz -->
    <g transform="translate(167.4075 35.472) scale(0.12 -0.12)">
     <defs>
      <path id="DejaVuSans-45" d="M 628 4666 
L 3578 4666 
L 3578 4134 
L 1259 4134 
L 1259 2753 
L 3481 2753 
L 3481 2222 
L 1259 2222 
L 1259 531 
L 3634 531 
L 3634 0 
L 628 0 
L 628 4666 
z
" transform="scale(0.015625)"/>
      <path id="DejaVuSans-6e" d="M 3513 2113 
L 3513 0 
L 2938 0 
L 2938 2094 
Q 2938 2591 2744 2837 
Q 2550 3084 2163 3084 
Q 1697 3084 1428 2787 
Q 1159 2491 1159 1978 
L 1159 0 
L 581 0 
L 581 3500 
L 1159 3500 
L 1159 2956 
Q 1366 3272 1645 3428 
Q 1925 3584 2291 3584 
Q 2894 3584 3203 3211 
Q 3513 2838 3513 2113 
z
" transform="scale(0.015625)"/>
      <path id="DejaVuSans-65" d="M 3597 1894 
L 3597 1613 
L 953 1613 
Q 991 1019 1311 708 
Q 1631 397 2203 397 
Q 2534 397 2845 478 
Q 3156 559 3463 722 
L 3463 178 
Q 3153 47 2828 -22 
Q 2503 -91 2169 -91 
Q 1331 -91 842 396 
Q 353 884 353 1716 
Q 353 2575 817 3079 
Q 1281 3584 2069 3584 
Q 2775 3584 3186 3129 
Q 3597 2675 3597 1894 
z
M 3022 2063 
Q 3016 2534 2758 2815 
Q 2500 3097 2075 3097 
Q 1594 3097 1305 2825 
Q 1016 2553 972 2059 
L 3022 2063 
z
" transform="scale(0.015625)"/>
      <path id="DejaVuSans-72" d="M 2631 2963 
Q 2534 3019 2420 3045 
Q 2306 3072 2169 3072 
Q 1681 3072 1420 2755 
Q 1159 2438 1159 1844 
L 1159 0 
L 581 0 
L 581 3500 
L 1159 3500 
L 1159 2956 
Q 1341 3275 1631 3429 
Q 1922 3584 2338 3584 
Q 2397 3584 2469 3576 
Q 2541 3569 2628 3553 
L 2631 2963 
z
" transform="scale(0.015625)"/>
      <path id="DejaVuSans-67" d="M 2906 1791 
Q 2906 2416 2648 2759 
Q 2391 3103 1925 3103 
Q 1463 3103 1205 2759 
Q 947 2416 947 1791 
Q 947 1169 1205 825 
Q 1463 481 1925 481 
Q 2391 481 2648 825 
Q 2906 1169 2906 1791 
z
M 3481 434 
Q 3481 -459 3084 -895 
Q 2688 -1331 1869 -1331 
Q 1566 -1331 1297 -1286 
Q 1028 -1241 775 -1147 
L 775 -588 
Q 1028 -725 1275 -790 
Q 1522 -856 1778 -856 
Q 2344 -856 2625 -561 
Q 2906 -266 2906 331 
L 2906 616 
Q 2728 306 2450 153 
Q 2172 0 1784 0 
Q 1141 0 747 490 
Q 353 981 353 1791 
Q 353 2603 747 3093 
Q 1141 3584 1784 3584 
Q 2172 3584 2450 3431 
Q 2728 3278 2906 2969 
L 2906 3500 
L 3481 3500 
L 3481 434 
z
" transform="scale(0.015625)"/>
      <path id="DejaVuSans-79" d="M 2059 -325 
Q 1816 -950 1584 -1140 
Q 1353 -1331 966 -1331 
L 506 -1331 
L 506 -850 
L 844 -850 
Q 1081 -850 1212 -737 
Q 1344 -625 1503 -206 
L 1606 56 
L 191 3500 
L 800 3500 
L 1894 763 
L 2988 3500 
L 3597 3500 
L 2059 -325 
z
" transform="scale(0.015625)"/>
      <path id="DejaVuSans-20" transform="scale(0.015625)"/>
      <path id="DejaVuSans-44" d="M 1259 4147 
L 1259 519 
L 2022 519 
Q 2988 519 3436 956 
Q 3884 1394 3884 2338 
Q 3884 3275 3436 3711 
Q 2988 4147 2022 4147 
L 1259 4147 
z
M 628 4666 
L 1925 4666 
Q 3281 4666 3915 4102 
Q 4550 3538 4550 2338 
Q 4550 1131 3912 565 
Q 3275 0 1925 0 
L 628 0 
L 628 4666 
z
" transform="scale(0.015625)"/>
      <path id="DejaVuSans-63" d="M 3122 3366 
L 3122 2828 
Q 2878 2963 2633 3030 
Q 2388 3097 2138 3097 
Q 1578 3097 1268 2742 
Q 959 2388 959 1747 
Q 959 1106 1268 751 
Q 1578 397 2138 397 
Q 2388 397 2633 464 
Q 2878 531 3122 666 
L 3122 134 
Q 2881 22 2623 -34 
Q 2366 -91 2075 -91 
Q 1284 -91 818 406 
Q 353 903 353 1747 
Q 353 2603 823 3093 
Q 1294 3584 2113 3584 
Q 2378 3584 2631 3529 
Q 2884 3475 3122 3366 
z
" transform="scale(0.015625)"/>
      <path id="DejaVuSans-61" d="M 2194 1759 
Q 1497 1759 1228 1600 
Q 959 1441 959 1056 
Q 959 750 1161 570 
Q 1363 391 1709 391 
Q 2188 391 2477 730 
Q 2766 1069 2766 1631 
L 2766 1759 
L 2194 1759 
z
M 3341 1997 
L 3341 0 
L 2766 0 
L 2766 531 
Q 2569 213 2275 61 
Q 1981 -91 1556 -91 
Q 1019 -91 701 211 
Q 384 513 384 1019 
Q 384 1609 779 1909 
Q 1175 2209 1959 2209 
L 2766 2209 
L 2766 2266 
Q 2766 2663 2505 2880 
Q 2244 3097 1772 3097 
Q 1472 3097 1187 3025 
Q 903 2953 641 2809 
L 641 3341 
Q 956 3463 1253 3523 
Q 1550 3584 1831 3584 
Q 2591 3584 2966 3190 
Q 3341 2797 3341 1997 
z
" transform="scale(0.015625)"/>
      <path id="DejaVuSans-2d" d="M 313 2009 
L 1997 2009 
L 1997 1497 
L 313 1497 
L 313 2009 
z
" transform="scale(0.015625)"/>
      <path id="DejaVuSans-35" d="M 691 4666 
L 3169 4666 
L 3169 4134 
L 1269 4134 
L 1269 2991 
Q 1406 3038 1543 3061 
Q 1681 3084 1819 3084 
Q 2600 3084 3056 2656 
Q 3513 2228 3513 1497 
Q 3513 744 3044 326 
Q 2575 -91 1722 -91 
Q 1428 -91 1123 -41 
Q 819 9 494 109 
L 494 744 
Q 775 591 1075 516 
Q 1375 441 1709 441 
Q 2250 441 2565 725 
Q 2881 1009 2881 1497 
Q 2881 1984 2565 2268 
Q 2250 2553 1709 2553 
Q 1456 2553 1204 2497 
Q 953 2441 691 2322 
L 691 4666 
z
" transform="scale(0.015625)"/>
      <path id="DejaVuSans-48" d="M 628 4666 
L 1259 4666 
L 1259 2753 
L 3553 2753 
L 3553 4666 
L 4184 4666 
L 4184 0 
L 3553 0 
L 3553 2222 
L 1259 2222 
L 1259 0 
L 628 0 
L 628 4666 
z
" transform="scale(0.015625)"/>
      <path id="DejaVuSans-7a" d="M 353 3500 
L 3084 3500 
L 3084 2975 
L 922 459 
L 3084 459 
L 3084 0 
L 275 0 
L 275 525 
L 2438 3041 
L 353 3041 
L 353 3500 
z
" transform="scale(0.015625)"/>
     </defs>
     <use xlink:href="#DejaVuSans-45"/>
     <use xlink:href="#DejaVuSans-6e" transform="translate(63.183594 0)"/>
     <use xlink:href="#DejaVuSans-65" transform="translate(126.5625 0)"/>
     <use xlink:href="#DejaVuSans-72" transform="translate(188.085938 0)"/>
     <use xlink:href="#DejaVuSans-67" transform="translate(227.449219 0)"/>
     <use xlink:href="#DejaVuSans-79" transform="translate(290.925781 0)"/>
     <use xlink:href="#DejaVuSans-20" transform="translate(350.105469 0)"/>
     <use xlink:href="#DejaVuSans-44" transform="translate(381.892578 0)"/>
     <use xlink:href="#DejaVuSans-65" transform="translate(458.894531 0)"/>
     <use xlink:href="#DejaVuSans-63" transform="translate(520.417969 0)"/>
     <use xlink:href="#DejaVuSans-61" transform="translate(575.398438 0)"/>
     <use xlink:href="#DejaVuSans-79" transform="translate(636.677734 0)"/>
     <use xlink:href="#DejaVuSans-20" transform="translate(695.857422 0)"/>
     <use xlink:href="#DejaVuSans-2d" transform="translate(727.644531 0)"/>
     <use xlink:href="#DejaVuSans-20" transform="translate(763.728516 0)"/>
     <use xlink:href="#DejaVuSans-35" transform="translate(795.515625 0)"/>
     <use xlink:href="#DejaVuSans-30" transform="translate(859.138672 0)"/>
     <use xlink:href="#DejaVuSans-30" transform="translate(922.761719 0)"/>
     <use xlink:href="#DejaVuSans-20" transform="translate(986.384766 0)"/>
     <use xlink:href="#DejaVuSans-48" transform="translate(1018.171875 0)"/>
     <use xlink:href="#DejaVuSans-7a" transform="translate(1093.367188 0)"/>
    </g>
   </g>
   <g id="legend_1">
    <g id="patch_7">
     <path d="M 296.968437 108.1845 
L 407.72 108.1845 
Q 409.72 108.1845 409.72 106.1845 
L 409.72 48.472 
Q 409.72 46.472 407.72 46.472 
L 296.968437 46.472 
Q 294.968437 46.472 294.968437 48.472 
L 294.968437 106.1845 
Q 294.968437 108.1845 296.968437 108.1845 
z
" style="fill: #ffffff; opacity: 0.8; stroke: #cccccc; stroke-linejoin: miter"/>
    </g>
    <g id="line2d_18">
     <path d="M 298.968437 54.570438 
L 308.968437 54.570438 
L 318.968437 54.570438 
" style="fill: none; stroke: #1f77b4; stroke-width: 1.5; stroke-linecap: square"/>
    </g>
    <g id="text_16">
     <!-- Energy -->
     <g transform="translate(326.968437 58.070438) scale(0.1 -0.1)">
      <use xlink:href="#DejaVuSans-45"/>
      <use xlink:href="#DejaVuSans-6e" transform="translate(63.183594 0)"/>
      <use xlink:href="#DejaVuSans-65" transform="translate(126.5625 0)"/>
      <use xlink:href="#DejaVuSans-72" transform="translate(188.085938 0)"/>
      <use xlink:href="#DejaVuSans-67" transform="translate(227.449219 0)"/>
      <use xlink:href="#DejaVuSans-79" transform="translate(290.925781 0)"/>
     </g>
    </g>
    <g id="line2d_19">
     <path d="M 298.968437 69.248563 
L 308.968437 69.248563 
L 318.968437 69.248563 
" style="fill: none; stroke-dasharray: 5.55,2.4; stroke-dashoffset: 0; stroke: #ff7f0e; stroke-width: 1.5"/>
    </g>
    <g id="text_17">
     <!-- Linear Fit -->
     <g transform="translate(326.968437 72.748563) scale(0.1 -0.1)">
      <defs>
       <path id="DejaVuSans-4c" d="M 628 4666 
L 1259 4666 
L 1259 531 
L 3531 531 
L 3531 0 
L 628 0 
L 628 4666 
z
" transform="scale(0.015625)"/>
       <path id="DejaVuSans-69" d="M 603 3500 
L 1178 3500 
L 1178 0 
L 603 0 
L 603 3500 
z
M 603 4863 
L 1178 4863 
L 1178 4134 
L 603 4134 
L 603 4863 
z
" transform="scale(0.015625)"/>
       <path id="DejaVuSans-46" d="M 628 4666 
L 3309 4666 
L 3309 4134 
L 1259 4134 
L 1259 2759 
L 3109 2759 
L 3109 2228 
L 1259 2228 
L 1259 0 
L 628 0 
L 628 4666 
z
" transform="scale(0.015625)"/>
       <path id="DejaVuSans-74" d="M 1172 4494 
L 1172 3500 
L 2356 3500 
L 2356 3053 
L 1172 3053 
L 1172 1153 
Q 1172 725 1289 603 
Q 1406 481 1766 481 
L 2356 481 
L 2356 0 
L 1766 0 
Q 1100 0 847 248 
Q 594 497 594 1153 
L 594 3053 
L 172 3053 
L 172 3500 
L 594 3500 
L 594 4494 
L 1172 4494 
z
" transform="scale(0.015625)"/>
      </defs>
      <use xlink:href="#DejaVuSans-4c"/>
      <use xlink:href="#DejaVuSans-69" transform="translate(55.712891 0)"/>
      <use xlink:href="#DejaVuSans-6e" transform="translate(83.496094 0)"/>
      <use xlink:href="#DejaVuSans-65" transform="translate(146.875 0)"/>
      <use xlink:href="#DejaVuSans-61" transform="translate(208.398438 0)"/>
      <use xlink:href="#DejaVuSans-72" transform="translate(269.677734 0)"/>
      <use xlink:href="#DejaVuSans-20" transform="translate(310.791016 0)"/>
      <use xlink:href="#DejaVuSans-46" transform="translate(342.578125 0)"/>
      <use xlink:href="#DejaVuSans-69" transform="translate(392.847656 0)"/>
      <use xlink:href="#DejaVuSans-74" transform="translate(420.630859 0)"/>
     </g>
    </g>
    <g id="line2d_20">
     <path d="M 298.968437 83.926688 
L 308.968437 83.926688 
L 318.968437 83.926688 
" style="fill: none; stroke-dasharray: 5.55,2.4; stroke-dashoffset: 0; stroke: #2ca02c; stroke-width: 1.5"/>
    </g>
    <g id="text_18">
     <!-- -60 dB -->
     <g transform="translate(326.968437 87.426688) scale(0.1 -0.1)">
      <defs>
       <path id="DejaVuSans-64" d="M 2906 2969 
L 2906 4863 
L 3481 4863 
L 3481 0 
L 2906 0 
L 2906 525 
Q 2725 213 2448 61 
Q 2172 -91 1784 -91 
Q 1150 -91 751 415 
Q 353 922 353 1747 
Q 353 2572 751 3078 
Q 1150 3584 1784 3584 
Q 2172 3584 2448 3432 
Q 2725 3281 2906 2969 
z
M 947 1747 
Q 947 1113 1208 752 
Q 1469 391 1925 391 
Q 2381 391 2643 752 
Q 2906 1113 2906 1747 
Q 2906 2381 2643 2742 
Q 2381 3103 1925 3103 
Q 1469 3103 1208 2742 
Q 947 2381 947 1747 
z
" transform="scale(0.015625)"/>
       <path id="DejaVuSans-42" d="M 1259 2228 
L 1259 519 
L 2272 519 
Q 2781 519 3026 730 
Q 3272 941 3272 1375 
Q 3272 1813 3026 2020 
Q 2781 2228 2272 2228 
L 1259 2228 
z
M 1259 4147 
L 1259 2741 
L 2194 2741 
Q 2656 2741 2882 2914 
Q 3109 3088 3109 3444 
Q 3109 3797 2882 3972 
Q 2656 4147 2194 4147 
L 1259 4147 
z
M 628 4666 
L 2241 4666 
Q 2963 4666 3353 4366 
Q 3744 4066 3744 3513 
Q 3744 3084 3544 2831 
Q 3344 2578 2956 2516 
Q 3422 2416 3680 2098 
Q 3938 1781 3938 1306 
Q 3938 681 3513 340 
Q 3088 0 2303 0 
L 628 0 
L 628 4666 
z
" transform="scale(0.015625)"/>
      </defs>
      <use xlink:href="#DejaVuSans-2d"/>
      <use xlink:href="#DejaVuSans-36" transform="translate(36.083984 0)"/>
      <use xlink:href="#DejaVuSans-30" transform="translate(99.707031 0)"/>
      <use xlink:href="#DejaVuSans-20" transform="translate(163.330078 0)"/>
      <use xlink:href="#DejaVuSans-64" transform="translate(195.117188 0)"/>
      <use xlink:href="#DejaVuSans-42" transform="translate(258.59375 0)"/>
     </g>
    </g>
    <g id="line2d_21">
     <path d="M 298.968437 98.604813 
L 318.968437 98.604813 
" style="fill: none; stroke-dasharray: 5.55,2.4; stroke-dashoffset: 0; stroke: #1f77b4; stroke-width: 1.5"/>
    </g>
    <g id="text_19">
     <!-- Estimated RT60 -->
     <g transform="translate(326.968437 102.104813) scale(0.1 -0.1)">
      <defs>
       <path id="DejaVuSans-73" d="M 2834 3397 
L 2834 2853 
Q 2591 2978 2328 3040 
Q 2066 3103 1784 3103 
Q 1356 3103 1142 2972 
Q 928 2841 928 2578 
Q 928 2378 1081 2264 
Q 1234 2150 1697 2047 
L 1894 2003 
Q 2506 1872 2764 1633 
Q 3022 1394 3022 966 
Q 3022 478 2636 193 
Q 2250 -91 1575 -91 
Q 1294 -91 989 -36 
Q 684 19 347 128 
L 347 722 
Q 666 556 975 473 
Q 1284 391 1588 391 
Q 1994 391 2212 530 
Q 2431 669 2431 922 
Q 2431 1156 2273 1281 
Q 2116 1406 1581 1522 
L 1381 1569 
Q 847 1681 609 1914 
Q 372 2147 372 2553 
Q 372 3047 722 3315 
Q 1072 3584 1716 3584 
Q 2034 3584 2315 3537 
Q 2597 3491 2834 3397 
z
" transform="scale(0.015625)"/>
       <path id="DejaVuSans-6d" d="M 3328 2828 
Q 3544 3216 3844 3400 
Q 4144 3584 4550 3584 
Q 5097 3584 5394 3201 
Q 5691 2819 5691 2113 
L 5691 0 
L 5113 0 
L 5113 2094 
Q 5113 2597 4934 2840 
Q 4756 3084 4391 3084 
Q 3944 3084 3684 2787 
Q 3425 2491 3425 1978 
L 3425 0 
L 2847 0 
L 2847 2094 
Q 2847 2600 2669 2842 
Q 2491 3084 2119 3084 
Q 1678 3084 1418 2786 
Q 1159 2488 1159 1978 
L 1159 0 
L 581 0 
L 581 3500 
L 1159 3500 
L 1159 2956 
Q 1356 3278 1631 3431 
Q 1906 3584 2284 3584 
Q 2666 3584 2933 3390 
Q 3200 3197 3328 2828 
z
" transform="scale(0.015625)"/>
       <path id="DejaVuSans-52" d="M 2841 2188 
Q 3044 2119 3236 1894 
Q 3428 1669 3622 1275 
L 4263 0 
L 3584 0 
L 2988 1197 
Q 2756 1666 2539 1819 
Q 2322 1972 1947 1972 
L 1259 1972 
L 1259 0 
L 628 0 
L 628 4666 
L 2053 4666 
Q 2853 4666 3247 4331 
Q 3641 3997 3641 3322 
Q 3641 2881 3436 2590 
Q 3231 2300 2841 2188 
z
M 1259 4147 
L 1259 2491 
L 2053 2491 
Q 2509 2491 2742 2702 
Q 2975 2913 2975 3322 
Q 2975 3731 2742 3939 
Q 2509 4147 2053 4147 
L 1259 4147 
z
" transform="scale(0.015625)"/>
       <path id="DejaVuSans-54" d="M -19 4666 
L 3928 4666 
L 3928 4134 
L 2272 4134 
L 2272 0 
L 1638 0 
L 1638 4134 
L -19 4134 
L -19 4666 
z
" transform="scale(0.015625)"/>
      </defs>
      <use xlink:href="#DejaVuSans-45"/>
      <use xlink:href="#DejaVuSans-73" transform="translate(63.183594 0)"/>
      <use xlink:href="#DejaVuSans-74" transform="translate(115.283203 0)"/>
      <use xlink:href="#DejaVuSans-69" transform="translate(154.492188 0)"/>
      <use xlink:href="#DejaVuSans-6d" transform="translate(182.275391 0)"/>
      <use xlink:href="#DejaVuSans-61" transform="translate(279.6875 0)"/>
      <use xlink:href="#DejaVuSans-74" transform="translate(340.966797 0)"/>
      <use xlink:href="#DejaVuSans-65" transform="translate(380.175781 0)"/>
      <use xlink:href="#DejaVuSans-64" transform="translate(441.699219 0)"/>
      <use xlink:href="#DejaVuSans-20" transform="translate(505.175781 0)"/>
      <use xlink:href="#DejaVuSans-52" transform="translate(536.962891 0)"/>
      <use xlink:href="#DejaVuSans-54" transform="translate(599.195312 0)"/>
      <use xlink:href="#DejaVuSans-36" transform="translate(660.279297 0)"/>
      <use xlink:href="#DejaVuSans-30" transform="translate(723.902344 0)"/>
     </g>
    </g>
   </g>
  </g>
 </g>
 <defs>
  <clipPath id="p89e9b77c0e">
   <rect x="57.6" y="41.472" width="357.12" height="266.112"/>
  </clipPath>
 </defs>
</svg>
