<?xml version="1.0" encoding="utf-8" standalone="no"?>
<!DOCTYPE svg PUBLIC "-//W3C//DTD SVG 1.1//EN"
  "http://www.w3.org/Graphics/SVG/1.1/DTD/svg11.dtd">
<svg xmlns:xlink="http://www.w3.org/1999/xlink" width="460.8pt" height="345.6pt" viewBox="0 0 460.8 345.6" xmlns="http://www.w3.org/2000/svg" version="1.1">
 <metadata>
  <rdf:RDF xmlns:dc="http://purl.org/dc/elements/1.1/" xmlns:cc="http://creativecommons.org/ns#" xmlns:rdf="http://www.w3.org/1999/02/22-rdf-syntax-ns#">
   <cc:Work>
    <dc:type rdf:resource="http://purl.org/dc/dcmitype/StillImage"/>
    <dc:date>2025-05-07T14:04:57.320418</dc:date>
    <dc:format>image/svg+xml</dc:format>
    <dc:creator>
     <cc:Agent>
      <dc:title>Matplotlib v3.10.1, https://matplotlib.org/</dc:title>
     </cc:Agent>
    </dc:creator>
   </cc:Work>
  </rdf:RDF>
 </metadata>
 <defs>
  <style type="text/css">*{stroke-linejoin: round; stroke-linecap: butt}</style>
 </defs>
 <g id="figure_1">
  <g id="patch_1">
   <path d="M 0 345.6 
L 460.8 345.6 
L 460.8 0 
L 0 0 
z
" style="fill: #ffffff"/>
  </g>
  <g id="axes_1">
   <g id="patch_2">
    <path d="M 57.6 307.584 
L 414.72 307.584 
L 414.72 41.472 
L 57.6 41.472 
z
" style="fill: #ffffff"/>
   </g>
   <g id="matplotlib.axis_1">
    <g id="xtick_1">
     <g id="line2d_1">
      <defs>
       <path id="mb174b6fa4a" d="M 0 0 
L 0 3.5 
" style="stroke: #000000; stroke-width: 0.8"/>
      </defs>
      <g>
       <use xlink:href="#mb174b6fa4a" x="75.489818" y="307.584" style="stroke: #000000; stroke-width: 0.8"/>
      </g>
     </g>
     <g id="text_1">
      <!-- −0.2 -->
      <g transform="translate(63.348412 322.182437) scale(0.1 -0.1)">
       <defs>
        <path id="DejaVuSans-2212" d="M 678 2272 
L 4684 2272 
L 4684 1741 
L 678 1741 
L 678 2272 
z
" transform="scale(0.015625)"/>
        <path id="DejaVuSans-30" d="M 2034 4250 
Q 1547 4250 1301 3770 
Q 1056 3291 1056 2328 
Q 1056 1369 1301 889 
Q 1547 409 2034 409 
Q 2525 409 2770 889 
Q 3016 1369 3016 2328 
Q 3016 3291 2770 3770 
Q 2525 4250 2034 4250 
z
M 2034 4750 
Q 2819 4750 3233 4129 
Q 3647 3509 3647 2328 
Q 3647 1150 3233 529 
Q 2819 -91 2034 -91 
Q 1250 -91 836 529 
Q 422 1150 422 2328 
Q 422 3509 836 4129 
Q 1250 4750 2034 4750 
z
" transform="scale(0.015625)"/>
        <path id="DejaVuSans-2e" d="M 684 794 
L 1344 794 
L 1344 0 
L 684 0 
L 684 794 
z
" transform="scale(0.015625)"/>
        <path id="DejaVuSans-32" d="M 1228 531 
L 3431 531 
L 3431 0 
L 469 0 
L 469 531 
Q 828 903 1448 1529 
Q 2069 2156 2228 2338 
Q 2531 2678 2651 2914 
Q 2772 3150 2772 3378 
Q 2772 3750 2511 3984 
Q 2250 4219 1831 4219 
Q 1534 4219 1204 4116 
Q 875 4013 500 3803 
L 500 4441 
Q 881 4594 1212 4672 
Q 1544 4750 1819 4750 
Q 2544 4750 2975 4387 
Q 3406 4025 3406 3419 
Q 3406 3131 3298 2873 
Q 3191 2616 2906 2266 
Q 2828 2175 2409 1742 
Q 1991 1309 1228 531 
z
" transform="scale(0.015625)"/>
       </defs>
       <use xlink:href="#DejaVuSans-2212"/>
       <use xlink:href="#DejaVuSans-30" transform="translate(83.789062 0)"/>
       <use xlink:href="#DejaVuSans-2e" transform="translate(147.412109 0)"/>
       <use xlink:href="#DejaVuSans-32" transform="translate(179.199219 0)"/>
      </g>
     </g>
    </g>
    <g id="xtick_2">
     <g id="line2d_2">
      <g>
       <use xlink:href="#mb174b6fa4a" x="140.420727" y="307.584" style="stroke: #000000; stroke-width: 0.8"/>
      </g>
     </g>
     <g id="text_2">
      <!-- 0.0 -->
      <g transform="translate(132.469165 322.182437) scale(0.1 -0.1)">
       <use xlink:href="#DejaVuSans-30"/>
       <use xlink:href="#DejaVuSans-2e" transform="translate(63.623047 0)"/>
       <use xlink:href="#DejaVuSans-30" transform="translate(95.410156 0)"/>
      </g>
     </g>
    </g>
    <g id="xtick_3">
     <g id="line2d_3">
      <g>
       <use xlink:href="#mb174b6fa4a" x="205.351636" y="307.584" style="stroke: #000000; stroke-width: 0.8"/>
      </g>
     </g>
     <g id="text_3">
      <!-- 0.2 -->
      <g transform="translate(197.400074 322.182437) scale(0.1 -0.1)">
       <use xlink:href="#DejaVuSans-30"/>
       <use xlink:href="#DejaVuSans-2e" transform="translate(63.623047 0)"/>
       <use xlink:href="#DejaVuSans-32" transform="translate(95.410156 0)"/>
      </g>
     </g>
    </g>
    <g id="xtick_4">
     <g id="line2d_4">
      <g>
       <use xlink:href="#mb174b6fa4a" x="270.282545" y="307.584" style="stroke: #000000; stroke-width: 0.8"/>
      </g>
     </g>
     <g id="text_4">
      <!-- 0.4 -->
      <g transform="translate(262.330983 322.182437) scale(0.1 -0.1)">
       <defs>
        <path id="DejaVuSans-34" d="M 2419 4116 
L 825 1625 
L 2419 1625 
L 2419 4116 
z
M 2253 4666 
L 3047 4666 
L 3047 1625 
L 3713 1625 
L 3713 1100 
L 3047 1100 
L 3047 0 
L 2419 0 
L 2419 1100 
L 313 1100 
L 313 1709 
L 2253 4666 
z
" transform="scale(0.015625)"/>
       </defs>
       <use xlink:href="#DejaVuSans-30"/>
       <use xlink:href="#DejaVuSans-2e" transform="translate(63.623047 0)"/>
       <use xlink:href="#DejaVuSans-34" transform="translate(95.410156 0)"/>
      </g>
     </g>
    </g>
    <g id="xtick_5">
     <g id="line2d_5">
      <g>
       <use xlink:href="#mb174b6fa4a" x="335.213455" y="307.584" style="stroke: #000000; stroke-width: 0.8"/>
      </g>
     </g>
     <g id="text_5">
      <!-- 0.6 -->
      <g transform="translate(327.261892 322.182437) scale(0.1 -0.1)">
       <defs>
        <path id="DejaVuSans-36" d="M 2113 2584 
Q 1688 2584 1439 2293 
Q 1191 2003 1191 1497 
Q 1191 994 1439 701 
Q 1688 409 2113 409 
Q 2538 409 2786 701 
Q 3034 994 3034 1497 
Q 3034 2003 2786 2293 
Q 2538 2584 2113 2584 
z
M 3366 4563 
L 3366 3988 
Q 3128 4100 2886 4159 
Q 2644 4219 2406 4219 
Q 1781 4219 1451 3797 
Q 1122 3375 1075 2522 
Q 1259 2794 1537 2939 
Q 1816 3084 2150 3084 
Q 2853 3084 3261 2657 
Q 3669 2231 3669 1497 
Q 3669 778 3244 343 
Q 2819 -91 2113 -91 
Q 1303 -91 875 529 
Q 447 1150 447 2328 
Q 447 3434 972 4092 
Q 1497 4750 2381 4750 
Q 2619 4750 2861 4703 
Q 3103 4656 3366 4563 
z
" transform="scale(0.015625)"/>
       </defs>
       <use xlink:href="#DejaVuSans-30"/>
       <use xlink:href="#DejaVuSans-2e" transform="translate(63.623047 0)"/>
       <use xlink:href="#DejaVuSans-36" transform="translate(95.410156 0)"/>
      </g>
     </g>
    </g>
    <g id="xtick_6">
     <g id="line2d_6">
      <g>
       <use xlink:href="#mb174b6fa4a" x="400.144364" y="307.584" style="stroke: #000000; stroke-width: 0.8"/>
      </g>
     </g>
     <g id="text_6">
      <!-- 0.8 -->
      <g transform="translate(392.192801 322.182437) scale(0.1 -0.1)">
       <defs>
        <path id="DejaVuSans-38" d="M 2034 2216 
Q 1584 2216 1326 1975 
Q 1069 1734 1069 1313 
Q 1069 891 1326 650 
Q 1584 409 2034 409 
Q 2484 409 2743 651 
Q 3003 894 3003 1313 
Q 3003 1734 2745 1975 
Q 2488 2216 2034 2216 
z
M 1403 2484 
Q 997 2584 770 2862 
Q 544 3141 544 3541 
Q 544 4100 942 4425 
Q 1341 4750 2034 4750 
Q 2731 4750 3128 4425 
Q 3525 4100 3525 3541 
Q 3525 3141 3298 2862 
Q 3072 2584 2669 2484 
Q 3125 2378 3379 2068 
Q 3634 1759 3634 1313 
Q 3634 634 3220 271 
Q 2806 -91 2034 -91 
Q 1263 -91 848 271 
Q 434 634 434 1313 
Q 434 1759 690 2068 
Q 947 2378 1403 2484 
z
M 1172 3481 
Q 1172 3119 1398 2916 
Q 1625 2713 2034 2713 
Q 2441 2713 2670 2916 
Q 2900 3119 2900 3481 
Q 2900 3844 2670 4047 
Q 2441 4250 2034 4250 
Q 1625 4250 1398 4047 
Q 1172 3844 1172 3481 
z
" transform="scale(0.015625)"/>
       </defs>
       <use xlink:href="#DejaVuSans-30"/>
       <use xlink:href="#DejaVuSans-2e" transform="translate(63.623047 0)"/>
       <use xlink:href="#DejaVuSans-38" transform="translate(95.410156 0)"/>
      </g>
     </g>
    </g>
   </g>
   <g id="matplotlib.axis_2">
    <g id="ytick_1">
     <g id="line2d_7">
      <defs>
       <path id="m9c8893948f" d="M 0 0 
L -3.5 0 
" style="stroke: #000000; stroke-width: 0.8"/>
      </defs>
      <g>
       <use xlink:href="#m9c8893948f" x="57.6" y="303.599425" style="stroke: #000000; stroke-width: 0.8"/>
      </g>
     </g>
     <g id="text_7">
      <!-- −175 -->
      <g transform="translate(23.132812 307.398644) scale(0.1 -0.1)">
       <defs>
        <path id="DejaVuSans-31" d="M 794 531 
L 1825 531 
L 1825 4091 
L 703 3866 
L 703 4441 
L 1819 4666 
L 2450 4666 
L 2450 531 
L 3481 531 
L 3481 0 
L 794 0 
L 794 531 
z
" transform="scale(0.015625)"/>
        <path id="DejaVuSans-37" d="M 525 4666 
L 3525 4666 
L 3525 4397 
L 1831 0 
L 1172 0 
L 2766 4134 
L 525 4134 
L 525 4666 
z
" transform="scale(0.015625)"/>
        <path id="DejaVuSans-35" d="M 691 4666 
L 3169 4666 
L 3169 4134 
L 1269 4134 
L 1269 2991 
Q 1406 3038 1543 3061 
Q 1681 3084 1819 3084 
Q 2600 3084 3056 2656 
Q 3513 2228 3513 1497 
Q 3513 744 3044 326 
Q 2575 -91 1722 -91 
Q 1428 -91 1123 -41 
Q 819 9 494 109 
L 494 744 
Q 775 591 1075 516 
Q 1375 441 1709 441 
Q 2250 441 2565 725 
Q 2881 1009 2881 1497 
Q 2881 1984 2565 2268 
Q 2250 2553 1709 2553 
Q 1456 2553 1204 2497 
Q 953 2441 691 2322 
L 691 4666 
z
" transform="scale(0.015625)"/>
       </defs>
       <use xlink:href="#DejaVuSans-2212"/>
       <use xlink:href="#DejaVuSans-31" transform="translate(83.789062 0)"/>
       <use xlink:href="#DejaVuSans-37" transform="translate(147.412109 0)"/>
       <use xlink:href="#DejaVuSans-35" transform="translate(211.035156 0)"/>
      </g>
     </g>
    </g>
    <g id="ytick_2">
     <g id="line2d_8">
      <g>
       <use xlink:href="#m9c8893948f" x="57.6" y="267.88065" style="stroke: #000000; stroke-width: 0.8"/>
      </g>
     </g>
     <g id="text_8">
      <!-- −150 -->
      <g transform="translate(23.132812 271.679869) scale(0.1 -0.1)">
       <use xlink:href="#DejaVuSans-2212"/>
       <use xlink:href="#DejaVuSans-31" transform="translate(83.789062 0)"/>
       <use xlink:href="#DejaVuSans-35" transform="translate(147.412109 0)"/>
       <use xlink:href="#DejaVuSans-30" transform="translate(211.035156 0)"/>
      </g>
     </g>
    </g>
    <g id="ytick_3">
     <g id="line2d_9">
      <g>
       <use xlink:href="#m9c8893948f" x="57.6" y="232.161875" style="stroke: #000000; stroke-width: 0.8"/>
      </g>
     </g>
     <g id="text_9">
      <!-- −125 -->
      <g transform="translate(23.132812 235.961094) scale(0.1 -0.1)">
       <use xlink:href="#DejaVuSans-2212"/>
       <use xlink:href="#DejaVuSans-31" transform="translate(83.789062 0)"/>
       <use xlink:href="#DejaVuSans-32" transform="translate(147.412109 0)"/>
       <use xlink:href="#DejaVuSans-35" transform="translate(211.035156 0)"/>
      </g>
     </g>
    </g>
    <g id="ytick_4">
     <g id="line2d_10">
      <g>
       <use xlink:href="#m9c8893948f" x="57.6" y="196.4431" style="stroke: #000000; stroke-width: 0.8"/>
      </g>
     </g>
     <g id="text_10">
      <!-- −100 -->
      <g transform="translate(23.132812 200.242319) scale(0.1 -0.1)">
       <use xlink:href="#DejaVuSans-2212"/>
       <use xlink:href="#DejaVuSans-31" transform="translate(83.789062 0)"/>
       <use xlink:href="#DejaVuSans-30" transform="translate(147.412109 0)"/>
       <use xlink:href="#DejaVuSans-30" transform="translate(211.035156 0)"/>
      </g>
     </g>
    </g>
    <g id="ytick_5">
     <g id="line2d_11">
      <g>
       <use xlink:href="#m9c8893948f" x="57.6" y="160.724325" style="stroke: #000000; stroke-width: 0.8"/>
      </g>
     </g>
     <g id="text_11">
      <!-- −75 -->
      <g transform="translate(29.495313 164.523544) scale(0.1 -0.1)">
       <use xlink:href="#DejaVuSans-2212"/>
       <use xlink:href="#DejaVuSans-37" transform="translate(83.789062 0)"/>
       <use xlink:href="#DejaVuSans-35" transform="translate(147.412109 0)"/>
      </g>
     </g>
    </g>
    <g id="ytick_6">
     <g id="line2d_12">
      <g>
       <use xlink:href="#m9c8893948f" x="57.6" y="125.00555" style="stroke: #000000; stroke-width: 0.8"/>
      </g>
     </g>
     <g id="text_12">
      <!-- −50 -->
      <g transform="translate(29.495313 128.804769) scale(0.1 -0.1)">
       <use xlink:href="#DejaVuSans-2212"/>
       <use xlink:href="#DejaVuSans-35" transform="translate(83.789062 0)"/>
       <use xlink:href="#DejaVuSans-30" transform="translate(147.412109 0)"/>
      </g>
     </g>
    </g>
    <g id="ytick_7">
     <g id="line2d_13">
      <g>
       <use xlink:href="#m9c8893948f" x="57.6" y="89.286775" style="stroke: #000000; stroke-width: 0.8"/>
      </g>
     </g>
     <g id="text_13">
      <!-- −25 -->
      <g transform="translate(29.495313 93.085994) scale(0.1 -0.1)">
       <use xlink:href="#DejaVuSans-2212"/>
       <use xlink:href="#DejaVuSans-32" transform="translate(83.789062 0)"/>
       <use xlink:href="#DejaVuSans-35" transform="translate(147.412109 0)"/>
      </g>
     </g>
    </g>
    <g id="ytick_8">
     <g id="line2d_14">
      <g>
       <use xlink:href="#m9c8893948f" x="57.6" y="53.568" style="stroke: #000000; stroke-width: 0.8"/>
      </g>
     </g>
     <g id="text_14">
      <!-- 0 -->
      <g transform="translate(44.2375 57.367219) scale(0.1 -0.1)">
       <use xlink:href="#DejaVuSans-30"/>
      </g>
     </g>
    </g>
   </g>
   <g id="line2d_15">
    <path d="M 73.832727 53.568 
L 130.038545 53.666012 
L 130.349673 54.138491 
L 130.721673 54.804028 
L 130.944873 55.679132 
L 131.019273 55.799442 
L 131.174836 55.872021 
L 131.817382 55.979671 
L 132.277309 56.272651 
L 132.486982 56.386765 
L 134.732509 57.300484 
L 134.908364 57.355656 
L 135.287127 57.462861 
L 135.726764 57.702289 
L 136.423418 57.809637 
L 137.093018 58.556059 
L 137.262109 58.72594 
L 137.722036 58.847874 
L 138.459273 59.327492 
L 138.635127 59.428743 
L 138.898909 59.798173 
L 139.683491 59.99792 
L 139.9608 60.197684 
L 140.170473 60.367476 
L 140.359855 60.471077 
L 140.603345 60.937477 
L 141.124145 61.130269 
L 141.340582 61.37889 
L 141.881673 61.577048 
L 142.199564 61.751831 
L 142.497164 61.91317 
L 142.733891 62.115466 
L 143.450836 62.622418 
L 144.093382 62.873404 
L 144.296291 63.173914 
L 144.729164 63.335401 
L 145.026764 63.385127 
L 145.432582 63.521257 
L 145.736945 63.575478 
L 146.129236 63.692816 
L 147.515782 64.299438 
L 147.779564 64.776602 
L 147.955418 64.8994 
L 148.787345 65.080607 
L 149.314909 65.219025 
L 150.505309 65.572201 
L 151.601018 66.062928 
L 152.054182 66.181561 
L 152.304436 66.232298 
L 152.974036 66.412017 
L 153.224291 66.614201 
L 155.036945 67.158757 
L 155.266909 67.424848 
L 156.159709 67.66663 
L 156.349091 67.842051 
L 156.673745 67.959511 
L 157.133673 68.439175 
L 157.843855 68.549686 
L 158.148218 68.790876 
L 158.371418 69.104533 
L 158.581091 69.214578 
L 159.365673 69.328219 
L 160.353164 69.438819 
L 161.421818 69.912883 
L 161.604436 69.984673 
L 162.098182 70.200363 
L 162.307855 70.306087 
L 162.720436 70.459106 
L 163.126255 71.118479 
L 163.897309 71.233562 
L 164.134036 71.337442 
L 164.857745 71.577577 
L 165.135055 71.98701 
L 165.662618 72.217738 
L 166.805673 72.432877 
L 167.718764 72.864505 
L 167.9352 73.165592 
L 168.171927 73.240919 
L 168.496582 73.405413 
L 168.740073 73.831382 
L 169.254109 74.189182 
L 169.639636 74.989932 
L 170.153673 76.118153 
L 172.277455 77.15107 
L 172.453309 77.26173 
L 173.393455 77.648655 
L 173.623418 77.848379 
L 173.927782 77.953395 
L 174.144218 78.022086 
L 174.6312 78.193155 
L 175.091127 78.523966 
L 176.017745 79.26858 
L 176.234182 79.794957 
L 176.369455 79.936101 
L 176.531782 80.049035 
L 176.829382 80.274482 
L 177.059345 80.493108 
L 177.695127 80.606336 
L 178.7232 80.757409 
L 178.993745 81.012864 
L 179.196655 81.270077 
L 179.852727 81.420292 
L 181.049891 81.710967 
L 181.185164 81.818998 
L 181.442182 82.039005 
L 181.800655 82.208805 
L 182.639345 82.949491 
L 182.876073 83.416211 
L 183.085745 83.468866 
L 183.579491 83.618866 
L 183.944727 84.542741 
L 184.201745 84.751507 
L 184.404655 85.000646 
L 184.763127 85.140829 
L 185.053964 85.658321 
L 185.223055 85.834366 
L 185.655927 86.101696 
L 185.872364 86.306013 
L 186.352582 86.425792 
L 186.616364 86.573364 
L 187.225091 86.739109 
L 187.583564 86.823704 
L 188.219345 86.949868 
L 189.430036 87.525584 
L 190.498691 87.865242 
L 190.816582 88.007445 
L 191.364436 88.338124 
L 192.1152 88.47387 
L 192.608945 88.66628 
L 192.825382 88.856061 
L 193.041818 88.906523 
L 193.407055 89.035171 
L 193.934618 89.509883 
L 194.827418 89.752455 
L 195.409091 90.316765 
L 196.044873 90.542647 
L 196.416873 90.86464 
L 197.113527 91.073461 
L 197.505818 91.22078 
L 198.540655 91.353887 
L 198.723273 91.534413 
L 199.217018 92.06527 
L 199.683709 92.231738 
L 200.021891 92.418399 
L 200.218036 92.491799 
L 200.725309 92.607938 
L 201.056727 92.64706 
L 202.558255 92.880428 
L 203.004655 93.179301 
L 204.025964 93.870196 
L 204.195055 93.949446 
L 204.884945 94.066091 
L 205.459855 94.620272 
L 206.048291 94.753594 
L 206.663782 95.659634 
L 206.9952 95.794766 
L 207.191345 95.896976 
L 208.016509 96.370111 
L 208.692873 96.473113 
L 209.545091 97.428749 
L 209.788582 97.575463 
L 210.079418 97.866798 
L 210.147055 97.974222 
L 210.363491 98.320422 
L 210.661091 98.520943 
L 210.749018 98.641031 
L 210.931636 98.694653 
L 211.188655 98.820476 
L 211.452436 99.012092 
L 212.250545 99.392169 
L 212.629309 99.683308 
L 213.190691 99.800197 
L 213.380073 99.938087 
L 213.562691 100.012217 
L 213.806182 100.146257 
L 214.042909 100.372242 
L 214.448727 100.526042 
L 214.827491 100.688233 
L 215.517382 100.964218 
L 216.403418 101.083253 
L 217.330036 101.206963 
L 217.898182 101.307645 
L 218.1552 101.540303 
L 218.500145 101.657919 
L 219.359127 101.805165 
L 219.629673 101.845608 
L 219.859636 101.944965 
L 220.143709 102.246657 
L 221.638473 102.629684 
L 222.612436 102.762634 
L 223.268509 103.143354 
L 223.484945 103.435378 
L 224.019273 103.548667 
L 224.188364 103.706118 
L 224.398036 103.949316 
L 224.628 104.056698 
L 224.905309 104.172852 
L 225.629018 104.431647 
L 225.858982 104.565191 
L 226.122764 104.678761 
L 226.602982 104.78823 
L 226.819418 104.963897 
L 227.096727 105.087975 
L 227.333455 105.245073 
L 228.111273 105.369278 
L 228.544145 105.668812 
L 229.206982 106.318463 
L 229.288145 106.427382 
L 229.822473 107.291751 
L 230.140364 107.328631 
L 230.911418 107.477991 
L 231.168436 107.590323 
L 231.696 107.72713 
L 231.925964 107.948587 
L 232.426473 108.079377 
L 232.649673 108.121529 
L 233.495127 108.471595 
L 233.698036 108.709985 
L 233.961818 108.966049 
L 234.212073 108.995879 
L 234.854618 109.2276 
L 235.091345 109.36891 
L 235.686545 109.598725 
L 235.902982 109.655472 
L 237.133964 110.381701 
L 237.316582 110.430247 
L 237.648 110.549731 
L 237.9456 110.740212 
L 238.750473 110.936503 
L 239.095418 111.058517 
L 240.245236 111.256277 
L 241.827927 111.919183 
L 242.125527 112.084309 
L 242.626036 112.364001 
L 243.248291 112.699813 
L 244.249309 112.999396 
L 244.614545 113.161373 
L 245.216509 113.29685 
L 246.149891 114.085483 
L 246.440727 114.213673 
L 246.690982 114.29016 
L 247.110327 114.425443 
L 247.340291 114.507093 
L 247.827273 114.770029 
L 248.016655 114.867355 
L 248.496873 115.00264 
L 248.801236 115.095616 
L 249.518182 115.21293 
L 249.788727 115.543593 
L 249.978109 115.730471 
L 250.992655 116.350809 
L 251.6352 116.486627 
L 252.642982 116.699444 
L 252.994691 117.64808 
L 253.738691 117.982824 
L 254.604436 118.408238 
L 255.389018 118.556764 
L 255.686618 118.728701 
L 256.200655 118.981378 
L 256.3968 119.060779 
L 257.364 119.346137 
L 257.702182 119.484291 
L 258.202691 119.706667 
L 258.378545 119.855493 
L 258.513818 119.992979 
L 258.831709 120.772958 
L 258.906109 120.879588 
L 259.102255 121.138588 
L 259.433673 121.248153 
L 260.0424 121.709517 
L 260.833745 121.864988 
L 261.1584 122.543256 
L 261.300436 122.647714 
L 261.523636 122.790608 
L 261.706255 122.910403 
L 262.064727 123.054702 
L 262.477309 123.354456 
L 262.673455 123.523403 
L 263.863855 123.67144 
L 264.262909 123.719628 
L 264.783709 123.855546 
L 265.284218 124.144255 
L 265.453309 124.251135 
L 265.744145 124.476798 
L 265.953818 124.513665 
L 266.298764 124.623125 
L 266.5152 124.720992 
L 268.118182 125.050849 
L 268.544291 125.147744 
L 268.841891 125.340806 
L 269.092145 125.583646 
L 269.376218 125.766506 
L 272.3928 126.517964 
L 272.609236 126.888069 
L 272.697164 126.989231 
L 272.893309 127.137614 
L 273.0624 127.246036 
L 273.292364 127.374597 
L 273.995782 127.587827 
L 274.448945 128.013732 
L 274.753309 128.12791 
L 274.976509 128.278888 
L 276.444218 128.97887 
L 276.667418 129.211384 
L 276.944727 129.316948 
L 277.255855 129.4298 
L 277.472291 129.586314 
L 278.689745 129.802852 
L 279.075273 129.989771 
L 279.318764 130.169281 
L 279.589309 130.661339 
L 279.771927 130.754451 
L 279.954545 130.936932 
L 280.157455 131.063546 
L 281.259927 131.313391 
L 282.592364 132.257909 
L 282.768218 132.379357 
L 283.140218 132.398221 
L 283.370182 132.509685 
L 283.5528 132.619183 
L 284.323855 132.78825 
L 284.506473 132.818681 
L 285.399273 132.988993 
L 285.778036 133.053442 
L 286.292073 133.165741 
L 287.658327 133.616792 
L 287.827418 133.732939 
L 288.503782 133.854647 
L 288.889309 134.009839 
L 289.098982 134.123063 
L 289.308655 134.188259 
L 289.592727 134.352387 
L 289.870036 134.626772 
L 291.060436 134.935742 
L 291.878836 135.046854 
L 292.169673 135.144086 
L 292.758109 135.382523 
L 293.387127 135.757612 
L 293.833527 135.867941 
L 294.273164 136.053041 
L 294.503127 136.161758 
L 294.766909 136.375079 
L 295.260655 136.549214 
L 295.490618 136.621263 
L 297.492655 136.856275 
L 298.169018 137.220679 
L 298.378691 137.361508 
L 299.312073 137.77322 
L 299.521745 138.128699 
L 299.826109 138.273257 
L 300.211636 138.581868 
L 300.488945 138.628732 
L 301.591418 138.738832 
L 301.990473 138.891191 
L 302.585673 139.000801 
L 303.248509 139.270896 
L 303.471709 139.412015 
L 303.850473 139.52112 
L 304.8312 139.787999 
L 305.527855 140.295206 
L 305.730764 140.406724 
L 305.9472 140.661812 
L 307.036145 141.149616 
L 308.415927 141.39661 
L 308.6256 141.469245 
L 309.863345 141.565888 
L 310.837309 141.678769 
L 311.209309 141.746161 
L 312.305018 141.868665 
L 312.582327 142.01909 
L 313.109891 142.188339 
L 313.6104 142.334228 
L 316.383491 142.704699 
L 317.066618 143.040393 
L 317.269527 143.416979 
L 318.121745 143.589186 
L 318.507273 143.653925 
L 319.068655 143.941359 
L 319.305382 144.078169 
L 319.6368 144.158155 
L 320.448436 144.273792 
L 320.746036 144.376647 
L 321.456218 144.521129 
L 321.814691 144.662975 
L 322.558691 144.817286 
L 322.788655 144.890656 
L 322.9848 145.019549 
L 323.214764 145.209715 
L 323.627345 145.330066 
L 323.837018 145.414322 
L 324.337527 145.520458 
L 324.581018 145.575394 
L 325.764655 145.687818 
L 326.244873 145.872734 
L 327.428509 145.988073 
L 328.727127 146.341227 
L 329.038255 146.459293 
L 329.626691 146.631839 
L 329.890473 146.730843 
L 330.512727 146.842637 
L 330.830618 146.968881 
L 331.256727 147.043054 
L 331.892509 147.309626 
L 332.230691 147.492912 
L 332.393018 147.60764 
L 332.710909 147.69412 
L 332.981455 147.804976 
L 333.299345 147.927221 
L 333.671345 148.03666 
L 334.124509 148.117909 
L 335.504291 148.233243 
L 335.970982 148.343809 
L 337.026109 148.47005 
L 337.966255 148.59142 
L 338.500582 148.719372 
L 339.089018 148.803273 
L 339.934473 148.914465 
L 340.32 148.987281 
L 340.949018 149.184364 
L 341.192509 149.277338 
L 341.699782 149.420718 
L 341.950036 149.604579 
L 342.423491 149.757174 
L 342.633164 149.966975 
L 343.140436 150.078358 
L 343.674764 150.15729 
L 344.127927 150.27898 
L 344.824582 150.617426 
L 345.433309 150.756841 
L 345.805309 150.79547 
L 346.508727 150.914559 
L 346.860436 151.13775 
L 347.814109 151.265334 
L 348.145527 151.322134 
L 349.085673 151.564822 
L 349.498255 151.761045 
L 350.972727 151.872307 
L 351.229745 152.000648 
L 351.439418 152.205625 
L 352.190182 152.315356 
L 352.4472 152.399903 
L 352.812436 152.530036 
L 353.049164 152.654614 
L 353.752582 153.097733 
L 354.401891 153.21485 
L 354.794182 153.253419 
L 355.761382 153.404785 
L 357.526691 153.977943 
L 357.905455 154.183627 
L 358.811782 154.352068 
L 359.163491 154.69615 
L 360.577091 155.024135 
L 360.840873 155.44046 
L 361.165527 155.665149 
L 364.439127 156.651438 
L 364.635273 156.696598 
L 364.831418 156.830982 
L 365.142545 157.358068 
L 365.298109 157.469312 
L 365.724218 157.573283 
L 366.441164 157.684482 
L 367.124291 157.739136 
L 367.820945 157.891132 
L 368.084727 158.005756 
L 368.348509 158.129168 
L 369.1128 158.529384 
L 369.322473 158.733897 
L 370.465527 158.983163 
L 370.783418 159.090889 
L 371.1216 159.282011 
L 371.378618 159.395906 
L 371.967055 160.160212 
L 372.048218 160.336287 
L 372.298473 160.805423 
L 372.474327 160.918528 
L 372.663709 161.057319 
L 372.893673 161.215263 
L 373.786473 161.535167 
L 374.090836 161.797963 
L 374.760436 162.028932 
L 375.0648 162.342655 
L 375.572073 162.737447 
L 375.788509 163.142085 
L 376.153745 163.327356 
L 376.640727 163.759097 
L 376.830109 164.022794 
L 377.033018 164.155167 
L 377.641745 164.970413 
L 377.763491 165.177714 
L 377.979927 165.588843 
L 378.541309 165.926303 
L 378.913309 166.853601 
L 379.122982 166.946857 
L 380.029309 167.803136 
L 380.218691 168.020004 
L 380.516291 168.894719 
L 380.7192 169.553284 
L 380.989745 169.712462 
L 381.145309 170.163269 
L 381.354982 171.067673 
L 381.882545 172.414021 
L 382.085455 172.883702 
L 382.146327 173.002527 
L 382.328945 173.205394 
L 382.396582 173.311591 
L 382.6536 173.643591 
L 382.883564 173.99148 
L 383.214982 174.921159 
L 383.370545 175.044644 
L 383.600509 175.671891 
L 383.877818 176.807308 
L 384.101018 177.268963 
L 384.351273 177.680287 
L 384.723273 179.446833 
L 384.790909 179.592803 
L 384.939709 179.663243 
L 385.426691 179.905829 
L 386.258618 182.289443 
L 386.434473 182.859901 
L 386.508873 182.972094 
L 387.557236 185.371266 
L 387.7128 185.48376 
L 388.105091 186.764827 
L 388.450036 187.14675 
L 388.909964 188.195283 
L 389.079055 188.367815 
L 389.207564 189.088704 
L 389.457818 191.608163 
L 389.511927 192.306977 
L 389.694545 193.715403 
L 390.127418 194.477193 
L 390.289745 194.605549 
L 390.506182 194.980862 
L 390.702327 195.185781 
L 391.324582 197.954252 
L 391.764218 198.495035 
L 392.088873 199.045464 
L 392.271491 199.152157 
L 392.555564 199.574227 
L 392.616436 200.292874 
L 392.9208 202.923832 
L 392.954618 203.038639 
L 393.225164 204.342468 
L 393.482182 206.491681 
L 393.651273 207.29691 
L 393.921818 207.507301 
L 394.104436 207.616247 
L 394.314109 208.150967 
L 394.983709 213.29684 
L 395.017527 213.382865 
L 395.186618 215.482231 
L 395.436873 220.572494 
L 395.470691 220.715263 
L 396.005018 226.796842 
L 396.153818 228.570623 
L 396.404073 231.549184 
L 396.6408 236.607744 
L 396.681382 236.964021 
L 396.870764 238.210135 
L 397.215709 239.877379 
L 397.8312 254.500708 
L 397.912364 255.263637 
L 398.108509 261.217665 
L 398.480509 295.488 
L 398.480509 295.488 
" clip-path="url(#pd8eb223a41)" style="fill: none; stroke: #1f77b4; stroke-width: 1.5; stroke-linecap: square"/>
   </g>
   <g id="line2d_16">
    <path d="M 140.420727 60.721306 
L 328.984145 146.436815 
" clip-path="url(#pd8eb223a41)" style="fill: none; stroke-dasharray: 5.55,2.4; stroke-dashoffset: 0; stroke: #ff7f0e; stroke-width: 1.5"/>
   </g>
   <g id="line2d_17">
    <path d="M 73.832727 139.29306 
L 398.487273 139.29306 
L 398.487273 139.29306 
" clip-path="url(#pd8eb223a41)" style="fill: none; stroke-dasharray: 5.55,2.4; stroke-dashoffset: 0; stroke: #2ca02c; stroke-width: 1.5"/>
   </g>
   <g id="LineCollection_1">
    <path d="M 328.984145 295.488 
L 328.984145 53.568 
" clip-path="url(#pd8eb223a41)" style="fill: none; stroke-dasharray: 5.55,2.4; stroke-dashoffset: 0; stroke: #1f77b4; stroke-width: 1.5"/>
   </g>
   <g id="patch_3">
    <path d="M 57.6 307.584 
L 57.6 41.472 
" style="fill: none; stroke: #000000; stroke-width: 0.8; stroke-linejoin: miter; stroke-linecap: square"/>
   </g>
   <g id="patch_4">
    <path d="M 414.72 307.584 
L 414.72 41.472 
" style="fill: none; stroke: #000000; stroke-width: 0.8; stroke-linejoin: miter; stroke-linecap: square"/>
   </g>
   <g id="patch_5">
    <path d="M 57.6 307.584 
L 414.72 307.584 
" style="fill: none; stroke: #000000; stroke-width: 0.8; stroke-linejoin: miter; stroke-linecap: square"/>
   </g>
   <g id="patch_6">
    <path d="M 57.6 41.472 
L 414.72 41.472 
" style="fill: none; stroke: #000000; stroke-width: 0.8; stroke-linejoin: miter; stroke-linecap: square"/>
   </g>
   <g id="text_15">
    <!-- Energy Decay - 1000 Hz -->
    <g transform="translate(163.59 35.472) scale(0.12 -0.12)">
     <defs>
      <path id="DejaVuSans-45" d="M 628 4666 
L 3578 4666 
L 3578 4134 
L 1259 4134 
L 1259 2753 
L 3481 2753 
L 3481 2222 
L 1259 2222 
L 1259 531 
L 3634 531 
L 3634 0 
L 628 0 
L 628 4666 
z
" transform="scale(0.015625)"/>
      <path id="DejaVuSans-6e" d="M 3513 2113 
L 3513 0 
L 2938 0 
L 2938 2094 
Q 2938 2591 2744 2837 
Q 2550 3084 2163 3084 
Q 1697 3084 1428 2787 
Q 1159 2491 1159 1978 
L 1159 0 
L 581 0 
L 581 3500 
L 1159 3500 
L 1159 2956 
Q 1366 3272 1645 3428 
Q 1925 3584 2291 3584 
Q 2894 3584 3203 3211 
Q 3513 2838 3513 2113 
z
" transform="scale(0.015625)"/>
      <path id="DejaVuSans-65" d="M 3597 1894 
L 3597 1613 
L 953 1613 
Q 991 1019 1311 708 
Q 1631 397 2203 397 
Q 2534 397 2845 478 
Q 3156 559 3463 722 
L 3463 178 
Q 3153 47 2828 -22 
Q 2503 -91 2169 -91 
Q 1331 -91 842 396 
Q 353 884 353 1716 
Q 353 2575 817 3079 
Q 1281 3584 2069 3584 
Q 2775 3584 3186 3129 
Q 3597 2675 3597 1894 
z
M 3022 2063 
Q 3016 2534 2758 2815 
Q 2500 3097 2075 3097 
Q 1594 3097 1305 2825 
Q 1016 2553 972 2059 
L 3022 2063 
z
" transform="scale(0.015625)"/>
      <path id="DejaVuSans-72" d="M 2631 2963 
Q 2534 3019 2420 3045 
Q 2306 3072 2169 3072 
Q 1681 3072 1420 2755 
Q 1159 2438 1159 1844 
L 1159 0 
L 581 0 
L 581 3500 
L 1159 3500 
L 1159 2956 
Q 1341 3275 1631 3429 
Q 1922 3584 2338 3584 
Q 2397 3584 2469 3576 
Q 2541 3569 2628 3553 
L 2631 2963 
z
" transform="scale(0.015625)"/>
      <path id="DejaVuSans-67" d="M 2906 1791 
Q 2906 2416 2648 2759 
Q 2391 3103 1925 3103 
Q 1463 3103 1205 2759 
Q 947 2416 947 1791 
Q 947 1169 1205 825 
Q 1463 481 1925 481 
Q 2391 481 2648 825 
Q 2906 1169 2906 1791 
z
M 3481 434 
Q 3481 -459 3084 -895 
Q 2688 -1331 1869 -1331 
Q 1566 -1331 1297 -1286 
Q 1028 -1241 775 -1147 
L 775 -588 
Q 1028 -725 1275 -790 
Q 1522 -856 1778 -856 
Q 2344 -856 2625 -561 
Q 2906 -266 2906 331 
L 2906 616 
Q 2728 306 2450 153 
Q 2172 0 1784 0 
Q 1141 0 747 490 
Q 353 981 353 1791 
Q 353 2603 747 3093 
Q 1141 3584 1784 3584 
Q 2172 3584 2450 3431 
Q 2728 3278 2906 2969 
L 2906 3500 
L 3481 3500 
L 3481 434 
z
" transform="scale(0.015625)"/>
      <path id="DejaVuSans-79" d="M 2059 -325 
Q 1816 -950 1584 -1140 
Q 1353 -1331 966 -1331 
L 506 -1331 
L 506 -850 
L 844 -850 
Q 1081 -850 1212 -737 
Q 1344 -625 1503 -206 
L 1606 56 
L 191 3500 
L 800 3500 
L 1894 763 
L 2988 3500 
L 3597 3500 
L 2059 -325 
z
" transform="scale(0.015625)"/>
      <path id="DejaVuSans-20" transform="scale(0.015625)"/>
      <path id="DejaVuSans-44" d="M 1259 4147 
L 1259 519 
L 2022 519 
Q 2988 519 3436 956 
Q 3884 1394 3884 2338 
Q 3884 3275 3436 3711 
Q 2988 4147 2022 4147 
L 1259 4147 
z
M 628 4666 
L 1925 4666 
Q 3281 4666 3915 4102 
Q 4550 3538 4550 2338 
Q 4550 1131 3912 565 
Q 3275 0 1925 0 
L 628 0 
L 628 4666 
z
" transform="scale(0.015625)"/>
      <path id="DejaVuSans-63" d="M 3122 3366 
L 3122 2828 
Q 2878 2963 2633 3030 
Q 2388 3097 2138 3097 
Q 1578 3097 1268 2742 
Q 959 2388 959 1747 
Q 959 1106 1268 751 
Q 1578 397 2138 397 
Q 2388 397 2633 464 
Q 2878 531 3122 666 
L 3122 134 
Q 2881 22 2623 -34 
Q 2366 -91 2075 -91 
Q 1284 -91 818 406 
Q 353 903 353 1747 
Q 353 2603 823 3093 
Q 1294 3584 2113 3584 
Q 2378 3584 2631 3529 
Q 2884 3475 3122 3366 
z
" transform="scale(0.015625)"/>
      <path id="DejaVuSans-61" d="M 2194 1759 
Q 1497 1759 1228 1600 
Q 959 1441 959 1056 
Q 959 750 1161 570 
Q 1363 391 1709 391 
Q 2188 391 2477 730 
Q 2766 1069 2766 1631 
L 2766 1759 
L 2194 1759 
z
M 3341 1997 
L 3341 0 
L 2766 0 
L 2766 531 
Q 2569 213 2275 61 
Q 1981 -91 1556 -91 
Q 1019 -91 701 211 
Q 384 513 384 1019 
Q 384 1609 779 1909 
Q 1175 2209 1959 2209 
L 2766 2209 
L 2766 2266 
Q 2766 2663 2505 2880 
Q 2244 3097 1772 3097 
Q 1472 3097 1187 3025 
Q 903 2953 641 2809 
L 641 3341 
Q 956 3463 1253 3523 
Q 1550 3584 1831 3584 
Q 2591 3584 2966 3190 
Q 3341 2797 3341 1997 
z
" transform="scale(0.015625)"/>
      <path id="DejaVuSans-2d" d="M 313 2009 
L 1997 2009 
L 1997 1497 
L 313 1497 
L 313 2009 
z
" transform="scale(0.015625)"/>
      <path id="DejaVuSans-48" d="M 628 4666 
L 1259 4666 
L 1259 2753 
L 3553 2753 
L 3553 4666 
L 4184 4666 
L 4184 0 
L 3553 0 
L 3553 2222 
L 1259 2222 
L 1259 0 
L 628 0 
L 628 4666 
z
" transform="scale(0.015625)"/>
      <path id="DejaVuSans-7a" d="M 353 3500 
L 3084 3500 
L 3084 2975 
L 922 459 
L 3084 459 
L 3084 0 
L 275 0 
L 275 525 
L 2438 3041 
L 353 3041 
L 353 3500 
z
" transform="scale(0.015625)"/>
     </defs>
     <use xlink:href="#DejaVuSans-45"/>
     <use xlink:href="#DejaVuSans-6e" transform="translate(63.183594 0)"/>
     <use xlink:href="#DejaVuSans-65" transform="translate(126.5625 0)"/>
     <use xlink:href="#DejaVuSans-72" transform="translate(188.085938 0)"/>
     <use xlink:href="#DejaVuSans-67" transform="translate(227.449219 0)"/>
     <use xlink:href="#DejaVuSans-79" transform="translate(290.925781 0)"/>
     <use xlink:href="#DejaVuSans-20" transform="translate(350.105469 0)"/>
     <use xlink:href="#DejaVuSans-44" transform="translate(381.892578 0)"/>
     <use xlink:href="#DejaVuSans-65" transform="translate(458.894531 0)"/>
     <use xlink:href="#DejaVuSans-63" transform="translate(520.417969 0)"/>
     <use xlink:href="#DejaVuSans-61" transform="translate(575.398438 0)"/>
     <use xlink:href="#DejaVuSans-79" transform="translate(636.677734 0)"/>
     <use xlink:href="#DejaVuSans-20" transform="translate(695.857422 0)"/>
     <use xlink:href="#DejaVuSans-2d" transform="translate(727.644531 0)"/>
     <use xlink:href="#DejaVuSans-20" transform="translate(763.728516 0)"/>
     <use xlink:href="#DejaVuSans-31" transform="translate(795.515625 0)"/>
     <use xlink:href="#DejaVuSans-30" transform="translate(859.138672 0)"/>
     <use xlink:href="#DejaVuSans-30" transform="translate(922.761719 0)"/>
     <use xlink:href="#DejaVuSans-30" transform="translate(986.384766 0)"/>
     <use xlink:href="#DejaVuSans-20" transform="translate(1050.007812 0)"/>
     <use xlink:href="#DejaVuSans-48" transform="translate(1081.794922 0)"/>
     <use xlink:href="#DejaVuSans-7a" transform="translate(1156.990234 0)"/>
    </g>
   </g>
   <g id="legend_1">
    <g id="patch_7">
     <path d="M 296.968437 108.1845 
L 407.72 108.1845 
Q 409.72 108.1845 409.72 106.1845 
L 409.72 48.472 
Q 409.72 46.472 407.72 46.472 
L 296.968437 46.472 
Q 294.968437 46.472 294.968437 48.472 
L 294.968437 106.1845 
Q 294.968437 108.1845 296.968437 108.1845 
z
" style="fill: #ffffff; opacity: 0.8; stroke: #cccccc; stroke-linejoin: miter"/>
    </g>
    <g id="line2d_18">
     <path d="M 298.968437 54.570438 
L 308.968437 54.570438 
L 318.968437 54.570438 
" style="fill: none; stroke: #1f77b4; stroke-width: 1.5; stroke-linecap: square"/>
    </g>
    <g id="text_16">
     <!-- Energy -->
     <g transform="translate(326.968437 58.070438) scale(0.1 -0.1)">
      <use xlink:href="#DejaVuSans-45"/>
      <use xlink:href="#DejaVuSans-6e" transform="translate(63.183594 0)"/>
      <use xlink:href="#DejaVuSans-65" transform="translate(126.5625 0)"/>
      <use xlink:href="#DejaVuSans-72" transform="translate(188.085938 0)"/>
      <use xlink:href="#DejaVuSans-67" transform="translate(227.449219 0)"/>
      <use xlink:href="#DejaVuSans-79" transform="translate(290.925781 0)"/>
     </g>
    </g>
    <g id="line2d_19">
     <path d="M 298.968437 69.248563 
L 308.968437 69.248563 
L 318.968437 69.248563 
" style="fill: none; stroke-dasharray: 5.55,2.4; stroke-dashoffset: 0; stroke: #ff7f0e; stroke-width: 1.5"/>
    </g>
    <g id="text_17">
     <!-- Linear Fit -->
     <g transform="translate(326.968437 72.748563) scale(0.1 -0.1)">
      <defs>
       <path id="DejaVuSans-4c" d="M 628 4666 
L 1259 4666 
L 1259 531 
L 3531 531 
L 3531 0 
L 628 0 
L 628 4666 
z
" transform="scale(0.015625)"/>
       <path id="DejaVuSans-69" d="M 603 3500 
L 1178 3500 
L 1178 0 
L 603 0 
L 603 3500 
z
M 603 4863 
L 1178 4863 
L 1178 4134 
L 603 4134 
L 603 4863 
z
" transform="scale(0.015625)"/>
       <path id="DejaVuSans-46" d="M 628 4666 
L 3309 4666 
L 3309 4134 
L 1259 4134 
L 1259 2759 
L 3109 2759 
L 3109 2228 
L 1259 2228 
L 1259 0 
L 628 0 
L 628 4666 
z
" transform="scale(0.015625)"/>
       <path id="DejaVuSans-74" d="M 1172 4494 
L 1172 3500 
L 2356 3500 
L 2356 3053 
L 1172 3053 
L 1172 1153 
Q 1172 725 1289 603 
Q 1406 481 1766 481 
L 2356 481 
L 2356 0 
L 1766 0 
Q 1100 0 847 248 
Q 594 497 594 1153 
L 594 3053 
L 172 3053 
L 172 3500 
L 594 3500 
L 594 4494 
L 1172 4494 
z
" transform="scale(0.015625)"/>
      </defs>
      <use xlink:href="#DejaVuSans-4c"/>
      <use xlink:href="#DejaVuSans-69" transform="translate(55.712891 0)"/>
      <use xlink:href="#DejaVuSans-6e" transform="translate(83.496094 0)"/>
      <use xlink:href="#DejaVuSans-65" transform="translate(146.875 0)"/>
      <use xlink:href="#DejaVuSans-61" transform="translate(208.398438 0)"/>
      <use xlink:href="#DejaVuSans-72" transform="translate(269.677734 0)"/>
      <use xlink:href="#DejaVuSans-20" transform="translate(310.791016 0)"/>
      <use xlink:href="#DejaVuSans-46" transform="translate(342.578125 0)"/>
      <use xlink:href="#DejaVuSans-69" transform="translate(392.847656 0)"/>
      <use xlink:href="#DejaVuSans-74" transform="translate(420.630859 0)"/>
     </g>
    </g>
    <g id="line2d_20">
     <path d="M 298.968437 83.926688 
L 308.968437 83.926688 
L 318.968437 83.926688 
" style="fill: none; stroke-dasharray: 5.55,2.4; stroke-dashoffset: 0; stroke: #2ca02c; stroke-width: 1.5"/>
    </g>
    <g id="text_18">
     <!-- -60 dB -->
     <g transform="translate(326.968437 87.426688) scale(0.1 -0.1)">
      <defs>
       <path id="DejaVuSans-64" d="M 2906 2969 
L 2906 4863 
L 3481 4863 
L 3481 0 
L 2906 0 
L 2906 525 
Q 2725 213 2448 61 
Q 2172 -91 1784 -91 
Q 1150 -91 751 415 
Q 353 922 353 1747 
Q 353 2572 751 3078 
Q 1150 3584 1784 3584 
Q 2172 3584 2448 3432 
Q 2725 3281 2906 2969 
z
M 947 1747 
Q 947 1113 1208 752 
Q 1469 391 1925 391 
Q 2381 391 2643 752 
Q 2906 1113 2906 1747 
Q 2906 2381 2643 2742 
Q 2381 3103 1925 3103 
Q 1469 3103 1208 2742 
Q 947 2381 947 1747 
z
" transform="scale(0.015625)"/>
       <path id="DejaVuSans-42" d="M 1259 2228 
L 1259 519 
L 2272 519 
Q 2781 519 3026 730 
Q 3272 941 3272 1375 
Q 3272 1813 3026 2020 
Q 2781 2228 2272 2228 
L 1259 2228 
z
M 1259 4147 
L 1259 2741 
L 2194 2741 
Q 2656 2741 2882 2914 
Q 3109 3088 3109 3444 
Q 3109 3797 2882 3972 
Q 2656 4147 2194 4147 
L 1259 4147 
z
M 628 4666 
L 2241 4666 
Q 2963 4666 3353 4366 
Q 3744 4066 3744 3513 
Q 3744 3084 3544 2831 
Q 3344 2578 2956 2516 
Q 3422 2416 3680 2098 
Q 3938 1781 3938 1306 
Q 3938 681 3513 340 
Q 3088 0 2303 0 
L 628 0 
L 628 4666 
z
" transform="scale(0.015625)"/>
      </defs>
      <use xlink:href="#DejaVuSans-2d"/>
      <use xlink:href="#DejaVuSans-36" transform="translate(36.083984 0)"/>
      <use xlink:href="#DejaVuSans-30" transform="translate(99.707031 0)"/>
      <use xlink:href="#DejaVuSans-20" transform="translate(163.330078 0)"/>
      <use xlink:href="#DejaVuSans-64" transform="translate(195.117188 0)"/>
      <use xlink:href="#DejaVuSans-42" transform="translate(258.59375 0)"/>
     </g>
    </g>
    <g id="line2d_21">
     <path d="M 298.968437 98.604813 
L 318.968437 98.604813 
" style="fill: none; stroke-dasharray: 5.55,2.4; stroke-dashoffset: 0; stroke: #1f77b4; stroke-width: 1.5"/>
    </g>
    <g id="text_19">
     <!-- Estimated RT60 -->
     <g transform="translate(326.968437 102.104813) scale(0.1 -0.1)">
      <defs>
       <path id="DejaVuSans-73" d="M 2834 3397 
L 2834 2853 
Q 2591 2978 2328 3040 
Q 2066 3103 1784 3103 
Q 1356 3103 1142 2972 
Q 928 2841 928 2578 
Q 928 2378 1081 2264 
Q 1234 2150 1697 2047 
L 1894 2003 
Q 2506 1872 2764 1633 
Q 3022 1394 3022 966 
Q 3022 478 2636 193 
Q 2250 -91 1575 -91 
Q 1294 -91 989 -36 
Q 684 19 347 128 
L 347 722 
Q 666 556 975 473 
Q 1284 391 1588 391 
Q 1994 391 2212 530 
Q 2431 669 2431 922 
Q 2431 1156 2273 1281 
Q 2116 1406 1581 1522 
L 1381 1569 
Q 847 1681 609 1914 
Q 372 2147 372 2553 
Q 372 3047 722 3315 
Q 1072 3584 1716 3584 
Q 2034 3584 2315 3537 
Q 2597 3491 2834 3397 
z
" transform="scale(0.015625)"/>
       <path id="DejaVuSans-6d" d="M 3328 2828 
Q 3544 3216 3844 3400 
Q 4144 3584 4550 3584 
Q 5097 3584 5394 3201 
Q 5691 2819 5691 2113 
L 5691 0 
L 5113 0 
L 5113 2094 
Q 5113 2597 4934 2840 
Q 4756 3084 4391 3084 
Q 3944 3084 3684 2787 
Q 3425 2491 3425 1978 
L 3425 0 
L 2847 0 
L 2847 2094 
Q 2847 2600 2669 2842 
Q 2491 3084 2119 3084 
Q 1678 3084 1418 2786 
Q 1159 2488 1159 1978 
L 1159 0 
L 581 0 
L 581 3500 
L 1159 3500 
L 1159 2956 
Q 1356 3278 1631 3431 
Q 1906 3584 2284 3584 
Q 2666 3584 2933 3390 
Q 3200 3197 3328 2828 
z
" transform="scale(0.015625)"/>
       <path id="DejaVuSans-52" d="M 2841 2188 
Q 3044 2119 3236 1894 
Q 3428 1669 3622 1275 
L 4263 0 
L 3584 0 
L 2988 1197 
Q 2756 1666 2539 1819 
Q 2322 1972 1947 1972 
L 1259 1972 
L 1259 0 
L 628 0 
L 628 4666 
L 2053 4666 
Q 2853 4666 3247 4331 
Q 3641 3997 3641 3322 
Q 3641 2881 3436 2590 
Q 3231 2300 2841 2188 
z
M 1259 4147 
L 1259 2491 
L 2053 2491 
Q 2509 2491 2742 2702 
Q 2975 2913 2975 3322 
Q 2975 3731 2742 3939 
Q 2509 4147 2053 4147 
L 1259 4147 
z
" transform="scale(0.015625)"/>
       <path id="DejaVuSans-54" d="M -19 4666 
L 3928 4666 
L 3928 4134 
L 2272 4134 
L 2272 0 
L 1638 0 
L 1638 4134 
L -19 4134 
L -19 4666 
z
" transform="scale(0.015625)"/>
      </defs>
      <use xlink:href="#DejaVuSans-45"/>
      <use xlink:href="#DejaVuSans-73" transform="translate(63.183594 0)"/>
      <use xlink:href="#DejaVuSans-74" transform="translate(115.283203 0)"/>
      <use xlink:href="#DejaVuSans-69" transform="translate(154.492188 0)"/>
      <use xlink:href="#DejaVuSans-6d" transform="translate(182.275391 0)"/>
      <use xlink:href="#DejaVuSans-61" transform="translate(279.6875 0)"/>
      <use xlink:href="#DejaVuSans-74" transform="translate(340.966797 0)"/>
      <use xlink:href="#DejaVuSans-65" transform="translate(380.175781 0)"/>
      <use xlink:href="#DejaVuSans-64" transform="translate(441.699219 0)"/>
      <use xlink:href="#DejaVuSans-20" transform="translate(505.175781 0)"/>
      <use xlink:href="#DejaVuSans-52" transform="translate(536.962891 0)"/>
      <use xlink:href="#DejaVuSans-54" transform="translate(599.195312 0)"/>
      <use xlink:href="#DejaVuSans-36" transform="translate(660.279297 0)"/>
      <use xlink:href="#DejaVuSans-30" transform="translate(723.902344 0)"/>
     </g>
    </g>
   </g>
  </g>
 </g>
 <defs>
  <clipPath id="pd8eb223a41">
   <rect x="57.6" y="41.472" width="357.12" height="266.112"/>
  </clipPath>
 </defs>
</svg>
