<?xml version="1.0" encoding="utf-8" standalone="no"?>
<!DOCTYPE svg PUBLIC "-//W3C//DTD SVG 1.1//EN"
  "http://www.w3.org/Graphics/SVG/1.1/DTD/svg11.dtd">
<svg xmlns:xlink="http://www.w3.org/1999/xlink" width="460.8pt" height="345.6pt" viewBox="0 0 460.8 345.6" xmlns="http://www.w3.org/2000/svg" version="1.1">
 <metadata>
  <rdf:RDF xmlns:dc="http://purl.org/dc/elements/1.1/" xmlns:cc="http://creativecommons.org/ns#" xmlns:rdf="http://www.w3.org/1999/02/22-rdf-syntax-ns#">
   <cc:Work>
    <dc:type rdf:resource="http://purl.org/dc/dcmitype/StillImage"/>
    <dc:date>2025-05-07T10:48:05.922761</dc:date>
    <dc:format>image/svg+xml</dc:format>
    <dc:creator>
     <cc:Agent>
      <dc:title>Matplotlib v3.10.1, https://matplotlib.org/</dc:title>
     </cc:Agent>
    </dc:creator>
   </cc:Work>
  </rdf:RDF>
 </metadata>
 <defs>
  <style type="text/css">*{stroke-linejoin: round; stroke-linecap: butt}</style>
 </defs>
 <g id="figure_1">
  <g id="patch_1">
   <path d="M 0 345.6 
L 460.8 345.6 
L 460.8 0 
L 0 0 
z
" style="fill: #ffffff"/>
  </g>
  <g id="axes_1">
   <g id="patch_2">
    <path d="M 57.6 307.584 
L 414.72 307.584 
L 414.72 41.472 
L 57.6 41.472 
z
" style="fill: #ffffff"/>
   </g>
   <g id="matplotlib.axis_1">
    <g id="xtick_1">
     <g id="line2d_1">
      <defs>
       <path id="m94618e6476" d="M 0 0 
L 0 3.5 
" style="stroke: #000000; stroke-width: 0.8"/>
      </defs>
      <g>
       <use xlink:href="#m94618e6476" x="64.814545" y="307.584" style="stroke: #000000; stroke-width: 0.8"/>
      </g>
     </g>
     <g id="text_1">
      <!-- −0.2 -->
      <g transform="translate(52.673139 322.182437) scale(0.1 -0.1)">
       <defs>
        <path id="DejaVuSans-2212" d="M 678 2272 
L 4684 2272 
L 4684 1741 
L 678 1741 
L 678 2272 
z
" transform="scale(0.015625)"/>
        <path id="DejaVuSans-30" d="M 2034 4250 
Q 1547 4250 1301 3770 
Q 1056 3291 1056 2328 
Q 1056 1369 1301 889 
Q 1547 409 2034 409 
Q 2525 409 2770 889 
Q 3016 1369 3016 2328 
Q 3016 3291 2770 3770 
Q 2525 4250 2034 4250 
z
M 2034 4750 
Q 2819 4750 3233 4129 
Q 3647 3509 3647 2328 
Q 3647 1150 3233 529 
Q 2819 -91 2034 -91 
Q 1250 -91 836 529 
Q 422 1150 422 2328 
Q 422 3509 836 4129 
Q 1250 4750 2034 4750 
z
" transform="scale(0.015625)"/>
        <path id="DejaVuSans-2e" d="M 684 794 
L 1344 794 
L 1344 0 
L 684 0 
L 684 794 
z
" transform="scale(0.015625)"/>
        <path id="DejaVuSans-32" d="M 1228 531 
L 3431 531 
L 3431 0 
L 469 0 
L 469 531 
Q 828 903 1448 1529 
Q 2069 2156 2228 2338 
Q 2531 2678 2651 2914 
Q 2772 3150 2772 3378 
Q 2772 3750 2511 3984 
Q 2250 4219 1831 4219 
Q 1534 4219 1204 4116 
Q 875 4013 500 3803 
L 500 4441 
Q 881 4594 1212 4672 
Q 1544 4750 1819 4750 
Q 2544 4750 2975 4387 
Q 3406 4025 3406 3419 
Q 3406 3131 3298 2873 
Q 3191 2616 2906 2266 
Q 2828 2175 2409 1742 
Q 1991 1309 1228 531 
z
" transform="scale(0.015625)"/>
       </defs>
       <use xlink:href="#DejaVuSans-2212"/>
       <use xlink:href="#DejaVuSans-30" transform="translate(83.789062 0)"/>
       <use xlink:href="#DejaVuSans-2e" transform="translate(147.412109 0)"/>
       <use xlink:href="#DejaVuSans-32" transform="translate(179.199219 0)"/>
      </g>
     </g>
    </g>
    <g id="xtick_2">
     <g id="line2d_2">
      <g>
       <use xlink:href="#m94618e6476" x="136.96" y="307.584" style="stroke: #000000; stroke-width: 0.8"/>
      </g>
     </g>
     <g id="text_2">
      <!-- 0.0 -->
      <g transform="translate(129.008437 322.182437) scale(0.1 -0.1)">
       <use xlink:href="#DejaVuSans-30"/>
       <use xlink:href="#DejaVuSans-2e" transform="translate(63.623047 0)"/>
       <use xlink:href="#DejaVuSans-30" transform="translate(95.410156 0)"/>
      </g>
     </g>
    </g>
    <g id="xtick_3">
     <g id="line2d_3">
      <g>
       <use xlink:href="#m94618e6476" x="209.105455" y="307.584" style="stroke: #000000; stroke-width: 0.8"/>
      </g>
     </g>
     <g id="text_3">
      <!-- 0.2 -->
      <g transform="translate(201.153892 322.182437) scale(0.1 -0.1)">
       <use xlink:href="#DejaVuSans-30"/>
       <use xlink:href="#DejaVuSans-2e" transform="translate(63.623047 0)"/>
       <use xlink:href="#DejaVuSans-32" transform="translate(95.410156 0)"/>
      </g>
     </g>
    </g>
    <g id="xtick_4">
     <g id="line2d_4">
      <g>
       <use xlink:href="#m94618e6476" x="281.250909" y="307.584" style="stroke: #000000; stroke-width: 0.8"/>
      </g>
     </g>
     <g id="text_4">
      <!-- 0.4 -->
      <g transform="translate(273.299347 322.182437) scale(0.1 -0.1)">
       <defs>
        <path id="DejaVuSans-34" d="M 2419 4116 
L 825 1625 
L 2419 1625 
L 2419 4116 
z
M 2253 4666 
L 3047 4666 
L 3047 1625 
L 3713 1625 
L 3713 1100 
L 3047 1100 
L 3047 0 
L 2419 0 
L 2419 1100 
L 313 1100 
L 313 1709 
L 2253 4666 
z
" transform="scale(0.015625)"/>
       </defs>
       <use xlink:href="#DejaVuSans-30"/>
       <use xlink:href="#DejaVuSans-2e" transform="translate(63.623047 0)"/>
       <use xlink:href="#DejaVuSans-34" transform="translate(95.410156 0)"/>
      </g>
     </g>
    </g>
    <g id="xtick_5">
     <g id="line2d_5">
      <g>
       <use xlink:href="#m94618e6476" x="353.396364" y="307.584" style="stroke: #000000; stroke-width: 0.8"/>
      </g>
     </g>
     <g id="text_5">
      <!-- 0.6 -->
      <g transform="translate(345.444801 322.182437) scale(0.1 -0.1)">
       <defs>
        <path id="DejaVuSans-36" d="M 2113 2584 
Q 1688 2584 1439 2293 
Q 1191 2003 1191 1497 
Q 1191 994 1439 701 
Q 1688 409 2113 409 
Q 2538 409 2786 701 
Q 3034 994 3034 1497 
Q 3034 2003 2786 2293 
Q 2538 2584 2113 2584 
z
M 3366 4563 
L 3366 3988 
Q 3128 4100 2886 4159 
Q 2644 4219 2406 4219 
Q 1781 4219 1451 3797 
Q 1122 3375 1075 2522 
Q 1259 2794 1537 2939 
Q 1816 3084 2150 3084 
Q 2853 3084 3261 2657 
Q 3669 2231 3669 1497 
Q 3669 778 3244 343 
Q 2819 -91 2113 -91 
Q 1303 -91 875 529 
Q 447 1150 447 2328 
Q 447 3434 972 4092 
Q 1497 4750 2381 4750 
Q 2619 4750 2861 4703 
Q 3103 4656 3366 4563 
z
" transform="scale(0.015625)"/>
       </defs>
       <use xlink:href="#DejaVuSans-30"/>
       <use xlink:href="#DejaVuSans-2e" transform="translate(63.623047 0)"/>
       <use xlink:href="#DejaVuSans-36" transform="translate(95.410156 0)"/>
      </g>
     </g>
    </g>
   </g>
   <g id="matplotlib.axis_2">
    <g id="ytick_1">
     <g id="line2d_6">
      <defs>
       <path id="m1c41b337a5" d="M 0 0 
L -3.5 0 
" style="stroke: #000000; stroke-width: 0.8"/>
      </defs>
      <g>
       <use xlink:href="#m1c41b337a5" x="57.6" y="277.492659" style="stroke: #000000; stroke-width: 0.8"/>
      </g>
     </g>
     <g id="text_6">
      <!-- −175 -->
      <g transform="translate(23.132812 281.291878) scale(0.1 -0.1)">
       <defs>
        <path id="DejaVuSans-31" d="M 794 531 
L 1825 531 
L 1825 4091 
L 703 3866 
L 703 4441 
L 1819 4666 
L 2450 4666 
L 2450 531 
L 3481 531 
L 3481 0 
L 794 0 
L 794 531 
z
" transform="scale(0.015625)"/>
        <path id="DejaVuSans-37" d="M 525 4666 
L 3525 4666 
L 3525 4397 
L 1831 0 
L 1172 0 
L 2766 4134 
L 525 4134 
L 525 4666 
z
" transform="scale(0.015625)"/>
        <path id="DejaVuSans-35" d="M 691 4666 
L 3169 4666 
L 3169 4134 
L 1269 4134 
L 1269 2991 
Q 1406 3038 1543 3061 
Q 1681 3084 1819 3084 
Q 2600 3084 3056 2656 
Q 3513 2228 3513 1497 
Q 3513 744 3044 326 
Q 2575 -91 1722 -91 
Q 1428 -91 1123 -41 
Q 819 9 494 109 
L 494 744 
Q 775 591 1075 516 
Q 1375 441 1709 441 
Q 2250 441 2565 725 
Q 2881 1009 2881 1497 
Q 2881 1984 2565 2268 
Q 2250 2553 1709 2553 
Q 1456 2553 1204 2497 
Q 953 2441 691 2322 
L 691 4666 
z
" transform="scale(0.015625)"/>
       </defs>
       <use xlink:href="#DejaVuSans-2212"/>
       <use xlink:href="#DejaVuSans-31" transform="translate(83.789062 0)"/>
       <use xlink:href="#DejaVuSans-37" transform="translate(147.412109 0)"/>
       <use xlink:href="#DejaVuSans-35" transform="translate(211.035156 0)"/>
      </g>
     </g>
    </g>
    <g id="ytick_2">
     <g id="line2d_7">
      <g>
       <use xlink:href="#m1c41b337a5" x="57.6" y="245.503422" style="stroke: #000000; stroke-width: 0.8"/>
      </g>
     </g>
     <g id="text_7">
      <!-- −150 -->
      <g transform="translate(23.132812 249.302641) scale(0.1 -0.1)">
       <use xlink:href="#DejaVuSans-2212"/>
       <use xlink:href="#DejaVuSans-31" transform="translate(83.789062 0)"/>
       <use xlink:href="#DejaVuSans-35" transform="translate(147.412109 0)"/>
       <use xlink:href="#DejaVuSans-30" transform="translate(211.035156 0)"/>
      </g>
     </g>
    </g>
    <g id="ytick_3">
     <g id="line2d_8">
      <g>
       <use xlink:href="#m1c41b337a5" x="57.6" y="213.514185" style="stroke: #000000; stroke-width: 0.8"/>
      </g>
     </g>
     <g id="text_8">
      <!-- −125 -->
      <g transform="translate(23.132812 217.313404) scale(0.1 -0.1)">
       <use xlink:href="#DejaVuSans-2212"/>
       <use xlink:href="#DejaVuSans-31" transform="translate(83.789062 0)"/>
       <use xlink:href="#DejaVuSans-32" transform="translate(147.412109 0)"/>
       <use xlink:href="#DejaVuSans-35" transform="translate(211.035156 0)"/>
      </g>
     </g>
    </g>
    <g id="ytick_4">
     <g id="line2d_9">
      <g>
       <use xlink:href="#m1c41b337a5" x="57.6" y="181.524948" style="stroke: #000000; stroke-width: 0.8"/>
      </g>
     </g>
     <g id="text_9">
      <!-- −100 -->
      <g transform="translate(23.132812 185.324167) scale(0.1 -0.1)">
       <use xlink:href="#DejaVuSans-2212"/>
       <use xlink:href="#DejaVuSans-31" transform="translate(83.789062 0)"/>
       <use xlink:href="#DejaVuSans-30" transform="translate(147.412109 0)"/>
       <use xlink:href="#DejaVuSans-30" transform="translate(211.035156 0)"/>
      </g>
     </g>
    </g>
    <g id="ytick_5">
     <g id="line2d_10">
      <g>
       <use xlink:href="#m1c41b337a5" x="57.6" y="149.535711" style="stroke: #000000; stroke-width: 0.8"/>
      </g>
     </g>
     <g id="text_10">
      <!-- −75 -->
      <g transform="translate(29.495313 153.33493) scale(0.1 -0.1)">
       <use xlink:href="#DejaVuSans-2212"/>
       <use xlink:href="#DejaVuSans-37" transform="translate(83.789062 0)"/>
       <use xlink:href="#DejaVuSans-35" transform="translate(147.412109 0)"/>
      </g>
     </g>
    </g>
    <g id="ytick_6">
     <g id="line2d_11">
      <g>
       <use xlink:href="#m1c41b337a5" x="57.6" y="117.546474" style="stroke: #000000; stroke-width: 0.8"/>
      </g>
     </g>
     <g id="text_11">
      <!-- −50 -->
      <g transform="translate(29.495313 121.345693) scale(0.1 -0.1)">
       <use xlink:href="#DejaVuSans-2212"/>
       <use xlink:href="#DejaVuSans-35" transform="translate(83.789062 0)"/>
       <use xlink:href="#DejaVuSans-30" transform="translate(147.412109 0)"/>
      </g>
     </g>
    </g>
    <g id="ytick_7">
     <g id="line2d_12">
      <g>
       <use xlink:href="#m1c41b337a5" x="57.6" y="85.557237" style="stroke: #000000; stroke-width: 0.8"/>
      </g>
     </g>
     <g id="text_12">
      <!-- −25 -->
      <g transform="translate(29.495313 89.356456) scale(0.1 -0.1)">
       <use xlink:href="#DejaVuSans-2212"/>
       <use xlink:href="#DejaVuSans-32" transform="translate(83.789062 0)"/>
       <use xlink:href="#DejaVuSans-35" transform="translate(147.412109 0)"/>
      </g>
     </g>
    </g>
    <g id="ytick_8">
     <g id="line2d_13">
      <g>
       <use xlink:href="#m1c41b337a5" x="57.6" y="53.568" style="stroke: #000000; stroke-width: 0.8"/>
      </g>
     </g>
     <g id="text_13">
      <!-- 0 -->
      <g transform="translate(44.2375 57.367219) scale(0.1 -0.1)">
       <use xlink:href="#DejaVuSans-30"/>
      </g>
     </g>
    </g>
   </g>
   <g id="line2d_14">
    <path d="M 73.832727 53.568 
L 132.360727 53.614134 
L 132.51103 54.810431 
L 132.601212 55.061957 
L 132.736485 55.773909 
L 133.578182 55.966719 
L 133.72097 56.095706 
L 134.006545 56.201282 
L 134.239515 57.476734 
L 134.434909 57.80977 
L 134.615273 57.992153 
L 134.765576 58.09327 
L 134.938424 58.280871 
L 135.103758 58.402647 
L 135.336727 58.527669 
L 135.464485 58.709089 
L 135.599758 58.976335 
L 136.095758 59.258777 
L 136.298667 59.523352 
L 136.403879 59.648817 
L 136.531636 59.769052 
L 136.982545 60.000096 
L 137.140364 60.227486 
L 137.681455 60.536086 
L 137.824242 60.775056 
L 137.944485 60.88402 
L 139.101818 61.595633 
L 139.244606 61.917524 
L 139.42497 62.206287 
L 139.815758 62.65373 
L 139.958545 62.757009 
L 140.822788 63.377099 
L 141.093333 64.101866 
L 141.273697 64.273371 
L 141.596848 64.712542 
L 141.717091 64.828863 
L 141.889939 65.04577 
L 142.280727 65.25242 
L 142.43103 65.385565 
L 142.588848 65.499263 
L 142.739152 65.608886 
L 142.836848 65.71525 
L 143.009697 65.959522 
L 143.656 66.272819 
L 143.798788 66.421326 
L 143.979152 66.55265 
L 144.723152 67.53302 
L 144.986182 67.690978 
L 145.181576 67.876252 
L 145.346909 67.983104 
L 145.594909 68.209095 
L 146.677091 68.898771 
L 146.842424 68.992054 
L 147.045333 69.093121 
L 147.210667 69.204682 
L 147.330909 69.3125 
L 147.488727 69.463619 
L 147.954667 69.687041 
L 148.187636 70.03502 
L 148.420606 70.178857 
L 148.766303 70.317076 
L 148.871515 70.49415 
L 149.006788 70.700875 
L 149.12703 70.809884 
L 149.750788 71.086433 
L 149.87103 71.195896 
L 150.111515 71.299438 
L 150.321939 71.393099 
L 150.487273 71.545362 
L 150.637576 71.667062 
L 150.945697 71.860503 
L 151.096 71.963375 
L 151.389091 72.270818 
L 151.471758 72.371728 
L 151.644606 72.520885 
L 152.681697 73.641937 
L 152.907152 73.768068 
L 153.06497 74.033989 
L 153.215273 74.244532 
L 153.688727 74.671231 
L 153.846545 74.769442 
L 154.004364 75.005002 
L 154.365091 75.238862 
L 154.80097 75.719768 
L 155.071515 75.834942 
L 155.229333 75.961874 
L 155.672727 76.312479 
L 155.853091 76.445069 
L 156.04097 76.673374 
L 156.394182 76.856338 
L 156.8 77.095196 
L 156.935273 77.2365 
L 157.258424 77.348907 
L 157.423758 77.477012 
L 158.227879 78.597821 
L 158.558545 78.717916 
L 158.746424 79.044969 
L 159.287515 79.557509 
L 159.422788 79.72703 
L 159.948848 80.129037 
L 160.159273 80.251953 
L 160.512485 80.662567 
L 160.640242 80.768246 
L 161.00097 81.364227 
L 161.271515 81.517976 
L 161.624727 81.735614 
L 161.865212 81.859275 
L 163.360727 82.880418 
L 163.623758 83.17344 
L 164.082182 83.318842 
L 164.127273 83.437016 
L 164.300121 83.677377 
L 164.608242 83.939764 
L 164.75103 84.072594 
L 164.931394 84.196935 
L 165.074182 84.372425 
L 165.299636 84.517131 
L 165.457455 84.713079 
L 165.510061 84.797519 
L 165.652848 84.955592 
L 167.877333 86.763289 
L 168.020121 86.901312 
L 168.463515 87.397507 
L 168.621333 87.586208 
L 168.839273 87.743784 
L 169.049697 88.124278 
L 169.154909 88.254809 
L 169.282667 88.351728 
L 169.515636 88.483236 
L 169.598303 88.625484 
L 169.816242 88.747411 
L 170.019152 88.865445 
L 170.169455 88.950931 
L 170.289697 89.098723 
L 170.492606 89.361223 
L 170.966061 89.842732 
L 171.206545 90.050958 
L 171.349333 90.269203 
L 172.333818 90.989969 
L 172.469091 91.070653 
L 172.641939 91.168482 
L 172.814788 91.278122 
L 173.062788 91.515697 
L 173.15297 91.602346 
L 173.295758 91.714037 
L 173.468606 91.84195 
L 173.603879 91.933646 
L 173.874424 92.171217 
L 174.678545 92.470827 
L 175.054303 92.732035 
L 175.445091 92.852437 
L 175.640485 92.930724 
L 175.723152 93.045521 
L 177.684606 94.701043 
L 177.857455 94.863954 
L 177.992727 95.000513 
L 178.345939 95.271761 
L 178.443636 95.370562 
L 178.616485 95.549773 
L 178.849455 95.667396 
L 179.270303 95.949744 
L 179.555879 96.047664 
L 179.706182 96.138737 
L 179.886545 96.265761 
L 180.021818 96.386298 
L 180.322424 96.910143 
L 180.472727 97.313045 
L 181.472242 98.102213 
L 181.607515 98.196567 
L 181.975758 98.376709 
L 182.464242 98.966163 
L 182.584485 99.097634 
L 182.727273 99.188754 
L 182.915152 99.24138 
L 183.290909 99.405339 
L 183.584 99.597846 
L 183.719273 99.761415 
L 183.854545 99.819037 
L 184.09503 99.930483 
L 184.335515 100.059095 
L 184.478303 100.174248 
L 184.846545 100.513744 
L 185.214788 100.635188 
L 185.688242 101.162872 
L 185.868606 101.278185 
L 186.04897 101.384638 
L 186.214303 101.507698 
L 186.402182 101.642333 
L 186.597576 101.747876 
L 186.853091 101.807647 
L 187.025939 101.931659 
L 187.213818 102.264348 
L 187.491879 102.376173 
L 187.942788 102.565414 
L 188.401212 102.69008 
L 188.626667 102.755466 
L 188.77697 102.871715 
L 188.987394 102.97185 
L 189.160242 103.081092 
L 189.295515 103.156988 
L 189.453333 103.217938 
L 189.874182 103.411381 
L 190.340121 103.661364 
L 190.497939 103.813684 
L 190.873697 104.012937 
L 191.114182 104.14884 
L 191.272 104.260599 
L 191.474909 104.429746 
L 191.610182 104.50395 
L 191.730424 104.607648 
L 191.918303 104.678491 
L 193.02303 105.055391 
L 193.383758 105.143205 
L 193.631758 105.252492 
L 193.782061 105.387185 
L 194.097697 105.513378 
L 194.293091 105.579613 
L 194.503515 105.702989 
L 195.149818 106.01683 
L 195.773576 106.278048 
L 196.081697 106.383719 
L 196.21697 106.457826 
L 196.915879 106.659328 
L 197.103758 106.700184 
L 197.960485 106.937908 
L 198.298667 107.045117 
L 198.47903 107.162859 
L 199.005091 107.424799 
L 199.523636 107.574992 
L 199.726545 107.617516 
L 200.222545 107.748077 
L 201.507636 108.03418 
L 201.740606 108.097351 
L 202.394424 108.244107 
L 202.597333 108.344077 
L 203.296242 108.450082 
L 203.491636 108.554517 
L 203.792242 108.637823 
L 204.588848 108.808182 
L 205.453091 108.965047 
L 207.452121 109.251807 
L 208.316364 109.394974 
L 208.64703 109.47412 
L 209.586424 109.582466 
L 209.962182 109.651484 
L 212.374545 109.905041 
L 212.727758 109.960644 
L 228.968 110.817667 
L 231.853818 110.956721 
L 280.078545 113.259154 
L 280.304 113.28532 
L 283.249939 113.441369 
L 284.031515 113.486072 
L 286.165818 113.597388 
L 286.73697 113.646517 
L 293.207515 114.096032 
L 295.191515 114.218 
L 295.702545 114.246121 
L 297.506182 114.369779 
L 302.150545 114.696395 
L 303.037333 114.76108 
L 304.795879 114.889749 
L 312.205818 115.441321 
L 313.919273 115.560646 
L 324.154909 116.591435 
L 324.342788 116.638572 
L 324.921455 116.712024 
L 325.981091 116.83317 
L 326.822788 116.943119 
L 327.950061 117.088015 
L 329.099879 117.221853 
L 329.408 117.256748 
L 330.820848 117.416625 
L 335.600485 117.980887 
L 335.983758 118.034253 
L 337.742303 118.31616 
L 338.012848 118.355761 
L 338.689212 118.458196 
L 340.109576 118.621597 
L 340.785939 118.73353 
L 340.943758 118.759221 
L 342.664727 119.062726 
L 342.875152 119.107044 
L 343.416242 119.217828 
L 344.05503 119.288814 
L 344.911758 119.400094 
L 345.325091 119.490638 
L 346.317091 119.652241 
L 347.106182 119.873457 
L 347.549576 119.976052 
L 348.331152 120.079743 
L 348.586667 120.19943 
L 348.932364 120.290942 
L 349.563636 120.405963 
L 353.614303 121.351769 
L 353.847273 121.381264 
L 354.230545 121.492285 
L 354.44097 121.589787 
L 354.824242 121.700684 
L 356.154424 121.94508 
L 356.312242 121.983448 
L 357.251636 122.226214 
L 357.69503 122.409513 
L 358.108364 122.505225 
L 358.243636 122.59536 
L 358.65697 122.712615 
L 358.867394 122.805004 
L 359.43103 122.913613 
L 359.67903 122.999581 
L 360.227636 123.182329 
L 360.400485 123.229002 
L 361.106909 123.507301 
L 361.317333 123.614808 
L 361.625455 123.724188 
L 362.662545 124.158759 
L 362.797818 124.273808 
L 363.286303 124.435424 
L 363.459152 124.486289 
L 363.804848 124.598271 
L 363.932606 124.647599 
L 364.451152 124.854626 
L 364.601455 124.919564 
L 365.127515 125.144304 
L 365.262788 125.247599 
L 365.969212 125.549668 
L 366.112 125.693703 
L 366.547879 125.844659 
L 366.795879 126.003701 
L 367.013818 126.156348 
L 367.149091 126.21818 
L 367.870545 126.575585 
L 368.013333 126.708554 
L 369.343515 127.618546 
L 369.516364 127.768386 
L 369.651636 127.888637 
L 369.786909 127.966724 
L 370.267879 128.188282 
L 371.124606 128.944386 
L 371.823515 129.440137 
L 372.266909 129.73897 
L 372.402182 129.884275 
L 372.590061 130.033313 
L 373.078545 130.404268 
L 373.213818 130.481565 
L 373.349091 130.666055 
L 373.875152 130.87236 
L 373.920242 131.100351 
L 374.048 131.245826 
L 374.243394 131.352559 
L 374.596606 131.608365 
L 374.709333 131.705921 
L 374.904727 131.951938 
L 375.182788 132.264065 
L 375.408242 132.511218 
L 375.641212 132.785807 
L 375.731394 132.898224 
L 375.889212 133.294016 
L 375.964364 133.401863 
L 376.219879 133.64381 
L 376.400242 133.860757 
L 376.648242 134.11027 
L 376.783515 134.22918 
L 377.046545 134.381971 
L 377.234424 134.517112 
L 377.632727 134.913589 
L 378.835152 136.239984 
L 379.143273 136.548196 
L 379.331152 136.83804 
L 380.112727 137.66747 
L 380.323152 137.979106 
L 380.435879 138.155141 
L 380.571152 138.359016 
L 380.698909 138.469919 
L 380.931879 138.659733 
L 381.277576 139.091881 
L 381.420364 139.423515 
L 381.638303 139.601357 
L 381.72097 140.028987 
L 381.841212 140.243802 
L 382.412364 140.916375 
L 382.540121 141.039059 
L 382.690424 141.165103 
L 382.848242 141.460124 
L 382.968485 141.764099 
L 383.276606 142.409284 
L 383.411879 142.52023 
L 383.449455 142.57587 
L 383.577212 142.7597 
L 383.750061 143.363048 
L 383.877818 143.852471 
L 383.930424 143.940524 
L 384.125818 144.330668 
L 384.306182 144.621437 
L 384.456485 145.016892 
L 384.546667 145.287657 
L 384.704485 145.464444 
L 384.839758 145.573068 
L 385.020121 146.061788 
L 385.19297 146.526488 
L 385.44097 147.288746 
L 385.463515 147.397026 
L 385.591273 147.762788 
L 385.726545 147.868528 
L 387.086788 150.111029 
L 387.304727 150.313768 
L 388.153939 152.180771 
L 388.326788 152.903083 
L 388.499636 153.013663 
L 388.597333 153.088611 
L 388.845333 154.261401 
L 389.003152 154.599915 
L 389.19103 155.260996 
L 389.641939 156.485322 
L 389.672 156.55158 
L 389.874909 157.409173 
L 389.987636 157.496848 
L 390.137939 158.024471 
L 390.198061 158.130194 
L 390.43103 159.081056 
L 390.626424 160.226812 
L 390.694061 160.482648 
L 390.866909 160.828061 
L 390.889455 160.868951 
L 391.017212 161.189914 
L 391.528242 163.871407 
L 391.881455 165.314981 
L 392.031758 166.028629 
L 392.084364 166.131373 
L 392.760727 168.782185 
L 392.790788 168.926707 
L 393.008727 170.050162 
L 393.534788 172.268351 
L 393.564848 172.304479 
L 393.767758 173.574163 
L 393.790303 173.683398 
L 393.842909 174.121084 
L 393.970667 175.551271 
L 394.023273 175.639461 
L 394.451636 178.130735 
L 394.504242 178.286377 
L 394.64703 179.339819 
L 394.669576 179.468583 
L 394.827394 180.206519 
L 394.970182 180.70074 
L 395.323394 183.812686 
L 395.39103 183.910313 
L 395.63903 186.080732 
L 395.781818 188.499167 
L 395.819394 188.614155 
L 396.262788 193.987951 
L 396.360485 194.204719 
L 397.397576 212.386733 
L 397.570424 219.853679 
L 397.773333 227.206758 
L 397.991273 233.358429 
L 398.134061 243.281407 
L 398.374545 269.328747 
L 398.397091 274.463674 
L 398.479758 295.488 
L 398.479758 295.488 
" clip-path="url(#p882e35e265)" style="fill: none; stroke: #1f77b4; stroke-width: 1.5; stroke-linecap: square"/>
   </g>
   <g id="line2d_15">
    <path d="M 136.96 59.966643 
L 379.195879 136.740016 
" clip-path="url(#p882e35e265)" style="fill: none; stroke-dasharray: 5.55,2.4; stroke-dashoffset: 0; stroke: #ff7f0e; stroke-width: 1.5"/>
   </g>
   <g id="line2d_16">
    <path d="M 73.832727 130.342169 
L 398.487273 130.342169 
L 398.487273 130.342169 
" clip-path="url(#p882e35e265)" style="fill: none; stroke-dasharray: 5.55,2.4; stroke-dashoffset: 0; stroke: #2ca02c; stroke-width: 1.5"/>
   </g>
   <g id="LineCollection_1">
    <path d="M 379.195879 295.488 
L 379.195879 53.568 
" clip-path="url(#p882e35e265)" style="fill: none; stroke-dasharray: 5.55,2.4; stroke-dashoffset: 0; stroke: #1f77b4; stroke-width: 1.5"/>
   </g>
   <g id="patch_3">
    <path d="M 57.6 307.584 
L 57.6 41.472 
" style="fill: none; stroke: #000000; stroke-width: 0.8; stroke-linejoin: miter; stroke-linecap: square"/>
   </g>
   <g id="patch_4">
    <path d="M 414.72 307.584 
L 414.72 41.472 
" style="fill: none; stroke: #000000; stroke-width: 0.8; stroke-linejoin: miter; stroke-linecap: square"/>
   </g>
   <g id="patch_5">
    <path d="M 57.6 307.584 
L 414.72 307.584 
" style="fill: none; stroke: #000000; stroke-width: 0.8; stroke-linejoin: miter; stroke-linecap: square"/>
   </g>
   <g id="patch_6">
    <path d="M 57.6 41.472 
L 414.72 41.472 
" style="fill: none; stroke: #000000; stroke-width: 0.8; stroke-linejoin: miter; stroke-linecap: square"/>
   </g>
   <g id="text_14">
    <!-- Energy Decay - 12000 Hz -->
    <g transform="translate(159.7725 35.472) scale(0.12 -0.12)">
     <defs>
      <path id="DejaVuSans-45" d="M 628 4666 
L 3578 4666 
L 3578 4134 
L 1259 4134 
L 1259 2753 
L 3481 2753 
L 3481 2222 
L 1259 2222 
L 1259 531 
L 3634 531 
L 3634 0 
L 628 0 
L 628 4666 
z
" transform="scale(0.015625)"/>
      <path id="DejaVuSans-6e" d="M 3513 2113 
L 3513 0 
L 2938 0 
L 2938 2094 
Q 2938 2591 2744 2837 
Q 2550 3084 2163 3084 
Q 1697 3084 1428 2787 
Q 1159 2491 1159 1978 
L 1159 0 
L 581 0 
L 581 3500 
L 1159 3500 
L 1159 2956 
Q 1366 3272 1645 3428 
Q 1925 3584 2291 3584 
Q 2894 3584 3203 3211 
Q 3513 2838 3513 2113 
z
" transform="scale(0.015625)"/>
      <path id="DejaVuSans-65" d="M 3597 1894 
L 3597 1613 
L 953 1613 
Q 991 1019 1311 708 
Q 1631 397 2203 397 
Q 2534 397 2845 478 
Q 3156 559 3463 722 
L 3463 178 
Q 3153 47 2828 -22 
Q 2503 -91 2169 -91 
Q 1331 -91 842 396 
Q 353 884 353 1716 
Q 353 2575 817 3079 
Q 1281 3584 2069 3584 
Q 2775 3584 3186 3129 
Q 3597 2675 3597 1894 
z
M 3022 2063 
Q 3016 2534 2758 2815 
Q 2500 3097 2075 3097 
Q 1594 3097 1305 2825 
Q 1016 2553 972 2059 
L 3022 2063 
z
" transform="scale(0.015625)"/>
      <path id="DejaVuSans-72" d="M 2631 2963 
Q 2534 3019 2420 3045 
Q 2306 3072 2169 3072 
Q 1681 3072 1420 2755 
Q 1159 2438 1159 1844 
L 1159 0 
L 581 0 
L 581 3500 
L 1159 3500 
L 1159 2956 
Q 1341 3275 1631 3429 
Q 1922 3584 2338 3584 
Q 2397 3584 2469 3576 
Q 2541 3569 2628 3553 
L 2631 2963 
z
" transform="scale(0.015625)"/>
      <path id="DejaVuSans-67" d="M 2906 1791 
Q 2906 2416 2648 2759 
Q 2391 3103 1925 3103 
Q 1463 3103 1205 2759 
Q 947 2416 947 1791 
Q 947 1169 1205 825 
Q 1463 481 1925 481 
Q 2391 481 2648 825 
Q 2906 1169 2906 1791 
z
M 3481 434 
Q 3481 -459 3084 -895 
Q 2688 -1331 1869 -1331 
Q 1566 -1331 1297 -1286 
Q 1028 -1241 775 -1147 
L 775 -588 
Q 1028 -725 1275 -790 
Q 1522 -856 1778 -856 
Q 2344 -856 2625 -561 
Q 2906 -266 2906 331 
L 2906 616 
Q 2728 306 2450 153 
Q 2172 0 1784 0 
Q 1141 0 747 490 
Q 353 981 353 1791 
Q 353 2603 747 3093 
Q 1141 3584 1784 3584 
Q 2172 3584 2450 3431 
Q 2728 3278 2906 2969 
L 2906 3500 
L 3481 3500 
L 3481 434 
z
" transform="scale(0.015625)"/>
      <path id="DejaVuSans-79" d="M 2059 -325 
Q 1816 -950 1584 -1140 
Q 1353 -1331 966 -1331 
L 506 -1331 
L 506 -850 
L 844 -850 
Q 1081 -850 1212 -737 
Q 1344 -625 1503 -206 
L 1606 56 
L 191 3500 
L 800 3500 
L 1894 763 
L 2988 3500 
L 3597 3500 
L 2059 -325 
z
" transform="scale(0.015625)"/>
      <path id="DejaVuSans-20" transform="scale(0.015625)"/>
      <path id="DejaVuSans-44" d="M 1259 4147 
L 1259 519 
L 2022 519 
Q 2988 519 3436 956 
Q 3884 1394 3884 2338 
Q 3884 3275 3436 3711 
Q 2988 4147 2022 4147 
L 1259 4147 
z
M 628 4666 
L 1925 4666 
Q 3281 4666 3915 4102 
Q 4550 3538 4550 2338 
Q 4550 1131 3912 565 
Q 3275 0 1925 0 
L 628 0 
L 628 4666 
z
" transform="scale(0.015625)"/>
      <path id="DejaVuSans-63" d="M 3122 3366 
L 3122 2828 
Q 2878 2963 2633 3030 
Q 2388 3097 2138 3097 
Q 1578 3097 1268 2742 
Q 959 2388 959 1747 
Q 959 1106 1268 751 
Q 1578 397 2138 397 
Q 2388 397 2633 464 
Q 2878 531 3122 666 
L 3122 134 
Q 2881 22 2623 -34 
Q 2366 -91 2075 -91 
Q 1284 -91 818 406 
Q 353 903 353 1747 
Q 353 2603 823 3093 
Q 1294 3584 2113 3584 
Q 2378 3584 2631 3529 
Q 2884 3475 3122 3366 
z
" transform="scale(0.015625)"/>
      <path id="DejaVuSans-61" d="M 2194 1759 
Q 1497 1759 1228 1600 
Q 959 1441 959 1056 
Q 959 750 1161 570 
Q 1363 391 1709 391 
Q 2188 391 2477 730 
Q 2766 1069 2766 1631 
L 2766 1759 
L 2194 1759 
z
M 3341 1997 
L 3341 0 
L 2766 0 
L 2766 531 
Q 2569 213 2275 61 
Q 1981 -91 1556 -91 
Q 1019 -91 701 211 
Q 384 513 384 1019 
Q 384 1609 779 1909 
Q 1175 2209 1959 2209 
L 2766 2209 
L 2766 2266 
Q 2766 2663 2505 2880 
Q 2244 3097 1772 3097 
Q 1472 3097 1187 3025 
Q 903 2953 641 2809 
L 641 3341 
Q 956 3463 1253 3523 
Q 1550 3584 1831 3584 
Q 2591 3584 2966 3190 
Q 3341 2797 3341 1997 
z
" transform="scale(0.015625)"/>
      <path id="DejaVuSans-2d" d="M 313 2009 
L 1997 2009 
L 1997 1497 
L 313 1497 
L 313 2009 
z
" transform="scale(0.015625)"/>
      <path id="DejaVuSans-48" d="M 628 4666 
L 1259 4666 
L 1259 2753 
L 3553 2753 
L 3553 4666 
L 4184 4666 
L 4184 0 
L 3553 0 
L 3553 2222 
L 1259 2222 
L 1259 0 
L 628 0 
L 628 4666 
z
" transform="scale(0.015625)"/>
      <path id="DejaVuSans-7a" d="M 353 3500 
L 3084 3500 
L 3084 2975 
L 922 459 
L 3084 459 
L 3084 0 
L 275 0 
L 275 525 
L 2438 3041 
L 353 3041 
L 353 3500 
z
" transform="scale(0.015625)"/>
     </defs>
     <use xlink:href="#DejaVuSans-45"/>
     <use xlink:href="#DejaVuSans-6e" transform="translate(63.183594 0)"/>
     <use xlink:href="#DejaVuSans-65" transform="translate(126.5625 0)"/>
     <use xlink:href="#DejaVuSans-72" transform="translate(188.085938 0)"/>
     <use xlink:href="#DejaVuSans-67" transform="translate(227.449219 0)"/>
     <use xlink:href="#DejaVuSans-79" transform="translate(290.925781 0)"/>
     <use xlink:href="#DejaVuSans-20" transform="translate(350.105469 0)"/>
     <use xlink:href="#DejaVuSans-44" transform="translate(381.892578 0)"/>
     <use xlink:href="#DejaVuSans-65" transform="translate(458.894531 0)"/>
     <use xlink:href="#DejaVuSans-63" transform="translate(520.417969 0)"/>
     <use xlink:href="#DejaVuSans-61" transform="translate(575.398438 0)"/>
     <use xlink:href="#DejaVuSans-79" transform="translate(636.677734 0)"/>
     <use xlink:href="#DejaVuSans-20" transform="translate(695.857422 0)"/>
     <use xlink:href="#DejaVuSans-2d" transform="translate(727.644531 0)"/>
     <use xlink:href="#DejaVuSans-20" transform="translate(763.728516 0)"/>
     <use xlink:href="#DejaVuSans-31" transform="translate(795.515625 0)"/>
     <use xlink:href="#DejaVuSans-32" transform="translate(859.138672 0)"/>
     <use xlink:href="#DejaVuSans-30" transform="translate(922.761719 0)"/>
     <use xlink:href="#DejaVuSans-30" transform="translate(986.384766 0)"/>
     <use xlink:href="#DejaVuSans-30" transform="translate(1050.007812 0)"/>
     <use xlink:href="#DejaVuSans-20" transform="translate(1113.630859 0)"/>
     <use xlink:href="#DejaVuSans-48" transform="translate(1145.417969 0)"/>
     <use xlink:href="#DejaVuSans-7a" transform="translate(1220.613281 0)"/>
    </g>
   </g>
   <g id="legend_1">
    <g id="patch_7">
     <path d="M 296.968437 108.1845 
L 407.72 108.1845 
Q 409.72 108.1845 409.72 106.1845 
L 409.72 48.472 
Q 409.72 46.472 407.72 46.472 
L 296.968437 46.472 
Q 294.968437 46.472 294.968437 48.472 
L 294.968437 106.1845 
Q 294.968437 108.1845 296.968437 108.1845 
z
" style="fill: #ffffff; opacity: 0.8; stroke: #cccccc; stroke-linejoin: miter"/>
    </g>
    <g id="line2d_17">
     <path d="M 298.968437 54.570438 
L 308.968437 54.570438 
L 318.968437 54.570438 
" style="fill: none; stroke: #1f77b4; stroke-width: 1.5; stroke-linecap: square"/>
    </g>
    <g id="text_15">
     <!-- Energy -->
     <g transform="translate(326.968437 58.070438) scale(0.1 -0.1)">
      <use xlink:href="#DejaVuSans-45"/>
      <use xlink:href="#DejaVuSans-6e" transform="translate(63.183594 0)"/>
      <use xlink:href="#DejaVuSans-65" transform="translate(126.5625 0)"/>
      <use xlink:href="#DejaVuSans-72" transform="translate(188.085938 0)"/>
      <use xlink:href="#DejaVuSans-67" transform="translate(227.449219 0)"/>
      <use xlink:href="#DejaVuSans-79" transform="translate(290.925781 0)"/>
     </g>
    </g>
    <g id="line2d_18">
     <path d="M 298.968437 69.248563 
L 308.968437 69.248563 
L 318.968437 69.248563 
" style="fill: none; stroke-dasharray: 5.55,2.4; stroke-dashoffset: 0; stroke: #ff7f0e; stroke-width: 1.5"/>
    </g>
    <g id="text_16">
     <!-- Linear Fit -->
     <g transform="translate(326.968437 72.748563) scale(0.1 -0.1)">
      <defs>
       <path id="DejaVuSans-4c" d="M 628 4666 
L 1259 4666 
L 1259 531 
L 3531 531 
L 3531 0 
L 628 0 
L 628 4666 
z
" transform="scale(0.015625)"/>
       <path id="DejaVuSans-69" d="M 603 3500 
L 1178 3500 
L 1178 0 
L 603 0 
L 603 3500 
z
M 603 4863 
L 1178 4863 
L 1178 4134 
L 603 4134 
L 603 4863 
z
" transform="scale(0.015625)"/>
       <path id="DejaVuSans-46" d="M 628 4666 
L 3309 4666 
L 3309 4134 
L 1259 4134 
L 1259 2759 
L 3109 2759 
L 3109 2228 
L 1259 2228 
L 1259 0 
L 628 0 
L 628 4666 
z
" transform="scale(0.015625)"/>
       <path id="DejaVuSans-74" d="M 1172 4494 
L 1172 3500 
L 2356 3500 
L 2356 3053 
L 1172 3053 
L 1172 1153 
Q 1172 725 1289 603 
Q 1406 481 1766 481 
L 2356 481 
L 2356 0 
L 1766 0 
Q 1100 0 847 248 
Q 594 497 594 1153 
L 594 3053 
L 172 3053 
L 172 3500 
L 594 3500 
L 594 4494 
L 1172 4494 
z
" transform="scale(0.015625)"/>
      </defs>
      <use xlink:href="#DejaVuSans-4c"/>
      <use xlink:href="#DejaVuSans-69" transform="translate(55.712891 0)"/>
      <use xlink:href="#DejaVuSans-6e" transform="translate(83.496094 0)"/>
      <use xlink:href="#DejaVuSans-65" transform="translate(146.875 0)"/>
      <use xlink:href="#DejaVuSans-61" transform="translate(208.398438 0)"/>
      <use xlink:href="#DejaVuSans-72" transform="translate(269.677734 0)"/>
      <use xlink:href="#DejaVuSans-20" transform="translate(310.791016 0)"/>
      <use xlink:href="#DejaVuSans-46" transform="translate(342.578125 0)"/>
      <use xlink:href="#DejaVuSans-69" transform="translate(392.847656 0)"/>
      <use xlink:href="#DejaVuSans-74" transform="translate(420.630859 0)"/>
     </g>
    </g>
    <g id="line2d_19">
     <path d="M 298.968437 83.926688 
L 308.968437 83.926688 
L 318.968437 83.926688 
" style="fill: none; stroke-dasharray: 5.55,2.4; stroke-dashoffset: 0; stroke: #2ca02c; stroke-width: 1.5"/>
    </g>
    <g id="text_17">
     <!-- -60 dB -->
     <g transform="translate(326.968437 87.426688) scale(0.1 -0.1)">
      <defs>
       <path id="DejaVuSans-64" d="M 2906 2969 
L 2906 4863 
L 3481 4863 
L 3481 0 
L 2906 0 
L 2906 525 
Q 2725 213 2448 61 
Q 2172 -91 1784 -91 
Q 1150 -91 751 415 
Q 353 922 353 1747 
Q 353 2572 751 3078 
Q 1150 3584 1784 3584 
Q 2172 3584 2448 3432 
Q 2725 3281 2906 2969 
z
M 947 1747 
Q 947 1113 1208 752 
Q 1469 391 1925 391 
Q 2381 391 2643 752 
Q 2906 1113 2906 1747 
Q 2906 2381 2643 2742 
Q 2381 3103 1925 3103 
Q 1469 3103 1208 2742 
Q 947 2381 947 1747 
z
" transform="scale(0.015625)"/>
       <path id="DejaVuSans-42" d="M 1259 2228 
L 1259 519 
L 2272 519 
Q 2781 519 3026 730 
Q 3272 941 3272 1375 
Q 3272 1813 3026 2020 
Q 2781 2228 2272 2228 
L 1259 2228 
z
M 1259 4147 
L 1259 2741 
L 2194 2741 
Q 2656 2741 2882 2914 
Q 3109 3088 3109 3444 
Q 3109 3797 2882 3972 
Q 2656 4147 2194 4147 
L 1259 4147 
z
M 628 4666 
L 2241 4666 
Q 2963 4666 3353 4366 
Q 3744 4066 3744 3513 
Q 3744 3084 3544 2831 
Q 3344 2578 2956 2516 
Q 3422 2416 3680 2098 
Q 3938 1781 3938 1306 
Q 3938 681 3513 340 
Q 3088 0 2303 0 
L 628 0 
L 628 4666 
z
" transform="scale(0.015625)"/>
      </defs>
      <use xlink:href="#DejaVuSans-2d"/>
      <use xlink:href="#DejaVuSans-36" transform="translate(36.083984 0)"/>
      <use xlink:href="#DejaVuSans-30" transform="translate(99.707031 0)"/>
      <use xlink:href="#DejaVuSans-20" transform="translate(163.330078 0)"/>
      <use xlink:href="#DejaVuSans-64" transform="translate(195.117188 0)"/>
      <use xlink:href="#DejaVuSans-42" transform="translate(258.59375 0)"/>
     </g>
    </g>
    <g id="line2d_20">
     <path d="M 298.968437 98.604813 
L 318.968437 98.604813 
" style="fill: none; stroke-dasharray: 5.55,2.4; stroke-dashoffset: 0; stroke: #1f77b4; stroke-width: 1.5"/>
    </g>
    <g id="text_18">
     <!-- Estimated RT60 -->
     <g transform="translate(326.968437 102.104813) scale(0.1 -0.1)">
      <defs>
       <path id="DejaVuSans-73" d="M 2834 3397 
L 2834 2853 
Q 2591 2978 2328 3040 
Q 2066 3103 1784 3103 
Q 1356 3103 1142 2972 
Q 928 2841 928 2578 
Q 928 2378 1081 2264 
Q 1234 2150 1697 2047 
L 1894 2003 
Q 2506 1872 2764 1633 
Q 3022 1394 3022 966 
Q 3022 478 2636 193 
Q 2250 -91 1575 -91 
Q 1294 -91 989 -36 
Q 684 19 347 128 
L 347 722 
Q 666 556 975 473 
Q 1284 391 1588 391 
Q 1994 391 2212 530 
Q 2431 669 2431 922 
Q 2431 1156 2273 1281 
Q 2116 1406 1581 1522 
L 1381 1569 
Q 847 1681 609 1914 
Q 372 2147 372 2553 
Q 372 3047 722 3315 
Q 1072 3584 1716 3584 
Q 2034 3584 2315 3537 
Q 2597 3491 2834 3397 
z
" transform="scale(0.015625)"/>
       <path id="DejaVuSans-6d" d="M 3328 2828 
Q 3544 3216 3844 3400 
Q 4144 3584 4550 3584 
Q 5097 3584 5394 3201 
Q 5691 2819 5691 2113 
L 5691 0 
L 5113 0 
L 5113 2094 
Q 5113 2597 4934 2840 
Q 4756 3084 4391 3084 
Q 3944 3084 3684 2787 
Q 3425 2491 3425 1978 
L 3425 0 
L 2847 0 
L 2847 2094 
Q 2847 2600 2669 2842 
Q 2491 3084 2119 3084 
Q 1678 3084 1418 2786 
Q 1159 2488 1159 1978 
L 1159 0 
L 581 0 
L 581 3500 
L 1159 3500 
L 1159 2956 
Q 1356 3278 1631 3431 
Q 1906 3584 2284 3584 
Q 2666 3584 2933 3390 
Q 3200 3197 3328 2828 
z
" transform="scale(0.015625)"/>
       <path id="DejaVuSans-52" d="M 2841 2188 
Q 3044 2119 3236 1894 
Q 3428 1669 3622 1275 
L 4263 0 
L 3584 0 
L 2988 1197 
Q 2756 1666 2539 1819 
Q 2322 1972 1947 1972 
L 1259 1972 
L 1259 0 
L 628 0 
L 628 4666 
L 2053 4666 
Q 2853 4666 3247 4331 
Q 3641 3997 3641 3322 
Q 3641 2881 3436 2590 
Q 3231 2300 2841 2188 
z
M 1259 4147 
L 1259 2491 
L 2053 2491 
Q 2509 2491 2742 2702 
Q 2975 2913 2975 3322 
Q 2975 3731 2742 3939 
Q 2509 4147 2053 4147 
L 1259 4147 
z
" transform="scale(0.015625)"/>
       <path id="DejaVuSans-54" d="M -19 4666 
L 3928 4666 
L 3928 4134 
L 2272 4134 
L 2272 0 
L 1638 0 
L 1638 4134 
L -19 4134 
L -19 4666 
z
" transform="scale(0.015625)"/>
      </defs>
      <use xlink:href="#DejaVuSans-45"/>
      <use xlink:href="#DejaVuSans-73" transform="translate(63.183594 0)"/>
      <use xlink:href="#DejaVuSans-74" transform="translate(115.283203 0)"/>
      <use xlink:href="#DejaVuSans-69" transform="translate(154.492188 0)"/>
      <use xlink:href="#DejaVuSans-6d" transform="translate(182.275391 0)"/>
      <use xlink:href="#DejaVuSans-61" transform="translate(279.6875 0)"/>
      <use xlink:href="#DejaVuSans-74" transform="translate(340.966797 0)"/>
      <use xlink:href="#DejaVuSans-65" transform="translate(380.175781 0)"/>
      <use xlink:href="#DejaVuSans-64" transform="translate(441.699219 0)"/>
      <use xlink:href="#DejaVuSans-20" transform="translate(505.175781 0)"/>
      <use xlink:href="#DejaVuSans-52" transform="translate(536.962891 0)"/>
      <use xlink:href="#DejaVuSans-54" transform="translate(599.195312 0)"/>
      <use xlink:href="#DejaVuSans-36" transform="translate(660.279297 0)"/>
      <use xlink:href="#DejaVuSans-30" transform="translate(723.902344 0)"/>
     </g>
    </g>
   </g>
  </g>
 </g>
 <defs>
  <clipPath id="p882e35e265">
   <rect x="57.6" y="41.472" width="357.12" height="266.112"/>
  </clipPath>
 </defs>
</svg>
