<?xml version="1.0" encoding="utf-8" standalone="no"?>
<!DOCTYPE svg PUBLIC "-//W3C//DTD SVG 1.1//EN"
  "http://www.w3.org/Graphics/SVG/1.1/DTD/svg11.dtd">
<svg xmlns:xlink="http://www.w3.org/1999/xlink" width="460.8pt" height="345.6pt" viewBox="0 0 460.8 345.6" xmlns="http://www.w3.org/2000/svg" version="1.1">
 <metadata>
  <rdf:RDF xmlns:dc="http://purl.org/dc/elements/1.1/" xmlns:cc="http://creativecommons.org/ns#" xmlns:rdf="http://www.w3.org/1999/02/22-rdf-syntax-ns#">
   <cc:Work>
    <dc:type rdf:resource="http://purl.org/dc/dcmitype/StillImage"/>
    <dc:date>2025-05-06T14:17:35.515365</dc:date>
    <dc:format>image/svg+xml</dc:format>
    <dc:creator>
     <cc:Agent>
      <dc:title>Matplotlib v3.10.1, https://matplotlib.org/</dc:title>
     </cc:Agent>
    </dc:creator>
   </cc:Work>
  </rdf:RDF>
 </metadata>
 <defs>
  <style type="text/css">*{stroke-linejoin: round; stroke-linecap: butt}</style>
 </defs>
 <g id="figure_1">
  <g id="patch_1">
   <path d="M 0 345.6 
L 460.8 345.6 
L 460.8 0 
L 0 0 
z
" style="fill: #ffffff"/>
  </g>
  <g id="axes_1">
   <g id="patch_2">
    <path d="M 57.6 307.584 
L 414.72 307.584 
L 414.72 41.472 
L 57.6 41.472 
z
" style="fill: #ffffff"/>
   </g>
   <g id="matplotlib.axis_1">
    <g id="xtick_1">
     <g id="line2d_1">
      <defs>
       <path id="mcc28270f3b" d="M 0 0 
L 0 3.5 
" style="stroke: #000000; stroke-width: 0.8"/>
      </defs>
      <g>
       <use xlink:href="#mcc28270f3b" x="70.329164" y="307.584" style="stroke: #000000; stroke-width: 0.8"/>
      </g>
     </g>
     <g id="text_1">
      <!-- −0.2 -->
      <g transform="translate(58.187757 322.182437) scale(0.1 -0.1)">
       <defs>
        <path id="DejaVuSans-2212" d="M 678 2272 
L 4684 2272 
L 4684 1741 
L 678 1741 
L 678 2272 
z
" transform="scale(0.015625)"/>
        <path id="DejaVuSans-30" d="M 2034 4250 
Q 1547 4250 1301 3770 
Q 1056 3291 1056 2328 
Q 1056 1369 1301 889 
Q 1547 409 2034 409 
Q 2525 409 2770 889 
Q 3016 1369 3016 2328 
Q 3016 3291 2770 3770 
Q 2525 4250 2034 4250 
z
M 2034 4750 
Q 2819 4750 3233 4129 
Q 3647 3509 3647 2328 
Q 3647 1150 3233 529 
Q 2819 -91 2034 -91 
Q 1250 -91 836 529 
Q 422 1150 422 2328 
Q 422 3509 836 4129 
Q 1250 4750 2034 4750 
z
" transform="scale(0.015625)"/>
        <path id="DejaVuSans-2e" d="M 684 794 
L 1344 794 
L 1344 0 
L 684 0 
L 684 794 
z
" transform="scale(0.015625)"/>
        <path id="DejaVuSans-32" d="M 1228 531 
L 3431 531 
L 3431 0 
L 469 0 
L 469 531 
Q 828 903 1448 1529 
Q 2069 2156 2228 2338 
Q 2531 2678 2651 2914 
Q 2772 3150 2772 3378 
Q 2772 3750 2511 3984 
Q 2250 4219 1831 4219 
Q 1534 4219 1204 4116 
Q 875 4013 500 3803 
L 500 4441 
Q 881 4594 1212 4672 
Q 1544 4750 1819 4750 
Q 2544 4750 2975 4387 
Q 3406 4025 3406 3419 
Q 3406 3131 3298 2873 
Q 3191 2616 2906 2266 
Q 2828 2175 2409 1742 
Q 1991 1309 1228 531 
z
" transform="scale(0.015625)"/>
       </defs>
       <use xlink:href="#DejaVuSans-2212"/>
       <use xlink:href="#DejaVuSans-30" transform="translate(83.789062 0)"/>
       <use xlink:href="#DejaVuSans-2e" transform="translate(147.412109 0)"/>
       <use xlink:href="#DejaVuSans-32" transform="translate(179.199219 0)"/>
      </g>
     </g>
    </g>
    <g id="xtick_2">
     <g id="line2d_2">
      <g>
       <use xlink:href="#mcc28270f3b" x="135.260073" y="307.584" style="stroke: #000000; stroke-width: 0.8"/>
      </g>
     </g>
     <g id="text_2">
      <!-- 0.0 -->
      <g transform="translate(127.30851 322.182437) scale(0.1 -0.1)">
       <use xlink:href="#DejaVuSans-30"/>
       <use xlink:href="#DejaVuSans-2e" transform="translate(63.623047 0)"/>
       <use xlink:href="#DejaVuSans-30" transform="translate(95.410156 0)"/>
      </g>
     </g>
    </g>
    <g id="xtick_3">
     <g id="line2d_3">
      <g>
       <use xlink:href="#mcc28270f3b" x="200.190982" y="307.584" style="stroke: #000000; stroke-width: 0.8"/>
      </g>
     </g>
     <g id="text_3">
      <!-- 0.2 -->
      <g transform="translate(192.239419 322.182437) scale(0.1 -0.1)">
       <use xlink:href="#DejaVuSans-30"/>
       <use xlink:href="#DejaVuSans-2e" transform="translate(63.623047 0)"/>
       <use xlink:href="#DejaVuSans-32" transform="translate(95.410156 0)"/>
      </g>
     </g>
    </g>
    <g id="xtick_4">
     <g id="line2d_4">
      <g>
       <use xlink:href="#mcc28270f3b" x="265.121891" y="307.584" style="stroke: #000000; stroke-width: 0.8"/>
      </g>
     </g>
     <g id="text_4">
      <!-- 0.4 -->
      <g transform="translate(257.170328 322.182437) scale(0.1 -0.1)">
       <defs>
        <path id="DejaVuSans-34" d="M 2419 4116 
L 825 1625 
L 2419 1625 
L 2419 4116 
z
M 2253 4666 
L 3047 4666 
L 3047 1625 
L 3713 1625 
L 3713 1100 
L 3047 1100 
L 3047 0 
L 2419 0 
L 2419 1100 
L 313 1100 
L 313 1709 
L 2253 4666 
z
" transform="scale(0.015625)"/>
       </defs>
       <use xlink:href="#DejaVuSans-30"/>
       <use xlink:href="#DejaVuSans-2e" transform="translate(63.623047 0)"/>
       <use xlink:href="#DejaVuSans-34" transform="translate(95.410156 0)"/>
      </g>
     </g>
    </g>
    <g id="xtick_5">
     <g id="line2d_5">
      <g>
       <use xlink:href="#mcc28270f3b" x="330.0528" y="307.584" style="stroke: #000000; stroke-width: 0.8"/>
      </g>
     </g>
     <g id="text_5">
      <!-- 0.6 -->
      <g transform="translate(322.101237 322.182437) scale(0.1 -0.1)">
       <defs>
        <path id="DejaVuSans-36" d="M 2113 2584 
Q 1688 2584 1439 2293 
Q 1191 2003 1191 1497 
Q 1191 994 1439 701 
Q 1688 409 2113 409 
Q 2538 409 2786 701 
Q 3034 994 3034 1497 
Q 3034 2003 2786 2293 
Q 2538 2584 2113 2584 
z
M 3366 4563 
L 3366 3988 
Q 3128 4100 2886 4159 
Q 2644 4219 2406 4219 
Q 1781 4219 1451 3797 
Q 1122 3375 1075 2522 
Q 1259 2794 1537 2939 
Q 1816 3084 2150 3084 
Q 2853 3084 3261 2657 
Q 3669 2231 3669 1497 
Q 3669 778 3244 343 
Q 2819 -91 2113 -91 
Q 1303 -91 875 529 
Q 447 1150 447 2328 
Q 447 3434 972 4092 
Q 1497 4750 2381 4750 
Q 2619 4750 2861 4703 
Q 3103 4656 3366 4563 
z
" transform="scale(0.015625)"/>
       </defs>
       <use xlink:href="#DejaVuSans-30"/>
       <use xlink:href="#DejaVuSans-2e" transform="translate(63.623047 0)"/>
       <use xlink:href="#DejaVuSans-36" transform="translate(95.410156 0)"/>
      </g>
     </g>
    </g>
    <g id="xtick_6">
     <g id="line2d_6">
      <g>
       <use xlink:href="#mcc28270f3b" x="394.983709" y="307.584" style="stroke: #000000; stroke-width: 0.8"/>
      </g>
     </g>
     <g id="text_6">
      <!-- 0.8 -->
      <g transform="translate(387.032147 322.182437) scale(0.1 -0.1)">
       <defs>
        <path id="DejaVuSans-38" d="M 2034 2216 
Q 1584 2216 1326 1975 
Q 1069 1734 1069 1313 
Q 1069 891 1326 650 
Q 1584 409 2034 409 
Q 2484 409 2743 651 
Q 3003 894 3003 1313 
Q 3003 1734 2745 1975 
Q 2488 2216 2034 2216 
z
M 1403 2484 
Q 997 2584 770 2862 
Q 544 3141 544 3541 
Q 544 4100 942 4425 
Q 1341 4750 2034 4750 
Q 2731 4750 3128 4425 
Q 3525 4100 3525 3541 
Q 3525 3141 3298 2862 
Q 3072 2584 2669 2484 
Q 3125 2378 3379 2068 
Q 3634 1759 3634 1313 
Q 3634 634 3220 271 
Q 2806 -91 2034 -91 
Q 1263 -91 848 271 
Q 434 634 434 1313 
Q 434 1759 690 2068 
Q 947 2378 1403 2484 
z
M 1172 3481 
Q 1172 3119 1398 2916 
Q 1625 2713 2034 2713 
Q 2441 2713 2670 2916 
Q 2900 3119 2900 3481 
Q 2900 3844 2670 4047 
Q 2441 4250 2034 4250 
Q 1625 4250 1398 4047 
Q 1172 3844 1172 3481 
z
" transform="scale(0.015625)"/>
       </defs>
       <use xlink:href="#DejaVuSans-30"/>
       <use xlink:href="#DejaVuSans-2e" transform="translate(63.623047 0)"/>
       <use xlink:href="#DejaVuSans-38" transform="translate(95.410156 0)"/>
      </g>
     </g>
    </g>
   </g>
   <g id="matplotlib.axis_2">
    <g id="ytick_1">
     <g id="line2d_7">
      <defs>
       <path id="m67a649fdf4" d="M 0 0 
L -3.5 0 
" style="stroke: #000000; stroke-width: 0.8"/>
      </defs>
      <g>
       <use xlink:href="#m67a649fdf4" x="57.6" y="299.387567" style="stroke: #000000; stroke-width: 0.8"/>
      </g>
     </g>
     <g id="text_7">
      <!-- −200 -->
      <g transform="translate(23.132812 303.186786) scale(0.1 -0.1)">
       <use xlink:href="#DejaVuSans-2212"/>
       <use xlink:href="#DejaVuSans-32" transform="translate(83.789062 0)"/>
       <use xlink:href="#DejaVuSans-30" transform="translate(147.412109 0)"/>
       <use xlink:href="#DejaVuSans-30" transform="translate(211.035156 0)"/>
      </g>
     </g>
    </g>
    <g id="ytick_2">
     <g id="line2d_8">
      <g>
       <use xlink:href="#m67a649fdf4" x="57.6" y="268.660121" style="stroke: #000000; stroke-width: 0.8"/>
      </g>
     </g>
     <g id="text_8">
      <!-- −175 -->
      <g transform="translate(23.132812 272.45934) scale(0.1 -0.1)">
       <defs>
        <path id="DejaVuSans-31" d="M 794 531 
L 1825 531 
L 1825 4091 
L 703 3866 
L 703 4441 
L 1819 4666 
L 2450 4666 
L 2450 531 
L 3481 531 
L 3481 0 
L 794 0 
L 794 531 
z
" transform="scale(0.015625)"/>
        <path id="DejaVuSans-37" d="M 525 4666 
L 3525 4666 
L 3525 4397 
L 1831 0 
L 1172 0 
L 2766 4134 
L 525 4134 
L 525 4666 
z
" transform="scale(0.015625)"/>
        <path id="DejaVuSans-35" d="M 691 4666 
L 3169 4666 
L 3169 4134 
L 1269 4134 
L 1269 2991 
Q 1406 3038 1543 3061 
Q 1681 3084 1819 3084 
Q 2600 3084 3056 2656 
Q 3513 2228 3513 1497 
Q 3513 744 3044 326 
Q 2575 -91 1722 -91 
Q 1428 -91 1123 -41 
Q 819 9 494 109 
L 494 744 
Q 775 591 1075 516 
Q 1375 441 1709 441 
Q 2250 441 2565 725 
Q 2881 1009 2881 1497 
Q 2881 1984 2565 2268 
Q 2250 2553 1709 2553 
Q 1456 2553 1204 2497 
Q 953 2441 691 2322 
L 691 4666 
z
" transform="scale(0.015625)"/>
       </defs>
       <use xlink:href="#DejaVuSans-2212"/>
       <use xlink:href="#DejaVuSans-31" transform="translate(83.789062 0)"/>
       <use xlink:href="#DejaVuSans-37" transform="translate(147.412109 0)"/>
       <use xlink:href="#DejaVuSans-35" transform="translate(211.035156 0)"/>
      </g>
     </g>
    </g>
    <g id="ytick_3">
     <g id="line2d_9">
      <g>
       <use xlink:href="#m67a649fdf4" x="57.6" y="237.932675" style="stroke: #000000; stroke-width: 0.8"/>
      </g>
     </g>
     <g id="text_9">
      <!-- −150 -->
      <g transform="translate(23.132812 241.731894) scale(0.1 -0.1)">
       <use xlink:href="#DejaVuSans-2212"/>
       <use xlink:href="#DejaVuSans-31" transform="translate(83.789062 0)"/>
       <use xlink:href="#DejaVuSans-35" transform="translate(147.412109 0)"/>
       <use xlink:href="#DejaVuSans-30" transform="translate(211.035156 0)"/>
      </g>
     </g>
    </g>
    <g id="ytick_4">
     <g id="line2d_10">
      <g>
       <use xlink:href="#m67a649fdf4" x="57.6" y="207.20523" style="stroke: #000000; stroke-width: 0.8"/>
      </g>
     </g>
     <g id="text_10">
      <!-- −125 -->
      <g transform="translate(23.132812 211.004448) scale(0.1 -0.1)">
       <use xlink:href="#DejaVuSans-2212"/>
       <use xlink:href="#DejaVuSans-31" transform="translate(83.789062 0)"/>
       <use xlink:href="#DejaVuSans-32" transform="translate(147.412109 0)"/>
       <use xlink:href="#DejaVuSans-35" transform="translate(211.035156 0)"/>
      </g>
     </g>
    </g>
    <g id="ytick_5">
     <g id="line2d_11">
      <g>
       <use xlink:href="#m67a649fdf4" x="57.6" y="176.477784" style="stroke: #000000; stroke-width: 0.8"/>
      </g>
     </g>
     <g id="text_11">
      <!-- −100 -->
      <g transform="translate(23.132812 180.277002) scale(0.1 -0.1)">
       <use xlink:href="#DejaVuSans-2212"/>
       <use xlink:href="#DejaVuSans-31" transform="translate(83.789062 0)"/>
       <use xlink:href="#DejaVuSans-30" transform="translate(147.412109 0)"/>
       <use xlink:href="#DejaVuSans-30" transform="translate(211.035156 0)"/>
      </g>
     </g>
    </g>
    <g id="ytick_6">
     <g id="line2d_12">
      <g>
       <use xlink:href="#m67a649fdf4" x="57.6" y="145.750338" style="stroke: #000000; stroke-width: 0.8"/>
      </g>
     </g>
     <g id="text_12">
      <!-- −75 -->
      <g transform="translate(29.495313 149.549556) scale(0.1 -0.1)">
       <use xlink:href="#DejaVuSans-2212"/>
       <use xlink:href="#DejaVuSans-37" transform="translate(83.789062 0)"/>
       <use xlink:href="#DejaVuSans-35" transform="translate(147.412109 0)"/>
      </g>
     </g>
    </g>
    <g id="ytick_7">
     <g id="line2d_13">
      <g>
       <use xlink:href="#m67a649fdf4" x="57.6" y="115.022892" style="stroke: #000000; stroke-width: 0.8"/>
      </g>
     </g>
     <g id="text_13">
      <!-- −50 -->
      <g transform="translate(29.495313 118.822111) scale(0.1 -0.1)">
       <use xlink:href="#DejaVuSans-2212"/>
       <use xlink:href="#DejaVuSans-35" transform="translate(83.789062 0)"/>
       <use xlink:href="#DejaVuSans-30" transform="translate(147.412109 0)"/>
      </g>
     </g>
    </g>
    <g id="ytick_8">
     <g id="line2d_14">
      <g>
       <use xlink:href="#m67a649fdf4" x="57.6" y="84.295446" style="stroke: #000000; stroke-width: 0.8"/>
      </g>
     </g>
     <g id="text_14">
      <!-- −25 -->
      <g transform="translate(29.495313 88.094665) scale(0.1 -0.1)">
       <use xlink:href="#DejaVuSans-2212"/>
       <use xlink:href="#DejaVuSans-32" transform="translate(83.789062 0)"/>
       <use xlink:href="#DejaVuSans-35" transform="translate(147.412109 0)"/>
      </g>
     </g>
    </g>
    <g id="ytick_9">
     <g id="line2d_15">
      <g>
       <use xlink:href="#m67a649fdf4" x="57.6" y="53.568" style="stroke: #000000; stroke-width: 0.8"/>
      </g>
     </g>
     <g id="text_15">
      <!-- 0 -->
      <g transform="translate(44.2375 57.367219) scale(0.1 -0.1)">
       <use xlink:href="#DejaVuSans-30"/>
      </g>
     </g>
    </g>
   </g>
   <g id="line2d_16">
    <path d="M 73.832727 53.568 
L 126.359127 53.670106 
L 126.649964 54.766811 
L 126.893455 54.884413 
L 127.630691 55.171191 
L 127.826836 55.241219 
L 131.012509 56.939349 
L 131.188364 57.215917 
L 131.431855 57.391626 
L 132.013527 58.34581 
L 132.284073 58.452904 
L 132.541091 58.593969 
L 132.662836 58.704017 
L 133.2648 58.945518 
L 133.697673 59.073103 
L 133.873527 59.117318 
L 134.218473 59.2511 
L 134.394327 59.359929 
L 134.969236 59.524154 
L 135.408873 59.88687 
L 135.557673 59.927604 
L 136.220509 60.310052 
L 136.423418 60.682047 
L 136.896873 61.067695 
L 137.025382 61.176405 
L 137.174182 61.356545 
L 137.343273 61.433991 
L 137.918182 62.105956 
L 138.148145 62.261461 
L 138.357818 62.339168 
L 138.614836 62.499944 
L 139.000364 63.479087 
L 139.101818 63.577279 
L 139.304727 63.853841 
L 139.5888 63.973074 
L 139.744364 64.05177 
L 139.974327 64.196553 
L 140.150182 64.285303 
L 140.501891 64.396128 
L 140.7792 64.814817 
L 141.455564 65.293579 
L 141.793745 65.425867 
L 142.077818 65.784506 
L 142.652727 65.897178 
L 143.532 66.406461 
L 143.768727 66.716071 
L 143.904 66.8744 
L 144.1272 67.254919 
L 144.390982 67.320901 
L 144.627709 67.4293 
L 144.864436 67.54873 
L 145.189091 67.685063 
L 145.513745 68.085285 
L 145.939855 68.302607 
L 146.169818 68.447408 
L 146.372727 68.540128 
L 146.548582 68.728086 
L 146.751491 68.864193 
L 147.022036 69.166137 
L 147.272291 69.280369 
L 147.468436 69.400727 
L 147.725455 69.458984 
L 148.165091 69.624045 
L 148.942909 70.305513 
L 149.314909 70.361536 
L 149.646327 70.469435 
L 150.085964 70.607191 
L 150.708218 70.757895 
L 151.168145 71.06119 
L 151.276364 71.170319 
L 151.465745 71.340323 
L 151.9392 71.573456 
L 152.121818 71.917613 
L 152.324727 72.040044 
L 152.493818 72.078393 
L 152.730545 72.222724 
L 153.176945 72.674579 
L 153.346036 72.821009 
L 153.481309 72.934917 
L 153.697745 73.319765 
L 153.954764 73.440647 
L 154.198255 73.550856 
L 154.380873 73.725865 
L 154.570255 73.876575 
L 154.867855 73.998596 
L 155.091055 74.331469 
L 155.456291 74.429016 
L 155.571273 74.547619 
L 156.416727 75.307548 
L 156.829309 75.418681 
L 157.3704 75.554715 
L 157.782982 75.693579 
L 157.904727 75.874621 
L 158.073818 76.071372 
L 158.283491 76.173041 
L 158.493164 76.302584 
L 159.156 76.582436 
L 159.352145 76.639642 
L 159.575345 76.745007 
L 159.744436 76.815767 
L 159.879709 76.944278 
L 160.102909 77.125292 
L 160.583127 77.291606 
L 160.731927 77.368949 
L 161.293309 77.479306 
L 161.807345 77.747956 
L 162.044073 78.005989 
L 164.506036 78.982777 
L 164.756291 79.386528 
L 164.918618 79.479717 
L 165.101236 79.599932 
L 165.297382 79.836555 
L 165.716727 80.044855 
L 166.244291 80.195608 
L 166.508073 80.619294 
L 167.292655 80.729756 
L 167.529382 80.76112 
L 167.894618 80.894531 
L 168.165164 81.163548 
L 168.658909 81.439366 
L 168.963273 81.600412 
L 169.382618 81.713257 
L 170.1672 82.164203 
L 170.491855 82.264052 
L 170.660945 82.369964 
L 170.884145 82.59609 
L 171.174982 82.698526 
L 171.425236 82.834057 
L 171.465818 82.98164 
L 171.661964 83.43596 
L 171.946036 83.646506 
L 172.385673 83.841823 
L 172.669745 84.004548 
L 173.163491 84.125996 
L 173.406982 84.233945 
L 173.704582 84.400737 
L 173.9616 84.512211 
L 174.367418 84.693484 
L 175.733673 85.107534 
L 175.997455 85.166202 
L 176.64 85.326135 
L 176.849673 85.472059 
L 176.971418 85.57034 
L 177.241964 86.123337 
L 177.776291 86.240367 
L 177.884509 86.437842 
L 178.033309 86.635197 
L 178.418836 86.759019 
L 178.851709 86.937965 
L 179.183127 87.070202 
L 179.3928 87.146823 
L 179.514545 87.250797 
L 179.697164 87.34869 
L 179.879782 87.493996 
L 180.089455 87.615977 
L 180.8064 87.888173 
L 181.618036 88.192993 
L 182.267345 88.777095 
L 182.483782 88.886967 
L 182.896364 89.189687 
L 183.586255 89.311174 
L 183.809455 89.380506 
L 184.255855 89.519743 
L 184.458764 89.608121 
L 185.074255 89.719802 
L 186.217309 90.118961 
L 186.913964 90.230952 
L 187.211564 90.398267 
L 187.5768 90.723403 
L 187.820291 90.840753 
L 188.117891 90.996727 
L 188.347855 91.098423 
L 188.821309 92.164342 
L 188.970109 92.272767 
L 189.402982 92.510071 
L 189.774982 92.650942 
L 189.971127 92.733375 
L 190.316073 92.889561 
L 190.491927 92.937655 
L 191.127709 93.132283 
L 191.377964 93.233979 
L 191.499709 93.337605 
L 191.729673 93.582972 
L 191.810836 93.715761 
L 192.101673 94.055197 
L 192.406036 94.139987 
L 193.1568 94.250769 
L 194.4216 95.452391 
L 194.847709 95.574473 
L 195.0912 95.772206 
L 195.273818 95.881744 
L 195.5376 96.038425 
L 195.774327 96.154908 
L 199.223782 98.525073 
L 199.419927 98.698765 
L 201.908945 99.301075 
L 202.057745 99.384457 
L 202.341818 99.502583 
L 203.322545 99.940915 
L 203.505164 100.038547 
L 203.796 100.473094 
L 204.005673 100.582268 
L 204.201818 100.665035 
L 204.377673 100.769172 
L 204.682036 101.113021 
L 205.006691 101.239986 
L 206.778764 101.802867 
L 207.184582 101.936835 
L 207.536291 102.054252 
L 207.806836 102.127367 
L 208.057091 102.241566 
L 208.273527 102.281141 
L 209.572145 102.60386 
L 209.815636 102.718365 
L 210.593455 102.90037 
L 211.601236 103.409455 
L 211.986764 103.518924 
L 212.412873 103.958535 
L 212.744291 104.042199 
L 213.123055 104.149256 
L 213.488291 104.398361 
L 213.725018 104.519782 
L 215.429455 105.173061 
L 215.808218 105.493141 
L 216.329018 105.618853 
L 216.5184 105.66592 
L 217.330036 105.878321 
L 217.56 106.037739 
L 217.871127 106.220489 
L 218.189018 106.693044 
L 218.588073 106.812369 
L 218.818036 106.991645 
L 219.737891 107.278054 
L 220.0152 107.779618 
L 220.245164 107.892009 
L 220.421018 107.927815 
L 221.212364 108.050918 
L 221.469382 108.295962 
L 222.057818 108.435973 
L 222.700364 108.944813 
L 223.484945 109.120867 
L 223.741964 109.324594 
L 224.573891 109.475686 
L 224.763273 109.580086 
L 224.9256 109.684695 
L 225.169091 109.8097 
L 225.459927 110.160731 
L 226.589455 110.666356 
L 227.123782 110.775586 
L 227.340218 110.882277 
L 227.590473 110.992855 
L 227.833964 111.080253 
L 229.355782 111.338234 
L 229.545164 111.449446 
L 229.734545 111.562799 
L 229.971273 111.700923 
L 230.275636 111.792943 
L 230.444727 111.930471 
L 230.600291 112.019624 
L 230.958764 112.129562 
L 231.283418 112.310887 
L 231.567491 112.746478 
L 232.237091 112.859996 
L 232.852582 113.05342 
L 233.339564 113.165993 
L 234.015927 113.578661 
L 234.218836 113.661044 
L 235.260436 113.839061 
L 236.193818 114.006896 
L 236.863418 114.93864 
L 237.208364 115.052366 
L 237.505964 115.183506 
L 237.992945 115.288709 
L 238.249964 115.511154 
L 238.574618 115.562223 
L 239.041309 115.673267 
L 239.480945 116.067095 
L 239.907055 116.221807 
L 240.346691 116.3518 
L 240.860727 116.521587 
L 241.131273 116.894819 
L 241.570909 117.00227 
L 242.064655 117.278115 
L 242.511055 117.419967 
L 242.734255 117.548162 
L 245.250327 118.186397 
L 245.46 118.230723 
L 246.197236 118.358774 
L 246.461018 118.40185 
L 247.4688 118.66036 
L 248.550982 119.030173 
L 249.1056 119.144108 
L 249.288218 119.285237 
L 249.815782 120.298241 
L 249.991636 120.410967 
L 250.099855 120.616551 
L 250.282473 120.77764 
L 250.397455 120.886709 
L 250.573309 121.01241 
L 250.877673 121.121074 
L 251.121164 121.301311 
L 251.675782 121.439544 
L 252.210109 121.49271 
L 252.521236 121.616791 
L 252.730909 121.679586 
L 252.893236 121.825611 
L 253.102909 122.090314 
L 253.278764 122.200728 
L 253.515491 122.477826 
L 253.623709 122.592262 
L 254.306836 122.839271 
L 254.732945 122.908947 
L 254.976436 123.026955 
L 255.165818 123.14017 
L 256.207418 123.54162 
L 256.931127 123.781763 
L 257.303127 123.98157 
L 257.817164 124.141997 
L 258.162109 124.263768 
L 258.446182 124.383469 
L 258.635564 124.506024 
L 259.690691 125.173231 
L 259.853018 125.260232 
L 260.962255 125.428719 
L 261.259855 125.504927 
L 261.997091 125.617067 
L 262.227055 125.748757 
L 262.842545 126.076294 
L 263.106327 126.155244 
L 263.329527 126.269986 
L 263.505382 126.421756 
L 263.748873 126.531367 
L 264.046473 126.634134 
L 265.067782 126.815653 
L 265.581818 127.287106 
L 266.731636 127.696574 
L 267.029236 127.741083 
L 267.746182 127.925476 
L 268.219636 128.071496 
L 268.720145 128.189057 
L 269.362691 128.383078 
L 269.64 128.561001 
L 269.849673 128.604739 
L 271.215927 128.88768 
L 271.452655 128.95102 
L 271.729964 129.072563 
L 272.399564 129.40103 
L 273.853745 129.7066 
L 275.105018 130.153911 
L 276.545673 130.463626 
L 276.795927 130.534199 
L 280.285964 131.110726 
L 281.138182 131.241687 
L 281.422255 131.353355 
L 281.658982 131.610818 
L 282.450327 131.78296 
L 282.977891 131.938065 
L 283.789527 132.050007 
L 284.749964 132.268016 
L 285.446618 132.433478 
L 285.723927 132.556308 
L 286.109455 132.592683 
L 287.320145 132.732168 
L 287.949164 133.007206 
L 290.810182 133.435643 
L 291.459491 133.5472 
L 291.790909 133.571832 
L 292.359055 133.685562 
L 292.541673 133.759386 
L 293.096291 133.876844 
L 293.657673 134.043405 
L 294.300218 134.154649 
L 295.483855 134.470476 
L 295.788218 134.596907 
L 296.139927 134.632842 
L 296.897455 134.755733 
L 298.3584 134.979679 
L 298.622182 135.046298 
L 301.172073 135.270358 
L 301.489964 135.3165 
L 302.829164 135.428447 
L 303.147055 135.466471 
L 310.492364 136.424455 
L 311.777455 136.545793 
L 312.9408 136.729323 
L 313.671273 136.842097 
L 316.796073 137.192251 
L 318.0744 137.320081 
L 318.419345 137.382104 
L 319.488 137.467981 
L 321.1248 137.578867 
L 321.381818 137.627058 
L 325.467055 138.046866 
L 325.866109 138.100992 
L 327.496145 138.257855 
L 328.585091 138.380202 
L 329.6064 138.49637 
L 335.883055 139.318465 
L 336.951709 139.418649 
L 339.095782 139.593078 
L 339.433964 139.622408 
L 340.759636 139.848424 
L 342.552 140.47859 
L 344.3376 140.646359 
L 344.648727 140.806766 
L 345.588873 140.898074 
L 345.920291 141.009193 
L 346.840145 141.184762 
L 347.137745 141.233329 
L 347.780291 141.350018 
L 348.740727 141.48787 
L 350.134036 141.6066 
L 351.608509 141.99828 
L 351.845236 142.135317 
L 353.725527 142.357474 
L 356.708291 143.191221 
L 356.884145 143.41156 
L 357.5808 143.602766 
L 357.898691 143.660101 
L 358.419491 143.812916 
L 358.683273 143.855364 
L 359.528727 144.001159 
L 359.765455 144.090738 
L 360.069818 144.116053 
L 360.5568 144.223181 
L 360.725891 144.334564 
L 361.287273 144.540793 
L 361.578109 144.684257 
L 362.010982 144.888502 
L 362.234182 144.932781 
L 362.653527 145.078961 
L 362.9376 145.259505 
L 363.641018 145.371144 
L 363.884509 145.587299 
L 364.080655 145.715298 
L 364.283564 145.835413 
L 364.533818 145.945703 
L 364.729964 146.087681 
L 364.905818 146.246246 
L 365.223709 146.354477 
L 365.751273 146.822245 
L 366.9552 146.934266 
L 367.820945 147.454081 
L 367.983273 147.600583 
L 368.050909 147.710974 
L 368.531127 148.104602 
L 368.700218 148.240571 
L 369.450982 148.698946 
L 369.8568 148.976788 
L 370.052945 149.254809 
L 370.668436 149.42002 
L 370.871345 149.541703 
L 371.317745 149.676018 
L 371.459782 149.84194 
L 371.676218 150.044906 
L 372.095564 150.155782 
L 372.5352 150.393754 
L 372.690764 150.577444 
L 372.785455 150.747633 
L 372.995127 151.219198 
L 373.069527 151.334117 
L 373.299491 151.742052 
L 373.522691 151.856604 
L 373.914982 152.328505 
L 374.0232 152.428672 
L 374.239636 153.054263 
L 374.327564 153.164918 
L 374.496655 153.364202 
L 374.882182 153.640756 
L 375.551782 154.622414 
L 376.444582 154.92415 
L 376.661018 155.050032 
L 377.012727 155.544046 
L 377.405018 155.857135 
L 377.8176 156.078488 
L 378.169309 156.183631 
L 378.460145 156.627974 
L 378.737455 156.776411 
L 379.021527 157.436101 
L 379.170327 157.705473 
L 379.508509 157.849083 
L 380.205164 158.234182 
L 380.259273 158.344284 
L 380.827418 159.318055 
L 381.118255 159.544705 
L 381.354982 159.659704 
L 381.469964 159.850335 
L 381.713455 160.245042 
L 382.782109 161.017954 
L 383.255564 162.215511 
L 383.485527 162.674458 
L 383.641091 163.139138 
L 383.722255 163.235842 
L 383.877818 163.368093 
L 384.019855 163.489359 
L 384.838255 165.217934 
L 384.993818 165.549546 
L 385.041164 165.932827 
L 385.365818 167.337184 
L 385.399636 167.417232 
L 385.582255 167.94036 
L 385.731055 168.190825 
L 386.021891 169.166855 
L 386.360073 169.524524 
L 386.441236 169.616127 
L 386.677964 170.396995 
L 387.070255 170.669923 
L 387.306982 171.02724 
L 387.523418 171.238833 
L 387.922473 172.448662 
L 388.152436 172.558926 
L 388.321527 172.674257 
L 388.497382 172.881383 
L 388.632655 173.32415 
L 388.774691 173.678277 
L 388.862618 173.783837 
L 389.254909 175.681017 
L 389.369891 175.800984 
L 389.566036 175.90384 
L 389.7216 176.090878 
L 390.188291 177.784303 
L 390.296509 177.859904 
L 390.945818 180.919017 
L 391.087855 181.517899 
L 391.277236 182.493534 
L 391.534255 182.841069 
L 391.757455 183.806086 
L 392.203855 184.840943 
L 392.440582 187.33293 
L 392.481164 187.821279 
L 392.670545 189.459657 
L 392.812582 189.767881 
L 393.062836 190.564805 
L 393.116945 190.653956 
L 393.502473 191.838096 
L 393.543055 191.926327 
L 394.084145 194.782642 
L 394.151782 194.91257 
L 394.354691 195.376315 
L 394.4088 195.589115 
L 395.010764 199.831931 
L 395.098691 199.912609 
L 395.281309 202.309204 
L 395.409818 202.620144 
L 395.714182 203.465973 
L 395.829164 203.688137 
L 396.147055 208.616498 
L 396.3432 212.931278 
L 396.525818 213.449402 
L 396.694909 214.018176 
L 397.060145 220.537288 
L 397.574182 225.137772 
L 398.453455 278.832116 
L 398.480509 295.488 
L 398.480509 295.488 
" clip-path="url(#p2c6fff0330)" style="fill: none; stroke: #1f77b4; stroke-width: 1.5; stroke-linecap: square"/>
   </g>
   <g id="line2d_17">
    <path d="M 135.260073 59.720021 
L 290.938691 133.459359 
" clip-path="url(#p2c6fff0330)" style="fill: none; stroke-dasharray: 5.55,2.4; stroke-dashoffset: 0; stroke: #ff7f0e; stroke-width: 1.5"/>
   </g>
   <g id="line2d_18">
    <path d="M 73.832727 127.31387 
L 398.487273 127.31387 
L 398.487273 127.31387 
" clip-path="url(#p2c6fff0330)" style="fill: none; stroke-dasharray: 5.55,2.4; stroke-dashoffset: 0; stroke: #2ca02c; stroke-width: 1.5"/>
   </g>
   <g id="LineCollection_1">
    <path d="M 290.938691 295.488 
L 290.938691 53.568 
" clip-path="url(#p2c6fff0330)" style="fill: none; stroke-dasharray: 5.55,2.4; stroke-dashoffset: 0; stroke: #1f77b4; stroke-width: 1.5"/>
   </g>
   <g id="patch_3">
    <path d="M 57.6 307.584 
L 57.6 41.472 
" style="fill: none; stroke: #000000; stroke-width: 0.8; stroke-linejoin: miter; stroke-linecap: square"/>
   </g>
   <g id="patch_4">
    <path d="M 414.72 307.584 
L 414.72 41.472 
" style="fill: none; stroke: #000000; stroke-width: 0.8; stroke-linejoin: miter; stroke-linecap: square"/>
   </g>
   <g id="patch_5">
    <path d="M 57.6 307.584 
L 414.72 307.584 
" style="fill: none; stroke: #000000; stroke-width: 0.8; stroke-linejoin: miter; stroke-linecap: square"/>
   </g>
   <g id="patch_6">
    <path d="M 57.6 41.472 
L 414.72 41.472 
" style="fill: none; stroke: #000000; stroke-width: 0.8; stroke-linejoin: miter; stroke-linecap: square"/>
   </g>
   <g id="text_16">
    <!-- Energy Decay - 2000 Hz -->
    <g transform="translate(163.59 35.472) scale(0.12 -0.12)">
     <defs>
      <path id="DejaVuSans-45" d="M 628 4666 
L 3578 4666 
L 3578 4134 
L 1259 4134 
L 1259 2753 
L 3481 2753 
L 3481 2222 
L 1259 2222 
L 1259 531 
L 3634 531 
L 3634 0 
L 628 0 
L 628 4666 
z
" transform="scale(0.015625)"/>
      <path id="DejaVuSans-6e" d="M 3513 2113 
L 3513 0 
L 2938 0 
L 2938 2094 
Q 2938 2591 2744 2837 
Q 2550 3084 2163 3084 
Q 1697 3084 1428 2787 
Q 1159 2491 1159 1978 
L 1159 0 
L 581 0 
L 581 3500 
L 1159 3500 
L 1159 2956 
Q 1366 3272 1645 3428 
Q 1925 3584 2291 3584 
Q 2894 3584 3203 3211 
Q 3513 2838 3513 2113 
z
" transform="scale(0.015625)"/>
      <path id="DejaVuSans-65" d="M 3597 1894 
L 3597 1613 
L 953 1613 
Q 991 1019 1311 708 
Q 1631 397 2203 397 
Q 2534 397 2845 478 
Q 3156 559 3463 722 
L 3463 178 
Q 3153 47 2828 -22 
Q 2503 -91 2169 -91 
Q 1331 -91 842 396 
Q 353 884 353 1716 
Q 353 2575 817 3079 
Q 1281 3584 2069 3584 
Q 2775 3584 3186 3129 
Q 3597 2675 3597 1894 
z
M 3022 2063 
Q 3016 2534 2758 2815 
Q 2500 3097 2075 3097 
Q 1594 3097 1305 2825 
Q 1016 2553 972 2059 
L 3022 2063 
z
" transform="scale(0.015625)"/>
      <path id="DejaVuSans-72" d="M 2631 2963 
Q 2534 3019 2420 3045 
Q 2306 3072 2169 3072 
Q 1681 3072 1420 2755 
Q 1159 2438 1159 1844 
L 1159 0 
L 581 0 
L 581 3500 
L 1159 3500 
L 1159 2956 
Q 1341 3275 1631 3429 
Q 1922 3584 2338 3584 
Q 2397 3584 2469 3576 
Q 2541 3569 2628 3553 
L 2631 2963 
z
" transform="scale(0.015625)"/>
      <path id="DejaVuSans-67" d="M 2906 1791 
Q 2906 2416 2648 2759 
Q 2391 3103 1925 3103 
Q 1463 3103 1205 2759 
Q 947 2416 947 1791 
Q 947 1169 1205 825 
Q 1463 481 1925 481 
Q 2391 481 2648 825 
Q 2906 1169 2906 1791 
z
M 3481 434 
Q 3481 -459 3084 -895 
Q 2688 -1331 1869 -1331 
Q 1566 -1331 1297 -1286 
Q 1028 -1241 775 -1147 
L 775 -588 
Q 1028 -725 1275 -790 
Q 1522 -856 1778 -856 
Q 2344 -856 2625 -561 
Q 2906 -266 2906 331 
L 2906 616 
Q 2728 306 2450 153 
Q 2172 0 1784 0 
Q 1141 0 747 490 
Q 353 981 353 1791 
Q 353 2603 747 3093 
Q 1141 3584 1784 3584 
Q 2172 3584 2450 3431 
Q 2728 3278 2906 2969 
L 2906 3500 
L 3481 3500 
L 3481 434 
z
" transform="scale(0.015625)"/>
      <path id="DejaVuSans-79" d="M 2059 -325 
Q 1816 -950 1584 -1140 
Q 1353 -1331 966 -1331 
L 506 -1331 
L 506 -850 
L 844 -850 
Q 1081 -850 1212 -737 
Q 1344 -625 1503 -206 
L 1606 56 
L 191 3500 
L 800 3500 
L 1894 763 
L 2988 3500 
L 3597 3500 
L 2059 -325 
z
" transform="scale(0.015625)"/>
      <path id="DejaVuSans-20" transform="scale(0.015625)"/>
      <path id="DejaVuSans-44" d="M 1259 4147 
L 1259 519 
L 2022 519 
Q 2988 519 3436 956 
Q 3884 1394 3884 2338 
Q 3884 3275 3436 3711 
Q 2988 4147 2022 4147 
L 1259 4147 
z
M 628 4666 
L 1925 4666 
Q 3281 4666 3915 4102 
Q 4550 3538 4550 2338 
Q 4550 1131 3912 565 
Q 3275 0 1925 0 
L 628 0 
L 628 4666 
z
" transform="scale(0.015625)"/>
      <path id="DejaVuSans-63" d="M 3122 3366 
L 3122 2828 
Q 2878 2963 2633 3030 
Q 2388 3097 2138 3097 
Q 1578 3097 1268 2742 
Q 959 2388 959 1747 
Q 959 1106 1268 751 
Q 1578 397 2138 397 
Q 2388 397 2633 464 
Q 2878 531 3122 666 
L 3122 134 
Q 2881 22 2623 -34 
Q 2366 -91 2075 -91 
Q 1284 -91 818 406 
Q 353 903 353 1747 
Q 353 2603 823 3093 
Q 1294 3584 2113 3584 
Q 2378 3584 2631 3529 
Q 2884 3475 3122 3366 
z
" transform="scale(0.015625)"/>
      <path id="DejaVuSans-61" d="M 2194 1759 
Q 1497 1759 1228 1600 
Q 959 1441 959 1056 
Q 959 750 1161 570 
Q 1363 391 1709 391 
Q 2188 391 2477 730 
Q 2766 1069 2766 1631 
L 2766 1759 
L 2194 1759 
z
M 3341 1997 
L 3341 0 
L 2766 0 
L 2766 531 
Q 2569 213 2275 61 
Q 1981 -91 1556 -91 
Q 1019 -91 701 211 
Q 384 513 384 1019 
Q 384 1609 779 1909 
Q 1175 2209 1959 2209 
L 2766 2209 
L 2766 2266 
Q 2766 2663 2505 2880 
Q 2244 3097 1772 3097 
Q 1472 3097 1187 3025 
Q 903 2953 641 2809 
L 641 3341 
Q 956 3463 1253 3523 
Q 1550 3584 1831 3584 
Q 2591 3584 2966 3190 
Q 3341 2797 3341 1997 
z
" transform="scale(0.015625)"/>
      <path id="DejaVuSans-2d" d="M 313 2009 
L 1997 2009 
L 1997 1497 
L 313 1497 
L 313 2009 
z
" transform="scale(0.015625)"/>
      <path id="DejaVuSans-48" d="M 628 4666 
L 1259 4666 
L 1259 2753 
L 3553 2753 
L 3553 4666 
L 4184 4666 
L 4184 0 
L 3553 0 
L 3553 2222 
L 1259 2222 
L 1259 0 
L 628 0 
L 628 4666 
z
" transform="scale(0.015625)"/>
      <path id="DejaVuSans-7a" d="M 353 3500 
L 3084 3500 
L 3084 2975 
L 922 459 
L 3084 459 
L 3084 0 
L 275 0 
L 275 525 
L 2438 3041 
L 353 3041 
L 353 3500 
z
" transform="scale(0.015625)"/>
     </defs>
     <use xlink:href="#DejaVuSans-45"/>
     <use xlink:href="#DejaVuSans-6e" transform="translate(63.183594 0)"/>
     <use xlink:href="#DejaVuSans-65" transform="translate(126.5625 0)"/>
     <use xlink:href="#DejaVuSans-72" transform="translate(188.085938 0)"/>
     <use xlink:href="#DejaVuSans-67" transform="translate(227.449219 0)"/>
     <use xlink:href="#DejaVuSans-79" transform="translate(290.925781 0)"/>
     <use xlink:href="#DejaVuSans-20" transform="translate(350.105469 0)"/>
     <use xlink:href="#DejaVuSans-44" transform="translate(381.892578 0)"/>
     <use xlink:href="#DejaVuSans-65" transform="translate(458.894531 0)"/>
     <use xlink:href="#DejaVuSans-63" transform="translate(520.417969 0)"/>
     <use xlink:href="#DejaVuSans-61" transform="translate(575.398438 0)"/>
     <use xlink:href="#DejaVuSans-79" transform="translate(636.677734 0)"/>
     <use xlink:href="#DejaVuSans-20" transform="translate(695.857422 0)"/>
     <use xlink:href="#DejaVuSans-2d" transform="translate(727.644531 0)"/>
     <use xlink:href="#DejaVuSans-20" transform="translate(763.728516 0)"/>
     <use xlink:href="#DejaVuSans-32" transform="translate(795.515625 0)"/>
     <use xlink:href="#DejaVuSans-30" transform="translate(859.138672 0)"/>
     <use xlink:href="#DejaVuSans-30" transform="translate(922.761719 0)"/>
     <use xlink:href="#DejaVuSans-30" transform="translate(986.384766 0)"/>
     <use xlink:href="#DejaVuSans-20" transform="translate(1050.007812 0)"/>
     <use xlink:href="#DejaVuSans-48" transform="translate(1081.794922 0)"/>
     <use xlink:href="#DejaVuSans-7a" transform="translate(1156.990234 0)"/>
    </g>
   </g>
   <g id="legend_1">
    <g id="patch_7">
     <path d="M 296.968437 108.1845 
L 407.72 108.1845 
Q 409.72 108.1845 409.72 106.1845 
L 409.72 48.472 
Q 409.72 46.472 407.72 46.472 
L 296.968437 46.472 
Q 294.968437 46.472 294.968437 48.472 
L 294.968437 106.1845 
Q 294.968437 108.1845 296.968437 108.1845 
z
" style="fill: #ffffff; opacity: 0.8; stroke: #cccccc; stroke-linejoin: miter"/>
    </g>
    <g id="line2d_19">
     <path d="M 298.968437 54.570438 
L 308.968437 54.570438 
L 318.968437 54.570438 
" style="fill: none; stroke: #1f77b4; stroke-width: 1.5; stroke-linecap: square"/>
    </g>
    <g id="text_17">
     <!-- Energy -->
     <g transform="translate(326.968437 58.070438) scale(0.1 -0.1)">
      <use xlink:href="#DejaVuSans-45"/>
      <use xlink:href="#DejaVuSans-6e" transform="translate(63.183594 0)"/>
      <use xlink:href="#DejaVuSans-65" transform="translate(126.5625 0)"/>
      <use xlink:href="#DejaVuSans-72" transform="translate(188.085938 0)"/>
      <use xlink:href="#DejaVuSans-67" transform="translate(227.449219 0)"/>
      <use xlink:href="#DejaVuSans-79" transform="translate(290.925781 0)"/>
     </g>
    </g>
    <g id="line2d_20">
     <path d="M 298.968437 69.248563 
L 308.968437 69.248563 
L 318.968437 69.248563 
" style="fill: none; stroke-dasharray: 5.55,2.4; stroke-dashoffset: 0; stroke: #ff7f0e; stroke-width: 1.5"/>
    </g>
    <g id="text_18">
     <!-- Linear Fit -->
     <g transform="translate(326.968437 72.748563) scale(0.1 -0.1)">
      <defs>
       <path id="DejaVuSans-4c" d="M 628 4666 
L 1259 4666 
L 1259 531 
L 3531 531 
L 3531 0 
L 628 0 
L 628 4666 
z
" transform="scale(0.015625)"/>
       <path id="DejaVuSans-69" d="M 603 3500 
L 1178 3500 
L 1178 0 
L 603 0 
L 603 3500 
z
M 603 4863 
L 1178 4863 
L 1178 4134 
L 603 4134 
L 603 4863 
z
" transform="scale(0.015625)"/>
       <path id="DejaVuSans-46" d="M 628 4666 
L 3309 4666 
L 3309 4134 
L 1259 4134 
L 1259 2759 
L 3109 2759 
L 3109 2228 
L 1259 2228 
L 1259 0 
L 628 0 
L 628 4666 
z
" transform="scale(0.015625)"/>
       <path id="DejaVuSans-74" d="M 1172 4494 
L 1172 3500 
L 2356 3500 
L 2356 3053 
L 1172 3053 
L 1172 1153 
Q 1172 725 1289 603 
Q 1406 481 1766 481 
L 2356 481 
L 2356 0 
L 1766 0 
Q 1100 0 847 248 
Q 594 497 594 1153 
L 594 3053 
L 172 3053 
L 172 3500 
L 594 3500 
L 594 4494 
L 1172 4494 
z
" transform="scale(0.015625)"/>
      </defs>
      <use xlink:href="#DejaVuSans-4c"/>
      <use xlink:href="#DejaVuSans-69" transform="translate(55.712891 0)"/>
      <use xlink:href="#DejaVuSans-6e" transform="translate(83.496094 0)"/>
      <use xlink:href="#DejaVuSans-65" transform="translate(146.875 0)"/>
      <use xlink:href="#DejaVuSans-61" transform="translate(208.398438 0)"/>
      <use xlink:href="#DejaVuSans-72" transform="translate(269.677734 0)"/>
      <use xlink:href="#DejaVuSans-20" transform="translate(310.791016 0)"/>
      <use xlink:href="#DejaVuSans-46" transform="translate(342.578125 0)"/>
      <use xlink:href="#DejaVuSans-69" transform="translate(392.847656 0)"/>
      <use xlink:href="#DejaVuSans-74" transform="translate(420.630859 0)"/>
     </g>
    </g>
    <g id="line2d_21">
     <path d="M 298.968437 83.926688 
L 308.968437 83.926688 
L 318.968437 83.926688 
" style="fill: none; stroke-dasharray: 5.55,2.4; stroke-dashoffset: 0; stroke: #2ca02c; stroke-width: 1.5"/>
    </g>
    <g id="text_19">
     <!-- -60 dB -->
     <g transform="translate(326.968437 87.426688) scale(0.1 -0.1)">
      <defs>
       <path id="DejaVuSans-64" d="M 2906 2969 
L 2906 4863 
L 3481 4863 
L 3481 0 
L 2906 0 
L 2906 525 
Q 2725 213 2448 61 
Q 2172 -91 1784 -91 
Q 1150 -91 751 415 
Q 353 922 353 1747 
Q 353 2572 751 3078 
Q 1150 3584 1784 3584 
Q 2172 3584 2448 3432 
Q 2725 3281 2906 2969 
z
M 947 1747 
Q 947 1113 1208 752 
Q 1469 391 1925 391 
Q 2381 391 2643 752 
Q 2906 1113 2906 1747 
Q 2906 2381 2643 2742 
Q 2381 3103 1925 3103 
Q 1469 3103 1208 2742 
Q 947 2381 947 1747 
z
" transform="scale(0.015625)"/>
       <path id="DejaVuSans-42" d="M 1259 2228 
L 1259 519 
L 2272 519 
Q 2781 519 3026 730 
Q 3272 941 3272 1375 
Q 3272 1813 3026 2020 
Q 2781 2228 2272 2228 
L 1259 2228 
z
M 1259 4147 
L 1259 2741 
L 2194 2741 
Q 2656 2741 2882 2914 
Q 3109 3088 3109 3444 
Q 3109 3797 2882 3972 
Q 2656 4147 2194 4147 
L 1259 4147 
z
M 628 4666 
L 2241 4666 
Q 2963 4666 3353 4366 
Q 3744 4066 3744 3513 
Q 3744 3084 3544 2831 
Q 3344 2578 2956 2516 
Q 3422 2416 3680 2098 
Q 3938 1781 3938 1306 
Q 3938 681 3513 340 
Q 3088 0 2303 0 
L 628 0 
L 628 4666 
z
" transform="scale(0.015625)"/>
      </defs>
      <use xlink:href="#DejaVuSans-2d"/>
      <use xlink:href="#DejaVuSans-36" transform="translate(36.083984 0)"/>
      <use xlink:href="#DejaVuSans-30" transform="translate(99.707031 0)"/>
      <use xlink:href="#DejaVuSans-20" transform="translate(163.330078 0)"/>
      <use xlink:href="#DejaVuSans-64" transform="translate(195.117188 0)"/>
      <use xlink:href="#DejaVuSans-42" transform="translate(258.59375 0)"/>
     </g>
    </g>
    <g id="line2d_22">
     <path d="M 298.968437 98.604813 
L 318.968437 98.604813 
" style="fill: none; stroke-dasharray: 5.55,2.4; stroke-dashoffset: 0; stroke: #1f77b4; stroke-width: 1.5"/>
    </g>
    <g id="text_20">
     <!-- Estimated RT60 -->
     <g transform="translate(326.968437 102.104813) scale(0.1 -0.1)">
      <defs>
       <path id="DejaVuSans-73" d="M 2834 3397 
L 2834 2853 
Q 2591 2978 2328 3040 
Q 2066 3103 1784 3103 
Q 1356 3103 1142 2972 
Q 928 2841 928 2578 
Q 928 2378 1081 2264 
Q 1234 2150 1697 2047 
L 1894 2003 
Q 2506 1872 2764 1633 
Q 3022 1394 3022 966 
Q 3022 478 2636 193 
Q 2250 -91 1575 -91 
Q 1294 -91 989 -36 
Q 684 19 347 128 
L 347 722 
Q 666 556 975 473 
Q 1284 391 1588 391 
Q 1994 391 2212 530 
Q 2431 669 2431 922 
Q 2431 1156 2273 1281 
Q 2116 1406 1581 1522 
L 1381 1569 
Q 847 1681 609 1914 
Q 372 2147 372 2553 
Q 372 3047 722 3315 
Q 1072 3584 1716 3584 
Q 2034 3584 2315 3537 
Q 2597 3491 2834 3397 
z
" transform="scale(0.015625)"/>
       <path id="DejaVuSans-6d" d="M 3328 2828 
Q 3544 3216 3844 3400 
Q 4144 3584 4550 3584 
Q 5097 3584 5394 3201 
Q 5691 2819 5691 2113 
L 5691 0 
L 5113 0 
L 5113 2094 
Q 5113 2597 4934 2840 
Q 4756 3084 4391 3084 
Q 3944 3084 3684 2787 
Q 3425 2491 3425 1978 
L 3425 0 
L 2847 0 
L 2847 2094 
Q 2847 2600 2669 2842 
Q 2491 3084 2119 3084 
Q 1678 3084 1418 2786 
Q 1159 2488 1159 1978 
L 1159 0 
L 581 0 
L 581 3500 
L 1159 3500 
L 1159 2956 
Q 1356 3278 1631 3431 
Q 1906 3584 2284 3584 
Q 2666 3584 2933 3390 
Q 3200 3197 3328 2828 
z
" transform="scale(0.015625)"/>
       <path id="DejaVuSans-52" d="M 2841 2188 
Q 3044 2119 3236 1894 
Q 3428 1669 3622 1275 
L 4263 0 
L 3584 0 
L 2988 1197 
Q 2756 1666 2539 1819 
Q 2322 1972 1947 1972 
L 1259 1972 
L 1259 0 
L 628 0 
L 628 4666 
L 2053 4666 
Q 2853 4666 3247 4331 
Q 3641 3997 3641 3322 
Q 3641 2881 3436 2590 
Q 3231 2300 2841 2188 
z
M 1259 4147 
L 1259 2491 
L 2053 2491 
Q 2509 2491 2742 2702 
Q 2975 2913 2975 3322 
Q 2975 3731 2742 3939 
Q 2509 4147 2053 4147 
L 1259 4147 
z
" transform="scale(0.015625)"/>
       <path id="DejaVuSans-54" d="M -19 4666 
L 3928 4666 
L 3928 4134 
L 2272 4134 
L 2272 0 
L 1638 0 
L 1638 4134 
L -19 4134 
L -19 4666 
z
" transform="scale(0.015625)"/>
      </defs>
      <use xlink:href="#DejaVuSans-45"/>
      <use xlink:href="#DejaVuSans-73" transform="translate(63.183594 0)"/>
      <use xlink:href="#DejaVuSans-74" transform="translate(115.283203 0)"/>
      <use xlink:href="#DejaVuSans-69" transform="translate(154.492188 0)"/>
      <use xlink:href="#DejaVuSans-6d" transform="translate(182.275391 0)"/>
      <use xlink:href="#DejaVuSans-61" transform="translate(279.6875 0)"/>
      <use xlink:href="#DejaVuSans-74" transform="translate(340.966797 0)"/>
      <use xlink:href="#DejaVuSans-65" transform="translate(380.175781 0)"/>
      <use xlink:href="#DejaVuSans-64" transform="translate(441.699219 0)"/>
      <use xlink:href="#DejaVuSans-20" transform="translate(505.175781 0)"/>
      <use xlink:href="#DejaVuSans-52" transform="translate(536.962891 0)"/>
      <use xlink:href="#DejaVuSans-54" transform="translate(599.195312 0)"/>
      <use xlink:href="#DejaVuSans-36" transform="translate(660.279297 0)"/>
      <use xlink:href="#DejaVuSans-30" transform="translate(723.902344 0)"/>
     </g>
    </g>
   </g>
  </g>
 </g>
 <defs>
  <clipPath id="p2c6fff0330">
   <rect x="57.6" y="41.472" width="357.12" height="266.112"/>
  </clipPath>
 </defs>
</svg>
