<?xml version="1.0" encoding="utf-8" standalone="no"?>
<!DOCTYPE svg PUBLIC "-//W3C//DTD SVG 1.1//EN"
  "http://www.w3.org/Graphics/SVG/1.1/DTD/svg11.dtd">
<svg xmlns:xlink="http://www.w3.org/1999/xlink" width="460.8pt" height="345.6pt" viewBox="0 0 460.8 345.6" xmlns="http://www.w3.org/2000/svg" version="1.1">
 <metadata>
  <rdf:RDF xmlns:dc="http://purl.org/dc/elements/1.1/" xmlns:cc="http://creativecommons.org/ns#" xmlns:rdf="http://www.w3.org/1999/02/22-rdf-syntax-ns#">
   <cc:Work>
    <dc:type rdf:resource="http://purl.org/dc/dcmitype/StillImage"/>
    <dc:date>2025-05-07T14:32:02.950160</dc:date>
    <dc:format>image/svg+xml</dc:format>
    <dc:creator>
     <cc:Agent>
      <dc:title>Matplotlib v3.10.1, https://matplotlib.org/</dc:title>
     </cc:Agent>
    </dc:creator>
   </cc:Work>
  </rdf:RDF>
 </metadata>
 <defs>
  <style type="text/css">*{stroke-linejoin: round; stroke-linecap: butt}</style>
 </defs>
 <g id="figure_1">
  <g id="patch_1">
   <path d="M 0 345.6 
L 460.8 345.6 
L 460.8 0 
L 0 0 
z
" style="fill: #ffffff"/>
  </g>
  <g id="axes_1">
   <g id="patch_2">
    <path d="M 57.6 307.584 
L 414.72 307.584 
L 414.72 41.472 
L 57.6 41.472 
z
" style="fill: #ffffff"/>
   </g>
   <g id="matplotlib.axis_1">
    <g id="xtick_1">
     <g id="line2d_1">
      <defs>
       <path id="mde7bb616ff" d="M 0 0 
L 0 3.5 
" style="stroke: #000000; stroke-width: 0.8"/>
      </defs>
      <g>
       <use xlink:href="#mde7bb616ff" x="73.178909" y="307.584" style="stroke: #000000; stroke-width: 0.8"/>
      </g>
     </g>
     <g id="text_1">
      <!-- −0.2 -->
      <g transform="translate(61.037503 322.182437) scale(0.1 -0.1)">
       <defs>
        <path id="DejaVuSans-2212" d="M 678 2272 
L 4684 2272 
L 4684 1741 
L 678 1741 
L 678 2272 
z
" transform="scale(0.015625)"/>
        <path id="DejaVuSans-30" d="M 2034 4250 
Q 1547 4250 1301 3770 
Q 1056 3291 1056 2328 
Q 1056 1369 1301 889 
Q 1547 409 2034 409 
Q 2525 409 2770 889 
Q 3016 1369 3016 2328 
Q 3016 3291 2770 3770 
Q 2525 4250 2034 4250 
z
M 2034 4750 
Q 2819 4750 3233 4129 
Q 3647 3509 3647 2328 
Q 3647 1150 3233 529 
Q 2819 -91 2034 -91 
Q 1250 -91 836 529 
Q 422 1150 422 2328 
Q 422 3509 836 4129 
Q 1250 4750 2034 4750 
z
" transform="scale(0.015625)"/>
        <path id="DejaVuSans-2e" d="M 684 794 
L 1344 794 
L 1344 0 
L 684 0 
L 684 794 
z
" transform="scale(0.015625)"/>
        <path id="DejaVuSans-32" d="M 1228 531 
L 3431 531 
L 3431 0 
L 469 0 
L 469 531 
Q 828 903 1448 1529 
Q 2069 2156 2228 2338 
Q 2531 2678 2651 2914 
Q 2772 3150 2772 3378 
Q 2772 3750 2511 3984 
Q 2250 4219 1831 4219 
Q 1534 4219 1204 4116 
Q 875 4013 500 3803 
L 500 4441 
Q 881 4594 1212 4672 
Q 1544 4750 1819 4750 
Q 2544 4750 2975 4387 
Q 3406 4025 3406 3419 
Q 3406 3131 3298 2873 
Q 3191 2616 2906 2266 
Q 2828 2175 2409 1742 
Q 1991 1309 1228 531 
z
" transform="scale(0.015625)"/>
       </defs>
       <use xlink:href="#DejaVuSans-2212"/>
       <use xlink:href="#DejaVuSans-30" transform="translate(83.789062 0)"/>
       <use xlink:href="#DejaVuSans-2e" transform="translate(147.412109 0)"/>
       <use xlink:href="#DejaVuSans-32" transform="translate(179.199219 0)"/>
      </g>
     </g>
    </g>
    <g id="xtick_2">
     <g id="line2d_2">
      <g>
       <use xlink:href="#mde7bb616ff" x="127.288" y="307.584" style="stroke: #000000; stroke-width: 0.8"/>
      </g>
     </g>
     <g id="text_2">
      <!-- 0.0 -->
      <g transform="translate(119.336438 322.182437) scale(0.1 -0.1)">
       <use xlink:href="#DejaVuSans-30"/>
       <use xlink:href="#DejaVuSans-2e" transform="translate(63.623047 0)"/>
       <use xlink:href="#DejaVuSans-30" transform="translate(95.410156 0)"/>
      </g>
     </g>
    </g>
    <g id="xtick_3">
     <g id="line2d_3">
      <g>
       <use xlink:href="#mde7bb616ff" x="181.397091" y="307.584" style="stroke: #000000; stroke-width: 0.8"/>
      </g>
     </g>
     <g id="text_3">
      <!-- 0.2 -->
      <g transform="translate(173.445528 322.182437) scale(0.1 -0.1)">
       <use xlink:href="#DejaVuSans-30"/>
       <use xlink:href="#DejaVuSans-2e" transform="translate(63.623047 0)"/>
       <use xlink:href="#DejaVuSans-32" transform="translate(95.410156 0)"/>
      </g>
     </g>
    </g>
    <g id="xtick_4">
     <g id="line2d_4">
      <g>
       <use xlink:href="#mde7bb616ff" x="235.506182" y="307.584" style="stroke: #000000; stroke-width: 0.8"/>
      </g>
     </g>
     <g id="text_4">
      <!-- 0.4 -->
      <g transform="translate(227.554619 322.182437) scale(0.1 -0.1)">
       <defs>
        <path id="DejaVuSans-34" d="M 2419 4116 
L 825 1625 
L 2419 1625 
L 2419 4116 
z
M 2253 4666 
L 3047 4666 
L 3047 1625 
L 3713 1625 
L 3713 1100 
L 3047 1100 
L 3047 0 
L 2419 0 
L 2419 1100 
L 313 1100 
L 313 1709 
L 2253 4666 
z
" transform="scale(0.015625)"/>
       </defs>
       <use xlink:href="#DejaVuSans-30"/>
       <use xlink:href="#DejaVuSans-2e" transform="translate(63.623047 0)"/>
       <use xlink:href="#DejaVuSans-34" transform="translate(95.410156 0)"/>
      </g>
     </g>
    </g>
    <g id="xtick_5">
     <g id="line2d_5">
      <g>
       <use xlink:href="#mde7bb616ff" x="289.615273" y="307.584" style="stroke: #000000; stroke-width: 0.8"/>
      </g>
     </g>
     <g id="text_5">
      <!-- 0.6 -->
      <g transform="translate(281.66371 322.182437) scale(0.1 -0.1)">
       <defs>
        <path id="DejaVuSans-36" d="M 2113 2584 
Q 1688 2584 1439 2293 
Q 1191 2003 1191 1497 
Q 1191 994 1439 701 
Q 1688 409 2113 409 
Q 2538 409 2786 701 
Q 3034 994 3034 1497 
Q 3034 2003 2786 2293 
Q 2538 2584 2113 2584 
z
M 3366 4563 
L 3366 3988 
Q 3128 4100 2886 4159 
Q 2644 4219 2406 4219 
Q 1781 4219 1451 3797 
Q 1122 3375 1075 2522 
Q 1259 2794 1537 2939 
Q 1816 3084 2150 3084 
Q 2853 3084 3261 2657 
Q 3669 2231 3669 1497 
Q 3669 778 3244 343 
Q 2819 -91 2113 -91 
Q 1303 -91 875 529 
Q 447 1150 447 2328 
Q 447 3434 972 4092 
Q 1497 4750 2381 4750 
Q 2619 4750 2861 4703 
Q 3103 4656 3366 4563 
z
" transform="scale(0.015625)"/>
       </defs>
       <use xlink:href="#DejaVuSans-30"/>
       <use xlink:href="#DejaVuSans-2e" transform="translate(63.623047 0)"/>
       <use xlink:href="#DejaVuSans-36" transform="translate(95.410156 0)"/>
      </g>
     </g>
    </g>
    <g id="xtick_6">
     <g id="line2d_6">
      <g>
       <use xlink:href="#mde7bb616ff" x="343.724364" y="307.584" style="stroke: #000000; stroke-width: 0.8"/>
      </g>
     </g>
     <g id="text_6">
      <!-- 0.8 -->
      <g transform="translate(335.772801 322.182437) scale(0.1 -0.1)">
       <defs>
        <path id="DejaVuSans-38" d="M 2034 2216 
Q 1584 2216 1326 1975 
Q 1069 1734 1069 1313 
Q 1069 891 1326 650 
Q 1584 409 2034 409 
Q 2484 409 2743 651 
Q 3003 894 3003 1313 
Q 3003 1734 2745 1975 
Q 2488 2216 2034 2216 
z
M 1403 2484 
Q 997 2584 770 2862 
Q 544 3141 544 3541 
Q 544 4100 942 4425 
Q 1341 4750 2034 4750 
Q 2731 4750 3128 4425 
Q 3525 4100 3525 3541 
Q 3525 3141 3298 2862 
Q 3072 2584 2669 2484 
Q 3125 2378 3379 2068 
Q 3634 1759 3634 1313 
Q 3634 634 3220 271 
Q 2806 -91 2034 -91 
Q 1263 -91 848 271 
Q 434 634 434 1313 
Q 434 1759 690 2068 
Q 947 2378 1403 2484 
z
M 1172 3481 
Q 1172 3119 1398 2916 
Q 1625 2713 2034 2713 
Q 2441 2713 2670 2916 
Q 2900 3119 2900 3481 
Q 2900 3844 2670 4047 
Q 2441 4250 2034 4250 
Q 1625 4250 1398 4047 
Q 1172 3844 1172 3481 
z
" transform="scale(0.015625)"/>
       </defs>
       <use xlink:href="#DejaVuSans-30"/>
       <use xlink:href="#DejaVuSans-2e" transform="translate(63.623047 0)"/>
       <use xlink:href="#DejaVuSans-38" transform="translate(95.410156 0)"/>
      </g>
     </g>
    </g>
    <g id="xtick_7">
     <g id="line2d_7">
      <g>
       <use xlink:href="#mde7bb616ff" x="397.833455" y="307.584" style="stroke: #000000; stroke-width: 0.8"/>
      </g>
     </g>
     <g id="text_7">
      <!-- 1.0 -->
      <g transform="translate(389.881892 322.182437) scale(0.1 -0.1)">
       <defs>
        <path id="DejaVuSans-31" d="M 794 531 
L 1825 531 
L 1825 4091 
L 703 3866 
L 703 4441 
L 1819 4666 
L 2450 4666 
L 2450 531 
L 3481 531 
L 3481 0 
L 794 0 
L 794 531 
z
" transform="scale(0.015625)"/>
       </defs>
       <use xlink:href="#DejaVuSans-31"/>
       <use xlink:href="#DejaVuSans-2e" transform="translate(63.623047 0)"/>
       <use xlink:href="#DejaVuSans-30" transform="translate(95.410156 0)"/>
      </g>
     </g>
    </g>
   </g>
   <g id="matplotlib.axis_2">
    <g id="ytick_1">
     <g id="line2d_8">
      <defs>
       <path id="m8b6508e1f0" d="M 0 0 
L -3.5 0 
" style="stroke: #000000; stroke-width: 0.8"/>
      </defs>
      <g>
       <use xlink:href="#m8b6508e1f0" x="57.6" y="288.183239" style="stroke: #000000; stroke-width: 0.8"/>
      </g>
     </g>
     <g id="text_8">
      <!-- −175 -->
      <g transform="translate(23.132812 291.982458) scale(0.1 -0.1)">
       <defs>
        <path id="DejaVuSans-37" d="M 525 4666 
L 3525 4666 
L 3525 4397 
L 1831 0 
L 1172 0 
L 2766 4134 
L 525 4134 
L 525 4666 
z
" transform="scale(0.015625)"/>
        <path id="DejaVuSans-35" d="M 691 4666 
L 3169 4666 
L 3169 4134 
L 1269 4134 
L 1269 2991 
Q 1406 3038 1543 3061 
Q 1681 3084 1819 3084 
Q 2600 3084 3056 2656 
Q 3513 2228 3513 1497 
Q 3513 744 3044 326 
Q 2575 -91 1722 -91 
Q 1428 -91 1123 -41 
Q 819 9 494 109 
L 494 744 
Q 775 591 1075 516 
Q 1375 441 1709 441 
Q 2250 441 2565 725 
Q 2881 1009 2881 1497 
Q 2881 1984 2565 2268 
Q 2250 2553 1709 2553 
Q 1456 2553 1204 2497 
Q 953 2441 691 2322 
L 691 4666 
z
" transform="scale(0.015625)"/>
       </defs>
       <use xlink:href="#DejaVuSans-2212"/>
       <use xlink:href="#DejaVuSans-31" transform="translate(83.789062 0)"/>
       <use xlink:href="#DejaVuSans-37" transform="translate(147.412109 0)"/>
       <use xlink:href="#DejaVuSans-35" transform="translate(211.035156 0)"/>
      </g>
     </g>
    </g>
    <g id="ytick_2">
     <g id="line2d_9">
      <g>
       <use xlink:href="#m8b6508e1f0" x="57.6" y="254.666777" style="stroke: #000000; stroke-width: 0.8"/>
      </g>
     </g>
     <g id="text_9">
      <!-- −150 -->
      <g transform="translate(23.132812 258.465995) scale(0.1 -0.1)">
       <use xlink:href="#DejaVuSans-2212"/>
       <use xlink:href="#DejaVuSans-31" transform="translate(83.789062 0)"/>
       <use xlink:href="#DejaVuSans-35" transform="translate(147.412109 0)"/>
       <use xlink:href="#DejaVuSans-30" transform="translate(211.035156 0)"/>
      </g>
     </g>
    </g>
    <g id="ytick_3">
     <g id="line2d_10">
      <g>
       <use xlink:href="#m8b6508e1f0" x="57.6" y="221.150314" style="stroke: #000000; stroke-width: 0.8"/>
      </g>
     </g>
     <g id="text_10">
      <!-- −125 -->
      <g transform="translate(23.132812 224.949533) scale(0.1 -0.1)">
       <use xlink:href="#DejaVuSans-2212"/>
       <use xlink:href="#DejaVuSans-31" transform="translate(83.789062 0)"/>
       <use xlink:href="#DejaVuSans-32" transform="translate(147.412109 0)"/>
       <use xlink:href="#DejaVuSans-35" transform="translate(211.035156 0)"/>
      </g>
     </g>
    </g>
    <g id="ytick_4">
     <g id="line2d_11">
      <g>
       <use xlink:href="#m8b6508e1f0" x="57.6" y="187.633851" style="stroke: #000000; stroke-width: 0.8"/>
      </g>
     </g>
     <g id="text_11">
      <!-- −100 -->
      <g transform="translate(23.132812 191.43307) scale(0.1 -0.1)">
       <use xlink:href="#DejaVuSans-2212"/>
       <use xlink:href="#DejaVuSans-31" transform="translate(83.789062 0)"/>
       <use xlink:href="#DejaVuSans-30" transform="translate(147.412109 0)"/>
       <use xlink:href="#DejaVuSans-30" transform="translate(211.035156 0)"/>
      </g>
     </g>
    </g>
    <g id="ytick_5">
     <g id="line2d_12">
      <g>
       <use xlink:href="#m8b6508e1f0" x="57.6" y="154.117388" style="stroke: #000000; stroke-width: 0.8"/>
      </g>
     </g>
     <g id="text_12">
      <!-- −75 -->
      <g transform="translate(29.495313 157.916607) scale(0.1 -0.1)">
       <use xlink:href="#DejaVuSans-2212"/>
       <use xlink:href="#DejaVuSans-37" transform="translate(83.789062 0)"/>
       <use xlink:href="#DejaVuSans-35" transform="translate(147.412109 0)"/>
      </g>
     </g>
    </g>
    <g id="ytick_6">
     <g id="line2d_13">
      <g>
       <use xlink:href="#m8b6508e1f0" x="57.6" y="120.600926" style="stroke: #000000; stroke-width: 0.8"/>
      </g>
     </g>
     <g id="text_13">
      <!-- −50 -->
      <g transform="translate(29.495313 124.400144) scale(0.1 -0.1)">
       <use xlink:href="#DejaVuSans-2212"/>
       <use xlink:href="#DejaVuSans-35" transform="translate(83.789062 0)"/>
       <use xlink:href="#DejaVuSans-30" transform="translate(147.412109 0)"/>
      </g>
     </g>
    </g>
    <g id="ytick_7">
     <g id="line2d_14">
      <g>
       <use xlink:href="#m8b6508e1f0" x="57.6" y="87.084463" style="stroke: #000000; stroke-width: 0.8"/>
      </g>
     </g>
     <g id="text_14">
      <!-- −25 -->
      <g transform="translate(29.495313 90.883682) scale(0.1 -0.1)">
       <use xlink:href="#DejaVuSans-2212"/>
       <use xlink:href="#DejaVuSans-32" transform="translate(83.789062 0)"/>
       <use xlink:href="#DejaVuSans-35" transform="translate(147.412109 0)"/>
      </g>
     </g>
    </g>
    <g id="ytick_8">
     <g id="line2d_15">
      <g>
       <use xlink:href="#m8b6508e1f0" x="57.6" y="53.568" style="stroke: #000000; stroke-width: 0.8"/>
      </g>
     </g>
     <g id="text_15">
      <!-- 0 -->
      <g transform="translate(44.2375 57.367219) scale(0.1 -0.1)">
       <use xlink:href="#DejaVuSans-30"/>
      </g>
     </g>
    </g>
   </g>
   <g id="line2d_16">
    <path d="M 73.832727 53.568 
L 118.376909 53.676747 
L 119.182909 54.411344 
L 119.797273 54.565705 
L 120.084727 54.738836 
L 120.400364 54.887959 
L 120.648364 55.011852 
L 120.913273 55.125362 
L 121.155636 55.454118 
L 121.296545 55.753943 
L 122.147636 56.575807 
L 122.333636 56.799929 
L 122.773273 56.914796 
L 122.824 57.027896 
L 122.970545 57.253185 
L 123.376364 57.518287 
L 123.573636 57.623238 
L 123.832909 57.728348 
L 124.475455 58.447503 
L 124.875636 58.754934 
L 125.185636 58.899227 
L 125.439273 59.241806 
L 125.568909 59.345704 
L 126.183273 59.556538 
L 126.448182 59.793653 
L 126.668 59.90347 
L 127.383818 60.368984 
L 127.581091 60.526446 
L 127.868545 60.64482 
L 128.195455 60.88874 
L 128.854909 61.296149 
L 129.221273 61.467408 
L 129.379091 61.676754 
L 130.224545 62.382358 
L 130.461273 62.496304 
L 130.652909 62.752778 
L 132.259273 63.585263 
L 132.687636 63.699331 
L 132.817273 63.744927 
L 133.003273 63.861153 
L 133.178 63.974946 
L 133.426 64.122543 
L 133.775455 64.377946 
L 133.927636 64.447853 
L 134.446182 64.562132 
L 134.660364 64.741942 
L 134.852 65.196355 
L 135.021091 65.320133 
L 135.455091 65.683815 
L 135.72 65.794223 
L 136.013091 65.953896 
L 136.418909 66.067928 
L 137.157273 66.402642 
L 137.568727 66.558545 
L 137.709636 66.602355 
L 138.402909 66.83167 
L 138.577636 67.002311 
L 139.124364 67.339669 
L 139.344182 67.438394 
L 139.507636 67.574796 
L 139.682364 67.683028 
L 139.885273 67.832916 
L 140.544727 68.289124 
L 140.888545 68.435499 
L 141.407091 68.702226 
L 141.593091 68.862466 
L 141.818545 68.993462 
L 141.976364 69.05943 
L 142.404727 69.166955 
L 142.821818 69.488225 
L 143.019091 69.602855 
L 143.588364 69.882552 
L 144.608545 70.189411 
L 144.817091 70.297426 
L 145.059455 70.406086 
L 145.578 70.754973 
L 145.966909 70.898563 
L 146.789818 71.245337 
L 147.302727 71.410624 
L 147.539455 71.633113 
L 147.877636 71.72861 
L 149.202182 72.090123 
L 149.371273 72.170862 
L 149.918 72.352415 
L 150.104 72.484879 
L 150.616909 72.596853 
L 151.693455 73.009723 
L 151.851273 73.103926 
L 152.138727 73.278495 
L 152.336 73.408026 
L 153.034909 73.596844 
L 153.457636 73.79942 
L 153.604182 73.91721 
L 153.790182 74.052827 
L 154.460909 74.18237 
L 154.590545 74.326591 
L 154.742727 74.381319 
L 156.123636 74.820659 
L 156.320909 74.9118 
L 156.687273 75.053359 
L 157.245273 75.164318 
L 157.628545 75.275293 
L 158.299273 75.538634 
L 158.744545 75.698047 
L 159.020727 75.889974 
L 159.263091 76.023768 
L 159.612545 76.131574 
L 160.057818 76.293681 
L 160.300182 76.405331 
L 160.796182 76.840883 
L 161.540182 77.033296 
L 166.207091 78.172258 
L 166.348 78.231281 
L 166.477636 78.341625 
L 166.624182 78.451814 
L 166.877818 78.500471 
L 167.137091 78.616765 
L 167.356909 78.730903 
L 167.954364 78.891997 
L 168.591273 79.006673 
L 169.059091 79.113853 
L 169.459273 79.375242 
L 169.735455 79.489474 
L 169.904545 79.535526 
L 170.693636 79.695644 
L 171.071273 79.851124 
L 171.246 79.886055 
L 171.708182 80.007281 
L 171.911091 80.246649 
L 174.881455 81.132032 
L 175.033636 81.175999 
L 175.388727 81.282056 
L 175.586 81.355253 
L 175.879091 81.465546 
L 176.053818 81.501254 
L 176.544182 81.615545 
L 176.769636 81.727339 
L 176.95 81.839923 
L 177.181091 81.916321 
L 177.806727 82.098917 
L 178.252 82.266871 
L 178.550727 82.473433 
L 178.939636 82.58438 
L 179.373636 82.792703 
L 179.802 82.90759 
L 179.971091 83.101709 
L 180.461455 83.32668 
L 180.675636 83.472896 
L 181.442182 83.618383 
L 181.881818 83.836872 
L 182.422909 83.968381 
L 182.580727 84.142848 
L 182.969636 84.263868 
L 183.133091 84.375008 
L 184.745091 84.87802 
L 185.331273 85.013976 
L 185.799091 85.268865 
L 185.996364 85.379273 
L 186.142909 85.472019 
L 186.672727 85.582302 
L 189.135818 86.573458 
L 189.389455 86.684374 
L 190.071455 86.860056 
L 190.291273 86.978489 
L 190.505455 87.048642 
L 190.984545 87.310454 
L 191.131091 87.384409 
L 191.728545 87.495682 
L 192.010364 87.653641 
L 192.280909 87.698797 
L 192.562727 87.807677 
L 192.776909 87.836532 
L 193.340545 87.973985 
L 193.487091 88.102941 
L 194.186 88.301537 
L 194.411455 88.400681 
L 194.738364 88.47704 
L 195.082182 88.601024 
L 195.612 88.862228 
L 195.792364 89.069657 
L 196.367273 89.255903 
L 196.761818 89.67863 
L 197.263455 89.795898 
L 198.108909 90.104042 
L 198.283636 90.173997 
L 198.526 90.298558 
L 199.850545 90.748634 
L 200.171818 90.825449 
L 200.735455 90.938163 
L 203.435273 91.910583 
L 204.173636 92.033886 
L 204.804909 92.243366 
L 205.171273 92.353421 
L 205.475636 92.541587 
L 205.870182 92.654508 
L 206.817091 93.052129 
L 207.256727 93.198003 
L 207.414545 93.302277 
L 207.611818 93.366629 
L 208.248727 93.543751 
L 209.939636 94.31783 
L 213.011455 95.205077 
L 213.186182 95.282814 
L 213.710364 95.436854 
L 214.290909 95.669598 
L 214.443091 95.710992 
L 214.668545 95.822632 
L 214.820727 95.89312 
L 215.508364 96.009024 
L 215.857818 96.269828 
L 216.635636 96.42646 
L 217.013273 96.554369 
L 217.678364 96.712652 
L 218.027818 96.820507 
L 218.168727 96.865967 
L 219.504545 97.491745 
L 220.175273 97.660618 
L 220.366909 97.691392 
L 220.908 97.81044 
L 222.052182 98.209804 
L 222.469273 98.339328 
L 223.297818 98.656003 
L 223.951636 98.766174 
L 224.357455 98.816585 
L 224.825273 98.935346 
L 225.045091 98.989225 
L 225.924364 99.255263 
L 226.178 99.326207 
L 226.578182 99.457938 
L 227.288364 99.627518 
L 228.139455 99.73799 
L 228.556545 99.869814 
L 228.810182 99.981944 
L 228.968 100.132738 
L 230.247455 100.4615 
L 230.574364 100.527149 
L 231.278909 100.809281 
L 231.436727 100.855689 
L 233.691273 101.445285 
L 234.192909 101.723983 
L 234.858 101.847598 
L 235.038364 101.938675 
L 235.675273 102.079922 
L 235.957091 102.209658 
L 236.616545 102.331813 
L 237.360545 102.563863 
L 237.529636 102.625664 
L 238.144 102.758751 
L 238.296182 102.828055 
L 240.066 103.347935 
L 240.618364 103.523139 
L 240.877636 103.559527 
L 241.576545 103.803948 
L 242.128909 104.000731 
L 242.275455 104.114103 
L 242.613636 104.191594 
L 242.974364 104.302089 
L 243.740909 104.499059 
L 244.062182 104.606923 
L 244.524364 104.791909 
L 245.369818 104.911659 
L 246.728182 105.187184 
L 247.32 105.316881 
L 247.494727 105.371189 
L 252.353273 106.65311 
L 252.860545 106.765745 
L 253.660909 106.983253 
L 253.914545 107.074632 
L 254.286545 107.187828 
L 254.483818 107.221241 
L 254.912182 107.333672 
L 255.425091 107.485014 
L 255.599818 107.637954 
L 256.304364 107.76116 
L 258.519455 108.579183 
L 258.919636 108.694975 
L 259.178909 108.837112 
L 259.387455 108.947666 
L 259.911636 109.058868 
L 260.717636 109.195388 
L 261.005091 109.372463 
L 261.388364 109.488751 
L 262.560727 109.817423 
L 262.803091 109.864723 
L 263.862727 110.180256 
L 264.093818 110.277017 
L 264.324909 110.388211 
L 265.672 110.722049 
L 265.993273 110.831262 
L 266.213091 110.976926 
L 267.148727 111.34071 
L 267.509455 111.464802 
L 268.022364 111.617688 
L 268.360545 111.694668 
L 268.738182 111.839639 
L 268.929818 111.90334 
L 269.397636 112.029913 
L 269.589273 112.309932 
L 271.19 112.593109 
L 271.691636 112.70825 
L 272.565273 113.160085 
L 273.484 113.365645 
L 273.675636 113.441859 
L 274.177273 113.551978 
L 274.385818 113.593513 
L 274.678909 113.701813 
L 274.966364 113.823414 
L 275.315818 113.945735 
L 275.834364 114.074362 
L 277.023636 114.404565 
L 277.181455 114.490562 
L 278.196 114.775112 
L 279.430364 115.019208 
L 279.943273 115.148292 
L 281.166364 115.526582 
L 281.431273 115.663989 
L 281.792 115.737852 
L 282.417636 115.851988 
L 283.871818 116.128303 
L 284.52 116.237702 
L 284.745455 116.293755 
L 285.788182 116.520803 
L 286.047455 116.68585 
L 290.280364 117.660596 
L 290.488909 117.709508 
L 291.441455 117.869996 
L 293.842545 118.575316 
L 295.353091 118.872085 
L 295.674364 119.040065 
L 295.820909 119.163642 
L 295.967455 119.200239 
L 296.993273 119.409378 
L 297.483636 119.510681 
L 297.895091 119.638312 
L 298.137455 119.686198 
L 298.723636 119.806917 
L 299.101273 119.872609 
L 299.552182 119.988551 
L 300.008727 120.066351 
L 300.589273 120.224174 
L 300.786545 120.299687 
L 301.023273 120.41726 
L 301.254364 120.572384 
L 302.020909 120.693363 
L 302.522545 120.803239 
L 302.804364 120.94958 
L 303.914727 121.284354 
L 304.884182 121.617343 
L 305.053273 121.682797 
L 305.549273 121.840971 
L 305.825455 121.974924 
L 306.327091 122.089842 
L 306.541273 122.290158 
L 306.693455 122.361314 
L 308.181455 122.795722 
L 308.598545 123.024595 
L 309.494727 123.31947 
L 310.25 123.433049 
L 310.458545 123.513971 
L 312.887818 124.148696 
L 315.255091 124.758298 
L 315.412909 124.811648 
L 315.869455 124.921931 
L 316.275273 125.003509 
L 316.838909 125.129682 
L 317.013636 125.202948 
L 317.267273 125.255275 
L 317.436364 125.41273 
L 317.622364 125.546624 
L 318.078909 125.761047 
L 318.913091 125.895229 
L 319.110364 126.018138 
L 319.899455 126.395743 
L 320.124909 126.438651 
L 321.195818 126.681382 
L 321.381818 126.708277 
L 321.855273 126.822004 
L 322.165273 126.976616 
L 323.033273 127.085349 
L 323.563091 127.228783 
L 324.498727 127.427078 
L 324.729818 127.517122 
L 325.265273 127.661375 
L 325.513273 127.764632 
L 328.027091 128.25297 
L 328.269455 128.274985 
L 329.272727 128.394121 
L 330.805818 128.765986 
L 330.963636 128.862216 
L 331.758364 128.968819 
L 333.032182 129.157897 
L 333.640909 129.332098 
L 334.401818 129.453334 
L 336.583091 130.050258 
L 336.757818 130.115547 
L 337.242545 130.235843 
L 337.603273 130.370926 
L 338.792545 130.62245 
L 339.604182 130.901596 
L 342.106727 131.669188 
L 342.326545 131.769261 
L 344.265455 132.34687 
L 344.434545 132.429761 
L 345.285636 132.892931 
L 346.007091 133.061015 
L 346.193091 133.120333 
L 346.751091 133.285478 
L 353.666909 135.242 
L 353.869818 135.384786 
L 354.084 135.45195 
L 354.811091 135.714674 
L 354.968909 135.816131 
L 355.301455 135.945907 
L 355.504364 135.979565 
L 356.006 136.112984 
L 356.857091 136.310617 
L 357.184 136.420594 
L 358.728364 137.338556 
L 359.478 137.494869 
L 360.295273 137.777932 
L 360.447455 137.80754 
L 360.689818 137.923023 
L 360.898364 138.082965 
L 361.879091 138.410119 
L 363.096545 138.915023 
L 363.243091 139.012941 
L 364.274545 139.381527 
L 364.415455 139.445974 
L 364.888909 139.617849 
L 365.018545 139.663205 
L 365.486364 139.798881 
L 367.385818 140.821748 
L 367.763455 140.933123 
L 368.586364 141.304913 
L 368.732909 141.371993 
L 369.200727 141.497289 
L 369.589636 141.73363 
L 369.764364 141.93444 
L 370.051818 141.994197 
L 370.609818 142.109983 
L 370.790182 142.222765 
L 371.241091 142.419199 
L 372.424727 143.532231 
L 372.548727 143.650915 
L 372.937636 143.845679 
L 373.242 144.163271 
L 373.49 144.275979 
L 373.732364 144.392462 
L 373.895818 144.508571 
L 374.138182 144.910043 
L 374.222727 145.020652 
L 374.656727 145.446081 
L 374.797636 145.565163 
L 374.989273 145.665512 
L 375.259818 146.098938 
L 375.524727 146.208671 
L 375.710727 146.354838 
L 375.936182 146.428639 
L 376.026364 146.531425 
L 376.28 146.933704 
L 376.415273 147.043009 
L 376.59 147.248723 
L 376.939455 147.59353 
L 377.142364 147.700684 
L 377.334 148.18906 
L 377.435455 148.316158 
L 377.587636 148.425535 
L 377.976545 148.713319 
L 378.179455 149.05476 
L 378.500727 149.364986 
L 378.664182 149.475998 
L 378.996727 149.738958 
L 379.171455 149.904428 
L 379.391273 150.013825 
L 380.169091 150.946356 
L 380.569273 151.706151 
L 380.794727 152.197076 
L 380.958182 152.297905 
L 381.465455 152.589202 
L 382.260182 153.813402 
L 382.463091 153.927774 
L 382.604 154.213121 
L 383.054909 156.305934 
L 383.162 156.411615 
L 383.443818 156.796731 
L 383.511455 156.891277 
L 383.680545 157.236659 
L 383.725636 157.317052 
L 383.877818 157.575122 
L 383.939818 157.682587 
L 384.125818 157.921608 
L 384.283636 158.039887 
L 384.588 158.354053 
L 384.768364 158.713013 
L 384.965636 158.831388 
L 385.185455 159.088741 
L 385.360182 159.654644 
L 385.484182 159.775717 
L 385.675818 160.039361 
L 385.816727 160.189279 
L 385.935091 160.30192 
L 385.985818 160.488033 
L 386.132364 160.839802 
L 386.183091 160.945873 
L 386.329636 161.07319 
L 386.493091 161.184567 
L 387.056727 162.054614 
L 387.152545 162.187223 
L 387.564 163.722376 
L 387.783818 163.915196 
L 388.043091 164.311428 
L 388.082545 164.431734 
L 388.200909 165.779667 
L 388.341818 166.698677 
L 388.358727 166.765357 
L 388.544727 167.8099 
L 388.612364 167.995082 
L 388.758909 168.399625 
L 388.882909 168.904674 
L 389.029455 169.781667 
L 389.429636 170.724436 
L 389.598727 170.987802 
L 389.773455 171.352921 
L 389.886182 171.64382 
L 390.128545 173.441746 
L 390.145455 173.542954 
L 390.286364 173.983073 
L 390.511818 174.178424 
L 390.635818 174.567128 
L 390.855636 175.975091 
L 390.996545 176.187281 
L 391.041636 176.276661 
L 391.233273 177.202353 
L 391.357273 177.479589 
L 391.684182 179.403951 
L 391.960364 179.715797 
L 392.360545 180.567965 
L 392.529636 181.068001 
L 392.552182 181.154283 
L 392.743818 182.282898 
L 392.901636 183.066635 
L 393.042545 183.444594 
L 393.555455 185.220861 
L 393.628727 185.55956 
L 393.730182 187.2741 
L 393.865455 188.857234 
L 393.876727 188.904051 
L 394.068364 190.541727 
L 394.181091 190.869797 
L 395.257636 198.202473 
L 395.336545 198.363647 
L 395.838182 203.061961 
L 395.855091 203.209671 
L 396.080545 205.193731 
L 396.182 206.854143 
L 396.424364 212.419987 
L 396.441273 212.536241 
L 396.644182 215.76182 
L 396.807636 216.350205 
L 396.830182 216.632931 
L 396.999273 224.451659 
L 397.140182 230.504269 
L 397.343091 232.812144 
L 397.405091 233.15623 
L 397.585455 235.472771 
L 397.658727 235.868988 
L 398.047636 248.548273 
L 398.306909 269.887905 
L 398.391455 277.396184 
L 398.481636 295.488 
L 398.481636 295.488 
" clip-path="url(#pd05ff8b9e1)" style="fill: none; stroke: #1f77b4; stroke-width: 1.5; stroke-linecap: square"/>
   </g>
   <g id="line2d_17">
    <path d="M 127.288 60.272049 
L 367.030727 140.710803 
" clip-path="url(#pd05ff8b9e1)" style="fill: none; stroke-dasharray: 5.55,2.4; stroke-dashoffset: 0; stroke: #ff7f0e; stroke-width: 1.5"/>
   </g>
   <g id="line2d_18">
    <path d="M 73.832727 134.007511 
L 398.487273 134.007511 
L 398.487273 134.007511 
" clip-path="url(#pd05ff8b9e1)" style="fill: none; stroke-dasharray: 5.55,2.4; stroke-dashoffset: 0; stroke: #2ca02c; stroke-width: 1.5"/>
   </g>
   <g id="LineCollection_1">
    <path d="M 367.030727 295.488 
L 367.030727 53.568 
" clip-path="url(#pd05ff8b9e1)" style="fill: none; stroke-dasharray: 5.55,2.4; stroke-dashoffset: 0; stroke: #1f77b4; stroke-width: 1.5"/>
   </g>
   <g id="patch_3">
    <path d="M 57.6 307.584 
L 57.6 41.472 
" style="fill: none; stroke: #000000; stroke-width: 0.8; stroke-linejoin: miter; stroke-linecap: square"/>
   </g>
   <g id="patch_4">
    <path d="M 414.72 307.584 
L 414.72 41.472 
" style="fill: none; stroke: #000000; stroke-width: 0.8; stroke-linejoin: miter; stroke-linecap: square"/>
   </g>
   <g id="patch_5">
    <path d="M 57.6 307.584 
L 414.72 307.584 
" style="fill: none; stroke: #000000; stroke-width: 0.8; stroke-linejoin: miter; stroke-linecap: square"/>
   </g>
   <g id="patch_6">
    <path d="M 57.6 41.472 
L 414.72 41.472 
" style="fill: none; stroke: #000000; stroke-width: 0.8; stroke-linejoin: miter; stroke-linecap: square"/>
   </g>
   <g id="text_16">
    <!-- Energy Decay - 4000 Hz -->
    <g transform="translate(163.59 35.472) scale(0.12 -0.12)">
     <defs>
      <path id="DejaVuSans-45" d="M 628 4666 
L 3578 4666 
L 3578 4134 
L 1259 4134 
L 1259 2753 
L 3481 2753 
L 3481 2222 
L 1259 2222 
L 1259 531 
L 3634 531 
L 3634 0 
L 628 0 
L 628 4666 
z
" transform="scale(0.015625)"/>
      <path id="DejaVuSans-6e" d="M 3513 2113 
L 3513 0 
L 2938 0 
L 2938 2094 
Q 2938 2591 2744 2837 
Q 2550 3084 2163 3084 
Q 1697 3084 1428 2787 
Q 1159 2491 1159 1978 
L 1159 0 
L 581 0 
L 581 3500 
L 1159 3500 
L 1159 2956 
Q 1366 3272 1645 3428 
Q 1925 3584 2291 3584 
Q 2894 3584 3203 3211 
Q 3513 2838 3513 2113 
z
" transform="scale(0.015625)"/>
      <path id="DejaVuSans-65" d="M 3597 1894 
L 3597 1613 
L 953 1613 
Q 991 1019 1311 708 
Q 1631 397 2203 397 
Q 2534 397 2845 478 
Q 3156 559 3463 722 
L 3463 178 
Q 3153 47 2828 -22 
Q 2503 -91 2169 -91 
Q 1331 -91 842 396 
Q 353 884 353 1716 
Q 353 2575 817 3079 
Q 1281 3584 2069 3584 
Q 2775 3584 3186 3129 
Q 3597 2675 3597 1894 
z
M 3022 2063 
Q 3016 2534 2758 2815 
Q 2500 3097 2075 3097 
Q 1594 3097 1305 2825 
Q 1016 2553 972 2059 
L 3022 2063 
z
" transform="scale(0.015625)"/>
      <path id="DejaVuSans-72" d="M 2631 2963 
Q 2534 3019 2420 3045 
Q 2306 3072 2169 3072 
Q 1681 3072 1420 2755 
Q 1159 2438 1159 1844 
L 1159 0 
L 581 0 
L 581 3500 
L 1159 3500 
L 1159 2956 
Q 1341 3275 1631 3429 
Q 1922 3584 2338 3584 
Q 2397 3584 2469 3576 
Q 2541 3569 2628 3553 
L 2631 2963 
z
" transform="scale(0.015625)"/>
      <path id="DejaVuSans-67" d="M 2906 1791 
Q 2906 2416 2648 2759 
Q 2391 3103 1925 3103 
Q 1463 3103 1205 2759 
Q 947 2416 947 1791 
Q 947 1169 1205 825 
Q 1463 481 1925 481 
Q 2391 481 2648 825 
Q 2906 1169 2906 1791 
z
M 3481 434 
Q 3481 -459 3084 -895 
Q 2688 -1331 1869 -1331 
Q 1566 -1331 1297 -1286 
Q 1028 -1241 775 -1147 
L 775 -588 
Q 1028 -725 1275 -790 
Q 1522 -856 1778 -856 
Q 2344 -856 2625 -561 
Q 2906 -266 2906 331 
L 2906 616 
Q 2728 306 2450 153 
Q 2172 0 1784 0 
Q 1141 0 747 490 
Q 353 981 353 1791 
Q 353 2603 747 3093 
Q 1141 3584 1784 3584 
Q 2172 3584 2450 3431 
Q 2728 3278 2906 2969 
L 2906 3500 
L 3481 3500 
L 3481 434 
z
" transform="scale(0.015625)"/>
      <path id="DejaVuSans-79" d="M 2059 -325 
Q 1816 -950 1584 -1140 
Q 1353 -1331 966 -1331 
L 506 -1331 
L 506 -850 
L 844 -850 
Q 1081 -850 1212 -737 
Q 1344 -625 1503 -206 
L 1606 56 
L 191 3500 
L 800 3500 
L 1894 763 
L 2988 3500 
L 3597 3500 
L 2059 -325 
z
" transform="scale(0.015625)"/>
      <path id="DejaVuSans-20" transform="scale(0.015625)"/>
      <path id="DejaVuSans-44" d="M 1259 4147 
L 1259 519 
L 2022 519 
Q 2988 519 3436 956 
Q 3884 1394 3884 2338 
Q 3884 3275 3436 3711 
Q 2988 4147 2022 4147 
L 1259 4147 
z
M 628 4666 
L 1925 4666 
Q 3281 4666 3915 4102 
Q 4550 3538 4550 2338 
Q 4550 1131 3912 565 
Q 3275 0 1925 0 
L 628 0 
L 628 4666 
z
" transform="scale(0.015625)"/>
      <path id="DejaVuSans-63" d="M 3122 3366 
L 3122 2828 
Q 2878 2963 2633 3030 
Q 2388 3097 2138 3097 
Q 1578 3097 1268 2742 
Q 959 2388 959 1747 
Q 959 1106 1268 751 
Q 1578 397 2138 397 
Q 2388 397 2633 464 
Q 2878 531 3122 666 
L 3122 134 
Q 2881 22 2623 -34 
Q 2366 -91 2075 -91 
Q 1284 -91 818 406 
Q 353 903 353 1747 
Q 353 2603 823 3093 
Q 1294 3584 2113 3584 
Q 2378 3584 2631 3529 
Q 2884 3475 3122 3366 
z
" transform="scale(0.015625)"/>
      <path id="DejaVuSans-61" d="M 2194 1759 
Q 1497 1759 1228 1600 
Q 959 1441 959 1056 
Q 959 750 1161 570 
Q 1363 391 1709 391 
Q 2188 391 2477 730 
Q 2766 1069 2766 1631 
L 2766 1759 
L 2194 1759 
z
M 3341 1997 
L 3341 0 
L 2766 0 
L 2766 531 
Q 2569 213 2275 61 
Q 1981 -91 1556 -91 
Q 1019 -91 701 211 
Q 384 513 384 1019 
Q 384 1609 779 1909 
Q 1175 2209 1959 2209 
L 2766 2209 
L 2766 2266 
Q 2766 2663 2505 2880 
Q 2244 3097 1772 3097 
Q 1472 3097 1187 3025 
Q 903 2953 641 2809 
L 641 3341 
Q 956 3463 1253 3523 
Q 1550 3584 1831 3584 
Q 2591 3584 2966 3190 
Q 3341 2797 3341 1997 
z
" transform="scale(0.015625)"/>
      <path id="DejaVuSans-2d" d="M 313 2009 
L 1997 2009 
L 1997 1497 
L 313 1497 
L 313 2009 
z
" transform="scale(0.015625)"/>
      <path id="DejaVuSans-48" d="M 628 4666 
L 1259 4666 
L 1259 2753 
L 3553 2753 
L 3553 4666 
L 4184 4666 
L 4184 0 
L 3553 0 
L 3553 2222 
L 1259 2222 
L 1259 0 
L 628 0 
L 628 4666 
z
" transform="scale(0.015625)"/>
      <path id="DejaVuSans-7a" d="M 353 3500 
L 3084 3500 
L 3084 2975 
L 922 459 
L 3084 459 
L 3084 0 
L 275 0 
L 275 525 
L 2438 3041 
L 353 3041 
L 353 3500 
z
" transform="scale(0.015625)"/>
     </defs>
     <use xlink:href="#DejaVuSans-45"/>
     <use xlink:href="#DejaVuSans-6e" transform="translate(63.183594 0)"/>
     <use xlink:href="#DejaVuSans-65" transform="translate(126.5625 0)"/>
     <use xlink:href="#DejaVuSans-72" transform="translate(188.085938 0)"/>
     <use xlink:href="#DejaVuSans-67" transform="translate(227.449219 0)"/>
     <use xlink:href="#DejaVuSans-79" transform="translate(290.925781 0)"/>
     <use xlink:href="#DejaVuSans-20" transform="translate(350.105469 0)"/>
     <use xlink:href="#DejaVuSans-44" transform="translate(381.892578 0)"/>
     <use xlink:href="#DejaVuSans-65" transform="translate(458.894531 0)"/>
     <use xlink:href="#DejaVuSans-63" transform="translate(520.417969 0)"/>
     <use xlink:href="#DejaVuSans-61" transform="translate(575.398438 0)"/>
     <use xlink:href="#DejaVuSans-79" transform="translate(636.677734 0)"/>
     <use xlink:href="#DejaVuSans-20" transform="translate(695.857422 0)"/>
     <use xlink:href="#DejaVuSans-2d" transform="translate(727.644531 0)"/>
     <use xlink:href="#DejaVuSans-20" transform="translate(763.728516 0)"/>
     <use xlink:href="#DejaVuSans-34" transform="translate(795.515625 0)"/>
     <use xlink:href="#DejaVuSans-30" transform="translate(859.138672 0)"/>
     <use xlink:href="#DejaVuSans-30" transform="translate(922.761719 0)"/>
     <use xlink:href="#DejaVuSans-30" transform="translate(986.384766 0)"/>
     <use xlink:href="#DejaVuSans-20" transform="translate(1050.007812 0)"/>
     <use xlink:href="#DejaVuSans-48" transform="translate(1081.794922 0)"/>
     <use xlink:href="#DejaVuSans-7a" transform="translate(1156.990234 0)"/>
    </g>
   </g>
   <g id="legend_1">
    <g id="patch_7">
     <path d="M 296.968437 108.1845 
L 407.72 108.1845 
Q 409.72 108.1845 409.72 106.1845 
L 409.72 48.472 
Q 409.72 46.472 407.72 46.472 
L 296.968437 46.472 
Q 294.968437 46.472 294.968437 48.472 
L 294.968437 106.1845 
Q 294.968437 108.1845 296.968437 108.1845 
z
" style="fill: #ffffff; opacity: 0.8; stroke: #cccccc; stroke-linejoin: miter"/>
    </g>
    <g id="line2d_19">
     <path d="M 298.968437 54.570438 
L 308.968437 54.570438 
L 318.968437 54.570438 
" style="fill: none; stroke: #1f77b4; stroke-width: 1.5; stroke-linecap: square"/>
    </g>
    <g id="text_17">
     <!-- Energy -->
     <g transform="translate(326.968437 58.070438) scale(0.1 -0.1)">
      <use xlink:href="#DejaVuSans-45"/>
      <use xlink:href="#DejaVuSans-6e" transform="translate(63.183594 0)"/>
      <use xlink:href="#DejaVuSans-65" transform="translate(126.5625 0)"/>
      <use xlink:href="#DejaVuSans-72" transform="translate(188.085938 0)"/>
      <use xlink:href="#DejaVuSans-67" transform="translate(227.449219 0)"/>
      <use xlink:href="#DejaVuSans-79" transform="translate(290.925781 0)"/>
     </g>
    </g>
    <g id="line2d_20">
     <path d="M 298.968437 69.248563 
L 308.968437 69.248563 
L 318.968437 69.248563 
" style="fill: none; stroke-dasharray: 5.55,2.4; stroke-dashoffset: 0; stroke: #ff7f0e; stroke-width: 1.5"/>
    </g>
    <g id="text_18">
     <!-- Linear Fit -->
     <g transform="translate(326.968437 72.748563) scale(0.1 -0.1)">
      <defs>
       <path id="DejaVuSans-4c" d="M 628 4666 
L 1259 4666 
L 1259 531 
L 3531 531 
L 3531 0 
L 628 0 
L 628 4666 
z
" transform="scale(0.015625)"/>
       <path id="DejaVuSans-69" d="M 603 3500 
L 1178 3500 
L 1178 0 
L 603 0 
L 603 3500 
z
M 603 4863 
L 1178 4863 
L 1178 4134 
L 603 4134 
L 603 4863 
z
" transform="scale(0.015625)"/>
       <path id="DejaVuSans-46" d="M 628 4666 
L 3309 4666 
L 3309 4134 
L 1259 4134 
L 1259 2759 
L 3109 2759 
L 3109 2228 
L 1259 2228 
L 1259 0 
L 628 0 
L 628 4666 
z
" transform="scale(0.015625)"/>
       <path id="DejaVuSans-74" d="M 1172 4494 
L 1172 3500 
L 2356 3500 
L 2356 3053 
L 1172 3053 
L 1172 1153 
Q 1172 725 1289 603 
Q 1406 481 1766 481 
L 2356 481 
L 2356 0 
L 1766 0 
Q 1100 0 847 248 
Q 594 497 594 1153 
L 594 3053 
L 172 3053 
L 172 3500 
L 594 3500 
L 594 4494 
L 1172 4494 
z
" transform="scale(0.015625)"/>
      </defs>
      <use xlink:href="#DejaVuSans-4c"/>
      <use xlink:href="#DejaVuSans-69" transform="translate(55.712891 0)"/>
      <use xlink:href="#DejaVuSans-6e" transform="translate(83.496094 0)"/>
      <use xlink:href="#DejaVuSans-65" transform="translate(146.875 0)"/>
      <use xlink:href="#DejaVuSans-61" transform="translate(208.398438 0)"/>
      <use xlink:href="#DejaVuSans-72" transform="translate(269.677734 0)"/>
      <use xlink:href="#DejaVuSans-20" transform="translate(310.791016 0)"/>
      <use xlink:href="#DejaVuSans-46" transform="translate(342.578125 0)"/>
      <use xlink:href="#DejaVuSans-69" transform="translate(392.847656 0)"/>
      <use xlink:href="#DejaVuSans-74" transform="translate(420.630859 0)"/>
     </g>
    </g>
    <g id="line2d_21">
     <path d="M 298.968437 83.926688 
L 308.968437 83.926688 
L 318.968437 83.926688 
" style="fill: none; stroke-dasharray: 5.55,2.4; stroke-dashoffset: 0; stroke: #2ca02c; stroke-width: 1.5"/>
    </g>
    <g id="text_19">
     <!-- -60 dB -->
     <g transform="translate(326.968437 87.426688) scale(0.1 -0.1)">
      <defs>
       <path id="DejaVuSans-64" d="M 2906 2969 
L 2906 4863 
L 3481 4863 
L 3481 0 
L 2906 0 
L 2906 525 
Q 2725 213 2448 61 
Q 2172 -91 1784 -91 
Q 1150 -91 751 415 
Q 353 922 353 1747 
Q 353 2572 751 3078 
Q 1150 3584 1784 3584 
Q 2172 3584 2448 3432 
Q 2725 3281 2906 2969 
z
M 947 1747 
Q 947 1113 1208 752 
Q 1469 391 1925 391 
Q 2381 391 2643 752 
Q 2906 1113 2906 1747 
Q 2906 2381 2643 2742 
Q 2381 3103 1925 3103 
Q 1469 3103 1208 2742 
Q 947 2381 947 1747 
z
" transform="scale(0.015625)"/>
       <path id="DejaVuSans-42" d="M 1259 2228 
L 1259 519 
L 2272 519 
Q 2781 519 3026 730 
Q 3272 941 3272 1375 
Q 3272 1813 3026 2020 
Q 2781 2228 2272 2228 
L 1259 2228 
z
M 1259 4147 
L 1259 2741 
L 2194 2741 
Q 2656 2741 2882 2914 
Q 3109 3088 3109 3444 
Q 3109 3797 2882 3972 
Q 2656 4147 2194 4147 
L 1259 4147 
z
M 628 4666 
L 2241 4666 
Q 2963 4666 3353 4366 
Q 3744 4066 3744 3513 
Q 3744 3084 3544 2831 
Q 3344 2578 2956 2516 
Q 3422 2416 3680 2098 
Q 3938 1781 3938 1306 
Q 3938 681 3513 340 
Q 3088 0 2303 0 
L 628 0 
L 628 4666 
z
" transform="scale(0.015625)"/>
      </defs>
      <use xlink:href="#DejaVuSans-2d"/>
      <use xlink:href="#DejaVuSans-36" transform="translate(36.083984 0)"/>
      <use xlink:href="#DejaVuSans-30" transform="translate(99.707031 0)"/>
      <use xlink:href="#DejaVuSans-20" transform="translate(163.330078 0)"/>
      <use xlink:href="#DejaVuSans-64" transform="translate(195.117188 0)"/>
      <use xlink:href="#DejaVuSans-42" transform="translate(258.59375 0)"/>
     </g>
    </g>
    <g id="line2d_22">
     <path d="M 298.968437 98.604813 
L 318.968437 98.604813 
" style="fill: none; stroke-dasharray: 5.55,2.4; stroke-dashoffset: 0; stroke: #1f77b4; stroke-width: 1.5"/>
    </g>
    <g id="text_20">
     <!-- Estimated RT60 -->
     <g transform="translate(326.968437 102.104813) scale(0.1 -0.1)">
      <defs>
       <path id="DejaVuSans-73" d="M 2834 3397 
L 2834 2853 
Q 2591 2978 2328 3040 
Q 2066 3103 1784 3103 
Q 1356 3103 1142 2972 
Q 928 2841 928 2578 
Q 928 2378 1081 2264 
Q 1234 2150 1697 2047 
L 1894 2003 
Q 2506 1872 2764 1633 
Q 3022 1394 3022 966 
Q 3022 478 2636 193 
Q 2250 -91 1575 -91 
Q 1294 -91 989 -36 
Q 684 19 347 128 
L 347 722 
Q 666 556 975 473 
Q 1284 391 1588 391 
Q 1994 391 2212 530 
Q 2431 669 2431 922 
Q 2431 1156 2273 1281 
Q 2116 1406 1581 1522 
L 1381 1569 
Q 847 1681 609 1914 
Q 372 2147 372 2553 
Q 372 3047 722 3315 
Q 1072 3584 1716 3584 
Q 2034 3584 2315 3537 
Q 2597 3491 2834 3397 
z
" transform="scale(0.015625)"/>
       <path id="DejaVuSans-6d" d="M 3328 2828 
Q 3544 3216 3844 3400 
Q 4144 3584 4550 3584 
Q 5097 3584 5394 3201 
Q 5691 2819 5691 2113 
L 5691 0 
L 5113 0 
L 5113 2094 
Q 5113 2597 4934 2840 
Q 4756 3084 4391 3084 
Q 3944 3084 3684 2787 
Q 3425 2491 3425 1978 
L 3425 0 
L 2847 0 
L 2847 2094 
Q 2847 2600 2669 2842 
Q 2491 3084 2119 3084 
Q 1678 3084 1418 2786 
Q 1159 2488 1159 1978 
L 1159 0 
L 581 0 
L 581 3500 
L 1159 3500 
L 1159 2956 
Q 1356 3278 1631 3431 
Q 1906 3584 2284 3584 
Q 2666 3584 2933 3390 
Q 3200 3197 3328 2828 
z
" transform="scale(0.015625)"/>
       <path id="DejaVuSans-52" d="M 2841 2188 
Q 3044 2119 3236 1894 
Q 3428 1669 3622 1275 
L 4263 0 
L 3584 0 
L 2988 1197 
Q 2756 1666 2539 1819 
Q 2322 1972 1947 1972 
L 1259 1972 
L 1259 0 
L 628 0 
L 628 4666 
L 2053 4666 
Q 2853 4666 3247 4331 
Q 3641 3997 3641 3322 
Q 3641 2881 3436 2590 
Q 3231 2300 2841 2188 
z
M 1259 4147 
L 1259 2491 
L 2053 2491 
Q 2509 2491 2742 2702 
Q 2975 2913 2975 3322 
Q 2975 3731 2742 3939 
Q 2509 4147 2053 4147 
L 1259 4147 
z
" transform="scale(0.015625)"/>
       <path id="DejaVuSans-54" d="M -19 4666 
L 3928 4666 
L 3928 4134 
L 2272 4134 
L 2272 0 
L 1638 0 
L 1638 4134 
L -19 4134 
L -19 4666 
z
" transform="scale(0.015625)"/>
      </defs>
      <use xlink:href="#DejaVuSans-45"/>
      <use xlink:href="#DejaVuSans-73" transform="translate(63.183594 0)"/>
      <use xlink:href="#DejaVuSans-74" transform="translate(115.283203 0)"/>
      <use xlink:href="#DejaVuSans-69" transform="translate(154.492188 0)"/>
      <use xlink:href="#DejaVuSans-6d" transform="translate(182.275391 0)"/>
      <use xlink:href="#DejaVuSans-61" transform="translate(279.6875 0)"/>
      <use xlink:href="#DejaVuSans-74" transform="translate(340.966797 0)"/>
      <use xlink:href="#DejaVuSans-65" transform="translate(380.175781 0)"/>
      <use xlink:href="#DejaVuSans-64" transform="translate(441.699219 0)"/>
      <use xlink:href="#DejaVuSans-20" transform="translate(505.175781 0)"/>
      <use xlink:href="#DejaVuSans-52" transform="translate(536.962891 0)"/>
      <use xlink:href="#DejaVuSans-54" transform="translate(599.195312 0)"/>
      <use xlink:href="#DejaVuSans-36" transform="translate(660.279297 0)"/>
      <use xlink:href="#DejaVuSans-30" transform="translate(723.902344 0)"/>
     </g>
    </g>
   </g>
  </g>
 </g>
 <defs>
  <clipPath id="pd05ff8b9e1">
   <rect x="57.6" y="41.472" width="357.12" height="266.112"/>
  </clipPath>
 </defs>
</svg>
