<?xml version="1.0" encoding="utf-8" standalone="no"?>
<!DOCTYPE svg PUBLIC "-//W3C//DTD SVG 1.1//EN"
  "http://www.w3.org/Graphics/SVG/1.1/DTD/svg11.dtd">
<svg xmlns:xlink="http://www.w3.org/1999/xlink" width="460.8pt" height="345.6pt" viewBox="0 0 460.8 345.6" xmlns="http://www.w3.org/2000/svg" version="1.1">
 <metadata>
  <rdf:RDF xmlns:dc="http://purl.org/dc/elements/1.1/" xmlns:cc="http://creativecommons.org/ns#" xmlns:rdf="http://www.w3.org/1999/02/22-rdf-syntax-ns#">
   <cc:Work>
    <dc:type rdf:resource="http://purl.org/dc/dcmitype/StillImage"/>
    <dc:date>2025-05-07T11:59:07.366125</dc:date>
    <dc:format>image/svg+xml</dc:format>
    <dc:creator>
     <cc:Agent>
      <dc:title>Matplotlib v3.10.1, https://matplotlib.org/</dc:title>
     </cc:Agent>
    </dc:creator>
   </cc:Work>
  </rdf:RDF>
 </metadata>
 <defs>
  <style type="text/css">*{stroke-linejoin: round; stroke-linecap: butt}</style>
 </defs>
 <g id="figure_1">
  <g id="patch_1">
   <path d="M 0 345.6 
L 460.8 345.6 
L 460.8 0 
L 0 0 
z
" style="fill: #ffffff"/>
  </g>
  <g id="axes_1">
   <g id="patch_2">
    <path d="M 57.6 307.584 
L 414.72 307.584 
L 414.72 41.472 
L 57.6 41.472 
z
" style="fill: #ffffff"/>
   </g>
   <g id="matplotlib.axis_1">
    <g id="xtick_1">
     <g id="line2d_1">
      <defs>
       <path id="m1accc8f8ef" d="M 0 0 
L 0 3.5 
" style="stroke: #000000; stroke-width: 0.8"/>
      </defs>
      <g>
       <use xlink:href="#m1accc8f8ef" x="70.437382" y="307.584" style="stroke: #000000; stroke-width: 0.8"/>
      </g>
     </g>
     <g id="text_1">
      <!-- −0.2 -->
      <g transform="translate(58.295976 322.182437) scale(0.1 -0.1)">
       <defs>
        <path id="DejaVuSans-2212" d="M 678 2272 
L 4684 2272 
L 4684 1741 
L 678 1741 
L 678 2272 
z
" transform="scale(0.015625)"/>
        <path id="DejaVuSans-30" d="M 2034 4250 
Q 1547 4250 1301 3770 
Q 1056 3291 1056 2328 
Q 1056 1369 1301 889 
Q 1547 409 2034 409 
Q 2525 409 2770 889 
Q 3016 1369 3016 2328 
Q 3016 3291 2770 3770 
Q 2525 4250 2034 4250 
z
M 2034 4750 
Q 2819 4750 3233 4129 
Q 3647 3509 3647 2328 
Q 3647 1150 3233 529 
Q 2819 -91 2034 -91 
Q 1250 -91 836 529 
Q 422 1150 422 2328 
Q 422 3509 836 4129 
Q 1250 4750 2034 4750 
z
" transform="scale(0.015625)"/>
        <path id="DejaVuSans-2e" d="M 684 794 
L 1344 794 
L 1344 0 
L 684 0 
L 684 794 
z
" transform="scale(0.015625)"/>
        <path id="DejaVuSans-32" d="M 1228 531 
L 3431 531 
L 3431 0 
L 469 0 
L 469 531 
Q 828 903 1448 1529 
Q 2069 2156 2228 2338 
Q 2531 2678 2651 2914 
Q 2772 3150 2772 3378 
Q 2772 3750 2511 3984 
Q 2250 4219 1831 4219 
Q 1534 4219 1204 4116 
Q 875 4013 500 3803 
L 500 4441 
Q 881 4594 1212 4672 
Q 1544 4750 1819 4750 
Q 2544 4750 2975 4387 
Q 3406 4025 3406 3419 
Q 3406 3131 3298 2873 
Q 3191 2616 2906 2266 
Q 2828 2175 2409 1742 
Q 1991 1309 1228 531 
z
" transform="scale(0.015625)"/>
       </defs>
       <use xlink:href="#DejaVuSans-2212"/>
       <use xlink:href="#DejaVuSans-30" transform="translate(83.789062 0)"/>
       <use xlink:href="#DejaVuSans-2e" transform="translate(147.412109 0)"/>
       <use xlink:href="#DejaVuSans-32" transform="translate(179.199219 0)"/>
      </g>
     </g>
    </g>
    <g id="xtick_2">
     <g id="line2d_2">
      <g>
       <use xlink:href="#m1accc8f8ef" x="135.368291" y="307.584" style="stroke: #000000; stroke-width: 0.8"/>
      </g>
     </g>
     <g id="text_2">
      <!-- 0.0 -->
      <g transform="translate(127.416728 322.182437) scale(0.1 -0.1)">
       <use xlink:href="#DejaVuSans-30"/>
       <use xlink:href="#DejaVuSans-2e" transform="translate(63.623047 0)"/>
       <use xlink:href="#DejaVuSans-30" transform="translate(95.410156 0)"/>
      </g>
     </g>
    </g>
    <g id="xtick_3">
     <g id="line2d_3">
      <g>
       <use xlink:href="#m1accc8f8ef" x="200.2992" y="307.584" style="stroke: #000000; stroke-width: 0.8"/>
      </g>
     </g>
     <g id="text_3">
      <!-- 0.2 -->
      <g transform="translate(192.347638 322.182437) scale(0.1 -0.1)">
       <use xlink:href="#DejaVuSans-30"/>
       <use xlink:href="#DejaVuSans-2e" transform="translate(63.623047 0)"/>
       <use xlink:href="#DejaVuSans-32" transform="translate(95.410156 0)"/>
      </g>
     </g>
    </g>
    <g id="xtick_4">
     <g id="line2d_4">
      <g>
       <use xlink:href="#m1accc8f8ef" x="265.230109" y="307.584" style="stroke: #000000; stroke-width: 0.8"/>
      </g>
     </g>
     <g id="text_4">
      <!-- 0.4 -->
      <g transform="translate(257.278547 322.182437) scale(0.1 -0.1)">
       <defs>
        <path id="DejaVuSans-34" d="M 2419 4116 
L 825 1625 
L 2419 1625 
L 2419 4116 
z
M 2253 4666 
L 3047 4666 
L 3047 1625 
L 3713 1625 
L 3713 1100 
L 3047 1100 
L 3047 0 
L 2419 0 
L 2419 1100 
L 313 1100 
L 313 1709 
L 2253 4666 
z
" transform="scale(0.015625)"/>
       </defs>
       <use xlink:href="#DejaVuSans-30"/>
       <use xlink:href="#DejaVuSans-2e" transform="translate(63.623047 0)"/>
       <use xlink:href="#DejaVuSans-34" transform="translate(95.410156 0)"/>
      </g>
     </g>
    </g>
    <g id="xtick_5">
     <g id="line2d_5">
      <g>
       <use xlink:href="#m1accc8f8ef" x="330.161018" y="307.584" style="stroke: #000000; stroke-width: 0.8"/>
      </g>
     </g>
     <g id="text_5">
      <!-- 0.6 -->
      <g transform="translate(322.209456 322.182437) scale(0.1 -0.1)">
       <defs>
        <path id="DejaVuSans-36" d="M 2113 2584 
Q 1688 2584 1439 2293 
Q 1191 2003 1191 1497 
Q 1191 994 1439 701 
Q 1688 409 2113 409 
Q 2538 409 2786 701 
Q 3034 994 3034 1497 
Q 3034 2003 2786 2293 
Q 2538 2584 2113 2584 
z
M 3366 4563 
L 3366 3988 
Q 3128 4100 2886 4159 
Q 2644 4219 2406 4219 
Q 1781 4219 1451 3797 
Q 1122 3375 1075 2522 
Q 1259 2794 1537 2939 
Q 1816 3084 2150 3084 
Q 2853 3084 3261 2657 
Q 3669 2231 3669 1497 
Q 3669 778 3244 343 
Q 2819 -91 2113 -91 
Q 1303 -91 875 529 
Q 447 1150 447 2328 
Q 447 3434 972 4092 
Q 1497 4750 2381 4750 
Q 2619 4750 2861 4703 
Q 3103 4656 3366 4563 
z
" transform="scale(0.015625)"/>
       </defs>
       <use xlink:href="#DejaVuSans-30"/>
       <use xlink:href="#DejaVuSans-2e" transform="translate(63.623047 0)"/>
       <use xlink:href="#DejaVuSans-36" transform="translate(95.410156 0)"/>
      </g>
     </g>
    </g>
    <g id="xtick_6">
     <g id="line2d_6">
      <g>
       <use xlink:href="#m1accc8f8ef" x="395.091927" y="307.584" style="stroke: #000000; stroke-width: 0.8"/>
      </g>
     </g>
     <g id="text_6">
      <!-- 0.8 -->
      <g transform="translate(387.140365 322.182437) scale(0.1 -0.1)">
       <defs>
        <path id="DejaVuSans-38" d="M 2034 2216 
Q 1584 2216 1326 1975 
Q 1069 1734 1069 1313 
Q 1069 891 1326 650 
Q 1584 409 2034 409 
Q 2484 409 2743 651 
Q 3003 894 3003 1313 
Q 3003 1734 2745 1975 
Q 2488 2216 2034 2216 
z
M 1403 2484 
Q 997 2584 770 2862 
Q 544 3141 544 3541 
Q 544 4100 942 4425 
Q 1341 4750 2034 4750 
Q 2731 4750 3128 4425 
Q 3525 4100 3525 3541 
Q 3525 3141 3298 2862 
Q 3072 2584 2669 2484 
Q 3125 2378 3379 2068 
Q 3634 1759 3634 1313 
Q 3634 634 3220 271 
Q 2806 -91 2034 -91 
Q 1263 -91 848 271 
Q 434 634 434 1313 
Q 434 1759 690 2068 
Q 947 2378 1403 2484 
z
M 1172 3481 
Q 1172 3119 1398 2916 
Q 1625 2713 2034 2713 
Q 2441 2713 2670 2916 
Q 2900 3119 2900 3481 
Q 2900 3844 2670 4047 
Q 2441 4250 2034 4250 
Q 1625 4250 1398 4047 
Q 1172 3844 1172 3481 
z
" transform="scale(0.015625)"/>
       </defs>
       <use xlink:href="#DejaVuSans-30"/>
       <use xlink:href="#DejaVuSans-2e" transform="translate(63.623047 0)"/>
       <use xlink:href="#DejaVuSans-38" transform="translate(95.410156 0)"/>
      </g>
     </g>
    </g>
   </g>
   <g id="matplotlib.axis_2">
    <g id="ytick_1">
     <g id="line2d_7">
      <defs>
       <path id="me47d49a027" d="M 0 0 
L -3.5 0 
" style="stroke: #000000; stroke-width: 0.8"/>
      </defs>
      <g>
       <use xlink:href="#me47d49a027" x="57.6" y="287.333678" style="stroke: #000000; stroke-width: 0.8"/>
      </g>
     </g>
     <g id="text_7">
      <!-- −175 -->
      <g transform="translate(23.132812 291.132897) scale(0.1 -0.1)">
       <defs>
        <path id="DejaVuSans-31" d="M 794 531 
L 1825 531 
L 1825 4091 
L 703 3866 
L 703 4441 
L 1819 4666 
L 2450 4666 
L 2450 531 
L 3481 531 
L 3481 0 
L 794 0 
L 794 531 
z
" transform="scale(0.015625)"/>
        <path id="DejaVuSans-37" d="M 525 4666 
L 3525 4666 
L 3525 4397 
L 1831 0 
L 1172 0 
L 2766 4134 
L 525 4134 
L 525 4666 
z
" transform="scale(0.015625)"/>
        <path id="DejaVuSans-35" d="M 691 4666 
L 3169 4666 
L 3169 4134 
L 1269 4134 
L 1269 2991 
Q 1406 3038 1543 3061 
Q 1681 3084 1819 3084 
Q 2600 3084 3056 2656 
Q 3513 2228 3513 1497 
Q 3513 744 3044 326 
Q 2575 -91 1722 -91 
Q 1428 -91 1123 -41 
Q 819 9 494 109 
L 494 744 
Q 775 591 1075 516 
Q 1375 441 1709 441 
Q 2250 441 2565 725 
Q 2881 1009 2881 1497 
Q 2881 1984 2565 2268 
Q 2250 2553 1709 2553 
Q 1456 2553 1204 2497 
Q 953 2441 691 2322 
L 691 4666 
z
" transform="scale(0.015625)"/>
       </defs>
       <use xlink:href="#DejaVuSans-2212"/>
       <use xlink:href="#DejaVuSans-31" transform="translate(83.789062 0)"/>
       <use xlink:href="#DejaVuSans-37" transform="translate(147.412109 0)"/>
       <use xlink:href="#DejaVuSans-35" transform="translate(211.035156 0)"/>
      </g>
     </g>
    </g>
    <g id="ytick_2">
     <g id="line2d_8">
      <g>
       <use xlink:href="#me47d49a027" x="57.6" y="253.938581" style="stroke: #000000; stroke-width: 0.8"/>
      </g>
     </g>
     <g id="text_8">
      <!-- −150 -->
      <g transform="translate(23.132812 257.7378) scale(0.1 -0.1)">
       <use xlink:href="#DejaVuSans-2212"/>
       <use xlink:href="#DejaVuSans-31" transform="translate(83.789062 0)"/>
       <use xlink:href="#DejaVuSans-35" transform="translate(147.412109 0)"/>
       <use xlink:href="#DejaVuSans-30" transform="translate(211.035156 0)"/>
      </g>
     </g>
    </g>
    <g id="ytick_3">
     <g id="line2d_9">
      <g>
       <use xlink:href="#me47d49a027" x="57.6" y="220.543485" style="stroke: #000000; stroke-width: 0.8"/>
      </g>
     </g>
     <g id="text_9">
      <!-- −125 -->
      <g transform="translate(23.132812 224.342703) scale(0.1 -0.1)">
       <use xlink:href="#DejaVuSans-2212"/>
       <use xlink:href="#DejaVuSans-31" transform="translate(83.789062 0)"/>
       <use xlink:href="#DejaVuSans-32" transform="translate(147.412109 0)"/>
       <use xlink:href="#DejaVuSans-35" transform="translate(211.035156 0)"/>
      </g>
     </g>
    </g>
    <g id="ytick_4">
     <g id="line2d_10">
      <g>
       <use xlink:href="#me47d49a027" x="57.6" y="187.148388" style="stroke: #000000; stroke-width: 0.8"/>
      </g>
     </g>
     <g id="text_10">
      <!-- −100 -->
      <g transform="translate(23.132812 190.947606) scale(0.1 -0.1)">
       <use xlink:href="#DejaVuSans-2212"/>
       <use xlink:href="#DejaVuSans-31" transform="translate(83.789062 0)"/>
       <use xlink:href="#DejaVuSans-30" transform="translate(147.412109 0)"/>
       <use xlink:href="#DejaVuSans-30" transform="translate(211.035156 0)"/>
      </g>
     </g>
    </g>
    <g id="ytick_5">
     <g id="line2d_11">
      <g>
       <use xlink:href="#me47d49a027" x="57.6" y="153.753291" style="stroke: #000000; stroke-width: 0.8"/>
      </g>
     </g>
     <g id="text_11">
      <!-- −75 -->
      <g transform="translate(29.495313 157.552509) scale(0.1 -0.1)">
       <use xlink:href="#DejaVuSans-2212"/>
       <use xlink:href="#DejaVuSans-37" transform="translate(83.789062 0)"/>
       <use xlink:href="#DejaVuSans-35" transform="translate(147.412109 0)"/>
      </g>
     </g>
    </g>
    <g id="ytick_6">
     <g id="line2d_12">
      <g>
       <use xlink:href="#me47d49a027" x="57.6" y="120.358194" style="stroke: #000000; stroke-width: 0.8"/>
      </g>
     </g>
     <g id="text_12">
      <!-- −50 -->
      <g transform="translate(29.495313 124.157413) scale(0.1 -0.1)">
       <use xlink:href="#DejaVuSans-2212"/>
       <use xlink:href="#DejaVuSans-35" transform="translate(83.789062 0)"/>
       <use xlink:href="#DejaVuSans-30" transform="translate(147.412109 0)"/>
      </g>
     </g>
    </g>
    <g id="ytick_7">
     <g id="line2d_13">
      <g>
       <use xlink:href="#me47d49a027" x="57.6" y="86.963097" style="stroke: #000000; stroke-width: 0.8"/>
      </g>
     </g>
     <g id="text_13">
      <!-- −25 -->
      <g transform="translate(29.495313 90.762316) scale(0.1 -0.1)">
       <use xlink:href="#DejaVuSans-2212"/>
       <use xlink:href="#DejaVuSans-32" transform="translate(83.789062 0)"/>
       <use xlink:href="#DejaVuSans-35" transform="translate(147.412109 0)"/>
      </g>
     </g>
    </g>
    <g id="ytick_8">
     <g id="line2d_14">
      <g>
       <use xlink:href="#me47d49a027" x="57.6" y="53.568" style="stroke: #000000; stroke-width: 0.8"/>
      </g>
     </g>
     <g id="text_14">
      <!-- 0 -->
      <g transform="translate(44.2375 57.367219) scale(0.1 -0.1)">
       <use xlink:href="#DejaVuSans-30"/>
      </g>
     </g>
    </g>
   </g>
   <g id="line2d_15">
    <path d="M 73.832727 53.568 
L 127.556291 53.670384 
L 127.711855 54.048663 
L 127.847127 54.201864 
L 128.347636 54.313325 
L 128.537018 54.474317 
L 128.956364 54.58881 
L 129.159273 54.702886 
L 129.6192 55.115655 
L 129.720655 55.226354 
L 129.855927 55.275794 
L 130.072364 55.42416 
L 130.444364 55.790252 
L 131.296582 56.259772 
L 132.771055 58.444554 
L 132.879273 58.56515 
L 133.014545 58.649002 
L 133.873527 58.971383 
L 134.103491 59.107172 
L 134.265818 59.346498 
L 134.414618 59.409272 
L 134.516073 59.553479 
L 134.725745 59.985295 
L 134.989527 60.044643 
L 135.151855 60.157664 
L 135.348 60.224149 
L 135.523855 60.554215 
L 135.659127 60.778693 
L 136.491055 60.981523 
L 136.666909 61.303006 
L 137.0592 61.490605 
L 137.221527 61.642424 
L 137.410909 61.857675 
L 137.552945 61.966395 
L 138.3984 62.55138 
L 140.413964 63.616833 
L 140.556 63.728471 
L 140.846836 63.836581 
L 141.015927 64.163543 
L 141.232364 64.281118 
L 141.421745 64.470353 
L 141.557018 64.580698 
L 142.2672 64.906038 
L 142.632436 65.186666 
L 142.781236 65.301721 
L 142.963855 65.447585 
L 143.396727 65.791474 
L 143.761964 66.015626 
L 143.910764 66.055875 
L 144.167782 66.16495 
L 145.419055 66.94285 
L 145.621964 67.102976 
L 145.872218 67.265258 
L 146.839418 68.128959 
L 146.981455 68.232687 
L 147.137018 68.32711 
L 147.3264 68.65475 
L 147.448145 68.820855 
L 147.590182 68.905305 
L 148.388291 69.286426 
L 148.550618 69.501718 
L 148.685891 69.645114 
L 148.834691 69.726799 
L 149.416364 69.966471 
L 149.585455 70.035195 
L 150.701455 70.615359 
L 150.911127 71.121254 
L 151.107273 71.246592 
L 151.323709 71.356977 
L 151.749818 71.816124 
L 151.885091 71.917519 
L 152.128582 72.06478 
L 152.432945 72.320183 
L 152.689964 72.547848 
L 152.852291 72.744431 
L 153.440727 72.917476 
L 153.677455 73.135522 
L 153.941236 73.254155 
L 155.266909 73.923309 
L 155.415709 74.075116 
L 155.632145 74.237395 
L 155.706545 74.331384 
L 155.8824 74.503631 
L 156.132655 74.583921 
L 156.511418 74.790288 
L 156.694036 75.012869 
L 156.984873 75.14992 
L 157.133673 75.237243 
L 157.275709 75.34618 
L 157.471855 75.608896 
L 158.3376 75.974707 
L 158.608145 76.137558 
L 158.675782 76.254755 
L 158.824582 76.310457 
L 159.183055 76.419042 
L 159.460364 76.476102 
L 159.622691 76.584506 
L 160.468145 77.240261 
L 161.475927 77.685895 
L 161.712655 77.948586 
L 162.551345 78.148171 
L 163.018036 78.264163 
L 163.207418 78.434226 
L 164.533091 79.029668 
L 164.702182 79.152622 
L 164.878036 79.245884 
L 165.013309 79.328666 
L 165.365018 79.464545 
L 165.723491 79.673934 
L 165.987273 79.792124 
L 166.1496 79.871018 
L 166.487782 80.00824 
L 166.825964 80.438146 
L 167.252073 80.559838 
L 167.509091 80.778154 
L 167.766109 80.901543 
L 167.948727 81.110097 
L 168.354545 81.207335 
L 168.462764 81.338089 
L 169.815491 82.045253 
L 169.977818 82.15468 
L 170.173964 82.375451 
L 170.417455 82.423264 
L 170.694764 82.533564 
L 170.978836 82.624383 
L 171.2088 82.772782 
L 171.398182 82.90081 
L 171.614618 83.006176 
L 171.776945 83.068824 
L 174.387709 84.335036 
L 174.807055 84.445076 
L 174.962618 84.49923 
L 175.902764 84.743023 
L 176.240945 85.008553 
L 176.876727 85.12593 
L 177.661309 85.543826 
L 179.203418 86.179024 
L 179.649818 86.610916 
L 180.042109 86.763898 
L 180.272073 86.822812 
L 180.481745 86.938494 
L 180.874036 87.154186 
L 181.104 87.279497 
L 181.259564 87.343302 
L 182.111782 87.828564 
L 182.429673 87.944396 
L 182.936945 88.490763 
L 183.234545 88.597721 
L 183.376582 88.673871 
L 183.701236 88.823172 
L 183.910909 89.204786 
L 183.992073 89.329283 
L 184.127345 89.438141 
L 184.249091 89.607637 
L 184.539927 89.793176 
L 184.824 90.076957 
L 184.999855 90.215362 
L 185.425964 90.323814 
L 185.723564 90.451501 
L 186.129382 90.602253 
L 186.771927 90.740158 
L 186.961309 90.795184 
L 188.158473 91.358901 
L 188.462836 91.546329 
L 188.807782 91.668073 
L 190.491927 92.616537 
L 191.127709 92.781403 
L 191.317091 92.860585 
L 191.871709 93.133764 
L 192.1152 93.291399 
L 192.886255 93.517198 
L 193.021527 93.63752 
L 193.197382 93.895701 
L 193.630255 94.099419 
L 193.799345 94.199583 
L 193.941382 94.332753 
L 194.117236 94.439198 
L 194.577164 94.680561 
L 196.2816 95.329632 
L 196.464218 95.384348 
L 196.991782 95.501455 
L 197.458473 95.563675 
L 197.810182 95.680268 
L 198.0672 95.995822 
L 198.730036 96.399377 
L 199.386109 96.666871 
L 199.649891 96.71586 
L 200.2248 96.866235 
L 201.523418 97.448504 
L 201.807491 97.654969 
L 202.693527 97.873859 
L 202.923491 97.963591 
L 203.444291 98.093383 
L 203.633673 98.157014 
L 204.0192 98.286265 
L 204.181527 98.336379 
L 205.196073 98.609455 
L 205.351636 98.711465 
L 205.899491 98.880012 
L 206.914036 99.431238 
L 207.083127 99.541168 
L 207.421309 99.792585 
L 207.671564 99.935961 
L 208.456145 100.323906 
L 208.686109 100.427157 
L 209.267782 100.537827 
L 209.849455 100.853618 
L 210.525818 101.009475 
L 210.762545 101.198295 
L 212.981018 102.02545 
L 213.1704 102.086221 
L 213.420655 102.173167 
L 214.306691 102.381057 
L 214.516364 102.519676 
L 214.841018 102.629001 
L 215.7 102.74683 
L 216.301964 102.992752 
L 216.619855 103.103367 
L 216.802473 103.255037 
L 217.005382 103.456504 
L 217.4856 103.583621 
L 218.540727 104.167289 
L 218.851855 104.270535 
L 219.068291 104.416594 
L 219.426764 104.536788 
L 221.036509 105.06154 
L 221.192073 105.139646 
L 221.712873 105.278696 
L 224.452145 106.385756 
L 224.641527 106.485496 
L 225.872509 106.933228 
L 226.400073 107.042837 
L 226.670618 107.304881 
L 226.7856 107.399238 
L 226.968218 107.686684 
L 227.671636 107.902014 
L 227.874545 108.004965 
L 228.260073 108.186807 
L 228.564436 108.344789 
L 228.848509 108.459205 
L 229.064945 108.530616 
L 229.518109 108.654139 
L 230.180945 109.100781 
L 230.796436 109.211624 
L 231.263127 109.323068 
L 231.9192 109.50628 
L 232.480582 109.620244 
L 232.656436 109.693219 
L 233.001382 109.797655 
L 233.190764 110.019792 
L 233.447782 110.129082 
L 233.900945 110.370556 
L 237.580364 111.476862 
L 238.02 111.602398 
L 238.263491 111.711231 
L 238.682836 111.854698 
L 239.122473 111.981367 
L 239.345673 112.134474 
L 239.778545 112.241342 
L 240.055855 112.39501 
L 240.7728 112.553386 
L 243.194182 113.166184 
L 243.424145 113.275763 
L 243.647345 113.353015 
L 244.337236 113.547784 
L 244.607782 113.761286 
L 244.986545 113.919904 
L 245.615564 114.194323 
L 246.251345 114.362168 
L 246.4272 114.455147 
L 246.907418 114.57969 
L 247.198255 114.702948 
L 247.529673 114.735587 
L 247.901673 114.849691 
L 248.091055 114.868383 
L 248.787709 115.011293 
L 249.078545 115.062995 
L 250.255418 115.246698 
L 250.458327 115.368171 
L 250.972364 115.489634 
L 251.466109 115.71092 
L 252.927055 116.066655 
L 253.231418 116.216134 
L 253.799564 116.430438 
L 254.083636 116.548596 
L 254.327127 116.684206 
L 254.6856 116.735223 
L 255.3552 116.849359 
L 255.591927 116.87049 
L 256.390036 116.984636 
L 258.412364 117.349016 
L 258.757309 117.450516 
L 259.433673 117.565233 
L 259.832727 117.632286 
L 260.542909 117.766178 
L 260.718764 117.821349 
L 261.570982 117.960915 
L 262.2 118.12229 
L 262.944 118.240906 
L 263.228073 118.297669 
L 263.857091 118.412291 
L 264.276436 118.504877 
L 264.9528 118.62774 
L 266.122909 118.980537 
L 266.298764 119.025832 
L 267.759709 119.278008 
L 268.084364 119.305134 
L 269.234182 119.466735 
L 270.593673 119.79162 
L 270.925091 119.841459 
L 273.035345 120.187896 
L 273.346473 120.301553 
L 273.691418 120.378487 
L 274.618036 120.549546 
L 275.165891 120.705914 
L 276.106036 120.872875 
L 278.676218 121.405389 
L 278.892655 121.44662 
L 285.723927 122.486823 
L 288.348218 122.821835 
L 288.821673 122.970637 
L 289.396582 123.08262 
L 289.606255 123.147282 
L 291.337745 123.300143 
L 291.527127 123.371711 
L 292.548436 123.491696 
L 292.805455 123.521954 
L 294.983345 123.725555 
L 295.274182 123.814672 
L 296.566036 123.927016 
L 297.999927 124.114599 
L 302.294836 124.744516 
L 302.653309 124.779214 
L 304.026327 124.909712 
L 304.215709 124.944603 
L 305.893091 125.055659 
L 306.887345 125.208656 
L 307.117309 125.242664 
L 318.162327 126.619615 
L 319.630036 126.740057 
L 327.320291 127.775983 
L 327.496145 127.802144 
L 328.497164 127.941485 
L 328.774473 127.95772 
L 329.701091 128.072469 
L 330.282764 128.117534 
L 336.221236 128.762747 
L 336.485018 128.806785 
L 336.958473 128.928766 
L 337.276364 128.992146 
L 339.920945 129.374471 
L 340.164436 129.423643 
L 341.293964 129.537019 
L 342.396436 129.698207 
L 343.181018 129.805371 
L 343.438036 129.871069 
L 343.979127 129.981257 
L 344.324073 130.027307 
L 346.312582 130.321562 
L 346.589891 130.377329 
L 347.902036 130.556888 
L 348.314618 130.586312 
L 348.761018 130.724316 
L 350.167855 130.919072 
L 350.708945 131.054176 
L 351.567927 131.280984 
L 352.129309 131.405818 
L 353.279127 131.60258 
L 353.448218 131.676436 
L 354.834764 131.955678 
L 355.078255 132.018815 
L 355.463782 132.135389 
L 355.619345 132.246552 
L 359.508436 133.117056 
L 359.697818 133.165749 
L 360.029236 133.29583 
L 361.3752 133.884983 
L 361.625455 133.933451 
L 362.132727 134.060737 
L 362.308582 134.104112 
L 362.687345 134.26014 
L 362.890255 134.309718 
L 363.282545 134.473378 
L 363.613964 134.649028 
L 364.466182 134.940474 
L 364.642036 135.046313 
L 364.784073 135.093397 
L 365.244 135.225 
L 365.3928 135.393426 
L 365.6904 135.537508 
L 365.933891 135.609421 
L 366.339709 135.807721 
L 366.623782 135.978501 
L 367.232509 136.092216 
L 367.476 136.250339 
L 367.935927 136.446771 
L 368.247055 136.56641 
L 368.727273 136.722922 
L 369.051927 137.089491 
L 369.268364 137.412097 
L 369.836509 137.57515 
L 371.162182 138.241685 
L 371.283927 138.332879 
L 371.432727 138.485488 
L 371.595055 138.578152 
L 371.899418 138.714503 
L 372.068509 138.800237 
L 372.413455 138.905719 
L 372.575782 139.06767 
L 373.137164 139.561131 
L 373.265673 139.792909 
L 373.414473 139.913702 
L 373.549745 140.009271 
L 373.6512 140.109373 
L 373.827055 140.263239 
L 374.050255 140.48586 
L 374.226109 140.77467 
L 374.604873 141.122012 
L 374.760436 141.302081 
L 374.970109 141.614236 
L 375.1392 141.731795 
L 377.249455 143.122118 
L 377.418545 143.208828 
L 377.695855 143.31689 
L 377.939345 143.630155 
L 378.067855 143.815373 
L 378.223418 143.926132 
L 378.372218 144.077945 
L 378.4872 144.178132 
L 378.622473 144.229128 
L 378.791564 144.336434 
L 379.210909 145.038283 
L 379.386764 145.157228 
L 379.569382 145.44993 
L 380.935636 148.470967 
L 381.037091 148.582267 
L 381.273818 149.376328 
L 381.436145 149.78709 
L 381.456436 149.845123 
L 381.618764 150.380429 
L 381.9096 150.558818 
L 382.0584 150.707588 
L 382.227491 151.044177 
L 382.396582 151.184721 
L 382.592727 151.509829 
L 382.897091 151.891479 
L 382.991782 152.003543 
L 383.444945 152.296156 
L 383.559927 152.422556 
L 383.884582 153.196995 
L 384.0672 153.322669 
L 384.398618 153.770855 
L 384.648873 154.487763 
L 384.702982 154.572401 
L 385.007345 155.519417 
L 385.203491 155.715206 
L 385.223782 155.788405 
L 385.365818 156.007411 
L 385.514618 156.09287 
L 385.690473 156.208302 
L 385.961018 156.439886 
L 386.143636 157.062869 
L 386.251855 157.197464 
L 386.414182 157.344444 
L 386.644145 157.640274 
L 387.009382 159.624887 
L 387.408436 160.298088 
L 387.462545 160.414073 
L 387.618109 160.868473 
L 387.7872 160.982276 
L 388.179491 162.050337 
L 388.260655 162.154315 
L 388.470327 162.638277 
L 388.612364 163.271395 
L 388.767927 163.397023 
L 388.964073 164.387785 
L 388.991127 164.562876 
L 389.464582 166.240665 
L 389.593091 166.673208 
L 389.708073 166.825189 
L 390.215345 168.073711 
L 390.364145 168.829656 
L 390.485891 168.956361 
L 390.695564 170.690203 
L 390.864655 170.822758 
L 391.148727 171.420572 
L 391.270473 171.499746 
L 391.304291 171.609595 
L 391.419273 172.220193 
L 391.588364 173.15328 
L 391.696582 173.315737 
L 391.940073 174.970499 
L 391.987418 175.709223 
L 392.122691 176.480016 
L 392.257964 176.838584 
L 392.528509 177.131318 
L 392.765236 178.942541 
L 392.927564 179.08526 
L 392.968145 179.159377 
L 393.150764 181.857632 
L 393.299564 182.5073 
L 393.786545 184.110269 
L 393.921818 184.995494 
L 394.070618 185.18762 
L 394.246473 185.370462 
L 394.273527 185.469847 
L 394.496727 187.564093 
L 394.645527 189.506938 
L 395.335418 198.798723 
L 395.396291 198.901988 
L 395.700655 199.736498 
L 395.727709 199.99593 
L 396.234982 207.291815 
L 396.275564 207.43996 
L 396.458182 209.175807 
L 396.5664 209.951749 
L 396.836945 216.89227 
L 397.3104 224.827796 
L 397.472727 232.796737 
L 397.641818 235.693597 
L 397.763564 236.185887 
L 397.973236 240.937905 
L 398.250545 263.924227 
L 398.480509 295.488 
L 398.480509 295.488 
" clip-path="url(#pa8045e10da)" style="fill: none; stroke: #1f77b4; stroke-width: 1.5; stroke-linecap: square"/>
   </g>
   <g id="line2d_16">
    <path d="M 135.368291 60.252695 
L 374.009673 140.395252 
" clip-path="url(#pa8045e10da)" style="fill: none; stroke-dasharray: 5.55,2.4; stroke-dashoffset: 0; stroke: #ff7f0e; stroke-width: 1.5"/>
   </g>
   <g id="line2d_17">
    <path d="M 73.832727 133.716233 
L 398.487273 133.716233 
L 398.487273 133.716233 
" clip-path="url(#pa8045e10da)" style="fill: none; stroke-dasharray: 5.55,2.4; stroke-dashoffset: 0; stroke: #2ca02c; stroke-width: 1.5"/>
   </g>
   <g id="LineCollection_1">
    <path d="M 374.009673 295.488 
L 374.009673 53.568 
" clip-path="url(#pa8045e10da)" style="fill: none; stroke-dasharray: 5.55,2.4; stroke-dashoffset: 0; stroke: #1f77b4; stroke-width: 1.5"/>
   </g>
   <g id="patch_3">
    <path d="M 57.6 307.584 
L 57.6 41.472 
" style="fill: none; stroke: #000000; stroke-width: 0.8; stroke-linejoin: miter; stroke-linecap: square"/>
   </g>
   <g id="patch_4">
    <path d="M 414.72 307.584 
L 414.72 41.472 
" style="fill: none; stroke: #000000; stroke-width: 0.8; stroke-linejoin: miter; stroke-linecap: square"/>
   </g>
   <g id="patch_5">
    <path d="M 57.6 307.584 
L 414.72 307.584 
" style="fill: none; stroke: #000000; stroke-width: 0.8; stroke-linejoin: miter; stroke-linecap: square"/>
   </g>
   <g id="patch_6">
    <path d="M 57.6 41.472 
L 414.72 41.472 
" style="fill: none; stroke: #000000; stroke-width: 0.8; stroke-linejoin: miter; stroke-linecap: square"/>
   </g>
   <g id="text_15">
    <!-- Energy Decay - 4000 Hz -->
    <g transform="translate(163.59 35.472) scale(0.12 -0.12)">
     <defs>
      <path id="DejaVuSans-45" d="M 628 4666 
L 3578 4666 
L 3578 4134 
L 1259 4134 
L 1259 2753 
L 3481 2753 
L 3481 2222 
L 1259 2222 
L 1259 531 
L 3634 531 
L 3634 0 
L 628 0 
L 628 4666 
z
" transform="scale(0.015625)"/>
      <path id="DejaVuSans-6e" d="M 3513 2113 
L 3513 0 
L 2938 0 
L 2938 2094 
Q 2938 2591 2744 2837 
Q 2550 3084 2163 3084 
Q 1697 3084 1428 2787 
Q 1159 2491 1159 1978 
L 1159 0 
L 581 0 
L 581 3500 
L 1159 3500 
L 1159 2956 
Q 1366 3272 1645 3428 
Q 1925 3584 2291 3584 
Q 2894 3584 3203 3211 
Q 3513 2838 3513 2113 
z
" transform="scale(0.015625)"/>
      <path id="DejaVuSans-65" d="M 3597 1894 
L 3597 1613 
L 953 1613 
Q 991 1019 1311 708 
Q 1631 397 2203 397 
Q 2534 397 2845 478 
Q 3156 559 3463 722 
L 3463 178 
Q 3153 47 2828 -22 
Q 2503 -91 2169 -91 
Q 1331 -91 842 396 
Q 353 884 353 1716 
Q 353 2575 817 3079 
Q 1281 3584 2069 3584 
Q 2775 3584 3186 3129 
Q 3597 2675 3597 1894 
z
M 3022 2063 
Q 3016 2534 2758 2815 
Q 2500 3097 2075 3097 
Q 1594 3097 1305 2825 
Q 1016 2553 972 2059 
L 3022 2063 
z
" transform="scale(0.015625)"/>
      <path id="DejaVuSans-72" d="M 2631 2963 
Q 2534 3019 2420 3045 
Q 2306 3072 2169 3072 
Q 1681 3072 1420 2755 
Q 1159 2438 1159 1844 
L 1159 0 
L 581 0 
L 581 3500 
L 1159 3500 
L 1159 2956 
Q 1341 3275 1631 3429 
Q 1922 3584 2338 3584 
Q 2397 3584 2469 3576 
Q 2541 3569 2628 3553 
L 2631 2963 
z
" transform="scale(0.015625)"/>
      <path id="DejaVuSans-67" d="M 2906 1791 
Q 2906 2416 2648 2759 
Q 2391 3103 1925 3103 
Q 1463 3103 1205 2759 
Q 947 2416 947 1791 
Q 947 1169 1205 825 
Q 1463 481 1925 481 
Q 2391 481 2648 825 
Q 2906 1169 2906 1791 
z
M 3481 434 
Q 3481 -459 3084 -895 
Q 2688 -1331 1869 -1331 
Q 1566 -1331 1297 -1286 
Q 1028 -1241 775 -1147 
L 775 -588 
Q 1028 -725 1275 -790 
Q 1522 -856 1778 -856 
Q 2344 -856 2625 -561 
Q 2906 -266 2906 331 
L 2906 616 
Q 2728 306 2450 153 
Q 2172 0 1784 0 
Q 1141 0 747 490 
Q 353 981 353 1791 
Q 353 2603 747 3093 
Q 1141 3584 1784 3584 
Q 2172 3584 2450 3431 
Q 2728 3278 2906 2969 
L 2906 3500 
L 3481 3500 
L 3481 434 
z
" transform="scale(0.015625)"/>
      <path id="DejaVuSans-79" d="M 2059 -325 
Q 1816 -950 1584 -1140 
Q 1353 -1331 966 -1331 
L 506 -1331 
L 506 -850 
L 844 -850 
Q 1081 -850 1212 -737 
Q 1344 -625 1503 -206 
L 1606 56 
L 191 3500 
L 800 3500 
L 1894 763 
L 2988 3500 
L 3597 3500 
L 2059 -325 
z
" transform="scale(0.015625)"/>
      <path id="DejaVuSans-20" transform="scale(0.015625)"/>
      <path id="DejaVuSans-44" d="M 1259 4147 
L 1259 519 
L 2022 519 
Q 2988 519 3436 956 
Q 3884 1394 3884 2338 
Q 3884 3275 3436 3711 
Q 2988 4147 2022 4147 
L 1259 4147 
z
M 628 4666 
L 1925 4666 
Q 3281 4666 3915 4102 
Q 4550 3538 4550 2338 
Q 4550 1131 3912 565 
Q 3275 0 1925 0 
L 628 0 
L 628 4666 
z
" transform="scale(0.015625)"/>
      <path id="DejaVuSans-63" d="M 3122 3366 
L 3122 2828 
Q 2878 2963 2633 3030 
Q 2388 3097 2138 3097 
Q 1578 3097 1268 2742 
Q 959 2388 959 1747 
Q 959 1106 1268 751 
Q 1578 397 2138 397 
Q 2388 397 2633 464 
Q 2878 531 3122 666 
L 3122 134 
Q 2881 22 2623 -34 
Q 2366 -91 2075 -91 
Q 1284 -91 818 406 
Q 353 903 353 1747 
Q 353 2603 823 3093 
Q 1294 3584 2113 3584 
Q 2378 3584 2631 3529 
Q 2884 3475 3122 3366 
z
" transform="scale(0.015625)"/>
      <path id="DejaVuSans-61" d="M 2194 1759 
Q 1497 1759 1228 1600 
Q 959 1441 959 1056 
Q 959 750 1161 570 
Q 1363 391 1709 391 
Q 2188 391 2477 730 
Q 2766 1069 2766 1631 
L 2766 1759 
L 2194 1759 
z
M 3341 1997 
L 3341 0 
L 2766 0 
L 2766 531 
Q 2569 213 2275 61 
Q 1981 -91 1556 -91 
Q 1019 -91 701 211 
Q 384 513 384 1019 
Q 384 1609 779 1909 
Q 1175 2209 1959 2209 
L 2766 2209 
L 2766 2266 
Q 2766 2663 2505 2880 
Q 2244 3097 1772 3097 
Q 1472 3097 1187 3025 
Q 903 2953 641 2809 
L 641 3341 
Q 956 3463 1253 3523 
Q 1550 3584 1831 3584 
Q 2591 3584 2966 3190 
Q 3341 2797 3341 1997 
z
" transform="scale(0.015625)"/>
      <path id="DejaVuSans-2d" d="M 313 2009 
L 1997 2009 
L 1997 1497 
L 313 1497 
L 313 2009 
z
" transform="scale(0.015625)"/>
      <path id="DejaVuSans-48" d="M 628 4666 
L 1259 4666 
L 1259 2753 
L 3553 2753 
L 3553 4666 
L 4184 4666 
L 4184 0 
L 3553 0 
L 3553 2222 
L 1259 2222 
L 1259 0 
L 628 0 
L 628 4666 
z
" transform="scale(0.015625)"/>
      <path id="DejaVuSans-7a" d="M 353 3500 
L 3084 3500 
L 3084 2975 
L 922 459 
L 3084 459 
L 3084 0 
L 275 0 
L 275 525 
L 2438 3041 
L 353 3041 
L 353 3500 
z
" transform="scale(0.015625)"/>
     </defs>
     <use xlink:href="#DejaVuSans-45"/>
     <use xlink:href="#DejaVuSans-6e" transform="translate(63.183594 0)"/>
     <use xlink:href="#DejaVuSans-65" transform="translate(126.5625 0)"/>
     <use xlink:href="#DejaVuSans-72" transform="translate(188.085938 0)"/>
     <use xlink:href="#DejaVuSans-67" transform="translate(227.449219 0)"/>
     <use xlink:href="#DejaVuSans-79" transform="translate(290.925781 0)"/>
     <use xlink:href="#DejaVuSans-20" transform="translate(350.105469 0)"/>
     <use xlink:href="#DejaVuSans-44" transform="translate(381.892578 0)"/>
     <use xlink:href="#DejaVuSans-65" transform="translate(458.894531 0)"/>
     <use xlink:href="#DejaVuSans-63" transform="translate(520.417969 0)"/>
     <use xlink:href="#DejaVuSans-61" transform="translate(575.398438 0)"/>
     <use xlink:href="#DejaVuSans-79" transform="translate(636.677734 0)"/>
     <use xlink:href="#DejaVuSans-20" transform="translate(695.857422 0)"/>
     <use xlink:href="#DejaVuSans-2d" transform="translate(727.644531 0)"/>
     <use xlink:href="#DejaVuSans-20" transform="translate(763.728516 0)"/>
     <use xlink:href="#DejaVuSans-34" transform="translate(795.515625 0)"/>
     <use xlink:href="#DejaVuSans-30" transform="translate(859.138672 0)"/>
     <use xlink:href="#DejaVuSans-30" transform="translate(922.761719 0)"/>
     <use xlink:href="#DejaVuSans-30" transform="translate(986.384766 0)"/>
     <use xlink:href="#DejaVuSans-20" transform="translate(1050.007812 0)"/>
     <use xlink:href="#DejaVuSans-48" transform="translate(1081.794922 0)"/>
     <use xlink:href="#DejaVuSans-7a" transform="translate(1156.990234 0)"/>
    </g>
   </g>
   <g id="legend_1">
    <g id="patch_7">
     <path d="M 296.968437 108.1845 
L 407.72 108.1845 
Q 409.72 108.1845 409.72 106.1845 
L 409.72 48.472 
Q 409.72 46.472 407.72 46.472 
L 296.968437 46.472 
Q 294.968437 46.472 294.968437 48.472 
L 294.968437 106.1845 
Q 294.968437 108.1845 296.968437 108.1845 
z
" style="fill: #ffffff; opacity: 0.8; stroke: #cccccc; stroke-linejoin: miter"/>
    </g>
    <g id="line2d_18">
     <path d="M 298.968437 54.570438 
L 308.968437 54.570438 
L 318.968437 54.570438 
" style="fill: none; stroke: #1f77b4; stroke-width: 1.5; stroke-linecap: square"/>
    </g>
    <g id="text_16">
     <!-- Energy -->
     <g transform="translate(326.968437 58.070438) scale(0.1 -0.1)">
      <use xlink:href="#DejaVuSans-45"/>
      <use xlink:href="#DejaVuSans-6e" transform="translate(63.183594 0)"/>
      <use xlink:href="#DejaVuSans-65" transform="translate(126.5625 0)"/>
      <use xlink:href="#DejaVuSans-72" transform="translate(188.085938 0)"/>
      <use xlink:href="#DejaVuSans-67" transform="translate(227.449219 0)"/>
      <use xlink:href="#DejaVuSans-79" transform="translate(290.925781 0)"/>
     </g>
    </g>
    <g id="line2d_19">
     <path d="M 298.968437 69.248563 
L 308.968437 69.248563 
L 318.968437 69.248563 
" style="fill: none; stroke-dasharray: 5.55,2.4; stroke-dashoffset: 0; stroke: #ff7f0e; stroke-width: 1.5"/>
    </g>
    <g id="text_17">
     <!-- Linear Fit -->
     <g transform="translate(326.968437 72.748563) scale(0.1 -0.1)">
      <defs>
       <path id="DejaVuSans-4c" d="M 628 4666 
L 1259 4666 
L 1259 531 
L 3531 531 
L 3531 0 
L 628 0 
L 628 4666 
z
" transform="scale(0.015625)"/>
       <path id="DejaVuSans-69" d="M 603 3500 
L 1178 3500 
L 1178 0 
L 603 0 
L 603 3500 
z
M 603 4863 
L 1178 4863 
L 1178 4134 
L 603 4134 
L 603 4863 
z
" transform="scale(0.015625)"/>
       <path id="DejaVuSans-46" d="M 628 4666 
L 3309 4666 
L 3309 4134 
L 1259 4134 
L 1259 2759 
L 3109 2759 
L 3109 2228 
L 1259 2228 
L 1259 0 
L 628 0 
L 628 4666 
z
" transform="scale(0.015625)"/>
       <path id="DejaVuSans-74" d="M 1172 4494 
L 1172 3500 
L 2356 3500 
L 2356 3053 
L 1172 3053 
L 1172 1153 
Q 1172 725 1289 603 
Q 1406 481 1766 481 
L 2356 481 
L 2356 0 
L 1766 0 
Q 1100 0 847 248 
Q 594 497 594 1153 
L 594 3053 
L 172 3053 
L 172 3500 
L 594 3500 
L 594 4494 
L 1172 4494 
z
" transform="scale(0.015625)"/>
      </defs>
      <use xlink:href="#DejaVuSans-4c"/>
      <use xlink:href="#DejaVuSans-69" transform="translate(55.712891 0)"/>
      <use xlink:href="#DejaVuSans-6e" transform="translate(83.496094 0)"/>
      <use xlink:href="#DejaVuSans-65" transform="translate(146.875 0)"/>
      <use xlink:href="#DejaVuSans-61" transform="translate(208.398438 0)"/>
      <use xlink:href="#DejaVuSans-72" transform="translate(269.677734 0)"/>
      <use xlink:href="#DejaVuSans-20" transform="translate(310.791016 0)"/>
      <use xlink:href="#DejaVuSans-46" transform="translate(342.578125 0)"/>
      <use xlink:href="#DejaVuSans-69" transform="translate(392.847656 0)"/>
      <use xlink:href="#DejaVuSans-74" transform="translate(420.630859 0)"/>
     </g>
    </g>
    <g id="line2d_20">
     <path d="M 298.968437 83.926688 
L 308.968437 83.926688 
L 318.968437 83.926688 
" style="fill: none; stroke-dasharray: 5.55,2.4; stroke-dashoffset: 0; stroke: #2ca02c; stroke-width: 1.5"/>
    </g>
    <g id="text_18">
     <!-- -60 dB -->
     <g transform="translate(326.968437 87.426688) scale(0.1 -0.1)">
      <defs>
       <path id="DejaVuSans-64" d="M 2906 2969 
L 2906 4863 
L 3481 4863 
L 3481 0 
L 2906 0 
L 2906 525 
Q 2725 213 2448 61 
Q 2172 -91 1784 -91 
Q 1150 -91 751 415 
Q 353 922 353 1747 
Q 353 2572 751 3078 
Q 1150 3584 1784 3584 
Q 2172 3584 2448 3432 
Q 2725 3281 2906 2969 
z
M 947 1747 
Q 947 1113 1208 752 
Q 1469 391 1925 391 
Q 2381 391 2643 752 
Q 2906 1113 2906 1747 
Q 2906 2381 2643 2742 
Q 2381 3103 1925 3103 
Q 1469 3103 1208 2742 
Q 947 2381 947 1747 
z
" transform="scale(0.015625)"/>
       <path id="DejaVuSans-42" d="M 1259 2228 
L 1259 519 
L 2272 519 
Q 2781 519 3026 730 
Q 3272 941 3272 1375 
Q 3272 1813 3026 2020 
Q 2781 2228 2272 2228 
L 1259 2228 
z
M 1259 4147 
L 1259 2741 
L 2194 2741 
Q 2656 2741 2882 2914 
Q 3109 3088 3109 3444 
Q 3109 3797 2882 3972 
Q 2656 4147 2194 4147 
L 1259 4147 
z
M 628 4666 
L 2241 4666 
Q 2963 4666 3353 4366 
Q 3744 4066 3744 3513 
Q 3744 3084 3544 2831 
Q 3344 2578 2956 2516 
Q 3422 2416 3680 2098 
Q 3938 1781 3938 1306 
Q 3938 681 3513 340 
Q 3088 0 2303 0 
L 628 0 
L 628 4666 
z
" transform="scale(0.015625)"/>
      </defs>
      <use xlink:href="#DejaVuSans-2d"/>
      <use xlink:href="#DejaVuSans-36" transform="translate(36.083984 0)"/>
      <use xlink:href="#DejaVuSans-30" transform="translate(99.707031 0)"/>
      <use xlink:href="#DejaVuSans-20" transform="translate(163.330078 0)"/>
      <use xlink:href="#DejaVuSans-64" transform="translate(195.117188 0)"/>
      <use xlink:href="#DejaVuSans-42" transform="translate(258.59375 0)"/>
     </g>
    </g>
    <g id="line2d_21">
     <path d="M 298.968437 98.604813 
L 318.968437 98.604813 
" style="fill: none; stroke-dasharray: 5.55,2.4; stroke-dashoffset: 0; stroke: #1f77b4; stroke-width: 1.5"/>
    </g>
    <g id="text_19">
     <!-- Estimated RT60 -->
     <g transform="translate(326.968437 102.104813) scale(0.1 -0.1)">
      <defs>
       <path id="DejaVuSans-73" d="M 2834 3397 
L 2834 2853 
Q 2591 2978 2328 3040 
Q 2066 3103 1784 3103 
Q 1356 3103 1142 2972 
Q 928 2841 928 2578 
Q 928 2378 1081 2264 
Q 1234 2150 1697 2047 
L 1894 2003 
Q 2506 1872 2764 1633 
Q 3022 1394 3022 966 
Q 3022 478 2636 193 
Q 2250 -91 1575 -91 
Q 1294 -91 989 -36 
Q 684 19 347 128 
L 347 722 
Q 666 556 975 473 
Q 1284 391 1588 391 
Q 1994 391 2212 530 
Q 2431 669 2431 922 
Q 2431 1156 2273 1281 
Q 2116 1406 1581 1522 
L 1381 1569 
Q 847 1681 609 1914 
Q 372 2147 372 2553 
Q 372 3047 722 3315 
Q 1072 3584 1716 3584 
Q 2034 3584 2315 3537 
Q 2597 3491 2834 3397 
z
" transform="scale(0.015625)"/>
       <path id="DejaVuSans-6d" d="M 3328 2828 
Q 3544 3216 3844 3400 
Q 4144 3584 4550 3584 
Q 5097 3584 5394 3201 
Q 5691 2819 5691 2113 
L 5691 0 
L 5113 0 
L 5113 2094 
Q 5113 2597 4934 2840 
Q 4756 3084 4391 3084 
Q 3944 3084 3684 2787 
Q 3425 2491 3425 1978 
L 3425 0 
L 2847 0 
L 2847 2094 
Q 2847 2600 2669 2842 
Q 2491 3084 2119 3084 
Q 1678 3084 1418 2786 
Q 1159 2488 1159 1978 
L 1159 0 
L 581 0 
L 581 3500 
L 1159 3500 
L 1159 2956 
Q 1356 3278 1631 3431 
Q 1906 3584 2284 3584 
Q 2666 3584 2933 3390 
Q 3200 3197 3328 2828 
z
" transform="scale(0.015625)"/>
       <path id="DejaVuSans-52" d="M 2841 2188 
Q 3044 2119 3236 1894 
Q 3428 1669 3622 1275 
L 4263 0 
L 3584 0 
L 2988 1197 
Q 2756 1666 2539 1819 
Q 2322 1972 1947 1972 
L 1259 1972 
L 1259 0 
L 628 0 
L 628 4666 
L 2053 4666 
Q 2853 4666 3247 4331 
Q 3641 3997 3641 3322 
Q 3641 2881 3436 2590 
Q 3231 2300 2841 2188 
z
M 1259 4147 
L 1259 2491 
L 2053 2491 
Q 2509 2491 2742 2702 
Q 2975 2913 2975 3322 
Q 2975 3731 2742 3939 
Q 2509 4147 2053 4147 
L 1259 4147 
z
" transform="scale(0.015625)"/>
       <path id="DejaVuSans-54" d="M -19 4666 
L 3928 4666 
L 3928 4134 
L 2272 4134 
L 2272 0 
L 1638 0 
L 1638 4134 
L -19 4134 
L -19 4666 
z
" transform="scale(0.015625)"/>
      </defs>
      <use xlink:href="#DejaVuSans-45"/>
      <use xlink:href="#DejaVuSans-73" transform="translate(63.183594 0)"/>
      <use xlink:href="#DejaVuSans-74" transform="translate(115.283203 0)"/>
      <use xlink:href="#DejaVuSans-69" transform="translate(154.492188 0)"/>
      <use xlink:href="#DejaVuSans-6d" transform="translate(182.275391 0)"/>
      <use xlink:href="#DejaVuSans-61" transform="translate(279.6875 0)"/>
      <use xlink:href="#DejaVuSans-74" transform="translate(340.966797 0)"/>
      <use xlink:href="#DejaVuSans-65" transform="translate(380.175781 0)"/>
      <use xlink:href="#DejaVuSans-64" transform="translate(441.699219 0)"/>
      <use xlink:href="#DejaVuSans-20" transform="translate(505.175781 0)"/>
      <use xlink:href="#DejaVuSans-52" transform="translate(536.962891 0)"/>
      <use xlink:href="#DejaVuSans-54" transform="translate(599.195312 0)"/>
      <use xlink:href="#DejaVuSans-36" transform="translate(660.279297 0)"/>
      <use xlink:href="#DejaVuSans-30" transform="translate(723.902344 0)"/>
     </g>
    </g>
   </g>
  </g>
 </g>
 <defs>
  <clipPath id="pa8045e10da">
   <rect x="57.6" y="41.472" width="357.12" height="266.112"/>
  </clipPath>
 </defs>
</svg>
