<?xml version="1.0" encoding="utf-8" standalone="no"?>
<!DOCTYPE svg PUBLIC "-//W3C//DTD SVG 1.1//EN"
  "http://www.w3.org/Graphics/SVG/1.1/DTD/svg11.dtd">
<svg xmlns:xlink="http://www.w3.org/1999/xlink" width="460.8pt" height="345.6pt" viewBox="0 0 460.8 345.6" xmlns="http://www.w3.org/2000/svg" version="1.1">
 <metadata>
  <rdf:RDF xmlns:dc="http://purl.org/dc/elements/1.1/" xmlns:cc="http://creativecommons.org/ns#" xmlns:rdf="http://www.w3.org/1999/02/22-rdf-syntax-ns#">
   <cc:Work>
    <dc:type rdf:resource="http://purl.org/dc/dcmitype/StillImage"/>
    <dc:date>2025-05-07T11:08:48.394068</dc:date>
    <dc:format>image/svg+xml</dc:format>
    <dc:creator>
     <cc:Agent>
      <dc:title>Matplotlib v3.10.1, https://matplotlib.org/</dc:title>
     </cc:Agent>
    </dc:creator>
   </cc:Work>
  </rdf:RDF>
 </metadata>
 <defs>
  <style type="text/css">*{stroke-linejoin: round; stroke-linecap: butt}</style>
 </defs>
 <g id="figure_1">
  <g id="patch_1">
   <path d="M 0 345.6 
L 460.8 345.6 
L 460.8 0 
L 0 0 
z
" style="fill: #ffffff"/>
  </g>
  <g id="axes_1">
   <g id="patch_2">
    <path d="M 57.6 307.584 
L 414.72 307.584 
L 414.72 41.472 
L 57.6 41.472 
z
" style="fill: #ffffff"/>
   </g>
   <g id="matplotlib.axis_1">
    <g id="xtick_1">
     <g id="line2d_1">
      <defs>
       <path id="mb9fd236b93" d="M 0 0 
L 0 3.5 
" style="stroke: #000000; stroke-width: 0.8"/>
      </defs>
      <g>
       <use xlink:href="#mb9fd236b93" x="92.963413" y="307.584" style="stroke: #000000; stroke-width: 0.8"/>
      </g>
     </g>
     <g id="text_1">
      <!-- −0.2 -->
      <g transform="translate(80.822006 322.182437) scale(0.1 -0.1)">
       <defs>
        <path id="DejaVuSans-2212" d="M 678 2272 
L 4684 2272 
L 4684 1741 
L 678 1741 
L 678 2272 
z
" transform="scale(0.015625)"/>
        <path id="DejaVuSans-30" d="M 2034 4250 
Q 1547 4250 1301 3770 
Q 1056 3291 1056 2328 
Q 1056 1369 1301 889 
Q 1547 409 2034 409 
Q 2525 409 2770 889 
Q 3016 1369 3016 2328 
Q 3016 3291 2770 3770 
Q 2525 4250 2034 4250 
z
M 2034 4750 
Q 2819 4750 3233 4129 
Q 3647 3509 3647 2328 
Q 3647 1150 3233 529 
Q 2819 -91 2034 -91 
Q 1250 -91 836 529 
Q 422 1150 422 2328 
Q 422 3509 836 4129 
Q 1250 4750 2034 4750 
z
" transform="scale(0.015625)"/>
        <path id="DejaVuSans-2e" d="M 684 794 
L 1344 794 
L 1344 0 
L 684 0 
L 684 794 
z
" transform="scale(0.015625)"/>
        <path id="DejaVuSans-32" d="M 1228 531 
L 3431 531 
L 3431 0 
L 469 0 
L 469 531 
Q 828 903 1448 1529 
Q 2069 2156 2228 2338 
Q 2531 2678 2651 2914 
Q 2772 3150 2772 3378 
Q 2772 3750 2511 3984 
Q 2250 4219 1831 4219 
Q 1534 4219 1204 4116 
Q 875 4013 500 3803 
L 500 4441 
Q 881 4594 1212 4672 
Q 1544 4750 1819 4750 
Q 2544 4750 2975 4387 
Q 3406 4025 3406 3419 
Q 3406 3131 3298 2873 
Q 3191 2616 2906 2266 
Q 2828 2175 2409 1742 
Q 1991 1309 1228 531 
z
" transform="scale(0.015625)"/>
       </defs>
       <use xlink:href="#DejaVuSans-2212"/>
       <use xlink:href="#DejaVuSans-30" transform="translate(83.789062 0)"/>
       <use xlink:href="#DejaVuSans-2e" transform="translate(147.412109 0)"/>
       <use xlink:href="#DejaVuSans-32" transform="translate(179.199219 0)"/>
      </g>
     </g>
    </g>
    <g id="xtick_2">
     <g id="line2d_2">
      <g>
       <use xlink:href="#mb9fd236b93" x="142.910266" y="307.584" style="stroke: #000000; stroke-width: 0.8"/>
      </g>
     </g>
     <g id="text_2">
      <!-- 0.0 -->
      <g transform="translate(134.958703 322.182437) scale(0.1 -0.1)">
       <use xlink:href="#DejaVuSans-30"/>
       <use xlink:href="#DejaVuSans-2e" transform="translate(63.623047 0)"/>
       <use xlink:href="#DejaVuSans-30" transform="translate(95.410156 0)"/>
      </g>
     </g>
    </g>
    <g id="xtick_3">
     <g id="line2d_3">
      <g>
       <use xlink:href="#mb9fd236b93" x="192.857119" y="307.584" style="stroke: #000000; stroke-width: 0.8"/>
      </g>
     </g>
     <g id="text_3">
      <!-- 0.2 -->
      <g transform="translate(184.905556 322.182437) scale(0.1 -0.1)">
       <use xlink:href="#DejaVuSans-30"/>
       <use xlink:href="#DejaVuSans-2e" transform="translate(63.623047 0)"/>
       <use xlink:href="#DejaVuSans-32" transform="translate(95.410156 0)"/>
      </g>
     </g>
    </g>
    <g id="xtick_4">
     <g id="line2d_4">
      <g>
       <use xlink:href="#mb9fd236b93" x="242.803972" y="307.584" style="stroke: #000000; stroke-width: 0.8"/>
      </g>
     </g>
     <g id="text_4">
      <!-- 0.4 -->
      <g transform="translate(234.85241 322.182437) scale(0.1 -0.1)">
       <defs>
        <path id="DejaVuSans-34" d="M 2419 4116 
L 825 1625 
L 2419 1625 
L 2419 4116 
z
M 2253 4666 
L 3047 4666 
L 3047 1625 
L 3713 1625 
L 3713 1100 
L 3047 1100 
L 3047 0 
L 2419 0 
L 2419 1100 
L 313 1100 
L 313 1709 
L 2253 4666 
z
" transform="scale(0.015625)"/>
       </defs>
       <use xlink:href="#DejaVuSans-30"/>
       <use xlink:href="#DejaVuSans-2e" transform="translate(63.623047 0)"/>
       <use xlink:href="#DejaVuSans-34" transform="translate(95.410156 0)"/>
      </g>
     </g>
    </g>
    <g id="xtick_5">
     <g id="line2d_5">
      <g>
       <use xlink:href="#mb9fd236b93" x="292.750825" y="307.584" style="stroke: #000000; stroke-width: 0.8"/>
      </g>
     </g>
     <g id="text_5">
      <!-- 0.6 -->
      <g transform="translate(284.799263 322.182437) scale(0.1 -0.1)">
       <defs>
        <path id="DejaVuSans-36" d="M 2113 2584 
Q 1688 2584 1439 2293 
Q 1191 2003 1191 1497 
Q 1191 994 1439 701 
Q 1688 409 2113 409 
Q 2538 409 2786 701 
Q 3034 994 3034 1497 
Q 3034 2003 2786 2293 
Q 2538 2584 2113 2584 
z
M 3366 4563 
L 3366 3988 
Q 3128 4100 2886 4159 
Q 2644 4219 2406 4219 
Q 1781 4219 1451 3797 
Q 1122 3375 1075 2522 
Q 1259 2794 1537 2939 
Q 1816 3084 2150 3084 
Q 2853 3084 3261 2657 
Q 3669 2231 3669 1497 
Q 3669 778 3244 343 
Q 2819 -91 2113 -91 
Q 1303 -91 875 529 
Q 447 1150 447 2328 
Q 447 3434 972 4092 
Q 1497 4750 2381 4750 
Q 2619 4750 2861 4703 
Q 3103 4656 3366 4563 
z
" transform="scale(0.015625)"/>
       </defs>
       <use xlink:href="#DejaVuSans-30"/>
       <use xlink:href="#DejaVuSans-2e" transform="translate(63.623047 0)"/>
       <use xlink:href="#DejaVuSans-36" transform="translate(95.410156 0)"/>
      </g>
     </g>
    </g>
    <g id="xtick_6">
     <g id="line2d_6">
      <g>
       <use xlink:href="#mb9fd236b93" x="342.697678" y="307.584" style="stroke: #000000; stroke-width: 0.8"/>
      </g>
     </g>
     <g id="text_6">
      <!-- 0.8 -->
      <g transform="translate(334.746116 322.182437) scale(0.1 -0.1)">
       <defs>
        <path id="DejaVuSans-38" d="M 2034 2216 
Q 1584 2216 1326 1975 
Q 1069 1734 1069 1313 
Q 1069 891 1326 650 
Q 1584 409 2034 409 
Q 2484 409 2743 651 
Q 3003 894 3003 1313 
Q 3003 1734 2745 1975 
Q 2488 2216 2034 2216 
z
M 1403 2484 
Q 997 2584 770 2862 
Q 544 3141 544 3541 
Q 544 4100 942 4425 
Q 1341 4750 2034 4750 
Q 2731 4750 3128 4425 
Q 3525 4100 3525 3541 
Q 3525 3141 3298 2862 
Q 3072 2584 2669 2484 
Q 3125 2378 3379 2068 
Q 3634 1759 3634 1313 
Q 3634 634 3220 271 
Q 2806 -91 2034 -91 
Q 1263 -91 848 271 
Q 434 634 434 1313 
Q 434 1759 690 2068 
Q 947 2378 1403 2484 
z
M 1172 3481 
Q 1172 3119 1398 2916 
Q 1625 2713 2034 2713 
Q 2441 2713 2670 2916 
Q 2900 3119 2900 3481 
Q 2900 3844 2670 4047 
Q 2441 4250 2034 4250 
Q 1625 4250 1398 4047 
Q 1172 3844 1172 3481 
z
" transform="scale(0.015625)"/>
       </defs>
       <use xlink:href="#DejaVuSans-30"/>
       <use xlink:href="#DejaVuSans-2e" transform="translate(63.623047 0)"/>
       <use xlink:href="#DejaVuSans-38" transform="translate(95.410156 0)"/>
      </g>
     </g>
    </g>
    <g id="xtick_7">
     <g id="line2d_7">
      <g>
       <use xlink:href="#mb9fd236b93" x="392.644531" y="307.584" style="stroke: #000000; stroke-width: 0.8"/>
      </g>
     </g>
     <g id="text_7">
      <!-- 1.0 -->
      <g transform="translate(384.692969 322.182437) scale(0.1 -0.1)">
       <defs>
        <path id="DejaVuSans-31" d="M 794 531 
L 1825 531 
L 1825 4091 
L 703 3866 
L 703 4441 
L 1819 4666 
L 2450 4666 
L 2450 531 
L 3481 531 
L 3481 0 
L 794 0 
L 794 531 
z
" transform="scale(0.015625)"/>
       </defs>
       <use xlink:href="#DejaVuSans-31"/>
       <use xlink:href="#DejaVuSans-2e" transform="translate(63.623047 0)"/>
       <use xlink:href="#DejaVuSans-30" transform="translate(95.410156 0)"/>
      </g>
     </g>
    </g>
   </g>
   <g id="matplotlib.axis_2">
    <g id="ytick_1">
     <g id="line2d_8">
      <defs>
       <path id="mb47f07f587" d="M 0 0 
L -3.5 0 
" style="stroke: #000000; stroke-width: 0.8"/>
      </defs>
      <g>
       <use xlink:href="#mb47f07f587" x="57.6" y="293.671568" style="stroke: #000000; stroke-width: 0.8"/>
      </g>
     </g>
     <g id="text_8">
      <!-- −120 -->
      <g transform="translate(23.132812 297.470786) scale(0.1 -0.1)">
       <use xlink:href="#DejaVuSans-2212"/>
       <use xlink:href="#DejaVuSans-31" transform="translate(83.789062 0)"/>
       <use xlink:href="#DejaVuSans-32" transform="translate(147.412109 0)"/>
       <use xlink:href="#DejaVuSans-30" transform="translate(211.035156 0)"/>
      </g>
     </g>
    </g>
    <g id="ytick_2">
     <g id="line2d_9">
      <g>
       <use xlink:href="#mb47f07f587" x="57.6" y="253.654306" style="stroke: #000000; stroke-width: 0.8"/>
      </g>
     </g>
     <g id="text_9">
      <!-- −100 -->
      <g transform="translate(23.132812 257.453525) scale(0.1 -0.1)">
       <use xlink:href="#DejaVuSans-2212"/>
       <use xlink:href="#DejaVuSans-31" transform="translate(83.789062 0)"/>
       <use xlink:href="#DejaVuSans-30" transform="translate(147.412109 0)"/>
       <use xlink:href="#DejaVuSans-30" transform="translate(211.035156 0)"/>
      </g>
     </g>
    </g>
    <g id="ytick_3">
     <g id="line2d_10">
      <g>
       <use xlink:href="#mb47f07f587" x="57.6" y="213.637045" style="stroke: #000000; stroke-width: 0.8"/>
      </g>
     </g>
     <g id="text_10">
      <!-- −80 -->
      <g transform="translate(29.495313 217.436264) scale(0.1 -0.1)">
       <use xlink:href="#DejaVuSans-2212"/>
       <use xlink:href="#DejaVuSans-38" transform="translate(83.789062 0)"/>
       <use xlink:href="#DejaVuSans-30" transform="translate(147.412109 0)"/>
      </g>
     </g>
    </g>
    <g id="ytick_4">
     <g id="line2d_11">
      <g>
       <use xlink:href="#mb47f07f587" x="57.6" y="173.619784" style="stroke: #000000; stroke-width: 0.8"/>
      </g>
     </g>
     <g id="text_11">
      <!-- −60 -->
      <g transform="translate(29.495313 177.419003) scale(0.1 -0.1)">
       <use xlink:href="#DejaVuSans-2212"/>
       <use xlink:href="#DejaVuSans-36" transform="translate(83.789062 0)"/>
       <use xlink:href="#DejaVuSans-30" transform="translate(147.412109 0)"/>
      </g>
     </g>
    </g>
    <g id="ytick_5">
     <g id="line2d_12">
      <g>
       <use xlink:href="#mb47f07f587" x="57.6" y="133.602523" style="stroke: #000000; stroke-width: 0.8"/>
      </g>
     </g>
     <g id="text_12">
      <!-- −40 -->
      <g transform="translate(29.495313 137.401741) scale(0.1 -0.1)">
       <use xlink:href="#DejaVuSans-2212"/>
       <use xlink:href="#DejaVuSans-34" transform="translate(83.789062 0)"/>
       <use xlink:href="#DejaVuSans-30" transform="translate(147.412109 0)"/>
      </g>
     </g>
    </g>
    <g id="ytick_6">
     <g id="line2d_13">
      <g>
       <use xlink:href="#mb47f07f587" x="57.6" y="93.585261" style="stroke: #000000; stroke-width: 0.8"/>
      </g>
     </g>
     <g id="text_13">
      <!-- −20 -->
      <g transform="translate(29.495313 97.38448) scale(0.1 -0.1)">
       <use xlink:href="#DejaVuSans-2212"/>
       <use xlink:href="#DejaVuSans-32" transform="translate(83.789062 0)"/>
       <use xlink:href="#DejaVuSans-30" transform="translate(147.412109 0)"/>
      </g>
     </g>
    </g>
    <g id="ytick_7">
     <g id="line2d_14">
      <g>
       <use xlink:href="#mb47f07f587" x="57.6" y="53.568" style="stroke: #000000; stroke-width: 0.8"/>
      </g>
     </g>
     <g id="text_14">
      <!-- 0 -->
      <g transform="translate(44.2375 57.367219) scale(0.1 -0.1)">
       <use xlink:href="#DejaVuSans-30"/>
      </g>
     </g>
    </g>
   </g>
   <g id="line2d_15">
    <path d="M 73.832727 53.568 
L 119.539301 53.677696 
L 120.158434 53.99763 
L 120.428979 54.144365 
L 120.631888 54.255893 
L 120.928448 54.410745 
L 121.214601 54.523314 
L 121.54758 54.588829 
L 125.298797 55.256759 
L 125.678601 55.713982 
L 125.808671 55.920941 
L 126.094825 56.34147 
L 126.297734 56.450073 
L 126.594294 56.618134 
L 128.009455 56.734997 
L 128.665007 56.977136 
L 129.741986 57.216396 
L 130.283077 57.287651 
L 130.798154 57.402503 
L 132.749203 58.892938 
L 132.972923 58.996221 
L 133.217455 59.104418 
L 133.566042 59.285558 
L 133.873007 59.408698 
L 134.840727 59.740261 
L 135.054042 59.907182 
L 135.189315 60.026411 
L 135.548308 60.511498 
L 135.75642 60.683088 
L 136.021762 60.725998 
L 138.597147 61.223985 
L 138.971748 61.40784 
L 139.231888 61.530894 
L 139.549259 61.636152 
L 139.762573 61.762152 
L 140.033119 61.865991 
L 140.96442 61.985725 
L 141.141315 62.148232 
L 141.401455 62.327389 
L 141.588755 62.439654 
L 141.958154 62.768658 
L 142.161063 62.87662 
L 142.556476 63.197489 
L 142.712559 63.341047 
L 142.998713 63.58264 
L 143.243245 63.694523 
L 143.534601 63.749203 
L 145.074629 63.882603 
L 145.990322 64.130866 
L 146.947636 64.204681 
L 147.259804 64.31522 
L 147.832112 64.481163 
L 150.345063 64.80655 
L 150.641622 64.988546 
L 150.787301 65.125038 
L 151.089063 65.443951 
L 151.234741 65.56559 
L 151.588531 65.97351 
L 151.729007 66.104344 
L 152.061986 66.4781 
L 152.238881 66.593013 
L 152.57186 66.87526 
L 152.79558 66.990068 
L 153.076531 67.087048 
L 154.080671 67.200166 
L 154.262769 67.404152 
L 154.496895 67.542676 
L 154.678993 67.6556 
L 155.079608 68.036115 
L 155.23049 68.170181 
L 155.568671 68.534528 
L 155.745566 68.645268 
L 156.062937 68.895641 
L 156.239832 69.013427 
L 156.499972 69.158846 
L 156.671664 69.285907 
L 156.931804 69.448355 
L 157.098294 69.570899 
L 157.38965 69.792401 
L 157.608168 69.905226 
L 157.920336 70.045536 
L 158.211692 70.15306 
L 158.534266 70.280812 
L 158.705958 70.423044 
L 158.986909 70.631263 
L 159.163804 70.744544 
L 159.522797 71.055801 
L 159.710098 71.168205 
L 160.100308 71.526948 
L 160.292811 71.646246 
L 160.657007 71.924642 
L 160.943161 72.0354 
L 161.322965 72.228893 
L 161.531077 72.344797 
L 161.848448 72.530579 
L 162.082573 72.645093 
L 162.379133 72.755575 
L 162.717315 72.868559 
L 163.15435 72.936504 
L 163.877538 72.985651 
L 164.064839 73.100684 
L 164.408224 73.421069 
L 164.517483 73.599029 
L 164.876476 74.30276 
L 164.990937 74.440889 
L 165.381147 75.073289 
L 165.552839 75.193573 
L 165.891021 75.462466 
L 166.151161 75.569721 
L 166.442517 75.654432 
L 167.009622 75.811921 
L 168.128224 76.289263 
L 170.053259 76.644542 
L 170.386238 76.729879 
L 171.156252 76.884265 
L 171.957483 77.133047 
L 173.471497 77.252597 
L 176.281007 77.659485 
L 176.780476 77.941615 
L 177.233119 78.099835 
L 178.143608 78.257827 
L 178.950042 78.85093 
L 179.267413 79.382462 
L 179.387077 79.503756 
L 180.240336 81.212658 
L 180.58372 81.451152 
L 180.859469 81.685276 
L 182.066517 81.847691 
L 182.857343 82.263346 
L 183.091469 82.385854 
L 183.24235 82.497944 
L 183.710601 83.0963 
L 183.851077 83.327731 
L 184.147636 83.774107 
L 184.355748 83.887812 
L 184.745958 84.263718 
L 184.974881 84.373315 
L 185.297455 84.519957 
L 186.020643 84.630945 
L 186.936336 84.885937 
L 187.274517 85.120873 
L 187.404587 85.32065 
L 187.66993 85.671894 
L 187.820811 85.77677 
L 188.221427 86.253957 
L 188.367105 86.423373 
L 188.648056 86.716261 
L 188.809343 86.828536 
L 189.15793 87.192524 
L 189.298406 87.332919 
L 189.636587 87.735692 
L 189.792671 87.845646 
L 190.172476 88.245542 
L 190.401399 88.366218 
L 190.708364 88.475047 
L 191.634462 88.588259 
L 192.649007 89.095135 
L 192.97158 89.359571 
L 193.106853 89.497337 
L 193.408615 89.828775 
L 193.575105 89.945704 
L 193.897678 90.230217 
L 194.189035 90.341084 
L 194.568839 90.418292 
L 194.953846 90.526839 
L 195.312839 90.652576 
L 195.484531 90.789541 
L 195.812308 91.078008 
L 195.989203 91.188487 
L 196.311776 91.432846 
L 196.577119 91.547995 
L 197.066182 91.671833 
L 199.116084 92.126041 
L 199.365818 92.220429 
L 199.495888 92.454189 
L 199.771636 92.88892 
L 199.92772 92.996764 
L 200.276308 93.371269 
L 201.301259 93.498563 
L 202.02965 93.738737 
L 203.309538 94.459293 
L 204.474965 94.569683 
L 205.380252 95.253946 
L 205.760056 95.945755 
L 205.864112 96.149772 
L 206.254322 97.104692 
L 206.36358 97.280532 
L 206.727776 97.999701 
L 206.894266 98.123658 
L 207.175217 98.309507 
L 208.413483 98.425546 
L 209.573706 98.620258 
L 209.844252 98.735496 
L 210.000336 98.869644 
L 210.333315 99.214633 
L 210.484196 99.332963 
L 210.811972 99.668647 
L 210.988867 99.793011 
L 211.243804 99.928701 
L 211.498741 100.04766 
L 211.888951 100.10923 
L 212.513287 100.144117 
L 214.604811 100.326288 
L 215.973147 101.038742 
L 216.186462 101.146362 
L 216.352951 101.263779 
L 216.727552 101.642246 
L 216.935664 101.755351 
L 217.289455 101.980688 
L 217.664056 102.096885 
L 218.085483 102.305941 
L 218.231161 102.458499 
L 218.579748 102.88129 
L 218.746238 102.990324 
L 219.136448 103.369739 
L 219.406993 103.49023 
L 219.750378 103.524041 
L 220.411133 103.651353 
L 220.988643 104.521536 
L 221.222769 105.0273 
L 221.363245 105.130879 
L 221.555748 105.818414 
L 221.758657 106.145355 
L 221.940755 106.261796 
L 222.700364 107.514557 
L 222.903273 107.591448 
L 223.751329 107.712311 
L 227.767888 108.561699 
L 228.62635 108.67018 
L 229.021762 108.761539 
L 229.63049 108.878781 
L 231.441063 109.233637 
L 232.429594 109.854884 
L 232.835413 110.38505 
L 232.970685 110.522305 
L 233.381706 111.112118 
L 233.53779 111.272748 
L 233.818741 111.523957 
L 235.015385 111.658623 
L 235.785399 111.925787 
L 237.341035 112.236597 
L 237.689622 112.325557 
L 238.511664 112.535398 
L 241.695776 112.764274 
L 242.221259 112.912512 
L 242.741538 113.150197 
L 243.802909 113.559274 
L 244.161902 113.936518 
L 244.317986 114.069515 
L 244.60414 114.300193 
L 244.931916 114.40953 
L 245.353343 114.465078 
L 245.597874 114.613917 
L 245.86842 114.707544 
L 246.040112 114.855933 
L 246.321063 115.06529 
L 246.555189 115.176065 
L 246.83614 115.302176 
L 247.127497 115.438 
L 247.502098 115.606677 
L 248.272112 115.908444 
L 248.563469 116.020939 
L 248.97449 116.34304 
L 249.203413 116.461313 
L 249.624839 116.730365 
L 249.926601 116.8446 
L 250.296 117.095435 
L 250.576951 117.216893 
L 250.925538 117.255331 
L 252.325091 117.429903 
L 252.808951 117.495077 
L 253.412476 117.611837 
L 253.724643 117.781162 
L 253.859916 117.947783 
L 254.18249 118.373961 
L 254.348979 118.487002 
L 254.744392 118.908557 
L 255.139804 119.018197 
L 256.565371 119.706208 
L 256.971189 120.094505 
L 257.142881 120.206178 
L 257.496671 120.516069 
L 258.344727 120.627635 
L 258.688112 120.734265 
L 258.875413 120.933563 
L 259.13035 121.102625 
L 259.468531 121.213386 
L 259.962797 121.241185 
L 260.509091 121.389278 
L 260.80565 121.484219 
L 260.951329 121.627593 
L 261.284308 122.015962 
L 261.41958 122.140836 
L 261.762965 122.546981 
L 261.981483 122.661973 
L 262.262434 122.744988 
L 262.912783 122.858497 
L 263.219748 122.986467 
L 263.365427 123.137524 
L 263.708811 123.546491 
L 263.859692 123.660625 
L 264.291524 124.194137 
L 264.442406 124.359093 
L 264.744168 124.672119 
L 264.941874 124.783266 
L 265.222825 124.962502 
L 265.706685 125.090577 
L 266.981371 125.372576 
L 267.496448 125.572064 
L 267.766993 125.751043 
L 267.964699 125.856917 
L 268.360112 126.196194 
L 268.734713 126.305133 
L 269.931357 127.172232 
L 270.685762 127.551368 
L 271.148811 128.119024 
L 271.336112 128.453726 
L 271.549427 128.62213 
L 271.856392 128.732972 
L 272.220587 128.761385 
L 272.959385 128.875773 
L 273.443245 129.047448 
L 276.434853 129.907301 
L 276.830266 130.025564 
L 277.147636 130.091047 
L 279.036252 130.47761 
L 280.394182 131.151402 
L 281.559608 131.473453 
L 281.850965 131.773768 
L 281.991441 131.879411 
L 282.490909 132.585411 
L 282.881119 132.903806 
L 284.181818 133.06071 
L 284.863385 133.230334 
L 285.544951 133.272119 
L 286.892476 133.459979 
L 287.225455 133.572382 
L 287.480392 133.77338 
L 288.213986 134.234285 
L 288.505343 134.510334 
L 288.734266 134.624228 
L 289.015217 134.69688 
L 289.982937 134.812688 
L 290.950657 134.94146 
L 292.05365 135.065856 
L 292.303385 135.228906 
L 292.589538 135.359014 
L 292.771636 135.47307 
L 293.203469 135.919846 
L 293.35435 136.100103 
L 293.619692 136.356247 
L 293.916252 136.466712 
L 294.35849 136.489802 
L 295.633175 136.601627 
L 296.543664 136.789196 
L 300.768336 137.646577 
L 301.01807 137.709527 
L 303.146014 138.21615 
L 303.69751 138.480324 
L 303.999273 138.555486 
L 304.196979 138.672741 
L 304.566378 138.977744 
L 304.753678 139.106045 
L 305.045035 139.277752 
L 305.580923 139.389121 
L 306.330126 139.511236 
L 306.855608 139.566571 
L 308.791049 139.737671 
L 309.514238 140.203227 
L 309.805594 140.404431 
L 310.024112 140.514387 
L 310.398713 140.81472 
L 310.59642 140.932728 
L 310.91379 141.116057 
L 311.376839 141.229108 
L 312.30814 141.448642 
L 315.122853 141.737388 
L 318.567105 142.189515 
L 319.13421 142.334775 
L 320.892755 143.295221 
L 321.158098 143.409304 
L 321.470266 143.480623 
L 322.666909 143.621908 
L 322.828196 143.874887 
L 323.109147 144.254291 
L 323.249622 144.364474 
L 323.400503 144.973206 
L 323.655441 145.719849 
L 323.82193 145.837489 
L 324.373427 146.809557 
L 324.800056 146.963199 
L 325.559664 147.351118 
L 325.887441 147.819192 
L 326.048727 147.924374 
L 326.464951 148.372052 
L 326.96442 148.483018 
L 327.791664 148.781983 
L 328.348364 148.914108 
L 329.628252 149.472656 
L 330.398266 149.584864 
L 331.121455 149.911381 
L 331.329566 150.020251 
L 331.61572 150.178602 
L 331.797818 150.299648 
L 332.109986 150.521953 
L 332.312895 150.632912 
L 332.65628 150.858064 
L 333.181762 150.979597 
L 333.66042 151.2015 
L 333.826909 151.406852 
L 334.191105 151.870187 
L 334.420028 151.985654 
L 335.044364 152.742779 
L 335.283692 153.142222 
L 335.533427 153.3469 
L 335.835189 153.472381 
L 336.298238 153.85987 
L 336.449119 153.995616 
L 336.828923 154.461219 
L 336.969399 154.596608 
L 337.323189 155.026247 
L 337.500084 155.136657 
L 337.874685 155.467793 
L 338.082797 155.591252 
L 338.34814 155.669576 
L 340.101483 155.805432 
L 342.182601 156.046389 
L 342.999441 156.178299 
L 345.715301 156.320118 
L 346.339636 156.556905 
L 346.636196 156.829238 
L 346.79228 156.937554 
L 347.187692 157.37245 
L 347.562294 157.492563 
L 349.466517 158.256808 
L 349.815105 158.452336 
L 350.101259 158.564108 
L 350.496671 158.692757 
L 350.77242 158.80278 
L 351.21986 159.141669 
L 351.365538 159.336707 
L 351.708923 159.823175 
L 351.927441 159.933241 
L 352.369678 160.385175 
L 352.681846 160.521932 
L 353.13449 160.540882 
L 356.729622 160.797757 
L 358.134378 161.616949 
L 359.476699 161.72758 
L 363.670154 162.348843 
L 364.585846 162.618902 
L 364.898014 162.728729 
L 365.298629 162.961268 
L 365.465119 163.085785 
L 365.870937 163.510772 
L 366.110266 163.623345 
L 366.484867 163.799105 
L 367.827189 164.105306 
L 367.983273 164.435771 
L 368.285035 165.006253 
L 368.435916 165.107679 
L 368.586797 165.678204 
L 368.893762 166.705017 
L 369.07586 166.834321 
L 369.247552 167.533885 
L 369.497287 168.215572 
L 369.773035 168.388174 
L 370.158042 168.775101 
L 370.647105 168.966133 
L 370.907245 169.048649 
L 371.110154 169.20664 
L 371.349483 169.271514 
L 372.483692 169.598802 
L 372.723021 169.785049 
L 372.868699 169.900734 
L 373.290126 170.449402 
L 373.53986 170.560825 
L 374.205818 171.449029 
L 374.486769 171.978154 
L 374.726098 172.099628 
L 375.12151 172.387523 
L 375.615776 172.656964 
L 375.990378 173.253272 
L 376.110042 173.381494 
L 376.266126 174.06023 
L 376.541874 174.998864 
L 376.692755 175.112835 
L 376.838434 175.798994 
L 377.140196 176.995875 
L 377.431552 177.224883 
L 378.279608 179.406124 
L 378.555357 180.57433 
L 378.768671 180.745173 
L 379.413818 182.08704 
L 379.569902 182.435026 
L 379.824839 182.828139 
L 380.568839 183.034617 
L 380.84979 183.270089 
L 380.964252 183.391565 
L 381.161958 184.141268 
L 381.349259 184.398605 
L 381.46372 184.514293 
L 381.645818 185.287168 
L 381.848727 185.683561 
L 382.025622 185.800505 
L 382.56151 186.610191 
L 382.712392 186.767787 
L 383.128615 187.328858 
L 383.367944 187.443374 
L 384.091133 188.296105 
L 384.512559 189.54493 
L 384.60621 189.771067 
L 385.168112 191.694022 
L 385.303385 192.199285 
L 385.651972 193.467146 
L 385.844476 193.600249 
L 386.016168 194.279508 
L 386.328336 195.291985 
L 386.510434 195.438001 
L 386.650909 196.21144 
L 386.952671 197.689685 
L 387.108755 197.825497 
L 387.280448 198.679986 
L 387.504168 199.303608 
L 387.915189 199.336175 
L 388.097287 199.487564 
L 388.768448 201.010674 
L 389.012979 201.527363 
L 389.351161 201.782225 
L 389.559273 202.764305 
L 389.756979 203.193778 
L 389.855832 203.295835 
L 389.965091 203.984549 
L 390.318881 206.386465 
L 390.407329 206.499493 
L 390.547804 207.246787 
L 390.870378 208.720954 
L 391.073287 208.796378 
L 391.213762 208.909813 
L 391.333427 209.43376 
L 391.812084 212.003129 
L 391.905734 212.475315 
L 392.093035 215.005612 
L 392.337566 217.098554 
L 392.535273 217.381143 
L 392.665343 218.655831 
L 393.071161 222.93794 
L 393.185622 223.0402 
L 393.289678 223.669988 
L 393.476979 226.609116 
L 393.726713 229.312949 
L 393.85158 229.473393 
L 393.955636 230.533116 
L 394.413483 236.215161 
L 394.512336 236.792152 
L 394.907748 239.402684 
L 395.089846 239.513268 
L 395.703776 240.304991 
L 395.854657 240.440897 
L 396.099189 241.139275 
L 396.317706 241.435007 
L 396.489399 241.549315 
L 396.614266 242.122659 
L 397.259413 247.539754 
L 397.576783 253.255551 
L 397.634014 253.379835 
L 397.722462 254.480479 
L 397.873343 260.077228 
L 398.253147 274.668656 
L 398.305175 275.02208 
L 398.38842 277.598865 
L 398.466462 287.821036 
L 398.48207 295.488 
L 398.48207 295.488 
" clip-path="url(#pe8ea36985d)" style="fill: none; stroke: #1f77b4; stroke-width: 1.5; stroke-linecap: square"/>
   </g>
   <g id="line2d_16">
    <path d="M 142.910266 63.573518 
L 381.042294 183.624099 
" clip-path="url(#pe8ea36985d)" style="fill: none; stroke-dasharray: 5.55,2.4; stroke-dashoffset: 0; stroke: #ff7f0e; stroke-width: 1.5"/>
   </g>
   <g id="line2d_17">
    <path d="M 73.832727 173.619784 
L 398.487273 173.619784 
L 398.487273 173.619784 
" clip-path="url(#pe8ea36985d)" style="fill: none; stroke-dasharray: 5.55,2.4; stroke-dashoffset: 0; stroke: #2ca02c; stroke-width: 1.5"/>
   </g>
   <g id="LineCollection_1">
    <path d="M 381.042294 295.488 
L 381.042294 53.568 
" clip-path="url(#pe8ea36985d)" style="fill: none; stroke-dasharray: 5.55,2.4; stroke-dashoffset: 0; stroke: #1f77b4; stroke-width: 1.5"/>
   </g>
   <g id="patch_3">
    <path d="M 57.6 307.584 
L 57.6 41.472 
" style="fill: none; stroke: #000000; stroke-width: 0.8; stroke-linejoin: miter; stroke-linecap: square"/>
   </g>
   <g id="patch_4">
    <path d="M 414.72 307.584 
L 414.72 41.472 
" style="fill: none; stroke: #000000; stroke-width: 0.8; stroke-linejoin: miter; stroke-linecap: square"/>
   </g>
   <g id="patch_5">
    <path d="M 57.6 307.584 
L 414.72 307.584 
" style="fill: none; stroke: #000000; stroke-width: 0.8; stroke-linejoin: miter; stroke-linecap: square"/>
   </g>
   <g id="patch_6">
    <path d="M 57.6 41.472 
L 414.72 41.472 
" style="fill: none; stroke: #000000; stroke-width: 0.8; stroke-linejoin: miter; stroke-linecap: square"/>
   </g>
   <g id="text_15">
    <!-- Energy Decay - 250 Hz -->
    <g transform="translate(167.4075 35.472) scale(0.12 -0.12)">
     <defs>
      <path id="DejaVuSans-45" d="M 628 4666 
L 3578 4666 
L 3578 4134 
L 1259 4134 
L 1259 2753 
L 3481 2753 
L 3481 2222 
L 1259 2222 
L 1259 531 
L 3634 531 
L 3634 0 
L 628 0 
L 628 4666 
z
" transform="scale(0.015625)"/>
      <path id="DejaVuSans-6e" d="M 3513 2113 
L 3513 0 
L 2938 0 
L 2938 2094 
Q 2938 2591 2744 2837 
Q 2550 3084 2163 3084 
Q 1697 3084 1428 2787 
Q 1159 2491 1159 1978 
L 1159 0 
L 581 0 
L 581 3500 
L 1159 3500 
L 1159 2956 
Q 1366 3272 1645 3428 
Q 1925 3584 2291 3584 
Q 2894 3584 3203 3211 
Q 3513 2838 3513 2113 
z
" transform="scale(0.015625)"/>
      <path id="DejaVuSans-65" d="M 3597 1894 
L 3597 1613 
L 953 1613 
Q 991 1019 1311 708 
Q 1631 397 2203 397 
Q 2534 397 2845 478 
Q 3156 559 3463 722 
L 3463 178 
Q 3153 47 2828 -22 
Q 2503 -91 2169 -91 
Q 1331 -91 842 396 
Q 353 884 353 1716 
Q 353 2575 817 3079 
Q 1281 3584 2069 3584 
Q 2775 3584 3186 3129 
Q 3597 2675 3597 1894 
z
M 3022 2063 
Q 3016 2534 2758 2815 
Q 2500 3097 2075 3097 
Q 1594 3097 1305 2825 
Q 1016 2553 972 2059 
L 3022 2063 
z
" transform="scale(0.015625)"/>
      <path id="DejaVuSans-72" d="M 2631 2963 
Q 2534 3019 2420 3045 
Q 2306 3072 2169 3072 
Q 1681 3072 1420 2755 
Q 1159 2438 1159 1844 
L 1159 0 
L 581 0 
L 581 3500 
L 1159 3500 
L 1159 2956 
Q 1341 3275 1631 3429 
Q 1922 3584 2338 3584 
Q 2397 3584 2469 3576 
Q 2541 3569 2628 3553 
L 2631 2963 
z
" transform="scale(0.015625)"/>
      <path id="DejaVuSans-67" d="M 2906 1791 
Q 2906 2416 2648 2759 
Q 2391 3103 1925 3103 
Q 1463 3103 1205 2759 
Q 947 2416 947 1791 
Q 947 1169 1205 825 
Q 1463 481 1925 481 
Q 2391 481 2648 825 
Q 2906 1169 2906 1791 
z
M 3481 434 
Q 3481 -459 3084 -895 
Q 2688 -1331 1869 -1331 
Q 1566 -1331 1297 -1286 
Q 1028 -1241 775 -1147 
L 775 -588 
Q 1028 -725 1275 -790 
Q 1522 -856 1778 -856 
Q 2344 -856 2625 -561 
Q 2906 -266 2906 331 
L 2906 616 
Q 2728 306 2450 153 
Q 2172 0 1784 0 
Q 1141 0 747 490 
Q 353 981 353 1791 
Q 353 2603 747 3093 
Q 1141 3584 1784 3584 
Q 2172 3584 2450 3431 
Q 2728 3278 2906 2969 
L 2906 3500 
L 3481 3500 
L 3481 434 
z
" transform="scale(0.015625)"/>
      <path id="DejaVuSans-79" d="M 2059 -325 
Q 1816 -950 1584 -1140 
Q 1353 -1331 966 -1331 
L 506 -1331 
L 506 -850 
L 844 -850 
Q 1081 -850 1212 -737 
Q 1344 -625 1503 -206 
L 1606 56 
L 191 3500 
L 800 3500 
L 1894 763 
L 2988 3500 
L 3597 3500 
L 2059 -325 
z
" transform="scale(0.015625)"/>
      <path id="DejaVuSans-20" transform="scale(0.015625)"/>
      <path id="DejaVuSans-44" d="M 1259 4147 
L 1259 519 
L 2022 519 
Q 2988 519 3436 956 
Q 3884 1394 3884 2338 
Q 3884 3275 3436 3711 
Q 2988 4147 2022 4147 
L 1259 4147 
z
M 628 4666 
L 1925 4666 
Q 3281 4666 3915 4102 
Q 4550 3538 4550 2338 
Q 4550 1131 3912 565 
Q 3275 0 1925 0 
L 628 0 
L 628 4666 
z
" transform="scale(0.015625)"/>
      <path id="DejaVuSans-63" d="M 3122 3366 
L 3122 2828 
Q 2878 2963 2633 3030 
Q 2388 3097 2138 3097 
Q 1578 3097 1268 2742 
Q 959 2388 959 1747 
Q 959 1106 1268 751 
Q 1578 397 2138 397 
Q 2388 397 2633 464 
Q 2878 531 3122 666 
L 3122 134 
Q 2881 22 2623 -34 
Q 2366 -91 2075 -91 
Q 1284 -91 818 406 
Q 353 903 353 1747 
Q 353 2603 823 3093 
Q 1294 3584 2113 3584 
Q 2378 3584 2631 3529 
Q 2884 3475 3122 3366 
z
" transform="scale(0.015625)"/>
      <path id="DejaVuSans-61" d="M 2194 1759 
Q 1497 1759 1228 1600 
Q 959 1441 959 1056 
Q 959 750 1161 570 
Q 1363 391 1709 391 
Q 2188 391 2477 730 
Q 2766 1069 2766 1631 
L 2766 1759 
L 2194 1759 
z
M 3341 1997 
L 3341 0 
L 2766 0 
L 2766 531 
Q 2569 213 2275 61 
Q 1981 -91 1556 -91 
Q 1019 -91 701 211 
Q 384 513 384 1019 
Q 384 1609 779 1909 
Q 1175 2209 1959 2209 
L 2766 2209 
L 2766 2266 
Q 2766 2663 2505 2880 
Q 2244 3097 1772 3097 
Q 1472 3097 1187 3025 
Q 903 2953 641 2809 
L 641 3341 
Q 956 3463 1253 3523 
Q 1550 3584 1831 3584 
Q 2591 3584 2966 3190 
Q 3341 2797 3341 1997 
z
" transform="scale(0.015625)"/>
      <path id="DejaVuSans-2d" d="M 313 2009 
L 1997 2009 
L 1997 1497 
L 313 1497 
L 313 2009 
z
" transform="scale(0.015625)"/>
      <path id="DejaVuSans-35" d="M 691 4666 
L 3169 4666 
L 3169 4134 
L 1269 4134 
L 1269 2991 
Q 1406 3038 1543 3061 
Q 1681 3084 1819 3084 
Q 2600 3084 3056 2656 
Q 3513 2228 3513 1497 
Q 3513 744 3044 326 
Q 2575 -91 1722 -91 
Q 1428 -91 1123 -41 
Q 819 9 494 109 
L 494 744 
Q 775 591 1075 516 
Q 1375 441 1709 441 
Q 2250 441 2565 725 
Q 2881 1009 2881 1497 
Q 2881 1984 2565 2268 
Q 2250 2553 1709 2553 
Q 1456 2553 1204 2497 
Q 953 2441 691 2322 
L 691 4666 
z
" transform="scale(0.015625)"/>
      <path id="DejaVuSans-48" d="M 628 4666 
L 1259 4666 
L 1259 2753 
L 3553 2753 
L 3553 4666 
L 4184 4666 
L 4184 0 
L 3553 0 
L 3553 2222 
L 1259 2222 
L 1259 0 
L 628 0 
L 628 4666 
z
" transform="scale(0.015625)"/>
      <path id="DejaVuSans-7a" d="M 353 3500 
L 3084 3500 
L 3084 2975 
L 922 459 
L 3084 459 
L 3084 0 
L 275 0 
L 275 525 
L 2438 3041 
L 353 3041 
L 353 3500 
z
" transform="scale(0.015625)"/>
     </defs>
     <use xlink:href="#DejaVuSans-45"/>
     <use xlink:href="#DejaVuSans-6e" transform="translate(63.183594 0)"/>
     <use xlink:href="#DejaVuSans-65" transform="translate(126.5625 0)"/>
     <use xlink:href="#DejaVuSans-72" transform="translate(188.085938 0)"/>
     <use xlink:href="#DejaVuSans-67" transform="translate(227.449219 0)"/>
     <use xlink:href="#DejaVuSans-79" transform="translate(290.925781 0)"/>
     <use xlink:href="#DejaVuSans-20" transform="translate(350.105469 0)"/>
     <use xlink:href="#DejaVuSans-44" transform="translate(381.892578 0)"/>
     <use xlink:href="#DejaVuSans-65" transform="translate(458.894531 0)"/>
     <use xlink:href="#DejaVuSans-63" transform="translate(520.417969 0)"/>
     <use xlink:href="#DejaVuSans-61" transform="translate(575.398438 0)"/>
     <use xlink:href="#DejaVuSans-79" transform="translate(636.677734 0)"/>
     <use xlink:href="#DejaVuSans-20" transform="translate(695.857422 0)"/>
     <use xlink:href="#DejaVuSans-2d" transform="translate(727.644531 0)"/>
     <use xlink:href="#DejaVuSans-20" transform="translate(763.728516 0)"/>
     <use xlink:href="#DejaVuSans-32" transform="translate(795.515625 0)"/>
     <use xlink:href="#DejaVuSans-35" transform="translate(859.138672 0)"/>
     <use xlink:href="#DejaVuSans-30" transform="translate(922.761719 0)"/>
     <use xlink:href="#DejaVuSans-20" transform="translate(986.384766 0)"/>
     <use xlink:href="#DejaVuSans-48" transform="translate(1018.171875 0)"/>
     <use xlink:href="#DejaVuSans-7a" transform="translate(1093.367188 0)"/>
    </g>
   </g>
   <g id="legend_1">
    <g id="patch_7">
     <path d="M 296.968437 108.1845 
L 407.72 108.1845 
Q 409.72 108.1845 409.72 106.1845 
L 409.72 48.472 
Q 409.72 46.472 407.72 46.472 
L 296.968437 46.472 
Q 294.968437 46.472 294.968437 48.472 
L 294.968437 106.1845 
Q 294.968437 108.1845 296.968437 108.1845 
z
" style="fill: #ffffff; opacity: 0.8; stroke: #cccccc; stroke-linejoin: miter"/>
    </g>
    <g id="line2d_18">
     <path d="M 298.968437 54.570438 
L 308.968437 54.570438 
L 318.968437 54.570438 
" style="fill: none; stroke: #1f77b4; stroke-width: 1.5; stroke-linecap: square"/>
    </g>
    <g id="text_16">
     <!-- Energy -->
     <g transform="translate(326.968437 58.070438) scale(0.1 -0.1)">
      <use xlink:href="#DejaVuSans-45"/>
      <use xlink:href="#DejaVuSans-6e" transform="translate(63.183594 0)"/>
      <use xlink:href="#DejaVuSans-65" transform="translate(126.5625 0)"/>
      <use xlink:href="#DejaVuSans-72" transform="translate(188.085938 0)"/>
      <use xlink:href="#DejaVuSans-67" transform="translate(227.449219 0)"/>
      <use xlink:href="#DejaVuSans-79" transform="translate(290.925781 0)"/>
     </g>
    </g>
    <g id="line2d_19">
     <path d="M 298.968437 69.248563 
L 308.968437 69.248563 
L 318.968437 69.248563 
" style="fill: none; stroke-dasharray: 5.55,2.4; stroke-dashoffset: 0; stroke: #ff7f0e; stroke-width: 1.5"/>
    </g>
    <g id="text_17">
     <!-- Linear Fit -->
     <g transform="translate(326.968437 72.748563) scale(0.1 -0.1)">
      <defs>
       <path id="DejaVuSans-4c" d="M 628 4666 
L 1259 4666 
L 1259 531 
L 3531 531 
L 3531 0 
L 628 0 
L 628 4666 
z
" transform="scale(0.015625)"/>
       <path id="DejaVuSans-69" d="M 603 3500 
L 1178 3500 
L 1178 0 
L 603 0 
L 603 3500 
z
M 603 4863 
L 1178 4863 
L 1178 4134 
L 603 4134 
L 603 4863 
z
" transform="scale(0.015625)"/>
       <path id="DejaVuSans-46" d="M 628 4666 
L 3309 4666 
L 3309 4134 
L 1259 4134 
L 1259 2759 
L 3109 2759 
L 3109 2228 
L 1259 2228 
L 1259 0 
L 628 0 
L 628 4666 
z
" transform="scale(0.015625)"/>
       <path id="DejaVuSans-74" d="M 1172 4494 
L 1172 3500 
L 2356 3500 
L 2356 3053 
L 1172 3053 
L 1172 1153 
Q 1172 725 1289 603 
Q 1406 481 1766 481 
L 2356 481 
L 2356 0 
L 1766 0 
Q 1100 0 847 248 
Q 594 497 594 1153 
L 594 3053 
L 172 3053 
L 172 3500 
L 594 3500 
L 594 4494 
L 1172 4494 
z
" transform="scale(0.015625)"/>
      </defs>
      <use xlink:href="#DejaVuSans-4c"/>
      <use xlink:href="#DejaVuSans-69" transform="translate(55.712891 0)"/>
      <use xlink:href="#DejaVuSans-6e" transform="translate(83.496094 0)"/>
      <use xlink:href="#DejaVuSans-65" transform="translate(146.875 0)"/>
      <use xlink:href="#DejaVuSans-61" transform="translate(208.398438 0)"/>
      <use xlink:href="#DejaVuSans-72" transform="translate(269.677734 0)"/>
      <use xlink:href="#DejaVuSans-20" transform="translate(310.791016 0)"/>
      <use xlink:href="#DejaVuSans-46" transform="translate(342.578125 0)"/>
      <use xlink:href="#DejaVuSans-69" transform="translate(392.847656 0)"/>
      <use xlink:href="#DejaVuSans-74" transform="translate(420.630859 0)"/>
     </g>
    </g>
    <g id="line2d_20">
     <path d="M 298.968437 83.926688 
L 308.968437 83.926688 
L 318.968437 83.926688 
" style="fill: none; stroke-dasharray: 5.55,2.4; stroke-dashoffset: 0; stroke: #2ca02c; stroke-width: 1.5"/>
    </g>
    <g id="text_18">
     <!-- -60 dB -->
     <g transform="translate(326.968437 87.426688) scale(0.1 -0.1)">
      <defs>
       <path id="DejaVuSans-64" d="M 2906 2969 
L 2906 4863 
L 3481 4863 
L 3481 0 
L 2906 0 
L 2906 525 
Q 2725 213 2448 61 
Q 2172 -91 1784 -91 
Q 1150 -91 751 415 
Q 353 922 353 1747 
Q 353 2572 751 3078 
Q 1150 3584 1784 3584 
Q 2172 3584 2448 3432 
Q 2725 3281 2906 2969 
z
M 947 1747 
Q 947 1113 1208 752 
Q 1469 391 1925 391 
Q 2381 391 2643 752 
Q 2906 1113 2906 1747 
Q 2906 2381 2643 2742 
Q 2381 3103 1925 3103 
Q 1469 3103 1208 2742 
Q 947 2381 947 1747 
z
" transform="scale(0.015625)"/>
       <path id="DejaVuSans-42" d="M 1259 2228 
L 1259 519 
L 2272 519 
Q 2781 519 3026 730 
Q 3272 941 3272 1375 
Q 3272 1813 3026 2020 
Q 2781 2228 2272 2228 
L 1259 2228 
z
M 1259 4147 
L 1259 2741 
L 2194 2741 
Q 2656 2741 2882 2914 
Q 3109 3088 3109 3444 
Q 3109 3797 2882 3972 
Q 2656 4147 2194 4147 
L 1259 4147 
z
M 628 4666 
L 2241 4666 
Q 2963 4666 3353 4366 
Q 3744 4066 3744 3513 
Q 3744 3084 3544 2831 
Q 3344 2578 2956 2516 
Q 3422 2416 3680 2098 
Q 3938 1781 3938 1306 
Q 3938 681 3513 340 
Q 3088 0 2303 0 
L 628 0 
L 628 4666 
z
" transform="scale(0.015625)"/>
      </defs>
      <use xlink:href="#DejaVuSans-2d"/>
      <use xlink:href="#DejaVuSans-36" transform="translate(36.083984 0)"/>
      <use xlink:href="#DejaVuSans-30" transform="translate(99.707031 0)"/>
      <use xlink:href="#DejaVuSans-20" transform="translate(163.330078 0)"/>
      <use xlink:href="#DejaVuSans-64" transform="translate(195.117188 0)"/>
      <use xlink:href="#DejaVuSans-42" transform="translate(258.59375 0)"/>
     </g>
    </g>
    <g id="line2d_21">
     <path d="M 298.968437 98.604813 
L 318.968437 98.604813 
" style="fill: none; stroke-dasharray: 5.55,2.4; stroke-dashoffset: 0; stroke: #1f77b4; stroke-width: 1.5"/>
    </g>
    <g id="text_19">
     <!-- Estimated RT60 -->
     <g transform="translate(326.968437 102.104813) scale(0.1 -0.1)">
      <defs>
       <path id="DejaVuSans-73" d="M 2834 3397 
L 2834 2853 
Q 2591 2978 2328 3040 
Q 2066 3103 1784 3103 
Q 1356 3103 1142 2972 
Q 928 2841 928 2578 
Q 928 2378 1081 2264 
Q 1234 2150 1697 2047 
L 1894 2003 
Q 2506 1872 2764 1633 
Q 3022 1394 3022 966 
Q 3022 478 2636 193 
Q 2250 -91 1575 -91 
Q 1294 -91 989 -36 
Q 684 19 347 128 
L 347 722 
Q 666 556 975 473 
Q 1284 391 1588 391 
Q 1994 391 2212 530 
Q 2431 669 2431 922 
Q 2431 1156 2273 1281 
Q 2116 1406 1581 1522 
L 1381 1569 
Q 847 1681 609 1914 
Q 372 2147 372 2553 
Q 372 3047 722 3315 
Q 1072 3584 1716 3584 
Q 2034 3584 2315 3537 
Q 2597 3491 2834 3397 
z
" transform="scale(0.015625)"/>
       <path id="DejaVuSans-6d" d="M 3328 2828 
Q 3544 3216 3844 3400 
Q 4144 3584 4550 3584 
Q 5097 3584 5394 3201 
Q 5691 2819 5691 2113 
L 5691 0 
L 5113 0 
L 5113 2094 
Q 5113 2597 4934 2840 
Q 4756 3084 4391 3084 
Q 3944 3084 3684 2787 
Q 3425 2491 3425 1978 
L 3425 0 
L 2847 0 
L 2847 2094 
Q 2847 2600 2669 2842 
Q 2491 3084 2119 3084 
Q 1678 3084 1418 2786 
Q 1159 2488 1159 1978 
L 1159 0 
L 581 0 
L 581 3500 
L 1159 3500 
L 1159 2956 
Q 1356 3278 1631 3431 
Q 1906 3584 2284 3584 
Q 2666 3584 2933 3390 
Q 3200 3197 3328 2828 
z
" transform="scale(0.015625)"/>
       <path id="DejaVuSans-52" d="M 2841 2188 
Q 3044 2119 3236 1894 
Q 3428 1669 3622 1275 
L 4263 0 
L 3584 0 
L 2988 1197 
Q 2756 1666 2539 1819 
Q 2322 1972 1947 1972 
L 1259 1972 
L 1259 0 
L 628 0 
L 628 4666 
L 2053 4666 
Q 2853 4666 3247 4331 
Q 3641 3997 3641 3322 
Q 3641 2881 3436 2590 
Q 3231 2300 2841 2188 
z
M 1259 4147 
L 1259 2491 
L 2053 2491 
Q 2509 2491 2742 2702 
Q 2975 2913 2975 3322 
Q 2975 3731 2742 3939 
Q 2509 4147 2053 4147 
L 1259 4147 
z
" transform="scale(0.015625)"/>
       <path id="DejaVuSans-54" d="M -19 4666 
L 3928 4666 
L 3928 4134 
L 2272 4134 
L 2272 0 
L 1638 0 
L 1638 4134 
L -19 4134 
L -19 4666 
z
" transform="scale(0.015625)"/>
      </defs>
      <use xlink:href="#DejaVuSans-45"/>
      <use xlink:href="#DejaVuSans-73" transform="translate(63.183594 0)"/>
      <use xlink:href="#DejaVuSans-74" transform="translate(115.283203 0)"/>
      <use xlink:href="#DejaVuSans-69" transform="translate(154.492188 0)"/>
      <use xlink:href="#DejaVuSans-6d" transform="translate(182.275391 0)"/>
      <use xlink:href="#DejaVuSans-61" transform="translate(279.6875 0)"/>
      <use xlink:href="#DejaVuSans-74" transform="translate(340.966797 0)"/>
      <use xlink:href="#DejaVuSans-65" transform="translate(380.175781 0)"/>
      <use xlink:href="#DejaVuSans-64" transform="translate(441.699219 0)"/>
      <use xlink:href="#DejaVuSans-20" transform="translate(505.175781 0)"/>
      <use xlink:href="#DejaVuSans-52" transform="translate(536.962891 0)"/>
      <use xlink:href="#DejaVuSans-54" transform="translate(599.195312 0)"/>
      <use xlink:href="#DejaVuSans-36" transform="translate(660.279297 0)"/>
      <use xlink:href="#DejaVuSans-30" transform="translate(723.902344 0)"/>
     </g>
    </g>
   </g>
  </g>
 </g>
 <defs>
  <clipPath id="pe8ea36985d">
   <rect x="57.6" y="41.472" width="357.12" height="266.112"/>
  </clipPath>
 </defs>
</svg>
