<?xml version="1.0" encoding="utf-8" standalone="no"?>
<!DOCTYPE svg PUBLIC "-//W3C//DTD SVG 1.1//EN"
  "http://www.w3.org/Graphics/SVG/1.1/DTD/svg11.dtd">
<svg xmlns:xlink="http://www.w3.org/1999/xlink" width="460.8pt" height="345.6pt" viewBox="0 0 460.8 345.6" xmlns="http://www.w3.org/2000/svg" version="1.1">
 <metadata>
  <rdf:RDF xmlns:dc="http://purl.org/dc/elements/1.1/" xmlns:cc="http://creativecommons.org/ns#" xmlns:rdf="http://www.w3.org/1999/02/22-rdf-syntax-ns#">
   <cc:Work>
    <dc:type rdf:resource="http://purl.org/dc/dcmitype/StillImage"/>
    <dc:date>2025-05-07T14:05:58.513886</dc:date>
    <dc:format>image/svg+xml</dc:format>
    <dc:creator>
     <cc:Agent>
      <dc:title>Matplotlib v3.10.1, https://matplotlib.org/</dc:title>
     </cc:Agent>
    </dc:creator>
   </cc:Work>
  </rdf:RDF>
 </metadata>
 <defs>
  <style type="text/css">*{stroke-linejoin: round; stroke-linecap: butt}</style>
 </defs>
 <g id="figure_1">
  <g id="patch_1">
   <path d="M 0 345.6 
L 460.8 345.6 
L 460.8 0 
L 0 0 
z
" style="fill: #ffffff"/>
  </g>
  <g id="axes_1">
   <g id="patch_2">
    <path d="M 57.6 307.584 
L 414.72 307.584 
L 414.72 41.472 
L 57.6 41.472 
z
" style="fill: #ffffff"/>
   </g>
   <g id="matplotlib.axis_1">
    <g id="xtick_1">
     <g id="line2d_1">
      <defs>
       <path id="mb25748e988" d="M 0 0 
L 0 3.5 
" style="stroke: #000000; stroke-width: 0.8"/>
      </defs>
      <g>
       <use xlink:href="#mb25748e988" x="76.490836" y="307.584" style="stroke: #000000; stroke-width: 0.8"/>
      </g>
     </g>
     <g id="text_1">
      <!-- −0.2 -->
      <g transform="translate(64.34943 322.182437) scale(0.1 -0.1)">
       <defs>
        <path id="DejaVuSans-2212" d="M 678 2272 
L 4684 2272 
L 4684 1741 
L 678 1741 
L 678 2272 
z
" transform="scale(0.015625)"/>
        <path id="DejaVuSans-30" d="M 2034 4250 
Q 1547 4250 1301 3770 
Q 1056 3291 1056 2328 
Q 1056 1369 1301 889 
Q 1547 409 2034 409 
Q 2525 409 2770 889 
Q 3016 1369 3016 2328 
Q 3016 3291 2770 3770 
Q 2525 4250 2034 4250 
z
M 2034 4750 
Q 2819 4750 3233 4129 
Q 3647 3509 3647 2328 
Q 3647 1150 3233 529 
Q 2819 -91 2034 -91 
Q 1250 -91 836 529 
Q 422 1150 422 2328 
Q 422 3509 836 4129 
Q 1250 4750 2034 4750 
z
" transform="scale(0.015625)"/>
        <path id="DejaVuSans-2e" d="M 684 794 
L 1344 794 
L 1344 0 
L 684 0 
L 684 794 
z
" transform="scale(0.015625)"/>
        <path id="DejaVuSans-32" d="M 1228 531 
L 3431 531 
L 3431 0 
L 469 0 
L 469 531 
Q 828 903 1448 1529 
Q 2069 2156 2228 2338 
Q 2531 2678 2651 2914 
Q 2772 3150 2772 3378 
Q 2772 3750 2511 3984 
Q 2250 4219 1831 4219 
Q 1534 4219 1204 4116 
Q 875 4013 500 3803 
L 500 4441 
Q 881 4594 1212 4672 
Q 1544 4750 1819 4750 
Q 2544 4750 2975 4387 
Q 3406 4025 3406 3419 
Q 3406 3131 3298 2873 
Q 3191 2616 2906 2266 
Q 2828 2175 2409 1742 
Q 1991 1309 1228 531 
z
" transform="scale(0.015625)"/>
       </defs>
       <use xlink:href="#DejaVuSans-2212"/>
       <use xlink:href="#DejaVuSans-30" transform="translate(83.789062 0)"/>
       <use xlink:href="#DejaVuSans-2e" transform="translate(147.412109 0)"/>
       <use xlink:href="#DejaVuSans-32" transform="translate(179.199219 0)"/>
      </g>
     </g>
    </g>
    <g id="xtick_2">
     <g id="line2d_2">
      <g>
       <use xlink:href="#mb25748e988" x="141.421745" y="307.584" style="stroke: #000000; stroke-width: 0.8"/>
      </g>
     </g>
     <g id="text_2">
      <!-- 0.0 -->
      <g transform="translate(133.470183 322.182437) scale(0.1 -0.1)">
       <use xlink:href="#DejaVuSans-30"/>
       <use xlink:href="#DejaVuSans-2e" transform="translate(63.623047 0)"/>
       <use xlink:href="#DejaVuSans-30" transform="translate(95.410156 0)"/>
      </g>
     </g>
    </g>
    <g id="xtick_3">
     <g id="line2d_3">
      <g>
       <use xlink:href="#mb25748e988" x="206.352655" y="307.584" style="stroke: #000000; stroke-width: 0.8"/>
      </g>
     </g>
     <g id="text_3">
      <!-- 0.2 -->
      <g transform="translate(198.401092 322.182437) scale(0.1 -0.1)">
       <use xlink:href="#DejaVuSans-30"/>
       <use xlink:href="#DejaVuSans-2e" transform="translate(63.623047 0)"/>
       <use xlink:href="#DejaVuSans-32" transform="translate(95.410156 0)"/>
      </g>
     </g>
    </g>
    <g id="xtick_4">
     <g id="line2d_4">
      <g>
       <use xlink:href="#mb25748e988" x="271.283564" y="307.584" style="stroke: #000000; stroke-width: 0.8"/>
      </g>
     </g>
     <g id="text_4">
      <!-- 0.4 -->
      <g transform="translate(263.332001 322.182437) scale(0.1 -0.1)">
       <defs>
        <path id="DejaVuSans-34" d="M 2419 4116 
L 825 1625 
L 2419 1625 
L 2419 4116 
z
M 2253 4666 
L 3047 4666 
L 3047 1625 
L 3713 1625 
L 3713 1100 
L 3047 1100 
L 3047 0 
L 2419 0 
L 2419 1100 
L 313 1100 
L 313 1709 
L 2253 4666 
z
" transform="scale(0.015625)"/>
       </defs>
       <use xlink:href="#DejaVuSans-30"/>
       <use xlink:href="#DejaVuSans-2e" transform="translate(63.623047 0)"/>
       <use xlink:href="#DejaVuSans-34" transform="translate(95.410156 0)"/>
      </g>
     </g>
    </g>
    <g id="xtick_5">
     <g id="line2d_5">
      <g>
       <use xlink:href="#mb25748e988" x="336.214473" y="307.584" style="stroke: #000000; stroke-width: 0.8"/>
      </g>
     </g>
     <g id="text_5">
      <!-- 0.6 -->
      <g transform="translate(328.26291 322.182437) scale(0.1 -0.1)">
       <defs>
        <path id="DejaVuSans-36" d="M 2113 2584 
Q 1688 2584 1439 2293 
Q 1191 2003 1191 1497 
Q 1191 994 1439 701 
Q 1688 409 2113 409 
Q 2538 409 2786 701 
Q 3034 994 3034 1497 
Q 3034 2003 2786 2293 
Q 2538 2584 2113 2584 
z
M 3366 4563 
L 3366 3988 
Q 3128 4100 2886 4159 
Q 2644 4219 2406 4219 
Q 1781 4219 1451 3797 
Q 1122 3375 1075 2522 
Q 1259 2794 1537 2939 
Q 1816 3084 2150 3084 
Q 2853 3084 3261 2657 
Q 3669 2231 3669 1497 
Q 3669 778 3244 343 
Q 2819 -91 2113 -91 
Q 1303 -91 875 529 
Q 447 1150 447 2328 
Q 447 3434 972 4092 
Q 1497 4750 2381 4750 
Q 2619 4750 2861 4703 
Q 3103 4656 3366 4563 
z
" transform="scale(0.015625)"/>
       </defs>
       <use xlink:href="#DejaVuSans-30"/>
       <use xlink:href="#DejaVuSans-2e" transform="translate(63.623047 0)"/>
       <use xlink:href="#DejaVuSans-36" transform="translate(95.410156 0)"/>
      </g>
     </g>
    </g>
    <g id="xtick_6">
     <g id="line2d_6">
      <g>
       <use xlink:href="#mb25748e988" x="401.145382" y="307.584" style="stroke: #000000; stroke-width: 0.8"/>
      </g>
     </g>
     <g id="text_6">
      <!-- 0.8 -->
      <g transform="translate(393.193819 322.182437) scale(0.1 -0.1)">
       <defs>
        <path id="DejaVuSans-38" d="M 2034 2216 
Q 1584 2216 1326 1975 
Q 1069 1734 1069 1313 
Q 1069 891 1326 650 
Q 1584 409 2034 409 
Q 2484 409 2743 651 
Q 3003 894 3003 1313 
Q 3003 1734 2745 1975 
Q 2488 2216 2034 2216 
z
M 1403 2484 
Q 997 2584 770 2862 
Q 544 3141 544 3541 
Q 544 4100 942 4425 
Q 1341 4750 2034 4750 
Q 2731 4750 3128 4425 
Q 3525 4100 3525 3541 
Q 3525 3141 3298 2862 
Q 3072 2584 2669 2484 
Q 3125 2378 3379 2068 
Q 3634 1759 3634 1313 
Q 3634 634 3220 271 
Q 2806 -91 2034 -91 
Q 1263 -91 848 271 
Q 434 634 434 1313 
Q 434 1759 690 2068 
Q 947 2378 1403 2484 
z
M 1172 3481 
Q 1172 3119 1398 2916 
Q 1625 2713 2034 2713 
Q 2441 2713 2670 2916 
Q 2900 3119 2900 3481 
Q 2900 3844 2670 4047 
Q 2441 4250 2034 4250 
Q 1625 4250 1398 4047 
Q 1172 3844 1172 3481 
z
" transform="scale(0.015625)"/>
       </defs>
       <use xlink:href="#DejaVuSans-30"/>
       <use xlink:href="#DejaVuSans-2e" transform="translate(63.623047 0)"/>
       <use xlink:href="#DejaVuSans-38" transform="translate(95.410156 0)"/>
      </g>
     </g>
    </g>
   </g>
   <g id="matplotlib.axis_2">
    <g id="ytick_1">
     <g id="line2d_7">
      <defs>
       <path id="ma3dabd5200" d="M 0 0 
L -3.5 0 
" style="stroke: #000000; stroke-width: 0.8"/>
      </defs>
      <g>
       <use xlink:href="#ma3dabd5200" x="57.6" y="278.198544" style="stroke: #000000; stroke-width: 0.8"/>
      </g>
     </g>
     <g id="text_7">
      <!-- −140 -->
      <g transform="translate(23.132812 281.997762) scale(0.1 -0.1)">
       <defs>
        <path id="DejaVuSans-31" d="M 794 531 
L 1825 531 
L 1825 4091 
L 703 3866 
L 703 4441 
L 1819 4666 
L 2450 4666 
L 2450 531 
L 3481 531 
L 3481 0 
L 794 0 
L 794 531 
z
" transform="scale(0.015625)"/>
       </defs>
       <use xlink:href="#DejaVuSans-2212"/>
       <use xlink:href="#DejaVuSans-31" transform="translate(83.789062 0)"/>
       <use xlink:href="#DejaVuSans-34" transform="translate(147.412109 0)"/>
       <use xlink:href="#DejaVuSans-30" transform="translate(211.035156 0)"/>
      </g>
     </g>
    </g>
    <g id="ytick_2">
     <g id="line2d_8">
      <g>
       <use xlink:href="#ma3dabd5200" x="57.6" y="246.108466" style="stroke: #000000; stroke-width: 0.8"/>
      </g>
     </g>
     <g id="text_8">
      <!-- −120 -->
      <g transform="translate(23.132812 249.907685) scale(0.1 -0.1)">
       <use xlink:href="#DejaVuSans-2212"/>
       <use xlink:href="#DejaVuSans-31" transform="translate(83.789062 0)"/>
       <use xlink:href="#DejaVuSans-32" transform="translate(147.412109 0)"/>
       <use xlink:href="#DejaVuSans-30" transform="translate(211.035156 0)"/>
      </g>
     </g>
    </g>
    <g id="ytick_3">
     <g id="line2d_9">
      <g>
       <use xlink:href="#ma3dabd5200" x="57.6" y="214.018388" style="stroke: #000000; stroke-width: 0.8"/>
      </g>
     </g>
     <g id="text_9">
      <!-- −100 -->
      <g transform="translate(23.132812 217.817607) scale(0.1 -0.1)">
       <use xlink:href="#DejaVuSans-2212"/>
       <use xlink:href="#DejaVuSans-31" transform="translate(83.789062 0)"/>
       <use xlink:href="#DejaVuSans-30" transform="translate(147.412109 0)"/>
       <use xlink:href="#DejaVuSans-30" transform="translate(211.035156 0)"/>
      </g>
     </g>
    </g>
    <g id="ytick_4">
     <g id="line2d_10">
      <g>
       <use xlink:href="#ma3dabd5200" x="57.6" y="181.928311" style="stroke: #000000; stroke-width: 0.8"/>
      </g>
     </g>
     <g id="text_10">
      <!-- −80 -->
      <g transform="translate(29.495313 185.727529) scale(0.1 -0.1)">
       <use xlink:href="#DejaVuSans-2212"/>
       <use xlink:href="#DejaVuSans-38" transform="translate(83.789062 0)"/>
       <use xlink:href="#DejaVuSans-30" transform="translate(147.412109 0)"/>
      </g>
     </g>
    </g>
    <g id="ytick_5">
     <g id="line2d_11">
      <g>
       <use xlink:href="#ma3dabd5200" x="57.6" y="149.838233" style="stroke: #000000; stroke-width: 0.8"/>
      </g>
     </g>
     <g id="text_11">
      <!-- −60 -->
      <g transform="translate(29.495313 153.637452) scale(0.1 -0.1)">
       <use xlink:href="#DejaVuSans-2212"/>
       <use xlink:href="#DejaVuSans-36" transform="translate(83.789062 0)"/>
       <use xlink:href="#DejaVuSans-30" transform="translate(147.412109 0)"/>
      </g>
     </g>
    </g>
    <g id="ytick_6">
     <g id="line2d_12">
      <g>
       <use xlink:href="#ma3dabd5200" x="57.6" y="117.748155" style="stroke: #000000; stroke-width: 0.8"/>
      </g>
     </g>
     <g id="text_12">
      <!-- −40 -->
      <g transform="translate(29.495313 121.547374) scale(0.1 -0.1)">
       <use xlink:href="#DejaVuSans-2212"/>
       <use xlink:href="#DejaVuSans-34" transform="translate(83.789062 0)"/>
       <use xlink:href="#DejaVuSans-30" transform="translate(147.412109 0)"/>
      </g>
     </g>
    </g>
    <g id="ytick_7">
     <g id="line2d_13">
      <g>
       <use xlink:href="#ma3dabd5200" x="57.6" y="85.658078" style="stroke: #000000; stroke-width: 0.8"/>
      </g>
     </g>
     <g id="text_13">
      <!-- −20 -->
      <g transform="translate(29.495313 89.457296) scale(0.1 -0.1)">
       <use xlink:href="#DejaVuSans-2212"/>
       <use xlink:href="#DejaVuSans-32" transform="translate(83.789062 0)"/>
       <use xlink:href="#DejaVuSans-30" transform="translate(147.412109 0)"/>
      </g>
     </g>
    </g>
    <g id="ytick_8">
     <g id="line2d_14">
      <g>
       <use xlink:href="#ma3dabd5200" x="57.6" y="53.568" style="stroke: #000000; stroke-width: 0.8"/>
      </g>
     </g>
     <g id="text_14">
      <!-- 0 -->
      <g transform="translate(44.2375 57.367219) scale(0.1 -0.1)">
       <use xlink:href="#DejaVuSans-30"/>
      </g>
     </g>
    </g>
   </g>
   <g id="line2d_15">
    <path d="M 73.832727 53.568 
L 131.546836 53.675285 
L 132 54.173107 
L 132.791345 55.452685 
L 133.055127 55.566628 
L 134.164364 55.860589 
L 134.421382 56.050088 
L 134.617527 56.280524 
L 135.131564 56.5826 
L 135.320945 56.692873 
L 135.537382 56.758626 
L 136.301673 56.939708 
L 137.011855 57.167671 
L 137.451491 57.293974 
L 137.593527 57.443403 
L 137.796436 57.550004 
L 138.384873 57.875792 
L 138.635127 57.963436 
L 139.155927 58.1503 
L 139.764655 58.495975 
L 140.650691 59.965324 
L 140.7792 60.088687 
L 141.7464 61.973856 
L 143.274982 62.569101 
L 143.491418 62.827477 
L 143.674036 63.014037 
L 145.033527 63.423123 
L 145.865455 64.260756 
L 146.230691 64.524303 
L 147.096436 65.120813 
L 148.002764 65.360571 
L 148.246255 65.666522 
L 148.422109 65.855693 
L 148.523564 66.03988 
L 148.733236 66.291386 
L 149.7072 66.467708 
L 150.958473 66.811708 
L 151.222255 66.965313 
L 151.344 67.122879 
L 151.573964 67.370568 
L 151.776873 67.504689 
L 152.324727 68.101126 
L 152.818473 68.70096 
L 153.041673 68.863114 
L 153.339273 68.91292 
L 154.123855 68.991168 
L 154.888145 69.104971 
L 155.436 69.613417 
L 155.632145 69.729224 
L 155.929745 69.840262 
L 156.166473 69.946706 
L 156.430255 70.133156 
L 156.822545 70.284993 
L 157.201309 70.402842 
L 157.708582 70.636005 
L 157.857382 70.782123 
L 158.080582 70.904809 
L 158.202327 71.157261 
L 158.384945 71.330267 
L 158.493164 71.603205 
L 158.669018 71.797319 
L 159.6024 72.186883 
L 160.3464 72.297353 
L 160.745455 72.364662 
L 161.259491 72.477211 
L 161.577382 72.611452 
L 161.902036 72.648476 
L 162.659564 72.771647 
L 162.957164 72.920737 
L 163.281818 72.981262 
L 164.506036 73.131119 
L 166.548655 73.655373 
L 166.866545 73.812532 
L 167.306182 74.002923 
L 168.280145 74.219835 
L 169.396145 74.349913 
L 169.910182 74.529645 
L 171.377891 74.66064 
L 171.790473 74.952592 
L 171.993382 75.077945 
L 172.155709 75.225175 
L 172.378909 75.3213 
L 172.548 75.452846 
L 172.798255 75.599874 
L 172.933527 75.872071 
L 173.116145 76.008474 
L 173.264945 76.35293 
L 173.4408 76.453701 
L 174.008945 76.835765 
L 174.746182 77.146934 
L 175.767491 79.474013 
L 176.430327 79.682598 
L 176.545309 79.978772 
L 176.734691 80.254204 
L 176.829382 80.388423 
L 177.126982 80.895079 
L 177.282545 80.992739 
L 178.134764 82.446951 
L 179.298109 82.794716 
L 179.501018 82.864906 
L 181.692436 83.632931 
L 182.395855 84.360524 
L 183.011345 84.582509 
L 183.376582 84.716333 
L 184.194982 84.896961 
L 184.810473 85.06539 
L 185.108073 85.139931 
L 185.892655 85.52237 
L 186.636655 86.263137 
L 188.286982 86.520808 
L 188.7672 86.80079 
L 188.970109 86.911919 
L 189.964364 87.430037 
L 191.127709 87.893909 
L 191.479418 87.916483 
L 192.277527 88.045886 
L 192.656291 88.389776 
L 192.838909 88.524683 
L 192.960655 88.709411 
L 193.170327 88.888578 
L 193.440873 89.001114 
L 193.752 89.253162 
L 193.995491 89.396879 
L 194.5704 89.527666 
L 195.172364 89.633291 
L 196.308655 89.751593 
L 196.9512 89.871201 
L 197.519345 90.094628 
L 197.796655 90.261654 
L 198.019855 90.332603 
L 199.277891 90.777481 
L 199.561964 90.831066 
L 200.799709 91.007698 
L 201.212291 91.039794 
L 201.699273 91.160195 
L 202.091564 91.845639 
L 202.280945 92.211394 
L 202.362109 92.370612 
L 202.666473 93.105052 
L 202.815273 93.290618 
L 203.146691 93.657383 
L 203.234618 93.793596 
L 203.694545 94.886582 
L 203.863636 94.988869 
L 205.865673 95.274888 
L 206.947855 95.440701 
L 207.252218 95.567866 
L 207.6648 95.671059 
L 208.0368 95.787826 
L 210.471709 97.258461 
L 210.688145 97.35417 
L 210.796364 97.566753 
L 211.046618 98.003678 
L 211.134545 98.153918 
L 211.438909 98.798068 
L 211.621527 98.916946 
L 212.784873 100.149 
L 213.035127 100.328983 
L 213.251564 100.507401 
L 213.420655 100.629382 
L 213.643855 100.705297 
L 214.617818 100.958383 
L 215.449745 101.897037 
L 215.862327 102.013831 
L 216.734836 102.505651 
L 217.573527 102.749883 
L 217.925236 103.070716 
L 218.2296 103.289998 
L 218.757164 103.516106 
L 219.034473 103.698242 
L 219.616145 104.007206 
L 219.879927 104.363289 
L 220.224873 104.776064 
L 220.488655 104.807018 
L 220.860655 104.917302 
L 221.185309 105.050995 
L 221.5776 105.084407 
L 222.368945 105.195944 
L 222.970909 105.311925 
L 223.613455 105.422767 
L 224.168073 105.901888 
L 224.3304 106.0096 
L 224.567127 106.180462 
L 225.372 106.462266 
L 225.831927 106.72425 
L 226.602982 106.939786 
L 227.144073 107.35933 
L 227.881309 107.555295 
L 228.172145 107.781693 
L 228.375055 107.983492 
L 228.476509 108.194739 
L 228.679418 108.484715 
L 228.801164 108.634223 
L 229.004073 108.774912 
L 229.206982 108.89259 
L 229.6128 109.052646 
L 230.005091 109.181462 
L 230.465018 109.481196 
L 231.066982 109.607689 
L 232.446764 109.738054 
L 233.312509 110.254904 
L 233.542473 110.501236 
L 233.677745 110.638425 
L 233.934764 110.848815 
L 234.144436 110.954391 
L 234.421745 111.154029 
L 235.010182 111.332719 
L 236.099127 111.443387 
L 236.396727 111.609655 
L 236.6064 111.760528 
L 236.721382 111.950532 
L 236.944582 112.209231 
L 237.079855 112.332871 
L 237.377455 112.655966 
L 237.485673 112.807378 
L 237.729164 113.12495 
L 238.310836 113.327558 
L 238.649018 113.716922 
L 238.865455 114.149712 
L 238.953382 114.279663 
L 239.305091 115.052705 
L 239.467418 115.187536 
L 240.252 116.298219 
L 240.421091 116.411656 
L 240.793091 116.727865 
L 240.901309 116.877933 
L 241.165091 117.239028 
L 241.2936 117.37844 
L 241.5168 117.549404 
L 242.274327 117.677125 
L 242.626036 117.821413 
L 243.031855 117.905223 
L 243.809673 118.013875 
L 245.547927 119.584657 
L 245.852291 119.690939 
L 246.048436 119.797876 
L 246.298691 119.961567 
L 246.447491 120.144823 
L 246.657164 120.27377 
L 246.948 120.382312 
L 247.631127 120.985702 
L 247.867855 121.132335 
L 248.381891 121.539603 
L 248.571273 121.77556 
L 248.672727 121.921693 
L 248.895927 122.185322 
L 251.344364 122.648449 
L 251.804291 122.952337 
L 252.088364 123.075202 
L 252.352145 123.126446 
L 252.785018 123.248375 
L 256.816145 123.889472 
L 257.296364 124.002079 
L 257.803636 124.417498 
L 258.026836 124.531567 
L 258.2568 124.651713 
L 258.581455 124.688768 
L 259.731273 124.930333 
L 259.940945 125.112743 
L 260.069455 125.347685 
L 260.245309 125.464815 
L 261.016364 125.696759 
L 261.253091 125.755816 
L 262.477309 125.978715 
L 263.0184 126.130881 
L 263.207782 126.237429 
L 263.458036 126.303791 
L 264.168218 126.589433 
L 264.411709 126.713713 
L 266.116145 126.880354 
L 266.542255 127.804431 
L 266.704582 127.953082 
L 266.806036 128.269747 
L 267.036 128.804591 
L 267.144218 128.920126 
L 267.468873 129.442186 
L 267.847636 129.671509 
L 269.497964 129.88871 
L 270.539564 130.919843 
L 270.823636 131.039916 
L 271.317382 131.33471 
L 271.824655 131.438777 
L 272.4672 131.654407 
L 273.123273 132.053237 
L 273.846982 132.164061 
L 274.151345 132.37533 
L 274.347491 132.489352 
L 274.476 132.717886 
L 274.672145 132.879247 
L 274.915636 133.004474 
L 275.314691 133.023175 
L 277.479055 133.184003 
L 278.162182 133.280418 
L 278.365091 133.387098 
L 278.635636 133.534027 
L 278.770909 133.772809 
L 278.960291 133.934098 
L 279.115855 134.051867 
L 279.379636 134.215082 
L 279.623127 134.32446 
L 279.873382 134.43777 
L 280.603855 134.695775 
L 281.435782 134.840632 
L 282.281236 135.529508 
L 282.484145 135.698001 
L 282.930545 135.822949 
L 283.261964 136.055501 
L 283.458109 136.186275 
L 283.586618 136.34963 
L 283.803055 136.51974 
L 284.114182 136.631374 
L 285.047564 136.926747 
L 287.164582 137.197102 
L 288.233236 137.933088 
L 289.146327 138.110321 
L 289.924145 138.227525 
L 291.013091 138.49059 
L 291.358036 138.644382 
L 292.129091 139.342759 
L 292.332 139.683742 
L 292.446982 139.817883 
L 292.683709 140.062194 
L 293.765891 140.177986 
L 295.280945 140.60342 
L 295.510909 140.729499 
L 295.774691 140.860722 
L 296.701309 141.174585 
L 299.4744 141.85882 
L 299.778764 141.977652 
L 300.272509 142.193058 
L 300.455127 142.514631 
L 300.644509 142.603836 
L 300.766255 142.789217 
L 301.002982 143.069959 
L 301.253236 143.184458 
L 301.638764 143.224107 
L 303.180873 143.376562 
L 303.329673 143.543503 
L 303.532582 143.648496 
L 303.688145 143.854659 
L 303.877527 143.930267 
L 305.047636 144.148414 
L 307.496073 144.40533 
L 309.031418 145.162137 
L 309.646909 145.385736 
L 310.140655 145.548354 
L 312.277964 145.776386 
L 312.764945 145.932458 
L 313.150473 146.102956 
L 313.481891 146.183322 
L 315.673309 146.428472 
L 316.254982 146.896566 
L 316.383491 147.086851 
L 316.606691 147.319654 
L 316.755491 147.433116 
L 316.998982 147.595888 
L 317.628 147.716966 
L 319.095709 147.762683 
L 320.475491 147.875155 
L 320.921891 147.929018 
L 321.192436 148.040567 
L 321.767345 148.383569 
L 322.010836 148.490498 
L 322.274618 148.570104 
L 323.295927 148.686911 
L 324.432218 148.876385 
L 325.155927 149.140524 
L 327.0768 149.259144 
L 327.712582 149.455157 
L 328.788 149.550007 
L 330.059564 149.679144 
L 331.473164 150.736678 
L 332.176582 150.846118 
L 332.7312 151.115129 
L 334.029818 151.297675 
L 334.253018 151.474892 
L 334.712945 151.582617 
L 337.330473 151.692029 
L 337.803927 151.747177 
L 338.588509 151.860599 
L 339.400145 152.280379 
L 339.718036 152.309101 
L 340.475564 152.415877 
L 341.219564 153.072346 
L 341.429236 153.337116 
L 341.550982 153.452494 
L 341.855345 153.835673 
L 342.017673 153.988429 
L 342.240873 154.081015 
L 343.038982 154.217687 
L 343.782982 154.428202 
L 344.080582 154.540456 
L 344.587855 154.782955 
L 344.905745 154.881102 
L 345.561818 154.918347 
L 346.630473 155.033583 
L 346.921309 155.10877 
L 347.658545 155.344142 
L 348.145527 155.746834 
L 348.321382 155.85727 
L 348.612218 156.149894 
L 348.754255 156.331962 
L 348.984218 156.519268 
L 349.160073 156.631018 
L 349.430618 156.827366 
L 349.721455 156.95638 
L 350.654836 157.261395 
L 351.216218 157.377763 
L 351.561164 157.470287 
L 352.0008 157.625617 
L 352.224 157.763614 
L 352.366036 158.051055 
L 352.548655 158.198177 
L 352.704218 158.316141 
L 353.001818 158.554465 
L 353.143855 158.673462 
L 353.394109 158.875412 
L 353.529382 159.061606 
L 353.718764 159.170316 
L 353.867564 159.36845 
L 354.070473 159.459532 
L 354.638618 159.759803 
L 356.843564 160.086661 
L 357.411709 160.218104 
L 357.601091 160.442734 
L 358.412727 161.271714 
L 358.717091 161.304672 
L 358.92 161.407726 
L 359.190545 161.597851 
L 359.339345 161.751836 
L 359.603127 161.960375 
L 359.745164 162.070461 
L 360.056291 162.410528 
L 360.205091 162.657974 
L 360.387709 162.761714 
L 362.058327 163.041972 
L 363.620727 163.374859 
L 363.8304 163.552688 
L 363.931855 163.679008 
L 364.5 164.899001 
L 364.689382 165.022567 
L 365.047855 165.139067 
L 365.3928 165.38064 
L 365.5416 165.574764 
L 365.751273 165.719965 
L 366.157091 165.876382 
L 366.786109 166.122629 
L 367.956218 166.544985 
L 368.186182 166.709401 
L 369.403636 167.055351 
L 369.735055 167.246012 
L 369.998836 167.314597 
L 370.627855 167.357138 
L 371.250109 167.530655 
L 372.433745 168.779984 
L 372.555491 168.915325 
L 372.819273 169.231466 
L 373.272436 169.372987 
L 375.037745 171.050738 
L 376.613673 171.747436 
L 376.803055 171.885646 
L 376.904509 172.172083 
L 377.127709 172.667479 
L 377.229164 172.783985 
L 377.499709 173.141131 
L 377.709382 173.298093 
L 377.9664 173.491787 
L 378.9336 174.931934 
L 380.069891 175.432592 
L 380.624509 176.326718 
L 380.759782 176.430087 
L 381.043855 176.725233 
L 381.226473 176.84931 
L 381.571418 177.007643 
L 381.781091 177.160956 
L 381.984 177.300779 
L 382.092218 177.490378 
L 382.328945 177.830311 
L 382.4304 177.956857 
L 383.6208 181.058459 
L 384.161891 182.034373 
L 384.554182 182.452283 
L 384.648873 182.618897 
L 385.156145 184.731387 
L 385.365818 185.832158 
L 385.426691 185.965145 
L 385.528145 187.048581 
L 385.744582 188.736386 
L 385.805455 188.872286 
L 386.008364 190.367646 
L 386.184218 190.684611 
L 386.285673 190.788267 
L 386.387127 191.548376 
L 386.603564 192.790841 
L 386.6712 193.116324 
L 386.948509 194.590424 
L 387.320509 194.846279 
L 387.442255 194.95549 
L 387.760145 195.450876 
L 387.915709 196.074579 
L 388.111855 196.481248 
L 388.199782 196.588462 
L 388.368873 197.440365 
L 388.537964 197.691834 
L 388.632655 197.835458 
L 388.916727 198.338918 
L 389.018182 198.533891 
L 389.234618 198.853549 
L 389.315782 199.056698 
L 389.660727 200.151044 
L 389.755418 200.749405 
L 390.053018 202.689224 
L 390.134182 203.242097 
L 390.479127 206.03027 
L 390.560291 206.353396 
L 391.250182 210.580012 
L 391.365164 210.693114 
L 392.163273 212.546873 
L 392.359418 213.040141 
L 392.460873 213.15888 
L 393.008727 214.75703 
L 393.211636 215.705226 
L 393.279273 215.826432 
L 393.428073 216.866903 
L 393.630982 217.624735 
L 393.712145 217.722499 
L 393.806836 218.550628 
L 394.084145 220.91156 
L 394.165309 222.050708 
L 394.442618 225.981998 
L 394.530545 227.175168 
L 394.767273 229.788117 
L 394.868727 229.891617 
L 395.308364 230.729441 
L 395.680364 230.968772 
L 395.802109 232.00877 
L 395.9712 232.585795 
L 396.0456 233.256677 
L 396.397309 237.165367 
L 396.7152 239.680107 
L 396.904582 239.791111 
L 397.006036 240.401483 
L 397.303636 242.28975 
L 397.391564 243.231786 
L 397.689164 246.532848 
L 397.750036 246.756208 
L 397.858255 248.363809 
L 398.155855 252.703418 
L 398.230255 254.008137 
L 398.345236 261.292981 
L 398.460218 284.392581 
L 398.480509 295.488 
L 398.480509 295.488 
" clip-path="url(#peeffaef7d1)" style="fill: none; stroke: #1f77b4; stroke-width: 1.5; stroke-linecap: square"/>
   </g>
   <g id="line2d_16">
    <path d="M 141.421745 61.594931 
L 352.291636 157.860752 
" clip-path="url(#peeffaef7d1)" style="fill: none; stroke-dasharray: 5.55,2.4; stroke-dashoffset: 0; stroke: #ff7f0e; stroke-width: 1.5"/>
   </g>
   <g id="line2d_17">
    <path d="M 73.832727 149.838233 
L 398.487273 149.838233 
L 398.487273 149.838233 
" clip-path="url(#peeffaef7d1)" style="fill: none; stroke-dasharray: 5.55,2.4; stroke-dashoffset: 0; stroke: #2ca02c; stroke-width: 1.5"/>
   </g>
   <g id="LineCollection_1">
    <path d="M 352.291636 295.488 
L 352.291636 53.568 
" clip-path="url(#peeffaef7d1)" style="fill: none; stroke-dasharray: 5.55,2.4; stroke-dashoffset: 0; stroke: #1f77b4; stroke-width: 1.5"/>
   </g>
   <g id="patch_3">
    <path d="M 57.6 307.584 
L 57.6 41.472 
" style="fill: none; stroke: #000000; stroke-width: 0.8; stroke-linejoin: miter; stroke-linecap: square"/>
   </g>
   <g id="patch_4">
    <path d="M 414.72 307.584 
L 414.72 41.472 
" style="fill: none; stroke: #000000; stroke-width: 0.8; stroke-linejoin: miter; stroke-linecap: square"/>
   </g>
   <g id="patch_5">
    <path d="M 57.6 307.584 
L 414.72 307.584 
" style="fill: none; stroke: #000000; stroke-width: 0.8; stroke-linejoin: miter; stroke-linecap: square"/>
   </g>
   <g id="patch_6">
    <path d="M 57.6 41.472 
L 414.72 41.472 
" style="fill: none; stroke: #000000; stroke-width: 0.8; stroke-linejoin: miter; stroke-linecap: square"/>
   </g>
   <g id="text_15">
    <!-- Energy Decay - 500 Hz -->
    <g transform="translate(167.4075 35.472) scale(0.12 -0.12)">
     <defs>
      <path id="DejaVuSans-45" d="M 628 4666 
L 3578 4666 
L 3578 4134 
L 1259 4134 
L 1259 2753 
L 3481 2753 
L 3481 2222 
L 1259 2222 
L 1259 531 
L 3634 531 
L 3634 0 
L 628 0 
L 628 4666 
z
" transform="scale(0.015625)"/>
      <path id="DejaVuSans-6e" d="M 3513 2113 
L 3513 0 
L 2938 0 
L 2938 2094 
Q 2938 2591 2744 2837 
Q 2550 3084 2163 3084 
Q 1697 3084 1428 2787 
Q 1159 2491 1159 1978 
L 1159 0 
L 581 0 
L 581 3500 
L 1159 3500 
L 1159 2956 
Q 1366 3272 1645 3428 
Q 1925 3584 2291 3584 
Q 2894 3584 3203 3211 
Q 3513 2838 3513 2113 
z
" transform="scale(0.015625)"/>
      <path id="DejaVuSans-65" d="M 3597 1894 
L 3597 1613 
L 953 1613 
Q 991 1019 1311 708 
Q 1631 397 2203 397 
Q 2534 397 2845 478 
Q 3156 559 3463 722 
L 3463 178 
Q 3153 47 2828 -22 
Q 2503 -91 2169 -91 
Q 1331 -91 842 396 
Q 353 884 353 1716 
Q 353 2575 817 3079 
Q 1281 3584 2069 3584 
Q 2775 3584 3186 3129 
Q 3597 2675 3597 1894 
z
M 3022 2063 
Q 3016 2534 2758 2815 
Q 2500 3097 2075 3097 
Q 1594 3097 1305 2825 
Q 1016 2553 972 2059 
L 3022 2063 
z
" transform="scale(0.015625)"/>
      <path id="DejaVuSans-72" d="M 2631 2963 
Q 2534 3019 2420 3045 
Q 2306 3072 2169 3072 
Q 1681 3072 1420 2755 
Q 1159 2438 1159 1844 
L 1159 0 
L 581 0 
L 581 3500 
L 1159 3500 
L 1159 2956 
Q 1341 3275 1631 3429 
Q 1922 3584 2338 3584 
Q 2397 3584 2469 3576 
Q 2541 3569 2628 3553 
L 2631 2963 
z
" transform="scale(0.015625)"/>
      <path id="DejaVuSans-67" d="M 2906 1791 
Q 2906 2416 2648 2759 
Q 2391 3103 1925 3103 
Q 1463 3103 1205 2759 
Q 947 2416 947 1791 
Q 947 1169 1205 825 
Q 1463 481 1925 481 
Q 2391 481 2648 825 
Q 2906 1169 2906 1791 
z
M 3481 434 
Q 3481 -459 3084 -895 
Q 2688 -1331 1869 -1331 
Q 1566 -1331 1297 -1286 
Q 1028 -1241 775 -1147 
L 775 -588 
Q 1028 -725 1275 -790 
Q 1522 -856 1778 -856 
Q 2344 -856 2625 -561 
Q 2906 -266 2906 331 
L 2906 616 
Q 2728 306 2450 153 
Q 2172 0 1784 0 
Q 1141 0 747 490 
Q 353 981 353 1791 
Q 353 2603 747 3093 
Q 1141 3584 1784 3584 
Q 2172 3584 2450 3431 
Q 2728 3278 2906 2969 
L 2906 3500 
L 3481 3500 
L 3481 434 
z
" transform="scale(0.015625)"/>
      <path id="DejaVuSans-79" d="M 2059 -325 
Q 1816 -950 1584 -1140 
Q 1353 -1331 966 -1331 
L 506 -1331 
L 506 -850 
L 844 -850 
Q 1081 -850 1212 -737 
Q 1344 -625 1503 -206 
L 1606 56 
L 191 3500 
L 800 3500 
L 1894 763 
L 2988 3500 
L 3597 3500 
L 2059 -325 
z
" transform="scale(0.015625)"/>
      <path id="DejaVuSans-20" transform="scale(0.015625)"/>
      <path id="DejaVuSans-44" d="M 1259 4147 
L 1259 519 
L 2022 519 
Q 2988 519 3436 956 
Q 3884 1394 3884 2338 
Q 3884 3275 3436 3711 
Q 2988 4147 2022 4147 
L 1259 4147 
z
M 628 4666 
L 1925 4666 
Q 3281 4666 3915 4102 
Q 4550 3538 4550 2338 
Q 4550 1131 3912 565 
Q 3275 0 1925 0 
L 628 0 
L 628 4666 
z
" transform="scale(0.015625)"/>
      <path id="DejaVuSans-63" d="M 3122 3366 
L 3122 2828 
Q 2878 2963 2633 3030 
Q 2388 3097 2138 3097 
Q 1578 3097 1268 2742 
Q 959 2388 959 1747 
Q 959 1106 1268 751 
Q 1578 397 2138 397 
Q 2388 397 2633 464 
Q 2878 531 3122 666 
L 3122 134 
Q 2881 22 2623 -34 
Q 2366 -91 2075 -91 
Q 1284 -91 818 406 
Q 353 903 353 1747 
Q 353 2603 823 3093 
Q 1294 3584 2113 3584 
Q 2378 3584 2631 3529 
Q 2884 3475 3122 3366 
z
" transform="scale(0.015625)"/>
      <path id="DejaVuSans-61" d="M 2194 1759 
Q 1497 1759 1228 1600 
Q 959 1441 959 1056 
Q 959 750 1161 570 
Q 1363 391 1709 391 
Q 2188 391 2477 730 
Q 2766 1069 2766 1631 
L 2766 1759 
L 2194 1759 
z
M 3341 1997 
L 3341 0 
L 2766 0 
L 2766 531 
Q 2569 213 2275 61 
Q 1981 -91 1556 -91 
Q 1019 -91 701 211 
Q 384 513 384 1019 
Q 384 1609 779 1909 
Q 1175 2209 1959 2209 
L 2766 2209 
L 2766 2266 
Q 2766 2663 2505 2880 
Q 2244 3097 1772 3097 
Q 1472 3097 1187 3025 
Q 903 2953 641 2809 
L 641 3341 
Q 956 3463 1253 3523 
Q 1550 3584 1831 3584 
Q 2591 3584 2966 3190 
Q 3341 2797 3341 1997 
z
" transform="scale(0.015625)"/>
      <path id="DejaVuSans-2d" d="M 313 2009 
L 1997 2009 
L 1997 1497 
L 313 1497 
L 313 2009 
z
" transform="scale(0.015625)"/>
      <path id="DejaVuSans-35" d="M 691 4666 
L 3169 4666 
L 3169 4134 
L 1269 4134 
L 1269 2991 
Q 1406 3038 1543 3061 
Q 1681 3084 1819 3084 
Q 2600 3084 3056 2656 
Q 3513 2228 3513 1497 
Q 3513 744 3044 326 
Q 2575 -91 1722 -91 
Q 1428 -91 1123 -41 
Q 819 9 494 109 
L 494 744 
Q 775 591 1075 516 
Q 1375 441 1709 441 
Q 2250 441 2565 725 
Q 2881 1009 2881 1497 
Q 2881 1984 2565 2268 
Q 2250 2553 1709 2553 
Q 1456 2553 1204 2497 
Q 953 2441 691 2322 
L 691 4666 
z
" transform="scale(0.015625)"/>
      <path id="DejaVuSans-48" d="M 628 4666 
L 1259 4666 
L 1259 2753 
L 3553 2753 
L 3553 4666 
L 4184 4666 
L 4184 0 
L 3553 0 
L 3553 2222 
L 1259 2222 
L 1259 0 
L 628 0 
L 628 4666 
z
" transform="scale(0.015625)"/>
      <path id="DejaVuSans-7a" d="M 353 3500 
L 3084 3500 
L 3084 2975 
L 922 459 
L 3084 459 
L 3084 0 
L 275 0 
L 275 525 
L 2438 3041 
L 353 3041 
L 353 3500 
z
" transform="scale(0.015625)"/>
     </defs>
     <use xlink:href="#DejaVuSans-45"/>
     <use xlink:href="#DejaVuSans-6e" transform="translate(63.183594 0)"/>
     <use xlink:href="#DejaVuSans-65" transform="translate(126.5625 0)"/>
     <use xlink:href="#DejaVuSans-72" transform="translate(188.085938 0)"/>
     <use xlink:href="#DejaVuSans-67" transform="translate(227.449219 0)"/>
     <use xlink:href="#DejaVuSans-79" transform="translate(290.925781 0)"/>
     <use xlink:href="#DejaVuSans-20" transform="translate(350.105469 0)"/>
     <use xlink:href="#DejaVuSans-44" transform="translate(381.892578 0)"/>
     <use xlink:href="#DejaVuSans-65" transform="translate(458.894531 0)"/>
     <use xlink:href="#DejaVuSans-63" transform="translate(520.417969 0)"/>
     <use xlink:href="#DejaVuSans-61" transform="translate(575.398438 0)"/>
     <use xlink:href="#DejaVuSans-79" transform="translate(636.677734 0)"/>
     <use xlink:href="#DejaVuSans-20" transform="translate(695.857422 0)"/>
     <use xlink:href="#DejaVuSans-2d" transform="translate(727.644531 0)"/>
     <use xlink:href="#DejaVuSans-20" transform="translate(763.728516 0)"/>
     <use xlink:href="#DejaVuSans-35" transform="translate(795.515625 0)"/>
     <use xlink:href="#DejaVuSans-30" transform="translate(859.138672 0)"/>
     <use xlink:href="#DejaVuSans-30" transform="translate(922.761719 0)"/>
     <use xlink:href="#DejaVuSans-20" transform="translate(986.384766 0)"/>
     <use xlink:href="#DejaVuSans-48" transform="translate(1018.171875 0)"/>
     <use xlink:href="#DejaVuSans-7a" transform="translate(1093.367188 0)"/>
    </g>
   </g>
   <g id="legend_1">
    <g id="patch_7">
     <path d="M 296.968437 108.1845 
L 407.72 108.1845 
Q 409.72 108.1845 409.72 106.1845 
L 409.72 48.472 
Q 409.72 46.472 407.72 46.472 
L 296.968437 46.472 
Q 294.968437 46.472 294.968437 48.472 
L 294.968437 106.1845 
Q 294.968437 108.1845 296.968437 108.1845 
z
" style="fill: #ffffff; opacity: 0.8; stroke: #cccccc; stroke-linejoin: miter"/>
    </g>
    <g id="line2d_18">
     <path d="M 298.968437 54.570438 
L 308.968437 54.570438 
L 318.968437 54.570438 
" style="fill: none; stroke: #1f77b4; stroke-width: 1.5; stroke-linecap: square"/>
    </g>
    <g id="text_16">
     <!-- Energy -->
     <g transform="translate(326.968437 58.070438) scale(0.1 -0.1)">
      <use xlink:href="#DejaVuSans-45"/>
      <use xlink:href="#DejaVuSans-6e" transform="translate(63.183594 0)"/>
      <use xlink:href="#DejaVuSans-65" transform="translate(126.5625 0)"/>
      <use xlink:href="#DejaVuSans-72" transform="translate(188.085938 0)"/>
      <use xlink:href="#DejaVuSans-67" transform="translate(227.449219 0)"/>
      <use xlink:href="#DejaVuSans-79" transform="translate(290.925781 0)"/>
     </g>
    </g>
    <g id="line2d_19">
     <path d="M 298.968437 69.248563 
L 308.968437 69.248563 
L 318.968437 69.248563 
" style="fill: none; stroke-dasharray: 5.55,2.4; stroke-dashoffset: 0; stroke: #ff7f0e; stroke-width: 1.5"/>
    </g>
    <g id="text_17">
     <!-- Linear Fit -->
     <g transform="translate(326.968437 72.748563) scale(0.1 -0.1)">
      <defs>
       <path id="DejaVuSans-4c" d="M 628 4666 
L 1259 4666 
L 1259 531 
L 3531 531 
L 3531 0 
L 628 0 
L 628 4666 
z
" transform="scale(0.015625)"/>
       <path id="DejaVuSans-69" d="M 603 3500 
L 1178 3500 
L 1178 0 
L 603 0 
L 603 3500 
z
M 603 4863 
L 1178 4863 
L 1178 4134 
L 603 4134 
L 603 4863 
z
" transform="scale(0.015625)"/>
       <path id="DejaVuSans-46" d="M 628 4666 
L 3309 4666 
L 3309 4134 
L 1259 4134 
L 1259 2759 
L 3109 2759 
L 3109 2228 
L 1259 2228 
L 1259 0 
L 628 0 
L 628 4666 
z
" transform="scale(0.015625)"/>
       <path id="DejaVuSans-74" d="M 1172 4494 
L 1172 3500 
L 2356 3500 
L 2356 3053 
L 1172 3053 
L 1172 1153 
Q 1172 725 1289 603 
Q 1406 481 1766 481 
L 2356 481 
L 2356 0 
L 1766 0 
Q 1100 0 847 248 
Q 594 497 594 1153 
L 594 3053 
L 172 3053 
L 172 3500 
L 594 3500 
L 594 4494 
L 1172 4494 
z
" transform="scale(0.015625)"/>
      </defs>
      <use xlink:href="#DejaVuSans-4c"/>
      <use xlink:href="#DejaVuSans-69" transform="translate(55.712891 0)"/>
      <use xlink:href="#DejaVuSans-6e" transform="translate(83.496094 0)"/>
      <use xlink:href="#DejaVuSans-65" transform="translate(146.875 0)"/>
      <use xlink:href="#DejaVuSans-61" transform="translate(208.398438 0)"/>
      <use xlink:href="#DejaVuSans-72" transform="translate(269.677734 0)"/>
      <use xlink:href="#DejaVuSans-20" transform="translate(310.791016 0)"/>
      <use xlink:href="#DejaVuSans-46" transform="translate(342.578125 0)"/>
      <use xlink:href="#DejaVuSans-69" transform="translate(392.847656 0)"/>
      <use xlink:href="#DejaVuSans-74" transform="translate(420.630859 0)"/>
     </g>
    </g>
    <g id="line2d_20">
     <path d="M 298.968437 83.926688 
L 308.968437 83.926688 
L 318.968437 83.926688 
" style="fill: none; stroke-dasharray: 5.55,2.4; stroke-dashoffset: 0; stroke: #2ca02c; stroke-width: 1.5"/>
    </g>
    <g id="text_18">
     <!-- -60 dB -->
     <g transform="translate(326.968437 87.426688) scale(0.1 -0.1)">
      <defs>
       <path id="DejaVuSans-64" d="M 2906 2969 
L 2906 4863 
L 3481 4863 
L 3481 0 
L 2906 0 
L 2906 525 
Q 2725 213 2448 61 
Q 2172 -91 1784 -91 
Q 1150 -91 751 415 
Q 353 922 353 1747 
Q 353 2572 751 3078 
Q 1150 3584 1784 3584 
Q 2172 3584 2448 3432 
Q 2725 3281 2906 2969 
z
M 947 1747 
Q 947 1113 1208 752 
Q 1469 391 1925 391 
Q 2381 391 2643 752 
Q 2906 1113 2906 1747 
Q 2906 2381 2643 2742 
Q 2381 3103 1925 3103 
Q 1469 3103 1208 2742 
Q 947 2381 947 1747 
z
" transform="scale(0.015625)"/>
       <path id="DejaVuSans-42" d="M 1259 2228 
L 1259 519 
L 2272 519 
Q 2781 519 3026 730 
Q 3272 941 3272 1375 
Q 3272 1813 3026 2020 
Q 2781 2228 2272 2228 
L 1259 2228 
z
M 1259 4147 
L 1259 2741 
L 2194 2741 
Q 2656 2741 2882 2914 
Q 3109 3088 3109 3444 
Q 3109 3797 2882 3972 
Q 2656 4147 2194 4147 
L 1259 4147 
z
M 628 4666 
L 2241 4666 
Q 2963 4666 3353 4366 
Q 3744 4066 3744 3513 
Q 3744 3084 3544 2831 
Q 3344 2578 2956 2516 
Q 3422 2416 3680 2098 
Q 3938 1781 3938 1306 
Q 3938 681 3513 340 
Q 3088 0 2303 0 
L 628 0 
L 628 4666 
z
" transform="scale(0.015625)"/>
      </defs>
      <use xlink:href="#DejaVuSans-2d"/>
      <use xlink:href="#DejaVuSans-36" transform="translate(36.083984 0)"/>
      <use xlink:href="#DejaVuSans-30" transform="translate(99.707031 0)"/>
      <use xlink:href="#DejaVuSans-20" transform="translate(163.330078 0)"/>
      <use xlink:href="#DejaVuSans-64" transform="translate(195.117188 0)"/>
      <use xlink:href="#DejaVuSans-42" transform="translate(258.59375 0)"/>
     </g>
    </g>
    <g id="line2d_21">
     <path d="M 298.968437 98.604813 
L 318.968437 98.604813 
" style="fill: none; stroke-dasharray: 5.55,2.4; stroke-dashoffset: 0; stroke: #1f77b4; stroke-width: 1.5"/>
    </g>
    <g id="text_19">
     <!-- Estimated RT60 -->
     <g transform="translate(326.968437 102.104813) scale(0.1 -0.1)">
      <defs>
       <path id="DejaVuSans-73" d="M 2834 3397 
L 2834 2853 
Q 2591 2978 2328 3040 
Q 2066 3103 1784 3103 
Q 1356 3103 1142 2972 
Q 928 2841 928 2578 
Q 928 2378 1081 2264 
Q 1234 2150 1697 2047 
L 1894 2003 
Q 2506 1872 2764 1633 
Q 3022 1394 3022 966 
Q 3022 478 2636 193 
Q 2250 -91 1575 -91 
Q 1294 -91 989 -36 
Q 684 19 347 128 
L 347 722 
Q 666 556 975 473 
Q 1284 391 1588 391 
Q 1994 391 2212 530 
Q 2431 669 2431 922 
Q 2431 1156 2273 1281 
Q 2116 1406 1581 1522 
L 1381 1569 
Q 847 1681 609 1914 
Q 372 2147 372 2553 
Q 372 3047 722 3315 
Q 1072 3584 1716 3584 
Q 2034 3584 2315 3537 
Q 2597 3491 2834 3397 
z
" transform="scale(0.015625)"/>
       <path id="DejaVuSans-6d" d="M 3328 2828 
Q 3544 3216 3844 3400 
Q 4144 3584 4550 3584 
Q 5097 3584 5394 3201 
Q 5691 2819 5691 2113 
L 5691 0 
L 5113 0 
L 5113 2094 
Q 5113 2597 4934 2840 
Q 4756 3084 4391 3084 
Q 3944 3084 3684 2787 
Q 3425 2491 3425 1978 
L 3425 0 
L 2847 0 
L 2847 2094 
Q 2847 2600 2669 2842 
Q 2491 3084 2119 3084 
Q 1678 3084 1418 2786 
Q 1159 2488 1159 1978 
L 1159 0 
L 581 0 
L 581 3500 
L 1159 3500 
L 1159 2956 
Q 1356 3278 1631 3431 
Q 1906 3584 2284 3584 
Q 2666 3584 2933 3390 
Q 3200 3197 3328 2828 
z
" transform="scale(0.015625)"/>
       <path id="DejaVuSans-52" d="M 2841 2188 
Q 3044 2119 3236 1894 
Q 3428 1669 3622 1275 
L 4263 0 
L 3584 0 
L 2988 1197 
Q 2756 1666 2539 1819 
Q 2322 1972 1947 1972 
L 1259 1972 
L 1259 0 
L 628 0 
L 628 4666 
L 2053 4666 
Q 2853 4666 3247 4331 
Q 3641 3997 3641 3322 
Q 3641 2881 3436 2590 
Q 3231 2300 2841 2188 
z
M 1259 4147 
L 1259 2491 
L 2053 2491 
Q 2509 2491 2742 2702 
Q 2975 2913 2975 3322 
Q 2975 3731 2742 3939 
Q 2509 4147 2053 4147 
L 1259 4147 
z
" transform="scale(0.015625)"/>
       <path id="DejaVuSans-54" d="M -19 4666 
L 3928 4666 
L 3928 4134 
L 2272 4134 
L 2272 0 
L 1638 0 
L 1638 4134 
L -19 4134 
L -19 4666 
z
" transform="scale(0.015625)"/>
      </defs>
      <use xlink:href="#DejaVuSans-45"/>
      <use xlink:href="#DejaVuSans-73" transform="translate(63.183594 0)"/>
      <use xlink:href="#DejaVuSans-74" transform="translate(115.283203 0)"/>
      <use xlink:href="#DejaVuSans-69" transform="translate(154.492188 0)"/>
      <use xlink:href="#DejaVuSans-6d" transform="translate(182.275391 0)"/>
      <use xlink:href="#DejaVuSans-61" transform="translate(279.6875 0)"/>
      <use xlink:href="#DejaVuSans-74" transform="translate(340.966797 0)"/>
      <use xlink:href="#DejaVuSans-65" transform="translate(380.175781 0)"/>
      <use xlink:href="#DejaVuSans-64" transform="translate(441.699219 0)"/>
      <use xlink:href="#DejaVuSans-20" transform="translate(505.175781 0)"/>
      <use xlink:href="#DejaVuSans-52" transform="translate(536.962891 0)"/>
      <use xlink:href="#DejaVuSans-54" transform="translate(599.195312 0)"/>
      <use xlink:href="#DejaVuSans-36" transform="translate(660.279297 0)"/>
      <use xlink:href="#DejaVuSans-30" transform="translate(723.902344 0)"/>
     </g>
    </g>
   </g>
  </g>
 </g>
 <defs>
  <clipPath id="peeffaef7d1">
   <rect x="57.6" y="41.472" width="357.12" height="266.112"/>
  </clipPath>
 </defs>
</svg>
