<?xml version="1.0" encoding="utf-8" standalone="no"?>
<!DOCTYPE svg PUBLIC "-//W3C//DTD SVG 1.1//EN"
  "http://www.w3.org/Graphics/SVG/1.1/DTD/svg11.dtd">
<svg xmlns:xlink="http://www.w3.org/1999/xlink" width="460.8pt" height="345.6pt" viewBox="0 0 460.8 345.6" xmlns="http://www.w3.org/2000/svg" version="1.1">
 <metadata>
  <rdf:RDF xmlns:dc="http://purl.org/dc/elements/1.1/" xmlns:cc="http://creativecommons.org/ns#" xmlns:rdf="http://www.w3.org/1999/02/22-rdf-syntax-ns#">
   <cc:Work>
    <dc:type rdf:resource="http://purl.org/dc/dcmitype/StillImage"/>
    <dc:date>2025-05-07T13:32:42.369793</dc:date>
    <dc:format>image/svg+xml</dc:format>
    <dc:creator>
     <cc:Agent>
      <dc:title>Matplotlib v3.10.1, https://matplotlib.org/</dc:title>
     </cc:Agent>
    </dc:creator>
   </cc:Work>
  </rdf:RDF>
 </metadata>
 <defs>
  <style type="text/css">*{stroke-linejoin: round; stroke-linecap: butt}</style>
 </defs>
 <g id="figure_1">
  <g id="patch_1">
   <path d="M 0 345.6 
L 460.8 345.6 
L 460.8 0 
L 0 0 
z
" style="fill: #ffffff"/>
  </g>
  <g id="axes_1">
   <g id="patch_2">
    <path d="M 57.6 307.584 
L 414.72 307.584 
L 414.72 41.472 
L 57.6 41.472 
z
" style="fill: #ffffff"/>
   </g>
   <g id="matplotlib.axis_1">
    <g id="xtick_1">
     <g id="line2d_1">
      <defs>
       <path id="m270568268e" d="M 0 0 
L 0 3.5 
" style="stroke: #000000; stroke-width: 0.8"/>
      </defs>
      <g>
       <use xlink:href="#m270568268e" x="66.212364" y="307.584" style="stroke: #000000; stroke-width: 0.8"/>
      </g>
     </g>
     <g id="text_1">
      <!-- −0.2 -->
      <g transform="translate(54.070957 322.182437) scale(0.1 -0.1)">
       <defs>
        <path id="DejaVuSans-2212" d="M 678 2272 
L 4684 2272 
L 4684 1741 
L 678 1741 
L 678 2272 
z
" transform="scale(0.015625)"/>
        <path id="DejaVuSans-30" d="M 2034 4250 
Q 1547 4250 1301 3770 
Q 1056 3291 1056 2328 
Q 1056 1369 1301 889 
Q 1547 409 2034 409 
Q 2525 409 2770 889 
Q 3016 1369 3016 2328 
Q 3016 3291 2770 3770 
Q 2525 4250 2034 4250 
z
M 2034 4750 
Q 2819 4750 3233 4129 
Q 3647 3509 3647 2328 
Q 3647 1150 3233 529 
Q 2819 -91 2034 -91 
Q 1250 -91 836 529 
Q 422 1150 422 2328 
Q 422 3509 836 4129 
Q 1250 4750 2034 4750 
z
" transform="scale(0.015625)"/>
        <path id="DejaVuSans-2e" d="M 684 794 
L 1344 794 
L 1344 0 
L 684 0 
L 684 794 
z
" transform="scale(0.015625)"/>
        <path id="DejaVuSans-32" d="M 1228 531 
L 3431 531 
L 3431 0 
L 469 0 
L 469 531 
Q 828 903 1448 1529 
Q 2069 2156 2228 2338 
Q 2531 2678 2651 2914 
Q 2772 3150 2772 3378 
Q 2772 3750 2511 3984 
Q 2250 4219 1831 4219 
Q 1534 4219 1204 4116 
Q 875 4013 500 3803 
L 500 4441 
Q 881 4594 1212 4672 
Q 1544 4750 1819 4750 
Q 2544 4750 2975 4387 
Q 3406 4025 3406 3419 
Q 3406 3131 3298 2873 
Q 3191 2616 2906 2266 
Q 2828 2175 2409 1742 
Q 1991 1309 1228 531 
z
" transform="scale(0.015625)"/>
       </defs>
       <use xlink:href="#DejaVuSans-2212"/>
       <use xlink:href="#DejaVuSans-30" transform="translate(83.789062 0)"/>
       <use xlink:href="#DejaVuSans-2e" transform="translate(147.412109 0)"/>
       <use xlink:href="#DejaVuSans-32" transform="translate(179.199219 0)"/>
      </g>
     </g>
    </g>
    <g id="xtick_2">
     <g id="line2d_2">
      <g>
       <use xlink:href="#m270568268e" x="138.357818" y="307.584" style="stroke: #000000; stroke-width: 0.8"/>
      </g>
     </g>
     <g id="text_2">
      <!-- 0.0 -->
      <g transform="translate(130.406256 322.182437) scale(0.1 -0.1)">
       <use xlink:href="#DejaVuSans-30"/>
       <use xlink:href="#DejaVuSans-2e" transform="translate(63.623047 0)"/>
       <use xlink:href="#DejaVuSans-30" transform="translate(95.410156 0)"/>
      </g>
     </g>
    </g>
    <g id="xtick_3">
     <g id="line2d_3">
      <g>
       <use xlink:href="#m270568268e" x="210.503273" y="307.584" style="stroke: #000000; stroke-width: 0.8"/>
      </g>
     </g>
     <g id="text_3">
      <!-- 0.2 -->
      <g transform="translate(202.55171 322.182437) scale(0.1 -0.1)">
       <use xlink:href="#DejaVuSans-30"/>
       <use xlink:href="#DejaVuSans-2e" transform="translate(63.623047 0)"/>
       <use xlink:href="#DejaVuSans-32" transform="translate(95.410156 0)"/>
      </g>
     </g>
    </g>
    <g id="xtick_4">
     <g id="line2d_4">
      <g>
       <use xlink:href="#m270568268e" x="282.648727" y="307.584" style="stroke: #000000; stroke-width: 0.8"/>
      </g>
     </g>
     <g id="text_4">
      <!-- 0.4 -->
      <g transform="translate(274.697165 322.182437) scale(0.1 -0.1)">
       <defs>
        <path id="DejaVuSans-34" d="M 2419 4116 
L 825 1625 
L 2419 1625 
L 2419 4116 
z
M 2253 4666 
L 3047 4666 
L 3047 1625 
L 3713 1625 
L 3713 1100 
L 3047 1100 
L 3047 0 
L 2419 0 
L 2419 1100 
L 313 1100 
L 313 1709 
L 2253 4666 
z
" transform="scale(0.015625)"/>
       </defs>
       <use xlink:href="#DejaVuSans-30"/>
       <use xlink:href="#DejaVuSans-2e" transform="translate(63.623047 0)"/>
       <use xlink:href="#DejaVuSans-34" transform="translate(95.410156 0)"/>
      </g>
     </g>
    </g>
    <g id="xtick_5">
     <g id="line2d_5">
      <g>
       <use xlink:href="#m270568268e" x="354.794182" y="307.584" style="stroke: #000000; stroke-width: 0.8"/>
      </g>
     </g>
     <g id="text_5">
      <!-- 0.6 -->
      <g transform="translate(346.842619 322.182437) scale(0.1 -0.1)">
       <defs>
        <path id="DejaVuSans-36" d="M 2113 2584 
Q 1688 2584 1439 2293 
Q 1191 2003 1191 1497 
Q 1191 994 1439 701 
Q 1688 409 2113 409 
Q 2538 409 2786 701 
Q 3034 994 3034 1497 
Q 3034 2003 2786 2293 
Q 2538 2584 2113 2584 
z
M 3366 4563 
L 3366 3988 
Q 3128 4100 2886 4159 
Q 2644 4219 2406 4219 
Q 1781 4219 1451 3797 
Q 1122 3375 1075 2522 
Q 1259 2794 1537 2939 
Q 1816 3084 2150 3084 
Q 2853 3084 3261 2657 
Q 3669 2231 3669 1497 
Q 3669 778 3244 343 
Q 2819 -91 2113 -91 
Q 1303 -91 875 529 
Q 447 1150 447 2328 
Q 447 3434 972 4092 
Q 1497 4750 2381 4750 
Q 2619 4750 2861 4703 
Q 3103 4656 3366 4563 
z
" transform="scale(0.015625)"/>
       </defs>
       <use xlink:href="#DejaVuSans-30"/>
       <use xlink:href="#DejaVuSans-2e" transform="translate(63.623047 0)"/>
       <use xlink:href="#DejaVuSans-36" transform="translate(95.410156 0)"/>
      </g>
     </g>
    </g>
   </g>
   <g id="matplotlib.axis_2">
    <g id="ytick_1">
     <g id="line2d_6">
      <defs>
       <path id="m03e786fd9c" d="M 0 0 
L -3.5 0 
" style="stroke: #000000; stroke-width: 0.8"/>
      </defs>
      <g>
       <use xlink:href="#m03e786fd9c" x="57.6" y="299.177847" style="stroke: #000000; stroke-width: 0.8"/>
      </g>
     </g>
     <g id="text_6">
      <!-- −200 -->
      <g transform="translate(23.132812 302.977066) scale(0.1 -0.1)">
       <use xlink:href="#DejaVuSans-2212"/>
       <use xlink:href="#DejaVuSans-32" transform="translate(83.789062 0)"/>
       <use xlink:href="#DejaVuSans-30" transform="translate(147.412109 0)"/>
       <use xlink:href="#DejaVuSans-30" transform="translate(211.035156 0)"/>
      </g>
     </g>
    </g>
    <g id="ytick_2">
     <g id="line2d_7">
      <g>
       <use xlink:href="#m03e786fd9c" x="57.6" y="268.476616" style="stroke: #000000; stroke-width: 0.8"/>
      </g>
     </g>
     <g id="text_7">
      <!-- −175 -->
      <g transform="translate(23.132812 272.275835) scale(0.1 -0.1)">
       <defs>
        <path id="DejaVuSans-31" d="M 794 531 
L 1825 531 
L 1825 4091 
L 703 3866 
L 703 4441 
L 1819 4666 
L 2450 4666 
L 2450 531 
L 3481 531 
L 3481 0 
L 794 0 
L 794 531 
z
" transform="scale(0.015625)"/>
        <path id="DejaVuSans-37" d="M 525 4666 
L 3525 4666 
L 3525 4397 
L 1831 0 
L 1172 0 
L 2766 4134 
L 525 4134 
L 525 4666 
z
" transform="scale(0.015625)"/>
        <path id="DejaVuSans-35" d="M 691 4666 
L 3169 4666 
L 3169 4134 
L 1269 4134 
L 1269 2991 
Q 1406 3038 1543 3061 
Q 1681 3084 1819 3084 
Q 2600 3084 3056 2656 
Q 3513 2228 3513 1497 
Q 3513 744 3044 326 
Q 2575 -91 1722 -91 
Q 1428 -91 1123 -41 
Q 819 9 494 109 
L 494 744 
Q 775 591 1075 516 
Q 1375 441 1709 441 
Q 2250 441 2565 725 
Q 2881 1009 2881 1497 
Q 2881 1984 2565 2268 
Q 2250 2553 1709 2553 
Q 1456 2553 1204 2497 
Q 953 2441 691 2322 
L 691 4666 
z
" transform="scale(0.015625)"/>
       </defs>
       <use xlink:href="#DejaVuSans-2212"/>
       <use xlink:href="#DejaVuSans-31" transform="translate(83.789062 0)"/>
       <use xlink:href="#DejaVuSans-37" transform="translate(147.412109 0)"/>
       <use xlink:href="#DejaVuSans-35" transform="translate(211.035156 0)"/>
      </g>
     </g>
    </g>
    <g id="ytick_3">
     <g id="line2d_8">
      <g>
       <use xlink:href="#m03e786fd9c" x="57.6" y="237.775385" style="stroke: #000000; stroke-width: 0.8"/>
      </g>
     </g>
     <g id="text_8">
      <!-- −150 -->
      <g transform="translate(23.132812 241.574604) scale(0.1 -0.1)">
       <use xlink:href="#DejaVuSans-2212"/>
       <use xlink:href="#DejaVuSans-31" transform="translate(83.789062 0)"/>
       <use xlink:href="#DejaVuSans-35" transform="translate(147.412109 0)"/>
       <use xlink:href="#DejaVuSans-30" transform="translate(211.035156 0)"/>
      </g>
     </g>
    </g>
    <g id="ytick_4">
     <g id="line2d_9">
      <g>
       <use xlink:href="#m03e786fd9c" x="57.6" y="207.074154" style="stroke: #000000; stroke-width: 0.8"/>
      </g>
     </g>
     <g id="text_9">
      <!-- −125 -->
      <g transform="translate(23.132812 210.873373) scale(0.1 -0.1)">
       <use xlink:href="#DejaVuSans-2212"/>
       <use xlink:href="#DejaVuSans-31" transform="translate(83.789062 0)"/>
       <use xlink:href="#DejaVuSans-32" transform="translate(147.412109 0)"/>
       <use xlink:href="#DejaVuSans-35" transform="translate(211.035156 0)"/>
      </g>
     </g>
    </g>
    <g id="ytick_5">
     <g id="line2d_10">
      <g>
       <use xlink:href="#m03e786fd9c" x="57.6" y="176.372924" style="stroke: #000000; stroke-width: 0.8"/>
      </g>
     </g>
     <g id="text_10">
      <!-- −100 -->
      <g transform="translate(23.132812 180.172142) scale(0.1 -0.1)">
       <use xlink:href="#DejaVuSans-2212"/>
       <use xlink:href="#DejaVuSans-31" transform="translate(83.789062 0)"/>
       <use xlink:href="#DejaVuSans-30" transform="translate(147.412109 0)"/>
       <use xlink:href="#DejaVuSans-30" transform="translate(211.035156 0)"/>
      </g>
     </g>
    </g>
    <g id="ytick_6">
     <g id="line2d_11">
      <g>
       <use xlink:href="#m03e786fd9c" x="57.6" y="145.671693" style="stroke: #000000; stroke-width: 0.8"/>
      </g>
     </g>
     <g id="text_11">
      <!-- −75 -->
      <g transform="translate(29.495313 149.470911) scale(0.1 -0.1)">
       <use xlink:href="#DejaVuSans-2212"/>
       <use xlink:href="#DejaVuSans-37" transform="translate(83.789062 0)"/>
       <use xlink:href="#DejaVuSans-35" transform="translate(147.412109 0)"/>
      </g>
     </g>
    </g>
    <g id="ytick_7">
     <g id="line2d_12">
      <g>
       <use xlink:href="#m03e786fd9c" x="57.6" y="114.970462" style="stroke: #000000; stroke-width: 0.8"/>
      </g>
     </g>
     <g id="text_12">
      <!-- −50 -->
      <g transform="translate(29.495313 118.769681) scale(0.1 -0.1)">
       <use xlink:href="#DejaVuSans-2212"/>
       <use xlink:href="#DejaVuSans-35" transform="translate(83.789062 0)"/>
       <use xlink:href="#DejaVuSans-30" transform="translate(147.412109 0)"/>
      </g>
     </g>
    </g>
    <g id="ytick_8">
     <g id="line2d_13">
      <g>
       <use xlink:href="#m03e786fd9c" x="57.6" y="84.269231" style="stroke: #000000; stroke-width: 0.8"/>
      </g>
     </g>
     <g id="text_13">
      <!-- −25 -->
      <g transform="translate(29.495313 88.06845) scale(0.1 -0.1)">
       <use xlink:href="#DejaVuSans-2212"/>
       <use xlink:href="#DejaVuSans-32" transform="translate(83.789062 0)"/>
       <use xlink:href="#DejaVuSans-35" transform="translate(147.412109 0)"/>
      </g>
     </g>
    </g>
    <g id="ytick_9">
     <g id="line2d_14">
      <g>
       <use xlink:href="#m03e786fd9c" x="57.6" y="53.568" style="stroke: #000000; stroke-width: 0.8"/>
      </g>
     </g>
     <g id="text_14">
      <!-- 0 -->
      <g transform="translate(44.2375 57.367219) scale(0.1 -0.1)">
       <use xlink:href="#DejaVuSans-30"/>
      </g>
     </g>
    </g>
   </g>
   <g id="line2d_15">
    <path d="M 73.832727 53.568 
L 132.345697 53.679085 
L 132.48097 53.847861 
L 132.616242 53.904379 
L 133.149818 54.02087 
L 133.653333 55.292055 
L 133.984 55.446143 
L 134.126788 55.82979 
L 134.262061 56.276609 
L 135.569697 57.661022 
L 135.712485 57.751224 
L 136.614303 58.120705 
L 136.794667 58.338523 
L 137.215515 58.463026 
L 139.17697 60.323625 
L 139.417455 60.460134 
L 139.943515 60.917898 
L 140.123879 61.260981 
L 140.289212 61.4069 
L 140.492121 61.519612 
L 140.830303 61.748213 
L 140.980606 61.859364 
L 141.296242 62.170052 
L 141.446545 62.333639 
L 141.68703 62.45285 
L 141.882424 62.604153 
L 142.137939 62.729145 
L 142.769212 63.041503 
L 143.550788 63.564182 
L 143.723636 63.678893 
L 144.016727 63.856502 
L 144.38497 64.051584 
L 144.640485 64.129732 
L 144.933576 64.262431 
L 145.211636 64.504197 
L 145.752727 64.890036 
L 145.90303 65.008178 
L 146.203636 65.131974 
L 146.632 65.403194 
L 147.135515 65.679812 
L 147.413576 65.971352 
L 147.616485 66.077166 
L 148.315394 66.517408 
L 148.488242 66.66369 
L 148.638545 66.773615 
L 148.811394 66.882084 
L 148.969212 66.918339 
L 149.224727 67.020238 
L 149.502788 67.420079 
L 149.562909 67.510549 
L 149.690667 67.649653 
L 149.983758 67.749478 
L 150.141576 67.820666 
L 150.382061 67.93064 
L 150.532364 68.093573 
L 151.57697 68.435702 
L 151.749818 68.644867 
L 151.82497 68.729967 
L 152.005333 69.038991 
L 152.35103 69.207655 
L 152.59903 69.326423 
L 152.764364 69.418294 
L 152.854545 69.537123 
L 153.019879 69.727077 
L 153.854061 70.204181 
L 154.004364 70.300006 
L 154.207273 70.421699 
L 154.958788 70.924498 
L 155.484848 71.484737 
L 155.672727 71.614599 
L 155.913212 71.820412 
L 156.341576 71.947905 
L 156.484364 71.997529 
L 156.807515 72.129854 
L 157.220848 72.380632 
L 157.551515 72.525775 
L 157.709333 72.58806 
L 157.972364 72.746003 
L 158.107636 72.818683 
L 159.445333 73.383423 
L 159.640727 73.550619 
L 159.903758 73.65876 
L 161.008485 74.400336 
L 161.181333 74.572975 
L 161.429333 74.677099 
L 161.662303 74.778667 
L 161.880242 74.892576 
L 162.02303 74.983709 
L 162.368727 75.094603 
L 162.744485 75.235393 
L 163.052606 75.367925 
L 163.458424 75.485406 
L 163.713939 75.746547 
L 163.886788 75.881459 
L 164.179879 76.024506 
L 164.495515 76.247656 
L 164.871273 76.446233 
L 165.014061 76.554103 
L 165.171879 76.616061 
L 165.855758 76.781284 
L 166.006061 76.86573 
L 166.426909 76.984642 
L 166.607273 77.080629 
L 167.005576 77.311553 
L 167.170909 77.385727 
L 167.629333 77.668895 
L 167.787152 77.731639 
L 168.275636 77.939167 
L 168.418424 78.021289 
L 168.96703 78.144795 
L 170.537697 79.031722 
L 170.695515 79.14552 
L 171.995636 79.689281 
L 172.138424 79.763052 
L 172.356364 79.874583 
L 173.446061 80.286048 
L 173.67903 80.406847 
L 173.979636 80.693505 
L 174.137455 80.792664 
L 175.009212 81.066807 
L 175.234667 81.370841 
L 175.512727 81.522485 
L 175.730667 82.023654 
L 175.926061 82.149722 
L 176.174061 82.273963 
L 176.940606 82.563398 
L 177.098424 82.657082 
L 177.211152 82.764212 
L 177.414061 82.843592 
L 178.052848 82.984128 
L 178.60897 83.317283 
L 178.834424 83.417191 
L 179.255273 83.614236 
L 179.390545 83.732024 
L 179.548364 83.814903 
L 180.029333 83.96036 
L 180.172121 84.008206 
L 180.329939 84.11772 
L 180.472727 84.196446 
L 181.269333 84.493352 
L 181.998303 84.9358 
L 182.772364 85.263849 
L 183.065455 85.640448 
L 184.350545 86.078125 
L 184.545939 86.211279 
L 185.132121 86.360958 
L 185.312485 86.412377 
L 185.785939 86.52384 
L 186.29697 86.699413 
L 186.484848 86.803182 
L 186.695273 86.949359 
L 186.965818 87.113632 
L 187.251394 87.192308 
L 187.642182 87.350601 
L 187.78497 87.416677 
L 188.183273 87.616308 
L 188.356121 87.706646 
L 188.822061 87.894156 
L 189.070061 88.063569 
L 189.370667 88.339639 
L 189.498424 88.44326 
L 189.791515 88.6182 
L 189.934303 88.65859 
L 190.212364 88.771859 
L 190.565576 88.837439 
L 190.933818 88.953487 
L 191.114182 88.994827 
L 191.745455 89.271501 
L 192.519515 89.615396 
L 192.662303 89.652811 
L 192.842667 89.797631 
L 193.128242 89.94021 
L 193.27103 90.061589 
L 193.646788 90.284059 
L 193.774545 90.387278 
L 193.917333 90.46162 
L 194.368242 90.692799 
L 194.51103 90.762845 
L 194.909333 90.86289 
L 195.082182 90.954502 
L 195.555636 91.084781 
L 195.848727 91.221305 
L 196.344727 91.383252 
L 196.592727 91.528525 
L 196.818182 91.72545 
L 197.021091 92.035707 
L 197.366788 92.094295 
L 198.787152 92.464416 
L 198.982545 92.551385 
L 199.283152 92.66422 
L 199.425939 92.733505 
L 199.598788 92.834492 
L 199.734061 92.915405 
L 199.921939 93.004268 
L 200.057212 93.081333 
L 200.395394 93.20275 
L 200.605818 93.344746 
L 201.034182 93.456104 
L 201.327273 93.561686 
L 201.770667 93.65553 
L 202.19903 93.765599 
L 202.627394 94.022364 
L 204.258182 94.62506 
L 204.92703 94.759294 
L 205.107394 94.908074 
L 205.986667 95.166212 
L 206.249697 95.281939 
L 206.63297 95.437117 
L 206.858424 95.553419 
L 207.121455 95.724541 
L 207.579879 95.975714 
L 207.895515 96.08757 
L 208.113455 96.154904 
L 208.684606 96.4127 
L 209.165576 96.741653 
L 209.263273 96.851151 
L 209.518788 96.894683 
L 209.992242 97.013601 
L 210.180121 97.149251 
L 211.254788 97.568156 
L 211.427636 97.918795 
L 211.608 98.010814 
L 212.464727 98.213552 
L 212.885576 98.491717 
L 213.652121 98.663318 
L 213.937697 98.830501 
L 214.493818 98.941317 
L 215.884121 99.528099 
L 216.876121 99.833321 
L 217.139152 99.894432 
L 218.010909 100.10085 
L 218.890182 100.576109 
L 219.160727 100.687761 
L 219.468848 100.877909 
L 220.363152 101.025618 
L 220.536 101.096747 
L 221.730909 101.548215 
L 222.136727 101.681096 
L 222.384727 101.874824 
L 224.24097 102.739849 
L 224.368727 102.850204 
L 224.51903 102.915869 
L 225.676364 103.138742 
L 227.810667 103.84279 
L 227.983515 104.039628 
L 228.359273 104.10821 
L 229.426424 104.393102 
L 229.636848 104.464955 
L 230.170424 104.650749 
L 230.410909 104.695418 
L 230.771636 104.816659 
L 230.982061 104.880809 
L 231.448 105.116524 
L 232.064242 105.255079 
L 232.244606 105.307742 
L 232.44 105.418932 
L 232.763152 105.509317 
L 233.244121 105.695815 
L 233.604848 105.883243 
L 234.063273 106.054971 
L 234.341333 106.151455 
L 234.559273 106.279726 
L 234.709576 106.326095 
L 235.137939 106.380629 
L 235.468606 106.488769 
L 235.611394 106.541978 
L 236.039758 106.656315 
L 236.618424 106.826126 
L 237.249697 107.055714 
L 237.497697 107.266999 
L 237.723152 107.309344 
L 238.076364 107.414501 
L 238.354424 107.516077 
L 239.444121 107.985888 
L 239.819879 108.090337 
L 240.022788 108.158685 
L 240.503758 108.246744 
L 241.007273 108.381729 
L 241.503273 108.504787 
L 242.021818 108.637338 
L 246.418182 109.823417 
L 246.884121 109.939533 
L 247.605576 110.303947 
L 248.161697 110.420577 
L 250.265939 110.96303 
L 250.77697 111.095527 
L 250.949818 111.150166 
L 251.490909 111.293683 
L 251.663758 111.352287 
L 252.01697 111.468631 
L 252.212364 111.520269 
L 253.226909 111.683794 
L 253.52 112.028558 
L 258.307152 113.339648 
L 258.487515 113.386942 
L 259.569697 113.59093 
L 259.795152 113.810121 
L 260.742061 114.095197 
L 262.515636 114.569357 
L 262.673455 114.609353 
L 262.951515 114.650872 
L 263.357333 114.826979 
L 263.590303 114.870392 
L 264.364364 115.093526 
L 264.687515 115.203024 
L 264.882909 115.281249 
L 265.724606 115.50106 
L 265.882424 115.567237 
L 266.611394 115.677668 
L 267.212606 115.875013 
L 268.324848 115.985729 
L 276.606545 117.226156 
L 277.004848 117.27716 
L 277.921697 117.39424 
L 278.192242 117.494618 
L 278.560485 117.630866 
L 278.981333 117.678298 
L 279.988364 117.840666 
L 280.356606 117.960906 
L 281.709333 118.090984 
L 292.997091 119.401896 
L 294.259636 119.518929 
L 298.039758 119.883192 
L 298.287758 119.895992 
L 301.113455 120.161491 
L 301.286303 120.183903 
L 302.563879 120.326667 
L 303.375515 120.399675 
L 304.450182 120.529651 
L 305.697697 120.711928 
L 307.185697 120.849612 
L 308.012364 120.962081 
L 308.335515 120.988913 
L 311.882667 121.340918 
L 313.393212 121.5093 
L 315.25697 121.709123 
L 316.489455 121.834726 
L 317.233455 121.896272 
L 318.217939 122.010257 
L 318.894303 122.105522 
L 320.389818 122.256913 
L 323.749091 122.662122 
L 324.951515 122.805537 
L 328.010182 123.134903 
L 328.664 123.208172 
L 329.573333 123.35696 
L 330.640485 123.481867 
L 331.40703 123.605812 
L 338.095515 124.492645 
L 338.253333 124.530187 
L 338.989818 124.640624 
L 339.410667 124.691175 
L 340.425212 124.805649 
L 341.041455 124.862526 
L 344.257939 125.257715 
L 344.558545 125.327536 
L 349.082667 126.116175 
L 349.375758 126.179897 
L 350.533091 126.347466 
L 350.736 126.410182 
L 351.262061 126.521327 
L 351.855758 126.648068 
L 352.607273 126.760399 
L 354.065212 127.086117 
L 354.914424 127.205712 
L 355.087273 127.292838 
L 356.161939 127.578824 
L 356.688 127.677453 
L 356.823273 127.790094 
L 357.131394 127.870317 
L 357.507152 127.980552 
L 359.055273 128.368744 
L 359.656485 128.556797 
L 359.814303 128.647512 
L 360.047273 128.750948 
L 360.197576 128.81264 
L 360.475636 128.874153 
L 360.873939 129.013511 
L 361.377455 129.23749 
L 361.505212 129.31499 
L 361.715636 129.427816 
L 361.896 129.521503 
L 362.241697 129.666567 
L 362.444606 129.752897 
L 362.782788 129.920945 
L 363.203636 130.113522 
L 363.39903 130.166343 
L 363.639515 130.290234 
L 364.030303 130.372523 
L 364.278303 130.521241 
L 364.481212 130.603507 
L 365.773818 130.984415 
L 366.307394 131.378209 
L 366.886061 131.647577 
L 367.231758 131.844401 
L 367.795394 132.081244 
L 368.050909 132.214234 
L 368.208727 132.296712 
L 368.862545 132.694558 
L 369.305939 132.875202 
L 369.81697 133.237738 
L 370.042424 133.354333 
L 370.350545 133.775247 
L 370.485818 133.907053 
L 371.162182 134.331574 
L 371.274909 134.43746 
L 371.425212 134.696935 
L 371.575515 134.772661 
L 371.868606 134.922391 
L 372.011394 135.036854 
L 372.259394 135.196961 
L 372.417212 135.286285 
L 372.913212 135.799253 
L 373.078545 136.008504 
L 373.153697 136.120769 
L 374.06303 137.181657 
L 374.356121 137.442753 
L 374.671758 137.837068 
L 374.859636 137.948092 
L 375.05503 138.110957 
L 375.648727 138.578146 
L 375.881697 138.819148 
L 376.212364 139.415719 
L 376.370182 139.73485 
L 376.520485 139.852809 
L 376.806061 139.966691 
L 377.001455 140.116233 
L 377.181818 140.280308 
L 378.481939 141.32738 
L 378.624727 141.50657 
L 378.782545 141.615416 
L 378.917818 141.841921 
L 379.105697 142.34091 
L 379.195879 142.442842 
L 379.534061 142.79984 
L 379.789576 143.040036 
L 379.932364 143.208715 
L 380.060121 143.308838 
L 380.811636 144.701414 
L 380.894303 144.807977 
L 381.037091 145.030693 
L 381.285091 145.147905 
L 381.495515 145.276621 
L 381.728485 145.866182 
L 381.99903 146.379329 
L 382.059152 146.466482 
L 382.194424 146.548966 
L 382.592727 146.986899 
L 382.728 147.291574 
L 382.998545 147.453758 
L 383.066182 147.572478 
L 384.185939 149.601074 
L 384.418909 149.796932 
L 384.516606 150.237766 
L 384.651879 150.565286 
L 384.794667 150.707087 
L 385.005091 151.278827 
L 385.117818 151.39147 
L 385.275636 151.759216 
L 385.403394 151.853472 
L 385.583758 152.132676 
L 385.673939 152.340914 
L 385.854303 152.450611 
L 385.974545 152.547676 
L 386.230061 153.043994 
L 386.312727 153.151252 
L 386.372848 153.406634 
L 386.515636 153.990359 
L 386.665939 154.229246 
L 386.944 154.640341 
L 387.364848 155.313516 
L 387.552727 156.014986 
L 387.92097 156.311653 
L 388.011152 156.413836 
L 388.236606 156.673551 
L 388.281697 156.748015 
L 388.469576 157.470204 
L 388.529697 157.559398 
L 388.770182 158.338679 
L 388.815273 158.51171 
L 389.010667 159.291935 
L 389.093333 159.392939 
L 389.266182 159.811554 
L 389.311273 159.886451 
L 389.589333 161.292434 
L 389.792242 161.980921 
L 389.93503 162.282724 
L 390.115394 162.641916 
L 390.15297 162.750002 
L 390.190545 162.901898 
L 390.310788 163.048493 
L 390.378424 163.153252 
L 390.536242 163.506863 
L 390.566303 163.621158 
L 390.746667 164.504177 
L 390.934545 165.356214 
L 391.475636 167.871663 
L 391.625939 169.691055 
L 391.64097 169.741589 
L 391.776242 170.252252 
L 392.016727 171.013133 
L 392.197091 171.340825 
L 392.460121 172.450081 
L 392.572848 172.607423 
L 392.700606 172.761443 
L 392.760727 173.044637 
L 392.941091 173.914126 
L 393.023758 174.430606 
L 393.249212 175.33487 
L 393.294303 175.44068 
L 394.008242 179.675773 
L 394.075879 179.767977 
L 394.654545 184.130981 
L 394.692121 184.256464 
L 394.842424 185.043574 
L 395.406061 190.438673 
L 395.421091 190.617005 
L 395.669091 191.800397 
L 395.706667 191.871774 
L 395.849455 192.278115 
L 395.894545 192.448254 
L 396.270303 197.677279 
L 396.277818 197.689924 
L 396.450667 201.726587 
L 396.691152 205.596573 
L 396.841455 208.2241 
L 396.924121 209.021908 
L 397.179636 215.167748 
L 397.209697 215.282634 
L 397.435152 217.570874 
L 397.577939 218.329155 
L 397.773333 222.905963 
L 397.810909 223.975611 
L 398.021333 239.65554 
L 398.028848 239.664127 
L 398.344485 259.18033 
L 398.479758 295.488 
L 398.479758 295.488 
" clip-path="url(#p3d52efd312)" style="fill: none; stroke: #1f77b4; stroke-width: 1.5; stroke-linecap: square"/>
   </g>
   <g id="line2d_16">
    <path d="M 138.357818 59.708776 
L 370.072485 133.3912 
" clip-path="url(#p3d52efd312)" style="fill: none; stroke-dasharray: 5.55,2.4; stroke-dashoffset: 0; stroke: #ff7f0e; stroke-width: 1.5"/>
   </g>
   <g id="line2d_17">
    <path d="M 73.832727 127.250954 
L 398.487273 127.250954 
L 398.487273 127.250954 
" clip-path="url(#p3d52efd312)" style="fill: none; stroke-dasharray: 5.55,2.4; stroke-dashoffset: 0; stroke: #2ca02c; stroke-width: 1.5"/>
   </g>
   <g id="LineCollection_1">
    <path d="M 370.072485 295.488 
L 370.072485 53.568 
" clip-path="url(#p3d52efd312)" style="fill: none; stroke-dasharray: 5.55,2.4; stroke-dashoffset: 0; stroke: #1f77b4; stroke-width: 1.5"/>
   </g>
   <g id="patch_3">
    <path d="M 57.6 307.584 
L 57.6 41.472 
" style="fill: none; stroke: #000000; stroke-width: 0.8; stroke-linejoin: miter; stroke-linecap: square"/>
   </g>
   <g id="patch_4">
    <path d="M 414.72 307.584 
L 414.72 41.472 
" style="fill: none; stroke: #000000; stroke-width: 0.8; stroke-linejoin: miter; stroke-linecap: square"/>
   </g>
   <g id="patch_5">
    <path d="M 57.6 307.584 
L 414.72 307.584 
" style="fill: none; stroke: #000000; stroke-width: 0.8; stroke-linejoin: miter; stroke-linecap: square"/>
   </g>
   <g id="patch_6">
    <path d="M 57.6 41.472 
L 414.72 41.472 
" style="fill: none; stroke: #000000; stroke-width: 0.8; stroke-linejoin: miter; stroke-linecap: square"/>
   </g>
   <g id="text_15">
    <!-- Energy Decay - 8000 Hz -->
    <g transform="translate(163.59 35.472) scale(0.12 -0.12)">
     <defs>
      <path id="DejaVuSans-45" d="M 628 4666 
L 3578 4666 
L 3578 4134 
L 1259 4134 
L 1259 2753 
L 3481 2753 
L 3481 2222 
L 1259 2222 
L 1259 531 
L 3634 531 
L 3634 0 
L 628 0 
L 628 4666 
z
" transform="scale(0.015625)"/>
      <path id="DejaVuSans-6e" d="M 3513 2113 
L 3513 0 
L 2938 0 
L 2938 2094 
Q 2938 2591 2744 2837 
Q 2550 3084 2163 3084 
Q 1697 3084 1428 2787 
Q 1159 2491 1159 1978 
L 1159 0 
L 581 0 
L 581 3500 
L 1159 3500 
L 1159 2956 
Q 1366 3272 1645 3428 
Q 1925 3584 2291 3584 
Q 2894 3584 3203 3211 
Q 3513 2838 3513 2113 
z
" transform="scale(0.015625)"/>
      <path id="DejaVuSans-65" d="M 3597 1894 
L 3597 1613 
L 953 1613 
Q 991 1019 1311 708 
Q 1631 397 2203 397 
Q 2534 397 2845 478 
Q 3156 559 3463 722 
L 3463 178 
Q 3153 47 2828 -22 
Q 2503 -91 2169 -91 
Q 1331 -91 842 396 
Q 353 884 353 1716 
Q 353 2575 817 3079 
Q 1281 3584 2069 3584 
Q 2775 3584 3186 3129 
Q 3597 2675 3597 1894 
z
M 3022 2063 
Q 3016 2534 2758 2815 
Q 2500 3097 2075 3097 
Q 1594 3097 1305 2825 
Q 1016 2553 972 2059 
L 3022 2063 
z
" transform="scale(0.015625)"/>
      <path id="DejaVuSans-72" d="M 2631 2963 
Q 2534 3019 2420 3045 
Q 2306 3072 2169 3072 
Q 1681 3072 1420 2755 
Q 1159 2438 1159 1844 
L 1159 0 
L 581 0 
L 581 3500 
L 1159 3500 
L 1159 2956 
Q 1341 3275 1631 3429 
Q 1922 3584 2338 3584 
Q 2397 3584 2469 3576 
Q 2541 3569 2628 3553 
L 2631 2963 
z
" transform="scale(0.015625)"/>
      <path id="DejaVuSans-67" d="M 2906 1791 
Q 2906 2416 2648 2759 
Q 2391 3103 1925 3103 
Q 1463 3103 1205 2759 
Q 947 2416 947 1791 
Q 947 1169 1205 825 
Q 1463 481 1925 481 
Q 2391 481 2648 825 
Q 2906 1169 2906 1791 
z
M 3481 434 
Q 3481 -459 3084 -895 
Q 2688 -1331 1869 -1331 
Q 1566 -1331 1297 -1286 
Q 1028 -1241 775 -1147 
L 775 -588 
Q 1028 -725 1275 -790 
Q 1522 -856 1778 -856 
Q 2344 -856 2625 -561 
Q 2906 -266 2906 331 
L 2906 616 
Q 2728 306 2450 153 
Q 2172 0 1784 0 
Q 1141 0 747 490 
Q 353 981 353 1791 
Q 353 2603 747 3093 
Q 1141 3584 1784 3584 
Q 2172 3584 2450 3431 
Q 2728 3278 2906 2969 
L 2906 3500 
L 3481 3500 
L 3481 434 
z
" transform="scale(0.015625)"/>
      <path id="DejaVuSans-79" d="M 2059 -325 
Q 1816 -950 1584 -1140 
Q 1353 -1331 966 -1331 
L 506 -1331 
L 506 -850 
L 844 -850 
Q 1081 -850 1212 -737 
Q 1344 -625 1503 -206 
L 1606 56 
L 191 3500 
L 800 3500 
L 1894 763 
L 2988 3500 
L 3597 3500 
L 2059 -325 
z
" transform="scale(0.015625)"/>
      <path id="DejaVuSans-20" transform="scale(0.015625)"/>
      <path id="DejaVuSans-44" d="M 1259 4147 
L 1259 519 
L 2022 519 
Q 2988 519 3436 956 
Q 3884 1394 3884 2338 
Q 3884 3275 3436 3711 
Q 2988 4147 2022 4147 
L 1259 4147 
z
M 628 4666 
L 1925 4666 
Q 3281 4666 3915 4102 
Q 4550 3538 4550 2338 
Q 4550 1131 3912 565 
Q 3275 0 1925 0 
L 628 0 
L 628 4666 
z
" transform="scale(0.015625)"/>
      <path id="DejaVuSans-63" d="M 3122 3366 
L 3122 2828 
Q 2878 2963 2633 3030 
Q 2388 3097 2138 3097 
Q 1578 3097 1268 2742 
Q 959 2388 959 1747 
Q 959 1106 1268 751 
Q 1578 397 2138 397 
Q 2388 397 2633 464 
Q 2878 531 3122 666 
L 3122 134 
Q 2881 22 2623 -34 
Q 2366 -91 2075 -91 
Q 1284 -91 818 406 
Q 353 903 353 1747 
Q 353 2603 823 3093 
Q 1294 3584 2113 3584 
Q 2378 3584 2631 3529 
Q 2884 3475 3122 3366 
z
" transform="scale(0.015625)"/>
      <path id="DejaVuSans-61" d="M 2194 1759 
Q 1497 1759 1228 1600 
Q 959 1441 959 1056 
Q 959 750 1161 570 
Q 1363 391 1709 391 
Q 2188 391 2477 730 
Q 2766 1069 2766 1631 
L 2766 1759 
L 2194 1759 
z
M 3341 1997 
L 3341 0 
L 2766 0 
L 2766 531 
Q 2569 213 2275 61 
Q 1981 -91 1556 -91 
Q 1019 -91 701 211 
Q 384 513 384 1019 
Q 384 1609 779 1909 
Q 1175 2209 1959 2209 
L 2766 2209 
L 2766 2266 
Q 2766 2663 2505 2880 
Q 2244 3097 1772 3097 
Q 1472 3097 1187 3025 
Q 903 2953 641 2809 
L 641 3341 
Q 956 3463 1253 3523 
Q 1550 3584 1831 3584 
Q 2591 3584 2966 3190 
Q 3341 2797 3341 1997 
z
" transform="scale(0.015625)"/>
      <path id="DejaVuSans-2d" d="M 313 2009 
L 1997 2009 
L 1997 1497 
L 313 1497 
L 313 2009 
z
" transform="scale(0.015625)"/>
      <path id="DejaVuSans-38" d="M 2034 2216 
Q 1584 2216 1326 1975 
Q 1069 1734 1069 1313 
Q 1069 891 1326 650 
Q 1584 409 2034 409 
Q 2484 409 2743 651 
Q 3003 894 3003 1313 
Q 3003 1734 2745 1975 
Q 2488 2216 2034 2216 
z
M 1403 2484 
Q 997 2584 770 2862 
Q 544 3141 544 3541 
Q 544 4100 942 4425 
Q 1341 4750 2034 4750 
Q 2731 4750 3128 4425 
Q 3525 4100 3525 3541 
Q 3525 3141 3298 2862 
Q 3072 2584 2669 2484 
Q 3125 2378 3379 2068 
Q 3634 1759 3634 1313 
Q 3634 634 3220 271 
Q 2806 -91 2034 -91 
Q 1263 -91 848 271 
Q 434 634 434 1313 
Q 434 1759 690 2068 
Q 947 2378 1403 2484 
z
M 1172 3481 
Q 1172 3119 1398 2916 
Q 1625 2713 2034 2713 
Q 2441 2713 2670 2916 
Q 2900 3119 2900 3481 
Q 2900 3844 2670 4047 
Q 2441 4250 2034 4250 
Q 1625 4250 1398 4047 
Q 1172 3844 1172 3481 
z
" transform="scale(0.015625)"/>
      <path id="DejaVuSans-48" d="M 628 4666 
L 1259 4666 
L 1259 2753 
L 3553 2753 
L 3553 4666 
L 4184 4666 
L 4184 0 
L 3553 0 
L 3553 2222 
L 1259 2222 
L 1259 0 
L 628 0 
L 628 4666 
z
" transform="scale(0.015625)"/>
      <path id="DejaVuSans-7a" d="M 353 3500 
L 3084 3500 
L 3084 2975 
L 922 459 
L 3084 459 
L 3084 0 
L 275 0 
L 275 525 
L 2438 3041 
L 353 3041 
L 353 3500 
z
" transform="scale(0.015625)"/>
     </defs>
     <use xlink:href="#DejaVuSans-45"/>
     <use xlink:href="#DejaVuSans-6e" transform="translate(63.183594 0)"/>
     <use xlink:href="#DejaVuSans-65" transform="translate(126.5625 0)"/>
     <use xlink:href="#DejaVuSans-72" transform="translate(188.085938 0)"/>
     <use xlink:href="#DejaVuSans-67" transform="translate(227.449219 0)"/>
     <use xlink:href="#DejaVuSans-79" transform="translate(290.925781 0)"/>
     <use xlink:href="#DejaVuSans-20" transform="translate(350.105469 0)"/>
     <use xlink:href="#DejaVuSans-44" transform="translate(381.892578 0)"/>
     <use xlink:href="#DejaVuSans-65" transform="translate(458.894531 0)"/>
     <use xlink:href="#DejaVuSans-63" transform="translate(520.417969 0)"/>
     <use xlink:href="#DejaVuSans-61" transform="translate(575.398438 0)"/>
     <use xlink:href="#DejaVuSans-79" transform="translate(636.677734 0)"/>
     <use xlink:href="#DejaVuSans-20" transform="translate(695.857422 0)"/>
     <use xlink:href="#DejaVuSans-2d" transform="translate(727.644531 0)"/>
     <use xlink:href="#DejaVuSans-20" transform="translate(763.728516 0)"/>
     <use xlink:href="#DejaVuSans-38" transform="translate(795.515625 0)"/>
     <use xlink:href="#DejaVuSans-30" transform="translate(859.138672 0)"/>
     <use xlink:href="#DejaVuSans-30" transform="translate(922.761719 0)"/>
     <use xlink:href="#DejaVuSans-30" transform="translate(986.384766 0)"/>
     <use xlink:href="#DejaVuSans-20" transform="translate(1050.007812 0)"/>
     <use xlink:href="#DejaVuSans-48" transform="translate(1081.794922 0)"/>
     <use xlink:href="#DejaVuSans-7a" transform="translate(1156.990234 0)"/>
    </g>
   </g>
   <g id="legend_1">
    <g id="patch_7">
     <path d="M 296.968437 108.1845 
L 407.72 108.1845 
Q 409.72 108.1845 409.72 106.1845 
L 409.72 48.472 
Q 409.72 46.472 407.72 46.472 
L 296.968437 46.472 
Q 294.968437 46.472 294.968437 48.472 
L 294.968437 106.1845 
Q 294.968437 108.1845 296.968437 108.1845 
z
" style="fill: #ffffff; opacity: 0.8; stroke: #cccccc; stroke-linejoin: miter"/>
    </g>
    <g id="line2d_18">
     <path d="M 298.968437 54.570438 
L 308.968437 54.570438 
L 318.968437 54.570438 
" style="fill: none; stroke: #1f77b4; stroke-width: 1.5; stroke-linecap: square"/>
    </g>
    <g id="text_16">
     <!-- Energy -->
     <g transform="translate(326.968437 58.070438) scale(0.1 -0.1)">
      <use xlink:href="#DejaVuSans-45"/>
      <use xlink:href="#DejaVuSans-6e" transform="translate(63.183594 0)"/>
      <use xlink:href="#DejaVuSans-65" transform="translate(126.5625 0)"/>
      <use xlink:href="#DejaVuSans-72" transform="translate(188.085938 0)"/>
      <use xlink:href="#DejaVuSans-67" transform="translate(227.449219 0)"/>
      <use xlink:href="#DejaVuSans-79" transform="translate(290.925781 0)"/>
     </g>
    </g>
    <g id="line2d_19">
     <path d="M 298.968437 69.248563 
L 308.968437 69.248563 
L 318.968437 69.248563 
" style="fill: none; stroke-dasharray: 5.55,2.4; stroke-dashoffset: 0; stroke: #ff7f0e; stroke-width: 1.5"/>
    </g>
    <g id="text_17">
     <!-- Linear Fit -->
     <g transform="translate(326.968437 72.748563) scale(0.1 -0.1)">
      <defs>
       <path id="DejaVuSans-4c" d="M 628 4666 
L 1259 4666 
L 1259 531 
L 3531 531 
L 3531 0 
L 628 0 
L 628 4666 
z
" transform="scale(0.015625)"/>
       <path id="DejaVuSans-69" d="M 603 3500 
L 1178 3500 
L 1178 0 
L 603 0 
L 603 3500 
z
M 603 4863 
L 1178 4863 
L 1178 4134 
L 603 4134 
L 603 4863 
z
" transform="scale(0.015625)"/>
       <path id="DejaVuSans-46" d="M 628 4666 
L 3309 4666 
L 3309 4134 
L 1259 4134 
L 1259 2759 
L 3109 2759 
L 3109 2228 
L 1259 2228 
L 1259 0 
L 628 0 
L 628 4666 
z
" transform="scale(0.015625)"/>
       <path id="DejaVuSans-74" d="M 1172 4494 
L 1172 3500 
L 2356 3500 
L 2356 3053 
L 1172 3053 
L 1172 1153 
Q 1172 725 1289 603 
Q 1406 481 1766 481 
L 2356 481 
L 2356 0 
L 1766 0 
Q 1100 0 847 248 
Q 594 497 594 1153 
L 594 3053 
L 172 3053 
L 172 3500 
L 594 3500 
L 594 4494 
L 1172 4494 
z
" transform="scale(0.015625)"/>
      </defs>
      <use xlink:href="#DejaVuSans-4c"/>
      <use xlink:href="#DejaVuSans-69" transform="translate(55.712891 0)"/>
      <use xlink:href="#DejaVuSans-6e" transform="translate(83.496094 0)"/>
      <use xlink:href="#DejaVuSans-65" transform="translate(146.875 0)"/>
      <use xlink:href="#DejaVuSans-61" transform="translate(208.398438 0)"/>
      <use xlink:href="#DejaVuSans-72" transform="translate(269.677734 0)"/>
      <use xlink:href="#DejaVuSans-20" transform="translate(310.791016 0)"/>
      <use xlink:href="#DejaVuSans-46" transform="translate(342.578125 0)"/>
      <use xlink:href="#DejaVuSans-69" transform="translate(392.847656 0)"/>
      <use xlink:href="#DejaVuSans-74" transform="translate(420.630859 0)"/>
     </g>
    </g>
    <g id="line2d_20">
     <path d="M 298.968437 83.926688 
L 308.968437 83.926688 
L 318.968437 83.926688 
" style="fill: none; stroke-dasharray: 5.55,2.4; stroke-dashoffset: 0; stroke: #2ca02c; stroke-width: 1.5"/>
    </g>
    <g id="text_18">
     <!-- -60 dB -->
     <g transform="translate(326.968437 87.426688) scale(0.1 -0.1)">
      <defs>
       <path id="DejaVuSans-64" d="M 2906 2969 
L 2906 4863 
L 3481 4863 
L 3481 0 
L 2906 0 
L 2906 525 
Q 2725 213 2448 61 
Q 2172 -91 1784 -91 
Q 1150 -91 751 415 
Q 353 922 353 1747 
Q 353 2572 751 3078 
Q 1150 3584 1784 3584 
Q 2172 3584 2448 3432 
Q 2725 3281 2906 2969 
z
M 947 1747 
Q 947 1113 1208 752 
Q 1469 391 1925 391 
Q 2381 391 2643 752 
Q 2906 1113 2906 1747 
Q 2906 2381 2643 2742 
Q 2381 3103 1925 3103 
Q 1469 3103 1208 2742 
Q 947 2381 947 1747 
z
" transform="scale(0.015625)"/>
       <path id="DejaVuSans-42" d="M 1259 2228 
L 1259 519 
L 2272 519 
Q 2781 519 3026 730 
Q 3272 941 3272 1375 
Q 3272 1813 3026 2020 
Q 2781 2228 2272 2228 
L 1259 2228 
z
M 1259 4147 
L 1259 2741 
L 2194 2741 
Q 2656 2741 2882 2914 
Q 3109 3088 3109 3444 
Q 3109 3797 2882 3972 
Q 2656 4147 2194 4147 
L 1259 4147 
z
M 628 4666 
L 2241 4666 
Q 2963 4666 3353 4366 
Q 3744 4066 3744 3513 
Q 3744 3084 3544 2831 
Q 3344 2578 2956 2516 
Q 3422 2416 3680 2098 
Q 3938 1781 3938 1306 
Q 3938 681 3513 340 
Q 3088 0 2303 0 
L 628 0 
L 628 4666 
z
" transform="scale(0.015625)"/>
      </defs>
      <use xlink:href="#DejaVuSans-2d"/>
      <use xlink:href="#DejaVuSans-36" transform="translate(36.083984 0)"/>
      <use xlink:href="#DejaVuSans-30" transform="translate(99.707031 0)"/>
      <use xlink:href="#DejaVuSans-20" transform="translate(163.330078 0)"/>
      <use xlink:href="#DejaVuSans-64" transform="translate(195.117188 0)"/>
      <use xlink:href="#DejaVuSans-42" transform="translate(258.59375 0)"/>
     </g>
    </g>
    <g id="line2d_21">
     <path d="M 298.968437 98.604813 
L 318.968437 98.604813 
" style="fill: none; stroke-dasharray: 5.55,2.4; stroke-dashoffset: 0; stroke: #1f77b4; stroke-width: 1.5"/>
    </g>
    <g id="text_19">
     <!-- Estimated RT60 -->
     <g transform="translate(326.968437 102.104813) scale(0.1 -0.1)">
      <defs>
       <path id="DejaVuSans-73" d="M 2834 3397 
L 2834 2853 
Q 2591 2978 2328 3040 
Q 2066 3103 1784 3103 
Q 1356 3103 1142 2972 
Q 928 2841 928 2578 
Q 928 2378 1081 2264 
Q 1234 2150 1697 2047 
L 1894 2003 
Q 2506 1872 2764 1633 
Q 3022 1394 3022 966 
Q 3022 478 2636 193 
Q 2250 -91 1575 -91 
Q 1294 -91 989 -36 
Q 684 19 347 128 
L 347 722 
Q 666 556 975 473 
Q 1284 391 1588 391 
Q 1994 391 2212 530 
Q 2431 669 2431 922 
Q 2431 1156 2273 1281 
Q 2116 1406 1581 1522 
L 1381 1569 
Q 847 1681 609 1914 
Q 372 2147 372 2553 
Q 372 3047 722 3315 
Q 1072 3584 1716 3584 
Q 2034 3584 2315 3537 
Q 2597 3491 2834 3397 
z
" transform="scale(0.015625)"/>
       <path id="DejaVuSans-6d" d="M 3328 2828 
Q 3544 3216 3844 3400 
Q 4144 3584 4550 3584 
Q 5097 3584 5394 3201 
Q 5691 2819 5691 2113 
L 5691 0 
L 5113 0 
L 5113 2094 
Q 5113 2597 4934 2840 
Q 4756 3084 4391 3084 
Q 3944 3084 3684 2787 
Q 3425 2491 3425 1978 
L 3425 0 
L 2847 0 
L 2847 2094 
Q 2847 2600 2669 2842 
Q 2491 3084 2119 3084 
Q 1678 3084 1418 2786 
Q 1159 2488 1159 1978 
L 1159 0 
L 581 0 
L 581 3500 
L 1159 3500 
L 1159 2956 
Q 1356 3278 1631 3431 
Q 1906 3584 2284 3584 
Q 2666 3584 2933 3390 
Q 3200 3197 3328 2828 
z
" transform="scale(0.015625)"/>
       <path id="DejaVuSans-52" d="M 2841 2188 
Q 3044 2119 3236 1894 
Q 3428 1669 3622 1275 
L 4263 0 
L 3584 0 
L 2988 1197 
Q 2756 1666 2539 1819 
Q 2322 1972 1947 1972 
L 1259 1972 
L 1259 0 
L 628 0 
L 628 4666 
L 2053 4666 
Q 2853 4666 3247 4331 
Q 3641 3997 3641 3322 
Q 3641 2881 3436 2590 
Q 3231 2300 2841 2188 
z
M 1259 4147 
L 1259 2491 
L 2053 2491 
Q 2509 2491 2742 2702 
Q 2975 2913 2975 3322 
Q 2975 3731 2742 3939 
Q 2509 4147 2053 4147 
L 1259 4147 
z
" transform="scale(0.015625)"/>
       <path id="DejaVuSans-54" d="M -19 4666 
L 3928 4666 
L 3928 4134 
L 2272 4134 
L 2272 0 
L 1638 0 
L 1638 4134 
L -19 4134 
L -19 4666 
z
" transform="scale(0.015625)"/>
      </defs>
      <use xlink:href="#DejaVuSans-45"/>
      <use xlink:href="#DejaVuSans-73" transform="translate(63.183594 0)"/>
      <use xlink:href="#DejaVuSans-74" transform="translate(115.283203 0)"/>
      <use xlink:href="#DejaVuSans-69" transform="translate(154.492188 0)"/>
      <use xlink:href="#DejaVuSans-6d" transform="translate(182.275391 0)"/>
      <use xlink:href="#DejaVuSans-61" transform="translate(279.6875 0)"/>
      <use xlink:href="#DejaVuSans-74" transform="translate(340.966797 0)"/>
      <use xlink:href="#DejaVuSans-65" transform="translate(380.175781 0)"/>
      <use xlink:href="#DejaVuSans-64" transform="translate(441.699219 0)"/>
      <use xlink:href="#DejaVuSans-20" transform="translate(505.175781 0)"/>
      <use xlink:href="#DejaVuSans-52" transform="translate(536.962891 0)"/>
      <use xlink:href="#DejaVuSans-54" transform="translate(599.195312 0)"/>
      <use xlink:href="#DejaVuSans-36" transform="translate(660.279297 0)"/>
      <use xlink:href="#DejaVuSans-30" transform="translate(723.902344 0)"/>
     </g>
    </g>
   </g>
  </g>
 </g>
 <defs>
  <clipPath id="p3d52efd312">
   <rect x="57.6" y="41.472" width="357.12" height="266.112"/>
  </clipPath>
 </defs>
</svg>
