<?xml version="1.0" encoding="utf-8" standalone="no"?>
<!DOCTYPE svg PUBLIC "-//W3C//DTD SVG 1.1//EN"
  "http://www.w3.org/Graphics/SVG/1.1/DTD/svg11.dtd">
<svg xmlns:xlink="http://www.w3.org/1999/xlink" width="460.8pt" height="345.6pt" viewBox="0 0 460.8 345.6" xmlns="http://www.w3.org/2000/svg" version="1.1">
 <metadata>
  <rdf:RDF xmlns:dc="http://purl.org/dc/elements/1.1/" xmlns:cc="http://creativecommons.org/ns#" xmlns:rdf="http://www.w3.org/1999/02/22-rdf-syntax-ns#">
   <cc:Work>
    <dc:type rdf:resource="http://purl.org/dc/dcmitype/StillImage"/>
    <dc:date>2025-05-06T13:31:32.923873</dc:date>
    <dc:format>image/svg+xml</dc:format>
    <dc:creator>
     <cc:Agent>
      <dc:title>Matplotlib v3.10.1, https://matplotlib.org/</dc:title>
     </cc:Agent>
    </dc:creator>
   </cc:Work>
  </rdf:RDF>
 </metadata>
 <defs>
  <style type="text/css">*{stroke-linejoin: round; stroke-linecap: butt}</style>
 </defs>
 <g id="figure_1">
  <g id="patch_1">
   <path d="M 0 345.6 
L 460.8 345.6 
L 460.8 0 
L 0 0 
z
" style="fill: #ffffff"/>
  </g>
  <g id="axes_1">
   <g id="patch_2">
    <path d="M 57.6 307.584 
L 414.72 307.584 
L 414.72 41.472 
L 57.6 41.472 
z
" style="fill: #ffffff"/>
   </g>
   <g id="matplotlib.axis_1">
    <g id="xtick_1">
     <g id="line2d_1">
      <defs>
       <path id="m7a8e66ff99" d="M 0 0 
L 0 3.5 
" style="stroke: #000000; stroke-width: 0.8"/>
      </defs>
      <g>
       <use xlink:href="#m7a8e66ff99" x="64.025455" y="307.584" style="stroke: #000000; stroke-width: 0.8"/>
      </g>
     </g>
     <g id="text_1">
      <!-- −0.2 -->
      <g transform="translate(51.884048 322.182437) scale(0.1 -0.1)">
       <defs>
        <path id="DejaVuSans-2212" d="M 678 2272 
L 4684 2272 
L 4684 1741 
L 678 1741 
L 678 2272 
z
" transform="scale(0.015625)"/>
        <path id="DejaVuSans-30" d="M 2034 4250 
Q 1547 4250 1301 3770 
Q 1056 3291 1056 2328 
Q 1056 1369 1301 889 
Q 1547 409 2034 409 
Q 2525 409 2770 889 
Q 3016 1369 3016 2328 
Q 3016 3291 2770 3770 
Q 2525 4250 2034 4250 
z
M 2034 4750 
Q 2819 4750 3233 4129 
Q 3647 3509 3647 2328 
Q 3647 1150 3233 529 
Q 2819 -91 2034 -91 
Q 1250 -91 836 529 
Q 422 1150 422 2328 
Q 422 3509 836 4129 
Q 1250 4750 2034 4750 
z
" transform="scale(0.015625)"/>
        <path id="DejaVuSans-2e" d="M 684 794 
L 1344 794 
L 1344 0 
L 684 0 
L 684 794 
z
" transform="scale(0.015625)"/>
        <path id="DejaVuSans-32" d="M 1228 531 
L 3431 531 
L 3431 0 
L 469 0 
L 469 531 
Q 828 903 1448 1529 
Q 2069 2156 2228 2338 
Q 2531 2678 2651 2914 
Q 2772 3150 2772 3378 
Q 2772 3750 2511 3984 
Q 2250 4219 1831 4219 
Q 1534 4219 1204 4116 
Q 875 4013 500 3803 
L 500 4441 
Q 881 4594 1212 4672 
Q 1544 4750 1819 4750 
Q 2544 4750 2975 4387 
Q 3406 4025 3406 3419 
Q 3406 3131 3298 2873 
Q 3191 2616 2906 2266 
Q 2828 2175 2409 1742 
Q 1991 1309 1228 531 
z
" transform="scale(0.015625)"/>
       </defs>
       <use xlink:href="#DejaVuSans-2212"/>
       <use xlink:href="#DejaVuSans-30" transform="translate(83.789062 0)"/>
       <use xlink:href="#DejaVuSans-2e" transform="translate(147.412109 0)"/>
       <use xlink:href="#DejaVuSans-32" transform="translate(179.199219 0)"/>
      </g>
     </g>
    </g>
    <g id="xtick_2">
     <g id="line2d_2">
      <g>
       <use xlink:href="#m7a8e66ff99" x="118.134545" y="307.584" style="stroke: #000000; stroke-width: 0.8"/>
      </g>
     </g>
     <g id="text_2">
      <!-- −0.1 -->
      <g transform="translate(105.993139 322.182437) scale(0.1 -0.1)">
       <defs>
        <path id="DejaVuSans-31" d="M 794 531 
L 1825 531 
L 1825 4091 
L 703 3866 
L 703 4441 
L 1819 4666 
L 2450 4666 
L 2450 531 
L 3481 531 
L 3481 0 
L 794 0 
L 794 531 
z
" transform="scale(0.015625)"/>
       </defs>
       <use xlink:href="#DejaVuSans-2212"/>
       <use xlink:href="#DejaVuSans-30" transform="translate(83.789062 0)"/>
       <use xlink:href="#DejaVuSans-2e" transform="translate(147.412109 0)"/>
       <use xlink:href="#DejaVuSans-31" transform="translate(179.199219 0)"/>
      </g>
     </g>
    </g>
    <g id="xtick_3">
     <g id="line2d_3">
      <g>
       <use xlink:href="#m7a8e66ff99" x="172.243636" y="307.584" style="stroke: #000000; stroke-width: 0.8"/>
      </g>
     </g>
     <g id="text_3">
      <!-- 0.0 -->
      <g transform="translate(164.292074 322.182437) scale(0.1 -0.1)">
       <use xlink:href="#DejaVuSans-30"/>
       <use xlink:href="#DejaVuSans-2e" transform="translate(63.623047 0)"/>
       <use xlink:href="#DejaVuSans-30" transform="translate(95.410156 0)"/>
      </g>
     </g>
    </g>
    <g id="xtick_4">
     <g id="line2d_4">
      <g>
       <use xlink:href="#m7a8e66ff99" x="226.352727" y="307.584" style="stroke: #000000; stroke-width: 0.8"/>
      </g>
     </g>
     <g id="text_4">
      <!-- 0.1 -->
      <g transform="translate(218.401165 322.182437) scale(0.1 -0.1)">
       <use xlink:href="#DejaVuSans-30"/>
       <use xlink:href="#DejaVuSans-2e" transform="translate(63.623047 0)"/>
       <use xlink:href="#DejaVuSans-31" transform="translate(95.410156 0)"/>
      </g>
     </g>
    </g>
    <g id="xtick_5">
     <g id="line2d_5">
      <g>
       <use xlink:href="#m7a8e66ff99" x="280.461818" y="307.584" style="stroke: #000000; stroke-width: 0.8"/>
      </g>
     </g>
     <g id="text_5">
      <!-- 0.2 -->
      <g transform="translate(272.510256 322.182437) scale(0.1 -0.1)">
       <use xlink:href="#DejaVuSans-30"/>
       <use xlink:href="#DejaVuSans-2e" transform="translate(63.623047 0)"/>
       <use xlink:href="#DejaVuSans-32" transform="translate(95.410156 0)"/>
      </g>
     </g>
    </g>
    <g id="xtick_6">
     <g id="line2d_6">
      <g>
       <use xlink:href="#m7a8e66ff99" x="334.570909" y="307.584" style="stroke: #000000; stroke-width: 0.8"/>
      </g>
     </g>
     <g id="text_6">
      <!-- 0.3 -->
      <g transform="translate(326.619347 322.182437) scale(0.1 -0.1)">
       <defs>
        <path id="DejaVuSans-33" d="M 2597 2516 
Q 3050 2419 3304 2112 
Q 3559 1806 3559 1356 
Q 3559 666 3084 287 
Q 2609 -91 1734 -91 
Q 1441 -91 1130 -33 
Q 819 25 488 141 
L 488 750 
Q 750 597 1062 519 
Q 1375 441 1716 441 
Q 2309 441 2620 675 
Q 2931 909 2931 1356 
Q 2931 1769 2642 2001 
Q 2353 2234 1838 2234 
L 1294 2234 
L 1294 2753 
L 1863 2753 
Q 2328 2753 2575 2939 
Q 2822 3125 2822 3475 
Q 2822 3834 2567 4026 
Q 2313 4219 1838 4219 
Q 1578 4219 1281 4162 
Q 984 4106 628 3988 
L 628 4550 
Q 988 4650 1302 4700 
Q 1616 4750 1894 4750 
Q 2613 4750 3031 4423 
Q 3450 4097 3450 3541 
Q 3450 3153 3228 2886 
Q 3006 2619 2597 2516 
z
" transform="scale(0.015625)"/>
       </defs>
       <use xlink:href="#DejaVuSans-30"/>
       <use xlink:href="#DejaVuSans-2e" transform="translate(63.623047 0)"/>
       <use xlink:href="#DejaVuSans-33" transform="translate(95.410156 0)"/>
      </g>
     </g>
    </g>
    <g id="xtick_7">
     <g id="line2d_7">
      <g>
       <use xlink:href="#m7a8e66ff99" x="388.68" y="307.584" style="stroke: #000000; stroke-width: 0.8"/>
      </g>
     </g>
     <g id="text_7">
      <!-- 0.4 -->
      <g transform="translate(380.728438 322.182437) scale(0.1 -0.1)">
       <defs>
        <path id="DejaVuSans-34" d="M 2419 4116 
L 825 1625 
L 2419 1625 
L 2419 4116 
z
M 2253 4666 
L 3047 4666 
L 3047 1625 
L 3713 1625 
L 3713 1100 
L 3047 1100 
L 3047 0 
L 2419 0 
L 2419 1100 
L 313 1100 
L 313 1709 
L 2253 4666 
z
" transform="scale(0.015625)"/>
       </defs>
       <use xlink:href="#DejaVuSans-30"/>
       <use xlink:href="#DejaVuSans-2e" transform="translate(63.623047 0)"/>
       <use xlink:href="#DejaVuSans-34" transform="translate(95.410156 0)"/>
      </g>
     </g>
    </g>
   </g>
   <g id="matplotlib.axis_2">
    <g id="ytick_1">
     <g id="line2d_8">
      <defs>
       <path id="m4b3ad21c1a" d="M 0 0 
L -3.5 0 
" style="stroke: #000000; stroke-width: 0.8"/>
      </defs>
      <g>
       <use xlink:href="#m4b3ad21c1a" x="57.6" y="292.282774" style="stroke: #000000; stroke-width: 0.8"/>
      </g>
     </g>
     <g id="text_8">
      <!-- −200 -->
      <g transform="translate(23.132812 296.081993) scale(0.1 -0.1)">
       <use xlink:href="#DejaVuSans-2212"/>
       <use xlink:href="#DejaVuSans-32" transform="translate(83.789062 0)"/>
       <use xlink:href="#DejaVuSans-30" transform="translate(147.412109 0)"/>
       <use xlink:href="#DejaVuSans-30" transform="translate(211.035156 0)"/>
      </g>
     </g>
    </g>
    <g id="ytick_2">
     <g id="line2d_9">
      <g>
       <use xlink:href="#m4b3ad21c1a" x="57.6" y="262.443428" style="stroke: #000000; stroke-width: 0.8"/>
      </g>
     </g>
     <g id="text_9">
      <!-- −175 -->
      <g transform="translate(23.132812 266.242646) scale(0.1 -0.1)">
       <defs>
        <path id="DejaVuSans-37" d="M 525 4666 
L 3525 4666 
L 3525 4397 
L 1831 0 
L 1172 0 
L 2766 4134 
L 525 4134 
L 525 4666 
z
" transform="scale(0.015625)"/>
        <path id="DejaVuSans-35" d="M 691 4666 
L 3169 4666 
L 3169 4134 
L 1269 4134 
L 1269 2991 
Q 1406 3038 1543 3061 
Q 1681 3084 1819 3084 
Q 2600 3084 3056 2656 
Q 3513 2228 3513 1497 
Q 3513 744 3044 326 
Q 2575 -91 1722 -91 
Q 1428 -91 1123 -41 
Q 819 9 494 109 
L 494 744 
Q 775 591 1075 516 
Q 1375 441 1709 441 
Q 2250 441 2565 725 
Q 2881 1009 2881 1497 
Q 2881 1984 2565 2268 
Q 2250 2553 1709 2553 
Q 1456 2553 1204 2497 
Q 953 2441 691 2322 
L 691 4666 
z
" transform="scale(0.015625)"/>
       </defs>
       <use xlink:href="#DejaVuSans-2212"/>
       <use xlink:href="#DejaVuSans-31" transform="translate(83.789062 0)"/>
       <use xlink:href="#DejaVuSans-37" transform="translate(147.412109 0)"/>
       <use xlink:href="#DejaVuSans-35" transform="translate(211.035156 0)"/>
      </g>
     </g>
    </g>
    <g id="ytick_3">
     <g id="line2d_10">
      <g>
       <use xlink:href="#m4b3ad21c1a" x="57.6" y="232.604081" style="stroke: #000000; stroke-width: 0.8"/>
      </g>
     </g>
     <g id="text_10">
      <!-- −150 -->
      <g transform="translate(23.132812 236.403299) scale(0.1 -0.1)">
       <use xlink:href="#DejaVuSans-2212"/>
       <use xlink:href="#DejaVuSans-31" transform="translate(83.789062 0)"/>
       <use xlink:href="#DejaVuSans-35" transform="translate(147.412109 0)"/>
       <use xlink:href="#DejaVuSans-30" transform="translate(211.035156 0)"/>
      </g>
     </g>
    </g>
    <g id="ytick_4">
     <g id="line2d_11">
      <g>
       <use xlink:href="#m4b3ad21c1a" x="57.6" y="202.764734" style="stroke: #000000; stroke-width: 0.8"/>
      </g>
     </g>
     <g id="text_11">
      <!-- −125 -->
      <g transform="translate(23.132812 206.563953) scale(0.1 -0.1)">
       <use xlink:href="#DejaVuSans-2212"/>
       <use xlink:href="#DejaVuSans-31" transform="translate(83.789062 0)"/>
       <use xlink:href="#DejaVuSans-32" transform="translate(147.412109 0)"/>
       <use xlink:href="#DejaVuSans-35" transform="translate(211.035156 0)"/>
      </g>
     </g>
    </g>
    <g id="ytick_5">
     <g id="line2d_12">
      <g>
       <use xlink:href="#m4b3ad21c1a" x="57.6" y="172.925387" style="stroke: #000000; stroke-width: 0.8"/>
      </g>
     </g>
     <g id="text_12">
      <!-- −100 -->
      <g transform="translate(23.132812 176.724606) scale(0.1 -0.1)">
       <use xlink:href="#DejaVuSans-2212"/>
       <use xlink:href="#DejaVuSans-31" transform="translate(83.789062 0)"/>
       <use xlink:href="#DejaVuSans-30" transform="translate(147.412109 0)"/>
       <use xlink:href="#DejaVuSans-30" transform="translate(211.035156 0)"/>
      </g>
     </g>
    </g>
    <g id="ytick_6">
     <g id="line2d_13">
      <g>
       <use xlink:href="#m4b3ad21c1a" x="57.6" y="143.08604" style="stroke: #000000; stroke-width: 0.8"/>
      </g>
     </g>
     <g id="text_13">
      <!-- −75 -->
      <g transform="translate(29.495313 146.885259) scale(0.1 -0.1)">
       <use xlink:href="#DejaVuSans-2212"/>
       <use xlink:href="#DejaVuSans-37" transform="translate(83.789062 0)"/>
       <use xlink:href="#DejaVuSans-35" transform="translate(147.412109 0)"/>
      </g>
     </g>
    </g>
    <g id="ytick_7">
     <g id="line2d_14">
      <g>
       <use xlink:href="#m4b3ad21c1a" x="57.6" y="113.246694" style="stroke: #000000; stroke-width: 0.8"/>
      </g>
     </g>
     <g id="text_14">
      <!-- −50 -->
      <g transform="translate(29.495313 117.045912) scale(0.1 -0.1)">
       <use xlink:href="#DejaVuSans-2212"/>
       <use xlink:href="#DejaVuSans-35" transform="translate(83.789062 0)"/>
       <use xlink:href="#DejaVuSans-30" transform="translate(147.412109 0)"/>
      </g>
     </g>
    </g>
    <g id="ytick_8">
     <g id="line2d_15">
      <g>
       <use xlink:href="#m4b3ad21c1a" x="57.6" y="83.407347" style="stroke: #000000; stroke-width: 0.8"/>
      </g>
     </g>
     <g id="text_15">
      <!-- −25 -->
      <g transform="translate(29.495313 87.206566) scale(0.1 -0.1)">
       <use xlink:href="#DejaVuSans-2212"/>
       <use xlink:href="#DejaVuSans-32" transform="translate(83.789062 0)"/>
       <use xlink:href="#DejaVuSans-35" transform="translate(147.412109 0)"/>
      </g>
     </g>
    </g>
    <g id="ytick_9">
     <g id="line2d_16">
      <g>
       <use xlink:href="#m4b3ad21c1a" x="57.6" y="53.568" style="stroke: #000000; stroke-width: 0.8"/>
      </g>
     </g>
     <g id="text_16">
      <!-- 0 -->
      <g transform="translate(44.2375 57.367219) scale(0.1 -0.1)">
       <use xlink:href="#DejaVuSans-30"/>
      </g>
     </g>
    </g>
   </g>
   <g id="line2d_17">
    <path d="M 73.832727 53.568 
L 162.774545 53.586625 
L 162.932364 54.248782 
L 163.191636 54.749017 
L 163.259273 54.852223 
L 163.394545 54.911391 
L 164.364 55.198498 
L 164.454182 55.564658 
L 164.589455 55.806131 
L 164.702182 55.913282 
L 164.871273 56.004323 
L 165.367273 56.187668 
L 165.649091 56.228339 
L 166.122545 56.326672 
L 166.404364 56.588181 
L 166.607273 56.696708 
L 166.742545 56.763381 
L 166.934182 56.895999 
L 167.204727 57.112565 
L 168.005091 57.437948 
L 168.162909 57.863909 
L 168.467273 58.021712 
L 168.636364 58.121602 
L 169.188727 58.234823 
L 169.391636 58.376042 
L 169.718545 58.645852 
L 170.259636 58.792261 
L 170.530182 58.931868 
L 170.823273 59.043599 
L 171.003636 59.247978 
L 171.432 59.369673 
L 172.311273 59.630336 
L 172.446545 59.72566 
L 172.998909 60.055086 
L 173.280727 60.435795 
L 173.844364 60.844698 
L 174.250182 60.954947 
L 174.802545 61.191422 
L 174.937818 61.306667 
L 175.805818 61.701934 
L 176.144 61.813096 
L 177.169818 62.161722 
L 177.440364 62.618761 
L 178.398545 62.929056 
L 178.567636 63.047831 
L 178.691636 63.157389 
L 178.860727 63.24353 
L 179.086182 63.359545 
L 179.232727 63.475788 
L 179.525818 63.597562 
L 180.450182 64.141559 
L 181.487273 64.465849 
L 181.633818 64.527723 
L 181.881818 64.649226 
L 182.163636 64.786996 
L 183.155636 65.154692 
L 183.336 65.307008 
L 183.719273 65.45455 
L 184.970545 65.86982 
L 185.184727 66.022289 
L 185.387636 66.196821 
L 185.782182 66.546578 
L 186.018909 66.720191 
L 186.154182 66.880599 
L 186.571273 67.168214 
L 186.875636 67.336729 
L 187.033455 67.440222 
L 187.349091 67.660057 
L 187.461818 67.774141 
L 187.676 67.861094 
L 187.788727 67.955209 
L 187.924 68.024945 
L 188.250909 68.132853 
L 188.431273 68.196825 
L 189.051273 68.308596 
L 189.738909 68.643328 
L 190.234909 68.754459 
L 191.181818 69.089748 
L 191.317091 69.146176 
L 192.376727 69.542347 
L 192.579636 69.614713 
L 192.940364 69.771861 
L 193.346182 69.91131 
L 193.661818 70.183757 
L 193.774545 70.307129 
L 194.202909 70.594277 
L 195.070909 70.954547 
L 195.364 71.08428 
L 195.961455 71.500354 
L 196.852 71.925723 
L 197.111273 71.987782 
L 197.257818 72.084371 
L 197.393091 72.205547 
L 197.821455 72.449281 
L 198.170909 72.659994 
L 198.790909 72.780376 
L 199.061455 72.845117 
L 199.264364 72.958275 
L 199.873091 73.32444 
L 200.267636 73.461539 
L 200.538182 73.609831 
L 200.989091 73.747158 
L 201.631636 74.014943 
L 201.992364 74.123901 
L 202.330545 74.318168 
L 202.601091 74.466669 
L 202.860364 74.660956 
L 203.006909 74.740751 
L 203.525455 74.913644 
L 203.683273 75.044114 
L 203.874909 75.252655 
L 204.055273 75.379164 
L 204.224364 75.476007 
L 204.416 75.631375 
L 204.618909 75.773522 
L 206.918545 76.983488 
L 207.200364 77.094352 
L 207.561091 77.257859 
L 207.775273 77.34529 
L 207.944364 77.450624 
L 208.338909 77.611992 
L 208.530545 77.778905 
L 208.699636 77.896543 
L 208.970182 78.110585 
L 209.206909 78.237481 
L 209.387273 78.340489 
L 209.612727 78.439173 
L 209.826909 78.631348 
L 210.582182 78.768027 
L 211.044364 78.962519 
L 211.303636 79.155593 
L 211.788364 79.268897 
L 212.036364 79.345069 
L 212.442182 79.4496 
L 212.769091 79.558105 
L 214.505091 80.125205 
L 214.775636 80.325548 
L 214.922182 80.475775 
L 215.249091 80.712061 
L 215.429455 80.91325 
L 216.996364 81.863822 
L 217.627636 82.020122 
L 218.225091 82.242673 
L 218.676 82.41459 
L 222.114182 83.96172 
L 222.722909 84.120706 
L 222.880727 84.190898 
L 223.173818 84.295587 
L 223.365455 84.414189 
L 223.545818 84.543002 
L 223.714909 84.586335 
L 223.895273 84.681948 
L 224.053091 84.782833 
L 224.267273 84.889923 
L 224.413818 84.966149 
L 224.966182 85.357196 
L 225.124 85.487872 
L 225.541091 85.743708 
L 226.070909 85.934554 
L 226.916364 86.284124 
L 227.141818 86.395901 
L 229.790909 87.982504 
L 229.96 88.024346 
L 230.613818 88.167804 
L 230.760364 88.223311 
L 231.425455 88.481068 
L 231.583273 88.555078 
L 232.180727 88.668277 
L 232.451273 88.717058 
L 233.116364 88.9555 
L 233.375636 89.159453 
L 233.499636 89.253806 
L 233.68 89.342689 
L 234.356364 89.697482 
L 234.965091 89.88256 
L 235.246909 89.98605 
L 235.461091 90.069541 
L 235.979636 90.183396 
L 236.385455 90.356755 
L 236.734909 90.509928 
L 237.208364 90.732843 
L 237.366182 90.812965 
L 237.726909 90.945057 
L 237.884727 90.989109 
L 238.290545 91.124017 
L 238.583636 91.262551 
L 238.718909 91.306627 
L 239.744727 91.712408 
L 239.925091 91.782489 
L 240.5 91.968512 
L 240.669091 92.030004 
L 242.247273 92.348972 
L 242.98 92.718999 
L 243.566182 92.810134 
L 243.678909 92.914259 
L 243.836727 92.956393 
L 244.186182 93.063437 
L 244.422909 93.167223 
L 244.614545 93.24406 
L 245.617818 93.550326 
L 245.888364 93.656366 
L 246.406909 93.767886 
L 246.778909 93.937353 
L 247.703273 94.238863 
L 248.018909 94.407771 
L 249.168727 94.907937 
L 249.337818 94.979332 
L 249.642182 95.077665 
L 250.025455 95.373763 
L 251.107636 95.942864 
L 251.964364 96.122599 
L 252.144727 96.247984 
L 253.463636 96.685878 
L 253.689091 96.875721 
L 255.819636 97.657624 
L 256.225455 97.903906 
L 256.631273 98.030614 
L 257.352727 98.382835 
L 257.826182 98.505094 
L 258.356 98.718202 
L 258.649091 98.877069 
L 258.840727 99.010574 
L 259.224 99.191848 
L 259.370545 99.258469 
L 260.046909 99.454859 
L 260.351273 99.552882 
L 261.196727 99.692507 
L 262.233818 99.945105 
L 262.572 100.082497 
L 262.944 100.196722 
L 264.770182 100.741426 
L 264.950545 100.759305 
L 265.164727 100.88042 
L 265.311273 100.933433 
L 265.773455 101.080699 
L 265.908727 101.190565 
L 266.190545 101.282477 
L 266.325818 101.357502 
L 266.483636 101.471613 
L 266.641455 101.544242 
L 266.855636 101.586389 
L 267.408 101.703742 
L 267.836364 101.795309 
L 268.332364 101.928277 
L 268.625455 102.114872 
L 269.527273 102.256522 
L 270.665818 102.504597 
L 270.834909 102.614558 
L 271.004 102.823931 
L 271.150545 102.93682 
L 271.421091 103.071913 
L 271.759273 103.389304 
L 272.480727 103.499745 
L 274.194182 104.18027 
L 274.363273 104.29776 
L 274.611273 104.382553 
L 275.208727 104.551093 
L 276.629091 105.003998 
L 276.798182 105.095146 
L 276.888364 105.236439 
L 277.102545 105.311687 
L 277.553455 105.439267 
L 277.778909 105.51002 
L 278.060727 105.631318 
L 278.252364 105.841673 
L 278.466545 105.920947 
L 279.368364 106.178155 
L 279.582545 106.255824 
L 280.371636 106.446958 
L 281.250909 106.738131 
L 281.668 106.872432 
L 281.882182 106.944681 
L 282.141455 107.048407 
L 282.671273 107.333353 
L 282.874182 107.451466 
L 283.032 107.6501 
L 283.415273 107.725457 
L 284.418545 108.079262 
L 284.565091 108.125855 
L 285.579636 108.289902 
L 286.233455 108.46307 
L 288.386545 109.22295 
L 289.017818 109.328276 
L 289.299636 109.409024 
L 290.066182 109.536372 
L 290.235273 109.577445 
L 291.080727 109.759416 
L 291.96 110.031178 
L 292.670182 110.143 
L 292.940727 110.21974 
L 293.989091 110.363347 
L 294.361091 110.52124 
L 294.507636 110.567085 
L 295.06 110.681829 
L 295.240364 110.782829 
L 296.593091 111.070045 
L 296.750909 111.265262 
L 296.897455 111.402736 
L 297.472364 111.577755 
L 297.664 111.610506 
L 298.317818 111.730178 
L 298.712364 111.823166 
L 299.163273 111.964412 
L 300.888 112.531341 
L 301.113455 112.607772 
L 301.237455 112.741241 
L 301.564364 112.840552 
L 301.891273 112.966123 
L 302.060364 113.033457 
L 302.669091 113.140469 
L 302.905818 113.285541 
L 303.379273 113.394398 
L 304.957455 114.012243 
L 305.430909 114.123708 
L 306.997818 114.609221 
L 307.155636 114.657965 
L 309.331273 115.175292 
L 309.477818 115.234953 
L 309.737091 115.40364 
L 311.010909 115.634724 
L 311.608364 115.760967 
L 313.434545 116.35913 
L 314.392727 116.539473 
L 314.595636 116.65573 
L 317.718182 117.218322 
L 318.011273 117.275161 
L 318.698909 117.432798 
L 318.879273 117.488057 
L 320.829455 117.812598 
L 321.708727 117.974461 
L 322.058182 118.082832 
L 322.475273 118.193374 
L 330.095636 120.265833 
L 330.287273 120.425528 
L 330.557818 120.508475 
L 331.268 120.629602 
L 335.292364 121.547802 
L 335.438909 121.624724 
L 335.957455 121.843971 
L 336.904364 122.082379 
L 337.253818 122.197496 
L 337.749818 122.290099 
L 338.302182 122.436998 
L 338.899636 122.618864 
L 339.993091 122.881775 
L 341.458545 123.501774 
L 341.785455 123.613379 
L 341.965818 123.665981 
L 342.563273 123.777559 
L 342.8 124.074541 
L 343.239636 124.198954 
L 343.746909 124.381164 
L 345.009455 124.929377 
L 345.516727 125.180377 
L 345.967636 125.317649 
L 346.102909 125.369147 
L 346.598909 125.488105 
L 346.869455 125.552136 
L 347.252727 125.659384 
L 347.534545 125.769855 
L 347.962909 125.930683 
L 348.256 126.012556 
L 348.650545 126.122993 
L 349.529818 126.377346 
L 349.676364 126.472169 
L 350.093455 126.57246 
L 350.330182 126.679879 
L 350.600727 126.931826 
L 351.029091 127.063913 
L 351.186909 127.141587 
L 351.434909 127.277333 
L 352.235273 127.605762 
L 352.742545 127.770192 
L 353.024364 127.922669 
L 353.182182 128.014124 
L 353.678182 128.255035 
L 354.715273 128.762709 
L 355.076 128.861592 
L 355.233818 128.930503 
L 355.425455 129.042684 
L 356.721818 129.683427 
L 356.845818 129.783308 
L 358.908727 130.739876 
L 359.179273 130.826137 
L 359.337091 130.915859 
L 359.506182 131.046298 
L 359.968364 131.30584 
L 360.036 131.427478 
L 360.385455 131.752943 
L 360.904 132.040339 
L 361.039273 132.190683 
L 361.276 132.304077 
L 361.456364 132.440535 
L 362.842909 133.623422 
L 363.034545 133.772721 
L 363.102182 133.876927 
L 363.26 133.976728 
L 363.564364 134.078195 
L 363.789818 134.175444 
L 363.913818 134.263323 
L 364.094182 134.457567 
L 364.195636 134.540651 
L 364.353455 134.695303 
L 364.567636 134.811854 
L 364.714182 134.973999 
L 364.917091 135.100105 
L 365.108727 135.260078 
L 365.300364 135.415115 
L 365.458182 135.569659 
L 365.661091 135.683376 
L 366.089455 135.950189 
L 366.292364 136.04992 
L 366.946182 136.86442 
L 367.205455 136.971842 
L 367.543636 137.239047 
L 367.848 137.466032 
L 368.005818 137.700975 
L 368.806182 138.200142 
L 368.918909 138.303993 
L 369.121818 138.612566 
L 370.587273 139.7084 
L 371.015636 140.08384 
L 371.207273 140.241854 
L 371.398909 140.389736 
L 371.534182 140.528062 
L 371.646909 140.635022 
L 371.985091 141.089937 
L 372.120364 141.187683 
L 372.390909 141.484366 
L 372.492364 141.577006 
L 372.729091 141.897583 
L 372.909455 141.935728 
L 373.033455 142.109131 
L 373.258909 142.214655 
L 374.318545 143.073328 
L 374.431273 143.184573 
L 375.028727 143.905451 
L 375.197818 144.014744 
L 375.716364 144.560977 
L 377.711636 146.568892 
L 377.869455 146.807133 
L 378.049818 146.878414 
L 378.218909 147.359146 
L 378.365455 147.451231 
L 378.523273 147.640994 
L 378.590909 147.778266 
L 378.748727 147.966567 
L 378.974182 148.173197 
L 379.571636 148.739916 
L 379.797091 149.037168 
L 379.898545 149.185559 
L 380.056364 149.4925 
L 380.236727 149.567594 
L 380.428364 149.894483 
L 380.665091 150.098845 
L 380.811636 150.190047 
L 380.958182 150.307734 
L 381.116 150.438796 
L 381.228727 150.561067 
L 381.296364 150.762061 
L 381.476727 151.093776 
L 381.702182 151.389314 
L 382.277091 152.124671 
L 382.367273 152.221758 
L 382.547636 152.516389 
L 382.773091 152.70375 
L 382.930909 152.840613 
L 382.976 152.945876 
L 383.866545 154.711462 
L 383.922909 154.817234 
L 384.125818 155.313077 
L 384.306182 155.48123 
L 384.362545 155.580242 
L 384.520364 155.985377 
L 384.633091 156.106613 
L 384.813455 156.82041 
L 384.903636 156.895496 
L 385.050182 157.10462 
L 385.298182 157.317712 
L 385.444727 158.016426 
L 385.715273 158.383198 
L 385.850545 158.707212 
L 386.121091 159.454704 
L 386.335273 160.22151 
L 386.357818 160.34321 
L 387.237091 162.840161 
L 387.338545 162.951681 
L 387.473818 163.271114 
L 387.552727 163.363957 
L 387.766909 163.874097 
L 387.834545 163.953068 
L 388.071273 164.621953 
L 388.184 164.733862 
L 388.668727 165.678925 
L 388.826545 166.384431 
L 388.984364 166.810383 
L 389.480364 168.078327 
L 389.672 168.550328 
L 389.683273 168.552047 
L 389.807273 168.893998 
L 389.908727 169.051132 
L 390.968364 172.418399 
L 391.002182 172.435691 
L 391.182545 173.477081 
L 391.272727 173.630386 
L 391.565818 174.457009 
L 391.656 174.67764 
L 391.802545 175.35634 
L 391.904 175.447702 
L 392.050545 175.965167 
L 392.118182 176.054865 
L 392.490182 177.84007 
L 392.569091 178.083185 
L 392.704364 179.521732 
L 392.805818 179.604463 
L 392.952364 180.070106 
L 393.02 180.229971 
L 393.324364 181.810806 
L 393.504727 183.631036 
L 393.527273 183.756314 
L 393.741455 184.997843 
L 394.045818 186.190791 
L 394.181091 186.870287 
L 394.586909 188.349595 
L 394.620727 188.390062 
L 395.105455 192.474431 
L 395.511273 195.145468 
L 395.646545 196.001029 
L 395.669091 196.074426 
L 395.826909 198.583643 
L 396.221455 202.348836 
L 396.356727 204.642235 
L 396.514545 205.473226 
L 396.627273 206.938889 
L 396.920364 210.011683 
L 396.965455 210.789145 
L 397.100727 211.789781 
L 397.269818 213.847153 
L 397.540364 223.732656 
L 397.585455 224.587532 
L 397.788364 235.393071 
L 398.318182 264.959931 
L 398.476 295.488 
L 398.476 295.488 
" clip-path="url(#pc4258a9b03)" style="fill: none; stroke: #1f77b4; stroke-width: 1.5; stroke-linecap: square"/>
   </g>
   <g id="line2d_18">
    <path d="M 172.243636 59.536776 
L 359.641455 131.150302 
" clip-path="url(#pc4258a9b03)" style="fill: none; stroke-dasharray: 5.55,2.4; stroke-dashoffset: 0; stroke: #ff7f0e; stroke-width: 1.5"/>
   </g>
   <g id="line2d_19">
    <path d="M 73.832727 125.182432 
L 398.487273 125.182432 
L 398.487273 125.182432 
" clip-path="url(#pc4258a9b03)" style="fill: none; stroke-dasharray: 5.55,2.4; stroke-dashoffset: 0; stroke: #2ca02c; stroke-width: 1.5"/>
   </g>
   <g id="LineCollection_1">
    <path d="M 359.641455 295.488 
L 359.641455 53.568 
" clip-path="url(#pc4258a9b03)" style="fill: none; stroke-dasharray: 5.55,2.4; stroke-dashoffset: 0; stroke: #1f77b4; stroke-width: 1.5"/>
   </g>
   <g id="patch_3">
    <path d="M 57.6 307.584 
L 57.6 41.472 
" style="fill: none; stroke: #000000; stroke-width: 0.8; stroke-linejoin: miter; stroke-linecap: square"/>
   </g>
   <g id="patch_4">
    <path d="M 414.72 307.584 
L 414.72 41.472 
" style="fill: none; stroke: #000000; stroke-width: 0.8; stroke-linejoin: miter; stroke-linecap: square"/>
   </g>
   <g id="patch_5">
    <path d="M 57.6 307.584 
L 414.72 307.584 
" style="fill: none; stroke: #000000; stroke-width: 0.8; stroke-linejoin: miter; stroke-linecap: square"/>
   </g>
   <g id="patch_6">
    <path d="M 57.6 41.472 
L 414.72 41.472 
" style="fill: none; stroke: #000000; stroke-width: 0.8; stroke-linejoin: miter; stroke-linecap: square"/>
   </g>
   <g id="text_17">
    <!-- Energy Decay - 16000 Hz -->
    <g transform="translate(159.7725 35.472) scale(0.12 -0.12)">
     <defs>
      <path id="DejaVuSans-45" d="M 628 4666 
L 3578 4666 
L 3578 4134 
L 1259 4134 
L 1259 2753 
L 3481 2753 
L 3481 2222 
L 1259 2222 
L 1259 531 
L 3634 531 
L 3634 0 
L 628 0 
L 628 4666 
z
" transform="scale(0.015625)"/>
      <path id="DejaVuSans-6e" d="M 3513 2113 
L 3513 0 
L 2938 0 
L 2938 2094 
Q 2938 2591 2744 2837 
Q 2550 3084 2163 3084 
Q 1697 3084 1428 2787 
Q 1159 2491 1159 1978 
L 1159 0 
L 581 0 
L 581 3500 
L 1159 3500 
L 1159 2956 
Q 1366 3272 1645 3428 
Q 1925 3584 2291 3584 
Q 2894 3584 3203 3211 
Q 3513 2838 3513 2113 
z
" transform="scale(0.015625)"/>
      <path id="DejaVuSans-65" d="M 3597 1894 
L 3597 1613 
L 953 1613 
Q 991 1019 1311 708 
Q 1631 397 2203 397 
Q 2534 397 2845 478 
Q 3156 559 3463 722 
L 3463 178 
Q 3153 47 2828 -22 
Q 2503 -91 2169 -91 
Q 1331 -91 842 396 
Q 353 884 353 1716 
Q 353 2575 817 3079 
Q 1281 3584 2069 3584 
Q 2775 3584 3186 3129 
Q 3597 2675 3597 1894 
z
M 3022 2063 
Q 3016 2534 2758 2815 
Q 2500 3097 2075 3097 
Q 1594 3097 1305 2825 
Q 1016 2553 972 2059 
L 3022 2063 
z
" transform="scale(0.015625)"/>
      <path id="DejaVuSans-72" d="M 2631 2963 
Q 2534 3019 2420 3045 
Q 2306 3072 2169 3072 
Q 1681 3072 1420 2755 
Q 1159 2438 1159 1844 
L 1159 0 
L 581 0 
L 581 3500 
L 1159 3500 
L 1159 2956 
Q 1341 3275 1631 3429 
Q 1922 3584 2338 3584 
Q 2397 3584 2469 3576 
Q 2541 3569 2628 3553 
L 2631 2963 
z
" transform="scale(0.015625)"/>
      <path id="DejaVuSans-67" d="M 2906 1791 
Q 2906 2416 2648 2759 
Q 2391 3103 1925 3103 
Q 1463 3103 1205 2759 
Q 947 2416 947 1791 
Q 947 1169 1205 825 
Q 1463 481 1925 481 
Q 2391 481 2648 825 
Q 2906 1169 2906 1791 
z
M 3481 434 
Q 3481 -459 3084 -895 
Q 2688 -1331 1869 -1331 
Q 1566 -1331 1297 -1286 
Q 1028 -1241 775 -1147 
L 775 -588 
Q 1028 -725 1275 -790 
Q 1522 -856 1778 -856 
Q 2344 -856 2625 -561 
Q 2906 -266 2906 331 
L 2906 616 
Q 2728 306 2450 153 
Q 2172 0 1784 0 
Q 1141 0 747 490 
Q 353 981 353 1791 
Q 353 2603 747 3093 
Q 1141 3584 1784 3584 
Q 2172 3584 2450 3431 
Q 2728 3278 2906 2969 
L 2906 3500 
L 3481 3500 
L 3481 434 
z
" transform="scale(0.015625)"/>
      <path id="DejaVuSans-79" d="M 2059 -325 
Q 1816 -950 1584 -1140 
Q 1353 -1331 966 -1331 
L 506 -1331 
L 506 -850 
L 844 -850 
Q 1081 -850 1212 -737 
Q 1344 -625 1503 -206 
L 1606 56 
L 191 3500 
L 800 3500 
L 1894 763 
L 2988 3500 
L 3597 3500 
L 2059 -325 
z
" transform="scale(0.015625)"/>
      <path id="DejaVuSans-20" transform="scale(0.015625)"/>
      <path id="DejaVuSans-44" d="M 1259 4147 
L 1259 519 
L 2022 519 
Q 2988 519 3436 956 
Q 3884 1394 3884 2338 
Q 3884 3275 3436 3711 
Q 2988 4147 2022 4147 
L 1259 4147 
z
M 628 4666 
L 1925 4666 
Q 3281 4666 3915 4102 
Q 4550 3538 4550 2338 
Q 4550 1131 3912 565 
Q 3275 0 1925 0 
L 628 0 
L 628 4666 
z
" transform="scale(0.015625)"/>
      <path id="DejaVuSans-63" d="M 3122 3366 
L 3122 2828 
Q 2878 2963 2633 3030 
Q 2388 3097 2138 3097 
Q 1578 3097 1268 2742 
Q 959 2388 959 1747 
Q 959 1106 1268 751 
Q 1578 397 2138 397 
Q 2388 397 2633 464 
Q 2878 531 3122 666 
L 3122 134 
Q 2881 22 2623 -34 
Q 2366 -91 2075 -91 
Q 1284 -91 818 406 
Q 353 903 353 1747 
Q 353 2603 823 3093 
Q 1294 3584 2113 3584 
Q 2378 3584 2631 3529 
Q 2884 3475 3122 3366 
z
" transform="scale(0.015625)"/>
      <path id="DejaVuSans-61" d="M 2194 1759 
Q 1497 1759 1228 1600 
Q 959 1441 959 1056 
Q 959 750 1161 570 
Q 1363 391 1709 391 
Q 2188 391 2477 730 
Q 2766 1069 2766 1631 
L 2766 1759 
L 2194 1759 
z
M 3341 1997 
L 3341 0 
L 2766 0 
L 2766 531 
Q 2569 213 2275 61 
Q 1981 -91 1556 -91 
Q 1019 -91 701 211 
Q 384 513 384 1019 
Q 384 1609 779 1909 
Q 1175 2209 1959 2209 
L 2766 2209 
L 2766 2266 
Q 2766 2663 2505 2880 
Q 2244 3097 1772 3097 
Q 1472 3097 1187 3025 
Q 903 2953 641 2809 
L 641 3341 
Q 956 3463 1253 3523 
Q 1550 3584 1831 3584 
Q 2591 3584 2966 3190 
Q 3341 2797 3341 1997 
z
" transform="scale(0.015625)"/>
      <path id="DejaVuSans-2d" d="M 313 2009 
L 1997 2009 
L 1997 1497 
L 313 1497 
L 313 2009 
z
" transform="scale(0.015625)"/>
      <path id="DejaVuSans-36" d="M 2113 2584 
Q 1688 2584 1439 2293 
Q 1191 2003 1191 1497 
Q 1191 994 1439 701 
Q 1688 409 2113 409 
Q 2538 409 2786 701 
Q 3034 994 3034 1497 
Q 3034 2003 2786 2293 
Q 2538 2584 2113 2584 
z
M 3366 4563 
L 3366 3988 
Q 3128 4100 2886 4159 
Q 2644 4219 2406 4219 
Q 1781 4219 1451 3797 
Q 1122 3375 1075 2522 
Q 1259 2794 1537 2939 
Q 1816 3084 2150 3084 
Q 2853 3084 3261 2657 
Q 3669 2231 3669 1497 
Q 3669 778 3244 343 
Q 2819 -91 2113 -91 
Q 1303 -91 875 529 
Q 447 1150 447 2328 
Q 447 3434 972 4092 
Q 1497 4750 2381 4750 
Q 2619 4750 2861 4703 
Q 3103 4656 3366 4563 
z
" transform="scale(0.015625)"/>
      <path id="DejaVuSans-48" d="M 628 4666 
L 1259 4666 
L 1259 2753 
L 3553 2753 
L 3553 4666 
L 4184 4666 
L 4184 0 
L 3553 0 
L 3553 2222 
L 1259 2222 
L 1259 0 
L 628 0 
L 628 4666 
z
" transform="scale(0.015625)"/>
      <path id="DejaVuSans-7a" d="M 353 3500 
L 3084 3500 
L 3084 2975 
L 922 459 
L 3084 459 
L 3084 0 
L 275 0 
L 275 525 
L 2438 3041 
L 353 3041 
L 353 3500 
z
" transform="scale(0.015625)"/>
     </defs>
     <use xlink:href="#DejaVuSans-45"/>
     <use xlink:href="#DejaVuSans-6e" transform="translate(63.183594 0)"/>
     <use xlink:href="#DejaVuSans-65" transform="translate(126.5625 0)"/>
     <use xlink:href="#DejaVuSans-72" transform="translate(188.085938 0)"/>
     <use xlink:href="#DejaVuSans-67" transform="translate(227.449219 0)"/>
     <use xlink:href="#DejaVuSans-79" transform="translate(290.925781 0)"/>
     <use xlink:href="#DejaVuSans-20" transform="translate(350.105469 0)"/>
     <use xlink:href="#DejaVuSans-44" transform="translate(381.892578 0)"/>
     <use xlink:href="#DejaVuSans-65" transform="translate(458.894531 0)"/>
     <use xlink:href="#DejaVuSans-63" transform="translate(520.417969 0)"/>
     <use xlink:href="#DejaVuSans-61" transform="translate(575.398438 0)"/>
     <use xlink:href="#DejaVuSans-79" transform="translate(636.677734 0)"/>
     <use xlink:href="#DejaVuSans-20" transform="translate(695.857422 0)"/>
     <use xlink:href="#DejaVuSans-2d" transform="translate(727.644531 0)"/>
     <use xlink:href="#DejaVuSans-20" transform="translate(763.728516 0)"/>
     <use xlink:href="#DejaVuSans-31" transform="translate(795.515625 0)"/>
     <use xlink:href="#DejaVuSans-36" transform="translate(859.138672 0)"/>
     <use xlink:href="#DejaVuSans-30" transform="translate(922.761719 0)"/>
     <use xlink:href="#DejaVuSans-30" transform="translate(986.384766 0)"/>
     <use xlink:href="#DejaVuSans-30" transform="translate(1050.007812 0)"/>
     <use xlink:href="#DejaVuSans-20" transform="translate(1113.630859 0)"/>
     <use xlink:href="#DejaVuSans-48" transform="translate(1145.417969 0)"/>
     <use xlink:href="#DejaVuSans-7a" transform="translate(1220.613281 0)"/>
    </g>
   </g>
   <g id="legend_1">
    <g id="patch_7">
     <path d="M 64.6 302.584 
L 175.351562 302.584 
Q 177.351562 302.584 177.351562 300.584 
L 177.351562 242.8715 
Q 177.351562 240.8715 175.351562 240.8715 
L 64.6 240.8715 
Q 62.6 240.8715 62.6 242.8715 
L 62.6 300.584 
Q 62.6 302.584 64.6 302.584 
z
" style="fill: #ffffff; opacity: 0.8; stroke: #cccccc; stroke-linejoin: miter"/>
    </g>
    <g id="line2d_20">
     <path d="M 66.6 248.969937 
L 76.6 248.969937 
L 86.6 248.969937 
" style="fill: none; stroke: #1f77b4; stroke-width: 1.5; stroke-linecap: square"/>
    </g>
    <g id="text_18">
     <!-- Energy -->
     <g transform="translate(94.6 252.469937) scale(0.1 -0.1)">
      <use xlink:href="#DejaVuSans-45"/>
      <use xlink:href="#DejaVuSans-6e" transform="translate(63.183594 0)"/>
      <use xlink:href="#DejaVuSans-65" transform="translate(126.5625 0)"/>
      <use xlink:href="#DejaVuSans-72" transform="translate(188.085938 0)"/>
      <use xlink:href="#DejaVuSans-67" transform="translate(227.449219 0)"/>
      <use xlink:href="#DejaVuSans-79" transform="translate(290.925781 0)"/>
     </g>
    </g>
    <g id="line2d_21">
     <path d="M 66.6 263.648062 
L 76.6 263.648062 
L 86.6 263.648062 
" style="fill: none; stroke-dasharray: 5.55,2.4; stroke-dashoffset: 0; stroke: #ff7f0e; stroke-width: 1.5"/>
    </g>
    <g id="text_19">
     <!-- Linear Fit -->
     <g transform="translate(94.6 267.148062) scale(0.1 -0.1)">
      <defs>
       <path id="DejaVuSans-4c" d="M 628 4666 
L 1259 4666 
L 1259 531 
L 3531 531 
L 3531 0 
L 628 0 
L 628 4666 
z
" transform="scale(0.015625)"/>
       <path id="DejaVuSans-69" d="M 603 3500 
L 1178 3500 
L 1178 0 
L 603 0 
L 603 3500 
z
M 603 4863 
L 1178 4863 
L 1178 4134 
L 603 4134 
L 603 4863 
z
" transform="scale(0.015625)"/>
       <path id="DejaVuSans-46" d="M 628 4666 
L 3309 4666 
L 3309 4134 
L 1259 4134 
L 1259 2759 
L 3109 2759 
L 3109 2228 
L 1259 2228 
L 1259 0 
L 628 0 
L 628 4666 
z
" transform="scale(0.015625)"/>
       <path id="DejaVuSans-74" d="M 1172 4494 
L 1172 3500 
L 2356 3500 
L 2356 3053 
L 1172 3053 
L 1172 1153 
Q 1172 725 1289 603 
Q 1406 481 1766 481 
L 2356 481 
L 2356 0 
L 1766 0 
Q 1100 0 847 248 
Q 594 497 594 1153 
L 594 3053 
L 172 3053 
L 172 3500 
L 594 3500 
L 594 4494 
L 1172 4494 
z
" transform="scale(0.015625)"/>
      </defs>
      <use xlink:href="#DejaVuSans-4c"/>
      <use xlink:href="#DejaVuSans-69" transform="translate(55.712891 0)"/>
      <use xlink:href="#DejaVuSans-6e" transform="translate(83.496094 0)"/>
      <use xlink:href="#DejaVuSans-65" transform="translate(146.875 0)"/>
      <use xlink:href="#DejaVuSans-61" transform="translate(208.398438 0)"/>
      <use xlink:href="#DejaVuSans-72" transform="translate(269.677734 0)"/>
      <use xlink:href="#DejaVuSans-20" transform="translate(310.791016 0)"/>
      <use xlink:href="#DejaVuSans-46" transform="translate(342.578125 0)"/>
      <use xlink:href="#DejaVuSans-69" transform="translate(392.847656 0)"/>
      <use xlink:href="#DejaVuSans-74" transform="translate(420.630859 0)"/>
     </g>
    </g>
    <g id="line2d_22">
     <path d="M 66.6 278.326187 
L 76.6 278.326187 
L 86.6 278.326187 
" style="fill: none; stroke-dasharray: 5.55,2.4; stroke-dashoffset: 0; stroke: #2ca02c; stroke-width: 1.5"/>
    </g>
    <g id="text_20">
     <!-- -60 dB -->
     <g transform="translate(94.6 281.826187) scale(0.1 -0.1)">
      <defs>
       <path id="DejaVuSans-64" d="M 2906 2969 
L 2906 4863 
L 3481 4863 
L 3481 0 
L 2906 0 
L 2906 525 
Q 2725 213 2448 61 
Q 2172 -91 1784 -91 
Q 1150 -91 751 415 
Q 353 922 353 1747 
Q 353 2572 751 3078 
Q 1150 3584 1784 3584 
Q 2172 3584 2448 3432 
Q 2725 3281 2906 2969 
z
M 947 1747 
Q 947 1113 1208 752 
Q 1469 391 1925 391 
Q 2381 391 2643 752 
Q 2906 1113 2906 1747 
Q 2906 2381 2643 2742 
Q 2381 3103 1925 3103 
Q 1469 3103 1208 2742 
Q 947 2381 947 1747 
z
" transform="scale(0.015625)"/>
       <path id="DejaVuSans-42" d="M 1259 2228 
L 1259 519 
L 2272 519 
Q 2781 519 3026 730 
Q 3272 941 3272 1375 
Q 3272 1813 3026 2020 
Q 2781 2228 2272 2228 
L 1259 2228 
z
M 1259 4147 
L 1259 2741 
L 2194 2741 
Q 2656 2741 2882 2914 
Q 3109 3088 3109 3444 
Q 3109 3797 2882 3972 
Q 2656 4147 2194 4147 
L 1259 4147 
z
M 628 4666 
L 2241 4666 
Q 2963 4666 3353 4366 
Q 3744 4066 3744 3513 
Q 3744 3084 3544 2831 
Q 3344 2578 2956 2516 
Q 3422 2416 3680 2098 
Q 3938 1781 3938 1306 
Q 3938 681 3513 340 
Q 3088 0 2303 0 
L 628 0 
L 628 4666 
z
" transform="scale(0.015625)"/>
      </defs>
      <use xlink:href="#DejaVuSans-2d"/>
      <use xlink:href="#DejaVuSans-36" transform="translate(36.083984 0)"/>
      <use xlink:href="#DejaVuSans-30" transform="translate(99.707031 0)"/>
      <use xlink:href="#DejaVuSans-20" transform="translate(163.330078 0)"/>
      <use xlink:href="#DejaVuSans-64" transform="translate(195.117188 0)"/>
      <use xlink:href="#DejaVuSans-42" transform="translate(258.59375 0)"/>
     </g>
    </g>
    <g id="line2d_23">
     <path d="M 66.6 293.004312 
L 86.6 293.004312 
" style="fill: none; stroke-dasharray: 5.55,2.4; stroke-dashoffset: 0; stroke: #1f77b4; stroke-width: 1.5"/>
    </g>
    <g id="text_21">
     <!-- Estimated RT60 -->
     <g transform="translate(94.6 296.504312) scale(0.1 -0.1)">
      <defs>
       <path id="DejaVuSans-73" d="M 2834 3397 
L 2834 2853 
Q 2591 2978 2328 3040 
Q 2066 3103 1784 3103 
Q 1356 3103 1142 2972 
Q 928 2841 928 2578 
Q 928 2378 1081 2264 
Q 1234 2150 1697 2047 
L 1894 2003 
Q 2506 1872 2764 1633 
Q 3022 1394 3022 966 
Q 3022 478 2636 193 
Q 2250 -91 1575 -91 
Q 1294 -91 989 -36 
Q 684 19 347 128 
L 347 722 
Q 666 556 975 473 
Q 1284 391 1588 391 
Q 1994 391 2212 530 
Q 2431 669 2431 922 
Q 2431 1156 2273 1281 
Q 2116 1406 1581 1522 
L 1381 1569 
Q 847 1681 609 1914 
Q 372 2147 372 2553 
Q 372 3047 722 3315 
Q 1072 3584 1716 3584 
Q 2034 3584 2315 3537 
Q 2597 3491 2834 3397 
z
" transform="scale(0.015625)"/>
       <path id="DejaVuSans-6d" d="M 3328 2828 
Q 3544 3216 3844 3400 
Q 4144 3584 4550 3584 
Q 5097 3584 5394 3201 
Q 5691 2819 5691 2113 
L 5691 0 
L 5113 0 
L 5113 2094 
Q 5113 2597 4934 2840 
Q 4756 3084 4391 3084 
Q 3944 3084 3684 2787 
Q 3425 2491 3425 1978 
L 3425 0 
L 2847 0 
L 2847 2094 
Q 2847 2600 2669 2842 
Q 2491 3084 2119 3084 
Q 1678 3084 1418 2786 
Q 1159 2488 1159 1978 
L 1159 0 
L 581 0 
L 581 3500 
L 1159 3500 
L 1159 2956 
Q 1356 3278 1631 3431 
Q 1906 3584 2284 3584 
Q 2666 3584 2933 3390 
Q 3200 3197 3328 2828 
z
" transform="scale(0.015625)"/>
       <path id="DejaVuSans-52" d="M 2841 2188 
Q 3044 2119 3236 1894 
Q 3428 1669 3622 1275 
L 4263 0 
L 3584 0 
L 2988 1197 
Q 2756 1666 2539 1819 
Q 2322 1972 1947 1972 
L 1259 1972 
L 1259 0 
L 628 0 
L 628 4666 
L 2053 4666 
Q 2853 4666 3247 4331 
Q 3641 3997 3641 3322 
Q 3641 2881 3436 2590 
Q 3231 2300 2841 2188 
z
M 1259 4147 
L 1259 2491 
L 2053 2491 
Q 2509 2491 2742 2702 
Q 2975 2913 2975 3322 
Q 2975 3731 2742 3939 
Q 2509 4147 2053 4147 
L 1259 4147 
z
" transform="scale(0.015625)"/>
       <path id="DejaVuSans-54" d="M -19 4666 
L 3928 4666 
L 3928 4134 
L 2272 4134 
L 2272 0 
L 1638 0 
L 1638 4134 
L -19 4134 
L -19 4666 
z
" transform="scale(0.015625)"/>
      </defs>
      <use xlink:href="#DejaVuSans-45"/>
      <use xlink:href="#DejaVuSans-73" transform="translate(63.183594 0)"/>
      <use xlink:href="#DejaVuSans-74" transform="translate(115.283203 0)"/>
      <use xlink:href="#DejaVuSans-69" transform="translate(154.492188 0)"/>
      <use xlink:href="#DejaVuSans-6d" transform="translate(182.275391 0)"/>
      <use xlink:href="#DejaVuSans-61" transform="translate(279.6875 0)"/>
      <use xlink:href="#DejaVuSans-74" transform="translate(340.966797 0)"/>
      <use xlink:href="#DejaVuSans-65" transform="translate(380.175781 0)"/>
      <use xlink:href="#DejaVuSans-64" transform="translate(441.699219 0)"/>
      <use xlink:href="#DejaVuSans-20" transform="translate(505.175781 0)"/>
      <use xlink:href="#DejaVuSans-52" transform="translate(536.962891 0)"/>
      <use xlink:href="#DejaVuSans-54" transform="translate(599.195312 0)"/>
      <use xlink:href="#DejaVuSans-36" transform="translate(660.279297 0)"/>
      <use xlink:href="#DejaVuSans-30" transform="translate(723.902344 0)"/>
     </g>
    </g>
   </g>
  </g>
 </g>
 <defs>
  <clipPath id="pc4258a9b03">
   <rect x="57.6" y="41.472" width="357.12" height="266.112"/>
  </clipPath>
 </defs>
</svg>
