<?xml version="1.0" encoding="utf-8" standalone="no"?>
<!DOCTYPE svg PUBLIC "-//W3C//DTD SVG 1.1//EN"
  "http://www.w3.org/Graphics/SVG/1.1/DTD/svg11.dtd">
<svg xmlns:xlink="http://www.w3.org/1999/xlink" width="460.8pt" height="345.6pt" viewBox="0 0 460.8 345.6" xmlns="http://www.w3.org/2000/svg" version="1.1">
 <metadata>
  <rdf:RDF xmlns:dc="http://purl.org/dc/elements/1.1/" xmlns:cc="http://creativecommons.org/ns#" xmlns:rdf="http://www.w3.org/1999/02/22-rdf-syntax-ns#">
   <cc:Work>
    <dc:type rdf:resource="http://purl.org/dc/dcmitype/StillImage"/>
    <dc:date>2025-05-07T11:00:10.792489</dc:date>
    <dc:format>image/svg+xml</dc:format>
    <dc:creator>
     <cc:Agent>
      <dc:title>Matplotlib v3.10.1, https://matplotlib.org/</dc:title>
     </cc:Agent>
    </dc:creator>
   </cc:Work>
  </rdf:RDF>
 </metadata>
 <defs>
  <style type="text/css">*{stroke-linejoin: round; stroke-linecap: butt}</style>
 </defs>
 <g id="figure_1">
  <g id="patch_1">
   <path d="M 0 345.6 
L 460.8 345.6 
L 460.8 0 
L 0 0 
z
" style="fill: #ffffff"/>
  </g>
  <g id="axes_1">
   <g id="patch_2">
    <path d="M 57.6 307.584 
L 414.72 307.584 
L 414.72 41.472 
L 57.6 41.472 
z
" style="fill: #ffffff"/>
   </g>
   <g id="matplotlib.axis_1">
    <g id="xtick_1">
     <g id="line2d_1">
      <defs>
       <path id="m5b9a43d7e1" d="M 0 0 
L 0 3.5 
" style="stroke: #000000; stroke-width: 0.8"/>
      </defs>
      <g>
       <use xlink:href="#m5b9a43d7e1" x="81.293018" y="307.584" style="stroke: #000000; stroke-width: 0.8"/>
      </g>
     </g>
     <g id="text_1">
      <!-- −0.2 -->
      <g transform="translate(69.151612 322.182437) scale(0.1 -0.1)">
       <defs>
        <path id="DejaVuSans-2212" d="M 678 2272 
L 4684 2272 
L 4684 1741 
L 678 1741 
L 678 2272 
z
" transform="scale(0.015625)"/>
        <path id="DejaVuSans-30" d="M 2034 4250 
Q 1547 4250 1301 3770 
Q 1056 3291 1056 2328 
Q 1056 1369 1301 889 
Q 1547 409 2034 409 
Q 2525 409 2770 889 
Q 3016 1369 3016 2328 
Q 3016 3291 2770 3770 
Q 2525 4250 2034 4250 
z
M 2034 4750 
Q 2819 4750 3233 4129 
Q 3647 3509 3647 2328 
Q 3647 1150 3233 529 
Q 2819 -91 2034 -91 
Q 1250 -91 836 529 
Q 422 1150 422 2328 
Q 422 3509 836 4129 
Q 1250 4750 2034 4750 
z
" transform="scale(0.015625)"/>
        <path id="DejaVuSans-2e" d="M 684 794 
L 1344 794 
L 1344 0 
L 684 0 
L 684 794 
z
" transform="scale(0.015625)"/>
        <path id="DejaVuSans-32" d="M 1228 531 
L 3431 531 
L 3431 0 
L 469 0 
L 469 531 
Q 828 903 1448 1529 
Q 2069 2156 2228 2338 
Q 2531 2678 2651 2914 
Q 2772 3150 2772 3378 
Q 2772 3750 2511 3984 
Q 2250 4219 1831 4219 
Q 1534 4219 1204 4116 
Q 875 4013 500 3803 
L 500 4441 
Q 881 4594 1212 4672 
Q 1544 4750 1819 4750 
Q 2544 4750 2975 4387 
Q 3406 4025 3406 3419 
Q 3406 3131 3298 2873 
Q 3191 2616 2906 2266 
Q 2828 2175 2409 1742 
Q 1991 1309 1228 531 
z
" transform="scale(0.015625)"/>
       </defs>
       <use xlink:href="#DejaVuSans-2212"/>
       <use xlink:href="#DejaVuSans-30" transform="translate(83.789062 0)"/>
       <use xlink:href="#DejaVuSans-2e" transform="translate(147.412109 0)"/>
       <use xlink:href="#DejaVuSans-32" transform="translate(179.199219 0)"/>
      </g>
     </g>
    </g>
    <g id="xtick_2">
     <g id="line2d_2">
      <g>
       <use xlink:href="#m5b9a43d7e1" x="146.223927" y="307.584" style="stroke: #000000; stroke-width: 0.8"/>
      </g>
     </g>
     <g id="text_2">
      <!-- 0.0 -->
      <g transform="translate(138.272365 322.182437) scale(0.1 -0.1)">
       <use xlink:href="#DejaVuSans-30"/>
       <use xlink:href="#DejaVuSans-2e" transform="translate(63.623047 0)"/>
       <use xlink:href="#DejaVuSans-30" transform="translate(95.410156 0)"/>
      </g>
     </g>
    </g>
    <g id="xtick_3">
     <g id="line2d_3">
      <g>
       <use xlink:href="#m5b9a43d7e1" x="211.154836" y="307.584" style="stroke: #000000; stroke-width: 0.8"/>
      </g>
     </g>
     <g id="text_3">
      <!-- 0.2 -->
      <g transform="translate(203.203274 322.182437) scale(0.1 -0.1)">
       <use xlink:href="#DejaVuSans-30"/>
       <use xlink:href="#DejaVuSans-2e" transform="translate(63.623047 0)"/>
       <use xlink:href="#DejaVuSans-32" transform="translate(95.410156 0)"/>
      </g>
     </g>
    </g>
    <g id="xtick_4">
     <g id="line2d_4">
      <g>
       <use xlink:href="#m5b9a43d7e1" x="276.085745" y="307.584" style="stroke: #000000; stroke-width: 0.8"/>
      </g>
     </g>
     <g id="text_4">
      <!-- 0.4 -->
      <g transform="translate(268.134183 322.182437) scale(0.1 -0.1)">
       <defs>
        <path id="DejaVuSans-34" d="M 2419 4116 
L 825 1625 
L 2419 1625 
L 2419 4116 
z
M 2253 4666 
L 3047 4666 
L 3047 1625 
L 3713 1625 
L 3713 1100 
L 3047 1100 
L 3047 0 
L 2419 0 
L 2419 1100 
L 313 1100 
L 313 1709 
L 2253 4666 
z
" transform="scale(0.015625)"/>
       </defs>
       <use xlink:href="#DejaVuSans-30"/>
       <use xlink:href="#DejaVuSans-2e" transform="translate(63.623047 0)"/>
       <use xlink:href="#DejaVuSans-34" transform="translate(95.410156 0)"/>
      </g>
     </g>
    </g>
    <g id="xtick_5">
     <g id="line2d_5">
      <g>
       <use xlink:href="#m5b9a43d7e1" x="341.016655" y="307.584" style="stroke: #000000; stroke-width: 0.8"/>
      </g>
     </g>
     <g id="text_5">
      <!-- 0.6 -->
      <g transform="translate(333.065092 322.182437) scale(0.1 -0.1)">
       <defs>
        <path id="DejaVuSans-36" d="M 2113 2584 
Q 1688 2584 1439 2293 
Q 1191 2003 1191 1497 
Q 1191 994 1439 701 
Q 1688 409 2113 409 
Q 2538 409 2786 701 
Q 3034 994 3034 1497 
Q 3034 2003 2786 2293 
Q 2538 2584 2113 2584 
z
M 3366 4563 
L 3366 3988 
Q 3128 4100 2886 4159 
Q 2644 4219 2406 4219 
Q 1781 4219 1451 3797 
Q 1122 3375 1075 2522 
Q 1259 2794 1537 2939 
Q 1816 3084 2150 3084 
Q 2853 3084 3261 2657 
Q 3669 2231 3669 1497 
Q 3669 778 3244 343 
Q 2819 -91 2113 -91 
Q 1303 -91 875 529 
Q 447 1150 447 2328 
Q 447 3434 972 4092 
Q 1497 4750 2381 4750 
Q 2619 4750 2861 4703 
Q 3103 4656 3366 4563 
z
" transform="scale(0.015625)"/>
       </defs>
       <use xlink:href="#DejaVuSans-30"/>
       <use xlink:href="#DejaVuSans-2e" transform="translate(63.623047 0)"/>
       <use xlink:href="#DejaVuSans-36" transform="translate(95.410156 0)"/>
      </g>
     </g>
    </g>
    <g id="xtick_6">
     <g id="line2d_6">
      <g>
       <use xlink:href="#m5b9a43d7e1" x="405.947564" y="307.584" style="stroke: #000000; stroke-width: 0.8"/>
      </g>
     </g>
     <g id="text_6">
      <!-- 0.8 -->
      <g transform="translate(397.996001 322.182437) scale(0.1 -0.1)">
       <defs>
        <path id="DejaVuSans-38" d="M 2034 2216 
Q 1584 2216 1326 1975 
Q 1069 1734 1069 1313 
Q 1069 891 1326 650 
Q 1584 409 2034 409 
Q 2484 409 2743 651 
Q 3003 894 3003 1313 
Q 3003 1734 2745 1975 
Q 2488 2216 2034 2216 
z
M 1403 2484 
Q 997 2584 770 2862 
Q 544 3141 544 3541 
Q 544 4100 942 4425 
Q 1341 4750 2034 4750 
Q 2731 4750 3128 4425 
Q 3525 4100 3525 3541 
Q 3525 3141 3298 2862 
Q 3072 2584 2669 2484 
Q 3125 2378 3379 2068 
Q 3634 1759 3634 1313 
Q 3634 634 3220 271 
Q 2806 -91 2034 -91 
Q 1263 -91 848 271 
Q 434 634 434 1313 
Q 434 1759 690 2068 
Q 947 2378 1403 2484 
z
M 1172 3481 
Q 1172 3119 1398 2916 
Q 1625 2713 2034 2713 
Q 2441 2713 2670 2916 
Q 2900 3119 2900 3481 
Q 2900 3844 2670 4047 
Q 2441 4250 2034 4250 
Q 1625 4250 1398 4047 
Q 1172 3844 1172 3481 
z
" transform="scale(0.015625)"/>
       </defs>
       <use xlink:href="#DejaVuSans-30"/>
       <use xlink:href="#DejaVuSans-2e" transform="translate(63.623047 0)"/>
       <use xlink:href="#DejaVuSans-38" transform="translate(95.410156 0)"/>
      </g>
     </g>
    </g>
   </g>
   <g id="matplotlib.axis_2">
    <g id="ytick_1">
     <g id="line2d_7">
      <defs>
       <path id="m7dc65171f0" d="M 0 0 
L -3.5 0 
" style="stroke: #000000; stroke-width: 0.8"/>
      </defs>
      <g>
       <use xlink:href="#m7dc65171f0" x="57.6" y="303.493191" style="stroke: #000000; stroke-width: 0.8"/>
      </g>
     </g>
     <g id="text_7">
      <!-- −200 -->
      <g transform="translate(23.132812 307.29241) scale(0.1 -0.1)">
       <use xlink:href="#DejaVuSans-2212"/>
       <use xlink:href="#DejaVuSans-32" transform="translate(83.789062 0)"/>
       <use xlink:href="#DejaVuSans-30" transform="translate(147.412109 0)"/>
       <use xlink:href="#DejaVuSans-30" transform="translate(211.035156 0)"/>
      </g>
     </g>
    </g>
    <g id="ytick_2">
     <g id="line2d_8">
      <g>
       <use xlink:href="#m7dc65171f0" x="57.6" y="272.252542" style="stroke: #000000; stroke-width: 0.8"/>
      </g>
     </g>
     <g id="text_8">
      <!-- −175 -->
      <g transform="translate(23.132812 276.051761) scale(0.1 -0.1)">
       <defs>
        <path id="DejaVuSans-31" d="M 794 531 
L 1825 531 
L 1825 4091 
L 703 3866 
L 703 4441 
L 1819 4666 
L 2450 4666 
L 2450 531 
L 3481 531 
L 3481 0 
L 794 0 
L 794 531 
z
" transform="scale(0.015625)"/>
        <path id="DejaVuSans-37" d="M 525 4666 
L 3525 4666 
L 3525 4397 
L 1831 0 
L 1172 0 
L 2766 4134 
L 525 4134 
L 525 4666 
z
" transform="scale(0.015625)"/>
        <path id="DejaVuSans-35" d="M 691 4666 
L 3169 4666 
L 3169 4134 
L 1269 4134 
L 1269 2991 
Q 1406 3038 1543 3061 
Q 1681 3084 1819 3084 
Q 2600 3084 3056 2656 
Q 3513 2228 3513 1497 
Q 3513 744 3044 326 
Q 2575 -91 1722 -91 
Q 1428 -91 1123 -41 
Q 819 9 494 109 
L 494 744 
Q 775 591 1075 516 
Q 1375 441 1709 441 
Q 2250 441 2565 725 
Q 2881 1009 2881 1497 
Q 2881 1984 2565 2268 
Q 2250 2553 1709 2553 
Q 1456 2553 1204 2497 
Q 953 2441 691 2322 
L 691 4666 
z
" transform="scale(0.015625)"/>
       </defs>
       <use xlink:href="#DejaVuSans-2212"/>
       <use xlink:href="#DejaVuSans-31" transform="translate(83.789062 0)"/>
       <use xlink:href="#DejaVuSans-37" transform="translate(147.412109 0)"/>
       <use xlink:href="#DejaVuSans-35" transform="translate(211.035156 0)"/>
      </g>
     </g>
    </g>
    <g id="ytick_3">
     <g id="line2d_9">
      <g>
       <use xlink:href="#m7dc65171f0" x="57.6" y="241.011893" style="stroke: #000000; stroke-width: 0.8"/>
      </g>
     </g>
     <g id="text_9">
      <!-- −150 -->
      <g transform="translate(23.132812 244.811112) scale(0.1 -0.1)">
       <use xlink:href="#DejaVuSans-2212"/>
       <use xlink:href="#DejaVuSans-31" transform="translate(83.789062 0)"/>
       <use xlink:href="#DejaVuSans-35" transform="translate(147.412109 0)"/>
       <use xlink:href="#DejaVuSans-30" transform="translate(211.035156 0)"/>
      </g>
     </g>
    </g>
    <g id="ytick_4">
     <g id="line2d_10">
      <g>
       <use xlink:href="#m7dc65171f0" x="57.6" y="209.771244" style="stroke: #000000; stroke-width: 0.8"/>
      </g>
     </g>
     <g id="text_10">
      <!-- −125 -->
      <g transform="translate(23.132812 213.570463) scale(0.1 -0.1)">
       <use xlink:href="#DejaVuSans-2212"/>
       <use xlink:href="#DejaVuSans-31" transform="translate(83.789062 0)"/>
       <use xlink:href="#DejaVuSans-32" transform="translate(147.412109 0)"/>
       <use xlink:href="#DejaVuSans-35" transform="translate(211.035156 0)"/>
      </g>
     </g>
    </g>
    <g id="ytick_5">
     <g id="line2d_11">
      <g>
       <use xlink:href="#m7dc65171f0" x="57.6" y="178.530595" style="stroke: #000000; stroke-width: 0.8"/>
      </g>
     </g>
     <g id="text_11">
      <!-- −100 -->
      <g transform="translate(23.132812 182.329814) scale(0.1 -0.1)">
       <use xlink:href="#DejaVuSans-2212"/>
       <use xlink:href="#DejaVuSans-31" transform="translate(83.789062 0)"/>
       <use xlink:href="#DejaVuSans-30" transform="translate(147.412109 0)"/>
       <use xlink:href="#DejaVuSans-30" transform="translate(211.035156 0)"/>
      </g>
     </g>
    </g>
    <g id="ytick_6">
     <g id="line2d_12">
      <g>
       <use xlink:href="#m7dc65171f0" x="57.6" y="147.289947" style="stroke: #000000; stroke-width: 0.8"/>
      </g>
     </g>
     <g id="text_12">
      <!-- −75 -->
      <g transform="translate(29.495313 151.089165) scale(0.1 -0.1)">
       <use xlink:href="#DejaVuSans-2212"/>
       <use xlink:href="#DejaVuSans-37" transform="translate(83.789062 0)"/>
       <use xlink:href="#DejaVuSans-35" transform="translate(147.412109 0)"/>
      </g>
     </g>
    </g>
    <g id="ytick_7">
     <g id="line2d_13">
      <g>
       <use xlink:href="#m7dc65171f0" x="57.6" y="116.049298" style="stroke: #000000; stroke-width: 0.8"/>
      </g>
     </g>
     <g id="text_13">
      <!-- −50 -->
      <g transform="translate(29.495313 119.848516) scale(0.1 -0.1)">
       <use xlink:href="#DejaVuSans-2212"/>
       <use xlink:href="#DejaVuSans-35" transform="translate(83.789062 0)"/>
       <use xlink:href="#DejaVuSans-30" transform="translate(147.412109 0)"/>
      </g>
     </g>
    </g>
    <g id="ytick_8">
     <g id="line2d_14">
      <g>
       <use xlink:href="#m7dc65171f0" x="57.6" y="84.808649" style="stroke: #000000; stroke-width: 0.8"/>
      </g>
     </g>
     <g id="text_14">
      <!-- −25 -->
      <g transform="translate(29.495313 88.607868) scale(0.1 -0.1)">
       <use xlink:href="#DejaVuSans-2212"/>
       <use xlink:href="#DejaVuSans-32" transform="translate(83.789062 0)"/>
       <use xlink:href="#DejaVuSans-35" transform="translate(147.412109 0)"/>
      </g>
     </g>
    </g>
    <g id="ytick_9">
     <g id="line2d_15">
      <g>
       <use xlink:href="#m7dc65171f0" x="57.6" y="53.568" style="stroke: #000000; stroke-width: 0.8"/>
      </g>
     </g>
     <g id="text_15">
      <!-- 0 -->
      <g transform="translate(44.2375 57.367219) scale(0.1 -0.1)">
       <use xlink:href="#DejaVuSans-30"/>
      </g>
     </g>
    </g>
   </g>
   <g id="line2d_16">
    <path d="M 73.832727 53.568 
L 127.962109 53.678841 
L 128.936073 53.986065 
L 129.700364 54.110843 
L 130.606691 54.350431 
L 130.8096 54.435752 
L 131.370982 54.577848 
L 131.749745 54.716149 
L 132.013527 54.85464 
L 132.196145 54.922629 
L 132.919855 55.069258 
L 133.406836 55.265134 
L 133.765309 55.386841 
L 133.974982 55.570052 
L 134.9016 56.116158 
L 135.740291 56.233459 
L 135.956727 56.39721 
L 136.450473 56.534373 
L 136.734545 56.611742 
L 136.917164 56.722223 
L 138.736582 57.277039 
L 138.871855 57.388711 
L 139.3656 57.540292 
L 139.832291 57.67708 
L 140.339564 57.838039 
L 140.7792 57.948292 
L 141.178255 58.121664 
L 141.381164 58.23115 
L 141.611127 58.367357 
L 142.470109 58.867434 
L 143.694327 59.144197 
L 144.282764 59.279713 
L 144.593891 59.403958 
L 145.236436 59.516076 
L 145.432582 59.658621 
L 146.149527 59.780207 
L 146.365964 59.871831 
L 146.629745 60.001349 
L 147.576655 60.338564 
L 147.732218 60.475954 
L 148.104218 60.745194 
L 148.300364 60.87415 
L 148.726473 60.987587 
L 149.017309 61.040188 
L 149.463709 61.232097 
L 149.653091 61.574218 
L 149.977745 61.712506 
L 150.1536 61.815201 
L 150.884073 62.012831 
L 152.507345 62.533876 
L 153.089018 62.773833 
L 154.353818 62.871984 
L 154.935491 62.981901 
L 155.192509 63.193643 
L 155.808 63.325682 
L 156.173236 63.496497 
L 156.545236 63.756553 
L 157.201309 63.861578 
L 157.512436 64.029533 
L 158.817818 64.327642 
L 159.061309 64.379713 
L 159.385964 64.482721 
L 159.555055 64.556056 
L 159.6768 64.659651 
L 159.960873 64.889616 
L 160.501964 65.037002 
L 160.664291 65.217971 
L 162.463418 65.577064 
L 162.8016 65.750095 
L 163.951418 66.091273 
L 164.194909 66.434661 
L 164.296364 66.552484 
L 164.593964 66.759216 
L 164.830691 66.875477 
L 165.026836 66.92026 
L 165.229745 67.027935 
L 165.412364 67.120275 
L 165.730255 67.236681 
L 165.946691 67.410424 
L 166.183418 67.530851 
L 166.359273 67.632292 
L 166.988291 67.743132 
L 167.556436 67.790862 
L 167.887855 67.915017 
L 168.084 68.120758 
L 168.814473 68.233738 
L 169.247345 68.502586 
L 169.416436 68.658442 
L 170.0928 68.776031 
L 170.376873 68.881196 
L 170.505382 69.022421 
L 170.748873 69.186646 
L 171.831055 69.462463 
L 172.405964 69.833356 
L 172.642691 69.945791 
L 172.838836 70.09796 
L 172.967345 70.229211 
L 173.156727 70.47716 
L 173.373164 70.586834 
L 173.596364 70.700551 
L 175.936582 71.441427 
L 176.295055 71.551459 
L 176.4912 71.589883 
L 177.350182 71.69095 
L 177.553091 71.824949 
L 178.209164 72.014785 
L 178.418836 72.215557 
L 178.7232 72.330257 
L 178.899055 72.440873 
L 179.149309 72.562014 
L 179.304873 72.642778 
L 179.629527 72.754998 
L 180.096218 72.925578 
L 180.718473 73.267214 
L 181.563927 73.598666 
L 181.7736 73.728554 
L 182.186182 73.83934 
L 184.113818 74.124459 
L 185.527418 74.64397 
L 186.325527 74.887736 
L 186.521673 75.085004 
L 187.833818 75.423522 
L 188.090836 75.520141 
L 188.672509 75.638946 
L 188.929527 75.727966 
L 189.3624 75.841454 
L 189.849382 75.970026 
L 190.613673 76.124199 
L 191.2968 76.313583 
L 191.472655 76.411097 
L 191.689091 76.642255 
L 193.785818 77.576974 
L 194.840945 77.697584 
L 195.185891 77.782521 
L 196.193673 78.035931 
L 197.052655 78.316281 
L 197.505818 78.427608 
L 198.249818 78.584703 
L 198.702982 78.744688 
L 198.905891 79.074104 
L 199.487564 79.248708 
L 200.089527 79.366427 
L 200.285673 79.426329 
L 200.691491 79.586671 
L 200.860582 79.697551 
L 201.536945 79.96626 
L 201.739855 80.031973 
L 202.125382 80.161976 
L 202.646182 80.360014 
L 203.951564 80.873067 
L 204.113891 80.957115 
L 204.485891 81.063035 
L 204.756436 81.16516 
L 205.256945 81.348502 
L 205.852145 81.614278 
L 207.326618 82.107984 
L 207.529527 82.145278 
L 208.462909 82.292258 
L 209.578909 82.583235 
L 209.890036 82.696676 
L 210.079418 82.82481 
L 210.316145 82.969666 
L 210.498764 83.107115 
L 211.330691 83.214935 
L 212.094982 83.539943 
L 213.048655 83.846245 
L 213.400364 84.130183 
L 213.968509 84.342678 
L 215.091273 84.525806 
L 215.382109 84.665118 
L 215.598545 84.719608 
L 215.909673 84.827661 
L 216.254618 85.0482 
L 216.389891 85.160034 
L 216.545455 85.272183 
L 216.897164 85.394292 
L 217.073018 85.59145 
L 217.492364 85.729415 
L 217.620873 85.894421 
L 217.850836 85.960097 
L 218.3784 86.079782 
L 218.567782 86.39385 
L 218.757164 86.511911 
L 219.081818 86.668664 
L 219.311782 86.939349 
L 219.764945 87.029815 
L 220.630691 87.247058 
L 221.963127 87.599918 
L 222.362182 87.764322 
L 222.598909 87.848848 
L 223.572873 87.976045 
L 223.850182 88.035907 
L 224.141018 88.151947 
L 224.438618 88.246571 
L 224.939127 88.365237 
L 225.250255 88.406004 
L 225.771055 88.511535 
L 226.183636 88.78051 
L 226.454182 88.906351 
L 226.650327 89.128487 
L 227.556655 89.29688 
L 228.023345 89.40822 
L 228.280364 89.483746 
L 228.517091 89.595224 
L 228.726764 89.805843 
L 228.936436 89.89854 
L 229.328727 90.033311 
L 230.045673 90.256743 
L 230.275636 90.348054 
L 230.546182 90.458027 
L 230.735564 90.521743 
L 231.121091 90.649123 
L 231.276655 90.755139 
L 231.689236 90.873244 
L 232.013891 90.974383 
L 232.392655 91.11015 
L 232.866109 91.374094 
L 233.062255 91.485226 
L 234.083564 91.640868 
L 234.421745 91.877791 
L 235.524218 92.018777 
L 236.477891 92.298756 
L 236.653745 92.341916 
L 237.397745 92.485778 
L 237.566836 92.682014 
L 237.749455 92.754698 
L 237.9456 92.868898 
L 238.202618 92.952229 
L 238.716655 93.064735 
L 239.075127 93.206517 
L 239.501236 93.319158 
L 240.346691 93.483436 
L 240.610473 93.553907 
L 241.205673 93.664407 
L 242.842473 94.265787 
L 243.031855 94.334385 
L 243.721745 94.530829 
L 243.890836 94.71889 
L 244.614545 94.859695 
L 244.952727 94.895673 
L 245.317964 95.008642 
L 247.475564 95.647383 
L 247.685236 95.699833 
L 247.834036 95.815981 
L 248.009891 96.017981 
L 249.694036 96.595153 
L 252.561818 96.942498 
L 254.259491 98.288681 
L 254.448873 98.604691 
L 254.665309 98.655719 
L 255.294327 98.763067 
L 255.5784 98.838135 
L 256.62 99.035752 
L 256.877018 99.145967 
L 258.020073 99.354945 
L 258.297382 99.451582 
L 259.136073 99.63347 
L 259.386327 99.812438 
L 260.022109 99.990307 
L 260.590255 100.356398 
L 261.773891 100.846245 
L 261.956509 100.935541 
L 262.700509 101.063214 
L 262.876364 101.219687 
L 263.160436 101.801313 
L 265.351855 102.408563 
L 265.940291 102.529455 
L 266.569309 102.637351 
L 267.347127 102.750213 
L 267.617673 102.786051 
L 267.949091 102.895806 
L 268.463127 103.171079 
L 268.706618 103.206192 
L 269.186836 103.398269 
L 269.389745 103.449089 
L 270.756 103.829285 
L 270.9792 104.056352 
L 271.858473 104.216544 
L 272.129018 104.279106 
L 273.0624 104.403885 
L 274.340727 104.844644 
L 274.543636 104.878363 
L 275.328218 104.999435 
L 275.564945 105.026245 
L 276.092509 105.183766 
L 276.396873 105.216213 
L 277.634618 105.473153 
L 277.938982 105.503351 
L 278.141891 105.602781 
L 278.358327 105.899007 
L 278.486836 106.018073 
L 278.7168 106.174656 
L 279.190255 106.283389 
L 279.866618 106.467154 
L 280.793236 106.613554 
L 281.0976 106.703599 
L 281.388436 106.840363 
L 281.591345 107.000427 
L 282.037745 107.130626 
L 282.247418 107.257323 
L 282.714109 107.351372 
L 283.207855 107.458939 
L 284.262982 108.144563 
L 284.777018 108.262459 
L 285.595418 108.449893 
L 285.805091 108.619456 
L 287.286327 108.861726 
L 287.631273 108.953728 
L 287.928873 109.071996 
L 288.043855 109.298917 
L 288.206182 109.435163 
L 288.754036 109.621237 
L 288.943418 109.692951 
L 289.423636 109.855526 
L 289.6536 109.955957 
L 290.228509 110.084102 
L 290.431418 110.327035 
L 290.634327 110.798128 
L 291.0672 110.978825 
L 291.297164 111.093738 
L 291.696218 111.238729 
L 291.858545 111.32036 
L 292.007345 111.429633 
L 292.196727 111.640503 
L 293.650909 111.87124 
L 294.543709 112.263194 
L 295.0104 112.468958 
L 295.213309 112.56658 
L 295.815273 112.632342 
L 296.234618 112.745503 
L 296.877164 112.914142 
L 297.7632 113.042493 
L 297.979636 113.163422 
L 298.365164 113.300287 
L 298.588364 113.41904 
L 298.825091 113.542108 
L 299.007709 113.628015 
L 299.582618 113.759021 
L 299.914036 113.901331 
L 300.076364 114.009776 
L 300.434836 114.082236 
L 300.502473 114.196741 
L 300.624218 114.386313 
L 300.847418 114.630011 
L 301.523782 114.847011 
L 302.179855 115.244376 
L 303.180873 115.54308 
L 303.390545 115.671572 
L 304.709455 116.303087 
L 304.837964 116.410123 
L 305.034109 116.678909 
L 309.504873 118.043901 
L 309.728073 118.244147 
L 310.796727 118.40966 
L 311.689527 118.781891 
L 311.892436 119.083825 
L 312.068291 119.26832 
L 312.2712 119.362817 
L 313.366909 119.562406 
L 313.9824 119.811297 
L 314.192073 119.870425 
L 314.415273 119.930367 
L 315.240436 120.046184 
L 317.628 120.826421 
L 317.891782 120.858176 
L 318.216436 120.978114 
L 318.554618 121.125283 
L 319.048364 121.241926 
L 319.332436 121.313956 
L 319.569164 121.424656 
L 319.907345 121.516985 
L 320.549891 121.597258 
L 321.517091 121.713558 
L 322.382836 121.929711 
L 322.633091 122.159493 
L 322.937455 122.267536 
L 323.444727 122.414302 
L 324.364582 122.667001 
L 324.723055 122.732152 
L 325.074764 122.841065 
L 325.284436 122.939579 
L 325.967564 123.078763 
L 327.185018 123.485996 
L 327.367636 123.532446 
L 327.658473 123.636611 
L 328.064291 124.067053 
L 328.794764 124.221907 
L 329.349382 124.451734 
L 329.565818 124.674736 
L 330.079855 124.911901 
L 330.269236 125.004066 
L 330.661527 125.168679 
L 331.040291 125.475023 
L 331.527273 125.587342 
L 333.096436 125.980966 
L 333.752509 126.105657 
L 334.043345 126.244811 
L 334.354473 126.384158 
L 334.489745 126.492991 
L 334.706182 126.639933 
L 335.091709 126.755914 
L 336.214473 127.053741 
L 336.410618 127.076715 
L 337.330473 127.199361 
L 337.675418 127.306025 
L 338.791418 127.712918 
L 339.197236 127.786069 
L 339.711273 127.931559 
L 340.002109 128.002853 
L 340.867855 128.126493 
L 341.801236 128.32123 
L 343.140436 128.737992 
L 343.3704 128.855815 
L 343.999418 128.971296 
L 344.1888 129.026053 
L 345.074836 129.281131 
L 345.277745 129.419908 
L 345.548291 129.554827 
L 345.764727 129.722188 
L 346.725164 129.889672 
L 347.009236 130.019289 
L 347.577382 130.128514 
L 348.504 130.394761 
L 349.011273 130.531611 
L 349.741745 130.790277 
L 350.309891 130.966619 
L 350.560145 131.188069 
L 350.729236 131.342654 
L 352.203709 131.575198 
L 352.467491 131.918373 
L 352.5216 132.031554 
L 352.690691 132.39759 
L 353.103273 132.486272 
L 353.678182 132.603078 
L 355.362327 133.110763 
L 355.829018 133.238795 
L 356.261891 133.495839 
L 356.816509 133.638969 
L 357.350836 134.071526 
L 357.513164 134.379768 
L 357.790473 134.487009 
L 358.615636 134.628595 
L 359.0688 134.777857 
L 359.224364 134.81657 
L 360.063055 135.101731 
L 360.313309 135.36549 
L 361.118182 135.658375 
L 361.287273 135.724642 
L 361.409018 135.821313 
L 361.571345 135.995283 
L 361.7472 136.114061 
L 361.956873 136.282092 
L 362.592655 136.449477 
L 362.869964 136.631881 
L 363.3096 136.905371 
L 363.925091 137.053536 
L 364.790836 137.262239 
L 364.993745 137.372015 
L 365.345455 138.062358 
L 365.683636 138.21454 
L 365.994764 138.586321 
L 366.204436 138.742323 
L 366.414109 138.800338 
L 367.063418 138.985261 
L 367.814182 139.611798 
L 368.118545 139.740068 
L 368.706982 139.993268 
L 369.193964 140.110161 
L 370.384364 140.790305 
L 370.6752 141.22557 
L 370.999855 141.405026 
L 371.290691 141.588245 
L 371.338036 141.679228 
L 371.554473 142.14274 
L 371.879127 142.251177 
L 372.149673 142.445559 
L 372.724582 142.55759 
L 373.718836 142.931551 
L 373.982618 143.410466 
L 374.124655 143.625827 
L 374.916 143.930148 
L 375.862909 146.340368 
L 376.011709 146.505166 
L 376.187564 146.603151 
L 376.586618 147.107443 
L 376.769236 147.461371 
L 377.060073 147.571116 
L 377.168291 147.755739 
L 377.425309 148.718343 
L 377.986691 149.625229 
L 378.149018 149.904067 
L 378.493964 150.010066 
L 378.7104 150.248779 
L 379.420582 150.48066 
L 379.637018 150.804546 
L 379.914327 151.171249 
L 380.191636 151.521935 
L 381.111491 152.969511 
L 381.3888 153.132553 
L 381.571418 153.273194 
L 382.011055 153.664675 
L 382.180145 153.909633 
L 382.247782 154.002948 
L 382.673891 155.280881 
L 382.741527 155.377539 
L 382.930909 155.753514 
L 383.147345 155.965976 
L 383.593745 156.799546 
L 383.803418 156.977328 
L 384.669164 158.183066 
L 384.750327 158.332045 
L 384.987055 159.00758 
L 385.122327 159.175451 
L 385.291418 159.369745 
L 385.521382 159.599427 
L 385.771636 159.890908 
L 385.818982 159.990124 
L 386.312727 161.397601 
L 386.407418 161.499618 
L 386.576509 161.661079 
L 386.711782 161.799875 
L 386.867345 162.176713 
L 387.185236 163.789444 
L 387.4152 164.306791 
L 387.604582 165.661664 
L 387.766909 165.915683 
L 388.091564 166.185601 
L 388.551491 167.730689 
L 388.598836 167.862407 
L 388.822036 168.270775 
L 388.896436 168.376973 
L 389.146691 169.852946 
L 389.309018 170.241279 
L 389.342836 170.488638 
L 389.4984 171.096245 
L 389.532218 171.207484 
L 389.708073 171.881332 
L 390.059782 172.229965 
L 390.377673 173.721272 
L 390.533236 174.206975 
L 390.682036 174.731517 
L 390.769964 174.8472 
L 391.169018 177.944098 
L 391.845382 179.053168 
L 392.021236 179.210401 
L 392.237673 179.917512 
L 392.312073 180.118702 
L 392.907273 183.022052 
L 393.076364 185.456599 
L 393.211636 185.719345 
L 393.2928 185.833625 
L 393.482182 186.305002 
L 393.576873 186.43818 
L 393.975927 188.480023 
L 394.138255 190.145658 
L 394.199127 190.256001 
L 394.361455 190.584614 
L 394.415564 190.681125 
L 394.679345 191.904324 
L 394.956655 192.510473 
L 395.112218 192.615307 
L 395.247491 192.799814 
L 395.714182 195.323347 
L 395.984727 202.235893 
L 396.390545 205.020492 
L 396.546109 206.009081 
L 396.613745 206.103986 
L 396.999273 209.124522 
L 397.1616 210.729926 
L 397.188655 210.840931 
L 397.290109 214.255552 
L 397.472727 222.601735 
L 397.635055 232.188215 
L 397.892073 242.737704 
L 397.925891 243.503254 
L 398.338473 264.942858 
L 398.480509 295.488 
L 398.480509 295.488 
" clip-path="url(#pf83f46a3b5)" style="fill: none; stroke: #1f77b4; stroke-width: 1.5; stroke-linecap: square"/>
   </g>
   <g id="line2d_17">
    <path d="M 146.223927 59.818326 
L 359.082327 134.793687 
" clip-path="url(#pf83f46a3b5)" style="fill: none; stroke-dasharray: 5.55,2.4; stroke-dashoffset: 0; stroke: #ff7f0e; stroke-width: 1.5"/>
   </g>
   <g id="line2d_18">
    <path d="M 73.832727 128.545557 
L 398.487273 128.545557 
L 398.487273 128.545557 
" clip-path="url(#pf83f46a3b5)" style="fill: none; stroke-dasharray: 5.55,2.4; stroke-dashoffset: 0; stroke: #2ca02c; stroke-width: 1.5"/>
   </g>
   <g id="LineCollection_1">
    <path d="M 359.082327 295.488 
L 359.082327 53.568 
" clip-path="url(#pf83f46a3b5)" style="fill: none; stroke-dasharray: 5.55,2.4; stroke-dashoffset: 0; stroke: #1f77b4; stroke-width: 1.5"/>
   </g>
   <g id="patch_3">
    <path d="M 57.6 307.584 
L 57.6 41.472 
" style="fill: none; stroke: #000000; stroke-width: 0.8; stroke-linejoin: miter; stroke-linecap: square"/>
   </g>
   <g id="patch_4">
    <path d="M 414.72 307.584 
L 414.72 41.472 
" style="fill: none; stroke: #000000; stroke-width: 0.8; stroke-linejoin: miter; stroke-linecap: square"/>
   </g>
   <g id="patch_5">
    <path d="M 57.6 307.584 
L 414.72 307.584 
" style="fill: none; stroke: #000000; stroke-width: 0.8; stroke-linejoin: miter; stroke-linecap: square"/>
   </g>
   <g id="patch_6">
    <path d="M 57.6 41.472 
L 414.72 41.472 
" style="fill: none; stroke: #000000; stroke-width: 0.8; stroke-linejoin: miter; stroke-linecap: square"/>
   </g>
   <g id="text_16">
    <!-- Energy Decay - 2000 Hz -->
    <g transform="translate(163.59 35.472) scale(0.12 -0.12)">
     <defs>
      <path id="DejaVuSans-45" d="M 628 4666 
L 3578 4666 
L 3578 4134 
L 1259 4134 
L 1259 2753 
L 3481 2753 
L 3481 2222 
L 1259 2222 
L 1259 531 
L 3634 531 
L 3634 0 
L 628 0 
L 628 4666 
z
" transform="scale(0.015625)"/>
      <path id="DejaVuSans-6e" d="M 3513 2113 
L 3513 0 
L 2938 0 
L 2938 2094 
Q 2938 2591 2744 2837 
Q 2550 3084 2163 3084 
Q 1697 3084 1428 2787 
Q 1159 2491 1159 1978 
L 1159 0 
L 581 0 
L 581 3500 
L 1159 3500 
L 1159 2956 
Q 1366 3272 1645 3428 
Q 1925 3584 2291 3584 
Q 2894 3584 3203 3211 
Q 3513 2838 3513 2113 
z
" transform="scale(0.015625)"/>
      <path id="DejaVuSans-65" d="M 3597 1894 
L 3597 1613 
L 953 1613 
Q 991 1019 1311 708 
Q 1631 397 2203 397 
Q 2534 397 2845 478 
Q 3156 559 3463 722 
L 3463 178 
Q 3153 47 2828 -22 
Q 2503 -91 2169 -91 
Q 1331 -91 842 396 
Q 353 884 353 1716 
Q 353 2575 817 3079 
Q 1281 3584 2069 3584 
Q 2775 3584 3186 3129 
Q 3597 2675 3597 1894 
z
M 3022 2063 
Q 3016 2534 2758 2815 
Q 2500 3097 2075 3097 
Q 1594 3097 1305 2825 
Q 1016 2553 972 2059 
L 3022 2063 
z
" transform="scale(0.015625)"/>
      <path id="DejaVuSans-72" d="M 2631 2963 
Q 2534 3019 2420 3045 
Q 2306 3072 2169 3072 
Q 1681 3072 1420 2755 
Q 1159 2438 1159 1844 
L 1159 0 
L 581 0 
L 581 3500 
L 1159 3500 
L 1159 2956 
Q 1341 3275 1631 3429 
Q 1922 3584 2338 3584 
Q 2397 3584 2469 3576 
Q 2541 3569 2628 3553 
L 2631 2963 
z
" transform="scale(0.015625)"/>
      <path id="DejaVuSans-67" d="M 2906 1791 
Q 2906 2416 2648 2759 
Q 2391 3103 1925 3103 
Q 1463 3103 1205 2759 
Q 947 2416 947 1791 
Q 947 1169 1205 825 
Q 1463 481 1925 481 
Q 2391 481 2648 825 
Q 2906 1169 2906 1791 
z
M 3481 434 
Q 3481 -459 3084 -895 
Q 2688 -1331 1869 -1331 
Q 1566 -1331 1297 -1286 
Q 1028 -1241 775 -1147 
L 775 -588 
Q 1028 -725 1275 -790 
Q 1522 -856 1778 -856 
Q 2344 -856 2625 -561 
Q 2906 -266 2906 331 
L 2906 616 
Q 2728 306 2450 153 
Q 2172 0 1784 0 
Q 1141 0 747 490 
Q 353 981 353 1791 
Q 353 2603 747 3093 
Q 1141 3584 1784 3584 
Q 2172 3584 2450 3431 
Q 2728 3278 2906 2969 
L 2906 3500 
L 3481 3500 
L 3481 434 
z
" transform="scale(0.015625)"/>
      <path id="DejaVuSans-79" d="M 2059 -325 
Q 1816 -950 1584 -1140 
Q 1353 -1331 966 -1331 
L 506 -1331 
L 506 -850 
L 844 -850 
Q 1081 -850 1212 -737 
Q 1344 -625 1503 -206 
L 1606 56 
L 191 3500 
L 800 3500 
L 1894 763 
L 2988 3500 
L 3597 3500 
L 2059 -325 
z
" transform="scale(0.015625)"/>
      <path id="DejaVuSans-20" transform="scale(0.015625)"/>
      <path id="DejaVuSans-44" d="M 1259 4147 
L 1259 519 
L 2022 519 
Q 2988 519 3436 956 
Q 3884 1394 3884 2338 
Q 3884 3275 3436 3711 
Q 2988 4147 2022 4147 
L 1259 4147 
z
M 628 4666 
L 1925 4666 
Q 3281 4666 3915 4102 
Q 4550 3538 4550 2338 
Q 4550 1131 3912 565 
Q 3275 0 1925 0 
L 628 0 
L 628 4666 
z
" transform="scale(0.015625)"/>
      <path id="DejaVuSans-63" d="M 3122 3366 
L 3122 2828 
Q 2878 2963 2633 3030 
Q 2388 3097 2138 3097 
Q 1578 3097 1268 2742 
Q 959 2388 959 1747 
Q 959 1106 1268 751 
Q 1578 397 2138 397 
Q 2388 397 2633 464 
Q 2878 531 3122 666 
L 3122 134 
Q 2881 22 2623 -34 
Q 2366 -91 2075 -91 
Q 1284 -91 818 406 
Q 353 903 353 1747 
Q 353 2603 823 3093 
Q 1294 3584 2113 3584 
Q 2378 3584 2631 3529 
Q 2884 3475 3122 3366 
z
" transform="scale(0.015625)"/>
      <path id="DejaVuSans-61" d="M 2194 1759 
Q 1497 1759 1228 1600 
Q 959 1441 959 1056 
Q 959 750 1161 570 
Q 1363 391 1709 391 
Q 2188 391 2477 730 
Q 2766 1069 2766 1631 
L 2766 1759 
L 2194 1759 
z
M 3341 1997 
L 3341 0 
L 2766 0 
L 2766 531 
Q 2569 213 2275 61 
Q 1981 -91 1556 -91 
Q 1019 -91 701 211 
Q 384 513 384 1019 
Q 384 1609 779 1909 
Q 1175 2209 1959 2209 
L 2766 2209 
L 2766 2266 
Q 2766 2663 2505 2880 
Q 2244 3097 1772 3097 
Q 1472 3097 1187 3025 
Q 903 2953 641 2809 
L 641 3341 
Q 956 3463 1253 3523 
Q 1550 3584 1831 3584 
Q 2591 3584 2966 3190 
Q 3341 2797 3341 1997 
z
" transform="scale(0.015625)"/>
      <path id="DejaVuSans-2d" d="M 313 2009 
L 1997 2009 
L 1997 1497 
L 313 1497 
L 313 2009 
z
" transform="scale(0.015625)"/>
      <path id="DejaVuSans-48" d="M 628 4666 
L 1259 4666 
L 1259 2753 
L 3553 2753 
L 3553 4666 
L 4184 4666 
L 4184 0 
L 3553 0 
L 3553 2222 
L 1259 2222 
L 1259 0 
L 628 0 
L 628 4666 
z
" transform="scale(0.015625)"/>
      <path id="DejaVuSans-7a" d="M 353 3500 
L 3084 3500 
L 3084 2975 
L 922 459 
L 3084 459 
L 3084 0 
L 275 0 
L 275 525 
L 2438 3041 
L 353 3041 
L 353 3500 
z
" transform="scale(0.015625)"/>
     </defs>
     <use xlink:href="#DejaVuSans-45"/>
     <use xlink:href="#DejaVuSans-6e" transform="translate(63.183594 0)"/>
     <use xlink:href="#DejaVuSans-65" transform="translate(126.5625 0)"/>
     <use xlink:href="#DejaVuSans-72" transform="translate(188.085938 0)"/>
     <use xlink:href="#DejaVuSans-67" transform="translate(227.449219 0)"/>
     <use xlink:href="#DejaVuSans-79" transform="translate(290.925781 0)"/>
     <use xlink:href="#DejaVuSans-20" transform="translate(350.105469 0)"/>
     <use xlink:href="#DejaVuSans-44" transform="translate(381.892578 0)"/>
     <use xlink:href="#DejaVuSans-65" transform="translate(458.894531 0)"/>
     <use xlink:href="#DejaVuSans-63" transform="translate(520.417969 0)"/>
     <use xlink:href="#DejaVuSans-61" transform="translate(575.398438 0)"/>
     <use xlink:href="#DejaVuSans-79" transform="translate(636.677734 0)"/>
     <use xlink:href="#DejaVuSans-20" transform="translate(695.857422 0)"/>
     <use xlink:href="#DejaVuSans-2d" transform="translate(727.644531 0)"/>
     <use xlink:href="#DejaVuSans-20" transform="translate(763.728516 0)"/>
     <use xlink:href="#DejaVuSans-32" transform="translate(795.515625 0)"/>
     <use xlink:href="#DejaVuSans-30" transform="translate(859.138672 0)"/>
     <use xlink:href="#DejaVuSans-30" transform="translate(922.761719 0)"/>
     <use xlink:href="#DejaVuSans-30" transform="translate(986.384766 0)"/>
     <use xlink:href="#DejaVuSans-20" transform="translate(1050.007812 0)"/>
     <use xlink:href="#DejaVuSans-48" transform="translate(1081.794922 0)"/>
     <use xlink:href="#DejaVuSans-7a" transform="translate(1156.990234 0)"/>
    </g>
   </g>
   <g id="legend_1">
    <g id="patch_7">
     <path d="M 296.968437 108.1845 
L 407.72 108.1845 
Q 409.72 108.1845 409.72 106.1845 
L 409.72 48.472 
Q 409.72 46.472 407.72 46.472 
L 296.968437 46.472 
Q 294.968437 46.472 294.968437 48.472 
L 294.968437 106.1845 
Q 294.968437 108.1845 296.968437 108.1845 
z
" style="fill: #ffffff; opacity: 0.8; stroke: #cccccc; stroke-linejoin: miter"/>
    </g>
    <g id="line2d_19">
     <path d="M 298.968437 54.570438 
L 308.968437 54.570438 
L 318.968437 54.570438 
" style="fill: none; stroke: #1f77b4; stroke-width: 1.5; stroke-linecap: square"/>
    </g>
    <g id="text_17">
     <!-- Energy -->
     <g transform="translate(326.968437 58.070438) scale(0.1 -0.1)">
      <use xlink:href="#DejaVuSans-45"/>
      <use xlink:href="#DejaVuSans-6e" transform="translate(63.183594 0)"/>
      <use xlink:href="#DejaVuSans-65" transform="translate(126.5625 0)"/>
      <use xlink:href="#DejaVuSans-72" transform="translate(188.085938 0)"/>
      <use xlink:href="#DejaVuSans-67" transform="translate(227.449219 0)"/>
      <use xlink:href="#DejaVuSans-79" transform="translate(290.925781 0)"/>
     </g>
    </g>
    <g id="line2d_20">
     <path d="M 298.968437 69.248563 
L 308.968437 69.248563 
L 318.968437 69.248563 
" style="fill: none; stroke-dasharray: 5.55,2.4; stroke-dashoffset: 0; stroke: #ff7f0e; stroke-width: 1.5"/>
    </g>
    <g id="text_18">
     <!-- Linear Fit -->
     <g transform="translate(326.968437 72.748563) scale(0.1 -0.1)">
      <defs>
       <path id="DejaVuSans-4c" d="M 628 4666 
L 1259 4666 
L 1259 531 
L 3531 531 
L 3531 0 
L 628 0 
L 628 4666 
z
" transform="scale(0.015625)"/>
       <path id="DejaVuSans-69" d="M 603 3500 
L 1178 3500 
L 1178 0 
L 603 0 
L 603 3500 
z
M 603 4863 
L 1178 4863 
L 1178 4134 
L 603 4134 
L 603 4863 
z
" transform="scale(0.015625)"/>
       <path id="DejaVuSans-46" d="M 628 4666 
L 3309 4666 
L 3309 4134 
L 1259 4134 
L 1259 2759 
L 3109 2759 
L 3109 2228 
L 1259 2228 
L 1259 0 
L 628 0 
L 628 4666 
z
" transform="scale(0.015625)"/>
       <path id="DejaVuSans-74" d="M 1172 4494 
L 1172 3500 
L 2356 3500 
L 2356 3053 
L 1172 3053 
L 1172 1153 
Q 1172 725 1289 603 
Q 1406 481 1766 481 
L 2356 481 
L 2356 0 
L 1766 0 
Q 1100 0 847 248 
Q 594 497 594 1153 
L 594 3053 
L 172 3053 
L 172 3500 
L 594 3500 
L 594 4494 
L 1172 4494 
z
" transform="scale(0.015625)"/>
      </defs>
      <use xlink:href="#DejaVuSans-4c"/>
      <use xlink:href="#DejaVuSans-69" transform="translate(55.712891 0)"/>
      <use xlink:href="#DejaVuSans-6e" transform="translate(83.496094 0)"/>
      <use xlink:href="#DejaVuSans-65" transform="translate(146.875 0)"/>
      <use xlink:href="#DejaVuSans-61" transform="translate(208.398438 0)"/>
      <use xlink:href="#DejaVuSans-72" transform="translate(269.677734 0)"/>
      <use xlink:href="#DejaVuSans-20" transform="translate(310.791016 0)"/>
      <use xlink:href="#DejaVuSans-46" transform="translate(342.578125 0)"/>
      <use xlink:href="#DejaVuSans-69" transform="translate(392.847656 0)"/>
      <use xlink:href="#DejaVuSans-74" transform="translate(420.630859 0)"/>
     </g>
    </g>
    <g id="line2d_21">
     <path d="M 298.968437 83.926688 
L 308.968437 83.926688 
L 318.968437 83.926688 
" style="fill: none; stroke-dasharray: 5.55,2.4; stroke-dashoffset: 0; stroke: #2ca02c; stroke-width: 1.5"/>
    </g>
    <g id="text_19">
     <!-- -60 dB -->
     <g transform="translate(326.968437 87.426688) scale(0.1 -0.1)">
      <defs>
       <path id="DejaVuSans-64" d="M 2906 2969 
L 2906 4863 
L 3481 4863 
L 3481 0 
L 2906 0 
L 2906 525 
Q 2725 213 2448 61 
Q 2172 -91 1784 -91 
Q 1150 -91 751 415 
Q 353 922 353 1747 
Q 353 2572 751 3078 
Q 1150 3584 1784 3584 
Q 2172 3584 2448 3432 
Q 2725 3281 2906 2969 
z
M 947 1747 
Q 947 1113 1208 752 
Q 1469 391 1925 391 
Q 2381 391 2643 752 
Q 2906 1113 2906 1747 
Q 2906 2381 2643 2742 
Q 2381 3103 1925 3103 
Q 1469 3103 1208 2742 
Q 947 2381 947 1747 
z
" transform="scale(0.015625)"/>
       <path id="DejaVuSans-42" d="M 1259 2228 
L 1259 519 
L 2272 519 
Q 2781 519 3026 730 
Q 3272 941 3272 1375 
Q 3272 1813 3026 2020 
Q 2781 2228 2272 2228 
L 1259 2228 
z
M 1259 4147 
L 1259 2741 
L 2194 2741 
Q 2656 2741 2882 2914 
Q 3109 3088 3109 3444 
Q 3109 3797 2882 3972 
Q 2656 4147 2194 4147 
L 1259 4147 
z
M 628 4666 
L 2241 4666 
Q 2963 4666 3353 4366 
Q 3744 4066 3744 3513 
Q 3744 3084 3544 2831 
Q 3344 2578 2956 2516 
Q 3422 2416 3680 2098 
Q 3938 1781 3938 1306 
Q 3938 681 3513 340 
Q 3088 0 2303 0 
L 628 0 
L 628 4666 
z
" transform="scale(0.015625)"/>
      </defs>
      <use xlink:href="#DejaVuSans-2d"/>
      <use xlink:href="#DejaVuSans-36" transform="translate(36.083984 0)"/>
      <use xlink:href="#DejaVuSans-30" transform="translate(99.707031 0)"/>
      <use xlink:href="#DejaVuSans-20" transform="translate(163.330078 0)"/>
      <use xlink:href="#DejaVuSans-64" transform="translate(195.117188 0)"/>
      <use xlink:href="#DejaVuSans-42" transform="translate(258.59375 0)"/>
     </g>
    </g>
    <g id="line2d_22">
     <path d="M 298.968437 98.604813 
L 318.968437 98.604813 
" style="fill: none; stroke-dasharray: 5.55,2.4; stroke-dashoffset: 0; stroke: #1f77b4; stroke-width: 1.5"/>
    </g>
    <g id="text_20">
     <!-- Estimated RT60 -->
     <g transform="translate(326.968437 102.104813) scale(0.1 -0.1)">
      <defs>
       <path id="DejaVuSans-73" d="M 2834 3397 
L 2834 2853 
Q 2591 2978 2328 3040 
Q 2066 3103 1784 3103 
Q 1356 3103 1142 2972 
Q 928 2841 928 2578 
Q 928 2378 1081 2264 
Q 1234 2150 1697 2047 
L 1894 2003 
Q 2506 1872 2764 1633 
Q 3022 1394 3022 966 
Q 3022 478 2636 193 
Q 2250 -91 1575 -91 
Q 1294 -91 989 -36 
Q 684 19 347 128 
L 347 722 
Q 666 556 975 473 
Q 1284 391 1588 391 
Q 1994 391 2212 530 
Q 2431 669 2431 922 
Q 2431 1156 2273 1281 
Q 2116 1406 1581 1522 
L 1381 1569 
Q 847 1681 609 1914 
Q 372 2147 372 2553 
Q 372 3047 722 3315 
Q 1072 3584 1716 3584 
Q 2034 3584 2315 3537 
Q 2597 3491 2834 3397 
z
" transform="scale(0.015625)"/>
       <path id="DejaVuSans-6d" d="M 3328 2828 
Q 3544 3216 3844 3400 
Q 4144 3584 4550 3584 
Q 5097 3584 5394 3201 
Q 5691 2819 5691 2113 
L 5691 0 
L 5113 0 
L 5113 2094 
Q 5113 2597 4934 2840 
Q 4756 3084 4391 3084 
Q 3944 3084 3684 2787 
Q 3425 2491 3425 1978 
L 3425 0 
L 2847 0 
L 2847 2094 
Q 2847 2600 2669 2842 
Q 2491 3084 2119 3084 
Q 1678 3084 1418 2786 
Q 1159 2488 1159 1978 
L 1159 0 
L 581 0 
L 581 3500 
L 1159 3500 
L 1159 2956 
Q 1356 3278 1631 3431 
Q 1906 3584 2284 3584 
Q 2666 3584 2933 3390 
Q 3200 3197 3328 2828 
z
" transform="scale(0.015625)"/>
       <path id="DejaVuSans-52" d="M 2841 2188 
Q 3044 2119 3236 1894 
Q 3428 1669 3622 1275 
L 4263 0 
L 3584 0 
L 2988 1197 
Q 2756 1666 2539 1819 
Q 2322 1972 1947 1972 
L 1259 1972 
L 1259 0 
L 628 0 
L 628 4666 
L 2053 4666 
Q 2853 4666 3247 4331 
Q 3641 3997 3641 3322 
Q 3641 2881 3436 2590 
Q 3231 2300 2841 2188 
z
M 1259 4147 
L 1259 2491 
L 2053 2491 
Q 2509 2491 2742 2702 
Q 2975 2913 2975 3322 
Q 2975 3731 2742 3939 
Q 2509 4147 2053 4147 
L 1259 4147 
z
" transform="scale(0.015625)"/>
       <path id="DejaVuSans-54" d="M -19 4666 
L 3928 4666 
L 3928 4134 
L 2272 4134 
L 2272 0 
L 1638 0 
L 1638 4134 
L -19 4134 
L -19 4666 
z
" transform="scale(0.015625)"/>
      </defs>
      <use xlink:href="#DejaVuSans-45"/>
      <use xlink:href="#DejaVuSans-73" transform="translate(63.183594 0)"/>
      <use xlink:href="#DejaVuSans-74" transform="translate(115.283203 0)"/>
      <use xlink:href="#DejaVuSans-69" transform="translate(154.492188 0)"/>
      <use xlink:href="#DejaVuSans-6d" transform="translate(182.275391 0)"/>
      <use xlink:href="#DejaVuSans-61" transform="translate(279.6875 0)"/>
      <use xlink:href="#DejaVuSans-74" transform="translate(340.966797 0)"/>
      <use xlink:href="#DejaVuSans-65" transform="translate(380.175781 0)"/>
      <use xlink:href="#DejaVuSans-64" transform="translate(441.699219 0)"/>
      <use xlink:href="#DejaVuSans-20" transform="translate(505.175781 0)"/>
      <use xlink:href="#DejaVuSans-52" transform="translate(536.962891 0)"/>
      <use xlink:href="#DejaVuSans-54" transform="translate(599.195312 0)"/>
      <use xlink:href="#DejaVuSans-36" transform="translate(660.279297 0)"/>
      <use xlink:href="#DejaVuSans-30" transform="translate(723.902344 0)"/>
     </g>
    </g>
   </g>
  </g>
 </g>
 <defs>
  <clipPath id="pf83f46a3b5">
   <rect x="57.6" y="41.472" width="357.12" height="266.112"/>
  </clipPath>
 </defs>
</svg>
