<?xml version="1.0" encoding="utf-8" standalone="no"?>
<!DOCTYPE svg PUBLIC "-//W3C//DTD SVG 1.1//EN"
  "http://www.w3.org/Graphics/SVG/1.1/DTD/svg11.dtd">
<svg xmlns:xlink="http://www.w3.org/1999/xlink" width="460.8pt" height="345.6pt" viewBox="0 0 460.8 345.6" xmlns="http://www.w3.org/2000/svg" version="1.1">
 <metadata>
  <rdf:RDF xmlns:dc="http://purl.org/dc/elements/1.1/" xmlns:cc="http://creativecommons.org/ns#" xmlns:rdf="http://www.w3.org/1999/02/22-rdf-syntax-ns#">
   <cc:Work>
    <dc:type rdf:resource="http://purl.org/dc/dcmitype/StillImage"/>
    <dc:date>2025-05-07T11:20:11.973407</dc:date>
    <dc:format>image/svg+xml</dc:format>
    <dc:creator>
     <cc:Agent>
      <dc:title>Matplotlib v3.10.1, https://matplotlib.org/</dc:title>
     </cc:Agent>
    </dc:creator>
   </cc:Work>
  </rdf:RDF>
 </metadata>
 <defs>
  <style type="text/css">*{stroke-linejoin: round; stroke-linecap: butt}</style>
 </defs>
 <g id="figure_1">
  <g id="patch_1">
   <path d="M 0 345.6 
L 460.8 345.6 
L 460.8 0 
L 0 0 
z
" style="fill: #ffffff"/>
  </g>
  <g id="axes_1">
   <g id="patch_2">
    <path d="M 57.6 307.584 
L 414.72 307.584 
L 414.72 41.472 
L 57.6 41.472 
z
" style="fill: #ffffff"/>
   </g>
   <g id="matplotlib.axis_1">
    <g id="xtick_1">
     <g id="line2d_1">
      <defs>
       <path id="mc753574d81" d="M 0 0 
L 0 3.5 
" style="stroke: #000000; stroke-width: 0.8"/>
      </defs>
      <g>
       <use xlink:href="#mc753574d81" x="75.461636" y="307.584" style="stroke: #000000; stroke-width: 0.8"/>
      </g>
     </g>
     <g id="text_1">
      <!-- −0.2 -->
      <g transform="translate(63.32023 322.182437) scale(0.1 -0.1)">
       <defs>
        <path id="DejaVuSans-2212" d="M 678 2272 
L 4684 2272 
L 4684 1741 
L 678 1741 
L 678 2272 
z
" transform="scale(0.015625)"/>
        <path id="DejaVuSans-30" d="M 2034 4250 
Q 1547 4250 1301 3770 
Q 1056 3291 1056 2328 
Q 1056 1369 1301 889 
Q 1547 409 2034 409 
Q 2525 409 2770 889 
Q 3016 1369 3016 2328 
Q 3016 3291 2770 3770 
Q 2525 4250 2034 4250 
z
M 2034 4750 
Q 2819 4750 3233 4129 
Q 3647 3509 3647 2328 
Q 3647 1150 3233 529 
Q 2819 -91 2034 -91 
Q 1250 -91 836 529 
Q 422 1150 422 2328 
Q 422 3509 836 4129 
Q 1250 4750 2034 4750 
z
" transform="scale(0.015625)"/>
        <path id="DejaVuSans-2e" d="M 684 794 
L 1344 794 
L 1344 0 
L 684 0 
L 684 794 
z
" transform="scale(0.015625)"/>
        <path id="DejaVuSans-32" d="M 1228 531 
L 3431 531 
L 3431 0 
L 469 0 
L 469 531 
Q 828 903 1448 1529 
Q 2069 2156 2228 2338 
Q 2531 2678 2651 2914 
Q 2772 3150 2772 3378 
Q 2772 3750 2511 3984 
Q 2250 4219 1831 4219 
Q 1534 4219 1204 4116 
Q 875 4013 500 3803 
L 500 4441 
Q 881 4594 1212 4672 
Q 1544 4750 1819 4750 
Q 2544 4750 2975 4387 
Q 3406 4025 3406 3419 
Q 3406 3131 3298 2873 
Q 3191 2616 2906 2266 
Q 2828 2175 2409 1742 
Q 1991 1309 1228 531 
z
" transform="scale(0.015625)"/>
       </defs>
       <use xlink:href="#DejaVuSans-2212"/>
       <use xlink:href="#DejaVuSans-30" transform="translate(83.789062 0)"/>
       <use xlink:href="#DejaVuSans-2e" transform="translate(147.412109 0)"/>
       <use xlink:href="#DejaVuSans-32" transform="translate(179.199219 0)"/>
      </g>
     </g>
    </g>
    <g id="xtick_2">
     <g id="line2d_2">
      <g>
       <use xlink:href="#mc753574d81" x="129.570727" y="307.584" style="stroke: #000000; stroke-width: 0.8"/>
      </g>
     </g>
     <g id="text_2">
      <!-- 0.0 -->
      <g transform="translate(121.619165 322.182437) scale(0.1 -0.1)">
       <use xlink:href="#DejaVuSans-30"/>
       <use xlink:href="#DejaVuSans-2e" transform="translate(63.623047 0)"/>
       <use xlink:href="#DejaVuSans-30" transform="translate(95.410156 0)"/>
      </g>
     </g>
    </g>
    <g id="xtick_3">
     <g id="line2d_3">
      <g>
       <use xlink:href="#mc753574d81" x="183.679818" y="307.584" style="stroke: #000000; stroke-width: 0.8"/>
      </g>
     </g>
     <g id="text_3">
      <!-- 0.2 -->
      <g transform="translate(175.728256 322.182437) scale(0.1 -0.1)">
       <use xlink:href="#DejaVuSans-30"/>
       <use xlink:href="#DejaVuSans-2e" transform="translate(63.623047 0)"/>
       <use xlink:href="#DejaVuSans-32" transform="translate(95.410156 0)"/>
      </g>
     </g>
    </g>
    <g id="xtick_4">
     <g id="line2d_4">
      <g>
       <use xlink:href="#mc753574d81" x="237.788909" y="307.584" style="stroke: #000000; stroke-width: 0.8"/>
      </g>
     </g>
     <g id="text_4">
      <!-- 0.4 -->
      <g transform="translate(229.837347 322.182437) scale(0.1 -0.1)">
       <defs>
        <path id="DejaVuSans-34" d="M 2419 4116 
L 825 1625 
L 2419 1625 
L 2419 4116 
z
M 2253 4666 
L 3047 4666 
L 3047 1625 
L 3713 1625 
L 3713 1100 
L 3047 1100 
L 3047 0 
L 2419 0 
L 2419 1100 
L 313 1100 
L 313 1709 
L 2253 4666 
z
" transform="scale(0.015625)"/>
       </defs>
       <use xlink:href="#DejaVuSans-30"/>
       <use xlink:href="#DejaVuSans-2e" transform="translate(63.623047 0)"/>
       <use xlink:href="#DejaVuSans-34" transform="translate(95.410156 0)"/>
      </g>
     </g>
    </g>
    <g id="xtick_5">
     <g id="line2d_5">
      <g>
       <use xlink:href="#mc753574d81" x="291.898" y="307.584" style="stroke: #000000; stroke-width: 0.8"/>
      </g>
     </g>
     <g id="text_5">
      <!-- 0.6 -->
      <g transform="translate(283.946438 322.182437) scale(0.1 -0.1)">
       <defs>
        <path id="DejaVuSans-36" d="M 2113 2584 
Q 1688 2584 1439 2293 
Q 1191 2003 1191 1497 
Q 1191 994 1439 701 
Q 1688 409 2113 409 
Q 2538 409 2786 701 
Q 3034 994 3034 1497 
Q 3034 2003 2786 2293 
Q 2538 2584 2113 2584 
z
M 3366 4563 
L 3366 3988 
Q 3128 4100 2886 4159 
Q 2644 4219 2406 4219 
Q 1781 4219 1451 3797 
Q 1122 3375 1075 2522 
Q 1259 2794 1537 2939 
Q 1816 3084 2150 3084 
Q 2853 3084 3261 2657 
Q 3669 2231 3669 1497 
Q 3669 778 3244 343 
Q 2819 -91 2113 -91 
Q 1303 -91 875 529 
Q 447 1150 447 2328 
Q 447 3434 972 4092 
Q 1497 4750 2381 4750 
Q 2619 4750 2861 4703 
Q 3103 4656 3366 4563 
z
" transform="scale(0.015625)"/>
       </defs>
       <use xlink:href="#DejaVuSans-30"/>
       <use xlink:href="#DejaVuSans-2e" transform="translate(63.623047 0)"/>
       <use xlink:href="#DejaVuSans-36" transform="translate(95.410156 0)"/>
      </g>
     </g>
    </g>
    <g id="xtick_6">
     <g id="line2d_6">
      <g>
       <use xlink:href="#mc753574d81" x="346.007091" y="307.584" style="stroke: #000000; stroke-width: 0.8"/>
      </g>
     </g>
     <g id="text_6">
      <!-- 0.8 -->
      <g transform="translate(338.055528 322.182437) scale(0.1 -0.1)">
       <defs>
        <path id="DejaVuSans-38" d="M 2034 2216 
Q 1584 2216 1326 1975 
Q 1069 1734 1069 1313 
Q 1069 891 1326 650 
Q 1584 409 2034 409 
Q 2484 409 2743 651 
Q 3003 894 3003 1313 
Q 3003 1734 2745 1975 
Q 2488 2216 2034 2216 
z
M 1403 2484 
Q 997 2584 770 2862 
Q 544 3141 544 3541 
Q 544 4100 942 4425 
Q 1341 4750 2034 4750 
Q 2731 4750 3128 4425 
Q 3525 4100 3525 3541 
Q 3525 3141 3298 2862 
Q 3072 2584 2669 2484 
Q 3125 2378 3379 2068 
Q 3634 1759 3634 1313 
Q 3634 634 3220 271 
Q 2806 -91 2034 -91 
Q 1263 -91 848 271 
Q 434 634 434 1313 
Q 434 1759 690 2068 
Q 947 2378 1403 2484 
z
M 1172 3481 
Q 1172 3119 1398 2916 
Q 1625 2713 2034 2713 
Q 2441 2713 2670 2916 
Q 2900 3119 2900 3481 
Q 2900 3844 2670 4047 
Q 2441 4250 2034 4250 
Q 1625 4250 1398 4047 
Q 1172 3844 1172 3481 
z
" transform="scale(0.015625)"/>
       </defs>
       <use xlink:href="#DejaVuSans-30"/>
       <use xlink:href="#DejaVuSans-2e" transform="translate(63.623047 0)"/>
       <use xlink:href="#DejaVuSans-38" transform="translate(95.410156 0)"/>
      </g>
     </g>
    </g>
    <g id="xtick_7">
     <g id="line2d_7">
      <g>
       <use xlink:href="#mc753574d81" x="400.116182" y="307.584" style="stroke: #000000; stroke-width: 0.8"/>
      </g>
     </g>
     <g id="text_7">
      <!-- 1.0 -->
      <g transform="translate(392.164619 322.182437) scale(0.1 -0.1)">
       <defs>
        <path id="DejaVuSans-31" d="M 794 531 
L 1825 531 
L 1825 4091 
L 703 3866 
L 703 4441 
L 1819 4666 
L 2450 4666 
L 2450 531 
L 3481 531 
L 3481 0 
L 794 0 
L 794 531 
z
" transform="scale(0.015625)"/>
       </defs>
       <use xlink:href="#DejaVuSans-31"/>
       <use xlink:href="#DejaVuSans-2e" transform="translate(63.623047 0)"/>
       <use xlink:href="#DejaVuSans-30" transform="translate(95.410156 0)"/>
      </g>
     </g>
    </g>
   </g>
   <g id="matplotlib.axis_2">
    <g id="ytick_1">
     <g id="line2d_8">
      <defs>
       <path id="m35e5519c11" d="M 0 0 
L -3.5 0 
" style="stroke: #000000; stroke-width: 0.8"/>
      </defs>
      <g>
       <use xlink:href="#m35e5519c11" x="57.6" y="290.353979" style="stroke: #000000; stroke-width: 0.8"/>
      </g>
     </g>
     <g id="text_8">
      <!-- −175 -->
      <g transform="translate(23.132812 294.153198) scale(0.1 -0.1)">
       <defs>
        <path id="DejaVuSans-37" d="M 525 4666 
L 3525 4666 
L 3525 4397 
L 1831 0 
L 1172 0 
L 2766 4134 
L 525 4134 
L 525 4666 
z
" transform="scale(0.015625)"/>
        <path id="DejaVuSans-35" d="M 691 4666 
L 3169 4666 
L 3169 4134 
L 1269 4134 
L 1269 2991 
Q 1406 3038 1543 3061 
Q 1681 3084 1819 3084 
Q 2600 3084 3056 2656 
Q 3513 2228 3513 1497 
Q 3513 744 3044 326 
Q 2575 -91 1722 -91 
Q 1428 -91 1123 -41 
Q 819 9 494 109 
L 494 744 
Q 775 591 1075 516 
Q 1375 441 1709 441 
Q 2250 441 2565 725 
Q 2881 1009 2881 1497 
Q 2881 1984 2565 2268 
Q 2250 2553 1709 2553 
Q 1456 2553 1204 2497 
Q 953 2441 691 2322 
L 691 4666 
z
" transform="scale(0.015625)"/>
       </defs>
       <use xlink:href="#DejaVuSans-2212"/>
       <use xlink:href="#DejaVuSans-31" transform="translate(83.789062 0)"/>
       <use xlink:href="#DejaVuSans-37" transform="translate(147.412109 0)"/>
       <use xlink:href="#DejaVuSans-35" transform="translate(211.035156 0)"/>
      </g>
     </g>
    </g>
    <g id="ytick_2">
     <g id="line2d_9">
      <g>
       <use xlink:href="#m35e5519c11" x="57.6" y="256.527411" style="stroke: #000000; stroke-width: 0.8"/>
      </g>
     </g>
     <g id="text_9">
      <!-- −150 -->
      <g transform="translate(23.132812 260.326629) scale(0.1 -0.1)">
       <use xlink:href="#DejaVuSans-2212"/>
       <use xlink:href="#DejaVuSans-31" transform="translate(83.789062 0)"/>
       <use xlink:href="#DejaVuSans-35" transform="translate(147.412109 0)"/>
       <use xlink:href="#DejaVuSans-30" transform="translate(211.035156 0)"/>
      </g>
     </g>
    </g>
    <g id="ytick_3">
     <g id="line2d_10">
      <g>
       <use xlink:href="#m35e5519c11" x="57.6" y="222.700842" style="stroke: #000000; stroke-width: 0.8"/>
      </g>
     </g>
     <g id="text_10">
      <!-- −125 -->
      <g transform="translate(23.132812 226.500061) scale(0.1 -0.1)">
       <use xlink:href="#DejaVuSans-2212"/>
       <use xlink:href="#DejaVuSans-31" transform="translate(83.789062 0)"/>
       <use xlink:href="#DejaVuSans-32" transform="translate(147.412109 0)"/>
       <use xlink:href="#DejaVuSans-35" transform="translate(211.035156 0)"/>
      </g>
     </g>
    </g>
    <g id="ytick_4">
     <g id="line2d_11">
      <g>
       <use xlink:href="#m35e5519c11" x="57.6" y="188.874274" style="stroke: #000000; stroke-width: 0.8"/>
      </g>
     </g>
     <g id="text_11">
      <!-- −100 -->
      <g transform="translate(23.132812 192.673493) scale(0.1 -0.1)">
       <use xlink:href="#DejaVuSans-2212"/>
       <use xlink:href="#DejaVuSans-31" transform="translate(83.789062 0)"/>
       <use xlink:href="#DejaVuSans-30" transform="translate(147.412109 0)"/>
       <use xlink:href="#DejaVuSans-30" transform="translate(211.035156 0)"/>
      </g>
     </g>
    </g>
    <g id="ytick_5">
     <g id="line2d_12">
      <g>
       <use xlink:href="#m35e5519c11" x="57.6" y="155.047705" style="stroke: #000000; stroke-width: 0.8"/>
      </g>
     </g>
     <g id="text_12">
      <!-- −75 -->
      <g transform="translate(29.495313 158.846924) scale(0.1 -0.1)">
       <use xlink:href="#DejaVuSans-2212"/>
       <use xlink:href="#DejaVuSans-37" transform="translate(83.789062 0)"/>
       <use xlink:href="#DejaVuSans-35" transform="translate(147.412109 0)"/>
      </g>
     </g>
    </g>
    <g id="ytick_6">
     <g id="line2d_13">
      <g>
       <use xlink:href="#m35e5519c11" x="57.6" y="121.221137" style="stroke: #000000; stroke-width: 0.8"/>
      </g>
     </g>
     <g id="text_13">
      <!-- −50 -->
      <g transform="translate(29.495313 125.020356) scale(0.1 -0.1)">
       <use xlink:href="#DejaVuSans-2212"/>
       <use xlink:href="#DejaVuSans-35" transform="translate(83.789062 0)"/>
       <use xlink:href="#DejaVuSans-30" transform="translate(147.412109 0)"/>
      </g>
     </g>
    </g>
    <g id="ytick_7">
     <g id="line2d_14">
      <g>
       <use xlink:href="#m35e5519c11" x="57.6" y="87.394568" style="stroke: #000000; stroke-width: 0.8"/>
      </g>
     </g>
     <g id="text_14">
      <!-- −25 -->
      <g transform="translate(29.495313 91.193787) scale(0.1 -0.1)">
       <use xlink:href="#DejaVuSans-2212"/>
       <use xlink:href="#DejaVuSans-32" transform="translate(83.789062 0)"/>
       <use xlink:href="#DejaVuSans-35" transform="translate(147.412109 0)"/>
      </g>
     </g>
    </g>
    <g id="ytick_8">
     <g id="line2d_15">
      <g>
       <use xlink:href="#m35e5519c11" x="57.6" y="53.568" style="stroke: #000000; stroke-width: 0.8"/>
      </g>
     </g>
     <g id="text_15">
      <!-- 0 -->
      <g transform="translate(44.2375 57.367219) scale(0.1 -0.1)">
       <use xlink:href="#DejaVuSans-30"/>
      </g>
     </g>
    </g>
   </g>
   <g id="line2d_16">
    <path d="M 73.832727 53.568 
L 118.089455 53.678201 
L 118.252909 53.872761 
L 118.613636 53.942083 
L 118.906727 54.053541 
L 119.058909 54.120841 
L 119.408364 54.235214 
L 119.605636 54.389681 
L 119.842364 54.634928 
L 120.079091 54.745852 
L 120.214364 54.786461 
L 120.428545 54.942691 
L 120.806182 55.112526 
L 121.088 55.223807 
L 121.245818 55.331375 
L 121.386727 55.447691 
L 121.538909 55.51438 
L 121.753091 55.671929 
L 121.927818 55.91317 
L 122.311091 56.168391 
L 122.514 56.352189 
L 123.252364 56.78998 
L 123.404545 56.9236 
L 123.923091 57.123799 
L 124.030182 57.232058 
L 124.340182 57.312644 
L 124.796727 57.456955 
L 125.213818 57.721818 
L 125.366 57.805189 
L 125.647818 57.941021 
L 125.811273 58.027014 
L 126.448182 58.26452 
L 126.645455 58.459869 
L 127.936182 59.469594 
L 128.094 59.564841 
L 128.742182 59.913134 
L 129.164909 60.266454 
L 129.711636 60.417981 
L 130.004727 60.79778 
L 131.515273 61.612338 
L 131.706909 61.827179 
L 132.558 62.153421 
L 132.789091 62.245402 
L 132.946909 62.448739 
L 133.459818 62.491182 
L 134.468727 62.821372 
L 134.711091 62.952692 
L 135.094364 63.068231 
L 135.240909 63.141685 
L 136.069455 63.561686 
L 136.661273 63.678619 
L 136.993818 64.077533 
L 137.377091 64.224231 
L 137.512364 64.259456 
L 137.923818 64.385038 
L 138.115455 64.482324 
L 138.262 64.586755 
L 138.453636 64.754767 
L 139.344182 65.237966 
L 139.614727 65.371104 
L 140.009273 65.81027 
L 140.420727 65.934135 
L 140.843455 66.295519 
L 140.995636 66.435633 
L 141.271818 66.557564 
L 141.626909 66.713728 
L 141.829818 66.841644 
L 142.044 66.950206 
L 142.246909 66.992052 
L 142.376545 67.096489 
L 142.624545 67.307145 
L 142.883818 67.447219 
L 143.114909 67.591222 
L 143.402364 67.705041 
L 143.768727 67.958675 
L 144.377455 68.289605 
L 144.586 68.408904 
L 144.755091 68.478096 
L 145.194727 68.703122 
L 145.392 68.820951 
L 145.702 69.00215 
L 145.871091 69.128108 
L 146.26 69.253186 
L 148.097455 70.639443 
L 148.396182 70.776315 
L 148.554 70.884459 
L 148.841455 71.023312 
L 149.36 71.419439 
L 149.529091 71.543903 
L 149.664364 71.63892 
L 149.923636 71.759889 
L 150.087091 71.888004 
L 150.515455 72.00397 
L 150.656364 72.229177 
L 150.819818 72.353327 
L 150.966364 72.579802 
L 151.197455 72.896254 
L 151.614545 73.103135 
L 151.766727 73.191443 
L 152.77 74.005357 
L 153.316727 74.175393 
L 153.694364 74.418243 
L 153.998727 74.541884 
L 154.229818 74.599452 
L 154.382 74.725822 
L 154.522909 74.859705 
L 154.951273 75.021666 
L 155.165455 75.171093 
L 155.684 75.406989 
L 155.875636 75.433679 
L 156.411091 75.649743 
L 156.608364 75.78933 
L 156.946545 75.952164 
L 157.549636 76.429583 
L 157.746909 76.53664 
L 157.978 76.683131 
L 158.440182 76.792834 
L 158.716364 76.998394 
L 159.088364 77.122521 
L 159.680182 77.541498 
L 160.463636 78.006618 
L 160.677818 78.078942 
L 160.942727 78.184034 
L 161.179455 78.312794 
L 161.528909 78.423151 
L 163.033818 78.905779 
L 163.388909 79.019417 
L 163.563636 79.172904 
L 163.62 79.279605 
L 163.777818 79.431712 
L 164.882545 79.85542 
L 165.017818 79.920094 
L 165.310909 80.038254 
L 165.446182 80.153255 
L 165.666 80.251081 
L 165.902727 80.299653 
L 166.094364 80.444247 
L 166.280364 80.52507 
L 166.652364 80.653083 
L 166.900364 80.793503 
L 167.092 80.908791 
L 167.244182 80.968267 
L 167.683818 81.123404 
L 168.675818 81.850973 
L 168.963273 81.99475 
L 169.132364 82.062702 
L 169.340909 82.111678 
L 169.459273 82.22113 
L 169.617091 82.286172 
L 169.876364 82.401507 
L 170.254 82.818576 
L 170.575273 82.931034 
L 172.192909 83.637353 
L 172.3 83.756266 
L 173.342727 84.351911 
L 173.478 84.443704 
L 173.658364 84.561176 
L 173.821818 84.633846 
L 174.396727 84.758174 
L 175.309818 85.357 
L 175.462 85.548271 
L 175.743818 85.656288 
L 175.924182 85.729483 
L 176.008727 85.838951 
L 176.166545 85.897348 
L 177.451636 86.315238 
L 177.609455 86.390646 
L 178.094182 86.502664 
L 178.764909 86.802931 
L 178.973455 86.918077 
L 179.452545 87.15586 
L 179.649818 87.297845 
L 179.897818 87.400335 
L 180.061273 87.528216 
L 181.132182 87.980388 
L 181.633818 88.124721 
L 181.786 88.189849 
L 182.079091 88.318528 
L 182.439818 88.575243 
L 182.620182 88.653798 
L 183.290909 88.981815 
L 183.522 89.279721 
L 183.708 89.457204 
L 183.871455 89.480194 
L 184.435091 89.590105 
L 184.604182 89.622839 
L 185.094545 89.829467 
L 185.291818 89.963761 
L 185.376364 90.062856 
L 185.545455 90.21344 
L 185.883636 90.321463 
L 186.052727 90.390979 
L 186.379636 90.502251 
L 186.999636 90.702985 
L 187.304 90.926065 
L 187.495636 91.036871 
L 188.352364 91.491353 
L 188.527091 91.600671 
L 188.668 91.726349 
L 188.938545 91.844305 
L 189.124545 91.926075 
L 189.620545 92.100151 
L 190.195455 92.215693 
L 190.449091 92.48419 
L 190.730909 92.599737 
L 191.322727 92.88042 
L 192.636 93.344502 
L 192.833273 93.426846 
L 192.912182 93.543344 
L 193.075636 93.741683 
L 193.210909 93.827049 
L 195.375273 94.930259 
L 195.533091 95.15486 
L 196.040364 95.329875 
L 196.277091 95.69928 
L 196.451818 95.740531 
L 196.716727 95.850782 
L 197.009818 95.958343 
L 197.736909 96.333767 
L 197.934182 96.470379 
L 198.244182 96.719156 
L 198.373818 96.85937 
L 199.044545 97.100115 
L 199.303818 97.434792 
L 199.467273 97.540949 
L 199.608182 97.578612 
L 199.974545 97.67576 
L 200.729818 97.90979 
L 200.989091 98.182396 
L 201.304727 98.304112 
L 201.473818 98.464916 
L 201.75 98.586325 
L 201.919091 98.657197 
L 202.088182 98.816888 
L 202.274182 98.907505 
L 203.018182 99.168753 
L 203.176 99.258605 
L 204.618909 99.686303 
L 204.793636 99.810001 
L 205.594 100.063706 
L 205.746182 100.11235 
L 206.112545 100.23228 
L 206.422545 100.34414 
L 206.597273 100.50491 
L 206.693091 100.616146 
L 207.408909 101.061117 
L 207.566727 101.18272 
L 208.26 101.432606 
L 208.530545 101.503359 
L 208.970182 101.61295 
L 209.139273 101.64888 
L 210.018545 102.386966 
L 210.306 102.581205 
L 210.503273 102.622179 
L 210.694909 102.728915 
L 211.083818 102.991125 
L 211.726364 103.150803 
L 211.996909 103.37409 
L 212.182909 103.481227 
L 212.391455 103.58278 
L 212.735273 103.704906 
L 212.938182 103.840511 
L 213.501818 103.963986 
L 213.800545 104.061873 
L 214.183818 104.235771 
L 214.341636 104.41651 
L 215.220909 104.695633 
L 215.367455 104.752232 
L 216.077636 105.310209 
L 216.218545 105.336554 
L 216.562364 105.445491 
L 217.334545 105.884302 
L 217.554364 106.005127 
L 217.712182 106.162658 
L 217.943273 106.286972 
L 218.506909 106.403682 
L 218.986 106.618737 
L 219.386182 106.788552 
L 219.673636 106.900431 
L 219.966727 106.963885 
L 220.428909 107.138199 
L 220.665636 107.234545 
L 221.156 107.434564 
L 221.516727 107.632456 
L 222.012727 107.847782 
L 222.897636 108.385601 
L 223.106182 108.52137 
L 223.399273 108.714282 
L 225.665091 109.628331 
L 225.952545 109.739678 
L 226.172364 109.776959 
L 226.792364 110.048641 
L 227.310909 110.449322 
L 228.274727 110.944379 
L 228.860909 111.286596 
L 229.148364 111.411681 
L 229.289273 111.478571 
L 229.740182 111.589755 
L 229.909273 111.659387 
L 230.642 111.820182 
L 230.794182 111.964578 
L 231.295818 112.284195 
L 231.504364 112.467117 
L 231.600182 112.568728 
L 231.746727 112.66114 
L 232.039818 112.780522 
L 232.930364 113.069418 
L 233.06 113.162459 
L 234.164727 113.365671 
L 236.582727 114.310816 
L 236.785636 114.405403 
L 239.722182 115.308646 
L 239.902545 115.407682 
L 240.139273 115.524873 
L 240.381636 115.615479 
L 244.710364 117.102867 
L 244.868182 117.212854 
L 245.042909 117.333701 
L 245.691091 117.446997 
L 246.046182 117.616153 
L 246.677455 117.734918 
L 249.033455 118.307504 
L 249.253273 118.567556 
L 250.341091 119.003567 
L 250.583455 119.163687 
L 250.792 119.273224 
L 251.372545 119.527434 
L 252.285636 119.712685 
L 255.628 120.520909 
L 255.876 120.56504 
L 256.050727 120.691838 
L 256.828545 121.00722 
L 257.054 121.135567 
L 257.307636 121.325183 
L 261.405273 122.453224 
L 261.692727 122.552153 
L 262.273273 122.686203 
L 262.498727 122.748861 
L 262.662182 122.863773 
L 262.808727 122.892975 
L 263.609091 123.00173 
L 263.851455 123.03115 
L 264.634909 123.14763 
L 264.99 123.275143 
L 265.514182 123.392726 
L 265.818545 123.45051 
L 266.618909 123.580786 
L 266.878182 123.648952 
L 267.419273 123.754131 
L 267.610909 123.829166 
L 268.377455 123.952871 
L 268.540909 124.000826 
L 269.775273 124.171748 
L 273.224727 125.140964 
L 274.098364 125.314295 
L 274.278727 125.337277 
L 274.966364 125.458639 
L 275.479273 125.601541 
L 276.037273 125.807839 
L 276.268364 125.876988 
L 277.677455 126.193243 
L 277.964909 126.261233 
L 278.545455 126.3823 
L 280.354727 126.786418 
L 280.523818 126.856766 
L 281.527091 127.005837 
L 281.949818 127.053764 
L 282.924909 127.169351 
L 283.133455 127.235973 
L 286.830909 127.833814 
L 287.028182 127.978312 
L 287.321273 128.068256 
L 288.476727 128.213978 
L 288.713455 128.232951 
L 289.536364 128.375418 
L 289.750545 128.445159 
L 290.336727 128.552493 
L 291.402 128.625424 
L 292.337636 128.738247 
L 292.675818 128.775953 
L 293.442364 128.956349 
L 293.679091 129.033503 
L 294.332909 129.144645 
L 294.817636 129.196413 
L 301.124727 130.152028 
L 301.716545 130.258847 
L 301.964545 130.396638 
L 302.996 130.50523 
L 303.266545 130.523389 
L 304.309273 130.633065 
L 305.126545 130.763274 
L 305.802909 130.888567 
L 306.406 130.980359 
L 309.088909 131.382252 
L 309.269273 131.416801 
L 310.622 131.541571 
L 315.587636 132.166512 
L 316.066727 132.211401 
L 320.446182 132.634481 
L 320.840727 132.705129 
L 321.821455 132.823515 
L 323.912545 133.124858 
L 324.092909 133.156631 
L 325.518909 133.299876 
L 328.292 133.72209 
L 328.556909 133.756272 
L 329.813818 133.938973 
L 330.073091 133.958519 
L 330.772 134.069755 
L 332.857455 134.285935 
L 333.308364 134.368364 
L 334.108727 134.478808 
L 334.74 134.547221 
L 335.934909 134.664194 
L 336.115273 134.700672 
L 340.607455 135.298682 
L 340.979455 135.388302 
L 342.760545 135.660151 
L 343.335455 135.705272 
L 344.541636 135.85236 
L 347.996727 136.718068 
L 349.231091 136.847107 
L 349.749636 136.924957 
L 350.228727 136.960176 
L 351.254545 137.078048 
L 351.547636 137.129037 
L 352.308545 137.252365 
L 356.242727 138.156329 
L 356.434364 138.221557 
L 357.110727 138.367499 
L 357.612364 138.510551 
L 358.153455 138.631347 
L 358.401455 138.720902 
L 359.032727 138.831641 
L 359.928909 139.018352 
L 360.475636 139.134451 
L 360.644727 139.185922 
L 360.825091 139.305488 
L 360.971636 139.399472 
L 361.140727 139.512629 
L 361.276 139.625294 
L 361.456364 139.732653 
L 361.980545 139.963202 
L 362.431455 140.090931 
L 362.764 140.233512 
L 363.508 140.345871 
L 363.677091 140.389329 
L 364.015273 140.49945 
L 364.973455 140.880324 
L 365.311636 140.992082 
L 365.497636 141.074907 
L 365.621636 141.213381 
L 365.762545 141.268253 
L 366.478364 141.408656 
L 366.839091 141.544807 
L 367.29 141.798339 
L 368.067818 142.102512 
L 368.276364 142.182528 
L 368.445455 142.306847 
L 368.823091 142.516713 
L 369.764364 143.185309 
L 369.944727 143.219844 
L 370.029273 143.321897 
L 370.170182 143.407345 
L 370.316727 143.522499 
L 370.581636 143.715776 
L 370.767636 144.010773 
L 371.015636 144.122978 
L 371.190364 144.178042 
L 371.568 144.295253 
L 371.737091 144.473574 
L 371.878 144.589861 
L 372.024545 144.686253 
L 372.255636 144.824972 
L 372.537455 144.950545 
L 373.010909 145.09908 
L 373.191273 145.235667 
L 373.433636 145.492759 
L 373.783091 145.637604 
L 374.019818 145.78782 
L 374.273455 145.901575 
L 374.622909 146.066166 
L 375.096364 146.660465 
L 375.214727 146.762878 
L 375.434545 147.094565 
L 375.772727 147.248115 
L 375.924909 147.402021 
L 376.133455 147.598747 
L 376.263091 147.678508 
L 376.567455 148.200566 
L 376.719636 148.563757 
L 376.804182 148.673137 
L 376.973273 148.891203 
L 377.176182 149.061975 
L 377.435455 149.596884 
L 378.681091 150.419941 
L 378.833273 150.614778 
L 379.289818 150.952987 
L 379.504 151.186412 
L 380.315636 151.800678 
L 380.445273 151.986817 
L 380.682 152.559774 
L 381.651455 153.576245 
L 381.916364 154.269526 
L 382.192545 154.41772 
L 382.248909 154.616491 
L 382.384182 154.870345 
L 382.716727 155.217137 
L 382.852 155.309573 
L 382.936545 155.420492 
L 383.224 155.787604 
L 383.319818 155.868764 
L 383.500182 156.230004 
L 383.793273 156.601263 
L 383.872182 156.722719 
L 384.390727 157.978849 
L 384.447091 158.049192 
L 384.65 158.796981 
L 384.757091 158.924022 
L 384.931818 159.517928 
L 385.055818 159.805173 
L 385.326364 160.427345 
L 385.546182 160.885407 
L 385.675818 161.12501 
L 385.754727 161.231037 
L 385.901273 161.375026 
L 385.963273 161.455496 
L 386.256364 162.777405 
L 386.476182 163.272322 
L 386.560727 163.370131 
L 386.972182 164.212978 
L 388.065636 166.820628 
L 388.200909 167.290139 
L 388.268545 167.466691 
L 388.460182 167.985513 
L 388.668727 168.301666 
L 388.815273 168.720626 
L 388.837818 168.806974 
L 389.046364 169.747766 
L 389.068909 169.923183 
L 389.294364 170.602041 
L 390.122909 172.635934 
L 390.370909 172.972263 
L 390.618909 174.218633 
L 390.748545 174.327935 
L 390.799273 174.474772 
L 391.052909 175.349158 
L 391.171273 175.437291 
L 391.402364 176.834658 
L 391.537636 176.954842 
L 391.656 177.06786 
L 392.259091 180.671684 
L 392.619818 181.32018 
L 392.974909 182.938991 
L 393.025636 183.121048 
L 393.200364 184.474913 
L 393.335636 185.735912 
L 393.476545 187.048716 
L 393.566727 187.5618 
L 393.865455 189.779815 
L 394.045818 190.249708 
L 394.243091 190.779503 
L 394.400909 191.301261 
L 394.524909 191.450472 
L 394.868727 193.318732 
L 395.359091 199.621008 
L 395.398545 199.729946 
L 395.449273 200.512993 
L 395.612727 204.775456 
L 395.680364 204.903053 
L 395.770545 206.17519 
L 396.198909 209.076007 
L 396.238364 209.146832 
L 396.525818 212.107335 
L 396.689273 214.815887 
L 396.700545 214.877889 
L 397.405091 234.369001 
L 397.562909 238.958234 
L 397.664364 239.636073 
L 397.923636 248.536023 
L 398.075818 254.773518 
L 398.244909 267.093915 
L 398.301273 269.359073 
L 398.430909 284.390825 
L 398.481636 295.488 
L 398.481636 295.488 
" clip-path="url(#p65860ce41e)" style="fill: none; stroke: #1f77b4; stroke-width: 1.5; stroke-linecap: square"/>
   </g>
   <g id="line2d_17">
    <path d="M 129.570727 60.335093 
L 366.810909 141.517078 
" clip-path="url(#p65860ce41e)" style="fill: none; stroke-dasharray: 5.55,2.4; stroke-dashoffset: 0; stroke: #ff7f0e; stroke-width: 1.5"/>
   </g>
   <g id="line2d_18">
    <path d="M 73.832727 134.751764 
L 398.487273 134.751764 
L 398.487273 134.751764 
" clip-path="url(#p65860ce41e)" style="fill: none; stroke-dasharray: 5.55,2.4; stroke-dashoffset: 0; stroke: #2ca02c; stroke-width: 1.5"/>
   </g>
   <g id="LineCollection_1">
    <path d="M 366.810909 295.488 
L 366.810909 53.568 
" clip-path="url(#p65860ce41e)" style="fill: none; stroke-dasharray: 5.55,2.4; stroke-dashoffset: 0; stroke: #1f77b4; stroke-width: 1.5"/>
   </g>
   <g id="patch_3">
    <path d="M 57.6 307.584 
L 57.6 41.472 
" style="fill: none; stroke: #000000; stroke-width: 0.8; stroke-linejoin: miter; stroke-linecap: square"/>
   </g>
   <g id="patch_4">
    <path d="M 414.72 307.584 
L 414.72 41.472 
" style="fill: none; stroke: #000000; stroke-width: 0.8; stroke-linejoin: miter; stroke-linecap: square"/>
   </g>
   <g id="patch_5">
    <path d="M 57.6 307.584 
L 414.72 307.584 
" style="fill: none; stroke: #000000; stroke-width: 0.8; stroke-linejoin: miter; stroke-linecap: square"/>
   </g>
   <g id="patch_6">
    <path d="M 57.6 41.472 
L 414.72 41.472 
" style="fill: none; stroke: #000000; stroke-width: 0.8; stroke-linejoin: miter; stroke-linecap: square"/>
   </g>
   <g id="text_16">
    <!-- Energy Decay - 4000 Hz -->
    <g transform="translate(163.59 35.472) scale(0.12 -0.12)">
     <defs>
      <path id="DejaVuSans-45" d="M 628 4666 
L 3578 4666 
L 3578 4134 
L 1259 4134 
L 1259 2753 
L 3481 2753 
L 3481 2222 
L 1259 2222 
L 1259 531 
L 3634 531 
L 3634 0 
L 628 0 
L 628 4666 
z
" transform="scale(0.015625)"/>
      <path id="DejaVuSans-6e" d="M 3513 2113 
L 3513 0 
L 2938 0 
L 2938 2094 
Q 2938 2591 2744 2837 
Q 2550 3084 2163 3084 
Q 1697 3084 1428 2787 
Q 1159 2491 1159 1978 
L 1159 0 
L 581 0 
L 581 3500 
L 1159 3500 
L 1159 2956 
Q 1366 3272 1645 3428 
Q 1925 3584 2291 3584 
Q 2894 3584 3203 3211 
Q 3513 2838 3513 2113 
z
" transform="scale(0.015625)"/>
      <path id="DejaVuSans-65" d="M 3597 1894 
L 3597 1613 
L 953 1613 
Q 991 1019 1311 708 
Q 1631 397 2203 397 
Q 2534 397 2845 478 
Q 3156 559 3463 722 
L 3463 178 
Q 3153 47 2828 -22 
Q 2503 -91 2169 -91 
Q 1331 -91 842 396 
Q 353 884 353 1716 
Q 353 2575 817 3079 
Q 1281 3584 2069 3584 
Q 2775 3584 3186 3129 
Q 3597 2675 3597 1894 
z
M 3022 2063 
Q 3016 2534 2758 2815 
Q 2500 3097 2075 3097 
Q 1594 3097 1305 2825 
Q 1016 2553 972 2059 
L 3022 2063 
z
" transform="scale(0.015625)"/>
      <path id="DejaVuSans-72" d="M 2631 2963 
Q 2534 3019 2420 3045 
Q 2306 3072 2169 3072 
Q 1681 3072 1420 2755 
Q 1159 2438 1159 1844 
L 1159 0 
L 581 0 
L 581 3500 
L 1159 3500 
L 1159 2956 
Q 1341 3275 1631 3429 
Q 1922 3584 2338 3584 
Q 2397 3584 2469 3576 
Q 2541 3569 2628 3553 
L 2631 2963 
z
" transform="scale(0.015625)"/>
      <path id="DejaVuSans-67" d="M 2906 1791 
Q 2906 2416 2648 2759 
Q 2391 3103 1925 3103 
Q 1463 3103 1205 2759 
Q 947 2416 947 1791 
Q 947 1169 1205 825 
Q 1463 481 1925 481 
Q 2391 481 2648 825 
Q 2906 1169 2906 1791 
z
M 3481 434 
Q 3481 -459 3084 -895 
Q 2688 -1331 1869 -1331 
Q 1566 -1331 1297 -1286 
Q 1028 -1241 775 -1147 
L 775 -588 
Q 1028 -725 1275 -790 
Q 1522 -856 1778 -856 
Q 2344 -856 2625 -561 
Q 2906 -266 2906 331 
L 2906 616 
Q 2728 306 2450 153 
Q 2172 0 1784 0 
Q 1141 0 747 490 
Q 353 981 353 1791 
Q 353 2603 747 3093 
Q 1141 3584 1784 3584 
Q 2172 3584 2450 3431 
Q 2728 3278 2906 2969 
L 2906 3500 
L 3481 3500 
L 3481 434 
z
" transform="scale(0.015625)"/>
      <path id="DejaVuSans-79" d="M 2059 -325 
Q 1816 -950 1584 -1140 
Q 1353 -1331 966 -1331 
L 506 -1331 
L 506 -850 
L 844 -850 
Q 1081 -850 1212 -737 
Q 1344 -625 1503 -206 
L 1606 56 
L 191 3500 
L 800 3500 
L 1894 763 
L 2988 3500 
L 3597 3500 
L 2059 -325 
z
" transform="scale(0.015625)"/>
      <path id="DejaVuSans-20" transform="scale(0.015625)"/>
      <path id="DejaVuSans-44" d="M 1259 4147 
L 1259 519 
L 2022 519 
Q 2988 519 3436 956 
Q 3884 1394 3884 2338 
Q 3884 3275 3436 3711 
Q 2988 4147 2022 4147 
L 1259 4147 
z
M 628 4666 
L 1925 4666 
Q 3281 4666 3915 4102 
Q 4550 3538 4550 2338 
Q 4550 1131 3912 565 
Q 3275 0 1925 0 
L 628 0 
L 628 4666 
z
" transform="scale(0.015625)"/>
      <path id="DejaVuSans-63" d="M 3122 3366 
L 3122 2828 
Q 2878 2963 2633 3030 
Q 2388 3097 2138 3097 
Q 1578 3097 1268 2742 
Q 959 2388 959 1747 
Q 959 1106 1268 751 
Q 1578 397 2138 397 
Q 2388 397 2633 464 
Q 2878 531 3122 666 
L 3122 134 
Q 2881 22 2623 -34 
Q 2366 -91 2075 -91 
Q 1284 -91 818 406 
Q 353 903 353 1747 
Q 353 2603 823 3093 
Q 1294 3584 2113 3584 
Q 2378 3584 2631 3529 
Q 2884 3475 3122 3366 
z
" transform="scale(0.015625)"/>
      <path id="DejaVuSans-61" d="M 2194 1759 
Q 1497 1759 1228 1600 
Q 959 1441 959 1056 
Q 959 750 1161 570 
Q 1363 391 1709 391 
Q 2188 391 2477 730 
Q 2766 1069 2766 1631 
L 2766 1759 
L 2194 1759 
z
M 3341 1997 
L 3341 0 
L 2766 0 
L 2766 531 
Q 2569 213 2275 61 
Q 1981 -91 1556 -91 
Q 1019 -91 701 211 
Q 384 513 384 1019 
Q 384 1609 779 1909 
Q 1175 2209 1959 2209 
L 2766 2209 
L 2766 2266 
Q 2766 2663 2505 2880 
Q 2244 3097 1772 3097 
Q 1472 3097 1187 3025 
Q 903 2953 641 2809 
L 641 3341 
Q 956 3463 1253 3523 
Q 1550 3584 1831 3584 
Q 2591 3584 2966 3190 
Q 3341 2797 3341 1997 
z
" transform="scale(0.015625)"/>
      <path id="DejaVuSans-2d" d="M 313 2009 
L 1997 2009 
L 1997 1497 
L 313 1497 
L 313 2009 
z
" transform="scale(0.015625)"/>
      <path id="DejaVuSans-48" d="M 628 4666 
L 1259 4666 
L 1259 2753 
L 3553 2753 
L 3553 4666 
L 4184 4666 
L 4184 0 
L 3553 0 
L 3553 2222 
L 1259 2222 
L 1259 0 
L 628 0 
L 628 4666 
z
" transform="scale(0.015625)"/>
      <path id="DejaVuSans-7a" d="M 353 3500 
L 3084 3500 
L 3084 2975 
L 922 459 
L 3084 459 
L 3084 0 
L 275 0 
L 275 525 
L 2438 3041 
L 353 3041 
L 353 3500 
z
" transform="scale(0.015625)"/>
     </defs>
     <use xlink:href="#DejaVuSans-45"/>
     <use xlink:href="#DejaVuSans-6e" transform="translate(63.183594 0)"/>
     <use xlink:href="#DejaVuSans-65" transform="translate(126.5625 0)"/>
     <use xlink:href="#DejaVuSans-72" transform="translate(188.085938 0)"/>
     <use xlink:href="#DejaVuSans-67" transform="translate(227.449219 0)"/>
     <use xlink:href="#DejaVuSans-79" transform="translate(290.925781 0)"/>
     <use xlink:href="#DejaVuSans-20" transform="translate(350.105469 0)"/>
     <use xlink:href="#DejaVuSans-44" transform="translate(381.892578 0)"/>
     <use xlink:href="#DejaVuSans-65" transform="translate(458.894531 0)"/>
     <use xlink:href="#DejaVuSans-63" transform="translate(520.417969 0)"/>
     <use xlink:href="#DejaVuSans-61" transform="translate(575.398438 0)"/>
     <use xlink:href="#DejaVuSans-79" transform="translate(636.677734 0)"/>
     <use xlink:href="#DejaVuSans-20" transform="translate(695.857422 0)"/>
     <use xlink:href="#DejaVuSans-2d" transform="translate(727.644531 0)"/>
     <use xlink:href="#DejaVuSans-20" transform="translate(763.728516 0)"/>
     <use xlink:href="#DejaVuSans-34" transform="translate(795.515625 0)"/>
     <use xlink:href="#DejaVuSans-30" transform="translate(859.138672 0)"/>
     <use xlink:href="#DejaVuSans-30" transform="translate(922.761719 0)"/>
     <use xlink:href="#DejaVuSans-30" transform="translate(986.384766 0)"/>
     <use xlink:href="#DejaVuSans-20" transform="translate(1050.007812 0)"/>
     <use xlink:href="#DejaVuSans-48" transform="translate(1081.794922 0)"/>
     <use xlink:href="#DejaVuSans-7a" transform="translate(1156.990234 0)"/>
    </g>
   </g>
   <g id="legend_1">
    <g id="patch_7">
     <path d="M 296.968437 108.1845 
L 407.72 108.1845 
Q 409.72 108.1845 409.72 106.1845 
L 409.72 48.472 
Q 409.72 46.472 407.72 46.472 
L 296.968437 46.472 
Q 294.968437 46.472 294.968437 48.472 
L 294.968437 106.1845 
Q 294.968437 108.1845 296.968437 108.1845 
z
" style="fill: #ffffff; opacity: 0.8; stroke: #cccccc; stroke-linejoin: miter"/>
    </g>
    <g id="line2d_19">
     <path d="M 298.968437 54.570438 
L 308.968437 54.570438 
L 318.968437 54.570438 
" style="fill: none; stroke: #1f77b4; stroke-width: 1.5; stroke-linecap: square"/>
    </g>
    <g id="text_17">
     <!-- Energy -->
     <g transform="translate(326.968437 58.070438) scale(0.1 -0.1)">
      <use xlink:href="#DejaVuSans-45"/>
      <use xlink:href="#DejaVuSans-6e" transform="translate(63.183594 0)"/>
      <use xlink:href="#DejaVuSans-65" transform="translate(126.5625 0)"/>
      <use xlink:href="#DejaVuSans-72" transform="translate(188.085938 0)"/>
      <use xlink:href="#DejaVuSans-67" transform="translate(227.449219 0)"/>
      <use xlink:href="#DejaVuSans-79" transform="translate(290.925781 0)"/>
     </g>
    </g>
    <g id="line2d_20">
     <path d="M 298.968437 69.248563 
L 308.968437 69.248563 
L 318.968437 69.248563 
" style="fill: none; stroke-dasharray: 5.55,2.4; stroke-dashoffset: 0; stroke: #ff7f0e; stroke-width: 1.5"/>
    </g>
    <g id="text_18">
     <!-- Linear Fit -->
     <g transform="translate(326.968437 72.748563) scale(0.1 -0.1)">
      <defs>
       <path id="DejaVuSans-4c" d="M 628 4666 
L 1259 4666 
L 1259 531 
L 3531 531 
L 3531 0 
L 628 0 
L 628 4666 
z
" transform="scale(0.015625)"/>
       <path id="DejaVuSans-69" d="M 603 3500 
L 1178 3500 
L 1178 0 
L 603 0 
L 603 3500 
z
M 603 4863 
L 1178 4863 
L 1178 4134 
L 603 4134 
L 603 4863 
z
" transform="scale(0.015625)"/>
       <path id="DejaVuSans-46" d="M 628 4666 
L 3309 4666 
L 3309 4134 
L 1259 4134 
L 1259 2759 
L 3109 2759 
L 3109 2228 
L 1259 2228 
L 1259 0 
L 628 0 
L 628 4666 
z
" transform="scale(0.015625)"/>
       <path id="DejaVuSans-74" d="M 1172 4494 
L 1172 3500 
L 2356 3500 
L 2356 3053 
L 1172 3053 
L 1172 1153 
Q 1172 725 1289 603 
Q 1406 481 1766 481 
L 2356 481 
L 2356 0 
L 1766 0 
Q 1100 0 847 248 
Q 594 497 594 1153 
L 594 3053 
L 172 3053 
L 172 3500 
L 594 3500 
L 594 4494 
L 1172 4494 
z
" transform="scale(0.015625)"/>
      </defs>
      <use xlink:href="#DejaVuSans-4c"/>
      <use xlink:href="#DejaVuSans-69" transform="translate(55.712891 0)"/>
      <use xlink:href="#DejaVuSans-6e" transform="translate(83.496094 0)"/>
      <use xlink:href="#DejaVuSans-65" transform="translate(146.875 0)"/>
      <use xlink:href="#DejaVuSans-61" transform="translate(208.398438 0)"/>
      <use xlink:href="#DejaVuSans-72" transform="translate(269.677734 0)"/>
      <use xlink:href="#DejaVuSans-20" transform="translate(310.791016 0)"/>
      <use xlink:href="#DejaVuSans-46" transform="translate(342.578125 0)"/>
      <use xlink:href="#DejaVuSans-69" transform="translate(392.847656 0)"/>
      <use xlink:href="#DejaVuSans-74" transform="translate(420.630859 0)"/>
     </g>
    </g>
    <g id="line2d_21">
     <path d="M 298.968437 83.926688 
L 308.968437 83.926688 
L 318.968437 83.926688 
" style="fill: none; stroke-dasharray: 5.55,2.4; stroke-dashoffset: 0; stroke: #2ca02c; stroke-width: 1.5"/>
    </g>
    <g id="text_19">
     <!-- -60 dB -->
     <g transform="translate(326.968437 87.426688) scale(0.1 -0.1)">
      <defs>
       <path id="DejaVuSans-64" d="M 2906 2969 
L 2906 4863 
L 3481 4863 
L 3481 0 
L 2906 0 
L 2906 525 
Q 2725 213 2448 61 
Q 2172 -91 1784 -91 
Q 1150 -91 751 415 
Q 353 922 353 1747 
Q 353 2572 751 3078 
Q 1150 3584 1784 3584 
Q 2172 3584 2448 3432 
Q 2725 3281 2906 2969 
z
M 947 1747 
Q 947 1113 1208 752 
Q 1469 391 1925 391 
Q 2381 391 2643 752 
Q 2906 1113 2906 1747 
Q 2906 2381 2643 2742 
Q 2381 3103 1925 3103 
Q 1469 3103 1208 2742 
Q 947 2381 947 1747 
z
" transform="scale(0.015625)"/>
       <path id="DejaVuSans-42" d="M 1259 2228 
L 1259 519 
L 2272 519 
Q 2781 519 3026 730 
Q 3272 941 3272 1375 
Q 3272 1813 3026 2020 
Q 2781 2228 2272 2228 
L 1259 2228 
z
M 1259 4147 
L 1259 2741 
L 2194 2741 
Q 2656 2741 2882 2914 
Q 3109 3088 3109 3444 
Q 3109 3797 2882 3972 
Q 2656 4147 2194 4147 
L 1259 4147 
z
M 628 4666 
L 2241 4666 
Q 2963 4666 3353 4366 
Q 3744 4066 3744 3513 
Q 3744 3084 3544 2831 
Q 3344 2578 2956 2516 
Q 3422 2416 3680 2098 
Q 3938 1781 3938 1306 
Q 3938 681 3513 340 
Q 3088 0 2303 0 
L 628 0 
L 628 4666 
z
" transform="scale(0.015625)"/>
      </defs>
      <use xlink:href="#DejaVuSans-2d"/>
      <use xlink:href="#DejaVuSans-36" transform="translate(36.083984 0)"/>
      <use xlink:href="#DejaVuSans-30" transform="translate(99.707031 0)"/>
      <use xlink:href="#DejaVuSans-20" transform="translate(163.330078 0)"/>
      <use xlink:href="#DejaVuSans-64" transform="translate(195.117188 0)"/>
      <use xlink:href="#DejaVuSans-42" transform="translate(258.59375 0)"/>
     </g>
    </g>
    <g id="line2d_22">
     <path d="M 298.968437 98.604813 
L 318.968437 98.604813 
" style="fill: none; stroke-dasharray: 5.55,2.4; stroke-dashoffset: 0; stroke: #1f77b4; stroke-width: 1.5"/>
    </g>
    <g id="text_20">
     <!-- Estimated RT60 -->
     <g transform="translate(326.968437 102.104813) scale(0.1 -0.1)">
      <defs>
       <path id="DejaVuSans-73" d="M 2834 3397 
L 2834 2853 
Q 2591 2978 2328 3040 
Q 2066 3103 1784 3103 
Q 1356 3103 1142 2972 
Q 928 2841 928 2578 
Q 928 2378 1081 2264 
Q 1234 2150 1697 2047 
L 1894 2003 
Q 2506 1872 2764 1633 
Q 3022 1394 3022 966 
Q 3022 478 2636 193 
Q 2250 -91 1575 -91 
Q 1294 -91 989 -36 
Q 684 19 347 128 
L 347 722 
Q 666 556 975 473 
Q 1284 391 1588 391 
Q 1994 391 2212 530 
Q 2431 669 2431 922 
Q 2431 1156 2273 1281 
Q 2116 1406 1581 1522 
L 1381 1569 
Q 847 1681 609 1914 
Q 372 2147 372 2553 
Q 372 3047 722 3315 
Q 1072 3584 1716 3584 
Q 2034 3584 2315 3537 
Q 2597 3491 2834 3397 
z
" transform="scale(0.015625)"/>
       <path id="DejaVuSans-6d" d="M 3328 2828 
Q 3544 3216 3844 3400 
Q 4144 3584 4550 3584 
Q 5097 3584 5394 3201 
Q 5691 2819 5691 2113 
L 5691 0 
L 5113 0 
L 5113 2094 
Q 5113 2597 4934 2840 
Q 4756 3084 4391 3084 
Q 3944 3084 3684 2787 
Q 3425 2491 3425 1978 
L 3425 0 
L 2847 0 
L 2847 2094 
Q 2847 2600 2669 2842 
Q 2491 3084 2119 3084 
Q 1678 3084 1418 2786 
Q 1159 2488 1159 1978 
L 1159 0 
L 581 0 
L 581 3500 
L 1159 3500 
L 1159 2956 
Q 1356 3278 1631 3431 
Q 1906 3584 2284 3584 
Q 2666 3584 2933 3390 
Q 3200 3197 3328 2828 
z
" transform="scale(0.015625)"/>
       <path id="DejaVuSans-52" d="M 2841 2188 
Q 3044 2119 3236 1894 
Q 3428 1669 3622 1275 
L 4263 0 
L 3584 0 
L 2988 1197 
Q 2756 1666 2539 1819 
Q 2322 1972 1947 1972 
L 1259 1972 
L 1259 0 
L 628 0 
L 628 4666 
L 2053 4666 
Q 2853 4666 3247 4331 
Q 3641 3997 3641 3322 
Q 3641 2881 3436 2590 
Q 3231 2300 2841 2188 
z
M 1259 4147 
L 1259 2491 
L 2053 2491 
Q 2509 2491 2742 2702 
Q 2975 2913 2975 3322 
Q 2975 3731 2742 3939 
Q 2509 4147 2053 4147 
L 1259 4147 
z
" transform="scale(0.015625)"/>
       <path id="DejaVuSans-54" d="M -19 4666 
L 3928 4666 
L 3928 4134 
L 2272 4134 
L 2272 0 
L 1638 0 
L 1638 4134 
L -19 4134 
L -19 4666 
z
" transform="scale(0.015625)"/>
      </defs>
      <use xlink:href="#DejaVuSans-45"/>
      <use xlink:href="#DejaVuSans-73" transform="translate(63.183594 0)"/>
      <use xlink:href="#DejaVuSans-74" transform="translate(115.283203 0)"/>
      <use xlink:href="#DejaVuSans-69" transform="translate(154.492188 0)"/>
      <use xlink:href="#DejaVuSans-6d" transform="translate(182.275391 0)"/>
      <use xlink:href="#DejaVuSans-61" transform="translate(279.6875 0)"/>
      <use xlink:href="#DejaVuSans-74" transform="translate(340.966797 0)"/>
      <use xlink:href="#DejaVuSans-65" transform="translate(380.175781 0)"/>
      <use xlink:href="#DejaVuSans-64" transform="translate(441.699219 0)"/>
      <use xlink:href="#DejaVuSans-20" transform="translate(505.175781 0)"/>
      <use xlink:href="#DejaVuSans-52" transform="translate(536.962891 0)"/>
      <use xlink:href="#DejaVuSans-54" transform="translate(599.195312 0)"/>
      <use xlink:href="#DejaVuSans-36" transform="translate(660.279297 0)"/>
      <use xlink:href="#DejaVuSans-30" transform="translate(723.902344 0)"/>
     </g>
    </g>
   </g>
  </g>
 </g>
 <defs>
  <clipPath id="p65860ce41e">
   <rect x="57.6" y="41.472" width="357.12" height="266.112"/>
  </clipPath>
 </defs>
</svg>
