<?xml version="1.0" encoding="utf-8" standalone="no"?>
<!DOCTYPE svg PUBLIC "-//W3C//DTD SVG 1.1//EN"
  "http://www.w3.org/Graphics/SVG/1.1/DTD/svg11.dtd">
<svg xmlns:xlink="http://www.w3.org/1999/xlink" width="460.8pt" height="345.6pt" viewBox="0 0 460.8 345.6" xmlns="http://www.w3.org/2000/svg" version="1.1">
 <metadata>
  <rdf:RDF xmlns:dc="http://purl.org/dc/elements/1.1/" xmlns:cc="http://creativecommons.org/ns#" xmlns:rdf="http://www.w3.org/1999/02/22-rdf-syntax-ns#">
   <cc:Work>
    <dc:type rdf:resource="http://purl.org/dc/dcmitype/StillImage"/>
    <dc:date>2025-05-06T15:01:04.096297</dc:date>
    <dc:format>image/svg+xml</dc:format>
    <dc:creator>
     <cc:Agent>
      <dc:title>Matplotlib v3.10.1, https://matplotlib.org/</dc:title>
     </cc:Agent>
    </dc:creator>
   </cc:Work>
  </rdf:RDF>
 </metadata>
 <defs>
  <style type="text/css">*{stroke-linejoin: round; stroke-linecap: butt}</style>
 </defs>
 <g id="figure_1">
  <g id="patch_1">
   <path d="M 0 345.6 
L 460.8 345.6 
L 460.8 0 
L 0 0 
z
" style="fill: #ffffff"/>
  </g>
  <g id="axes_1">
   <g id="patch_2">
    <path d="M 57.6 307.584 
L 414.72 307.584 
L 414.72 41.472 
L 57.6 41.472 
z
" style="fill: #ffffff"/>
   </g>
   <g id="matplotlib.axis_1">
    <g id="xtick_1">
     <g id="line2d_1">
      <defs>
       <path id="mc6a793e360" d="M 0 0 
L 0 3.5 
" style="stroke: #000000; stroke-width: 0.8"/>
      </defs>
      <g>
       <use xlink:href="#mc6a793e360" x="68.205382" y="307.584" style="stroke: #000000; stroke-width: 0.8"/>
      </g>
     </g>
     <g id="text_1">
      <!-- −0.2 -->
      <g transform="translate(56.063976 322.182437) scale(0.1 -0.1)">
       <defs>
        <path id="DejaVuSans-2212" d="M 678 2272 
L 4684 2272 
L 4684 1741 
L 678 1741 
L 678 2272 
z
" transform="scale(0.015625)"/>
        <path id="DejaVuSans-30" d="M 2034 4250 
Q 1547 4250 1301 3770 
Q 1056 3291 1056 2328 
Q 1056 1369 1301 889 
Q 1547 409 2034 409 
Q 2525 409 2770 889 
Q 3016 1369 3016 2328 
Q 3016 3291 2770 3770 
Q 2525 4250 2034 4250 
z
M 2034 4750 
Q 2819 4750 3233 4129 
Q 3647 3509 3647 2328 
Q 3647 1150 3233 529 
Q 2819 -91 2034 -91 
Q 1250 -91 836 529 
Q 422 1150 422 2328 
Q 422 3509 836 4129 
Q 1250 4750 2034 4750 
z
" transform="scale(0.015625)"/>
        <path id="DejaVuSans-2e" d="M 684 794 
L 1344 794 
L 1344 0 
L 684 0 
L 684 794 
z
" transform="scale(0.015625)"/>
        <path id="DejaVuSans-32" d="M 1228 531 
L 3431 531 
L 3431 0 
L 469 0 
L 469 531 
Q 828 903 1448 1529 
Q 2069 2156 2228 2338 
Q 2531 2678 2651 2914 
Q 2772 3150 2772 3378 
Q 2772 3750 2511 3984 
Q 2250 4219 1831 4219 
Q 1534 4219 1204 4116 
Q 875 4013 500 3803 
L 500 4441 
Q 881 4594 1212 4672 
Q 1544 4750 1819 4750 
Q 2544 4750 2975 4387 
Q 3406 4025 3406 3419 
Q 3406 3131 3298 2873 
Q 3191 2616 2906 2266 
Q 2828 2175 2409 1742 
Q 1991 1309 1228 531 
z
" transform="scale(0.015625)"/>
       </defs>
       <use xlink:href="#DejaVuSans-2212"/>
       <use xlink:href="#DejaVuSans-30" transform="translate(83.789062 0)"/>
       <use xlink:href="#DejaVuSans-2e" transform="translate(147.412109 0)"/>
       <use xlink:href="#DejaVuSans-32" transform="translate(179.199219 0)"/>
      </g>
     </g>
    </g>
    <g id="xtick_2">
     <g id="line2d_2">
      <g>
       <use xlink:href="#mc6a793e360" x="133.136291" y="307.584" style="stroke: #000000; stroke-width: 0.8"/>
      </g>
     </g>
     <g id="text_2">
      <!-- 0.0 -->
      <g transform="translate(125.184728 322.182437) scale(0.1 -0.1)">
       <use xlink:href="#DejaVuSans-30"/>
       <use xlink:href="#DejaVuSans-2e" transform="translate(63.623047 0)"/>
       <use xlink:href="#DejaVuSans-30" transform="translate(95.410156 0)"/>
      </g>
     </g>
    </g>
    <g id="xtick_3">
     <g id="line2d_3">
      <g>
       <use xlink:href="#mc6a793e360" x="198.0672" y="307.584" style="stroke: #000000; stroke-width: 0.8"/>
      </g>
     </g>
     <g id="text_3">
      <!-- 0.2 -->
      <g transform="translate(190.115638 322.182437) scale(0.1 -0.1)">
       <use xlink:href="#DejaVuSans-30"/>
       <use xlink:href="#DejaVuSans-2e" transform="translate(63.623047 0)"/>
       <use xlink:href="#DejaVuSans-32" transform="translate(95.410156 0)"/>
      </g>
     </g>
    </g>
    <g id="xtick_4">
     <g id="line2d_4">
      <g>
       <use xlink:href="#mc6a793e360" x="262.998109" y="307.584" style="stroke: #000000; stroke-width: 0.8"/>
      </g>
     </g>
     <g id="text_4">
      <!-- 0.4 -->
      <g transform="translate(255.046547 322.182437) scale(0.1 -0.1)">
       <defs>
        <path id="DejaVuSans-34" d="M 2419 4116 
L 825 1625 
L 2419 1625 
L 2419 4116 
z
M 2253 4666 
L 3047 4666 
L 3047 1625 
L 3713 1625 
L 3713 1100 
L 3047 1100 
L 3047 0 
L 2419 0 
L 2419 1100 
L 313 1100 
L 313 1709 
L 2253 4666 
z
" transform="scale(0.015625)"/>
       </defs>
       <use xlink:href="#DejaVuSans-30"/>
       <use xlink:href="#DejaVuSans-2e" transform="translate(63.623047 0)"/>
       <use xlink:href="#DejaVuSans-34" transform="translate(95.410156 0)"/>
      </g>
     </g>
    </g>
    <g id="xtick_5">
     <g id="line2d_5">
      <g>
       <use xlink:href="#mc6a793e360" x="327.929018" y="307.584" style="stroke: #000000; stroke-width: 0.8"/>
      </g>
     </g>
     <g id="text_5">
      <!-- 0.6 -->
      <g transform="translate(319.977456 322.182437) scale(0.1 -0.1)">
       <defs>
        <path id="DejaVuSans-36" d="M 2113 2584 
Q 1688 2584 1439 2293 
Q 1191 2003 1191 1497 
Q 1191 994 1439 701 
Q 1688 409 2113 409 
Q 2538 409 2786 701 
Q 3034 994 3034 1497 
Q 3034 2003 2786 2293 
Q 2538 2584 2113 2584 
z
M 3366 4563 
L 3366 3988 
Q 3128 4100 2886 4159 
Q 2644 4219 2406 4219 
Q 1781 4219 1451 3797 
Q 1122 3375 1075 2522 
Q 1259 2794 1537 2939 
Q 1816 3084 2150 3084 
Q 2853 3084 3261 2657 
Q 3669 2231 3669 1497 
Q 3669 778 3244 343 
Q 2819 -91 2113 -91 
Q 1303 -91 875 529 
Q 447 1150 447 2328 
Q 447 3434 972 4092 
Q 1497 4750 2381 4750 
Q 2619 4750 2861 4703 
Q 3103 4656 3366 4563 
z
" transform="scale(0.015625)"/>
       </defs>
       <use xlink:href="#DejaVuSans-30"/>
       <use xlink:href="#DejaVuSans-2e" transform="translate(63.623047 0)"/>
       <use xlink:href="#DejaVuSans-36" transform="translate(95.410156 0)"/>
      </g>
     </g>
    </g>
    <g id="xtick_6">
     <g id="line2d_6">
      <g>
       <use xlink:href="#mc6a793e360" x="392.859927" y="307.584" style="stroke: #000000; stroke-width: 0.8"/>
      </g>
     </g>
     <g id="text_6">
      <!-- 0.8 -->
      <g transform="translate(384.908365 322.182437) scale(0.1 -0.1)">
       <defs>
        <path id="DejaVuSans-38" d="M 2034 2216 
Q 1584 2216 1326 1975 
Q 1069 1734 1069 1313 
Q 1069 891 1326 650 
Q 1584 409 2034 409 
Q 2484 409 2743 651 
Q 3003 894 3003 1313 
Q 3003 1734 2745 1975 
Q 2488 2216 2034 2216 
z
M 1403 2484 
Q 997 2584 770 2862 
Q 544 3141 544 3541 
Q 544 4100 942 4425 
Q 1341 4750 2034 4750 
Q 2731 4750 3128 4425 
Q 3525 4100 3525 3541 
Q 3525 3141 3298 2862 
Q 3072 2584 2669 2484 
Q 3125 2378 3379 2068 
Q 3634 1759 3634 1313 
Q 3634 634 3220 271 
Q 2806 -91 2034 -91 
Q 1263 -91 848 271 
Q 434 634 434 1313 
Q 434 1759 690 2068 
Q 947 2378 1403 2484 
z
M 1172 3481 
Q 1172 3119 1398 2916 
Q 1625 2713 2034 2713 
Q 2441 2713 2670 2916 
Q 2900 3119 2900 3481 
Q 2900 3844 2670 4047 
Q 2441 4250 2034 4250 
Q 1625 4250 1398 4047 
Q 1172 3844 1172 3481 
z
" transform="scale(0.015625)"/>
       </defs>
       <use xlink:href="#DejaVuSans-30"/>
       <use xlink:href="#DejaVuSans-2e" transform="translate(63.623047 0)"/>
       <use xlink:href="#DejaVuSans-38" transform="translate(95.410156 0)"/>
      </g>
     </g>
    </g>
   </g>
   <g id="matplotlib.axis_2">
    <g id="ytick_1">
     <g id="line2d_7">
      <defs>
       <path id="mf861375d75" d="M 0 0 
L -3.5 0 
" style="stroke: #000000; stroke-width: 0.8"/>
      </defs>
      <g>
       <use xlink:href="#mf861375d75" x="57.6" y="297.247193" style="stroke: #000000; stroke-width: 0.8"/>
      </g>
     </g>
     <g id="text_7">
      <!-- −200 -->
      <g transform="translate(23.132812 301.046412) scale(0.1 -0.1)">
       <use xlink:href="#DejaVuSans-2212"/>
       <use xlink:href="#DejaVuSans-32" transform="translate(83.789062 0)"/>
       <use xlink:href="#DejaVuSans-30" transform="translate(147.412109 0)"/>
       <use xlink:href="#DejaVuSans-30" transform="translate(211.035156 0)"/>
      </g>
     </g>
    </g>
    <g id="ytick_2">
     <g id="line2d_8">
      <g>
       <use xlink:href="#mf861375d75" x="57.6" y="266.787294" style="stroke: #000000; stroke-width: 0.8"/>
      </g>
     </g>
     <g id="text_8">
      <!-- −175 -->
      <g transform="translate(23.132812 270.586513) scale(0.1 -0.1)">
       <defs>
        <path id="DejaVuSans-31" d="M 794 531 
L 1825 531 
L 1825 4091 
L 703 3866 
L 703 4441 
L 1819 4666 
L 2450 4666 
L 2450 531 
L 3481 531 
L 3481 0 
L 794 0 
L 794 531 
z
" transform="scale(0.015625)"/>
        <path id="DejaVuSans-37" d="M 525 4666 
L 3525 4666 
L 3525 4397 
L 1831 0 
L 1172 0 
L 2766 4134 
L 525 4134 
L 525 4666 
z
" transform="scale(0.015625)"/>
        <path id="DejaVuSans-35" d="M 691 4666 
L 3169 4666 
L 3169 4134 
L 1269 4134 
L 1269 2991 
Q 1406 3038 1543 3061 
Q 1681 3084 1819 3084 
Q 2600 3084 3056 2656 
Q 3513 2228 3513 1497 
Q 3513 744 3044 326 
Q 2575 -91 1722 -91 
Q 1428 -91 1123 -41 
Q 819 9 494 109 
L 494 744 
Q 775 591 1075 516 
Q 1375 441 1709 441 
Q 2250 441 2565 725 
Q 2881 1009 2881 1497 
Q 2881 1984 2565 2268 
Q 2250 2553 1709 2553 
Q 1456 2553 1204 2497 
Q 953 2441 691 2322 
L 691 4666 
z
" transform="scale(0.015625)"/>
       </defs>
       <use xlink:href="#DejaVuSans-2212"/>
       <use xlink:href="#DejaVuSans-31" transform="translate(83.789062 0)"/>
       <use xlink:href="#DejaVuSans-37" transform="translate(147.412109 0)"/>
       <use xlink:href="#DejaVuSans-35" transform="translate(211.035156 0)"/>
      </g>
     </g>
    </g>
    <g id="ytick_3">
     <g id="line2d_9">
      <g>
       <use xlink:href="#mf861375d75" x="57.6" y="236.327395" style="stroke: #000000; stroke-width: 0.8"/>
      </g>
     </g>
     <g id="text_9">
      <!-- −150 -->
      <g transform="translate(23.132812 240.126614) scale(0.1 -0.1)">
       <use xlink:href="#DejaVuSans-2212"/>
       <use xlink:href="#DejaVuSans-31" transform="translate(83.789062 0)"/>
       <use xlink:href="#DejaVuSans-35" transform="translate(147.412109 0)"/>
       <use xlink:href="#DejaVuSans-30" transform="translate(211.035156 0)"/>
      </g>
     </g>
    </g>
    <g id="ytick_4">
     <g id="line2d_10">
      <g>
       <use xlink:href="#mf861375d75" x="57.6" y="205.867496" style="stroke: #000000; stroke-width: 0.8"/>
      </g>
     </g>
     <g id="text_10">
      <!-- −125 -->
      <g transform="translate(23.132812 209.666715) scale(0.1 -0.1)">
       <use xlink:href="#DejaVuSans-2212"/>
       <use xlink:href="#DejaVuSans-31" transform="translate(83.789062 0)"/>
       <use xlink:href="#DejaVuSans-32" transform="translate(147.412109 0)"/>
       <use xlink:href="#DejaVuSans-35" transform="translate(211.035156 0)"/>
      </g>
     </g>
    </g>
    <g id="ytick_5">
     <g id="line2d_11">
      <g>
       <use xlink:href="#mf861375d75" x="57.6" y="175.407597" style="stroke: #000000; stroke-width: 0.8"/>
      </g>
     </g>
     <g id="text_11">
      <!-- −100 -->
      <g transform="translate(23.132812 179.206815) scale(0.1 -0.1)">
       <use xlink:href="#DejaVuSans-2212"/>
       <use xlink:href="#DejaVuSans-31" transform="translate(83.789062 0)"/>
       <use xlink:href="#DejaVuSans-30" transform="translate(147.412109 0)"/>
       <use xlink:href="#DejaVuSans-30" transform="translate(211.035156 0)"/>
      </g>
     </g>
    </g>
    <g id="ytick_6">
     <g id="line2d_12">
      <g>
       <use xlink:href="#mf861375d75" x="57.6" y="144.947697" style="stroke: #000000; stroke-width: 0.8"/>
      </g>
     </g>
     <g id="text_12">
      <!-- −75 -->
      <g transform="translate(29.495313 148.746916) scale(0.1 -0.1)">
       <use xlink:href="#DejaVuSans-2212"/>
       <use xlink:href="#DejaVuSans-37" transform="translate(83.789062 0)"/>
       <use xlink:href="#DejaVuSans-35" transform="translate(147.412109 0)"/>
      </g>
     </g>
    </g>
    <g id="ytick_7">
     <g id="line2d_13">
      <g>
       <use xlink:href="#mf861375d75" x="57.6" y="114.487798" style="stroke: #000000; stroke-width: 0.8"/>
      </g>
     </g>
     <g id="text_13">
      <!-- −50 -->
      <g transform="translate(29.495313 118.287017) scale(0.1 -0.1)">
       <use xlink:href="#DejaVuSans-2212"/>
       <use xlink:href="#DejaVuSans-35" transform="translate(83.789062 0)"/>
       <use xlink:href="#DejaVuSans-30" transform="translate(147.412109 0)"/>
      </g>
     </g>
    </g>
    <g id="ytick_8">
     <g id="line2d_14">
      <g>
       <use xlink:href="#mf861375d75" x="57.6" y="84.027899" style="stroke: #000000; stroke-width: 0.8"/>
      </g>
     </g>
     <g id="text_14">
      <!-- −25 -->
      <g transform="translate(29.495313 87.827118) scale(0.1 -0.1)">
       <use xlink:href="#DejaVuSans-2212"/>
       <use xlink:href="#DejaVuSans-32" transform="translate(83.789062 0)"/>
       <use xlink:href="#DejaVuSans-35" transform="translate(147.412109 0)"/>
      </g>
     </g>
    </g>
    <g id="ytick_9">
     <g id="line2d_15">
      <g>
       <use xlink:href="#mf861375d75" x="57.6" y="53.568" style="stroke: #000000; stroke-width: 0.8"/>
      </g>
     </g>
     <g id="text_15">
      <!-- 0 -->
      <g transform="translate(44.2375 57.367219) scale(0.1 -0.1)">
       <use xlink:href="#DejaVuSans-30"/>
      </g>
     </g>
    </g>
   </g>
   <g id="line2d_16">
    <path d="M 73.832727 53.568 
L 126.318545 53.631748 
L 126.474109 53.967156 
L 126.7176 54.088629 
L 126.8664 54.382196 
L 127.028727 54.429875 
L 127.427782 54.594529 
L 127.583345 54.875859 
L 127.745673 55.169753 
L 127.880945 55.398891 
L 129.396 56.175735 
L 129.754473 56.786865 
L 129.950618 57.067346 
L 130.309091 57.440722 
L 130.491709 57.713293 
L 130.978691 57.972833 
L 131.249236 58.220574 
L 131.452145 58.356586 
L 131.7024 58.539593 
L 131.9256 58.647125 
L 132.175855 58.750212 
L 132.480218 58.911719 
L 132.750764 59.076636 
L 133.034836 59.388019 
L 133.210691 59.753227 
L 134.0088 60.219113 
L 134.164364 60.316326 
L 134.333455 60.527751 
L 134.407855 60.681494 
L 134.597236 60.877707 
L 134.644582 60.992839 
L 134.867782 61.504456 
L 135.395345 61.718976 
L 135.564436 61.824805 
L 135.747055 62.049807 
L 135.882327 62.161053 
L 136.024364 62.291282 
L 136.159636 62.373592 
L 136.497818 62.485323 
L 136.660145 62.611963 
L 137.005091 62.92551 
L 137.336509 63.071499 
L 137.485309 63.205307 
L 137.613818 63.317309 
L 137.816727 63.527027 
L 138.966545 64.560738 
L 139.264145 64.67252 
L 139.487345 64.817752 
L 139.683491 65.008617 
L 139.825527 65.057011 
L 140.285455 65.216416 
L 140.441018 65.343583 
L 140.711564 65.711813 
L 140.846836 65.826161 
L 141.414982 66.152356 
L 141.584073 66.277397 
L 141.732873 66.447447 
L 142.057527 66.721995 
L 142.1928 66.913324 
L 142.483636 67.004489 
L 142.706836 67.138552 
L 142.835345 67.191976 
L 142.984145 67.290728 
L 143.173527 67.449429 
L 143.586109 67.610985 
L 143.991927 67.753439 
L 144.478909 68.359627 
L 144.620945 68.551393 
L 144.790036 68.725877 
L 145.087636 68.844872 
L 146.230691 69.524604 
L 146.440364 69.594914 
L 147.569891 70.220325 
L 147.711927 70.278061 
L 148.036582 70.385041 
L 148.990255 71.039499 
L 149.193164 71.149732 
L 149.348727 71.22037 
L 150.065673 71.849906 
L 150.214473 72.017654 
L 151.810691 72.71673 
L 151.966255 72.790139 
L 152.216509 72.899425 
L 152.392364 73.006831 
L 152.547927 73.122553 
L 152.730545 73.321117 
L 152.953745 73.433509 
L 153.204 73.675929 
L 153.339273 73.777185 
L 154.563491 74.461725 
L 155.233091 74.747473 
L 155.402182 74.899806 
L 157.120145 75.854186 
L 157.5192 76.158908 
L 157.830327 76.271106 
L 157.931782 76.390527 
L 158.067055 76.47945 
L 158.418764 76.604723 
L 158.587855 76.764585 
L 158.8584 76.936455 
L 159.183055 77.28584 
L 159.947345 77.659078 
L 160.109673 77.846135 
L 160.339636 77.940505 
L 160.644 78.054788 
L 160.833382 78.189367 
L 161.009236 78.383739 
L 161.584145 78.687179 
L 161.800582 78.853163 
L 162.368727 79.047763 
L 162.524291 79.130961 
L 162.774545 79.307908 
L 162.943636 79.43294 
L 163.112727 79.549537 
L 163.187127 79.746031 
L 163.376509 79.913823 
L 163.6944 80.097642 
L 163.829673 80.158768 
L 165.162109 80.86821 
L 165.439418 80.985805 
L 165.912873 81.465552 
L 166.102255 81.585339 
L 166.284873 81.701381 
L 166.778618 81.842827 
L 167.8608 82.251598 
L 168.124582 82.326778 
L 168.483055 82.43486 
L 169.314982 82.927411 
L 169.538182 83.045751 
L 169.727564 83.222961 
L 169.984582 83.33216 
L 170.160436 83.511675 
L 170.424218 83.736245 
L 170.978836 83.88585 
L 171.364364 84.051633 
L 171.567273 84.141043 
L 171.628145 84.231051 
L 171.763418 84.328967 
L 176.349164 87.324407 
L 176.484436 87.387517 
L 176.694109 87.509797 
L 176.930836 87.631293 
L 177.4584 87.770622 
L 177.749236 87.821459 
L 178.932873 88.188586 
L 179.108727 88.338163 
L 179.406327 88.4688 
L 179.656582 88.517952 
L 179.940655 88.667346 
L 180.245018 88.849232 
L 181.022836 89.236411 
L 181.171636 89.34709 
L 182.030618 89.655426 
L 182.165891 89.736431 
L 182.402618 89.94001 
L 182.551418 90.000456 
L 182.909891 90.163008 
L 183.214255 90.366504 
L 184.066473 90.745541 
L 184.201745 90.822406 
L 184.465527 90.996381 
L 184.884873 91.401432 
L 185.162182 91.552954 
L 185.4936 91.787506 
L 185.811491 91.908465 
L 186.528436 92.197663 
L 186.947782 92.360175 
L 187.3536 92.578897 
L 187.7256 92.684305 
L 187.935273 92.776784 
L 188.266691 92.906158 
L 188.489891 93.013284 
L 189.274473 93.258298 
L 189.687055 93.513558 
L 190.464873 93.725233 
L 190.613673 93.923772 
L 191.411782 94.315067 
L 191.574109 94.378371 
L 192.7848 94.670679 
L 193.440873 95.239609 
L 193.664073 95.390714 
L 193.860218 95.520024 
L 194.306618 95.740076 
L 194.529818 95.852222 
L 194.665091 95.958766 
L 194.908582 96.069446 
L 195.672873 96.379465 
L 195.814909 96.453262 
L 196.004291 96.56132 
L 196.166618 96.876841 
L 196.376291 97.027166 
L 196.558909 97.16908 
L 197.079709 97.330978 
L 197.282618 97.481901 
L 198.324218 98.05472 
L 198.459491 98.14985 
L 198.946473 98.259395 
L 199.196727 98.48237 
L 203.491636 100.184809 
L 204.066545 100.418453 
L 204.296509 100.634529 
L 204.458836 100.809569 
L 204.884945 100.972631 
L 205.101382 101.064018 
L 205.466618 101.186322 
L 205.784509 101.251029 
L 206.122691 101.377196 
L 206.379709 101.563843 
L 206.914036 101.950865 
L 207.083127 102.053697 
L 207.319855 102.325482 
L 207.468655 102.420479 
L 207.874473 102.506983 
L 208.131491 102.612072 
L 208.327636 102.680254 
L 208.645527 102.789786 
L 209.004 102.957461 
L 209.457164 103.119713 
L 209.626255 103.161374 
L 209.862982 103.365192 
L 210.032073 103.489284 
L 211.290109 104.216208 
L 211.5336 104.321031 
L 211.7568 104.44862 
L 212.737527 104.695779 
L 212.960727 104.776893 
L 213.089236 104.887511 
L 213.285382 104.975289 
L 213.812945 105.094866 
L 214.421673 105.276185 
L 214.516364 105.373295 
L 214.712509 105.634993 
L 215.050691 105.741763 
L 215.246836 105.800131 
L 215.571491 105.929855 
L 215.814982 106.032053 
L 215.9232 106.140578 
L 216.058473 106.223054 
L 216.714545 106.343135 
L 216.924218 106.503806 
L 217.641164 106.771009 
L 217.972582 107.075959 
L 218.797745 107.359551 
L 219.230618 107.648683 
L 219.582327 107.800325 
L 220.076073 107.942042 
L 220.393964 108.056115 
L 220.563055 108.08889 
L 220.779491 108.201726 
L 220.935055 108.326628 
L 221.185309 108.462952 
L 221.388218 108.537436 
L 221.814327 108.650954 
L 223.383491 109.600545 
L 223.7352 109.716081 
L 223.938109 109.914365 
L 224.168073 110.070806 
L 224.485964 110.189574 
L 224.871491 110.322259 
L 225.561382 110.493652 
L 226.427127 110.614374 
L 226.582691 110.70925 
L 227.204945 110.897974 
L 227.867782 111.226665 
L 228.084218 111.343849 
L 228.253309 111.414091 
L 228.949964 111.526704 
L 229.964509 112.042023 
L 230.275636 112.156201 
L 230.837018 112.366655 
L 230.992582 112.472856 
L 233.062255 113.603138 
L 233.650691 113.719425 
L 235.754182 114.417007 
L 236.281745 114.65192 
L 236.917527 114.76977 
L 237.397745 115.008117 
L 237.614182 115.116407 
L 237.844145 115.167877 
L 238.310836 115.280608 
L 238.534036 115.427315 
L 239.129236 115.546367 
L 239.420073 115.684486 
L 239.866473 115.872586 
L 240.184364 115.987339 
L 240.360218 116.022792 
L 241.415345 116.290769 
L 242.240509 116.40419 
L 242.957455 116.616794 
L 243.126545 116.758466 
L 245.250327 117.26185 
L 245.419418 117.299047 
L 245.872582 117.40171 
L 246.034909 117.437079 
L 246.758618 117.545606 
L 246.981818 117.643055 
L 247.3944 117.760541 
L 247.969309 117.870634 
L 248.726836 117.999554 
L 249.125891 118.085708 
L 249.288218 118.195971 
L 250.045745 118.349869 
L 250.255418 118.476826 
L 250.410982 118.595819 
L 252.000436 119.002341 
L 252.365673 119.152306 
L 253.380218 119.404098 
L 253.752218 119.521269 
L 256.220945 120.046118 
L 256.707927 120.185375 
L 257.1408 120.308656 
L 257.377527 120.416521 
L 257.539855 120.489537 
L 258.304145 120.609172 
L 258.547636 120.675326 
L 259.068436 120.839989 
L 259.2984 120.931016 
L 260.150618 121.100756 
L 260.326473 121.195447 
L 261.0096 121.305469 
L 261.374836 121.500677 
L 262.227055 121.797848 
L 262.754618 121.920942 
L 263.173964 122.036215 
L 266.765455 122.645184 
L 266.968364 122.743079 
L 267.394473 122.847817 
L 267.577091 122.952529 
L 268.118182 123.074859 
L 268.321091 123.107622 
L 269.741455 123.343064 
L 274.124291 124.174386 
L 275.463491 124.377101 
L 276.160145 124.534211 
L 277.573745 124.70632 
L 277.783418 124.829563 
L 278.655927 124.947946 
L 279.440509 125.102675 
L 279.961309 125.270834 
L 280.421236 125.431967 
L 281.544 125.573597 
L 282.051273 125.694521 
L 283.518982 125.938583 
L 283.755709 125.970262 
L 284.716145 126.053616 
L 286.609964 126.21925 
L 287.130764 126.288193 
L 287.9424 126.399202 
L 290.715491 126.838963 
L 292.697236 127.157993 
L 292.900145 127.202657 
L 294.611345 127.411213 
L 294.949527 127.443134 
L 295.9776 127.591732 
L 296.518691 127.638818 
L 297.979636 127.775802 
L 298.710109 127.835883 
L 299.487927 127.949702 
L 300.252218 128.035317 
L 301.226182 128.145373 
L 301.9296 128.194302 
L 303.1944 128.315133 
L 306.961745 128.714025 
L 312.873164 129.326591 
L 313.218109 129.385665 
L 314.394982 129.553164 
L 315.707127 129.665791 
L 331.757236 131.455799 
L 331.899273 131.4821 
L 332.88 131.639161 
L 335.970982 131.986029 
L 336.1536 132.03297 
L 338.5344 132.347271 
L 339.603055 132.47434 
L 339.805964 132.495258 
L 340.759636 132.607651 
L 341.050473 132.647904 
L 342.261164 132.840746 
L 342.497891 132.876425 
L 343.194545 132.996334 
L 344.209091 133.165691 
L 345.027491 133.34521 
L 345.257455 133.394381 
L 346.326109 133.580938 
L 346.610182 133.64159 
L 347.347418 133.753511 
L 347.902036 133.886086 
L 348.436364 133.996624 
L 348.761018 134.041381 
L 349.565891 134.193451 
L 349.782327 134.215214 
L 350.993018 134.34572 
L 351.939927 134.623395 
L 352.122545 134.670921 
L 352.886836 134.783874 
L 353.4144 134.888098 
L 354.016364 135.019505 
L 354.956509 135.246691 
L 355.504364 135.357304 
L 355.754618 135.418427 
L 356.288945 135.584031 
L 356.451273 135.642106 
L 357.262909 135.860329 
L 358.040727 136.012074 
L 358.446545 136.140644 
L 359.907491 136.55476 
L 360.313309 136.670283 
L 360.590618 136.778517 
L 361.733673 137.050395 
L 362.1936 137.202332 
L 367.638327 139.491577 
L 367.780364 139.564402 
L 368.260582 139.686211 
L 368.389091 139.790867 
L 368.558182 139.899926 
L 368.693455 139.954641 
L 368.997818 140.072098 
L 369.146618 140.120047 
L 369.376582 140.231561 
L 369.687709 140.457274 
L 370.0056 140.626348 
L 370.242327 140.784272 
L 370.499345 140.908767 
L 370.634618 140.975228 
L 370.8984 141.110846 
L 371.229818 141.219703 
L 371.622109 141.327024 
L 372.3864 142.120225 
L 372.5352 142.312152 
L 372.893673 142.601713 
L 373.089818 142.85759 
L 373.772945 143.312553 
L 373.982618 143.464549 
L 374.165236 143.573188 
L 374.273455 143.68393 
L 374.740145 144.15399 
L 375.132436 144.323807 
L 375.632945 144.642256 
L 375.917018 144.787093 
L 376.052291 144.898376 
L 376.221382 145.057946 
L 376.363418 145.170949 
L 376.491927 145.280502 
L 376.782764 145.797512 
L 377.026255 145.911508 
L 377.6688 146.338638 
L 377.946109 146.532378 
L 378.176073 146.645445 
L 378.345164 146.950108 
L 378.460145 147.042051 
L 378.615709 147.24819 
L 378.852436 147.397786 
L 379.434109 148.181214 
L 379.853455 148.806833 
L 380.009018 149.165895 
L 380.523055 149.642738 
L 380.658327 149.761196 
L 381.010036 150.15683 
L 381.1656 150.330589 
L 381.598473 151.148563 
L 381.666109 151.265246 
L 381.977236 151.797442 
L 382.369527 152.200594 
L 382.525091 152.576003 
L 382.809164 152.995848 
L 382.964727 153.297111 
L 383.309673 154.007312 
L 383.444945 154.222682 
L 383.654618 154.550345 
L 383.783127 154.789829 
L 383.891345 154.902327 
L 383.952218 155.01076 
L 384.344509 155.978575 
L 384.790909 156.770559 
L 385.027636 157.210909 
L 385.162909 157.371681 
L 385.325236 157.855285 
L 385.589018 158.310313 
L 385.636364 158.46879 
L 385.7784 158.777662 
L 386.278909 159.622709 
L 386.461527 159.733539 
L 386.752364 160.162334 
L 386.921455 160.297941 
L 387.056727 160.482956 
L 387.3408 161.022097 
L 387.374618 161.155574 
L 387.530182 162.032694 
L 387.597818 162.180332 
L 387.793964 162.582275 
L 387.969818 163.068054 
L 388.592073 164.098819 
L 388.774691 164.526396 
L 388.876145 164.654327 
L 389.4984 166.830592 
L 389.626909 167.190667 
L 389.681018 167.288038 
L 389.836582 167.709444 
L 390.235636 168.699631 
L 390.3912 169.75395 
L 390.418255 169.850511 
L 390.546764 170.142486 
L 390.600873 170.340079 
L 390.756436 170.528436 
L 390.864655 170.602577 
L 391.040509 171.451895 
L 391.317818 172.407806 
L 391.453091 172.940966 
L 391.486909 173.124589 
L 391.622182 173.587865 
L 391.676291 173.701441 
L 391.919782 174.679919 
L 392.203855 175.661918 
L 392.406764 176.137411 
L 392.670545 177.668363 
L 392.724655 178.027378 
L 392.927564 179.481279 
L 392.954618 179.547717 
L 393.137236 180.212494 
L 393.225164 180.526077 
L 393.488945 181.898941 
L 393.522764 182.009282 
L 394.097673 184.310602 
L 394.178836 184.412617 
L 394.361455 184.919813 
L 394.510255 186.087987 
L 394.571127 186.236385 
L 394.713164 187.615655 
L 394.868727 188.340329 
L 394.895782 188.732059 
L 395.091927 191.081005 
L 395.281309 191.461806 
L 395.321891 191.59333 
L 395.497745 192.684259 
L 395.585673 194.700491 
L 396.099709 200.581592 
L 396.248509 201.891966 
L 396.647564 208.49034 
L 396.843709 209.225445 
L 397.053382 215.566263 
L 397.093964 216.038835 
L 397.465964 222.697249 
L 397.628291 229.259685 
L 397.716218 230.926235 
L 398.088218 244.221189 
L 398.101745 244.276887 
L 398.230255 256.815704 
L 398.379055 275.659737 
L 398.446691 283.404054 
L 398.480509 295.488 
L 398.480509 295.488 
" clip-path="url(#p905ffb4845)" style="fill: none; stroke: #1f77b4; stroke-width: 1.5; stroke-linecap: square"/>
   </g>
   <g id="line2d_17">
    <path d="M 133.136291 59.676907 
L 341.841818 132.763738 
" clip-path="url(#p905ffb4845)" style="fill: none; stroke-dasharray: 5.55,2.4; stroke-dashoffset: 0; stroke: #ff7f0e; stroke-width: 1.5"/>
   </g>
   <g id="line2d_18">
    <path d="M 73.832727 126.671758 
L 398.487273 126.671758 
L 398.487273 126.671758 
" clip-path="url(#p905ffb4845)" style="fill: none; stroke-dasharray: 5.55,2.4; stroke-dashoffset: 0; stroke: #2ca02c; stroke-width: 1.5"/>
   </g>
   <g id="LineCollection_1">
    <path d="M 341.841818 295.488 
L 341.841818 53.568 
" clip-path="url(#p905ffb4845)" style="fill: none; stroke-dasharray: 5.55,2.4; stroke-dashoffset: 0; stroke: #1f77b4; stroke-width: 1.5"/>
   </g>
   <g id="patch_3">
    <path d="M 57.6 307.584 
L 57.6 41.472 
" style="fill: none; stroke: #000000; stroke-width: 0.8; stroke-linejoin: miter; stroke-linecap: square"/>
   </g>
   <g id="patch_4">
    <path d="M 414.72 307.584 
L 414.72 41.472 
" style="fill: none; stroke: #000000; stroke-width: 0.8; stroke-linejoin: miter; stroke-linecap: square"/>
   </g>
   <g id="patch_5">
    <path d="M 57.6 307.584 
L 414.72 307.584 
" style="fill: none; stroke: #000000; stroke-width: 0.8; stroke-linejoin: miter; stroke-linecap: square"/>
   </g>
   <g id="patch_6">
    <path d="M 57.6 41.472 
L 414.72 41.472 
" style="fill: none; stroke: #000000; stroke-width: 0.8; stroke-linejoin: miter; stroke-linecap: square"/>
   </g>
   <g id="text_16">
    <!-- Energy Decay - 8000 Hz -->
    <g transform="translate(163.59 35.472) scale(0.12 -0.12)">
     <defs>
      <path id="DejaVuSans-45" d="M 628 4666 
L 3578 4666 
L 3578 4134 
L 1259 4134 
L 1259 2753 
L 3481 2753 
L 3481 2222 
L 1259 2222 
L 1259 531 
L 3634 531 
L 3634 0 
L 628 0 
L 628 4666 
z
" transform="scale(0.015625)"/>
      <path id="DejaVuSans-6e" d="M 3513 2113 
L 3513 0 
L 2938 0 
L 2938 2094 
Q 2938 2591 2744 2837 
Q 2550 3084 2163 3084 
Q 1697 3084 1428 2787 
Q 1159 2491 1159 1978 
L 1159 0 
L 581 0 
L 581 3500 
L 1159 3500 
L 1159 2956 
Q 1366 3272 1645 3428 
Q 1925 3584 2291 3584 
Q 2894 3584 3203 3211 
Q 3513 2838 3513 2113 
z
" transform="scale(0.015625)"/>
      <path id="DejaVuSans-65" d="M 3597 1894 
L 3597 1613 
L 953 1613 
Q 991 1019 1311 708 
Q 1631 397 2203 397 
Q 2534 397 2845 478 
Q 3156 559 3463 722 
L 3463 178 
Q 3153 47 2828 -22 
Q 2503 -91 2169 -91 
Q 1331 -91 842 396 
Q 353 884 353 1716 
Q 353 2575 817 3079 
Q 1281 3584 2069 3584 
Q 2775 3584 3186 3129 
Q 3597 2675 3597 1894 
z
M 3022 2063 
Q 3016 2534 2758 2815 
Q 2500 3097 2075 3097 
Q 1594 3097 1305 2825 
Q 1016 2553 972 2059 
L 3022 2063 
z
" transform="scale(0.015625)"/>
      <path id="DejaVuSans-72" d="M 2631 2963 
Q 2534 3019 2420 3045 
Q 2306 3072 2169 3072 
Q 1681 3072 1420 2755 
Q 1159 2438 1159 1844 
L 1159 0 
L 581 0 
L 581 3500 
L 1159 3500 
L 1159 2956 
Q 1341 3275 1631 3429 
Q 1922 3584 2338 3584 
Q 2397 3584 2469 3576 
Q 2541 3569 2628 3553 
L 2631 2963 
z
" transform="scale(0.015625)"/>
      <path id="DejaVuSans-67" d="M 2906 1791 
Q 2906 2416 2648 2759 
Q 2391 3103 1925 3103 
Q 1463 3103 1205 2759 
Q 947 2416 947 1791 
Q 947 1169 1205 825 
Q 1463 481 1925 481 
Q 2391 481 2648 825 
Q 2906 1169 2906 1791 
z
M 3481 434 
Q 3481 -459 3084 -895 
Q 2688 -1331 1869 -1331 
Q 1566 -1331 1297 -1286 
Q 1028 -1241 775 -1147 
L 775 -588 
Q 1028 -725 1275 -790 
Q 1522 -856 1778 -856 
Q 2344 -856 2625 -561 
Q 2906 -266 2906 331 
L 2906 616 
Q 2728 306 2450 153 
Q 2172 0 1784 0 
Q 1141 0 747 490 
Q 353 981 353 1791 
Q 353 2603 747 3093 
Q 1141 3584 1784 3584 
Q 2172 3584 2450 3431 
Q 2728 3278 2906 2969 
L 2906 3500 
L 3481 3500 
L 3481 434 
z
" transform="scale(0.015625)"/>
      <path id="DejaVuSans-79" d="M 2059 -325 
Q 1816 -950 1584 -1140 
Q 1353 -1331 966 -1331 
L 506 -1331 
L 506 -850 
L 844 -850 
Q 1081 -850 1212 -737 
Q 1344 -625 1503 -206 
L 1606 56 
L 191 3500 
L 800 3500 
L 1894 763 
L 2988 3500 
L 3597 3500 
L 2059 -325 
z
" transform="scale(0.015625)"/>
      <path id="DejaVuSans-20" transform="scale(0.015625)"/>
      <path id="DejaVuSans-44" d="M 1259 4147 
L 1259 519 
L 2022 519 
Q 2988 519 3436 956 
Q 3884 1394 3884 2338 
Q 3884 3275 3436 3711 
Q 2988 4147 2022 4147 
L 1259 4147 
z
M 628 4666 
L 1925 4666 
Q 3281 4666 3915 4102 
Q 4550 3538 4550 2338 
Q 4550 1131 3912 565 
Q 3275 0 1925 0 
L 628 0 
L 628 4666 
z
" transform="scale(0.015625)"/>
      <path id="DejaVuSans-63" d="M 3122 3366 
L 3122 2828 
Q 2878 2963 2633 3030 
Q 2388 3097 2138 3097 
Q 1578 3097 1268 2742 
Q 959 2388 959 1747 
Q 959 1106 1268 751 
Q 1578 397 2138 397 
Q 2388 397 2633 464 
Q 2878 531 3122 666 
L 3122 134 
Q 2881 22 2623 -34 
Q 2366 -91 2075 -91 
Q 1284 -91 818 406 
Q 353 903 353 1747 
Q 353 2603 823 3093 
Q 1294 3584 2113 3584 
Q 2378 3584 2631 3529 
Q 2884 3475 3122 3366 
z
" transform="scale(0.015625)"/>
      <path id="DejaVuSans-61" d="M 2194 1759 
Q 1497 1759 1228 1600 
Q 959 1441 959 1056 
Q 959 750 1161 570 
Q 1363 391 1709 391 
Q 2188 391 2477 730 
Q 2766 1069 2766 1631 
L 2766 1759 
L 2194 1759 
z
M 3341 1997 
L 3341 0 
L 2766 0 
L 2766 531 
Q 2569 213 2275 61 
Q 1981 -91 1556 -91 
Q 1019 -91 701 211 
Q 384 513 384 1019 
Q 384 1609 779 1909 
Q 1175 2209 1959 2209 
L 2766 2209 
L 2766 2266 
Q 2766 2663 2505 2880 
Q 2244 3097 1772 3097 
Q 1472 3097 1187 3025 
Q 903 2953 641 2809 
L 641 3341 
Q 956 3463 1253 3523 
Q 1550 3584 1831 3584 
Q 2591 3584 2966 3190 
Q 3341 2797 3341 1997 
z
" transform="scale(0.015625)"/>
      <path id="DejaVuSans-2d" d="M 313 2009 
L 1997 2009 
L 1997 1497 
L 313 1497 
L 313 2009 
z
" transform="scale(0.015625)"/>
      <path id="DejaVuSans-48" d="M 628 4666 
L 1259 4666 
L 1259 2753 
L 3553 2753 
L 3553 4666 
L 4184 4666 
L 4184 0 
L 3553 0 
L 3553 2222 
L 1259 2222 
L 1259 0 
L 628 0 
L 628 4666 
z
" transform="scale(0.015625)"/>
      <path id="DejaVuSans-7a" d="M 353 3500 
L 3084 3500 
L 3084 2975 
L 922 459 
L 3084 459 
L 3084 0 
L 275 0 
L 275 525 
L 2438 3041 
L 353 3041 
L 353 3500 
z
" transform="scale(0.015625)"/>
     </defs>
     <use xlink:href="#DejaVuSans-45"/>
     <use xlink:href="#DejaVuSans-6e" transform="translate(63.183594 0)"/>
     <use xlink:href="#DejaVuSans-65" transform="translate(126.5625 0)"/>
     <use xlink:href="#DejaVuSans-72" transform="translate(188.085938 0)"/>
     <use xlink:href="#DejaVuSans-67" transform="translate(227.449219 0)"/>
     <use xlink:href="#DejaVuSans-79" transform="translate(290.925781 0)"/>
     <use xlink:href="#DejaVuSans-20" transform="translate(350.105469 0)"/>
     <use xlink:href="#DejaVuSans-44" transform="translate(381.892578 0)"/>
     <use xlink:href="#DejaVuSans-65" transform="translate(458.894531 0)"/>
     <use xlink:href="#DejaVuSans-63" transform="translate(520.417969 0)"/>
     <use xlink:href="#DejaVuSans-61" transform="translate(575.398438 0)"/>
     <use xlink:href="#DejaVuSans-79" transform="translate(636.677734 0)"/>
     <use xlink:href="#DejaVuSans-20" transform="translate(695.857422 0)"/>
     <use xlink:href="#DejaVuSans-2d" transform="translate(727.644531 0)"/>
     <use xlink:href="#DejaVuSans-20" transform="translate(763.728516 0)"/>
     <use xlink:href="#DejaVuSans-38" transform="translate(795.515625 0)"/>
     <use xlink:href="#DejaVuSans-30" transform="translate(859.138672 0)"/>
     <use xlink:href="#DejaVuSans-30" transform="translate(922.761719 0)"/>
     <use xlink:href="#DejaVuSans-30" transform="translate(986.384766 0)"/>
     <use xlink:href="#DejaVuSans-20" transform="translate(1050.007812 0)"/>
     <use xlink:href="#DejaVuSans-48" transform="translate(1081.794922 0)"/>
     <use xlink:href="#DejaVuSans-7a" transform="translate(1156.990234 0)"/>
    </g>
   </g>
   <g id="legend_1">
    <g id="patch_7">
     <path d="M 296.968437 108.1845 
L 407.72 108.1845 
Q 409.72 108.1845 409.72 106.1845 
L 409.72 48.472 
Q 409.72 46.472 407.72 46.472 
L 296.968437 46.472 
Q 294.968437 46.472 294.968437 48.472 
L 294.968437 106.1845 
Q 294.968437 108.1845 296.968437 108.1845 
z
" style="fill: #ffffff; opacity: 0.8; stroke: #cccccc; stroke-linejoin: miter"/>
    </g>
    <g id="line2d_19">
     <path d="M 298.968437 54.570438 
L 308.968437 54.570438 
L 318.968437 54.570438 
" style="fill: none; stroke: #1f77b4; stroke-width: 1.5; stroke-linecap: square"/>
    </g>
    <g id="text_17">
     <!-- Energy -->
     <g transform="translate(326.968437 58.070438) scale(0.1 -0.1)">
      <use xlink:href="#DejaVuSans-45"/>
      <use xlink:href="#DejaVuSans-6e" transform="translate(63.183594 0)"/>
      <use xlink:href="#DejaVuSans-65" transform="translate(126.5625 0)"/>
      <use xlink:href="#DejaVuSans-72" transform="translate(188.085938 0)"/>
      <use xlink:href="#DejaVuSans-67" transform="translate(227.449219 0)"/>
      <use xlink:href="#DejaVuSans-79" transform="translate(290.925781 0)"/>
     </g>
    </g>
    <g id="line2d_20">
     <path d="M 298.968437 69.248563 
L 308.968437 69.248563 
L 318.968437 69.248563 
" style="fill: none; stroke-dasharray: 5.55,2.4; stroke-dashoffset: 0; stroke: #ff7f0e; stroke-width: 1.5"/>
    </g>
    <g id="text_18">
     <!-- Linear Fit -->
     <g transform="translate(326.968437 72.748563) scale(0.1 -0.1)">
      <defs>
       <path id="DejaVuSans-4c" d="M 628 4666 
L 1259 4666 
L 1259 531 
L 3531 531 
L 3531 0 
L 628 0 
L 628 4666 
z
" transform="scale(0.015625)"/>
       <path id="DejaVuSans-69" d="M 603 3500 
L 1178 3500 
L 1178 0 
L 603 0 
L 603 3500 
z
M 603 4863 
L 1178 4863 
L 1178 4134 
L 603 4134 
L 603 4863 
z
" transform="scale(0.015625)"/>
       <path id="DejaVuSans-46" d="M 628 4666 
L 3309 4666 
L 3309 4134 
L 1259 4134 
L 1259 2759 
L 3109 2759 
L 3109 2228 
L 1259 2228 
L 1259 0 
L 628 0 
L 628 4666 
z
" transform="scale(0.015625)"/>
       <path id="DejaVuSans-74" d="M 1172 4494 
L 1172 3500 
L 2356 3500 
L 2356 3053 
L 1172 3053 
L 1172 1153 
Q 1172 725 1289 603 
Q 1406 481 1766 481 
L 2356 481 
L 2356 0 
L 1766 0 
Q 1100 0 847 248 
Q 594 497 594 1153 
L 594 3053 
L 172 3053 
L 172 3500 
L 594 3500 
L 594 4494 
L 1172 4494 
z
" transform="scale(0.015625)"/>
      </defs>
      <use xlink:href="#DejaVuSans-4c"/>
      <use xlink:href="#DejaVuSans-69" transform="translate(55.712891 0)"/>
      <use xlink:href="#DejaVuSans-6e" transform="translate(83.496094 0)"/>
      <use xlink:href="#DejaVuSans-65" transform="translate(146.875 0)"/>
      <use xlink:href="#DejaVuSans-61" transform="translate(208.398438 0)"/>
      <use xlink:href="#DejaVuSans-72" transform="translate(269.677734 0)"/>
      <use xlink:href="#DejaVuSans-20" transform="translate(310.791016 0)"/>
      <use xlink:href="#DejaVuSans-46" transform="translate(342.578125 0)"/>
      <use xlink:href="#DejaVuSans-69" transform="translate(392.847656 0)"/>
      <use xlink:href="#DejaVuSans-74" transform="translate(420.630859 0)"/>
     </g>
    </g>
    <g id="line2d_21">
     <path d="M 298.968437 83.926688 
L 308.968437 83.926688 
L 318.968437 83.926688 
" style="fill: none; stroke-dasharray: 5.55,2.4; stroke-dashoffset: 0; stroke: #2ca02c; stroke-width: 1.5"/>
    </g>
    <g id="text_19">
     <!-- -60 dB -->
     <g transform="translate(326.968437 87.426688) scale(0.1 -0.1)">
      <defs>
       <path id="DejaVuSans-64" d="M 2906 2969 
L 2906 4863 
L 3481 4863 
L 3481 0 
L 2906 0 
L 2906 525 
Q 2725 213 2448 61 
Q 2172 -91 1784 -91 
Q 1150 -91 751 415 
Q 353 922 353 1747 
Q 353 2572 751 3078 
Q 1150 3584 1784 3584 
Q 2172 3584 2448 3432 
Q 2725 3281 2906 2969 
z
M 947 1747 
Q 947 1113 1208 752 
Q 1469 391 1925 391 
Q 2381 391 2643 752 
Q 2906 1113 2906 1747 
Q 2906 2381 2643 2742 
Q 2381 3103 1925 3103 
Q 1469 3103 1208 2742 
Q 947 2381 947 1747 
z
" transform="scale(0.015625)"/>
       <path id="DejaVuSans-42" d="M 1259 2228 
L 1259 519 
L 2272 519 
Q 2781 519 3026 730 
Q 3272 941 3272 1375 
Q 3272 1813 3026 2020 
Q 2781 2228 2272 2228 
L 1259 2228 
z
M 1259 4147 
L 1259 2741 
L 2194 2741 
Q 2656 2741 2882 2914 
Q 3109 3088 3109 3444 
Q 3109 3797 2882 3972 
Q 2656 4147 2194 4147 
L 1259 4147 
z
M 628 4666 
L 2241 4666 
Q 2963 4666 3353 4366 
Q 3744 4066 3744 3513 
Q 3744 3084 3544 2831 
Q 3344 2578 2956 2516 
Q 3422 2416 3680 2098 
Q 3938 1781 3938 1306 
Q 3938 681 3513 340 
Q 3088 0 2303 0 
L 628 0 
L 628 4666 
z
" transform="scale(0.015625)"/>
      </defs>
      <use xlink:href="#DejaVuSans-2d"/>
      <use xlink:href="#DejaVuSans-36" transform="translate(36.083984 0)"/>
      <use xlink:href="#DejaVuSans-30" transform="translate(99.707031 0)"/>
      <use xlink:href="#DejaVuSans-20" transform="translate(163.330078 0)"/>
      <use xlink:href="#DejaVuSans-64" transform="translate(195.117188 0)"/>
      <use xlink:href="#DejaVuSans-42" transform="translate(258.59375 0)"/>
     </g>
    </g>
    <g id="line2d_22">
     <path d="M 298.968437 98.604813 
L 318.968437 98.604813 
" style="fill: none; stroke-dasharray: 5.55,2.4; stroke-dashoffset: 0; stroke: #1f77b4; stroke-width: 1.5"/>
    </g>
    <g id="text_20">
     <!-- Estimated RT60 -->
     <g transform="translate(326.968437 102.104813) scale(0.1 -0.1)">
      <defs>
       <path id="DejaVuSans-73" d="M 2834 3397 
L 2834 2853 
Q 2591 2978 2328 3040 
Q 2066 3103 1784 3103 
Q 1356 3103 1142 2972 
Q 928 2841 928 2578 
Q 928 2378 1081 2264 
Q 1234 2150 1697 2047 
L 1894 2003 
Q 2506 1872 2764 1633 
Q 3022 1394 3022 966 
Q 3022 478 2636 193 
Q 2250 -91 1575 -91 
Q 1294 -91 989 -36 
Q 684 19 347 128 
L 347 722 
Q 666 556 975 473 
Q 1284 391 1588 391 
Q 1994 391 2212 530 
Q 2431 669 2431 922 
Q 2431 1156 2273 1281 
Q 2116 1406 1581 1522 
L 1381 1569 
Q 847 1681 609 1914 
Q 372 2147 372 2553 
Q 372 3047 722 3315 
Q 1072 3584 1716 3584 
Q 2034 3584 2315 3537 
Q 2597 3491 2834 3397 
z
" transform="scale(0.015625)"/>
       <path id="DejaVuSans-6d" d="M 3328 2828 
Q 3544 3216 3844 3400 
Q 4144 3584 4550 3584 
Q 5097 3584 5394 3201 
Q 5691 2819 5691 2113 
L 5691 0 
L 5113 0 
L 5113 2094 
Q 5113 2597 4934 2840 
Q 4756 3084 4391 3084 
Q 3944 3084 3684 2787 
Q 3425 2491 3425 1978 
L 3425 0 
L 2847 0 
L 2847 2094 
Q 2847 2600 2669 2842 
Q 2491 3084 2119 3084 
Q 1678 3084 1418 2786 
Q 1159 2488 1159 1978 
L 1159 0 
L 581 0 
L 581 3500 
L 1159 3500 
L 1159 2956 
Q 1356 3278 1631 3431 
Q 1906 3584 2284 3584 
Q 2666 3584 2933 3390 
Q 3200 3197 3328 2828 
z
" transform="scale(0.015625)"/>
       <path id="DejaVuSans-52" d="M 2841 2188 
Q 3044 2119 3236 1894 
Q 3428 1669 3622 1275 
L 4263 0 
L 3584 0 
L 2988 1197 
Q 2756 1666 2539 1819 
Q 2322 1972 1947 1972 
L 1259 1972 
L 1259 0 
L 628 0 
L 628 4666 
L 2053 4666 
Q 2853 4666 3247 4331 
Q 3641 3997 3641 3322 
Q 3641 2881 3436 2590 
Q 3231 2300 2841 2188 
z
M 1259 4147 
L 1259 2491 
L 2053 2491 
Q 2509 2491 2742 2702 
Q 2975 2913 2975 3322 
Q 2975 3731 2742 3939 
Q 2509 4147 2053 4147 
L 1259 4147 
z
" transform="scale(0.015625)"/>
       <path id="DejaVuSans-54" d="M -19 4666 
L 3928 4666 
L 3928 4134 
L 2272 4134 
L 2272 0 
L 1638 0 
L 1638 4134 
L -19 4134 
L -19 4666 
z
" transform="scale(0.015625)"/>
      </defs>
      <use xlink:href="#DejaVuSans-45"/>
      <use xlink:href="#DejaVuSans-73" transform="translate(63.183594 0)"/>
      <use xlink:href="#DejaVuSans-74" transform="translate(115.283203 0)"/>
      <use xlink:href="#DejaVuSans-69" transform="translate(154.492188 0)"/>
      <use xlink:href="#DejaVuSans-6d" transform="translate(182.275391 0)"/>
      <use xlink:href="#DejaVuSans-61" transform="translate(279.6875 0)"/>
      <use xlink:href="#DejaVuSans-74" transform="translate(340.966797 0)"/>
      <use xlink:href="#DejaVuSans-65" transform="translate(380.175781 0)"/>
      <use xlink:href="#DejaVuSans-64" transform="translate(441.699219 0)"/>
      <use xlink:href="#DejaVuSans-20" transform="translate(505.175781 0)"/>
      <use xlink:href="#DejaVuSans-52" transform="translate(536.962891 0)"/>
      <use xlink:href="#DejaVuSans-54" transform="translate(599.195312 0)"/>
      <use xlink:href="#DejaVuSans-36" transform="translate(660.279297 0)"/>
      <use xlink:href="#DejaVuSans-30" transform="translate(723.902344 0)"/>
     </g>
    </g>
   </g>
  </g>
 </g>
 <defs>
  <clipPath id="p905ffb4845">
   <rect x="57.6" y="41.472" width="357.12" height="266.112"/>
  </clipPath>
 </defs>
</svg>
