<?xml version="1.0" encoding="utf-8" standalone="no"?>
<!DOCTYPE svg PUBLIC "-//W3C//DTD SVG 1.1//EN"
  "http://www.w3.org/Graphics/SVG/1.1/DTD/svg11.dtd">
<svg xmlns:xlink="http://www.w3.org/1999/xlink" width="460.8pt" height="345.6pt" viewBox="0 0 460.8 345.6" xmlns="http://www.w3.org/2000/svg" version="1.1">
 <metadata>
  <rdf:RDF xmlns:dc="http://purl.org/dc/elements/1.1/" xmlns:cc="http://creativecommons.org/ns#" xmlns:rdf="http://www.w3.org/1999/02/22-rdf-syntax-ns#">
   <cc:Work>
    <dc:type rdf:resource="http://purl.org/dc/dcmitype/StillImage"/>
    <dc:date>2025-05-06T13:32:41.482617</dc:date>
    <dc:format>image/svg+xml</dc:format>
    <dc:creator>
     <cc:Agent>
      <dc:title>Matplotlib v3.10.1, https://matplotlib.org/</dc:title>
     </cc:Agent>
    </dc:creator>
   </cc:Work>
  </rdf:RDF>
 </metadata>
 <defs>
  <style type="text/css">*{stroke-linejoin: round; stroke-linecap: butt}</style>
 </defs>
 <g id="figure_1">
  <g id="patch_1">
   <path d="M 0 345.6 
L 460.8 345.6 
L 460.8 0 
L 0 0 
z
" style="fill: #ffffff"/>
  </g>
  <g id="axes_1">
   <g id="patch_2">
    <path d="M 57.6 307.584 
L 414.72 307.584 
L 414.72 41.472 
L 57.6 41.472 
z
" style="fill: #ffffff"/>
   </g>
   <g id="matplotlib.axis_1">
    <g id="xtick_1">
     <g id="line2d_1">
      <defs>
       <path id="m655ab3f271" d="M 0 0 
L 0 3.5 
" style="stroke: #000000; stroke-width: 0.8"/>
      </defs>
      <g>
       <use xlink:href="#m655ab3f271" x="64.938545" y="307.584" style="stroke: #000000; stroke-width: 0.8"/>
      </g>
     </g>
     <g id="text_1">
      <!-- −0.2 -->
      <g transform="translate(52.797139 322.182437) scale(0.1 -0.1)">
       <defs>
        <path id="DejaVuSans-2212" d="M 678 2272 
L 4684 2272 
L 4684 1741 
L 678 1741 
L 678 2272 
z
" transform="scale(0.015625)"/>
        <path id="DejaVuSans-30" d="M 2034 4250 
Q 1547 4250 1301 3770 
Q 1056 3291 1056 2328 
Q 1056 1369 1301 889 
Q 1547 409 2034 409 
Q 2525 409 2770 889 
Q 3016 1369 3016 2328 
Q 3016 3291 2770 3770 
Q 2525 4250 2034 4250 
z
M 2034 4750 
Q 2819 4750 3233 4129 
Q 3647 3509 3647 2328 
Q 3647 1150 3233 529 
Q 2819 -91 2034 -91 
Q 1250 -91 836 529 
Q 422 1150 422 2328 
Q 422 3509 836 4129 
Q 1250 4750 2034 4750 
z
" transform="scale(0.015625)"/>
        <path id="DejaVuSans-2e" d="M 684 794 
L 1344 794 
L 1344 0 
L 684 0 
L 684 794 
z
" transform="scale(0.015625)"/>
        <path id="DejaVuSans-32" d="M 1228 531 
L 3431 531 
L 3431 0 
L 469 0 
L 469 531 
Q 828 903 1448 1529 
Q 2069 2156 2228 2338 
Q 2531 2678 2651 2914 
Q 2772 3150 2772 3378 
Q 2772 3750 2511 3984 
Q 2250 4219 1831 4219 
Q 1534 4219 1204 4116 
Q 875 4013 500 3803 
L 500 4441 
Q 881 4594 1212 4672 
Q 1544 4750 1819 4750 
Q 2544 4750 2975 4387 
Q 3406 4025 3406 3419 
Q 3406 3131 3298 2873 
Q 3191 2616 2906 2266 
Q 2828 2175 2409 1742 
Q 1991 1309 1228 531 
z
" transform="scale(0.015625)"/>
       </defs>
       <use xlink:href="#DejaVuSans-2212"/>
       <use xlink:href="#DejaVuSans-30" transform="translate(83.789062 0)"/>
       <use xlink:href="#DejaVuSans-2e" transform="translate(147.412109 0)"/>
       <use xlink:href="#DejaVuSans-32" transform="translate(179.199219 0)"/>
      </g>
     </g>
    </g>
    <g id="xtick_2">
     <g id="line2d_2">
      <g>
       <use xlink:href="#m655ab3f271" x="119.047636" y="307.584" style="stroke: #000000; stroke-width: 0.8"/>
      </g>
     </g>
     <g id="text_2">
      <!-- −0.1 -->
      <g transform="translate(106.90623 322.182437) scale(0.1 -0.1)">
       <defs>
        <path id="DejaVuSans-31" d="M 794 531 
L 1825 531 
L 1825 4091 
L 703 3866 
L 703 4441 
L 1819 4666 
L 2450 4666 
L 2450 531 
L 3481 531 
L 3481 0 
L 794 0 
L 794 531 
z
" transform="scale(0.015625)"/>
       </defs>
       <use xlink:href="#DejaVuSans-2212"/>
       <use xlink:href="#DejaVuSans-30" transform="translate(83.789062 0)"/>
       <use xlink:href="#DejaVuSans-2e" transform="translate(147.412109 0)"/>
       <use xlink:href="#DejaVuSans-31" transform="translate(179.199219 0)"/>
      </g>
     </g>
    </g>
    <g id="xtick_3">
     <g id="line2d_3">
      <g>
       <use xlink:href="#m655ab3f271" x="173.156727" y="307.584" style="stroke: #000000; stroke-width: 0.8"/>
      </g>
     </g>
     <g id="text_3">
      <!-- 0.0 -->
      <g transform="translate(165.205165 322.182437) scale(0.1 -0.1)">
       <use xlink:href="#DejaVuSans-30"/>
       <use xlink:href="#DejaVuSans-2e" transform="translate(63.623047 0)"/>
       <use xlink:href="#DejaVuSans-30" transform="translate(95.410156 0)"/>
      </g>
     </g>
    </g>
    <g id="xtick_4">
     <g id="line2d_4">
      <g>
       <use xlink:href="#m655ab3f271" x="227.265818" y="307.584" style="stroke: #000000; stroke-width: 0.8"/>
      </g>
     </g>
     <g id="text_4">
      <!-- 0.1 -->
      <g transform="translate(219.314256 322.182437) scale(0.1 -0.1)">
       <use xlink:href="#DejaVuSans-30"/>
       <use xlink:href="#DejaVuSans-2e" transform="translate(63.623047 0)"/>
       <use xlink:href="#DejaVuSans-31" transform="translate(95.410156 0)"/>
      </g>
     </g>
    </g>
    <g id="xtick_5">
     <g id="line2d_5">
      <g>
       <use xlink:href="#m655ab3f271" x="281.374909" y="307.584" style="stroke: #000000; stroke-width: 0.8"/>
      </g>
     </g>
     <g id="text_5">
      <!-- 0.2 -->
      <g transform="translate(273.423347 322.182437) scale(0.1 -0.1)">
       <use xlink:href="#DejaVuSans-30"/>
       <use xlink:href="#DejaVuSans-2e" transform="translate(63.623047 0)"/>
       <use xlink:href="#DejaVuSans-32" transform="translate(95.410156 0)"/>
      </g>
     </g>
    </g>
    <g id="xtick_6">
     <g id="line2d_6">
      <g>
       <use xlink:href="#m655ab3f271" x="335.484" y="307.584" style="stroke: #000000; stroke-width: 0.8"/>
      </g>
     </g>
     <g id="text_6">
      <!-- 0.3 -->
      <g transform="translate(327.532438 322.182437) scale(0.1 -0.1)">
       <defs>
        <path id="DejaVuSans-33" d="M 2597 2516 
Q 3050 2419 3304 2112 
Q 3559 1806 3559 1356 
Q 3559 666 3084 287 
Q 2609 -91 1734 -91 
Q 1441 -91 1130 -33 
Q 819 25 488 141 
L 488 750 
Q 750 597 1062 519 
Q 1375 441 1716 441 
Q 2309 441 2620 675 
Q 2931 909 2931 1356 
Q 2931 1769 2642 2001 
Q 2353 2234 1838 2234 
L 1294 2234 
L 1294 2753 
L 1863 2753 
Q 2328 2753 2575 2939 
Q 2822 3125 2822 3475 
Q 2822 3834 2567 4026 
Q 2313 4219 1838 4219 
Q 1578 4219 1281 4162 
Q 984 4106 628 3988 
L 628 4550 
Q 988 4650 1302 4700 
Q 1616 4750 1894 4750 
Q 2613 4750 3031 4423 
Q 3450 4097 3450 3541 
Q 3450 3153 3228 2886 
Q 3006 2619 2597 2516 
z
" transform="scale(0.015625)"/>
       </defs>
       <use xlink:href="#DejaVuSans-30"/>
       <use xlink:href="#DejaVuSans-2e" transform="translate(63.623047 0)"/>
       <use xlink:href="#DejaVuSans-33" transform="translate(95.410156 0)"/>
      </g>
     </g>
    </g>
    <g id="xtick_7">
     <g id="line2d_7">
      <g>
       <use xlink:href="#m655ab3f271" x="389.593091" y="307.584" style="stroke: #000000; stroke-width: 0.8"/>
      </g>
     </g>
     <g id="text_7">
      <!-- 0.4 -->
      <g transform="translate(381.641528 322.182437) scale(0.1 -0.1)">
       <defs>
        <path id="DejaVuSans-34" d="M 2419 4116 
L 825 1625 
L 2419 1625 
L 2419 4116 
z
M 2253 4666 
L 3047 4666 
L 3047 1625 
L 3713 1625 
L 3713 1100 
L 3047 1100 
L 3047 0 
L 2419 0 
L 2419 1100 
L 313 1100 
L 313 1709 
L 2253 4666 
z
" transform="scale(0.015625)"/>
       </defs>
       <use xlink:href="#DejaVuSans-30"/>
       <use xlink:href="#DejaVuSans-2e" transform="translate(63.623047 0)"/>
       <use xlink:href="#DejaVuSans-34" transform="translate(95.410156 0)"/>
      </g>
     </g>
    </g>
   </g>
   <g id="matplotlib.axis_2">
    <g id="ytick_1">
     <g id="line2d_8">
      <defs>
       <path id="m387c734b8b" d="M 0 0 
L -3.5 0 
" style="stroke: #000000; stroke-width: 0.8"/>
      </defs>
      <g>
       <use xlink:href="#m387c734b8b" x="57.6" y="296.922009" style="stroke: #000000; stroke-width: 0.8"/>
      </g>
     </g>
     <g id="text_8">
      <!-- −200 -->
      <g transform="translate(23.132812 300.721228) scale(0.1 -0.1)">
       <use xlink:href="#DejaVuSans-2212"/>
       <use xlink:href="#DejaVuSans-32" transform="translate(83.789062 0)"/>
       <use xlink:href="#DejaVuSans-30" transform="translate(147.412109 0)"/>
       <use xlink:href="#DejaVuSans-30" transform="translate(211.035156 0)"/>
      </g>
     </g>
    </g>
    <g id="ytick_2">
     <g id="line2d_9">
      <g>
       <use xlink:href="#m387c734b8b" x="57.6" y="266.502758" style="stroke: #000000; stroke-width: 0.8"/>
      </g>
     </g>
     <g id="text_9">
      <!-- −175 -->
      <g transform="translate(23.132812 270.301977) scale(0.1 -0.1)">
       <defs>
        <path id="DejaVuSans-37" d="M 525 4666 
L 3525 4666 
L 3525 4397 
L 1831 0 
L 1172 0 
L 2766 4134 
L 525 4134 
L 525 4666 
z
" transform="scale(0.015625)"/>
        <path id="DejaVuSans-35" d="M 691 4666 
L 3169 4666 
L 3169 4134 
L 1269 4134 
L 1269 2991 
Q 1406 3038 1543 3061 
Q 1681 3084 1819 3084 
Q 2600 3084 3056 2656 
Q 3513 2228 3513 1497 
Q 3513 744 3044 326 
Q 2575 -91 1722 -91 
Q 1428 -91 1123 -41 
Q 819 9 494 109 
L 494 744 
Q 775 591 1075 516 
Q 1375 441 1709 441 
Q 2250 441 2565 725 
Q 2881 1009 2881 1497 
Q 2881 1984 2565 2268 
Q 2250 2553 1709 2553 
Q 1456 2553 1204 2497 
Q 953 2441 691 2322 
L 691 4666 
z
" transform="scale(0.015625)"/>
       </defs>
       <use xlink:href="#DejaVuSans-2212"/>
       <use xlink:href="#DejaVuSans-31" transform="translate(83.789062 0)"/>
       <use xlink:href="#DejaVuSans-37" transform="translate(147.412109 0)"/>
       <use xlink:href="#DejaVuSans-35" transform="translate(211.035156 0)"/>
      </g>
     </g>
    </g>
    <g id="ytick_3">
     <g id="line2d_10">
      <g>
       <use xlink:href="#m387c734b8b" x="57.6" y="236.083507" style="stroke: #000000; stroke-width: 0.8"/>
      </g>
     </g>
     <g id="text_10">
      <!-- −150 -->
      <g transform="translate(23.132812 239.882725) scale(0.1 -0.1)">
       <use xlink:href="#DejaVuSans-2212"/>
       <use xlink:href="#DejaVuSans-31" transform="translate(83.789062 0)"/>
       <use xlink:href="#DejaVuSans-35" transform="translate(147.412109 0)"/>
       <use xlink:href="#DejaVuSans-30" transform="translate(211.035156 0)"/>
      </g>
     </g>
    </g>
    <g id="ytick_4">
     <g id="line2d_11">
      <g>
       <use xlink:href="#m387c734b8b" x="57.6" y="205.664256" style="stroke: #000000; stroke-width: 0.8"/>
      </g>
     </g>
     <g id="text_11">
      <!-- −125 -->
      <g transform="translate(23.132812 209.463474) scale(0.1 -0.1)">
       <use xlink:href="#DejaVuSans-2212"/>
       <use xlink:href="#DejaVuSans-31" transform="translate(83.789062 0)"/>
       <use xlink:href="#DejaVuSans-32" transform="translate(147.412109 0)"/>
       <use xlink:href="#DejaVuSans-35" transform="translate(211.035156 0)"/>
      </g>
     </g>
    </g>
    <g id="ytick_5">
     <g id="line2d_12">
      <g>
       <use xlink:href="#m387c734b8b" x="57.6" y="175.245004" style="stroke: #000000; stroke-width: 0.8"/>
      </g>
     </g>
     <g id="text_12">
      <!-- −100 -->
      <g transform="translate(23.132812 179.044223) scale(0.1 -0.1)">
       <use xlink:href="#DejaVuSans-2212"/>
       <use xlink:href="#DejaVuSans-31" transform="translate(83.789062 0)"/>
       <use xlink:href="#DejaVuSans-30" transform="translate(147.412109 0)"/>
       <use xlink:href="#DejaVuSans-30" transform="translate(211.035156 0)"/>
      </g>
     </g>
    </g>
    <g id="ytick_6">
     <g id="line2d_13">
      <g>
       <use xlink:href="#m387c734b8b" x="57.6" y="144.825753" style="stroke: #000000; stroke-width: 0.8"/>
      </g>
     </g>
     <g id="text_13">
      <!-- −75 -->
      <g transform="translate(29.495313 148.624972) scale(0.1 -0.1)">
       <use xlink:href="#DejaVuSans-2212"/>
       <use xlink:href="#DejaVuSans-37" transform="translate(83.789062 0)"/>
       <use xlink:href="#DejaVuSans-35" transform="translate(147.412109 0)"/>
      </g>
     </g>
    </g>
    <g id="ytick_7">
     <g id="line2d_14">
      <g>
       <use xlink:href="#m387c734b8b" x="57.6" y="114.406502" style="stroke: #000000; stroke-width: 0.8"/>
      </g>
     </g>
     <g id="text_14">
      <!-- −50 -->
      <g transform="translate(29.495313 118.205721) scale(0.1 -0.1)">
       <use xlink:href="#DejaVuSans-2212"/>
       <use xlink:href="#DejaVuSans-35" transform="translate(83.789062 0)"/>
       <use xlink:href="#DejaVuSans-30" transform="translate(147.412109 0)"/>
      </g>
     </g>
    </g>
    <g id="ytick_8">
     <g id="line2d_15">
      <g>
       <use xlink:href="#m387c734b8b" x="57.6" y="83.987251" style="stroke: #000000; stroke-width: 0.8"/>
      </g>
     </g>
     <g id="text_15">
      <!-- −25 -->
      <g transform="translate(29.495313 87.78647) scale(0.1 -0.1)">
       <use xlink:href="#DejaVuSans-2212"/>
       <use xlink:href="#DejaVuSans-32" transform="translate(83.789062 0)"/>
       <use xlink:href="#DejaVuSans-35" transform="translate(147.412109 0)"/>
      </g>
     </g>
    </g>
    <g id="ytick_9">
     <g id="line2d_16">
      <g>
       <use xlink:href="#m387c734b8b" x="57.6" y="53.568" style="stroke: #000000; stroke-width: 0.8"/>
      </g>
     </g>
     <g id="text_16">
      <!-- 0 -->
      <g transform="translate(44.2375 57.367219) scale(0.1 -0.1)">
       <use xlink:href="#DejaVuSans-30"/>
      </g>
     </g>
    </g>
   </g>
   <g id="line2d_17">
    <path d="M 73.832727 53.568 
L 162.808364 53.668235 
L 162.966182 54.343932 
L 163.135273 54.627146 
L 163.428364 54.765093 
L 164.127273 54.855329 
L 164.296364 54.969031 
L 164.657091 55.65351 
L 164.882545 55.727721 
L 165.153091 55.840093 
L 165.412364 55.944659 
L 166.167636 56.074768 
L 166.314182 56.181489 
L 169.639636 57.876584 
L 169.808727 57.927811 
L 170.327273 58.154578 
L 170.665455 58.265978 
L 170.845818 58.450014 
L 171.026182 58.549888 
L 171.578545 58.770114 
L 172.063273 58.873527 
L 172.221091 58.971657 
L 172.412727 59.102442 
L 172.705818 59.213933 
L 173.021455 59.424504 
L 173.201818 59.716079 
L 173.630182 60.096886 
L 173.889455 60.205098 
L 174.092364 60.254298 
L 174.396727 60.380912 
L 174.532 60.418959 
L 174.870182 60.530228 
L 175.061818 60.654788 
L 175.445091 60.785079 
L 175.850909 60.902252 
L 176.087636 61.007378 
L 176.504727 61.183052 
L 177.102182 61.338689 
L 177.395273 61.881016 
L 177.88 61.989999 
L 178.195636 62.060295 
L 178.567636 62.249801 
L 178.770545 62.426631 
L 179.762545 62.784516 
L 179.965455 62.905303 
L 180.416364 63.185634 
L 181.104 63.34426 
L 181.250545 63.443479 
L 181.521091 63.548885 
L 181.690182 63.594835 
L 181.915636 63.700065 
L 182.084727 63.777679 
L 182.468 63.917239 
L 182.986545 64.026759 
L 183.313455 64.236975 
L 185.117091 64.812383 
L 185.286182 64.910713 
L 186.007636 65.261514 
L 186.266909 65.487354 
L 186.932 65.778517 
L 187.112364 65.890165 
L 187.642182 66.435737 
L 187.811273 66.540384 
L 187.946545 66.673861 
L 188.194545 66.782581 
L 188.408727 66.85505 
L 188.679273 66.963527 
L 188.859636 67.015037 
L 189.242909 67.152355 
L 190.189818 67.504289 
L 190.370182 67.529325 
L 191.869455 67.898756 
L 192.027273 68.092752 
L 192.613455 68.393204 
L 194.642545 69.650065 
L 194.901818 69.788144 
L 196.649091 70.663606 
L 196.806909 70.771541 
L 196.976 70.959522 
L 197.246545 71.045114 
L 197.404364 71.154643 
L 197.652364 71.270704 
L 197.900364 71.42701 
L 198.497818 71.618743 
L 199.275636 71.779542 
L 199.501091 71.889136 
L 199.794182 72.060143 
L 200.448 72.300023 
L 200.617091 72.3313 
L 200.763636 72.437047 
L 200.944 72.495833 
L 201.338545 72.668443 
L 201.496364 72.834671 
L 202.567273 73.133197 
L 203.006909 73.561098 
L 203.356364 73.671505 
L 203.908727 73.939503 
L 204.122909 74.170816 
L 204.224364 74.250377 
L 204.370909 74.399614 
L 204.652727 74.595715 
L 205.238909 74.93497 
L 205.554545 75.057757 
L 206.648 75.492585 
L 207.132727 75.704664 
L 207.358182 75.846581 
L 207.617455 75.996549 
L 207.764 76.03408 
L 208.034545 76.144912 
L 208.248727 76.319934 
L 208.395273 76.430249 
L 208.992727 76.832967 
L 209.308364 76.945683 
L 209.5 76.990474 
L 209.748 77.148114 
L 209.905818 77.19867 
L 210.108727 77.308389 
L 210.345455 77.368064 
L 211.078182 77.664286 
L 211.281091 77.822839 
L 214.584 78.838988 
L 214.719273 78.890095 
L 215.226545 79.217121 
L 215.373091 79.336429 
L 217.300727 80.16652 
L 217.977091 80.435051 
L 218.123636 80.485682 
L 220.829091 81.502607 
L 221.358909 81.638377 
L 221.539273 81.900914 
L 222.001455 82.041479 
L 222.621455 82.158651 
L 222.937091 82.376421 
L 223.376727 82.483143 
L 223.534545 82.579056 
L 223.906545 82.691428 
L 224.177091 82.738117 
L 224.887273 83.107124 
L 225.033818 83.217522 
L 225.338182 83.318027 
L 225.507273 83.451809 
L 226.149818 83.694618 
L 226.318909 83.80589 
L 226.521818 83.944768 
L 226.736 84.059555 
L 227.942182 84.516837 
L 228.201455 84.633849 
L 228.72 84.743706 
L 229.035636 84.882556 
L 230.410909 85.428052 
L 230.658909 85.54161 
L 231.459273 85.819987 
L 231.650909 85.88896 
L 232.135636 85.997677 
L 232.372364 86.05914 
L 232.812 86.194038 
L 232.958545 86.237185 
L 233.296727 86.361317 
L 233.499636 86.487731 
L 233.860364 86.577603 
L 234.277455 86.746509 
L 234.559273 86.90114 
L 235.179273 87.081671 
L 235.607636 87.246328 
L 236.340364 87.443934 
L 236.475636 87.51639 
L 239.181091 88.564444 
L 239.316364 88.703319 
L 239.925091 88.821074 
L 240.139273 88.97407 
L 240.376 89.009733 
L 241.052364 89.16062 
L 241.435636 89.268179 
L 242.100727 89.43086 
L 242.393818 89.57299 
L 242.596727 89.768197 
L 243.926909 90.201813 
L 244.208727 90.295638 
L 246.891636 91.051922 
L 247.274909 91.140333 
L 247.455273 91.325301 
L 247.917455 91.458763 
L 248.244364 91.491064 
L 248.638909 91.609543 
L 248.819273 91.662341 
L 249.134909 91.811513 
L 249.326545 91.875945 
L 249.811273 92.041117 
L 249.969091 92.131115 
L 250.622909 92.305258 
L 251.231636 92.566693 
L 251.784 92.706335 
L 252.201091 92.798965 
L 252.877455 92.920321 
L 254.647273 93.710292 
L 254.805091 93.829648 
L 255.177091 93.963714 
L 255.425091 94.094731 
L 255.729455 94.233349 
L 255.887273 94.295926 
L 256.293091 94.459345 
L 256.450909 94.496124 
L 257.172364 94.734319 
L 257.341455 94.786213 
L 257.600727 94.925779 
L 257.758545 94.969896 
L 260.294909 95.750054 
L 260.768364 95.87706 
L 262.853818 96.427744 
L 263.361091 96.561872 
L 264.138909 96.762462 
L 265.153455 96.991839 
L 265.322545 97.075156 
L 265.784727 97.248255 
L 265.931273 97.315078 
L 266.258182 97.431436 
L 266.675273 97.594159 
L 267.498182 97.706696 
L 267.734909 97.747723 
L 268.118182 97.873122 
L 269.696364 98.295587 
L 270.485455 98.419732 
L 270.902545 98.626113 
L 271.116727 98.829528 
L 271.759273 99.092786 
L 272.176364 99.150004 
L 272.570909 99.295834 
L 272.942909 99.461369 
L 273.269818 99.604401 
L 273.517818 99.625297 
L 273.912364 99.74163 
L 274.115273 99.928341 
L 275.287636 100.240997 
L 275.400364 100.340325 
L 275.535636 100.456209 
L 276.110545 100.628907 
L 276.279636 100.701893 
L 277.587273 101.171892 
L 277.756364 101.22548 
L 278.094545 101.325828 
L 278.252364 101.470614 
L 278.804727 101.572309 
L 279.638909 101.815884 
L 279.943273 102.016971 
L 280.236364 102.180038 
L 280.754909 102.312094 
L 281.792 102.746005 
L 282.051273 102.781701 
L 282.389455 102.902228 
L 282.536 102.956291 
L 283.122182 103.191887 
L 284.350909 103.351823 
L 285.128727 103.475517 
L 286.492727 103.747377 
L 286.842182 103.792176 
L 287.304364 103.90964 
L 288.172364 104.158599 
L 289.976 104.42885 
L 290.190182 104.495409 
L 290.607273 104.606279 
L 291.666909 104.793988 
L 292.230545 105.030635 
L 293.955273 105.574678 
L 294.135636 105.64023 
L 294.44 105.752545 
L 296.457818 106.113239 
L 296.660727 106.229677 
L 296.818545 106.335866 
L 298.103636 106.565275 
L 298.385455 106.69734 
L 299.422545 106.86841 
L 299.873455 106.979515 
L 300.211636 107.10998 
L 300.504727 107.240412 
L 300.673818 107.34017 
L 301.057091 107.452073 
L 301.789818 107.669492 
L 302.026545 107.824361 
L 302.184364 107.901948 
L 302.793091 108.044535 
L 303.525818 108.281621 
L 304.123273 108.383279 
L 304.337455 108.449457 
L 304.517818 108.654208 
L 304.867273 108.756655 
L 305.374545 108.856318 
L 305.554909 108.916991 
L 305.893091 109.053362 
L 306.242545 109.168344 
L 306.637091 109.260396 
L 306.907636 109.574422 
L 307.369818 109.685852 
L 307.617818 109.880754 
L 308.237818 110.080464 
L 310.56 110.565411 
L 311.270182 110.738192 
L 311.405455 110.867339 
L 311.585818 110.913765 
L 312.307273 111.147534 
L 312.476364 111.220865 
L 312.656727 111.330714 
L 312.837091 111.375917 
L 313.445818 111.508188 
L 313.648727 111.535909 
L 313.784 111.635071 
L 313.930545 111.761743 
L 315.159273 112.101178 
L 315.317091 112.170889 
L 317.301091 112.520011 
L 317.447636 112.603566 
L 317.943636 112.756097 
L 318.281818 112.846483 
L 318.676364 112.980659 
L 318.901818 113.014414 
L 319.465455 113.178826 
L 320.164364 113.430178 
L 320.581455 113.542346 
L 320.818182 113.584175 
L 321.765091 113.767678 
L 321.934182 113.80062 
L 322.261091 113.921113 
L 322.418909 113.955984 
L 322.824727 114.063185 
L 322.971273 114.11829 
L 323.523636 114.309621 
L 323.715273 114.386949 
L 324.763636 114.699346 
L 326.578545 115.418587 
L 326.770182 115.528729 
L 327.367636 115.65033 
L 327.559273 115.701976 
L 327.908727 115.870744 
L 328.348364 116.034697 
L 329.171273 116.191836 
L 329.982909 116.580032 
L 330.185818 116.804457 
L 330.456364 116.911828 
L 331.144 117.07879 
L 331.809091 117.247557 
L 332.090909 117.415737 
L 332.248727 117.567782 
L 333.872 117.869822 
L 334.108727 117.947142 
L 334.435636 118.055335 
L 334.785091 118.165649 
L 335.292364 118.306727 
L 335.450182 118.512398 
L 337.073455 118.944921 
L 337.298909 119.054463 
L 337.490545 119.179012 
L 337.761091 119.292171 
L 338.155636 119.393158 
L 338.369818 119.449912 
L 338.944727 119.645604 
L 339.181455 119.697398 
L 339.677455 119.817267 
L 340.872364 120.145859 
L 341.402182 120.337458 
L 341.548727 120.381604 
L 342.134909 120.496661 
L 342.563273 120.707695 
L 343.498909 121.012981 
L 343.994909 121.293342 
L 344.130182 121.405379 
L 344.581091 121.551874 
L 345.054545 121.897032 
L 345.212364 122.042398 
L 345.787273 122.153712 
L 346.136727 122.235288 
L 346.722909 122.385105 
L 346.948364 122.469713 
L 349.834182 123.340182 
L 350.003273 123.432762 
L 351.592727 124.38511 
L 351.761818 124.549353 
L 352.133818 124.686499 
L 352.404364 124.862707 
L 352.956727 125.360872 
L 353.125818 125.462992 
L 353.328727 125.572063 
L 353.452727 125.614021 
L 354.399636 126.114254 
L 354.534909 126.224647 
L 355.2 126.477917 
L 355.402909 126.596112 
L 355.470545 126.704118 
L 356.969818 127.758603 
L 357.138909 127.796412 
L 357.262909 127.901651 
L 357.409455 127.954943 
L 358.424 128.780638 
L 358.852364 128.890729 
L 359.393455 129.123069 
L 359.54 129.222766 
L 360.002182 129.460544 
L 360.148727 129.648736 
L 360.306545 129.793859 
L 360.520727 130.067801 
L 360.757455 130.180034 
L 360.949091 130.379953 
L 361.050545 130.485529 
L 361.230909 130.709656 
L 361.681818 130.993703 
L 361.839636 131.109646 
L 362.076364 131.237404 
L 362.211636 131.343469 
L 362.369455 131.453656 
L 362.617455 131.561829 
L 362.786545 131.682355 
L 363.248727 131.937385 
L 364.342182 133.066873 
L 364.590182 133.30396 
L 364.826909 133.582775 
L 364.973455 133.685208 
L 365.841455 134.526977 
L 365.965455 134.650248 
L 366.202182 134.762292 
L 366.326182 134.971355 
L 367.036364 135.843496 
L 367.182909 135.948089 
L 367.385818 136.095521 
L 367.611273 136.218808 
L 367.825455 136.439536 
L 368.253818 136.583591 
L 369.088 137.240879 
L 369.561455 137.811716 
L 369.730545 137.963948 
L 369.865818 138.064307 
L 370.068727 138.369505 
L 370.282909 138.48062 
L 370.778909 138.966697 
L 371.004364 139.109068 
L 371.274909 139.785927 
L 371.624364 139.916332 
L 372.052727 140.445505 
L 372.458545 140.863841 
L 372.627636 141.072054 
L 373.089818 141.620501 
L 373.236364 141.779068 
L 373.315273 141.854922 
L 373.552 142.415844 
L 373.574545 142.512753 
L 373.833818 142.778804 
L 373.980364 142.866047 
L 374.115636 142.975689 
L 374.250909 143.06446 
L 374.487636 143.348834 
L 374.961091 143.720429 
L 375.107636 143.837465 
L 375.626182 144.357038 
L 375.862909 144.79298 
L 376.088364 144.904287 
L 376.313818 145.327087 
L 376.539273 145.509129 
L 376.663273 145.577582 
L 376.798545 145.781314 
L 376.911273 145.890755 
L 378.106182 147.229063 
L 378.264 147.606939 
L 378.512 147.739782 
L 379.323636 148.725021 
L 379.413818 148.833908 
L 379.943636 149.810303 
L 380.067636 150.198648 
L 380.304364 150.488959 
L 380.439636 150.598524 
L 380.62 150.877881 
L 380.946909 151.742169 
L 381.070909 151.924453 
L 381.217455 152.085545 
L 381.24 152.142734 
L 381.409091 152.455195 
L 381.690909 152.659669 
L 381.826182 152.774539 
L 382.108 152.966614 
L 382.367273 153.595578 
L 382.446182 153.69756 
L 382.626545 153.806024 
L 383.054909 154.475612 
L 383.460727 155.252932 
L 383.596 155.391922 
L 383.765091 155.651656 
L 383.855273 155.959558 
L 384.069455 156.212154 
L 384.385091 156.32155 
L 384.824727 157.465679 
L 385.027636 157.937806 
L 385.219273 158.100268 
L 385.816727 159.337155 
L 386.087273 160.001336 
L 386.2 160.236041 
L 386.380364 160.642223 
L 386.786182 161.040621 
L 386.932727 161.489967 
L 387.068 162.133015 
L 387.259636 162.655855 
L 387.44 163.232989 
L 387.586545 163.590057 
L 387.654182 163.659879 
L 388.082545 165.143189 
L 388.184 165.272491 
L 388.420727 165.713698 
L 388.465818 165.747304 
L 388.657455 166.643224 
L 388.691273 166.749229 
L 388.770182 166.901397 
L 388.995636 167.168 
L 389.142182 167.436333 
L 389.345091 168.249028 
L 390.122909 169.856424 
L 390.461091 171.766951 
L 390.528727 171.898909 
L 390.664 172.381045 
L 390.686545 172.490428 
L 390.945818 174.378761 
L 391.114909 174.892787 
L 391.509455 176.325354 
L 391.543273 176.443272 
L 391.712364 176.757419 
L 391.768727 176.848102 
L 391.937818 177.265071 
L 392.343636 179.55099 
L 392.478909 180.391748 
L 392.614182 180.844937 
L 392.772 181.344501 
L 393.313091 183.85104 
L 393.527273 185.77523 
L 393.583636 185.916477 
L 393.730182 186.360393 
L 393.876727 187.326641 
L 394.192364 189.447865 
L 394.271273 189.677149 
L 394.485455 192.348208 
L 394.530545 192.429564 
L 394.756 193.897657 
L 394.789818 193.99649 
L 394.846182 194.204802 
L 395.015273 195.639339 
L 395.116727 196.020433 
L 395.285818 196.866539 
L 395.409818 197.326647 
L 395.556364 199.049924 
L 395.578909 199.075351 
L 395.872 204.867596 
L 395.905818 204.926033 
L 396.244 208.281185 
L 396.255273 208.29689 
L 396.469455 210.792772 
L 396.638545 211.597545 
L 396.796364 214.033315 
L 396.942909 218.084888 
L 396.999273 218.303831 
L 397.337455 226.850896 
L 397.517818 228.064116 
L 398.216727 254.538922 
L 398.374545 270.481789 
L 398.476 295.488 
L 398.476 295.488 
" clip-path="url(#p4cf7e66281)" style="fill: none; stroke: #1f77b4; stroke-width: 1.5; stroke-linecap: square"/>
   </g>
   <g id="line2d_18">
    <path d="M 173.156727 59.688898 
L 363.925091 132.658053 
" clip-path="url(#p4cf7e66281)" style="fill: none; stroke-dasharray: 5.55,2.4; stroke-dashoffset: 0; stroke: #ff7f0e; stroke-width: 1.5"/>
   </g>
   <g id="line2d_19">
    <path d="M 73.832727 126.574203 
L 398.487273 126.574203 
L 398.487273 126.574203 
" clip-path="url(#p4cf7e66281)" style="fill: none; stroke-dasharray: 5.55,2.4; stroke-dashoffset: 0; stroke: #2ca02c; stroke-width: 1.5"/>
   </g>
   <g id="LineCollection_1">
    <path d="M 363.925091 295.488 
L 363.925091 53.568 
" clip-path="url(#p4cf7e66281)" style="fill: none; stroke-dasharray: 5.55,2.4; stroke-dashoffset: 0; stroke: #1f77b4; stroke-width: 1.5"/>
   </g>
   <g id="patch_3">
    <path d="M 57.6 307.584 
L 57.6 41.472 
" style="fill: none; stroke: #000000; stroke-width: 0.8; stroke-linejoin: miter; stroke-linecap: square"/>
   </g>
   <g id="patch_4">
    <path d="M 414.72 307.584 
L 414.72 41.472 
" style="fill: none; stroke: #000000; stroke-width: 0.8; stroke-linejoin: miter; stroke-linecap: square"/>
   </g>
   <g id="patch_5">
    <path d="M 57.6 307.584 
L 414.72 307.584 
" style="fill: none; stroke: #000000; stroke-width: 0.8; stroke-linejoin: miter; stroke-linecap: square"/>
   </g>
   <g id="patch_6">
    <path d="M 57.6 41.472 
L 414.72 41.472 
" style="fill: none; stroke: #000000; stroke-width: 0.8; stroke-linejoin: miter; stroke-linecap: square"/>
   </g>
   <g id="text_17">
    <!-- Energy Decay - 12000 Hz -->
    <g transform="translate(159.7725 35.472) scale(0.12 -0.12)">
     <defs>
      <path id="DejaVuSans-45" d="M 628 4666 
L 3578 4666 
L 3578 4134 
L 1259 4134 
L 1259 2753 
L 3481 2753 
L 3481 2222 
L 1259 2222 
L 1259 531 
L 3634 531 
L 3634 0 
L 628 0 
L 628 4666 
z
" transform="scale(0.015625)"/>
      <path id="DejaVuSans-6e" d="M 3513 2113 
L 3513 0 
L 2938 0 
L 2938 2094 
Q 2938 2591 2744 2837 
Q 2550 3084 2163 3084 
Q 1697 3084 1428 2787 
Q 1159 2491 1159 1978 
L 1159 0 
L 581 0 
L 581 3500 
L 1159 3500 
L 1159 2956 
Q 1366 3272 1645 3428 
Q 1925 3584 2291 3584 
Q 2894 3584 3203 3211 
Q 3513 2838 3513 2113 
z
" transform="scale(0.015625)"/>
      <path id="DejaVuSans-65" d="M 3597 1894 
L 3597 1613 
L 953 1613 
Q 991 1019 1311 708 
Q 1631 397 2203 397 
Q 2534 397 2845 478 
Q 3156 559 3463 722 
L 3463 178 
Q 3153 47 2828 -22 
Q 2503 -91 2169 -91 
Q 1331 -91 842 396 
Q 353 884 353 1716 
Q 353 2575 817 3079 
Q 1281 3584 2069 3584 
Q 2775 3584 3186 3129 
Q 3597 2675 3597 1894 
z
M 3022 2063 
Q 3016 2534 2758 2815 
Q 2500 3097 2075 3097 
Q 1594 3097 1305 2825 
Q 1016 2553 972 2059 
L 3022 2063 
z
" transform="scale(0.015625)"/>
      <path id="DejaVuSans-72" d="M 2631 2963 
Q 2534 3019 2420 3045 
Q 2306 3072 2169 3072 
Q 1681 3072 1420 2755 
Q 1159 2438 1159 1844 
L 1159 0 
L 581 0 
L 581 3500 
L 1159 3500 
L 1159 2956 
Q 1341 3275 1631 3429 
Q 1922 3584 2338 3584 
Q 2397 3584 2469 3576 
Q 2541 3569 2628 3553 
L 2631 2963 
z
" transform="scale(0.015625)"/>
      <path id="DejaVuSans-67" d="M 2906 1791 
Q 2906 2416 2648 2759 
Q 2391 3103 1925 3103 
Q 1463 3103 1205 2759 
Q 947 2416 947 1791 
Q 947 1169 1205 825 
Q 1463 481 1925 481 
Q 2391 481 2648 825 
Q 2906 1169 2906 1791 
z
M 3481 434 
Q 3481 -459 3084 -895 
Q 2688 -1331 1869 -1331 
Q 1566 -1331 1297 -1286 
Q 1028 -1241 775 -1147 
L 775 -588 
Q 1028 -725 1275 -790 
Q 1522 -856 1778 -856 
Q 2344 -856 2625 -561 
Q 2906 -266 2906 331 
L 2906 616 
Q 2728 306 2450 153 
Q 2172 0 1784 0 
Q 1141 0 747 490 
Q 353 981 353 1791 
Q 353 2603 747 3093 
Q 1141 3584 1784 3584 
Q 2172 3584 2450 3431 
Q 2728 3278 2906 2969 
L 2906 3500 
L 3481 3500 
L 3481 434 
z
" transform="scale(0.015625)"/>
      <path id="DejaVuSans-79" d="M 2059 -325 
Q 1816 -950 1584 -1140 
Q 1353 -1331 966 -1331 
L 506 -1331 
L 506 -850 
L 844 -850 
Q 1081 -850 1212 -737 
Q 1344 -625 1503 -206 
L 1606 56 
L 191 3500 
L 800 3500 
L 1894 763 
L 2988 3500 
L 3597 3500 
L 2059 -325 
z
" transform="scale(0.015625)"/>
      <path id="DejaVuSans-20" transform="scale(0.015625)"/>
      <path id="DejaVuSans-44" d="M 1259 4147 
L 1259 519 
L 2022 519 
Q 2988 519 3436 956 
Q 3884 1394 3884 2338 
Q 3884 3275 3436 3711 
Q 2988 4147 2022 4147 
L 1259 4147 
z
M 628 4666 
L 1925 4666 
Q 3281 4666 3915 4102 
Q 4550 3538 4550 2338 
Q 4550 1131 3912 565 
Q 3275 0 1925 0 
L 628 0 
L 628 4666 
z
" transform="scale(0.015625)"/>
      <path id="DejaVuSans-63" d="M 3122 3366 
L 3122 2828 
Q 2878 2963 2633 3030 
Q 2388 3097 2138 3097 
Q 1578 3097 1268 2742 
Q 959 2388 959 1747 
Q 959 1106 1268 751 
Q 1578 397 2138 397 
Q 2388 397 2633 464 
Q 2878 531 3122 666 
L 3122 134 
Q 2881 22 2623 -34 
Q 2366 -91 2075 -91 
Q 1284 -91 818 406 
Q 353 903 353 1747 
Q 353 2603 823 3093 
Q 1294 3584 2113 3584 
Q 2378 3584 2631 3529 
Q 2884 3475 3122 3366 
z
" transform="scale(0.015625)"/>
      <path id="DejaVuSans-61" d="M 2194 1759 
Q 1497 1759 1228 1600 
Q 959 1441 959 1056 
Q 959 750 1161 570 
Q 1363 391 1709 391 
Q 2188 391 2477 730 
Q 2766 1069 2766 1631 
L 2766 1759 
L 2194 1759 
z
M 3341 1997 
L 3341 0 
L 2766 0 
L 2766 531 
Q 2569 213 2275 61 
Q 1981 -91 1556 -91 
Q 1019 -91 701 211 
Q 384 513 384 1019 
Q 384 1609 779 1909 
Q 1175 2209 1959 2209 
L 2766 2209 
L 2766 2266 
Q 2766 2663 2505 2880 
Q 2244 3097 1772 3097 
Q 1472 3097 1187 3025 
Q 903 2953 641 2809 
L 641 3341 
Q 956 3463 1253 3523 
Q 1550 3584 1831 3584 
Q 2591 3584 2966 3190 
Q 3341 2797 3341 1997 
z
" transform="scale(0.015625)"/>
      <path id="DejaVuSans-2d" d="M 313 2009 
L 1997 2009 
L 1997 1497 
L 313 1497 
L 313 2009 
z
" transform="scale(0.015625)"/>
      <path id="DejaVuSans-48" d="M 628 4666 
L 1259 4666 
L 1259 2753 
L 3553 2753 
L 3553 4666 
L 4184 4666 
L 4184 0 
L 3553 0 
L 3553 2222 
L 1259 2222 
L 1259 0 
L 628 0 
L 628 4666 
z
" transform="scale(0.015625)"/>
      <path id="DejaVuSans-7a" d="M 353 3500 
L 3084 3500 
L 3084 2975 
L 922 459 
L 3084 459 
L 3084 0 
L 275 0 
L 275 525 
L 2438 3041 
L 353 3041 
L 353 3500 
z
" transform="scale(0.015625)"/>
     </defs>
     <use xlink:href="#DejaVuSans-45"/>
     <use xlink:href="#DejaVuSans-6e" transform="translate(63.183594 0)"/>
     <use xlink:href="#DejaVuSans-65" transform="translate(126.5625 0)"/>
     <use xlink:href="#DejaVuSans-72" transform="translate(188.085938 0)"/>
     <use xlink:href="#DejaVuSans-67" transform="translate(227.449219 0)"/>
     <use xlink:href="#DejaVuSans-79" transform="translate(290.925781 0)"/>
     <use xlink:href="#DejaVuSans-20" transform="translate(350.105469 0)"/>
     <use xlink:href="#DejaVuSans-44" transform="translate(381.892578 0)"/>
     <use xlink:href="#DejaVuSans-65" transform="translate(458.894531 0)"/>
     <use xlink:href="#DejaVuSans-63" transform="translate(520.417969 0)"/>
     <use xlink:href="#DejaVuSans-61" transform="translate(575.398438 0)"/>
     <use xlink:href="#DejaVuSans-79" transform="translate(636.677734 0)"/>
     <use xlink:href="#DejaVuSans-20" transform="translate(695.857422 0)"/>
     <use xlink:href="#DejaVuSans-2d" transform="translate(727.644531 0)"/>
     <use xlink:href="#DejaVuSans-20" transform="translate(763.728516 0)"/>
     <use xlink:href="#DejaVuSans-31" transform="translate(795.515625 0)"/>
     <use xlink:href="#DejaVuSans-32" transform="translate(859.138672 0)"/>
     <use xlink:href="#DejaVuSans-30" transform="translate(922.761719 0)"/>
     <use xlink:href="#DejaVuSans-30" transform="translate(986.384766 0)"/>
     <use xlink:href="#DejaVuSans-30" transform="translate(1050.007812 0)"/>
     <use xlink:href="#DejaVuSans-20" transform="translate(1113.630859 0)"/>
     <use xlink:href="#DejaVuSans-48" transform="translate(1145.417969 0)"/>
     <use xlink:href="#DejaVuSans-7a" transform="translate(1220.613281 0)"/>
    </g>
   </g>
   <g id="legend_1">
    <g id="patch_7">
     <path d="M 64.6 302.584 
L 175.351562 302.584 
Q 177.351562 302.584 177.351562 300.584 
L 177.351562 242.8715 
Q 177.351562 240.8715 175.351562 240.8715 
L 64.6 240.8715 
Q 62.6 240.8715 62.6 242.8715 
L 62.6 300.584 
Q 62.6 302.584 64.6 302.584 
z
" style="fill: #ffffff; opacity: 0.8; stroke: #cccccc; stroke-linejoin: miter"/>
    </g>
    <g id="line2d_20">
     <path d="M 66.6 248.969937 
L 76.6 248.969937 
L 86.6 248.969937 
" style="fill: none; stroke: #1f77b4; stroke-width: 1.5; stroke-linecap: square"/>
    </g>
    <g id="text_18">
     <!-- Energy -->
     <g transform="translate(94.6 252.469937) scale(0.1 -0.1)">
      <use xlink:href="#DejaVuSans-45"/>
      <use xlink:href="#DejaVuSans-6e" transform="translate(63.183594 0)"/>
      <use xlink:href="#DejaVuSans-65" transform="translate(126.5625 0)"/>
      <use xlink:href="#DejaVuSans-72" transform="translate(188.085938 0)"/>
      <use xlink:href="#DejaVuSans-67" transform="translate(227.449219 0)"/>
      <use xlink:href="#DejaVuSans-79" transform="translate(290.925781 0)"/>
     </g>
    </g>
    <g id="line2d_21">
     <path d="M 66.6 263.648062 
L 76.6 263.648062 
L 86.6 263.648062 
" style="fill: none; stroke-dasharray: 5.55,2.4; stroke-dashoffset: 0; stroke: #ff7f0e; stroke-width: 1.5"/>
    </g>
    <g id="text_19">
     <!-- Linear Fit -->
     <g transform="translate(94.6 267.148062) scale(0.1 -0.1)">
      <defs>
       <path id="DejaVuSans-4c" d="M 628 4666 
L 1259 4666 
L 1259 531 
L 3531 531 
L 3531 0 
L 628 0 
L 628 4666 
z
" transform="scale(0.015625)"/>
       <path id="DejaVuSans-69" d="M 603 3500 
L 1178 3500 
L 1178 0 
L 603 0 
L 603 3500 
z
M 603 4863 
L 1178 4863 
L 1178 4134 
L 603 4134 
L 603 4863 
z
" transform="scale(0.015625)"/>
       <path id="DejaVuSans-46" d="M 628 4666 
L 3309 4666 
L 3309 4134 
L 1259 4134 
L 1259 2759 
L 3109 2759 
L 3109 2228 
L 1259 2228 
L 1259 0 
L 628 0 
L 628 4666 
z
" transform="scale(0.015625)"/>
       <path id="DejaVuSans-74" d="M 1172 4494 
L 1172 3500 
L 2356 3500 
L 2356 3053 
L 1172 3053 
L 1172 1153 
Q 1172 725 1289 603 
Q 1406 481 1766 481 
L 2356 481 
L 2356 0 
L 1766 0 
Q 1100 0 847 248 
Q 594 497 594 1153 
L 594 3053 
L 172 3053 
L 172 3500 
L 594 3500 
L 594 4494 
L 1172 4494 
z
" transform="scale(0.015625)"/>
      </defs>
      <use xlink:href="#DejaVuSans-4c"/>
      <use xlink:href="#DejaVuSans-69" transform="translate(55.712891 0)"/>
      <use xlink:href="#DejaVuSans-6e" transform="translate(83.496094 0)"/>
      <use xlink:href="#DejaVuSans-65" transform="translate(146.875 0)"/>
      <use xlink:href="#DejaVuSans-61" transform="translate(208.398438 0)"/>
      <use xlink:href="#DejaVuSans-72" transform="translate(269.677734 0)"/>
      <use xlink:href="#DejaVuSans-20" transform="translate(310.791016 0)"/>
      <use xlink:href="#DejaVuSans-46" transform="translate(342.578125 0)"/>
      <use xlink:href="#DejaVuSans-69" transform="translate(392.847656 0)"/>
      <use xlink:href="#DejaVuSans-74" transform="translate(420.630859 0)"/>
     </g>
    </g>
    <g id="line2d_22">
     <path d="M 66.6 278.326187 
L 76.6 278.326187 
L 86.6 278.326187 
" style="fill: none; stroke-dasharray: 5.55,2.4; stroke-dashoffset: 0; stroke: #2ca02c; stroke-width: 1.5"/>
    </g>
    <g id="text_20">
     <!-- -60 dB -->
     <g transform="translate(94.6 281.826187) scale(0.1 -0.1)">
      <defs>
       <path id="DejaVuSans-36" d="M 2113 2584 
Q 1688 2584 1439 2293 
Q 1191 2003 1191 1497 
Q 1191 994 1439 701 
Q 1688 409 2113 409 
Q 2538 409 2786 701 
Q 3034 994 3034 1497 
Q 3034 2003 2786 2293 
Q 2538 2584 2113 2584 
z
M 3366 4563 
L 3366 3988 
Q 3128 4100 2886 4159 
Q 2644 4219 2406 4219 
Q 1781 4219 1451 3797 
Q 1122 3375 1075 2522 
Q 1259 2794 1537 2939 
Q 1816 3084 2150 3084 
Q 2853 3084 3261 2657 
Q 3669 2231 3669 1497 
Q 3669 778 3244 343 
Q 2819 -91 2113 -91 
Q 1303 -91 875 529 
Q 447 1150 447 2328 
Q 447 3434 972 4092 
Q 1497 4750 2381 4750 
Q 2619 4750 2861 4703 
Q 3103 4656 3366 4563 
z
" transform="scale(0.015625)"/>
       <path id="DejaVuSans-64" d="M 2906 2969 
L 2906 4863 
L 3481 4863 
L 3481 0 
L 2906 0 
L 2906 525 
Q 2725 213 2448 61 
Q 2172 -91 1784 -91 
Q 1150 -91 751 415 
Q 353 922 353 1747 
Q 353 2572 751 3078 
Q 1150 3584 1784 3584 
Q 2172 3584 2448 3432 
Q 2725 3281 2906 2969 
z
M 947 1747 
Q 947 1113 1208 752 
Q 1469 391 1925 391 
Q 2381 391 2643 752 
Q 2906 1113 2906 1747 
Q 2906 2381 2643 2742 
Q 2381 3103 1925 3103 
Q 1469 3103 1208 2742 
Q 947 2381 947 1747 
z
" transform="scale(0.015625)"/>
       <path id="DejaVuSans-42" d="M 1259 2228 
L 1259 519 
L 2272 519 
Q 2781 519 3026 730 
Q 3272 941 3272 1375 
Q 3272 1813 3026 2020 
Q 2781 2228 2272 2228 
L 1259 2228 
z
M 1259 4147 
L 1259 2741 
L 2194 2741 
Q 2656 2741 2882 2914 
Q 3109 3088 3109 3444 
Q 3109 3797 2882 3972 
Q 2656 4147 2194 4147 
L 1259 4147 
z
M 628 4666 
L 2241 4666 
Q 2963 4666 3353 4366 
Q 3744 4066 3744 3513 
Q 3744 3084 3544 2831 
Q 3344 2578 2956 2516 
Q 3422 2416 3680 2098 
Q 3938 1781 3938 1306 
Q 3938 681 3513 340 
Q 3088 0 2303 0 
L 628 0 
L 628 4666 
z
" transform="scale(0.015625)"/>
      </defs>
      <use xlink:href="#DejaVuSans-2d"/>
      <use xlink:href="#DejaVuSans-36" transform="translate(36.083984 0)"/>
      <use xlink:href="#DejaVuSans-30" transform="translate(99.707031 0)"/>
      <use xlink:href="#DejaVuSans-20" transform="translate(163.330078 0)"/>
      <use xlink:href="#DejaVuSans-64" transform="translate(195.117188 0)"/>
      <use xlink:href="#DejaVuSans-42" transform="translate(258.59375 0)"/>
     </g>
    </g>
    <g id="line2d_23">
     <path d="M 66.6 293.004312 
L 86.6 293.004312 
" style="fill: none; stroke-dasharray: 5.55,2.4; stroke-dashoffset: 0; stroke: #1f77b4; stroke-width: 1.5"/>
    </g>
    <g id="text_21">
     <!-- Estimated RT60 -->
     <g transform="translate(94.6 296.504312) scale(0.1 -0.1)">
      <defs>
       <path id="DejaVuSans-73" d="M 2834 3397 
L 2834 2853 
Q 2591 2978 2328 3040 
Q 2066 3103 1784 3103 
Q 1356 3103 1142 2972 
Q 928 2841 928 2578 
Q 928 2378 1081 2264 
Q 1234 2150 1697 2047 
L 1894 2003 
Q 2506 1872 2764 1633 
Q 3022 1394 3022 966 
Q 3022 478 2636 193 
Q 2250 -91 1575 -91 
Q 1294 -91 989 -36 
Q 684 19 347 128 
L 347 722 
Q 666 556 975 473 
Q 1284 391 1588 391 
Q 1994 391 2212 530 
Q 2431 669 2431 922 
Q 2431 1156 2273 1281 
Q 2116 1406 1581 1522 
L 1381 1569 
Q 847 1681 609 1914 
Q 372 2147 372 2553 
Q 372 3047 722 3315 
Q 1072 3584 1716 3584 
Q 2034 3584 2315 3537 
Q 2597 3491 2834 3397 
z
" transform="scale(0.015625)"/>
       <path id="DejaVuSans-6d" d="M 3328 2828 
Q 3544 3216 3844 3400 
Q 4144 3584 4550 3584 
Q 5097 3584 5394 3201 
Q 5691 2819 5691 2113 
L 5691 0 
L 5113 0 
L 5113 2094 
Q 5113 2597 4934 2840 
Q 4756 3084 4391 3084 
Q 3944 3084 3684 2787 
Q 3425 2491 3425 1978 
L 3425 0 
L 2847 0 
L 2847 2094 
Q 2847 2600 2669 2842 
Q 2491 3084 2119 3084 
Q 1678 3084 1418 2786 
Q 1159 2488 1159 1978 
L 1159 0 
L 581 0 
L 581 3500 
L 1159 3500 
L 1159 2956 
Q 1356 3278 1631 3431 
Q 1906 3584 2284 3584 
Q 2666 3584 2933 3390 
Q 3200 3197 3328 2828 
z
" transform="scale(0.015625)"/>
       <path id="DejaVuSans-52" d="M 2841 2188 
Q 3044 2119 3236 1894 
Q 3428 1669 3622 1275 
L 4263 0 
L 3584 0 
L 2988 1197 
Q 2756 1666 2539 1819 
Q 2322 1972 1947 1972 
L 1259 1972 
L 1259 0 
L 628 0 
L 628 4666 
L 2053 4666 
Q 2853 4666 3247 4331 
Q 3641 3997 3641 3322 
Q 3641 2881 3436 2590 
Q 3231 2300 2841 2188 
z
M 1259 4147 
L 1259 2491 
L 2053 2491 
Q 2509 2491 2742 2702 
Q 2975 2913 2975 3322 
Q 2975 3731 2742 3939 
Q 2509 4147 2053 4147 
L 1259 4147 
z
" transform="scale(0.015625)"/>
       <path id="DejaVuSans-54" d="M -19 4666 
L 3928 4666 
L 3928 4134 
L 2272 4134 
L 2272 0 
L 1638 0 
L 1638 4134 
L -19 4134 
L -19 4666 
z
" transform="scale(0.015625)"/>
      </defs>
      <use xlink:href="#DejaVuSans-45"/>
      <use xlink:href="#DejaVuSans-73" transform="translate(63.183594 0)"/>
      <use xlink:href="#DejaVuSans-74" transform="translate(115.283203 0)"/>
      <use xlink:href="#DejaVuSans-69" transform="translate(154.492188 0)"/>
      <use xlink:href="#DejaVuSans-6d" transform="translate(182.275391 0)"/>
      <use xlink:href="#DejaVuSans-61" transform="translate(279.6875 0)"/>
      <use xlink:href="#DejaVuSans-74" transform="translate(340.966797 0)"/>
      <use xlink:href="#DejaVuSans-65" transform="translate(380.175781 0)"/>
      <use xlink:href="#DejaVuSans-64" transform="translate(441.699219 0)"/>
      <use xlink:href="#DejaVuSans-20" transform="translate(505.175781 0)"/>
      <use xlink:href="#DejaVuSans-52" transform="translate(536.962891 0)"/>
      <use xlink:href="#DejaVuSans-54" transform="translate(599.195312 0)"/>
      <use xlink:href="#DejaVuSans-36" transform="translate(660.279297 0)"/>
      <use xlink:href="#DejaVuSans-30" transform="translate(723.902344 0)"/>
     </g>
    </g>
   </g>
  </g>
 </g>
 <defs>
  <clipPath id="p4cf7e66281">
   <rect x="57.6" y="41.472" width="357.12" height="266.112"/>
  </clipPath>
 </defs>
</svg>
