<?xml version="1.0" encoding="utf-8" standalone="no"?>
<!DOCTYPE svg PUBLIC "-//W3C//DTD SVG 1.1//EN"
  "http://www.w3.org/Graphics/SVG/1.1/DTD/svg11.dtd">
<svg xmlns:xlink="http://www.w3.org/1999/xlink" width="460.8pt" height="345.6pt" viewBox="0 0 460.8 345.6" xmlns="http://www.w3.org/2000/svg" version="1.1">
 <metadata>
  <rdf:RDF xmlns:dc="http://purl.org/dc/elements/1.1/" xmlns:cc="http://creativecommons.org/ns#" xmlns:rdf="http://www.w3.org/1999/02/22-rdf-syntax-ns#">
   <cc:Work>
    <dc:type rdf:resource="http://purl.org/dc/dcmitype/StillImage"/>
    <dc:date>2025-05-06T13:32:01.452581</dc:date>
    <dc:format>image/svg+xml</dc:format>
    <dc:creator>
     <cc:Agent>
      <dc:title>Matplotlib v3.10.1, https://matplotlib.org/</dc:title>
     </cc:Agent>
    </dc:creator>
   </cc:Work>
  </rdf:RDF>
 </metadata>
 <defs>
  <style type="text/css">*{stroke-linejoin: round; stroke-linecap: butt}</style>
 </defs>
 <g id="figure_1">
  <g id="patch_1">
   <path d="M 0 345.6 
L 460.8 345.6 
L 460.8 0 
L 0 0 
z
" style="fill: #ffffff"/>
  </g>
  <g id="axes_1">
   <g id="patch_2">
    <path d="M 57.6 307.584 
L 414.72 307.584 
L 414.72 41.472 
L 57.6 41.472 
z
" style="fill: #ffffff"/>
   </g>
   <g id="matplotlib.axis_1">
    <g id="xtick_1">
     <g id="line2d_1">
      <defs>
       <path id="mfcf460fef3" d="M 0 0 
L 0 3.5 
" style="stroke: #000000; stroke-width: 0.8"/>
      </defs>
      <g>
       <use xlink:href="#mfcf460fef3" x="64.149455" y="307.584" style="stroke: #000000; stroke-width: 0.8"/>
      </g>
     </g>
     <g id="text_1">
      <!-- −0.2 -->
      <g transform="translate(52.008048 322.182437) scale(0.1 -0.1)">
       <defs>
        <path id="DejaVuSans-2212" d="M 678 2272 
L 4684 2272 
L 4684 1741 
L 678 1741 
L 678 2272 
z
" transform="scale(0.015625)"/>
        <path id="DejaVuSans-30" d="M 2034 4250 
Q 1547 4250 1301 3770 
Q 1056 3291 1056 2328 
Q 1056 1369 1301 889 
Q 1547 409 2034 409 
Q 2525 409 2770 889 
Q 3016 1369 3016 2328 
Q 3016 3291 2770 3770 
Q 2525 4250 2034 4250 
z
M 2034 4750 
Q 2819 4750 3233 4129 
Q 3647 3509 3647 2328 
Q 3647 1150 3233 529 
Q 2819 -91 2034 -91 
Q 1250 -91 836 529 
Q 422 1150 422 2328 
Q 422 3509 836 4129 
Q 1250 4750 2034 4750 
z
" transform="scale(0.015625)"/>
        <path id="DejaVuSans-2e" d="M 684 794 
L 1344 794 
L 1344 0 
L 684 0 
L 684 794 
z
" transform="scale(0.015625)"/>
        <path id="DejaVuSans-32" d="M 1228 531 
L 3431 531 
L 3431 0 
L 469 0 
L 469 531 
Q 828 903 1448 1529 
Q 2069 2156 2228 2338 
Q 2531 2678 2651 2914 
Q 2772 3150 2772 3378 
Q 2772 3750 2511 3984 
Q 2250 4219 1831 4219 
Q 1534 4219 1204 4116 
Q 875 4013 500 3803 
L 500 4441 
Q 881 4594 1212 4672 
Q 1544 4750 1819 4750 
Q 2544 4750 2975 4387 
Q 3406 4025 3406 3419 
Q 3406 3131 3298 2873 
Q 3191 2616 2906 2266 
Q 2828 2175 2409 1742 
Q 1991 1309 1228 531 
z
" transform="scale(0.015625)"/>
       </defs>
       <use xlink:href="#DejaVuSans-2212"/>
       <use xlink:href="#DejaVuSans-30" transform="translate(83.789062 0)"/>
       <use xlink:href="#DejaVuSans-2e" transform="translate(147.412109 0)"/>
       <use xlink:href="#DejaVuSans-32" transform="translate(179.199219 0)"/>
      </g>
     </g>
    </g>
    <g id="xtick_2">
     <g id="line2d_2">
      <g>
       <use xlink:href="#mfcf460fef3" x="118.258545" y="307.584" style="stroke: #000000; stroke-width: 0.8"/>
      </g>
     </g>
     <g id="text_2">
      <!-- −0.1 -->
      <g transform="translate(106.117139 322.182437) scale(0.1 -0.1)">
       <defs>
        <path id="DejaVuSans-31" d="M 794 531 
L 1825 531 
L 1825 4091 
L 703 3866 
L 703 4441 
L 1819 4666 
L 2450 4666 
L 2450 531 
L 3481 531 
L 3481 0 
L 794 0 
L 794 531 
z
" transform="scale(0.015625)"/>
       </defs>
       <use xlink:href="#DejaVuSans-2212"/>
       <use xlink:href="#DejaVuSans-30" transform="translate(83.789062 0)"/>
       <use xlink:href="#DejaVuSans-2e" transform="translate(147.412109 0)"/>
       <use xlink:href="#DejaVuSans-31" transform="translate(179.199219 0)"/>
      </g>
     </g>
    </g>
    <g id="xtick_3">
     <g id="line2d_3">
      <g>
       <use xlink:href="#mfcf460fef3" x="172.367636" y="307.584" style="stroke: #000000; stroke-width: 0.8"/>
      </g>
     </g>
     <g id="text_3">
      <!-- 0.0 -->
      <g transform="translate(164.416074 322.182437) scale(0.1 -0.1)">
       <use xlink:href="#DejaVuSans-30"/>
       <use xlink:href="#DejaVuSans-2e" transform="translate(63.623047 0)"/>
       <use xlink:href="#DejaVuSans-30" transform="translate(95.410156 0)"/>
      </g>
     </g>
    </g>
    <g id="xtick_4">
     <g id="line2d_4">
      <g>
       <use xlink:href="#mfcf460fef3" x="226.476727" y="307.584" style="stroke: #000000; stroke-width: 0.8"/>
      </g>
     </g>
     <g id="text_4">
      <!-- 0.1 -->
      <g transform="translate(218.525165 322.182437) scale(0.1 -0.1)">
       <use xlink:href="#DejaVuSans-30"/>
       <use xlink:href="#DejaVuSans-2e" transform="translate(63.623047 0)"/>
       <use xlink:href="#DejaVuSans-31" transform="translate(95.410156 0)"/>
      </g>
     </g>
    </g>
    <g id="xtick_5">
     <g id="line2d_5">
      <g>
       <use xlink:href="#mfcf460fef3" x="280.585818" y="307.584" style="stroke: #000000; stroke-width: 0.8"/>
      </g>
     </g>
     <g id="text_5">
      <!-- 0.2 -->
      <g transform="translate(272.634256 322.182437) scale(0.1 -0.1)">
       <use xlink:href="#DejaVuSans-30"/>
       <use xlink:href="#DejaVuSans-2e" transform="translate(63.623047 0)"/>
       <use xlink:href="#DejaVuSans-32" transform="translate(95.410156 0)"/>
      </g>
     </g>
    </g>
    <g id="xtick_6">
     <g id="line2d_6">
      <g>
       <use xlink:href="#mfcf460fef3" x="334.694909" y="307.584" style="stroke: #000000; stroke-width: 0.8"/>
      </g>
     </g>
     <g id="text_6">
      <!-- 0.3 -->
      <g transform="translate(326.743347 322.182437) scale(0.1 -0.1)">
       <defs>
        <path id="DejaVuSans-33" d="M 2597 2516 
Q 3050 2419 3304 2112 
Q 3559 1806 3559 1356 
Q 3559 666 3084 287 
Q 2609 -91 1734 -91 
Q 1441 -91 1130 -33 
Q 819 25 488 141 
L 488 750 
Q 750 597 1062 519 
Q 1375 441 1716 441 
Q 2309 441 2620 675 
Q 2931 909 2931 1356 
Q 2931 1769 2642 2001 
Q 2353 2234 1838 2234 
L 1294 2234 
L 1294 2753 
L 1863 2753 
Q 2328 2753 2575 2939 
Q 2822 3125 2822 3475 
Q 2822 3834 2567 4026 
Q 2313 4219 1838 4219 
Q 1578 4219 1281 4162 
Q 984 4106 628 3988 
L 628 4550 
Q 988 4650 1302 4700 
Q 1616 4750 1894 4750 
Q 2613 4750 3031 4423 
Q 3450 4097 3450 3541 
Q 3450 3153 3228 2886 
Q 3006 2619 2597 2516 
z
" transform="scale(0.015625)"/>
       </defs>
       <use xlink:href="#DejaVuSans-30"/>
       <use xlink:href="#DejaVuSans-2e" transform="translate(63.623047 0)"/>
       <use xlink:href="#DejaVuSans-33" transform="translate(95.410156 0)"/>
      </g>
     </g>
    </g>
    <g id="xtick_7">
     <g id="line2d_7">
      <g>
       <use xlink:href="#mfcf460fef3" x="388.804" y="307.584" style="stroke: #000000; stroke-width: 0.8"/>
      </g>
     </g>
     <g id="text_7">
      <!-- 0.4 -->
      <g transform="translate(380.852438 322.182437) scale(0.1 -0.1)">
       <defs>
        <path id="DejaVuSans-34" d="M 2419 4116 
L 825 1625 
L 2419 1625 
L 2419 4116 
z
M 2253 4666 
L 3047 4666 
L 3047 1625 
L 3713 1625 
L 3713 1100 
L 3047 1100 
L 3047 0 
L 2419 0 
L 2419 1100 
L 313 1100 
L 313 1709 
L 2253 4666 
z
" transform="scale(0.015625)"/>
       </defs>
       <use xlink:href="#DejaVuSans-30"/>
       <use xlink:href="#DejaVuSans-2e" transform="translate(63.623047 0)"/>
       <use xlink:href="#DejaVuSans-34" transform="translate(95.410156 0)"/>
      </g>
     </g>
    </g>
   </g>
   <g id="matplotlib.axis_2">
    <g id="ytick_1">
     <g id="line2d_8">
      <defs>
       <path id="m1d1c4dea12" d="M 0 0 
L -3.5 0 
" style="stroke: #000000; stroke-width: 0.8"/>
      </defs>
      <g>
       <use xlink:href="#m1d1c4dea12" x="57.6" y="293.752819" style="stroke: #000000; stroke-width: 0.8"/>
      </g>
     </g>
     <g id="text_8">
      <!-- −200 -->
      <g transform="translate(23.132812 297.552038) scale(0.1 -0.1)">
       <use xlink:href="#DejaVuSans-2212"/>
       <use xlink:href="#DejaVuSans-32" transform="translate(83.789062 0)"/>
       <use xlink:href="#DejaVuSans-30" transform="translate(147.412109 0)"/>
       <use xlink:href="#DejaVuSans-30" transform="translate(211.035156 0)"/>
      </g>
     </g>
    </g>
    <g id="ytick_2">
     <g id="line2d_9">
      <g>
       <use xlink:href="#m1d1c4dea12" x="57.6" y="263.729717" style="stroke: #000000; stroke-width: 0.8"/>
      </g>
     </g>
     <g id="text_9">
      <!-- −175 -->
      <g transform="translate(23.132812 267.528935) scale(0.1 -0.1)">
       <defs>
        <path id="DejaVuSans-37" d="M 525 4666 
L 3525 4666 
L 3525 4397 
L 1831 0 
L 1172 0 
L 2766 4134 
L 525 4134 
L 525 4666 
z
" transform="scale(0.015625)"/>
        <path id="DejaVuSans-35" d="M 691 4666 
L 3169 4666 
L 3169 4134 
L 1269 4134 
L 1269 2991 
Q 1406 3038 1543 3061 
Q 1681 3084 1819 3084 
Q 2600 3084 3056 2656 
Q 3513 2228 3513 1497 
Q 3513 744 3044 326 
Q 2575 -91 1722 -91 
Q 1428 -91 1123 -41 
Q 819 9 494 109 
L 494 744 
Q 775 591 1075 516 
Q 1375 441 1709 441 
Q 2250 441 2565 725 
Q 2881 1009 2881 1497 
Q 2881 1984 2565 2268 
Q 2250 2553 1709 2553 
Q 1456 2553 1204 2497 
Q 953 2441 691 2322 
L 691 4666 
z
" transform="scale(0.015625)"/>
       </defs>
       <use xlink:href="#DejaVuSans-2212"/>
       <use xlink:href="#DejaVuSans-31" transform="translate(83.789062 0)"/>
       <use xlink:href="#DejaVuSans-37" transform="translate(147.412109 0)"/>
       <use xlink:href="#DejaVuSans-35" transform="translate(211.035156 0)"/>
      </g>
     </g>
    </g>
    <g id="ytick_3">
     <g id="line2d_10">
      <g>
       <use xlink:href="#m1d1c4dea12" x="57.6" y="233.706614" style="stroke: #000000; stroke-width: 0.8"/>
      </g>
     </g>
     <g id="text_10">
      <!-- −150 -->
      <g transform="translate(23.132812 237.505833) scale(0.1 -0.1)">
       <use xlink:href="#DejaVuSans-2212"/>
       <use xlink:href="#DejaVuSans-31" transform="translate(83.789062 0)"/>
       <use xlink:href="#DejaVuSans-35" transform="translate(147.412109 0)"/>
       <use xlink:href="#DejaVuSans-30" transform="translate(211.035156 0)"/>
      </g>
     </g>
    </g>
    <g id="ytick_4">
     <g id="line2d_11">
      <g>
       <use xlink:href="#m1d1c4dea12" x="57.6" y="203.683512" style="stroke: #000000; stroke-width: 0.8"/>
      </g>
     </g>
     <g id="text_11">
      <!-- −125 -->
      <g transform="translate(23.132812 207.482731) scale(0.1 -0.1)">
       <use xlink:href="#DejaVuSans-2212"/>
       <use xlink:href="#DejaVuSans-31" transform="translate(83.789062 0)"/>
       <use xlink:href="#DejaVuSans-32" transform="translate(147.412109 0)"/>
       <use xlink:href="#DejaVuSans-35" transform="translate(211.035156 0)"/>
      </g>
     </g>
    </g>
    <g id="ytick_5">
     <g id="line2d_12">
      <g>
       <use xlink:href="#m1d1c4dea12" x="57.6" y="173.66041" style="stroke: #000000; stroke-width: 0.8"/>
      </g>
     </g>
     <g id="text_12">
      <!-- −100 -->
      <g transform="translate(23.132812 177.459628) scale(0.1 -0.1)">
       <use xlink:href="#DejaVuSans-2212"/>
       <use xlink:href="#DejaVuSans-31" transform="translate(83.789062 0)"/>
       <use xlink:href="#DejaVuSans-30" transform="translate(147.412109 0)"/>
       <use xlink:href="#DejaVuSans-30" transform="translate(211.035156 0)"/>
      </g>
     </g>
    </g>
    <g id="ytick_6">
     <g id="line2d_13">
      <g>
       <use xlink:href="#m1d1c4dea12" x="57.6" y="143.637307" style="stroke: #000000; stroke-width: 0.8"/>
      </g>
     </g>
     <g id="text_13">
      <!-- −75 -->
      <g transform="translate(29.495313 147.436526) scale(0.1 -0.1)">
       <use xlink:href="#DejaVuSans-2212"/>
       <use xlink:href="#DejaVuSans-37" transform="translate(83.789062 0)"/>
       <use xlink:href="#DejaVuSans-35" transform="translate(147.412109 0)"/>
      </g>
     </g>
    </g>
    <g id="ytick_7">
     <g id="line2d_14">
      <g>
       <use xlink:href="#m1d1c4dea12" x="57.6" y="113.614205" style="stroke: #000000; stroke-width: 0.8"/>
      </g>
     </g>
     <g id="text_14">
      <!-- −50 -->
      <g transform="translate(29.495313 117.413424) scale(0.1 -0.1)">
       <use xlink:href="#DejaVuSans-2212"/>
       <use xlink:href="#DejaVuSans-35" transform="translate(83.789062 0)"/>
       <use xlink:href="#DejaVuSans-30" transform="translate(147.412109 0)"/>
      </g>
     </g>
    </g>
    <g id="ytick_8">
     <g id="line2d_15">
      <g>
       <use xlink:href="#m1d1c4dea12" x="57.6" y="83.591102" style="stroke: #000000; stroke-width: 0.8"/>
      </g>
     </g>
     <g id="text_15">
      <!-- −25 -->
      <g transform="translate(29.495313 87.390321) scale(0.1 -0.1)">
       <use xlink:href="#DejaVuSans-2212"/>
       <use xlink:href="#DejaVuSans-32" transform="translate(83.789062 0)"/>
       <use xlink:href="#DejaVuSans-35" transform="translate(147.412109 0)"/>
      </g>
     </g>
    </g>
    <g id="ytick_9">
     <g id="line2d_16">
      <g>
       <use xlink:href="#m1d1c4dea12" x="57.6" y="53.568" style="stroke: #000000; stroke-width: 0.8"/>
      </g>
     </g>
     <g id="text_16">
      <!-- 0 -->
      <g transform="translate(44.2375 57.367219) scale(0.1 -0.1)">
       <use xlink:href="#DejaVuSans-30"/>
      </g>
     </g>
    </g>
   </g>
   <g id="line2d_17">
    <path d="M 73.832727 53.568 
L 162.842182 53.58922 
L 163 54.272849 
L 163.124 54.574888 
L 163.281818 54.785193 
L 163.405818 54.901821 
L 163.789091 55.019542 
L 164.431636 55.193547 
L 164.758545 55.87719 
L 165.051636 55.98791 
L 166.393091 56.446809 
L 166.550909 56.507682 
L 166.844 56.717955 
L 167.430182 57.065696 
L 168.162909 57.545858 
L 168.309455 57.786207 
L 168.591273 57.965595 
L 168.749091 58.008078 
L 169.267636 58.120267 
L 169.425455 58.244188 
L 169.876364 58.60484 
L 170.192 58.71433 
L 170.969818 59.103713 
L 171.138909 59.218985 
L 171.894182 59.382567 
L 172.198545 59.503665 
L 172.469091 59.681551 
L 172.762182 59.810922 
L 173.044 59.926577 
L 173.359636 60.257234 
L 173.416 60.342473 
L 173.585091 60.543727 
L 173.720364 60.596848 
L 174.092364 60.711308 
L 174.520727 60.852058 
L 175.050545 61.116331 
L 175.185818 61.193724 
L 175.524 61.30408 
L 176.098909 61.507613 
L 176.346909 61.64756 
L 176.910545 61.814526 
L 177.271273 62.167262 
L 177.417818 62.480913 
L 177.677091 62.58008 
L 177.88 62.680829 
L 178.454909 62.797201 
L 178.691636 63.007494 
L 178.860727 63.14288 
L 179.029818 63.200633 
L 179.187636 63.3109 
L 182.997818 64.663516 
L 183.200727 64.776327 
L 183.347273 64.940977 
L 183.595273 65.014046 
L 183.865818 65.155402 
L 184.08 65.254931 
L 185.32 65.829787 
L 185.489091 65.956849 
L 185.680727 66.101873 
L 185.816 66.162356 
L 186.064 66.293358 
L 186.210545 66.604352 
L 186.390909 66.715036 
L 188.724364 68.179329 
L 189.321818 68.362169 
L 190.325091 68.639987 
L 191.249455 68.905163 
L 191.373455 68.995583 
L 191.621455 69.103304 
L 193.695636 70.081654 
L 193.876 70.24483 
L 194.845455 70.727805 
L 195.262545 70.846451 
L 195.555636 71.119132 
L 195.702182 71.252114 
L 196.874545 71.745358 
L 197.167636 71.841561 
L 197.314182 71.967724 
L 197.798909 72.401989 
L 198.452727 72.834881 
L 199.704 73.208774 
L 199.895636 73.298173 
L 200.166182 73.346392 
L 200.459273 73.439646 
L 200.662182 73.612158 
L 201.101818 73.756311 
L 201.270909 73.931621 
L 201.417455 74.019901 
L 201.744364 74.131402 
L 202.026182 74.238883 
L 202.544727 74.501443 
L 202.758909 74.628461 
L 203.040727 74.810977 
L 204.179273 75.391243 
L 204.348364 75.520656 
L 204.517455 75.612694 
L 204.652727 75.725599 
L 204.945818 75.863901 
L 205.475636 76.045232 
L 205.689818 76.089407 
L 205.982909 76.241446 
L 206.208364 76.672862 
L 206.839636 77.013243 
L 207.200364 77.147627 
L 207.358182 77.263724 
L 208.102182 77.571558 
L 208.327636 77.657498 
L 208.496727 77.78409 
L 208.654545 77.948753 
L 208.925091 78.158293 
L 209.274545 78.292637 
L 209.466182 78.409268 
L 209.567636 78.490091 
L 209.714182 78.599485 
L 215.305455 80.808531 
L 215.474545 80.911134 
L 216.252364 81.351268 
L 216.444 81.472138 
L 216.872364 81.625669 
L 217.131636 81.771693 
L 217.503636 81.933958 
L 217.943273 82.14536 
L 218.089818 82.279747 
L 218.247636 82.346389 
L 218.687273 82.457571 
L 218.856364 82.581904 
L 219.284727 82.758637 
L 219.498909 82.962347 
L 220.152727 83.208528 
L 220.524727 83.33231 
L 220.930545 83.525753 
L 221.099636 83.593068 
L 221.573091 83.799637 
L 221.730909 83.83141 
L 223.072364 84.188083 
L 223.230182 84.279186 
L 223.771273 84.426155 
L 224.109455 84.584151 
L 224.289818 84.622812 
L 225.067636 85.034708 
L 225.259273 85.174805 
L 225.372 85.350129 
L 225.518545 85.450331 
L 225.935636 85.565323 
L 226.905091 86.20639 
L 227.119273 86.314737 
L 227.705455 86.711528 
L 227.930909 86.96333 
L 228.314182 87.08569 
L 228.505818 87.144379 
L 228.72 87.25444 
L 229.768364 87.802656 
L 229.892364 87.921509 
L 232.969818 88.992264 
L 234.221091 89.49165 
L 234.491636 89.688834 
L 235.055273 89.849377 
L 235.235636 89.948673 
L 235.596364 90.14528 
L 235.799273 90.319541 
L 236.385455 90.434777 
L 237.422545 91.060408 
L 237.580364 91.181642 
L 239.226182 91.811846 
L 239.361455 91.88329 
L 239.891273 92.069704 
L 240.319636 92.186907 
L 240.590182 92.238105 
L 241.480727 92.509475 
L 241.875273 92.611068 
L 242.055636 92.643503 
L 242.472727 92.771252 
L 242.777091 92.974554 
L 243.273091 93.091414 
L 243.487273 93.161052 
L 244.310182 93.499706 
L 244.535636 93.669745 
L 244.817455 93.761247 
L 244.975273 93.878486 
L 245.606545 93.983863 
L 246.046182 94.134659 
L 246.282909 94.245717 
L 246.587273 94.327194 
L 247.353818 94.497312 
L 247.511636 94.572458 
L 247.770909 94.686228 
L 247.928727 94.859959 
L 248.255636 94.944558 
L 248.684 95.070853 
L 248.830545 95.144629 
L 249.112364 95.298321 
L 249.349091 95.49713 
L 251.908 96.347684 
L 252.110909 96.448082 
L 252.257455 96.557025 
L 252.956364 96.661724 
L 253.170545 96.774632 
L 253.846909 97.024975 
L 254.275273 97.21189 
L 254.962909 97.340492 
L 256.090182 97.70168 
L 256.236727 97.809046 
L 256.856727 98.018512 
L 257.409091 98.133173 
L 257.668364 98.234523 
L 258.119273 98.345225 
L 258.48 98.53083 
L 258.581455 98.625294 
L 258.728 98.693411 
L 259.021091 98.787265 
L 259.178909 98.871284 
L 260.509091 99.254061 
L 261.106545 99.468924 
L 261.670182 99.580156 
L 262.414182 99.694188 
L 262.696 99.773877 
L 263.158182 99.887977 
L 267.419273 101.429387 
L 268.321091 101.584264 
L 270.045818 102.194003 
L 270.462909 102.321728 
L 270.688364 102.454508 
L 270.891273 102.621189 
L 271.105455 102.857886 
L 271.398545 103.028805 
L 271.748 103.458641 
L 271.905818 103.588043 
L 272.559636 103.712523 
L 272.830182 103.799095 
L 273.168364 103.908371 
L 273.314909 103.997639 
L 273.833455 104.105019 
L 276.809455 105.092423 
L 277.339273 105.284731 
L 277.497091 105.391812 
L 277.778909 105.466534 
L 278.150909 105.604619 
L 278.477818 105.826246 
L 279.188 106.011267 
L 279.357091 106.091602 
L 280.360364 106.389567 
L 281.115636 106.499568 
L 282.648727 107.315901 
L 283.065818 107.554007 
L 284.046545 107.758742 
L 284.666545 108.132898 
L 285.331636 108.248768 
L 285.500727 108.332675 
L 286.109455 108.459541 
L 287.101455 108.717212 
L 287.574909 108.822726 
L 287.789091 108.921103 
L 289.412364 109.283965 
L 290.314182 109.488369 
L 291.430182 109.742967 
L 292.692727 110.150048 
L 295.510909 110.765921 
L 295.68 110.831814 
L 296.683273 111.121529 
L 296.841091 111.193653 
L 297.010182 111.311469 
L 297.190545 111.395995 
L 298.329091 111.563803 
L 299.501455 111.728315 
L 300.561091 112.071508 
L 300.707636 112.118113 
L 300.921818 112.214182 
L 301.068364 112.296082 
L 301.925091 112.521483 
L 302.116727 112.575864 
L 302.635273 112.675584 
L 302.804364 112.731624 
L 303.390545 112.857329 
L 303.717455 112.978836 
L 304.123273 113.13117 
L 304.281091 113.188281 
L 304.506545 113.28934 
L 304.686909 113.405517 
L 305.273091 113.537049 
L 305.509818 113.628507 
L 305.735273 113.740589 
L 305.904364 113.877508 
L 306.310182 113.988762 
L 307.313455 114.188032 
L 307.944727 114.461996 
L 308.790182 114.579266 
L 309.105818 114.675836 
L 310.469818 114.991779 
L 310.943273 115.099553 
L 311.089818 115.14863 
L 311.608364 115.264327 
L 314.268727 116.132323 
L 315.215636 116.288463 
L 315.373455 116.338036 
L 315.632727 116.376161 
L 317.346182 116.721322 
L 317.661818 116.799178 
L 318.169091 116.923342 
L 318.417091 116.981993 
L 318.563636 117.09906 
L 319.048364 117.245323 
L 319.510545 117.363643 
L 319.781091 117.476369 
L 320.288364 117.64289 
L 320.863273 117.833858 
L 323.162909 118.481362 
L 327.773455 119.828471 
L 328.889455 120.015899 
L 329.148727 120.09995 
L 329.520727 120.211929 
L 329.791273 120.301441 
L 330.332364 120.476658 
L 330.501455 120.518929 
L 331.414545 120.78688 
L 331.989455 120.855747 
L 332.293818 120.966652 
L 332.519273 121.016653 
L 332.902545 121.063734 
L 333.206909 121.174796 
L 333.511273 121.211224 
L 333.815636 121.329757 
L 334.356727 121.399321 
L 334.74 121.510894 
L 335.089455 121.596568 
L 335.326182 121.7064 
L 335.506545 121.750288 
L 337.062182 122.211069 
L 337.22 122.319345 
L 337.400364 122.378914 
L 337.885091 122.540798 
L 338.381091 122.732926 
L 338.910909 122.862766 
L 339.215273 122.997232 
L 339.801455 123.111803 
L 340.004364 123.204428 
L 340.759636 123.410722 
L 340.962545 123.512614 
L 341.469818 123.624883 
L 342.845091 124.111995 
L 342.991636 124.19004 
L 343.284727 124.284775 
L 344.073818 124.523287 
L 344.310545 124.591735 
L 344.468364 124.698876 
L 344.603636 124.760921 
L 345.099636 124.936236 
L 345.697091 125.049267 
L 347.906545 125.717925 
L 348.053091 125.749094 
L 348.763273 125.975516 
L 348.954909 126.056415 
L 349.259273 126.179909 
L 349.541091 126.330021 
L 349.642545 126.44291 
L 350.014545 126.615424 
L 350.341455 126.725259 
L 351.085455 127.136615 
L 351.739273 127.387816 
L 352.1 127.498717 
L 352.674909 127.793091 
L 352.922909 127.91529 
L 353.114545 128.043357 
L 353.689455 128.264029 
L 353.892364 128.404605 
L 354.185455 128.50984 
L 354.388364 128.65438 
L 354.613818 128.763636 
L 354.828 128.824502 
L 355.188727 128.924662 
L 355.391636 129.019246 
L 356.282182 129.415737 
L 356.620364 129.533472 
L 356.789455 129.668868 
L 357.296727 129.912676 
L 357.601091 130.13533 
L 357.837818 130.26962 
L 357.984364 130.462268 
L 358.390182 130.666781 
L 358.536727 130.76398 
L 358.694545 130.838953 
L 358.886182 130.948464 
L 361.016727 132.61972 
L 361.636727 132.961463 
L 361.817091 133.059785 
L 362.02 133.179666 
L 363.090909 133.8202 
L 363.293818 134.029557 
L 363.710909 134.34503 
L 365.694909 135.649844 
L 365.830182 135.817002 
L 365.875273 135.914004 
L 366.044364 136.047432 
L 366.258545 136.1558 
L 366.337455 136.26065 
L 366.461455 136.44984 
L 366.653091 136.562815 
L 366.788364 136.660059 
L 367.025091 136.815806 
L 367.340727 136.935841 
L 367.633818 137.164826 
L 367.780364 137.256469 
L 367.972 137.380201 
L 368.141091 137.49052 
L 368.422909 137.681039 
L 368.546909 137.781556 
L 368.704727 137.905816 
L 368.918909 138.109411 
L 369.054182 138.200013 
L 369.200727 138.307901 
L 371.105818 139.85381 
L 371.263636 139.946307 
L 371.545455 140.160361 
L 371.894909 140.475806 
L 372.030182 140.604856 
L 372.142909 140.714262 
L 372.312 140.954991 
L 372.481091 141.058448 
L 372.740364 141.374211 
L 372.965818 141.493251 
L 373.112364 141.766512 
L 373.337818 142.011144 
L 373.529455 142.218646 
L 373.743636 142.464055 
L 373.890182 142.581429 
L 373.980364 142.690043 
L 374.160727 142.812328 
L 374.273455 142.94276 
L 374.498909 143.134078 
L 374.645455 143.283564 
L 375.490909 143.958378 
L 375.772727 144.298361 
L 375.829091 144.395586 
L 376.077091 144.563367 
L 376.381455 144.854586 
L 377.069091 145.456518 
L 377.305818 145.62725 
L 377.452364 145.834341 
L 377.621455 145.944352 
L 377.644 146.048011 
L 377.779273 146.306902 
L 377.970909 146.628909 
L 378.162545 146.786779 
L 378.297818 147.021909 
L 378.410545 147.134916 
L 378.568364 147.418069 
L 378.602182 147.464259 
L 378.76 147.807386 
L 378.951636 148.004443 
L 379.109455 148.089063 
L 379.346182 148.468069 
L 379.504 148.560309 
L 379.797091 149.12588 
L 379.887273 149.166604 
L 380.056364 149.540391 
L 380.225455 149.711722 
L 380.349455 149.877897 
L 380.428364 149.932213 
L 380.597455 150.342482 
L 381.093455 151.486856 
L 381.172364 151.556435 
L 381.296364 151.638092 
L 381.521818 151.844828 
L 381.702182 151.93812 
L 382.029091 152.420362 
L 382.254545 152.584785 
L 382.502545 152.937176 
L 382.604 153.044255 
L 382.728 153.157846 
L 383.077455 153.69415 
L 383.269091 154.258837 
L 383.505818 154.476528 
L 383.708727 154.615061 
L 384.283636 155.828235 
L 384.418909 155.957779 
L 384.599273 156.647491 
L 384.655636 156.832959 
L 384.802182 157.465559 
L 384.881091 157.619488 
L 385.072727 158.163109 
L 385.456 158.550432 
L 385.625091 158.926937 
L 385.670182 159.012222 
L 385.861818 159.514824 
L 385.929455 159.547359 
L 386.087273 160.072287 
L 386.256364 160.435915 
L 386.391636 161.177056 
L 386.493091 161.281441 
L 387.270909 162.886332 
L 387.338545 162.987598 
L 388.195273 166.160946 
L 388.229091 166.252645 
L 388.386909 166.788793 
L 388.477091 166.872292 
L 388.928 168.230437 
L 389.773455 169.834247 
L 389.92 170.43395 
L 390.077818 170.522709 
L 390.246909 171.152508 
L 390.382182 171.605316 
L 390.483636 171.715398 
L 390.697818 172.56503 
L 390.844364 173.051295 
L 390.934545 173.232477 
L 391.622182 176.207948 
L 391.757455 176.896811 
L 392.005455 177.625117 
L 392.061818 177.863431 
L 392.197091 178.319703 
L 392.208364 178.322051 
L 392.366182 178.887081 
L 392.4 179.048783 
L 392.557818 179.61713 
L 392.704364 180.276442 
L 392.828364 180.863049 
L 392.907273 180.977275 
L 393.437091 182.679111 
L 393.583636 183.664125 
L 393.921818 185.469594 
L 394.057091 186.094408 
L 394.226182 187.419272 
L 394.248727 187.489363 
L 394.406545 188.236709 
L 394.575636 188.786654 
L 394.868727 192.180076 
L 395.511273 194.781214 
L 395.657818 196.476366 
L 395.702909 196.674015 
L 396.041091 200.920507 
L 396.176364 202.604677 
L 396.300364 203.76589 
L 396.435636 207.45952 
L 396.469455 207.805137 
L 396.672364 211.028079 
L 396.717455 211.219045 
L 396.852727 214.074784 
L 396.920364 214.16163 
L 397.202182 218.382207 
L 397.36 221.328426 
L 397.405091 221.543706 
L 397.743273 230.181117 
L 397.934909 239.973626 
L 397.957455 240.012241 
L 398.036364 241.709961 
L 398.216727 254.465002 
L 398.228 254.48524 
L 398.284364 261.024443 
L 398.430909 284.968242 
L 398.442182 285.132286 
L 398.476 295.488 
L 398.476 295.488 
" clip-path="url(#p8e0837bf39)" style="fill: none; stroke: #1f77b4; stroke-width: 1.5; stroke-linecap: square"/>
   </g>
   <g id="line2d_18">
    <path d="M 172.367636 59.612443 
L 359.720364 131.628066 
" clip-path="url(#p8e0837bf39)" style="fill: none; stroke-dasharray: 5.55,2.4; stroke-dashoffset: 0; stroke: #ff7f0e; stroke-width: 1.5"/>
   </g>
   <g id="line2d_19">
    <path d="M 73.832727 125.623446 
L 398.487273 125.623446 
L 398.487273 125.623446 
" clip-path="url(#p8e0837bf39)" style="fill: none; stroke-dasharray: 5.55,2.4; stroke-dashoffset: 0; stroke: #2ca02c; stroke-width: 1.5"/>
   </g>
   <g id="LineCollection_1">
    <path d="M 359.720364 295.488 
L 359.720364 53.568 
" clip-path="url(#p8e0837bf39)" style="fill: none; stroke-dasharray: 5.55,2.4; stroke-dashoffset: 0; stroke: #1f77b4; stroke-width: 1.5"/>
   </g>
   <g id="patch_3">
    <path d="M 57.6 307.584 
L 57.6 41.472 
" style="fill: none; stroke: #000000; stroke-width: 0.8; stroke-linejoin: miter; stroke-linecap: square"/>
   </g>
   <g id="patch_4">
    <path d="M 414.72 307.584 
L 414.72 41.472 
" style="fill: none; stroke: #000000; stroke-width: 0.8; stroke-linejoin: miter; stroke-linecap: square"/>
   </g>
   <g id="patch_5">
    <path d="M 57.6 307.584 
L 414.72 307.584 
" style="fill: none; stroke: #000000; stroke-width: 0.8; stroke-linejoin: miter; stroke-linecap: square"/>
   </g>
   <g id="patch_6">
    <path d="M 57.6 41.472 
L 414.72 41.472 
" style="fill: none; stroke: #000000; stroke-width: 0.8; stroke-linejoin: miter; stroke-linecap: square"/>
   </g>
   <g id="text_17">
    <!-- Energy Decay - 16000 Hz -->
    <g transform="translate(159.7725 35.472) scale(0.12 -0.12)">
     <defs>
      <path id="DejaVuSans-45" d="M 628 4666 
L 3578 4666 
L 3578 4134 
L 1259 4134 
L 1259 2753 
L 3481 2753 
L 3481 2222 
L 1259 2222 
L 1259 531 
L 3634 531 
L 3634 0 
L 628 0 
L 628 4666 
z
" transform="scale(0.015625)"/>
      <path id="DejaVuSans-6e" d="M 3513 2113 
L 3513 0 
L 2938 0 
L 2938 2094 
Q 2938 2591 2744 2837 
Q 2550 3084 2163 3084 
Q 1697 3084 1428 2787 
Q 1159 2491 1159 1978 
L 1159 0 
L 581 0 
L 581 3500 
L 1159 3500 
L 1159 2956 
Q 1366 3272 1645 3428 
Q 1925 3584 2291 3584 
Q 2894 3584 3203 3211 
Q 3513 2838 3513 2113 
z
" transform="scale(0.015625)"/>
      <path id="DejaVuSans-65" d="M 3597 1894 
L 3597 1613 
L 953 1613 
Q 991 1019 1311 708 
Q 1631 397 2203 397 
Q 2534 397 2845 478 
Q 3156 559 3463 722 
L 3463 178 
Q 3153 47 2828 -22 
Q 2503 -91 2169 -91 
Q 1331 -91 842 396 
Q 353 884 353 1716 
Q 353 2575 817 3079 
Q 1281 3584 2069 3584 
Q 2775 3584 3186 3129 
Q 3597 2675 3597 1894 
z
M 3022 2063 
Q 3016 2534 2758 2815 
Q 2500 3097 2075 3097 
Q 1594 3097 1305 2825 
Q 1016 2553 972 2059 
L 3022 2063 
z
" transform="scale(0.015625)"/>
      <path id="DejaVuSans-72" d="M 2631 2963 
Q 2534 3019 2420 3045 
Q 2306 3072 2169 3072 
Q 1681 3072 1420 2755 
Q 1159 2438 1159 1844 
L 1159 0 
L 581 0 
L 581 3500 
L 1159 3500 
L 1159 2956 
Q 1341 3275 1631 3429 
Q 1922 3584 2338 3584 
Q 2397 3584 2469 3576 
Q 2541 3569 2628 3553 
L 2631 2963 
z
" transform="scale(0.015625)"/>
      <path id="DejaVuSans-67" d="M 2906 1791 
Q 2906 2416 2648 2759 
Q 2391 3103 1925 3103 
Q 1463 3103 1205 2759 
Q 947 2416 947 1791 
Q 947 1169 1205 825 
Q 1463 481 1925 481 
Q 2391 481 2648 825 
Q 2906 1169 2906 1791 
z
M 3481 434 
Q 3481 -459 3084 -895 
Q 2688 -1331 1869 -1331 
Q 1566 -1331 1297 -1286 
Q 1028 -1241 775 -1147 
L 775 -588 
Q 1028 -725 1275 -790 
Q 1522 -856 1778 -856 
Q 2344 -856 2625 -561 
Q 2906 -266 2906 331 
L 2906 616 
Q 2728 306 2450 153 
Q 2172 0 1784 0 
Q 1141 0 747 490 
Q 353 981 353 1791 
Q 353 2603 747 3093 
Q 1141 3584 1784 3584 
Q 2172 3584 2450 3431 
Q 2728 3278 2906 2969 
L 2906 3500 
L 3481 3500 
L 3481 434 
z
" transform="scale(0.015625)"/>
      <path id="DejaVuSans-79" d="M 2059 -325 
Q 1816 -950 1584 -1140 
Q 1353 -1331 966 -1331 
L 506 -1331 
L 506 -850 
L 844 -850 
Q 1081 -850 1212 -737 
Q 1344 -625 1503 -206 
L 1606 56 
L 191 3500 
L 800 3500 
L 1894 763 
L 2988 3500 
L 3597 3500 
L 2059 -325 
z
" transform="scale(0.015625)"/>
      <path id="DejaVuSans-20" transform="scale(0.015625)"/>
      <path id="DejaVuSans-44" d="M 1259 4147 
L 1259 519 
L 2022 519 
Q 2988 519 3436 956 
Q 3884 1394 3884 2338 
Q 3884 3275 3436 3711 
Q 2988 4147 2022 4147 
L 1259 4147 
z
M 628 4666 
L 1925 4666 
Q 3281 4666 3915 4102 
Q 4550 3538 4550 2338 
Q 4550 1131 3912 565 
Q 3275 0 1925 0 
L 628 0 
L 628 4666 
z
" transform="scale(0.015625)"/>
      <path id="DejaVuSans-63" d="M 3122 3366 
L 3122 2828 
Q 2878 2963 2633 3030 
Q 2388 3097 2138 3097 
Q 1578 3097 1268 2742 
Q 959 2388 959 1747 
Q 959 1106 1268 751 
Q 1578 397 2138 397 
Q 2388 397 2633 464 
Q 2878 531 3122 666 
L 3122 134 
Q 2881 22 2623 -34 
Q 2366 -91 2075 -91 
Q 1284 -91 818 406 
Q 353 903 353 1747 
Q 353 2603 823 3093 
Q 1294 3584 2113 3584 
Q 2378 3584 2631 3529 
Q 2884 3475 3122 3366 
z
" transform="scale(0.015625)"/>
      <path id="DejaVuSans-61" d="M 2194 1759 
Q 1497 1759 1228 1600 
Q 959 1441 959 1056 
Q 959 750 1161 570 
Q 1363 391 1709 391 
Q 2188 391 2477 730 
Q 2766 1069 2766 1631 
L 2766 1759 
L 2194 1759 
z
M 3341 1997 
L 3341 0 
L 2766 0 
L 2766 531 
Q 2569 213 2275 61 
Q 1981 -91 1556 -91 
Q 1019 -91 701 211 
Q 384 513 384 1019 
Q 384 1609 779 1909 
Q 1175 2209 1959 2209 
L 2766 2209 
L 2766 2266 
Q 2766 2663 2505 2880 
Q 2244 3097 1772 3097 
Q 1472 3097 1187 3025 
Q 903 2953 641 2809 
L 641 3341 
Q 956 3463 1253 3523 
Q 1550 3584 1831 3584 
Q 2591 3584 2966 3190 
Q 3341 2797 3341 1997 
z
" transform="scale(0.015625)"/>
      <path id="DejaVuSans-2d" d="M 313 2009 
L 1997 2009 
L 1997 1497 
L 313 1497 
L 313 2009 
z
" transform="scale(0.015625)"/>
      <path id="DejaVuSans-36" d="M 2113 2584 
Q 1688 2584 1439 2293 
Q 1191 2003 1191 1497 
Q 1191 994 1439 701 
Q 1688 409 2113 409 
Q 2538 409 2786 701 
Q 3034 994 3034 1497 
Q 3034 2003 2786 2293 
Q 2538 2584 2113 2584 
z
M 3366 4563 
L 3366 3988 
Q 3128 4100 2886 4159 
Q 2644 4219 2406 4219 
Q 1781 4219 1451 3797 
Q 1122 3375 1075 2522 
Q 1259 2794 1537 2939 
Q 1816 3084 2150 3084 
Q 2853 3084 3261 2657 
Q 3669 2231 3669 1497 
Q 3669 778 3244 343 
Q 2819 -91 2113 -91 
Q 1303 -91 875 529 
Q 447 1150 447 2328 
Q 447 3434 972 4092 
Q 1497 4750 2381 4750 
Q 2619 4750 2861 4703 
Q 3103 4656 3366 4563 
z
" transform="scale(0.015625)"/>
      <path id="DejaVuSans-48" d="M 628 4666 
L 1259 4666 
L 1259 2753 
L 3553 2753 
L 3553 4666 
L 4184 4666 
L 4184 0 
L 3553 0 
L 3553 2222 
L 1259 2222 
L 1259 0 
L 628 0 
L 628 4666 
z
" transform="scale(0.015625)"/>
      <path id="DejaVuSans-7a" d="M 353 3500 
L 3084 3500 
L 3084 2975 
L 922 459 
L 3084 459 
L 3084 0 
L 275 0 
L 275 525 
L 2438 3041 
L 353 3041 
L 353 3500 
z
" transform="scale(0.015625)"/>
     </defs>
     <use xlink:href="#DejaVuSans-45"/>
     <use xlink:href="#DejaVuSans-6e" transform="translate(63.183594 0)"/>
     <use xlink:href="#DejaVuSans-65" transform="translate(126.5625 0)"/>
     <use xlink:href="#DejaVuSans-72" transform="translate(188.085938 0)"/>
     <use xlink:href="#DejaVuSans-67" transform="translate(227.449219 0)"/>
     <use xlink:href="#DejaVuSans-79" transform="translate(290.925781 0)"/>
     <use xlink:href="#DejaVuSans-20" transform="translate(350.105469 0)"/>
     <use xlink:href="#DejaVuSans-44" transform="translate(381.892578 0)"/>
     <use xlink:href="#DejaVuSans-65" transform="translate(458.894531 0)"/>
     <use xlink:href="#DejaVuSans-63" transform="translate(520.417969 0)"/>
     <use xlink:href="#DejaVuSans-61" transform="translate(575.398438 0)"/>
     <use xlink:href="#DejaVuSans-79" transform="translate(636.677734 0)"/>
     <use xlink:href="#DejaVuSans-20" transform="translate(695.857422 0)"/>
     <use xlink:href="#DejaVuSans-2d" transform="translate(727.644531 0)"/>
     <use xlink:href="#DejaVuSans-20" transform="translate(763.728516 0)"/>
     <use xlink:href="#DejaVuSans-31" transform="translate(795.515625 0)"/>
     <use xlink:href="#DejaVuSans-36" transform="translate(859.138672 0)"/>
     <use xlink:href="#DejaVuSans-30" transform="translate(922.761719 0)"/>
     <use xlink:href="#DejaVuSans-30" transform="translate(986.384766 0)"/>
     <use xlink:href="#DejaVuSans-30" transform="translate(1050.007812 0)"/>
     <use xlink:href="#DejaVuSans-20" transform="translate(1113.630859 0)"/>
     <use xlink:href="#DejaVuSans-48" transform="translate(1145.417969 0)"/>
     <use xlink:href="#DejaVuSans-7a" transform="translate(1220.613281 0)"/>
    </g>
   </g>
   <g id="legend_1">
    <g id="patch_7">
     <path d="M 64.6 302.584 
L 175.351562 302.584 
Q 177.351562 302.584 177.351562 300.584 
L 177.351562 242.8715 
Q 177.351562 240.8715 175.351562 240.8715 
L 64.6 240.8715 
Q 62.6 240.8715 62.6 242.8715 
L 62.6 300.584 
Q 62.6 302.584 64.6 302.584 
z
" style="fill: #ffffff; opacity: 0.8; stroke: #cccccc; stroke-linejoin: miter"/>
    </g>
    <g id="line2d_20">
     <path d="M 66.6 248.969937 
L 76.6 248.969937 
L 86.6 248.969937 
" style="fill: none; stroke: #1f77b4; stroke-width: 1.5; stroke-linecap: square"/>
    </g>
    <g id="text_18">
     <!-- Energy -->
     <g transform="translate(94.6 252.469937) scale(0.1 -0.1)">
      <use xlink:href="#DejaVuSans-45"/>
      <use xlink:href="#DejaVuSans-6e" transform="translate(63.183594 0)"/>
      <use xlink:href="#DejaVuSans-65" transform="translate(126.5625 0)"/>
      <use xlink:href="#DejaVuSans-72" transform="translate(188.085938 0)"/>
      <use xlink:href="#DejaVuSans-67" transform="translate(227.449219 0)"/>
      <use xlink:href="#DejaVuSans-79" transform="translate(290.925781 0)"/>
     </g>
    </g>
    <g id="line2d_21">
     <path d="M 66.6 263.648062 
L 76.6 263.648062 
L 86.6 263.648062 
" style="fill: none; stroke-dasharray: 5.55,2.4; stroke-dashoffset: 0; stroke: #ff7f0e; stroke-width: 1.5"/>
    </g>
    <g id="text_19">
     <!-- Linear Fit -->
     <g transform="translate(94.6 267.148062) scale(0.1 -0.1)">
      <defs>
       <path id="DejaVuSans-4c" d="M 628 4666 
L 1259 4666 
L 1259 531 
L 3531 531 
L 3531 0 
L 628 0 
L 628 4666 
z
" transform="scale(0.015625)"/>
       <path id="DejaVuSans-69" d="M 603 3500 
L 1178 3500 
L 1178 0 
L 603 0 
L 603 3500 
z
M 603 4863 
L 1178 4863 
L 1178 4134 
L 603 4134 
L 603 4863 
z
" transform="scale(0.015625)"/>
       <path id="DejaVuSans-46" d="M 628 4666 
L 3309 4666 
L 3309 4134 
L 1259 4134 
L 1259 2759 
L 3109 2759 
L 3109 2228 
L 1259 2228 
L 1259 0 
L 628 0 
L 628 4666 
z
" transform="scale(0.015625)"/>
       <path id="DejaVuSans-74" d="M 1172 4494 
L 1172 3500 
L 2356 3500 
L 2356 3053 
L 1172 3053 
L 1172 1153 
Q 1172 725 1289 603 
Q 1406 481 1766 481 
L 2356 481 
L 2356 0 
L 1766 0 
Q 1100 0 847 248 
Q 594 497 594 1153 
L 594 3053 
L 172 3053 
L 172 3500 
L 594 3500 
L 594 4494 
L 1172 4494 
z
" transform="scale(0.015625)"/>
      </defs>
      <use xlink:href="#DejaVuSans-4c"/>
      <use xlink:href="#DejaVuSans-69" transform="translate(55.712891 0)"/>
      <use xlink:href="#DejaVuSans-6e" transform="translate(83.496094 0)"/>
      <use xlink:href="#DejaVuSans-65" transform="translate(146.875 0)"/>
      <use xlink:href="#DejaVuSans-61" transform="translate(208.398438 0)"/>
      <use xlink:href="#DejaVuSans-72" transform="translate(269.677734 0)"/>
      <use xlink:href="#DejaVuSans-20" transform="translate(310.791016 0)"/>
      <use xlink:href="#DejaVuSans-46" transform="translate(342.578125 0)"/>
      <use xlink:href="#DejaVuSans-69" transform="translate(392.847656 0)"/>
      <use xlink:href="#DejaVuSans-74" transform="translate(420.630859 0)"/>
     </g>
    </g>
    <g id="line2d_22">
     <path d="M 66.6 278.326187 
L 76.6 278.326187 
L 86.6 278.326187 
" style="fill: none; stroke-dasharray: 5.55,2.4; stroke-dashoffset: 0; stroke: #2ca02c; stroke-width: 1.5"/>
    </g>
    <g id="text_20">
     <!-- -60 dB -->
     <g transform="translate(94.6 281.826187) scale(0.1 -0.1)">
      <defs>
       <path id="DejaVuSans-64" d="M 2906 2969 
L 2906 4863 
L 3481 4863 
L 3481 0 
L 2906 0 
L 2906 525 
Q 2725 213 2448 61 
Q 2172 -91 1784 -91 
Q 1150 -91 751 415 
Q 353 922 353 1747 
Q 353 2572 751 3078 
Q 1150 3584 1784 3584 
Q 2172 3584 2448 3432 
Q 2725 3281 2906 2969 
z
M 947 1747 
Q 947 1113 1208 752 
Q 1469 391 1925 391 
Q 2381 391 2643 752 
Q 2906 1113 2906 1747 
Q 2906 2381 2643 2742 
Q 2381 3103 1925 3103 
Q 1469 3103 1208 2742 
Q 947 2381 947 1747 
z
" transform="scale(0.015625)"/>
       <path id="DejaVuSans-42" d="M 1259 2228 
L 1259 519 
L 2272 519 
Q 2781 519 3026 730 
Q 3272 941 3272 1375 
Q 3272 1813 3026 2020 
Q 2781 2228 2272 2228 
L 1259 2228 
z
M 1259 4147 
L 1259 2741 
L 2194 2741 
Q 2656 2741 2882 2914 
Q 3109 3088 3109 3444 
Q 3109 3797 2882 3972 
Q 2656 4147 2194 4147 
L 1259 4147 
z
M 628 4666 
L 2241 4666 
Q 2963 4666 3353 4366 
Q 3744 4066 3744 3513 
Q 3744 3084 3544 2831 
Q 3344 2578 2956 2516 
Q 3422 2416 3680 2098 
Q 3938 1781 3938 1306 
Q 3938 681 3513 340 
Q 3088 0 2303 0 
L 628 0 
L 628 4666 
z
" transform="scale(0.015625)"/>
      </defs>
      <use xlink:href="#DejaVuSans-2d"/>
      <use xlink:href="#DejaVuSans-36" transform="translate(36.083984 0)"/>
      <use xlink:href="#DejaVuSans-30" transform="translate(99.707031 0)"/>
      <use xlink:href="#DejaVuSans-20" transform="translate(163.330078 0)"/>
      <use xlink:href="#DejaVuSans-64" transform="translate(195.117188 0)"/>
      <use xlink:href="#DejaVuSans-42" transform="translate(258.59375 0)"/>
     </g>
    </g>
    <g id="line2d_23">
     <path d="M 66.6 293.004312 
L 86.6 293.004312 
" style="fill: none; stroke-dasharray: 5.55,2.4; stroke-dashoffset: 0; stroke: #1f77b4; stroke-width: 1.5"/>
    </g>
    <g id="text_21">
     <!-- Estimated RT60 -->
     <g transform="translate(94.6 296.504312) scale(0.1 -0.1)">
      <defs>
       <path id="DejaVuSans-73" d="M 2834 3397 
L 2834 2853 
Q 2591 2978 2328 3040 
Q 2066 3103 1784 3103 
Q 1356 3103 1142 2972 
Q 928 2841 928 2578 
Q 928 2378 1081 2264 
Q 1234 2150 1697 2047 
L 1894 2003 
Q 2506 1872 2764 1633 
Q 3022 1394 3022 966 
Q 3022 478 2636 193 
Q 2250 -91 1575 -91 
Q 1294 -91 989 -36 
Q 684 19 347 128 
L 347 722 
Q 666 556 975 473 
Q 1284 391 1588 391 
Q 1994 391 2212 530 
Q 2431 669 2431 922 
Q 2431 1156 2273 1281 
Q 2116 1406 1581 1522 
L 1381 1569 
Q 847 1681 609 1914 
Q 372 2147 372 2553 
Q 372 3047 722 3315 
Q 1072 3584 1716 3584 
Q 2034 3584 2315 3537 
Q 2597 3491 2834 3397 
z
" transform="scale(0.015625)"/>
       <path id="DejaVuSans-6d" d="M 3328 2828 
Q 3544 3216 3844 3400 
Q 4144 3584 4550 3584 
Q 5097 3584 5394 3201 
Q 5691 2819 5691 2113 
L 5691 0 
L 5113 0 
L 5113 2094 
Q 5113 2597 4934 2840 
Q 4756 3084 4391 3084 
Q 3944 3084 3684 2787 
Q 3425 2491 3425 1978 
L 3425 0 
L 2847 0 
L 2847 2094 
Q 2847 2600 2669 2842 
Q 2491 3084 2119 3084 
Q 1678 3084 1418 2786 
Q 1159 2488 1159 1978 
L 1159 0 
L 581 0 
L 581 3500 
L 1159 3500 
L 1159 2956 
Q 1356 3278 1631 3431 
Q 1906 3584 2284 3584 
Q 2666 3584 2933 3390 
Q 3200 3197 3328 2828 
z
" transform="scale(0.015625)"/>
       <path id="DejaVuSans-52" d="M 2841 2188 
Q 3044 2119 3236 1894 
Q 3428 1669 3622 1275 
L 4263 0 
L 3584 0 
L 2988 1197 
Q 2756 1666 2539 1819 
Q 2322 1972 1947 1972 
L 1259 1972 
L 1259 0 
L 628 0 
L 628 4666 
L 2053 4666 
Q 2853 4666 3247 4331 
Q 3641 3997 3641 3322 
Q 3641 2881 3436 2590 
Q 3231 2300 2841 2188 
z
M 1259 4147 
L 1259 2491 
L 2053 2491 
Q 2509 2491 2742 2702 
Q 2975 2913 2975 3322 
Q 2975 3731 2742 3939 
Q 2509 4147 2053 4147 
L 1259 4147 
z
" transform="scale(0.015625)"/>
       <path id="DejaVuSans-54" d="M -19 4666 
L 3928 4666 
L 3928 4134 
L 2272 4134 
L 2272 0 
L 1638 0 
L 1638 4134 
L -19 4134 
L -19 4666 
z
" transform="scale(0.015625)"/>
      </defs>
      <use xlink:href="#DejaVuSans-45"/>
      <use xlink:href="#DejaVuSans-73" transform="translate(63.183594 0)"/>
      <use xlink:href="#DejaVuSans-74" transform="translate(115.283203 0)"/>
      <use xlink:href="#DejaVuSans-69" transform="translate(154.492188 0)"/>
      <use xlink:href="#DejaVuSans-6d" transform="translate(182.275391 0)"/>
      <use xlink:href="#DejaVuSans-61" transform="translate(279.6875 0)"/>
      <use xlink:href="#DejaVuSans-74" transform="translate(340.966797 0)"/>
      <use xlink:href="#DejaVuSans-65" transform="translate(380.175781 0)"/>
      <use xlink:href="#DejaVuSans-64" transform="translate(441.699219 0)"/>
      <use xlink:href="#DejaVuSans-20" transform="translate(505.175781 0)"/>
      <use xlink:href="#DejaVuSans-52" transform="translate(536.962891 0)"/>
      <use xlink:href="#DejaVuSans-54" transform="translate(599.195312 0)"/>
      <use xlink:href="#DejaVuSans-36" transform="translate(660.279297 0)"/>
      <use xlink:href="#DejaVuSans-30" transform="translate(723.902344 0)"/>
     </g>
    </g>
   </g>
  </g>
 </g>
 <defs>
  <clipPath id="p8e0837bf39">
   <rect x="57.6" y="41.472" width="357.12" height="266.112"/>
  </clipPath>
 </defs>
</svg>
