<?xml version="1.0" encoding="utf-8" standalone="no"?>
<!DOCTYPE svg PUBLIC "-//W3C//DTD SVG 1.1//EN"
  "http://www.w3.org/Graphics/SVG/1.1/DTD/svg11.dtd">
<svg xmlns:xlink="http://www.w3.org/1999/xlink" width="460.8pt" height="345.6pt" viewBox="0 0 460.8 345.6" xmlns="http://www.w3.org/2000/svg" version="1.1">
 <metadata>
  <rdf:RDF xmlns:dc="http://purl.org/dc/elements/1.1/" xmlns:cc="http://creativecommons.org/ns#" xmlns:rdf="http://www.w3.org/1999/02/22-rdf-syntax-ns#">
   <cc:Work>
    <dc:type rdf:resource="http://purl.org/dc/dcmitype/StillImage"/>
    <dc:date>2025-05-07T13:52:18.551134</dc:date>
    <dc:format>image/svg+xml</dc:format>
    <dc:creator>
     <cc:Agent>
      <dc:title>Matplotlib v3.10.1, https://matplotlib.org/</dc:title>
     </cc:Agent>
    </dc:creator>
   </cc:Work>
  </rdf:RDF>
 </metadata>
 <defs>
  <style type="text/css">*{stroke-linejoin: round; stroke-linecap: butt}</style>
 </defs>
 <g id="figure_1">
  <g id="patch_1">
   <path d="M 0 345.6 
L 460.8 345.6 
L 460.8 0 
L 0 0 
z
" style="fill: #ffffff"/>
  </g>
  <g id="axes_1">
   <g id="patch_2">
    <path d="M 57.6 307.584 
L 414.72 307.584 
L 414.72 41.472 
L 57.6 41.472 
z
" style="fill: #ffffff"/>
   </g>
   <g id="matplotlib.axis_1">
    <g id="xtick_1">
     <g id="line2d_1">
      <defs>
       <path id="ma423e3bf40" d="M 0 0 
L 0 3.5 
" style="stroke: #000000; stroke-width: 0.8"/>
      </defs>
      <g>
       <use xlink:href="#ma423e3bf40" x="70.564823" y="307.584" style="stroke: #000000; stroke-width: 0.8"/>
      </g>
     </g>
     <g id="text_1">
      <!-- −0.2 -->
      <g transform="translate(58.423417 322.182437) scale(0.1 -0.1)">
       <defs>
        <path id="DejaVuSans-2212" d="M 678 2272 
L 4684 2272 
L 4684 1741 
L 678 1741 
L 678 2272 
z
" transform="scale(0.015625)"/>
        <path id="DejaVuSans-30" d="M 2034 4250 
Q 1547 4250 1301 3770 
Q 1056 3291 1056 2328 
Q 1056 1369 1301 889 
Q 1547 409 2034 409 
Q 2525 409 2770 889 
Q 3016 1369 3016 2328 
Q 3016 3291 2770 3770 
Q 2525 4250 2034 4250 
z
M 2034 4750 
Q 2819 4750 3233 4129 
Q 3647 3509 3647 2328 
Q 3647 1150 3233 529 
Q 2819 -91 2034 -91 
Q 1250 -91 836 529 
Q 422 1150 422 2328 
Q 422 3509 836 4129 
Q 1250 4750 2034 4750 
z
" transform="scale(0.015625)"/>
        <path id="DejaVuSans-2e" d="M 684 794 
L 1344 794 
L 1344 0 
L 684 0 
L 684 794 
z
" transform="scale(0.015625)"/>
        <path id="DejaVuSans-32" d="M 1228 531 
L 3431 531 
L 3431 0 
L 469 0 
L 469 531 
Q 828 903 1448 1529 
Q 2069 2156 2228 2338 
Q 2531 2678 2651 2914 
Q 2772 3150 2772 3378 
Q 2772 3750 2511 3984 
Q 2250 4219 1831 4219 
Q 1534 4219 1204 4116 
Q 875 4013 500 3803 
L 500 4441 
Q 881 4594 1212 4672 
Q 1544 4750 1819 4750 
Q 2544 4750 2975 4387 
Q 3406 4025 3406 3419 
Q 3406 3131 3298 2873 
Q 3191 2616 2906 2266 
Q 2828 2175 2409 1742 
Q 1991 1309 1228 531 
z
" transform="scale(0.015625)"/>
       </defs>
       <use xlink:href="#DejaVuSans-2212"/>
       <use xlink:href="#DejaVuSans-30" transform="translate(83.789062 0)"/>
       <use xlink:href="#DejaVuSans-2e" transform="translate(147.412109 0)"/>
       <use xlink:href="#DejaVuSans-32" transform="translate(179.199219 0)"/>
      </g>
     </g>
    </g>
    <g id="xtick_2">
     <g id="line2d_2">
      <g>
       <use xlink:href="#ma423e3bf40" x="138.913148" y="307.584" style="stroke: #000000; stroke-width: 0.8"/>
      </g>
     </g>
     <g id="text_2">
      <!-- 0.0 -->
      <g transform="translate(130.961586 322.182437) scale(0.1 -0.1)">
       <use xlink:href="#DejaVuSans-30"/>
       <use xlink:href="#DejaVuSans-2e" transform="translate(63.623047 0)"/>
       <use xlink:href="#DejaVuSans-30" transform="translate(95.410156 0)"/>
      </g>
     </g>
    </g>
    <g id="xtick_3">
     <g id="line2d_3">
      <g>
       <use xlink:href="#ma423e3bf40" x="207.261474" y="307.584" style="stroke: #000000; stroke-width: 0.8"/>
      </g>
     </g>
     <g id="text_3">
      <!-- 0.2 -->
      <g transform="translate(199.309911 322.182437) scale(0.1 -0.1)">
       <use xlink:href="#DejaVuSans-30"/>
       <use xlink:href="#DejaVuSans-2e" transform="translate(63.623047 0)"/>
       <use xlink:href="#DejaVuSans-32" transform="translate(95.410156 0)"/>
      </g>
     </g>
    </g>
    <g id="xtick_4">
     <g id="line2d_4">
      <g>
       <use xlink:href="#ma423e3bf40" x="275.609799" y="307.584" style="stroke: #000000; stroke-width: 0.8"/>
      </g>
     </g>
     <g id="text_4">
      <!-- 0.4 -->
      <g transform="translate(267.658237 322.182437) scale(0.1 -0.1)">
       <defs>
        <path id="DejaVuSans-34" d="M 2419 4116 
L 825 1625 
L 2419 1625 
L 2419 4116 
z
M 2253 4666 
L 3047 4666 
L 3047 1625 
L 3713 1625 
L 3713 1100 
L 3047 1100 
L 3047 0 
L 2419 0 
L 2419 1100 
L 313 1100 
L 313 1709 
L 2253 4666 
z
" transform="scale(0.015625)"/>
       </defs>
       <use xlink:href="#DejaVuSans-30"/>
       <use xlink:href="#DejaVuSans-2e" transform="translate(63.623047 0)"/>
       <use xlink:href="#DejaVuSans-34" transform="translate(95.410156 0)"/>
      </g>
     </g>
    </g>
    <g id="xtick_5">
     <g id="line2d_5">
      <g>
       <use xlink:href="#ma423e3bf40" x="343.958124" y="307.584" style="stroke: #000000; stroke-width: 0.8"/>
      </g>
     </g>
     <g id="text_5">
      <!-- 0.6 -->
      <g transform="translate(336.006562 322.182437) scale(0.1 -0.1)">
       <defs>
        <path id="DejaVuSans-36" d="M 2113 2584 
Q 1688 2584 1439 2293 
Q 1191 2003 1191 1497 
Q 1191 994 1439 701 
Q 1688 409 2113 409 
Q 2538 409 2786 701 
Q 3034 994 3034 1497 
Q 3034 2003 2786 2293 
Q 2538 2584 2113 2584 
z
M 3366 4563 
L 3366 3988 
Q 3128 4100 2886 4159 
Q 2644 4219 2406 4219 
Q 1781 4219 1451 3797 
Q 1122 3375 1075 2522 
Q 1259 2794 1537 2939 
Q 1816 3084 2150 3084 
Q 2853 3084 3261 2657 
Q 3669 2231 3669 1497 
Q 3669 778 3244 343 
Q 2819 -91 2113 -91 
Q 1303 -91 875 529 
Q 447 1150 447 2328 
Q 447 3434 972 4092 
Q 1497 4750 2381 4750 
Q 2619 4750 2861 4703 
Q 3103 4656 3366 4563 
z
" transform="scale(0.015625)"/>
       </defs>
       <use xlink:href="#DejaVuSans-30"/>
       <use xlink:href="#DejaVuSans-2e" transform="translate(63.623047 0)"/>
       <use xlink:href="#DejaVuSans-36" transform="translate(95.410156 0)"/>
      </g>
     </g>
    </g>
    <g id="xtick_6">
     <g id="line2d_6">
      <g>
       <use xlink:href="#ma423e3bf40" x="412.30645" y="307.584" style="stroke: #000000; stroke-width: 0.8"/>
      </g>
     </g>
     <g id="text_6">
      <!-- 0.8 -->
      <g transform="translate(404.354887 322.182437) scale(0.1 -0.1)">
       <defs>
        <path id="DejaVuSans-38" d="M 2034 2216 
Q 1584 2216 1326 1975 
Q 1069 1734 1069 1313 
Q 1069 891 1326 650 
Q 1584 409 2034 409 
Q 2484 409 2743 651 
Q 3003 894 3003 1313 
Q 3003 1734 2745 1975 
Q 2488 2216 2034 2216 
z
M 1403 2484 
Q 997 2584 770 2862 
Q 544 3141 544 3541 
Q 544 4100 942 4425 
Q 1341 4750 2034 4750 
Q 2731 4750 3128 4425 
Q 3525 4100 3525 3541 
Q 3525 3141 3298 2862 
Q 3072 2584 2669 2484 
Q 3125 2378 3379 2068 
Q 3634 1759 3634 1313 
Q 3634 634 3220 271 
Q 2806 -91 2034 -91 
Q 1263 -91 848 271 
Q 434 634 434 1313 
Q 434 1759 690 2068 
Q 947 2378 1403 2484 
z
M 1172 3481 
Q 1172 3119 1398 2916 
Q 1625 2713 2034 2713 
Q 2441 2713 2670 2916 
Q 2900 3119 2900 3481 
Q 2900 3844 2670 4047 
Q 2441 4250 2034 4250 
Q 1625 4250 1398 4047 
Q 1172 3844 1172 3481 
z
" transform="scale(0.015625)"/>
       </defs>
       <use xlink:href="#DejaVuSans-30"/>
       <use xlink:href="#DejaVuSans-2e" transform="translate(63.623047 0)"/>
       <use xlink:href="#DejaVuSans-38" transform="translate(95.410156 0)"/>
      </g>
     </g>
    </g>
   </g>
   <g id="matplotlib.axis_2">
    <g id="ytick_1">
     <g id="line2d_7">
      <defs>
       <path id="m1b0fcec1a5" d="M 0 0 
L -3.5 0 
" style="stroke: #000000; stroke-width: 0.8"/>
      </defs>
      <g>
       <use xlink:href="#m1b0fcec1a5" x="57.6" y="281.705217" style="stroke: #000000; stroke-width: 0.8"/>
      </g>
     </g>
     <g id="text_7">
      <!-- −175 -->
      <g transform="translate(23.132812 285.504436) scale(0.1 -0.1)">
       <defs>
        <path id="DejaVuSans-31" d="M 794 531 
L 1825 531 
L 1825 4091 
L 703 3866 
L 703 4441 
L 1819 4666 
L 2450 4666 
L 2450 531 
L 3481 531 
L 3481 0 
L 794 0 
L 794 531 
z
" transform="scale(0.015625)"/>
        <path id="DejaVuSans-37" d="M 525 4666 
L 3525 4666 
L 3525 4397 
L 1831 0 
L 1172 0 
L 2766 4134 
L 525 4134 
L 525 4666 
z
" transform="scale(0.015625)"/>
        <path id="DejaVuSans-35" d="M 691 4666 
L 3169 4666 
L 3169 4134 
L 1269 4134 
L 1269 2991 
Q 1406 3038 1543 3061 
Q 1681 3084 1819 3084 
Q 2600 3084 3056 2656 
Q 3513 2228 3513 1497 
Q 3513 744 3044 326 
Q 2575 -91 1722 -91 
Q 1428 -91 1123 -41 
Q 819 9 494 109 
L 494 744 
Q 775 591 1075 516 
Q 1375 441 1709 441 
Q 2250 441 2565 725 
Q 2881 1009 2881 1497 
Q 2881 1984 2565 2268 
Q 2250 2553 1709 2553 
Q 1456 2553 1204 2497 
Q 953 2441 691 2322 
L 691 4666 
z
" transform="scale(0.015625)"/>
       </defs>
       <use xlink:href="#DejaVuSans-2212"/>
       <use xlink:href="#DejaVuSans-31" transform="translate(83.789062 0)"/>
       <use xlink:href="#DejaVuSans-37" transform="translate(147.412109 0)"/>
       <use xlink:href="#DejaVuSans-35" transform="translate(211.035156 0)"/>
      </g>
     </g>
    </g>
    <g id="ytick_2">
     <g id="line2d_8">
      <g>
       <use xlink:href="#m1b0fcec1a5" x="57.6" y="249.114186" style="stroke: #000000; stroke-width: 0.8"/>
      </g>
     </g>
     <g id="text_8">
      <!-- −150 -->
      <g transform="translate(23.132812 252.913405) scale(0.1 -0.1)">
       <use xlink:href="#DejaVuSans-2212"/>
       <use xlink:href="#DejaVuSans-31" transform="translate(83.789062 0)"/>
       <use xlink:href="#DejaVuSans-35" transform="translate(147.412109 0)"/>
       <use xlink:href="#DejaVuSans-30" transform="translate(211.035156 0)"/>
      </g>
     </g>
    </g>
    <g id="ytick_3">
     <g id="line2d_9">
      <g>
       <use xlink:href="#m1b0fcec1a5" x="57.6" y="216.523155" style="stroke: #000000; stroke-width: 0.8"/>
      </g>
     </g>
     <g id="text_9">
      <!-- −125 -->
      <g transform="translate(23.132812 220.322374) scale(0.1 -0.1)">
       <use xlink:href="#DejaVuSans-2212"/>
       <use xlink:href="#DejaVuSans-31" transform="translate(83.789062 0)"/>
       <use xlink:href="#DejaVuSans-32" transform="translate(147.412109 0)"/>
       <use xlink:href="#DejaVuSans-35" transform="translate(211.035156 0)"/>
      </g>
     </g>
    </g>
    <g id="ytick_4">
     <g id="line2d_10">
      <g>
       <use xlink:href="#m1b0fcec1a5" x="57.6" y="183.932124" style="stroke: #000000; stroke-width: 0.8"/>
      </g>
     </g>
     <g id="text_10">
      <!-- −100 -->
      <g transform="translate(23.132812 187.731343) scale(0.1 -0.1)">
       <use xlink:href="#DejaVuSans-2212"/>
       <use xlink:href="#DejaVuSans-31" transform="translate(83.789062 0)"/>
       <use xlink:href="#DejaVuSans-30" transform="translate(147.412109 0)"/>
       <use xlink:href="#DejaVuSans-30" transform="translate(211.035156 0)"/>
      </g>
     </g>
    </g>
    <g id="ytick_5">
     <g id="line2d_11">
      <g>
       <use xlink:href="#m1b0fcec1a5" x="57.6" y="151.341093" style="stroke: #000000; stroke-width: 0.8"/>
      </g>
     </g>
     <g id="text_11">
      <!-- −75 -->
      <g transform="translate(29.495313 155.140312) scale(0.1 -0.1)">
       <use xlink:href="#DejaVuSans-2212"/>
       <use xlink:href="#DejaVuSans-37" transform="translate(83.789062 0)"/>
       <use xlink:href="#DejaVuSans-35" transform="translate(147.412109 0)"/>
      </g>
     </g>
    </g>
    <g id="ytick_6">
     <g id="line2d_12">
      <g>
       <use xlink:href="#m1b0fcec1a5" x="57.6" y="118.750062" style="stroke: #000000; stroke-width: 0.8"/>
      </g>
     </g>
     <g id="text_12">
      <!-- −50 -->
      <g transform="translate(29.495313 122.549281) scale(0.1 -0.1)">
       <use xlink:href="#DejaVuSans-2212"/>
       <use xlink:href="#DejaVuSans-35" transform="translate(83.789062 0)"/>
       <use xlink:href="#DejaVuSans-30" transform="translate(147.412109 0)"/>
      </g>
     </g>
    </g>
    <g id="ytick_7">
     <g id="line2d_13">
      <g>
       <use xlink:href="#m1b0fcec1a5" x="57.6" y="86.159031" style="stroke: #000000; stroke-width: 0.8"/>
      </g>
     </g>
     <g id="text_13">
      <!-- −25 -->
      <g transform="translate(29.495313 89.95825) scale(0.1 -0.1)">
       <use xlink:href="#DejaVuSans-2212"/>
       <use xlink:href="#DejaVuSans-32" transform="translate(83.789062 0)"/>
       <use xlink:href="#DejaVuSans-35" transform="translate(147.412109 0)"/>
      </g>
     </g>
    </g>
    <g id="ytick_8">
     <g id="line2d_14">
      <g>
       <use xlink:href="#m1b0fcec1a5" x="57.6" y="53.568" style="stroke: #000000; stroke-width: 0.8"/>
      </g>
     </g>
     <g id="text_14">
      <!-- 0 -->
      <g transform="translate(44.2375 57.367219) scale(0.1 -0.1)">
       <use xlink:href="#DejaVuSans-30"/>
      </g>
     </g>
    </g>
   </g>
   <g id="line2d_15">
    <path d="M 73.832727 53.568 
L 130.042105 53.678636 
L 130.298411 53.892036 
L 130.960536 54.021492 
L 131.309397 54.167961 
L 131.672498 54.214343 
L 131.950163 54.319545 
L 132.099675 54.894338 
L 132.256306 55.319539 
L 132.484134 55.36966 
L 132.704842 55.567588 
L 132.939789 56.204115 
L 132.996746 56.307209 
L 133.167617 56.467745 
L 133.722947 56.772712 
L 133.886699 56.880943 
L 134.185722 56.995364 
L 134.363713 57.088306 
L 134.641378 57.241683 
L 134.876325 57.686132 
L 135.225187 57.924981 
L 135.488612 58.033633 
L 136.043943 58.60795 
L 136.200574 58.772358 
L 136.385684 58.977973 
L 136.684708 59.087379 
L 136.862699 59.207542 
L 137.517703 59.319983 
L 137.660096 59.430092 
L 138.051675 59.583606 
L 138.251024 59.699379 
L 138.429014 59.776706 
L 138.720919 59.930635 
L 139.340325 60.583073 
L 139.739024 60.692662 
L 140.016689 60.854658 
L 140.237397 60.958422 
L 140.479464 61.349237 
L 140.600498 61.482832 
L 141.063273 62.195699 
L 141.234144 62.523589 
L 142.003062 62.888307 
L 142.985569 63.417363 
L 143.676172 63.851443 
L 143.89688 64.042483 
L 144.665799 64.377337 
L 144.964823 64.672892 
L 145.292325 64.784196 
L 145.520153 65.048395 
L 146.032766 65.184311 
L 146.253474 65.342783 
L 146.659292 65.489316 
L 147.228861 65.904141 
L 147.385493 66.012794 
L 147.577722 66.152489 
L 147.926584 66.321366 
L 148.318163 66.72818 
L 148.489033 66.851996 
L 149.222354 67.188021 
L 149.407464 67.50859 
L 149.841761 67.920809 
L 151.329761 68.328229 
L 151.493512 68.448994 
L 151.999005 68.633802 
L 152.532976 68.910357 
L 153.152383 69.070106 
L 153.479885 69.229549 
L 153.94266 69.334307 
L 154.149129 69.408347 
L 154.483751 69.516365 
L 154.6831 69.580215 
L 154.861091 69.709297 
L 155.031962 69.876624 
L 155.274029 69.999992 
L 156.384689 70.306312 
L 156.783388 70.451533 
L 157.039694 70.797702 
L 157.217684 70.891546 
L 157.965244 71.034778 
L 158.321225 71.196078 
L 159.310852 71.688764 
L 160.884287 72.04965 
L 161.176191 72.249734 
L 161.304344 72.347738 
L 161.496574 72.53479 
L 161.845435 72.742511 
L 162.229895 72.850765 
L 163.020172 73.151303 
L 163.219522 73.253839 
L 163.675177 73.994972 
L 163.80333 74.125625 
L 164.009799 74.306507 
L 165.277091 74.776073 
L 165.625952 74.888523 
L 165.825301 74.99864 
L 165.981933 75.09632 
L 166.209761 75.366383 
L 166.921722 75.736417 
L 167.099713 75.837882 
L 167.33466 76.113803 
L 167.683522 76.246675 
L 167.946947 76.337774 
L 168.310048 76.509563 
L 168.488038 76.54247 
L 168.82978 76.669195 
L 169.029129 77.000936 
L 169.171522 77.101821 
L 169.342392 77.271915 
L 170.538488 77.805651 
L 170.901589 77.924424 
L 171.214852 78.171897 
L 171.392842 78.289976 
L 171.734584 78.402966 
L 172.047847 78.820555 
L 172.980517 79.055467 
L 174.269167 79.430239 
L 174.817378 79.569202 
L 175.102163 79.601676 
L 175.728689 79.714365 
L 176.013474 80.072586 
L 176.127388 80.190535 
L 176.26266 80.514843 
L 176.412172 80.575692 
L 176.782392 80.920402 
L 177.024459 81.51838 
L 177.095656 81.618135 
L 177.259407 81.740917 
L 177.665225 81.889685 
L 179.80823 82.51599 
L 180.078775 82.632994 
L 180.256766 82.785271 
L 180.520191 82.967211 
L 181.239273 83.416421 
L 182.549282 83.926019 
L 183.382278 84.046791 
L 183.588746 84.10413 
L 184.435981 84.484336 
L 185.93822 84.934274 
L 186.230124 85.233515 
L 187.376383 85.582248 
L 187.632689 85.828738 
L 188.066986 86.015216 
L 188.244976 86.227427 
L 188.544 86.327098 
L 189.747215 86.573597 
L 190.167273 86.684687 
L 190.58733 86.757949 
L 192.26044 86.997402 
L 192.495388 87.144253 
L 192.794411 87.323086 
L 193.008 87.501081 
L 193.819636 87.724888 
L 193.997627 87.846745 
L 194.161378 87.948441 
L 194.460402 88.746063 
L 194.780785 88.857734 
L 195.151005 89.127334 
L 196.105033 89.35187 
L 197.415043 89.61763 
L 197.699828 89.757139 
L 198.127005 89.834689 
L 198.817608 89.948521 
L 199.244785 90.113492 
L 199.728919 90.36094 
L 200.348325 90.476858 
L 202.462852 91.02095 
L 202.633722 91.069794 
L 203.032421 91.179774 
L 203.452478 91.284388 
L 204.157321 91.395697 
L 204.776727 91.564726 
L 205.011675 91.772567 
L 205.189665 91.877353 
L 205.595483 92.188487 
L 206.933971 92.466 
L 207.14044 92.528793 
L 207.432344 92.654457 
L 208.293818 92.966653 
L 208.464689 93.023113 
L 208.585722 93.119253 
L 208.82067 93.50001 
L 209.00578 93.621828 
L 209.169531 93.7407 
L 209.696383 93.860458 
L 210.144919 94.003284 
L 210.358507 94.125898 
L 211.219981 94.401615 
L 211.561722 94.916278 
L 212.010258 94.98344 
L 212.594067 95.097876 
L 213.341627 95.259492 
L 214.053589 95.372918 
L 215.121531 95.596666 
L 215.349359 95.785113 
L 215.570067 96.121906 
L 216.011483 96.240069 
L 216.474258 96.365605 
L 216.986871 96.597784 
L 217.456766 96.766824 
L 217.805627 96.836498 
L 218.004976 96.943216 
L 218.197206 97.087349 
L 218.474871 97.169209 
L 218.752536 97.294177 
L 218.966124 97.53058 
L 219.193952 97.910792 
L 219.371943 98.069112 
L 219.557053 98.236714 
L 220.240536 98.422972 
L 220.667713 98.70472 
L 220.931139 98.846211 
L 221.365435 98.968516 
L 221.913646 99.346112 
L 222.041799 99.455013 
L 222.241148 99.68514 
L 222.654086 99.892134 
L 223.964096 100.15996 
L 224.839809 100.274546 
L 225.544651 100.645636 
L 225.708402 100.758329 
L 225.92911 100.808731 
L 226.128459 100.919885 
L 226.961455 101.19854 
L 228.036517 101.355446 
L 228.3569 101.510667 
L 230.01577 101.93847 
L 230.357512 102.090297 
L 231.13355 102.20955 
L 231.496651 102.327444 
L 232.158775 102.599911 
L 232.400842 103.090204 
L 232.600191 103.213248 
L 232.771062 103.283792 
L 232.984651 103.409201 
L 233.269435 103.613003 
L 233.646775 104.031815 
L 233.895962 104.152582 
L 234.081072 104.258716 
L 234.273301 104.366779 
L 235.120536 104.63407 
L 235.846737 104.750109 
L 236.309512 105.111752 
L 236.487502 105.196588 
L 237.712077 105.644061 
L 237.932785 105.748825 
L 238.452517 106.126546 
L 238.879694 106.208574 
L 239.677091 106.321147 
L 241.029818 106.646474 
L 241.257646 106.757176 
L 241.691943 106.930019 
L 242.318469 107.038083 
L 242.624612 107.273962 
L 243.058909 107.390388 
L 243.336574 107.530152 
L 243.913263 107.636243 
L 244.148211 107.836451 
L 244.575388 107.972063 
L 244.845933 108.247321 
L 245.579254 108.49118 
L 245.785722 108.54375 
L 247.266603 109.423415 
L 247.786335 109.554335 
L 248.199273 109.763808 
L 248.412861 110.017005 
L 248.562373 110.153201 
L 248.868517 110.26287 
L 249.153301 110.51273 
L 249.502163 110.614109 
L 249.92222 110.787457 
L 250.306679 111.09087 
L 250.641301 111.210531 
L 250.85489 111.28948 
L 251.431579 111.406575 
L 251.695005 111.638013 
L 251.837397 111.753757 
L 252.207617 111.986889 
L 253.382354 112.152247 
L 253.63866 112.223793 
L 254.286545 112.327768 
L 254.699483 112.752697 
L 255.190737 112.862234 
L 255.753187 113.209816 
L 256.023732 113.380656 
L 258.180976 113.893292 
L 258.387445 113.93674 
L 259.22044 114.07349 
L 259.448268 114.123631 
L 260.124632 114.303485 
L 260.501971 114.597484 
L 260.608766 114.784506 
L 260.772517 114.985556 
L 260.936268 115.109001 
L 261.142737 115.280649 
L 262.38155 115.647237 
L 263.065033 115.916991 
L 263.826833 116.073247 
L 264.759502 116.134146 
L 265.599617 116.249641 
L 265.870163 116.328849 
L 266.268861 116.409602 
L 266.938105 116.590492 
L 267.137455 116.695404 
L 267.885014 116.964468 
L 268.475943 117.517444 
L 268.753608 117.561646 
L 269.358775 117.671592 
L 270.056498 118.141779 
L 270.362641 118.445251 
L 272.783311 119.354261 
L 273.388478 119.493836 
L 273.559349 119.561408 
L 273.751579 119.693032 
L 273.92245 119.779326 
L 274.150278 119.905393 
L 274.406584 120.077988 
L 274.613053 120.215752 
L 274.869359 120.401232 
L 275.40333 120.62091 
L 276.969646 121.405534 
L 277.64601 121.51813 
L 277.880957 121.549465 
L 278.407809 121.711398 
L 281.020708 122.939254 
L 281.212938 123.063423 
L 281.398048 123.249777 
L 281.960498 123.428117 
L 282.216804 123.773466 
L 282.608383 123.804827 
L 282.85045 123.921278 
L 283.042679 124.081995 
L 283.683445 124.192615 
L 283.882794 124.342477 
L 284.060785 124.429492 
L 284.580517 124.618173 
L 284.822584 124.704478 
L 284.979215 124.839212 
L 285.278239 125.043006 
L 285.470469 125.159881 
L 285.847809 125.403027 
L 286.673684 125.55262 
L 286.908632 125.620988 
L 287.257493 125.817429 
L 287.528038 126.182378 
L 288.040651 126.28857 
L 288.61734 126.432062 
L 289.137072 126.764425 
L 289.663923 126.92021 
L 290.525397 127.163216 
L 290.803062 127.321203 
L 290.981053 127.410091 
L 291.472306 127.531689 
L 291.728612 127.651189 
L 292.155789 128.171801 
L 292.568727 128.218505 
L 293.302048 128.356334 
L 293.551234 128.776549 
L 293.786182 129.020489 
L 293.928574 129.115419 
L 294.092325 129.256271 
L 294.270316 129.422188 
L 295.423694 129.857454 
L 296.114297 129.966086 
L 296.968651 130.369896 
L 297.296153 130.482075 
L 297.929799 130.589575 
L 298.620402 130.709907 
L 298.862469 130.80761 
L 299.702584 130.925548 
L 300.229435 131.048948 
L 300.464383 131.19368 
L 300.727809 131.359234 
L 301.389933 131.469959 
L 301.667598 131.572201 
L 302.237167 131.724154 
L 302.457876 131.927698 
L 302.578909 132.038254 
L 302.799617 132.091558 
L 303.098641 132.213122 
L 303.31223 132.285508 
L 304.04555 132.517721 
L 304.743273 132.678018 
L 305.127732 133.067 
L 305.554909 133.260205 
L 305.811215 133.40415 
L 306.031923 133.547706 
L 306.224153 133.587878 
L 307.02867 133.764986 
L 307.904383 134.088858 
L 308.32444 134.199153 
L 309.385263 134.629007 
L 309.755483 134.771378 
L 310.040268 134.932027 
L 311.12245 135.372012 
L 311.343158 135.679318 
L 311.663541 135.799283 
L 311.85577 135.900816 
L 313.315292 136.248959 
L 313.52888 136.442297 
L 314.191005 136.540965 
L 314.418833 136.687226 
L 314.974163 137.135195 
L 317.295158 137.498335 
L 318.028478 137.97746 
L 318.234947 138.182359 
L 318.56245 138.310822 
L 318.918431 138.398727 
L 319.466641 138.565637 
L 320.363713 138.860178 
L 323.232919 139.541432 
L 323.987598 139.697068 
L 325.532555 140.560288 
L 325.689187 140.717234 
L 326.016689 140.897838 
L 326.272995 141.08117 
L 326.700172 141.186892 
L 327.027675 141.296497 
L 327.29822 141.34487 
L 328.088498 141.458417 
L 328.857416 141.737401 
L 329.035407 141.872107 
L 330.160306 142.182174 
L 330.494928 142.427412 
L 330.929225 142.543559 
L 331.470316 142.688123 
L 332.709129 143.006369 
L 333.485167 143.130708 
L 333.80555 143.348156 
L 334.246967 143.458042 
L 334.503273 143.628415 
L 335.414584 143.775564 
L 335.749206 143.931442 
L 336.9809 144.357089 
L 337.222967 144.402303 
L 337.635904 144.511815 
L 338.191234 144.934315 
L 338.369225 145.041117 
L 338.689608 145.104219 
L 339.444287 145.286112 
L 339.657876 145.521704 
L 340.077933 145.671778 
L 340.903809 145.89415 
L 341.131636 145.985875 
L 341.494737 146.098782 
L 342.085665 146.288821 
L 343.402794 146.738914 
L 343.587904 146.776626 
L 346.314718 147.487633 
L 346.606622 147.594086 
L 346.884287 147.7397 
L 347.3969 147.850332 
L 347.603368 147.992548 
L 347.795598 148.090595 
L 348.486201 148.253558 
L 348.820823 148.510065 
L 349.148325 148.729919 
L 349.340555 149.123967 
L 349.568383 149.226502 
L 349.824689 149.426825 
L 350.17355 149.539149 
L 350.444096 149.671106 
L 350.565129 149.782219 
L 350.721761 149.879687 
L 351.156057 150.010716 
L 351.348287 150.266888 
L 352.010411 150.492584 
L 352.309435 150.704254 
L 352.480306 150.812237 
L 352.864766 151.005914 
L 353.113952 151.119093 
L 353.33466 151.333937 
L 353.690641 151.444585 
L 353.882871 151.551861 
L 354.132057 151.699515 
L 354.402603 151.753287 
L 354.64467 151.85146 
L 354.900976 152.137611 
L 355.19288 152.27321 
L 355.420708 152.332728 
L 355.748211 152.443639 
L 356.011636 152.476393 
L 356.574086 152.584565 
L 357.642029 153.34921 
L 357.80578 153.414704 
L 358.275675 153.534508 
L 358.681493 153.696501 
L 360.21933 154.158419 
L 360.603789 154.344584 
L 360.77466 154.579405 
L 361.230316 155.047007 
L 361.429665 155.404887 
L 361.920919 155.538629 
L 362.654239 155.681537 
L 363.038699 155.924162 
L 363.19533 155.952377 
L 363.408919 156.176881 
L 363.586909 156.300035 
L 363.928651 156.490247 
L 364.099522 156.675363 
L 364.355828 156.815574 
L 364.590775 157.059417 
L 365.309856 157.276065 
L 365.530565 157.535404 
L 365.836708 157.641839 
L 366.107254 157.874562 
L 366.577148 158.067841 
L 366.954488 158.487317 
L 368.2289 158.946881 
L 369.773856 160.552815 
L 369.923368 160.653349 
L 370.122718 160.974861 
L 370.4431 161.114323 
L 370.656689 161.423177 
L 371.425608 161.897155 
L 371.589359 162.131445 
L 371.988057 162.272893 
L 372.465072 163.242699 
L 373.589971 163.949129 
L 373.767962 164.112516 
L 374.045627 164.273677 
L 374.373129 164.41442 
L 374.622316 164.69977 
L 374.978297 164.818867 
L 375.526507 165.754026 
L 375.754335 165.926131 
L 375.932325 166.064391 
L 376.238469 166.182523 
L 376.444938 166.48418 
L 377.484402 167.490218 
L 377.954297 169.24949 
L 378.288919 169.617691 
L 378.566584 170.098966 
L 378.595062 170.217099 
L 378.773053 171.036017 
L 378.901206 171.1444 
L 379.114794 171.399271 
L 379.271426 171.513042 
L 379.413818 171.786684 
L 379.556211 171.95745 
L 379.712842 172.096745 
L 380.026105 172.590918 
L 380.211215 172.940181 
L 380.460402 173.790253 
L 380.517359 173.918213 
L 380.652632 174.042183 
L 380.844861 174.287228 
L 381.001493 174.563642 
L 381.414431 175.748411 
L 381.677856 175.865157 
L 381.969761 176.074124 
L 382.226067 176.653101 
L 382.674603 176.870381 
L 382.802756 177.001216 
L 382.966507 177.189013 
L 383.201455 177.281171 
L 383.308249 177.379348 
L 383.472 177.603364 
L 383.706947 177.871238 
L 383.892057 178.23638 
L 384.383311 179.174526 
L 384.539943 179.403878 
L 384.910163 179.510749 
L 385.209187 180.070538 
L 385.372938 180.630731 
L 385.593646 180.798909 
L 385.871311 182.083015 
L 385.949627 182.237022 
L 386.241531 183.750011 
L 386.45512 184.167299 
L 386.569033 184.285721 
L 386.8111 185.014918 
L 386.875177 185.118689 
L 387.067407 185.983304 
L 387.231158 186.758567 
L 387.330833 186.92553 
L 387.394909 187.086284 
L 387.544421 187.365222 
L 387.622737 187.488309 
L 387.822086 188.072231 
L 388.170947 188.349371 
L 388.640842 190.091026 
L 389.765742 192.487419 
L 389.993569 193.68154 
L 390.207158 194.455342 
L 390.392268 194.675268 
L 390.869282 197.138822 
L 391.033033 197.301269 
L 391.353416 199.589662 
L 391.695158 203.161305 
L 391.737876 203.255963 
L 391.901627 203.535657 
L 392.122335 203.642466 
L 392.314565 204.078307 
L 392.456957 205.6529 
L 392.620708 207.027234 
L 392.734622 207.476908 
L 392.969569 208.144599 
L 393.133321 208.408515 
L 393.496421 208.571637 
L 393.980555 210.118493 
L 394.06599 210.612979 
L 394.236861 212.022776 
L 394.26534 212.09819 
L 394.578603 213.517587 
L 394.621321 213.852325 
L 394.842029 214.971835 
L 394.941703 215.150213 
L 395.18377 219.120802 
L 395.340402 220.358957 
L 395.404478 220.60984 
L 395.888612 227.84199 
L 395.917091 227.90108 
L 396.109321 230.266687 
L 396.337148 235.281696 
L 396.515139 236.04189 
L 396.757206 238.682575 
L 396.842641 239.197569 
L 396.913837 240.95957 
L 397.127426 244.669029 
L 397.219981 245.316066 
L 397.497646 251.118763 
L 397.519005 251.403395 
L 397.832268 260.03815 
L 397.903464 262.208916 
L 398.031617 263.317152 
L 398.060096 263.77683 
L 398.337761 276.927867 
L 398.480153 295.488 
L 398.480153 295.488 
" clip-path="url(#p3a7900d2b1)" style="fill: none; stroke: #1f77b4; stroke-width: 1.5; stroke-linecap: square"/>
   </g>
   <g id="line2d_16">
    <path d="M 138.913148 60.09416 
L 318.533971 138.304681 
" clip-path="url(#p3a7900d2b1)" style="fill: none; stroke-dasharray: 5.55,2.4; stroke-dashoffset: 0; stroke: #ff7f0e; stroke-width: 1.5"/>
   </g>
   <g id="line2d_17">
    <path d="M 73.832727 131.786474 
L 398.487273 131.786474 
L 398.487273 131.786474 
" clip-path="url(#p3a7900d2b1)" style="fill: none; stroke-dasharray: 5.55,2.4; stroke-dashoffset: 0; stroke: #2ca02c; stroke-width: 1.5"/>
   </g>
   <g id="LineCollection_1">
    <path d="M 318.533971 295.488 
L 318.533971 53.568 
" clip-path="url(#p3a7900d2b1)" style="fill: none; stroke-dasharray: 5.55,2.4; stroke-dashoffset: 0; stroke: #1f77b4; stroke-width: 1.5"/>
   </g>
   <g id="patch_3">
    <path d="M 57.6 307.584 
L 57.6 41.472 
" style="fill: none; stroke: #000000; stroke-width: 0.8; stroke-linejoin: miter; stroke-linecap: square"/>
   </g>
   <g id="patch_4">
    <path d="M 414.72 307.584 
L 414.72 41.472 
" style="fill: none; stroke: #000000; stroke-width: 0.8; stroke-linejoin: miter; stroke-linecap: square"/>
   </g>
   <g id="patch_5">
    <path d="M 57.6 307.584 
L 414.72 307.584 
" style="fill: none; stroke: #000000; stroke-width: 0.8; stroke-linejoin: miter; stroke-linecap: square"/>
   </g>
   <g id="patch_6">
    <path d="M 57.6 41.472 
L 414.72 41.472 
" style="fill: none; stroke: #000000; stroke-width: 0.8; stroke-linejoin: miter; stroke-linecap: square"/>
   </g>
   <g id="text_15">
    <!-- Energy Decay - 2000 Hz -->
    <g transform="translate(163.59 35.472) scale(0.12 -0.12)">
     <defs>
      <path id="DejaVuSans-45" d="M 628 4666 
L 3578 4666 
L 3578 4134 
L 1259 4134 
L 1259 2753 
L 3481 2753 
L 3481 2222 
L 1259 2222 
L 1259 531 
L 3634 531 
L 3634 0 
L 628 0 
L 628 4666 
z
" transform="scale(0.015625)"/>
      <path id="DejaVuSans-6e" d="M 3513 2113 
L 3513 0 
L 2938 0 
L 2938 2094 
Q 2938 2591 2744 2837 
Q 2550 3084 2163 3084 
Q 1697 3084 1428 2787 
Q 1159 2491 1159 1978 
L 1159 0 
L 581 0 
L 581 3500 
L 1159 3500 
L 1159 2956 
Q 1366 3272 1645 3428 
Q 1925 3584 2291 3584 
Q 2894 3584 3203 3211 
Q 3513 2838 3513 2113 
z
" transform="scale(0.015625)"/>
      <path id="DejaVuSans-65" d="M 3597 1894 
L 3597 1613 
L 953 1613 
Q 991 1019 1311 708 
Q 1631 397 2203 397 
Q 2534 397 2845 478 
Q 3156 559 3463 722 
L 3463 178 
Q 3153 47 2828 -22 
Q 2503 -91 2169 -91 
Q 1331 -91 842 396 
Q 353 884 353 1716 
Q 353 2575 817 3079 
Q 1281 3584 2069 3584 
Q 2775 3584 3186 3129 
Q 3597 2675 3597 1894 
z
M 3022 2063 
Q 3016 2534 2758 2815 
Q 2500 3097 2075 3097 
Q 1594 3097 1305 2825 
Q 1016 2553 972 2059 
L 3022 2063 
z
" transform="scale(0.015625)"/>
      <path id="DejaVuSans-72" d="M 2631 2963 
Q 2534 3019 2420 3045 
Q 2306 3072 2169 3072 
Q 1681 3072 1420 2755 
Q 1159 2438 1159 1844 
L 1159 0 
L 581 0 
L 581 3500 
L 1159 3500 
L 1159 2956 
Q 1341 3275 1631 3429 
Q 1922 3584 2338 3584 
Q 2397 3584 2469 3576 
Q 2541 3569 2628 3553 
L 2631 2963 
z
" transform="scale(0.015625)"/>
      <path id="DejaVuSans-67" d="M 2906 1791 
Q 2906 2416 2648 2759 
Q 2391 3103 1925 3103 
Q 1463 3103 1205 2759 
Q 947 2416 947 1791 
Q 947 1169 1205 825 
Q 1463 481 1925 481 
Q 2391 481 2648 825 
Q 2906 1169 2906 1791 
z
M 3481 434 
Q 3481 -459 3084 -895 
Q 2688 -1331 1869 -1331 
Q 1566 -1331 1297 -1286 
Q 1028 -1241 775 -1147 
L 775 -588 
Q 1028 -725 1275 -790 
Q 1522 -856 1778 -856 
Q 2344 -856 2625 -561 
Q 2906 -266 2906 331 
L 2906 616 
Q 2728 306 2450 153 
Q 2172 0 1784 0 
Q 1141 0 747 490 
Q 353 981 353 1791 
Q 353 2603 747 3093 
Q 1141 3584 1784 3584 
Q 2172 3584 2450 3431 
Q 2728 3278 2906 2969 
L 2906 3500 
L 3481 3500 
L 3481 434 
z
" transform="scale(0.015625)"/>
      <path id="DejaVuSans-79" d="M 2059 -325 
Q 1816 -950 1584 -1140 
Q 1353 -1331 966 -1331 
L 506 -1331 
L 506 -850 
L 844 -850 
Q 1081 -850 1212 -737 
Q 1344 -625 1503 -206 
L 1606 56 
L 191 3500 
L 800 3500 
L 1894 763 
L 2988 3500 
L 3597 3500 
L 2059 -325 
z
" transform="scale(0.015625)"/>
      <path id="DejaVuSans-20" transform="scale(0.015625)"/>
      <path id="DejaVuSans-44" d="M 1259 4147 
L 1259 519 
L 2022 519 
Q 2988 519 3436 956 
Q 3884 1394 3884 2338 
Q 3884 3275 3436 3711 
Q 2988 4147 2022 4147 
L 1259 4147 
z
M 628 4666 
L 1925 4666 
Q 3281 4666 3915 4102 
Q 4550 3538 4550 2338 
Q 4550 1131 3912 565 
Q 3275 0 1925 0 
L 628 0 
L 628 4666 
z
" transform="scale(0.015625)"/>
      <path id="DejaVuSans-63" d="M 3122 3366 
L 3122 2828 
Q 2878 2963 2633 3030 
Q 2388 3097 2138 3097 
Q 1578 3097 1268 2742 
Q 959 2388 959 1747 
Q 959 1106 1268 751 
Q 1578 397 2138 397 
Q 2388 397 2633 464 
Q 2878 531 3122 666 
L 3122 134 
Q 2881 22 2623 -34 
Q 2366 -91 2075 -91 
Q 1284 -91 818 406 
Q 353 903 353 1747 
Q 353 2603 823 3093 
Q 1294 3584 2113 3584 
Q 2378 3584 2631 3529 
Q 2884 3475 3122 3366 
z
" transform="scale(0.015625)"/>
      <path id="DejaVuSans-61" d="M 2194 1759 
Q 1497 1759 1228 1600 
Q 959 1441 959 1056 
Q 959 750 1161 570 
Q 1363 391 1709 391 
Q 2188 391 2477 730 
Q 2766 1069 2766 1631 
L 2766 1759 
L 2194 1759 
z
M 3341 1997 
L 3341 0 
L 2766 0 
L 2766 531 
Q 2569 213 2275 61 
Q 1981 -91 1556 -91 
Q 1019 -91 701 211 
Q 384 513 384 1019 
Q 384 1609 779 1909 
Q 1175 2209 1959 2209 
L 2766 2209 
L 2766 2266 
Q 2766 2663 2505 2880 
Q 2244 3097 1772 3097 
Q 1472 3097 1187 3025 
Q 903 2953 641 2809 
L 641 3341 
Q 956 3463 1253 3523 
Q 1550 3584 1831 3584 
Q 2591 3584 2966 3190 
Q 3341 2797 3341 1997 
z
" transform="scale(0.015625)"/>
      <path id="DejaVuSans-2d" d="M 313 2009 
L 1997 2009 
L 1997 1497 
L 313 1497 
L 313 2009 
z
" transform="scale(0.015625)"/>
      <path id="DejaVuSans-48" d="M 628 4666 
L 1259 4666 
L 1259 2753 
L 3553 2753 
L 3553 4666 
L 4184 4666 
L 4184 0 
L 3553 0 
L 3553 2222 
L 1259 2222 
L 1259 0 
L 628 0 
L 628 4666 
z
" transform="scale(0.015625)"/>
      <path id="DejaVuSans-7a" d="M 353 3500 
L 3084 3500 
L 3084 2975 
L 922 459 
L 3084 459 
L 3084 0 
L 275 0 
L 275 525 
L 2438 3041 
L 353 3041 
L 353 3500 
z
" transform="scale(0.015625)"/>
     </defs>
     <use xlink:href="#DejaVuSans-45"/>
     <use xlink:href="#DejaVuSans-6e" transform="translate(63.183594 0)"/>
     <use xlink:href="#DejaVuSans-65" transform="translate(126.5625 0)"/>
     <use xlink:href="#DejaVuSans-72" transform="translate(188.085938 0)"/>
     <use xlink:href="#DejaVuSans-67" transform="translate(227.449219 0)"/>
     <use xlink:href="#DejaVuSans-79" transform="translate(290.925781 0)"/>
     <use xlink:href="#DejaVuSans-20" transform="translate(350.105469 0)"/>
     <use xlink:href="#DejaVuSans-44" transform="translate(381.892578 0)"/>
     <use xlink:href="#DejaVuSans-65" transform="translate(458.894531 0)"/>
     <use xlink:href="#DejaVuSans-63" transform="translate(520.417969 0)"/>
     <use xlink:href="#DejaVuSans-61" transform="translate(575.398438 0)"/>
     <use xlink:href="#DejaVuSans-79" transform="translate(636.677734 0)"/>
     <use xlink:href="#DejaVuSans-20" transform="translate(695.857422 0)"/>
     <use xlink:href="#DejaVuSans-2d" transform="translate(727.644531 0)"/>
     <use xlink:href="#DejaVuSans-20" transform="translate(763.728516 0)"/>
     <use xlink:href="#DejaVuSans-32" transform="translate(795.515625 0)"/>
     <use xlink:href="#DejaVuSans-30" transform="translate(859.138672 0)"/>
     <use xlink:href="#DejaVuSans-30" transform="translate(922.761719 0)"/>
     <use xlink:href="#DejaVuSans-30" transform="translate(986.384766 0)"/>
     <use xlink:href="#DejaVuSans-20" transform="translate(1050.007812 0)"/>
     <use xlink:href="#DejaVuSans-48" transform="translate(1081.794922 0)"/>
     <use xlink:href="#DejaVuSans-7a" transform="translate(1156.990234 0)"/>
    </g>
   </g>
   <g id="legend_1">
    <g id="patch_7">
     <path d="M 296.968437 108.1845 
L 407.72 108.1845 
Q 409.72 108.1845 409.72 106.1845 
L 409.72 48.472 
Q 409.72 46.472 407.72 46.472 
L 296.968437 46.472 
Q 294.968437 46.472 294.968437 48.472 
L 294.968437 106.1845 
Q 294.968437 108.1845 296.968437 108.1845 
z
" style="fill: #ffffff; opacity: 0.8; stroke: #cccccc; stroke-linejoin: miter"/>
    </g>
    <g id="line2d_18">
     <path d="M 298.968437 54.570438 
L 308.968437 54.570438 
L 318.968437 54.570438 
" style="fill: none; stroke: #1f77b4; stroke-width: 1.5; stroke-linecap: square"/>
    </g>
    <g id="text_16">
     <!-- Energy -->
     <g transform="translate(326.968437 58.070438) scale(0.1 -0.1)">
      <use xlink:href="#DejaVuSans-45"/>
      <use xlink:href="#DejaVuSans-6e" transform="translate(63.183594 0)"/>
      <use xlink:href="#DejaVuSans-65" transform="translate(126.5625 0)"/>
      <use xlink:href="#DejaVuSans-72" transform="translate(188.085938 0)"/>
      <use xlink:href="#DejaVuSans-67" transform="translate(227.449219 0)"/>
      <use xlink:href="#DejaVuSans-79" transform="translate(290.925781 0)"/>
     </g>
    </g>
    <g id="line2d_19">
     <path d="M 298.968437 69.248563 
L 308.968437 69.248563 
L 318.968437 69.248563 
" style="fill: none; stroke-dasharray: 5.55,2.4; stroke-dashoffset: 0; stroke: #ff7f0e; stroke-width: 1.5"/>
    </g>
    <g id="text_17">
     <!-- Linear Fit -->
     <g transform="translate(326.968437 72.748563) scale(0.1 -0.1)">
      <defs>
       <path id="DejaVuSans-4c" d="M 628 4666 
L 1259 4666 
L 1259 531 
L 3531 531 
L 3531 0 
L 628 0 
L 628 4666 
z
" transform="scale(0.015625)"/>
       <path id="DejaVuSans-69" d="M 603 3500 
L 1178 3500 
L 1178 0 
L 603 0 
L 603 3500 
z
M 603 4863 
L 1178 4863 
L 1178 4134 
L 603 4134 
L 603 4863 
z
" transform="scale(0.015625)"/>
       <path id="DejaVuSans-46" d="M 628 4666 
L 3309 4666 
L 3309 4134 
L 1259 4134 
L 1259 2759 
L 3109 2759 
L 3109 2228 
L 1259 2228 
L 1259 0 
L 628 0 
L 628 4666 
z
" transform="scale(0.015625)"/>
       <path id="DejaVuSans-74" d="M 1172 4494 
L 1172 3500 
L 2356 3500 
L 2356 3053 
L 1172 3053 
L 1172 1153 
Q 1172 725 1289 603 
Q 1406 481 1766 481 
L 2356 481 
L 2356 0 
L 1766 0 
Q 1100 0 847 248 
Q 594 497 594 1153 
L 594 3053 
L 172 3053 
L 172 3500 
L 594 3500 
L 594 4494 
L 1172 4494 
z
" transform="scale(0.015625)"/>
      </defs>
      <use xlink:href="#DejaVuSans-4c"/>
      <use xlink:href="#DejaVuSans-69" transform="translate(55.712891 0)"/>
      <use xlink:href="#DejaVuSans-6e" transform="translate(83.496094 0)"/>
      <use xlink:href="#DejaVuSans-65" transform="translate(146.875 0)"/>
      <use xlink:href="#DejaVuSans-61" transform="translate(208.398438 0)"/>
      <use xlink:href="#DejaVuSans-72" transform="translate(269.677734 0)"/>
      <use xlink:href="#DejaVuSans-20" transform="translate(310.791016 0)"/>
      <use xlink:href="#DejaVuSans-46" transform="translate(342.578125 0)"/>
      <use xlink:href="#DejaVuSans-69" transform="translate(392.847656 0)"/>
      <use xlink:href="#DejaVuSans-74" transform="translate(420.630859 0)"/>
     </g>
    </g>
    <g id="line2d_20">
     <path d="M 298.968437 83.926688 
L 308.968437 83.926688 
L 318.968437 83.926688 
" style="fill: none; stroke-dasharray: 5.55,2.4; stroke-dashoffset: 0; stroke: #2ca02c; stroke-width: 1.5"/>
    </g>
    <g id="text_18">
     <!-- -60 dB -->
     <g transform="translate(326.968437 87.426688) scale(0.1 -0.1)">
      <defs>
       <path id="DejaVuSans-64" d="M 2906 2969 
L 2906 4863 
L 3481 4863 
L 3481 0 
L 2906 0 
L 2906 525 
Q 2725 213 2448 61 
Q 2172 -91 1784 -91 
Q 1150 -91 751 415 
Q 353 922 353 1747 
Q 353 2572 751 3078 
Q 1150 3584 1784 3584 
Q 2172 3584 2448 3432 
Q 2725 3281 2906 2969 
z
M 947 1747 
Q 947 1113 1208 752 
Q 1469 391 1925 391 
Q 2381 391 2643 752 
Q 2906 1113 2906 1747 
Q 2906 2381 2643 2742 
Q 2381 3103 1925 3103 
Q 1469 3103 1208 2742 
Q 947 2381 947 1747 
z
" transform="scale(0.015625)"/>
       <path id="DejaVuSans-42" d="M 1259 2228 
L 1259 519 
L 2272 519 
Q 2781 519 3026 730 
Q 3272 941 3272 1375 
Q 3272 1813 3026 2020 
Q 2781 2228 2272 2228 
L 1259 2228 
z
M 1259 4147 
L 1259 2741 
L 2194 2741 
Q 2656 2741 2882 2914 
Q 3109 3088 3109 3444 
Q 3109 3797 2882 3972 
Q 2656 4147 2194 4147 
L 1259 4147 
z
M 628 4666 
L 2241 4666 
Q 2963 4666 3353 4366 
Q 3744 4066 3744 3513 
Q 3744 3084 3544 2831 
Q 3344 2578 2956 2516 
Q 3422 2416 3680 2098 
Q 3938 1781 3938 1306 
Q 3938 681 3513 340 
Q 3088 0 2303 0 
L 628 0 
L 628 4666 
z
" transform="scale(0.015625)"/>
      </defs>
      <use xlink:href="#DejaVuSans-2d"/>
      <use xlink:href="#DejaVuSans-36" transform="translate(36.083984 0)"/>
      <use xlink:href="#DejaVuSans-30" transform="translate(99.707031 0)"/>
      <use xlink:href="#DejaVuSans-20" transform="translate(163.330078 0)"/>
      <use xlink:href="#DejaVuSans-64" transform="translate(195.117188 0)"/>
      <use xlink:href="#DejaVuSans-42" transform="translate(258.59375 0)"/>
     </g>
    </g>
    <g id="line2d_21">
     <path d="M 298.968437 98.604813 
L 318.968437 98.604813 
" style="fill: none; stroke-dasharray: 5.55,2.4; stroke-dashoffset: 0; stroke: #1f77b4; stroke-width: 1.5"/>
    </g>
    <g id="text_19">
     <!-- Estimated RT60 -->
     <g transform="translate(326.968437 102.104813) scale(0.1 -0.1)">
      <defs>
       <path id="DejaVuSans-73" d="M 2834 3397 
L 2834 2853 
Q 2591 2978 2328 3040 
Q 2066 3103 1784 3103 
Q 1356 3103 1142 2972 
Q 928 2841 928 2578 
Q 928 2378 1081 2264 
Q 1234 2150 1697 2047 
L 1894 2003 
Q 2506 1872 2764 1633 
Q 3022 1394 3022 966 
Q 3022 478 2636 193 
Q 2250 -91 1575 -91 
Q 1294 -91 989 -36 
Q 684 19 347 128 
L 347 722 
Q 666 556 975 473 
Q 1284 391 1588 391 
Q 1994 391 2212 530 
Q 2431 669 2431 922 
Q 2431 1156 2273 1281 
Q 2116 1406 1581 1522 
L 1381 1569 
Q 847 1681 609 1914 
Q 372 2147 372 2553 
Q 372 3047 722 3315 
Q 1072 3584 1716 3584 
Q 2034 3584 2315 3537 
Q 2597 3491 2834 3397 
z
" transform="scale(0.015625)"/>
       <path id="DejaVuSans-6d" d="M 3328 2828 
Q 3544 3216 3844 3400 
Q 4144 3584 4550 3584 
Q 5097 3584 5394 3201 
Q 5691 2819 5691 2113 
L 5691 0 
L 5113 0 
L 5113 2094 
Q 5113 2597 4934 2840 
Q 4756 3084 4391 3084 
Q 3944 3084 3684 2787 
Q 3425 2491 3425 1978 
L 3425 0 
L 2847 0 
L 2847 2094 
Q 2847 2600 2669 2842 
Q 2491 3084 2119 3084 
Q 1678 3084 1418 2786 
Q 1159 2488 1159 1978 
L 1159 0 
L 581 0 
L 581 3500 
L 1159 3500 
L 1159 2956 
Q 1356 3278 1631 3431 
Q 1906 3584 2284 3584 
Q 2666 3584 2933 3390 
Q 3200 3197 3328 2828 
z
" transform="scale(0.015625)"/>
       <path id="DejaVuSans-52" d="M 2841 2188 
Q 3044 2119 3236 1894 
Q 3428 1669 3622 1275 
L 4263 0 
L 3584 0 
L 2988 1197 
Q 2756 1666 2539 1819 
Q 2322 1972 1947 1972 
L 1259 1972 
L 1259 0 
L 628 0 
L 628 4666 
L 2053 4666 
Q 2853 4666 3247 4331 
Q 3641 3997 3641 3322 
Q 3641 2881 3436 2590 
Q 3231 2300 2841 2188 
z
M 1259 4147 
L 1259 2491 
L 2053 2491 
Q 2509 2491 2742 2702 
Q 2975 2913 2975 3322 
Q 2975 3731 2742 3939 
Q 2509 4147 2053 4147 
L 1259 4147 
z
" transform="scale(0.015625)"/>
       <path id="DejaVuSans-54" d="M -19 4666 
L 3928 4666 
L 3928 4134 
L 2272 4134 
L 2272 0 
L 1638 0 
L 1638 4134 
L -19 4134 
L -19 4666 
z
" transform="scale(0.015625)"/>
      </defs>
      <use xlink:href="#DejaVuSans-45"/>
      <use xlink:href="#DejaVuSans-73" transform="translate(63.183594 0)"/>
      <use xlink:href="#DejaVuSans-74" transform="translate(115.283203 0)"/>
      <use xlink:href="#DejaVuSans-69" transform="translate(154.492188 0)"/>
      <use xlink:href="#DejaVuSans-6d" transform="translate(182.275391 0)"/>
      <use xlink:href="#DejaVuSans-61" transform="translate(279.6875 0)"/>
      <use xlink:href="#DejaVuSans-74" transform="translate(340.966797 0)"/>
      <use xlink:href="#DejaVuSans-65" transform="translate(380.175781 0)"/>
      <use xlink:href="#DejaVuSans-64" transform="translate(441.699219 0)"/>
      <use xlink:href="#DejaVuSans-20" transform="translate(505.175781 0)"/>
      <use xlink:href="#DejaVuSans-52" transform="translate(536.962891 0)"/>
      <use xlink:href="#DejaVuSans-54" transform="translate(599.195312 0)"/>
      <use xlink:href="#DejaVuSans-36" transform="translate(660.279297 0)"/>
      <use xlink:href="#DejaVuSans-30" transform="translate(723.902344 0)"/>
     </g>
    </g>
   </g>
  </g>
 </g>
 <defs>
  <clipPath id="p3a7900d2b1">
   <rect x="57.6" y="41.472" width="357.12" height="266.112"/>
  </clipPath>
 </defs>
</svg>
