<?xml version="1.0" encoding="utf-8" standalone="no"?>
<!DOCTYPE svg PUBLIC "-//W3C//DTD SVG 1.1//EN"
  "http://www.w3.org/Graphics/SVG/1.1/DTD/svg11.dtd">
<svg xmlns:xlink="http://www.w3.org/1999/xlink" width="460.8pt" height="345.6pt" viewBox="0 0 460.8 345.6" xmlns="http://www.w3.org/2000/svg" version="1.1">
 <metadata>
  <rdf:RDF xmlns:dc="http://purl.org/dc/elements/1.1/" xmlns:cc="http://creativecommons.org/ns#" xmlns:rdf="http://www.w3.org/1999/02/22-rdf-syntax-ns#">
   <cc:Work>
    <dc:type rdf:resource="http://purl.org/dc/dcmitype/StillImage"/>
    <dc:date>2025-05-06T13:29:59.075662</dc:date>
    <dc:format>image/svg+xml</dc:format>
    <dc:creator>
     <cc:Agent>
      <dc:title>Matplotlib v3.10.1, https://matplotlib.org/</dc:title>
     </cc:Agent>
    </dc:creator>
   </cc:Work>
  </rdf:RDF>
 </metadata>
 <defs>
  <style type="text/css">*{stroke-linejoin: round; stroke-linecap: butt}</style>
 </defs>
 <g id="figure_1">
  <g id="patch_1">
   <path d="M 0 345.6 
L 460.8 345.6 
L 460.8 0 
L 0 0 
z
" style="fill: #ffffff"/>
  </g>
  <g id="axes_1">
   <g id="patch_2">
    <path d="M 57.6 307.584 
L 414.72 307.584 
L 414.72 41.472 
L 57.6 41.472 
z
" style="fill: #ffffff"/>
   </g>
   <g id="matplotlib.axis_1">
    <g id="xtick_1">
     <g id="line2d_1">
      <defs>
       <path id="m42c8ae2a25" d="M 0 0 
L 0 3.5 
" style="stroke: #000000; stroke-width: 0.8"/>
      </defs>
      <g>
       <use xlink:href="#m42c8ae2a25" x="96.276727" y="307.584" style="stroke: #000000; stroke-width: 0.8"/>
      </g>
     </g>
     <g id="text_1">
      <!-- −0.1 -->
      <g transform="translate(84.135321 322.182437) scale(0.1 -0.1)">
       <defs>
        <path id="DejaVuSans-2212" d="M 678 2272 
L 4684 2272 
L 4684 1741 
L 678 1741 
L 678 2272 
z
" transform="scale(0.015625)"/>
        <path id="DejaVuSans-30" d="M 2034 4250 
Q 1547 4250 1301 3770 
Q 1056 3291 1056 2328 
Q 1056 1369 1301 889 
Q 1547 409 2034 409 
Q 2525 409 2770 889 
Q 3016 1369 3016 2328 
Q 3016 3291 2770 3770 
Q 2525 4250 2034 4250 
z
M 2034 4750 
Q 2819 4750 3233 4129 
Q 3647 3509 3647 2328 
Q 3647 1150 3233 529 
Q 2819 -91 2034 -91 
Q 1250 -91 836 529 
Q 422 1150 422 2328 
Q 422 3509 836 4129 
Q 1250 4750 2034 4750 
z
" transform="scale(0.015625)"/>
        <path id="DejaVuSans-2e" d="M 684 794 
L 1344 794 
L 1344 0 
L 684 0 
L 684 794 
z
" transform="scale(0.015625)"/>
        <path id="DejaVuSans-31" d="M 794 531 
L 1825 531 
L 1825 4091 
L 703 3866 
L 703 4441 
L 1819 4666 
L 2450 4666 
L 2450 531 
L 3481 531 
L 3481 0 
L 794 0 
L 794 531 
z
" transform="scale(0.015625)"/>
       </defs>
       <use xlink:href="#DejaVuSans-2212"/>
       <use xlink:href="#DejaVuSans-30" transform="translate(83.789062 0)"/>
       <use xlink:href="#DejaVuSans-2e" transform="translate(147.412109 0)"/>
       <use xlink:href="#DejaVuSans-31" transform="translate(179.199219 0)"/>
      </g>
     </g>
    </g>
    <g id="xtick_2">
     <g id="line2d_2">
      <g>
       <use xlink:href="#m42c8ae2a25" x="150.385818" y="307.584" style="stroke: #000000; stroke-width: 0.8"/>
      </g>
     </g>
     <g id="text_2">
      <!-- 0.0 -->
      <g transform="translate(142.434256 322.182437) scale(0.1 -0.1)">
       <use xlink:href="#DejaVuSans-30"/>
       <use xlink:href="#DejaVuSans-2e" transform="translate(63.623047 0)"/>
       <use xlink:href="#DejaVuSans-30" transform="translate(95.410156 0)"/>
      </g>
     </g>
    </g>
    <g id="xtick_3">
     <g id="line2d_3">
      <g>
       <use xlink:href="#m42c8ae2a25" x="204.494909" y="307.584" style="stroke: #000000; stroke-width: 0.8"/>
      </g>
     </g>
     <g id="text_3">
      <!-- 0.1 -->
      <g transform="translate(196.543347 322.182437) scale(0.1 -0.1)">
       <use xlink:href="#DejaVuSans-30"/>
       <use xlink:href="#DejaVuSans-2e" transform="translate(63.623047 0)"/>
       <use xlink:href="#DejaVuSans-31" transform="translate(95.410156 0)"/>
      </g>
     </g>
    </g>
    <g id="xtick_4">
     <g id="line2d_4">
      <g>
       <use xlink:href="#m42c8ae2a25" x="258.604" y="307.584" style="stroke: #000000; stroke-width: 0.8"/>
      </g>
     </g>
     <g id="text_4">
      <!-- 0.2 -->
      <g transform="translate(250.652438 322.182437) scale(0.1 -0.1)">
       <defs>
        <path id="DejaVuSans-32" d="M 1228 531 
L 3431 531 
L 3431 0 
L 469 0 
L 469 531 
Q 828 903 1448 1529 
Q 2069 2156 2228 2338 
Q 2531 2678 2651 2914 
Q 2772 3150 2772 3378 
Q 2772 3750 2511 3984 
Q 2250 4219 1831 4219 
Q 1534 4219 1204 4116 
Q 875 4013 500 3803 
L 500 4441 
Q 881 4594 1212 4672 
Q 1544 4750 1819 4750 
Q 2544 4750 2975 4387 
Q 3406 4025 3406 3419 
Q 3406 3131 3298 2873 
Q 3191 2616 2906 2266 
Q 2828 2175 2409 1742 
Q 1991 1309 1228 531 
z
" transform="scale(0.015625)"/>
       </defs>
       <use xlink:href="#DejaVuSans-30"/>
       <use xlink:href="#DejaVuSans-2e" transform="translate(63.623047 0)"/>
       <use xlink:href="#DejaVuSans-32" transform="translate(95.410156 0)"/>
      </g>
     </g>
    </g>
    <g id="xtick_5">
     <g id="line2d_5">
      <g>
       <use xlink:href="#m42c8ae2a25" x="312.713091" y="307.584" style="stroke: #000000; stroke-width: 0.8"/>
      </g>
     </g>
     <g id="text_5">
      <!-- 0.3 -->
      <g transform="translate(304.761528 322.182437) scale(0.1 -0.1)">
       <defs>
        <path id="DejaVuSans-33" d="M 2597 2516 
Q 3050 2419 3304 2112 
Q 3559 1806 3559 1356 
Q 3559 666 3084 287 
Q 2609 -91 1734 -91 
Q 1441 -91 1130 -33 
Q 819 25 488 141 
L 488 750 
Q 750 597 1062 519 
Q 1375 441 1716 441 
Q 2309 441 2620 675 
Q 2931 909 2931 1356 
Q 2931 1769 2642 2001 
Q 2353 2234 1838 2234 
L 1294 2234 
L 1294 2753 
L 1863 2753 
Q 2328 2753 2575 2939 
Q 2822 3125 2822 3475 
Q 2822 3834 2567 4026 
Q 2313 4219 1838 4219 
Q 1578 4219 1281 4162 
Q 984 4106 628 3988 
L 628 4550 
Q 988 4650 1302 4700 
Q 1616 4750 1894 4750 
Q 2613 4750 3031 4423 
Q 3450 4097 3450 3541 
Q 3450 3153 3228 2886 
Q 3006 2619 2597 2516 
z
" transform="scale(0.015625)"/>
       </defs>
       <use xlink:href="#DejaVuSans-30"/>
       <use xlink:href="#DejaVuSans-2e" transform="translate(63.623047 0)"/>
       <use xlink:href="#DejaVuSans-33" transform="translate(95.410156 0)"/>
      </g>
     </g>
    </g>
    <g id="xtick_6">
     <g id="line2d_6">
      <g>
       <use xlink:href="#m42c8ae2a25" x="366.822182" y="307.584" style="stroke: #000000; stroke-width: 0.8"/>
      </g>
     </g>
     <g id="text_6">
      <!-- 0.4 -->
      <g transform="translate(358.870619 322.182437) scale(0.1 -0.1)">
       <defs>
        <path id="DejaVuSans-34" d="M 2419 4116 
L 825 1625 
L 2419 1625 
L 2419 4116 
z
M 2253 4666 
L 3047 4666 
L 3047 1625 
L 3713 1625 
L 3713 1100 
L 3047 1100 
L 3047 0 
L 2419 0 
L 2419 1100 
L 313 1100 
L 313 1709 
L 2253 4666 
z
" transform="scale(0.015625)"/>
       </defs>
       <use xlink:href="#DejaVuSans-30"/>
       <use xlink:href="#DejaVuSans-2e" transform="translate(63.623047 0)"/>
       <use xlink:href="#DejaVuSans-34" transform="translate(95.410156 0)"/>
      </g>
     </g>
    </g>
   </g>
   <g id="matplotlib.axis_2">
    <g id="ytick_1">
     <g id="line2d_7">
      <defs>
       <path id="m92c1ffcf99" d="M 0 0 
L -3.5 0 
" style="stroke: #000000; stroke-width: 0.8"/>
      </defs>
      <g>
       <use xlink:href="#m92c1ffcf99" x="57.6" y="271.339758" style="stroke: #000000; stroke-width: 0.8"/>
      </g>
     </g>
     <g id="text_7">
      <!-- −120 -->
      <g transform="translate(23.132812 275.138977) scale(0.1 -0.1)">
       <use xlink:href="#DejaVuSans-2212"/>
       <use xlink:href="#DejaVuSans-31" transform="translate(83.789062 0)"/>
       <use xlink:href="#DejaVuSans-32" transform="translate(147.412109 0)"/>
       <use xlink:href="#DejaVuSans-30" transform="translate(211.035156 0)"/>
      </g>
     </g>
    </g>
    <g id="ytick_2">
     <g id="line2d_8">
      <g>
       <use xlink:href="#m92c1ffcf99" x="57.6" y="235.044465" style="stroke: #000000; stroke-width: 0.8"/>
      </g>
     </g>
     <g id="text_8">
      <!-- −100 -->
      <g transform="translate(23.132812 238.843684) scale(0.1 -0.1)">
       <use xlink:href="#DejaVuSans-2212"/>
       <use xlink:href="#DejaVuSans-31" transform="translate(83.789062 0)"/>
       <use xlink:href="#DejaVuSans-30" transform="translate(147.412109 0)"/>
       <use xlink:href="#DejaVuSans-30" transform="translate(211.035156 0)"/>
      </g>
     </g>
    </g>
    <g id="ytick_3">
     <g id="line2d_9">
      <g>
       <use xlink:href="#m92c1ffcf99" x="57.6" y="198.749172" style="stroke: #000000; stroke-width: 0.8"/>
      </g>
     </g>
     <g id="text_9">
      <!-- −80 -->
      <g transform="translate(29.495313 202.548391) scale(0.1 -0.1)">
       <defs>
        <path id="DejaVuSans-38" d="M 2034 2216 
Q 1584 2216 1326 1975 
Q 1069 1734 1069 1313 
Q 1069 891 1326 650 
Q 1584 409 2034 409 
Q 2484 409 2743 651 
Q 3003 894 3003 1313 
Q 3003 1734 2745 1975 
Q 2488 2216 2034 2216 
z
M 1403 2484 
Q 997 2584 770 2862 
Q 544 3141 544 3541 
Q 544 4100 942 4425 
Q 1341 4750 2034 4750 
Q 2731 4750 3128 4425 
Q 3525 4100 3525 3541 
Q 3525 3141 3298 2862 
Q 3072 2584 2669 2484 
Q 3125 2378 3379 2068 
Q 3634 1759 3634 1313 
Q 3634 634 3220 271 
Q 2806 -91 2034 -91 
Q 1263 -91 848 271 
Q 434 634 434 1313 
Q 434 1759 690 2068 
Q 947 2378 1403 2484 
z
M 1172 3481 
Q 1172 3119 1398 2916 
Q 1625 2713 2034 2713 
Q 2441 2713 2670 2916 
Q 2900 3119 2900 3481 
Q 2900 3844 2670 4047 
Q 2441 4250 2034 4250 
Q 1625 4250 1398 4047 
Q 1172 3844 1172 3481 
z
" transform="scale(0.015625)"/>
       </defs>
       <use xlink:href="#DejaVuSans-2212"/>
       <use xlink:href="#DejaVuSans-38" transform="translate(83.789062 0)"/>
       <use xlink:href="#DejaVuSans-30" transform="translate(147.412109 0)"/>
      </g>
     </g>
    </g>
    <g id="ytick_4">
     <g id="line2d_10">
      <g>
       <use xlink:href="#m92c1ffcf99" x="57.6" y="162.453879" style="stroke: #000000; stroke-width: 0.8"/>
      </g>
     </g>
     <g id="text_10">
      <!-- −60 -->
      <g transform="translate(29.495313 166.253098) scale(0.1 -0.1)">
       <defs>
        <path id="DejaVuSans-36" d="M 2113 2584 
Q 1688 2584 1439 2293 
Q 1191 2003 1191 1497 
Q 1191 994 1439 701 
Q 1688 409 2113 409 
Q 2538 409 2786 701 
Q 3034 994 3034 1497 
Q 3034 2003 2786 2293 
Q 2538 2584 2113 2584 
z
M 3366 4563 
L 3366 3988 
Q 3128 4100 2886 4159 
Q 2644 4219 2406 4219 
Q 1781 4219 1451 3797 
Q 1122 3375 1075 2522 
Q 1259 2794 1537 2939 
Q 1816 3084 2150 3084 
Q 2853 3084 3261 2657 
Q 3669 2231 3669 1497 
Q 3669 778 3244 343 
Q 2819 -91 2113 -91 
Q 1303 -91 875 529 
Q 447 1150 447 2328 
Q 447 3434 972 4092 
Q 1497 4750 2381 4750 
Q 2619 4750 2861 4703 
Q 3103 4656 3366 4563 
z
" transform="scale(0.015625)"/>
       </defs>
       <use xlink:href="#DejaVuSans-2212"/>
       <use xlink:href="#DejaVuSans-36" transform="translate(83.789062 0)"/>
       <use xlink:href="#DejaVuSans-30" transform="translate(147.412109 0)"/>
      </g>
     </g>
    </g>
    <g id="ytick_5">
     <g id="line2d_11">
      <g>
       <use xlink:href="#m92c1ffcf99" x="57.6" y="126.158586" style="stroke: #000000; stroke-width: 0.8"/>
      </g>
     </g>
     <g id="text_11">
      <!-- −40 -->
      <g transform="translate(29.495313 129.957805) scale(0.1 -0.1)">
       <use xlink:href="#DejaVuSans-2212"/>
       <use xlink:href="#DejaVuSans-34" transform="translate(83.789062 0)"/>
       <use xlink:href="#DejaVuSans-30" transform="translate(147.412109 0)"/>
      </g>
     </g>
    </g>
    <g id="ytick_6">
     <g id="line2d_12">
      <g>
       <use xlink:href="#m92c1ffcf99" x="57.6" y="89.863293" style="stroke: #000000; stroke-width: 0.8"/>
      </g>
     </g>
     <g id="text_12">
      <!-- −20 -->
      <g transform="translate(29.495313 93.662512) scale(0.1 -0.1)">
       <use xlink:href="#DejaVuSans-2212"/>
       <use xlink:href="#DejaVuSans-32" transform="translate(83.789062 0)"/>
       <use xlink:href="#DejaVuSans-30" transform="translate(147.412109 0)"/>
      </g>
     </g>
    </g>
    <g id="ytick_7">
     <g id="line2d_13">
      <g>
       <use xlink:href="#m92c1ffcf99" x="57.6" y="53.568" style="stroke: #000000; stroke-width: 0.8"/>
      </g>
     </g>
     <g id="text_13">
      <!-- 0 -->
      <g transform="translate(44.2375 57.367219) scale(0.1 -0.1)">
       <use xlink:href="#DejaVuSans-30"/>
      </g>
     </g>
    </g>
   </g>
   <g id="line2d_14">
    <path d="M 73.832727 53.568 
L 135.280364 53.678935 
L 139.372364 53.915184 
L 139.868364 54.046033 
L 140.668727 54.113558 
L 141.277455 54.245792 
L 141.559273 54.340365 
L 141.739636 54.481716 
L 142.021455 54.664218 
L 142.292 54.775085 
L 142.596364 54.872112 
L 143.858909 54.993979 
L 144.614182 55.396792 
L 144.862182 55.512769 
L 145.042545 55.618767 
L 145.211636 56.120975 
L 145.493455 56.785246 
L 145.662545 56.89669 
L 145.809091 57.523018 
L 146.113455 58.69289 
L 146.384 58.889907 
L 146.947636 59.9128 
L 147.161818 60.018324 
L 147.398545 60.556965 
L 147.624 60.817107 
L 147.849455 60.936225 
L 148.311636 61.485713 
L 148.525818 61.597822 
L 148.920364 61.888935 
L 149.190909 61.993908 
L 149.574182 62.176735 
L 149.822182 62.284059 
L 150.194182 62.501522 
L 150.363273 62.616485 
L 150.757818 63.025326 
L 150.893091 63.194497 
L 151.242545 63.715917 
L 151.422909 63.822016 
L 151.84 64.221347 
L 152.166909 64.335792 
L 152.527636 64.516033 
L 152.786909 64.633256 
L 153.091273 64.704408 
L 153.632364 65.012706 
L 153.925455 65.334571 
L 154.072 65.447248 
L 154.545455 66.125517 
L 154.748364 66.249697 
L 154.985091 66.757081 
L 155.221818 67.069192 
L 155.357091 67.156924 
L 155.481091 67.681615 
L 155.808 69.062694 
L 155.909455 69.168523 
L 156.044727 69.881366 
L 156.292727 70.836532 
L 156.461818 70.944903 
L 156.788727 71.340593 
L 157.036727 71.448735 
L 157.341091 71.510005 
L 157.634182 71.676125 
L 157.949818 71.744283 
L 158.197818 71.871667 
L 158.502182 72.002045 
L 159.471636 72.116613 
L 160.159273 72.545527 
L 160.373455 72.654648 
L 160.52 72.764946 
L 162.086909 75.436026 
L 162.256 75.62399 
L 162.504 75.810786 
L 163.552364 75.935732 
L 164.161091 76.002656 
L 165.130545 76.138251 
L 165.547636 76.396979 
L 165.705455 76.530998 
L 166.167636 77.101567 
L 166.325455 77.249013 
L 166.742545 77.761956 
L 167.001818 77.874735 
L 167.486545 78.305737 
L 167.655636 78.442419 
L 167.993818 78.753339 
L 168.782909 78.866718 
L 170.507636 79.037468 
L 171.116364 79.148303 
L 172.119636 79.372718 
L 172.378909 79.505127 
L 172.548 79.609939 
L 172.987636 80.064791 
L 173.145455 80.194559 
L 173.54 80.617976 
L 173.776727 80.727861 
L 174.193818 81.040497 
L 174.430545 81.152072 
L 174.734909 81.266567 
L 175.850909 81.389524 
L 177.124727 82.046894 
L 177.541818 82.55757 
L 177.778545 82.667571 
L 178.094182 83.254677 
L 178.297091 83.354546 
L 178.443636 83.47715 
L 179.007273 84.374668 
L 179.593455 84.807203 
L 180.314909 84.857334 
L 181.013818 84.969992 
L 181.453455 85.123747 
L 181.690182 85.310692 
L 181.972 85.432555 
L 182.186182 85.537042 
L 182.625818 85.920891 
L 182.794909 86.07643 
L 183.099273 86.355005 
L 183.572727 86.481152 
L 184.778909 86.89026 
L 185.049455 87.086421 
L 185.218545 87.193503 
L 185.590545 87.585928 
L 185.725818 87.706708 
L 186.131636 88.227831 
L 186.266909 88.380531 
L 186.706545 89.104287 
L 186.830545 89.285095 
L 187.281455 90.222858 
L 187.405455 90.381166 
L 187.890182 91.326026 
L 188.036727 91.533853 
L 188.318545 91.866236 
L 188.600364 91.980042 
L 188.893455 92.047154 
L 189.141455 92.221863 
L 189.772727 92.80089 
L 189.986909 92.867801 
L 190.122182 93.002067 
L 190.629455 93.782898 
L 190.787273 94.074114 
L 191.057818 94.455747 
L 191.294545 94.566324 
L 191.610182 94.785781 
L 191.925818 94.896173 
L 192.286545 94.951087 
L 193.086909 95.237911 
L 193.346182 95.325303 
L 193.492727 95.473636 
L 193.887273 96.038986 
L 194 96.171348 
L 194.462182 96.992135 
L 194.642545 97.206387 
L 194.879273 97.359045 
L 195.533091 97.469483 
L 196.558909 98.091562 
L 196.908364 98.505771 
L 197.088727 98.6189 
L 197.438182 98.930329 
L 197.697455 99.04128 
L 197.990545 99.120909 
L 199.298182 99.247225 
L 199.489818 99.443338 
L 199.726545 99.589963 
L 199.884364 99.703481 
L 200.278909 100.197141 
L 200.414182 100.352181 
L 200.763636 100.822732 
L 200.932727 100.931984 
L 201.338545 101.376158 
L 201.507636 101.4923 
L 201.868364 101.824173 
L 202.06 101.938264 
L 202.398182 102.229079 
L 202.567273 102.351037 
L 202.905455 102.673479 
L 203.063273 102.787215 
L 203.469091 103.262182 
L 203.615636 103.410416 
L 203.998909 103.923726 
L 204.168 104.033131 
L 204.630182 104.569529 
L 204.788 104.712911 
L 205.16 105.117751 
L 205.408 105.225434 
L 205.813818 105.537172 
L 206.332364 105.64592 
L 207.042545 105.97888 
L 207.358182 106.30643 
L 207.606182 106.411634 
L 207.944364 106.599953 
L 209.049091 106.731716 
L 209.578909 107.13401 
L 209.883273 107.689431 
L 210.007273 107.783215 
L 210.142545 108.347804 
L 210.413091 109.339825 
L 210.548364 109.434652 
L 210.683636 110.047058 
L 210.942909 110.962738 
L 211.100727 111.063098 
L 211.585455 111.80296 
L 213.84 112.187599 
L 214.798182 112.299211 
L 216.489091 113.050474 
L 216.748364 113.156479 
L 216.951273 113.267558 
L 217.233091 113.418738 
L 217.390909 113.530291 
L 217.706545 113.82095 
L 217.830545 113.945632 
L 218.270182 114.654211 
L 218.394182 114.928596 
L 218.743636 115.798818 
L 218.912727 115.910122 
L 219.532727 116.904973 
L 219.938545 117.289878 
L 220.874182 117.427995 
L 221.156 117.585589 
L 221.482909 117.669916 
L 221.652 117.888913 
L 221.933818 118.183377 
L 222.148 118.293966 
L 222.587636 118.764617 
L 222.813091 118.880684 
L 223.196364 119.107759 
L 223.613455 119.221959 
L 223.996727 119.324373 
L 224.346182 119.434953 
L 224.740727 119.547688 
L 224.988727 119.662636 
L 225.349455 119.841561 
L 225.586182 119.951962 
L 225.924364 120.12293 
L 226.183636 120.230252 
L 226.510545 120.35796 
L 226.769818 120.465737 
L 227.119273 120.635685 
L 227.333455 120.742174 
L 227.682909 120.965567 
L 227.930909 121.069932 
L 228.257818 121.212847 
L 228.494545 121.321266 
L 228.787636 121.435037 
L 229.013091 121.555943 
L 229.317455 121.696287 
L 229.565455 121.805446 
L 229.881091 121.928685 
L 230.241818 122.043074 
L 231.786182 122.469183 
L 232.090545 122.611154 
L 232.304727 122.720379 
L 232.688 123.020723 
L 232.890909 123.134636 
L 233.195273 123.297627 
L 235.979636 123.432259 
L 237.490182 123.601353 
L 240.759273 124.693005 
L 241.108727 124.883257 
L 241.311636 124.993913 
L 241.672364 125.250582 
L 241.965455 125.357886 
L 242.348727 125.512572 
L 242.653091 125.617937 
L 243.002545 125.747599 
L 243.216727 125.868421 
L 243.509818 126.015774 
L 243.746545 126.12925 
L 244.039636 126.248142 
L 244.321455 126.357186 
L 244.648364 126.433822 
L 244.907636 126.570023 
L 245.200727 126.652993 
L 245.414909 126.78321 
L 245.719273 126.951093 
L 245.989818 127.062395 
L 246.305455 127.15933 
L 247.568 127.282047 
L 248.593818 127.364426 
L 249.416727 127.474952 
L 250.318545 127.563403 
L 251.502182 127.67545 
L 253.317091 127.973967 
L 253.970909 128.025726 
L 254.850182 128.155103 
L 256.101455 128.4882 
L 258.626545 128.714691 
L 260.351273 129.314403 
L 262.853818 129.578635 
L 266.089091 131.053406 
L 267.554545 131.333178 
L 267.881455 131.406236 
L 268.253455 131.539047 
L 269.042545 131.695281 
L 272.300364 132.122849 
L 272.728727 132.27366 
L 272.931636 132.428448 
L 273.269818 132.689726 
L 273.484 132.792298 
L 273.912364 133.172955 
L 274.115273 133.290265 
L 274.442182 133.482028 
L 275.287636 133.592131 
L 276.606545 133.84742 
L 277.722545 134.311856 
L 278.060727 134.556922 
L 278.387636 134.667414 
L 278.748364 134.767309 
L 280.304 134.878336 
L 281.487636 135.058 
L 283.020727 135.401906 
L 283.978909 135.612603 
L 284.892 135.755898 
L 287.484727 136.119275 
L 288.420364 136.338509 
L 289.547636 136.511465 
L 297.596364 137.862024 
L 297.923273 137.954753 
L 298.238909 138.065111 
L 298.610909 138.178443 
L 298.881455 138.298129 
L 299.219636 138.418824 
L 299.557818 138.528259 
L 299.941091 138.604376 
L 300.313091 138.733355 
L 301.079636 138.887667 
L 301.970182 139.000779 
L 303.074909 139.179001 
L 303.864 139.337948 
L 307.178182 140.518473 
L 309.297455 141.024818 
L 310.052727 141.187607 
L 310.988364 141.332859 
L 316.782545 142.803031 
L 317.177091 142.914192 
L 317.526545 142.996155 
L 317.797091 143.142154 
L 318.101455 143.225903 
L 318.496 143.338636 
L 318.946909 143.400179 
L 319.848727 143.623741 
L 320.367273 143.792292 
L 320.626545 143.985872 
L 320.897091 144.072002 
L 321.167636 144.182205 
L 321.528364 144.31438 
L 321.866545 144.425809 
L 322.227273 144.502542 
L 323.117818 144.668007 
L 324.966545 145.057657 
L 325.259636 145.196545 
L 325.586545 145.296291 
L 325.857091 145.403804 
L 326.240364 145.579946 
L 326.544727 145.686497 
L 326.939273 145.84642 
L 327.266182 145.956816 
L 327.638182 146.064941 
L 328.066545 146.171891 
L 328.517455 146.253471 
L 328.844364 146.442448 
L 329.610909 146.68845 
L 330.219636 146.860455 
L 333.590182 148.004768 
L 333.883273 148.063501 
L 334.131273 148.195729 
L 334.492 148.386199 
L 334.785091 148.489725 
L 335.190909 148.706924 
L 335.484 148.810055 
L 335.889818 148.997066 
L 336.216727 149.108532 
L 336.611273 149.238126 
L 337.017091 149.348576 
L 337.434182 149.487313 
L 337.670909 149.612331 
L 338.042909 149.839256 
L 338.324727 149.945362 
L 338.741818 150.171295 
L 339.023636 150.277628 
L 339.418182 150.479881 
L 339.733818 150.590282 
L 340.117091 150.741272 
L 340.477818 150.848481 
L 340.883636 150.973314 
L 341.176727 151.088472 
L 341.537455 151.216373 
L 341.864364 151.327216 
L 342.225091 151.420287 
L 342.721091 151.537328 
L 344.085091 151.900567 
L 344.400727 151.991495 
L 344.693818 152.104152 
L 345.099636 152.287836 
L 345.347636 152.390942 
L 345.764727 152.643675 
L 346.057818 152.749163 
L 346.486182 152.929687 
L 346.880727 153.041694 
L 347.309091 153.242209 
L 347.568364 153.344662 
L 348.075636 153.703631 
L 348.256 153.821654 
L 348.774545 154.356363 
L 348.932364 154.485533 
L 349.439636 155.114467 
L 349.608727 155.246831 
L 350.070909 155.754518 
L 350.341455 155.862276 
L 350.792364 156.108568 
L 351.277091 156.223447 
L 351.739273 156.366838 
L 351.987273 156.481901 
L 352.438182 156.809835 
L 352.629818 156.923218 
L 353.103273 157.347536 
L 353.328727 157.460111 
L 353.790909 157.849001 
L 354.027636 157.961264 
L 354.456 158.228165 
L 354.782909 158.342057 
L 355.166182 158.548863 
L 355.538182 158.659457 
L 355.977818 158.731888 
L 356.451273 158.840443 
L 356.845818 158.93653 
L 357.082545 159.06823 
L 357.477091 159.331019 
L 357.702545 159.430932 
L 358.254909 159.916243 
L 358.424 160.082134 
L 358.863636 160.637402 
L 359.066545 160.738032 
L 359.618909 161.271555 
L 359.889455 161.381422 
L 361.174545 162.647489 
L 361.388727 162.766923 
L 362.741455 164.438208 
L 362.876727 164.581383 
L 363.102182 165.315694 
L 363.338909 165.734321 
L 363.553091 165.858337 
L 363.744727 166.478543 
L 364.026545 167.167114 
L 364.330909 167.385986 
L 364.905818 168.536356 
L 365.063636 168.693623 
L 365.616 169.480763 
L 365.909091 169.589205 
L 366.179636 170.068896 
L 366.427636 170.316433 
L 366.675636 170.440438 
L 366.901091 171.052643 
L 367.149091 171.476609 
L 367.430909 171.643878 
L 367.656364 172.384331 
L 367.904364 172.909966 
L 368.141091 173.062717 
L 368.310182 173.752002 
L 368.603273 174.735935 
L 368.84 174.91461 
L 369.437455 176.131197 
L 369.674182 176.240095 
L 369.910909 176.681009 
L 370.215273 177.10995 
L 370.440727 177.233357 
L 370.677455 177.935524 
L 370.914182 178.28399 
L 371.286182 178.476705 
L 371.556727 179.239497 
L 371.759636 179.480849 
L 371.94 179.586188 
L 372.154182 180.214167 
L 372.424727 180.713071 
L 372.819273 180.976156 
L 373.337818 182.027064 
L 373.473091 182.189443 
L 374.059273 183.252483 
L 374.228364 183.351626 
L 374.397455 183.852535 
L 374.690545 184.590915 
L 374.972364 184.756752 
L 375.626182 185.691429 
L 375.772727 185.818115 
L 375.953091 186.456936 
L 376.223636 187.165085 
L 376.494182 187.334442 
L 377.091636 188.24012 
L 377.328364 188.343536 
L 377.553818 188.879403 
L 377.813091 189.248697 
L 378.128727 189.397409 
L 378.737455 190.128963 
L 378.940364 190.247868 
L 379.132 190.727596 
L 379.413818 191.289558 
L 379.605455 191.40015 
L 379.785818 192.011232 
L 380.056364 192.671909 
L 380.507273 192.971865 
L 381.093455 194.052099 
L 381.262545 194.564657 
L 381.544364 195.196961 
L 381.848727 195.25127 
L 382.040364 195.356625 
L 382.186909 195.852754 
L 382.513818 196.967012 
L 382.660364 197.077185 
L 382.829455 197.77546 
L 383.088727 198.548767 
L 383.336727 198.590889 
L 383.663636 198.695554 
L 383.832727 199.087699 
L 384.204727 200.001545 
L 384.34 200.095388 
L 384.464 200.680056 
L 384.903636 203.230498 
L 385.005091 203.34876 
L 385.151636 204.064306 
L 385.534909 205.930682 
L 385.726545 206.00212 
L 385.861818 206.114274 
L 386.008364 206.645149 
L 386.436727 208.366215 
L 386.650909 208.49192 
L 386.82 209.057021 
L 387.327273 210.99548 
L 387.417455 211.13942 
L 387.552727 212.009677 
L 387.924727 214.48067 
L 388.217818 214.729487 
L 388.465818 215.67106 
L 388.837818 216.948436 
L 388.995636 217.065381 
L 389.130909 217.762191 
L 389.536727 220.087918 
L 389.852364 220.388479 
L 390.010182 221.404872 
L 390.359636 223.610386 
L 390.506182 223.718579 
L 390.652727 224.404152 
L 391.069818 226.428981 
L 391.261455 226.52675 
L 391.408 226.641294 
L 391.554545 227.190382 
L 391.971636 228.866915 
L 392.298545 229.097106 
L 392.490182 229.890314 
L 392.873455 231.460308 
L 393.008727 231.555865 
L 393.121455 232.117329 
L 393.651273 235.479148 
L 393.764 235.608527 
L 393.910545 236.270032 
L 394.474182 239.367516 
L 394.564364 239.523519 
L 394.699636 240.390303 
L 395.161818 243.760946 
L 395.353455 243.901816 
L 395.488727 244.586931 
L 396.063636 248.306413 
L 396.153818 248.505154 
L 396.289091 249.480147 
L 396.841455 254.242411 
L 396.931636 254.659614 
L 397.078182 256.833682 
L 397.484 263.467281 
L 397.596727 263.579321 
L 397.698182 264.311875 
L 397.856 267.452294 
L 398.070182 276.929551 
L 398.329455 285.896049 
L 398.374545 286.245233 
L 398.442182 289.520172 
L 398.476 295.488 
L 398.476 295.488 
" clip-path="url(#p76c9824e9a)" style="fill: none; stroke: #1f77b4; stroke-width: 1.5; stroke-linecap: square"/>
   </g>
   <g id="line2d_15">
    <path d="M 150.385818 62.652055 
L 367.363273 171.527702 
" clip-path="url(#p76c9824e9a)" style="fill: none; stroke-dasharray: 5.55,2.4; stroke-dashoffset: 0; stroke: #ff7f0e; stroke-width: 1.5"/>
   </g>
   <g id="line2d_16">
    <path d="M 73.832727 162.453879 
L 398.487273 162.453879 
L 398.487273 162.453879 
" clip-path="url(#p76c9824e9a)" style="fill: none; stroke-dasharray: 5.55,2.4; stroke-dashoffset: 0; stroke: #2ca02c; stroke-width: 1.5"/>
   </g>
   <g id="LineCollection_1">
    <path d="M 367.363273 295.488 
L 367.363273 53.568 
" clip-path="url(#p76c9824e9a)" style="fill: none; stroke-dasharray: 5.55,2.4; stroke-dashoffset: 0; stroke: #1f77b4; stroke-width: 1.5"/>
   </g>
   <g id="patch_3">
    <path d="M 57.6 307.584 
L 57.6 41.472 
" style="fill: none; stroke: #000000; stroke-width: 0.8; stroke-linejoin: miter; stroke-linecap: square"/>
   </g>
   <g id="patch_4">
    <path d="M 414.72 307.584 
L 414.72 41.472 
" style="fill: none; stroke: #000000; stroke-width: 0.8; stroke-linejoin: miter; stroke-linecap: square"/>
   </g>
   <g id="patch_5">
    <path d="M 57.6 307.584 
L 414.72 307.584 
" style="fill: none; stroke: #000000; stroke-width: 0.8; stroke-linejoin: miter; stroke-linecap: square"/>
   </g>
   <g id="patch_6">
    <path d="M 57.6 41.472 
L 414.72 41.472 
" style="fill: none; stroke: #000000; stroke-width: 0.8; stroke-linejoin: miter; stroke-linecap: square"/>
   </g>
   <g id="text_14">
    <!-- Energy Decay - 500 Hz -->
    <g transform="translate(167.4075 35.472) scale(0.12 -0.12)">
     <defs>
      <path id="DejaVuSans-45" d="M 628 4666 
L 3578 4666 
L 3578 4134 
L 1259 4134 
L 1259 2753 
L 3481 2753 
L 3481 2222 
L 1259 2222 
L 1259 531 
L 3634 531 
L 3634 0 
L 628 0 
L 628 4666 
z
" transform="scale(0.015625)"/>
      <path id="DejaVuSans-6e" d="M 3513 2113 
L 3513 0 
L 2938 0 
L 2938 2094 
Q 2938 2591 2744 2837 
Q 2550 3084 2163 3084 
Q 1697 3084 1428 2787 
Q 1159 2491 1159 1978 
L 1159 0 
L 581 0 
L 581 3500 
L 1159 3500 
L 1159 2956 
Q 1366 3272 1645 3428 
Q 1925 3584 2291 3584 
Q 2894 3584 3203 3211 
Q 3513 2838 3513 2113 
z
" transform="scale(0.015625)"/>
      <path id="DejaVuSans-65" d="M 3597 1894 
L 3597 1613 
L 953 1613 
Q 991 1019 1311 708 
Q 1631 397 2203 397 
Q 2534 397 2845 478 
Q 3156 559 3463 722 
L 3463 178 
Q 3153 47 2828 -22 
Q 2503 -91 2169 -91 
Q 1331 -91 842 396 
Q 353 884 353 1716 
Q 353 2575 817 3079 
Q 1281 3584 2069 3584 
Q 2775 3584 3186 3129 
Q 3597 2675 3597 1894 
z
M 3022 2063 
Q 3016 2534 2758 2815 
Q 2500 3097 2075 3097 
Q 1594 3097 1305 2825 
Q 1016 2553 972 2059 
L 3022 2063 
z
" transform="scale(0.015625)"/>
      <path id="DejaVuSans-72" d="M 2631 2963 
Q 2534 3019 2420 3045 
Q 2306 3072 2169 3072 
Q 1681 3072 1420 2755 
Q 1159 2438 1159 1844 
L 1159 0 
L 581 0 
L 581 3500 
L 1159 3500 
L 1159 2956 
Q 1341 3275 1631 3429 
Q 1922 3584 2338 3584 
Q 2397 3584 2469 3576 
Q 2541 3569 2628 3553 
L 2631 2963 
z
" transform="scale(0.015625)"/>
      <path id="DejaVuSans-67" d="M 2906 1791 
Q 2906 2416 2648 2759 
Q 2391 3103 1925 3103 
Q 1463 3103 1205 2759 
Q 947 2416 947 1791 
Q 947 1169 1205 825 
Q 1463 481 1925 481 
Q 2391 481 2648 825 
Q 2906 1169 2906 1791 
z
M 3481 434 
Q 3481 -459 3084 -895 
Q 2688 -1331 1869 -1331 
Q 1566 -1331 1297 -1286 
Q 1028 -1241 775 -1147 
L 775 -588 
Q 1028 -725 1275 -790 
Q 1522 -856 1778 -856 
Q 2344 -856 2625 -561 
Q 2906 -266 2906 331 
L 2906 616 
Q 2728 306 2450 153 
Q 2172 0 1784 0 
Q 1141 0 747 490 
Q 353 981 353 1791 
Q 353 2603 747 3093 
Q 1141 3584 1784 3584 
Q 2172 3584 2450 3431 
Q 2728 3278 2906 2969 
L 2906 3500 
L 3481 3500 
L 3481 434 
z
" transform="scale(0.015625)"/>
      <path id="DejaVuSans-79" d="M 2059 -325 
Q 1816 -950 1584 -1140 
Q 1353 -1331 966 -1331 
L 506 -1331 
L 506 -850 
L 844 -850 
Q 1081 -850 1212 -737 
Q 1344 -625 1503 -206 
L 1606 56 
L 191 3500 
L 800 3500 
L 1894 763 
L 2988 3500 
L 3597 3500 
L 2059 -325 
z
" transform="scale(0.015625)"/>
      <path id="DejaVuSans-20" transform="scale(0.015625)"/>
      <path id="DejaVuSans-44" d="M 1259 4147 
L 1259 519 
L 2022 519 
Q 2988 519 3436 956 
Q 3884 1394 3884 2338 
Q 3884 3275 3436 3711 
Q 2988 4147 2022 4147 
L 1259 4147 
z
M 628 4666 
L 1925 4666 
Q 3281 4666 3915 4102 
Q 4550 3538 4550 2338 
Q 4550 1131 3912 565 
Q 3275 0 1925 0 
L 628 0 
L 628 4666 
z
" transform="scale(0.015625)"/>
      <path id="DejaVuSans-63" d="M 3122 3366 
L 3122 2828 
Q 2878 2963 2633 3030 
Q 2388 3097 2138 3097 
Q 1578 3097 1268 2742 
Q 959 2388 959 1747 
Q 959 1106 1268 751 
Q 1578 397 2138 397 
Q 2388 397 2633 464 
Q 2878 531 3122 666 
L 3122 134 
Q 2881 22 2623 -34 
Q 2366 -91 2075 -91 
Q 1284 -91 818 406 
Q 353 903 353 1747 
Q 353 2603 823 3093 
Q 1294 3584 2113 3584 
Q 2378 3584 2631 3529 
Q 2884 3475 3122 3366 
z
" transform="scale(0.015625)"/>
      <path id="DejaVuSans-61" d="M 2194 1759 
Q 1497 1759 1228 1600 
Q 959 1441 959 1056 
Q 959 750 1161 570 
Q 1363 391 1709 391 
Q 2188 391 2477 730 
Q 2766 1069 2766 1631 
L 2766 1759 
L 2194 1759 
z
M 3341 1997 
L 3341 0 
L 2766 0 
L 2766 531 
Q 2569 213 2275 61 
Q 1981 -91 1556 -91 
Q 1019 -91 701 211 
Q 384 513 384 1019 
Q 384 1609 779 1909 
Q 1175 2209 1959 2209 
L 2766 2209 
L 2766 2266 
Q 2766 2663 2505 2880 
Q 2244 3097 1772 3097 
Q 1472 3097 1187 3025 
Q 903 2953 641 2809 
L 641 3341 
Q 956 3463 1253 3523 
Q 1550 3584 1831 3584 
Q 2591 3584 2966 3190 
Q 3341 2797 3341 1997 
z
" transform="scale(0.015625)"/>
      <path id="DejaVuSans-2d" d="M 313 2009 
L 1997 2009 
L 1997 1497 
L 313 1497 
L 313 2009 
z
" transform="scale(0.015625)"/>
      <path id="DejaVuSans-35" d="M 691 4666 
L 3169 4666 
L 3169 4134 
L 1269 4134 
L 1269 2991 
Q 1406 3038 1543 3061 
Q 1681 3084 1819 3084 
Q 2600 3084 3056 2656 
Q 3513 2228 3513 1497 
Q 3513 744 3044 326 
Q 2575 -91 1722 -91 
Q 1428 -91 1123 -41 
Q 819 9 494 109 
L 494 744 
Q 775 591 1075 516 
Q 1375 441 1709 441 
Q 2250 441 2565 725 
Q 2881 1009 2881 1497 
Q 2881 1984 2565 2268 
Q 2250 2553 1709 2553 
Q 1456 2553 1204 2497 
Q 953 2441 691 2322 
L 691 4666 
z
" transform="scale(0.015625)"/>
      <path id="DejaVuSans-48" d="M 628 4666 
L 1259 4666 
L 1259 2753 
L 3553 2753 
L 3553 4666 
L 4184 4666 
L 4184 0 
L 3553 0 
L 3553 2222 
L 1259 2222 
L 1259 0 
L 628 0 
L 628 4666 
z
" transform="scale(0.015625)"/>
      <path id="DejaVuSans-7a" d="M 353 3500 
L 3084 3500 
L 3084 2975 
L 922 459 
L 3084 459 
L 3084 0 
L 275 0 
L 275 525 
L 2438 3041 
L 353 3041 
L 353 3500 
z
" transform="scale(0.015625)"/>
     </defs>
     <use xlink:href="#DejaVuSans-45"/>
     <use xlink:href="#DejaVuSans-6e" transform="translate(63.183594 0)"/>
     <use xlink:href="#DejaVuSans-65" transform="translate(126.5625 0)"/>
     <use xlink:href="#DejaVuSans-72" transform="translate(188.085938 0)"/>
     <use xlink:href="#DejaVuSans-67" transform="translate(227.449219 0)"/>
     <use xlink:href="#DejaVuSans-79" transform="translate(290.925781 0)"/>
     <use xlink:href="#DejaVuSans-20" transform="translate(350.105469 0)"/>
     <use xlink:href="#DejaVuSans-44" transform="translate(381.892578 0)"/>
     <use xlink:href="#DejaVuSans-65" transform="translate(458.894531 0)"/>
     <use xlink:href="#DejaVuSans-63" transform="translate(520.417969 0)"/>
     <use xlink:href="#DejaVuSans-61" transform="translate(575.398438 0)"/>
     <use xlink:href="#DejaVuSans-79" transform="translate(636.677734 0)"/>
     <use xlink:href="#DejaVuSans-20" transform="translate(695.857422 0)"/>
     <use xlink:href="#DejaVuSans-2d" transform="translate(727.644531 0)"/>
     <use xlink:href="#DejaVuSans-20" transform="translate(763.728516 0)"/>
     <use xlink:href="#DejaVuSans-35" transform="translate(795.515625 0)"/>
     <use xlink:href="#DejaVuSans-30" transform="translate(859.138672 0)"/>
     <use xlink:href="#DejaVuSans-30" transform="translate(922.761719 0)"/>
     <use xlink:href="#DejaVuSans-20" transform="translate(986.384766 0)"/>
     <use xlink:href="#DejaVuSans-48" transform="translate(1018.171875 0)"/>
     <use xlink:href="#DejaVuSans-7a" transform="translate(1093.367188 0)"/>
    </g>
   </g>
   <g id="legend_1">
    <g id="patch_7">
     <path d="M 296.968437 108.1845 
L 407.72 108.1845 
Q 409.72 108.1845 409.72 106.1845 
L 409.72 48.472 
Q 409.72 46.472 407.72 46.472 
L 296.968437 46.472 
Q 294.968437 46.472 294.968437 48.472 
L 294.968437 106.1845 
Q 294.968437 108.1845 296.968437 108.1845 
z
" style="fill: #ffffff; opacity: 0.8; stroke: #cccccc; stroke-linejoin: miter"/>
    </g>
    <g id="line2d_17">
     <path d="M 298.968437 54.570438 
L 308.968437 54.570438 
L 318.968437 54.570438 
" style="fill: none; stroke: #1f77b4; stroke-width: 1.5; stroke-linecap: square"/>
    </g>
    <g id="text_15">
     <!-- Energy -->
     <g transform="translate(326.968437 58.070438) scale(0.1 -0.1)">
      <use xlink:href="#DejaVuSans-45"/>
      <use xlink:href="#DejaVuSans-6e" transform="translate(63.183594 0)"/>
      <use xlink:href="#DejaVuSans-65" transform="translate(126.5625 0)"/>
      <use xlink:href="#DejaVuSans-72" transform="translate(188.085938 0)"/>
      <use xlink:href="#DejaVuSans-67" transform="translate(227.449219 0)"/>
      <use xlink:href="#DejaVuSans-79" transform="translate(290.925781 0)"/>
     </g>
    </g>
    <g id="line2d_18">
     <path d="M 298.968437 69.248563 
L 308.968437 69.248563 
L 318.968437 69.248563 
" style="fill: none; stroke-dasharray: 5.55,2.4; stroke-dashoffset: 0; stroke: #ff7f0e; stroke-width: 1.5"/>
    </g>
    <g id="text_16">
     <!-- Linear Fit -->
     <g transform="translate(326.968437 72.748563) scale(0.1 -0.1)">
      <defs>
       <path id="DejaVuSans-4c" d="M 628 4666 
L 1259 4666 
L 1259 531 
L 3531 531 
L 3531 0 
L 628 0 
L 628 4666 
z
" transform="scale(0.015625)"/>
       <path id="DejaVuSans-69" d="M 603 3500 
L 1178 3500 
L 1178 0 
L 603 0 
L 603 3500 
z
M 603 4863 
L 1178 4863 
L 1178 4134 
L 603 4134 
L 603 4863 
z
" transform="scale(0.015625)"/>
       <path id="DejaVuSans-46" d="M 628 4666 
L 3309 4666 
L 3309 4134 
L 1259 4134 
L 1259 2759 
L 3109 2759 
L 3109 2228 
L 1259 2228 
L 1259 0 
L 628 0 
L 628 4666 
z
" transform="scale(0.015625)"/>
       <path id="DejaVuSans-74" d="M 1172 4494 
L 1172 3500 
L 2356 3500 
L 2356 3053 
L 1172 3053 
L 1172 1153 
Q 1172 725 1289 603 
Q 1406 481 1766 481 
L 2356 481 
L 2356 0 
L 1766 0 
Q 1100 0 847 248 
Q 594 497 594 1153 
L 594 3053 
L 172 3053 
L 172 3500 
L 594 3500 
L 594 4494 
L 1172 4494 
z
" transform="scale(0.015625)"/>
      </defs>
      <use xlink:href="#DejaVuSans-4c"/>
      <use xlink:href="#DejaVuSans-69" transform="translate(55.712891 0)"/>
      <use xlink:href="#DejaVuSans-6e" transform="translate(83.496094 0)"/>
      <use xlink:href="#DejaVuSans-65" transform="translate(146.875 0)"/>
      <use xlink:href="#DejaVuSans-61" transform="translate(208.398438 0)"/>
      <use xlink:href="#DejaVuSans-72" transform="translate(269.677734 0)"/>
      <use xlink:href="#DejaVuSans-20" transform="translate(310.791016 0)"/>
      <use xlink:href="#DejaVuSans-46" transform="translate(342.578125 0)"/>
      <use xlink:href="#DejaVuSans-69" transform="translate(392.847656 0)"/>
      <use xlink:href="#DejaVuSans-74" transform="translate(420.630859 0)"/>
     </g>
    </g>
    <g id="line2d_19">
     <path d="M 298.968437 83.926688 
L 308.968437 83.926688 
L 318.968437 83.926688 
" style="fill: none; stroke-dasharray: 5.55,2.4; stroke-dashoffset: 0; stroke: #2ca02c; stroke-width: 1.5"/>
    </g>
    <g id="text_17">
     <!-- -60 dB -->
     <g transform="translate(326.968437 87.426688) scale(0.1 -0.1)">
      <defs>
       <path id="DejaVuSans-64" d="M 2906 2969 
L 2906 4863 
L 3481 4863 
L 3481 0 
L 2906 0 
L 2906 525 
Q 2725 213 2448 61 
Q 2172 -91 1784 -91 
Q 1150 -91 751 415 
Q 353 922 353 1747 
Q 353 2572 751 3078 
Q 1150 3584 1784 3584 
Q 2172 3584 2448 3432 
Q 2725 3281 2906 2969 
z
M 947 1747 
Q 947 1113 1208 752 
Q 1469 391 1925 391 
Q 2381 391 2643 752 
Q 2906 1113 2906 1747 
Q 2906 2381 2643 2742 
Q 2381 3103 1925 3103 
Q 1469 3103 1208 2742 
Q 947 2381 947 1747 
z
" transform="scale(0.015625)"/>
       <path id="DejaVuSans-42" d="M 1259 2228 
L 1259 519 
L 2272 519 
Q 2781 519 3026 730 
Q 3272 941 3272 1375 
Q 3272 1813 3026 2020 
Q 2781 2228 2272 2228 
L 1259 2228 
z
M 1259 4147 
L 1259 2741 
L 2194 2741 
Q 2656 2741 2882 2914 
Q 3109 3088 3109 3444 
Q 3109 3797 2882 3972 
Q 2656 4147 2194 4147 
L 1259 4147 
z
M 628 4666 
L 2241 4666 
Q 2963 4666 3353 4366 
Q 3744 4066 3744 3513 
Q 3744 3084 3544 2831 
Q 3344 2578 2956 2516 
Q 3422 2416 3680 2098 
Q 3938 1781 3938 1306 
Q 3938 681 3513 340 
Q 3088 0 2303 0 
L 628 0 
L 628 4666 
z
" transform="scale(0.015625)"/>
      </defs>
      <use xlink:href="#DejaVuSans-2d"/>
      <use xlink:href="#DejaVuSans-36" transform="translate(36.083984 0)"/>
      <use xlink:href="#DejaVuSans-30" transform="translate(99.707031 0)"/>
      <use xlink:href="#DejaVuSans-20" transform="translate(163.330078 0)"/>
      <use xlink:href="#DejaVuSans-64" transform="translate(195.117188 0)"/>
      <use xlink:href="#DejaVuSans-42" transform="translate(258.59375 0)"/>
     </g>
    </g>
    <g id="line2d_20">
     <path d="M 298.968437 98.604813 
L 318.968437 98.604813 
" style="fill: none; stroke-dasharray: 5.55,2.4; stroke-dashoffset: 0; stroke: #1f77b4; stroke-width: 1.5"/>
    </g>
    <g id="text_18">
     <!-- Estimated RT60 -->
     <g transform="translate(326.968437 102.104813) scale(0.1 -0.1)">
      <defs>
       <path id="DejaVuSans-73" d="M 2834 3397 
L 2834 2853 
Q 2591 2978 2328 3040 
Q 2066 3103 1784 3103 
Q 1356 3103 1142 2972 
Q 928 2841 928 2578 
Q 928 2378 1081 2264 
Q 1234 2150 1697 2047 
L 1894 2003 
Q 2506 1872 2764 1633 
Q 3022 1394 3022 966 
Q 3022 478 2636 193 
Q 2250 -91 1575 -91 
Q 1294 -91 989 -36 
Q 684 19 347 128 
L 347 722 
Q 666 556 975 473 
Q 1284 391 1588 391 
Q 1994 391 2212 530 
Q 2431 669 2431 922 
Q 2431 1156 2273 1281 
Q 2116 1406 1581 1522 
L 1381 1569 
Q 847 1681 609 1914 
Q 372 2147 372 2553 
Q 372 3047 722 3315 
Q 1072 3584 1716 3584 
Q 2034 3584 2315 3537 
Q 2597 3491 2834 3397 
z
" transform="scale(0.015625)"/>
       <path id="DejaVuSans-6d" d="M 3328 2828 
Q 3544 3216 3844 3400 
Q 4144 3584 4550 3584 
Q 5097 3584 5394 3201 
Q 5691 2819 5691 2113 
L 5691 0 
L 5113 0 
L 5113 2094 
Q 5113 2597 4934 2840 
Q 4756 3084 4391 3084 
Q 3944 3084 3684 2787 
Q 3425 2491 3425 1978 
L 3425 0 
L 2847 0 
L 2847 2094 
Q 2847 2600 2669 2842 
Q 2491 3084 2119 3084 
Q 1678 3084 1418 2786 
Q 1159 2488 1159 1978 
L 1159 0 
L 581 0 
L 581 3500 
L 1159 3500 
L 1159 2956 
Q 1356 3278 1631 3431 
Q 1906 3584 2284 3584 
Q 2666 3584 2933 3390 
Q 3200 3197 3328 2828 
z
" transform="scale(0.015625)"/>
       <path id="DejaVuSans-52" d="M 2841 2188 
Q 3044 2119 3236 1894 
Q 3428 1669 3622 1275 
L 4263 0 
L 3584 0 
L 2988 1197 
Q 2756 1666 2539 1819 
Q 2322 1972 1947 1972 
L 1259 1972 
L 1259 0 
L 628 0 
L 628 4666 
L 2053 4666 
Q 2853 4666 3247 4331 
Q 3641 3997 3641 3322 
Q 3641 2881 3436 2590 
Q 3231 2300 2841 2188 
z
M 1259 4147 
L 1259 2491 
L 2053 2491 
Q 2509 2491 2742 2702 
Q 2975 2913 2975 3322 
Q 2975 3731 2742 3939 
Q 2509 4147 2053 4147 
L 1259 4147 
z
" transform="scale(0.015625)"/>
       <path id="DejaVuSans-54" d="M -19 4666 
L 3928 4666 
L 3928 4134 
L 2272 4134 
L 2272 0 
L 1638 0 
L 1638 4134 
L -19 4134 
L -19 4666 
z
" transform="scale(0.015625)"/>
      </defs>
      <use xlink:href="#DejaVuSans-45"/>
      <use xlink:href="#DejaVuSans-73" transform="translate(63.183594 0)"/>
      <use xlink:href="#DejaVuSans-74" transform="translate(115.283203 0)"/>
      <use xlink:href="#DejaVuSans-69" transform="translate(154.492188 0)"/>
      <use xlink:href="#DejaVuSans-6d" transform="translate(182.275391 0)"/>
      <use xlink:href="#DejaVuSans-61" transform="translate(279.6875 0)"/>
      <use xlink:href="#DejaVuSans-74" transform="translate(340.966797 0)"/>
      <use xlink:href="#DejaVuSans-65" transform="translate(380.175781 0)"/>
      <use xlink:href="#DejaVuSans-64" transform="translate(441.699219 0)"/>
      <use xlink:href="#DejaVuSans-20" transform="translate(505.175781 0)"/>
      <use xlink:href="#DejaVuSans-52" transform="translate(536.962891 0)"/>
      <use xlink:href="#DejaVuSans-54" transform="translate(599.195312 0)"/>
      <use xlink:href="#DejaVuSans-36" transform="translate(660.279297 0)"/>
      <use xlink:href="#DejaVuSans-30" transform="translate(723.902344 0)"/>
     </g>
    </g>
   </g>
  </g>
 </g>
 <defs>
  <clipPath id="p76c9824e9a">
   <rect x="57.6" y="41.472" width="357.12" height="266.112"/>
  </clipPath>
 </defs>
</svg>
