<?xml version="1.0" encoding="utf-8" standalone="no"?>
<!DOCTYPE svg PUBLIC "-//W3C//DTD SVG 1.1//EN"
  "http://www.w3.org/Graphics/SVG/1.1/DTD/svg11.dtd">
<svg xmlns:xlink="http://www.w3.org/1999/xlink" width="460.8pt" height="345.6pt" viewBox="0 0 460.8 345.6" xmlns="http://www.w3.org/2000/svg" version="1.1">
 <metadata>
  <rdf:RDF xmlns:dc="http://purl.org/dc/elements/1.1/" xmlns:cc="http://creativecommons.org/ns#" xmlns:rdf="http://www.w3.org/1999/02/22-rdf-syntax-ns#">
   <cc:Work>
    <dc:type rdf:resource="http://purl.org/dc/dcmitype/StillImage"/>
    <dc:date>2025-05-06T13:29:59.506582</dc:date>
    <dc:format>image/svg+xml</dc:format>
    <dc:creator>
     <cc:Agent>
      <dc:title>Matplotlib v3.10.1, https://matplotlib.org/</dc:title>
     </cc:Agent>
    </dc:creator>
   </cc:Work>
  </rdf:RDF>
 </metadata>
 <defs>
  <style type="text/css">*{stroke-linejoin: round; stroke-linecap: butt}</style>
 </defs>
 <g id="figure_1">
  <g id="patch_1">
   <path d="M 0 345.6 
L 460.8 345.6 
L 460.8 0 
L 0 0 
z
" style="fill: #ffffff"/>
  </g>
  <g id="axes_1">
   <g id="patch_2">
    <path d="M 57.6 307.584 
L 414.72 307.584 
L 414.72 41.472 
L 57.6 41.472 
z
" style="fill: #ffffff"/>
   </g>
   <g id="matplotlib.axis_1">
    <g id="xtick_1">
     <g id="line2d_1">
      <defs>
       <path id="m4d1b551908" d="M 0 0 
L 0 3.5 
" style="stroke: #000000; stroke-width: 0.8"/>
      </defs>
      <g>
       <use xlink:href="#m4d1b551908" x="86.931636" y="307.584" style="stroke: #000000; stroke-width: 0.8"/>
      </g>
     </g>
     <g id="text_1">
      <!-- −0.1 -->
      <g transform="translate(74.79023 322.182437) scale(0.1 -0.1)">
       <defs>
        <path id="DejaVuSans-2212" d="M 678 2272 
L 4684 2272 
L 4684 1741 
L 678 1741 
L 678 2272 
z
" transform="scale(0.015625)"/>
        <path id="DejaVuSans-30" d="M 2034 4250 
Q 1547 4250 1301 3770 
Q 1056 3291 1056 2328 
Q 1056 1369 1301 889 
Q 1547 409 2034 409 
Q 2525 409 2770 889 
Q 3016 1369 3016 2328 
Q 3016 3291 2770 3770 
Q 2525 4250 2034 4250 
z
M 2034 4750 
Q 2819 4750 3233 4129 
Q 3647 3509 3647 2328 
Q 3647 1150 3233 529 
Q 2819 -91 2034 -91 
Q 1250 -91 836 529 
Q 422 1150 422 2328 
Q 422 3509 836 4129 
Q 1250 4750 2034 4750 
z
" transform="scale(0.015625)"/>
        <path id="DejaVuSans-2e" d="M 684 794 
L 1344 794 
L 1344 0 
L 684 0 
L 684 794 
z
" transform="scale(0.015625)"/>
        <path id="DejaVuSans-31" d="M 794 531 
L 1825 531 
L 1825 4091 
L 703 3866 
L 703 4441 
L 1819 4666 
L 2450 4666 
L 2450 531 
L 3481 531 
L 3481 0 
L 794 0 
L 794 531 
z
" transform="scale(0.015625)"/>
       </defs>
       <use xlink:href="#DejaVuSans-2212"/>
       <use xlink:href="#DejaVuSans-30" transform="translate(83.789062 0)"/>
       <use xlink:href="#DejaVuSans-2e" transform="translate(147.412109 0)"/>
       <use xlink:href="#DejaVuSans-31" transform="translate(179.199219 0)"/>
      </g>
     </g>
    </g>
    <g id="xtick_2">
     <g id="line2d_2">
      <g>
       <use xlink:href="#m4d1b551908" x="141.040727" y="307.584" style="stroke: #000000; stroke-width: 0.8"/>
      </g>
     </g>
     <g id="text_2">
      <!-- 0.0 -->
      <g transform="translate(133.089165 322.182437) scale(0.1 -0.1)">
       <use xlink:href="#DejaVuSans-30"/>
       <use xlink:href="#DejaVuSans-2e" transform="translate(63.623047 0)"/>
       <use xlink:href="#DejaVuSans-30" transform="translate(95.410156 0)"/>
      </g>
     </g>
    </g>
    <g id="xtick_3">
     <g id="line2d_3">
      <g>
       <use xlink:href="#m4d1b551908" x="195.149818" y="307.584" style="stroke: #000000; stroke-width: 0.8"/>
      </g>
     </g>
     <g id="text_3">
      <!-- 0.1 -->
      <g transform="translate(187.198256 322.182437) scale(0.1 -0.1)">
       <use xlink:href="#DejaVuSans-30"/>
       <use xlink:href="#DejaVuSans-2e" transform="translate(63.623047 0)"/>
       <use xlink:href="#DejaVuSans-31" transform="translate(95.410156 0)"/>
      </g>
     </g>
    </g>
    <g id="xtick_4">
     <g id="line2d_4">
      <g>
       <use xlink:href="#m4d1b551908" x="249.258909" y="307.584" style="stroke: #000000; stroke-width: 0.8"/>
      </g>
     </g>
     <g id="text_4">
      <!-- 0.2 -->
      <g transform="translate(241.307347 322.182437) scale(0.1 -0.1)">
       <defs>
        <path id="DejaVuSans-32" d="M 1228 531 
L 3431 531 
L 3431 0 
L 469 0 
L 469 531 
Q 828 903 1448 1529 
Q 2069 2156 2228 2338 
Q 2531 2678 2651 2914 
Q 2772 3150 2772 3378 
Q 2772 3750 2511 3984 
Q 2250 4219 1831 4219 
Q 1534 4219 1204 4116 
Q 875 4013 500 3803 
L 500 4441 
Q 881 4594 1212 4672 
Q 1544 4750 1819 4750 
Q 2544 4750 2975 4387 
Q 3406 4025 3406 3419 
Q 3406 3131 3298 2873 
Q 3191 2616 2906 2266 
Q 2828 2175 2409 1742 
Q 1991 1309 1228 531 
z
" transform="scale(0.015625)"/>
       </defs>
       <use xlink:href="#DejaVuSans-30"/>
       <use xlink:href="#DejaVuSans-2e" transform="translate(63.623047 0)"/>
       <use xlink:href="#DejaVuSans-32" transform="translate(95.410156 0)"/>
      </g>
     </g>
    </g>
    <g id="xtick_5">
     <g id="line2d_5">
      <g>
       <use xlink:href="#m4d1b551908" x="303.368" y="307.584" style="stroke: #000000; stroke-width: 0.8"/>
      </g>
     </g>
     <g id="text_5">
      <!-- 0.3 -->
      <g transform="translate(295.416438 322.182437) scale(0.1 -0.1)">
       <defs>
        <path id="DejaVuSans-33" d="M 2597 2516 
Q 3050 2419 3304 2112 
Q 3559 1806 3559 1356 
Q 3559 666 3084 287 
Q 2609 -91 1734 -91 
Q 1441 -91 1130 -33 
Q 819 25 488 141 
L 488 750 
Q 750 597 1062 519 
Q 1375 441 1716 441 
Q 2309 441 2620 675 
Q 2931 909 2931 1356 
Q 2931 1769 2642 2001 
Q 2353 2234 1838 2234 
L 1294 2234 
L 1294 2753 
L 1863 2753 
Q 2328 2753 2575 2939 
Q 2822 3125 2822 3475 
Q 2822 3834 2567 4026 
Q 2313 4219 1838 4219 
Q 1578 4219 1281 4162 
Q 984 4106 628 3988 
L 628 4550 
Q 988 4650 1302 4700 
Q 1616 4750 1894 4750 
Q 2613 4750 3031 4423 
Q 3450 4097 3450 3541 
Q 3450 3153 3228 2886 
Q 3006 2619 2597 2516 
z
" transform="scale(0.015625)"/>
       </defs>
       <use xlink:href="#DejaVuSans-30"/>
       <use xlink:href="#DejaVuSans-2e" transform="translate(63.623047 0)"/>
       <use xlink:href="#DejaVuSans-33" transform="translate(95.410156 0)"/>
      </g>
     </g>
    </g>
    <g id="xtick_6">
     <g id="line2d_6">
      <g>
       <use xlink:href="#m4d1b551908" x="357.477091" y="307.584" style="stroke: #000000; stroke-width: 0.8"/>
      </g>
     </g>
     <g id="text_6">
      <!-- 0.4 -->
      <g transform="translate(349.525528 322.182437) scale(0.1 -0.1)">
       <defs>
        <path id="DejaVuSans-34" d="M 2419 4116 
L 825 1625 
L 2419 1625 
L 2419 4116 
z
M 2253 4666 
L 3047 4666 
L 3047 1625 
L 3713 1625 
L 3713 1100 
L 3047 1100 
L 3047 0 
L 2419 0 
L 2419 1100 
L 313 1100 
L 313 1709 
L 2253 4666 
z
" transform="scale(0.015625)"/>
       </defs>
       <use xlink:href="#DejaVuSans-30"/>
       <use xlink:href="#DejaVuSans-2e" transform="translate(63.623047 0)"/>
       <use xlink:href="#DejaVuSans-34" transform="translate(95.410156 0)"/>
      </g>
     </g>
    </g>
    <g id="xtick_7">
     <g id="line2d_7">
      <g>
       <use xlink:href="#m4d1b551908" x="411.586182" y="307.584" style="stroke: #000000; stroke-width: 0.8"/>
      </g>
     </g>
     <g id="text_7">
      <!-- 0.5 -->
      <g transform="translate(403.634619 322.182437) scale(0.1 -0.1)">
       <defs>
        <path id="DejaVuSans-35" d="M 691 4666 
L 3169 4666 
L 3169 4134 
L 1269 4134 
L 1269 2991 
Q 1406 3038 1543 3061 
Q 1681 3084 1819 3084 
Q 2600 3084 3056 2656 
Q 3513 2228 3513 1497 
Q 3513 744 3044 326 
Q 2575 -91 1722 -91 
Q 1428 -91 1123 -41 
Q 819 9 494 109 
L 494 744 
Q 775 591 1075 516 
Q 1375 441 1709 441 
Q 2250 441 2565 725 
Q 2881 1009 2881 1497 
Q 2881 1984 2565 2268 
Q 2250 2553 1709 2553 
Q 1456 2553 1204 2497 
Q 953 2441 691 2322 
L 691 4666 
z
" transform="scale(0.015625)"/>
       </defs>
       <use xlink:href="#DejaVuSans-30"/>
       <use xlink:href="#DejaVuSans-2e" transform="translate(63.623047 0)"/>
       <use xlink:href="#DejaVuSans-35" transform="translate(95.410156 0)"/>
      </g>
     </g>
    </g>
   </g>
   <g id="matplotlib.axis_2">
    <g id="ytick_1">
     <g id="line2d_8">
      <defs>
       <path id="m55bf0e8be2" d="M 0 0 
L -3.5 0 
" style="stroke: #000000; stroke-width: 0.8"/>
      </defs>
      <g>
       <use xlink:href="#m55bf0e8be2" x="57.6" y="277.542487" style="stroke: #000000; stroke-width: 0.8"/>
      </g>
     </g>
     <g id="text_8">
      <!-- −175 -->
      <g transform="translate(23.132812 281.341706) scale(0.1 -0.1)">
       <defs>
        <path id="DejaVuSans-37" d="M 525 4666 
L 3525 4666 
L 3525 4397 
L 1831 0 
L 1172 0 
L 2766 4134 
L 525 4134 
L 525 4666 
z
" transform="scale(0.015625)"/>
       </defs>
       <use xlink:href="#DejaVuSans-2212"/>
       <use xlink:href="#DejaVuSans-31" transform="translate(83.789062 0)"/>
       <use xlink:href="#DejaVuSans-37" transform="translate(147.412109 0)"/>
       <use xlink:href="#DejaVuSans-35" transform="translate(211.035156 0)"/>
      </g>
     </g>
    </g>
    <g id="ytick_2">
     <g id="line2d_9">
      <g>
       <use xlink:href="#m55bf0e8be2" x="57.6" y="245.546132" style="stroke: #000000; stroke-width: 0.8"/>
      </g>
     </g>
     <g id="text_9">
      <!-- −150 -->
      <g transform="translate(23.132812 249.34535) scale(0.1 -0.1)">
       <use xlink:href="#DejaVuSans-2212"/>
       <use xlink:href="#DejaVuSans-31" transform="translate(83.789062 0)"/>
       <use xlink:href="#DejaVuSans-35" transform="translate(147.412109 0)"/>
       <use xlink:href="#DejaVuSans-30" transform="translate(211.035156 0)"/>
      </g>
     </g>
    </g>
    <g id="ytick_3">
     <g id="line2d_10">
      <g>
       <use xlink:href="#m55bf0e8be2" x="57.6" y="213.549776" style="stroke: #000000; stroke-width: 0.8"/>
      </g>
     </g>
     <g id="text_10">
      <!-- −125 -->
      <g transform="translate(23.132812 217.348995) scale(0.1 -0.1)">
       <use xlink:href="#DejaVuSans-2212"/>
       <use xlink:href="#DejaVuSans-31" transform="translate(83.789062 0)"/>
       <use xlink:href="#DejaVuSans-32" transform="translate(147.412109 0)"/>
       <use xlink:href="#DejaVuSans-35" transform="translate(211.035156 0)"/>
      </g>
     </g>
    </g>
    <g id="ytick_4">
     <g id="line2d_11">
      <g>
       <use xlink:href="#m55bf0e8be2" x="57.6" y="181.553421" style="stroke: #000000; stroke-width: 0.8"/>
      </g>
     </g>
     <g id="text_11">
      <!-- −100 -->
      <g transform="translate(23.132812 185.35264) scale(0.1 -0.1)">
       <use xlink:href="#DejaVuSans-2212"/>
       <use xlink:href="#DejaVuSans-31" transform="translate(83.789062 0)"/>
       <use xlink:href="#DejaVuSans-30" transform="translate(147.412109 0)"/>
       <use xlink:href="#DejaVuSans-30" transform="translate(211.035156 0)"/>
      </g>
     </g>
    </g>
    <g id="ytick_5">
     <g id="line2d_12">
      <g>
       <use xlink:href="#m55bf0e8be2" x="57.6" y="149.557066" style="stroke: #000000; stroke-width: 0.8"/>
      </g>
     </g>
     <g id="text_12">
      <!-- −75 -->
      <g transform="translate(29.495313 153.356285) scale(0.1 -0.1)">
       <use xlink:href="#DejaVuSans-2212"/>
       <use xlink:href="#DejaVuSans-37" transform="translate(83.789062 0)"/>
       <use xlink:href="#DejaVuSans-35" transform="translate(147.412109 0)"/>
      </g>
     </g>
    </g>
    <g id="ytick_6">
     <g id="line2d_13">
      <g>
       <use xlink:href="#m55bf0e8be2" x="57.6" y="117.560711" style="stroke: #000000; stroke-width: 0.8"/>
      </g>
     </g>
     <g id="text_13">
      <!-- −50 -->
      <g transform="translate(29.495313 121.359929) scale(0.1 -0.1)">
       <use xlink:href="#DejaVuSans-2212"/>
       <use xlink:href="#DejaVuSans-35" transform="translate(83.789062 0)"/>
       <use xlink:href="#DejaVuSans-30" transform="translate(147.412109 0)"/>
      </g>
     </g>
    </g>
    <g id="ytick_7">
     <g id="line2d_14">
      <g>
       <use xlink:href="#m55bf0e8be2" x="57.6" y="85.564355" style="stroke: #000000; stroke-width: 0.8"/>
      </g>
     </g>
     <g id="text_14">
      <!-- −25 -->
      <g transform="translate(29.495313 89.363574) scale(0.1 -0.1)">
       <use xlink:href="#DejaVuSans-2212"/>
       <use xlink:href="#DejaVuSans-32" transform="translate(83.789062 0)"/>
       <use xlink:href="#DejaVuSans-35" transform="translate(147.412109 0)"/>
      </g>
     </g>
    </g>
    <g id="ytick_8">
     <g id="line2d_15">
      <g>
       <use xlink:href="#m55bf0e8be2" x="57.6" y="53.568" style="stroke: #000000; stroke-width: 0.8"/>
      </g>
     </g>
     <g id="text_15">
      <!-- 0 -->
      <g transform="translate(44.2375 57.367219) scale(0.1 -0.1)">
       <use xlink:href="#DejaVuSans-30"/>
      </g>
     </g>
    </g>
   </g>
   <g id="line2d_16">
    <path d="M 73.832727 53.568 
L 131.943636 53.640089 
L 132.202909 54.636085 
L 132.372 54.743338 
L 132.552364 54.833365 
L 133.352727 54.945883 
L 133.781091 55.098852 
L 135.145091 55.467398 
L 135.472 55.626597 
L 135.652364 55.726339 
L 135.832727 56.150515 
L 135.956727 56.310087 
L 136.058182 56.422414 
L 136.497818 56.771168 
L 136.712 56.88015 
L 136.914909 57.080004 
L 137.117818 57.189394 
L 137.467273 57.316993 
L 137.704 57.612659 
L 138.132364 57.757872 
L 138.346545 57.997341 
L 138.684727 58.142965 
L 139.011636 58.440904 
L 139.169455 58.592532 
L 139.259636 58.679105 
L 139.406182 58.847679 
L 139.778182 59.011938 
L 139.981091 59.109539 
L 140.184 59.22415 
L 140.612364 59.384788 
L 140.691273 59.48883 
L 141.130909 60.03623 
L 141.705818 60.152576 
L 141.92 60.381362 
L 142.945818 61.033032 
L 143.340364 61.219349 
L 143.667273 61.354587 
L 144.073091 61.46303 
L 144.659273 61.644789 
L 144.839636 61.723847 
L 145.008727 61.912975 
L 145.155273 62.021964 
L 145.448364 62.141933 
L 146.429091 62.728356 
L 146.801091 62.868182 
L 147.082909 63.369312 
L 147.624 63.866342 
L 147.872 63.980974 
L 148.627273 64.479089 
L 148.864 64.641903 
L 149.438909 64.953031 
L 149.619273 65.064097 
L 149.754545 65.215091 
L 149.98 65.318176 
L 150.915636 65.882273 
L 151.062182 66.111525 
L 151.298909 66.236683 
L 151.445455 66.417604 
L 151.625818 66.54129 
L 151.806182 66.717061 
L 152.155636 66.835934 
L 152.302182 66.880189 
L 152.437455 66.989158 
L 152.595273 67.146395 
L 152.899636 67.259118 
L 153.170182 67.37037 
L 153.226545 67.43633 
L 153.361818 67.684056 
L 153.7 67.839911 
L 153.902909 67.957467 
L 154.252364 68.088685 
L 154.455273 68.251474 
L 154.770909 68.399289 
L 154.996364 68.621715 
L 155.379636 68.713517 
L 155.56 68.812781 
L 155.943273 69.184286 
L 156.225091 69.308727 
L 156.924 69.710658 
L 157.104364 69.872451 
L 157.307273 70.072566 
L 157.442545 70.168649 
L 157.645455 70.343086 
L 157.972364 70.532342 
L 158.220364 70.644029 
L 159.528 71.25131 
L 159.821091 71.440676 
L 160.159273 71.577732 
L 160.407273 71.733781 
L 160.632727 71.885309 
L 160.937091 72.040391 
L 161.083636 72.10575 
L 162.752 72.66931 
L 162.898545 72.813917 
L 162.977455 72.923286 
L 163.202909 73.180471 
L 163.552364 73.329672 
L 163.777818 73.539079 
L 164.341455 73.697846 
L 164.533091 73.884433 
L 164.657091 73.988602 
L 164.792364 74.050399 
L 165.108 74.161955 
L 165.310909 74.297912 
L 165.682909 74.547651 
L 165.829455 74.628442 
L 166.280364 74.884029 
L 166.393091 74.986878 
L 166.550909 75.122552 
L 166.753818 75.270235 
L 167.790909 75.71274 
L 167.993818 75.772724 
L 168.512364 75.971632 
L 168.670182 76.167983 
L 168.861818 76.305202 
L 168.985818 76.419691 
L 169.335273 76.540466 
L 169.549455 76.583156 
L 169.797455 76.684247 
L 169.955273 76.854029 
L 170.203273 76.974774 
L 170.688 77.418063 
L 170.857091 77.532225 
L 171.105091 77.710289 
L 171.274182 77.819844 
L 172.908727 78.617638 
L 173.168 78.870458 
L 173.551273 78.983991 
L 174.238909 79.243622 
L 174.464364 79.385403 
L 174.633455 79.419542 
L 174.982909 79.528597 
L 175.478909 79.822451 
L 175.636727 79.924135 
L 175.794545 79.977046 
L 175.918545 80.085217 
L 176.121455 80.155041 
L 177.079636 80.285672 
L 177.530545 80.628673 
L 177.756 80.936147 
L 177.958909 81.05565 
L 179.097455 81.511014 
L 180.033091 81.862474 
L 180.371273 81.999766 
L 180.619273 82.133523 
L 180.765818 82.359539 
L 180.889818 82.449963 
L 181.047636 82.54 
L 181.216727 82.715484 
L 181.442182 82.832975 
L 181.611273 82.876852 
L 182.062182 83.082848 
L 182.468 83.230467 
L 182.783636 83.377932 
L 183.212 83.674801 
L 183.448727 83.767352 
L 183.640364 84.004455 
L 184.001091 84.219614 
L 184.260364 84.362243 
L 184.440727 84.500384 
L 184.688727 84.662594 
L 185.083273 84.860656 
L 185.590545 84.971941 
L 185.861091 85.1098 
L 186.030182 85.164648 
L 186.537455 85.388135 
L 186.706545 85.624134 
L 186.999636 85.877619 
L 187.213818 85.982043 
L 187.428 86.116287 
L 191.272 87.429288 
L 191.508727 87.657187 
L 191.903273 87.793074 
L 192.117455 87.865577 
L 192.512 87.981683 
L 192.917818 88.547851 
L 193.075636 88.731115 
L 193.977455 89.063569 
L 194.169091 89.285826 
L 194.586182 89.407088 
L 194.946909 89.531247 
L 195.364 89.743724 
L 195.566909 89.808532 
L 195.781091 89.911204 
L 195.984 89.934657 
L 196.254545 90.025327 
L 196.457455 90.277002 
L 196.604 90.38785 
L 197.009818 90.601386 
L 197.291636 90.853368 
L 197.945455 90.964149 
L 198.125818 91.062051 
L 198.272364 91.216568 
L 199.241818 91.837934 
L 199.647636 91.950021 
L 200.042182 92.332994 
L 200.2 92.411667 
L 200.774909 92.572581 
L 201.045455 92.614219 
L 201.124364 92.720967 
L 201.462545 92.945344 
L 203.108364 93.731816 
L 203.266182 93.860324 
L 204.461091 94.284935 
L 204.664 94.479073 
L 205.486909 94.721814 
L 205.757455 94.84664 
L 206.028 94.962625 
L 206.749455 95.267901 
L 206.884727 95.469017 
L 207.098909 95.597883 
L 207.313091 95.64957 
L 207.764 95.786459 
L 208.057091 95.906763 
L 208.203636 96.043131 
L 208.485455 96.157048 
L 209.229455 96.300342 
L 209.522545 96.729884 
L 210.029818 96.944065 
L 210.773818 97.231615 
L 211.010545 97.356725 
L 211.371273 97.506616 
L 212.115273 97.817588 
L 212.746545 98.013173 
L 212.893091 98.115827 
L 213.366545 98.254374 
L 213.592 98.55659 
L 213.873818 98.668437 
L 215.722545 99.325778 
L 216.038182 99.457897 
L 216.274909 99.552539 
L 216.680727 99.658398 
L 216.872364 99.722351 
L 216.962545 99.805764 
L 217.120364 99.927001 
L 218.112364 100.507913 
L 218.450545 100.904803 
L 218.8 100.93275 
L 219.126909 101.063278 
L 219.352364 101.264128 
L 220.434545 101.609246 
L 220.671273 101.797148 
L 221.110909 101.946242 
L 221.437818 102.143404 
L 222.204364 102.473378 
L 222.373455 102.524057 
L 222.632727 102.647988 
L 222.880727 102.995893 
L 223.106182 103.044796 
L 223.365455 103.157977 
L 223.681091 103.299711 
L 224.109455 103.441081 
L 224.650545 103.56925 
L 224.943636 103.607176 
L 225.191636 103.726924 
L 225.507273 103.933124 
L 226.070909 104.044932 
L 226.251273 104.103867 
L 226.589455 104.205686 
L 226.837455 104.32117 
L 226.972727 104.429551 
L 227.232 104.549864 
L 227.558909 104.694407 
L 227.705455 104.873059 
L 227.795636 105.000477 
L 227.953455 105.109788 
L 228.156364 105.231049 
L 228.381818 105.335698 
L 229.497818 105.658381 
L 229.790909 105.769569 
L 230.320727 105.914767 
L 230.670182 106.051503 
L 231.019636 106.121685 
L 231.369091 106.223206 
L 231.583273 106.356038 
L 232.316 106.542923 
L 232.496364 106.727089 
L 232.789455 106.896352 
L 232.958545 106.926438 
L 233.274182 107.076768 
L 233.443273 107.242668 
L 233.702545 107.363681 
L 234.040727 107.476665 
L 234.187273 107.577884 
L 234.378909 107.662915 
L 234.559273 107.771445 
L 234.717091 107.814717 
L 234.942545 107.933172 
L 235.156727 108.024895 
L 235.427273 108.128629 
L 235.596364 108.273886 
L 236.069818 108.401834 
L 236.284 108.489158 
L 237.197091 108.669253 
L 237.614182 108.786036 
L 238.132727 108.872758 
L 238.865455 109.09703 
L 239.147273 109.17882 
L 239.722182 109.308871 
L 240.037818 109.418984 
L 246.350545 111.465598 
L 247.184727 111.716011 
L 247.398909 111.828775 
L 248.052727 112.016046 
L 248.864364 112.185878 
L 249.044727 112.241051 
L 250.149455 112.64724 
L 250.859636 112.771987 
L 251.130182 112.973184 
L 251.784 113.128275 
L 252.561818 113.337478 
L 253.587636 113.533808 
L 253.779273 113.607028 
L 254.399273 113.714936 
L 255.673091 114.147228 
L 256.326909 114.262651 
L 257.059636 114.363822 
L 257.589455 114.474701 
L 258.006545 114.566466 
L 258.265818 114.676141 
L 258.536364 114.830799 
L 258.739273 114.868093 
L 260.159636 115.115706 
L 260.520364 115.177232 
L 262.008364 115.345728 
L 262.470545 115.498145 
L 265.322545 116.042638 
L 265.514182 116.135688 
L 266.235636 116.24847 
L 266.461091 116.29243 
L 266.923273 116.369436 
L 268.580364 116.620265 
L 269.313091 116.752617 
L 270.519273 116.865247 
L 270.992727 116.971418 
L 271.849455 117.097408 
L 272.232727 117.149641 
L 272.762545 117.182818 
L 273.901091 117.293794 
L 283.437818 118.420136 
L 284.565091 118.534179 
L 285.004727 118.58797 
L 294.789455 119.479784 
L 295.770182 119.595765 
L 298.825091 119.912748 
L 299.073091 119.930555 
L 300.651273 120.095191 
L 301.023273 120.126262 
L 302.488727 120.246086 
L 303.401818 120.372108 
L 305.171636 120.505581 
L 305.678909 120.569122 
L 306.851273 120.677897 
L 307.133091 120.726271 
L 310.650182 121.043835 
L 311.439273 121.124693 
L 312.701818 121.251886 
L 313.130182 121.310488 
L 326.285455 122.962439 
L 326.488364 122.997454 
L 327.683273 123.139969 
L 329.002182 123.37695 
L 330.253455 123.506053 
L 332.699636 123.869214 
L 332.857455 123.93627 
L 333.421091 124.047916 
L 338.730545 125.112068 
L 338.899636 125.148777 
L 339.756364 125.305471 
L 340.331273 125.472742 
L 341.154182 125.596136 
L 342.788727 126.073101 
L 343.138182 126.158578 
L 343.859636 126.355042 
L 344.141455 126.457301 
L 344.502182 126.619678 
L 344.829091 126.790554 
L 345.471636 126.964692 
L 345.640727 127.015913 
L 346.497455 127.163292 
L 346.756727 127.248185 
L 353.847273 129.851435 
L 354.005091 129.940974 
L 354.568727 130.069389 
L 354.952 130.316505 
L 355.470545 130.417612 
L 355.887636 130.737085 
L 356.518909 130.890595 
L 356.834545 130.999976 
L 357.274182 131.155579 
L 357.736364 131.365717 
L 358.164727 131.496646 
L 358.525455 131.654273 
L 358.717091 131.708259 
L 359.122909 131.967227 
L 359.269455 132.01945 
L 359.461091 132.13671 
L 359.686545 132.215032 
L 359.878182 132.325364 
L 361.433818 133.270846 
L 361.670545 133.371869 
L 361.862182 133.62955 
L 362.076364 133.746096 
L 362.888 134.200771 
L 363.316364 134.322992 
L 363.519273 134.503341 
L 363.756 134.615327 
L 363.902545 134.651603 
L 364.094182 134.754891 
L 364.229455 134.872599 
L 364.5 134.976879 
L 364.804364 135.089161 
L 364.962182 135.18057 
L 365.12 135.411234 
L 365.277818 135.577346 
L 365.616 135.743137 
L 365.818909 135.968586 
L 365.909091 136.042817 
L 366.089455 136.320751 
L 366.179636 136.43535 
L 366.472727 136.609643 
L 366.754545 136.720816 
L 366.946182 136.952495 
L 367.329455 137.206749 
L 367.487273 137.396721 
L 367.848 137.555676 
L 368.005818 137.656155 
L 368.468 138.101919 
L 368.693455 138.438187 
L 369.516364 139.180946 
L 371.004364 140.014844 
L 371.150909 140.117149 
L 371.398909 140.306251 
L 371.725818 140.575968 
L 372.131636 140.864337 
L 372.289455 141.133734 
L 372.853091 141.633711 
L 373.067273 141.90483 
L 373.236364 142.017517 
L 373.698545 142.149677 
L 373.788727 142.256057 
L 373.924 142.363386 
L 374.183273 142.843536 
L 374.341091 143.003603 
L 374.656727 143.156833 
L 374.994909 143.506856 
L 375.378182 143.709484 
L 375.851636 144.253069 
L 376.178545 144.492149 
L 376.629455 145.446138 
L 376.764727 145.833163 
L 376.911273 145.938953 
L 377.024 146.137999 
L 377.159273 146.249614 
L 377.734182 146.870595 
L 377.835636 146.976805 
L 378.061091 147.35085 
L 378.218909 147.454272 
L 378.331636 147.706633 
L 378.512 148.168111 
L 378.703636 148.400812 
L 378.838909 148.610759 
L 379.041818 148.784973 
L 379.222182 148.882095 
L 379.357455 148.952324 
L 379.537818 149.306212 
L 379.628 149.422289 
L 379.763273 149.512786 
L 381.093455 150.776835 
L 381.273818 151.404625 
L 381.420364 151.657748 
L 381.961455 152.684081 
L 382.096727 152.804314 
L 382.209455 152.897994 
L 382.356 153.062609 
L 382.930909 153.635115 
L 382.976 153.707422 
L 383.190182 155.276827 
L 383.381818 155.490615 
L 383.584727 155.716027 
L 383.821455 155.852362 
L 384.092 156.803013 
L 384.216 156.985832 
L 384.362545 157.094227 
L 384.441455 157.18327 
L 384.621818 157.900276 
L 384.723273 157.984724 
L 386.932727 163.645168 
L 387.068 163.991644 
L 388.488364 168.174761 
L 388.634909 168.652684 
L 388.871636 168.976174 
L 388.973091 169.094562 
L 389.085818 169.38538 
L 389.221091 169.694375 
L 389.266182 169.799278 
L 389.401455 170.296924 
L 389.457818 170.399822 
L 389.672 171.326812 
L 389.807273 171.438469 
L 389.931273 171.611812 
L 390.077818 172.094103 
L 390.280727 172.186847 
L 390.844364 173.943034 
L 391.137455 175.062626 
L 391.250182 175.145452 
L 391.419273 176.098528 
L 391.441818 176.210158 
L 391.610909 177.371234 
L 391.712364 177.784911 
L 391.937818 179.422202 
L 391.949091 179.422273 
L 392.140727 180.563477 
L 392.794545 182.362779 
L 392.918545 182.4682 
L 393.200364 183.706316 
L 393.279273 183.771856 
L 393.944364 187.506062 
L 394.102182 189.7826 
L 395.082909 196.854555 
L 395.128 197.165539 
L 395.545091 202.371229 
L 395.770545 202.712909 
L 396.277818 206.483304 
L 396.289091 206.486982 
L 396.514545 209.046136 
L 396.616 210.166474 
L 397.033091 218.238485 
L 397.066909 218.385784 
L 397.123273 219.471447 
L 397.258545 222.373484 
L 397.314909 222.986669 
L 397.574182 227.089042 
L 397.608 227.27238 
L 397.743273 234.993781 
L 397.901091 248.646011 
L 398.070182 258.409018 
L 398.273091 269.728587 
L 398.408364 283.146368 
L 398.476 295.488 
L 398.476 295.488 
" clip-path="url(#pa3d68e1293)" style="fill: none; stroke: #1f77b4; stroke-width: 1.5; stroke-linecap: square"/>
   </g>
   <g id="line2d_17">
    <path d="M 141.040727 59.987847 
L 366.777091 136.758524 
" clip-path="url(#pa3d68e1293)" style="fill: none; stroke-dasharray: 5.55,2.4; stroke-dashoffset: 0; stroke: #ff7f0e; stroke-width: 1.5"/>
   </g>
   <g id="line2d_18">
    <path d="M 73.832727 130.359253 
L 398.487273 130.359253 
L 398.487273 130.359253 
" clip-path="url(#pa3d68e1293)" style="fill: none; stroke-dasharray: 5.55,2.4; stroke-dashoffset: 0; stroke: #2ca02c; stroke-width: 1.5"/>
   </g>
   <g id="LineCollection_1">
    <path d="M 366.777091 295.488 
L 366.777091 53.568 
" clip-path="url(#pa3d68e1293)" style="fill: none; stroke-dasharray: 5.55,2.4; stroke-dashoffset: 0; stroke: #1f77b4; stroke-width: 1.5"/>
   </g>
   <g id="patch_3">
    <path d="M 57.6 307.584 
L 57.6 41.472 
" style="fill: none; stroke: #000000; stroke-width: 0.8; stroke-linejoin: miter; stroke-linecap: square"/>
   </g>
   <g id="patch_4">
    <path d="M 414.72 307.584 
L 414.72 41.472 
" style="fill: none; stroke: #000000; stroke-width: 0.8; stroke-linejoin: miter; stroke-linecap: square"/>
   </g>
   <g id="patch_5">
    <path d="M 57.6 307.584 
L 414.72 307.584 
" style="fill: none; stroke: #000000; stroke-width: 0.8; stroke-linejoin: miter; stroke-linecap: square"/>
   </g>
   <g id="patch_6">
    <path d="M 57.6 41.472 
L 414.72 41.472 
" style="fill: none; stroke: #000000; stroke-width: 0.8; stroke-linejoin: miter; stroke-linecap: square"/>
   </g>
   <g id="text_16">
    <!-- Energy Decay - 8000 Hz -->
    <g transform="translate(163.59 35.472) scale(0.12 -0.12)">
     <defs>
      <path id="DejaVuSans-45" d="M 628 4666 
L 3578 4666 
L 3578 4134 
L 1259 4134 
L 1259 2753 
L 3481 2753 
L 3481 2222 
L 1259 2222 
L 1259 531 
L 3634 531 
L 3634 0 
L 628 0 
L 628 4666 
z
" transform="scale(0.015625)"/>
      <path id="DejaVuSans-6e" d="M 3513 2113 
L 3513 0 
L 2938 0 
L 2938 2094 
Q 2938 2591 2744 2837 
Q 2550 3084 2163 3084 
Q 1697 3084 1428 2787 
Q 1159 2491 1159 1978 
L 1159 0 
L 581 0 
L 581 3500 
L 1159 3500 
L 1159 2956 
Q 1366 3272 1645 3428 
Q 1925 3584 2291 3584 
Q 2894 3584 3203 3211 
Q 3513 2838 3513 2113 
z
" transform="scale(0.015625)"/>
      <path id="DejaVuSans-65" d="M 3597 1894 
L 3597 1613 
L 953 1613 
Q 991 1019 1311 708 
Q 1631 397 2203 397 
Q 2534 397 2845 478 
Q 3156 559 3463 722 
L 3463 178 
Q 3153 47 2828 -22 
Q 2503 -91 2169 -91 
Q 1331 -91 842 396 
Q 353 884 353 1716 
Q 353 2575 817 3079 
Q 1281 3584 2069 3584 
Q 2775 3584 3186 3129 
Q 3597 2675 3597 1894 
z
M 3022 2063 
Q 3016 2534 2758 2815 
Q 2500 3097 2075 3097 
Q 1594 3097 1305 2825 
Q 1016 2553 972 2059 
L 3022 2063 
z
" transform="scale(0.015625)"/>
      <path id="DejaVuSans-72" d="M 2631 2963 
Q 2534 3019 2420 3045 
Q 2306 3072 2169 3072 
Q 1681 3072 1420 2755 
Q 1159 2438 1159 1844 
L 1159 0 
L 581 0 
L 581 3500 
L 1159 3500 
L 1159 2956 
Q 1341 3275 1631 3429 
Q 1922 3584 2338 3584 
Q 2397 3584 2469 3576 
Q 2541 3569 2628 3553 
L 2631 2963 
z
" transform="scale(0.015625)"/>
      <path id="DejaVuSans-67" d="M 2906 1791 
Q 2906 2416 2648 2759 
Q 2391 3103 1925 3103 
Q 1463 3103 1205 2759 
Q 947 2416 947 1791 
Q 947 1169 1205 825 
Q 1463 481 1925 481 
Q 2391 481 2648 825 
Q 2906 1169 2906 1791 
z
M 3481 434 
Q 3481 -459 3084 -895 
Q 2688 -1331 1869 -1331 
Q 1566 -1331 1297 -1286 
Q 1028 -1241 775 -1147 
L 775 -588 
Q 1028 -725 1275 -790 
Q 1522 -856 1778 -856 
Q 2344 -856 2625 -561 
Q 2906 -266 2906 331 
L 2906 616 
Q 2728 306 2450 153 
Q 2172 0 1784 0 
Q 1141 0 747 490 
Q 353 981 353 1791 
Q 353 2603 747 3093 
Q 1141 3584 1784 3584 
Q 2172 3584 2450 3431 
Q 2728 3278 2906 2969 
L 2906 3500 
L 3481 3500 
L 3481 434 
z
" transform="scale(0.015625)"/>
      <path id="DejaVuSans-79" d="M 2059 -325 
Q 1816 -950 1584 -1140 
Q 1353 -1331 966 -1331 
L 506 -1331 
L 506 -850 
L 844 -850 
Q 1081 -850 1212 -737 
Q 1344 -625 1503 -206 
L 1606 56 
L 191 3500 
L 800 3500 
L 1894 763 
L 2988 3500 
L 3597 3500 
L 2059 -325 
z
" transform="scale(0.015625)"/>
      <path id="DejaVuSans-20" transform="scale(0.015625)"/>
      <path id="DejaVuSans-44" d="M 1259 4147 
L 1259 519 
L 2022 519 
Q 2988 519 3436 956 
Q 3884 1394 3884 2338 
Q 3884 3275 3436 3711 
Q 2988 4147 2022 4147 
L 1259 4147 
z
M 628 4666 
L 1925 4666 
Q 3281 4666 3915 4102 
Q 4550 3538 4550 2338 
Q 4550 1131 3912 565 
Q 3275 0 1925 0 
L 628 0 
L 628 4666 
z
" transform="scale(0.015625)"/>
      <path id="DejaVuSans-63" d="M 3122 3366 
L 3122 2828 
Q 2878 2963 2633 3030 
Q 2388 3097 2138 3097 
Q 1578 3097 1268 2742 
Q 959 2388 959 1747 
Q 959 1106 1268 751 
Q 1578 397 2138 397 
Q 2388 397 2633 464 
Q 2878 531 3122 666 
L 3122 134 
Q 2881 22 2623 -34 
Q 2366 -91 2075 -91 
Q 1284 -91 818 406 
Q 353 903 353 1747 
Q 353 2603 823 3093 
Q 1294 3584 2113 3584 
Q 2378 3584 2631 3529 
Q 2884 3475 3122 3366 
z
" transform="scale(0.015625)"/>
      <path id="DejaVuSans-61" d="M 2194 1759 
Q 1497 1759 1228 1600 
Q 959 1441 959 1056 
Q 959 750 1161 570 
Q 1363 391 1709 391 
Q 2188 391 2477 730 
Q 2766 1069 2766 1631 
L 2766 1759 
L 2194 1759 
z
M 3341 1997 
L 3341 0 
L 2766 0 
L 2766 531 
Q 2569 213 2275 61 
Q 1981 -91 1556 -91 
Q 1019 -91 701 211 
Q 384 513 384 1019 
Q 384 1609 779 1909 
Q 1175 2209 1959 2209 
L 2766 2209 
L 2766 2266 
Q 2766 2663 2505 2880 
Q 2244 3097 1772 3097 
Q 1472 3097 1187 3025 
Q 903 2953 641 2809 
L 641 3341 
Q 956 3463 1253 3523 
Q 1550 3584 1831 3584 
Q 2591 3584 2966 3190 
Q 3341 2797 3341 1997 
z
" transform="scale(0.015625)"/>
      <path id="DejaVuSans-2d" d="M 313 2009 
L 1997 2009 
L 1997 1497 
L 313 1497 
L 313 2009 
z
" transform="scale(0.015625)"/>
      <path id="DejaVuSans-38" d="M 2034 2216 
Q 1584 2216 1326 1975 
Q 1069 1734 1069 1313 
Q 1069 891 1326 650 
Q 1584 409 2034 409 
Q 2484 409 2743 651 
Q 3003 894 3003 1313 
Q 3003 1734 2745 1975 
Q 2488 2216 2034 2216 
z
M 1403 2484 
Q 997 2584 770 2862 
Q 544 3141 544 3541 
Q 544 4100 942 4425 
Q 1341 4750 2034 4750 
Q 2731 4750 3128 4425 
Q 3525 4100 3525 3541 
Q 3525 3141 3298 2862 
Q 3072 2584 2669 2484 
Q 3125 2378 3379 2068 
Q 3634 1759 3634 1313 
Q 3634 634 3220 271 
Q 2806 -91 2034 -91 
Q 1263 -91 848 271 
Q 434 634 434 1313 
Q 434 1759 690 2068 
Q 947 2378 1403 2484 
z
M 1172 3481 
Q 1172 3119 1398 2916 
Q 1625 2713 2034 2713 
Q 2441 2713 2670 2916 
Q 2900 3119 2900 3481 
Q 2900 3844 2670 4047 
Q 2441 4250 2034 4250 
Q 1625 4250 1398 4047 
Q 1172 3844 1172 3481 
z
" transform="scale(0.015625)"/>
      <path id="DejaVuSans-48" d="M 628 4666 
L 1259 4666 
L 1259 2753 
L 3553 2753 
L 3553 4666 
L 4184 4666 
L 4184 0 
L 3553 0 
L 3553 2222 
L 1259 2222 
L 1259 0 
L 628 0 
L 628 4666 
z
" transform="scale(0.015625)"/>
      <path id="DejaVuSans-7a" d="M 353 3500 
L 3084 3500 
L 3084 2975 
L 922 459 
L 3084 459 
L 3084 0 
L 275 0 
L 275 525 
L 2438 3041 
L 353 3041 
L 353 3500 
z
" transform="scale(0.015625)"/>
     </defs>
     <use xlink:href="#DejaVuSans-45"/>
     <use xlink:href="#DejaVuSans-6e" transform="translate(63.183594 0)"/>
     <use xlink:href="#DejaVuSans-65" transform="translate(126.5625 0)"/>
     <use xlink:href="#DejaVuSans-72" transform="translate(188.085938 0)"/>
     <use xlink:href="#DejaVuSans-67" transform="translate(227.449219 0)"/>
     <use xlink:href="#DejaVuSans-79" transform="translate(290.925781 0)"/>
     <use xlink:href="#DejaVuSans-20" transform="translate(350.105469 0)"/>
     <use xlink:href="#DejaVuSans-44" transform="translate(381.892578 0)"/>
     <use xlink:href="#DejaVuSans-65" transform="translate(458.894531 0)"/>
     <use xlink:href="#DejaVuSans-63" transform="translate(520.417969 0)"/>
     <use xlink:href="#DejaVuSans-61" transform="translate(575.398438 0)"/>
     <use xlink:href="#DejaVuSans-79" transform="translate(636.677734 0)"/>
     <use xlink:href="#DejaVuSans-20" transform="translate(695.857422 0)"/>
     <use xlink:href="#DejaVuSans-2d" transform="translate(727.644531 0)"/>
     <use xlink:href="#DejaVuSans-20" transform="translate(763.728516 0)"/>
     <use xlink:href="#DejaVuSans-38" transform="translate(795.515625 0)"/>
     <use xlink:href="#DejaVuSans-30" transform="translate(859.138672 0)"/>
     <use xlink:href="#DejaVuSans-30" transform="translate(922.761719 0)"/>
     <use xlink:href="#DejaVuSans-30" transform="translate(986.384766 0)"/>
     <use xlink:href="#DejaVuSans-20" transform="translate(1050.007812 0)"/>
     <use xlink:href="#DejaVuSans-48" transform="translate(1081.794922 0)"/>
     <use xlink:href="#DejaVuSans-7a" transform="translate(1156.990234 0)"/>
    </g>
   </g>
   <g id="legend_1">
    <g id="patch_7">
     <path d="M 296.968437 108.1845 
L 407.72 108.1845 
Q 409.72 108.1845 409.72 106.1845 
L 409.72 48.472 
Q 409.72 46.472 407.72 46.472 
L 296.968437 46.472 
Q 294.968437 46.472 294.968437 48.472 
L 294.968437 106.1845 
Q 294.968437 108.1845 296.968437 108.1845 
z
" style="fill: #ffffff; opacity: 0.8; stroke: #cccccc; stroke-linejoin: miter"/>
    </g>
    <g id="line2d_19">
     <path d="M 298.968437 54.570438 
L 308.968437 54.570438 
L 318.968437 54.570438 
" style="fill: none; stroke: #1f77b4; stroke-width: 1.5; stroke-linecap: square"/>
    </g>
    <g id="text_17">
     <!-- Energy -->
     <g transform="translate(326.968437 58.070438) scale(0.1 -0.1)">
      <use xlink:href="#DejaVuSans-45"/>
      <use xlink:href="#DejaVuSans-6e" transform="translate(63.183594 0)"/>
      <use xlink:href="#DejaVuSans-65" transform="translate(126.5625 0)"/>
      <use xlink:href="#DejaVuSans-72" transform="translate(188.085938 0)"/>
      <use xlink:href="#DejaVuSans-67" transform="translate(227.449219 0)"/>
      <use xlink:href="#DejaVuSans-79" transform="translate(290.925781 0)"/>
     </g>
    </g>
    <g id="line2d_20">
     <path d="M 298.968437 69.248563 
L 308.968437 69.248563 
L 318.968437 69.248563 
" style="fill: none; stroke-dasharray: 5.55,2.4; stroke-dashoffset: 0; stroke: #ff7f0e; stroke-width: 1.5"/>
    </g>
    <g id="text_18">
     <!-- Linear Fit -->
     <g transform="translate(326.968437 72.748563) scale(0.1 -0.1)">
      <defs>
       <path id="DejaVuSans-4c" d="M 628 4666 
L 1259 4666 
L 1259 531 
L 3531 531 
L 3531 0 
L 628 0 
L 628 4666 
z
" transform="scale(0.015625)"/>
       <path id="DejaVuSans-69" d="M 603 3500 
L 1178 3500 
L 1178 0 
L 603 0 
L 603 3500 
z
M 603 4863 
L 1178 4863 
L 1178 4134 
L 603 4134 
L 603 4863 
z
" transform="scale(0.015625)"/>
       <path id="DejaVuSans-46" d="M 628 4666 
L 3309 4666 
L 3309 4134 
L 1259 4134 
L 1259 2759 
L 3109 2759 
L 3109 2228 
L 1259 2228 
L 1259 0 
L 628 0 
L 628 4666 
z
" transform="scale(0.015625)"/>
       <path id="DejaVuSans-74" d="M 1172 4494 
L 1172 3500 
L 2356 3500 
L 2356 3053 
L 1172 3053 
L 1172 1153 
Q 1172 725 1289 603 
Q 1406 481 1766 481 
L 2356 481 
L 2356 0 
L 1766 0 
Q 1100 0 847 248 
Q 594 497 594 1153 
L 594 3053 
L 172 3053 
L 172 3500 
L 594 3500 
L 594 4494 
L 1172 4494 
z
" transform="scale(0.015625)"/>
      </defs>
      <use xlink:href="#DejaVuSans-4c"/>
      <use xlink:href="#DejaVuSans-69" transform="translate(55.712891 0)"/>
      <use xlink:href="#DejaVuSans-6e" transform="translate(83.496094 0)"/>
      <use xlink:href="#DejaVuSans-65" transform="translate(146.875 0)"/>
      <use xlink:href="#DejaVuSans-61" transform="translate(208.398438 0)"/>
      <use xlink:href="#DejaVuSans-72" transform="translate(269.677734 0)"/>
      <use xlink:href="#DejaVuSans-20" transform="translate(310.791016 0)"/>
      <use xlink:href="#DejaVuSans-46" transform="translate(342.578125 0)"/>
      <use xlink:href="#DejaVuSans-69" transform="translate(392.847656 0)"/>
      <use xlink:href="#DejaVuSans-74" transform="translate(420.630859 0)"/>
     </g>
    </g>
    <g id="line2d_21">
     <path d="M 298.968437 83.926688 
L 308.968437 83.926688 
L 318.968437 83.926688 
" style="fill: none; stroke-dasharray: 5.55,2.4; stroke-dashoffset: 0; stroke: #2ca02c; stroke-width: 1.5"/>
    </g>
    <g id="text_19">
     <!-- -60 dB -->
     <g transform="translate(326.968437 87.426688) scale(0.1 -0.1)">
      <defs>
       <path id="DejaVuSans-36" d="M 2113 2584 
Q 1688 2584 1439 2293 
Q 1191 2003 1191 1497 
Q 1191 994 1439 701 
Q 1688 409 2113 409 
Q 2538 409 2786 701 
Q 3034 994 3034 1497 
Q 3034 2003 2786 2293 
Q 2538 2584 2113 2584 
z
M 3366 4563 
L 3366 3988 
Q 3128 4100 2886 4159 
Q 2644 4219 2406 4219 
Q 1781 4219 1451 3797 
Q 1122 3375 1075 2522 
Q 1259 2794 1537 2939 
Q 1816 3084 2150 3084 
Q 2853 3084 3261 2657 
Q 3669 2231 3669 1497 
Q 3669 778 3244 343 
Q 2819 -91 2113 -91 
Q 1303 -91 875 529 
Q 447 1150 447 2328 
Q 447 3434 972 4092 
Q 1497 4750 2381 4750 
Q 2619 4750 2861 4703 
Q 3103 4656 3366 4563 
z
" transform="scale(0.015625)"/>
       <path id="DejaVuSans-64" d="M 2906 2969 
L 2906 4863 
L 3481 4863 
L 3481 0 
L 2906 0 
L 2906 525 
Q 2725 213 2448 61 
Q 2172 -91 1784 -91 
Q 1150 -91 751 415 
Q 353 922 353 1747 
Q 353 2572 751 3078 
Q 1150 3584 1784 3584 
Q 2172 3584 2448 3432 
Q 2725 3281 2906 2969 
z
M 947 1747 
Q 947 1113 1208 752 
Q 1469 391 1925 391 
Q 2381 391 2643 752 
Q 2906 1113 2906 1747 
Q 2906 2381 2643 2742 
Q 2381 3103 1925 3103 
Q 1469 3103 1208 2742 
Q 947 2381 947 1747 
z
" transform="scale(0.015625)"/>
       <path id="DejaVuSans-42" d="M 1259 2228 
L 1259 519 
L 2272 519 
Q 2781 519 3026 730 
Q 3272 941 3272 1375 
Q 3272 1813 3026 2020 
Q 2781 2228 2272 2228 
L 1259 2228 
z
M 1259 4147 
L 1259 2741 
L 2194 2741 
Q 2656 2741 2882 2914 
Q 3109 3088 3109 3444 
Q 3109 3797 2882 3972 
Q 2656 4147 2194 4147 
L 1259 4147 
z
M 628 4666 
L 2241 4666 
Q 2963 4666 3353 4366 
Q 3744 4066 3744 3513 
Q 3744 3084 3544 2831 
Q 3344 2578 2956 2516 
Q 3422 2416 3680 2098 
Q 3938 1781 3938 1306 
Q 3938 681 3513 340 
Q 3088 0 2303 0 
L 628 0 
L 628 4666 
z
" transform="scale(0.015625)"/>
      </defs>
      <use xlink:href="#DejaVuSans-2d"/>
      <use xlink:href="#DejaVuSans-36" transform="translate(36.083984 0)"/>
      <use xlink:href="#DejaVuSans-30" transform="translate(99.707031 0)"/>
      <use xlink:href="#DejaVuSans-20" transform="translate(163.330078 0)"/>
      <use xlink:href="#DejaVuSans-64" transform="translate(195.117188 0)"/>
      <use xlink:href="#DejaVuSans-42" transform="translate(258.59375 0)"/>
     </g>
    </g>
    <g id="line2d_22">
     <path d="M 298.968437 98.604813 
L 318.968437 98.604813 
" style="fill: none; stroke-dasharray: 5.55,2.4; stroke-dashoffset: 0; stroke: #1f77b4; stroke-width: 1.5"/>
    </g>
    <g id="text_20">
     <!-- Estimated RT60 -->
     <g transform="translate(326.968437 102.104813) scale(0.1 -0.1)">
      <defs>
       <path id="DejaVuSans-73" d="M 2834 3397 
L 2834 2853 
Q 2591 2978 2328 3040 
Q 2066 3103 1784 3103 
Q 1356 3103 1142 2972 
Q 928 2841 928 2578 
Q 928 2378 1081 2264 
Q 1234 2150 1697 2047 
L 1894 2003 
Q 2506 1872 2764 1633 
Q 3022 1394 3022 966 
Q 3022 478 2636 193 
Q 2250 -91 1575 -91 
Q 1294 -91 989 -36 
Q 684 19 347 128 
L 347 722 
Q 666 556 975 473 
Q 1284 391 1588 391 
Q 1994 391 2212 530 
Q 2431 669 2431 922 
Q 2431 1156 2273 1281 
Q 2116 1406 1581 1522 
L 1381 1569 
Q 847 1681 609 1914 
Q 372 2147 372 2553 
Q 372 3047 722 3315 
Q 1072 3584 1716 3584 
Q 2034 3584 2315 3537 
Q 2597 3491 2834 3397 
z
" transform="scale(0.015625)"/>
       <path id="DejaVuSans-6d" d="M 3328 2828 
Q 3544 3216 3844 3400 
Q 4144 3584 4550 3584 
Q 5097 3584 5394 3201 
Q 5691 2819 5691 2113 
L 5691 0 
L 5113 0 
L 5113 2094 
Q 5113 2597 4934 2840 
Q 4756 3084 4391 3084 
Q 3944 3084 3684 2787 
Q 3425 2491 3425 1978 
L 3425 0 
L 2847 0 
L 2847 2094 
Q 2847 2600 2669 2842 
Q 2491 3084 2119 3084 
Q 1678 3084 1418 2786 
Q 1159 2488 1159 1978 
L 1159 0 
L 581 0 
L 581 3500 
L 1159 3500 
L 1159 2956 
Q 1356 3278 1631 3431 
Q 1906 3584 2284 3584 
Q 2666 3584 2933 3390 
Q 3200 3197 3328 2828 
z
" transform="scale(0.015625)"/>
       <path id="DejaVuSans-52" d="M 2841 2188 
Q 3044 2119 3236 1894 
Q 3428 1669 3622 1275 
L 4263 0 
L 3584 0 
L 2988 1197 
Q 2756 1666 2539 1819 
Q 2322 1972 1947 1972 
L 1259 1972 
L 1259 0 
L 628 0 
L 628 4666 
L 2053 4666 
Q 2853 4666 3247 4331 
Q 3641 3997 3641 3322 
Q 3641 2881 3436 2590 
Q 3231 2300 2841 2188 
z
M 1259 4147 
L 1259 2491 
L 2053 2491 
Q 2509 2491 2742 2702 
Q 2975 2913 2975 3322 
Q 2975 3731 2742 3939 
Q 2509 4147 2053 4147 
L 1259 4147 
z
" transform="scale(0.015625)"/>
       <path id="DejaVuSans-54" d="M -19 4666 
L 3928 4666 
L 3928 4134 
L 2272 4134 
L 2272 0 
L 1638 0 
L 1638 4134 
L -19 4134 
L -19 4666 
z
" transform="scale(0.015625)"/>
      </defs>
      <use xlink:href="#DejaVuSans-45"/>
      <use xlink:href="#DejaVuSans-73" transform="translate(63.183594 0)"/>
      <use xlink:href="#DejaVuSans-74" transform="translate(115.283203 0)"/>
      <use xlink:href="#DejaVuSans-69" transform="translate(154.492188 0)"/>
      <use xlink:href="#DejaVuSans-6d" transform="translate(182.275391 0)"/>
      <use xlink:href="#DejaVuSans-61" transform="translate(279.6875 0)"/>
      <use xlink:href="#DejaVuSans-74" transform="translate(340.966797 0)"/>
      <use xlink:href="#DejaVuSans-65" transform="translate(380.175781 0)"/>
      <use xlink:href="#DejaVuSans-64" transform="translate(441.699219 0)"/>
      <use xlink:href="#DejaVuSans-20" transform="translate(505.175781 0)"/>
      <use xlink:href="#DejaVuSans-52" transform="translate(536.962891 0)"/>
      <use xlink:href="#DejaVuSans-54" transform="translate(599.195312 0)"/>
      <use xlink:href="#DejaVuSans-36" transform="translate(660.279297 0)"/>
      <use xlink:href="#DejaVuSans-30" transform="translate(723.902344 0)"/>
     </g>
    </g>
   </g>
  </g>
 </g>
 <defs>
  <clipPath id="pa3d68e1293">
   <rect x="57.6" y="41.472" width="357.12" height="266.112"/>
  </clipPath>
 </defs>
</svg>
