<?xml version="1.0" encoding="utf-8" standalone="no"?>
<!DOCTYPE svg PUBLIC "-//W3C//DTD SVG 1.1//EN"
  "http://www.w3.org/Graphics/SVG/1.1/DTD/svg11.dtd">
<svg xmlns:xlink="http://www.w3.org/1999/xlink" width="460.8pt" height="345.6pt" viewBox="0 0 460.8 345.6" xmlns="http://www.w3.org/2000/svg" version="1.1">
 <metadata>
  <rdf:RDF xmlns:dc="http://purl.org/dc/elements/1.1/" xmlns:cc="http://creativecommons.org/ns#" xmlns:rdf="http://www.w3.org/1999/02/22-rdf-syntax-ns#">
   <cc:Work>
    <dc:type rdf:resource="http://purl.org/dc/dcmitype/StillImage"/>
    <dc:date>2025-05-07T12:11:27.438251</dc:date>
    <dc:format>image/svg+xml</dc:format>
    <dc:creator>
     <cc:Agent>
      <dc:title>Matplotlib v3.10.1, https://matplotlib.org/</dc:title>
     </cc:Agent>
    </dc:creator>
   </cc:Work>
  </rdf:RDF>
 </metadata>
 <defs>
  <style type="text/css">*{stroke-linejoin: round; stroke-linecap: butt}</style>
 </defs>
 <g id="figure_1">
  <g id="patch_1">
   <path d="M 0 345.6 
L 460.8 345.6 
L 460.8 0 
L 0 0 
z
" style="fill: #ffffff"/>
  </g>
  <g id="axes_1">
   <g id="patch_2">
    <path d="M 57.6 307.584 
L 414.72 307.584 
L 414.72 41.472 
L 57.6 41.472 
z
" style="fill: #ffffff"/>
   </g>
   <g id="matplotlib.axis_1">
    <g id="xtick_1">
     <g id="line2d_1">
      <defs>
       <path id="m883e40548d" d="M 0 0 
L 0 3.5 
" style="stroke: #000000; stroke-width: 0.8"/>
      </defs>
      <g>
       <use xlink:href="#m883e40548d" x="78.116364" y="307.584" style="stroke: #000000; stroke-width: 0.8"/>
      </g>
     </g>
     <g id="text_1">
      <!-- −0.25 -->
      <g transform="translate(62.793707 322.182437) scale(0.1 -0.1)">
       <defs>
        <path id="DejaVuSans-2212" d="M 678 2272 
L 4684 2272 
L 4684 1741 
L 678 1741 
L 678 2272 
z
" transform="scale(0.015625)"/>
        <path id="DejaVuSans-30" d="M 2034 4250 
Q 1547 4250 1301 3770 
Q 1056 3291 1056 2328 
Q 1056 1369 1301 889 
Q 1547 409 2034 409 
Q 2525 409 2770 889 
Q 3016 1369 3016 2328 
Q 3016 3291 2770 3770 
Q 2525 4250 2034 4250 
z
M 2034 4750 
Q 2819 4750 3233 4129 
Q 3647 3509 3647 2328 
Q 3647 1150 3233 529 
Q 2819 -91 2034 -91 
Q 1250 -91 836 529 
Q 422 1150 422 2328 
Q 422 3509 836 4129 
Q 1250 4750 2034 4750 
z
" transform="scale(0.015625)"/>
        <path id="DejaVuSans-2e" d="M 684 794 
L 1344 794 
L 1344 0 
L 684 0 
L 684 794 
z
" transform="scale(0.015625)"/>
        <path id="DejaVuSans-32" d="M 1228 531 
L 3431 531 
L 3431 0 
L 469 0 
L 469 531 
Q 828 903 1448 1529 
Q 2069 2156 2228 2338 
Q 2531 2678 2651 2914 
Q 2772 3150 2772 3378 
Q 2772 3750 2511 3984 
Q 2250 4219 1831 4219 
Q 1534 4219 1204 4116 
Q 875 4013 500 3803 
L 500 4441 
Q 881 4594 1212 4672 
Q 1544 4750 1819 4750 
Q 2544 4750 2975 4387 
Q 3406 4025 3406 3419 
Q 3406 3131 3298 2873 
Q 3191 2616 2906 2266 
Q 2828 2175 2409 1742 
Q 1991 1309 1228 531 
z
" transform="scale(0.015625)"/>
        <path id="DejaVuSans-35" d="M 691 4666 
L 3169 4666 
L 3169 4134 
L 1269 4134 
L 1269 2991 
Q 1406 3038 1543 3061 
Q 1681 3084 1819 3084 
Q 2600 3084 3056 2656 
Q 3513 2228 3513 1497 
Q 3513 744 3044 326 
Q 2575 -91 1722 -91 
Q 1428 -91 1123 -41 
Q 819 9 494 109 
L 494 744 
Q 775 591 1075 516 
Q 1375 441 1709 441 
Q 2250 441 2565 725 
Q 2881 1009 2881 1497 
Q 2881 1984 2565 2268 
Q 2250 2553 1709 2553 
Q 1456 2553 1204 2497 
Q 953 2441 691 2322 
L 691 4666 
z
" transform="scale(0.015625)"/>
       </defs>
       <use xlink:href="#DejaVuSans-2212"/>
       <use xlink:href="#DejaVuSans-30" transform="translate(83.789062 0)"/>
       <use xlink:href="#DejaVuSans-2e" transform="translate(147.412109 0)"/>
       <use xlink:href="#DejaVuSans-32" transform="translate(179.199219 0)"/>
       <use xlink:href="#DejaVuSans-35" transform="translate(242.822266 0)"/>
      </g>
     </g>
    </g>
    <g id="xtick_2">
     <g id="line2d_2">
      <g>
       <use xlink:href="#m883e40548d" x="123.207273" y="307.584" style="stroke: #000000; stroke-width: 0.8"/>
      </g>
     </g>
     <g id="text_2">
      <!-- 0.00 -->
      <g transform="translate(112.07446 322.182437) scale(0.1 -0.1)">
       <use xlink:href="#DejaVuSans-30"/>
       <use xlink:href="#DejaVuSans-2e" transform="translate(63.623047 0)"/>
       <use xlink:href="#DejaVuSans-30" transform="translate(95.410156 0)"/>
       <use xlink:href="#DejaVuSans-30" transform="translate(159.033203 0)"/>
      </g>
     </g>
    </g>
    <g id="xtick_3">
     <g id="line2d_3">
      <g>
       <use xlink:href="#m883e40548d" x="168.298182" y="307.584" style="stroke: #000000; stroke-width: 0.8"/>
      </g>
     </g>
     <g id="text_3">
      <!-- 0.25 -->
      <g transform="translate(157.165369 322.182437) scale(0.1 -0.1)">
       <use xlink:href="#DejaVuSans-30"/>
       <use xlink:href="#DejaVuSans-2e" transform="translate(63.623047 0)"/>
       <use xlink:href="#DejaVuSans-32" transform="translate(95.410156 0)"/>
       <use xlink:href="#DejaVuSans-35" transform="translate(159.033203 0)"/>
      </g>
     </g>
    </g>
    <g id="xtick_4">
     <g id="line2d_4">
      <g>
       <use xlink:href="#m883e40548d" x="213.389091" y="307.584" style="stroke: #000000; stroke-width: 0.8"/>
      </g>
     </g>
     <g id="text_4">
      <!-- 0.50 -->
      <g transform="translate(202.256278 322.182437) scale(0.1 -0.1)">
       <use xlink:href="#DejaVuSans-30"/>
       <use xlink:href="#DejaVuSans-2e" transform="translate(63.623047 0)"/>
       <use xlink:href="#DejaVuSans-35" transform="translate(95.410156 0)"/>
       <use xlink:href="#DejaVuSans-30" transform="translate(159.033203 0)"/>
      </g>
     </g>
    </g>
    <g id="xtick_5">
     <g id="line2d_5">
      <g>
       <use xlink:href="#m883e40548d" x="258.48" y="307.584" style="stroke: #000000; stroke-width: 0.8"/>
      </g>
     </g>
     <g id="text_5">
      <!-- 0.75 -->
      <g transform="translate(247.347187 322.182437) scale(0.1 -0.1)">
       <defs>
        <path id="DejaVuSans-37" d="M 525 4666 
L 3525 4666 
L 3525 4397 
L 1831 0 
L 1172 0 
L 2766 4134 
L 525 4134 
L 525 4666 
z
" transform="scale(0.015625)"/>
       </defs>
       <use xlink:href="#DejaVuSans-30"/>
       <use xlink:href="#DejaVuSans-2e" transform="translate(63.623047 0)"/>
       <use xlink:href="#DejaVuSans-37" transform="translate(95.410156 0)"/>
       <use xlink:href="#DejaVuSans-35" transform="translate(159.033203 0)"/>
      </g>
     </g>
    </g>
    <g id="xtick_6">
     <g id="line2d_6">
      <g>
       <use xlink:href="#m883e40548d" x="303.570909" y="307.584" style="stroke: #000000; stroke-width: 0.8"/>
      </g>
     </g>
     <g id="text_6">
      <!-- 1.00 -->
      <g transform="translate(292.438097 322.182437) scale(0.1 -0.1)">
       <defs>
        <path id="DejaVuSans-31" d="M 794 531 
L 1825 531 
L 1825 4091 
L 703 3866 
L 703 4441 
L 1819 4666 
L 2450 4666 
L 2450 531 
L 3481 531 
L 3481 0 
L 794 0 
L 794 531 
z
" transform="scale(0.015625)"/>
       </defs>
       <use xlink:href="#DejaVuSans-31"/>
       <use xlink:href="#DejaVuSans-2e" transform="translate(63.623047 0)"/>
       <use xlink:href="#DejaVuSans-30" transform="translate(95.410156 0)"/>
       <use xlink:href="#DejaVuSans-30" transform="translate(159.033203 0)"/>
      </g>
     </g>
    </g>
    <g id="xtick_7">
     <g id="line2d_7">
      <g>
       <use xlink:href="#m883e40548d" x="348.661818" y="307.584" style="stroke: #000000; stroke-width: 0.8"/>
      </g>
     </g>
     <g id="text_7">
      <!-- 1.25 -->
      <g transform="translate(337.529006 322.182437) scale(0.1 -0.1)">
       <use xlink:href="#DejaVuSans-31"/>
       <use xlink:href="#DejaVuSans-2e" transform="translate(63.623047 0)"/>
       <use xlink:href="#DejaVuSans-32" transform="translate(95.410156 0)"/>
       <use xlink:href="#DejaVuSans-35" transform="translate(159.033203 0)"/>
      </g>
     </g>
    </g>
    <g id="xtick_8">
     <g id="line2d_8">
      <g>
       <use xlink:href="#m883e40548d" x="393.752727" y="307.584" style="stroke: #000000; stroke-width: 0.8"/>
      </g>
     </g>
     <g id="text_8">
      <!-- 1.50 -->
      <g transform="translate(382.619915 322.182437) scale(0.1 -0.1)">
       <use xlink:href="#DejaVuSans-31"/>
       <use xlink:href="#DejaVuSans-2e" transform="translate(63.623047 0)"/>
       <use xlink:href="#DejaVuSans-35" transform="translate(95.410156 0)"/>
       <use xlink:href="#DejaVuSans-30" transform="translate(159.033203 0)"/>
      </g>
     </g>
    </g>
   </g>
   <g id="matplotlib.axis_2">
    <g id="ytick_1">
     <g id="line2d_9">
      <defs>
       <path id="m6114d1ec17" d="M 0 0 
L -3.5 0 
" style="stroke: #000000; stroke-width: 0.8"/>
      </defs>
      <g>
       <use xlink:href="#m6114d1ec17" x="57.6" y="282.33988" style="stroke: #000000; stroke-width: 0.8"/>
      </g>
     </g>
     <g id="text_9">
      <!-- −120 -->
      <g transform="translate(23.132812 286.139099) scale(0.1 -0.1)">
       <use xlink:href="#DejaVuSans-2212"/>
       <use xlink:href="#DejaVuSans-31" transform="translate(83.789062 0)"/>
       <use xlink:href="#DejaVuSans-32" transform="translate(147.412109 0)"/>
       <use xlink:href="#DejaVuSans-30" transform="translate(211.035156 0)"/>
      </g>
     </g>
    </g>
    <g id="ytick_2">
     <g id="line2d_10">
      <g>
       <use xlink:href="#m6114d1ec17" x="57.6" y="244.211234" style="stroke: #000000; stroke-width: 0.8"/>
      </g>
     </g>
     <g id="text_10">
      <!-- −100 -->
      <g transform="translate(23.132812 248.010452) scale(0.1 -0.1)">
       <use xlink:href="#DejaVuSans-2212"/>
       <use xlink:href="#DejaVuSans-31" transform="translate(83.789062 0)"/>
       <use xlink:href="#DejaVuSans-30" transform="translate(147.412109 0)"/>
       <use xlink:href="#DejaVuSans-30" transform="translate(211.035156 0)"/>
      </g>
     </g>
    </g>
    <g id="ytick_3">
     <g id="line2d_11">
      <g>
       <use xlink:href="#m6114d1ec17" x="57.6" y="206.082587" style="stroke: #000000; stroke-width: 0.8"/>
      </g>
     </g>
     <g id="text_11">
      <!-- −80 -->
      <g transform="translate(29.495313 209.881806) scale(0.1 -0.1)">
       <defs>
        <path id="DejaVuSans-38" d="M 2034 2216 
Q 1584 2216 1326 1975 
Q 1069 1734 1069 1313 
Q 1069 891 1326 650 
Q 1584 409 2034 409 
Q 2484 409 2743 651 
Q 3003 894 3003 1313 
Q 3003 1734 2745 1975 
Q 2488 2216 2034 2216 
z
M 1403 2484 
Q 997 2584 770 2862 
Q 544 3141 544 3541 
Q 544 4100 942 4425 
Q 1341 4750 2034 4750 
Q 2731 4750 3128 4425 
Q 3525 4100 3525 3541 
Q 3525 3141 3298 2862 
Q 3072 2584 2669 2484 
Q 3125 2378 3379 2068 
Q 3634 1759 3634 1313 
Q 3634 634 3220 271 
Q 2806 -91 2034 -91 
Q 1263 -91 848 271 
Q 434 634 434 1313 
Q 434 1759 690 2068 
Q 947 2378 1403 2484 
z
M 1172 3481 
Q 1172 3119 1398 2916 
Q 1625 2713 2034 2713 
Q 2441 2713 2670 2916 
Q 2900 3119 2900 3481 
Q 2900 3844 2670 4047 
Q 2441 4250 2034 4250 
Q 1625 4250 1398 4047 
Q 1172 3844 1172 3481 
z
" transform="scale(0.015625)"/>
       </defs>
       <use xlink:href="#DejaVuSans-2212"/>
       <use xlink:href="#DejaVuSans-38" transform="translate(83.789062 0)"/>
       <use xlink:href="#DejaVuSans-30" transform="translate(147.412109 0)"/>
      </g>
     </g>
    </g>
    <g id="ytick_4">
     <g id="line2d_12">
      <g>
       <use xlink:href="#m6114d1ec17" x="57.6" y="167.95394" style="stroke: #000000; stroke-width: 0.8"/>
      </g>
     </g>
     <g id="text_12">
      <!-- −60 -->
      <g transform="translate(29.495313 171.753159) scale(0.1 -0.1)">
       <defs>
        <path id="DejaVuSans-36" d="M 2113 2584 
Q 1688 2584 1439 2293 
Q 1191 2003 1191 1497 
Q 1191 994 1439 701 
Q 1688 409 2113 409 
Q 2538 409 2786 701 
Q 3034 994 3034 1497 
Q 3034 2003 2786 2293 
Q 2538 2584 2113 2584 
z
M 3366 4563 
L 3366 3988 
Q 3128 4100 2886 4159 
Q 2644 4219 2406 4219 
Q 1781 4219 1451 3797 
Q 1122 3375 1075 2522 
Q 1259 2794 1537 2939 
Q 1816 3084 2150 3084 
Q 2853 3084 3261 2657 
Q 3669 2231 3669 1497 
Q 3669 778 3244 343 
Q 2819 -91 2113 -91 
Q 1303 -91 875 529 
Q 447 1150 447 2328 
Q 447 3434 972 4092 
Q 1497 4750 2381 4750 
Q 2619 4750 2861 4703 
Q 3103 4656 3366 4563 
z
" transform="scale(0.015625)"/>
       </defs>
       <use xlink:href="#DejaVuSans-2212"/>
       <use xlink:href="#DejaVuSans-36" transform="translate(83.789062 0)"/>
       <use xlink:href="#DejaVuSans-30" transform="translate(147.412109 0)"/>
      </g>
     </g>
    </g>
    <g id="ytick_5">
     <g id="line2d_13">
      <g>
       <use xlink:href="#m6114d1ec17" x="57.6" y="129.825293" style="stroke: #000000; stroke-width: 0.8"/>
      </g>
     </g>
     <g id="text_13">
      <!-- −40 -->
      <g transform="translate(29.495313 133.624512) scale(0.1 -0.1)">
       <defs>
        <path id="DejaVuSans-34" d="M 2419 4116 
L 825 1625 
L 2419 1625 
L 2419 4116 
z
M 2253 4666 
L 3047 4666 
L 3047 1625 
L 3713 1625 
L 3713 1100 
L 3047 1100 
L 3047 0 
L 2419 0 
L 2419 1100 
L 313 1100 
L 313 1709 
L 2253 4666 
z
" transform="scale(0.015625)"/>
       </defs>
       <use xlink:href="#DejaVuSans-2212"/>
       <use xlink:href="#DejaVuSans-34" transform="translate(83.789062 0)"/>
       <use xlink:href="#DejaVuSans-30" transform="translate(147.412109 0)"/>
      </g>
     </g>
    </g>
    <g id="ytick_6">
     <g id="line2d_14">
      <g>
       <use xlink:href="#m6114d1ec17" x="57.6" y="91.696647" style="stroke: #000000; stroke-width: 0.8"/>
      </g>
     </g>
     <g id="text_14">
      <!-- −20 -->
      <g transform="translate(29.495313 95.495865) scale(0.1 -0.1)">
       <use xlink:href="#DejaVuSans-2212"/>
       <use xlink:href="#DejaVuSans-32" transform="translate(83.789062 0)"/>
       <use xlink:href="#DejaVuSans-30" transform="translate(147.412109 0)"/>
      </g>
     </g>
    </g>
    <g id="ytick_7">
     <g id="line2d_15">
      <g>
       <use xlink:href="#m6114d1ec17" x="57.6" y="53.568" style="stroke: #000000; stroke-width: 0.8"/>
      </g>
     </g>
     <g id="text_15">
      <!-- 0 -->
      <g transform="translate(44.2375 57.367219) scale(0.1 -0.1)">
       <use xlink:href="#DejaVuSans-30"/>
      </g>
     </g>
    </g>
   </g>
   <g id="line2d_16">
    <path d="M 73.832727 53.568 
L 106.749091 53.678359 
L 107.354061 54.004021 
L 107.594545 54.076555 
L 107.733576 54.274255 
L 108.041697 54.705165 
L 108.188242 54.815765 
L 108.936 56.520914 
L 109.153939 56.973204 
L 109.326788 57.091204 
L 109.559758 57.841995 
L 109.770182 58.111276 
L 110.055758 58.246098 
L 110.525455 58.665543 
L 110.792242 58.779051 
L 111.190545 59.103048 
L 111.352121 59.24268 
L 111.637697 59.46662 
L 111.851879 59.579477 
L 112.137455 59.709732 
L 112.990424 59.824548 
L 113.689333 60.067531 
L 113.967394 60.131514 
L 114.245455 60.312509 
L 114.737697 60.4381 
L 115.24497 60.475554 
L 117.616 60.604345 
L 118.818424 60.979417 
L 120.20497 62.274302 
L 120.396606 62.38959 
L 120.734788 62.6434 
L 120.997818 62.756019 
L 121.305939 62.819913 
L 123.207273 63.100203 
L 123.631879 63.216663 
L 124.308242 63.328482 
L 127.310545 63.693225 
L 127.487152 63.998666 
L 127.705091 64.19612 
L 127.844121 64.306028 
L 129.354667 67.150884 
L 129.478667 67.362827 
L 129.790545 67.885741 
L 129.997212 67.997415 
L 130.297818 68.194631 
L 131.549091 68.304855 
L 132.116485 68.566804 
L 132.428364 68.771753 
L 132.578667 68.905705 
L 132.890545 69.210388 
L 133.040848 69.331761 
L 133.424121 69.788094 
L 133.578182 69.923405 
L 133.923879 70.281908 
L 134.156848 70.392686 
L 134.48 70.560549 
L 134.724242 70.676132 
L 135.013576 70.76943 
L 135.254061 70.895068 
L 135.550909 70.992488 
L 136.088242 71.107207 
L 137.377091 71.453723 
L 137.81297 71.765626 
L 139.015394 72.012965 
L 139.327273 72.216336 
L 139.458788 72.352867 
L 139.849576 72.916877 
L 139.966061 73.104251 
L 140.341818 73.813352 
L 140.503394 73.924197 
L 141.014424 74.541537 
L 141.179758 74.700445 
L 141.525455 75.055145 
L 141.724606 75.165518 
L 142.044 75.392104 
L 142.30703 75.507236 
L 142.622667 75.552664 
L 144.129455 75.801661 
L 144.922303 76.075985 
L 145.940606 76.381124 
L 146.226182 76.475585 
L 146.500485 76.596302 
L 146.834909 76.676699 
L 147.428606 76.78686 
L 148.461939 77.250069 
L 148.732485 77.448308 
L 148.897818 77.558881 
L 149.239758 77.873426 
L 149.367515 78.01858 
L 149.735758 78.559783 
L 149.844727 78.724053 
L 150.246788 79.515659 
L 150.374545 79.684879 
L 150.70897 80.169918 
L 150.923152 80.278971 
L 151.227515 80.443632 
L 151.486788 80.554021 
L 151.794909 80.655446 
L 152.012848 80.778571 
L 152.339758 80.957242 
L 152.580242 81.068847 
L 152.888364 81.199511 
L 154.970061 81.334912 
L 155.856848 81.583921 
L 156.31903 81.640809 
L 158.209091 82.164359 
L 158.945576 83.267265 
L 159.133455 83.430077 
L 159.283758 83.543514 
L 159.742182 84.156764 
L 159.933818 84.292227 
L 160.324606 84.604135 
L 160.557576 84.711499 
L 161.03103 85.159884 
L 161.177576 85.363903 
L 161.500727 85.805174 
L 161.692364 85.911752 
L 162.139515 86.385182 
L 162.331152 86.518831 
L 162.703152 86.812647 
L 162.947394 86.923858 
L 163.383273 87.288993 
L 163.522303 87.438814 
L 163.901818 87.949048 
L 164.025818 88.094572 
L 164.427879 88.740118 
L 164.548121 88.897204 
L 164.965212 89.604956 
L 165.09297 89.74771 
L 165.581455 90.558941 
L 165.728 90.75053 
L 166.088727 91.243191 
L 166.381818 91.365487 
L 166.723758 91.557393 
L 167.546667 91.66971 
L 168.290667 91.878922 
L 168.621333 92.107734 
L 168.794182 92.228263 
L 169.124848 92.497302 
L 170.924727 92.609895 
L 173.949576 93.059963 
L 174.118667 93.292427 
L 174.377939 93.537653 
L 174.644727 93.652248 
L 174.967879 93.794366 
L 178.244485 93.912178 
L 179.056121 94.003475 
L 180.209697 94.128314 
L 181.190424 94.497209 
L 181.46097 94.627453 
L 181.720242 94.739201 
L 182.039636 94.831554 
L 182.419152 94.943471 
L 183.076727 95.10153 
L 184.902909 95.247804 
L 186.161697 95.883394 
L 186.405939 96.065936 
L 186.608848 96.17461 
L 186.992121 96.497469 
L 187.206303 96.615162 
L 187.540727 96.811018 
L 187.811273 96.922141 
L 188.164485 97.066133 
L 188.521455 97.177736 
L 188.987394 97.449263 
L 189.137697 97.628995 
L 189.505939 98.126339 
L 189.678788 98.232561 
L 190.174788 98.809928 
L 190.351394 99.029097 
L 190.610667 99.240506 
L 190.922545 99.358524 
L 191.28703 99.512871 
L 191.561333 99.621947 
L 191.910788 99.79439 
L 192.173818 99.905606 
L 192.508242 100.033897 
L 192.786303 100.14809 
L 193.101939 100.224366 
L 193.391273 100.367556 
L 193.729455 100.426604 
L 193.951152 100.597721 
L 194.23297 100.753273 
L 194.409576 100.866176 
L 194.807879 101.259396 
L 194.988242 101.389723 
L 195.303879 101.621856 
L 195.585697 101.731408 
L 195.912606 101.783255 
L 197.795152 101.9666 
L 199.06897 102.076362 
L 201.079273 103.33749 
L 201.357333 103.447234 
L 201.759394 103.697173 
L 201.999879 103.808853 
L 202.383152 104.042718 
L 202.616121 104.155094 
L 202.935515 104.316306 
L 203.157212 104.432224 
L 203.431515 104.531534 
L 203.660727 104.663343 
L 203.93503 104.731797 
L 204.810545 104.904821 
L 205.580848 105.363033 
L 207.001212 106.345052 
L 207.207879 106.456321 
L 207.628727 106.804153 
L 207.820364 106.925985 
L 208.166061 107.185631 
L 208.384 107.297499 
L 208.748485 107.549125 
L 208.921333 107.66886 
L 209.357212 108.146408 
L 209.48497 108.323523 
L 209.864485 108.946907 
L 210.037333 109.062281 
L 210.473212 109.51791 
L 210.736242 109.626341 
L 211.09697 109.795301 
L 212.802909 109.907869 
L 213.682182 110.024961 
L 215.827758 110.308221 
L 217.868121 110.427195 
L 218.90897 110.56862 
L 220.453333 110.799885 
L 221.310061 111.106783 
L 221.546788 111.21757 
L 221.922545 111.54198 
L 222.050303 111.694638 
L 222.512485 112.486198 
L 222.632727 112.810813 
L 222.978424 113.786966 
L 223.106182 113.896152 
L 223.267758 114.546238 
L 223.500727 115.140489 
L 223.666061 115.261631 
L 224.421333 116.739912 
L 224.616727 116.814278 
L 224.815879 116.943974 
L 225.120242 117.109143 
L 225.992 117.223866 
L 227.528848 117.57155 
L 227.897091 117.718391 
L 228.122545 117.837036 
L 228.494545 118.076029 
L 228.641091 118.2018 
L 229.34 119.766487 
L 229.527879 120.045424 
L 229.659394 120.151139 
L 230.084 120.773142 
L 232.041697 121.820028 
L 232.875879 121.915329 
L 233.458303 122.026175 
L 233.920485 122.34582 
L 234.164727 122.568594 
L 234.345091 122.675646 
L 234.814788 123.221683 
L 234.965091 123.414945 
L 235.254424 123.740984 
L 235.423515 123.849496 
L 235.761697 124.174383 
L 235.923273 124.308615 
L 236.178788 124.471384 
L 236.438061 124.586287 
L 237.005455 124.732503 
L 237.238424 124.841161 
L 237.546545 124.992948 
L 237.753212 125.108893 
L 238.132727 125.391461 
L 238.316848 125.508413 
L 238.688848 125.832542 
L 238.891758 125.949729 
L 239.229939 126.152838 
L 239.575636 126.263773 
L 239.943879 126.341688 
L 240.364727 126.45451 
L 241.499515 127.16155 
L 241.736242 127.38234 
L 241.905333 127.490984 
L 242.288606 127.909962 
L 242.472727 128.042588 
L 242.784606 128.242186 
L 243.231758 128.357615 
L 246.448242 128.960266 
L 246.793939 129.138802 
L 246.936727 129.380896 
L 247.199758 129.731677 
L 247.357576 129.842597 
L 247.793455 130.418885 
L 247.95503 130.603155 
L 248.221818 130.829909 
L 248.488606 130.940129 
L 248.82303 131.087333 
L 249.101091 131.196441 
L 249.428 131.330829 
L 249.743636 131.455315 
L 250.983636 131.897605 
L 251.205333 131.965776 
L 251.393212 132.116102 
L 251.656242 132.254154 
L 252.704606 132.366515 
L 253.399758 132.490723 
L 253.820606 132.579854 
L 256.394545 133.08646 
L 258.758061 133.882645 
L 259.126303 133.994837 
L 259.494545 134.052597 
L 260.276121 134.385642 
L 260.72703 134.752302 
L 260.881091 134.923839 
L 261.215515 135.309015 
L 261.414667 135.417668 
L 261.809212 135.772603 
L 262.121091 135.888324 
L 262.526909 135.925111 
L 263.188242 136.043784 
L 266.739152 136.670095 
L 267.062303 136.764087 
L 267.265212 136.963738 
L 267.498182 137.065284 
L 267.689818 137.181085 
L 268.04303 137.447816 
L 268.245939 137.561176 
L 268.625455 137.874856 
L 268.824606 137.99371 
L 269.132727 138.175685 
L 269.467152 138.287184 
L 270.196121 138.412735 
L 271.184364 138.54062 
L 272.029818 138.864578 
L 272.995515 139.15791 
L 273.788364 139.263403 
L 274.408364 139.404317 
L 275.310182 139.635936 
L 276.080485 139.769637 
L 276.922182 139.930062 
L 277.200242 140.019179 
L 277.376848 140.173227 
L 277.647394 140.358504 
L 277.857818 140.468164 
L 278.173455 140.650676 
L 278.462788 140.760776 
L 278.789697 140.824081 
L 280.758667 141.063407 
L 280.916485 141.251046 
L 281.220848 141.592762 
L 281.416242 141.700946 
L 281.735636 141.925783 
L 283.193576 142.037051 
L 284.268242 142.098394 
L 285.884 142.215584 
L 286.669333 142.659018 
L 287.330667 142.851179 
L 288.563152 142.986083 
L 289.096727 143.21001 
L 289.483758 143.507063 
L 289.641576 143.682096 
L 289.908364 143.916939 
L 290.148848 144.027758 
L 290.445697 144.150658 
L 292.279394 144.263621 
L 292.880606 144.508524 
L 293.181212 144.738495 
L 293.342788 144.854445 
L 293.756121 145.3262 
L 293.902667 145.482865 
L 294.218303 145.834207 
L 294.421212 145.941961 
L 294.740606 146.154357 
L 295.011152 146.265122 
L 295.32303 146.335255 
L 296.070788 146.494646 
L 296.717091 146.546669 
L 297.742909 146.658033 
L 299.576606 146.912899 
L 302.165576 147.033324 
L 303.559636 147.145752 
L 304.168364 147.301208 
L 304.472727 147.388097 
L 310.04897 148.047989 
L 310.428485 148.14746 
L 311.379152 148.275903 
L 312.108121 148.400727 
L 313.092606 148.437929 
L 316.012242 148.549399 
L 317.188364 148.817845 
L 317.635515 148.936145 
L 320.976 149.32939 
L 321.434424 149.558284 
L 322.899879 149.888036 
L 325.154424 149.999199 
L 325.785697 150.138189 
L 326.262909 150.365665 
L 327.709576 150.857024 
L 329.610909 151.073077 
L 330.148242 151.204008 
L 331.388242 151.616592 
L 333.556364 151.73203 
L 335.209697 152.105402 
L 335.897333 152.259042 
L 336.385818 152.332157 
L 337.685939 152.36108 
L 339.745091 152.545191 
L 340.124606 152.672859 
L 340.331273 152.83542 
L 340.616848 152.994612 
L 340.943758 153.106158 
L 341.32703 153.220653 
L 341.853091 153.33173 
L 342.93903 153.432861 
L 343.867152 153.557922 
L 344.374424 153.683765 
L 345.877455 153.83872 
L 346.929576 153.95308 
L 348.917333 155.242886 
L 352.934182 155.6371 
L 353.836 155.751368 
L 355.568242 156.396549 
L 355.891394 156.555811 
L 356.188242 156.665896 
L 356.552727 156.835814 
L 356.834545 156.948127 
L 357.150182 157.023778 
L 358.348848 157.201401 
L 359.502424 157.709439 
L 359.844364 157.985759 
L 360.062303 158.094054 
L 360.483152 158.430218 
L 360.697333 158.545097 
L 361.091879 158.819202 
L 361.407515 158.930701 
L 361.775758 159.068408 
L 363.725939 159.180397 
L 365.961697 159.612596 
L 366.329939 159.698626 
L 369.065455 159.946885 
L 370.346788 160.091229 
L 372.29697 160.917149 
L 372.582545 161.003233 
L 372.864364 161.118376 
L 373.202545 161.235375 
L 373.503152 161.355675 
L 374.002909 161.471128 
L 374.506424 161.536635 
L 375.231636 161.559407 
L 376.862424 161.670307 
L 377.024 161.905506 
L 377.354667 162.374129 
L 377.501212 162.480218 
L 377.647758 163.053356 
L 377.952121 164.104338 
L 378.121212 164.2277 
L 378.282788 164.913734 
L 378.549576 165.741834 
L 378.812606 165.921277 
L 379.11697 166.232805 
L 379.744485 166.357971 
L 380.499758 166.970812 
L 380.792848 167.344612 
L 381.067152 167.481238 
L 381.540606 168.003933 
L 381.818667 168.113383 
L 382.164364 168.259866 
L 382.882061 168.372859 
L 383.817697 168.810832 
L 384.366303 169.33885 
L 384.591758 169.571537 
L 384.768364 169.679439 
L 384.967515 170.274629 
L 385.181697 170.596609 
L 385.335758 170.709616 
L 385.482303 171.328946 
L 385.767879 172.337748 
L 385.918182 172.458476 
L 386.045939 173.130713 
L 386.395394 174.963125 
L 386.515636 175.06904 
L 386.635879 175.725007 
L 387.004121 177.815483 
L 387.116848 177.924912 
L 387.248364 178.60569 
L 387.545212 179.947194 
L 387.688 180.06513 
L 387.82703 180.761618 
L 388.093818 181.80434 
L 388.232848 181.918738 
L 388.356848 182.59572 
L 388.706303 184.527596 
L 388.822788 184.63801 
L 388.94303 185.306573 
L 389.311273 187.418748 
L 389.446545 187.53138 
L 389.630667 188.269822 
L 389.837333 188.661451 
L 390.044 188.786523 
L 390.472364 189.298124 
L 390.645212 189.417769 
L 391.359152 190.284453 
L 391.479394 190.451172 
L 391.629697 191.194543 
L 391.982909 192.902064 
L 392.099394 193.008125 
L 392.212121 193.663104 
L 392.636727 196.475599 
L 392.726909 196.618774 
L 392.903515 197.568918 
L 393.102667 198.063139 
L 393.234182 198.174516 
L 393.403273 198.898037 
L 393.602424 199.312183 
L 393.718909 199.422862 
L 393.831636 200.08038 
L 394.312606 203.43825 
L 394.39903 203.846015 
L 394.541818 205.945653 
L 394.936364 211.980087 
L 395.037818 212.087938 
L 395.146788 212.815076 
L 395.586424 216.150669 
L 396.041091 216.322688 
L 396.270303 217.15582 
L 396.450667 217.359765 
L 396.544606 217.471522 
L 396.649818 218.159776 
L 396.811394 221.077756 
L 397.145818 226.710595 
L 397.239758 226.828807 
L 397.329939 227.714097 
L 397.472727 231.853281 
L 397.671879 245.145406 
L 397.976242 263.25577 
L 398.036364 263.852947 
L 398.175394 268.253649 
L 398.457212 284.104959 
L 398.483515 295.488 
L 398.483515 295.488 
" clip-path="url(#pccd667c573)" style="fill: none; stroke: #1f77b4; stroke-width: 1.5; stroke-linecap: square"/>
   </g>
   <g id="line2d_17">
    <path d="M 123.207273 63.100203 
L 386.846303 177.486102 
" clip-path="url(#pccd667c573)" style="fill: none; stroke-dasharray: 5.55,2.4; stroke-dashoffset: 0; stroke: #ff7f0e; stroke-width: 1.5"/>
   </g>
   <g id="line2d_18">
    <path d="M 73.832727 167.95394 
L 398.487273 167.95394 
L 398.487273 167.95394 
" clip-path="url(#pccd667c573)" style="fill: none; stroke-dasharray: 5.55,2.4; stroke-dashoffset: 0; stroke: #2ca02c; stroke-width: 1.5"/>
   </g>
   <g id="LineCollection_1">
    <path d="M 386.846303 295.488 
L 386.846303 53.568 
" clip-path="url(#pccd667c573)" style="fill: none; stroke-dasharray: 5.55,2.4; stroke-dashoffset: 0; stroke: #1f77b4; stroke-width: 1.5"/>
   </g>
   <g id="patch_3">
    <path d="M 57.6 307.584 
L 57.6 41.472 
" style="fill: none; stroke: #000000; stroke-width: 0.8; stroke-linejoin: miter; stroke-linecap: square"/>
   </g>
   <g id="patch_4">
    <path d="M 414.72 307.584 
L 414.72 41.472 
" style="fill: none; stroke: #000000; stroke-width: 0.8; stroke-linejoin: miter; stroke-linecap: square"/>
   </g>
   <g id="patch_5">
    <path d="M 57.6 307.584 
L 414.72 307.584 
" style="fill: none; stroke: #000000; stroke-width: 0.8; stroke-linejoin: miter; stroke-linecap: square"/>
   </g>
   <g id="patch_6">
    <path d="M 57.6 41.472 
L 414.72 41.472 
" style="fill: none; stroke: #000000; stroke-width: 0.8; stroke-linejoin: miter; stroke-linecap: square"/>
   </g>
   <g id="text_16">
    <!-- Energy Decay - 125 Hz -->
    <g transform="translate(167.4075 35.472) scale(0.12 -0.12)">
     <defs>
      <path id="DejaVuSans-45" d="M 628 4666 
L 3578 4666 
L 3578 4134 
L 1259 4134 
L 1259 2753 
L 3481 2753 
L 3481 2222 
L 1259 2222 
L 1259 531 
L 3634 531 
L 3634 0 
L 628 0 
L 628 4666 
z
" transform="scale(0.015625)"/>
      <path id="DejaVuSans-6e" d="M 3513 2113 
L 3513 0 
L 2938 0 
L 2938 2094 
Q 2938 2591 2744 2837 
Q 2550 3084 2163 3084 
Q 1697 3084 1428 2787 
Q 1159 2491 1159 1978 
L 1159 0 
L 581 0 
L 581 3500 
L 1159 3500 
L 1159 2956 
Q 1366 3272 1645 3428 
Q 1925 3584 2291 3584 
Q 2894 3584 3203 3211 
Q 3513 2838 3513 2113 
z
" transform="scale(0.015625)"/>
      <path id="DejaVuSans-65" d="M 3597 1894 
L 3597 1613 
L 953 1613 
Q 991 1019 1311 708 
Q 1631 397 2203 397 
Q 2534 397 2845 478 
Q 3156 559 3463 722 
L 3463 178 
Q 3153 47 2828 -22 
Q 2503 -91 2169 -91 
Q 1331 -91 842 396 
Q 353 884 353 1716 
Q 353 2575 817 3079 
Q 1281 3584 2069 3584 
Q 2775 3584 3186 3129 
Q 3597 2675 3597 1894 
z
M 3022 2063 
Q 3016 2534 2758 2815 
Q 2500 3097 2075 3097 
Q 1594 3097 1305 2825 
Q 1016 2553 972 2059 
L 3022 2063 
z
" transform="scale(0.015625)"/>
      <path id="DejaVuSans-72" d="M 2631 2963 
Q 2534 3019 2420 3045 
Q 2306 3072 2169 3072 
Q 1681 3072 1420 2755 
Q 1159 2438 1159 1844 
L 1159 0 
L 581 0 
L 581 3500 
L 1159 3500 
L 1159 2956 
Q 1341 3275 1631 3429 
Q 1922 3584 2338 3584 
Q 2397 3584 2469 3576 
Q 2541 3569 2628 3553 
L 2631 2963 
z
" transform="scale(0.015625)"/>
      <path id="DejaVuSans-67" d="M 2906 1791 
Q 2906 2416 2648 2759 
Q 2391 3103 1925 3103 
Q 1463 3103 1205 2759 
Q 947 2416 947 1791 
Q 947 1169 1205 825 
Q 1463 481 1925 481 
Q 2391 481 2648 825 
Q 2906 1169 2906 1791 
z
M 3481 434 
Q 3481 -459 3084 -895 
Q 2688 -1331 1869 -1331 
Q 1566 -1331 1297 -1286 
Q 1028 -1241 775 -1147 
L 775 -588 
Q 1028 -725 1275 -790 
Q 1522 -856 1778 -856 
Q 2344 -856 2625 -561 
Q 2906 -266 2906 331 
L 2906 616 
Q 2728 306 2450 153 
Q 2172 0 1784 0 
Q 1141 0 747 490 
Q 353 981 353 1791 
Q 353 2603 747 3093 
Q 1141 3584 1784 3584 
Q 2172 3584 2450 3431 
Q 2728 3278 2906 2969 
L 2906 3500 
L 3481 3500 
L 3481 434 
z
" transform="scale(0.015625)"/>
      <path id="DejaVuSans-79" d="M 2059 -325 
Q 1816 -950 1584 -1140 
Q 1353 -1331 966 -1331 
L 506 -1331 
L 506 -850 
L 844 -850 
Q 1081 -850 1212 -737 
Q 1344 -625 1503 -206 
L 1606 56 
L 191 3500 
L 800 3500 
L 1894 763 
L 2988 3500 
L 3597 3500 
L 2059 -325 
z
" transform="scale(0.015625)"/>
      <path id="DejaVuSans-20" transform="scale(0.015625)"/>
      <path id="DejaVuSans-44" d="M 1259 4147 
L 1259 519 
L 2022 519 
Q 2988 519 3436 956 
Q 3884 1394 3884 2338 
Q 3884 3275 3436 3711 
Q 2988 4147 2022 4147 
L 1259 4147 
z
M 628 4666 
L 1925 4666 
Q 3281 4666 3915 4102 
Q 4550 3538 4550 2338 
Q 4550 1131 3912 565 
Q 3275 0 1925 0 
L 628 0 
L 628 4666 
z
" transform="scale(0.015625)"/>
      <path id="DejaVuSans-63" d="M 3122 3366 
L 3122 2828 
Q 2878 2963 2633 3030 
Q 2388 3097 2138 3097 
Q 1578 3097 1268 2742 
Q 959 2388 959 1747 
Q 959 1106 1268 751 
Q 1578 397 2138 397 
Q 2388 397 2633 464 
Q 2878 531 3122 666 
L 3122 134 
Q 2881 22 2623 -34 
Q 2366 -91 2075 -91 
Q 1284 -91 818 406 
Q 353 903 353 1747 
Q 353 2603 823 3093 
Q 1294 3584 2113 3584 
Q 2378 3584 2631 3529 
Q 2884 3475 3122 3366 
z
" transform="scale(0.015625)"/>
      <path id="DejaVuSans-61" d="M 2194 1759 
Q 1497 1759 1228 1600 
Q 959 1441 959 1056 
Q 959 750 1161 570 
Q 1363 391 1709 391 
Q 2188 391 2477 730 
Q 2766 1069 2766 1631 
L 2766 1759 
L 2194 1759 
z
M 3341 1997 
L 3341 0 
L 2766 0 
L 2766 531 
Q 2569 213 2275 61 
Q 1981 -91 1556 -91 
Q 1019 -91 701 211 
Q 384 513 384 1019 
Q 384 1609 779 1909 
Q 1175 2209 1959 2209 
L 2766 2209 
L 2766 2266 
Q 2766 2663 2505 2880 
Q 2244 3097 1772 3097 
Q 1472 3097 1187 3025 
Q 903 2953 641 2809 
L 641 3341 
Q 956 3463 1253 3523 
Q 1550 3584 1831 3584 
Q 2591 3584 2966 3190 
Q 3341 2797 3341 1997 
z
" transform="scale(0.015625)"/>
      <path id="DejaVuSans-2d" d="M 313 2009 
L 1997 2009 
L 1997 1497 
L 313 1497 
L 313 2009 
z
" transform="scale(0.015625)"/>
      <path id="DejaVuSans-48" d="M 628 4666 
L 1259 4666 
L 1259 2753 
L 3553 2753 
L 3553 4666 
L 4184 4666 
L 4184 0 
L 3553 0 
L 3553 2222 
L 1259 2222 
L 1259 0 
L 628 0 
L 628 4666 
z
" transform="scale(0.015625)"/>
      <path id="DejaVuSans-7a" d="M 353 3500 
L 3084 3500 
L 3084 2975 
L 922 459 
L 3084 459 
L 3084 0 
L 275 0 
L 275 525 
L 2438 3041 
L 353 3041 
L 353 3500 
z
" transform="scale(0.015625)"/>
     </defs>
     <use xlink:href="#DejaVuSans-45"/>
     <use xlink:href="#DejaVuSans-6e" transform="translate(63.183594 0)"/>
     <use xlink:href="#DejaVuSans-65" transform="translate(126.5625 0)"/>
     <use xlink:href="#DejaVuSans-72" transform="translate(188.085938 0)"/>
     <use xlink:href="#DejaVuSans-67" transform="translate(227.449219 0)"/>
     <use xlink:href="#DejaVuSans-79" transform="translate(290.925781 0)"/>
     <use xlink:href="#DejaVuSans-20" transform="translate(350.105469 0)"/>
     <use xlink:href="#DejaVuSans-44" transform="translate(381.892578 0)"/>
     <use xlink:href="#DejaVuSans-65" transform="translate(458.894531 0)"/>
     <use xlink:href="#DejaVuSans-63" transform="translate(520.417969 0)"/>
     <use xlink:href="#DejaVuSans-61" transform="translate(575.398438 0)"/>
     <use xlink:href="#DejaVuSans-79" transform="translate(636.677734 0)"/>
     <use xlink:href="#DejaVuSans-20" transform="translate(695.857422 0)"/>
     <use xlink:href="#DejaVuSans-2d" transform="translate(727.644531 0)"/>
     <use xlink:href="#DejaVuSans-20" transform="translate(763.728516 0)"/>
     <use xlink:href="#DejaVuSans-31" transform="translate(795.515625 0)"/>
     <use xlink:href="#DejaVuSans-32" transform="translate(859.138672 0)"/>
     <use xlink:href="#DejaVuSans-35" transform="translate(922.761719 0)"/>
     <use xlink:href="#DejaVuSans-20" transform="translate(986.384766 0)"/>
     <use xlink:href="#DejaVuSans-48" transform="translate(1018.171875 0)"/>
     <use xlink:href="#DejaVuSans-7a" transform="translate(1093.367188 0)"/>
    </g>
   </g>
   <g id="legend_1">
    <g id="patch_7">
     <path d="M 296.968437 108.1845 
L 407.72 108.1845 
Q 409.72 108.1845 409.72 106.1845 
L 409.72 48.472 
Q 409.72 46.472 407.72 46.472 
L 296.968437 46.472 
Q 294.968437 46.472 294.968437 48.472 
L 294.968437 106.1845 
Q 294.968437 108.1845 296.968437 108.1845 
z
" style="fill: #ffffff; opacity: 0.8; stroke: #cccccc; stroke-linejoin: miter"/>
    </g>
    <g id="line2d_19">
     <path d="M 298.968437 54.570438 
L 308.968437 54.570438 
L 318.968437 54.570438 
" style="fill: none; stroke: #1f77b4; stroke-width: 1.5; stroke-linecap: square"/>
    </g>
    <g id="text_17">
     <!-- Energy -->
     <g transform="translate(326.968437 58.070438) scale(0.1 -0.1)">
      <use xlink:href="#DejaVuSans-45"/>
      <use xlink:href="#DejaVuSans-6e" transform="translate(63.183594 0)"/>
      <use xlink:href="#DejaVuSans-65" transform="translate(126.5625 0)"/>
      <use xlink:href="#DejaVuSans-72" transform="translate(188.085938 0)"/>
      <use xlink:href="#DejaVuSans-67" transform="translate(227.449219 0)"/>
      <use xlink:href="#DejaVuSans-79" transform="translate(290.925781 0)"/>
     </g>
    </g>
    <g id="line2d_20">
     <path d="M 298.968437 69.248563 
L 308.968437 69.248563 
L 318.968437 69.248563 
" style="fill: none; stroke-dasharray: 5.55,2.4; stroke-dashoffset: 0; stroke: #ff7f0e; stroke-width: 1.5"/>
    </g>
    <g id="text_18">
     <!-- Linear Fit -->
     <g transform="translate(326.968437 72.748563) scale(0.1 -0.1)">
      <defs>
       <path id="DejaVuSans-4c" d="M 628 4666 
L 1259 4666 
L 1259 531 
L 3531 531 
L 3531 0 
L 628 0 
L 628 4666 
z
" transform="scale(0.015625)"/>
       <path id="DejaVuSans-69" d="M 603 3500 
L 1178 3500 
L 1178 0 
L 603 0 
L 603 3500 
z
M 603 4863 
L 1178 4863 
L 1178 4134 
L 603 4134 
L 603 4863 
z
" transform="scale(0.015625)"/>
       <path id="DejaVuSans-46" d="M 628 4666 
L 3309 4666 
L 3309 4134 
L 1259 4134 
L 1259 2759 
L 3109 2759 
L 3109 2228 
L 1259 2228 
L 1259 0 
L 628 0 
L 628 4666 
z
" transform="scale(0.015625)"/>
       <path id="DejaVuSans-74" d="M 1172 4494 
L 1172 3500 
L 2356 3500 
L 2356 3053 
L 1172 3053 
L 1172 1153 
Q 1172 725 1289 603 
Q 1406 481 1766 481 
L 2356 481 
L 2356 0 
L 1766 0 
Q 1100 0 847 248 
Q 594 497 594 1153 
L 594 3053 
L 172 3053 
L 172 3500 
L 594 3500 
L 594 4494 
L 1172 4494 
z
" transform="scale(0.015625)"/>
      </defs>
      <use xlink:href="#DejaVuSans-4c"/>
      <use xlink:href="#DejaVuSans-69" transform="translate(55.712891 0)"/>
      <use xlink:href="#DejaVuSans-6e" transform="translate(83.496094 0)"/>
      <use xlink:href="#DejaVuSans-65" transform="translate(146.875 0)"/>
      <use xlink:href="#DejaVuSans-61" transform="translate(208.398438 0)"/>
      <use xlink:href="#DejaVuSans-72" transform="translate(269.677734 0)"/>
      <use xlink:href="#DejaVuSans-20" transform="translate(310.791016 0)"/>
      <use xlink:href="#DejaVuSans-46" transform="translate(342.578125 0)"/>
      <use xlink:href="#DejaVuSans-69" transform="translate(392.847656 0)"/>
      <use xlink:href="#DejaVuSans-74" transform="translate(420.630859 0)"/>
     </g>
    </g>
    <g id="line2d_21">
     <path d="M 298.968437 83.926688 
L 308.968437 83.926688 
L 318.968437 83.926688 
" style="fill: none; stroke-dasharray: 5.55,2.4; stroke-dashoffset: 0; stroke: #2ca02c; stroke-width: 1.5"/>
    </g>
    <g id="text_19">
     <!-- -60 dB -->
     <g transform="translate(326.968437 87.426688) scale(0.1 -0.1)">
      <defs>
       <path id="DejaVuSans-64" d="M 2906 2969 
L 2906 4863 
L 3481 4863 
L 3481 0 
L 2906 0 
L 2906 525 
Q 2725 213 2448 61 
Q 2172 -91 1784 -91 
Q 1150 -91 751 415 
Q 353 922 353 1747 
Q 353 2572 751 3078 
Q 1150 3584 1784 3584 
Q 2172 3584 2448 3432 
Q 2725 3281 2906 2969 
z
M 947 1747 
Q 947 1113 1208 752 
Q 1469 391 1925 391 
Q 2381 391 2643 752 
Q 2906 1113 2906 1747 
Q 2906 2381 2643 2742 
Q 2381 3103 1925 3103 
Q 1469 3103 1208 2742 
Q 947 2381 947 1747 
z
" transform="scale(0.015625)"/>
       <path id="DejaVuSans-42" d="M 1259 2228 
L 1259 519 
L 2272 519 
Q 2781 519 3026 730 
Q 3272 941 3272 1375 
Q 3272 1813 3026 2020 
Q 2781 2228 2272 2228 
L 1259 2228 
z
M 1259 4147 
L 1259 2741 
L 2194 2741 
Q 2656 2741 2882 2914 
Q 3109 3088 3109 3444 
Q 3109 3797 2882 3972 
Q 2656 4147 2194 4147 
L 1259 4147 
z
M 628 4666 
L 2241 4666 
Q 2963 4666 3353 4366 
Q 3744 4066 3744 3513 
Q 3744 3084 3544 2831 
Q 3344 2578 2956 2516 
Q 3422 2416 3680 2098 
Q 3938 1781 3938 1306 
Q 3938 681 3513 340 
Q 3088 0 2303 0 
L 628 0 
L 628 4666 
z
" transform="scale(0.015625)"/>
      </defs>
      <use xlink:href="#DejaVuSans-2d"/>
      <use xlink:href="#DejaVuSans-36" transform="translate(36.083984 0)"/>
      <use xlink:href="#DejaVuSans-30" transform="translate(99.707031 0)"/>
      <use xlink:href="#DejaVuSans-20" transform="translate(163.330078 0)"/>
      <use xlink:href="#DejaVuSans-64" transform="translate(195.117188 0)"/>
      <use xlink:href="#DejaVuSans-42" transform="translate(258.59375 0)"/>
     </g>
    </g>
    <g id="line2d_22">
     <path d="M 298.968437 98.604813 
L 318.968437 98.604813 
" style="fill: none; stroke-dasharray: 5.55,2.4; stroke-dashoffset: 0; stroke: #1f77b4; stroke-width: 1.5"/>
    </g>
    <g id="text_20">
     <!-- Estimated RT60 -->
     <g transform="translate(326.968437 102.104813) scale(0.1 -0.1)">
      <defs>
       <path id="DejaVuSans-73" d="M 2834 3397 
L 2834 2853 
Q 2591 2978 2328 3040 
Q 2066 3103 1784 3103 
Q 1356 3103 1142 2972 
Q 928 2841 928 2578 
Q 928 2378 1081 2264 
Q 1234 2150 1697 2047 
L 1894 2003 
Q 2506 1872 2764 1633 
Q 3022 1394 3022 966 
Q 3022 478 2636 193 
Q 2250 -91 1575 -91 
Q 1294 -91 989 -36 
Q 684 19 347 128 
L 347 722 
Q 666 556 975 473 
Q 1284 391 1588 391 
Q 1994 391 2212 530 
Q 2431 669 2431 922 
Q 2431 1156 2273 1281 
Q 2116 1406 1581 1522 
L 1381 1569 
Q 847 1681 609 1914 
Q 372 2147 372 2553 
Q 372 3047 722 3315 
Q 1072 3584 1716 3584 
Q 2034 3584 2315 3537 
Q 2597 3491 2834 3397 
z
" transform="scale(0.015625)"/>
       <path id="DejaVuSans-6d" d="M 3328 2828 
Q 3544 3216 3844 3400 
Q 4144 3584 4550 3584 
Q 5097 3584 5394 3201 
Q 5691 2819 5691 2113 
L 5691 0 
L 5113 0 
L 5113 2094 
Q 5113 2597 4934 2840 
Q 4756 3084 4391 3084 
Q 3944 3084 3684 2787 
Q 3425 2491 3425 1978 
L 3425 0 
L 2847 0 
L 2847 2094 
Q 2847 2600 2669 2842 
Q 2491 3084 2119 3084 
Q 1678 3084 1418 2786 
Q 1159 2488 1159 1978 
L 1159 0 
L 581 0 
L 581 3500 
L 1159 3500 
L 1159 2956 
Q 1356 3278 1631 3431 
Q 1906 3584 2284 3584 
Q 2666 3584 2933 3390 
Q 3200 3197 3328 2828 
z
" transform="scale(0.015625)"/>
       <path id="DejaVuSans-52" d="M 2841 2188 
Q 3044 2119 3236 1894 
Q 3428 1669 3622 1275 
L 4263 0 
L 3584 0 
L 2988 1197 
Q 2756 1666 2539 1819 
Q 2322 1972 1947 1972 
L 1259 1972 
L 1259 0 
L 628 0 
L 628 4666 
L 2053 4666 
Q 2853 4666 3247 4331 
Q 3641 3997 3641 3322 
Q 3641 2881 3436 2590 
Q 3231 2300 2841 2188 
z
M 1259 4147 
L 1259 2491 
L 2053 2491 
Q 2509 2491 2742 2702 
Q 2975 2913 2975 3322 
Q 2975 3731 2742 3939 
Q 2509 4147 2053 4147 
L 1259 4147 
z
" transform="scale(0.015625)"/>
       <path id="DejaVuSans-54" d="M -19 4666 
L 3928 4666 
L 3928 4134 
L 2272 4134 
L 2272 0 
L 1638 0 
L 1638 4134 
L -19 4134 
L -19 4666 
z
" transform="scale(0.015625)"/>
      </defs>
      <use xlink:href="#DejaVuSans-45"/>
      <use xlink:href="#DejaVuSans-73" transform="translate(63.183594 0)"/>
      <use xlink:href="#DejaVuSans-74" transform="translate(115.283203 0)"/>
      <use xlink:href="#DejaVuSans-69" transform="translate(154.492188 0)"/>
      <use xlink:href="#DejaVuSans-6d" transform="translate(182.275391 0)"/>
      <use xlink:href="#DejaVuSans-61" transform="translate(279.6875 0)"/>
      <use xlink:href="#DejaVuSans-74" transform="translate(340.966797 0)"/>
      <use xlink:href="#DejaVuSans-65" transform="translate(380.175781 0)"/>
      <use xlink:href="#DejaVuSans-64" transform="translate(441.699219 0)"/>
      <use xlink:href="#DejaVuSans-20" transform="translate(505.175781 0)"/>
      <use xlink:href="#DejaVuSans-52" transform="translate(536.962891 0)"/>
      <use xlink:href="#DejaVuSans-54" transform="translate(599.195312 0)"/>
      <use xlink:href="#DejaVuSans-36" transform="translate(660.279297 0)"/>
      <use xlink:href="#DejaVuSans-30" transform="translate(723.902344 0)"/>
     </g>
    </g>
   </g>
  </g>
 </g>
 <defs>
  <clipPath id="pccd667c573">
   <rect x="57.6" y="41.472" width="357.12" height="266.112"/>
  </clipPath>
 </defs>
</svg>
